<?xml version="1.0" encoding="utf-8" standalone="no"?>
<!DOCTYPE svg PUBLIC "-//W3C//DTD SVG 1.1//EN"
  "http://www.w3.org/Graphics/SVG/1.1/DTD/svg11.dtd">
<svg xmlns:xlink="http://www.w3.org/1999/xlink" width="460.8pt" height="345.6pt" viewBox="0 0 460.8 345.6" xmlns="http://www.w3.org/2000/svg" version="1.1">
 <metadata>
  <rdf:RDF xmlns:dc="http://purl.org/dc/elements/1.1/" xmlns:cc="http://creativecommons.org/ns#" xmlns:rdf="http://www.w3.org/1999/02/22-rdf-syntax-ns#">
   <cc:Work>
    <dc:type rdf:resource="http://purl.org/dc/dcmitype/StillImage"/>
    <dc:date>2022-01-01T00:00:00+00:00</dc:date>
    <dc:format>image/svg+xml</dc:format>
    <dc:creator>
     <cc:Agent>
      <dc:title>Matplotlib v3.10.8, https://matplotlib.org/</dc:title>
     </cc:Agent>
    </dc:creator>
   </cc:Work>
  </rdf:RDF>
 </metadata>
 <defs>
  <style type="text/css">*{stroke-linejoin: round; stroke-linecap: butt}</style>
 </defs>
 <g id="figure_1">
  <g id="patch_1">
   <path d="M 0 345.6 
L 460.8 345.6 
L 460.8 0 
L 0 0 
z
" style="fill: #ffffff"/>
  </g>
  <g id="axes_1">
   <g id="patch_2">
    <path d="M 57.6 307.584 
L 414.72 307.584 
L 414.72 68.0832 
L 57.6 68.0832 
z
" style="fill: #ffffff"/>
   </g>
   <g id="matplotlib.axis_1">
    <g id="xtick_1">
     <g id="line2d_1">
      <path d="M 109.254172 307.584 
L 109.254172 68.0832 
" clip-path="url(#p55d5dc5ec0)" style="fill: none; stroke: #b0b0b0; stroke-width: 0.8; stroke-linecap: square"/>
     </g>
     <g id="line2d_2">
      <defs>
       <path id="mcbbef6645f" d="M 0 0 
L 0 3.5 
" style="stroke: #000000; stroke-width: 0.8"/>
      </defs>
      <g>
       <use xlink:href="#mcbbef6645f" x="109.254172" y="307.584" style="stroke: #000000; stroke-width: 0.8"/>
      </g>
     </g>
     <g id="text_1">
      <!-- 1 -->
      <g transform="translate(106.072922 322.182437) scale(0.1 -0.1)">
       <defs>
        <path id="DejaVuSans-31" d="M 794 531 
L 1825 531 
L 1825 4091 
L 703 3866 
L 703 4441 
L 1819 4666 
L 2450 4666 
L 2450 531 
L 3481 531 
L 3481 0 
L 794 0 
L 794 531 
z
" transform="scale(0.015625)"/>
       </defs>
       <use xlink:href="#DejaVuSans-31"/>
      </g>
     </g>
    </g>
    <g id="xtick_2">
     <g id="line2d_3">
      <path d="M 160.960076 307.584 
L 160.960076 68.0832 
" clip-path="url(#p55d5dc5ec0)" style="fill: none; stroke: #b0b0b0; stroke-width: 0.8; stroke-linecap: square"/>
     </g>
     <g id="line2d_4">
      <g>
       <use xlink:href="#mcbbef6645f" x="160.960076" y="307.584" style="stroke: #000000; stroke-width: 0.8"/>
      </g>
     </g>
     <g id="text_2">
      <!-- 2 -->
      <g transform="translate(157.778826 322.182437) scale(0.1 -0.1)">
       <defs>
        <path id="DejaVuSans-32" d="M 1228 531 
L 3431 531 
L 3431 0 
L 469 0 
L 469 531 
Q 828 903 1448 1529 
Q 2069 2156 2228 2338 
Q 2531 2678 2651 2914 
Q 2772 3150 2772 3378 
Q 2772 3750 2511 3984 
Q 2250 4219 1831 4219 
Q 1534 4219 1204 4116 
Q 875 4013 500 3803 
L 500 4441 
Q 881 4594 1212 4672 
Q 1544 4750 1819 4750 
Q 2544 4750 2975 4387 
Q 3406 4025 3406 3419 
Q 3406 3131 3298 2873 
Q 3191 2616 2906 2266 
Q 2828 2175 2409 1742 
Q 1991 1309 1228 531 
z
" transform="scale(0.015625)"/>
       </defs>
       <use xlink:href="#DejaVuSans-32"/>
      </g>
     </g>
    </g>
    <g id="xtick_3">
     <g id="line2d_5">
      <path d="M 212.66598 307.584 
L 212.66598 68.0832 
" clip-path="url(#p55d5dc5ec0)" style="fill: none; stroke: #b0b0b0; stroke-width: 0.8; stroke-linecap: square"/>
     </g>
     <g id="line2d_6">
      <g>
       <use xlink:href="#mcbbef6645f" x="212.66598" y="307.584" style="stroke: #000000; stroke-width: 0.8"/>
      </g>
     </g>
     <g id="text_3">
      <!-- 3 -->
      <g transform="translate(209.48473 322.182437) scale(0.1 -0.1)">
       <defs>
        <path id="DejaVuSans-33" d="M 2597 2516 
Q 3050 2419 3304 2112 
Q 3559 1806 3559 1356 
Q 3559 666 3084 287 
Q 2609 -91 1734 -91 
Q 1441 -91 1130 -33 
Q 819 25 488 141 
L 488 750 
Q 750 597 1062 519 
Q 1375 441 1716 441 
Q 2309 441 2620 675 
Q 2931 909 2931 1356 
Q 2931 1769 2642 2001 
Q 2353 2234 1838 2234 
L 1294 2234 
L 1294 2753 
L 1863 2753 
Q 2328 2753 2575 2939 
Q 2822 3125 2822 3475 
Q 2822 3834 2567 4026 
Q 2313 4219 1838 4219 
Q 1578 4219 1281 4162 
Q 984 4106 628 3988 
L 628 4550 
Q 988 4650 1302 4700 
Q 1616 4750 1894 4750 
Q 2613 4750 3031 4423 
Q 3450 4097 3450 3541 
Q 3450 3153 3228 2886 
Q 3006 2619 2597 2516 
z
" transform="scale(0.015625)"/>
       </defs>
       <use xlink:href="#DejaVuSans-33"/>
      </g>
     </g>
    </g>
    <g id="xtick_4">
     <g id="line2d_7">
      <path d="M 264.371884 307.584 
L 264.371884 68.0832 
" clip-path="url(#p55d5dc5ec0)" style="fill: none; stroke: #b0b0b0; stroke-width: 0.8; stroke-linecap: square"/>
     </g>
     <g id="line2d_8">
      <g>
       <use xlink:href="#mcbbef6645f" x="264.371884" y="307.584" style="stroke: #000000; stroke-width: 0.8"/>
      </g>
     </g>
     <g id="text_4">
      <!-- 4 -->
      <g transform="translate(261.190634 322.182437) scale(0.1 -0.1)">
       <defs>
        <path id="DejaVuSans-34" d="M 2419 4116 
L 825 1625 
L 2419 1625 
L 2419 4116 
z
M 2253 4666 
L 3047 4666 
L 3047 1625 
L 3713 1625 
L 3713 1100 
L 3047 1100 
L 3047 0 
L 2419 0 
L 2419 1100 
L 313 1100 
L 313 1709 
L 2253 4666 
z
" transform="scale(0.015625)"/>
       </defs>
       <use xlink:href="#DejaVuSans-34"/>
      </g>
     </g>
    </g>
    <g id="xtick_5">
     <g id="line2d_9">
      <path d="M 316.077789 307.584 
L 316.077789 68.0832 
" clip-path="url(#p55d5dc5ec0)" style="fill: none; stroke: #b0b0b0; stroke-width: 0.8; stroke-linecap: square"/>
     </g>
     <g id="line2d_10">
      <g>
       <use xlink:href="#mcbbef6645f" x="316.077789" y="307.584" style="stroke: #000000; stroke-width: 0.8"/>
      </g>
     </g>
     <g id="text_5">
      <!-- 5 -->
      <g transform="translate(312.896539 322.182437) scale(0.1 -0.1)">
       <defs>
        <path id="DejaVuSans-35" d="M 691 4666 
L 3169 4666 
L 3169 4134 
L 1269 4134 
L 1269 2991 
Q 1406 3038 1543 3061 
Q 1681 3084 1819 3084 
Q 2600 3084 3056 2656 
Q 3513 2228 3513 1497 
Q 3513 744 3044 326 
Q 2575 -91 1722 -91 
Q 1428 -91 1123 -41 
Q 819 9 494 109 
L 494 744 
Q 775 591 1075 516 
Q 1375 441 1709 441 
Q 2250 441 2565 725 
Q 2881 1009 2881 1497 
Q 2881 1984 2565 2268 
Q 2250 2553 1709 2553 
Q 1456 2553 1204 2497 
Q 953 2441 691 2322 
L 691 4666 
z
" transform="scale(0.015625)"/>
       </defs>
       <use xlink:href="#DejaVuSans-35"/>
      </g>
     </g>
    </g>
    <g id="xtick_6">
     <g id="line2d_11">
      <path d="M 367.783693 307.584 
L 367.783693 68.0832 
" clip-path="url(#p55d5dc5ec0)" style="fill: none; stroke: #b0b0b0; stroke-width: 0.8; stroke-linecap: square"/>
     </g>
     <g id="line2d_12">
      <g>
       <use xlink:href="#mcbbef6645f" x="367.783693" y="307.584" style="stroke: #000000; stroke-width: 0.8"/>
      </g>
     </g>
     <g id="text_6">
      <!-- 6 -->
      <g transform="translate(364.602443 322.182437) scale(0.1 -0.1)">
       <defs>
        <path id="DejaVuSans-36" d="M 2113 2584 
Q 1688 2584 1439 2293 
Q 1191 2003 1191 1497 
Q 1191 994 1439 701 
Q 1688 409 2113 409 
Q 2538 409 2786 701 
Q 3034 994 3034 1497 
Q 3034 2003 2786 2293 
Q 2538 2584 2113 2584 
z
M 3366 4563 
L 3366 3988 
Q 3128 4100 2886 4159 
Q 2644 4219 2406 4219 
Q 1781 4219 1451 3797 
Q 1122 3375 1075 2522 
Q 1259 2794 1537 2939 
Q 1816 3084 2150 3084 
Q 2853 3084 3261 2657 
Q 3669 2231 3669 1497 
Q 3669 778 3244 343 
Q 2819 -91 2113 -91 
Q 1303 -91 875 529 
Q 447 1150 447 2328 
Q 447 3434 972 4092 
Q 1497 4750 2381 4750 
Q 2619 4750 2861 4703 
Q 3103 4656 3366 4563 
z
" transform="scale(0.015625)"/>
       </defs>
       <use xlink:href="#DejaVuSans-36"/>
      </g>
     </g>
    </g>
    <g id="text_7">
     <!-- $x$ -->
     <g transform="translate(233.16 335.860562) scale(0.1 -0.1)">
      <defs>
       <path id="DejaVuSans-Oblique-78" d="M 3841 3500 
L 2234 1784 
L 3219 0 
L 2559 0 
L 1819 1388 
L 531 0 
L -166 0 
L 1556 1844 
L 641 3500 
L 1300 3500 
L 1972 2234 
L 3144 3500 
L 3841 3500 
z
" transform="scale(0.015625)"/>
      </defs>
      <use xlink:href="#DejaVuSans-Oblique-78" transform="translate(0 0.3125)"/>
     </g>
    </g>
   </g>
   <g id="matplotlib.axis_2">
    <g id="ytick_1">
     <g id="line2d_13">
      <path d="M 57.6 287.118125 
L 414.72 287.118125 
" clip-path="url(#p55d5dc5ec0)" style="fill: none; stroke: #b0b0b0; stroke-width: 0.8; stroke-linecap: square"/>
     </g>
     <g id="line2d_14">
      <defs>
       <path id="mef22aca882" d="M 0 0 
L -3.5 0 
" style="stroke: #000000; stroke-width: 0.8"/>
      </defs>
      <g>
       <use xlink:href="#mef22aca882" x="57.6" y="287.118125" style="stroke: #000000; stroke-width: 0.8"/>
      </g>
     </g>
     <g id="text_8">
      <!-- −7.5 -->
      <g transform="translate(26.317187 290.917344) scale(0.1 -0.1)">
       <defs>
        <path id="DejaVuSans-2212" d="M 678 2272 
L 4684 2272 
L 4684 1741 
L 678 1741 
L 678 2272 
z
" transform="scale(0.015625)"/>
        <path id="DejaVuSans-37" d="M 525 4666 
L 3525 4666 
L 3525 4397 
L 1831 0 
L 1172 0 
L 2766 4134 
L 525 4134 
L 525 4666 
z
" transform="scale(0.015625)"/>
        <path id="DejaVuSans-2e" d="M 684 794 
L 1344 794 
L 1344 0 
L 684 0 
L 684 794 
z
" transform="scale(0.015625)"/>
       </defs>
       <use xlink:href="#DejaVuSans-2212"/>
       <use xlink:href="#DejaVuSans-37" transform="translate(83.789062 0)"/>
       <use xlink:href="#DejaVuSans-2e" transform="translate(147.412109 0)"/>
       <use xlink:href="#DejaVuSans-35" transform="translate(179.199219 0)"/>
      </g>
     </g>
    </g>
    <g id="ytick_2">
     <g id="line2d_15">
      <path d="M 57.6 259.05522 
L 414.72 259.05522 
" clip-path="url(#p55d5dc5ec0)" style="fill: none; stroke: #b0b0b0; stroke-width: 0.8; stroke-linecap: square"/>
     </g>
     <g id="line2d_16">
      <g>
       <use xlink:href="#mef22aca882" x="57.6" y="259.05522" style="stroke: #000000; stroke-width: 0.8"/>
      </g>
     </g>
     <g id="text_9">
      <!-- −5.0 -->
      <g transform="translate(26.317187 262.854439) scale(0.1 -0.1)">
       <defs>
        <path id="DejaVuSans-30" d="M 2034 4250 
Q 1547 4250 1301 3770 
Q 1056 3291 1056 2328 
Q 1056 1369 1301 889 
Q 1547 409 2034 409 
Q 2525 409 2770 889 
Q 3016 1369 3016 2328 
Q 3016 3291 2770 3770 
Q 2525 4250 2034 4250 
z
M 2034 4750 
Q 2819 4750 3233 4129 
Q 3647 3509 3647 2328 
Q 3647 1150 3233 529 
Q 2819 -91 2034 -91 
Q 1250 -91 836 529 
Q 422 1150 422 2328 
Q 422 3509 836 4129 
Q 1250 4750 2034 4750 
z
" transform="scale(0.015625)"/>
       </defs>
       <use xlink:href="#DejaVuSans-2212"/>
       <use xlink:href="#DejaVuSans-35" transform="translate(83.789062 0)"/>
       <use xlink:href="#DejaVuSans-2e" transform="translate(147.412109 0)"/>
       <use xlink:href="#DejaVuSans-30" transform="translate(179.199219 0)"/>
      </g>
     </g>
    </g>
    <g id="ytick_3">
     <g id="line2d_17">
      <path d="M 57.6 230.992315 
L 414.72 230.992315 
" clip-path="url(#p55d5dc5ec0)" style="fill: none; stroke: #b0b0b0; stroke-width: 0.8; stroke-linecap: square"/>
     </g>
     <g id="line2d_18">
      <g>
       <use xlink:href="#mef22aca882" x="57.6" y="230.992315" style="stroke: #000000; stroke-width: 0.8"/>
      </g>
     </g>
     <g id="text_10">
      <!-- −2.5 -->
      <g transform="translate(26.317187 234.791534) scale(0.1 -0.1)">
       <use xlink:href="#DejaVuSans-2212"/>
       <use xlink:href="#DejaVuSans-32" transform="translate(83.789062 0)"/>
       <use xlink:href="#DejaVuSans-2e" transform="translate(147.412109 0)"/>
       <use xlink:href="#DejaVuSans-35" transform="translate(179.199219 0)"/>
      </g>
     </g>
    </g>
    <g id="ytick_4">
     <g id="line2d_19">
      <path d="M 57.6 202.92941 
L 414.72 202.92941 
" clip-path="url(#p55d5dc5ec0)" style="fill: none; stroke: #b0b0b0; stroke-width: 0.8; stroke-linecap: square"/>
     </g>
     <g id="line2d_20">
      <g>
       <use xlink:href="#mef22aca882" x="57.6" y="202.92941" style="stroke: #000000; stroke-width: 0.8"/>
      </g>
     </g>
     <g id="text_11">
      <!-- 0.0 -->
      <g transform="translate(34.696875 206.728629) scale(0.1 -0.1)">
       <use xlink:href="#DejaVuSans-30"/>
       <use xlink:href="#DejaVuSans-2e" transform="translate(63.623047 0)"/>
       <use xlink:href="#DejaVuSans-30" transform="translate(95.410156 0)"/>
      </g>
     </g>
    </g>
    <g id="ytick_5">
     <g id="line2d_21">
      <path d="M 57.6 174.866506 
L 414.72 174.866506 
" clip-path="url(#p55d5dc5ec0)" style="fill: none; stroke: #b0b0b0; stroke-width: 0.8; stroke-linecap: square"/>
     </g>
     <g id="line2d_22">
      <g>
       <use xlink:href="#mef22aca882" x="57.6" y="174.866506" style="stroke: #000000; stroke-width: 0.8"/>
      </g>
     </g>
     <g id="text_12">
      <!-- 2.5 -->
      <g transform="translate(34.696875 178.665724) scale(0.1 -0.1)">
       <use xlink:href="#DejaVuSans-32"/>
       <use xlink:href="#DejaVuSans-2e" transform="translate(63.623047 0)"/>
       <use xlink:href="#DejaVuSans-35" transform="translate(95.410156 0)"/>
      </g>
     </g>
    </g>
    <g id="ytick_6">
     <g id="line2d_23">
      <path d="M 57.6 146.803601 
L 414.72 146.803601 
" clip-path="url(#p55d5dc5ec0)" style="fill: none; stroke: #b0b0b0; stroke-width: 0.8; stroke-linecap: square"/>
     </g>
     <g id="line2d_24">
      <g>
       <use xlink:href="#mef22aca882" x="57.6" y="146.803601" style="stroke: #000000; stroke-width: 0.8"/>
      </g>
     </g>
     <g id="text_13">
      <!-- 5.0 -->
      <g transform="translate(34.696875 150.60282) scale(0.1 -0.1)">
       <use xlink:href="#DejaVuSans-35"/>
       <use xlink:href="#DejaVuSans-2e" transform="translate(63.623047 0)"/>
       <use xlink:href="#DejaVuSans-30" transform="translate(95.410156 0)"/>
      </g>
     </g>
    </g>
    <g id="ytick_7">
     <g id="line2d_25">
      <path d="M 57.6 118.740696 
L 414.72 118.740696 
" clip-path="url(#p55d5dc5ec0)" style="fill: none; stroke: #b0b0b0; stroke-width: 0.8; stroke-linecap: square"/>
     </g>
     <g id="line2d_26">
      <g>
       <use xlink:href="#mef22aca882" x="57.6" y="118.740696" style="stroke: #000000; stroke-width: 0.8"/>
      </g>
     </g>
     <g id="text_14">
      <!-- 7.5 -->
      <g transform="translate(34.696875 122.539915) scale(0.1 -0.1)">
       <use xlink:href="#DejaVuSans-37"/>
       <use xlink:href="#DejaVuSans-2e" transform="translate(63.623047 0)"/>
       <use xlink:href="#DejaVuSans-35" transform="translate(95.410156 0)"/>
      </g>
     </g>
    </g>
    <g id="ytick_8">
     <g id="line2d_27">
      <path d="M 57.6 90.677791 
L 414.72 90.677791 
" clip-path="url(#p55d5dc5ec0)" style="fill: none; stroke: #b0b0b0; stroke-width: 0.8; stroke-linecap: square"/>
     </g>
     <g id="line2d_28">
      <g>
       <use xlink:href="#mef22aca882" x="57.6" y="90.677791" style="stroke: #000000; stroke-width: 0.8"/>
      </g>
     </g>
     <g id="text_15">
      <!-- 10.0 -->
      <g transform="translate(28.334375 94.47701) scale(0.1 -0.1)">
       <use xlink:href="#DejaVuSans-31"/>
       <use xlink:href="#DejaVuSans-30" transform="translate(63.623047 0)"/>
       <use xlink:href="#DejaVuSans-2e" transform="translate(127.246094 0)"/>
       <use xlink:href="#DejaVuSans-30" transform="translate(159.033203 0)"/>
      </g>
     </g>
    </g>
    <g id="text_16">
     <!-- $\phi_i(x)$ -->
     <g transform="translate(20.217188 199.1336) rotate(-90) scale(0.1 -0.1)">
      <defs>
       <path id="DejaVuSans-Oblique-3d5" d="M 2991 4863 
L 2738 3572 
Q 3363 3572 3684 3094 
Q 4016 2606 3850 1747 
Q 3681 888 3159 400 
Q 2653 -78 2028 -78 
L 1784 -1331 
L 1213 -1331 
L 1456 -78 
Q 834 -78 509 400 
Q 178 888 347 1747 
Q 513 2606 1034 3094 
Q 1544 3572 2166 3572 
L 2419 4863 
L 2991 4863 
z
M 2128 434 
Q 2481 434 2784 756 
Q 3116 1116 3244 1747 
Q 3369 2372 3169 2738 
Q 2991 3059 2638 3059 
L 2128 434 
z
M 1556 434 
L 2066 3059 
Q 1716 3059 1413 2738 
Q 1072 2372 953 1747 
Q 834 1116 1028 756 
Q 1203 434 1556 434 
z
" transform="scale(0.015625)"/>
       <path id="DejaVuSans-Oblique-69" d="M 1172 4863 
L 1747 4863 
L 1606 4134 
L 1031 4134 
L 1172 4863 
z
M 909 3500 
L 1484 3500 
L 800 0 
L 225 0 
L 909 3500 
z
" transform="scale(0.015625)"/>
       <path id="DejaVuSans-28" d="M 1984 4856 
Q 1566 4138 1362 3434 
Q 1159 2731 1159 2009 
Q 1159 1288 1364 580 
Q 1569 -128 1984 -844 
L 1484 -844 
Q 1016 -109 783 600 
Q 550 1309 550 2009 
Q 550 2706 781 3412 
Q 1013 4119 1484 4856 
L 1984 4856 
z
" transform="scale(0.015625)"/>
       <path id="DejaVuSans-29" d="M 513 4856 
L 1013 4856 
Q 1481 4119 1714 3412 
Q 1947 2706 1947 2009 
Q 1947 1309 1714 600 
Q 1481 -109 1013 -844 
L 513 -844 
Q 928 -128 1133 580 
Q 1338 1288 1338 2009 
Q 1338 2731 1133 3434 
Q 928 4138 513 4856 
z
" transform="scale(0.015625)"/>
      </defs>
      <use xlink:href="#DejaVuSans-Oblique-3d5" transform="translate(0 0.015625)"/>
      <use xlink:href="#DejaVuSans-Oblique-69" transform="translate(65.966797 -16.390625) scale(0.7)"/>
      <use xlink:href="#DejaVuSans-28" transform="translate(88.149414 0.015625)"/>
      <use xlink:href="#DejaVuSans-Oblique-78" transform="translate(127.163086 0.015625)"/>
      <use xlink:href="#DejaVuSans-29" transform="translate(186.342773 0.015625)"/>
     </g>
    </g>
   </g>
   <g id="line2d_29">
    <path d="M 57.6 191.704249 
L 414.72 191.704249 
L 414.72 191.704249 
" clip-path="url(#p55d5dc5ec0)" style="fill: none; stroke: #1f77b4; stroke-width: 1.5; stroke-linecap: square"/>
   </g>
   <g id="line2d_30">
    <path d="M 57.6 214.143342 
L 414.72 136.613901 
L 414.72 136.613901 
" clip-path="url(#p55d5dc5ec0)" style="fill: none; stroke: #ff7f0e; stroke-width: 1.5; stroke-linecap: square"/>
   </g>
   <g id="line2d_31">
    <path d="M 57.6 191.726704 
L 64.778291 194.733732 
L 71.956583 197.524411 
L 79.134874 200.098742 
L 86.313166 202.456723 
L 93.491457 204.598356 
L 100.669749 206.52364 
L 107.84804 208.232575 
L 115.026332 209.725161 
L 122.204623 211.001398 
L 129.382915 212.061287 
L 136.561206 212.904826 
L 143.739497 213.532017 
L 150.917789 213.942859 
L 158.09608 214.137353 
L 165.274372 214.115497 
L 172.452663 213.877293 
L 179.630955 213.42274 
L 186.809246 212.751838 
L 193.987538 211.864587 
L 201.165829 210.760987 
L 208.344121 209.441039 
L 215.522412 207.904742 
L 222.700704 206.152096 
L 229.878995 204.183101 
L 237.057286 201.997757 
L 244.235578 199.596065 
L 251.413869 196.978023 
L 258.592161 194.143633 
L 265.770452 191.092894 
L 272.948744 187.825807 
L 280.127035 184.34237 
L 287.305327 180.642585 
L 294.483618 176.726451 
L 301.66191 172.593968 
L 308.840201 168.245136 
L 316.018492 163.679955 
L 323.196784 158.898426 
L 330.375075 153.900548 
L 339.34794 147.348959 
L 348.320804 140.459326 
L 357.293668 133.231648 
L 366.266533 125.665924 
L 375.239397 117.762156 
L 384.212261 109.520342 
L 393.185126 100.940484 
L 402.15799 92.02258 
L 411.130854 82.766632 
L 414.72 78.9696 
L 414.72 78.9696 
" clip-path="url(#p55d5dc5ec0)" style="fill: none; stroke: #2ca02c; stroke-width: 1.5; stroke-linecap: square"/>
   </g>
   <g id="line2d_32">
    <path d="M 57.6 214.120897 
L 62.983719 210.798419 
L 68.367437 207.828237 
L 73.751156 205.19768 
L 79.134874 202.894076 
L 84.518593 200.904753 
L 89.902312 199.217041 
L 95.28603 197.818269 
L 100.669749 196.695764 
L 106.053467 195.836857 
L 111.437186 195.228875 
L 116.820905 194.859148 
L 122.204623 194.715004 
L 127.588342 194.783772 
L 132.97206 195.05278 
L 138.355779 195.509358 
L 143.739497 196.140834 
L 150.917789 197.232965 
L 158.09608 198.583465 
L 165.274372 200.162296 
L 172.452663 201.939424 
L 181.425528 204.393933 
L 192.192965 207.603784 
L 206.549548 212.165887 
L 233.468141 220.806854 
L 244.235578 224.009216 
L 253.208442 226.455117 
L 260.386734 228.223809 
L 267.565025 229.792828 
L 274.743317 231.132138 
L 281.921608 232.211702 
L 287.305327 232.832849 
L 292.689045 233.278323 
L 298.072764 233.535453 
L 303.456482 233.591568 
L 308.840201 233.433996 
L 314.22392 233.050066 
L 319.607638 232.427107 
L 324.991357 231.552448 
L 330.375075 230.413417 
L 335.758794 228.997343 
L 341.142513 227.291555 
L 346.526231 225.283382 
L 351.90995 222.960152 
L 357.293668 220.309195 
L 362.677387 217.317838 
L 368.061106 213.973411 
L 373.444824 210.263243 
L 378.828543 206.174662 
L 384.212261 201.694997 
L 389.59598 196.811576 
L 394.979698 191.511729 
L 400.363417 185.782784 
L 405.747136 179.61207 
L 411.130854 172.986916 
L 414.72 168.311423 
L 414.72 168.311423 
" clip-path="url(#p55d5dc5ec0)" style="fill: none; stroke: #d62728; stroke-width: 1.5; stroke-linecap: square"/>
   </g>
   <g id="line2d_33">
    <path d="M 57.6 191.749138 
L 61.189146 194.701562 
L 64.778291 197.34454 
L 68.367437 199.692697 
L 71.956583 201.760395 
L 75.545729 203.561736 
L 79.134874 205.11056 
L 82.72402 206.420449 
L 86.313166 207.504723 
L 89.902312 208.37644 
L 93.491457 209.048401 
L 97.080603 209.533142 
L 100.669749 209.842942 
L 104.258894 209.989817 
L 109.642613 209.930292 
L 115.026332 209.569156 
L 120.41005 208.943668 
L 125.793769 208.089767 
L 131.177487 207.042074 
L 138.355779 205.401061 
L 147.328643 203.062649 
L 159.890653 199.497214 
L 176.041809 194.911574 
L 185.014673 192.579638 
L 192.192965 190.909378 
L 199.371256 189.46067 
L 206.549548 188.273359 
L 211.933266 187.576033 
L 217.316985 187.059405 
L 222.700704 186.735665 
L 228.084422 186.615686 
L 233.468141 186.70902 
L 238.851859 187.0239 
L 244.235578 187.56724 
L 249.619296 188.344634 
L 255.003015 189.360357 
L 260.386734 190.617364 
L 265.770452 192.117293 
L 271.154171 193.860459 
L 276.537889 195.845861 
L 281.921608 198.071177 
L 287.305327 200.532766 
L 292.689045 203.225666 
L 298.072764 206.143599 
L 303.456482 209.278965 
L 308.840201 212.622846 
L 316.018492 217.387825 
L 323.196784 222.477227 
L 330.375075 227.858967 
L 337.553367 233.496789 
L 346.526231 240.842198 
L 357.293668 249.97629 
L 389.59598 277.700976 
L 396.774271 283.524481 
L 403.952563 289.071026 
L 409.336281 293.001816 
L 414.72 296.6976 
L 414.72 296.6976 
" clip-path="url(#p55d5dc5ec0)" style="fill: none; stroke: #9467bd; stroke-width: 1.5; stroke-linecap: square"/>
   </g>
   <g id="line2d_34">
    <path d="M 57.6 214.098475 
L 61.189146 210.47428 
L 64.778291 207.353646 
L 68.367437 204.70098 
L 71.956583 202.481952 
L 75.545729 200.663485 
L 79.134874 199.21373 
L 82.72402 198.102051 
L 86.313166 197.299005 
L 89.902312 196.776329 
L 93.491457 196.506913 
L 97.080603 196.46479 
L 100.669749 196.625115 
L 104.258894 196.964146 
L 109.642613 197.758497 
L 115.026332 198.83223 
L 120.41005 200.118634 
L 127.588342 202.058943 
L 154.506935 209.651296 
L 161.685226 211.317141 
L 167.068945 212.377051 
L 172.452663 213.248775 
L 177.836382 213.91324 
L 183.220101 214.355038 
L 188.603819 214.562287 
L 193.987538 214.526498 
L 199.371256 214.242432 
L 204.754975 213.707967 
L 210.138693 212.923958 
L 215.522412 211.894101 
L 220.906131 210.624795 
L 226.289849 209.125004 
L 231.673568 207.406122 
L 237.057286 205.481834 
L 242.441005 203.367978 
L 249.619296 200.285751 
L 256.797588 196.945925 
L 265.770452 192.489818 
L 278.332462 185.932322 
L 296.278191 176.552402 
L 305.251055 172.15738 
L 312.429347 168.913114 
L 317.813065 166.687423 
L 323.196784 164.674764 
L 328.580503 162.906753 
L 333.964221 161.414823 
L 339.34794 160.230086 
L 342.937085 159.626088 
L 346.526231 159.181201 
L 350.115377 158.904232 
L 353.704523 158.803835 
L 357.293668 158.888494 
L 360.882814 159.1665 
L 364.47196 159.645938 
L 368.061106 160.334667 
L 371.650251 161.240303 
L 375.239397 162.370199 
L 378.828543 163.731428 
L 382.417688 165.330764 
L 386.006834 167.174667 
L 389.59598 169.26926 
L 393.185126 171.620315 
L 396.774271 174.233233 
L 400.363417 177.113028 
L 403.952563 180.264304 
L 407.541709 183.691243 
L 411.130854 187.397583 
L 414.72 191.386601 
L 414.72 191.386601 
" clip-path="url(#p55d5dc5ec0)" style="fill: none; stroke: #8c564b; stroke-width: 1.5; stroke-linecap: square"/>
   </g>
   <g id="line2d_35">
    <path d="M 57.6 191.771549 
L 59.394573 194.003552 
L 61.189146 196.042236 
L 62.983719 197.896617 
L 64.778291 199.575476 
L 66.572864 201.087358 
L 68.367437 202.440577 
L 70.16201 203.643219 
L 71.956583 204.703149 
L 73.751156 205.628007 
L 77.340302 207.101991 
L 80.929447 208.122009 
L 84.518593 208.741568 
L 88.107739 209.010947 
L 91.696884 208.977295 
L 95.28603 208.68473 
L 98.875176 208.174439 
L 102.464322 207.484768 
L 107.84804 206.191084 
L 115.026332 204.148692 
L 134.766633 198.248138 
L 140.150352 196.879126 
L 145.53407 195.705983 
L 150.917789 194.762632 
L 156.301508 194.074767 
L 161.685226 193.660431 
L 167.068945 193.530588 
L 172.452663 193.689675 
L 177.836382 194.136146 
L 183.220101 194.862995 
L 188.603819 195.858271 
L 193.987538 197.105571 
L 199.371256 198.584527 
L 204.754975 200.271275 
L 211.933266 202.796611 
L 219.111558 205.572436 
L 229.878995 210.035559 
L 247.824724 217.5746 
L 255.003015 220.373504 
L 262.181307 222.919692 
L 267.565025 224.613476 
L 272.948744 226.084757 
L 278.332462 227.301381 
L 283.716181 228.232928 
L 289.099899 228.850964 
L 292.689045 229.075766 
L 296.278191 229.142345 
L 299.867337 229.044029 
L 303.456482 228.774676 
L 307.045628 228.328704 
L 310.634774 227.70111 
L 314.22392 226.887492 
L 317.813065 225.884071 
L 321.402211 224.687711 
L 324.991357 223.295933 
L 328.580503 221.706937 
L 332.169648 219.919615 
L 335.758794 217.933566 
L 339.34794 215.749108 
L 342.937085 213.367292 
L 346.526231 210.789908 
L 350.115377 208.019502 
L 355.499095 203.509411 
L 360.882814 198.587019 
L 366.266533 193.270634 
L 371.650251 187.582505 
L 377.03397 181.548838 
L 382.417688 175.199792 
L 389.59598 166.303293 
L 396.774271 156.99876 
L 405.747136 144.953423 
L 414.72 132.66192 
L 414.72 132.66192 
" clip-path="url(#p55d5dc5ec0)" style="fill: none; stroke: #e377c2; stroke-width: 1.5; stroke-linecap: square"/>
   </g>
   <g id="line2d_36">
    <path d="M 57.6 214.076075 
L 59.394573 211.496118 
L 61.189146 209.183567 
L 62.983719 207.12285 
L 64.778291 205.298946 
L 66.572864 203.697366 
L 68.367437 202.304145 
L 70.16201 201.10583 
L 71.956583 200.08947 
L 73.751156 199.242603 
L 75.545729 198.553246 
L 77.340302 198.009886 
L 79.134874 197.601466 
L 80.929447 197.317376 
L 84.518593 197.08193 
L 88.107739 197.227236 
L 91.696884 197.68349 
L 95.28603 198.387087 
L 98.875176 199.280316 
L 104.258894 200.863181 
L 125.793769 207.585024 
L 131.177487 208.879895 
L 136.561206 209.894954 
L 141.944925 210.596285 
L 145.53407 210.879114 
L 149.123216 211.010494 
L 152.712362 210.989816 
L 156.301508 210.818524 
L 161.685226 210.286895 
L 167.068945 209.442377 
L 172.452663 208.31044 
L 177.836382 206.922682 
L 183.220101 205.315713 
L 190.398392 202.902649 
L 199.371256 199.599106 
L 217.316985 192.853641 
L 224.495276 190.408695 
L 229.878995 188.767249 
L 235.262714 187.335562 
L 240.646432 186.150885 
L 246.030151 185.247045 
L 251.413869 184.654085 
L 255.003015 184.444476 
L 258.592161 184.391271 
L 262.181307 184.500191 
L 265.770452 184.776037 
L 269.359598 185.222667 
L 272.948744 185.842975 
L 276.537889 186.638882 
L 280.127035 187.611318 
L 283.716181 188.760221 
L 287.305327 190.084526 
L 290.894472 191.582172 
L 294.483618 193.250096 
L 299.867337 196.062123 
L 305.251055 199.230119 
L 310.634774 202.731397 
L 316.018492 206.538523 
L 321.402211 210.619477 
L 326.78593 214.937843 
L 333.964221 220.994242 
L 342.937085 228.892122 
L 362.677387 246.414432 
L 369.855678 252.40902 
L 375.239397 256.628947 
L 380.623116 260.540939 
L 386.006834 264.079956 
L 389.59598 266.199824 
L 393.185126 268.105541 
L 396.774271 269.777856 
L 400.363417 271.197665 
L 403.952563 272.346078 
L 407.541709 273.204477 
L 411.130854 273.754578 
L 414.72 273.978497 
L 414.72 273.978497 
" clip-path="url(#p55d5dc5ec0)" style="fill: none; stroke: #7f7f7f; stroke-width: 1.5; stroke-linecap: square"/>
   </g>
   <g id="patch_3">
    <path d="M 57.6 307.584 
L 57.6 68.0832 
" style="fill: none; stroke: #000000; stroke-width: 0.8; stroke-linejoin: miter; stroke-linecap: square"/>
   </g>
   <g id="patch_4">
    <path d="M 414.72 307.584 
L 414.72 68.0832 
" style="fill: none; stroke: #000000; stroke-width: 0.8; stroke-linejoin: miter; stroke-linecap: square"/>
   </g>
   <g id="patch_5">
    <path d="M 57.6 307.584 
L 414.72 307.584 
" style="fill: none; stroke: #000000; stroke-width: 0.8; stroke-linejoin: miter; stroke-linecap: square"/>
   </g>
   <g id="patch_6">
    <path d="M 57.6 68.0832 
L 414.72 68.0832 
" style="fill: none; stroke: #000000; stroke-width: 0.8; stroke-linejoin: miter; stroke-linecap: square"/>
   </g>
   <g id="legend_1">
    <g id="patch_7">
     <path d="M 109.16 46.608 
L 363.16 46.608 
Q 365.16 46.608 365.16 44.608 
L 365.16 15.208 
Q 365.16 13.208 363.16 13.208 
L 109.16 13.208 
Q 107.16 13.208 107.16 15.208 
L 107.16 44.608 
Q 107.16 46.608 109.16 46.608 
z
" style="fill: #ffffff; opacity: 0.8; stroke: #cccccc; stroke-linejoin: miter"/>
    </g>
    <g id="line2d_37">
     <path d="M 111.16 21.308 
L 121.16 21.308 
L 131.16 21.308 
" style="fill: none; stroke: #1f77b4; stroke-width: 1.5; stroke-linecap: square"/>
    </g>
    <g id="text_17">
     <!-- $\phi_(x)$ -->
     <g transform="translate(139.16 24.808) scale(0.1 -0.1)">
      <use xlink:href="#DejaVuSans-Oblique-3d5" transform="translate(0 0.015625)"/>
      <use xlink:href="#DejaVuSans-28" transform="translate(65.966797 -16.390625) scale(0.7)"/>
      <use xlink:href="#DejaVuSans-Oblique-78" transform="translate(96.010742 0.015625)"/>
      <use xlink:href="#DejaVuSans-29" transform="translate(155.19043 0.015625)"/>
     </g>
    </g>
    <g id="line2d_38">
     <path d="M 111.16 36.508 
L 121.16 36.508 
L 131.16 36.508 
" style="fill: none; stroke: #ff7f0e; stroke-width: 1.5; stroke-linecap: square"/>
    </g>
    <g id="text_18">
     <!-- $\phi_(x)$ -->
     <g transform="translate(139.16 40.008) scale(0.1 -0.1)">
      <use xlink:href="#DejaVuSans-Oblique-3d5" transform="translate(0 0.015625)"/>
      <use xlink:href="#DejaVuSans-28" transform="translate(65.966797 -16.390625) scale(0.7)"/>
      <use xlink:href="#DejaVuSans-Oblique-78" transform="translate(96.010742 0.015625)"/>
      <use xlink:href="#DejaVuSans-29" transform="translate(155.19043 0.015625)"/>
     </g>
    </g>
    <g id="line2d_39">
     <path d="M 178.66 21.308 
L 188.66 21.308 
L 198.66 21.308 
" style="fill: none; stroke: #2ca02c; stroke-width: 1.5; stroke-linecap: square"/>
    </g>
    <g id="text_19">
     <!-- $\phi_(x)$ -->
     <g transform="translate(206.66 24.808) scale(0.1 -0.1)">
      <use xlink:href="#DejaVuSans-Oblique-3d5" transform="translate(0 0.015625)"/>
      <use xlink:href="#DejaVuSans-28" transform="translate(65.966797 -16.390625) scale(0.7)"/>
      <use xlink:href="#DejaVuSans-Oblique-78" transform="translate(96.010742 0.015625)"/>
      <use xlink:href="#DejaVuSans-29" transform="translate(155.19043 0.015625)"/>
     </g>
    </g>
    <g id="line2d_40">
     <path d="M 178.66 36.508 
L 188.66 36.508 
L 198.66 36.508 
" style="fill: none; stroke: #d62728; stroke-width: 1.5; stroke-linecap: square"/>
    </g>
    <g id="text_20">
     <!-- $\phi_(x)$ -->
     <g transform="translate(206.66 40.008) scale(0.1 -0.1)">
      <use xlink:href="#DejaVuSans-Oblique-3d5" transform="translate(0 0.015625)"/>
      <use xlink:href="#DejaVuSans-28" transform="translate(65.966797 -16.390625) scale(0.7)"/>
      <use xlink:href="#DejaVuSans-Oblique-78" transform="translate(96.010742 0.015625)"/>
      <use xlink:href="#DejaVuSans-29" transform="translate(155.19043 0.015625)"/>
     </g>
    </g>
    <g id="line2d_41">
     <path d="M 246.16 21.308 
L 256.16 21.308 
L 266.16 21.308 
" style="fill: none; stroke: #9467bd; stroke-width: 1.5; stroke-linecap: square"/>
    </g>
    <g id="text_21">
     <!-- $\phi_(x)$ -->
     <g transform="translate(274.16 24.808) scale(0.1 -0.1)">
      <use xlink:href="#DejaVuSans-Oblique-3d5" transform="translate(0 0.015625)"/>
      <use xlink:href="#DejaVuSans-28" transform="translate(65.966797 -16.390625) scale(0.7)"/>
      <use xlink:href="#DejaVuSans-Oblique-78" transform="translate(96.010742 0.015625)"/>
      <use xlink:href="#DejaVuSans-29" transform="translate(155.19043 0.015625)"/>
     </g>
    </g>
    <g id="line2d_42">
     <path d="M 246.16 36.508 
L 256.16 36.508 
L 266.16 36.508 
" style="fill: none; stroke: #8c564b; stroke-width: 1.5; stroke-linecap: square"/>
    </g>
    <g id="text_22">
     <!-- $\phi_(x)$ -->
     <g transform="translate(274.16 40.008) scale(0.1 -0.1)">
      <use xlink:href="#DejaVuSans-Oblique-3d5" transform="translate(0 0.015625)"/>
      <use xlink:href="#DejaVuSans-28" transform="translate(65.966797 -16.390625) scale(0.7)"/>
      <use xlink:href="#DejaVuSans-Oblique-78" transform="translate(96.010742 0.015625)"/>
      <use xlink:href="#DejaVuSans-29" transform="translate(155.19043 0.015625)"/>
     </g>
    </g>
    <g id="line2d_43">
     <path d="M 313.66 21.308 
L 323.66 21.308 
L 333.66 21.308 
" style="fill: none; stroke: #e377c2; stroke-width: 1.5; stroke-linecap: square"/>
    </g>
    <g id="text_23">
     <!-- $\phi_(x)$ -->
     <g transform="translate(341.66 24.808) scale(0.1 -0.1)">
      <use xlink:href="#DejaVuSans-Oblique-3d5" transform="translate(0 0.015625)"/>
      <use xlink:href="#DejaVuSans-28" transform="translate(65.966797 -16.390625) scale(0.7)"/>
      <use xlink:href="#DejaVuSans-Oblique-78" transform="translate(96.010742 0.015625)"/>
      <use xlink:href="#DejaVuSans-29" transform="translate(155.19043 0.015625)"/>
     </g>
    </g>
    <g id="line2d_44">
     <path d="M 313.66 36.508 
L 323.66 36.508 
L 333.66 36.508 
" style="fill: none; stroke: #7f7f7f; stroke-width: 1.5; stroke-linecap: square"/>
    </g>
    <g id="text_24">
     <!-- $\phi_(x)$ -->
     <g transform="translate(341.66 40.008) scale(0.1 -0.1)">
      <use xlink:href="#DejaVuSans-Oblique-3d5" transform="translate(0 0.015625)"/>
      <use xlink:href="#DejaVuSans-28" transform="translate(65.966797 -16.390625) scale(0.7)"/>
      <use xlink:href="#DejaVuSans-Oblique-78" transform="translate(96.010742 0.015625)"/>
      <use xlink:href="#DejaVuSans-29" transform="translate(155.19043 0.015625)"/>
     </g>
    </g>
   </g>
  </g>
 </g>
 <defs>
  <clipPath id="p55d5dc5ec0">
   <rect x="57.6" y="68.0832" width="357.12" height="239.5008"/>
  </clipPath>
 </defs>
</svg>
