<?xml version="1.0" encoding="utf-8" standalone="no"?>
<!DOCTYPE svg PUBLIC "-//W3C//DTD SVG 1.1//EN"
  "http://www.w3.org/Graphics/SVG/1.1/DTD/svg11.dtd">
<svg xmlns:xlink="http://www.w3.org/1999/xlink" width="720pt" height="288pt" viewBox="0 0 720 288" xmlns="http://www.w3.org/2000/svg" version="1.1">
 <metadata>
  <rdf:RDF xmlns:dc="http://purl.org/dc/elements/1.1/" xmlns:cc="http://creativecommons.org/ns#" xmlns:rdf="http://www.w3.org/1999/02/22-rdf-syntax-ns#">
   <cc:Work>
    <dc:type rdf:resource="http://purl.org/dc/dcmitype/StillImage"/>
    <dc:date>2026-01-05T15:33:19.090091</dc:date>
    <dc:format>image/svg+xml</dc:format>
    <dc:creator>
     <cc:Agent>
      <dc:title>Matplotlib v3.10.8, https://matplotlib.org/</dc:title>
     </cc:Agent>
    </dc:creator>
   </cc:Work>
  </rdf:RDF>
 </metadata>
 <defs>
  <style type="text/css">*{stroke-linejoin: round; stroke-linecap: butt}</style>
 </defs>
 <g id="figure_1">
  <g id="patch_1">
   <path d="M 0 288 
L 720 288 
L 720 0 
L 0 0 
z
" style="fill: #ffffff"/>
  </g>
  <g id="axes_1">
   <g id="patch_2">
    <path d="M 90 256.32 
L 648 256.32 
L 648 34.56 
L 90 34.56 
z
" style="fill: #ffffff"/>
   </g>
   <g id="matplotlib.axis_1">
    <g id="xtick_1">
     <g id="line2d_1">
      <path d="M 115.23973 256.32 
L 115.23973 34.56 
" clip-path="url(#pe5c0c5c994)" style="fill: none; stroke: #b0b0b0; stroke-width: 0.8; stroke-linecap: square"/>
     </g>
     <g id="line2d_2">
      <defs>
       <path id="mcbd68f6e04" d="M 0 0 
L 0 3.5 
" style="stroke: #000000; stroke-width: 0.8"/>
      </defs>
      <g>
       <use xlink:href="#mcbd68f6e04" x="115.23973" y="256.32" style="stroke: #000000; stroke-width: 0.8"/>
      </g>
     </g>
     <g id="text_1">
      <!-- 0 -->
      <g transform="translate(112.05848 270.918437) scale(0.1 -0.1)">
       <defs>
        <path id="DejaVuSans-30" d="M 2034 4250 
Q 1547 4250 1301 3770 
Q 1056 3291 1056 2328 
Q 1056 1369 1301 889 
Q 1547 409 2034 409 
Q 2525 409 2770 889 
Q 3016 1369 3016 2328 
Q 3016 3291 2770 3770 
Q 2525 4250 2034 4250 
z
M 2034 4750 
Q 2819 4750 3233 4129 
Q 3647 3509 3647 2328 
Q 3647 1150 3233 529 
Q 2819 -91 2034 -91 
Q 1250 -91 836 529 
Q 422 1150 422 2328 
Q 422 3509 836 4129 
Q 1250 4750 2034 4750 
z
" transform="scale(0.015625)"/>
       </defs>
       <use xlink:href="#DejaVuSans-30"/>
      </g>
     </g>
    </g>
    <g id="xtick_2">
     <g id="line2d_3">
      <path d="M 216.743838 256.32 
L 216.743838 34.56 
" clip-path="url(#pe5c0c5c994)" style="fill: none; stroke: #b0b0b0; stroke-width: 0.8; stroke-linecap: square"/>
     </g>
     <g id="line2d_4">
      <g>
       <use xlink:href="#mcbd68f6e04" x="216.743838" y="256.32" style="stroke: #000000; stroke-width: 0.8"/>
      </g>
     </g>
     <g id="text_2">
      <!-- 1 -->
      <g transform="translate(213.562588 270.918437) scale(0.1 -0.1)">
       <defs>
        <path id="DejaVuSans-31" d="M 794 531 
L 1825 531 
L 1825 4091 
L 703 3866 
L 703 4441 
L 1819 4666 
L 2450 4666 
L 2450 531 
L 3481 531 
L 3481 0 
L 794 0 
L 794 531 
z
" transform="scale(0.015625)"/>
       </defs>
       <use xlink:href="#DejaVuSans-31"/>
      </g>
     </g>
    </g>
    <g id="xtick_3">
     <g id="line2d_5">
      <path d="M 318.247946 256.32 
L 318.247946 34.56 
" clip-path="url(#pe5c0c5c994)" style="fill: none; stroke: #b0b0b0; stroke-width: 0.8; stroke-linecap: square"/>
     </g>
     <g id="line2d_6">
      <g>
       <use xlink:href="#mcbd68f6e04" x="318.247946" y="256.32" style="stroke: #000000; stroke-width: 0.8"/>
      </g>
     </g>
     <g id="text_3">
      <!-- 2 -->
      <g transform="translate(315.066696 270.918437) scale(0.1 -0.1)">
       <defs>
        <path id="DejaVuSans-32" d="M 1228 531 
L 3431 531 
L 3431 0 
L 469 0 
L 469 531 
Q 828 903 1448 1529 
Q 2069 2156 2228 2338 
Q 2531 2678 2651 2914 
Q 2772 3150 2772 3378 
Q 2772 3750 2511 3984 
Q 2250 4219 1831 4219 
Q 1534 4219 1204 4116 
Q 875 4013 500 3803 
L 500 4441 
Q 881 4594 1212 4672 
Q 1544 4750 1819 4750 
Q 2544 4750 2975 4387 
Q 3406 4025 3406 3419 
Q 3406 3131 3298 2873 
Q 3191 2616 2906 2266 
Q 2828 2175 2409 1742 
Q 1991 1309 1228 531 
z
" transform="scale(0.015625)"/>
       </defs>
       <use xlink:href="#DejaVuSans-32"/>
      </g>
     </g>
    </g>
    <g id="xtick_4">
     <g id="line2d_7">
      <path d="M 419.752054 256.32 
L 419.752054 34.56 
" clip-path="url(#pe5c0c5c994)" style="fill: none; stroke: #b0b0b0; stroke-width: 0.8; stroke-linecap: square"/>
     </g>
     <g id="line2d_8">
      <g>
       <use xlink:href="#mcbd68f6e04" x="419.752054" y="256.32" style="stroke: #000000; stroke-width: 0.8"/>
      </g>
     </g>
     <g id="text_4">
      <!-- 3 -->
      <g transform="translate(416.570804 270.918437) scale(0.1 -0.1)">
       <defs>
        <path id="DejaVuSans-33" d="M 2597 2516 
Q 3050 2419 3304 2112 
Q 3559 1806 3559 1356 
Q 3559 666 3084 287 
Q 2609 -91 1734 -91 
Q 1441 -91 1130 -33 
Q 819 25 488 141 
L 488 750 
Q 750 597 1062 519 
Q 1375 441 1716 441 
Q 2309 441 2620 675 
Q 2931 909 2931 1356 
Q 2931 1769 2642 2001 
Q 2353 2234 1838 2234 
L 1294 2234 
L 1294 2753 
L 1863 2753 
Q 2328 2753 2575 2939 
Q 2822 3125 2822 3475 
Q 2822 3834 2567 4026 
Q 2313 4219 1838 4219 
Q 1578 4219 1281 4162 
Q 984 4106 628 3988 
L 628 4550 
Q 988 4650 1302 4700 
Q 1616 4750 1894 4750 
Q 2613 4750 3031 4423 
Q 3450 4097 3450 3541 
Q 3450 3153 3228 2886 
Q 3006 2619 2597 2516 
z
" transform="scale(0.015625)"/>
       </defs>
       <use xlink:href="#DejaVuSans-33"/>
      </g>
     </g>
    </g>
    <g id="xtick_5">
     <g id="line2d_9">
      <path d="M 521.256162 256.32 
L 521.256162 34.56 
" clip-path="url(#pe5c0c5c994)" style="fill: none; stroke: #b0b0b0; stroke-width: 0.8; stroke-linecap: square"/>
     </g>
     <g id="line2d_10">
      <g>
       <use xlink:href="#mcbd68f6e04" x="521.256162" y="256.32" style="stroke: #000000; stroke-width: 0.8"/>
      </g>
     </g>
     <g id="text_5">
      <!-- 4 -->
      <g transform="translate(518.074912 270.918437) scale(0.1 -0.1)">
       <defs>
        <path id="DejaVuSans-34" d="M 2419 4116 
L 825 1625 
L 2419 1625 
L 2419 4116 
z
M 2253 4666 
L 3047 4666 
L 3047 1625 
L 3713 1625 
L 3713 1100 
L 3047 1100 
L 3047 0 
L 2419 0 
L 2419 1100 
L 313 1100 
L 313 1709 
L 2253 4666 
z
" transform="scale(0.015625)"/>
       </defs>
       <use xlink:href="#DejaVuSans-34"/>
      </g>
     </g>
    </g>
    <g id="xtick_6">
     <g id="line2d_11">
      <path d="M 622.76027 256.32 
L 622.76027 34.56 
" clip-path="url(#pe5c0c5c994)" style="fill: none; stroke: #b0b0b0; stroke-width: 0.8; stroke-linecap: square"/>
     </g>
     <g id="line2d_12">
      <g>
       <use xlink:href="#mcbd68f6e04" x="622.76027" y="256.32" style="stroke: #000000; stroke-width: 0.8"/>
      </g>
     </g>
     <g id="text_6">
      <!-- 5 -->
      <g transform="translate(619.57902 270.918437) scale(0.1 -0.1)">
       <defs>
        <path id="DejaVuSans-35" d="M 691 4666 
L 3169 4666 
L 3169 4134 
L 1269 4134 
L 1269 2991 
Q 1406 3038 1543 3061 
Q 1681 3084 1819 3084 
Q 2600 3084 3056 2656 
Q 3513 2228 3513 1497 
Q 3513 744 3044 326 
Q 2575 -91 1722 -91 
Q 1428 -91 1123 -41 
Q 819 9 494 109 
L 494 744 
Q 775 591 1075 516 
Q 1375 441 1709 441 
Q 2250 441 2565 725 
Q 2881 1009 2881 1497 
Q 2881 1984 2565 2268 
Q 2250 2553 1709 2553 
Q 1456 2553 1204 2497 
Q 953 2441 691 2322 
L 691 4666 
z
" transform="scale(0.015625)"/>
       </defs>
       <use xlink:href="#DejaVuSans-35"/>
      </g>
     </g>
    </g>
    <g id="text_7">
     <!-- Frequency -->
     <g transform="translate(343.170313 284.596563) scale(0.1 -0.1)">
      <defs>
       <path id="DejaVuSans-46" d="M 628 4666 
L 3309 4666 
L 3309 4134 
L 1259 4134 
L 1259 2759 
L 3109 2759 
L 3109 2228 
L 1259 2228 
L 1259 0 
L 628 0 
L 628 4666 
z
" transform="scale(0.015625)"/>
       <path id="DejaVuSans-72" d="M 2631 2963 
Q 2534 3019 2420 3045 
Q 2306 3072 2169 3072 
Q 1681 3072 1420 2755 
Q 1159 2438 1159 1844 
L 1159 0 
L 581 0 
L 581 3500 
L 1159 3500 
L 1159 2956 
Q 1341 3275 1631 3429 
Q 1922 3584 2338 3584 
Q 2397 3584 2469 3576 
Q 2541 3569 2628 3553 
L 2631 2963 
z
" transform="scale(0.015625)"/>
       <path id="DejaVuSans-65" d="M 3597 1894 
L 3597 1613 
L 953 1613 
Q 991 1019 1311 708 
Q 1631 397 2203 397 
Q 2534 397 2845 478 
Q 3156 559 3463 722 
L 3463 178 
Q 3153 47 2828 -22 
Q 2503 -91 2169 -91 
Q 1331 -91 842 396 
Q 353 884 353 1716 
Q 353 2575 817 3079 
Q 1281 3584 2069 3584 
Q 2775 3584 3186 3129 
Q 3597 2675 3597 1894 
z
M 3022 2063 
Q 3016 2534 2758 2815 
Q 2500 3097 2075 3097 
Q 1594 3097 1305 2825 
Q 1016 2553 972 2059 
L 3022 2063 
z
" transform="scale(0.015625)"/>
       <path id="DejaVuSans-71" d="M 947 1747 
Q 947 1113 1208 752 
Q 1469 391 1925 391 
Q 2381 391 2643 752 
Q 2906 1113 2906 1747 
Q 2906 2381 2643 2742 
Q 2381 3103 1925 3103 
Q 1469 3103 1208 2742 
Q 947 2381 947 1747 
z
M 2906 525 
Q 2725 213 2448 61 
Q 2172 -91 1784 -91 
Q 1150 -91 751 415 
Q 353 922 353 1747 
Q 353 2572 751 3078 
Q 1150 3584 1784 3584 
Q 2172 3584 2448 3432 
Q 2725 3281 2906 2969 
L 2906 3500 
L 3481 3500 
L 3481 -1331 
L 2906 -1331 
L 2906 525 
z
" transform="scale(0.015625)"/>
       <path id="DejaVuSans-75" d="M 544 1381 
L 544 3500 
L 1119 3500 
L 1119 1403 
Q 1119 906 1312 657 
Q 1506 409 1894 409 
Q 2359 409 2629 706 
Q 2900 1003 2900 1516 
L 2900 3500 
L 3475 3500 
L 3475 0 
L 2900 0 
L 2900 538 
Q 2691 219 2414 64 
Q 2138 -91 1772 -91 
Q 1169 -91 856 284 
Q 544 659 544 1381 
z
M 1991 3584 
L 1991 3584 
z
" transform="scale(0.015625)"/>
       <path id="DejaVuSans-6e" d="M 3513 2113 
L 3513 0 
L 2938 0 
L 2938 2094 
Q 2938 2591 2744 2837 
Q 2550 3084 2163 3084 
Q 1697 3084 1428 2787 
Q 1159 2491 1159 1978 
L 1159 0 
L 581 0 
L 581 3500 
L 1159 3500 
L 1159 2956 
Q 1366 3272 1645 3428 
Q 1925 3584 2291 3584 
Q 2894 3584 3203 3211 
Q 3513 2838 3513 2113 
z
" transform="scale(0.015625)"/>
       <path id="DejaVuSans-63" d="M 3122 3366 
L 3122 2828 
Q 2878 2963 2633 3030 
Q 2388 3097 2138 3097 
Q 1578 3097 1268 2742 
Q 959 2388 959 1747 
Q 959 1106 1268 751 
Q 1578 397 2138 397 
Q 2388 397 2633 464 
Q 2878 531 3122 666 
L 3122 134 
Q 2881 22 2623 -34 
Q 2366 -91 2075 -91 
Q 1284 -91 818 406 
Q 353 903 353 1747 
Q 353 2603 823 3093 
Q 1294 3584 2113 3584 
Q 2378 3584 2631 3529 
Q 2884 3475 3122 3366 
z
" transform="scale(0.015625)"/>
       <path id="DejaVuSans-79" d="M 2059 -325 
Q 1816 -950 1584 -1140 
Q 1353 -1331 966 -1331 
L 506 -1331 
L 506 -850 
L 844 -850 
Q 1081 -850 1212 -737 
Q 1344 -625 1503 -206 
L 1606 56 
L 191 3500 
L 800 3500 
L 1894 763 
L 2988 3500 
L 3597 3500 
L 2059 -325 
z
" transform="scale(0.015625)"/>
      </defs>
      <use xlink:href="#DejaVuSans-46"/>
      <use xlink:href="#DejaVuSans-72" transform="translate(50.269531 0)"/>
      <use xlink:href="#DejaVuSans-65" transform="translate(89.132812 0)"/>
      <use xlink:href="#DejaVuSans-71" transform="translate(150.65625 0)"/>
      <use xlink:href="#DejaVuSans-75" transform="translate(214.132812 0)"/>
      <use xlink:href="#DejaVuSans-65" transform="translate(277.511719 0)"/>
      <use xlink:href="#DejaVuSans-6e" transform="translate(339.035156 0)"/>
      <use xlink:href="#DejaVuSans-63" transform="translate(402.414062 0)"/>
      <use xlink:href="#DejaVuSans-79" transform="translate(457.394531 0)"/>
     </g>
    </g>
   </g>
   <g id="matplotlib.axis_2">
    <g id="ytick_1">
     <g id="line2d_13">
      <path d="M 90 209.968234 
L 648 209.968234 
" clip-path="url(#pe5c0c5c994)" style="fill: none; stroke: #b0b0b0; stroke-width: 0.8; stroke-linecap: square"/>
     </g>
     <g id="line2d_14">
      <defs>
       <path id="m84ed7c935e" d="M 0 0 
L -3.5 0 
" style="stroke: #000000; stroke-width: 0.8"/>
      </defs>
      <g>
       <use xlink:href="#m84ed7c935e" x="90" y="209.968234" style="stroke: #000000; stroke-width: 0.8"/>
      </g>
     </g>
     <g id="text_8">
      <!-- $\mathdefault{10^{-1}}$ -->
      <g transform="translate(59.5 213.767453) scale(0.1 -0.1)">
       <defs>
        <path id="DejaVuSans-2212" d="M 678 2272 
L 4684 2272 
L 4684 1741 
L 678 1741 
L 678 2272 
z
" transform="scale(0.015625)"/>
       </defs>
       <use xlink:href="#DejaVuSans-31" transform="translate(0 0.684375)"/>
       <use xlink:href="#DejaVuSans-30" transform="translate(63.623047 0.684375)"/>
       <use xlink:href="#DejaVuSans-2212" transform="translate(128.203125 38.965625) scale(0.7)"/>
       <use xlink:href="#DejaVuSans-31" transform="translate(186.855469 38.965625) scale(0.7)"/>
      </g>
     </g>
    </g>
    <g id="ytick_2">
     <g id="line2d_15">
      <path d="M 90 155.627983 
L 648 155.627983 
" clip-path="url(#pe5c0c5c994)" style="fill: none; stroke: #b0b0b0; stroke-width: 0.8; stroke-linecap: square"/>
     </g>
     <g id="line2d_16">
      <g>
       <use xlink:href="#m84ed7c935e" x="90" y="155.627983" style="stroke: #000000; stroke-width: 0.8"/>
      </g>
     </g>
     <g id="text_9">
      <!-- $\mathdefault{10^{0}}$ -->
      <g transform="translate(65.4 159.427202) scale(0.1 -0.1)">
       <use xlink:href="#DejaVuSans-31" transform="translate(0 0.765625)"/>
       <use xlink:href="#DejaVuSans-30" transform="translate(63.623047 0.765625)"/>
       <use xlink:href="#DejaVuSans-30" transform="translate(128.203125 39.046875) scale(0.7)"/>
      </g>
     </g>
    </g>
    <g id="ytick_3">
     <g id="line2d_17">
      <path d="M 90 101.287731 
L 648 101.287731 
" clip-path="url(#pe5c0c5c994)" style="fill: none; stroke: #b0b0b0; stroke-width: 0.8; stroke-linecap: square"/>
     </g>
     <g id="line2d_18">
      <g>
       <use xlink:href="#m84ed7c935e" x="90" y="101.287731" style="stroke: #000000; stroke-width: 0.8"/>
      </g>
     </g>
     <g id="text_10">
      <!-- $\mathdefault{10^{1}}$ -->
      <g transform="translate(65.4 105.08695) scale(0.1 -0.1)">
       <use xlink:href="#DejaVuSans-31" transform="translate(0 0.684375)"/>
       <use xlink:href="#DejaVuSans-30" transform="translate(63.623047 0.684375)"/>
       <use xlink:href="#DejaVuSans-31" transform="translate(128.203125 38.965625) scale(0.7)"/>
      </g>
     </g>
    </g>
    <g id="ytick_4">
     <g id="line2d_19">
      <path d="M 90 46.94748 
L 648 46.94748 
" clip-path="url(#pe5c0c5c994)" style="fill: none; stroke: #b0b0b0; stroke-width: 0.8; stroke-linecap: square"/>
     </g>
     <g id="line2d_20">
      <g>
       <use xlink:href="#m84ed7c935e" x="90" y="46.94748" style="stroke: #000000; stroke-width: 0.8"/>
      </g>
     </g>
     <g id="text_11">
      <!-- $\mathdefault{10^{2}}$ -->
      <g transform="translate(65.4 50.746699) scale(0.1 -0.1)">
       <use xlink:href="#DejaVuSans-31" transform="translate(0 0.765625)"/>
       <use xlink:href="#DejaVuSans-30" transform="translate(63.623047 0.765625)"/>
       <use xlink:href="#DejaVuSans-32" transform="translate(128.203125 39.046875) scale(0.7)"/>
      </g>
     </g>
    </g>
    <g id="ytick_5">
     <g id="line2d_21">
      <defs>
       <path id="m8a2d681753" d="M 0 0 
L -2 0 
" style="stroke: #000000; stroke-width: 0.6"/>
      </defs>
      <g>
       <use xlink:href="#m8a2d681753" x="90" y="247.95044" style="stroke: #000000; stroke-width: 0.6"/>
      </g>
     </g>
    </g>
    <g id="ytick_6">
     <g id="line2d_22">
      <g>
       <use xlink:href="#m8a2d681753" x="90" y="238.381597" style="stroke: #000000; stroke-width: 0.6"/>
      </g>
     </g>
    </g>
    <g id="ytick_7">
     <g id="line2d_23">
      <g>
       <use xlink:href="#m8a2d681753" x="90" y="231.592394" style="stroke: #000000; stroke-width: 0.6"/>
      </g>
     </g>
    </g>
    <g id="ytick_8">
     <g id="line2d_24">
      <g>
       <use xlink:href="#m8a2d681753" x="90" y="226.32628" style="stroke: #000000; stroke-width: 0.6"/>
      </g>
     </g>
    </g>
    <g id="ytick_9">
     <g id="line2d_25">
      <g>
       <use xlink:href="#m8a2d681753" x="90" y="222.023551" style="stroke: #000000; stroke-width: 0.6"/>
      </g>
     </g>
    </g>
    <g id="ytick_10">
     <g id="line2d_26">
      <g>
       <use xlink:href="#m8a2d681753" x="90" y="218.385646" style="stroke: #000000; stroke-width: 0.6"/>
      </g>
     </g>
    </g>
    <g id="ytick_11">
     <g id="line2d_27">
      <g>
       <use xlink:href="#m8a2d681753" x="90" y="215.234349" style="stroke: #000000; stroke-width: 0.6"/>
      </g>
     </g>
    </g>
    <g id="ytick_12">
     <g id="line2d_28">
      <g>
       <use xlink:href="#m8a2d681753" x="90" y="212.454708" style="stroke: #000000; stroke-width: 0.6"/>
      </g>
     </g>
    </g>
    <g id="ytick_13">
     <g id="line2d_29">
      <g>
       <use xlink:href="#m8a2d681753" x="90" y="193.610189" style="stroke: #000000; stroke-width: 0.6"/>
      </g>
     </g>
    </g>
    <g id="ytick_14">
     <g id="line2d_30">
      <g>
       <use xlink:href="#m8a2d681753" x="90" y="184.041345" style="stroke: #000000; stroke-width: 0.6"/>
      </g>
     </g>
    </g>
    <g id="ytick_15">
     <g id="line2d_31">
      <g>
       <use xlink:href="#m8a2d681753" x="90" y="177.252143" style="stroke: #000000; stroke-width: 0.6"/>
      </g>
     </g>
    </g>
    <g id="ytick_16">
     <g id="line2d_32">
      <g>
       <use xlink:href="#m8a2d681753" x="90" y="171.986028" style="stroke: #000000; stroke-width: 0.6"/>
      </g>
     </g>
    </g>
    <g id="ytick_17">
     <g id="line2d_33">
      <g>
       <use xlink:href="#m8a2d681753" x="90" y="167.6833" style="stroke: #000000; stroke-width: 0.6"/>
      </g>
     </g>
    </g>
    <g id="ytick_18">
     <g id="line2d_34">
      <g>
       <use xlink:href="#m8a2d681753" x="90" y="164.045394" style="stroke: #000000; stroke-width: 0.6"/>
      </g>
     </g>
    </g>
    <g id="ytick_19">
     <g id="line2d_35">
      <g>
       <use xlink:href="#m8a2d681753" x="90" y="160.894097" style="stroke: #000000; stroke-width: 0.6"/>
      </g>
     </g>
    </g>
    <g id="ytick_20">
     <g id="line2d_36">
      <g>
       <use xlink:href="#m8a2d681753" x="90" y="158.114456" style="stroke: #000000; stroke-width: 0.6"/>
      </g>
     </g>
    </g>
    <g id="ytick_21">
     <g id="line2d_37">
      <g>
       <use xlink:href="#m8a2d681753" x="90" y="139.269937" style="stroke: #000000; stroke-width: 0.6"/>
      </g>
     </g>
    </g>
    <g id="ytick_22">
     <g id="line2d_38">
      <g>
       <use xlink:href="#m8a2d681753" x="90" y="129.701094" style="stroke: #000000; stroke-width: 0.6"/>
      </g>
     </g>
    </g>
    <g id="ytick_23">
     <g id="line2d_39">
      <g>
       <use xlink:href="#m8a2d681753" x="90" y="122.911891" style="stroke: #000000; stroke-width: 0.6"/>
      </g>
     </g>
    </g>
    <g id="ytick_24">
     <g id="line2d_40">
      <g>
       <use xlink:href="#m8a2d681753" x="90" y="117.645777" style="stroke: #000000; stroke-width: 0.6"/>
      </g>
     </g>
    </g>
    <g id="ytick_25">
     <g id="line2d_41">
      <g>
       <use xlink:href="#m8a2d681753" x="90" y="113.343048" style="stroke: #000000; stroke-width: 0.6"/>
      </g>
     </g>
    </g>
    <g id="ytick_26">
     <g id="line2d_42">
      <g>
       <use xlink:href="#m8a2d681753" x="90" y="109.705143" style="stroke: #000000; stroke-width: 0.6"/>
      </g>
     </g>
    </g>
    <g id="ytick_27">
     <g id="line2d_43">
      <g>
       <use xlink:href="#m8a2d681753" x="90" y="106.553846" style="stroke: #000000; stroke-width: 0.6"/>
      </g>
     </g>
    </g>
    <g id="ytick_28">
     <g id="line2d_44">
      <g>
       <use xlink:href="#m8a2d681753" x="90" y="103.774205" style="stroke: #000000; stroke-width: 0.6"/>
      </g>
     </g>
    </g>
    <g id="ytick_29">
     <g id="line2d_45">
      <g>
       <use xlink:href="#m8a2d681753" x="90" y="84.929686" style="stroke: #000000; stroke-width: 0.6"/>
      </g>
     </g>
    </g>
    <g id="ytick_30">
     <g id="line2d_46">
      <g>
       <use xlink:href="#m8a2d681753" x="90" y="75.360842" style="stroke: #000000; stroke-width: 0.6"/>
      </g>
     </g>
    </g>
    <g id="ytick_31">
     <g id="line2d_47">
      <g>
       <use xlink:href="#m8a2d681753" x="90" y="68.57164" style="stroke: #000000; stroke-width: 0.6"/>
      </g>
     </g>
    </g>
    <g id="ytick_32">
     <g id="line2d_48">
      <g>
       <use xlink:href="#m8a2d681753" x="90" y="63.305525" style="stroke: #000000; stroke-width: 0.6"/>
      </g>
     </g>
    </g>
    <g id="ytick_33">
     <g id="line2d_49">
      <g>
       <use xlink:href="#m8a2d681753" x="90" y="59.002797" style="stroke: #000000; stroke-width: 0.6"/>
      </g>
     </g>
    </g>
    <g id="ytick_34">
     <g id="line2d_50">
      <g>
       <use xlink:href="#m8a2d681753" x="90" y="55.364891" style="stroke: #000000; stroke-width: 0.6"/>
      </g>
     </g>
    </g>
    <g id="ytick_35">
     <g id="line2d_51">
      <g>
       <use xlink:href="#m8a2d681753" x="90" y="52.213594" style="stroke: #000000; stroke-width: 0.6"/>
      </g>
     </g>
    </g>
    <g id="ytick_36">
     <g id="line2d_52">
      <g>
       <use xlink:href="#m8a2d681753" x="90" y="49.433953" style="stroke: #000000; stroke-width: 0.6"/>
      </g>
     </g>
    </g>
    <g id="text_12">
     <!-- Spectral density function -->
     <g transform="translate(53.420312 208.018125) rotate(-90) scale(0.1 -0.1)">
      <defs>
       <path id="DejaVuSans-53" d="M 3425 4513 
L 3425 3897 
Q 3066 4069 2747 4153 
Q 2428 4238 2131 4238 
Q 1616 4238 1336 4038 
Q 1056 3838 1056 3469 
Q 1056 3159 1242 3001 
Q 1428 2844 1947 2747 
L 2328 2669 
Q 3034 2534 3370 2195 
Q 3706 1856 3706 1288 
Q 3706 609 3251 259 
Q 2797 -91 1919 -91 
Q 1588 -91 1214 -16 
Q 841 59 441 206 
L 441 856 
Q 825 641 1194 531 
Q 1563 422 1919 422 
Q 2459 422 2753 634 
Q 3047 847 3047 1241 
Q 3047 1584 2836 1778 
Q 2625 1972 2144 2069 
L 1759 2144 
Q 1053 2284 737 2584 
Q 422 2884 422 3419 
Q 422 4038 858 4394 
Q 1294 4750 2059 4750 
Q 2388 4750 2728 4690 
Q 3069 4631 3425 4513 
z
" transform="scale(0.015625)"/>
       <path id="DejaVuSans-70" d="M 1159 525 
L 1159 -1331 
L 581 -1331 
L 581 3500 
L 1159 3500 
L 1159 2969 
Q 1341 3281 1617 3432 
Q 1894 3584 2278 3584 
Q 2916 3584 3314 3078 
Q 3713 2572 3713 1747 
Q 3713 922 3314 415 
Q 2916 -91 2278 -91 
Q 1894 -91 1617 61 
Q 1341 213 1159 525 
z
M 3116 1747 
Q 3116 2381 2855 2742 
Q 2594 3103 2138 3103 
Q 1681 3103 1420 2742 
Q 1159 2381 1159 1747 
Q 1159 1113 1420 752 
Q 1681 391 2138 391 
Q 2594 391 2855 752 
Q 3116 1113 3116 1747 
z
" transform="scale(0.015625)"/>
       <path id="DejaVuSans-74" d="M 1172 4494 
L 1172 3500 
L 2356 3500 
L 2356 3053 
L 1172 3053 
L 1172 1153 
Q 1172 725 1289 603 
Q 1406 481 1766 481 
L 2356 481 
L 2356 0 
L 1766 0 
Q 1100 0 847 248 
Q 594 497 594 1153 
L 594 3053 
L 172 3053 
L 172 3500 
L 594 3500 
L 594 4494 
L 1172 4494 
z
" transform="scale(0.015625)"/>
       <path id="DejaVuSans-61" d="M 2194 1759 
Q 1497 1759 1228 1600 
Q 959 1441 959 1056 
Q 959 750 1161 570 
Q 1363 391 1709 391 
Q 2188 391 2477 730 
Q 2766 1069 2766 1631 
L 2766 1759 
L 2194 1759 
z
M 3341 1997 
L 3341 0 
L 2766 0 
L 2766 531 
Q 2569 213 2275 61 
Q 1981 -91 1556 -91 
Q 1019 -91 701 211 
Q 384 513 384 1019 
Q 384 1609 779 1909 
Q 1175 2209 1959 2209 
L 2766 2209 
L 2766 2266 
Q 2766 2663 2505 2880 
Q 2244 3097 1772 3097 
Q 1472 3097 1187 3025 
Q 903 2953 641 2809 
L 641 3341 
Q 956 3463 1253 3523 
Q 1550 3584 1831 3584 
Q 2591 3584 2966 3190 
Q 3341 2797 3341 1997 
z
" transform="scale(0.015625)"/>
       <path id="DejaVuSans-6c" d="M 603 4863 
L 1178 4863 
L 1178 0 
L 603 0 
L 603 4863 
z
" transform="scale(0.015625)"/>
       <path id="DejaVuSans-20" transform="scale(0.015625)"/>
       <path id="DejaVuSans-64" d="M 2906 2969 
L 2906 4863 
L 3481 4863 
L 3481 0 
L 2906 0 
L 2906 525 
Q 2725 213 2448 61 
Q 2172 -91 1784 -91 
Q 1150 -91 751 415 
Q 353 922 353 1747 
Q 353 2572 751 3078 
Q 1150 3584 1784 3584 
Q 2172 3584 2448 3432 
Q 2725 3281 2906 2969 
z
M 947 1747 
Q 947 1113 1208 752 
Q 1469 391 1925 391 
Q 2381 391 2643 752 
Q 2906 1113 2906 1747 
Q 2906 2381 2643 2742 
Q 2381 3103 1925 3103 
Q 1469 3103 1208 2742 
Q 947 2381 947 1747 
z
" transform="scale(0.015625)"/>
       <path id="DejaVuSans-73" d="M 2834 3397 
L 2834 2853 
Q 2591 2978 2328 3040 
Q 2066 3103 1784 3103 
Q 1356 3103 1142 2972 
Q 928 2841 928 2578 
Q 928 2378 1081 2264 
Q 1234 2150 1697 2047 
L 1894 2003 
Q 2506 1872 2764 1633 
Q 3022 1394 3022 966 
Q 3022 478 2636 193 
Q 2250 -91 1575 -91 
Q 1294 -91 989 -36 
Q 684 19 347 128 
L 347 722 
Q 666 556 975 473 
Q 1284 391 1588 391 
Q 1994 391 2212 530 
Q 2431 669 2431 922 
Q 2431 1156 2273 1281 
Q 2116 1406 1581 1522 
L 1381 1569 
Q 847 1681 609 1914 
Q 372 2147 372 2553 
Q 372 3047 722 3315 
Q 1072 3584 1716 3584 
Q 2034 3584 2315 3537 
Q 2597 3491 2834 3397 
z
" transform="scale(0.015625)"/>
       <path id="DejaVuSans-69" d="M 603 3500 
L 1178 3500 
L 1178 0 
L 603 0 
L 603 3500 
z
M 603 4863 
L 1178 4863 
L 1178 4134 
L 603 4134 
L 603 4863 
z
" transform="scale(0.015625)"/>
       <path id="DejaVuSans-66" d="M 2375 4863 
L 2375 4384 
L 1825 4384 
Q 1516 4384 1395 4259 
Q 1275 4134 1275 3809 
L 1275 3500 
L 2222 3500 
L 2222 3053 
L 1275 3053 
L 1275 0 
L 697 0 
L 697 3053 
L 147 3053 
L 147 3500 
L 697 3500 
L 697 3744 
Q 697 4328 969 4595 
Q 1241 4863 1831 4863 
L 2375 4863 
z
" transform="scale(0.015625)"/>
       <path id="DejaVuSans-6f" d="M 1959 3097 
Q 1497 3097 1228 2736 
Q 959 2375 959 1747 
Q 959 1119 1226 758 
Q 1494 397 1959 397 
Q 2419 397 2687 759 
Q 2956 1122 2956 1747 
Q 2956 2369 2687 2733 
Q 2419 3097 1959 3097 
z
M 1959 3584 
Q 2709 3584 3137 3096 
Q 3566 2609 3566 1747 
Q 3566 888 3137 398 
Q 2709 -91 1959 -91 
Q 1206 -91 779 398 
Q 353 888 353 1747 
Q 353 2609 779 3096 
Q 1206 3584 1959 3584 
z
" transform="scale(0.015625)"/>
      </defs>
      <use xlink:href="#DejaVuSans-53"/>
      <use xlink:href="#DejaVuSans-70" transform="translate(63.476562 0)"/>
      <use xlink:href="#DejaVuSans-65" transform="translate(126.953125 0)"/>
      <use xlink:href="#DejaVuSans-63" transform="translate(188.476562 0)"/>
      <use xlink:href="#DejaVuSans-74" transform="translate(243.457031 0)"/>
      <use xlink:href="#DejaVuSans-72" transform="translate(282.666016 0)"/>
      <use xlink:href="#DejaVuSans-61" transform="translate(323.779297 0)"/>
      <use xlink:href="#DejaVuSans-6c" transform="translate(385.058594 0)"/>
      <use xlink:href="#DejaVuSans-20" transform="translate(412.841797 0)"/>
      <use xlink:href="#DejaVuSans-64" transform="translate(444.628906 0)"/>
      <use xlink:href="#DejaVuSans-65" transform="translate(508.105469 0)"/>
      <use xlink:href="#DejaVuSans-6e" transform="translate(569.628906 0)"/>
      <use xlink:href="#DejaVuSans-73" transform="translate(633.007812 0)"/>
      <use xlink:href="#DejaVuSans-69" transform="translate(685.107422 0)"/>
      <use xlink:href="#DejaVuSans-74" transform="translate(712.890625 0)"/>
      <use xlink:href="#DejaVuSans-79" transform="translate(752.099609 0)"/>
      <use xlink:href="#DejaVuSans-20" transform="translate(811.279297 0)"/>
      <use xlink:href="#DejaVuSans-66" transform="translate(843.066406 0)"/>
      <use xlink:href="#DejaVuSans-75" transform="translate(878.271484 0)"/>
      <use xlink:href="#DejaVuSans-6e" transform="translate(941.650391 0)"/>
      <use xlink:href="#DejaVuSans-63" transform="translate(1005.029297 0)"/>
      <use xlink:href="#DejaVuSans-74" transform="translate(1060.009766 0)"/>
      <use xlink:href="#DejaVuSans-69" transform="translate(1099.21875 0)"/>
      <use xlink:href="#DejaVuSans-6f" transform="translate(1127.001953 0)"/>
      <use xlink:href="#DejaVuSans-6e" transform="translate(1188.183594 0)"/>
     </g>
    </g>
   </g>
   <g id="line2d_53">
    <path d="M 115.363636 37.277013 
L 115.611449 37.77952 
L 115.859262 37.650284 
L 116.107075 38.671587 
L 116.354887 38.398037 
L 116.6027 38.528265 
L 116.850513 39.591153 
L 117.098326 39.798655 
L 117.346138 40.533362 
L 117.593951 42.656904 
L 117.841764 43.393351 
L 118.33739 42.856292 
L 118.585202 43.76109 
L 118.833015 45.911247 
L 119.080828 46.357091 
L 119.328641 47.240135 
L 120.072079 53.231525 
L 120.319892 52.632013 
L 120.567704 51.574033 
L 121.311143 56.359125 
L 122.054581 58.910991 
L 122.550207 62.635371 
L 122.798019 63.675825 
L 123.293645 66.093975 
L 123.541458 65.583395 
L 123.78927 66.343439 
L 124.284896 69.701634 
L 124.532709 70.418534 
L 125.028334 73.470727 
L 125.276147 73.532836 
L 125.771772 73.449606 
L 126.019585 74.966076 
L 126.267398 75.393062 
L 126.515211 77.22462 
L 126.763023 76.659823 
L 127.010836 77.661561 
L 127.258649 79.267328 
L 127.754275 80.93048 
L 128.002087 83.476116 
L 128.2499 82.727493 
L 128.497713 82.466026 
L 128.745526 84.720782 
L 128.993338 84.81338 
L 129.736777 86.892484 
L 129.984589 87.307493 
L 130.232402 88.001017 
L 130.728028 90.730558 
L 130.97584 90.984432 
L 131.223653 90.969188 
L 131.471466 91.326682 
L 131.719279 91.351609 
L 132.71053 95.498362 
L 132.958343 95.755711 
L 133.206155 97.54078 
L 133.701781 97.30039 
L 133.949594 96.857649 
L 134.197406 98.440519 
L 134.445219 98.152978 
L 134.693032 99.125978 
L 134.940845 100.710446 
L 135.188657 101.38158 
L 135.43647 101.461333 
L 135.684283 101.42316 
L 135.932096 103.001555 
L 136.675534 104.276796 
L 136.923347 105.487225 
L 137.17116 105.459507 
L 137.418972 105.285331 
L 137.666785 106.546474 
L 137.914598 105.6938 
L 138.410223 107.975867 
L 138.658036 108.579655 
L 138.905849 108.52242 
L 139.153662 109.303268 
L 139.401474 109.603191 
L 139.649287 109.667636 
L 139.8971 110.677183 
L 140.144913 110.764893 
L 140.640538 112.968201 
L 140.888351 112.546505 
L 141.136164 111.832454 
L 141.383977 112.051991 
L 141.631789 111.997928 
L 142.127415 114.794278 
L 142.375228 113.993052 
L 143.118666 116.439314 
L 143.366479 116.613997 
L 143.614291 115.628541 
L 143.862104 116.825114 
L 144.109917 117.117718 
L 144.853355 120.490405 
L 145.101168 119.155651 
L 145.348981 119.239779 
L 145.596794 119.998932 
L 145.844606 119.623241 
L 146.340232 122.578785 
L 146.588045 122.338283 
L 146.835857 121.939848 
L 147.08367 121.303649 
L 147.579296 123.713414 
L 147.827108 123.435988 
L 148.570547 124.360543 
L 148.818359 125.369447 
L 149.066172 125.511711 
L 149.313985 125.029523 
L 149.561798 124.176245 
L 149.809611 124.933515 
L 150.057423 126.942724 
L 150.305236 127.01073 
L 150.553049 127.236731 
L 151.048674 126.422782 
L 151.296487 127.06774 
L 151.5443 127.196706 
L 151.792113 128.081372 
L 152.039925 127.988134 
L 152.783364 129.854111 
L 153.031176 131.032083 
L 153.526802 129.626727 
L 153.774615 130.074569 
L 154.022427 131.283294 
L 154.27024 131.263727 
L 154.518053 130.840792 
L 154.765866 132.132563 
L 155.013679 132.68157 
L 155.509304 133.164977 
L 155.757117 132.526872 
L 156.00493 132.365639 
L 156.500555 133.905044 
L 156.748368 133.981421 
L 156.996181 134.549595 
L 157.243993 134.514565 
L 157.491806 133.477716 
L 157.739619 133.988026 
L 158.235244 135.670741 
L 158.73087 137.230535 
L 158.978683 136.28634 
L 159.474308 137.222135 
L 159.722121 137.064184 
L 160.217747 137.792917 
L 160.713372 139.736069 
L 160.961185 139.616146 
L 161.208998 138.817535 
L 161.45681 138.637144 
L 161.704623 140.179398 
L 161.952436 140.627493 
L 162.448061 139.052903 
L 162.695874 140.199877 
L 162.943687 140.469583 
L 163.1915 141.10315 
L 163.439313 141.365727 
L 163.687125 141.808058 
L 163.934938 141.434532 
L 164.182751 141.454314 
L 164.430564 141.80874 
L 164.926189 142.107949 
L 165.174002 141.752762 
L 165.421815 142.537984 
L 165.669627 142.173031 
L 165.91744 143.239952 
L 166.165253 143.532276 
L 166.413066 143.579144 
L 166.908691 145.820129 
L 167.156504 146.441176 
L 167.404317 144.993788 
L 167.65213 145.23331 
L 167.899942 145.730036 
L 168.147755 145.763688 
L 168.395568 146.699766 
L 168.643381 146.355912 
L 168.891193 145.349046 
L 169.139006 146.828742 
L 169.386819 146.967955 
L 169.634632 146.973158 
L 169.882444 146.382183 
L 170.130257 146.883921 
L 170.625883 148.757796 
L 170.873695 148.542163 
L 171.121508 148.931036 
L 171.369321 147.641095 
L 171.617134 147.791104 
L 171.864946 149.194786 
L 172.112759 147.919607 
L 172.360572 149.174816 
L 172.608385 149.654552 
L 172.856198 150.490538 
L 173.351823 148.689802 
L 173.847449 149.618526 
L 174.095261 150.728443 
L 174.343074 150.922467 
L 174.590887 149.620663 
L 174.8387 150.955949 
L 175.086512 150.538276 
L 175.334325 151.7588 
L 175.582138 152.140403 
L 175.829951 151.096086 
L 176.325576 152.603883 
L 176.573389 152.843303 
L 176.821202 152.802772 
L 177.069015 152.210327 
L 177.56464 153.708497 
L 177.812453 152.811081 
L 178.060266 153.09605 
L 178.308078 152.476209 
L 178.555891 152.936411 
L 178.803704 155.126294 
L 179.051517 155.727221 
L 179.299329 154.547456 
L 179.547142 154.438464 
L 179.794955 155.389567 
L 180.042768 155.729856 
L 180.29058 156.452252 
L 180.538393 155.466138 
L 181.034019 157.67204 
L 181.529644 156.00985 
L 181.777457 156.221929 
L 182.02527 155.439071 
L 182.520895 156.702159 
L 182.768708 155.938322 
L 183.016521 156.964555 
L 183.512146 157.016259 
L 183.759959 155.580064 
L 184.007772 156.204259 
L 184.255585 158.019106 
L 184.503397 158.219235 
L 184.75121 159.643069 
L 184.999023 158.970955 
L 185.246836 157.544212 
L 185.494648 158.231437 
L 185.742461 159.355433 
L 185.990274 158.685447 
L 186.4859 158.736145 
L 186.733712 160.110698 
L 187.229338 159.416025 
L 187.477151 160.172232 
L 187.724963 160.50837 
L 187.972776 161.269837 
L 188.220589 161.164967 
L 188.468402 160.611684 
L 188.716214 161.702363 
L 189.21184 159.052926 
L 189.459653 160.943004 
L 189.707465 161.929754 
L 189.955278 161.784091 
L 190.203091 161.800583 
L 190.450904 162.135784 
L 190.698717 162.800284 
L 190.946529 162.992262 
L 191.194342 163.995469 
L 191.442155 162.701375 
L 191.689968 162.646318 
L 191.93778 162.384374 
L 192.433406 164.195527 
L 192.681219 165.093278 
L 192.929031 163.771193 
L 193.424657 164.09901 
L 193.67247 164.509141 
L 193.920282 163.655071 
L 194.168095 163.487024 
L 194.415908 164.677694 
L 194.663721 164.685804 
L 194.911534 165.270879 
L 195.159346 163.89871 
L 195.902785 164.552812 
L 196.150597 165.092866 
L 196.39841 164.768545 
L 196.646223 165.000811 
L 196.894036 165.731366 
L 197.141848 164.846707 
L 197.389661 165.065174 
L 197.637474 165.814457 
L 197.885287 165.396278 
L 198.380912 167.1523 
L 198.628725 166.665056 
L 198.876538 166.571194 
L 199.619976 167.851029 
L 199.867789 167.715559 
L 200.115602 168.55267 
L 200.363414 168.161241 
L 200.611227 168.202272 
L 200.85904 168.376643 
L 201.106853 167.054316 
L 201.354665 167.079149 
L 201.602478 167.461655 
L 201.850291 169.027667 
L 202.098104 169.787239 
L 202.345916 169.098196 
L 202.593729 169.850177 
L 202.841542 169.678426 
L 203.089355 169.150178 
L 203.337167 170.261832 
L 203.58498 168.446081 
L 203.832793 169.155032 
L 204.080606 171.433903 
L 204.328419 171.091671 
L 204.576231 170.49457 
L 204.824044 170.270982 
L 205.071857 169.773635 
L 205.31967 170.523203 
L 205.567482 170.692579 
L 205.815295 171.614404 
L 206.063108 171.451998 
L 206.310921 170.318077 
L 206.558733 170.985799 
L 206.806546 172.955476 
L 207.054359 172.32337 
L 207.302172 170.263914 
L 207.549984 169.856061 
L 207.797797 170.17188 
L 208.04561 171.676488 
L 208.293423 171.706166 
L 208.541236 172.916567 
L 208.789048 172.124834 
L 209.036861 172.005623 
L 209.532487 172.587942 
L 209.780299 173.60659 
L 210.028112 171.997395 
L 210.275925 172.901827 
L 210.523738 172.979812 
L 211.019363 172.498949 
L 211.267176 172.728172 
L 211.762801 173.973252 
L 212.010614 174.778098 
L 212.258427 174.119319 
L 212.50624 174.160795 
L 213.001865 171.839653 
L 213.249678 172.609813 
L 213.497491 174.693002 
L 213.993116 174.222766 
L 214.240929 175.065663 
L 214.488742 175.306082 
L 214.736555 174.606659 
L 214.984367 175.128057 
L 215.23218 175.088982 
L 215.479993 175.433497 
L 215.727806 175.134258 
L 215.975618 175.14601 
L 216.471244 174.208178 
L 216.719057 176.583108 
L 217.214682 174.066428 
L 217.462495 174.828864 
L 217.958121 177.442164 
L 218.205933 177.43805 
L 218.453746 177.128244 
L 218.701559 176.253873 
L 218.949372 176.497571 
L 219.197184 176.500472 
L 219.444997 176.847072 
L 219.69281 176.858848 
L 219.940623 177.208849 
L 220.436248 179.180133 
L 220.684061 178.635182 
L 220.931874 178.549516 
L 221.179686 178.061562 
L 221.427499 178.730861 
L 221.675312 178.904943 
L 221.923125 176.964891 
L 222.666563 179.683323 
L 223.162189 178.948588 
L 223.657814 180.814258 
L 223.905627 178.756997 
L 224.15344 178.474118 
L 224.401252 179.245426 
L 224.649065 178.208407 
L 225.144691 179.813117 
L 225.392503 181.06948 
L 225.640316 179.522694 
L 225.888129 181.190225 
L 226.135942 181.64276 
L 226.383754 180.452958 
L 226.631567 180.930042 
L 226.87938 181.773038 
L 227.127193 179.822605 
L 227.375006 180.719453 
L 227.622818 180.169927 
L 227.870631 180.585916 
L 228.118444 182.329447 
L 228.366257 181.337217 
L 228.614069 180.84303 
L 229.109695 181.648638 
L 229.357508 181.680032 
L 229.853133 180.53989 
L 230.100946 182.741212 
L 230.348759 182.490569 
L 230.596571 181.244978 
L 231.092197 183.257387 
L 231.34001 182.129247 
L 231.587823 182.140071 
L 231.835635 182.998857 
L 232.331261 183.340693 
L 232.579074 182.643749 
L 232.826886 182.349675 
L 233.074699 183.109547 
L 233.322512 184.63828 
L 233.570325 184.516781 
L 233.818137 185.295382 
L 234.06595 183.337793 
L 234.313763 182.706599 
L 234.561576 183.172346 
L 234.809388 183.109652 
L 235.057201 182.905771 
L 235.552827 184.962411 
L 235.80064 184.017873 
L 236.048452 183.688601 
L 236.296265 182.760959 
L 237.039703 184.869309 
L 237.287516 184.302893 
L 237.535329 184.825979 
L 237.783142 184.526574 
L 238.030954 183.273674 
L 238.278767 186.276039 
L 238.52658 186.077286 
L 238.774393 184.82099 
L 239.022205 184.722176 
L 239.517831 186.914561 
L 239.765644 185.496397 
L 240.261269 186.494879 
L 240.756895 185.760034 
L 241.004708 186.150848 
L 241.500333 185.211995 
L 241.748146 186.043001 
L 241.995959 186.350635 
L 242.491584 188.257144 
L 242.739397 187.352989 
L 242.98721 187.009837 
L 243.235022 186.990622 
L 243.482835 186.454894 
L 243.730648 187.920008 
L 243.978461 187.875317 
L 244.226273 187.082745 
L 244.474086 187.661467 
L 244.721899 188.567978 
L 244.969712 188.38194 
L 245.217525 187.907156 
L 245.465337 186.729848 
L 245.71315 187.441372 
L 245.960963 186.978825 
L 246.456588 188.608962 
L 246.704401 188.044322 
L 246.952214 189.631985 
L 247.200027 188.120286 
L 247.447839 187.810555 
L 247.695652 187.894538 
L 247.943465 187.259549 
L 248.43909 187.954739 
L 248.686903 188.789617 
L 248.934716 187.911471 
L 249.182529 188.037007 
L 249.678154 190.338493 
L 250.17378 188.316931 
L 250.421593 190.164592 
L 250.669405 190.763843 
L 250.917218 188.840398 
L 251.165031 189.340237 
L 251.412844 190.228957 
L 251.660656 189.476753 
L 252.156282 190.330585 
L 252.404095 189.969888 
L 252.651907 189.812969 
L 253.395346 190.495149 
L 253.643159 189.679142 
L 254.138784 190.886221 
L 254.386597 191.026477 
L 254.63441 190.615683 
L 254.882222 190.476154 
L 255.130035 190.785756 
L 255.377848 190.732437 
L 255.625661 191.374327 
L 255.873473 191.501583 
L 256.121286 190.200186 
L 256.369099 190.465159 
L 256.616912 190.335439 
L 256.864724 189.846428 
L 257.112537 191.252672 
L 257.36035 191.868071 
L 257.608163 191.61834 
L 257.855975 190.853817 
L 258.103788 190.809362 
L 258.599414 192.819498 
L 259.095039 192.52573 
L 259.342852 191.274808 
L 259.590665 191.383373 
L 259.838478 192.164222 
L 260.08629 192.068538 
L 260.334103 192.524438 
L 260.581916 192.685451 
L 260.829729 194.466377 
L 261.077541 194.561206 
L 261.325354 192.755348 
L 261.573167 192.452592 
L 261.82098 194.6626 
L 262.068792 195.714737 
L 262.812231 192.158163 
L 263.060044 193.656338 
L 263.307856 194.129509 
L 263.555669 193.667604 
L 263.803482 193.796372 
L 264.051295 194.655458 
L 264.299107 194.424345 
L 264.54692 194.362216 
L 264.794733 195.007624 
L 265.042546 195.243095 
L 265.538171 193.853732 
L 266.033797 195.228767 
L 266.281609 193.797374 
L 266.529422 194.302622 
L 266.777235 195.385548 
L 267.025048 195.270275 
L 267.272861 193.375769 
L 267.520673 193.853688 
L 268.016299 195.495319 
L 268.264112 194.275476 
L 268.511924 195.568363 
L 269.00755 195.623752 
L 269.255363 196.684151 
L 269.503175 196.847871 
L 269.750988 196.513193 
L 269.998801 196.441404 
L 270.246614 196.018564 
L 270.742239 196.118483 
L 270.990052 196.564022 
L 271.237865 195.800073 
L 271.485677 195.773523 
L 271.73349 196.564446 
L 271.981303 196.847994 
L 272.476929 196.876267 
L 272.724741 197.226389 
L 272.972554 196.994159 
L 273.220367 197.407526 
L 273.46818 198.323077 
L 273.715992 197.633117 
L 273.963805 198.048991 
L 274.211618 196.467577 
L 274.459431 196.004381 
L 274.707243 197.436747 
L 274.955056 197.883756 
L 275.946307 197.325139 
L 276.19412 197.791245 
L 276.441933 198.995567 
L 276.937558 197.620558 
L 277.185371 198.907475 
L 277.433184 198.440467 
L 277.680997 198.959308 
L 277.928809 200.32925 
L 278.176622 197.695672 
L 278.424435 196.863155 
L 278.92006 198.810303 
L 279.167873 199.077114 
L 279.415686 198.638238 
L 279.663499 198.726799 
L 279.911311 198.936318 
L 280.159124 199.572306 
L 280.65475 198.930612 
L 280.902563 198.759057 
L 281.150375 199.121263 
L 281.398188 200.611695 
L 281.646001 199.964793 
L 281.893814 198.887764 
L 282.141626 199.309089 
L 282.389439 199.042187 
L 282.885065 200.468276 
L 283.132877 198.656758 
L 283.38069 198.766055 
L 283.628503 199.04262 
L 284.124128 200.142123 
L 284.371941 199.72553 
L 284.619754 198.938898 
L 284.867567 199.543378 
L 285.115379 199.729082 
L 285.611005 201.811529 
L 285.858818 201.095823 
L 286.354443 200.820182 
L 286.602256 201.720479 
L 286.850069 200.694345 
L 287.345694 200.444012 
L 287.593507 200.294539 
L 288.089133 200.488052 
L 288.336945 200.81439 
L 288.584758 200.787097 
L 289.328196 201.700955 
L 289.576009 201.386768 
L 289.823822 201.525881 
L 290.071635 201.482987 
L 290.56726 203.183316 
L 290.815073 202.436719 
L 291.062886 202.705677 
L 291.558511 201.404915 
L 292.054137 203.042316 
L 292.30195 202.795135 
L 292.549762 203.389808 
L 292.797575 202.912468 
L 293.045388 202.83445 
L 293.293201 202.41972 
L 293.541013 202.315945 
L 293.788826 204.657639 
L 294.036639 204.010386 
L 294.284452 202.346581 
L 294.532265 203.077821 
L 294.780077 201.883241 
L 295.275703 202.79164 
L 295.771328 203.601734 
L 296.019141 204.095612 
L 296.266954 205.092706 
L 296.514767 204.391341 
L 296.762579 204.178401 
L 297.010392 204.784311 
L 297.258205 203.196917 
L 297.506018 203.49292 
L 297.75383 204.674657 
L 298.249456 203.361729 
L 298.497269 203.412575 
L 298.745081 204.086167 
L 298.992894 203.953939 
L 299.240707 204.190988 
L 299.48852 203.877988 
L 299.736333 204.058695 
L 299.984145 203.583286 
L 300.479771 204.90041 
L 300.727584 204.947573 
L 300.975396 204.22929 
L 301.223209 205.223733 
L 301.471022 203.961161 
L 301.718835 203.678799 
L 301.966647 202.75531 
L 302.462273 205.652281 
L 302.710086 205.169868 
L 302.957898 204.01215 
L 303.453524 205.714092 
L 303.701337 204.827769 
L 303.94915 204.88403 
L 304.196962 204.162021 
L 304.444775 204.858131 
L 304.692588 204.838021 
L 304.940401 205.065651 
L 305.188213 205.643634 
L 305.436026 205.238376 
L 305.683839 205.925219 
L 305.931652 206.060444 
L 306.179464 205.922191 
L 306.427277 205.985372 
L 306.922903 207.765646 
L 307.170715 206.397365 
L 307.418528 205.805729 
L 307.666341 205.874465 
L 307.914154 205.675127 
L 308.161967 206.799124 
L 308.409779 206.844135 
L 308.657592 206.132856 
L 308.905405 207.345689 
L 309.40103 206.394439 
L 309.648843 207.155845 
L 309.896656 207.289834 
L 310.144469 207.55051 
L 310.392281 207.408503 
L 310.640094 205.962313 
L 310.887907 206.285645 
L 311.13572 207.413139 
L 311.383532 206.637361 
L 311.631345 206.962837 
L 311.879158 206.887584 
L 312.374783 208.119515 
L 312.622596 207.591479 
L 312.870409 205.992674 
L 313.118222 205.390302 
L 313.366035 206.337878 
L 313.613847 207.874812 
L 313.86166 207.858137 
L 314.109473 208.050407 
L 314.605098 207.587788 
L 315.100724 208.821036 
L 315.348537 210.207082 
L 315.596349 209.58456 
L 315.844162 208.240364 
L 316.091975 207.966061 
L 316.339788 208.201268 
L 316.5876 208.195777 
L 316.835413 208.426848 
L 317.083226 208.230982 
L 317.331039 209.221273 
L 317.578852 209.248743 
L 317.826664 209.600715 
L 318.32229 209.038171 
L 318.570103 209.106131 
L 318.817915 208.973734 
L 319.065728 209.318512 
L 319.313541 208.463018 
L 319.561354 208.341076 
L 319.809166 209.183227 
L 320.056979 209.474774 
L 320.304792 208.985326 
L 320.552605 209.38535 
L 321.04823 209.083847 
L 321.296043 209.743926 
L 321.543856 210.926546 
L 321.791669 209.791456 
L 322.039481 209.438258 
L 322.287294 210.081481 
L 322.535107 208.712086 
L 322.78292 209.196621 
L 323.030732 211.197873 
L 323.278545 209.83953 
L 323.774171 209.375434 
L 324.021983 209.872139 
L 324.269796 208.950225 
L 324.517609 208.517919 
L 324.765422 209.224443 
L 325.013234 210.974732 
L 325.261047 211.031608 
L 325.756673 210.395632 
L 326.004485 209.934713 
L 326.500111 211.362982 
L 326.747924 211.280945 
L 326.995737 210.967718 
L 327.243549 211.398567 
L 327.491362 211.290052 
L 327.986988 209.696596 
L 328.482613 213.278172 
L 328.730426 212.235497 
L 329.473864 211.445669 
L 329.721677 210.869742 
L 330.217302 211.572657 
L 330.465115 210.532534 
L 330.712928 210.493862 
L 330.960741 211.372173 
L 331.208554 211.754353 
L 331.456366 213.100428 
L 331.704179 212.234042 
L 331.951992 212.203002 
L 332.199805 211.961525 
L 332.447617 212.610651 
L 332.69543 212.320648 
L 332.943243 211.835747 
L 333.191056 212.10929 
L 333.438868 212.643444 
L 333.686681 213.709058 
L 333.934494 213.641563 
L 334.182307 212.723546 
L 334.430119 212.283587 
L 334.677932 212.164959 
L 335.173558 214.264868 
L 335.421371 213.37537 
L 335.669183 213.309265 
L 335.916996 212.781327 
L 336.412622 213.590993 
L 336.660434 213.49077 
L 336.908247 214.346244 
L 337.15606 213.494807 
L 337.403873 211.812752 
L 337.651685 212.663124 
L 337.899498 212.590048 
L 338.395124 212.88445 
L 338.642936 212.14651 
L 338.890749 212.314988 
L 339.138562 213.893445 
L 339.386375 213.320762 
L 339.882 215.360302 
L 340.377626 213.423894 
L 340.625439 213.620107 
L 340.873251 214.349578 
L 341.121064 213.792742 
L 341.368877 213.727863 
L 341.864502 214.874427 
L 342.112315 214.397974 
L 342.607941 214.973119 
L 342.855753 215.517678 
L 343.351379 213.160873 
L 343.599192 213.098711 
L 343.847004 213.393086 
L 344.094817 214.975659 
L 344.34263 215.180627 
L 344.590443 215.813949 
L 344.838256 214.151449 
L 345.086068 214.068714 
L 345.333881 215.432416 
L 345.581694 214.054974 
L 345.829507 214.466318 
L 346.077319 215.61219 
L 346.325132 215.703896 
L 346.572945 215.923531 
L 346.820758 215.838448 
L 347.06857 214.189206 
L 347.316383 214.947094 
L 347.564196 215.154262 
L 348.059821 214.980697 
L 348.80326 215.614675 
L 349.298885 216.074034 
L 349.546698 215.533193 
L 349.794511 215.920048 
L 350.042324 216.819738 
L 350.537949 215.552661 
L 350.785762 215.950821 
L 351.033575 215.99572 
L 351.281387 215.405541 
L 351.5292 215.327063 
L 351.777013 215.868007 
L 352.024826 215.366889 
L 352.272638 216.297131 
L 352.520451 215.658884 
L 352.768264 215.751277 
L 353.26389 214.790763 
L 353.511702 215.228158 
L 353.759515 217.149673 
L 354.007328 217.180299 
L 354.255141 215.261222 
L 354.502953 215.363491 
L 355.246392 217.435374 
L 355.494204 217.585158 
L 355.742017 218.274284 
L 356.237643 216.261026 
L 356.485455 216.327808 
L 356.981081 216.239223 
L 357.228894 216.345615 
L 357.476706 216.700975 
L 357.724519 217.57701 
L 357.972332 217.130617 
L 358.220145 216.200558 
L 358.71577 217.750561 
L 358.963583 216.515172 
L 359.211396 217.269508 
L 359.459209 217.499043 
L 359.954834 216.504551 
L 360.202647 216.993673 
L 360.45046 218.25958 
L 360.698272 218.378446 
L 360.946085 218.042356 
L 361.193898 218.107243 
L 361.441711 217.799342 
L 361.689523 219.278072 
L 361.937336 218.352533 
L 362.185149 219.185221 
L 362.432962 219.028757 
L 362.680775 217.267243 
L 362.928587 216.789018 
L 363.1764 217.613661 
L 363.424213 218.973966 
L 363.919838 217.698367 
L 364.167651 218.00035 
L 364.415464 218.796485 
L 364.911089 218.285827 
L 365.158902 219.007726 
L 365.406715 217.715482 
L 365.90234 217.599441 
L 366.397966 219.287188 
L 366.645779 219.359131 
L 366.893592 220.060339 
L 367.141404 218.385448 
L 367.389217 218.13724 
L 367.63703 217.455885 
L 367.884843 218.716813 
L 368.132655 218.853455 
L 368.380468 218.354954 
L 368.628281 219.32996 
L 368.876094 219.106672 
L 369.123906 218.348243 
L 369.371719 219.093991 
L 369.619532 220.205267 
L 369.867345 219.92053 
L 370.36297 218.503882 
L 370.610783 218.421855 
L 370.858596 219.418201 
L 371.106408 219.482938 
L 371.354221 220.827428 
L 371.602034 221.471705 
L 371.849847 220.150418 
L 372.593285 221.037145 
L 373.088911 219.962875 
L 373.336723 218.724793 
L 373.584536 218.86812 
L 374.080162 220.756426 
L 374.327974 220.640227 
L 374.575787 220.233496 
L 375.319225 220.674634 
L 375.567038 220.21574 
L 375.814851 220.175179 
L 376.310477 221.170371 
L 376.806102 220.459983 
L 377.053915 222.107812 
L 377.301728 221.031707 
L 377.54954 220.640834 
L 377.797353 222.185579 
L 378.045166 221.65827 
L 378.292979 219.873382 
L 378.540791 220.913744 
L 378.788604 220.108125 
L 379.036417 220.448902 
L 379.28423 221.403761 
L 379.532042 221.222963 
L 379.779855 221.914418 
L 380.027668 221.115106 
L 380.275481 221.285027 
L 380.523294 220.517445 
L 380.771106 220.175897 
L 381.018919 221.336941 
L 381.266732 220.982332 
L 381.514545 220.9443 
L 381.762357 222.520251 
L 382.01017 223.13482 
L 382.257983 222.620299 
L 382.505796 221.775782 
L 382.753608 222.484316 
L 383.001421 221.585286 
L 383.497047 222.294626 
L 383.744859 222.162139 
L 383.992672 220.730676 
L 384.240485 221.366768 
L 384.488298 221.64192 
L 384.73611 222.971982 
L 384.983923 223.006001 
L 385.231736 222.673614 
L 385.727362 223.154905 
L 386.222987 222.40283 
L 386.4708 220.957248 
L 386.966425 223.617435 
L 387.214238 223.536771 
L 387.462051 222.845301 
L 387.957676 222.3467 
L 388.205489 222.375705 
L 388.453302 222.879871 
L 388.701115 222.433943 
L 388.948927 222.573524 
L 389.19674 223.52679 
L 389.444553 223.932719 
L 389.692366 223.193401 
L 389.940179 223.2001 
L 390.435804 223.66495 
L 390.683617 221.777386 
L 391.427055 223.245972 
L 391.674868 223.193805 
L 391.922681 223.865164 
L 392.170493 223.998081 
L 392.666119 221.118621 
L 393.161744 224.22918 
L 393.409557 223.79941 
L 393.905183 221.567055 
L 394.648621 224.435415 
L 394.896434 223.124224 
L 395.144247 223.239591 
L 395.639872 223.035239 
L 396.135498 224.671582 
L 396.38331 224.588035 
L 396.631123 223.872608 
L 397.126749 225.025564 
L 397.374561 223.860082 
L 397.622374 224.151194 
L 397.870187 224.116543 
L 398.365812 224.81354 
L 398.613625 224.621901 
L 398.861438 223.671943 
L 399.357064 224.525754 
L 399.852689 224.111676 
L 400.348315 225.934497 
L 400.596127 224.475079 
L 400.84394 224.4843 
L 401.091753 225.166513 
L 401.339566 225.186313 
L 401.587378 224.843739 
L 402.083004 226.70826 
L 402.330817 226.308473 
L 402.578629 225.26687 
L 402.826442 225.263248 
L 403.074255 225.401048 
L 403.569881 227.278724 
L 403.817693 226.816297 
L 404.313319 224.304749 
L 404.561132 224.386641 
L 404.808944 225.821802 
L 405.056757 225.585808 
L 405.30457 224.143254 
L 405.552383 225.216352 
L 406.543634 226.493906 
L 406.791446 226.361697 
L 407.039259 226.008327 
L 407.287072 226.060205 
L 407.534885 225.498482 
L 407.782698 226.013705 
L 408.03051 225.675559 
L 408.278323 225.830291 
L 408.773949 224.872213 
L 409.021761 224.122461 
L 409.269574 224.413457 
L 409.517387 226.357296 
L 409.7652 225.772124 
L 410.013012 225.735759 
L 410.508638 226.776395 
L 410.756451 227.838378 
L 411.252076 225.825163 
L 411.499889 225.886226 
L 411.747702 226.226015 
L 411.995515 225.674586 
L 412.243327 225.699609 
L 412.49114 226.799305 
L 412.986766 226.380253 
L 413.234578 226.15915 
L 413.482391 226.585172 
L 413.730204 227.348379 
L 413.978017 226.967192 
L 414.225829 227.561102 
L 414.721455 226.474186 
L 414.969268 226.623951 
L 415.21708 227.375825 
L 415.464893 227.58174 
L 415.712706 225.8571 
L 415.960519 225.706813 
L 416.95177 228.175981 
L 417.199583 228.471258 
L 417.447395 227.737577 
L 417.695208 226.218926 
L 417.943021 226.972514 
L 418.190834 226.750701 
L 418.438646 226.997854 
L 418.686459 225.498473 
L 418.934272 226.110218 
L 419.182085 227.045223 
L 419.429897 227.248426 
L 419.925523 228.535727 
L 420.173336 226.885086 
L 420.421148 227.506212 
L 420.668961 228.932153 
L 421.164587 227.918185 
L 421.4124 228.303803 
L 421.660212 227.799584 
L 421.908025 227.73582 
L 422.155838 228.987945 
L 422.403651 227.859802 
L 422.651463 229.637197 
L 422.899276 229.499855 
L 423.147089 229.004327 
L 423.642714 228.746695 
L 423.890527 228.076533 
L 424.13834 228.757424 
L 424.386153 228.909325 
L 424.633965 228.550115 
L 424.881778 228.836244 
L 425.129591 228.484732 
L 425.377404 228.523165 
L 425.625217 229.739327 
L 425.873029 229.646914 
L 426.120842 229.107338 
L 426.616468 228.480503 
L 426.86428 228.029264 
L 427.112093 228.816378 
L 427.359906 230.204245 
L 427.607719 230.141866 
L 428.103344 228.575587 
L 428.59897 229.072196 
L 428.846782 229.09815 
L 429.094595 228.393367 
L 429.342408 228.382428 
L 429.590221 229.039668 
L 429.838033 228.79794 
L 430.085846 229.521411 
L 430.333659 230.860185 
L 430.829285 228.892045 
L 431.077097 229.080258 
L 431.32491 228.528763 
L 431.572723 229.627222 
L 431.820536 228.172686 
L 432.068348 227.956569 
L 432.316161 229.931603 
L 432.563974 229.554746 
L 433.059599 229.392513 
L 433.307412 228.951879 
L 433.555225 230.495533 
L 433.803038 230.203235 
L 434.05085 229.20457 
L 434.298663 228.719273 
L 434.794289 231.19676 
L 435.042102 230.213702 
L 435.289914 230.229047 
L 435.537727 230.700273 
L 435.78554 230.192081 
L 436.033353 231.432288 
L 436.528978 229.406264 
L 436.776791 231.379156 
L 437.024604 231.370326 
L 437.272416 230.437643 
L 437.520229 231.058002 
L 437.768042 230.574174 
L 438.015855 230.427311 
L 438.263667 230.481041 
L 438.51148 231.52339 
L 438.759293 231.4489 
L 439.007106 231.241001 
L 439.254919 229.23881 
L 439.502731 229.393805 
L 439.998357 231.176033 
L 440.493982 230.670596 
L 440.741795 231.482794 
L 440.989608 231.683417 
L 441.485233 231.090533 
L 441.733046 230.800145 
L 441.980859 231.493092 
L 442.228672 230.805489 
L 442.476484 230.93317 
L 442.724297 231.581205 
L 442.97211 231.396783 
L 443.467735 231.596991 
L 443.715548 231.684763 
L 443.963361 232.844271 
L 444.458987 231.183833 
L 444.706799 231.797864 
L 444.954612 229.594487 
L 445.450238 231.224964 
L 445.69805 230.624686 
L 445.945863 231.380462 
L 446.193676 232.616801 
L 446.441489 232.799848 
L 446.689301 230.865917 
L 447.184927 232.537918 
L 447.43274 232.905271 
L 447.680552 232.951487 
L 448.176178 231.269956 
L 448.423991 232.08384 
L 448.671804 233.377236 
L 448.919616 232.870531 
L 449.167429 231.788978 
L 449.415242 232.028281 
L 449.910867 234.601285 
L 450.15868 234.378941 
L 450.406493 231.184927 
L 450.654306 232.229804 
L 450.902118 231.989503 
L 451.149931 231.429412 
L 451.397744 232.752669 
L 451.645557 233.18654 
L 451.893369 232.452101 
L 452.141182 232.432083 
L 452.388995 232.094522 
L 452.636808 232.934083 
L 452.884621 234.253228 
L 453.380246 232.61275 
L 453.628059 232.535511 
L 454.123684 233.213599 
L 454.371497 232.531576 
L 454.61931 232.488553 
L 455.114935 232.688081 
L 455.362748 233.205302 
L 455.610561 233.437274 
L 455.858374 233.101251 
L 456.106186 232.284568 
L 456.353999 233.117365 
L 456.601812 233.165626 
L 456.849625 233.896386 
L 457.097437 232.806726 
L 457.34525 233.439111 
L 457.593063 232.829329 
L 457.840876 232.73146 
L 458.088689 234.010513 
L 458.336501 234.023406 
L 458.832127 234.576 
L 459.07994 234.279067 
L 459.327752 235.001311 
L 459.575565 234.708346 
L 459.823378 233.200563 
L 460.319003 234.091337 
L 460.566816 234.412757 
L 460.814629 234.328922 
L 461.062442 232.392885 
L 461.310254 233.831721 
L 461.558067 233.639705 
L 461.80588 232.489028 
L 462.053693 235.136332 
L 462.301506 235.66185 
L 462.797131 233.167534 
L 463.044944 233.921535 
L 463.292757 233.329585 
L 463.788382 234.56923 
L 464.036195 234.814872 
L 464.284008 234.200922 
L 464.53182 235.456959 
L 465.027446 234.939479 
L 465.275259 235.371688 
L 466.018697 233.500268 
L 466.762135 235.310083 
L 467.009948 235.307499 
L 467.257761 233.929936 
L 467.505574 233.486119 
L 467.753386 233.812305 
L 468.001199 233.504984 
L 468.249012 233.598433 
L 468.496825 234.431054 
L 468.744637 234.598066 
L 468.99245 234.517363 
L 469.240263 234.275847 
L 469.488076 235.031556 
L 469.735888 234.734182 
L 469.983701 234.182513 
L 470.231514 234.752524 
L 470.479327 234.702873 
L 470.727139 235.434479 
L 470.974952 235.281522 
L 471.222765 234.91217 
L 471.470578 236.054588 
L 471.718391 234.620031 
L 471.966203 234.312762 
L 472.214016 234.33355 
L 472.461829 236.250159 
L 472.709642 235.892581 
L 472.957454 236.04752 
L 473.205267 234.530819 
L 473.45308 233.962301 
L 473.700893 235.3766 
L 473.948705 235.170481 
L 474.196518 235.769895 
L 474.444331 235.83856 
L 474.692144 235.27996 
L 474.939956 235.079015 
L 475.187769 235.659076 
L 475.683395 234.450461 
L 475.931208 235.691176 
L 476.17902 235.612458 
L 476.426833 235.209501 
L 476.674646 234.426757 
L 477.170271 237.285804 
L 477.418084 235.920417 
L 477.665897 236.771702 
L 477.91371 236.39844 
L 478.161522 235.354179 
L 478.409335 235.785336 
L 478.657148 235.715239 
L 478.904961 235.92868 
L 479.152773 234.748394 
L 479.648399 237.69525 
L 479.896212 237.632379 
L 480.144025 236.476959 
L 480.391837 236.751106 
L 480.63965 236.549682 
L 480.887463 236.175204 
L 481.135276 236.62936 
L 481.383088 236.187829 
L 481.630901 236.086488 
L 481.878714 237.116542 
L 482.126527 236.28578 
L 482.622152 235.681314 
L 482.869965 236.284435 
L 483.117778 236.158605 
L 483.36559 235.854655 
L 483.613403 237.201763 
L 483.861216 236.77728 
L 484.109029 237.434661 
L 484.356841 237.463803 
L 484.604654 236.780544 
L 484.852467 237.690985 
L 485.10028 237.41771 
L 485.348093 236.946379 
L 485.595905 236.946219 
L 485.843718 237.598516 
L 486.091531 237.832274 
L 486.587156 236.841041 
L 486.834969 238.005063 
L 487.082782 238.110214 
L 487.330595 235.80838 
L 487.578407 236.500588 
L 487.82622 236.74658 
L 488.569658 236.606296 
L 488.817471 237.030142 
L 489.065284 238.088955 
L 489.313097 238.129052 
L 489.56091 237.77024 
L 490.056535 237.942773 
L 490.304348 236.963151 
L 490.552161 236.515483 
L 491.047786 237.721349 
L 491.295599 238.470997 
L 491.543412 238.190874 
L 491.791224 236.301296 
L 492.039037 236.381039 
L 492.28685 236.779418 
L 492.534663 237.652591 
L 492.782475 237.443921 
L 493.030288 236.542605 
L 493.278101 236.729464 
L 493.525914 238.003888 
L 493.773727 238.285324 
L 494.021539 237.928579 
L 494.269352 238.60063 
L 494.517165 238.591984 
L 494.764978 237.848977 
L 495.01279 237.54475 
L 495.260603 238.331029 
L 495.508416 237.40901 
L 495.756229 237.862098 
L 496.004041 237.979859 
L 496.251854 238.52305 
L 496.499667 238.540381 
L 496.74748 240.466114 
L 496.995292 240.206522 
L 497.243105 237.664409 
L 497.490918 238.246014 
L 497.738731 238.375284 
L 497.986544 239.260061 
L 498.234356 238.63599 
L 498.482169 238.332182 
L 498.977795 238.714802 
L 499.225607 237.804877 
L 499.47342 238.408907 
L 499.721233 240.267625 
L 499.969046 240.033699 
L 500.712484 238.248514 
L 501.455922 238.197476 
L 501.703735 239.033193 
L 501.951548 238.823672 
L 502.19936 237.725545 
L 502.447173 237.92887 
L 503.190612 238.958183 
L 503.438424 238.387651 
L 503.93405 239.256812 
L 504.181863 239.182783 
L 504.429675 240.34763 
L 504.677488 238.971737 
L 504.925301 238.700936 
L 505.173114 239.938286 
L 505.668739 239.394135 
L 505.916552 238.646337 
L 506.412177 239.850254 
L 506.65999 240.741403 
L 506.907803 240.495157 
L 507.155616 239.543167 
L 507.651241 239.809665 
L 507.899054 240.769946 
L 508.146867 239.813855 
L 508.39468 239.739363 
L 508.642492 239.139249 
L 508.890305 239.877051 
L 509.138118 241.122576 
L 509.385931 239.270831 
L 509.633743 239.063073 
L 510.129369 240.949235 
L 510.377182 240.480074 
L 510.624994 240.48693 
L 510.872807 241.372993 
L 511.12062 241.244719 
L 511.368433 239.994196 
L 511.616246 240.306533 
L 511.864058 239.674442 
L 512.111871 240.177866 
L 512.359684 240.423466 
L 512.607497 240.136959 
L 512.855309 240.058338 
L 513.103122 240.627245 
L 513.350935 239.770159 
L 513.598748 240.501292 
L 513.84656 241.71824 
L 514.094373 240.288935 
L 514.342186 240.193072 
L 514.589999 240.754545 
L 514.837811 240.396534 
L 515.085624 240.959385 
L 515.333437 241.149649 
L 515.58125 240.373363 
L 515.829062 240.192915 
L 516.076875 241.619725 
L 516.324688 241.938434 
L 516.572501 241.353358 
L 516.820314 241.340423 
L 517.068126 241.891669 
L 517.563752 241.227323 
L 517.811565 241.738491 
L 518.30719 240.186727 
L 518.555003 241.802256 
L 518.802816 242.406601 
L 519.050628 240.960101 
L 519.298441 241.26682 
L 519.546254 239.619768 
L 519.794067 239.29815 
L 520.041879 241.267971 
L 520.289692 242.126158 
L 520.537505 241.119956 
L 520.785318 241.160716 
L 521.033131 240.213104 
L 521.528756 240.895455 
L 521.776569 240.531677 
L 522.024382 240.64986 
L 522.272194 241.281671 
L 522.520007 241.186604 
L 522.76782 242.161615 
L 523.015633 242.131303 
L 523.263445 241.882756 
L 523.511258 241.948629 
L 523.759071 242.518296 
L 524.006884 242.249973 
L 524.254696 241.020425 
L 524.502509 240.865295 
L 524.998135 242.292996 
L 525.245948 242.033966 
L 525.49376 241.60747 
L 525.741573 242.484437 
L 526.237199 241.80994 
L 526.485011 241.699118 
L 526.732824 241.819897 
L 527.22845 242.372858 
L 527.476262 243.782742 
L 527.724075 242.856836 
L 527.971888 241.207431 
L 528.219701 241.268545 
L 528.467513 241.722711 
L 528.715326 242.683306 
L 528.963139 242.456112 
L 529.210952 242.436319 
L 529.458764 243.682542 
L 529.706577 243.019617 
L 529.95439 241.905449 
L 530.202203 243.177522 
L 530.450016 242.974722 
L 530.945641 241.240845 
L 531.193454 242.416054 
L 531.441267 242.754956 
L 531.689079 242.726118 
L 531.936892 242.239912 
L 532.184705 242.374638 
L 532.432518 243.164947 
L 532.68033 241.832424 
L 532.928143 242.826897 
L 533.175956 242.704954 
L 533.423769 242.15448 
L 533.671581 242.363322 
L 533.919394 244.529741 
L 534.167207 243.771521 
L 534.41502 242.653484 
L 534.662833 243.830629 
L 534.910645 244.466688 
L 535.654084 243.11411 
L 535.901896 242.456274 
L 536.149709 242.978843 
L 536.397522 243.177126 
L 536.645335 242.96411 
L 536.893147 243.00181 
L 537.14096 242.546497 
L 537.636586 242.79645 
L 537.884398 243.307352 
L 538.132211 243.159707 
L 538.380024 244.011811 
L 538.627837 244.022531 
L 539.123462 242.735007 
L 539.371275 243.10219 
L 539.619088 243.730966 
L 539.866901 244.886876 
L 540.114713 244.976174 
L 540.362526 243.779515 
L 540.858152 244.23099 
L 541.105964 243.829209 
L 541.353777 242.434238 
L 541.60159 242.279861 
L 541.849403 243.009122 
L 542.097215 244.757973 
L 542.592841 246.010739 
L 542.840654 244.373881 
L 543.088466 244.142321 
L 543.336279 244.396345 
L 543.584092 243.710458 
L 543.831905 243.374623 
L 544.079718 244.484347 
L 544.575343 245.551144 
L 544.823156 244.899505 
L 545.070969 244.621519 
L 545.318781 244.70557 
L 545.566594 245.530873 
L 545.814407 243.775065 
L 546.310032 245.405217 
L 546.557845 243.71123 
L 546.805658 242.861086 
L 547.053471 243.881634 
L 547.301283 245.487058 
L 547.549096 244.049524 
L 547.796909 243.815256 
L 548.044722 245.013458 
L 548.292535 244.878924 
L 548.540347 244.442662 
L 548.78816 244.728581 
L 549.035973 244.563894 
L 549.283786 245.442069 
L 549.779411 243.77144 
L 550.027224 244.683544 
L 550.522849 244.397549 
L 550.770662 244.850222 
L 551.018475 244.681408 
L 551.266288 244.801016 
L 551.5141 245.294402 
L 551.761913 244.797273 
L 552.009726 244.850052 
L 552.505352 245.827155 
L 552.753164 244.742004 
L 553.000977 244.895979 
L 553.24879 244.454333 
L 553.496603 245.027686 
L 553.992228 244.75436 
L 554.487854 244.644323 
L 554.735666 245.918319 
L 554.983479 244.664359 
L 555.231292 244.625915 
L 555.479105 246.222597 
L 555.726917 245.906011 
L 555.97473 246.215822 
L 556.222543 246.21453 
L 556.470356 245.230965 
L 556.718168 244.704138 
L 556.965981 244.657725 
L 557.213794 244.860315 
L 557.461607 246.285599 
L 557.957232 244.107986 
L 558.205045 245.727198 
L 558.452858 246.340934 
L 558.700671 244.70593 
L 558.948483 245.906099 
L 559.196296 245.637253 
L 559.444109 245.056335 
L 559.691922 245.634549 
L 559.939734 247.119869 
L 560.187547 246.93271 
L 560.43536 246.266514 
L 560.930985 246.721882 
L 561.426611 246.164676 
L 561.674424 246.429356 
L 561.922237 244.507668 
L 562.170049 245.173342 
L 562.417862 246.740994 
L 562.665675 246.599695 
L 562.913488 245.360051 
L 563.1613 244.781457 
L 563.409113 244.759979 
L 563.656926 245.988288 
L 563.904739 246.057864 
L 564.152551 246.472645 
L 564.400364 245.864362 
L 564.648177 247.172918 
L 564.89599 246.509694 
L 565.143802 245.136799 
L 565.391615 245.512162 
L 565.887241 247.346461 
L 566.135054 246.997742 
L 566.382866 246.027957 
L 566.630679 246.153317 
L 566.878492 246.06203 
L 567.126305 245.373985 
L 567.62193 247.451852 
L 567.869743 247.337689 
L 568.117556 247.012724 
L 568.365368 245.66614 
L 568.613181 245.714057 
L 569.108807 248.355771 
L 569.356619 247.540064 
L 569.604432 247.282125 
L 569.852245 246.72143 
L 570.100058 246.898711 
L 570.34787 246.872417 
L 570.595683 247.447754 
L 570.843496 246.551309 
L 571.091309 247.316522 
L 571.339122 247.706467 
L 571.586934 246.620963 
L 571.834747 247.088613 
L 572.08256 248.367025 
L 572.330373 246.073656 
L 572.578185 246.73753 
L 572.825998 248.072699 
L 573.073811 247.090591 
L 573.321624 247.60052 
L 573.569436 247.718257 
L 573.817249 247.242763 
L 574.065062 247.387609 
L 574.312875 246.718433 
L 574.560687 246.751166 
L 574.8085 247.589721 
L 575.056313 247.892502 
L 575.304126 247.919409 
L 575.551939 247.71031 
L 575.799751 246.972739 
L 576.047564 246.730759 
L 576.295377 247.83706 
L 576.54319 247.515562 
L 576.791002 246.566285 
L 577.038815 247.409586 
L 577.286628 247.505775 
L 577.534441 246.643857 
L 577.782253 246.889281 
L 578.030066 246.676276 
L 578.277879 246.768095 
L 578.525692 246.544377 
L 578.773504 246.714385 
L 579.021317 247.120464 
L 579.26913 246.232952 
L 579.764756 248.943813 
L 580.012568 247.941187 
L 580.508194 248.660692 
L 580.756007 249.791182 
L 581.251632 247.638885 
L 581.499445 247.177482 
L 581.747258 248.606556 
L 581.99507 248.236526 
L 582.242883 248.071412 
L 582.490696 247.662862 
L 582.738509 249.606162 
L 583.234134 248.564609 
L 583.481947 248.22334 
L 583.72976 248.333378 
L 583.977573 248.307486 
L 584.225385 248.43019 
L 584.473198 247.540836 
L 584.721011 247.989041 
L 584.968824 249.120855 
L 585.216636 248.978573 
L 585.464449 247.948781 
L 585.712262 248.645069 
L 585.960075 248.156334 
L 586.207887 248.242406 
L 586.4557 247.673858 
L 586.703513 246.645349 
L 586.951326 249.043601 
L 587.199138 248.12164 
L 587.446951 247.979513 
L 587.694764 247.581272 
L 587.942577 248.630271 
L 588.190389 248.735092 
L 588.438202 248.428883 
L 588.933828 249.937394 
L 589.181641 250.434556 
L 589.677266 248.112668 
L 590.172892 249.531001 
L 590.668517 247.897251 
L 590.91633 249.169056 
L 591.164143 248.441452 
L 591.411955 249.777971 
L 591.659768 250.313857 
L 591.907581 248.928149 
L 592.155394 248.747735 
L 592.651019 250.288242 
L 593.146645 248.144055 
L 593.394458 248.427683 
L 593.64227 249.025416 
L 593.890083 249.051286 
L 594.137896 249.253073 
L 594.385709 249.942526 
L 594.633521 250.040934 
L 594.881334 248.811628 
L 595.624772 250.42184 
L 595.872585 247.983496 
L 596.120398 248.384505 
L 596.368211 250.306028 
L 596.616023 249.821782 
L 596.863836 249.58844 
L 597.111649 249.630474 
L 597.359462 248.209427 
L 597.855087 249.686469 
L 598.1029 248.461278 
L 598.350713 247.895229 
L 598.598526 249.516289 
L 598.846338 250.162762 
L 599.094151 249.613186 
L 599.341964 249.401117 
L 599.589777 251.247892 
L 599.837589 250.587576 
L 600.085402 249.546966 
L 600.82884 250.673038 
L 601.076653 249.09674 
L 601.324466 249.252514 
L 601.572279 250.914003 
L 602.067904 249.642675 
L 602.315717 249.776255 
L 602.56353 250.903252 
L 602.811343 251.411636 
L 603.059155 251.037908 
L 603.306968 251.0259 
L 603.802594 250.485698 
L 604.050406 250.629918 
L 604.298219 251.428661 
L 604.546032 250.071972 
L 604.793845 250.665218 
L 605.041657 250.510292 
L 605.28947 249.67986 
L 605.537283 250.913157 
L 605.785096 250.531811 
L 606.032908 249.449558 
L 606.280721 250.366581 
L 606.528534 250.379739 
L 606.776347 250.918874 
L 607.271972 250.025513 
L 607.519785 250.973141 
L 607.767598 250.35416 
L 608.015411 251.372977 
L 608.263223 251.889437 
L 608.511036 252.04517 
L 609.006662 250.770684 
L 609.254474 251.514211 
L 609.502287 250.550357 
L 609.7501 250.893092 
L 609.997913 250.8582 
L 610.245725 251.224006 
L 610.493538 250.889435 
L 610.741351 249.98925 
L 611.236977 251.066103 
L 611.484789 250.735668 
L 611.732602 251.212195 
L 611.980415 251.173857 
L 612.228228 251.353614 
L 612.47604 251.937167 
L 612.723853 250.717168 
L 612.971666 251.14367 
L 613.219479 250.655713 
L 613.467291 251.611921 
L 613.715104 251.537591 
L 613.962917 250.805838 
L 614.458542 251.586497 
L 614.706355 251.135537 
L 614.954168 252.037962 
L 615.201981 251.867943 
L 615.449793 252.131655 
L 615.697606 252.18314 
L 615.945419 251.527135 
L 616.193232 251.562301 
L 616.441045 252.120521 
L 616.688857 251.912861 
L 616.93667 251.091419 
L 617.184483 251.005231 
L 617.432296 251.48763 
L 617.680108 250.067907 
L 618.175734 251.762762 
L 618.671359 252.191117 
L 618.919172 253.602987 
L 619.166985 253.562482 
L 619.414798 251.268846 
L 619.66261 250.891773 
L 619.910423 250.174062 
L 620.158236 250.960448 
L 620.406049 252.429953 
L 620.653862 251.824342 
L 620.901674 251.604662 
L 621.149487 251.796199 
L 621.3973 251.267048 
L 621.645113 251.56974 
L 621.892925 253.127018 
L 622.140738 252.200544 
L 622.388551 252.403253 
L 622.636364 252.14622 
L 622.636364 252.14622 
" clip-path="url(#pe5c0c5c994)" style="fill: none; stroke: #0000ff; stroke-linecap: square"/>
   </g>
   <g id="line2d_54">
    <path d="M 115.363636 37.391128 
L 115.859262 37.688957 
L 116.354887 38.369613 
L 116.850513 39.401065 
L 117.593951 41.506283 
L 118.585202 45.08152 
L 120.319892 52.401642 
L 123.541458 66.096959 
L 125.771772 74.521292 
L 127.754275 81.18993 
L 129.984589 87.876543 
L 132.214904 93.833032 
L 134.445219 99.182677 
L 136.923347 104.537188 
L 139.401474 109.376483 
L 142.127415 114.206042 
L 144.853355 118.603523 
L 147.827108 122.988111 
L 151.048674 127.329678 
L 154.518053 131.606154 
L 157.987432 135.533329 
L 161.704623 139.412195 
L 165.669627 143.229918 
L 169.882444 146.977325 
L 174.343074 150.648141 
L 179.051517 154.238359 
L 184.007772 157.745729 
L 189.459653 161.326369 
L 195.159346 164.801583 
L 201.354665 168.310759 
L 207.797797 171.703994 
L 214.736555 175.105293 
L 222.170938 178.497224 
L 230.100946 181.865851 
L 238.52658 185.20022 
L 247.447839 188.491871 
L 257.112537 191.816813 
L 267.272861 195.077089 
L 278.176622 198.342502 
L 289.823822 201.597992 
L 302.21446 204.831432 
L 315.596349 208.09158 
L 329.96949 211.359414 
L 345.333881 214.619364 
L 361.689523 217.858871 
L 379.28423 221.112257 
L 397.870187 224.32163 
L 417.943021 227.559013 
L 439.254919 230.76938 
L 462.053693 233.978017 
L 486.587156 237.203346 
L 512.855309 240.428672 
L 540.858152 243.640394 
L 570.843496 246.853257 
L 602.811343 250.0536 
L 622.636364 251.934549 
L 622.636364 251.934549 
" clip-path="url(#pe5c0c5c994)" style="fill: none; stroke: #ff0000; stroke-linecap: square"/>
   </g>
   <g id="patch_3">
    <path d="M 90 256.32 
L 90 34.56 
" style="fill: none; stroke: #000000; stroke-width: 0.8; stroke-linejoin: miter; stroke-linecap: square"/>
   </g>
   <g id="patch_4">
    <path d="M 648 256.32 
L 648 34.56 
" style="fill: none; stroke: #000000; stroke-width: 0.8; stroke-linejoin: miter; stroke-linecap: square"/>
   </g>
   <g id="patch_5">
    <path d="M 90 256.32 
L 648 256.32 
" style="fill: none; stroke: #000000; stroke-width: 0.8; stroke-linejoin: miter; stroke-linecap: square"/>
   </g>
   <g id="patch_6">
    <path d="M 90 34.56 
L 648 34.56 
" style="fill: none; stroke: #000000; stroke-width: 0.8; stroke-linejoin: miter; stroke-linecap: square"/>
   </g>
  </g>
  <g id="text_13">
   <!-- Spectral model estimation -->
   <g transform="translate(280.880625 14.878125) scale(0.12 -0.12)">
    <defs>
     <path id="DejaVuSans-6d" d="M 3328 2828 
Q 3544 3216 3844 3400 
Q 4144 3584 4550 3584 
Q 5097 3584 5394 3201 
Q 5691 2819 5691 2113 
L 5691 0 
L 5113 0 
L 5113 2094 
Q 5113 2597 4934 2840 
Q 4756 3084 4391 3084 
Q 3944 3084 3684 2787 
Q 3425 2491 3425 1978 
L 3425 0 
L 2847 0 
L 2847 2094 
Q 2847 2600 2669 2842 
Q 2491 3084 2119 3084 
Q 1678 3084 1418 2786 
Q 1159 2488 1159 1978 
L 1159 0 
L 581 0 
L 581 3500 
L 1159 3500 
L 1159 2956 
Q 1356 3278 1631 3431 
Q 1906 3584 2284 3584 
Q 2666 3584 2933 3390 
Q 3200 3197 3328 2828 
z
" transform="scale(0.015625)"/>
    </defs>
    <use xlink:href="#DejaVuSans-53"/>
    <use xlink:href="#DejaVuSans-70" transform="translate(63.476562 0)"/>
    <use xlink:href="#DejaVuSans-65" transform="translate(126.953125 0)"/>
    <use xlink:href="#DejaVuSans-63" transform="translate(188.476562 0)"/>
    <use xlink:href="#DejaVuSans-74" transform="translate(243.457031 0)"/>
    <use xlink:href="#DejaVuSans-72" transform="translate(282.666016 0)"/>
    <use xlink:href="#DejaVuSans-61" transform="translate(323.779297 0)"/>
    <use xlink:href="#DejaVuSans-6c" transform="translate(385.058594 0)"/>
    <use xlink:href="#DejaVuSans-20" transform="translate(412.841797 0)"/>
    <use xlink:href="#DejaVuSans-6d" transform="translate(444.628906 0)"/>
    <use xlink:href="#DejaVuSans-6f" transform="translate(542.041016 0)"/>
    <use xlink:href="#DejaVuSans-64" transform="translate(603.222656 0)"/>
    <use xlink:href="#DejaVuSans-65" transform="translate(666.699219 0)"/>
    <use xlink:href="#DejaVuSans-6c" transform="translate(728.222656 0)"/>
    <use xlink:href="#DejaVuSans-20" transform="translate(756.005859 0)"/>
    <use xlink:href="#DejaVuSans-65" transform="translate(787.792969 0)"/>
    <use xlink:href="#DejaVuSans-73" transform="translate(849.316406 0)"/>
    <use xlink:href="#DejaVuSans-74" transform="translate(901.416016 0)"/>
    <use xlink:href="#DejaVuSans-69" transform="translate(940.625 0)"/>
    <use xlink:href="#DejaVuSans-6d" transform="translate(968.408203 0)"/>
    <use xlink:href="#DejaVuSans-61" transform="translate(1065.820312 0)"/>
    <use xlink:href="#DejaVuSans-74" transform="translate(1127.099609 0)"/>
    <use xlink:href="#DejaVuSans-69" transform="translate(1166.308594 0)"/>
    <use xlink:href="#DejaVuSans-6f" transform="translate(1194.091797 0)"/>
    <use xlink:href="#DejaVuSans-6e" transform="translate(1255.273438 0)"/>
   </g>
  </g>
 </g>
 <defs>
  <clipPath id="pe5c0c5c994">
   <rect x="90" y="34.56" width="558" height="221.76"/>
  </clipPath>
 </defs>
</svg>
