<?xml version="1.0" encoding="utf-8" standalone="no"?>
<!DOCTYPE svg PUBLIC "-//W3C//DTD SVG 1.1//EN"
  "http://www.w3.org/Graphics/SVG/1.1/DTD/svg11.dtd">
<svg xmlns:xlink="http://www.w3.org/1999/xlink" width="460.8pt" height="345.6pt" viewBox="0 0 460.8 345.6" xmlns="http://www.w3.org/2000/svg" version="1.1">
 <metadata>
  <rdf:RDF xmlns:dc="http://purl.org/dc/elements/1.1/" xmlns:cc="http://creativecommons.org/ns#" xmlns:rdf="http://www.w3.org/1999/02/22-rdf-syntax-ns#">
   <cc:Work>
    <dc:type rdf:resource="http://purl.org/dc/dcmitype/StillImage"/>
    <dc:date>2026-01-05T15:29:21.232546</dc:date>
    <dc:format>image/svg+xml</dc:format>
    <dc:creator>
     <cc:Agent>
      <dc:title>Matplotlib v3.10.8, https://matplotlib.org/</dc:title>
     </cc:Agent>
    </dc:creator>
   </cc:Work>
  </rdf:RDF>
 </metadata>
 <defs>
  <style type="text/css">*{stroke-linejoin: round; stroke-linecap: butt}</style>
 </defs>
 <g id="figure_1">
  <g id="patch_1">
   <path d="M 0 345.6 
L 460.8 345.6 
L 460.8 0 
L 0 0 
z
" style="fill: #ffffff"/>
  </g>
  <g id="axes_1">
   <g id="patch_2">
    <path d="M 57.6 307.584 
L 414.72 307.584 
L 414.72 41.472 
L 57.6 41.472 
z
" style="fill: #ffffff"/>
   </g>
   <g id="matplotlib.axis_1">
    <g id="xtick_1">
     <g id="line2d_1">
      <path d="M 61.850661 307.584 
L 61.850661 41.472 
" clip-path="url(#p351cd9e992)" style="fill: none; stroke: #b0b0b0; stroke-width: 0.8; stroke-linecap: square"/>
     </g>
     <g id="line2d_2">
      <defs>
       <path id="m603ad99ce1" d="M 0 0 
L 0 3.5 
" style="stroke: #000000; stroke-width: 0.8"/>
      </defs>
      <g>
       <use xlink:href="#m603ad99ce1" x="61.850661" y="307.584" style="stroke: #000000; stroke-width: 0.8"/>
      </g>
     </g>
     <g id="text_1">
      <!-- $\mathdefault{10^{-1}}$ -->
      <g transform="translate(50.100661 322.182437) scale(0.1 -0.1)">
       <defs>
        <path id="DejaVuSans-31" d="M 794 531 
L 1825 531 
L 1825 4091 
L 703 3866 
L 703 4441 
L 1819 4666 
L 2450 4666 
L 2450 531 
L 3481 531 
L 3481 0 
L 794 0 
L 794 531 
z
" transform="scale(0.015625)"/>
        <path id="DejaVuSans-30" d="M 2034 4250 
Q 1547 4250 1301 3770 
Q 1056 3291 1056 2328 
Q 1056 1369 1301 889 
Q 1547 409 2034 409 
Q 2525 409 2770 889 
Q 3016 1369 3016 2328 
Q 3016 3291 2770 3770 
Q 2525 4250 2034 4250 
z
M 2034 4750 
Q 2819 4750 3233 4129 
Q 3647 3509 3647 2328 
Q 3647 1150 3233 529 
Q 2819 -91 2034 -91 
Q 1250 -91 836 529 
Q 422 1150 422 2328 
Q 422 3509 836 4129 
Q 1250 4750 2034 4750 
z
" transform="scale(0.015625)"/>
        <path id="DejaVuSans-2212" d="M 678 2272 
L 4684 2272 
L 4684 1741 
L 678 1741 
L 678 2272 
z
" transform="scale(0.015625)"/>
       </defs>
       <use xlink:href="#DejaVuSans-31" transform="translate(0 0.684375)"/>
       <use xlink:href="#DejaVuSans-30" transform="translate(63.623047 0.684375)"/>
       <use xlink:href="#DejaVuSans-2212" transform="translate(128.203125 38.965625) scale(0.7)"/>
       <use xlink:href="#DejaVuSans-31" transform="translate(186.855469 38.965625) scale(0.7)"/>
      </g>
     </g>
    </g>
    <g id="xtick_2">
     <g id="line2d_3">
      <path d="M 166.141752 307.584 
L 166.141752 41.472 
" clip-path="url(#p351cd9e992)" style="fill: none; stroke: #b0b0b0; stroke-width: 0.8; stroke-linecap: square"/>
     </g>
     <g id="line2d_4">
      <g>
       <use xlink:href="#m603ad99ce1" x="166.141752" y="307.584" style="stroke: #000000; stroke-width: 0.8"/>
      </g>
     </g>
     <g id="text_2">
      <!-- $\mathdefault{10^{0}}$ -->
      <g transform="translate(157.341752 322.182437) scale(0.1 -0.1)">
       <use xlink:href="#DejaVuSans-31" transform="translate(0 0.765625)"/>
       <use xlink:href="#DejaVuSans-30" transform="translate(63.623047 0.765625)"/>
       <use xlink:href="#DejaVuSans-30" transform="translate(128.203125 39.046875) scale(0.7)"/>
      </g>
     </g>
    </g>
    <g id="xtick_3">
     <g id="line2d_5">
      <path d="M 270.432842 307.584 
L 270.432842 41.472 
" clip-path="url(#p351cd9e992)" style="fill: none; stroke: #b0b0b0; stroke-width: 0.8; stroke-linecap: square"/>
     </g>
     <g id="line2d_6">
      <g>
       <use xlink:href="#m603ad99ce1" x="270.432842" y="307.584" style="stroke: #000000; stroke-width: 0.8"/>
      </g>
     </g>
     <g id="text_3">
      <!-- $\mathdefault{10^{1}}$ -->
      <g transform="translate(261.632842 322.182437) scale(0.1 -0.1)">
       <use xlink:href="#DejaVuSans-31" transform="translate(0 0.684375)"/>
       <use xlink:href="#DejaVuSans-30" transform="translate(63.623047 0.684375)"/>
       <use xlink:href="#DejaVuSans-31" transform="translate(128.203125 38.965625) scale(0.7)"/>
      </g>
     </g>
    </g>
    <g id="xtick_4">
     <g id="line2d_7">
      <path d="M 374.723933 307.584 
L 374.723933 41.472 
" clip-path="url(#p351cd9e992)" style="fill: none; stroke: #b0b0b0; stroke-width: 0.8; stroke-linecap: square"/>
     </g>
     <g id="line2d_8">
      <g>
       <use xlink:href="#m603ad99ce1" x="374.723933" y="307.584" style="stroke: #000000; stroke-width: 0.8"/>
      </g>
     </g>
     <g id="text_4">
      <!-- $\mathdefault{10^{2}}$ -->
      <g transform="translate(365.923933 322.182437) scale(0.1 -0.1)">
       <defs>
        <path id="DejaVuSans-32" d="M 1228 531 
L 3431 531 
L 3431 0 
L 469 0 
L 469 531 
Q 828 903 1448 1529 
Q 2069 2156 2228 2338 
Q 2531 2678 2651 2914 
Q 2772 3150 2772 3378 
Q 2772 3750 2511 3984 
Q 2250 4219 1831 4219 
Q 1534 4219 1204 4116 
Q 875 4013 500 3803 
L 500 4441 
Q 881 4594 1212 4672 
Q 1544 4750 1819 4750 
Q 2544 4750 2975 4387 
Q 3406 4025 3406 3419 
Q 3406 3131 3298 2873 
Q 3191 2616 2906 2266 
Q 2828 2175 2409 1742 
Q 1991 1309 1228 531 
z
" transform="scale(0.015625)"/>
       </defs>
       <use xlink:href="#DejaVuSans-31" transform="translate(0 0.765625)"/>
       <use xlink:href="#DejaVuSans-30" transform="translate(63.623047 0.765625)"/>
       <use xlink:href="#DejaVuSans-32" transform="translate(128.203125 39.046875) scale(0.7)"/>
      </g>
     </g>
    </g>
    <g id="xtick_5">
     <g id="line2d_9">
      <defs>
       <path id="m1a644b880b" d="M 0 0 
L 0 2 
" style="stroke: #000000; stroke-width: 0.6"/>
      </defs>
      <g>
       <use xlink:href="#m1a644b880b" x="93.245407" y="307.584" style="stroke: #000000; stroke-width: 0.6"/>
      </g>
     </g>
    </g>
    <g id="xtick_6">
     <g id="line2d_10">
      <g>
       <use xlink:href="#m1a644b880b" x="111.610157" y="307.584" style="stroke: #000000; stroke-width: 0.6"/>
      </g>
     </g>
    </g>
    <g id="xtick_7">
     <g id="line2d_11">
      <g>
       <use xlink:href="#m1a644b880b" x="124.640154" y="307.584" style="stroke: #000000; stroke-width: 0.6"/>
      </g>
     </g>
    </g>
    <g id="xtick_8">
     <g id="line2d_12">
      <g>
       <use xlink:href="#m1a644b880b" x="134.747005" y="307.584" style="stroke: #000000; stroke-width: 0.6"/>
      </g>
     </g>
    </g>
    <g id="xtick_9">
     <g id="line2d_13">
      <g>
       <use xlink:href="#m1a644b880b" x="143.004903" y="307.584" style="stroke: #000000; stroke-width: 0.6"/>
      </g>
     </g>
    </g>
    <g id="xtick_10">
     <g id="line2d_14">
      <g>
       <use xlink:href="#m1a644b880b" x="149.986857" y="307.584" style="stroke: #000000; stroke-width: 0.6"/>
      </g>
     </g>
    </g>
    <g id="xtick_11">
     <g id="line2d_15">
      <g>
       <use xlink:href="#m1a644b880b" x="156.034901" y="307.584" style="stroke: #000000; stroke-width: 0.6"/>
      </g>
     </g>
    </g>
    <g id="xtick_12">
     <g id="line2d_16">
      <g>
       <use xlink:href="#m1a644b880b" x="161.369653" y="307.584" style="stroke: #000000; stroke-width: 0.6"/>
      </g>
     </g>
    </g>
    <g id="xtick_13">
     <g id="line2d_17">
      <g>
       <use xlink:href="#m1a644b880b" x="197.536498" y="307.584" style="stroke: #000000; stroke-width: 0.6"/>
      </g>
     </g>
    </g>
    <g id="xtick_14">
     <g id="line2d_18">
      <g>
       <use xlink:href="#m1a644b880b" x="215.901248" y="307.584" style="stroke: #000000; stroke-width: 0.6"/>
      </g>
     </g>
    </g>
    <g id="xtick_15">
     <g id="line2d_19">
      <g>
       <use xlink:href="#m1a644b880b" x="228.931245" y="307.584" style="stroke: #000000; stroke-width: 0.6"/>
      </g>
     </g>
    </g>
    <g id="xtick_16">
     <g id="line2d_20">
      <g>
       <use xlink:href="#m1a644b880b" x="239.038096" y="307.584" style="stroke: #000000; stroke-width: 0.6"/>
      </g>
     </g>
    </g>
    <g id="xtick_17">
     <g id="line2d_21">
      <g>
       <use xlink:href="#m1a644b880b" x="247.295994" y="307.584" style="stroke: #000000; stroke-width: 0.6"/>
      </g>
     </g>
    </g>
    <g id="xtick_18">
     <g id="line2d_22">
      <g>
       <use xlink:href="#m1a644b880b" x="254.277948" y="307.584" style="stroke: #000000; stroke-width: 0.6"/>
      </g>
     </g>
    </g>
    <g id="xtick_19">
     <g id="line2d_23">
      <g>
       <use xlink:href="#m1a644b880b" x="260.325991" y="307.584" style="stroke: #000000; stroke-width: 0.6"/>
      </g>
     </g>
    </g>
    <g id="xtick_20">
     <g id="line2d_24">
      <g>
       <use xlink:href="#m1a644b880b" x="265.660744" y="307.584" style="stroke: #000000; stroke-width: 0.6"/>
      </g>
     </g>
    </g>
    <g id="xtick_21">
     <g id="line2d_25">
      <g>
       <use xlink:href="#m1a644b880b" x="301.827589" y="307.584" style="stroke: #000000; stroke-width: 0.6"/>
      </g>
     </g>
    </g>
    <g id="xtick_22">
     <g id="line2d_26">
      <g>
       <use xlink:href="#m1a644b880b" x="320.192338" y="307.584" style="stroke: #000000; stroke-width: 0.6"/>
      </g>
     </g>
    </g>
    <g id="xtick_23">
     <g id="line2d_27">
      <g>
       <use xlink:href="#m1a644b880b" x="333.222335" y="307.584" style="stroke: #000000; stroke-width: 0.6"/>
      </g>
     </g>
    </g>
    <g id="xtick_24">
     <g id="line2d_28">
      <g>
       <use xlink:href="#m1a644b880b" x="343.329186" y="307.584" style="stroke: #000000; stroke-width: 0.6"/>
      </g>
     </g>
    </g>
    <g id="xtick_25">
     <g id="line2d_29">
      <g>
       <use xlink:href="#m1a644b880b" x="351.587085" y="307.584" style="stroke: #000000; stroke-width: 0.6"/>
      </g>
     </g>
    </g>
    <g id="xtick_26">
     <g id="line2d_30">
      <g>
       <use xlink:href="#m1a644b880b" x="358.569039" y="307.584" style="stroke: #000000; stroke-width: 0.6"/>
      </g>
     </g>
    </g>
    <g id="xtick_27">
     <g id="line2d_31">
      <g>
       <use xlink:href="#m1a644b880b" x="364.617082" y="307.584" style="stroke: #000000; stroke-width: 0.6"/>
      </g>
     </g>
    </g>
    <g id="xtick_28">
     <g id="line2d_32">
      <g>
       <use xlink:href="#m1a644b880b" x="369.951834" y="307.584" style="stroke: #000000; stroke-width: 0.6"/>
      </g>
     </g>
    </g>
    <g id="xtick_29">
     <g id="line2d_33">
      <g>
       <use xlink:href="#m1a644b880b" x="406.118679" y="307.584" style="stroke: #000000; stroke-width: 0.6"/>
      </g>
     </g>
    </g>
    <g id="text_5">
     <!-- X0 -->
     <g transform="translate(229.55375 335.860562) scale(0.1 -0.1)">
      <defs>
       <path id="DejaVuSans-58" d="M 403 4666 
L 1081 4666 
L 2241 2931 
L 3406 4666 
L 4084 4666 
L 2584 2425 
L 4184 0 
L 3506 0 
L 2194 1984 
L 872 0 
L 191 0 
L 1856 2491 
L 403 4666 
z
" transform="scale(0.015625)"/>
      </defs>
      <use xlink:href="#DejaVuSans-58"/>
      <use xlink:href="#DejaVuSans-30" transform="translate(68.505859 0)"/>
     </g>
    </g>
   </g>
   <g id="matplotlib.axis_2">
    <g id="ytick_1">
     <g id="line2d_34">
      <path d="M 57.6 303.291269 
L 414.72 303.291269 
" clip-path="url(#p351cd9e992)" style="fill: none; stroke: #b0b0b0; stroke-width: 0.8; stroke-linecap: square"/>
     </g>
     <g id="line2d_35">
      <defs>
       <path id="m33d2b76f3f" d="M 0 0 
L -3.5 0 
" style="stroke: #000000; stroke-width: 0.8"/>
      </defs>
      <g>
       <use xlink:href="#m33d2b76f3f" x="57.6" y="303.291269" style="stroke: #000000; stroke-width: 0.8"/>
      </g>
     </g>
     <g id="text_6">
      <!-- $\mathdefault{10^{-3}}$ -->
      <g transform="translate(27.1 307.090488) scale(0.1 -0.1)">
       <defs>
        <path id="DejaVuSans-33" d="M 2597 2516 
Q 3050 2419 3304 2112 
Q 3559 1806 3559 1356 
Q 3559 666 3084 287 
Q 2609 -91 1734 -91 
Q 1441 -91 1130 -33 
Q 819 25 488 141 
L 488 750 
Q 750 597 1062 519 
Q 1375 441 1716 441 
Q 2309 441 2620 675 
Q 2931 909 2931 1356 
Q 2931 1769 2642 2001 
Q 2353 2234 1838 2234 
L 1294 2234 
L 1294 2753 
L 1863 2753 
Q 2328 2753 2575 2939 
Q 2822 3125 2822 3475 
Q 2822 3834 2567 4026 
Q 2313 4219 1838 4219 
Q 1578 4219 1281 4162 
Q 984 4106 628 3988 
L 628 4550 
Q 988 4650 1302 4700 
Q 1616 4750 1894 4750 
Q 2613 4750 3031 4423 
Q 3450 4097 3450 3541 
Q 3450 3153 3228 2886 
Q 3006 2619 2597 2516 
z
" transform="scale(0.015625)"/>
       </defs>
       <use xlink:href="#DejaVuSans-31" transform="translate(0 0.765625)"/>
       <use xlink:href="#DejaVuSans-30" transform="translate(63.623047 0.765625)"/>
       <use xlink:href="#DejaVuSans-2212" transform="translate(128.203125 39.046875) scale(0.7)"/>
       <use xlink:href="#DejaVuSans-33" transform="translate(186.855469 39.046875) scale(0.7)"/>
      </g>
     </g>
    </g>
    <g id="ytick_2">
     <g id="line2d_36">
      <path d="M 57.6 217.436655 
L 414.72 217.436655 
" clip-path="url(#p351cd9e992)" style="fill: none; stroke: #b0b0b0; stroke-width: 0.8; stroke-linecap: square"/>
     </g>
     <g id="line2d_37">
      <g>
       <use xlink:href="#m33d2b76f3f" x="57.6" y="217.436655" style="stroke: #000000; stroke-width: 0.8"/>
      </g>
     </g>
     <g id="text_7">
      <!-- $\mathdefault{10^{-2}}$ -->
      <g transform="translate(27.1 221.235874) scale(0.1 -0.1)">
       <use xlink:href="#DejaVuSans-31" transform="translate(0 0.765625)"/>
       <use xlink:href="#DejaVuSans-30" transform="translate(63.623047 0.765625)"/>
       <use xlink:href="#DejaVuSans-2212" transform="translate(128.203125 39.046875) scale(0.7)"/>
       <use xlink:href="#DejaVuSans-32" transform="translate(186.855469 39.046875) scale(0.7)"/>
      </g>
     </g>
    </g>
    <g id="ytick_3">
     <g id="line2d_38">
      <path d="M 57.6 131.58204 
L 414.72 131.58204 
" clip-path="url(#p351cd9e992)" style="fill: none; stroke: #b0b0b0; stroke-width: 0.8; stroke-linecap: square"/>
     </g>
     <g id="line2d_39">
      <g>
       <use xlink:href="#m33d2b76f3f" x="57.6" y="131.58204" style="stroke: #000000; stroke-width: 0.8"/>
      </g>
     </g>
     <g id="text_8">
      <!-- $\mathdefault{10^{-1}}$ -->
      <g transform="translate(27.1 135.381259) scale(0.1 -0.1)">
       <use xlink:href="#DejaVuSans-31" transform="translate(0 0.684375)"/>
       <use xlink:href="#DejaVuSans-30" transform="translate(63.623047 0.684375)"/>
       <use xlink:href="#DejaVuSans-2212" transform="translate(128.203125 38.965625) scale(0.7)"/>
       <use xlink:href="#DejaVuSans-31" transform="translate(186.855469 38.965625) scale(0.7)"/>
      </g>
     </g>
    </g>
    <g id="ytick_4">
     <g id="line2d_40">
      <path d="M 57.6 45.727426 
L 414.72 45.727426 
" clip-path="url(#p351cd9e992)" style="fill: none; stroke: #b0b0b0; stroke-width: 0.8; stroke-linecap: square"/>
     </g>
     <g id="line2d_41">
      <g>
       <use xlink:href="#m33d2b76f3f" x="57.6" y="45.727426" style="stroke: #000000; stroke-width: 0.8"/>
      </g>
     </g>
     <g id="text_9">
      <!-- $\mathdefault{10^{0}}$ -->
      <g transform="translate(33 49.526645) scale(0.1 -0.1)">
       <use xlink:href="#DejaVuSans-31" transform="translate(0 0.765625)"/>
       <use xlink:href="#DejaVuSans-30" transform="translate(63.623047 0.765625)"/>
       <use xlink:href="#DejaVuSans-30" transform="translate(128.203125 39.046875) scale(0.7)"/>
      </g>
     </g>
    </g>
    <g id="ytick_5">
     <g id="line2d_42">
      <defs>
       <path id="m4120d6b107" d="M 0 0 
L -2 0 
" style="stroke: #000000; stroke-width: 0.6"/>
      </defs>
      <g>
       <use xlink:href="#m4120d6b107" x="57.6" y="307.219761" style="stroke: #000000; stroke-width: 0.6"/>
      </g>
     </g>
    </g>
    <g id="ytick_6">
     <g id="line2d_43">
      <g>
       <use xlink:href="#m4120d6b107" x="57.6" y="277.446455" style="stroke: #000000; stroke-width: 0.6"/>
      </g>
     </g>
    </g>
    <g id="ytick_7">
     <g id="line2d_44">
      <g>
       <use xlink:href="#m4120d6b107" x="57.6" y="262.328208" style="stroke: #000000; stroke-width: 0.6"/>
      </g>
     </g>
    </g>
    <g id="ytick_8">
     <g id="line2d_45">
      <g>
       <use xlink:href="#m4120d6b107" x="57.6" y="251.601641" style="stroke: #000000; stroke-width: 0.6"/>
      </g>
     </g>
    </g>
    <g id="ytick_9">
     <g id="line2d_46">
      <g>
       <use xlink:href="#m4120d6b107" x="57.6" y="243.281469" style="stroke: #000000; stroke-width: 0.6"/>
      </g>
     </g>
    </g>
    <g id="ytick_10">
     <g id="line2d_47">
      <g>
       <use xlink:href="#m4120d6b107" x="57.6" y="236.483394" style="stroke: #000000; stroke-width: 0.6"/>
      </g>
     </g>
    </g>
    <g id="ytick_11">
     <g id="line2d_48">
      <g>
       <use xlink:href="#m4120d6b107" x="57.6" y="230.735703" style="stroke: #000000; stroke-width: 0.6"/>
      </g>
     </g>
    </g>
    <g id="ytick_12">
     <g id="line2d_49">
      <g>
       <use xlink:href="#m4120d6b107" x="57.6" y="225.756827" style="stroke: #000000; stroke-width: 0.6"/>
      </g>
     </g>
    </g>
    <g id="ytick_13">
     <g id="line2d_50">
      <g>
       <use xlink:href="#m4120d6b107" x="57.6" y="221.365147" style="stroke: #000000; stroke-width: 0.6"/>
      </g>
     </g>
    </g>
    <g id="ytick_14">
     <g id="line2d_51">
      <g>
       <use xlink:href="#m4120d6b107" x="57.6" y="191.591841" style="stroke: #000000; stroke-width: 0.6"/>
      </g>
     </g>
    </g>
    <g id="ytick_15">
     <g id="line2d_52">
      <g>
       <use xlink:href="#m4120d6b107" x="57.6" y="176.473593" style="stroke: #000000; stroke-width: 0.6"/>
      </g>
     </g>
    </g>
    <g id="ytick_16">
     <g id="line2d_53">
      <g>
       <use xlink:href="#m4120d6b107" x="57.6" y="165.747026" style="stroke: #000000; stroke-width: 0.6"/>
      </g>
     </g>
    </g>
    <g id="ytick_17">
     <g id="line2d_54">
      <g>
       <use xlink:href="#m4120d6b107" x="57.6" y="157.426855" style="stroke: #000000; stroke-width: 0.6"/>
      </g>
     </g>
    </g>
    <g id="ytick_18">
     <g id="line2d_55">
      <g>
       <use xlink:href="#m4120d6b107" x="57.6" y="150.628779" style="stroke: #000000; stroke-width: 0.6"/>
      </g>
     </g>
    </g>
    <g id="ytick_19">
     <g id="line2d_56">
      <g>
       <use xlink:href="#m4120d6b107" x="57.6" y="144.881088" style="stroke: #000000; stroke-width: 0.6"/>
      </g>
     </g>
    </g>
    <g id="ytick_20">
     <g id="line2d_57">
      <g>
       <use xlink:href="#m4120d6b107" x="57.6" y="139.902212" style="stroke: #000000; stroke-width: 0.6"/>
      </g>
     </g>
    </g>
    <g id="ytick_21">
     <g id="line2d_58">
      <g>
       <use xlink:href="#m4120d6b107" x="57.6" y="135.510532" style="stroke: #000000; stroke-width: 0.6"/>
      </g>
     </g>
    </g>
    <g id="ytick_22">
     <g id="line2d_59">
      <g>
       <use xlink:href="#m4120d6b107" x="57.6" y="105.737226" style="stroke: #000000; stroke-width: 0.6"/>
      </g>
     </g>
    </g>
    <g id="ytick_23">
     <g id="line2d_60">
      <g>
       <use xlink:href="#m4120d6b107" x="57.6" y="90.618979" style="stroke: #000000; stroke-width: 0.6"/>
      </g>
     </g>
    </g>
    <g id="ytick_24">
     <g id="line2d_61">
      <g>
       <use xlink:href="#m4120d6b107" x="57.6" y="79.892412" style="stroke: #000000; stroke-width: 0.6"/>
      </g>
     </g>
    </g>
    <g id="ytick_25">
     <g id="line2d_62">
      <g>
       <use xlink:href="#m4120d6b107" x="57.6" y="71.57224" style="stroke: #000000; stroke-width: 0.6"/>
      </g>
     </g>
    </g>
    <g id="ytick_26">
     <g id="line2d_63">
      <g>
       <use xlink:href="#m4120d6b107" x="57.6" y="64.774165" style="stroke: #000000; stroke-width: 0.6"/>
      </g>
     </g>
    </g>
    <g id="ytick_27">
     <g id="line2d_64">
      <g>
       <use xlink:href="#m4120d6b107" x="57.6" y="59.026474" style="stroke: #000000; stroke-width: 0.6"/>
      </g>
     </g>
    </g>
    <g id="ytick_28">
     <g id="line2d_65">
      <g>
       <use xlink:href="#m4120d6b107" x="57.6" y="54.047598" style="stroke: #000000; stroke-width: 0.6"/>
      </g>
     </g>
    </g>
    <g id="ytick_29">
     <g id="line2d_66">
      <g>
       <use xlink:href="#m4120d6b107" x="57.6" y="49.655918" style="stroke: #000000; stroke-width: 0.6"/>
      </g>
     </g>
    </g>
    <g id="text_10">
     <!-- SurvivalFunction -->
     <g transform="translate(21.020312 215.952219) rotate(-90) scale(0.1 -0.1)">
      <defs>
       <path id="DejaVuSans-53" d="M 3425 4513 
L 3425 3897 
Q 3066 4069 2747 4153 
Q 2428 4238 2131 4238 
Q 1616 4238 1336 4038 
Q 1056 3838 1056 3469 
Q 1056 3159 1242 3001 
Q 1428 2844 1947 2747 
L 2328 2669 
Q 3034 2534 3370 2195 
Q 3706 1856 3706 1288 
Q 3706 609 3251 259 
Q 2797 -91 1919 -91 
Q 1588 -91 1214 -16 
Q 841 59 441 206 
L 441 856 
Q 825 641 1194 531 
Q 1563 422 1919 422 
Q 2459 422 2753 634 
Q 3047 847 3047 1241 
Q 3047 1584 2836 1778 
Q 2625 1972 2144 2069 
L 1759 2144 
Q 1053 2284 737 2584 
Q 422 2884 422 3419 
Q 422 4038 858 4394 
Q 1294 4750 2059 4750 
Q 2388 4750 2728 4690 
Q 3069 4631 3425 4513 
z
" transform="scale(0.015625)"/>
       <path id="DejaVuSans-75" d="M 544 1381 
L 544 3500 
L 1119 3500 
L 1119 1403 
Q 1119 906 1312 657 
Q 1506 409 1894 409 
Q 2359 409 2629 706 
Q 2900 1003 2900 1516 
L 2900 3500 
L 3475 3500 
L 3475 0 
L 2900 0 
L 2900 538 
Q 2691 219 2414 64 
Q 2138 -91 1772 -91 
Q 1169 -91 856 284 
Q 544 659 544 1381 
z
M 1991 3584 
L 1991 3584 
z
" transform="scale(0.015625)"/>
       <path id="DejaVuSans-72" d="M 2631 2963 
Q 2534 3019 2420 3045 
Q 2306 3072 2169 3072 
Q 1681 3072 1420 2755 
Q 1159 2438 1159 1844 
L 1159 0 
L 581 0 
L 581 3500 
L 1159 3500 
L 1159 2956 
Q 1341 3275 1631 3429 
Q 1922 3584 2338 3584 
Q 2397 3584 2469 3576 
Q 2541 3569 2628 3553 
L 2631 2963 
z
" transform="scale(0.015625)"/>
       <path id="DejaVuSans-76" d="M 191 3500 
L 800 3500 
L 1894 563 
L 2988 3500 
L 3597 3500 
L 2284 0 
L 1503 0 
L 191 3500 
z
" transform="scale(0.015625)"/>
       <path id="DejaVuSans-69" d="M 603 3500 
L 1178 3500 
L 1178 0 
L 603 0 
L 603 3500 
z
M 603 4863 
L 1178 4863 
L 1178 4134 
L 603 4134 
L 603 4863 
z
" transform="scale(0.015625)"/>
       <path id="DejaVuSans-61" d="M 2194 1759 
Q 1497 1759 1228 1600 
Q 959 1441 959 1056 
Q 959 750 1161 570 
Q 1363 391 1709 391 
Q 2188 391 2477 730 
Q 2766 1069 2766 1631 
L 2766 1759 
L 2194 1759 
z
M 3341 1997 
L 3341 0 
L 2766 0 
L 2766 531 
Q 2569 213 2275 61 
Q 1981 -91 1556 -91 
Q 1019 -91 701 211 
Q 384 513 384 1019 
Q 384 1609 779 1909 
Q 1175 2209 1959 2209 
L 2766 2209 
L 2766 2266 
Q 2766 2663 2505 2880 
Q 2244 3097 1772 3097 
Q 1472 3097 1187 3025 
Q 903 2953 641 2809 
L 641 3341 
Q 956 3463 1253 3523 
Q 1550 3584 1831 3584 
Q 2591 3584 2966 3190 
Q 3341 2797 3341 1997 
z
" transform="scale(0.015625)"/>
       <path id="DejaVuSans-6c" d="M 603 4863 
L 1178 4863 
L 1178 0 
L 603 0 
L 603 4863 
z
" transform="scale(0.015625)"/>
       <path id="DejaVuSans-46" d="M 628 4666 
L 3309 4666 
L 3309 4134 
L 1259 4134 
L 1259 2759 
L 3109 2759 
L 3109 2228 
L 1259 2228 
L 1259 0 
L 628 0 
L 628 4666 
z
" transform="scale(0.015625)"/>
       <path id="DejaVuSans-6e" d="M 3513 2113 
L 3513 0 
L 2938 0 
L 2938 2094 
Q 2938 2591 2744 2837 
Q 2550 3084 2163 3084 
Q 1697 3084 1428 2787 
Q 1159 2491 1159 1978 
L 1159 0 
L 581 0 
L 581 3500 
L 1159 3500 
L 1159 2956 
Q 1366 3272 1645 3428 
Q 1925 3584 2291 3584 
Q 2894 3584 3203 3211 
Q 3513 2838 3513 2113 
z
" transform="scale(0.015625)"/>
       <path id="DejaVuSans-63" d="M 3122 3366 
L 3122 2828 
Q 2878 2963 2633 3030 
Q 2388 3097 2138 3097 
Q 1578 3097 1268 2742 
Q 959 2388 959 1747 
Q 959 1106 1268 751 
Q 1578 397 2138 397 
Q 2388 397 2633 464 
Q 2878 531 3122 666 
L 3122 134 
Q 2881 22 2623 -34 
Q 2366 -91 2075 -91 
Q 1284 -91 818 406 
Q 353 903 353 1747 
Q 353 2603 823 3093 
Q 1294 3584 2113 3584 
Q 2378 3584 2631 3529 
Q 2884 3475 3122 3366 
z
" transform="scale(0.015625)"/>
       <path id="DejaVuSans-74" d="M 1172 4494 
L 1172 3500 
L 2356 3500 
L 2356 3053 
L 1172 3053 
L 1172 1153 
Q 1172 725 1289 603 
Q 1406 481 1766 481 
L 2356 481 
L 2356 0 
L 1766 0 
Q 1100 0 847 248 
Q 594 497 594 1153 
L 594 3053 
L 172 3053 
L 172 3500 
L 594 3500 
L 594 4494 
L 1172 4494 
z
" transform="scale(0.015625)"/>
       <path id="DejaVuSans-6f" d="M 1959 3097 
Q 1497 3097 1228 2736 
Q 959 2375 959 1747 
Q 959 1119 1226 758 
Q 1494 397 1959 397 
Q 2419 397 2687 759 
Q 2956 1122 2956 1747 
Q 2956 2369 2687 2733 
Q 2419 3097 1959 3097 
z
M 1959 3584 
Q 2709 3584 3137 3096 
Q 3566 2609 3566 1747 
Q 3566 888 3137 398 
Q 2709 -91 1959 -91 
Q 1206 -91 779 398 
Q 353 888 353 1747 
Q 353 2609 779 3096 
Q 1206 3584 1959 3584 
z
" transform="scale(0.015625)"/>
      </defs>
      <use xlink:href="#DejaVuSans-53"/>
      <use xlink:href="#DejaVuSans-75" transform="translate(63.476562 0)"/>
      <use xlink:href="#DejaVuSans-72" transform="translate(126.855469 0)"/>
      <use xlink:href="#DejaVuSans-76" transform="translate(167.96875 0)"/>
      <use xlink:href="#DejaVuSans-69" transform="translate(227.148438 0)"/>
      <use xlink:href="#DejaVuSans-76" transform="translate(254.931641 0)"/>
      <use xlink:href="#DejaVuSans-61" transform="translate(314.111328 0)"/>
      <use xlink:href="#DejaVuSans-6c" transform="translate(375.390625 0)"/>
      <use xlink:href="#DejaVuSans-46" transform="translate(403.173828 0)"/>
      <use xlink:href="#DejaVuSans-75" transform="translate(455.193359 0)"/>
      <use xlink:href="#DejaVuSans-6e" transform="translate(518.572266 0)"/>
      <use xlink:href="#DejaVuSans-63" transform="translate(581.951172 0)"/>
      <use xlink:href="#DejaVuSans-74" transform="translate(636.931641 0)"/>
      <use xlink:href="#DejaVuSans-69" transform="translate(676.140625 0)"/>
      <use xlink:href="#DejaVuSans-6f" transform="translate(703.923828 0)"/>
      <use xlink:href="#DejaVuSans-6e" transform="translate(765.105469 0)"/>
     </g>
    </g>
   </g>
   <g id="line2d_67">
    <path d="M 62.814555 45.764731 
L 65.401999 45.839453 
L 65.401999 45.87687 
L 67.755994 45.951817 
L 67.755994 45.989347 
L 68.88283 46.064521 
L 68.88283 46.102165 
L 69.206024 46.177566 
L 69.206024 46.215325 
L 71.057157 46.290956 
L 71.057157 46.328829 
L 72.237223 46.404691 
L 72.237223 46.44268 
L 74.521958 46.518774 
L 74.521958 46.55688 
L 75.995716 46.633208 
L 76.069958 46.709692 
L 76.99238 46.786334 
L 76.99238 46.824714 
L 78.308286 46.901593 
L 78.342284 46.97863 
L 80.914798 47.055827 
L 80.914798 47.094486 
L 81.561721 47.171924 
L 81.561721 47.210703 
L 82.726641 47.288382 
L 82.726641 47.327283 
L 83.985681 47.405206 
L 83.985681 47.444229 
L 84.54045 47.522397 
L 84.580298 47.600729 
L 86.357194 47.679226 
L 86.357194 47.718537 
L 87.517351 47.797283 
L 87.517351 47.836718 
L 88.789273 47.915715 
L 88.789273 47.955276 
L 90.151366 48.034524 
L 90.151366 48.074211 
L 91.073336 48.153712 
L 91.073336 48.193527 
L 91.941706 48.273283 
L 91.941706 48.313226 
L 93.319961 48.393239 
L 93.319961 48.43331 
L 94.941644 48.513582 
L 94.941644 48.553783 
L 95.539893 48.634314 
L 95.555697 48.71502 
L 96.649828 48.795902 
L 96.649828 48.836408 
L 98.652149 48.917553 
L 98.667814 48.998875 
L 99.497186 49.080375 
L 99.522035 49.162054 
L 100.051045 49.243911 
L 100.051045 49.284908 
L 100.806581 49.367036 
L 100.806581 49.408168 
L 101.375134 49.490568 
L 101.377032 49.573151 
L 103.017177 49.655918 
L 103.017177 49.69737 
L 103.544534 49.780412 
L 103.544534 49.822003 
L 104.404991 49.905324 
L 104.510299 49.988832 
L 105.325987 50.072527 
L 105.367633 50.156411 
L 106.288916 50.240483 
L 106.314103 50.324746 
L 107.45677 50.409199 
L 107.45677 50.451498 
L 108.336728 50.536239 
L 108.336728 50.578682 
L 108.558332 50.663714 
L 108.558332 50.706302 
L 109.820342 50.791625 
L 109.835149 50.877144 
L 111.170279 50.962859 
L 111.170279 51.005791 
L 111.52324 51.091803 
L 111.535191 51.178014 
L 113.413337 51.264425 
L 113.413337 51.307705 
L 114.403075 51.394417 
L 114.506011 51.481332 
L 114.646553 51.568449 
L 114.646553 51.612084 
L 115.102199 51.699508 
L 115.102199 51.743296 
L 115.467982 51.831029 
L 115.475451 51.918968 
L 117.070105 52.007115 
L 117.148251 52.095471 
L 117.782854 52.184037 
L 117.885435 52.317281 
L 118.48145 52.406376 
L 118.569965 52.495684 
L 120.011883 52.585207 
L 120.040814 52.674945 
L 121.454014 52.7649 
L 121.530294 52.90024 
L 122.428319 52.99074 
L 122.428319 53.036073 
L 122.845604 53.126904 
L 122.845604 53.172403 
L 123.500994 53.263567 
L 123.557868 53.354955 
L 124.443998 53.446567 
L 124.443998 53.492458 
L 125.375883 53.584409 
L 125.437675 53.676588 
L 125.654419 53.768995 
L 125.654419 53.815284 
L 126.416502 53.908036 
L 126.416502 53.954499 
L 127.469135 54.047598 
L 127.469135 54.094235 
L 128.189445 54.187684 
L 128.262449 54.375288 
L 128.608812 54.469445 
L 128.608812 54.516612 
L 129.438322 54.611128 
L 129.438322 54.658475 
L 129.875438 54.753351 
L 129.875438 54.80088 
L 131.614798 54.896119 
L 131.694454 55.087331 
L 133.301594 55.183305 
L 133.335454 55.279528 
L 134.351312 55.375999 
L 134.351312 55.424329 
L 135.368702 55.521176 
L 135.368702 55.569694 
L 135.87239 55.66692 
L 135.9642 55.862136 
L 136.218535 55.960129 
L 136.306046 56.05838 
L 137.010221 56.15689 
L 137.080825 56.305146 
L 137.702305 56.404311 
L 137.80454 56.553556 
L 138.241362 56.653385 
L 138.241362 56.7034 
L 138.607594 56.803632 
L 138.656634 56.904133 
L 139.270818 57.004907 
L 139.270818 57.055396 
L 139.903496 57.15658 
L 139.957893 57.359775 
L 140.165856 57.461789 
L 140.275099 57.564083 
L 140.822809 57.666659 
L 140.822809 57.718052 
L 141.539263 57.821053 
L 141.539263 57.87266 
L 141.988975 57.976089 
L 141.988975 58.027912 
L 142.36758 58.131773 
L 142.36758 58.183812 
L 142.779128 58.28811 
L 142.779128 58.340368 
L 143.2618 58.445104 
L 143.2618 58.497583 
L 143.827767 58.602763 
L 143.827767 58.655464 
L 144.341282 58.761091 
L 144.424709 58.867017 
L 144.597244 58.973246 
L 144.597244 59.026474 
L 144.910479 59.133158 
L 144.985743 59.240149 
L 145.440184 59.347447 
L 145.474741 59.455055 
L 146.143266 59.562975 
L 146.243405 59.671208 
L 146.540855 59.779756 
L 146.540855 59.834149 
L 146.869475 59.943173 
L 146.96813 60.052516 
L 147.409877 60.162182 
L 147.409877 60.217135 
L 148.330362 60.327287 
L 148.330362 60.382485 
L 148.792456 60.493126 
L 148.827612 60.604097 
L 148.980611 60.659707 
L 148.980611 60.715399 
L 149.699947 60.771175 
L 149.699947 60.827035 
L 150.185367 60.882978 
L 150.185367 60.939005 
L 150.634648 60.995117 
L 150.634648 61.051313 
L 151.174712 61.107594 
L 151.283389 61.220412 
L 151.710018 61.276949 
L 151.761033 61.390281 
L 152.164988 61.447076 
L 152.164988 61.503958 
L 152.426932 61.560927 
L 152.495932 61.675127 
L 152.788378 61.732358 
L 152.788378 61.789678 
L 152.993065 61.847085 
L 152.993065 61.904581 
L 153.539358 61.962166 
L 153.539358 62.01984 
L 153.88639 62.077603 
L 153.94399 62.193399 
L 154.612771 62.251432 
L 154.671592 62.426075 
L 155.069873 62.484471 
L 155.069873 62.542959 
L 155.301443 62.601539 
L 155.301443 62.660212 
L 155.590619 62.718976 
L 155.590619 62.777834 
L 155.979193 62.836784 
L 155.979193 62.895828 
L 156.339259 62.954966 
L 156.339259 63.014197 
L 156.664653 63.073523 
L 156.664653 63.132943 
L 157.027839 63.192458 
L 157.027839 63.252068 
L 157.36306 63.311774 
L 157.36306 63.371575 
L 157.626273 63.431473 
L 157.728773 63.611745 
L 157.903826 63.67203 
L 157.903826 63.732412 
L 158.222267 63.792893 
L 158.295516 63.914149 
L 159.258325 63.974925 
L 159.258325 64.0358 
L 159.53831 64.096775 
L 159.53831 64.15785 
L 159.683826 64.219025 
L 159.683826 64.280301 
L 160.452913 64.341677 
L 160.522355 64.526415 
L 161.045379 64.588198 
L 161.075671 64.712073 
L 161.590016 64.774165 
L 161.590391 64.89866 
L 161.784902 64.961063 
L 161.784902 65.023572 
L 162.185079 65.086185 
L 162.223866 65.211728 
L 162.415826 65.274658 
L 162.415826 65.337695 
L 162.629398 65.400838 
L 162.629398 65.464089 
L 163.060325 65.527447 
L 163.163945 65.654487 
L 163.798219 65.718169 
L 163.847552 65.909872 
L 164.196048 65.973993 
L 164.196048 66.038224 
L 164.662355 66.102566 
L 164.662355 66.16702 
L 164.830682 66.231584 
L 164.830682 66.296261 
L 165.045844 66.36105 
L 165.045844 66.425952 
L 165.719773 66.490968 
L 165.719773 66.556096 
L 166.17912 66.621339 
L 166.289729 66.752168 
L 166.583558 66.817755 
L 166.583558 66.883457 
L 167.310438 66.949276 
L 167.310438 67.015211 
L 167.695898 67.081263 
L 167.772587 67.280123 
L 168.024569 67.346646 
L 168.024569 67.413288 
L 168.34705 67.480049 
L 168.34705 67.54693 
L 168.938953 67.613931 
L 168.977845 67.748296 
L 169.364586 67.815661 
L 169.364586 67.883147 
L 169.649982 67.950756 
L 169.649982 68.018487 
L 170.159134 68.086342 
L 170.242166 68.222423 
L 170.590366 68.29065 
L 170.590366 68.359003 
L 171.370169 68.42748 
L 171.370169 68.496084 
L 171.742897 68.564815 
L 171.838297 68.910379 
L 172.071863 68.979878 
L 172.071863 69.049507 
L 172.273233 69.119266 
L 172.273233 69.189156 
L 172.658126 69.259177 
L 172.658126 69.32933 
L 173.098084 69.399615 
L 173.146134 69.540584 
L 173.610567 69.611268 
L 173.715503 69.753041 
L 173.833857 69.82413 
L 173.90617 69.966716 
L 174.324283 70.038214 
L 174.369466 70.181623 
L 174.549331 70.253534 
L 174.549331 70.325585 
L 174.936363 70.397775 
L 174.936363 70.470105 
L 175.113319 70.542576 
L 175.113319 70.615188 
L 175.542913 70.687941 
L 175.564063 70.833876 
L 176.061182 70.907058 
L 176.169332 71.127469 
L 176.251295 71.20123 
L 176.251295 71.275137 
L 176.416161 71.349191 
L 176.416161 71.423393 
L 176.81566 71.497742 
L 176.81566 71.57224 
L 177.377892 71.646887 
L 177.377892 71.721684 
L 177.554701 71.796631 
L 177.618041 72.022381 
L 177.777483 72.097935 
L 177.804535 72.249505 
L 177.988273 72.325522 
L 178.057091 72.478022 
L 178.54227 72.554506 
L 178.549367 72.707948 
L 178.754164 72.784906 
L 178.754164 72.862023 
L 179.129117 72.9393 
L 179.230921 73.328107 
L 180.393786 73.406357 
L 180.4488 73.563351 
L 181.019519 73.642097 
L 181.077984 73.80009 
L 181.555795 73.879338 
L 181.647639 74.198025 
L 181.985023 74.278124 
L 181.985023 74.358396 
L 182.538581 74.438841 
L 182.538581 74.51946 
L 183.165089 74.600253 
L 183.165089 74.681222 
L 183.846145 74.762367 
L 183.922998 74.925189 
L 184.412486 75.006868 
L 184.465567 75.170763 
L 184.729974 75.252982 
L 184.806878 75.583682 
L 185.037855 75.666818 
L 185.037855 75.750139 
L 185.269246 75.833646 
L 185.269246 75.917342 
L 185.844335 76.001225 
L 185.844335 76.085298 
L 186.184006 76.16956 
L 186.184006 76.254014 
L 186.669501 76.338659 
L 186.669501 76.423497 
L 186.852339 76.508528 
L 186.852339 76.593754 
L 187.329217 76.679174 
L 187.329217 76.764791 
L 187.545503 76.850605 
L 187.545503 76.936617 
L 187.987532 77.022828 
L 188.084144 77.19585 
L 188.211792 77.282663 
L 188.211792 77.369679 
L 188.58348 77.456898 
L 188.58348 77.544322 
L 189.057728 77.631951 
L 189.146206 77.80783 
L 189.240192 77.896081 
L 189.240192 77.984542 
L 189.515151 78.073213 
L 189.624926 78.25119 
L 190.073875 78.340498 
L 190.073875 78.430021 
L 190.704971 78.519759 
L 190.704971 78.609714 
L 191.043204 78.699886 
L 191.043204 78.790277 
L 191.610286 78.880887 
L 191.610286 78.971719 
L 192.330924 79.062772 
L 192.330924 79.154047 
L 192.713402 79.245547 
L 192.713402 79.337272 
L 193.100199 79.429224 
L 193.205395 79.613809 
L 193.320567 79.706446 
L 193.326644 79.892412 
L 193.903659 79.985744 
L 194.005573 80.267151 
L 194.253533 80.361427 
L 194.338375 80.550697 
L 194.731887 80.645694 
L 194.731887 80.740933 
L 194.961473 80.836416 
L 195.05484 81.02812 
L 195.40498 81.124342 
L 195.442561 81.317535 
L 195.655615 81.414508 
L 195.655615 81.511734 
L 196.073369 81.609215 
L 196.130819 81.804943 
L 196.401656 81.903194 
L 196.488276 82.19951 
L 196.594034 82.298807 
L 196.693451 82.498199 
L 196.804785 82.598296 
L 196.804785 82.698663 
L 197.010545 82.7993 
L 197.048378 83.001394 
L 197.375893 83.102853 
L 197.375893 83.204589 
L 197.613459 83.306603 
L 197.613459 83.408897 
L 197.987497 83.511473 
L 198.094785 83.92462 
L 198.297104 84.028627 
L 198.407257 84.237513 
L 198.574099 84.342397 
L 198.574099 84.447577 
L 198.916397 84.553054 
L 198.981492 84.764908 
L 199.149324 84.871288 
L 199.202392 85.084963 
L 199.877571 85.192262 
L 199.877571 85.29987 
L 200.178614 85.407789 
L 200.178614 85.516022 
L 200.394776 85.62457 
L 200.443046 85.842619 
L 200.899955 85.952123 
L 200.899955 86.06195 
L 201.515783 86.172101 
L 201.515783 86.282579 
L 201.970729 86.393385 
L 202.020392 86.727792 
L 202.35049 86.727792 
L 202.35049 86.839931 
L 202.506082 86.839931 
L 202.506082 86.952408 
L 202.655406 86.952408 
L 202.721889 87.178386 
L 202.801964 87.178386 
L 202.801964 87.29189 
L 202.977434 87.29189 
L 202.977434 87.405741 
L 203.129869 87.405741 
L 203.129869 87.519941 
L 203.257326 87.519941 
L 203.257326 87.634492 
L 203.3923 87.634492 
L 203.424726 87.864654 
L 203.595803 87.864654 
L 203.602335 88.096246 
L 203.728872 88.096246 
L 203.728872 88.212584 
L 203.851636 88.212584 
L 203.924319 88.446354 
L 204.1448 88.446354 
L 204.217731 88.79978 
L 204.380344 88.79978 
L 204.435665 89.037272 
L 204.628468 89.037272 
L 204.628468 89.156588 
L 204.759855 89.156588 
L 204.759855 89.276287 
L 205.035412 89.276287 
L 205.143401 89.516844 
L 205.293822 89.516844 
L 205.293822 89.637707 
L 205.603477 89.637707 
L 205.603477 89.758963 
L 205.760374 89.758963 
L 205.760374 89.880615 
L 205.87498 89.880615 
L 205.924547 90.125115 
L 206.31876 90.125115 
L 206.387735 90.371229 
L 206.593829 90.371229 
L 206.680397 90.868386 
L 206.748654 90.868386 
L 206.825621 91.372261 
L 206.941746 91.372261 
L 206.962953 91.626775 
L 207.060898 91.626775 
L 207.060898 91.754687 
L 207.186855 91.754687 
L 207.23405 92.011834 
L 207.425625 92.011834 
L 207.475292 92.270767 
L 207.64383 92.270767 
L 207.64383 92.400911 
L 207.849687 92.400911 
L 207.950217 92.79409 
L 208.140558 92.79409 
L 208.197476 93.058532 
L 208.29583 93.058532 
L 208.29583 93.19146 
L 208.54352 93.19146 
L 208.54352 93.324863 
L 208.886196 93.324863 
L 208.886196 93.458746 
L 209.044609 93.458746 
L 209.044609 93.59311 
L 209.204232 93.59311 
L 209.2384 93.999135 
L 209.352672 93.999135 
L 209.352672 94.135464 
L 209.904757 94.135464 
L 209.931888 94.409629 
L 210.394438 94.409629 
L 210.394438 94.547471 
L 210.517782 94.547471 
L 210.517782 94.685824 
L 210.663225 94.685824 
L 210.663225 94.824693 
L 211.400992 94.824693 
L 211.459756 95.103991 
L 212.575492 95.103991 
L 212.658437 95.385398 
L 212.747451 95.385398 
L 212.785449 95.668944 
L 213.217765 95.668944 
L 213.289917 96.098348 
L 213.468665 96.098348 
L 213.472594 96.38739 
L 213.611316 96.38739 
L 213.704544 96.67869 
L 213.727133 96.67869 
L 213.727133 96.825198 
L 213.958671 96.825198 
L 214.00622 97.119952 
L 214.075955 97.119952 
L 214.156332 97.417054 
L 214.240227 97.417054 
L 214.240227 97.566498 
L 214.40005 97.566498 
L 214.424575 97.867195 
L 214.741775 97.867195 
L 214.741775 98.018457 
L 215.007312 98.018457 
L 215.007312 98.170336 
L 215.143195 98.170336 
L 215.143195 98.322836 
L 215.337934 98.322836 
L 215.337934 98.475962 
L 215.681072 98.475962 
L 215.692639 98.784114 
L 215.834148 98.784114 
L 215.939764 99.251171 
L 216.095519 99.251171 
L 216.109641 99.565824 
L 216.235667 99.565824 
L 216.235667 99.724152 
L 216.373159 99.724152 
L 216.373159 99.883155 
L 216.496925 99.883155 
L 216.496925 100.042839 
L 216.668028 100.042839 
L 216.668028 100.20321 
L 216.780682 100.20321 
L 216.780682 100.364274 
L 217.146926 100.364274 
L 217.150799 100.688504 
L 217.414181 100.688504 
L 217.414181 100.851682 
L 217.694486 100.851682 
L 217.694486 101.015578 
L 217.823571 101.015578 
L 217.910831 101.345546 
L 217.992289 101.345546 
L 217.992289 101.511632 
L 218.528547 101.511632 
L 218.579835 101.846039 
L 218.650571 101.846039 
L 218.735743 102.183473 
L 218.890326 102.183473 
L 218.890326 102.353342 
L 219.185599 102.353342 
L 219.185599 102.523989 
L 219.493569 102.523989 
L 219.493569 102.69542 
L 219.67687 102.69542 
L 219.67687 102.867642 
L 220.131876 102.867642 
L 220.180555 103.214493 
L 220.325412 103.214493 
L 220.426771 103.564601 
L 220.540156 103.564601 
L 220.626157 104.096004 
L 220.70746 104.096004 
L 220.763214 104.454528 
L 221.180119 104.454528 
L 221.180119 104.635091 
L 221.376298 104.635091 
L 221.376298 104.816533 
L 221.504961 104.816533 
L 221.504961 104.998862 
L 221.619269 104.998862 
L 221.673996 105.366216 
L 221.747854 105.366216 
L 221.747854 105.55126 
L 222.189707 105.55126 
L 222.280727 105.924125 
L 222.371111 105.924125 
L 222.371111 106.111965 
L 222.482792 106.111965 
L 222.482792 106.300756 
L 222.772133 106.300756 
L 222.772133 106.490508 
L 222.94254 106.490508 
L 222.94254 106.681231 
L 223.369459 106.681231 
L 223.369459 106.872934 
L 223.558459 106.872934 
L 223.663645 107.259323 
L 223.706885 107.259323 
L 223.766692 107.846519 
L 223.942973 107.846519 
L 224.03296 108.44311 
L 224.212149 108.44311 
L 224.267073 108.846208 
L 224.480817 108.846208 
L 224.480817 109.049403 
L 224.730011 109.049403 
L 224.730011 109.253712 
L 225.089713 109.253712 
L 225.089713 109.459146 
L 225.879133 109.459146 
L 225.879133 109.665718 
L 226.091054 109.665718 
L 226.155621 110.082328 
L 226.693797 110.082328 
L 226.724932 110.503645 
L 226.956342 110.503645 
L 226.964256 110.929777 
L 227.348039 110.929777 
L 227.348039 111.144684 
L 227.566412 111.144684 
L 227.566412 111.360836 
L 227.688311 111.360836 
L 227.688311 111.578249 
L 227.982456 111.578249 
L 227.982456 111.796937 
L 228.645819 111.796937 
L 228.713547 112.460804 
L 229.163884 112.460804 
L 229.268773 112.91004 
L 229.313401 112.91004 
L 229.313401 113.136705 
L 229.829159 113.136705 
L 229.829159 113.364755 
L 230.123609 113.364755 
L 230.134257 113.825084 
L 230.320945 113.825084 
L 230.350193 114.291168 
L 230.50938 114.291168 
L 230.50938 114.526413 
L 231.037772 114.526413 
L 231.077074 115.001402 
L 231.980279 115.001402 
L 231.980279 115.241186 
L 232.169702 115.241186 
L 232.169702 115.482521 
L 232.348574 115.482521 
L 232.348574 115.725429 
L 232.490948 115.725429 
L 232.490948 115.969929 
L 233.205213 115.969929 
L 233.205213 116.216044 
L 233.573456 116.216044 
L 233.68238 116.7132 
L 233.796812 116.7132 
L 233.796812 116.964286 
L 234.33675 116.964286 
L 234.410199 117.471589 
L 234.461823 117.471589 
L 234.461823 117.727853 
L 234.686155 117.727853 
L 234.686155 117.98589 
L 234.876308 117.98589 
L 234.876308 118.245725 
L 235.074808 118.245725 
L 235.110402 119.036274 
L 235.211339 119.036274 
L 235.211339 119.30356 
L 235.536352 119.30356 
L 235.599615 119.843949 
L 235.774207 119.843949 
L 235.774207 120.117109 
L 236.428988 120.117109 
L 236.428988 120.392285 
L 236.549539 120.392285 
L 236.549539 120.669507 
L 236.705452 120.669507 
L 236.726897 121.230212 
L 237.032974 121.230212 
L 237.032974 121.513758 
L 237.59345 121.513758 
L 237.59345 121.799478 
L 237.958731 121.799478 
L 237.979191 122.37757 
L 238.241647 122.37757 
L 238.241647 122.670012 
L 238.407019 122.670012 
L 238.407019 122.964766 
L 238.746923 122.964766 
L 238.746923 123.261869 
L 239.201144 123.261869 
L 239.201144 123.561358 
L 239.374086 123.561358 
L 239.374086 123.863272 
L 239.51617 123.863272 
L 239.523013 124.474534 
L 239.894208 124.474534 
L 239.894208 124.783965 
L 240.663155 124.783965 
L 240.663155 125.095985 
L 241.670244 125.095985 
L 241.779557 125.727969 
L 241.902157 125.727969 
L 241.902157 126.048025 
L 242.117306 126.048025 
L 242.117306 126.370851 
L 242.992817 126.370851 
L 243.059663 127.025011 
L 243.227778 127.025011 
L 243.227778 127.356446 
L 243.468055 127.356446 
L 243.468055 127.690853 
L 244.982778 127.690853 
L 244.982778 128.028287 
L 245.972574 128.028287 
L 245.972574 128.368803 
L 246.142902 128.368803 
L 246.142902 128.712457 
L 246.484181 128.712457 
L 246.484181 129.059307 
L 246.772312 129.059307 
L 246.772312 129.409415 
L 247.049436 129.409415 
L 247.049436 129.762841 
L 247.285687 129.762841 
L 247.285687 130.11965 
L 247.419093 130.11965 
L 247.419093 130.479905 
L 247.564186 130.479905 
L 247.564186 130.843676 
L 247.95952 130.843676 
L 247.990539 131.58204 
L 248.339492 131.58204 
L 248.339492 131.956779 
L 248.630311 131.956779 
L 248.630311 132.335322 
L 249.037706 132.335322 
L 249.037706 132.717748 
L 249.759552 132.717748 
L 249.802628 133.494572 
L 250.000039 133.494572 
L 250.000039 133.889138 
L 250.135673 133.889138 
L 250.135673 134.287925 
L 252.21633 134.287925 
L 252.21633 134.691022 
L 252.514029 134.691022 
L 252.514029 135.098526 
L 252.663493 135.098526 
L 252.663493 135.510532 
L 252.87876 135.510532 
L 252.87876 135.927142 
L 253.362111 135.927142 
L 253.362111 136.348459 
L 253.475785 136.348459 
L 253.475785 136.774592 
L 253.610863 136.774592 
L 253.610863 137.205651 
L 254.336717 137.205651 
L 254.372624 138.083013 
L 254.981171 138.083013 
L 254.981171 138.52956 
L 255.384627 138.52956 
L 255.447831 139.902212 
L 255.779133 139.902212 
L 255.889784 140.846217 
L 255.907553 140.846217 
L 255.907553 141.327335 
L 257.529809 141.327335 
L 257.529809 141.814743 
L 257.746057 141.814743 
L 257.746057 142.308607 
L 258.324196 142.308607 
L 258.324196 142.809101 
L 258.692995 142.809101 
L 258.692995 143.316403 
L 259.958279 143.316403 
L 259.958279 143.830704 
L 262.052789 143.830704 
L 262.052789 144.352197 
L 262.263608 144.352197 
L 262.263608 144.881088 
L 262.736344 144.881088 
L 262.736344 145.41759 
L 263.460309 145.41759 
L 263.535839 146.514321 
L 263.758918 146.514321 
L 263.758918 147.075026 
L 263.946345 147.075026 
L 264.017328 148.222384 
L 264.875424 148.222384 
L 264.875424 148.80958 
L 265.424641 148.80958 
L 265.424641 149.406172 
L 266.397369 149.406172 
L 266.397369 150.012465 
L 266.530181 150.012465 
L 266.530181 150.628779 
L 266.695951 150.628779 
L 266.695951 151.255453 
L 266.903736 151.255453 
L 266.903736 151.892839 
L 268.528608 151.892839 
L 268.528608 152.54131 
L 268.762275 152.54131 
L 268.762275 153.20126 
L 268.976743 153.20126 
L 268.976743 153.873102 
L 269.469783 153.873102 
L 269.469783 154.557271 
L 269.903314 154.557271 
L 269.903314 155.254229 
L 270.025817 155.254229 
L 270.025817 155.964464 
L 270.145334 155.964464 
L 270.145334 156.68849 
L 270.351943 156.68849 
L 270.351943 157.426855 
L 270.920977 157.426855 
L 270.956273 158.948951 
L 271.054568 158.948951 
L 271.054568 159.733952 
L 271.179751 159.733952 
L 271.179751 160.535837 
L 274.829122 160.535837 
L 274.829122 161.355346 
L 276.029706 161.355346 
L 276.029706 162.193273 
L 277.665573 162.193273 
L 277.665573 163.050465 
L 278.642402 163.050465 
L 278.642402 163.927827 
L 279.031937 163.927827 
L 279.031937 164.826333 
L 281.723265 164.826333 
L 281.723265 165.747026 
L 282.593382 165.747026 
L 282.593382 166.691031 
L 283.188595 166.691031 
L 283.188595 167.659558 
L 284.636607 167.659558 
L 284.636607 168.653915 
L 285.119407 168.653915 
L 285.119407 169.675518 
L 287.045719 169.675518 
L 287.045719 170.725903 
L 288.009388 170.725903 
L 288.009388 171.806737 
L 288.418158 171.806737 
L 288.418158 172.91984 
L 289.298689 172.91984 
L 289.298689 174.067198 
L 291.972824 174.067198 
L 291.972824 175.250986 
L 293.0389 175.250986 
L 293.0389 176.473593 
L 293.174853 176.473593 
L 293.174853 177.737653 
L 294.166526 177.737653 
L 294.169677 180.402085 
L 294.755616 180.402085 
L 294.79981 183.271669 
L 296.207497 183.271669 
L 296.207497 184.793765 
L 296.362038 184.793765 
L 296.457532 188.038088 
L 300.854099 188.038088 
L 300.854099 189.772641 
L 306.30124 189.772641 
L 306.30124 191.591841 
L 307.486645 191.591841 
L 307.486645 193.504372 
L 313.652539 193.504372 
L 313.652539 195.520332 
L 314.288412 195.520332 
L 314.288412 197.651552 
L 317.662843 197.651552 
L 317.662843 199.912012 
L 317.882423 199.912012 
L 317.882423 202.318408 
L 318.348773 202.318408 
L 318.348773 204.890889 
L 318.792048 204.890889 
L 318.792048 207.654092 
L 319.577234 207.654092 
L 319.577234 210.638579 
L 320.404924 210.638579 
L 320.404924 213.882902 
L 324.985994 213.882902 
L 324.985994 217.436655 
L 329.053347 217.436655 
L 329.053347 221.365147 
L 330.679748 221.365147 
L 330.679748 225.756827 
L 331.797072 225.756827 
L 331.797072 230.735703 
L 332.409149 230.735703 
L 332.409149 236.483394 
L 333.556205 236.483394 
L 333.556205 243.281469 
L 342.537444 243.281469 
L 342.537444 251.601641 
L 350.277888 251.601641 
L 350.277888 262.328208 
L 359.360288 262.328208 
L 359.360288 277.446455 
L 365.480735 277.446455 
L 365.480735 303.291269 
L 409.505445 303.291269 
L 409.505445 303.291269 
" clip-path="url(#p351cd9e992)" style="fill: none; stroke: #1f77b4; stroke-width: 2; stroke-linecap: square"/>
   </g>
   <g id="patch_3">
    <path d="M 57.6 307.584 
L 57.6 41.472 
" style="fill: none; stroke: #000000; stroke-width: 0.8; stroke-linejoin: miter; stroke-linecap: square"/>
   </g>
   <g id="patch_4">
    <path d="M 414.72 307.584 
L 414.72 41.472 
" style="fill: none; stroke: #000000; stroke-width: 0.8; stroke-linejoin: miter; stroke-linecap: square"/>
   </g>
   <g id="patch_5">
    <path d="M 57.6 307.584 
L 414.72 307.584 
" style="fill: none; stroke: #000000; stroke-width: 0.8; stroke-linejoin: miter; stroke-linecap: square"/>
   </g>
   <g id="patch_6">
    <path d="M 57.6 41.472 
L 414.72 41.472 
" style="fill: none; stroke: #000000; stroke-width: 0.8; stroke-linejoin: miter; stroke-linecap: square"/>
   </g>
   <g id="legend_1">
    <g id="patch_7">
     <path d="M 66.6 66.150125 
L 197.839062 66.150125 
Q 199.839062 66.150125 199.839062 64.150125 
L 199.839062 50.472 
Q 199.839062 48.472 197.839062 48.472 
L 66.6 48.472 
Q 64.6 48.472 64.6 50.472 
L 64.6 64.150125 
Q 64.6 66.150125 66.6 66.150125 
z
" style="fill: #4d4d4d; opacity: 0.5; stroke: #4d4d4d; stroke-linejoin: miter"/>
    </g>
    <g id="patch_8">
     <path d="M 64.6 64.150125 
L 195.839062 64.150125 
Q 197.839062 64.150125 197.839062 62.150125 
L 197.839062 48.472 
Q 197.839062 46.472 195.839062 46.472 
L 64.6 46.472 
Q 62.6 46.472 62.6 48.472 
L 62.6 62.150125 
Q 62.6 64.150125 64.6 64.150125 
z
" style="fill: #ffffff; stroke: #cccccc; stroke-linejoin: miter"/>
    </g>
    <g id="line2d_68">
     <path d="M 66.6 54.570438 
L 76.6 54.570438 
L 76.6 54.570438 
L 86.6 54.570438 
L 86.6 54.570438 
" style="fill: none; stroke: #1f77b4; stroke-width: 2; stroke-linecap: square"/>
    </g>
    <g id="text_11">
     <!-- X0 SurvivalFunction -->
     <g transform="translate(94.6 58.070438) scale(0.1 -0.1)">
      <defs>
       <path id="DejaVuSans-20" transform="scale(0.015625)"/>
      </defs>
      <use xlink:href="#DejaVuSans-58"/>
      <use xlink:href="#DejaVuSans-30" transform="translate(68.505859 0)"/>
      <use xlink:href="#DejaVuSans-20" transform="translate(132.128906 0)"/>
      <use xlink:href="#DejaVuSans-53" transform="translate(163.916016 0)"/>
      <use xlink:href="#DejaVuSans-75" transform="translate(227.392578 0)"/>
      <use xlink:href="#DejaVuSans-72" transform="translate(290.771484 0)"/>
      <use xlink:href="#DejaVuSans-76" transform="translate(331.884766 0)"/>
      <use xlink:href="#DejaVuSans-69" transform="translate(391.064453 0)"/>
      <use xlink:href="#DejaVuSans-76" transform="translate(418.847656 0)"/>
      <use xlink:href="#DejaVuSans-61" transform="translate(478.027344 0)"/>
      <use xlink:href="#DejaVuSans-6c" transform="translate(539.306641 0)"/>
      <use xlink:href="#DejaVuSans-46" transform="translate(567.089844 0)"/>
      <use xlink:href="#DejaVuSans-75" transform="translate(619.109375 0)"/>
      <use xlink:href="#DejaVuSans-6e" transform="translate(682.488281 0)"/>
      <use xlink:href="#DejaVuSans-63" transform="translate(745.867188 0)"/>
      <use xlink:href="#DejaVuSans-74" transform="translate(800.847656 0)"/>
      <use xlink:href="#DejaVuSans-69" transform="translate(840.056641 0)"/>
      <use xlink:href="#DejaVuSans-6f" transform="translate(867.839844 0)"/>
      <use xlink:href="#DejaVuSans-6e" transform="translate(929.021484 0)"/>
     </g>
    </g>
   </g>
  </g>
  <g id="text_12">
   <!-- Empirical survival function of a sample; X and Y axes in log-scale -->
   <g transform="translate(35.060625 16.030125) scale(0.12 -0.12)">
    <defs>
     <path id="DejaVuSans-45" d="M 628 4666 
L 3578 4666 
L 3578 4134 
L 1259 4134 
L 1259 2753 
L 3481 2753 
L 3481 2222 
L 1259 2222 
L 1259 531 
L 3634 531 
L 3634 0 
L 628 0 
L 628 4666 
z
" transform="scale(0.015625)"/>
     <path id="DejaVuSans-6d" d="M 3328 2828 
Q 3544 3216 3844 3400 
Q 4144 3584 4550 3584 
Q 5097 3584 5394 3201 
Q 5691 2819 5691 2113 
L 5691 0 
L 5113 0 
L 5113 2094 
Q 5113 2597 4934 2840 
Q 4756 3084 4391 3084 
Q 3944 3084 3684 2787 
Q 3425 2491 3425 1978 
L 3425 0 
L 2847 0 
L 2847 2094 
Q 2847 2600 2669 2842 
Q 2491 3084 2119 3084 
Q 1678 3084 1418 2786 
Q 1159 2488 1159 1978 
L 1159 0 
L 581 0 
L 581 3500 
L 1159 3500 
L 1159 2956 
Q 1356 3278 1631 3431 
Q 1906 3584 2284 3584 
Q 2666 3584 2933 3390 
Q 3200 3197 3328 2828 
z
" transform="scale(0.015625)"/>
     <path id="DejaVuSans-70" d="M 1159 525 
L 1159 -1331 
L 581 -1331 
L 581 3500 
L 1159 3500 
L 1159 2969 
Q 1341 3281 1617 3432 
Q 1894 3584 2278 3584 
Q 2916 3584 3314 3078 
Q 3713 2572 3713 1747 
Q 3713 922 3314 415 
Q 2916 -91 2278 -91 
Q 1894 -91 1617 61 
Q 1341 213 1159 525 
z
M 3116 1747 
Q 3116 2381 2855 2742 
Q 2594 3103 2138 3103 
Q 1681 3103 1420 2742 
Q 1159 2381 1159 1747 
Q 1159 1113 1420 752 
Q 1681 391 2138 391 
Q 2594 391 2855 752 
Q 3116 1113 3116 1747 
z
" transform="scale(0.015625)"/>
     <path id="DejaVuSans-73" d="M 2834 3397 
L 2834 2853 
Q 2591 2978 2328 3040 
Q 2066 3103 1784 3103 
Q 1356 3103 1142 2972 
Q 928 2841 928 2578 
Q 928 2378 1081 2264 
Q 1234 2150 1697 2047 
L 1894 2003 
Q 2506 1872 2764 1633 
Q 3022 1394 3022 966 
Q 3022 478 2636 193 
Q 2250 -91 1575 -91 
Q 1294 -91 989 -36 
Q 684 19 347 128 
L 347 722 
Q 666 556 975 473 
Q 1284 391 1588 391 
Q 1994 391 2212 530 
Q 2431 669 2431 922 
Q 2431 1156 2273 1281 
Q 2116 1406 1581 1522 
L 1381 1569 
Q 847 1681 609 1914 
Q 372 2147 372 2553 
Q 372 3047 722 3315 
Q 1072 3584 1716 3584 
Q 2034 3584 2315 3537 
Q 2597 3491 2834 3397 
z
" transform="scale(0.015625)"/>
     <path id="DejaVuSans-66" d="M 2375 4863 
L 2375 4384 
L 1825 4384 
Q 1516 4384 1395 4259 
Q 1275 4134 1275 3809 
L 1275 3500 
L 2222 3500 
L 2222 3053 
L 1275 3053 
L 1275 0 
L 697 0 
L 697 3053 
L 147 3053 
L 147 3500 
L 697 3500 
L 697 3744 
Q 697 4328 969 4595 
Q 1241 4863 1831 4863 
L 2375 4863 
z
" transform="scale(0.015625)"/>
     <path id="DejaVuSans-65" d="M 3597 1894 
L 3597 1613 
L 953 1613 
Q 991 1019 1311 708 
Q 1631 397 2203 397 
Q 2534 397 2845 478 
Q 3156 559 3463 722 
L 3463 178 
Q 3153 47 2828 -22 
Q 2503 -91 2169 -91 
Q 1331 -91 842 396 
Q 353 884 353 1716 
Q 353 2575 817 3079 
Q 1281 3584 2069 3584 
Q 2775 3584 3186 3129 
Q 3597 2675 3597 1894 
z
M 3022 2063 
Q 3016 2534 2758 2815 
Q 2500 3097 2075 3097 
Q 1594 3097 1305 2825 
Q 1016 2553 972 2059 
L 3022 2063 
z
" transform="scale(0.015625)"/>
     <path id="DejaVuSans-3b" d="M 750 3309 
L 1409 3309 
L 1409 2516 
L 750 2516 
L 750 3309 
z
M 750 794 
L 1409 794 
L 1409 256 
L 897 -744 
L 494 -744 
L 750 256 
L 750 794 
z
" transform="scale(0.015625)"/>
     <path id="DejaVuSans-64" d="M 2906 2969 
L 2906 4863 
L 3481 4863 
L 3481 0 
L 2906 0 
L 2906 525 
Q 2725 213 2448 61 
Q 2172 -91 1784 -91 
Q 1150 -91 751 415 
Q 353 922 353 1747 
Q 353 2572 751 3078 
Q 1150 3584 1784 3584 
Q 2172 3584 2448 3432 
Q 2725 3281 2906 2969 
z
M 947 1747 
Q 947 1113 1208 752 
Q 1469 391 1925 391 
Q 2381 391 2643 752 
Q 2906 1113 2906 1747 
Q 2906 2381 2643 2742 
Q 2381 3103 1925 3103 
Q 1469 3103 1208 2742 
Q 947 2381 947 1747 
z
" transform="scale(0.015625)"/>
     <path id="DejaVuSans-59" d="M -13 4666 
L 666 4666 
L 1959 2747 
L 3244 4666 
L 3922 4666 
L 2272 2222 
L 2272 0 
L 1638 0 
L 1638 2222 
L -13 4666 
z
" transform="scale(0.015625)"/>
     <path id="DejaVuSans-78" d="M 3513 3500 
L 2247 1797 
L 3578 0 
L 2900 0 
L 1881 1375 
L 863 0 
L 184 0 
L 1544 1831 
L 300 3500 
L 978 3500 
L 1906 2253 
L 2834 3500 
L 3513 3500 
z
" transform="scale(0.015625)"/>
     <path id="DejaVuSans-67" d="M 2906 1791 
Q 2906 2416 2648 2759 
Q 2391 3103 1925 3103 
Q 1463 3103 1205 2759 
Q 947 2416 947 1791 
Q 947 1169 1205 825 
Q 1463 481 1925 481 
Q 2391 481 2648 825 
Q 2906 1169 2906 1791 
z
M 3481 434 
Q 3481 -459 3084 -895 
Q 2688 -1331 1869 -1331 
Q 1566 -1331 1297 -1286 
Q 1028 -1241 775 -1147 
L 775 -588 
Q 1028 -725 1275 -790 
Q 1522 -856 1778 -856 
Q 2344 -856 2625 -561 
Q 2906 -266 2906 331 
L 2906 616 
Q 2728 306 2450 153 
Q 2172 0 1784 0 
Q 1141 0 747 490 
Q 353 981 353 1791 
Q 353 2603 747 3093 
Q 1141 3584 1784 3584 
Q 2172 3584 2450 3431 
Q 2728 3278 2906 2969 
L 2906 3500 
L 3481 3500 
L 3481 434 
z
" transform="scale(0.015625)"/>
     <path id="DejaVuSans-2d" d="M 313 2009 
L 1997 2009 
L 1997 1497 
L 313 1497 
L 313 2009 
z
" transform="scale(0.015625)"/>
    </defs>
    <use xlink:href="#DejaVuSans-45"/>
    <use xlink:href="#DejaVuSans-6d" transform="translate(63.183594 0)"/>
    <use xlink:href="#DejaVuSans-70" transform="translate(160.595703 0)"/>
    <use xlink:href="#DejaVuSans-69" transform="translate(224.072266 0)"/>
    <use xlink:href="#DejaVuSans-72" transform="translate(251.855469 0)"/>
    <use xlink:href="#DejaVuSans-69" transform="translate(292.96875 0)"/>
    <use xlink:href="#DejaVuSans-63" transform="translate(320.751953 0)"/>
    <use xlink:href="#DejaVuSans-61" transform="translate(375.732422 0)"/>
    <use xlink:href="#DejaVuSans-6c" transform="translate(437.011719 0)"/>
    <use xlink:href="#DejaVuSans-20" transform="translate(464.794922 0)"/>
    <use xlink:href="#DejaVuSans-73" transform="translate(496.582031 0)"/>
    <use xlink:href="#DejaVuSans-75" transform="translate(548.681641 0)"/>
    <use xlink:href="#DejaVuSans-72" transform="translate(612.060547 0)"/>
    <use xlink:href="#DejaVuSans-76" transform="translate(653.173828 0)"/>
    <use xlink:href="#DejaVuSans-69" transform="translate(712.353516 0)"/>
    <use xlink:href="#DejaVuSans-76" transform="translate(740.136719 0)"/>
    <use xlink:href="#DejaVuSans-61" transform="translate(799.316406 0)"/>
    <use xlink:href="#DejaVuSans-6c" transform="translate(860.595703 0)"/>
    <use xlink:href="#DejaVuSans-20" transform="translate(888.378906 0)"/>
    <use xlink:href="#DejaVuSans-66" transform="translate(920.166016 0)"/>
    <use xlink:href="#DejaVuSans-75" transform="translate(955.371094 0)"/>
    <use xlink:href="#DejaVuSans-6e" transform="translate(1018.75 0)"/>
    <use xlink:href="#DejaVuSans-63" transform="translate(1082.128906 0)"/>
    <use xlink:href="#DejaVuSans-74" transform="translate(1137.109375 0)"/>
    <use xlink:href="#DejaVuSans-69" transform="translate(1176.318359 0)"/>
    <use xlink:href="#DejaVuSans-6f" transform="translate(1204.101562 0)"/>
    <use xlink:href="#DejaVuSans-6e" transform="translate(1265.283203 0)"/>
    <use xlink:href="#DejaVuSans-20" transform="translate(1328.662109 0)"/>
    <use xlink:href="#DejaVuSans-6f" transform="translate(1360.449219 0)"/>
    <use xlink:href="#DejaVuSans-66" transform="translate(1421.630859 0)"/>
    <use xlink:href="#DejaVuSans-20" transform="translate(1456.835938 0)"/>
    <use xlink:href="#DejaVuSans-61" transform="translate(1488.623047 0)"/>
    <use xlink:href="#DejaVuSans-20" transform="translate(1549.902344 0)"/>
    <use xlink:href="#DejaVuSans-73" transform="translate(1581.689453 0)"/>
    <use xlink:href="#DejaVuSans-61" transform="translate(1633.789062 0)"/>
    <use xlink:href="#DejaVuSans-6d" transform="translate(1695.068359 0)"/>
    <use xlink:href="#DejaVuSans-70" transform="translate(1792.480469 0)"/>
    <use xlink:href="#DejaVuSans-6c" transform="translate(1855.957031 0)"/>
    <use xlink:href="#DejaVuSans-65" transform="translate(1883.740234 0)"/>
    <use xlink:href="#DejaVuSans-3b" transform="translate(1945.263672 0)"/>
    <use xlink:href="#DejaVuSans-20" transform="translate(1978.955078 0)"/>
    <use xlink:href="#DejaVuSans-58" transform="translate(2010.742188 0)"/>
    <use xlink:href="#DejaVuSans-20" transform="translate(2079.248047 0)"/>
    <use xlink:href="#DejaVuSans-61" transform="translate(2111.035156 0)"/>
    <use xlink:href="#DejaVuSans-6e" transform="translate(2172.314453 0)"/>
    <use xlink:href="#DejaVuSans-64" transform="translate(2235.693359 0)"/>
    <use xlink:href="#DejaVuSans-20" transform="translate(2299.169922 0)"/>
    <use xlink:href="#DejaVuSans-59" transform="translate(2330.957031 0)"/>
    <use xlink:href="#DejaVuSans-20" transform="translate(2392.041016 0)"/>
    <use xlink:href="#DejaVuSans-61" transform="translate(2423.828125 0)"/>
    <use xlink:href="#DejaVuSans-78" transform="translate(2485.107422 0)"/>
    <use xlink:href="#DejaVuSans-65" transform="translate(2541.162109 0)"/>
    <use xlink:href="#DejaVuSans-73" transform="translate(2602.685547 0)"/>
    <use xlink:href="#DejaVuSans-20" transform="translate(2654.785156 0)"/>
    <use xlink:href="#DejaVuSans-69" transform="translate(2686.572266 0)"/>
    <use xlink:href="#DejaVuSans-6e" transform="translate(2714.355469 0)"/>
    <use xlink:href="#DejaVuSans-20" transform="translate(2777.734375 0)"/>
    <use xlink:href="#DejaVuSans-6c" transform="translate(2809.521484 0)"/>
    <use xlink:href="#DejaVuSans-6f" transform="translate(2837.304688 0)"/>
    <use xlink:href="#DejaVuSans-67" transform="translate(2898.486328 0)"/>
    <use xlink:href="#DejaVuSans-2d" transform="translate(2961.962891 0)"/>
    <use xlink:href="#DejaVuSans-73" transform="translate(2998.046875 0)"/>
    <use xlink:href="#DejaVuSans-63" transform="translate(3050.146484 0)"/>
    <use xlink:href="#DejaVuSans-61" transform="translate(3105.126953 0)"/>
    <use xlink:href="#DejaVuSans-6c" transform="translate(3166.40625 0)"/>
    <use xlink:href="#DejaVuSans-65" transform="translate(3194.189453 0)"/>
   </g>
  </g>
 </g>
 <defs>
  <clipPath id="p351cd9e992">
   <rect x="57.6" y="41.472" width="357.12" height="266.112"/>
  </clipPath>
 </defs>
</svg>
