<?xml version="1.0" encoding="utf-8" standalone="no"?>
<!DOCTYPE svg PUBLIC "-//W3C//DTD SVG 1.1//EN"
  "http://www.w3.org/Graphics/SVG/1.1/DTD/svg11.dtd">
<svg xmlns:xlink="http://www.w3.org/1999/xlink" width="460.8pt" height="345.6pt" viewBox="0 0 460.8 345.6" xmlns="http://www.w3.org/2000/svg" version="1.1">
 <metadata>
  <rdf:RDF xmlns:dc="http://purl.org/dc/elements/1.1/" xmlns:cc="http://creativecommons.org/ns#" xmlns:rdf="http://www.w3.org/1999/02/22-rdf-syntax-ns#">
   <cc:Work>
    <dc:type rdf:resource="http://purl.org/dc/dcmitype/StillImage"/>
    <dc:date>2026-01-05T15:30:05.567252</dc:date>
    <dc:format>image/svg+xml</dc:format>
    <dc:creator>
     <cc:Agent>
      <dc:title>Matplotlib v3.10.8, https://matplotlib.org/</dc:title>
     </cc:Agent>
    </dc:creator>
   </cc:Work>
  </rdf:RDF>
 </metadata>
 <defs>
  <style type="text/css">*{stroke-linejoin: round; stroke-linecap: butt}</style>
 </defs>
 <g id="figure_1">
  <g id="patch_1">
   <path d="M 0 345.6 
L 460.8 345.6 
L 460.8 0 
L 0 0 
z
" style="fill: #ffffff"/>
  </g>
  <g id="axes_1">
   <g id="patch_2">
    <path d="M 57.6 307.584 
L 343.296 307.584 
L 343.296 41.472 
L 57.6 41.472 
z
" style="fill: #ffffff"/>
   </g>
   <g id="matplotlib.axis_1">
    <g id="xtick_1">
     <g id="line2d_1">
      <path d="M 95.985899 307.584 
L 95.985899 41.472 
" clip-path="url(#pf18da1b327)" style="fill: none; stroke: #b0b0b0; stroke-width: 0.8; stroke-linecap: square"/>
     </g>
     <g id="line2d_2">
      <defs>
       <path id="mb4f5eccfcf" d="M 0 0 
L 0 3.5 
" style="stroke: #000000; stroke-width: 0.8"/>
      </defs>
      <g>
       <use xlink:href="#mb4f5eccfcf" x="95.985899" y="307.584" style="stroke: #000000; stroke-width: 0.8"/>
      </g>
     </g>
     <g id="text_1">
      <!-- −4 -->
      <g transform="translate(88.614805 322.182437) scale(0.1 -0.1)">
       <defs>
        <path id="DejaVuSans-2212" d="M 678 2272 
L 4684 2272 
L 4684 1741 
L 678 1741 
L 678 2272 
z
" transform="scale(0.015625)"/>
        <path id="DejaVuSans-34" d="M 2419 4116 
L 825 1625 
L 2419 1625 
L 2419 4116 
z
M 2253 4666 
L 3047 4666 
L 3047 1625 
L 3713 1625 
L 3713 1100 
L 3047 1100 
L 3047 0 
L 2419 0 
L 2419 1100 
L 313 1100 
L 313 1709 
L 2253 4666 
z
" transform="scale(0.015625)"/>
       </defs>
       <use xlink:href="#DejaVuSans-2212"/>
       <use xlink:href="#DejaVuSans-34" transform="translate(83.789062 0)"/>
      </g>
     </g>
    </g>
    <g id="xtick_2">
     <g id="line2d_3">
      <path d="M 144.780694 307.584 
L 144.780694 41.472 
" clip-path="url(#pf18da1b327)" style="fill: none; stroke: #b0b0b0; stroke-width: 0.8; stroke-linecap: square"/>
     </g>
     <g id="line2d_4">
      <g>
       <use xlink:href="#mb4f5eccfcf" x="144.780694" y="307.584" style="stroke: #000000; stroke-width: 0.8"/>
      </g>
     </g>
     <g id="text_2">
      <!-- −2 -->
      <g transform="translate(137.4096 322.182437) scale(0.1 -0.1)">
       <defs>
        <path id="DejaVuSans-32" d="M 1228 531 
L 3431 531 
L 3431 0 
L 469 0 
L 469 531 
Q 828 903 1448 1529 
Q 2069 2156 2228 2338 
Q 2531 2678 2651 2914 
Q 2772 3150 2772 3378 
Q 2772 3750 2511 3984 
Q 2250 4219 1831 4219 
Q 1534 4219 1204 4116 
Q 875 4013 500 3803 
L 500 4441 
Q 881 4594 1212 4672 
Q 1544 4750 1819 4750 
Q 2544 4750 2975 4387 
Q 3406 4025 3406 3419 
Q 3406 3131 3298 2873 
Q 3191 2616 2906 2266 
Q 2828 2175 2409 1742 
Q 1991 1309 1228 531 
z
" transform="scale(0.015625)"/>
       </defs>
       <use xlink:href="#DejaVuSans-2212"/>
       <use xlink:href="#DejaVuSans-32" transform="translate(83.789062 0)"/>
      </g>
     </g>
    </g>
    <g id="xtick_3">
     <g id="line2d_5">
      <path d="M 193.575489 307.584 
L 193.575489 41.472 
" clip-path="url(#pf18da1b327)" style="fill: none; stroke: #b0b0b0; stroke-width: 0.8; stroke-linecap: square"/>
     </g>
     <g id="line2d_6">
      <g>
       <use xlink:href="#mb4f5eccfcf" x="193.575489" y="307.584" style="stroke: #000000; stroke-width: 0.8"/>
      </g>
     </g>
     <g id="text_3">
      <!-- 0 -->
      <g transform="translate(190.394239 322.182437) scale(0.1 -0.1)">
       <defs>
        <path id="DejaVuSans-30" d="M 2034 4250 
Q 1547 4250 1301 3770 
Q 1056 3291 1056 2328 
Q 1056 1369 1301 889 
Q 1547 409 2034 409 
Q 2525 409 2770 889 
Q 3016 1369 3016 2328 
Q 3016 3291 2770 3770 
Q 2525 4250 2034 4250 
z
M 2034 4750 
Q 2819 4750 3233 4129 
Q 3647 3509 3647 2328 
Q 3647 1150 3233 529 
Q 2819 -91 2034 -91 
Q 1250 -91 836 529 
Q 422 1150 422 2328 
Q 422 3509 836 4129 
Q 1250 4750 2034 4750 
z
" transform="scale(0.015625)"/>
       </defs>
       <use xlink:href="#DejaVuSans-30"/>
      </g>
     </g>
    </g>
    <g id="xtick_4">
     <g id="line2d_7">
      <path d="M 242.370284 307.584 
L 242.370284 41.472 
" clip-path="url(#pf18da1b327)" style="fill: none; stroke: #b0b0b0; stroke-width: 0.8; stroke-linecap: square"/>
     </g>
     <g id="line2d_8">
      <g>
       <use xlink:href="#mb4f5eccfcf" x="242.370284" y="307.584" style="stroke: #000000; stroke-width: 0.8"/>
      </g>
     </g>
     <g id="text_4">
      <!-- 2 -->
      <g transform="translate(239.189034 322.182437) scale(0.1 -0.1)">
       <use xlink:href="#DejaVuSans-32"/>
      </g>
     </g>
    </g>
    <g id="xtick_5">
     <g id="line2d_9">
      <path d="M 291.165079 307.584 
L 291.165079 41.472 
" clip-path="url(#pf18da1b327)" style="fill: none; stroke: #b0b0b0; stroke-width: 0.8; stroke-linecap: square"/>
     </g>
     <g id="line2d_10">
      <g>
       <use xlink:href="#mb4f5eccfcf" x="291.165079" y="307.584" style="stroke: #000000; stroke-width: 0.8"/>
      </g>
     </g>
     <g id="text_5">
      <!-- 4 -->
      <g transform="translate(287.983829 322.182437) scale(0.1 -0.1)">
       <use xlink:href="#DejaVuSans-34"/>
      </g>
     </g>
    </g>
    <g id="xtick_6">
     <g id="line2d_11">
      <path d="M 339.959874 307.584 
L 339.959874 41.472 
" clip-path="url(#pf18da1b327)" style="fill: none; stroke: #b0b0b0; stroke-width: 0.8; stroke-linecap: square"/>
     </g>
     <g id="line2d_12">
      <g>
       <use xlink:href="#mb4f5eccfcf" x="339.959874" y="307.584" style="stroke: #000000; stroke-width: 0.8"/>
      </g>
     </g>
     <g id="text_6">
      <!-- 6 -->
      <g transform="translate(336.778624 322.182437) scale(0.1 -0.1)">
       <defs>
        <path id="DejaVuSans-36" d="M 2113 2584 
Q 1688 2584 1439 2293 
Q 1191 2003 1191 1497 
Q 1191 994 1439 701 
Q 1688 409 2113 409 
Q 2538 409 2786 701 
Q 3034 994 3034 1497 
Q 3034 2003 2786 2293 
Q 2538 2584 2113 2584 
z
M 3366 4563 
L 3366 3988 
Q 3128 4100 2886 4159 
Q 2644 4219 2406 4219 
Q 1781 4219 1451 3797 
Q 1122 3375 1075 2522 
Q 1259 2794 1537 2939 
Q 1816 3084 2150 3084 
Q 2853 3084 3261 2657 
Q 3669 2231 3669 1497 
Q 3669 778 3244 343 
Q 2819 -91 2113 -91 
Q 1303 -91 875 529 
Q 447 1150 447 2328 
Q 447 3434 972 4092 
Q 1497 4750 2381 4750 
Q 2619 4750 2861 4703 
Q 3103 4656 3366 4563 
z
" transform="scale(0.015625)"/>
       </defs>
       <use xlink:href="#DejaVuSans-36"/>
      </g>
     </g>
    </g>
    <g id="text_7">
     <!-- X0 -->
     <g transform="translate(193.84175 335.860562) scale(0.1 -0.1)">
      <defs>
       <path id="DejaVuSans-58" d="M 403 4666 
L 1081 4666 
L 2241 2931 
L 3406 4666 
L 4084 4666 
L 2584 2425 
L 4184 0 
L 3506 0 
L 2194 1984 
L 872 0 
L 191 0 
L 1856 2491 
L 403 4666 
z
" transform="scale(0.015625)"/>
      </defs>
      <use xlink:href="#DejaVuSans-58"/>
      <use xlink:href="#DejaVuSans-30" transform="translate(68.505859 0)"/>
     </g>
    </g>
   </g>
   <g id="matplotlib.axis_2">
    <g id="ytick_1">
     <g id="line2d_13">
      <path d="M 57.6 273.447567 
L 343.296 273.447567 
" clip-path="url(#pf18da1b327)" style="fill: none; stroke: #b0b0b0; stroke-width: 0.8; stroke-linecap: square"/>
     </g>
     <g id="line2d_14">
      <defs>
       <path id="mc5e4bf57cd" d="M 0 0 
L -3.5 0 
" style="stroke: #000000; stroke-width: 0.8"/>
      </defs>
      <g>
       <use xlink:href="#mc5e4bf57cd" x="57.6" y="273.447567" style="stroke: #000000; stroke-width: 0.8"/>
      </g>
     </g>
     <g id="text_8">
      <!-- −7.5 -->
      <g transform="translate(26.317187 277.246785) scale(0.1 -0.1)">
       <defs>
        <path id="DejaVuSans-37" d="M 525 4666 
L 3525 4666 
L 3525 4397 
L 1831 0 
L 1172 0 
L 2766 4134 
L 525 4134 
L 525 4666 
z
" transform="scale(0.015625)"/>
        <path id="DejaVuSans-2e" d="M 684 794 
L 1344 794 
L 1344 0 
L 684 0 
L 684 794 
z
" transform="scale(0.015625)"/>
        <path id="DejaVuSans-35" d="M 691 4666 
L 3169 4666 
L 3169 4134 
L 1269 4134 
L 1269 2991 
Q 1406 3038 1543 3061 
Q 1681 3084 1819 3084 
Q 2600 3084 3056 2656 
Q 3513 2228 3513 1497 
Q 3513 744 3044 326 
Q 2575 -91 1722 -91 
Q 1428 -91 1123 -41 
Q 819 9 494 109 
L 494 744 
Q 775 591 1075 516 
Q 1375 441 1709 441 
Q 2250 441 2565 725 
Q 2881 1009 2881 1497 
Q 2881 1984 2565 2268 
Q 2250 2553 1709 2553 
Q 1456 2553 1204 2497 
Q 953 2441 691 2322 
L 691 4666 
z
" transform="scale(0.015625)"/>
       </defs>
       <use xlink:href="#DejaVuSans-2212"/>
       <use xlink:href="#DejaVuSans-37" transform="translate(83.789062 0)"/>
       <use xlink:href="#DejaVuSans-2e" transform="translate(147.412109 0)"/>
       <use xlink:href="#DejaVuSans-35" transform="translate(179.199219 0)"/>
      </g>
     </g>
    </g>
    <g id="ytick_2">
     <g id="line2d_15">
      <path d="M 57.6 239.029599 
L 343.296 239.029599 
" clip-path="url(#pf18da1b327)" style="fill: none; stroke: #b0b0b0; stroke-width: 0.8; stroke-linecap: square"/>
     </g>
     <g id="line2d_16">
      <g>
       <use xlink:href="#mc5e4bf57cd" x="57.6" y="239.029599" style="stroke: #000000; stroke-width: 0.8"/>
      </g>
     </g>
     <g id="text_9">
      <!-- −5.0 -->
      <g transform="translate(26.317187 242.828817) scale(0.1 -0.1)">
       <use xlink:href="#DejaVuSans-2212"/>
       <use xlink:href="#DejaVuSans-35" transform="translate(83.789062 0)"/>
       <use xlink:href="#DejaVuSans-2e" transform="translate(147.412109 0)"/>
       <use xlink:href="#DejaVuSans-30" transform="translate(179.199219 0)"/>
      </g>
     </g>
    </g>
    <g id="ytick_3">
     <g id="line2d_17">
      <path d="M 57.6 204.611631 
L 343.296 204.611631 
" clip-path="url(#pf18da1b327)" style="fill: none; stroke: #b0b0b0; stroke-width: 0.8; stroke-linecap: square"/>
     </g>
     <g id="line2d_18">
      <g>
       <use xlink:href="#mc5e4bf57cd" x="57.6" y="204.611631" style="stroke: #000000; stroke-width: 0.8"/>
      </g>
     </g>
     <g id="text_10">
      <!-- −2.5 -->
      <g transform="translate(26.317187 208.41085) scale(0.1 -0.1)">
       <use xlink:href="#DejaVuSans-2212"/>
       <use xlink:href="#DejaVuSans-32" transform="translate(83.789062 0)"/>
       <use xlink:href="#DejaVuSans-2e" transform="translate(147.412109 0)"/>
       <use xlink:href="#DejaVuSans-35" transform="translate(179.199219 0)"/>
      </g>
     </g>
    </g>
    <g id="ytick_4">
     <g id="line2d_19">
      <path d="M 57.6 170.193663 
L 343.296 170.193663 
" clip-path="url(#pf18da1b327)" style="fill: none; stroke: #b0b0b0; stroke-width: 0.8; stroke-linecap: square"/>
     </g>
     <g id="line2d_20">
      <g>
       <use xlink:href="#mc5e4bf57cd" x="57.6" y="170.193663" style="stroke: #000000; stroke-width: 0.8"/>
      </g>
     </g>
     <g id="text_11">
      <!-- 0.0 -->
      <g transform="translate(34.696875 173.992882) scale(0.1 -0.1)">
       <use xlink:href="#DejaVuSans-30"/>
       <use xlink:href="#DejaVuSans-2e" transform="translate(63.623047 0)"/>
       <use xlink:href="#DejaVuSans-30" transform="translate(95.410156 0)"/>
      </g>
     </g>
    </g>
    <g id="ytick_5">
     <g id="line2d_21">
      <path d="M 57.6 135.775695 
L 343.296 135.775695 
" clip-path="url(#pf18da1b327)" style="fill: none; stroke: #b0b0b0; stroke-width: 0.8; stroke-linecap: square"/>
     </g>
     <g id="line2d_22">
      <g>
       <use xlink:href="#mc5e4bf57cd" x="57.6" y="135.775695" style="stroke: #000000; stroke-width: 0.8"/>
      </g>
     </g>
     <g id="text_12">
      <!-- 2.5 -->
      <g transform="translate(34.696875 139.574914) scale(0.1 -0.1)">
       <use xlink:href="#DejaVuSans-32"/>
       <use xlink:href="#DejaVuSans-2e" transform="translate(63.623047 0)"/>
       <use xlink:href="#DejaVuSans-35" transform="translate(95.410156 0)"/>
      </g>
     </g>
    </g>
    <g id="ytick_6">
     <g id="line2d_23">
      <path d="M 57.6 101.357727 
L 343.296 101.357727 
" clip-path="url(#pf18da1b327)" style="fill: none; stroke: #b0b0b0; stroke-width: 0.8; stroke-linecap: square"/>
     </g>
     <g id="line2d_24">
      <g>
       <use xlink:href="#mc5e4bf57cd" x="57.6" y="101.357727" style="stroke: #000000; stroke-width: 0.8"/>
      </g>
     </g>
     <g id="text_13">
      <!-- 5.0 -->
      <g transform="translate(34.696875 105.156946) scale(0.1 -0.1)">
       <use xlink:href="#DejaVuSans-35"/>
       <use xlink:href="#DejaVuSans-2e" transform="translate(63.623047 0)"/>
       <use xlink:href="#DejaVuSans-30" transform="translate(95.410156 0)"/>
      </g>
     </g>
    </g>
    <g id="ytick_7">
     <g id="line2d_25">
      <path d="M 57.6 66.939759 
L 343.296 66.939759 
" clip-path="url(#pf18da1b327)" style="fill: none; stroke: #b0b0b0; stroke-width: 0.8; stroke-linecap: square"/>
     </g>
     <g id="line2d_26">
      <g>
       <use xlink:href="#mc5e4bf57cd" x="57.6" y="66.939759" style="stroke: #000000; stroke-width: 0.8"/>
      </g>
     </g>
     <g id="text_14">
      <!-- 7.5 -->
      <g transform="translate(34.696875 70.738978) scale(0.1 -0.1)">
       <use xlink:href="#DejaVuSans-37"/>
       <use xlink:href="#DejaVuSans-2e" transform="translate(63.623047 0)"/>
       <use xlink:href="#DejaVuSans-35" transform="translate(95.410156 0)"/>
      </g>
     </g>
    </g>
    <g id="text_15">
     <!-- X1 -->
     <g transform="translate(20.2375 181.13425) rotate(-90) scale(0.1 -0.1)">
      <defs>
       <path id="DejaVuSans-31" d="M 794 531 
L 1825 531 
L 1825 4091 
L 703 3866 
L 703 4441 
L 1819 4666 
L 2450 4666 
L 2450 531 
L 3481 531 
L 3481 0 
L 794 0 
L 794 531 
z
" transform="scale(0.015625)"/>
      </defs>
      <use xlink:href="#DejaVuSans-58"/>
      <use xlink:href="#DejaVuSans-31" transform="translate(68.505859 0)"/>
     </g>
    </g>
   </g>
   <g id="QuadContourSet_1">
    <path d="M 233.175248 295.488 
L 236.971636 295.054051 
L 241.029818 294.341506 
L 243.92912 293.598 
L 247.117091 293.154625 
L 251.175273 292.276664 
L 253.204364 291.679988 
L 257.262545 290.960309 
L 259.291636 290.419542 
L 261.320727 289.773587 
L 263.349818 289.413917 
L 265.378909 288.929974 
L 269.437091 287.720998 
L 271.466182 287.258777 
L 273.495273 286.621379 
L 275.524364 285.922719 
L 277.553455 285.451321 
L 279.582545 284.789705 
L 281.611636 284.034412 
L 283.640727 283.520819 
L 287.698909 282.051367 
L 289.728 281.453275 
L 292.21621 280.368 
L 293.786182 279.947059 
L 295.815273 279.202212 
L 297.844364 278.324981 
L 299.873455 277.662857 
L 302.064309 276.588 
L 303.931636 276.010226 
L 307.989818 274.271473 
L 314.077091 271.555511 
L 315.210691 270.918 
L 316.106182 270.585828 
L 320.164364 268.642211 
L 326.251636 265.453279 
L 326.583441 265.248 
L 328.280727 264.496407 
L 330.309818 263.252627 
M 70.586182 272.152994 
L 80.731636 278.178301 
L 81.388791 278.478 
L 82.760727 279.292159 
L 85.152353 280.368 
L 86.818909 281.298459 
L 89.196966 282.258 
L 90.877091 283.139655 
L 103.051636 287.764991 
L 103.677996 287.928 
L 105.080727 288.52008 
L 107.109818 289.20951 
L 109.598961 289.818 
L 111.168 290.420011 
L 113.197091 291.040219 
L 117.255273 292.045073 
L 119.284364 292.656838 
L 123.342545 293.485222 
L 124.060748 293.598 
L 127.400727 294.507558 
L 131.458909 295.233563 
L 133.488 295.488 
L 133.488 295.488 
M 330.309818 82.264034 
L 329.993878 81.918 
L 326.078812 78.138 
L 321.693129 74.358 
L 318.135273 71.590983 
L 310.018909 66.244408 
L 301.902545 61.745284 
L 299.873455 60.812176 
L 297.844364 59.784717 
L 295.815273 58.928446 
L 293.786182 57.964359 
L 291.757091 57.239485 
L 289.728 56.281704 
L 287.200107 55.458 
L 285.669818 54.760717 
L 283.640727 54.038462 
L 281.867407 53.568 
M 119.629801 53.568 
L 117.255273 54.042781 
L 115.226182 54.604677 
L 113.001808 55.458 
L 111.168 55.843767 
L 109.138909 56.423542 
L 106.849567 57.348 
L 105.080727 57.75523 
L 103.051636 58.394387 
L 101.022545 59.265915 
L 98.993455 59.787107 
L 92.906182 61.977536 
L 90.690638 63.018 
L 88.848 63.554276 
L 78.702545 67.755656 
L 76.673455 68.796328 
L 74.644364 69.575908 
L 72.615273 70.667803 
L 70.586182 71.48411 
L 70.586182 71.48411 
" clip-path="url(#pf18da1b327)" style="fill: none; stroke: #440154; stroke-opacity: 0.996094"/>
    <path d="M 70.586182 247.2597 
L 71.327251 248.238 
L 74.791264 252.018 
L 78.752375 255.798 
L 82.760727 259.206039 
L 86.818909 262.233513 
L 92.906182 266.157745 
L 94.935273 267.227936 
L 96.964364 268.443284 
L 98.993455 269.476013 
L 103.051636 271.478166 
L 109.138909 274.154482 
L 111.168 274.87305 
L 113.197091 275.755983 
L 117.255273 277.170182 
L 119.284364 277.871805 
L 121.643703 278.478 
L 123.342545 279.120334 
L 125.371636 279.731776 
L 129.429818 280.771629 
L 131.458909 281.354905 
L 135.517091 282.171977 
L 136.052623 282.258 
L 139.575273 283.167866 
L 143.633455 283.872988 
L 145.829229 284.148 
L 149.720727 284.939786 
L 153.778909 285.507951 
L 167.982545 286.95463 
L 174.069818 287.307318 
L 182.186182 287.52248 
L 190.302545 287.523129 
L 198.418909 287.3173 
L 204.506182 286.989093 
L 210.593455 286.436909 
L 214.651636 285.973804 
L 220.738909 285.451672 
L 224.797091 284.917688 
L 230.884364 283.937374 
L 234.942545 283.370773 
L 239.000727 282.51532 
L 239.981297 282.258 
L 243.058909 281.81797 
L 247.117091 280.958706 
L 249.146182 280.360569 
L 253.204364 279.620668 
L 255.233455 279.0849 
L 257.262545 278.440493 
L 259.291636 278.057167 
L 261.320727 277.554799 
L 265.378909 276.341256 
L 267.408 275.839194 
L 271.466182 274.505801 
L 273.495273 273.970597 
L 277.553455 272.556178 
L 279.582545 271.947162 
L 282.017237 270.918 
L 283.640727 270.47227 
L 285.669818 269.731974 
L 287.698909 268.872809 
L 289.728 268.200813 
L 291.960381 267.138 
L 293.786182 266.550671 
L 307.989818 260.085012 
L 308.865093 259.578 
L 310.018909 259.094599 
L 322.193455 252.364028 
L 322.714815 252.018 
L 324.222545 251.214285 
L 326.251636 249.884792 
L 330.309818 247.327903 
M 330.309818 121.913675 
L 329.845744 121.608 
L 327.756058 119.718 
L 326.251636 117.828 
L 324.222545 113.181328 
L 323.294782 110.268 
L 320.914218 104.598 
L 319.910923 102.708 
L 318.908138 100.818 
L 315.130813 95.148 
L 311.942133 91.368 
L 308.348325 87.588 
L 305.960727 85.380029 
L 301.747594 81.918 
L 297.844364 78.982817 
L 291.757091 75.105234 
L 289.728 73.995384 
L 285.669818 71.7972 
L 279.582545 68.963137 
L 278.829472 68.688 
L 277.553455 68.052868 
L 271.466182 65.637784 
L 269.031831 64.908 
L 267.408 64.23428 
L 265.378909 63.564189 
L 263.181595 63.018 
L 261.320727 62.328495 
L 259.291636 61.738476 
L 255.233455 60.720107 
L 253.204364 60.151788 
L 249.146182 59.348753 
L 248.436176 59.238 
L 245.088 58.394643 
L 241.029818 57.692054 
L 236.971636 57.080235 
L 232.913455 56.388262 
L 228.855273 55.910037 
L 212.622545 54.566413 
L 206.535273 54.343839 
L 198.418909 54.280544 
L 190.302545 54.460777 
L 184.215273 54.787338 
L 178.128 55.350051 
L 176.098909 55.521558 
L 170.011636 55.977486 
L 165.953455 56.437007 
L 161.895273 57.089834 
L 159.866182 57.418659 
L 155.808 57.893008 
L 151.749818 58.593962 
L 149.055156 59.238 
L 145.662545 59.717131 
L 141.604364 60.572867 
L 139.575273 61.147421 
L 135.517091 61.881318 
L 133.488 62.408146 
L 131.458909 63.047998 
L 129.429818 63.425467 
L 127.400727 63.91708 
L 123.342545 65.126941 
L 121.313455 65.615712 
L 107.109818 70.281566 
L 106.444438 70.578 
L 105.080727 70.951762 
L 103.051636 71.660104 
L 101.022545 72.554126 
L 98.993455 73.197482 
L 96.465998 74.358 
L 94.935273 74.850778 
L 88.848 77.458534 
L 86.818909 78.417404 
L 84.789818 79.305552 
L 82.760727 80.315467 
L 80.731636 81.264216 
L 79.60033 81.918 
L 78.702545 82.295808 
L 74.644364 84.375868 
L 72.44144 85.698 
L 70.586182 86.587571 
L 70.586182 86.587571 
" clip-path="url(#pf18da1b327)" style="fill: none; stroke: #3d4e8a; stroke-opacity: 0.996094"/>
    <path d="M 70.586182 209.673099 
L 71.537081 210.438 
L 73.159633 212.328 
L 74.16221 214.218 
L 74.819099 216.108 
L 76.004645 221.778 
L 77.554823 227.448 
L 79.071377 231.228 
L 79.929541 233.118 
L 83.263201 238.788 
L 86.818909 243.432507 
L 87.660327 244.458 
L 91.332613 248.238 
L 94.935273 251.461609 
L 98.993455 254.627135 
L 105.080727 258.677134 
L 115.226182 264.045258 
L 121.313455 266.655984 
L 123.342545 267.386834 
L 125.371636 268.21895 
L 129.429818 269.578606 
L 131.458909 270.253415 
L 134.109335 270.918 
L 137.546182 272.011189 
L 147.691636 274.328132 
L 150.185098 274.698 
L 153.778909 275.479947 
L 157.837091 276.099729 
L 172.040727 277.68307 
L 178.128 278.028756 
L 186.244364 278.230776 
L 194.360727 278.210827 
L 202.477091 277.97144 
L 208.564364 277.603246 
L 214.651636 276.988823 
L 218.709818 276.490413 
L 224.797091 275.851763 
L 228.855273 275.197216 
L 231.19565 274.698 
L 234.942545 274.210757 
L 239.000727 273.442179 
L 241.4436 272.808 
L 245.088 272.200696 
L 247.117091 271.745207 
L 251.175273 270.701939 
L 253.204364 270.278805 
L 255.233455 269.739132 
L 257.313904 269.028 
L 259.291636 268.618602 
L 261.320727 268.077055 
L 263.957698 267.138 
L 267.408 266.229969 
L 269.955997 265.248 
L 271.466182 264.8586 
L 273.495273 264.199126 
L 275.524364 263.333828 
L 277.553455 262.746272 
L 287.698909 258.746268 
L 289.799106 257.688 
L 291.757091 256.97424 
L 294.037848 255.798 
L 295.815273 255.102008 
L 298.010536 253.908 
L 299.873455 253.125015 
L 301.902545 251.963944 
L 303.931636 251.025325 
L 305.960727 249.86774 
L 310.018909 247.631689 
L 312.048 246.317007 
L 314.077091 245.194727 
L 318.135273 242.50348 
L 322.193455 239.839495 
L 330.309818 233.626139 
M 330.309818 136.501719 
L 326.251636 134.126814 
L 320.14122 131.058 
L 318.135273 129.900733 
L 316.106182 128.861659 
L 313.588591 127.278 
L 311.493039 125.388 
L 310.018909 123.383606 
L 308.642491 119.718 
L 307.986748 117.828 
L 306.916955 114.048 
L 304.569599 108.378 
L 301.310286 102.708 
L 297.844364 98.138661 
L 296.949352 97.038 
L 293.297793 93.258 
L 289.728 90.058454 
L 285.669818 86.896276 
L 279.582545 82.858259 
L 270.580525 78.138 
L 269.437091 77.536372 
L 263.349818 74.93623 
L 261.320727 74.254959 
L 259.291636 73.405361 
L 251.175273 70.8561 
L 249.146182 70.30672 
L 247.117091 69.683528 
L 243.058909 68.794076 
L 242.453317 68.688 
L 239.000727 67.791469 
L 234.942545 67.064966 
L 232.913455 66.796706 
L 228.855273 65.996192 
L 224.797091 65.442216 
L 212.622545 64.263254 
L 206.535273 63.900489 
L 200.448 63.733949 
L 192.331636 63.754562 
L 186.244364 63.950638 
L 180.157091 64.338904 
L 165.953455 65.679422 
L 161.895273 66.273551 
L 157.837091 66.946073 
L 153.778909 67.507298 
L 149.720727 68.330692 
L 147.691636 68.779114 
L 143.633455 69.483737 
L 141.604364 69.966788 
L 139.549921 70.578 
L 135.517091 71.376308 
L 121.313455 75.393636 
L 119.137599 76.248 
L 117.255273 76.731272 
L 115.226182 77.413921 
L 113.197091 78.232738 
L 111.168 78.841456 
L 107.109818 80.410795 
L 105.080727 81.182831 
L 103.051636 82.085747 
L 101.022545 82.835289 
L 98.993455 83.845851 
L 96.964364 84.601353 
L 94.878541 85.698 
L 92.906182 86.472708 
L 90.877091 87.594841 
L 88.848 88.454081 
L 86.818909 89.594476 
L 84.789818 90.564255 
L 82.760727 91.703075 
L 78.702545 93.959484 
L 76.673455 95.259269 
L 72.615273 97.695909 
L 70.586182 99.096535 
L 70.586182 99.096535 
" clip-path="url(#pf18da1b327)" style="fill: none; stroke: #2a768e; stroke-opacity: 0.996094"/>
    <path d="M 70.586182 195.278562 
L 78.702545 199.915099 
L 80.928507 200.988 
L 84.789818 203.231588 
L 86.931812 204.768 
L 88.848 207.126056 
L 89.465637 208.548 
L 89.976211 210.438 
L 90.898247 216.108 
L 91.49088 219.888 
L 91.942947 221.778 
L 93.206316 225.558 
L 93.932567 227.448 
L 95.819509 231.228 
L 98.993455 236.0174 
L 99.61465 236.898 
L 103.051636 240.81496 
L 105.080727 242.866206 
L 107.109818 244.712914 
L 111.52351 248.238 
L 114.205657 250.128 
L 115.226182 250.833182 
L 123.342545 255.444503 
L 128.219696 257.688 
L 129.429818 258.279087 
L 135.517091 260.6806 
L 139.575273 262.033007 
L 141.604364 262.68871 
L 145.662545 263.81308 
L 149.720727 264.854928 
L 151.850521 265.248 
L 155.808 266.220667 
L 159.866182 266.899606 
L 161.895273 267.167425 
L 165.953455 267.892337 
L 170.011636 268.400345 
L 176.098909 268.891423 
L 190.302545 269.598366 
L 196.389818 269.573202 
L 202.477091 269.339221 
L 216.680727 268.339401 
L 220.738909 267.853401 
L 234.942545 265.573261 
L 236.971636 265.144744 
L 241.029818 264.431094 
L 251.175273 261.960768 
L 253.204364 261.3524 
L 255.233455 260.889511 
L 257.262545 260.302026 
L 259.291636 259.564184 
L 261.320727 259.066802 
L 263.349818 258.425254 
L 265.378909 257.637692 
L 267.408 257.069017 
L 273.495273 254.861068 
L 275.584526 253.908 
L 277.553455 253.255516 
L 289.728 247.783319 
L 297.844364 243.54925 
L 299.873455 242.331077 
L 303.931636 239.955158 
L 308.554462 236.898 
L 311.308863 235.008 
L 312.048 234.505867 
L 318.698841 229.338 
L 322.193455 226.3349 
L 325.043602 223.668 
L 328.685805 219.888 
L 330.309818 217.999511 
M 330.309818 152.071001 
L 327.927532 149.958 
L 324.222545 147.021583 
L 320.082692 144.288 
L 317.000049 142.398 
L 316.106182 141.848608 
L 312.048 139.666866 
L 305.684191 136.728 
L 303.931636 135.813399 
L 301.674912 134.838 
L 297.844364 132.546852 
L 295.815273 130.717579 
L 294.809461 129.168 
L 293.786182 126.814823 
L 291.516418 117.828 
L 290.918215 115.938 
L 289.273994 112.158 
L 287.698909 109.32889 
L 287.180012 108.378 
L 284.559729 104.598 
L 281.287031 100.818 
L 277.553455 97.22579 
L 275.100705 95.148 
L 271.466182 92.398231 
L 265.378909 88.556127 
L 257.262545 84.457565 
L 255.233455 83.649255 
L 253.204364 82.73572 
L 243.058909 79.224299 
L 241.029818 78.648069 
L 238.763326 78.138 
L 234.942545 77.060672 
L 224.797091 75.04499 
L 214.651636 73.69035 
L 208.564364 73.131535 
L 202.477091 72.823776 
L 194.360727 72.681698 
L 186.244364 72.791393 
L 180.157091 73.051611 
L 174.069818 73.516343 
L 170.011636 73.986753 
L 165.953455 74.500876 
L 161.895273 74.959408 
L 157.837091 75.602409 
L 153.778909 76.385286 
L 149.720727 77.055962 
L 145.662545 78.042009 
L 145.325143 78.138 
L 141.604364 78.845483 
L 139.575273 79.360726 
L 137.465115 80.028 
L 133.488 80.947727 
L 129.429818 82.18926 
L 127.400727 82.745009 
L 123.342545 84.110479 
L 121.313455 84.743064 
L 118.982296 85.698 
L 117.255273 86.210375 
L 111.168 88.55001 
L 109.138909 89.513435 
L 107.109818 90.254034 
L 104.867057 91.368 
L 103.051636 92.075115 
L 100.785346 93.258 
L 98.993455 94.01366 
L 96.964364 95.156284 
L 94.935273 96.084962 
L 92.906182 97.242894 
L 88.848 99.4815 
L 86.768709 100.818 
L 84.789818 101.935353 
L 75.46154 108.378 
L 72.615273 110.59515 
L 70.586182 112.291104 
L 70.586182 112.291104 
" clip-path="url(#pf18da1b327)" style="fill: none; stroke: #1f968b; stroke-opacity: 0.996094"/>
    <path d="M 70.586182 179.639354 
L 72.615273 181.656697 
L 74.644364 183.475174 
L 77.670516 185.868 
L 78.702545 186.635617 
L 83.406228 189.648 
L 84.789818 190.502893 
L 92.906182 194.643901 
L 94.935273 195.541526 
L 98.993455 197.600085 
L 101.371887 199.098 
L 103.232479 200.988 
L 104.127788 202.878 
L 104.589111 204.768 
L 104.90049 208.548 
L 105.292104 214.218 
L 105.914232 217.998 
L 106.422048 219.888 
L 107.765167 223.668 
L 109.63281 227.448 
L 112.036834 231.228 
L 115.226182 235.077223 
L 117.255273 237.214773 
L 119.284364 239.110787 
L 123.342545 242.384107 
L 127.400727 245.204034 
L 133.488 248.650031 
L 137.546182 250.608242 
L 141.604364 252.298428 
L 143.633455 253.133098 
L 153.778909 256.349764 
L 157.837091 257.360177 
L 159.866182 257.760752 
L 163.924364 258.698539 
L 167.982545 259.344597 
L 170.011636 259.59741 
L 174.069818 260.250356 
L 178.128 260.707915 
L 184.215273 261.138884 
L 190.302545 261.353275 
L 198.418909 261.388267 
L 206.535273 261.157491 
L 212.622545 260.772286 
L 218.709818 260.122575 
L 230.884364 258.35435 
L 234.942545 257.525939 
L 239.000727 256.773399 
L 249.146182 254.218534 
L 250.068707 253.908 
L 253.204364 253.13789 
L 263.349818 249.794021 
L 265.378909 249.099746 
L 267.408 248.217541 
L 269.437091 247.544243 
L 279.582545 243.112733 
L 281.611636 242.13349 
L 285.669818 240.081319 
L 295.815273 234.184196 
L 303.931636 228.504015 
L 307.989818 225.210054 
L 312.048 221.560402 
L 315.631239 217.998 
L 318.969898 214.218 
L 323.14975 208.548 
L 326.325332 202.878 
L 327.295078 200.988 
L 328.744254 197.208 
L 329.370604 195.318 
L 329.843787 193.428 
L 330.309818 190.674703 
M 330.309818 179.422397 
L 330.144434 178.308 
L 329.750749 176.418 
L 329.207425 174.528 
L 327.716055 170.748 
L 325.709176 166.968 
L 323.134052 163.188 
L 319.8527 159.408 
L 317.936348 157.518 
L 314.077091 154.172776 
L 310.913807 151.848 
L 310.018909 151.216252 
L 303.931636 147.564227 
L 299.873455 145.486487 
L 293.786182 142.803192 
L 291.757091 141.976679 
L 285.669818 139.329662 
L 283.640727 138.288475 
L 281.50703 136.728 
L 280.111831 134.838 
L 279.331783 132.948 
L 278.654958 129.168 
L 278.03927 125.388 
L 277.159612 121.608 
L 276.589412 119.718 
L 275.005778 115.938 
L 273.495273 113.223807 
L 272.897771 112.158 
L 270.171409 108.378 
L 266.736026 104.598 
L 263.349818 101.530114 
L 261.320727 99.908931 
L 257.262545 97.123696 
L 253.204364 94.650966 
L 249.146182 92.528015 
L 243.058909 89.875278 
L 241.029818 89.108446 
L 239.000727 88.336697 
L 228.855273 85.376963 
L 224.797091 84.39002 
L 214.651636 82.583526 
L 210.593455 82.128895 
L 198.418909 81.126371 
L 192.331636 80.971192 
L 186.244364 81.027004 
L 180.157091 81.298157 
L 174.069818 81.833834 
L 172.040727 82.011744 
L 165.953455 82.600845 
L 161.895273 83.187007 
L 155.808 84.206602 
L 151.749818 84.961948 
L 147.691636 85.893118 
L 143.633455 86.776612 
L 139.575273 87.871957 
L 137.546182 88.374168 
L 129.429818 90.887645 
L 127.400727 91.596541 
L 125.371636 92.239057 
L 121.313455 93.759035 
L 115.226182 96.212287 
L 113.197091 97.174457 
L 111.168 98.012156 
L 109.138909 99.047122 
L 107.109818 99.955068 
L 105.080727 101.038256 
L 101.022545 103.173807 
L 94.935273 106.790218 
L 88.848 110.84017 
L 82.760727 115.555231 
L 78.702545 119.114764 
L 76.135833 121.608 
L 72.615273 125.485301 
L 70.586182 127.929884 
L 70.586182 127.929884 
" clip-path="url(#pf18da1b327)" style="fill: none; stroke: #2ab07f; stroke-opacity: 0.996094"/>
    <path d="M 194.360727 253.958468 
L 196.389818 253.999228 
L 198.418909 254.008861 
L 200.448 253.987869 
L 202.477091 253.936087 
L 203.167696 253.908 
L 204.506182 253.875508 
L 206.535273 253.80729 
L 208.564364 253.718679 
L 210.593455 253.607988 
L 212.622545 253.472988 
L 214.651636 253.310816 
L 216.680727 253.117868 
L 218.709818 252.889649 
L 220.738909 252.620592 
L 222.768 252.303814 
L 224.353324 252.018 
L 224.797091 251.967023 
L 226.826182 251.71069 
L 228.855273 251.409253 
L 230.884364 251.053674 
L 232.913455 250.63271 
L 234.942545 250.132314 
L 234.959161 250.128 
L 236.971636 249.77923 
L 239.000727 249.359762 
L 241.029818 248.856257 
L 243.058909 248.24857 
L 243.09272 248.238 
L 245.088 247.805912 
L 247.117091 247.273265 
L 249.146182 246.622066 
L 249.921017 246.348 
L 251.175273 246.030553 
L 253.204364 245.435546 
L 255.233455 244.697531 
L 255.838938 244.458 
L 257.262545 244.041718 
L 259.291636 243.337553 
L 261.095719 242.568 
L 261.320727 242.495054 
L 263.349818 241.798972 
L 265.378909 240.913771 
L 265.879978 240.678 
L 267.408 240.113479 
L 269.437091 239.197818 
L 270.250157 238.788 
L 271.466182 238.293125 
L 273.495273 237.310877 
L 274.261236 236.898 
L 275.524364 236.332664 
L 277.553455 235.239593 
L 277.955764 235.008 
L 279.582545 234.208292 
L 281.392065 233.118 
L 281.611636 233.002333 
L 283.640727 231.872412 
L 284.642831 231.228 
L 285.669818 230.634063 
L 287.59211 229.338 
L 287.698909 229.271684 
L 289.728 227.962391 
L 290.442816 227.448 
L 291.757091 226.551814 
L 293.071269 225.558 
L 293.786182 225.033233 
L 295.501145 223.668 
L 295.815273 223.419312 
L 297.770067 221.778 
L 297.844364 221.714425 
L 299.873455 219.922905 
L 299.912268 219.888 
L 301.902545 218.009917 
L 301.915061 217.998 
L 303.803622 216.108 
L 303.931636 215.967485 
L 305.574714 214.218 
L 305.960727 213.754629 
L 307.213522 212.328 
L 307.989818 211.3048 
L 308.698675 210.438 
L 310.002604 208.548 
L 310.018909 208.522033 
L 311.331255 206.658 
L 312.048 205.382232 
L 312.44364 204.768 
L 313.493059 202.878 
L 314.077091 201.557488 
L 314.377476 200.988 
L 315.225758 199.098 
L 315.874551 197.208 
L 316.106182 196.363537 
L 316.468117 195.318 
L 316.975883 193.428 
L 317.338865 191.538 
L 317.577315 189.648 
L 317.703284 187.758 
L 317.721857 185.868 
L 317.631661 183.978 
L 317.424722 182.088 
L 317.08566 180.198 
L 316.590102 178.308 
L 316.106182 176.93906 
L 315.954831 176.418 
L 315.261522 174.528 
L 314.328192 172.638 
L 314.077091 172.207 
L 313.322748 170.748 
L 312.048 168.858 
L 312.048 168.858 
L 310.726122 166.968 
L 310.018909 166.128798 
L 309.161179 165.078 
L 307.989818 163.83657 
L 307.37734 163.188 
L 305.960727 161.837636 
L 305.37524 161.298 
L 303.931636 160.053288 
L 303.131742 159.408 
L 301.902545 158.444959 
L 300.595625 157.518 
L 299.873455 157.001971 
L 297.844364 155.709577 
L 297.70827 155.628 
L 295.815273 154.430921 
L 294.508533 153.738 
L 293.786182 153.31927 
L 291.757091 152.264353 
L 290.83137 151.848 
L 289.728 151.280293 
L 287.698909 150.375157 
L 286.610431 149.958 
L 285.669818 149.526262 
L 283.640727 148.698496 
L 281.745622 148.068 
L 281.611636 148.012011 
L 279.582545 147.196067 
L 277.553455 146.516356 
L 276.435612 146.178 
L 275.524364 145.807961 
L 273.495273 145.022493 
L 271.466182 144.305863 
L 271.418578 144.288 
L 269.437091 143.194557 
L 268.081258 142.398 
L 267.408 141.762019 
L 266.332933 140.508 
L 265.463778 138.618 
L 265.378909 138.223539 
L 265.143755 136.728 
L 265.016185 134.838 
L 264.937742 132.948 
L 264.835528 131.058 
L 264.664274 129.168 
L 264.391127 127.278 
L 263.98577 125.388 
L 263.413604 123.498 
L 263.349818 123.328616 
L 262.808149 121.608 
L 262.010414 119.718 
L 261.320727 118.438978 
L 261.029835 117.828 
L 259.930824 115.938 
L 259.291636 115.036423 
L 258.637981 114.048 
L 257.262545 112.34882 
L 257.113668 112.158 
L 255.424907 110.268 
L 255.233455 110.075081 
L 253.518102 108.378 
L 253.204364 108.093976 
L 251.336999 106.488 
L 251.175273 106.355754 
L 249.146182 104.779447 
L 248.89397 104.598 
L 247.117091 103.323421 
L 246.141571 102.708 
L 245.088 102.020662 
L 243.058909 100.879476 
L 242.942859 100.818 
L 241.029818 99.720831 
L 239.330026 98.928 
L 239.000727 98.755736 
L 236.971636 97.765262 
L 235.11156 97.038 
L 234.942545 96.96049 
L 232.913455 96.080944 
L 230.884364 95.376704 
L 230.142836 95.148 
L 228.855273 94.65625 
L 226.826182 93.9875 
L 224.797091 93.442735 
L 224.022604 93.258 
L 222.768 92.866938 
L 220.738909 92.316565 
L 218.709818 91.861447 
L 216.680727 91.484169 
L 215.978248 91.368 
L 214.651636 91.062586 
L 212.622545 90.657276 
L 210.593455 90.318333 
L 208.564364 90.035083 
L 206.535273 89.798901 
L 204.506182 89.602807 
L 202.961736 89.478 
L 202.477091 89.418789 
L 200.448 89.206339 
L 198.418909 89.035117 
L 196.389818 88.900692 
L 194.360727 88.799595 
L 192.331636 88.729188 
L 190.302545 88.687564 
L 188.273455 88.673472 
L 186.244364 88.686278 
L 184.215273 88.725933 
L 182.186182 88.792981 
L 180.157091 88.88857 
L 178.128 89.0145 
L 176.098909 89.173285 
L 174.069818 89.368251 
L 173.09859 89.478 
L 172.040727 89.55328 
L 170.011636 89.721138 
L 167.982545 89.919446 
L 165.953455 90.152904 
L 163.924364 90.427323 
L 161.895273 90.749879 
L 159.866182 91.129441 
L 158.735299 91.368 
L 157.837091 91.493594 
L 155.808 91.810471 
L 153.778909 92.184677 
L 151.749818 92.6284 
L 149.720727 93.156902 
L 149.358899 93.258 
L 147.691636 93.579977 
L 145.662545 94.038911 
L 143.633455 94.591338 
L 141.903911 95.148 
L 141.604364 95.216835 
L 139.575273 95.715422 
L 137.546182 96.323303 
L 135.589065 97.038 
L 135.517091 97.057386 
L 133.488 97.629027 
L 131.458909 98.336114 
L 130.013429 98.928 
L 129.429818 99.110094 
L 127.400727 99.804223 
L 125.371636 100.676417 
L 125.060359 100.818 
L 123.342545 101.433097 
L 121.313455 102.328331 
L 120.537553 102.708 
L 119.284364 103.204458 
L 117.255273 104.157016 
L 116.415947 104.598 
L 115.226182 105.11849 
L 113.197091 106.169586 
L 112.631767 106.488 
L 111.168 107.194077 
L 109.164467 108.378 
L 109.138909 108.391243 
L 107.109818 109.472995 
L 105.853796 110.268 
L 105.080727 110.709425 
L 103.051636 112.029351 
L 102.861729 112.158 
L 101.022545 113.314429 
L 99.993056 114.048 
L 98.993455 114.725203 
L 97.378033 115.938 
L 96.964364 116.240519 
L 94.961227 117.828 
L 94.935273 117.848532 
L 92.906182 119.492841 
L 92.641508 119.718 
L 90.877091 121.260623 
L 90.491687 121.608 
L 88.848 123.169081 
L 88.504481 123.498 
L 86.818909 125.242197 
L 86.675994 125.388 
L 84.956002 127.278 
L 84.789818 127.481125 
L 83.333692 129.168 
L 82.760727 129.94086 
L 81.867186 131.058 
L 80.731636 132.757351 
L 80.591089 132.948 
L 79.329643 134.838 
L 78.702545 136.003474 
L 78.255163 136.728 
L 77.263893 138.618 
L 76.673455 140.042075 
L 76.442844 140.508 
L 75.650383 142.398 
L 75.047695 144.288 
L 74.644364 145.962553 
L 74.578809 146.178 
L 74.134748 148.068 
L 73.837777 149.958 
L 73.672389 151.848 
L 73.631303 153.738 
L 73.714735 155.628 
L 73.930422 157.518 
L 74.294401 159.408 
L 74.644364 160.670516 
L 74.785407 161.298 
L 75.34992 163.188 
L 76.119603 165.078 
L 76.673455 166.154106 
L 77.04035 166.968 
L 78.10114 168.858 
L 78.702545 169.737281 
L 79.342223 170.748 
L 80.731636 172.520977 
L 80.819318 172.638 
L 82.429985 174.528 
L 82.760727 174.870634 
L 84.269768 176.418 
L 84.789818 176.901207 
L 86.370602 178.308 
L 86.818909 178.683782 
L 88.768095 180.198 
L 88.848 180.258712 
L 90.877091 181.736989 
L 91.415362 182.088 
L 92.906182 183.084706 
L 94.461679 183.978 
L 94.935273 184.267188 
L 96.964364 185.408121 
L 97.910445 185.868 
L 98.993455 186.454556 
L 101.022545 187.411677 
L 101.853568 187.758 
L 103.051636 188.341846 
L 105.080727 189.206452 
L 106.266215 189.648 
L 107.109818 190.035521 
L 109.138909 190.900328 
L 110.836136 191.538 
L 111.168 191.702432 
L 113.197091 192.728196 
L 114.598787 193.428 
L 115.226182 193.887513 
L 116.92711 195.318 
L 117.255273 195.792967 
L 117.997223 197.208 
L 118.401114 199.098 
L 118.461691 200.988 
L 118.370412 202.878 
L 118.245489 204.768 
L 118.152482 206.658 
L 118.127161 208.548 
L 118.1913 210.438 
L 118.362242 212.328 
L 118.658718 214.218 
L 119.104936 216.108 
L 119.284364 216.682706 
L 119.616804 217.998 
L 120.254083 219.888 
L 121.114037 221.778 
L 121.313455 222.148162 
L 122.029231 223.668 
L 123.194905 225.558 
L 123.342545 225.768726 
L 124.429023 227.448 
L 125.371636 228.632365 
L 125.907453 229.338 
L 127.400727 231.006191 
L 127.596462 231.228 
L 129.429818 233.063381 
L 129.485396 233.118 
L 131.458909 234.899665 
L 131.585237 235.008 
L 133.488 236.564936 
L 133.930878 236.898 
L 135.517091 238.079143 
L 136.587701 238.788 
L 137.546182 239.439585 
L 139.575273 240.636964 
L 139.648614 240.678 
L 141.604364 241.85409 
L 143.047227 242.568 
L 143.633455 242.890899 
L 145.662545 243.907884 
L 146.978989 244.458 
L 147.691636 244.804666 
L 149.720727 245.693529 
L 151.581848 246.348 
L 151.749818 246.419872 
L 153.778909 247.240653 
L 155.808 247.899491 
L 157.024794 248.238 
L 157.837091 248.528155 
L 159.866182 249.178088 
L 161.895273 249.708846 
L 163.840294 250.128 
L 163.924364 250.152539 
L 165.953455 250.708841 
L 167.982545 251.169918 
L 170.011636 251.553023 
L 172.040727 251.871921 
L 173.107226 252.018 
L 174.069818 252.210048 
L 176.098909 252.566839 
L 178.128 252.865453 
L 180.157091 253.114769 
L 182.186182 253.321974 
L 184.215273 253.492884 
L 186.244364 253.632195 
L 188.273455 253.743678 
L 190.302545 253.830336 
L 192.331636 253.894519 
L 192.950852 253.908 
L 194.360727 253.958468 
z
" clip-path="url(#pf18da1b327)" style="fill: none; stroke: #50c46a; stroke-opacity: 0.996094"/>
    <path d="M 198.418909 246.356894 
L 200.448 246.379262 
L 202.477091 246.366833 
L 203.291249 246.348 
L 204.506182 246.329941 
L 206.535273 246.277476 
L 208.564364 246.201933 
L 210.593455 246.102057 
L 212.622545 245.97603 
L 214.651636 245.821395 
L 216.680727 245.634968 
L 218.709818 245.412713 
L 220.738909 245.149582 
L 222.768 244.839302 
L 224.797091 244.474119 
L 224.879536 244.458 
L 226.826182 244.195721 
L 228.855273 243.876306 
L 230.884364 243.501126 
L 232.913455 243.059172 
L 234.833115 242.568 
L 234.942545 242.547972 
L 236.971636 242.15156 
L 239.000727 241.681356 
L 241.029818 241.120853 
L 242.428236 240.678 
L 243.058909 240.529711 
L 245.088 240.006977 
L 247.117091 239.376694 
L 248.732797 238.788 
L 249.146182 238.672451 
L 251.175273 238.061233 
L 253.204364 237.314209 
L 254.211271 236.898 
L 255.233455 236.563065 
L 257.262545 235.807851 
L 259.038627 235.008 
L 259.291636 234.915095 
L 261.320727 234.124692 
L 263.349818 233.135061 
L 263.383758 233.118 
L 265.378909 232.2729 
L 267.349593 231.228 
L 267.408 231.201276 
L 269.437091 230.238626 
L 271.00729 229.338 
L 271.466182 229.1043 
L 273.495273 227.982785 
L 274.358423 227.448 
L 275.524364 226.787964 
L 277.402036 225.558 
L 277.553455 225.465148 
L 279.582545 224.164037 
L 280.283667 223.668 
L 281.611636 222.762612 
L 282.924073 221.778 
L 283.640727 221.246921 
L 285.345015 219.888 
L 285.669818 219.625698 
L 287.5855 217.998 
L 287.698909 217.897897 
L 289.669908 216.108 
L 289.728 216.051765 
L 291.610919 214.218 
L 291.757091 214.062208 
L 293.41102 212.328 
L 293.786182 211.885758 
L 295.062818 210.438 
L 295.815273 209.451765 
L 296.548229 208.548 
L 297.838284 206.658 
L 297.844364 206.648086 
L 299.119221 204.768 
L 299.873455 203.366382 
L 300.170624 202.878 
L 301.15861 200.988 
L 301.902545 199.13722 
L 301.921089 199.098 
L 302.682104 197.208 
L 303.252095 195.318 
L 303.664982 193.428 
L 303.931636 191.620448 
L 303.947038 191.538 
L 304.15344 189.648 
L 304.20878 187.758 
L 304.113142 185.868 
L 303.931636 184.511007 
L 303.874622 183.978 
L 303.53932 182.088 
L 303.039846 180.198 
L 302.338998 178.308 
L 301.902545 177.388042 
L 301.49594 176.418 
L 300.484825 174.528 
L 299.873455 173.602876 
L 299.278111 172.638 
L 297.844364 170.778982 
L 297.821306 170.748 
L 296.219929 168.858 
L 295.815273 168.442597 
L 294.350015 166.968 
L 293.786182 166.455116 
L 292.189692 165.078 
L 291.757091 164.726954 
L 289.728 163.210998 
L 289.695577 163.188 
L 287.698909 161.788818 
L 286.900361 161.298 
L 285.669818 160.522236 
L 283.640727 159.432122 
L 283.593234 159.408 
L 281.611636 158.326082 
L 279.786385 157.518 
L 279.582545 157.417409 
L 277.553455 156.474737 
L 275.524364 155.71532 
L 275.272432 155.628 
L 273.495273 154.901311 
L 271.466182 154.207745 
L 269.842358 153.738 
L 269.437091 153.59288 
L 267.408 152.914934 
L 265.378909 152.340967 
L 263.349818 151.848 
L 263.349818 151.848 
L 261.320727 151.207282 
L 259.291636 150.623905 
L 257.262545 150.073142 
L 256.854456 149.958 
L 255.233455 149.276805 
L 253.204364 148.348719 
L 252.678568 148.068 
L 251.175273 146.635281 
L 250.80527 146.178 
L 250.161824 144.288 
L 250.042285 142.398 
L 250.156887 140.508 
L 250.337355 138.618 
L 250.493403 136.728 
L 250.577286 134.838 
L 250.56155 132.948 
L 250.426158 131.058 
L 250.15094 129.168 
L 249.71058 127.278 
L 249.146182 125.595657 
L 249.086274 125.388 
L 248.381606 123.498 
L 247.421591 121.608 
L 247.117091 121.111937 
L 246.3219 119.718 
L 245.088 118.025044 
L 244.950038 117.828 
L 243.402383 115.938 
L 243.058909 115.573392 
L 241.599417 114.048 
L 241.029818 113.517545 
L 239.496651 112.158 
L 239.000727 111.749608 
L 237.046642 110.268 
L 236.971636 110.213049 
L 234.942545 108.795358 
L 234.268586 108.378 
L 232.913455 107.526736 
L 230.969045 106.488 
L 230.884364 106.440367 
L 228.855273 105.356346 
L 227.118973 104.598 
L 226.826182 104.456931 
L 224.797091 103.546196 
L 222.768 102.80877 
L 222.465806 102.708 
L 220.738909 102.036284 
L 218.709818 101.374697 
L 216.680727 100.83084 
L 216.629002 100.818 
L 214.651636 100.213009 
L 212.622545 99.695911 
L 210.593455 99.265924 
L 208.687493 98.928 
L 208.564364 98.899585 
L 206.535273 98.472251 
L 204.506182 98.115512 
L 202.477091 97.818683 
L 200.448 97.573113 
L 198.418909 97.37181 
L 196.389818 97.209131 
L 194.360727 97.080554 
L 193.497657 97.038 
L 192.331636 96.955024 
L 190.302545 96.849387 
L 188.273455 96.781699 
L 186.244364 96.750006 
L 184.215273 96.753163 
L 182.186182 96.790795 
L 180.157091 96.863286 
L 178.128 96.971783 
L 177.197927 97.038 
L 176.098909 97.090579 
L 174.069818 97.212828 
L 172.040727 97.363548 
L 170.011636 97.545748 
L 167.982545 97.763268 
L 165.953455 98.020929 
L 163.924364 98.324731 
L 161.895273 98.682102 
L 160.668245 98.928 
L 159.866182 99.042221 
L 157.837091 99.365094 
L 155.808 99.743766 
L 153.778909 100.189111 
L 151.749818 100.714627 
L 151.37956 100.818 
L 149.720727 101.16123 
L 147.691636 101.64867 
L 145.662545 102.228558 
L 144.203453 102.708 
L 143.633455 102.851431 
L 141.604364 103.408368 
L 139.575273 104.078476 
L 138.206091 104.598 
L 137.546182 104.796156 
L 135.517091 105.465122 
L 133.488 106.280985 
L 133.008697 106.488 
L 131.458909 107.03544 
L 129.429818 107.884418 
L 128.384184 108.378 
L 127.400727 108.768609 
L 125.371636 109.683172 
L 124.234838 110.268 
L 123.342545 110.665415 
L 121.313455 111.685999 
L 120.469724 112.158 
L 119.284364 112.748779 
L 117.255273 113.929338 
L 117.059872 114.048 
L 115.226182 115.069064 
L 113.877181 115.938 
L 113.197091 116.349636 
L 111.168 117.715844 
L 111.007557 117.828 
L 109.138909 119.091789 
L 108.297051 119.718 
L 107.109818 120.594028 
L 105.832011 121.608 
L 105.080727 122.214555 
L 103.568971 123.498 
L 103.051636 123.956518 
L 101.480858 125.388 
L 101.022545 125.835632 
L 99.553726 127.278 
L 98.993455 127.883697 
L 97.785099 129.168 
L 96.964364 130.155204 
L 96.18364 131.058 
L 94.935273 132.738934 
L 94.770111 132.948 
L 93.428228 134.838 
L 92.906182 135.727702 
L 92.256687 136.728 
L 91.242303 138.618 
L 90.877091 139.449358 
L 90.341745 140.508 
L 89.573173 142.398 
L 88.99471 144.288 
L 88.848 144.919917 
L 88.492194 146.178 
L 88.120925 148.068 
L 87.904875 149.958 
L 87.834689 151.848 
L 87.909851 153.738 
L 88.138636 155.628 
L 88.538944 157.518 
L 88.848 158.526205 
L 89.078562 159.408 
L 89.748626 161.298 
L 90.666758 163.188 
L 90.877091 163.547478 
L 91.702623 165.078 
L 92.906182 166.79982 
L 93.0182 166.968 
L 94.49169 168.858 
L 94.935273 169.345275 
L 96.221673 170.748 
L 96.964364 171.461908 
L 98.238754 172.638 
L 98.993455 173.278271 
L 100.580042 174.528 
L 101.022545 174.861544 
L 103.051636 176.268887 
L 103.283557 176.418 
L 105.080727 177.579484 
L 106.393625 178.308 
L 107.109818 178.7229 
L 109.138909 179.781011 
L 110.053368 180.198 
L 111.168 180.7547 
L 113.197091 181.641132 
L 114.381008 182.088 
L 115.226182 182.45496 
L 117.255273 183.249796 
L 119.284364 183.911656 
L 119.500228 183.978 
L 121.313455 184.663171 
L 123.342545 185.337198 
L 125.117935 185.868 
L 125.371636 185.968186 
L 127.400727 186.784106 
L 129.429818 187.588988 
L 129.820034 187.758 
L 131.458909 188.869222 
L 132.404793 189.648 
L 133.488 191.525491 
L 133.493277 191.538 
L 133.674309 193.428 
L 133.503779 195.318 
L 133.488 195.406801 
L 133.105435 197.208 
L 132.675839 199.098 
L 132.296506 200.988 
L 132.001753 202.878 
L 131.806036 204.768 
L 131.716335 206.658 
L 131.738786 208.548 
L 131.882415 210.438 
L 132.161677 212.328 
L 132.598781 214.218 
L 133.226446 216.108 
L 133.488 216.72373 
L 133.959056 217.998 
L 134.87527 219.888 
L 135.517091 220.942078 
L 135.985153 221.778 
L 137.301899 223.668 
L 137.546182 223.972873 
L 138.780593 225.558 
L 139.575273 226.424325 
L 140.51861 227.448 
L 141.604364 228.492116 
L 142.517874 229.338 
L 143.633455 230.291573 
L 144.809783 231.228 
L 145.662545 231.879755 
L 147.461475 233.118 
L 147.691636 233.276006 
L 149.720727 234.58656 
L 150.461789 235.008 
L 151.749818 235.773921 
L 153.778909 236.798819 
L 153.990199 236.898 
L 155.808 237.83257 
L 157.837091 238.681605 
L 158.112655 238.788 
L 159.866182 239.564161 
L 161.895273 240.307492 
L 163.06941 240.678 
L 163.924364 241.001548 
L 165.953455 241.687259 
L 167.982545 242.250253 
L 169.317643 242.568 
L 170.011636 242.777175 
L 172.040727 243.327975 
L 174.069818 243.78595 
L 176.098909 244.16725 
L 177.941386 244.458 
L 178.128 244.497755 
L 180.157091 244.890493 
L 182.186182 245.218451 
L 184.215273 245.491274 
L 186.244364 245.716771 
L 188.273455 245.901251 
L 190.302545 246.049797 
L 192.331636 246.16647 
L 194.360727 246.254474 
L 196.389818 246.316281 
L 198.103867 246.348 
L 198.418909 246.356894 
z
" clip-path="url(#pf18da1b327)" style="fill: none; stroke: #7fd34e; stroke-opacity: 0.996094"/>
    <path d="M 188.273455 236.910105 
L 190.302545 237.21276 
L 192.331636 237.458648 
L 194.360727 237.654486 
L 196.389818 237.805604 
L 198.418909 237.916166 
L 200.448 237.98932 
L 202.477091 238.027325 
L 204.506182 238.031631 
L 206.535273 238.002935 
L 208.564364 237.941205 
L 210.593455 237.845682 
L 212.622545 237.714847 
L 214.651636 237.546373 
L 216.680727 237.337032 
L 218.709818 237.082577 
L 219.962321 236.898 
L 220.738909 236.814114 
L 222.768 236.562578 
L 224.797091 236.266723 
L 226.826182 235.919624 
L 228.855273 235.512715 
L 230.884364 235.035417 
L 230.992591 235.008 
L 232.913455 234.634245 
L 234.942545 234.173658 
L 236.971636 233.632034 
L 238.637089 233.118 
L 239.000727 233.028894 
L 241.029818 232.491803 
L 243.058909 231.855152 
L 244.772462 231.228 
L 245.088 231.133221 
L 247.117091 230.480097 
L 249.146182 229.697023 
L 249.989713 229.338 
L 251.175273 228.909868 
L 253.204364 228.075088 
L 254.533706 227.448 
L 255.233455 227.159723 
L 257.262545 226.239666 
L 258.570986 225.558 
L 259.291636 225.22045 
L 261.320727 224.170997 
L 262.197329 223.668 
L 263.349818 223.055786 
L 265.378909 221.815737 
L 265.438739 221.778 
L 267.408 220.5937 
L 268.451876 219.888 
L 269.437091 219.236595 
L 271.141687 217.998 
L 271.466182 217.761361 
L 273.495273 216.186267 
L 273.593049 216.108 
L 275.524364 214.508306 
L 275.85987 214.218 
L 277.553455 212.660317 
L 277.9072 212.328 
L 279.582545 210.608174 
L 279.748542 210.438 
L 281.425992 208.548 
L 281.611636 208.310564 
L 282.957657 206.658 
L 283.640727 205.659018 
L 284.289831 204.768 
L 285.439706 202.878 
L 285.669818 202.427134 
L 286.483924 200.988 
L 287.325206 199.098 
L 287.698909 198.020405 
L 288.023771 197.208 
L 288.599627 195.318 
L 288.992233 193.428 
L 289.220846 191.538 
L 289.294416 189.648 
L 289.212478 187.758 
L 288.965105 185.868 
L 288.53189 183.978 
L 287.879846 182.088 
L 287.698909 181.685602 
L 287.089859 180.198 
L 286.048187 178.308 
L 285.669818 177.746903 
L 284.806909 176.418 
L 283.640727 174.978258 
L 283.277515 174.528 
L 281.611636 172.783858 
L 281.468114 172.638 
L 279.582545 170.941213 
L 279.353676 170.748 
L 277.553455 169.341803 
L 276.870166 168.858 
L 275.524364 167.938838 
L 273.900943 166.968 
L 273.495273 166.724465 
L 271.466182 165.601928 
L 270.367965 165.078 
L 269.437091 164.609828 
L 267.408 163.706223 
L 266.041405 163.188 
L 265.378909 162.910141 
L 263.349818 162.141498 
L 261.320727 161.506646 
L 260.569765 161.298 
L 259.291636 160.881686 
L 257.262545 160.305166 
L 255.233455 159.821058 
L 253.204364 159.412772 
L 253.178499 159.408 
L 251.175273 158.942029 
L 249.146182 158.534518 
L 247.117091 158.178597 
L 245.088 157.862177 
L 243.058909 157.573781 
L 242.652685 157.518 
L 241.029818 157.202526 
L 239.000727 156.802009 
L 236.971636 156.371384 
L 234.942545 155.875519 
L 234.101584 155.628 
L 232.913455 154.978058 
L 231.319257 153.738 
L 230.884364 152.512048 
L 230.720833 151.848 
L 230.884364 150.41196 
L 230.938039 149.958 
L 231.527721 148.068 
L 232.192611 146.178 
L 232.812092 144.288 
L 232.913455 143.941878 
L 233.42455 142.398 
L 233.914583 140.508 
L 234.25339 138.618 
L 234.438729 136.728 
L 234.466705 134.838 
L 234.328138 132.948 
L 234.005904 131.058 
L 233.47226 129.168 
L 232.913455 127.79311 
L 232.721485 127.278 
L 231.791784 125.388 
L 230.884364 123.993301 
L 230.571728 123.498 
L 229.094407 121.608 
L 228.855273 121.346324 
L 227.327294 119.718 
L 226.826182 119.25384 
L 225.190139 117.828 
L 224.797091 117.516089 
L 222.768 116.034555 
L 222.62546 115.938 
L 220.738909 114.709625 
L 219.566051 114.048 
L 218.709818 113.564285 
L 216.680727 112.545957 
L 215.799616 112.158 
L 214.651636 111.625984 
L 212.622545 110.80611 
L 211.043738 110.268 
L 210.593455 110.098475 
L 208.564364 109.404566 
L 206.535273 108.829045 
L 204.628576 108.378 
L 204.506182 108.344133 
L 202.477091 107.833867 
L 200.448 107.409647 
L 198.418909 107.058482 
L 196.389818 106.769859 
L 194.360727 106.535283 
L 193.867064 106.488 
L 192.331636 106.300469 
L 190.302545 106.104445 
L 188.273455 105.957681 
L 186.244364 105.856061 
L 184.215273 105.796562 
L 182.186182 105.777144 
L 180.157091 105.796671 
L 178.128 105.854874 
L 176.098909 105.952332 
L 174.069818 106.090502 
L 172.040727 106.271767 
L 170.111057 106.488 
L 170.011636 106.496354 
L 167.982545 106.697879 
L 165.953455 106.939335 
L 163.924364 107.225717 
L 161.895273 107.563292 
L 159.866182 107.959848 
L 158.028843 108.378 
L 157.837091 108.412295 
L 155.808 108.809124 
L 153.778909 109.272893 
L 151.749818 109.816231 
L 150.272787 110.268 
L 149.720727 110.405816 
L 147.691636 110.959669 
L 145.662545 111.612417 
L 144.181192 112.158 
L 143.633455 112.328253 
L 141.604364 113.014651 
L 139.575273 113.831907 
L 139.076914 114.048 
L 137.546182 114.627303 
L 135.517091 115.518832 
L 134.65237 115.938 
L 133.488 116.445269 
L 131.458909 117.450175 
L 130.759013 117.828 
L 129.429818 118.49222 
L 127.400727 119.664086 
L 127.310793 119.718 
L 125.371636 120.826677 
L 124.163224 121.608 
L 123.342545 122.127324 
L 121.383123 123.498 
L 121.313455 123.546972 
L 119.284364 125.026726 
L 118.820145 125.388 
L 117.255273 126.650449 
L 116.514712 127.278 
L 115.226182 128.441653 
L 114.442958 129.168 
L 113.197091 130.435075 
L 112.587008 131.058 
L 111.168 132.695053 
L 110.944623 132.948 
L 109.461176 134.838 
L 109.138909 135.321444 
L 108.145106 136.728 
L 107.109818 138.555668 
L 107.071541 138.618 
L 106.078671 140.508 
L 105.328504 142.398 
L 105.080727 143.222374 
L 104.713291 144.288 
L 104.254839 146.178 
L 103.984356 148.068 
L 103.891202 149.958 
L 103.975531 151.848 
L 104.248318 153.738 
L 104.73247 155.628 
L 105.080727 156.563751 
L 105.40371 157.518 
L 106.278009 159.408 
L 107.109818 160.762132 
L 107.426533 161.298 
L 108.821652 163.188 
L 109.138909 163.550835 
L 110.498646 165.078 
L 111.168 165.723346 
L 112.528495 166.968 
L 113.197091 167.51867 
L 114.971193 168.858 
L 115.226182 169.03914 
L 117.255273 170.380793 
L 117.877724 170.748 
L 119.284364 171.570975 
L 121.313455 172.581838 
L 121.43523 172.638 
L 123.342545 173.555813 
L 125.371636 174.364092 
L 125.827205 174.528 
L 127.400727 175.149098 
L 129.429818 175.834056 
L 131.458909 176.406214 
L 131.504295 176.418 
L 133.488 177.020171 
L 135.517091 177.54643 
L 137.546182 177.999676 
L 139.103168 178.308 
L 139.575273 178.425956 
L 141.604364 178.90618 
L 143.633455 179.355418 
L 145.662545 179.79429 
L 147.469547 180.198 
L 147.691636 180.272186 
L 149.720727 181.055402 
L 151.749818 182.069268 
L 151.778954 182.088 
L 152.932706 183.978 
L 152.866701 185.868 
L 152.276034 187.758 
L 151.749818 189.011665 
L 151.468081 189.648 
L 150.544768 191.538 
L 149.720727 193.428 
L 149.720727 193.428 
L 148.858855 195.318 
L 148.163997 197.208 
L 147.691636 198.854616 
L 147.610399 199.098 
L 147.122951 200.988 
L 146.804369 202.878 
L 146.646233 204.768 
L 146.647116 206.658 
L 146.81367 208.548 
L 147.161928 210.438 
L 147.691636 212.240172 
L 147.714271 212.328 
L 148.377925 214.218 
L 149.30178 216.108 
L 149.720727 216.793367 
L 150.418953 217.998 
L 151.749818 219.787686 
L 151.822969 219.888 
L 153.44129 221.778 
L 153.778909 222.118514 
L 155.372848 223.668 
L 155.808 224.047162 
L 157.669367 225.558 
L 157.837091 225.685385 
L 159.866182 227.13563 
L 160.350395 227.448 
L 161.895273 228.429692 
L 163.559478 229.338 
L 163.924364 229.542004 
L 165.953455 230.590209 
L 167.420542 231.228 
L 167.982545 231.490636 
L 170.011636 232.352793 
L 172.040727 233.058838 
L 172.225908 233.118 
L 174.069818 233.78854 
L 176.098909 234.406185 
L 178.128 234.917942 
L 178.525943 235.008 
L 180.157091 235.452466 
L 182.186182 235.922533 
L 184.215273 236.313868 
L 186.244364 236.638669 
L 188.202353 236.898 
L 188.273455 236.910105 
z
" clip-path="url(#pf18da1b327)" style="fill: none; stroke: #b0dd2f; stroke-opacity: 0.996094"/>
    <path d="M 190.302545 227.730135 
L 192.331636 228.132199 
L 194.360727 228.459769 
L 196.389818 228.722418 
L 198.418909 228.927818 
L 200.448 229.082047 
L 202.477091 229.189833 
L 204.506182 229.254738 
L 206.535273 229.279292 
L 208.564364 229.26509 
L 210.593455 229.212849 
L 212.622545 229.122439 
L 214.651636 228.992876 
L 216.680727 228.822289 
L 218.709818 228.607848 
L 220.738909 228.345662 
L 222.768 228.030633 
L 224.797091 227.656253 
L 225.783261 227.448 
L 226.826182 227.267309 
L 228.855273 226.867132 
L 230.884364 226.399789 
L 232.913455 225.853917 
L 233.897091 225.558 
L 234.942545 225.289878 
L 236.971636 224.706507 
L 239.000727 224.024162 
L 239.955217 223.668 
L 241.029818 223.314311 
L 243.058909 222.566646 
L 244.89595 221.778 
L 245.088 221.703063 
L 247.117091 220.860595 
L 249.100041 219.888 
L 249.146182 219.866797 
L 251.175273 218.888237 
L 252.771944 217.998 
L 253.204364 217.765061 
L 255.233455 216.590946 
L 255.998045 216.108 
L 257.262545 215.311839 
L 258.841342 214.218 
L 259.291636 213.898238 
L 261.320727 212.352218 
L 261.351558 212.328 
L 263.349818 210.665744 
L 263.611851 210.438 
L 265.378909 208.762207 
L 265.600074 208.548 
L 267.343208 206.658 
L 267.408 206.577816 
L 268.897869 204.768 
L 269.437091 203.978643 
L 270.2207 202.878 
L 271.307126 200.988 
L 271.466182 200.645045 
L 272.244212 199.098 
L 272.952696 197.208 
L 273.442318 195.318 
L 273.495273 194.980795 
L 273.775095 193.428 
L 273.89722 191.538 
L 273.79944 189.648 
L 273.495273 187.90773 
L 273.471721 187.758 
L 272.956903 185.868 
L 272.170667 183.978 
L 271.466182 182.745122 
L 271.100139 182.088 
L 269.735481 180.198 
L 269.437091 179.85645 
L 268.039892 178.308 
L 267.408 177.715443 
L 265.927477 176.418 
L 265.378909 175.98938 
L 263.349818 174.555603 
L 263.307666 174.528 
L 261.320727 173.298026 
L 260.076956 172.638 
L 259.291636 172.226413 
L 257.262545 171.280224 
L 255.924918 170.748 
L 255.233455 170.461735 
L 253.204364 169.712609 
L 251.175273 169.092147 
L 250.294215 168.858 
L 249.146182 168.520602 
L 247.117091 168.005797 
L 245.088 167.579339 
L 243.058909 167.228032 
L 241.229784 166.968 
L 241.029818 166.934228 
L 239.000727 166.642498 
L 236.971636 166.409706 
L 234.942545 166.22887 
L 232.913455 166.094264 
L 230.884364 166.001207 
L 228.855273 165.945889 
L 226.826182 165.92524 
L 224.797091 165.936833 
L 222.768 165.978823 
L 220.738909 166.049932 
L 218.709818 166.149487 
L 216.680727 166.277545 
L 214.651636 166.435164 
L 212.622545 166.624944 
L 210.593455 166.852112 
L 209.667667 166.968 
L 208.564364 167.072819 
L 206.535273 167.281377 
L 204.506182 167.519388 
L 202.477091 167.797459 
L 200.448 168.138837 
L 198.418909 168.602411 
L 197.542134 168.858 
L 196.389818 169.08219 
L 194.360727 169.56677 
L 192.331636 170.358338 
L 191.666967 170.748 
L 190.302545 171.242461 
L 188.273455 172.377778 
L 187.939485 172.638 
L 186.244364 173.510814 
L 184.860934 174.528 
L 184.215273 174.894553 
L 182.186182 176.364063 
L 182.123598 176.418 
L 180.157091 177.787296 
L 179.539111 178.308 
L 178.128 179.354743 
L 177.141199 180.198 
L 176.098909 181.032788 
L 174.910893 182.088 
L 174.069818 182.824706 
L 172.844091 183.978 
L 172.040727 184.757365 
L 170.944401 185.868 
L 170.011636 186.88334 
L 169.221788 187.758 
L 167.982545 189.29281 
L 167.693559 189.648 
L 166.32442 191.538 
L 165.953455 192.145595 
L 165.130808 193.428 
L 164.158442 195.318 
L 163.924364 195.891925 
L 163.337153 197.208 
L 162.715421 199.098 
L 162.305739 200.988 
L 162.092904 202.878 
L 162.073093 204.768 
L 162.253802 206.658 
L 162.654808 208.548 
L 163.310309 210.438 
L 163.924364 211.683106 
L 164.229552 212.328 
L 165.412885 214.218 
L 165.953455 214.904304 
L 166.917195 216.108 
L 167.982545 217.202499 
L 168.797898 217.998 
L 170.011636 219.027978 
L 171.11767 219.888 
L 172.040727 220.544085 
L 174.005479 221.778 
L 174.069818 221.81666 
L 176.098909 222.955454 
L 177.605283 223.668 
L 178.128 223.917558 
L 180.157091 224.792301 
L 182.186182 225.513692 
L 182.323951 225.558 
L 184.215273 226.210846 
L 186.244364 226.795606 
L 188.273455 227.279383 
L 189.095228 227.448 
L 190.302545 227.730135 
z
M 149.720727 169.16746 
L 151.749818 169.440775 
L 153.778909 169.65372 
L 155.808 169.813301 
L 157.837091 169.925286 
L 159.866182 169.994409 
L 161.895273 170.024524 
L 163.924364 170.018716 
L 165.953455 169.979352 
L 167.982545 169.908076 
L 170.011636 169.805695 
L 172.040727 169.67192 
L 174.069818 169.504783 
L 176.098909 169.29942 
L 178.128 169.04532 
L 179.386365 168.858 
L 180.157091 168.769637 
L 182.186182 168.517792 
L 184.215273 168.214612 
L 186.244364 167.823133 
L 188.273455 167.23719 
L 188.948157 166.968 
L 190.302545 166.61318 
L 192.331636 165.869331 
L 193.654104 165.078 
L 194.360727 164.782898 
L 196.389818 163.649776 
L 196.983818 163.188 
L 198.418909 162.363715 
L 199.814921 161.298 
L 200.448 160.893637 
L 202.350367 159.408 
L 202.477091 159.318242 
L 204.506182 157.688471 
L 204.692057 157.518 
L 206.535273 155.922548 
L 206.842587 155.628 
L 208.564364 153.974312 
L 208.794564 153.738 
L 210.546976 151.848 
L 210.593455 151.793235 
L 212.129392 149.958 
L 212.622545 149.271564 
L 213.497196 148.068 
L 214.622042 146.178 
L 214.651636 146.117347 
L 215.593673 144.288 
L 216.309026 142.398 
L 216.680727 140.949602 
L 216.805297 140.508 
L 217.101032 138.618 
L 217.151432 136.728 
L 216.947566 134.838 
L 216.680727 133.769513 
L 216.487786 132.948 
L 215.76599 131.058 
L 214.69254 129.168 
L 214.651636 129.111081 
L 213.30727 127.278 
L 212.622545 126.540726 
L 211.489482 125.388 
L 210.593455 124.618653 
L 209.159828 123.498 
L 208.564364 123.082397 
L 206.535273 121.813721 
L 206.168274 121.608 
L 204.506182 120.723517 
L 202.477091 119.817157 
L 202.229147 119.718 
L 200.448 119.002549 
L 198.418909 118.321464 
L 196.650199 117.828 
L 196.389818 117.751057 
L 194.360727 117.222191 
L 192.331636 116.790028 
L 190.302545 116.441314 
L 188.273455 116.165384 
L 186.244364 115.953712 
L 186.043798 115.938 
L 184.215273 115.771609 
L 182.186182 115.648329 
L 180.157091 115.582862 
L 178.128 115.572443 
L 176.098909 115.615568 
L 174.069818 115.711932 
L 172.040727 115.862419 
L 171.289447 115.938 
L 170.011636 116.044812 
L 167.982545 116.260794 
L 165.953455 116.527678 
L 163.924364 116.8502 
L 161.895273 117.234528 
L 159.866182 117.688502 
L 159.311501 117.828 
L 157.837091 118.151066 
L 155.808 118.661212 
L 153.778909 119.255372 
L 152.388339 119.718 
L 151.749818 119.909639 
L 149.720727 120.581028 
L 147.691636 121.36291 
L 147.107527 121.608 
L 145.662545 122.17453 
L 143.633455 123.078589 
L 142.777012 123.498 
L 141.604364 124.051725 
L 139.575273 125.126506 
L 139.114773 125.388 
L 137.546182 126.274859 
L 135.957024 127.278 
L 135.517091 127.562649 
L 133.488 128.970787 
L 133.218243 129.168 
L 131.458909 130.531939 
L 130.818013 131.058 
L 129.429818 132.305456 
L 128.7387 132.948 
L 127.400727 134.35716 
L 126.949172 134.838 
L 125.432925 136.728 
L 125.371636 136.818803 
L 124.121777 138.618 
L 123.342545 140.062502 
L 123.089463 140.508 
L 122.255281 142.398 
L 121.680904 144.288 
L 121.341776 146.178 
L 121.313455 146.651523 
L 121.217438 148.068 
L 121.313455 149.464343 
L 121.344393 149.958 
L 121.708931 151.848 
L 122.356696 153.738 
L 123.342545 155.628 
L 123.342545 155.628 
L 124.621335 157.518 
L 125.371636 158.376557 
L 126.317244 159.408 
L 127.400727 160.389747 
L 128.491819 161.298 
L 129.429818 161.98578 
L 131.283154 163.188 
L 131.458909 163.293737 
L 133.488 164.414654 
L 134.906735 165.078 
L 135.517091 165.358522 
L 137.546182 166.188727 
L 139.575273 166.873955 
L 139.890667 166.968 
L 141.604364 167.504521 
L 143.633455 168.036429 
L 145.662545 168.473779 
L 147.691636 168.830419 
L 147.877949 168.858 
L 149.720727 169.16746 
z
" clip-path="url(#pf18da1b327)" style="fill: none; stroke: #dae319; stroke-opacity: 0.996094"/>
    <path d="M 206.535273 218.18179 
L 208.564364 218.292255 
L 210.593455 218.330493 
L 212.622545 218.299562 
L 214.651636 218.200914 
L 216.680727 218.03446 
L 216.998304 217.998 
L 218.709818 217.820789 
L 220.738909 217.548141 
L 222.768 217.208827 
L 224.797091 216.797483 
L 226.826182 216.306917 
L 227.54537 216.108 
L 228.855273 215.766376 
L 230.884364 215.159215 
L 232.913455 214.453662 
L 233.525292 214.218 
L 234.942545 213.683691 
L 236.971636 212.817386 
L 238.002381 212.328 
L 239.000727 211.847706 
L 241.029818 210.764567 
L 241.594369 210.438 
L 243.058909 209.548072 
L 244.556698 208.548 
L 245.088 208.162037 
L 247.018246 206.658 
L 247.117091 206.570899 
L 249.070843 204.768 
L 249.146182 204.685841 
L 250.767374 202.878 
L 251.175273 202.311565 
L 252.129686 200.988 
L 253.155757 199.098 
L 253.204364 198.971069 
L 253.908088 197.208 
L 254.344492 195.318 
L 254.470163 193.428 
L 254.274296 191.538 
L 253.725371 189.648 
L 253.204364 188.586246 
L 252.788445 187.758 
L 251.398425 185.868 
L 251.175273 185.633988 
L 249.45329 183.978 
L 249.146182 183.73675 
L 247.117091 182.308859 
L 246.759992 182.088 
L 245.088 181.172045 
L 243.058909 180.250079 
L 242.927803 180.198 
L 241.029818 179.482989 
L 239.000727 178.859685 
L 236.971636 178.360195 
L 236.71447 178.308 
L 234.942545 177.941369 
L 232.913455 177.616038 
L 230.884364 177.377312 
L 228.855273 177.216891 
L 226.826182 177.128514 
L 224.797091 177.107715 
L 222.768 177.151663 
L 220.738909 177.259057 
L 218.709818 177.430095 
L 216.680727 177.6665 
L 214.651636 177.971617 
L 212.844205 178.308 
L 212.622545 178.345897 
L 210.593455 178.75334 
L 208.564364 179.237123 
L 206.535273 179.806954 
L 205.319458 180.198 
L 204.506182 180.448109 
L 202.477091 181.149557 
L 200.448 181.964418 
L 200.165375 182.088 
L 198.418909 182.845868 
L 196.389818 183.855149 
L 196.16003 183.978 
L 194.360727 184.966935 
L 192.894059 185.868 
L 192.331636 186.235635 
L 190.302545 187.67382 
L 190.18992 187.758 
L 188.273455 189.343243 
L 187.924431 189.648 
L 186.244364 191.338978 
L 186.052474 191.538 
L 184.520417 193.428 
L 184.215273 193.905482 
L 183.303047 195.318 
L 182.411909 197.208 
L 182.186182 197.936354 
L 181.807437 199.098 
L 181.505725 200.988 
L 181.522897 202.878 
L 181.87841 204.768 
L 182.186182 205.586471 
L 182.591531 206.658 
L 183.718917 208.548 
L 184.215273 209.154454 
L 185.340765 210.438 
L 186.244364 211.246233 
L 187.593989 212.328 
L 188.273455 212.789244 
L 190.302545 213.995452 
L 190.731581 214.218 
L 192.331636 214.975313 
L 194.360727 215.773617 
L 195.373549 216.108 
L 196.389818 216.434568 
L 198.418909 216.979675 
L 200.448 217.412306 
L 202.477091 217.746822 
L 204.506182 217.994654 
L 204.544828 217.998 
L 206.535273 218.18179 
z
M 155.808 154.157069 
L 157.837091 154.66523 
L 159.866182 155.021878 
L 161.895273 155.244026 
L 163.924364 155.34465 
L 165.953455 155.333251 
L 167.982545 155.216268 
L 170.011636 154.997347 
L 172.040727 154.677491 
L 174.069818 154.255101 
L 176.053362 153.738 
L 176.098909 153.725468 
L 178.128 153.063468 
L 180.157091 152.281985 
L 181.140116 151.848 
L 182.186182 151.336727 
L 184.215273 150.215657 
L 184.637691 149.958 
L 186.244364 148.81523 
L 187.205737 148.068 
L 188.273455 147.036908 
L 189.109685 146.178 
L 190.302545 144.516692 
L 190.461054 144.288 
L 191.303076 142.398 
L 191.656496 140.508 
L 191.495417 138.618 
L 190.757452 136.728 
L 190.302545 136.089867 
L 189.291292 134.838 
L 188.273455 133.985132 
L 186.789915 132.948 
L 186.244364 132.6511 
L 184.215273 131.739723 
L 182.222415 131.058 
L 182.186182 131.047263 
L 180.157091 130.577046 
L 178.128 130.251524 
L 176.098909 130.055418 
L 174.069818 129.977185 
L 172.040727 130.008527 
L 170.011636 130.144026 
L 167.982545 130.380914 
L 165.953455 130.718934 
L 164.38993 131.058 
L 163.924364 131.163302 
L 161.895273 131.725366 
L 159.866182 132.399412 
L 158.452842 132.948 
L 157.837091 133.209272 
L 155.808 134.186046 
L 154.609159 134.838 
L 153.778909 135.356982 
L 151.7991 136.728 
L 151.749818 136.769651 
L 149.720727 138.618 
L 149.720727 138.618 
L 148.226403 140.508 
L 147.691636 141.522877 
L 147.240535 142.398 
L 146.750017 144.288 
L 146.763122 146.178 
L 147.32961 148.068 
L 147.691636 148.662462 
L 148.575073 149.958 
L 149.720727 151.036682 
L 150.739689 151.848 
L 151.749818 152.455558 
L 153.778909 153.44625 
L 154.532607 153.738 
L 155.808 154.157069 
z
" clip-path="url(#pf18da1b327)" style="fill: none; stroke: #fde725; stroke-opacity: 0.996094"/>
   </g>
   <g id="patch_3">
    <path d="M 57.6 307.584 
L 57.6 41.472 
" style="fill: none; stroke: #000000; stroke-width: 0.8; stroke-linejoin: miter; stroke-linecap: square"/>
   </g>
   <g id="patch_4">
    <path d="M 343.296 307.584 
L 343.296 41.472 
" style="fill: none; stroke: #000000; stroke-width: 0.8; stroke-linejoin: miter; stroke-linecap: square"/>
   </g>
   <g id="patch_5">
    <path d="M 57.6 307.584 
L 343.296 307.584 
" style="fill: none; stroke: #000000; stroke-width: 0.8; stroke-linejoin: miter; stroke-linecap: square"/>
   </g>
   <g id="patch_6">
    <path d="M 57.6 41.472 
L 343.296 41.472 
" style="fill: none; stroke: #000000; stroke-width: 0.8; stroke-linejoin: miter; stroke-linecap: square"/>
   </g>
  </g>
  <g id="axes_2">
   <g id="patch_7">
    <path d="M 361.152 295.488 
L 374.4576 295.488 
L 374.4576 53.568 
L 361.152 53.568 
z
" style="fill: #ffffff"/>
   </g>
   <g id="matplotlib.axis_3"/>
   <g id="matplotlib.axis_4">
    <g id="ytick_8">
     <g id="line2d_27">
      <defs>
       <path id="m48b544df30" d="M 0 0 
L 3.5 0 
" style="stroke: #000000; stroke-width: 0.8"/>
      </defs>
      <g>
       <use xlink:href="#m48b544df30" x="374.4576" y="295.488" style="stroke: #000000; stroke-width: 0.8"/>
      </g>
     </g>
     <g id="text_16">
      <!-- 1.39e-13 -->
      <g transform="translate(381.4576 299.287219) scale(0.1 -0.1)">
       <defs>
        <path id="DejaVuSans-33" d="M 2597 2516 
Q 3050 2419 3304 2112 
Q 3559 1806 3559 1356 
Q 3559 666 3084 287 
Q 2609 -91 1734 -91 
Q 1441 -91 1130 -33 
Q 819 25 488 141 
L 488 750 
Q 750 597 1062 519 
Q 1375 441 1716 441 
Q 2309 441 2620 675 
Q 2931 909 2931 1356 
Q 2931 1769 2642 2001 
Q 2353 2234 1838 2234 
L 1294 2234 
L 1294 2753 
L 1863 2753 
Q 2328 2753 2575 2939 
Q 2822 3125 2822 3475 
Q 2822 3834 2567 4026 
Q 2313 4219 1838 4219 
Q 1578 4219 1281 4162 
Q 984 4106 628 3988 
L 628 4550 
Q 988 4650 1302 4700 
Q 1616 4750 1894 4750 
Q 2613 4750 3031 4423 
Q 3450 4097 3450 3541 
Q 3450 3153 3228 2886 
Q 3006 2619 2597 2516 
z
" transform="scale(0.015625)"/>
        <path id="DejaVuSans-39" d="M 703 97 
L 703 672 
Q 941 559 1184 500 
Q 1428 441 1663 441 
Q 2288 441 2617 861 
Q 2947 1281 2994 2138 
Q 2813 1869 2534 1725 
Q 2256 1581 1919 1581 
Q 1219 1581 811 2004 
Q 403 2428 403 3163 
Q 403 3881 828 4315 
Q 1253 4750 1959 4750 
Q 2769 4750 3195 4129 
Q 3622 3509 3622 2328 
Q 3622 1225 3098 567 
Q 2575 -91 1691 -91 
Q 1453 -91 1209 -44 
Q 966 3 703 97 
z
M 1959 2075 
Q 2384 2075 2632 2365 
Q 2881 2656 2881 3163 
Q 2881 3666 2632 3958 
Q 2384 4250 1959 4250 
Q 1534 4250 1286 3958 
Q 1038 3666 1038 3163 
Q 1038 2656 1286 2365 
Q 1534 2075 1959 2075 
z
" transform="scale(0.015625)"/>
        <path id="DejaVuSans-65" d="M 3597 1894 
L 3597 1613 
L 953 1613 
Q 991 1019 1311 708 
Q 1631 397 2203 397 
Q 2534 397 2845 478 
Q 3156 559 3463 722 
L 3463 178 
Q 3153 47 2828 -22 
Q 2503 -91 2169 -91 
Q 1331 -91 842 396 
Q 353 884 353 1716 
Q 353 2575 817 3079 
Q 1281 3584 2069 3584 
Q 2775 3584 3186 3129 
Q 3597 2675 3597 1894 
z
M 3022 2063 
Q 3016 2534 2758 2815 
Q 2500 3097 2075 3097 
Q 1594 3097 1305 2825 
Q 1016 2553 972 2059 
L 3022 2063 
z
" transform="scale(0.015625)"/>
        <path id="DejaVuSans-2d" d="M 313 2009 
L 1997 2009 
L 1997 1497 
L 313 1497 
L 313 2009 
z
" transform="scale(0.015625)"/>
       </defs>
       <use xlink:href="#DejaVuSans-31"/>
       <use xlink:href="#DejaVuSans-2e" transform="translate(63.623047 0)"/>
       <use xlink:href="#DejaVuSans-33" transform="translate(95.410156 0)"/>
       <use xlink:href="#DejaVuSans-39" transform="translate(159.033203 0)"/>
       <use xlink:href="#DejaVuSans-65" transform="translate(222.65625 0)"/>
       <use xlink:href="#DejaVuSans-2d" transform="translate(284.179688 0)"/>
       <use xlink:href="#DejaVuSans-31" transform="translate(320.263672 0)"/>
       <use xlink:href="#DejaVuSans-33" transform="translate(383.886719 0)"/>
      </g>
     </g>
    </g>
    <g id="ytick_9">
     <g id="line2d_28">
      <g>
       <use xlink:href="#m48b544df30" x="374.4576" y="238.61071" style="stroke: #000000; stroke-width: 0.8"/>
      </g>
     </g>
     <g id="text_17">
      <!-- 6.66e-11 -->
      <g transform="translate(381.4576 242.409929) scale(0.1 -0.1)">
       <use xlink:href="#DejaVuSans-36"/>
       <use xlink:href="#DejaVuSans-2e" transform="translate(63.623047 0)"/>
       <use xlink:href="#DejaVuSans-36" transform="translate(95.410156 0)"/>
       <use xlink:href="#DejaVuSans-36" transform="translate(159.033203 0)"/>
       <use xlink:href="#DejaVuSans-65" transform="translate(222.65625 0)"/>
       <use xlink:href="#DejaVuSans-2d" transform="translate(284.179688 0)"/>
       <use xlink:href="#DejaVuSans-31" transform="translate(320.263672 0)"/>
       <use xlink:href="#DejaVuSans-31" transform="translate(383.886719 0)"/>
      </g>
     </g>
    </g>
    <g id="ytick_10">
     <g id="line2d_29">
      <g>
       <use xlink:href="#m48b544df30" x="374.4576" y="200.424821" style="stroke: #000000; stroke-width: 0.8"/>
      </g>
     </g>
     <g id="text_18">
      <!-- 4.21e-09 -->
      <g transform="translate(381.4576 204.22404) scale(0.1 -0.1)">
       <use xlink:href="#DejaVuSans-34"/>
       <use xlink:href="#DejaVuSans-2e" transform="translate(63.623047 0)"/>
       <use xlink:href="#DejaVuSans-32" transform="translate(95.410156 0)"/>
       <use xlink:href="#DejaVuSans-31" transform="translate(159.033203 0)"/>
       <use xlink:href="#DejaVuSans-65" transform="translate(222.65625 0)"/>
       <use xlink:href="#DejaVuSans-2d" transform="translate(284.179688 0)"/>
       <use xlink:href="#DejaVuSans-30" transform="translate(320.263672 0)"/>
       <use xlink:href="#DejaVuSans-39" transform="translate(383.886719 0)"/>
      </g>
     </g>
    </g>
    <g id="ytick_11">
     <g id="line2d_30">
      <g>
       <use xlink:href="#m48b544df30" x="374.4576" y="168.379498" style="stroke: #000000; stroke-width: 0.8"/>
      </g>
     </g>
     <g id="text_19">
      <!-- 1.37e-07 -->
      <g transform="translate(381.4576 172.178717) scale(0.1 -0.1)">
       <use xlink:href="#DejaVuSans-31"/>
       <use xlink:href="#DejaVuSans-2e" transform="translate(63.623047 0)"/>
       <use xlink:href="#DejaVuSans-33" transform="translate(95.410156 0)"/>
       <use xlink:href="#DejaVuSans-37" transform="translate(159.033203 0)"/>
       <use xlink:href="#DejaVuSans-65" transform="translate(222.65625 0)"/>
       <use xlink:href="#DejaVuSans-2d" transform="translate(284.179688 0)"/>
       <use xlink:href="#DejaVuSans-30" transform="translate(320.263672 0)"/>
       <use xlink:href="#DejaVuSans-37" transform="translate(383.886719 0)"/>
      </g>
     </g>
    </g>
    <g id="ytick_12">
     <g id="line2d_31">
      <g>
       <use xlink:href="#m48b544df30" x="374.4576" y="141.721981" style="stroke: #000000; stroke-width: 0.8"/>
      </g>
     </g>
     <g id="text_20">
      <!-- 2.47e-06 -->
      <g transform="translate(381.4576 145.5212) scale(0.1 -0.1)">
       <use xlink:href="#DejaVuSans-32"/>
       <use xlink:href="#DejaVuSans-2e" transform="translate(63.623047 0)"/>
       <use xlink:href="#DejaVuSans-34" transform="translate(95.410156 0)"/>
       <use xlink:href="#DejaVuSans-37" transform="translate(159.033203 0)"/>
       <use xlink:href="#DejaVuSans-65" transform="translate(222.65625 0)"/>
       <use xlink:href="#DejaVuSans-2d" transform="translate(284.179688 0)"/>
       <use xlink:href="#DejaVuSans-30" transform="translate(320.263672 0)"/>
       <use xlink:href="#DejaVuSans-36" transform="translate(383.886719 0)"/>
      </g>
     </g>
    </g>
    <g id="ytick_13">
     <g id="line2d_32">
      <g>
       <use xlink:href="#m48b544df30" x="374.4576" y="120.172123" style="stroke: #000000; stroke-width: 0.8"/>
      </g>
     </g>
     <g id="text_21">
      <!-- 2.56e-05 -->
      <g transform="translate(381.4576 123.971342) scale(0.1 -0.1)">
       <use xlink:href="#DejaVuSans-32"/>
       <use xlink:href="#DejaVuSans-2e" transform="translate(63.623047 0)"/>
       <use xlink:href="#DejaVuSans-35" transform="translate(95.410156 0)"/>
       <use xlink:href="#DejaVuSans-36" transform="translate(159.033203 0)"/>
       <use xlink:href="#DejaVuSans-65" transform="translate(222.65625 0)"/>
       <use xlink:href="#DejaVuSans-2d" transform="translate(284.179688 0)"/>
       <use xlink:href="#DejaVuSans-30" transform="translate(320.263672 0)"/>
       <use xlink:href="#DejaVuSans-35" transform="translate(383.886719 0)"/>
      </g>
     </g>
    </g>
    <g id="ytick_14">
     <g id="line2d_33">
      <g>
       <use xlink:href="#m48b544df30" x="374.4576" y="100.765365" style="stroke: #000000; stroke-width: 0.8"/>
      </g>
     </g>
     <g id="text_22">
      <!-- 0.000211 -->
      <g transform="translate(381.4576 104.564584) scale(0.1 -0.1)">
       <use xlink:href="#DejaVuSans-30"/>
       <use xlink:href="#DejaVuSans-2e" transform="translate(63.623047 0)"/>
       <use xlink:href="#DejaVuSans-30" transform="translate(95.410156 0)"/>
       <use xlink:href="#DejaVuSans-30" transform="translate(159.033203 0)"/>
       <use xlink:href="#DejaVuSans-30" transform="translate(222.65625 0)"/>
       <use xlink:href="#DejaVuSans-32" transform="translate(286.279297 0)"/>
       <use xlink:href="#DejaVuSans-31" transform="translate(349.902344 0)"/>
       <use xlink:href="#DejaVuSans-31" transform="translate(413.525391 0)"/>
      </g>
     </g>
    </g>
    <g id="ytick_15">
     <g id="line2d_34">
      <g>
       <use xlink:href="#m48b544df30" x="374.4576" y="82.58308" style="stroke: #000000; stroke-width: 0.8"/>
      </g>
     </g>
     <g id="text_23">
      <!-- 0.00152 -->
      <g transform="translate(381.4576 86.382299) scale(0.1 -0.1)">
       <use xlink:href="#DejaVuSans-30"/>
       <use xlink:href="#DejaVuSans-2e" transform="translate(63.623047 0)"/>
       <use xlink:href="#DejaVuSans-30" transform="translate(95.410156 0)"/>
       <use xlink:href="#DejaVuSans-30" transform="translate(159.033203 0)"/>
       <use xlink:href="#DejaVuSans-31" transform="translate(222.65625 0)"/>
       <use xlink:href="#DejaVuSans-35" transform="translate(286.279297 0)"/>
       <use xlink:href="#DejaVuSans-32" transform="translate(349.902344 0)"/>
      </g>
     </g>
    </g>
    <g id="ytick_16">
     <g id="line2d_35">
      <g>
       <use xlink:href="#m48b544df30" x="374.4576" y="67.446259" style="stroke: #000000; stroke-width: 0.8"/>
      </g>
     </g>
     <g id="text_24">
      <!-- 0.00785 -->
      <g transform="translate(381.4576 71.245478) scale(0.1 -0.1)">
       <defs>
        <path id="DejaVuSans-38" d="M 2034 2216 
Q 1584 2216 1326 1975 
Q 1069 1734 1069 1313 
Q 1069 891 1326 650 
Q 1584 409 2034 409 
Q 2484 409 2743 651 
Q 3003 894 3003 1313 
Q 3003 1734 2745 1975 
Q 2488 2216 2034 2216 
z
M 1403 2484 
Q 997 2584 770 2862 
Q 544 3141 544 3541 
Q 544 4100 942 4425 
Q 1341 4750 2034 4750 
Q 2731 4750 3128 4425 
Q 3525 4100 3525 3541 
Q 3525 3141 3298 2862 
Q 3072 2584 2669 2484 
Q 3125 2378 3379 2068 
Q 3634 1759 3634 1313 
Q 3634 634 3220 271 
Q 2806 -91 2034 -91 
Q 1263 -91 848 271 
Q 434 634 434 1313 
Q 434 1759 690 2068 
Q 947 2378 1403 2484 
z
M 1172 3481 
Q 1172 3119 1398 2916 
Q 1625 2713 2034 2713 
Q 2441 2713 2670 2916 
Q 2900 3119 2900 3481 
Q 2900 3844 2670 4047 
Q 2441 4250 2034 4250 
Q 1625 4250 1398 4047 
Q 1172 3844 1172 3481 
z
" transform="scale(0.015625)"/>
       </defs>
       <use xlink:href="#DejaVuSans-30"/>
       <use xlink:href="#DejaVuSans-2e" transform="translate(63.623047 0)"/>
       <use xlink:href="#DejaVuSans-30" transform="translate(95.410156 0)"/>
       <use xlink:href="#DejaVuSans-30" transform="translate(159.033203 0)"/>
       <use xlink:href="#DejaVuSans-37" transform="translate(222.65625 0)"/>
       <use xlink:href="#DejaVuSans-38" transform="translate(286.279297 0)"/>
       <use xlink:href="#DejaVuSans-35" transform="translate(349.902344 0)"/>
      </g>
     </g>
    </g>
    <g id="ytick_17">
     <g id="line2d_36">
      <g>
       <use xlink:href="#m48b544df30" x="374.4576" y="53.568" style="stroke: #000000; stroke-width: 0.8"/>
      </g>
     </g>
     <g id="text_25">
      <!-- 0.0354 -->
      <g transform="translate(381.4576 57.367219) scale(0.1 -0.1)">
       <use xlink:href="#DejaVuSans-30"/>
       <use xlink:href="#DejaVuSans-2e" transform="translate(63.623047 0)"/>
       <use xlink:href="#DejaVuSans-30" transform="translate(95.410156 0)"/>
       <use xlink:href="#DejaVuSans-33" transform="translate(159.033203 0)"/>
       <use xlink:href="#DejaVuSans-35" transform="translate(222.65625 0)"/>
       <use xlink:href="#DejaVuSans-34" transform="translate(286.279297 0)"/>
      </g>
     </g>
    </g>
   </g>
   <g id="LineCollection_1"/>
   <g id="LineCollection_2">
    <path d="M 361.152 295.488 
L 374.4576 295.488 
" clip-path="url(#p75c4c9a631)" style="fill: none; stroke: #440154; stroke-opacity: 0.996094"/>
    <path d="M 361.152 238.61071 
L 374.4576 238.61071 
" clip-path="url(#p75c4c9a631)" style="fill: none; stroke: #3d4e8a; stroke-opacity: 0.996094"/>
    <path d="M 361.152 200.424821 
L 374.4576 200.424821 
" clip-path="url(#p75c4c9a631)" style="fill: none; stroke: #2a768e; stroke-opacity: 0.996094"/>
    <path d="M 361.152 168.379498 
L 374.4576 168.379498 
" clip-path="url(#p75c4c9a631)" style="fill: none; stroke: #1f968b; stroke-opacity: 0.996094"/>
    <path d="M 361.152 141.721981 
L 374.4576 141.721981 
" clip-path="url(#p75c4c9a631)" style="fill: none; stroke: #2ab07f; stroke-opacity: 0.996094"/>
    <path d="M 361.152 120.172123 
L 374.4576 120.172123 
" clip-path="url(#p75c4c9a631)" style="fill: none; stroke: #50c46a; stroke-opacity: 0.996094"/>
    <path d="M 361.152 100.765365 
L 374.4576 100.765365 
" clip-path="url(#p75c4c9a631)" style="fill: none; stroke: #7fd34e; stroke-opacity: 0.996094"/>
    <path d="M 361.152 82.58308 
L 374.4576 82.58308 
" clip-path="url(#p75c4c9a631)" style="fill: none; stroke: #b0dd2f; stroke-opacity: 0.996094"/>
    <path d="M 361.152 67.446259 
L 374.4576 67.446259 
" clip-path="url(#p75c4c9a631)" style="fill: none; stroke: #dae319; stroke-opacity: 0.996094"/>
    <path d="M 361.152 53.568 
L 374.4576 53.568 
" clip-path="url(#p75c4c9a631)" style="fill: none; stroke: #fde725; stroke-opacity: 0.996094"/>
   </g>
   <g id="patch_8">
    <path d="M 361.152 295.488 
L 367.8048 307.584 
L 374.4576 295.488 
L 374.4576 53.568 
L 367.8048 41.472 
L 361.152 53.568 
L 361.152 295.488 
z
" style="fill: none; stroke: #000000; stroke-width: 0.8; stroke-linejoin: miter; stroke-linecap: square"/>
   </g>
  </g>
  <g id="text_26">
   <!-- X0 iso-PDF -->
   <g transform="translate(198.135938 16.030125) scale(0.12 -0.12)">
    <defs>
     <path id="DejaVuSans-20" transform="scale(0.015625)"/>
     <path id="DejaVuSans-69" d="M 603 3500 
L 1178 3500 
L 1178 0 
L 603 0 
L 603 3500 
z
M 603 4863 
L 1178 4863 
L 1178 4134 
L 603 4134 
L 603 4863 
z
" transform="scale(0.015625)"/>
     <path id="DejaVuSans-73" d="M 2834 3397 
L 2834 2853 
Q 2591 2978 2328 3040 
Q 2066 3103 1784 3103 
Q 1356 3103 1142 2972 
Q 928 2841 928 2578 
Q 928 2378 1081 2264 
Q 1234 2150 1697 2047 
L 1894 2003 
Q 2506 1872 2764 1633 
Q 3022 1394 3022 966 
Q 3022 478 2636 193 
Q 2250 -91 1575 -91 
Q 1294 -91 989 -36 
Q 684 19 347 128 
L 347 722 
Q 666 556 975 473 
Q 1284 391 1588 391 
Q 1994 391 2212 530 
Q 2431 669 2431 922 
Q 2431 1156 2273 1281 
Q 2116 1406 1581 1522 
L 1381 1569 
Q 847 1681 609 1914 
Q 372 2147 372 2553 
Q 372 3047 722 3315 
Q 1072 3584 1716 3584 
Q 2034 3584 2315 3537 
Q 2597 3491 2834 3397 
z
" transform="scale(0.015625)"/>
     <path id="DejaVuSans-6f" d="M 1959 3097 
Q 1497 3097 1228 2736 
Q 959 2375 959 1747 
Q 959 1119 1226 758 
Q 1494 397 1959 397 
Q 2419 397 2687 759 
Q 2956 1122 2956 1747 
Q 2956 2369 2687 2733 
Q 2419 3097 1959 3097 
z
M 1959 3584 
Q 2709 3584 3137 3096 
Q 3566 2609 3566 1747 
Q 3566 888 3137 398 
Q 2709 -91 1959 -91 
Q 1206 -91 779 398 
Q 353 888 353 1747 
Q 353 2609 779 3096 
Q 1206 3584 1959 3584 
z
" transform="scale(0.015625)"/>
     <path id="DejaVuSans-50" d="M 1259 4147 
L 1259 2394 
L 2053 2394 
Q 2494 2394 2734 2622 
Q 2975 2850 2975 3272 
Q 2975 3691 2734 3919 
Q 2494 4147 2053 4147 
L 1259 4147 
z
M 628 4666 
L 2053 4666 
Q 2838 4666 3239 4311 
Q 3641 3956 3641 3272 
Q 3641 2581 3239 2228 
Q 2838 1875 2053 1875 
L 1259 1875 
L 1259 0 
L 628 0 
L 628 4666 
z
" transform="scale(0.015625)"/>
     <path id="DejaVuSans-44" d="M 1259 4147 
L 1259 519 
L 2022 519 
Q 2988 519 3436 956 
Q 3884 1394 3884 2338 
Q 3884 3275 3436 3711 
Q 2988 4147 2022 4147 
L 1259 4147 
z
M 628 4666 
L 1925 4666 
Q 3281 4666 3915 4102 
Q 4550 3538 4550 2338 
Q 4550 1131 3912 565 
Q 3275 0 1925 0 
L 628 0 
L 628 4666 
z
" transform="scale(0.015625)"/>
     <path id="DejaVuSans-46" d="M 628 4666 
L 3309 4666 
L 3309 4134 
L 1259 4134 
L 1259 2759 
L 3109 2759 
L 3109 2228 
L 1259 2228 
L 1259 0 
L 628 0 
L 628 4666 
z
" transform="scale(0.015625)"/>
    </defs>
    <use xlink:href="#DejaVuSans-58"/>
    <use xlink:href="#DejaVuSans-30" transform="translate(68.505859 0)"/>
    <use xlink:href="#DejaVuSans-20" transform="translate(132.128906 0)"/>
    <use xlink:href="#DejaVuSans-69" transform="translate(163.916016 0)"/>
    <use xlink:href="#DejaVuSans-73" transform="translate(191.699219 0)"/>
    <use xlink:href="#DejaVuSans-6f" transform="translate(243.798828 0)"/>
    <use xlink:href="#DejaVuSans-2d" transform="translate(306.855469 0)"/>
    <use xlink:href="#DejaVuSans-50" transform="translate(342.939453 0)"/>
    <use xlink:href="#DejaVuSans-44" transform="translate(403.242188 0)"/>
    <use xlink:href="#DejaVuSans-46" transform="translate(480.244141 0)"/>
   </g>
  </g>
 </g>
 <defs>
  <clipPath id="pf18da1b327">
   <rect x="57.6" y="41.472" width="285.696" height="266.112"/>
  </clipPath>
  <clipPath id="p75c4c9a631">
   <path d="M 361.152 296.397091 
L 374.4576 296.397091 
L 374.4576 52.658909 
L 361.152 52.658909 
z
"/>
  </clipPath>
 </defs>
</svg>
