<?xml version="1.0" encoding="utf-8" standalone="no"?>
<!DOCTYPE svg PUBLIC "-//W3C//DTD SVG 1.1//EN"
  "http://www.w3.org/Graphics/SVG/1.1/DTD/svg11.dtd">
<svg xmlns:xlink="http://www.w3.org/1999/xlink" width="460.8pt" height="345.6pt" viewBox="0 0 460.8 345.6" xmlns="http://www.w3.org/2000/svg" version="1.1">
 <metadata>
  <rdf:RDF xmlns:dc="http://purl.org/dc/elements/1.1/" xmlns:cc="http://creativecommons.org/ns#" xmlns:rdf="http://www.w3.org/1999/02/22-rdf-syntax-ns#">
   <cc:Work>
    <dc:type rdf:resource="http://purl.org/dc/dcmitype/StillImage"/>
    <dc:date>2025-11-24T14:15:15.463872</dc:date>
    <dc:format>image/svg+xml</dc:format>
    <dc:creator>
     <cc:Agent>
      <dc:title>Matplotlib v3.10.8, https://matplotlib.org/</dc:title>
     </cc:Agent>
    </dc:creator>
   </cc:Work>
  </rdf:RDF>
 </metadata>
 <defs>
  <style type="text/css">*{stroke-linejoin: round; stroke-linecap: butt}</style>
 </defs>
 <g id="figure_1">
  <g id="patch_1">
   <path d="M 0 345.6 
L 460.8 345.6 
L 460.8 0 
L 0 0 
z
" style="fill: #ffffff"/>
  </g>
  <g id="axes_1">
   <g id="patch_2">
    <path d="M 57.6 307.584 
L 414.72 307.584 
L 414.72 41.472 
L 57.6 41.472 
z
" style="fill: #ffffff"/>
   </g>
   <g id="matplotlib.axis_1">
    <g id="xtick_1">
     <g id="line2d_1">
      <path d="M 73.832727 307.584 
L 73.832727 41.472 
" clip-path="url(#p42b162fbbb)" style="fill: none; stroke: #b0b0b0; stroke-width: 0.8; stroke-linecap: square"/>
     </g>
     <g id="line2d_2">
      <defs>
       <path id="mc2593812f8" d="M 0 0 
L 0 3.5 
" style="stroke: #000000; stroke-width: 0.8"/>
      </defs>
      <g>
       <use xlink:href="#mc2593812f8" x="73.832727" y="307.584" style="stroke: #000000; stroke-width: 0.8"/>
      </g>
     </g>
     <g id="text_1">
      <!-- −1.00 -->
      <g transform="translate(58.510071 322.182437) scale(0.1 -0.1)">
       <defs>
        <path id="DejaVuSans-2212" d="M 678 2272 
L 4684 2272 
L 4684 1741 
L 678 1741 
L 678 2272 
z
" transform="scale(0.015625)"/>
        <path id="DejaVuSans-31" d="M 794 531 
L 1825 531 
L 1825 4091 
L 703 3866 
L 703 4441 
L 1819 4666 
L 2450 4666 
L 2450 531 
L 3481 531 
L 3481 0 
L 794 0 
L 794 531 
z
" transform="scale(0.015625)"/>
        <path id="DejaVuSans-2e" d="M 684 794 
L 1344 794 
L 1344 0 
L 684 0 
L 684 794 
z
" transform="scale(0.015625)"/>
        <path id="DejaVuSans-30" d="M 2034 4250 
Q 1547 4250 1301 3770 
Q 1056 3291 1056 2328 
Q 1056 1369 1301 889 
Q 1547 409 2034 409 
Q 2525 409 2770 889 
Q 3016 1369 3016 2328 
Q 3016 3291 2770 3770 
Q 2525 4250 2034 4250 
z
M 2034 4750 
Q 2819 4750 3233 4129 
Q 3647 3509 3647 2328 
Q 3647 1150 3233 529 
Q 2819 -91 2034 -91 
Q 1250 -91 836 529 
Q 422 1150 422 2328 
Q 422 3509 836 4129 
Q 1250 4750 2034 4750 
z
" transform="scale(0.015625)"/>
       </defs>
       <use xlink:href="#DejaVuSans-2212"/>
       <use xlink:href="#DejaVuSans-31" transform="translate(83.789062 0)"/>
       <use xlink:href="#DejaVuSans-2e" transform="translate(147.412109 0)"/>
       <use xlink:href="#DejaVuSans-30" transform="translate(179.199219 0)"/>
       <use xlink:href="#DejaVuSans-30" transform="translate(242.822266 0)"/>
      </g>
     </g>
    </g>
    <g id="xtick_2">
     <g id="line2d_3">
      <path d="M 114.820364 307.584 
L 114.820364 41.472 
" clip-path="url(#p42b162fbbb)" style="fill: none; stroke: #b0b0b0; stroke-width: 0.8; stroke-linecap: square"/>
     </g>
     <g id="line2d_4">
      <g>
       <use xlink:href="#mc2593812f8" x="114.820364" y="307.584" style="stroke: #000000; stroke-width: 0.8"/>
      </g>
     </g>
     <g id="text_2">
      <!-- −0.75 -->
      <g transform="translate(99.497707 322.182437) scale(0.1 -0.1)">
       <defs>
        <path id="DejaVuSans-37" d="M 525 4666 
L 3525 4666 
L 3525 4397 
L 1831 0 
L 1172 0 
L 2766 4134 
L 525 4134 
L 525 4666 
z
" transform="scale(0.015625)"/>
        <path id="DejaVuSans-35" d="M 691 4666 
L 3169 4666 
L 3169 4134 
L 1269 4134 
L 1269 2991 
Q 1406 3038 1543 3061 
Q 1681 3084 1819 3084 
Q 2600 3084 3056 2656 
Q 3513 2228 3513 1497 
Q 3513 744 3044 326 
Q 2575 -91 1722 -91 
Q 1428 -91 1123 -41 
Q 819 9 494 109 
L 494 744 
Q 775 591 1075 516 
Q 1375 441 1709 441 
Q 2250 441 2565 725 
Q 2881 1009 2881 1497 
Q 2881 1984 2565 2268 
Q 2250 2553 1709 2553 
Q 1456 2553 1204 2497 
Q 953 2441 691 2322 
L 691 4666 
z
" transform="scale(0.015625)"/>
       </defs>
       <use xlink:href="#DejaVuSans-2212"/>
       <use xlink:href="#DejaVuSans-30" transform="translate(83.789062 0)"/>
       <use xlink:href="#DejaVuSans-2e" transform="translate(147.412109 0)"/>
       <use xlink:href="#DejaVuSans-37" transform="translate(179.199219 0)"/>
       <use xlink:href="#DejaVuSans-35" transform="translate(242.822266 0)"/>
      </g>
     </g>
    </g>
    <g id="xtick_3">
     <g id="line2d_5">
      <path d="M 155.808 307.584 
L 155.808 41.472 
" clip-path="url(#p42b162fbbb)" style="fill: none; stroke: #b0b0b0; stroke-width: 0.8; stroke-linecap: square"/>
     </g>
     <g id="line2d_6">
      <g>
       <use xlink:href="#mc2593812f8" x="155.808" y="307.584" style="stroke: #000000; stroke-width: 0.8"/>
      </g>
     </g>
     <g id="text_3">
      <!-- −0.50 -->
      <g transform="translate(140.485344 322.182437) scale(0.1 -0.1)">
       <use xlink:href="#DejaVuSans-2212"/>
       <use xlink:href="#DejaVuSans-30" transform="translate(83.789062 0)"/>
       <use xlink:href="#DejaVuSans-2e" transform="translate(147.412109 0)"/>
       <use xlink:href="#DejaVuSans-35" transform="translate(179.199219 0)"/>
       <use xlink:href="#DejaVuSans-30" transform="translate(242.822266 0)"/>
      </g>
     </g>
    </g>
    <g id="xtick_4">
     <g id="line2d_7">
      <path d="M 196.795636 307.584 
L 196.795636 41.472 
" clip-path="url(#p42b162fbbb)" style="fill: none; stroke: #b0b0b0; stroke-width: 0.8; stroke-linecap: square"/>
     </g>
     <g id="line2d_8">
      <g>
       <use xlink:href="#mc2593812f8" x="196.795636" y="307.584" style="stroke: #000000; stroke-width: 0.8"/>
      </g>
     </g>
     <g id="text_4">
      <!-- −0.25 -->
      <g transform="translate(181.47298 322.182437) scale(0.1 -0.1)">
       <defs>
        <path id="DejaVuSans-32" d="M 1228 531 
L 3431 531 
L 3431 0 
L 469 0 
L 469 531 
Q 828 903 1448 1529 
Q 2069 2156 2228 2338 
Q 2531 2678 2651 2914 
Q 2772 3150 2772 3378 
Q 2772 3750 2511 3984 
Q 2250 4219 1831 4219 
Q 1534 4219 1204 4116 
Q 875 4013 500 3803 
L 500 4441 
Q 881 4594 1212 4672 
Q 1544 4750 1819 4750 
Q 2544 4750 2975 4387 
Q 3406 4025 3406 3419 
Q 3406 3131 3298 2873 
Q 3191 2616 2906 2266 
Q 2828 2175 2409 1742 
Q 1991 1309 1228 531 
z
" transform="scale(0.015625)"/>
       </defs>
       <use xlink:href="#DejaVuSans-2212"/>
       <use xlink:href="#DejaVuSans-30" transform="translate(83.789062 0)"/>
       <use xlink:href="#DejaVuSans-2e" transform="translate(147.412109 0)"/>
       <use xlink:href="#DejaVuSans-32" transform="translate(179.199219 0)"/>
       <use xlink:href="#DejaVuSans-35" transform="translate(242.822266 0)"/>
      </g>
     </g>
    </g>
    <g id="xtick_5">
     <g id="line2d_9">
      <path d="M 237.783273 307.584 
L 237.783273 41.472 
" clip-path="url(#p42b162fbbb)" style="fill: none; stroke: #b0b0b0; stroke-width: 0.8; stroke-linecap: square"/>
     </g>
     <g id="line2d_10">
      <g>
       <use xlink:href="#mc2593812f8" x="237.783273" y="307.584" style="stroke: #000000; stroke-width: 0.8"/>
      </g>
     </g>
     <g id="text_5">
      <!-- 0.00 -->
      <g transform="translate(226.65046 322.182437) scale(0.1 -0.1)">
       <use xlink:href="#DejaVuSans-30"/>
       <use xlink:href="#DejaVuSans-2e" transform="translate(63.623047 0)"/>
       <use xlink:href="#DejaVuSans-30" transform="translate(95.410156 0)"/>
       <use xlink:href="#DejaVuSans-30" transform="translate(159.033203 0)"/>
      </g>
     </g>
    </g>
    <g id="xtick_6">
     <g id="line2d_11">
      <path d="M 278.770909 307.584 
L 278.770909 41.472 
" clip-path="url(#p42b162fbbb)" style="fill: none; stroke: #b0b0b0; stroke-width: 0.8; stroke-linecap: square"/>
     </g>
     <g id="line2d_12">
      <g>
       <use xlink:href="#mc2593812f8" x="278.770909" y="307.584" style="stroke: #000000; stroke-width: 0.8"/>
      </g>
     </g>
     <g id="text_6">
      <!-- 0.25 -->
      <g transform="translate(267.638097 322.182437) scale(0.1 -0.1)">
       <use xlink:href="#DejaVuSans-30"/>
       <use xlink:href="#DejaVuSans-2e" transform="translate(63.623047 0)"/>
       <use xlink:href="#DejaVuSans-32" transform="translate(95.410156 0)"/>
       <use xlink:href="#DejaVuSans-35" transform="translate(159.033203 0)"/>
      </g>
     </g>
    </g>
    <g id="xtick_7">
     <g id="line2d_13">
      <path d="M 319.758545 307.584 
L 319.758545 41.472 
" clip-path="url(#p42b162fbbb)" style="fill: none; stroke: #b0b0b0; stroke-width: 0.8; stroke-linecap: square"/>
     </g>
     <g id="line2d_14">
      <g>
       <use xlink:href="#mc2593812f8" x="319.758545" y="307.584" style="stroke: #000000; stroke-width: 0.8"/>
      </g>
     </g>
     <g id="text_7">
      <!-- 0.50 -->
      <g transform="translate(308.625733 322.182437) scale(0.1 -0.1)">
       <use xlink:href="#DejaVuSans-30"/>
       <use xlink:href="#DejaVuSans-2e" transform="translate(63.623047 0)"/>
       <use xlink:href="#DejaVuSans-35" transform="translate(95.410156 0)"/>
       <use xlink:href="#DejaVuSans-30" transform="translate(159.033203 0)"/>
      </g>
     </g>
    </g>
    <g id="xtick_8">
     <g id="line2d_15">
      <path d="M 360.746182 307.584 
L 360.746182 41.472 
" clip-path="url(#p42b162fbbb)" style="fill: none; stroke: #b0b0b0; stroke-width: 0.8; stroke-linecap: square"/>
     </g>
     <g id="line2d_16">
      <g>
       <use xlink:href="#mc2593812f8" x="360.746182" y="307.584" style="stroke: #000000; stroke-width: 0.8"/>
      </g>
     </g>
     <g id="text_8">
      <!-- 0.75 -->
      <g transform="translate(349.613369 322.182437) scale(0.1 -0.1)">
       <use xlink:href="#DejaVuSans-30"/>
       <use xlink:href="#DejaVuSans-2e" transform="translate(63.623047 0)"/>
       <use xlink:href="#DejaVuSans-37" transform="translate(95.410156 0)"/>
       <use xlink:href="#DejaVuSans-35" transform="translate(159.033203 0)"/>
      </g>
     </g>
    </g>
    <g id="xtick_9">
     <g id="line2d_17">
      <path d="M 401.733818 307.584 
L 401.733818 41.472 
" clip-path="url(#p42b162fbbb)" style="fill: none; stroke: #b0b0b0; stroke-width: 0.8; stroke-linecap: square"/>
     </g>
     <g id="line2d_18">
      <g>
       <use xlink:href="#mc2593812f8" x="401.733818" y="307.584" style="stroke: #000000; stroke-width: 0.8"/>
      </g>
     </g>
     <g id="text_9">
      <!-- 1.00 -->
      <g transform="translate(390.601006 322.182437) scale(0.1 -0.1)">
       <use xlink:href="#DejaVuSans-31"/>
       <use xlink:href="#DejaVuSans-2e" transform="translate(63.623047 0)"/>
       <use xlink:href="#DejaVuSans-30" transform="translate(95.410156 0)"/>
       <use xlink:href="#DejaVuSans-30" transform="translate(159.033203 0)"/>
      </g>
     </g>
    </g>
    <g id="text_10">
     <!-- z -->
     <g transform="translate(233.535781 335.860562) scale(0.1 -0.1)">
      <defs>
       <path id="DejaVuSans-7a" d="M 353 3500 
L 3084 3500 
L 3084 2975 
L 922 459 
L 3084 459 
L 3084 0 
L 275 0 
L 275 525 
L 2438 3041 
L 353 3041 
L 353 3500 
z
" transform="scale(0.015625)"/>
      </defs>
      <use xlink:href="#DejaVuSans-7a"/>
     </g>
    </g>
   </g>
   <g id="matplotlib.axis_2">
    <g id="ytick_1">
     <g id="line2d_19">
      <path d="M 57.6 259.432403 
L 414.72 259.432403 
" clip-path="url(#p42b162fbbb)" style="fill: none; stroke: #b0b0b0; stroke-width: 0.8; stroke-linecap: square"/>
     </g>
     <g id="line2d_20">
      <defs>
       <path id="m495b6aa0e8" d="M 0 0 
L -3.5 0 
" style="stroke: #000000; stroke-width: 0.8"/>
      </defs>
      <g>
       <use xlink:href="#m495b6aa0e8" x="57.6" y="259.432403" style="stroke: #000000; stroke-width: 0.8"/>
      </g>
     </g>
     <g id="text_11">
      <!-- −5 -->
      <g transform="translate(35.857813 263.231622) scale(0.1 -0.1)">
       <use xlink:href="#DejaVuSans-2212"/>
       <use xlink:href="#DejaVuSans-35" transform="translate(83.789062 0)"/>
      </g>
     </g>
    </g>
    <g id="ytick_2">
     <g id="line2d_21">
      <path d="M 57.6 202.618186 
L 414.72 202.618186 
" clip-path="url(#p42b162fbbb)" style="fill: none; stroke: #b0b0b0; stroke-width: 0.8; stroke-linecap: square"/>
     </g>
     <g id="line2d_22">
      <g>
       <use xlink:href="#m495b6aa0e8" x="57.6" y="202.618186" style="stroke: #000000; stroke-width: 0.8"/>
      </g>
     </g>
     <g id="text_12">
      <!-- 0 -->
      <g transform="translate(44.2375 206.417404) scale(0.1 -0.1)">
       <use xlink:href="#DejaVuSans-30"/>
      </g>
     </g>
    </g>
    <g id="ytick_3">
     <g id="line2d_23">
      <path d="M 57.6 145.803968 
L 414.72 145.803968 
" clip-path="url(#p42b162fbbb)" style="fill: none; stroke: #b0b0b0; stroke-width: 0.8; stroke-linecap: square"/>
     </g>
     <g id="line2d_24">
      <g>
       <use xlink:href="#m495b6aa0e8" x="57.6" y="145.803968" style="stroke: #000000; stroke-width: 0.8"/>
      </g>
     </g>
     <g id="text_13">
      <!-- 5 -->
      <g transform="translate(44.2375 149.603187) scale(0.1 -0.1)">
       <use xlink:href="#DejaVuSans-35"/>
      </g>
     </g>
    </g>
    <g id="ytick_4">
     <g id="line2d_25">
      <path d="M 57.6 88.98975 
L 414.72 88.98975 
" clip-path="url(#p42b162fbbb)" style="fill: none; stroke: #b0b0b0; stroke-width: 0.8; stroke-linecap: square"/>
     </g>
     <g id="line2d_26">
      <g>
       <use xlink:href="#m495b6aa0e8" x="57.6" y="88.98975" style="stroke: #000000; stroke-width: 0.8"/>
      </g>
     </g>
     <g id="text_14">
      <!-- 10 -->
      <g transform="translate(37.875 92.788969) scale(0.1 -0.1)">
       <use xlink:href="#DejaVuSans-31"/>
       <use xlink:href="#DejaVuSans-30" transform="translate(63.623047 0)"/>
      </g>
     </g>
    </g>
    <g id="text_15">
     <!-- polynomial values -->
     <g transform="translate(29.778125 219.902219) rotate(-90) scale(0.1 -0.1)">
      <defs>
       <path id="DejaVuSans-70" d="M 1159 525 
L 1159 -1331 
L 581 -1331 
L 581 3500 
L 1159 3500 
L 1159 2969 
Q 1341 3281 1617 3432 
Q 1894 3584 2278 3584 
Q 2916 3584 3314 3078 
Q 3713 2572 3713 1747 
Q 3713 922 3314 415 
Q 2916 -91 2278 -91 
Q 1894 -91 1617 61 
Q 1341 213 1159 525 
z
M 3116 1747 
Q 3116 2381 2855 2742 
Q 2594 3103 2138 3103 
Q 1681 3103 1420 2742 
Q 1159 2381 1159 1747 
Q 1159 1113 1420 752 
Q 1681 391 2138 391 
Q 2594 391 2855 752 
Q 3116 1113 3116 1747 
z
" transform="scale(0.015625)"/>
       <path id="DejaVuSans-6f" d="M 1959 3097 
Q 1497 3097 1228 2736 
Q 959 2375 959 1747 
Q 959 1119 1226 758 
Q 1494 397 1959 397 
Q 2419 397 2687 759 
Q 2956 1122 2956 1747 
Q 2956 2369 2687 2733 
Q 2419 3097 1959 3097 
z
M 1959 3584 
Q 2709 3584 3137 3096 
Q 3566 2609 3566 1747 
Q 3566 888 3137 398 
Q 2709 -91 1959 -91 
Q 1206 -91 779 398 
Q 353 888 353 1747 
Q 353 2609 779 3096 
Q 1206 3584 1959 3584 
z
" transform="scale(0.015625)"/>
       <path id="DejaVuSans-6c" d="M 603 4863 
L 1178 4863 
L 1178 0 
L 603 0 
L 603 4863 
z
" transform="scale(0.015625)"/>
       <path id="DejaVuSans-79" d="M 2059 -325 
Q 1816 -950 1584 -1140 
Q 1353 -1331 966 -1331 
L 506 -1331 
L 506 -850 
L 844 -850 
Q 1081 -850 1212 -737 
Q 1344 -625 1503 -206 
L 1606 56 
L 191 3500 
L 800 3500 
L 1894 763 
L 2988 3500 
L 3597 3500 
L 2059 -325 
z
" transform="scale(0.015625)"/>
       <path id="DejaVuSans-6e" d="M 3513 2113 
L 3513 0 
L 2938 0 
L 2938 2094 
Q 2938 2591 2744 2837 
Q 2550 3084 2163 3084 
Q 1697 3084 1428 2787 
Q 1159 2491 1159 1978 
L 1159 0 
L 581 0 
L 581 3500 
L 1159 3500 
L 1159 2956 
Q 1366 3272 1645 3428 
Q 1925 3584 2291 3584 
Q 2894 3584 3203 3211 
Q 3513 2838 3513 2113 
z
" transform="scale(0.015625)"/>
       <path id="DejaVuSans-6d" d="M 3328 2828 
Q 3544 3216 3844 3400 
Q 4144 3584 4550 3584 
Q 5097 3584 5394 3201 
Q 5691 2819 5691 2113 
L 5691 0 
L 5113 0 
L 5113 2094 
Q 5113 2597 4934 2840 
Q 4756 3084 4391 3084 
Q 3944 3084 3684 2787 
Q 3425 2491 3425 1978 
L 3425 0 
L 2847 0 
L 2847 2094 
Q 2847 2600 2669 2842 
Q 2491 3084 2119 3084 
Q 1678 3084 1418 2786 
Q 1159 2488 1159 1978 
L 1159 0 
L 581 0 
L 581 3500 
L 1159 3500 
L 1159 2956 
Q 1356 3278 1631 3431 
Q 1906 3584 2284 3584 
Q 2666 3584 2933 3390 
Q 3200 3197 3328 2828 
z
" transform="scale(0.015625)"/>
       <path id="DejaVuSans-69" d="M 603 3500 
L 1178 3500 
L 1178 0 
L 603 0 
L 603 3500 
z
M 603 4863 
L 1178 4863 
L 1178 4134 
L 603 4134 
L 603 4863 
z
" transform="scale(0.015625)"/>
       <path id="DejaVuSans-61" d="M 2194 1759 
Q 1497 1759 1228 1600 
Q 959 1441 959 1056 
Q 959 750 1161 570 
Q 1363 391 1709 391 
Q 2188 391 2477 730 
Q 2766 1069 2766 1631 
L 2766 1759 
L 2194 1759 
z
M 3341 1997 
L 3341 0 
L 2766 0 
L 2766 531 
Q 2569 213 2275 61 
Q 1981 -91 1556 -91 
Q 1019 -91 701 211 
Q 384 513 384 1019 
Q 384 1609 779 1909 
Q 1175 2209 1959 2209 
L 2766 2209 
L 2766 2266 
Q 2766 2663 2505 2880 
Q 2244 3097 1772 3097 
Q 1472 3097 1187 3025 
Q 903 2953 641 2809 
L 641 3341 
Q 956 3463 1253 3523 
Q 1550 3584 1831 3584 
Q 2591 3584 2966 3190 
Q 3341 2797 3341 1997 
z
" transform="scale(0.015625)"/>
       <path id="DejaVuSans-20" transform="scale(0.015625)"/>
       <path id="DejaVuSans-76" d="M 191 3500 
L 800 3500 
L 1894 563 
L 2988 3500 
L 3597 3500 
L 2284 0 
L 1503 0 
L 191 3500 
z
" transform="scale(0.015625)"/>
       <path id="DejaVuSans-75" d="M 544 1381 
L 544 3500 
L 1119 3500 
L 1119 1403 
Q 1119 906 1312 657 
Q 1506 409 1894 409 
Q 2359 409 2629 706 
Q 2900 1003 2900 1516 
L 2900 3500 
L 3475 3500 
L 3475 0 
L 2900 0 
L 2900 538 
Q 2691 219 2414 64 
Q 2138 -91 1772 -91 
Q 1169 -91 856 284 
Q 544 659 544 1381 
z
M 1991 3584 
L 1991 3584 
z
" transform="scale(0.015625)"/>
       <path id="DejaVuSans-65" d="M 3597 1894 
L 3597 1613 
L 953 1613 
Q 991 1019 1311 708 
Q 1631 397 2203 397 
Q 2534 397 2845 478 
Q 3156 559 3463 722 
L 3463 178 
Q 3153 47 2828 -22 
Q 2503 -91 2169 -91 
Q 1331 -91 842 396 
Q 353 884 353 1716 
Q 353 2575 817 3079 
Q 1281 3584 2069 3584 
Q 2775 3584 3186 3129 
Q 3597 2675 3597 1894 
z
M 3022 2063 
Q 3016 2534 2758 2815 
Q 2500 3097 2075 3097 
Q 1594 3097 1305 2825 
Q 1016 2553 972 2059 
L 3022 2063 
z
" transform="scale(0.015625)"/>
       <path id="DejaVuSans-73" d="M 2834 3397 
L 2834 2853 
Q 2591 2978 2328 3040 
Q 2066 3103 1784 3103 
Q 1356 3103 1142 2972 
Q 928 2841 928 2578 
Q 928 2378 1081 2264 
Q 1234 2150 1697 2047 
L 1894 2003 
Q 2506 1872 2764 1633 
Q 3022 1394 3022 966 
Q 3022 478 2636 193 
Q 2250 -91 1575 -91 
Q 1294 -91 989 -36 
Q 684 19 347 128 
L 347 722 
Q 666 556 975 473 
Q 1284 391 1588 391 
Q 1994 391 2212 530 
Q 2431 669 2431 922 
Q 2431 1156 2273 1281 
Q 2116 1406 1581 1522 
L 1381 1569 
Q 847 1681 609 1914 
Q 372 2147 372 2553 
Q 372 3047 722 3315 
Q 1072 3584 1716 3584 
Q 2034 3584 2315 3537 
Q 2597 3491 2834 3397 
z
" transform="scale(0.015625)"/>
      </defs>
      <use xlink:href="#DejaVuSans-70"/>
      <use xlink:href="#DejaVuSans-6f" transform="translate(63.476562 0)"/>
      <use xlink:href="#DejaVuSans-6c" transform="translate(124.658203 0)"/>
      <use xlink:href="#DejaVuSans-79" transform="translate(152.441406 0)"/>
      <use xlink:href="#DejaVuSans-6e" transform="translate(211.621094 0)"/>
      <use xlink:href="#DejaVuSans-6f" transform="translate(275 0)"/>
      <use xlink:href="#DejaVuSans-6d" transform="translate(336.181641 0)"/>
      <use xlink:href="#DejaVuSans-69" transform="translate(433.59375 0)"/>
      <use xlink:href="#DejaVuSans-61" transform="translate(461.376953 0)"/>
      <use xlink:href="#DejaVuSans-6c" transform="translate(522.65625 0)"/>
      <use xlink:href="#DejaVuSans-20" transform="translate(550.439453 0)"/>
      <use xlink:href="#DejaVuSans-76" transform="translate(582.226562 0)"/>
      <use xlink:href="#DejaVuSans-61" transform="translate(641.40625 0)"/>
      <use xlink:href="#DejaVuSans-6c" transform="translate(702.685547 0)"/>
      <use xlink:href="#DejaVuSans-75" transform="translate(730.46875 0)"/>
      <use xlink:href="#DejaVuSans-65" transform="translate(793.847656 0)"/>
      <use xlink:href="#DejaVuSans-73" transform="translate(855.371094 0)"/>
     </g>
    </g>
   </g>
   <g id="line2d_27">
    <path d="M 73.832727 191.255342 
L 77.079273 191.255342 
L 80.325818 191.255342 
L 83.572364 191.255342 
L 86.818909 191.255342 
L 90.065455 191.255342 
L 93.312 191.255342 
L 96.558545 191.255342 
L 99.805091 191.255342 
L 103.051636 191.255342 
L 106.298182 191.255342 
L 109.544727 191.255342 
L 112.791273 191.255342 
L 116.037818 191.255342 
L 119.284364 191.255342 
L 122.530909 191.255342 
L 125.777455 191.255342 
L 129.024 191.255342 
L 132.270545 191.255342 
L 135.517091 191.255342 
L 138.763636 191.255342 
L 142.010182 191.255342 
L 145.256727 191.255342 
L 148.503273 191.255342 
L 151.749818 191.255342 
L 154.996364 191.255342 
L 158.242909 191.255342 
L 161.489455 191.255342 
L 164.736 191.255342 
L 167.982545 191.255342 
L 171.229091 191.255342 
L 174.475636 191.255342 
L 177.722182 191.255342 
L 180.968727 191.255342 
L 184.215273 191.255342 
L 187.461818 191.255342 
L 190.708364 191.255342 
L 193.954909 191.255342 
L 197.201455 191.255342 
L 200.448 191.255342 
L 203.694545 191.255342 
L 206.941091 191.255342 
L 210.187636 191.255342 
L 213.434182 191.255342 
L 216.680727 191.255342 
L 219.927273 191.255342 
L 223.173818 191.255342 
L 226.420364 191.255342 
L 229.666909 191.255342 
L 232.913455 191.255342 
L 236.16 191.255342 
L 239.406545 191.255342 
L 242.653091 191.255342 
L 245.899636 191.255342 
L 249.146182 191.255342 
L 252.392727 191.255342 
L 255.639273 191.255342 
L 258.885818 191.255342 
L 262.132364 191.255342 
L 265.378909 191.255342 
L 268.625455 191.255342 
L 271.872 191.255342 
L 275.118545 191.255342 
L 278.365091 191.255342 
L 281.611636 191.255342 
L 284.858182 191.255342 
L 288.104727 191.255342 
L 291.351273 191.255342 
L 294.597818 191.255342 
L 297.844364 191.255342 
L 301.090909 191.255342 
L 304.337455 191.255342 
L 307.584 191.255342 
L 310.830545 191.255342 
L 314.077091 191.255342 
L 317.323636 191.255342 
L 320.570182 191.255342 
L 323.816727 191.255342 
L 327.063273 191.255342 
L 330.309818 191.255342 
L 333.556364 191.255342 
L 336.802909 191.255342 
L 340.049455 191.255342 
L 343.296 191.255342 
L 346.542545 191.255342 
L 349.789091 191.255342 
L 353.035636 191.255342 
L 356.282182 191.255342 
L 359.528727 191.255342 
L 362.775273 191.255342 
L 366.021818 191.255342 
L 369.268364 191.255342 
L 372.514909 191.255342 
L 375.761455 191.255342 
L 379.008 191.255342 
L 382.254545 191.255342 
L 385.501091 191.255342 
L 388.747636 191.255342 
L 391.994182 191.255342 
L 395.240727 191.255342 
L 398.487273 191.255342 
" clip-path="url(#p42b162fbbb)" style="fill: none; stroke: #1f77b4; stroke-width: 2; stroke-linecap: square"/>
   </g>
   <g id="line2d_28">
    <path d="M 73.832727 230.489985 
L 77.079273 230.373792 
L 80.325818 230.257599 
L 83.572364 230.141406 
L 86.818909 230.025213 
L 90.065455 229.90902 
L 93.312 229.792827 
L 96.558545 229.676634 
L 99.805091 229.560441 
L 103.051636 229.444248 
L 106.298182 229.328055 
L 109.544727 229.211862 
L 112.791273 229.095669 
L 116.037818 228.979476 
L 119.284364 228.863283 
L 122.530909 228.74709 
L 125.777455 228.630897 
L 129.024 228.514704 
L 132.270545 228.398511 
L 135.517091 228.282317 
L 138.763636 228.166124 
L 142.010182 228.049931 
L 145.256727 227.933738 
L 148.503273 227.817545 
L 151.749818 227.701352 
L 154.996364 227.585159 
L 158.242909 227.468966 
L 161.489455 227.352773 
L 164.736 227.23658 
L 167.982545 227.120387 
L 171.229091 227.004194 
L 174.475636 226.888001 
L 177.722182 226.771808 
L 180.968727 226.655615 
L 184.215273 226.539422 
L 187.461818 226.423229 
L 190.708364 226.307036 
L 193.954909 226.190843 
L 197.201455 226.07465 
L 200.448 225.958457 
L 203.694545 225.842264 
L 206.941091 225.726071 
L 210.187636 225.609878 
L 213.434182 225.493685 
L 216.680727 225.377492 
L 219.927273 225.261299 
L 223.173818 225.145106 
L 226.420364 225.028913 
L 229.666909 224.91272 
L 232.913455 224.796527 
L 236.16 224.680334 
L 239.406545 224.564141 
L 242.653091 224.447948 
L 245.899636 224.331755 
L 249.146182 224.215562 
L 252.392727 224.099369 
L 255.639273 223.983176 
L 258.885818 223.866983 
L 262.132364 223.75079 
L 265.378909 223.634597 
L 268.625455 223.518404 
L 271.872 223.402211 
L 275.118545 223.286018 
L 278.365091 223.169825 
L 281.611636 223.053632 
L 284.858182 222.937439 
L 288.104727 222.821246 
L 291.351273 222.705053 
L 294.597818 222.58886 
L 297.844364 222.472667 
L 301.090909 222.356474 
L 304.337455 222.240281 
L 307.584 222.124088 
L 310.830545 222.007895 
L 314.077091 221.891702 
L 317.323636 221.775509 
L 320.570182 221.659316 
L 323.816727 221.543123 
L 327.063273 221.42693 
L 330.309818 221.310737 
L 333.556364 221.194544 
L 336.802909 221.078351 
L 340.049455 220.962158 
L 343.296 220.845965 
L 346.542545 220.729772 
L 349.789091 220.613579 
L 353.035636 220.497386 
L 356.282182 220.381193 
L 359.528727 220.265 
L 362.775273 220.148807 
L 366.021818 220.032614 
L 369.268364 219.916421 
L 372.514909 219.800228 
L 375.761455 219.684035 
L 379.008 219.567841 
L 382.254545 219.451648 
L 385.501091 219.335455 
L 388.747636 219.219262 
L 391.994182 219.103069 
L 395.240727 218.986876 
L 398.487273 218.870683 
" clip-path="url(#p42b162fbbb)" style="fill: none; stroke: #ff7f0e; stroke-width: 2; stroke-linecap: square"/>
   </g>
   <g id="line2d_29">
    <path d="M 73.832727 148.718304 
L 77.079273 149.151085 
L 80.325818 149.582372 
L 83.572364 150.012167 
L 86.818909 150.440468 
L 90.065455 150.867276 
L 93.312 151.292592 
L 96.558545 151.716414 
L 99.805091 152.138744 
L 103.051636 152.55958 
L 106.298182 152.978924 
L 109.544727 153.396774 
L 112.791273 153.813132 
L 116.037818 154.227996 
L 119.284364 154.641368 
L 122.530909 155.053246 
L 125.777455 155.463632 
L 129.024 155.872525 
L 132.270545 156.279924 
L 135.517091 156.685831 
L 138.763636 157.090244 
L 142.010182 157.493165 
L 145.256727 157.894593 
L 148.503273 158.294527 
L 151.749818 158.692969 
L 154.996364 159.089918 
L 158.242909 159.485373 
L 161.489455 159.879336 
L 164.736 160.271806 
L 167.982545 160.662782 
L 171.229091 161.052266 
L 174.475636 161.440257 
L 177.722182 161.826754 
L 180.968727 162.211759 
L 184.215273 162.595271 
L 187.461818 162.97729 
L 190.708364 163.357815 
L 193.954909 163.736848 
L 197.201455 164.114388 
L 200.448 164.490435 
L 203.694545 164.864989 
L 206.941091 165.238049 
L 210.187636 165.609617 
L 213.434182 165.979692 
L 216.680727 166.348274 
L 219.927273 166.715363 
L 223.173818 167.080959 
L 226.420364 167.445062 
L 229.666909 167.807671 
L 232.913455 168.168788 
L 236.16 168.528412 
L 239.406545 168.886543 
L 242.653091 169.243181 
L 245.899636 169.598326 
L 249.146182 169.951978 
L 252.392727 170.304137 
L 255.639273 170.654803 
L 258.885818 171.003976 
L 262.132364 171.351656 
L 265.378909 171.697843 
L 268.625455 172.042537 
L 271.872 172.385738 
L 275.118545 172.727446 
L 278.365091 173.067661 
L 281.611636 173.406383 
L 284.858182 173.743612 
L 288.104727 174.079348 
L 291.351273 174.413591 
L 294.597818 174.746341 
L 297.844364 175.077598 
L 301.090909 175.407363 
L 304.337455 175.735634 
L 307.584 176.062412 
L 310.830545 176.387697 
L 314.077091 176.711489 
L 317.323636 177.033788 
L 320.570182 177.354594 
L 323.816727 177.673908 
L 327.063273 177.991728 
L 330.309818 178.308055 
L 333.556364 178.622889 
L 336.802909 178.93623 
L 340.049455 179.248079 
L 343.296 179.558434 
L 346.542545 179.867296 
L 349.789091 180.174665 
L 353.035636 180.480542 
L 356.282182 180.784925 
L 359.528727 181.087815 
L 362.775273 181.389213 
L 366.021818 181.689117 
L 369.268364 181.987528 
L 372.514909 182.284447 
L 375.761455 182.579872 
L 379.008 182.873804 
L 382.254545 183.166244 
L 385.501091 183.45719 
L 388.747636 183.746643 
L 391.994182 184.034604 
L 395.240727 184.321071 
L 398.487273 184.606046 
" clip-path="url(#p42b162fbbb)" style="fill: none; stroke: #2ca02c; stroke-width: 2; stroke-linecap: square"/>
   </g>
   <g id="line2d_30">
    <path d="M 73.832727 295.488 
L 77.079273 294.407548 
L 80.325818 293.334355 
L 83.572364 292.268398 
L 86.818909 291.209656 
L 90.065455 290.158108 
L 93.312 289.113732 
L 96.558545 288.076508 
L 99.805091 287.046414 
L 103.051636 286.023427 
L 106.298182 285.007528 
L 109.544727 283.998695 
L 112.791273 282.996906 
L 116.037818 282.00214 
L 119.284364 281.014375 
L 122.530909 280.033591 
L 125.777455 279.059766 
L 129.024 278.092879 
L 132.270545 277.132907 
L 135.517091 276.179831 
L 138.763636 275.233628 
L 142.010182 274.294277 
L 145.256727 273.361757 
L 148.503273 272.436047 
L 151.749818 271.517124 
L 154.996364 270.604969 
L 158.242909 269.699559 
L 161.489455 268.800872 
L 164.736 267.908889 
L 167.982545 267.023587 
L 171.229091 266.144944 
L 174.475636 265.272941 
L 177.722182 264.407555 
L 180.968727 263.548764 
L 184.215273 262.696548 
L 187.461818 261.850886 
L 190.708364 261.011755 
L 193.954909 260.179135 
L 197.201455 259.353004 
L 200.448 258.53334 
L 203.694545 257.720123 
L 206.941091 256.913331 
L 210.187636 256.112943 
L 213.434182 255.318938 
L 216.680727 254.531293 
L 219.927273 253.749988 
L 223.173818 252.975001 
L 226.420364 252.206311 
L 229.666909 251.443897 
L 232.913455 250.687737 
L 236.16 249.93781 
L 239.406545 249.194094 
L 242.653091 248.456569 
L 245.899636 247.725212 
L 249.146182 247.000003 
L 252.392727 246.28092 
L 255.639273 245.567942 
L 258.885818 244.861047 
L 262.132364 244.160214 
L 265.378909 243.465422 
L 268.625455 242.776649 
L 271.872 242.093874 
L 275.118545 241.417076 
L 278.365091 240.746233 
L 281.611636 240.081324 
L 284.858182 239.422328 
L 288.104727 238.769222 
L 291.351273 238.121987 
L 294.597818 237.4806 
L 297.844364 236.845041 
L 301.090909 236.215287 
L 304.337455 235.591317 
L 307.584 234.973111 
L 310.830545 234.360646 
L 314.077091 233.753902 
L 317.323636 233.152856 
L 320.570182 232.557489 
L 323.816727 231.967778 
L 327.063273 231.383701 
L 330.309818 230.805238 
L 333.556364 230.232368 
L 336.802909 229.665068 
L 340.049455 229.103318 
L 343.296 228.547096 
L 346.542545 227.996381 
L 349.789091 227.451152 
L 353.035636 226.911386 
L 356.282182 226.377063 
L 359.528727 225.848162 
L 362.775273 225.324661 
L 366.021818 224.806538 
L 369.268364 224.293773 
L 372.514909 223.786344 
L 375.761455 223.284229 
L 379.008 222.787408 
L 382.254545 222.295859 
L 385.501091 221.80956 
L 388.747636 221.32849 
L 391.994182 220.852628 
L 395.240727 220.381953 
L 398.487273 219.916443 
" clip-path="url(#p42b162fbbb)" style="fill: none; stroke: #d62728; stroke-width: 2; stroke-linecap: square"/>
   </g>
   <g id="patch_3">
    <path d="M 57.6 307.584 
L 57.6 41.472 
" style="fill: none; stroke: #000000; stroke-width: 0.8; stroke-linejoin: miter; stroke-linecap: square"/>
   </g>
   <g id="patch_4">
    <path d="M 414.72 307.584 
L 414.72 41.472 
" style="fill: none; stroke: #000000; stroke-width: 0.8; stroke-linejoin: miter; stroke-linecap: square"/>
   </g>
   <g id="patch_5">
    <path d="M 57.6 307.584 
L 414.72 307.584 
" style="fill: none; stroke: #000000; stroke-width: 0.8; stroke-linejoin: miter; stroke-linecap: square"/>
   </g>
   <g id="patch_6">
    <path d="M 57.6 41.472 
L 414.72 41.472 
" style="fill: none; stroke: #000000; stroke-width: 0.8; stroke-linejoin: miter; stroke-linecap: square"/>
   </g>
   <g id="line2d_31">
    <path d="M 73.832727 53.568 
L 77.079273 55.807155 
L 80.325818 58.024309 
L 83.572364 60.219588 
L 86.818909 62.393119 
L 90.065455 64.545027 
L 93.312 66.67544 
L 96.558545 68.784482 
L 99.805091 70.872279 
L 103.051636 72.938956 
L 106.298182 74.984637 
L 109.544727 77.009447 
L 112.791273 79.01351 
L 116.037818 80.996949 
L 119.284364 82.959888 
L 122.530909 84.90245 
L 125.777455 86.824757 
L 129.024 88.726932 
L 132.270545 90.609097 
L 135.517091 92.471373 
L 138.763636 94.313882 
L 142.010182 96.136745 
L 145.256727 97.940082 
L 148.503273 99.724015 
L 151.749818 101.488663 
L 154.996364 103.234146 
L 158.242909 104.960583 
L 161.489455 106.668093 
L 164.736 108.356796 
L 167.982545 110.02681 
L 171.229091 111.678252 
L 174.475636 113.31124 
L 177.722182 114.925893 
L 180.968727 116.522327 
L 184.215273 118.100659 
L 187.461818 119.661005 
L 190.708364 121.203483 
L 193.954909 122.728206 
L 197.201455 124.235292 
L 200.448 125.724855 
L 203.694545 127.19701 
L 206.941091 128.651871 
L 210.187636 130.089554 
L 213.434182 131.510171 
L 216.680727 132.913837 
L 219.927273 134.300664 
L 223.173818 135.670765 
L 226.420364 137.024254 
L 229.666909 138.361242 
L 232.913455 139.681841 
L 236.16 140.986163 
L 239.406545 142.27432 
L 242.653091 143.546421 
L 245.899636 144.802578 
L 249.146182 146.042902 
L 252.392727 147.267501 
L 255.639273 148.476486 
L 258.885818 149.669966 
L 262.132364 150.84805 
L 265.378909 152.010847 
L 268.625455 153.158465 
L 271.872 154.291012 
L 275.118545 155.408596 
L 278.365091 156.511324 
L 281.611636 157.599304 
L 284.858182 158.672641 
L 288.104727 159.731443 
L 291.351273 160.775816 
L 294.597818 161.805864 
L 297.844364 162.821695 
L 301.090909 163.823412 
L 304.337455 164.81112 
L 307.584 165.784925 
L 310.830545 166.74493 
L 314.077091 167.691238 
L 317.323636 168.623955 
L 320.570182 169.543181 
L 323.816727 170.449021 
L 327.063273 171.341577 
L 330.309818 172.220951 
L 333.556364 173.087245 
L 336.802909 173.94056 
L 340.049455 174.780998 
L 343.296 175.60866 
L 346.542545 176.423645 
L 349.789091 177.226055 
L 353.035636 178.015989 
L 356.282182 178.793546 
L 359.528727 179.558827 
L 362.775273 180.311929 
L 366.021818 181.052952 
L 369.268364 181.781994 
L 372.514909 182.499152 
L 375.761455 183.204525 
L 379.008 183.898209 
L 382.254545 184.580301 
L 385.501091 185.250899 
L 388.747636 185.910099 
L 391.994182 186.557996 
L 395.240727 187.194686 
L 398.487273 187.820264 
" clip-path="url(#p42b162fbbb)" style="fill: none; stroke: #9467bd; stroke-width: 2; stroke-linecap: square"/>
   </g>
   <g id="legend_1">
    <g id="patch_7">
     <path d="M 333.137188 124.862625 
L 409.72 124.862625 
Q 411.72 124.862625 411.72 122.862625 
L 411.72 50.472 
Q 411.72 48.472 409.72 48.472 
L 333.137188 48.472 
Q 331.137188 48.472 331.137188 50.472 
L 331.137188 122.862625 
Q 331.137188 124.862625 333.137188 124.862625 
z
" style="fill: #4d4d4d; opacity: 0.5; stroke: #4d4d4d; stroke-linejoin: miter"/>
    </g>
    <g id="patch_8">
     <path d="M 331.137188 122.862625 
L 407.72 122.862625 
Q 409.72 122.862625 409.72 120.862625 
L 409.72 48.472 
Q 409.72 46.472 407.72 46.472 
L 331.137188 46.472 
Q 329.137188 46.472 329.137188 48.472 
L 329.137188 120.862625 
Q 329.137188 122.862625 331.137188 122.862625 
z
" style="fill: #ffffff; stroke: #cccccc; stroke-linejoin: miter"/>
    </g>
    <g id="line2d_32">
     <path d="M 333.137188 54.570438 
L 343.137188 54.570438 
L 353.137188 54.570438 
" style="fill: none; stroke: #1f77b4; stroke-width: 2; stroke-linecap: square"/>
    </g>
    <g id="text_16">
     <!-- degree 0 -->
     <g transform="translate(361.137188 58.070438) scale(0.1 -0.1)">
      <defs>
       <path id="DejaVuSans-64" d="M 2906 2969 
L 2906 4863 
L 3481 4863 
L 3481 0 
L 2906 0 
L 2906 525 
Q 2725 213 2448 61 
Q 2172 -91 1784 -91 
Q 1150 -91 751 415 
Q 353 922 353 1747 
Q 353 2572 751 3078 
Q 1150 3584 1784 3584 
Q 2172 3584 2448 3432 
Q 2725 3281 2906 2969 
z
M 947 1747 
Q 947 1113 1208 752 
Q 1469 391 1925 391 
Q 2381 391 2643 752 
Q 2906 1113 2906 1747 
Q 2906 2381 2643 2742 
Q 2381 3103 1925 3103 
Q 1469 3103 1208 2742 
Q 947 2381 947 1747 
z
" transform="scale(0.015625)"/>
       <path id="DejaVuSans-67" d="M 2906 1791 
Q 2906 2416 2648 2759 
Q 2391 3103 1925 3103 
Q 1463 3103 1205 2759 
Q 947 2416 947 1791 
Q 947 1169 1205 825 
Q 1463 481 1925 481 
Q 2391 481 2648 825 
Q 2906 1169 2906 1791 
z
M 3481 434 
Q 3481 -459 3084 -895 
Q 2688 -1331 1869 -1331 
Q 1566 -1331 1297 -1286 
Q 1028 -1241 775 -1147 
L 775 -588 
Q 1028 -725 1275 -790 
Q 1522 -856 1778 -856 
Q 2344 -856 2625 -561 
Q 2906 -266 2906 331 
L 2906 616 
Q 2728 306 2450 153 
Q 2172 0 1784 0 
Q 1141 0 747 490 
Q 353 981 353 1791 
Q 353 2603 747 3093 
Q 1141 3584 1784 3584 
Q 2172 3584 2450 3431 
Q 2728 3278 2906 2969 
L 2906 3500 
L 3481 3500 
L 3481 434 
z
" transform="scale(0.015625)"/>
       <path id="DejaVuSans-72" d="M 2631 2963 
Q 2534 3019 2420 3045 
Q 2306 3072 2169 3072 
Q 1681 3072 1420 2755 
Q 1159 2438 1159 1844 
L 1159 0 
L 581 0 
L 581 3500 
L 1159 3500 
L 1159 2956 
Q 1341 3275 1631 3429 
Q 1922 3584 2338 3584 
Q 2397 3584 2469 3576 
Q 2541 3569 2628 3553 
L 2631 2963 
z
" transform="scale(0.015625)"/>
      </defs>
      <use xlink:href="#DejaVuSans-64"/>
      <use xlink:href="#DejaVuSans-65" transform="translate(63.476562 0)"/>
      <use xlink:href="#DejaVuSans-67" transform="translate(125 0)"/>
      <use xlink:href="#DejaVuSans-72" transform="translate(188.476562 0)"/>
      <use xlink:href="#DejaVuSans-65" transform="translate(227.339844 0)"/>
      <use xlink:href="#DejaVuSans-65" transform="translate(288.863281 0)"/>
      <use xlink:href="#DejaVuSans-20" transform="translate(350.386719 0)"/>
      <use xlink:href="#DejaVuSans-30" transform="translate(382.173828 0)"/>
     </g>
    </g>
    <g id="line2d_33">
     <path d="M 333.137188 69.248563 
L 343.137188 69.248563 
L 353.137188 69.248563 
" style="fill: none; stroke: #ff7f0e; stroke-width: 2; stroke-linecap: square"/>
    </g>
    <g id="text_17">
     <!-- degree 1 -->
     <g transform="translate(361.137188 72.748563) scale(0.1 -0.1)">
      <use xlink:href="#DejaVuSans-64"/>
      <use xlink:href="#DejaVuSans-65" transform="translate(63.476562 0)"/>
      <use xlink:href="#DejaVuSans-67" transform="translate(125 0)"/>
      <use xlink:href="#DejaVuSans-72" transform="translate(188.476562 0)"/>
      <use xlink:href="#DejaVuSans-65" transform="translate(227.339844 0)"/>
      <use xlink:href="#DejaVuSans-65" transform="translate(288.863281 0)"/>
      <use xlink:href="#DejaVuSans-20" transform="translate(350.386719 0)"/>
      <use xlink:href="#DejaVuSans-31" transform="translate(382.173828 0)"/>
     </g>
    </g>
    <g id="line2d_34">
     <path d="M 333.137188 83.926688 
L 343.137188 83.926688 
L 353.137188 83.926688 
" style="fill: none; stroke: #2ca02c; stroke-width: 2; stroke-linecap: square"/>
    </g>
    <g id="text_18">
     <!-- degree 2 -->
     <g transform="translate(361.137188 87.426688) scale(0.1 -0.1)">
      <use xlink:href="#DejaVuSans-64"/>
      <use xlink:href="#DejaVuSans-65" transform="translate(63.476562 0)"/>
      <use xlink:href="#DejaVuSans-67" transform="translate(125 0)"/>
      <use xlink:href="#DejaVuSans-72" transform="translate(188.476562 0)"/>
      <use xlink:href="#DejaVuSans-65" transform="translate(227.339844 0)"/>
      <use xlink:href="#DejaVuSans-65" transform="translate(288.863281 0)"/>
      <use xlink:href="#DejaVuSans-20" transform="translate(350.386719 0)"/>
      <use xlink:href="#DejaVuSans-32" transform="translate(382.173828 0)"/>
     </g>
    </g>
    <g id="line2d_35">
     <path d="M 333.137188 98.604813 
L 343.137188 98.604813 
L 353.137188 98.604813 
" style="fill: none; stroke: #d62728; stroke-width: 2; stroke-linecap: square"/>
    </g>
    <g id="text_19">
     <!-- degree 3 -->
     <g transform="translate(361.137188 102.104813) scale(0.1 -0.1)">
      <defs>
       <path id="DejaVuSans-33" d="M 2597 2516 
Q 3050 2419 3304 2112 
Q 3559 1806 3559 1356 
Q 3559 666 3084 287 
Q 2609 -91 1734 -91 
Q 1441 -91 1130 -33 
Q 819 25 488 141 
L 488 750 
Q 750 597 1062 519 
Q 1375 441 1716 441 
Q 2309 441 2620 675 
Q 2931 909 2931 1356 
Q 2931 1769 2642 2001 
Q 2353 2234 1838 2234 
L 1294 2234 
L 1294 2753 
L 1863 2753 
Q 2328 2753 2575 2939 
Q 2822 3125 2822 3475 
Q 2822 3834 2567 4026 
Q 2313 4219 1838 4219 
Q 1578 4219 1281 4162 
Q 984 4106 628 3988 
L 628 4550 
Q 988 4650 1302 4700 
Q 1616 4750 1894 4750 
Q 2613 4750 3031 4423 
Q 3450 4097 3450 3541 
Q 3450 3153 3228 2886 
Q 3006 2619 2597 2516 
z
" transform="scale(0.015625)"/>
      </defs>
      <use xlink:href="#DejaVuSans-64"/>
      <use xlink:href="#DejaVuSans-65" transform="translate(63.476562 0)"/>
      <use xlink:href="#DejaVuSans-67" transform="translate(125 0)"/>
      <use xlink:href="#DejaVuSans-72" transform="translate(188.476562 0)"/>
      <use xlink:href="#DejaVuSans-65" transform="translate(227.339844 0)"/>
      <use xlink:href="#DejaVuSans-65" transform="translate(288.863281 0)"/>
      <use xlink:href="#DejaVuSans-20" transform="translate(350.386719 0)"/>
      <use xlink:href="#DejaVuSans-33" transform="translate(382.173828 0)"/>
     </g>
    </g>
    <g id="line2d_36">
     <path d="M 333.137188 113.282938 
L 343.137188 113.282938 
L 353.137188 113.282938 
" style="fill: none; stroke: #9467bd; stroke-width: 2; stroke-linecap: square"/>
    </g>
    <g id="text_20">
     <!-- degree 4 -->
     <g transform="translate(361.137188 116.782938) scale(0.1 -0.1)">
      <defs>
       <path id="DejaVuSans-34" d="M 2419 4116 
L 825 1625 
L 2419 1625 
L 2419 4116 
z
M 2253 4666 
L 3047 4666 
L 3047 1625 
L 3713 1625 
L 3713 1100 
L 3047 1100 
L 3047 0 
L 2419 0 
L 2419 1100 
L 313 1100 
L 313 1709 
L 2253 4666 
z
" transform="scale(0.015625)"/>
      </defs>
      <use xlink:href="#DejaVuSans-64"/>
      <use xlink:href="#DejaVuSans-65" transform="translate(63.476562 0)"/>
      <use xlink:href="#DejaVuSans-67" transform="translate(125 0)"/>
      <use xlink:href="#DejaVuSans-72" transform="translate(188.476562 0)"/>
      <use xlink:href="#DejaVuSans-65" transform="translate(227.339844 0)"/>
      <use xlink:href="#DejaVuSans-65" transform="translate(288.863281 0)"/>
      <use xlink:href="#DejaVuSans-20" transform="translate(350.386719 0)"/>
      <use xlink:href="#DejaVuSans-34" transform="translate(382.173828 0)"/>
     </g>
    </g>
   </g>
  </g>
  <g id="text_21">
   <!-- Laguerre polynomials -->
   <g transform="translate(165.631875 16.030125) scale(0.12 -0.12)">
    <defs>
     <path id="DejaVuSans-4c" d="M 628 4666 
L 1259 4666 
L 1259 531 
L 3531 531 
L 3531 0 
L 628 0 
L 628 4666 
z
" transform="scale(0.015625)"/>
    </defs>
    <use xlink:href="#DejaVuSans-4c"/>
    <use xlink:href="#DejaVuSans-61" transform="translate(55.712891 0)"/>
    <use xlink:href="#DejaVuSans-67" transform="translate(116.992188 0)"/>
    <use xlink:href="#DejaVuSans-75" transform="translate(180.46875 0)"/>
    <use xlink:href="#DejaVuSans-65" transform="translate(243.847656 0)"/>
    <use xlink:href="#DejaVuSans-72" transform="translate(305.371094 0)"/>
    <use xlink:href="#DejaVuSans-72" transform="translate(344.734375 0)"/>
    <use xlink:href="#DejaVuSans-65" transform="translate(383.597656 0)"/>
    <use xlink:href="#DejaVuSans-20" transform="translate(445.121094 0)"/>
    <use xlink:href="#DejaVuSans-70" transform="translate(476.908203 0)"/>
    <use xlink:href="#DejaVuSans-6f" transform="translate(540.384766 0)"/>
    <use xlink:href="#DejaVuSans-6c" transform="translate(601.566406 0)"/>
    <use xlink:href="#DejaVuSans-79" transform="translate(629.349609 0)"/>
    <use xlink:href="#DejaVuSans-6e" transform="translate(688.529297 0)"/>
    <use xlink:href="#DejaVuSans-6f" transform="translate(751.908203 0)"/>
    <use xlink:href="#DejaVuSans-6d" transform="translate(813.089844 0)"/>
    <use xlink:href="#DejaVuSans-69" transform="translate(910.501953 0)"/>
    <use xlink:href="#DejaVuSans-61" transform="translate(938.285156 0)"/>
    <use xlink:href="#DejaVuSans-6c" transform="translate(999.564453 0)"/>
    <use xlink:href="#DejaVuSans-73" transform="translate(1027.347656 0)"/>
   </g>
  </g>
 </g>
 <defs>
  <clipPath id="p42b162fbbb">
   <rect x="57.6" y="41.472" width="357.12" height="266.112"/>
  </clipPath>
 </defs>
</svg>
