<?xml version="1.0" encoding="utf-8" standalone="no"?>
<!DOCTYPE svg PUBLIC "-//W3C//DTD SVG 1.1//EN"
  "http://www.w3.org/Graphics/SVG/1.1/DTD/svg11.dtd">
<svg xmlns:xlink="http://www.w3.org/1999/xlink" width="460.8pt" height="345.6pt" viewBox="0 0 460.8 345.6" xmlns="http://www.w3.org/2000/svg" version="1.1">
 <metadata>
  <rdf:RDF xmlns:dc="http://purl.org/dc/elements/1.1/" xmlns:cc="http://creativecommons.org/ns#" xmlns:rdf="http://www.w3.org/1999/02/22-rdf-syntax-ns#">
   <cc:Work>
    <dc:type rdf:resource="http://purl.org/dc/dcmitype/StillImage"/>
    <dc:date>2026-01-05T15:32:21.789477</dc:date>
    <dc:format>image/svg+xml</dc:format>
    <dc:creator>
     <cc:Agent>
      <dc:title>Matplotlib v3.10.8, https://matplotlib.org/</dc:title>
     </cc:Agent>
    </dc:creator>
   </cc:Work>
  </rdf:RDF>
 </metadata>
 <defs>
  <style type="text/css">*{stroke-linejoin: round; stroke-linecap: butt}</style>
 </defs>
 <g id="figure_1">
  <g id="patch_1">
   <path d="M 0 345.6 
L 460.8 345.6 
L 460.8 0 
L 0 0 
z
" style="fill: #ffffff"/>
  </g>
  <g id="axes_1">
   <g id="patch_2">
    <path d="M 57.6 307.584 
L 414.72 307.584 
L 414.72 41.472 
L 57.6 41.472 
z
" style="fill: #ffffff"/>
   </g>
   <g id="matplotlib.axis_1">
    <g id="xtick_1">
     <g id="line2d_1">
      <path d="M 73.832727 307.584 
L 73.832727 41.472 
" clip-path="url(#p94b0cde628)" style="fill: none; stroke: #b0b0b0; stroke-width: 0.8; stroke-linecap: square"/>
     </g>
     <g id="line2d_2">
      <defs>
       <path id="m9bf75b4927" d="M 0 0 
L 0 3.5 
" style="stroke: #000000; stroke-width: 0.8"/>
      </defs>
      <g>
       <use xlink:href="#m9bf75b4927" x="73.832727" y="307.584" style="stroke: #000000; stroke-width: 0.8"/>
      </g>
     </g>
     <g id="text_1">
      <!-- −3 -->
      <g transform="translate(66.461634 322.182437) scale(0.1 -0.1)">
       <defs>
        <path id="DejaVuSans-2212" d="M 678 2272 
L 4684 2272 
L 4684 1741 
L 678 1741 
L 678 2272 
z
" transform="scale(0.015625)"/>
        <path id="DejaVuSans-33" d="M 2597 2516 
Q 3050 2419 3304 2112 
Q 3559 1806 3559 1356 
Q 3559 666 3084 287 
Q 2609 -91 1734 -91 
Q 1441 -91 1130 -33 
Q 819 25 488 141 
L 488 750 
Q 750 597 1062 519 
Q 1375 441 1716 441 
Q 2309 441 2620 675 
Q 2931 909 2931 1356 
Q 2931 1769 2642 2001 
Q 2353 2234 1838 2234 
L 1294 2234 
L 1294 2753 
L 1863 2753 
Q 2328 2753 2575 2939 
Q 2822 3125 2822 3475 
Q 2822 3834 2567 4026 
Q 2313 4219 1838 4219 
Q 1578 4219 1281 4162 
Q 984 4106 628 3988 
L 628 4550 
Q 988 4650 1302 4700 
Q 1616 4750 1894 4750 
Q 2613 4750 3031 4423 
Q 3450 4097 3450 3541 
Q 3450 3153 3228 2886 
Q 3006 2619 2597 2516 
z
" transform="scale(0.015625)"/>
       </defs>
       <use xlink:href="#DejaVuSans-2212"/>
       <use xlink:href="#DejaVuSans-33" transform="translate(83.789062 0)"/>
      </g>
     </g>
    </g>
    <g id="xtick_2">
     <g id="line2d_3">
      <path d="M 128.154011 307.584 
L 128.154011 41.472 
" clip-path="url(#p94b0cde628)" style="fill: none; stroke: #b0b0b0; stroke-width: 0.8; stroke-linecap: square"/>
     </g>
     <g id="line2d_4">
      <g>
       <use xlink:href="#m9bf75b4927" x="128.154011" y="307.584" style="stroke: #000000; stroke-width: 0.8"/>
      </g>
     </g>
     <g id="text_2">
      <!-- −2 -->
      <g transform="translate(120.782917 322.182437) scale(0.1 -0.1)">
       <defs>
        <path id="DejaVuSans-32" d="M 1228 531 
L 3431 531 
L 3431 0 
L 469 0 
L 469 531 
Q 828 903 1448 1529 
Q 2069 2156 2228 2338 
Q 2531 2678 2651 2914 
Q 2772 3150 2772 3378 
Q 2772 3750 2511 3984 
Q 2250 4219 1831 4219 
Q 1534 4219 1204 4116 
Q 875 4013 500 3803 
L 500 4441 
Q 881 4594 1212 4672 
Q 1544 4750 1819 4750 
Q 2544 4750 2975 4387 
Q 3406 4025 3406 3419 
Q 3406 3131 3298 2873 
Q 3191 2616 2906 2266 
Q 2828 2175 2409 1742 
Q 1991 1309 1228 531 
z
" transform="scale(0.015625)"/>
       </defs>
       <use xlink:href="#DejaVuSans-2212"/>
       <use xlink:href="#DejaVuSans-32" transform="translate(83.789062 0)"/>
      </g>
     </g>
    </g>
    <g id="xtick_3">
     <g id="line2d_5">
      <path d="M 182.475294 307.584 
L 182.475294 41.472 
" clip-path="url(#p94b0cde628)" style="fill: none; stroke: #b0b0b0; stroke-width: 0.8; stroke-linecap: square"/>
     </g>
     <g id="line2d_6">
      <g>
       <use xlink:href="#m9bf75b4927" x="182.475294" y="307.584" style="stroke: #000000; stroke-width: 0.8"/>
      </g>
     </g>
     <g id="text_3">
      <!-- −1 -->
      <g transform="translate(175.1042 322.182437) scale(0.1 -0.1)">
       <defs>
        <path id="DejaVuSans-31" d="M 794 531 
L 1825 531 
L 1825 4091 
L 703 3866 
L 703 4441 
L 1819 4666 
L 2450 4666 
L 2450 531 
L 3481 531 
L 3481 0 
L 794 0 
L 794 531 
z
" transform="scale(0.015625)"/>
       </defs>
       <use xlink:href="#DejaVuSans-2212"/>
       <use xlink:href="#DejaVuSans-31" transform="translate(83.789062 0)"/>
      </g>
     </g>
    </g>
    <g id="xtick_4">
     <g id="line2d_7">
      <path d="M 236.796578 307.584 
L 236.796578 41.472 
" clip-path="url(#p94b0cde628)" style="fill: none; stroke: #b0b0b0; stroke-width: 0.8; stroke-linecap: square"/>
     </g>
     <g id="line2d_8">
      <g>
       <use xlink:href="#m9bf75b4927" x="236.796578" y="307.584" style="stroke: #000000; stroke-width: 0.8"/>
      </g>
     </g>
     <g id="text_4">
      <!-- 0 -->
      <g transform="translate(233.615328 322.182437) scale(0.1 -0.1)">
       <defs>
        <path id="DejaVuSans-30" d="M 2034 4250 
Q 1547 4250 1301 3770 
Q 1056 3291 1056 2328 
Q 1056 1369 1301 889 
Q 1547 409 2034 409 
Q 2525 409 2770 889 
Q 3016 1369 3016 2328 
Q 3016 3291 2770 3770 
Q 2525 4250 2034 4250 
z
M 2034 4750 
Q 2819 4750 3233 4129 
Q 3647 3509 3647 2328 
Q 3647 1150 3233 529 
Q 2819 -91 2034 -91 
Q 1250 -91 836 529 
Q 422 1150 422 2328 
Q 422 3509 836 4129 
Q 1250 4750 2034 4750 
z
" transform="scale(0.015625)"/>
       </defs>
       <use xlink:href="#DejaVuSans-30"/>
      </g>
     </g>
    </g>
    <g id="xtick_5">
     <g id="line2d_9">
      <path d="M 291.117861 307.584 
L 291.117861 41.472 
" clip-path="url(#p94b0cde628)" style="fill: none; stroke: #b0b0b0; stroke-width: 0.8; stroke-linecap: square"/>
     </g>
     <g id="line2d_10">
      <g>
       <use xlink:href="#m9bf75b4927" x="291.117861" y="307.584" style="stroke: #000000; stroke-width: 0.8"/>
      </g>
     </g>
     <g id="text_5">
      <!-- 1 -->
      <g transform="translate(287.936611 322.182437) scale(0.1 -0.1)">
       <use xlink:href="#DejaVuSans-31"/>
      </g>
     </g>
    </g>
    <g id="xtick_6">
     <g id="line2d_11">
      <path d="M 345.439144 307.584 
L 345.439144 41.472 
" clip-path="url(#p94b0cde628)" style="fill: none; stroke: #b0b0b0; stroke-width: 0.8; stroke-linecap: square"/>
     </g>
     <g id="line2d_12">
      <g>
       <use xlink:href="#m9bf75b4927" x="345.439144" y="307.584" style="stroke: #000000; stroke-width: 0.8"/>
      </g>
     </g>
     <g id="text_6">
      <!-- 2 -->
      <g transform="translate(342.257894 322.182437) scale(0.1 -0.1)">
       <use xlink:href="#DejaVuSans-32"/>
      </g>
     </g>
    </g>
    <g id="xtick_7">
     <g id="line2d_13">
      <path d="M 399.760428 307.584 
L 399.760428 41.472 
" clip-path="url(#p94b0cde628)" style="fill: none; stroke: #b0b0b0; stroke-width: 0.8; stroke-linecap: square"/>
     </g>
     <g id="line2d_14">
      <g>
       <use xlink:href="#m9bf75b4927" x="399.760428" y="307.584" style="stroke: #000000; stroke-width: 0.8"/>
      </g>
     </g>
     <g id="text_7">
      <!-- 3 -->
      <g transform="translate(396.579178 322.182437) scale(0.1 -0.1)">
       <use xlink:href="#DejaVuSans-33"/>
      </g>
     </g>
    </g>
    <g id="text_8">
     <!-- x -->
     <g transform="translate(233.200625 335.860562) scale(0.1 -0.1)">
      <defs>
       <path id="DejaVuSans-78" d="M 3513 3500 
L 2247 1797 
L 3578 0 
L 2900 0 
L 1881 1375 
L 863 0 
L 184 0 
L 1544 1831 
L 300 3500 
L 978 3500 
L 1906 2253 
L 2834 3500 
L 3513 3500 
z
" transform="scale(0.015625)"/>
      </defs>
      <use xlink:href="#DejaVuSans-78"/>
     </g>
    </g>
   </g>
   <g id="matplotlib.axis_2">
    <g id="ytick_1">
     <g id="line2d_15">
      <path d="M 57.6 302.825469 
L 414.72 302.825469 
" clip-path="url(#p94b0cde628)" style="fill: none; stroke: #b0b0b0; stroke-width: 0.8; stroke-linecap: square"/>
     </g>
     <g id="line2d_16">
      <defs>
       <path id="m4e6acf46b5" d="M 0 0 
L -3.5 0 
" style="stroke: #000000; stroke-width: 0.8"/>
      </defs>
      <g>
       <use xlink:href="#m4e6acf46b5" x="57.6" y="302.825469" style="stroke: #000000; stroke-width: 0.8"/>
      </g>
     </g>
     <g id="text_9">
      <!-- −1.5 -->
      <g transform="translate(26.317187 306.624688) scale(0.1 -0.1)">
       <defs>
        <path id="DejaVuSans-2e" d="M 684 794 
L 1344 794 
L 1344 0 
L 684 0 
L 684 794 
z
" transform="scale(0.015625)"/>
        <path id="DejaVuSans-35" d="M 691 4666 
L 3169 4666 
L 3169 4134 
L 1269 4134 
L 1269 2991 
Q 1406 3038 1543 3061 
Q 1681 3084 1819 3084 
Q 2600 3084 3056 2656 
Q 3513 2228 3513 1497 
Q 3513 744 3044 326 
Q 2575 -91 1722 -91 
Q 1428 -91 1123 -41 
Q 819 9 494 109 
L 494 744 
Q 775 591 1075 516 
Q 1375 441 1709 441 
Q 2250 441 2565 725 
Q 2881 1009 2881 1497 
Q 2881 1984 2565 2268 
Q 2250 2553 1709 2553 
Q 1456 2553 1204 2497 
Q 953 2441 691 2322 
L 691 4666 
z
" transform="scale(0.015625)"/>
       </defs>
       <use xlink:href="#DejaVuSans-2212"/>
       <use xlink:href="#DejaVuSans-31" transform="translate(83.789062 0)"/>
       <use xlink:href="#DejaVuSans-2e" transform="translate(147.412109 0)"/>
       <use xlink:href="#DejaVuSans-35" transform="translate(179.199219 0)"/>
      </g>
     </g>
    </g>
    <g id="ytick_2">
     <g id="line2d_17">
      <path d="M 57.6 260.059648 
L 414.72 260.059648 
" clip-path="url(#p94b0cde628)" style="fill: none; stroke: #b0b0b0; stroke-width: 0.8; stroke-linecap: square"/>
     </g>
     <g id="line2d_18">
      <g>
       <use xlink:href="#m4e6acf46b5" x="57.6" y="260.059648" style="stroke: #000000; stroke-width: 0.8"/>
      </g>
     </g>
     <g id="text_10">
      <!-- −1.0 -->
      <g transform="translate(26.317187 263.858867) scale(0.1 -0.1)">
       <use xlink:href="#DejaVuSans-2212"/>
       <use xlink:href="#DejaVuSans-31" transform="translate(83.789062 0)"/>
       <use xlink:href="#DejaVuSans-2e" transform="translate(147.412109 0)"/>
       <use xlink:href="#DejaVuSans-30" transform="translate(179.199219 0)"/>
      </g>
     </g>
    </g>
    <g id="ytick_3">
     <g id="line2d_19">
      <path d="M 57.6 217.293828 
L 414.72 217.293828 
" clip-path="url(#p94b0cde628)" style="fill: none; stroke: #b0b0b0; stroke-width: 0.8; stroke-linecap: square"/>
     </g>
     <g id="line2d_20">
      <g>
       <use xlink:href="#m4e6acf46b5" x="57.6" y="217.293828" style="stroke: #000000; stroke-width: 0.8"/>
      </g>
     </g>
     <g id="text_11">
      <!-- −0.5 -->
      <g transform="translate(26.317187 221.093046) scale(0.1 -0.1)">
       <use xlink:href="#DejaVuSans-2212"/>
       <use xlink:href="#DejaVuSans-30" transform="translate(83.789062 0)"/>
       <use xlink:href="#DejaVuSans-2e" transform="translate(147.412109 0)"/>
       <use xlink:href="#DejaVuSans-35" transform="translate(179.199219 0)"/>
      </g>
     </g>
    </g>
    <g id="ytick_4">
     <g id="line2d_21">
      <path d="M 57.6 174.528007 
L 414.72 174.528007 
" clip-path="url(#p94b0cde628)" style="fill: none; stroke: #b0b0b0; stroke-width: 0.8; stroke-linecap: square"/>
     </g>
     <g id="line2d_22">
      <g>
       <use xlink:href="#m4e6acf46b5" x="57.6" y="174.528007" style="stroke: #000000; stroke-width: 0.8"/>
      </g>
     </g>
     <g id="text_12">
      <!-- 0.0 -->
      <g transform="translate(34.696875 178.327226) scale(0.1 -0.1)">
       <use xlink:href="#DejaVuSans-30"/>
       <use xlink:href="#DejaVuSans-2e" transform="translate(63.623047 0)"/>
       <use xlink:href="#DejaVuSans-30" transform="translate(95.410156 0)"/>
      </g>
     </g>
    </g>
    <g id="ytick_5">
     <g id="line2d_23">
      <path d="M 57.6 131.762186 
L 414.72 131.762186 
" clip-path="url(#p94b0cde628)" style="fill: none; stroke: #b0b0b0; stroke-width: 0.8; stroke-linecap: square"/>
     </g>
     <g id="line2d_24">
      <g>
       <use xlink:href="#m4e6acf46b5" x="57.6" y="131.762186" style="stroke: #000000; stroke-width: 0.8"/>
      </g>
     </g>
     <g id="text_13">
      <!-- 0.5 -->
      <g transform="translate(34.696875 135.561405) scale(0.1 -0.1)">
       <use xlink:href="#DejaVuSans-30"/>
       <use xlink:href="#DejaVuSans-2e" transform="translate(63.623047 0)"/>
       <use xlink:href="#DejaVuSans-35" transform="translate(95.410156 0)"/>
      </g>
     </g>
    </g>
    <g id="ytick_6">
     <g id="line2d_25">
      <path d="M 57.6 88.996366 
L 414.72 88.996366 
" clip-path="url(#p94b0cde628)" style="fill: none; stroke: #b0b0b0; stroke-width: 0.8; stroke-linecap: square"/>
     </g>
     <g id="line2d_26">
      <g>
       <use xlink:href="#m4e6acf46b5" x="57.6" y="88.996366" style="stroke: #000000; stroke-width: 0.8"/>
      </g>
     </g>
     <g id="text_14">
      <!-- 1.0 -->
      <g transform="translate(34.696875 92.795585) scale(0.1 -0.1)">
       <use xlink:href="#DejaVuSans-31"/>
       <use xlink:href="#DejaVuSans-2e" transform="translate(63.623047 0)"/>
       <use xlink:href="#DejaVuSans-30" transform="translate(95.410156 0)"/>
      </g>
     </g>
    </g>
    <g id="ytick_7">
     <g id="line2d_27">
      <path d="M 57.6 46.230545 
L 414.72 46.230545 
" clip-path="url(#p94b0cde628)" style="fill: none; stroke: #b0b0b0; stroke-width: 0.8; stroke-linecap: square"/>
     </g>
     <g id="line2d_28">
      <g>
       <use xlink:href="#m4e6acf46b5" x="57.6" y="46.230545" style="stroke: #000000; stroke-width: 0.8"/>
      </g>
     </g>
     <g id="text_15">
      <!-- 1.5 -->
      <g transform="translate(34.696875 50.029764) scale(0.1 -0.1)">
       <use xlink:href="#DejaVuSans-31"/>
       <use xlink:href="#DejaVuSans-2e" transform="translate(63.623047 0)"/>
       <use xlink:href="#DejaVuSans-35" transform="translate(95.410156 0)"/>
      </g>
     </g>
    </g>
    <g id="text_16">
     <!-- y -->
     <g transform="translate(20.2375 177.487375) rotate(-90) scale(0.1 -0.1)">
      <defs>
       <path id="DejaVuSans-79" d="M 2059 -325 
Q 1816 -950 1584 -1140 
Q 1353 -1331 966 -1331 
L 506 -1331 
L 506 -850 
L 844 -850 
Q 1081 -850 1212 -737 
Q 1344 -625 1503 -206 
L 1606 56 
L 191 3500 
L 800 3500 
L 1894 763 
L 2988 3500 
L 3597 3500 
L 2059 -325 
z
" transform="scale(0.015625)"/>
      </defs>
      <use xlink:href="#DejaVuSans-79"/>
     </g>
    </g>
   </g>
   <g id="line2d_29">
    <path d="M 73.832727 191.597884 
L 81.471658 208.213706 
L 87.837433 221.565771 
L 92.930053 231.791374 
L 98.022674 241.514054 
L 101.842139 248.424465 
L 105.661604 254.969694 
L 109.48107 261.117396 
L 113.300535 266.837189 
L 117.12 272.100807 
L 120.939465 276.882239 
L 123.485775 279.790209 
L 126.032086 282.466932 
L 128.578396 284.906528 
L 131.124706 287.103638 
L 133.671016 289.053434 
L 136.217326 290.751634 
L 138.763636 292.194506 
L 141.309947 293.378881 
L 143.856257 294.302157 
L 146.402567 294.962305 
L 148.948877 295.357876 
L 151.495187 295.488 
L 154.041497 295.352391 
L 156.587807 294.951348 
L 159.134118 294.285751 
L 161.680428 293.357063 
L 164.226738 292.167324 
L 166.773048 290.719147 
L 169.319358 289.015714 
L 171.865668 287.060767 
L 174.411979 284.858601 
L 176.958289 282.414054 
L 179.504599 279.732496 
L 182.050909 276.819818 
L 185.870374 272.031584 
L 189.68984 266.761505 
L 193.509305 261.035627 
L 197.32877 254.882243 
L 201.148235 248.331765 
L 204.967701 241.416562 
L 210.060321 231.688247 
L 215.152941 221.457915 
L 221.518717 208.101274 
L 229.157647 191.482 
L 253.347594 138.2406 
L 259.713369 124.998298 
L 264.805989 114.885206 
L 269.89861 105.295934 
L 273.718075 98.498594 
L 277.53754 92.076978 
L 281.357005 86.062819 
L 285.176471 80.485838 
L 288.995936 75.373596 
L 292.815401 70.751356 
L 295.361711 67.953469 
L 297.908021 65.389713 
L 300.454332 63.065718 
L 303.000642 60.98659 
L 305.546952 59.156898 
L 308.093262 57.58066 
L 310.639572 56.261339 
L 313.185882 55.201835 
L 315.732193 54.404473 
L 318.278503 53.871006 
L 320.824813 53.602607 
L 323.371123 53.599864 
L 325.917433 53.862783 
L 328.463743 54.390788 
L 331.010053 55.182717 
L 333.556364 56.236832 
L 336.102674 57.550817 
L 338.648984 59.121784 
L 341.195294 60.946283 
L 343.741604 63.020306 
L 346.287914 65.339296 
L 348.834225 67.898158 
L 351.380535 70.691272 
L 355.2 75.306603 
L 359.019465 80.412268 
L 362.83893 85.983035 
L 366.658396 91.991374 
L 370.477861 98.407594 
L 374.297326 105.199987 
L 379.389947 114.783404 
L 384.482567 124.891536 
L 390.848342 138.12896 
L 398.487273 154.656446 
L 398.487273 154.656446 
" clip-path="url(#p94b0cde628)" style="fill: none; stroke: #1f77b4; stroke-width: 2; stroke-linecap: square"/>
   </g>
   <g id="line2d_30">
    <path d="M 73.832727 294.277506 
L 76.379037 293.346112 
L 78.925348 292.153691 
L 81.471658 290.702862 
L 84.017968 288.996813 
L 86.564278 287.039292 
L 89.110588 284.834598 
L 91.656898 282.387576 
L 94.203209 279.703602 
L 96.749519 276.788571 
L 100.568984 271.996938 
L 104.388449 266.723631 
L 108.207914 260.994712 
L 112.02738 254.83849 
L 115.846845 248.285389 
L 119.66631 241.367792 
L 124.75893 231.636663 
L 129.851551 221.40397 
L 136.217326 208.045046 
L 143.856257 191.424052 
L 168.046203 138.184776 
L 174.411979 124.944911 
L 179.504599 114.834298 
L 184.597219 105.247952 
L 188.416684 98.453085 
L 192.23615 92.034166 
L 196.055615 86.022916 
L 199.87508 80.449042 
L 203.694545 75.340088 
L 207.514011 70.721301 
L 210.060321 67.925801 
L 212.606631 65.364491 
L 215.152941 63.042999 
L 217.699251 60.966423 
L 220.245561 59.139327 
L 222.791872 57.565725 
L 225.338182 56.249072 
L 227.884492 55.192262 
L 230.430802 54.397616 
L 232.977112 53.866881 
L 235.523422 53.601221 
L 238.069733 53.601221 
L 240.616043 53.866881 
L 243.162353 54.397616 
L 245.708663 55.192262 
L 248.254973 56.249072 
L 250.801283 57.565725 
L 253.347594 59.139327 
L 255.893904 60.966423 
L 258.440214 63.042999 
L 260.986524 65.364491 
L 263.532834 67.925801 
L 266.079144 70.721301 
L 269.89861 75.340088 
L 273.718075 80.449042 
L 277.53754 86.022916 
L 281.357005 92.034166 
L 285.176471 98.453085 
L 288.995936 105.247952 
L 294.088556 114.834298 
L 299.181176 124.944911 
L 305.546952 138.184776 
L 313.185882 154.714177 
L 327.190588 185.793136 
L 336.102674 205.312098 
L 342.468449 218.777873 
L 347.56107 229.12207 
L 352.65369 238.986788 
L 357.74631 248.285389 
L 361.565775 254.83849 
L 365.385241 260.994712 
L 369.204706 266.723631 
L 373.024171 271.996938 
L 376.843636 276.788571 
L 379.389947 279.703602 
L 381.936257 282.387576 
L 384.482567 284.834598 
L 387.028877 287.039292 
L 389.575187 288.996813 
L 392.121497 290.702862 
L 394.667807 292.153691 
L 397.214118 293.346112 
L 398.487273 293.844579 
L 398.487273 293.844579 
" clip-path="url(#p94b0cde628)" style="fill: none; stroke: #ff7f0e; stroke-width: 2; stroke-linecap: square"/>
   </g>
   <g id="line2d_31">
    <path d="M 73.832727 140.729906 
L 77.652193 124.784821 
L 81.471658 109.821806 
L 84.017968 100.538918 
L 86.564278 91.905848 
L 89.110588 83.998417 
L 91.656898 76.886075 
L 94.203209 70.631285 
L 96.749519 65.288981 
L 98.022674 62.974998 
L 99.295829 60.906083 
L 100.568984 59.086779 
L 101.842139 57.521083 
L 103.115294 56.212436 
L 104.388449 55.163712 
L 105.661604 54.377215 
L 106.934759 53.854673 
L 108.207914 53.597234 
L 109.48107 53.605463 
L 110.754225 53.879343 
L 112.02738 54.418271 
L 113.300535 55.221063 
L 114.57369 56.285957 
L 115.846845 57.610613 
L 117.12 59.192119 
L 118.393155 61.027004 
L 119.66631 63.111234 
L 120.939465 65.440232 
L 123.485775 70.811537 
L 126.032086 77.093745 
L 128.578396 84.231683 
L 131.124706 92.162659 
L 133.671016 100.817019 
L 136.217326 110.118755 
L 140.036791 125.105106 
L 143.856257 141.067205 
L 148.948877 163.321149 
L 159.134118 208.213706 
L 162.953583 224.164478 
L 166.773048 239.135285 
L 169.319358 248.424465 
L 171.865668 257.06464 
L 174.411979 264.979926 
L 176.958289 272.100807 
L 179.504599 278.364743 
L 182.050909 283.716719 
L 183.324064 286.035708 
L 184.597219 288.109731 
L 185.870374 289.93423 
L 187.143529 291.505197 
L 188.416684 292.819182 
L 189.68984 293.873297 
L 190.962995 294.665226 
L 192.23615 295.193231 
L 193.509305 295.45615 
L 194.78246 295.453407 
L 196.055615 295.185008 
L 197.32877 294.651541 
L 198.601925 293.85418 
L 199.87508 292.794675 
L 201.148235 291.475354 
L 202.42139 289.899116 
L 203.694545 288.069424 
L 204.967701 285.990296 
L 206.240856 283.666302 
L 208.787166 278.304658 
L 211.333476 272.031584 
L 213.879786 264.902171 
L 216.426096 256.979036 
L 218.972406 248.331765 
L 221.518717 239.036302 
L 225.338182 224.057716 
L 229.157647 208.101274 
L 234.250267 185.851404 
L 244.435508 140.95474 
L 248.254973 124.998298 
L 252.074439 110.019712 
L 254.620749 100.724249 
L 257.167059 92.076978 
L 259.713369 84.153843 
L 262.259679 77.024431 
L 264.805989 70.751356 
L 267.352299 65.389713 
L 268.625455 63.065718 
L 269.89861 60.98659 
L 271.171765 59.156898 
L 272.44492 57.58066 
L 273.718075 56.261339 
L 274.99123 55.201835 
L 276.264385 54.404473 
L 277.53754 53.871006 
L 278.810695 53.602607 
L 280.08385 53.599864 
L 281.357005 53.862783 
L 282.63016 54.390788 
L 283.903316 55.182717 
L 285.176471 56.236832 
L 286.449626 57.550817 
L 287.722781 59.121784 
L 288.995936 60.946283 
L 290.269091 63.020306 
L 291.542246 65.339296 
L 294.088556 70.691272 
L 296.634866 76.955207 
L 299.181176 84.076088 
L 301.727487 91.991374 
L 304.273797 100.631549 
L 306.820107 109.920729 
L 310.639572 124.891536 
L 314.459037 140.842308 
L 319.551658 163.088082 
L 329.736898 207.98881 
L 333.556364 223.950908 
L 337.375829 238.937259 
L 339.922139 248.238995 
L 342.468449 256.893355 
L 345.014759 264.824332 
L 347.56107 271.962269 
L 350.10738 278.244477 
L 352.65369 283.615782 
L 353.926845 285.94478 
L 355.2 288.029011 
L 356.473155 289.863895 
L 357.74631 291.445402 
L 359.019465 292.770057 
L 360.29262 293.834951 
L 361.565775 294.637744 
L 362.83893 295.176672 
L 364.112086 295.450551 
L 365.385241 295.45878 
L 366.658396 295.201341 
L 367.931551 294.678799 
L 369.204706 293.892302 
L 370.477861 292.843578 
L 371.751016 291.534931 
L 373.024171 289.969236 
L 374.297326 288.149932 
L 375.570481 286.081016 
L 376.843636 283.767033 
L 379.389947 278.424729 
L 381.936257 272.169939 
L 384.482567 265.057597 
L 387.028877 257.150166 
L 389.575187 248.517096 
L 392.121497 239.234208 
L 395.940963 224.271193 
L 398.487273 213.731155 
L 398.487273 213.731155 
" clip-path="url(#p94b0cde628)" style="fill: none; stroke: #2ca02c; stroke-width: 2; stroke-linecap: square"/>
   </g>
   <g id="patch_3">
    <path d="M 57.6 307.584 
L 57.6 41.472 
" style="fill: none; stroke: #000000; stroke-width: 0.8; stroke-linejoin: miter; stroke-linecap: square"/>
   </g>
   <g id="patch_4">
    <path d="M 414.72 307.584 
L 414.72 41.472 
" style="fill: none; stroke: #000000; stroke-width: 0.8; stroke-linejoin: miter; stroke-linecap: square"/>
   </g>
   <g id="patch_5">
    <path d="M 57.6 307.584 
L 414.72 307.584 
" style="fill: none; stroke: #000000; stroke-width: 0.8; stroke-linejoin: miter; stroke-linecap: square"/>
   </g>
   <g id="patch_6">
    <path d="M 57.6 41.472 
L 414.72 41.472 
" style="fill: none; stroke: #000000; stroke-width: 0.8; stroke-linejoin: miter; stroke-linecap: square"/>
   </g>
   <g id="legend_1">
    <g id="patch_7">
     <path d="M 346.22 95.572 
L 409.72 95.572 
Q 411.72 95.572 411.72 93.572 
L 411.72 50.472 
Q 411.72 48.472 409.72 48.472 
L 346.22 48.472 
Q 344.22 48.472 344.22 50.472 
L 344.22 93.572 
Q 344.22 95.572 346.22 95.572 
z
" style="fill: #4d4d4d; opacity: 0.5; stroke: #4d4d4d; stroke-linejoin: miter"/>
    </g>
    <g id="patch_8">
     <path d="M 344.22 93.572 
L 407.72 93.572 
Q 409.72 93.572 409.72 91.572 
L 409.72 48.472 
Q 409.72 46.472 407.72 46.472 
L 344.22 46.472 
Q 342.22 46.472 342.22 48.472 
L 342.22 91.572 
Q 342.22 93.572 344.22 93.572 
z
" style="fill: #ffffff; stroke: #cccccc; stroke-linejoin: miter"/>
    </g>
    <g id="line2d_32">
     <path d="M 346.22 54.572 
L 356.22 54.572 
L 366.22 54.572 
" style="fill: none; stroke: #1f77b4; stroke-width: 2; stroke-linecap: square"/>
    </g>
    <g id="text_17">
     <!-- $\phi_1(x)$ -->
     <g transform="translate(374.22 58.072) scale(0.1 -0.1)">
      <defs>
       <path id="DejaVuSans-Oblique-3d5" d="M 2991 4863 
L 2738 3572 
Q 3363 3572 3684 3094 
Q 4016 2606 3850 1747 
Q 3681 888 3159 400 
Q 2653 -78 2028 -78 
L 1784 -1331 
L 1213 -1331 
L 1456 -78 
Q 834 -78 509 400 
Q 178 888 347 1747 
Q 513 2606 1034 3094 
Q 1544 3572 2166 3572 
L 2419 4863 
L 2991 4863 
z
M 2128 434 
Q 2481 434 2784 756 
Q 3116 1116 3244 1747 
Q 3369 2372 3169 2738 
Q 2991 3059 2638 3059 
L 2128 434 
z
M 1556 434 
L 2066 3059 
Q 1716 3059 1413 2738 
Q 1072 2372 953 1747 
Q 834 1116 1028 756 
Q 1203 434 1556 434 
z
" transform="scale(0.015625)"/>
       <path id="DejaVuSans-28" d="M 1984 4856 
Q 1566 4138 1362 3434 
Q 1159 2731 1159 2009 
Q 1159 1288 1364 580 
Q 1569 -128 1984 -844 
L 1484 -844 
Q 1016 -109 783 600 
Q 550 1309 550 2009 
Q 550 2706 781 3412 
Q 1013 4119 1484 4856 
L 1984 4856 
z
" transform="scale(0.015625)"/>
       <path id="DejaVuSans-Oblique-78" d="M 3841 3500 
L 2234 1784 
L 3219 0 
L 2559 0 
L 1819 1388 
L 531 0 
L -166 0 
L 1556 1844 
L 641 3500 
L 1300 3500 
L 1972 2234 
L 3144 3500 
L 3841 3500 
z
" transform="scale(0.015625)"/>
       <path id="DejaVuSans-29" d="M 513 4856 
L 1013 4856 
Q 1481 4119 1714 3412 
Q 1947 2706 1947 2009 
Q 1947 1309 1714 600 
Q 1481 -109 1013 -844 
L 513 -844 
Q 928 -128 1133 580 
Q 1338 1288 1338 2009 
Q 1338 2731 1133 3434 
Q 928 4138 513 4856 
z
" transform="scale(0.015625)"/>
      </defs>
      <use xlink:href="#DejaVuSans-Oblique-3d5" transform="translate(0 0.015625)"/>
      <use xlink:href="#DejaVuSans-31" transform="translate(65.966797 -16.390625) scale(0.7)"/>
      <use xlink:href="#DejaVuSans-28" transform="translate(113.237305 0.015625)"/>
      <use xlink:href="#DejaVuSans-Oblique-78" transform="translate(152.250977 0.015625)"/>
      <use xlink:href="#DejaVuSans-29" transform="translate(211.430664 0.015625)"/>
     </g>
    </g>
    <g id="line2d_33">
     <path d="M 346.22 69.272 
L 356.22 69.272 
L 366.22 69.272 
" style="fill: none; stroke: #ff7f0e; stroke-width: 2; stroke-linecap: square"/>
    </g>
    <g id="text_18">
     <!-- $\phi_21(x)$ -->
     <g transform="translate(374.22 72.772) scale(0.1 -0.1)">
      <use xlink:href="#DejaVuSans-Oblique-3d5" transform="translate(0 0.015625)"/>
      <use xlink:href="#DejaVuSans-32" transform="translate(65.966797 -16.390625) scale(0.7)"/>
      <use xlink:href="#DejaVuSans-31" transform="translate(113.237305 0.015625)"/>
      <use xlink:href="#DejaVuSans-28" transform="translate(176.860352 0.015625)"/>
      <use xlink:href="#DejaVuSans-Oblique-78" transform="translate(215.874023 0.015625)"/>
      <use xlink:href="#DejaVuSans-29" transform="translate(275.053711 0.015625)"/>
     </g>
    </g>
    <g id="line2d_34">
     <path d="M 346.22 83.972 
L 356.22 83.972 
L 366.22 83.972 
" style="fill: none; stroke: #2ca02c; stroke-width: 2; stroke-linecap: square"/>
    </g>
    <g id="text_19">
     <!-- $\phi_3(x)$ -->
     <g transform="translate(374.22 87.472) scale(0.1 -0.1)">
      <use xlink:href="#DejaVuSans-Oblique-3d5" transform="translate(0 0.015625)"/>
      <use xlink:href="#DejaVuSans-33" transform="translate(65.966797 -16.390625) scale(0.7)"/>
      <use xlink:href="#DejaVuSans-28" transform="translate(113.237305 0.015625)"/>
      <use xlink:href="#DejaVuSans-Oblique-78" transform="translate(152.250977 0.015625)"/>
      <use xlink:href="#DejaVuSans-29" transform="translate(211.430664 0.015625)"/>
     </g>
    </g>
   </g>
  </g>
  <g id="text_20">
   <!-- Fourier Series -->
   <g transform="translate(189.042188 16.030125) scale(0.12 -0.12)">
    <defs>
     <path id="DejaVuSans-46" d="M 628 4666 
L 3309 4666 
L 3309 4134 
L 1259 4134 
L 1259 2759 
L 3109 2759 
L 3109 2228 
L 1259 2228 
L 1259 0 
L 628 0 
L 628 4666 
z
" transform="scale(0.015625)"/>
     <path id="DejaVuSans-6f" d="M 1959 3097 
Q 1497 3097 1228 2736 
Q 959 2375 959 1747 
Q 959 1119 1226 758 
Q 1494 397 1959 397 
Q 2419 397 2687 759 
Q 2956 1122 2956 1747 
Q 2956 2369 2687 2733 
Q 2419 3097 1959 3097 
z
M 1959 3584 
Q 2709 3584 3137 3096 
Q 3566 2609 3566 1747 
Q 3566 888 3137 398 
Q 2709 -91 1959 -91 
Q 1206 -91 779 398 
Q 353 888 353 1747 
Q 353 2609 779 3096 
Q 1206 3584 1959 3584 
z
" transform="scale(0.015625)"/>
     <path id="DejaVuSans-75" d="M 544 1381 
L 544 3500 
L 1119 3500 
L 1119 1403 
Q 1119 906 1312 657 
Q 1506 409 1894 409 
Q 2359 409 2629 706 
Q 2900 1003 2900 1516 
L 2900 3500 
L 3475 3500 
L 3475 0 
L 2900 0 
L 2900 538 
Q 2691 219 2414 64 
Q 2138 -91 1772 -91 
Q 1169 -91 856 284 
Q 544 659 544 1381 
z
M 1991 3584 
L 1991 3584 
z
" transform="scale(0.015625)"/>
     <path id="DejaVuSans-72" d="M 2631 2963 
Q 2534 3019 2420 3045 
Q 2306 3072 2169 3072 
Q 1681 3072 1420 2755 
Q 1159 2438 1159 1844 
L 1159 0 
L 581 0 
L 581 3500 
L 1159 3500 
L 1159 2956 
Q 1341 3275 1631 3429 
Q 1922 3584 2338 3584 
Q 2397 3584 2469 3576 
Q 2541 3569 2628 3553 
L 2631 2963 
z
" transform="scale(0.015625)"/>
     <path id="DejaVuSans-69" d="M 603 3500 
L 1178 3500 
L 1178 0 
L 603 0 
L 603 3500 
z
M 603 4863 
L 1178 4863 
L 1178 4134 
L 603 4134 
L 603 4863 
z
" transform="scale(0.015625)"/>
     <path id="DejaVuSans-65" d="M 3597 1894 
L 3597 1613 
L 953 1613 
Q 991 1019 1311 708 
Q 1631 397 2203 397 
Q 2534 397 2845 478 
Q 3156 559 3463 722 
L 3463 178 
Q 3153 47 2828 -22 
Q 2503 -91 2169 -91 
Q 1331 -91 842 396 
Q 353 884 353 1716 
Q 353 2575 817 3079 
Q 1281 3584 2069 3584 
Q 2775 3584 3186 3129 
Q 3597 2675 3597 1894 
z
M 3022 2063 
Q 3016 2534 2758 2815 
Q 2500 3097 2075 3097 
Q 1594 3097 1305 2825 
Q 1016 2553 972 2059 
L 3022 2063 
z
" transform="scale(0.015625)"/>
     <path id="DejaVuSans-20" transform="scale(0.015625)"/>
     <path id="DejaVuSans-53" d="M 3425 4513 
L 3425 3897 
Q 3066 4069 2747 4153 
Q 2428 4238 2131 4238 
Q 1616 4238 1336 4038 
Q 1056 3838 1056 3469 
Q 1056 3159 1242 3001 
Q 1428 2844 1947 2747 
L 2328 2669 
Q 3034 2534 3370 2195 
Q 3706 1856 3706 1288 
Q 3706 609 3251 259 
Q 2797 -91 1919 -91 
Q 1588 -91 1214 -16 
Q 841 59 441 206 
L 441 856 
Q 825 641 1194 531 
Q 1563 422 1919 422 
Q 2459 422 2753 634 
Q 3047 847 3047 1241 
Q 3047 1584 2836 1778 
Q 2625 1972 2144 2069 
L 1759 2144 
Q 1053 2284 737 2584 
Q 422 2884 422 3419 
Q 422 4038 858 4394 
Q 1294 4750 2059 4750 
Q 2388 4750 2728 4690 
Q 3069 4631 3425 4513 
z
" transform="scale(0.015625)"/>
     <path id="DejaVuSans-73" d="M 2834 3397 
L 2834 2853 
Q 2591 2978 2328 3040 
Q 2066 3103 1784 3103 
Q 1356 3103 1142 2972 
Q 928 2841 928 2578 
Q 928 2378 1081 2264 
Q 1234 2150 1697 2047 
L 1894 2003 
Q 2506 1872 2764 1633 
Q 3022 1394 3022 966 
Q 3022 478 2636 193 
Q 2250 -91 1575 -91 
Q 1294 -91 989 -36 
Q 684 19 347 128 
L 347 722 
Q 666 556 975 473 
Q 1284 391 1588 391 
Q 1994 391 2212 530 
Q 2431 669 2431 922 
Q 2431 1156 2273 1281 
Q 2116 1406 1581 1522 
L 1381 1569 
Q 847 1681 609 1914 
Q 372 2147 372 2553 
Q 372 3047 722 3315 
Q 1072 3584 1716 3584 
Q 2034 3584 2315 3537 
Q 2597 3491 2834 3397 
z
" transform="scale(0.015625)"/>
    </defs>
    <use xlink:href="#DejaVuSans-46"/>
    <use xlink:href="#DejaVuSans-6f" transform="translate(53.894531 0)"/>
    <use xlink:href="#DejaVuSans-75" transform="translate(115.076172 0)"/>
    <use xlink:href="#DejaVuSans-72" transform="translate(178.455078 0)"/>
    <use xlink:href="#DejaVuSans-69" transform="translate(219.568359 0)"/>
    <use xlink:href="#DejaVuSans-65" transform="translate(247.351562 0)"/>
    <use xlink:href="#DejaVuSans-72" transform="translate(308.875 0)"/>
    <use xlink:href="#DejaVuSans-20" transform="translate(349.988281 0)"/>
    <use xlink:href="#DejaVuSans-53" transform="translate(381.775391 0)"/>
    <use xlink:href="#DejaVuSans-65" transform="translate(445.251953 0)"/>
    <use xlink:href="#DejaVuSans-72" transform="translate(506.775391 0)"/>
    <use xlink:href="#DejaVuSans-69" transform="translate(547.888672 0)"/>
    <use xlink:href="#DejaVuSans-65" transform="translate(575.671875 0)"/>
    <use xlink:href="#DejaVuSans-73" transform="translate(637.195312 0)"/>
   </g>
  </g>
 </g>
 <defs>
  <clipPath id="p94b0cde628">
   <rect x="57.6" y="41.472" width="357.12" height="266.112"/>
  </clipPath>
 </defs>
</svg>
