<?xml version="1.0" encoding="utf-8" standalone="no"?>
<!DOCTYPE svg PUBLIC "-//W3C//DTD SVG 1.1//EN"
  "http://www.w3.org/Graphics/SVG/1.1/DTD/svg11.dtd">
<svg xmlns:xlink="http://www.w3.org/1999/xlink" width="460.8pt" height="345.6pt" viewBox="0 0 460.8 345.6" xmlns="http://www.w3.org/2000/svg" version="1.1">
 <metadata>
  <rdf:RDF xmlns:dc="http://purl.org/dc/elements/1.1/" xmlns:cc="http://creativecommons.org/ns#" xmlns:rdf="http://www.w3.org/1999/02/22-rdf-syntax-ns#">
   <cc:Work>
    <dc:type rdf:resource="http://purl.org/dc/dcmitype/StillImage"/>
    <dc:date>2026-01-05T15:32:36.188789</dc:date>
    <dc:format>image/svg+xml</dc:format>
    <dc:creator>
     <cc:Agent>
      <dc:title>Matplotlib v3.10.8, https://matplotlib.org/</dc:title>
     </cc:Agent>
    </dc:creator>
   </cc:Work>
  </rdf:RDF>
 </metadata>
 <defs>
  <style type="text/css">*{stroke-linejoin: round; stroke-linecap: butt}</style>
 </defs>
 <g id="figure_1">
  <g id="patch_1">
   <path d="M 0 345.6 
L 460.8 345.6 
L 460.8 0 
L 0 0 
z
" style="fill: #ffffff"/>
  </g>
  <g id="axes_1">
   <g id="patch_2">
    <path d="M 57.6 307.584 
L 414.72 307.584 
L 414.72 41.472 
L 57.6 41.472 
z
" style="fill: #ffffff"/>
   </g>
   <g id="matplotlib.axis_1">
    <g id="xtick_1">
     <g id="line2d_1">
      <path d="M 77.015615 307.584 
L 77.015615 41.472 
" clip-path="url(#p8b75d16472)" style="fill: none; stroke: #b0b0b0; stroke-width: 0.8; stroke-linecap: square"/>
     </g>
     <g id="line2d_2">
      <defs>
       <path id="m4d98663ecd" d="M 0 0 
L 0 3.5 
" style="stroke: #000000; stroke-width: 0.8"/>
      </defs>
      <g>
       <use xlink:href="#m4d98663ecd" x="77.015615" y="307.584" style="stroke: #000000; stroke-width: 0.8"/>
      </g>
     </g>
     <g id="text_1">
      <!-- −3 -->
      <g transform="translate(69.644521 322.182437) scale(0.1 -0.1)">
       <defs>
        <path id="DejaVuSans-2212" d="M 678 2272 
L 4684 2272 
L 4684 1741 
L 678 1741 
L 678 2272 
z
" transform="scale(0.015625)"/>
        <path id="DejaVuSans-33" d="M 2597 2516 
Q 3050 2419 3304 2112 
Q 3559 1806 3559 1356 
Q 3559 666 3084 287 
Q 2609 -91 1734 -91 
Q 1441 -91 1130 -33 
Q 819 25 488 141 
L 488 750 
Q 750 597 1062 519 
Q 1375 441 1716 441 
Q 2309 441 2620 675 
Q 2931 909 2931 1356 
Q 2931 1769 2642 2001 
Q 2353 2234 1838 2234 
L 1294 2234 
L 1294 2753 
L 1863 2753 
Q 2328 2753 2575 2939 
Q 2822 3125 2822 3475 
Q 2822 3834 2567 4026 
Q 2313 4219 1838 4219 
Q 1578 4219 1281 4162 
Q 984 4106 628 3988 
L 628 4550 
Q 988 4650 1302 4700 
Q 1616 4750 1894 4750 
Q 2613 4750 3031 4423 
Q 3450 4097 3450 3541 
Q 3450 3153 3228 2886 
Q 3006 2619 2597 2516 
z
" transform="scale(0.015625)"/>
       </defs>
       <use xlink:href="#DejaVuSans-2212"/>
       <use xlink:href="#DejaVuSans-33" transform="translate(83.789062 0)"/>
      </g>
     </g>
    </g>
    <g id="xtick_2">
     <g id="line2d_3">
      <path d="M 130.063743 307.584 
L 130.063743 41.472 
" clip-path="url(#p8b75d16472)" style="fill: none; stroke: #b0b0b0; stroke-width: 0.8; stroke-linecap: square"/>
     </g>
     <g id="line2d_4">
      <g>
       <use xlink:href="#m4d98663ecd" x="130.063743" y="307.584" style="stroke: #000000; stroke-width: 0.8"/>
      </g>
     </g>
     <g id="text_2">
      <!-- −2 -->
      <g transform="translate(122.69265 322.182437) scale(0.1 -0.1)">
       <defs>
        <path id="DejaVuSans-32" d="M 1228 531 
L 3431 531 
L 3431 0 
L 469 0 
L 469 531 
Q 828 903 1448 1529 
Q 2069 2156 2228 2338 
Q 2531 2678 2651 2914 
Q 2772 3150 2772 3378 
Q 2772 3750 2511 3984 
Q 2250 4219 1831 4219 
Q 1534 4219 1204 4116 
Q 875 4013 500 3803 
L 500 4441 
Q 881 4594 1212 4672 
Q 1544 4750 1819 4750 
Q 2544 4750 2975 4387 
Q 3406 4025 3406 3419 
Q 3406 3131 3298 2873 
Q 3191 2616 2906 2266 
Q 2828 2175 2409 1742 
Q 1991 1309 1228 531 
z
" transform="scale(0.015625)"/>
       </defs>
       <use xlink:href="#DejaVuSans-2212"/>
       <use xlink:href="#DejaVuSans-32" transform="translate(83.789062 0)"/>
      </g>
     </g>
    </g>
    <g id="xtick_3">
     <g id="line2d_5">
      <path d="M 183.111872 307.584 
L 183.111872 41.472 
" clip-path="url(#p8b75d16472)" style="fill: none; stroke: #b0b0b0; stroke-width: 0.8; stroke-linecap: square"/>
     </g>
     <g id="line2d_6">
      <g>
       <use xlink:href="#m4d98663ecd" x="183.111872" y="307.584" style="stroke: #000000; stroke-width: 0.8"/>
      </g>
     </g>
     <g id="text_3">
      <!-- −1 -->
      <g transform="translate(175.740778 322.182437) scale(0.1 -0.1)">
       <defs>
        <path id="DejaVuSans-31" d="M 794 531 
L 1825 531 
L 1825 4091 
L 703 3866 
L 703 4441 
L 1819 4666 
L 2450 4666 
L 2450 531 
L 3481 531 
L 3481 0 
L 794 0 
L 794 531 
z
" transform="scale(0.015625)"/>
       </defs>
       <use xlink:href="#DejaVuSans-2212"/>
       <use xlink:href="#DejaVuSans-31" transform="translate(83.789062 0)"/>
      </g>
     </g>
    </g>
    <g id="xtick_4">
     <g id="line2d_7">
      <path d="M 236.16 307.584 
L 236.16 41.472 
" clip-path="url(#p8b75d16472)" style="fill: none; stroke: #b0b0b0; stroke-width: 0.8; stroke-linecap: square"/>
     </g>
     <g id="line2d_8">
      <g>
       <use xlink:href="#m4d98663ecd" x="236.16" y="307.584" style="stroke: #000000; stroke-width: 0.8"/>
      </g>
     </g>
     <g id="text_4">
      <!-- 0 -->
      <g transform="translate(232.97875 322.182437) scale(0.1 -0.1)">
       <defs>
        <path id="DejaVuSans-30" d="M 2034 4250 
Q 1547 4250 1301 3770 
Q 1056 3291 1056 2328 
Q 1056 1369 1301 889 
Q 1547 409 2034 409 
Q 2525 409 2770 889 
Q 3016 1369 3016 2328 
Q 3016 3291 2770 3770 
Q 2525 4250 2034 4250 
z
M 2034 4750 
Q 2819 4750 3233 4129 
Q 3647 3509 3647 2328 
Q 3647 1150 3233 529 
Q 2819 -91 2034 -91 
Q 1250 -91 836 529 
Q 422 1150 422 2328 
Q 422 3509 836 4129 
Q 1250 4750 2034 4750 
z
" transform="scale(0.015625)"/>
       </defs>
       <use xlink:href="#DejaVuSans-30"/>
      </g>
     </g>
    </g>
    <g id="xtick_5">
     <g id="line2d_9">
      <path d="M 289.208128 307.584 
L 289.208128 41.472 
" clip-path="url(#p8b75d16472)" style="fill: none; stroke: #b0b0b0; stroke-width: 0.8; stroke-linecap: square"/>
     </g>
     <g id="line2d_10">
      <g>
       <use xlink:href="#m4d98663ecd" x="289.208128" y="307.584" style="stroke: #000000; stroke-width: 0.8"/>
      </g>
     </g>
     <g id="text_5">
      <!-- 1 -->
      <g transform="translate(286.026878 322.182437) scale(0.1 -0.1)">
       <use xlink:href="#DejaVuSans-31"/>
      </g>
     </g>
    </g>
    <g id="xtick_6">
     <g id="line2d_11">
      <path d="M 342.256257 307.584 
L 342.256257 41.472 
" clip-path="url(#p8b75d16472)" style="fill: none; stroke: #b0b0b0; stroke-width: 0.8; stroke-linecap: square"/>
     </g>
     <g id="line2d_12">
      <g>
       <use xlink:href="#m4d98663ecd" x="342.256257" y="307.584" style="stroke: #000000; stroke-width: 0.8"/>
      </g>
     </g>
     <g id="text_6">
      <!-- 2 -->
      <g transform="translate(339.075007 322.182437) scale(0.1 -0.1)">
       <use xlink:href="#DejaVuSans-32"/>
      </g>
     </g>
    </g>
    <g id="xtick_7">
     <g id="line2d_13">
      <path d="M 395.304385 307.584 
L 395.304385 41.472 
" clip-path="url(#p8b75d16472)" style="fill: none; stroke: #b0b0b0; stroke-width: 0.8; stroke-linecap: square"/>
     </g>
     <g id="line2d_14">
      <g>
       <use xlink:href="#m4d98663ecd" x="395.304385" y="307.584" style="stroke: #000000; stroke-width: 0.8"/>
      </g>
     </g>
     <g id="text_7">
      <!-- 3 -->
      <g transform="translate(392.123135 322.182437) scale(0.1 -0.1)">
       <use xlink:href="#DejaVuSans-33"/>
      </g>
     </g>
    </g>
   </g>
   <g id="matplotlib.axis_2">
    <g id="ytick_1">
     <g id="line2d_15">
      <path d="M 57.6 295.488 
L 414.72 295.488 
" clip-path="url(#p8b75d16472)" style="fill: none; stroke: #b0b0b0; stroke-width: 0.8; stroke-linecap: square"/>
     </g>
     <g id="line2d_16">
      <defs>
       <path id="m9fd7630c39" d="M 0 0 
L -3.5 0 
" style="stroke: #000000; stroke-width: 0.8"/>
      </defs>
      <g>
       <use xlink:href="#m9fd7630c39" x="57.6" y="295.488" style="stroke: #000000; stroke-width: 0.8"/>
      </g>
     </g>
     <g id="text_8">
      <!-- 0.0 -->
      <g transform="translate(34.696875 299.287219) scale(0.1 -0.1)">
       <defs>
        <path id="DejaVuSans-2e" d="M 684 794 
L 1344 794 
L 1344 0 
L 684 0 
L 684 794 
z
" transform="scale(0.015625)"/>
       </defs>
       <use xlink:href="#DejaVuSans-30"/>
       <use xlink:href="#DejaVuSans-2e" transform="translate(63.623047 0)"/>
       <use xlink:href="#DejaVuSans-30" transform="translate(95.410156 0)"/>
      </g>
     </g>
    </g>
    <g id="ytick_2">
     <g id="line2d_17">
      <path d="M 57.6 256.237806 
L 414.72 256.237806 
" clip-path="url(#p8b75d16472)" style="fill: none; stroke: #b0b0b0; stroke-width: 0.8; stroke-linecap: square"/>
     </g>
     <g id="line2d_18">
      <g>
       <use xlink:href="#m9fd7630c39" x="57.6" y="256.237806" style="stroke: #000000; stroke-width: 0.8"/>
      </g>
     </g>
     <g id="text_9">
      <!-- 0.1 -->
      <g transform="translate(34.696875 260.037025) scale(0.1 -0.1)">
       <use xlink:href="#DejaVuSans-30"/>
       <use xlink:href="#DejaVuSans-2e" transform="translate(63.623047 0)"/>
       <use xlink:href="#DejaVuSans-31" transform="translate(95.410156 0)"/>
      </g>
     </g>
    </g>
    <g id="ytick_3">
     <g id="line2d_19">
      <path d="M 57.6 216.987612 
L 414.72 216.987612 
" clip-path="url(#p8b75d16472)" style="fill: none; stroke: #b0b0b0; stroke-width: 0.8; stroke-linecap: square"/>
     </g>
     <g id="line2d_20">
      <g>
       <use xlink:href="#m9fd7630c39" x="57.6" y="216.987612" style="stroke: #000000; stroke-width: 0.8"/>
      </g>
     </g>
     <g id="text_10">
      <!-- 0.2 -->
      <g transform="translate(34.696875 220.786831) scale(0.1 -0.1)">
       <use xlink:href="#DejaVuSans-30"/>
       <use xlink:href="#DejaVuSans-2e" transform="translate(63.623047 0)"/>
       <use xlink:href="#DejaVuSans-32" transform="translate(95.410156 0)"/>
      </g>
     </g>
    </g>
    <g id="ytick_4">
     <g id="line2d_21">
      <path d="M 57.6 177.737418 
L 414.72 177.737418 
" clip-path="url(#p8b75d16472)" style="fill: none; stroke: #b0b0b0; stroke-width: 0.8; stroke-linecap: square"/>
     </g>
     <g id="line2d_22">
      <g>
       <use xlink:href="#m9fd7630c39" x="57.6" y="177.737418" style="stroke: #000000; stroke-width: 0.8"/>
      </g>
     </g>
     <g id="text_11">
      <!-- 0.3 -->
      <g transform="translate(34.696875 181.536636) scale(0.1 -0.1)">
       <use xlink:href="#DejaVuSans-30"/>
       <use xlink:href="#DejaVuSans-2e" transform="translate(63.623047 0)"/>
       <use xlink:href="#DejaVuSans-33" transform="translate(95.410156 0)"/>
      </g>
     </g>
    </g>
    <g id="ytick_5">
     <g id="line2d_23">
      <path d="M 57.6 138.487224 
L 414.72 138.487224 
" clip-path="url(#p8b75d16472)" style="fill: none; stroke: #b0b0b0; stroke-width: 0.8; stroke-linecap: square"/>
     </g>
     <g id="line2d_24">
      <g>
       <use xlink:href="#m9fd7630c39" x="57.6" y="138.487224" style="stroke: #000000; stroke-width: 0.8"/>
      </g>
     </g>
     <g id="text_12">
      <!-- 0.4 -->
      <g transform="translate(34.696875 142.286442) scale(0.1 -0.1)">
       <defs>
        <path id="DejaVuSans-34" d="M 2419 4116 
L 825 1625 
L 2419 1625 
L 2419 4116 
z
M 2253 4666 
L 3047 4666 
L 3047 1625 
L 3713 1625 
L 3713 1100 
L 3047 1100 
L 3047 0 
L 2419 0 
L 2419 1100 
L 313 1100 
L 313 1709 
L 2253 4666 
z
" transform="scale(0.015625)"/>
       </defs>
       <use xlink:href="#DejaVuSans-30"/>
       <use xlink:href="#DejaVuSans-2e" transform="translate(63.623047 0)"/>
       <use xlink:href="#DejaVuSans-34" transform="translate(95.410156 0)"/>
      </g>
     </g>
    </g>
    <g id="ytick_6">
     <g id="line2d_25">
      <path d="M 57.6 99.237029 
L 414.72 99.237029 
" clip-path="url(#p8b75d16472)" style="fill: none; stroke: #b0b0b0; stroke-width: 0.8; stroke-linecap: square"/>
     </g>
     <g id="line2d_26">
      <g>
       <use xlink:href="#m9fd7630c39" x="57.6" y="99.237029" style="stroke: #000000; stroke-width: 0.8"/>
      </g>
     </g>
     <g id="text_13">
      <!-- 0.5 -->
      <g transform="translate(34.696875 103.036248) scale(0.1 -0.1)">
       <defs>
        <path id="DejaVuSans-35" d="M 691 4666 
L 3169 4666 
L 3169 4134 
L 1269 4134 
L 1269 2991 
Q 1406 3038 1543 3061 
Q 1681 3084 1819 3084 
Q 2600 3084 3056 2656 
Q 3513 2228 3513 1497 
Q 3513 744 3044 326 
Q 2575 -91 1722 -91 
Q 1428 -91 1123 -41 
Q 819 9 494 109 
L 494 744 
Q 775 591 1075 516 
Q 1375 441 1709 441 
Q 2250 441 2565 725 
Q 2881 1009 2881 1497 
Q 2881 1984 2565 2268 
Q 2250 2553 1709 2553 
Q 1456 2553 1204 2497 
Q 953 2441 691 2322 
L 691 4666 
z
" transform="scale(0.015625)"/>
       </defs>
       <use xlink:href="#DejaVuSans-30"/>
       <use xlink:href="#DejaVuSans-2e" transform="translate(63.623047 0)"/>
       <use xlink:href="#DejaVuSans-35" transform="translate(95.410156 0)"/>
      </g>
     </g>
    </g>
    <g id="ytick_7">
     <g id="line2d_27">
      <path d="M 57.6 59.986835 
L 414.72 59.986835 
" clip-path="url(#p8b75d16472)" style="fill: none; stroke: #b0b0b0; stroke-width: 0.8; stroke-linecap: square"/>
     </g>
     <g id="line2d_28">
      <g>
       <use xlink:href="#m9fd7630c39" x="57.6" y="59.986835" style="stroke: #000000; stroke-width: 0.8"/>
      </g>
     </g>
     <g id="text_14">
      <!-- 0.6 -->
      <g transform="translate(34.696875 63.786054) scale(0.1 -0.1)">
       <defs>
        <path id="DejaVuSans-36" d="M 2113 2584 
Q 1688 2584 1439 2293 
Q 1191 2003 1191 1497 
Q 1191 994 1439 701 
Q 1688 409 2113 409 
Q 2538 409 2786 701 
Q 3034 994 3034 1497 
Q 3034 2003 2786 2293 
Q 2538 2584 2113 2584 
z
M 3366 4563 
L 3366 3988 
Q 3128 4100 2886 4159 
Q 2644 4219 2406 4219 
Q 1781 4219 1451 3797 
Q 1122 3375 1075 2522 
Q 1259 2794 1537 2939 
Q 1816 3084 2150 3084 
Q 2853 3084 3261 2657 
Q 3669 2231 3669 1497 
Q 3669 778 3244 343 
Q 2819 -91 2113 -91 
Q 1303 -91 875 529 
Q 447 1150 447 2328 
Q 447 3434 972 4092 
Q 1497 4750 2381 4750 
Q 2619 4750 2861 4703 
Q 3103 4656 3366 4563 
z
" transform="scale(0.015625)"/>
       </defs>
       <use xlink:href="#DejaVuSans-30"/>
       <use xlink:href="#DejaVuSans-2e" transform="translate(63.623047 0)"/>
       <use xlink:href="#DejaVuSans-36" transform="translate(95.410156 0)"/>
      </g>
     </g>
    </g>
    <g id="text_15">
     <!-- PDF -->
     <g transform="translate(28.617188 184.268625) rotate(-90) scale(0.1 -0.1)">
      <defs>
       <path id="DejaVuSans-50" d="M 1259 4147 
L 1259 2394 
L 2053 2394 
Q 2494 2394 2734 2622 
Q 2975 2850 2975 3272 
Q 2975 3691 2734 3919 
Q 2494 4147 2053 4147 
L 1259 4147 
z
M 628 4666 
L 2053 4666 
Q 2838 4666 3239 4311 
Q 3641 3956 3641 3272 
Q 3641 2581 3239 2228 
Q 2838 1875 2053 1875 
L 1259 1875 
L 1259 0 
L 628 0 
L 628 4666 
z
" transform="scale(0.015625)"/>
       <path id="DejaVuSans-44" d="M 1259 4147 
L 1259 519 
L 2022 519 
Q 2988 519 3436 956 
Q 3884 1394 3884 2338 
Q 3884 3275 3436 3711 
Q 2988 4147 2022 4147 
L 1259 4147 
z
M 628 4666 
L 1925 4666 
Q 3281 4666 3915 4102 
Q 4550 3538 4550 2338 
Q 4550 1131 3912 565 
Q 3275 0 1925 0 
L 628 0 
L 628 4666 
z
" transform="scale(0.015625)"/>
       <path id="DejaVuSans-46" d="M 628 4666 
L 3309 4666 
L 3309 4134 
L 1259 4134 
L 1259 2759 
L 3109 2759 
L 3109 2228 
L 1259 2228 
L 1259 0 
L 628 0 
L 628 4666 
z
" transform="scale(0.015625)"/>
      </defs>
      <use xlink:href="#DejaVuSans-50"/>
      <use xlink:href="#DejaVuSans-44" transform="translate(60.302734 0)"/>
      <use xlink:href="#DejaVuSans-46" transform="translate(137.304688 0)"/>
     </g>
    </g>
   </g>
   <g id="line2d_29">
    <path d="M 73.832727 295.488 
L 77.015615 295.488 
L 77.015615 295.488 
L 77.015615 69.844537 
L 83.38139 69.844537 
L 83.38139 295.488 
L 83.38139 63.672061 
L 89.747166 63.672061 
L 89.747166 295.488 
L 89.747166 53.568 
L 96.112941 53.568 
L 96.112941 295.488 
L 96.112941 69.681284 
L 102.478717 69.681284 
L 102.478717 295.488 
L 102.478717 109.082962 
L 108.844492 109.082962 
L 108.844492 295.488 
L 108.844492 159.899318 
L 115.210267 159.899318 
L 115.210267 295.488 
L 115.210267 210.022276 
L 121.576043 210.022276 
L 121.576043 295.488 
L 121.576043 245.401504 
L 127.941818 245.401504 
L 127.941818 295.488 
L 127.941818 260.453795 
L 134.307594 260.453795 
L 134.307594 295.488 
L 134.307594 261.698306 
L 140.673369 261.698306 
L 140.673369 295.488 
L 140.673369 258.97706 
L 147.039144 258.97706 
L 147.039144 295.488 
L 147.039144 259.803878 
L 153.40492 259.803878 
L 153.40492 295.488 
L 153.40492 265.286055 
L 159.770695 265.286055 
L 159.770695 295.488 
L 159.770695 273.292091 
L 166.136471 273.292091 
L 166.136471 295.488 
L 166.136471 281.617003 
L 172.502246 281.617003 
L 172.502246 295.488 
L 172.502246 287.899021 
L 178.868021 287.899021 
L 178.868021 295.488 
L 178.868021 290.844094 
L 185.233797 290.844094 
L 185.233797 295.488 
L 185.233797 291.237201 
L 191.599572 291.237201 
L 191.599572 295.488 
L 191.599572 290.395832 
L 197.965348 290.395832 
L 197.965348 295.488 
L 197.965348 289.655995 
L 204.331123 289.655995 
L 204.331123 295.488 
L 204.331123 289.746222 
L 210.696898 289.746222 
L 210.696898 295.488 
L 210.696898 290.587979 
L 217.062674 290.587979 
L 217.062674 295.488 
L 217.062674 291.895546 
L 223.428449 291.895546 
L 223.428449 295.488 
L 223.428449 293.220876 
L 229.794225 293.220876 
L 229.794225 295.488 
L 229.794225 293.992349 
L 236.16 293.992349 
L 236.16 295.488 
L 236.16 293.992349 
L 242.525775 293.992349 
L 242.525775 295.488 
L 242.525775 293.220876 
L 248.891551 293.220876 
L 248.891551 295.488 
L 248.891551 291.895546 
L 255.257326 291.895546 
L 255.257326 295.488 
L 255.257326 290.587979 
L 261.623102 290.587979 
L 261.623102 295.488 
L 261.623102 289.746222 
L 267.988877 289.746222 
L 267.988877 295.488 
L 267.988877 289.655995 
L 274.354652 289.655995 
L 274.354652 295.488 
L 274.354652 290.395832 
L 280.720428 290.395832 
L 280.720428 295.488 
L 280.720428 291.237201 
L 287.086203 291.237201 
L 287.086203 295.488 
L 287.086203 290.844094 
L 293.451979 290.844094 
L 293.451979 295.488 
L 293.451979 287.899021 
L 299.817754 287.899021 
L 299.817754 295.488 
L 299.817754 281.617003 
L 306.183529 281.617003 
L 306.183529 295.488 
L 306.183529 273.292091 
L 312.549305 273.292091 
L 312.549305 295.488 
L 312.549305 265.286055 
L 318.91508 265.286055 
L 318.91508 295.488 
L 318.91508 259.803878 
L 325.280856 259.803878 
L 325.280856 295.488 
L 325.280856 258.97706 
L 331.646631 258.97706 
L 331.646631 295.488 
L 331.646631 261.698306 
L 338.012406 261.698306 
L 338.012406 295.488 
L 338.012406 260.453795 
L 344.378182 260.453795 
L 344.378182 295.488 
L 344.378182 245.401504 
L 350.743957 245.401504 
L 350.743957 295.488 
L 350.743957 210.022276 
L 357.109733 210.022276 
L 357.109733 295.488 
L 357.109733 159.899318 
L 363.475508 159.899318 
L 363.475508 295.488 
L 363.475508 109.082962 
L 369.841283 109.082962 
L 369.841283 295.488 
L 369.841283 69.681284 
L 376.207059 69.681284 
L 376.207059 295.488 
L 376.207059 53.568 
L 382.572834 53.568 
L 382.572834 295.488 
L 382.572834 63.672061 
L 388.93861 63.672061 
L 388.93861 295.488 
L 388.93861 69.844537 
L 395.304385 69.844537 
L 395.304385 295.488 
L 395.304385 295.488 
L 398.487273 295.488 
L 398.487273 295.488 
" clip-path="url(#p8b75d16472)" style="fill: none; stroke: #1f77b4; stroke-width: 2; stroke-linecap: square"/>
   </g>
   <g id="line2d_30">
    <path d="M 77.015615 55.769315 
L 80.230653 70.934345 
L 83.445691 71.438192 
L 86.660729 64.475026 
L 89.875767 57.134518 
L 93.090805 54.708391 
L 96.305843 59.612654 
L 99.520882 71.765257 
L 102.73592 89.795643 
L 105.950958 112.065068 
L 109.165996 137.082838 
L 112.381034 163.429607 
L 115.596072 189.483257 
L 118.81111 213.310013 
L 122.026148 233.017789 
L 125.241186 247.440898 
L 128.456224 256.535444 
L 131.671262 261.123618 
L 134.8863 262.387214 
L 138.101339 261.607066 
L 141.316377 260.09083 
L 144.531415 258.989344 
L 147.746453 259.023847 
L 150.961491 260.393952 
L 154.176529 262.933672 
L 157.391567 266.337613 
L 160.606605 270.301873 
L 163.821643 274.553863 
L 167.036681 278.817111 
L 170.251719 282.777694 
L 173.466757 286.115886 
L 176.681795 288.610293 
L 179.896834 290.222875 
L 183.111872 291.071026 
L 186.32691 291.327545 
L 189.541948 291.159588 
L 192.756986 290.735396 
L 195.972024 290.237758 
L 199.187062 289.834165 
L 202.4021 289.629859 
L 205.617138 289.655535 
L 208.832176 289.89316 
L 212.047214 290.308009 
L 215.262252 290.864591 
L 218.477291 291.524058 
L 221.692329 292.231898 
L 224.907367 292.911584 
L 228.122405 293.479232 
L 231.337443 293.873547 
L 234.552481 294.071046 
L 237.767519 294.071046 
L 240.982557 293.873547 
L 244.197595 293.479232 
L 247.412633 292.911584 
L 250.627671 292.231898 
L 253.842709 291.524058 
L 257.057748 290.864591 
L 260.272786 290.308009 
L 263.487824 289.89316 
L 266.702862 289.655535 
L 269.9179 289.629859 
L 273.132938 289.834165 
L 276.347976 290.237758 
L 279.563014 290.735396 
L 282.778052 291.159588 
L 285.99309 291.327545 
L 289.208128 291.071026 
L 292.423166 290.222875 
L 295.638205 288.610293 
L 298.853243 286.115886 
L 302.068281 282.777694 
L 305.283319 278.817111 
L 308.498357 274.553863 
L 311.713395 270.301873 
L 314.928433 266.337613 
L 318.143471 262.933672 
L 321.358509 260.393952 
L 324.573547 259.023847 
L 327.788585 258.989344 
L 331.003623 260.09083 
L 334.218661 261.607066 
L 337.4337 262.387214 
L 340.648738 261.123618 
L 343.863776 256.535444 
L 347.078814 247.440898 
L 350.293852 233.017789 
L 353.50889 213.310013 
L 356.723928 189.483257 
L 359.938966 163.429607 
L 363.154004 137.082838 
L 366.369042 112.065068 
L 369.58408 89.795643 
L 372.799118 71.765257 
L 376.014157 59.612654 
L 379.229195 54.708391 
L 382.444233 57.134518 
L 385.659271 64.475026 
L 388.874309 71.438192 
L 392.089347 70.934345 
L 395.304385 55.769315 
" clip-path="url(#p8b75d16472)" style="fill: none; stroke: #ff7f0e; stroke-linecap: square"/>
   </g>
   <g id="patch_3">
    <path d="M 57.6 307.584 
L 57.6 41.472 
" style="fill: none; stroke: #000000; stroke-width: 0.8; stroke-linejoin: miter; stroke-linecap: square"/>
   </g>
   <g id="patch_4">
    <path d="M 414.72 307.584 
L 414.72 41.472 
" style="fill: none; stroke: #000000; stroke-width: 0.8; stroke-linejoin: miter; stroke-linecap: square"/>
   </g>
   <g id="patch_5">
    <path d="M 57.6 307.584 
L 414.72 307.584 
" style="fill: none; stroke: #000000; stroke-width: 0.8; stroke-linejoin: miter; stroke-linecap: square"/>
   </g>
   <g id="patch_6">
    <path d="M 57.6 41.472 
L 414.72 41.472 
" style="fill: none; stroke: #000000; stroke-width: 0.8; stroke-linejoin: miter; stroke-linecap: square"/>
   </g>
   <g id="legend_1">
    <g id="patch_7">
     <path d="M 341.848125 66.150125 
L 409.72 66.150125 
Q 411.72 66.150125 411.72 64.150125 
L 411.72 50.472 
Q 411.72 48.472 409.72 48.472 
L 341.848125 48.472 
Q 339.848125 48.472 339.848125 50.472 
L 339.848125 64.150125 
Q 339.848125 66.150125 341.848125 66.150125 
z
" style="fill: #4d4d4d; opacity: 0.5; stroke: #4d4d4d; stroke-linejoin: miter"/>
    </g>
    <g id="patch_8">
     <path d="M 339.848125 64.150125 
L 407.72 64.150125 
Q 409.72 64.150125 409.72 62.150125 
L 409.72 48.472 
Q 409.72 46.472 407.72 46.472 
L 339.848125 46.472 
Q 337.848125 46.472 337.848125 48.472 
L 337.848125 62.150125 
Q 337.848125 64.150125 339.848125 64.150125 
z
" style="fill: #ffffff; stroke: #cccccc; stroke-linejoin: miter"/>
    </g>
    <g id="line2d_31">
     <path d="M 341.848125 54.570438 
L 351.848125 54.570438 
L 361.848125 54.570438 
" style="fill: none; stroke: #1f77b4; stroke-width: 2; stroke-linecap: square"/>
    </g>
    <g id="text_16">
     <!-- X0 PDF -->
     <g transform="translate(369.848125 58.070438) scale(0.1 -0.1)">
      <defs>
       <path id="DejaVuSans-58" d="M 403 4666 
L 1081 4666 
L 2241 2931 
L 3406 4666 
L 4084 4666 
L 2584 2425 
L 4184 0 
L 3506 0 
L 2194 1984 
L 872 0 
L 191 0 
L 1856 2491 
L 403 4666 
z
" transform="scale(0.015625)"/>
       <path id="DejaVuSans-20" transform="scale(0.015625)"/>
      </defs>
      <use xlink:href="#DejaVuSans-58"/>
      <use xlink:href="#DejaVuSans-30" transform="translate(68.505859 0)"/>
      <use xlink:href="#DejaVuSans-20" transform="translate(132.128906 0)"/>
      <use xlink:href="#DejaVuSans-50" transform="translate(163.916016 0)"/>
      <use xlink:href="#DejaVuSans-44" transform="translate(224.21875 0)"/>
      <use xlink:href="#DejaVuSans-46" transform="translate(301.220703 0)"/>
     </g>
    </g>
   </g>
  </g>
  <g id="text_17">
   <!-- Conditional distribution of $X_0$ given $X_1 = 1.5$ -->
   <g transform="translate(99.54 16.032) scale(0.12 -0.12)">
    <defs>
     <path id="DejaVuSans-43" d="M 4122 4306 
L 4122 3641 
Q 3803 3938 3442 4084 
Q 3081 4231 2675 4231 
Q 1875 4231 1450 3742 
Q 1025 3253 1025 2328 
Q 1025 1406 1450 917 
Q 1875 428 2675 428 
Q 3081 428 3442 575 
Q 3803 722 4122 1019 
L 4122 359 
Q 3791 134 3420 21 
Q 3050 -91 2638 -91 
Q 1578 -91 968 557 
Q 359 1206 359 2328 
Q 359 3453 968 4101 
Q 1578 4750 2638 4750 
Q 3056 4750 3426 4639 
Q 3797 4528 4122 4306 
z
" transform="scale(0.015625)"/>
     <path id="DejaVuSans-6f" d="M 1959 3097 
Q 1497 3097 1228 2736 
Q 959 2375 959 1747 
Q 959 1119 1226 758 
Q 1494 397 1959 397 
Q 2419 397 2687 759 
Q 2956 1122 2956 1747 
Q 2956 2369 2687 2733 
Q 2419 3097 1959 3097 
z
M 1959 3584 
Q 2709 3584 3137 3096 
Q 3566 2609 3566 1747 
Q 3566 888 3137 398 
Q 2709 -91 1959 -91 
Q 1206 -91 779 398 
Q 353 888 353 1747 
Q 353 2609 779 3096 
Q 1206 3584 1959 3584 
z
" transform="scale(0.015625)"/>
     <path id="DejaVuSans-6e" d="M 3513 2113 
L 3513 0 
L 2938 0 
L 2938 2094 
Q 2938 2591 2744 2837 
Q 2550 3084 2163 3084 
Q 1697 3084 1428 2787 
Q 1159 2491 1159 1978 
L 1159 0 
L 581 0 
L 581 3500 
L 1159 3500 
L 1159 2956 
Q 1366 3272 1645 3428 
Q 1925 3584 2291 3584 
Q 2894 3584 3203 3211 
Q 3513 2838 3513 2113 
z
" transform="scale(0.015625)"/>
     <path id="DejaVuSans-64" d="M 2906 2969 
L 2906 4863 
L 3481 4863 
L 3481 0 
L 2906 0 
L 2906 525 
Q 2725 213 2448 61 
Q 2172 -91 1784 -91 
Q 1150 -91 751 415 
Q 353 922 353 1747 
Q 353 2572 751 3078 
Q 1150 3584 1784 3584 
Q 2172 3584 2448 3432 
Q 2725 3281 2906 2969 
z
M 947 1747 
Q 947 1113 1208 752 
Q 1469 391 1925 391 
Q 2381 391 2643 752 
Q 2906 1113 2906 1747 
Q 2906 2381 2643 2742 
Q 2381 3103 1925 3103 
Q 1469 3103 1208 2742 
Q 947 2381 947 1747 
z
" transform="scale(0.015625)"/>
     <path id="DejaVuSans-69" d="M 603 3500 
L 1178 3500 
L 1178 0 
L 603 0 
L 603 3500 
z
M 603 4863 
L 1178 4863 
L 1178 4134 
L 603 4134 
L 603 4863 
z
" transform="scale(0.015625)"/>
     <path id="DejaVuSans-74" d="M 1172 4494 
L 1172 3500 
L 2356 3500 
L 2356 3053 
L 1172 3053 
L 1172 1153 
Q 1172 725 1289 603 
Q 1406 481 1766 481 
L 2356 481 
L 2356 0 
L 1766 0 
Q 1100 0 847 248 
Q 594 497 594 1153 
L 594 3053 
L 172 3053 
L 172 3500 
L 594 3500 
L 594 4494 
L 1172 4494 
z
" transform="scale(0.015625)"/>
     <path id="DejaVuSans-61" d="M 2194 1759 
Q 1497 1759 1228 1600 
Q 959 1441 959 1056 
Q 959 750 1161 570 
Q 1363 391 1709 391 
Q 2188 391 2477 730 
Q 2766 1069 2766 1631 
L 2766 1759 
L 2194 1759 
z
M 3341 1997 
L 3341 0 
L 2766 0 
L 2766 531 
Q 2569 213 2275 61 
Q 1981 -91 1556 -91 
Q 1019 -91 701 211 
Q 384 513 384 1019 
Q 384 1609 779 1909 
Q 1175 2209 1959 2209 
L 2766 2209 
L 2766 2266 
Q 2766 2663 2505 2880 
Q 2244 3097 1772 3097 
Q 1472 3097 1187 3025 
Q 903 2953 641 2809 
L 641 3341 
Q 956 3463 1253 3523 
Q 1550 3584 1831 3584 
Q 2591 3584 2966 3190 
Q 3341 2797 3341 1997 
z
" transform="scale(0.015625)"/>
     <path id="DejaVuSans-6c" d="M 603 4863 
L 1178 4863 
L 1178 0 
L 603 0 
L 603 4863 
z
" transform="scale(0.015625)"/>
     <path id="DejaVuSans-73" d="M 2834 3397 
L 2834 2853 
Q 2591 2978 2328 3040 
Q 2066 3103 1784 3103 
Q 1356 3103 1142 2972 
Q 928 2841 928 2578 
Q 928 2378 1081 2264 
Q 1234 2150 1697 2047 
L 1894 2003 
Q 2506 1872 2764 1633 
Q 3022 1394 3022 966 
Q 3022 478 2636 193 
Q 2250 -91 1575 -91 
Q 1294 -91 989 -36 
Q 684 19 347 128 
L 347 722 
Q 666 556 975 473 
Q 1284 391 1588 391 
Q 1994 391 2212 530 
Q 2431 669 2431 922 
Q 2431 1156 2273 1281 
Q 2116 1406 1581 1522 
L 1381 1569 
Q 847 1681 609 1914 
Q 372 2147 372 2553 
Q 372 3047 722 3315 
Q 1072 3584 1716 3584 
Q 2034 3584 2315 3537 
Q 2597 3491 2834 3397 
z
" transform="scale(0.015625)"/>
     <path id="DejaVuSans-72" d="M 2631 2963 
Q 2534 3019 2420 3045 
Q 2306 3072 2169 3072 
Q 1681 3072 1420 2755 
Q 1159 2438 1159 1844 
L 1159 0 
L 581 0 
L 581 3500 
L 1159 3500 
L 1159 2956 
Q 1341 3275 1631 3429 
Q 1922 3584 2338 3584 
Q 2397 3584 2469 3576 
Q 2541 3569 2628 3553 
L 2631 2963 
z
" transform="scale(0.015625)"/>
     <path id="DejaVuSans-62" d="M 3116 1747 
Q 3116 2381 2855 2742 
Q 2594 3103 2138 3103 
Q 1681 3103 1420 2742 
Q 1159 2381 1159 1747 
Q 1159 1113 1420 752 
Q 1681 391 2138 391 
Q 2594 391 2855 752 
Q 3116 1113 3116 1747 
z
M 1159 2969 
Q 1341 3281 1617 3432 
Q 1894 3584 2278 3584 
Q 2916 3584 3314 3078 
Q 3713 2572 3713 1747 
Q 3713 922 3314 415 
Q 2916 -91 2278 -91 
Q 1894 -91 1617 61 
Q 1341 213 1159 525 
L 1159 0 
L 581 0 
L 581 4863 
L 1159 4863 
L 1159 2969 
z
" transform="scale(0.015625)"/>
     <path id="DejaVuSans-75" d="M 544 1381 
L 544 3500 
L 1119 3500 
L 1119 1403 
Q 1119 906 1312 657 
Q 1506 409 1894 409 
Q 2359 409 2629 706 
Q 2900 1003 2900 1516 
L 2900 3500 
L 3475 3500 
L 3475 0 
L 2900 0 
L 2900 538 
Q 2691 219 2414 64 
Q 2138 -91 1772 -91 
Q 1169 -91 856 284 
Q 544 659 544 1381 
z
M 1991 3584 
L 1991 3584 
z
" transform="scale(0.015625)"/>
     <path id="DejaVuSans-66" d="M 2375 4863 
L 2375 4384 
L 1825 4384 
Q 1516 4384 1395 4259 
Q 1275 4134 1275 3809 
L 1275 3500 
L 2222 3500 
L 2222 3053 
L 1275 3053 
L 1275 0 
L 697 0 
L 697 3053 
L 147 3053 
L 147 3500 
L 697 3500 
L 697 3744 
Q 697 4328 969 4595 
Q 1241 4863 1831 4863 
L 2375 4863 
z
" transform="scale(0.015625)"/>
     <path id="DejaVuSans-Oblique-58" d="M 878 4666 
L 1516 4666 
L 2316 2981 
L 3763 4666 
L 4500 4666 
L 2578 2438 
L 3738 0 
L 3103 0 
L 2163 1966 
L 459 0 
L -275 0 
L 1906 2509 
L 878 4666 
z
" transform="scale(0.015625)"/>
     <path id="DejaVuSans-67" d="M 2906 1791 
Q 2906 2416 2648 2759 
Q 2391 3103 1925 3103 
Q 1463 3103 1205 2759 
Q 947 2416 947 1791 
Q 947 1169 1205 825 
Q 1463 481 1925 481 
Q 2391 481 2648 825 
Q 2906 1169 2906 1791 
z
M 3481 434 
Q 3481 -459 3084 -895 
Q 2688 -1331 1869 -1331 
Q 1566 -1331 1297 -1286 
Q 1028 -1241 775 -1147 
L 775 -588 
Q 1028 -725 1275 -790 
Q 1522 -856 1778 -856 
Q 2344 -856 2625 -561 
Q 2906 -266 2906 331 
L 2906 616 
Q 2728 306 2450 153 
Q 2172 0 1784 0 
Q 1141 0 747 490 
Q 353 981 353 1791 
Q 353 2603 747 3093 
Q 1141 3584 1784 3584 
Q 2172 3584 2450 3431 
Q 2728 3278 2906 2969 
L 2906 3500 
L 3481 3500 
L 3481 434 
z
" transform="scale(0.015625)"/>
     <path id="DejaVuSans-76" d="M 191 3500 
L 800 3500 
L 1894 563 
L 2988 3500 
L 3597 3500 
L 2284 0 
L 1503 0 
L 191 3500 
z
" transform="scale(0.015625)"/>
     <path id="DejaVuSans-65" d="M 3597 1894 
L 3597 1613 
L 953 1613 
Q 991 1019 1311 708 
Q 1631 397 2203 397 
Q 2534 397 2845 478 
Q 3156 559 3463 722 
L 3463 178 
Q 3153 47 2828 -22 
Q 2503 -91 2169 -91 
Q 1331 -91 842 396 
Q 353 884 353 1716 
Q 353 2575 817 3079 
Q 1281 3584 2069 3584 
Q 2775 3584 3186 3129 
Q 3597 2675 3597 1894 
z
M 3022 2063 
Q 3016 2534 2758 2815 
Q 2500 3097 2075 3097 
Q 1594 3097 1305 2825 
Q 1016 2553 972 2059 
L 3022 2063 
z
" transform="scale(0.015625)"/>
     <path id="DejaVuSans-3d" d="M 678 2906 
L 4684 2906 
L 4684 2381 
L 678 2381 
L 678 2906 
z
M 678 1631 
L 4684 1631 
L 4684 1100 
L 678 1100 
L 678 1631 
z
" transform="scale(0.015625)"/>
    </defs>
    <use xlink:href="#DejaVuSans-43" transform="translate(0 0.015625)"/>
    <use xlink:href="#DejaVuSans-6f" transform="translate(69.824219 0.015625)"/>
    <use xlink:href="#DejaVuSans-6e" transform="translate(131.005859 0.015625)"/>
    <use xlink:href="#DejaVuSans-64" transform="translate(194.384766 0.015625)"/>
    <use xlink:href="#DejaVuSans-69" transform="translate(257.861328 0.015625)"/>
    <use xlink:href="#DejaVuSans-74" transform="translate(285.644531 0.015625)"/>
    <use xlink:href="#DejaVuSans-69" transform="translate(324.853516 0.015625)"/>
    <use xlink:href="#DejaVuSans-6f" transform="translate(352.636719 0.015625)"/>
    <use xlink:href="#DejaVuSans-6e" transform="translate(413.818359 0.015625)"/>
    <use xlink:href="#DejaVuSans-61" transform="translate(477.197266 0.015625)"/>
    <use xlink:href="#DejaVuSans-6c" transform="translate(538.476562 0.015625)"/>
    <use xlink:href="#DejaVuSans-20" transform="translate(566.259766 0.015625)"/>
    <use xlink:href="#DejaVuSans-64" transform="translate(598.046875 0.015625)"/>
    <use xlink:href="#DejaVuSans-69" transform="translate(661.523438 0.015625)"/>
    <use xlink:href="#DejaVuSans-73" transform="translate(689.306641 0.015625)"/>
    <use xlink:href="#DejaVuSans-74" transform="translate(741.40625 0.015625)"/>
    <use xlink:href="#DejaVuSans-72" transform="translate(780.615234 0.015625)"/>
    <use xlink:href="#DejaVuSans-69" transform="translate(821.728516 0.015625)"/>
    <use xlink:href="#DejaVuSans-62" transform="translate(849.511719 0.015625)"/>
    <use xlink:href="#DejaVuSans-75" transform="translate(912.988281 0.015625)"/>
    <use xlink:href="#DejaVuSans-74" transform="translate(976.367188 0.015625)"/>
    <use xlink:href="#DejaVuSans-69" transform="translate(1015.576172 0.015625)"/>
    <use xlink:href="#DejaVuSans-6f" transform="translate(1043.359375 0.015625)"/>
    <use xlink:href="#DejaVuSans-6e" transform="translate(1104.541016 0.015625)"/>
    <use xlink:href="#DejaVuSans-20" transform="translate(1167.919922 0.015625)"/>
    <use xlink:href="#DejaVuSans-6f" transform="translate(1199.707031 0.015625)"/>
    <use xlink:href="#DejaVuSans-66" transform="translate(1260.888672 0.015625)"/>
    <use xlink:href="#DejaVuSans-20" transform="translate(1296.09375 0.015625)"/>
    <use xlink:href="#DejaVuSans-Oblique-58" transform="translate(1327.880859 0.015625)"/>
    <use xlink:href="#DejaVuSans-30" transform="translate(1396.386719 -16.390625) scale(0.7)"/>
    <use xlink:href="#DejaVuSans-20" transform="translate(1443.657227 0.015625)"/>
    <use xlink:href="#DejaVuSans-67" transform="translate(1475.444336 0.015625)"/>
    <use xlink:href="#DejaVuSans-69" transform="translate(1538.920898 0.015625)"/>
    <use xlink:href="#DejaVuSans-76" transform="translate(1566.704102 0.015625)"/>
    <use xlink:href="#DejaVuSans-65" transform="translate(1625.883789 0.015625)"/>
    <use xlink:href="#DejaVuSans-6e" transform="translate(1687.407227 0.015625)"/>
    <use xlink:href="#DejaVuSans-20" transform="translate(1750.786133 0.015625)"/>
    <use xlink:href="#DejaVuSans-Oblique-58" transform="translate(1782.573242 0.015625)"/>
    <use xlink:href="#DejaVuSans-31" transform="translate(1851.079102 -16.390625) scale(0.7)"/>
    <use xlink:href="#DejaVuSans-3d" transform="translate(1917.832031 0.015625)"/>
    <use xlink:href="#DejaVuSans-31" transform="translate(2021.103516 0.015625)"/>
    <use xlink:href="#DejaVuSans-2e" transform="translate(2084.726562 0.015625)"/>
    <use xlink:href="#DejaVuSans-35" transform="translate(2116.513672 0.015625)"/>
   </g>
  </g>
 </g>
 <defs>
  <clipPath id="p8b75d16472">
   <rect x="57.6" y="41.472" width="357.12" height="266.112"/>
  </clipPath>
 </defs>
</svg>
