<?xml version="1.0" encoding="utf-8" standalone="no"?>
<!DOCTYPE svg PUBLIC "-//W3C//DTD SVG 1.1//EN"
  "http://www.w3.org/Graphics/SVG/1.1/DTD/svg11.dtd">
<svg xmlns:xlink="http://www.w3.org/1999/xlink" width="720pt" height="288pt" viewBox="0 0 720 288" xmlns="http://www.w3.org/2000/svg" version="1.1">
 <metadata>
  <rdf:RDF xmlns:dc="http://purl.org/dc/elements/1.1/" xmlns:cc="http://creativecommons.org/ns#" xmlns:rdf="http://www.w3.org/1999/02/22-rdf-syntax-ns#">
   <cc:Work>
    <dc:type rdf:resource="http://purl.org/dc/dcmitype/StillImage"/>
    <dc:date>2025-09-26T12:05:28.182425</dc:date>
    <dc:format>image/svg+xml</dc:format>
    <dc:creator>
     <cc:Agent>
      <dc:title>Matplotlib v3.10.6, https://matplotlib.org/</dc:title>
     </cc:Agent>
    </dc:creator>
   </cc:Work>
  </rdf:RDF>
 </metadata>
 <defs>
  <style type="text/css">*{stroke-linejoin: round; stroke-linecap: butt}</style>
 </defs>
 <g id="figure_1">
  <g id="patch_1">
   <path d="M 0 288 
L 720 288 
L 720 0 
L 0 0 
z
" style="fill: #ffffff"/>
  </g>
  <g id="axes_1">
   <g id="patch_2">
    <path d="M 90 256.32 
L 648 256.32 
L 648 34.56 
L 90 34.56 
z
" style="fill: #ffffff"/>
   </g>
   <g id="matplotlib.axis_1">
    <g id="xtick_1">
     <g id="line2d_1">
      <path d="M 135.515402 256.32 
L 135.515402 34.56 
" clip-path="url(#pb9ecb9add7)" style="fill: none; stroke: #b0b0b0; stroke-width: 0.8; stroke-linecap: square"/>
     </g>
     <g id="line2d_2">
      <defs>
       <path id="m3f7b292133" d="M 0 0 
L 0 3.5 
" style="stroke: #000000; stroke-width: 0.8"/>
      </defs>
      <g>
       <use xlink:href="#m3f7b292133" x="135.515402" y="256.32" style="stroke: #000000; stroke-width: 0.8"/>
      </g>
     </g>
     <g id="text_1">
      <!-- −2 -->
      <g transform="translate(128.144308 270.918437) scale(0.1 -0.1)">
       <defs>
        <path id="DejaVuSans-2212" d="M 678 2272 
L 4684 2272 
L 4684 1741 
L 678 1741 
L 678 2272 
z
" transform="scale(0.015625)"/>
        <path id="DejaVuSans-32" d="M 1228 531 
L 3431 531 
L 3431 0 
L 469 0 
L 469 531 
Q 828 903 1448 1529 
Q 2069 2156 2228 2338 
Q 2531 2678 2651 2914 
Q 2772 3150 2772 3378 
Q 2772 3750 2511 3984 
Q 2250 4219 1831 4219 
Q 1534 4219 1204 4116 
Q 875 4013 500 3803 
L 500 4441 
Q 881 4594 1212 4672 
Q 1544 4750 1819 4750 
Q 2544 4750 2975 4387 
Q 3406 4025 3406 3419 
Q 3406 3131 3298 2873 
Q 3191 2616 2906 2266 
Q 2828 2175 2409 1742 
Q 1991 1309 1228 531 
z
" transform="scale(0.015625)"/>
       </defs>
       <use xlink:href="#DejaVuSans-2212"/>
       <use xlink:href="#DejaVuSans-32" transform="translate(83.789062 0)"/>
      </g>
     </g>
    </g>
    <g id="xtick_2">
     <g id="line2d_3">
      <path d="M 252.023364 256.32 
L 252.023364 34.56 
" clip-path="url(#pb9ecb9add7)" style="fill: none; stroke: #b0b0b0; stroke-width: 0.8; stroke-linecap: square"/>
     </g>
     <g id="line2d_4">
      <g>
       <use xlink:href="#m3f7b292133" x="252.023364" y="256.32" style="stroke: #000000; stroke-width: 0.8"/>
      </g>
     </g>
     <g id="text_2">
      <!-- −1 -->
      <g transform="translate(244.65227 270.918437) scale(0.1 -0.1)">
       <defs>
        <path id="DejaVuSans-31" d="M 794 531 
L 1825 531 
L 1825 4091 
L 703 3866 
L 703 4441 
L 1819 4666 
L 2450 4666 
L 2450 531 
L 3481 531 
L 3481 0 
L 794 0 
L 794 531 
z
" transform="scale(0.015625)"/>
       </defs>
       <use xlink:href="#DejaVuSans-2212"/>
       <use xlink:href="#DejaVuSans-31" transform="translate(83.789062 0)"/>
      </g>
     </g>
    </g>
    <g id="xtick_3">
     <g id="line2d_5">
      <path d="M 368.531326 256.32 
L 368.531326 34.56 
" clip-path="url(#pb9ecb9add7)" style="fill: none; stroke: #b0b0b0; stroke-width: 0.8; stroke-linecap: square"/>
     </g>
     <g id="line2d_6">
      <g>
       <use xlink:href="#m3f7b292133" x="368.531326" y="256.32" style="stroke: #000000; stroke-width: 0.8"/>
      </g>
     </g>
     <g id="text_3">
      <!-- 0 -->
      <g transform="translate(365.350076 270.918437) scale(0.1 -0.1)">
       <defs>
        <path id="DejaVuSans-30" d="M 2034 4250 
Q 1547 4250 1301 3770 
Q 1056 3291 1056 2328 
Q 1056 1369 1301 889 
Q 1547 409 2034 409 
Q 2525 409 2770 889 
Q 3016 1369 3016 2328 
Q 3016 3291 2770 3770 
Q 2525 4250 2034 4250 
z
M 2034 4750 
Q 2819 4750 3233 4129 
Q 3647 3509 3647 2328 
Q 3647 1150 3233 529 
Q 2819 -91 2034 -91 
Q 1250 -91 836 529 
Q 422 1150 422 2328 
Q 422 3509 836 4129 
Q 1250 4750 2034 4750 
z
" transform="scale(0.015625)"/>
       </defs>
       <use xlink:href="#DejaVuSans-30"/>
      </g>
     </g>
    </g>
    <g id="xtick_4">
     <g id="line2d_7">
      <path d="M 485.039288 256.32 
L 485.039288 34.56 
" clip-path="url(#pb9ecb9add7)" style="fill: none; stroke: #b0b0b0; stroke-width: 0.8; stroke-linecap: square"/>
     </g>
     <g id="line2d_8">
      <g>
       <use xlink:href="#m3f7b292133" x="485.039288" y="256.32" style="stroke: #000000; stroke-width: 0.8"/>
      </g>
     </g>
     <g id="text_4">
      <!-- 1 -->
      <g transform="translate(481.858038 270.918437) scale(0.1 -0.1)">
       <use xlink:href="#DejaVuSans-31"/>
      </g>
     </g>
    </g>
    <g id="xtick_5">
     <g id="line2d_9">
      <path d="M 601.54725 256.32 
L 601.54725 34.56 
" clip-path="url(#pb9ecb9add7)" style="fill: none; stroke: #b0b0b0; stroke-width: 0.8; stroke-linecap: square"/>
     </g>
     <g id="line2d_10">
      <g>
       <use xlink:href="#m3f7b292133" x="601.54725" y="256.32" style="stroke: #000000; stroke-width: 0.8"/>
      </g>
     </g>
     <g id="text_5">
      <!-- 2 -->
      <g transform="translate(598.366 270.918437) scale(0.1 -0.1)">
       <use xlink:href="#DejaVuSans-32"/>
      </g>
     </g>
    </g>
    <g id="text_6">
     <!-- $t$ -->
     <g transform="translate(367 284.596563) scale(0.1 -0.1)">
      <defs>
       <path id="DejaVuSans-Oblique-74" d="M 2706 3500 
L 2619 3053 
L 1472 3053 
L 1100 1153 
Q 1081 1047 1072 975 
Q 1063 903 1063 863 
Q 1063 663 1183 572 
Q 1303 481 1569 481 
L 2150 481 
L 2053 0 
L 1503 0 
Q 991 0 739 200 
Q 488 400 488 806 
Q 488 878 497 964 
Q 506 1050 525 1153 
L 897 3053 
L 409 3053 
L 500 3500 
L 978 3500 
L 1172 4494 
L 1747 4494 
L 1556 3500 
L 2706 3500 
z
" transform="scale(0.015625)"/>
      </defs>
      <use xlink:href="#DejaVuSans-Oblique-74" transform="translate(0 0.78125)"/>
     </g>
    </g>
   </g>
   <g id="matplotlib.axis_2">
    <g id="ytick_1">
     <g id="line2d_11">
      <path d="M 90 246.24 
L 648 246.24 
" clip-path="url(#pb9ecb9add7)" style="fill: none; stroke: #b0b0b0; stroke-width: 0.8; stroke-linecap: square"/>
     </g>
     <g id="line2d_12">
      <defs>
       <path id="m191314b50a" d="M 0 0 
L -3.5 0 
" style="stroke: #000000; stroke-width: 0.8"/>
      </defs>
      <g>
       <use xlink:href="#m191314b50a" x="90" y="246.24" style="stroke: #000000; stroke-width: 0.8"/>
      </g>
     </g>
     <g id="text_7">
      <!-- 0.0 -->
      <g transform="translate(67.096875 250.039219) scale(0.1 -0.1)">
       <defs>
        <path id="DejaVuSans-2e" d="M 684 794 
L 1344 794 
L 1344 0 
L 684 0 
L 684 794 
z
" transform="scale(0.015625)"/>
       </defs>
       <use xlink:href="#DejaVuSans-30"/>
       <use xlink:href="#DejaVuSans-2e" transform="translate(63.623047 0)"/>
       <use xlink:href="#DejaVuSans-30" transform="translate(95.410156 0)"/>
      </g>
     </g>
    </g>
    <g id="ytick_2">
     <g id="line2d_13">
      <path d="M 90 213.229591 
L 648 213.229591 
" clip-path="url(#pb9ecb9add7)" style="fill: none; stroke: #b0b0b0; stroke-width: 0.8; stroke-linecap: square"/>
     </g>
     <g id="line2d_14">
      <g>
       <use xlink:href="#m191314b50a" x="90" y="213.229591" style="stroke: #000000; stroke-width: 0.8"/>
      </g>
     </g>
     <g id="text_8">
      <!-- 0.1 -->
      <g transform="translate(67.096875 217.02881) scale(0.1 -0.1)">
       <use xlink:href="#DejaVuSans-30"/>
       <use xlink:href="#DejaVuSans-2e" transform="translate(63.623047 0)"/>
       <use xlink:href="#DejaVuSans-31" transform="translate(95.410156 0)"/>
      </g>
     </g>
    </g>
    <g id="ytick_3">
     <g id="line2d_15">
      <path d="M 90 180.219183 
L 648 180.219183 
" clip-path="url(#pb9ecb9add7)" style="fill: none; stroke: #b0b0b0; stroke-width: 0.8; stroke-linecap: square"/>
     </g>
     <g id="line2d_16">
      <g>
       <use xlink:href="#m191314b50a" x="90" y="180.219183" style="stroke: #000000; stroke-width: 0.8"/>
      </g>
     </g>
     <g id="text_9">
      <!-- 0.2 -->
      <g transform="translate(67.096875 184.018401) scale(0.1 -0.1)">
       <use xlink:href="#DejaVuSans-30"/>
       <use xlink:href="#DejaVuSans-2e" transform="translate(63.623047 0)"/>
       <use xlink:href="#DejaVuSans-32" transform="translate(95.410156 0)"/>
      </g>
     </g>
    </g>
    <g id="ytick_4">
     <g id="line2d_17">
      <path d="M 90 147.208774 
L 648 147.208774 
" clip-path="url(#pb9ecb9add7)" style="fill: none; stroke: #b0b0b0; stroke-width: 0.8; stroke-linecap: square"/>
     </g>
     <g id="line2d_18">
      <g>
       <use xlink:href="#m191314b50a" x="90" y="147.208774" style="stroke: #000000; stroke-width: 0.8"/>
      </g>
     </g>
     <g id="text_10">
      <!-- 0.3 -->
      <g transform="translate(67.096875 151.007993) scale(0.1 -0.1)">
       <defs>
        <path id="DejaVuSans-33" d="M 2597 2516 
Q 3050 2419 3304 2112 
Q 3559 1806 3559 1356 
Q 3559 666 3084 287 
Q 2609 -91 1734 -91 
Q 1441 -91 1130 -33 
Q 819 25 488 141 
L 488 750 
Q 750 597 1062 519 
Q 1375 441 1716 441 
Q 2309 441 2620 675 
Q 2931 909 2931 1356 
Q 2931 1769 2642 2001 
Q 2353 2234 1838 2234 
L 1294 2234 
L 1294 2753 
L 1863 2753 
Q 2328 2753 2575 2939 
Q 2822 3125 2822 3475 
Q 2822 3834 2567 4026 
Q 2313 4219 1838 4219 
Q 1578 4219 1281 4162 
Q 984 4106 628 3988 
L 628 4550 
Q 988 4650 1302 4700 
Q 1616 4750 1894 4750 
Q 2613 4750 3031 4423 
Q 3450 4097 3450 3541 
Q 3450 3153 3228 2886 
Q 3006 2619 2597 2516 
z
" transform="scale(0.015625)"/>
       </defs>
       <use xlink:href="#DejaVuSans-30"/>
       <use xlink:href="#DejaVuSans-2e" transform="translate(63.623047 0)"/>
       <use xlink:href="#DejaVuSans-33" transform="translate(95.410156 0)"/>
      </g>
     </g>
    </g>
    <g id="ytick_5">
     <g id="line2d_19">
      <path d="M 90 114.198365 
L 648 114.198365 
" clip-path="url(#pb9ecb9add7)" style="fill: none; stroke: #b0b0b0; stroke-width: 0.8; stroke-linecap: square"/>
     </g>
     <g id="line2d_20">
      <g>
       <use xlink:href="#m191314b50a" x="90" y="114.198365" style="stroke: #000000; stroke-width: 0.8"/>
      </g>
     </g>
     <g id="text_11">
      <!-- 0.4 -->
      <g transform="translate(67.096875 117.997584) scale(0.1 -0.1)">
       <defs>
        <path id="DejaVuSans-34" d="M 2419 4116 
L 825 1625 
L 2419 1625 
L 2419 4116 
z
M 2253 4666 
L 3047 4666 
L 3047 1625 
L 3713 1625 
L 3713 1100 
L 3047 1100 
L 3047 0 
L 2419 0 
L 2419 1100 
L 313 1100 
L 313 1709 
L 2253 4666 
z
" transform="scale(0.015625)"/>
       </defs>
       <use xlink:href="#DejaVuSans-30"/>
       <use xlink:href="#DejaVuSans-2e" transform="translate(63.623047 0)"/>
       <use xlink:href="#DejaVuSans-34" transform="translate(95.410156 0)"/>
      </g>
     </g>
    </g>
    <g id="ytick_6">
     <g id="line2d_21">
      <path d="M 90 81.187957 
L 648 81.187957 
" clip-path="url(#pb9ecb9add7)" style="fill: none; stroke: #b0b0b0; stroke-width: 0.8; stroke-linecap: square"/>
     </g>
     <g id="line2d_22">
      <g>
       <use xlink:href="#m191314b50a" x="90" y="81.187957" style="stroke: #000000; stroke-width: 0.8"/>
      </g>
     </g>
     <g id="text_12">
      <!-- 0.5 -->
      <g transform="translate(67.096875 84.987175) scale(0.1 -0.1)">
       <defs>
        <path id="DejaVuSans-35" d="M 691 4666 
L 3169 4666 
L 3169 4134 
L 1269 4134 
L 1269 2991 
Q 1406 3038 1543 3061 
Q 1681 3084 1819 3084 
Q 2600 3084 3056 2656 
Q 3513 2228 3513 1497 
Q 3513 744 3044 326 
Q 2575 -91 1722 -91 
Q 1428 -91 1123 -41 
Q 819 9 494 109 
L 494 744 
Q 775 591 1075 516 
Q 1375 441 1709 441 
Q 2250 441 2565 725 
Q 2881 1009 2881 1497 
Q 2881 1984 2565 2268 
Q 2250 2553 1709 2553 
Q 1456 2553 1204 2497 
Q 953 2441 691 2322 
L 691 4666 
z
" transform="scale(0.015625)"/>
       </defs>
       <use xlink:href="#DejaVuSans-30"/>
       <use xlink:href="#DejaVuSans-2e" transform="translate(63.623047 0)"/>
       <use xlink:href="#DejaVuSans-35" transform="translate(95.410156 0)"/>
      </g>
     </g>
    </g>
    <g id="ytick_7">
     <g id="line2d_23">
      <path d="M 90 48.177548 
L 648 48.177548 
" clip-path="url(#pb9ecb9add7)" style="fill: none; stroke: #b0b0b0; stroke-width: 0.8; stroke-linecap: square"/>
     </g>
     <g id="line2d_24">
      <g>
       <use xlink:href="#m191314b50a" x="90" y="48.177548" style="stroke: #000000; stroke-width: 0.8"/>
      </g>
     </g>
     <g id="text_13">
      <!-- 0.6 -->
      <g transform="translate(67.096875 51.976767) scale(0.1 -0.1)">
       <defs>
        <path id="DejaVuSans-36" d="M 2113 2584 
Q 1688 2584 1439 2293 
Q 1191 2003 1191 1497 
Q 1191 994 1439 701 
Q 1688 409 2113 409 
Q 2538 409 2786 701 
Q 3034 994 3034 1497 
Q 3034 2003 2786 2293 
Q 2538 2584 2113 2584 
z
M 3366 4563 
L 3366 3988 
Q 3128 4100 2886 4159 
Q 2644 4219 2406 4219 
Q 1781 4219 1451 3797 
Q 1122 3375 1075 2522 
Q 1259 2794 1537 2939 
Q 1816 3084 2150 3084 
Q 2853 3084 3261 2657 
Q 3669 2231 3669 1497 
Q 3669 778 3244 343 
Q 2819 -91 2113 -91 
Q 1303 -91 875 529 
Q 447 1150 447 2328 
Q 447 3434 972 4092 
Q 1497 4750 2381 4750 
Q 2619 4750 2861 4703 
Q 3103 4656 3366 4563 
z
" transform="scale(0.015625)"/>
       </defs>
       <use xlink:href="#DejaVuSans-30"/>
       <use xlink:href="#DejaVuSans-2e" transform="translate(63.623047 0)"/>
       <use xlink:href="#DejaVuSans-36" transform="translate(95.410156 0)"/>
      </g>
     </g>
    </g>
    <g id="text_14">
     <!-- PDF -->
     <g transform="translate(61.017187 155.180625) rotate(-90) scale(0.1 -0.1)">
      <defs>
       <path id="DejaVuSans-50" d="M 1259 4147 
L 1259 2394 
L 2053 2394 
Q 2494 2394 2734 2622 
Q 2975 2850 2975 3272 
Q 2975 3691 2734 3919 
Q 2494 4147 2053 4147 
L 1259 4147 
z
M 628 4666 
L 2053 4666 
Q 2838 4666 3239 4311 
Q 3641 3956 3641 3272 
Q 3641 2581 3239 2228 
Q 2838 1875 2053 1875 
L 1259 1875 
L 1259 0 
L 628 0 
L 628 4666 
z
" transform="scale(0.015625)"/>
       <path id="DejaVuSans-44" d="M 1259 4147 
L 1259 519 
L 2022 519 
Q 2988 519 3436 956 
Q 3884 1394 3884 2338 
Q 3884 3275 3436 3711 
Q 2988 4147 2022 4147 
L 1259 4147 
z
M 628 4666 
L 1925 4666 
Q 3281 4666 3915 4102 
Q 4550 3538 4550 2338 
Q 4550 1131 3912 565 
Q 3275 0 1925 0 
L 628 0 
L 628 4666 
z
" transform="scale(0.015625)"/>
       <path id="DejaVuSans-46" d="M 628 4666 
L 3309 4666 
L 3309 4134 
L 1259 4134 
L 1259 2759 
L 3109 2759 
L 3109 2228 
L 1259 2228 
L 1259 0 
L 628 0 
L 628 4666 
z
" transform="scale(0.015625)"/>
      </defs>
      <use xlink:href="#DejaVuSans-50"/>
      <use xlink:href="#DejaVuSans-44" transform="translate(60.302734 0)"/>
      <use xlink:href="#DejaVuSans-46" transform="translate(137.304688 0)"/>
     </g>
    </g>
   </g>
   <g id="line2d_25">
    <path d="M 115.363636 246.24 
L 250.636364 246.24 
L 252.625668 199.166069 
L 254.614973 183.390389 
L 256.604278 171.972346 
L 258.593583 162.732199 
L 260.582888 154.85741 
L 262.572193 147.940988 
L 264.561497 141.745263 
L 266.550802 136.117438 
L 268.540107 130.952536 
L 270.529412 126.174832 
L 272.518717 121.727614 
L 276.497326 113.658847 
L 280.475936 106.4924 
L 284.454545 100.059008 
L 288.433155 94.239347 
L 292.411765 88.945733 
L 296.390374 84.111637 
L 300.368984 79.685295 
L 304.347594 75.625603 
L 308.326203 71.89939 
L 312.304813 68.479533 
L 316.283422 65.343615 
L 320.262032 62.472965 
L 324.240642 59.851931 
L 328.219251 57.467348 
L 332.197861 55.308121 
L 336.176471 53.364905 
L 340.15508 51.629866 
L 344.13369 50.096479 
L 348.112299 48.75938 
L 352.090909 47.61425 
L 356.069519 46.657722 
L 360.048128 45.887312 
L 364.026738 45.301374 
L 368.005348 44.899064 
L 371.983957 44.680329 
L 375.962567 44.645901 
L 379.941176 44.797315 
L 383.919786 45.136937 
L 387.898396 45.668011 
L 391.877005 46.394722 
L 395.855615 47.322291 
L 399.834225 48.457077 
L 403.812834 49.806735 
L 407.791444 51.380393 
L 411.770053 53.188898 
L 415.748663 55.245112 
L 419.727273 57.564314 
L 423.705882 60.164709 
L 427.684492 63.06811 
L 431.663102 66.300846 
L 435.641711 69.895013 
L 439.620321 73.890214 
L 443.59893 78.33606 
L 447.57754 83.295873 
L 451.55615 88.852356 
L 455.534759 95.116716 
L 457.524064 98.560489 
L 459.513369 102.244134 
L 461.502674 106.198494 
L 463.491979 110.461986 
L 465.481283 115.083442 
L 467.470588 120.126469 
L 469.459893 125.676459 
L 471.449198 131.852506 
L 473.438503 138.829157 
L 475.427807 146.880137 
L 477.417112 156.478832 
L 479.406417 168.582313 
L 481.395722 185.803986 
L 483.385027 246.24 
L 622.636364 246.24 
L 622.636364 246.24 
" clip-path="url(#pb9ecb9add7)" style="fill: none; stroke: #1f77b4; stroke-width: 2; stroke-linecap: square"/>
   </g>
   <g id="PathCollection_1">
    <defs>
     <path id="m3cfecc5c8f" d="M 0 3 
C 0.795609 3 1.55874 2.683901 2.12132 2.12132 
C 2.683901 1.55874 3 0.795609 3 0 
C 3 -0.795609 2.683901 -1.55874 2.12132 -2.12132 
C 1.55874 -2.683901 0.795609 -3 0 -3 
C -0.795609 -3 -1.55874 -2.683901 -2.12132 -2.12132 
C -2.683901 -1.55874 -3 -0.795609 -3 0 
C -3 0.795609 -2.683901 1.55874 -2.12132 2.12132 
C -1.55874 2.683901 -0.795609 3 0 3 
z
" style="stroke: #0000ff"/>
    </defs>
    <g clip-path="url(#pb9ecb9add7)">
     <use xlink:href="#m3cfecc5c8f" x="390.1781" y="246.24" style="fill: #0000ff; stroke: #0000ff"/>
     <use xlink:href="#m3cfecc5c8f" x="301.468102" y="246.24" style="fill: #0000ff; stroke: #0000ff"/>
     <use xlink:href="#m3cfecc5c8f" x="342.922874" y="246.24" style="fill: #0000ff; stroke: #0000ff"/>
     <use xlink:href="#m3cfecc5c8f" x="450.055803" y="246.24" style="fill: #0000ff; stroke: #0000ff"/>
     <use xlink:href="#m3cfecc5c8f" x="282.17221" y="246.24" style="fill: #0000ff; stroke: #0000ff"/>
     <use xlink:href="#m3cfecc5c8f" x="405.025296" y="246.24" style="fill: #0000ff; stroke: #0000ff"/>
     <use xlink:href="#m3cfecc5c8f" x="347.505571" y="246.24" style="fill: #0000ff; stroke: #0000ff"/>
     <use xlink:href="#m3cfecc5c8f" x="440.139341" y="246.24" style="fill: #0000ff; stroke: #0000ff"/>
     <use xlink:href="#m3cfecc5c8f" x="452.353952" y="246.24" style="fill: #0000ff; stroke: #0000ff"/>
     <use xlink:href="#m3cfecc5c8f" x="399.674609" y="246.24" style="fill: #0000ff; stroke: #0000ff"/>
     <use xlink:href="#m3cfecc5c8f" x="345.118692" y="246.24" style="fill: #0000ff; stroke: #0000ff"/>
     <use xlink:href="#m3cfecc5c8f" x="383.209655" y="246.24" style="fill: #0000ff; stroke: #0000ff"/>
     <use xlink:href="#m3cfecc5c8f" x="288.840295" y="246.24" style="fill: #0000ff; stroke: #0000ff"/>
     <use xlink:href="#m3cfecc5c8f" x="317.714106" y="246.24" style="fill: #0000ff; stroke: #0000ff"/>
     <use xlink:href="#m3cfecc5c8f" x="268.082506" y="246.24" style="fill: #0000ff; stroke: #0000ff"/>
     <use xlink:href="#m3cfecc5c8f" x="461.165487" y="246.24" style="fill: #0000ff; stroke: #0000ff"/>
     <use xlink:href="#m3cfecc5c8f" x="327.282238" y="246.24" style="fill: #0000ff; stroke: #0000ff"/>
     <use xlink:href="#m3cfecc5c8f" x="366.846388" y="246.24" style="fill: #0000ff; stroke: #0000ff"/>
     <use xlink:href="#m3cfecc5c8f" x="295.561807" y="246.24" style="fill: #0000ff; stroke: #0000ff"/>
     <use xlink:href="#m3cfecc5c8f" x="394.665184" y="246.24" style="fill: #0000ff; stroke: #0000ff"/>
     <use xlink:href="#m3cfecc5c8f" x="470.584318" y="246.24" style="fill: #0000ff; stroke: #0000ff"/>
     <use xlink:href="#m3cfecc5c8f" x="282.48668" y="246.24" style="fill: #0000ff; stroke: #0000ff"/>
     <use xlink:href="#m3cfecc5c8f" x="479.063068" y="246.24" style="fill: #0000ff; stroke: #0000ff"/>
     <use xlink:href="#m3cfecc5c8f" x="320.577137" y="246.24" style="fill: #0000ff; stroke: #0000ff"/>
     <use xlink:href="#m3cfecc5c8f" x="319.065559" y="246.24" style="fill: #0000ff; stroke: #0000ff"/>
     <use xlink:href="#m3cfecc5c8f" x="381.795104" y="246.24" style="fill: #0000ff; stroke: #0000ff"/>
     <use xlink:href="#m3cfecc5c8f" x="401.70724" y="246.24" style="fill: #0000ff; stroke: #0000ff"/>
     <use xlink:href="#m3cfecc5c8f" x="350.794528" y="246.24" style="fill: #0000ff; stroke: #0000ff"/>
     <use xlink:href="#m3cfecc5c8f" x="306.97124" y="246.24" style="fill: #0000ff; stroke: #0000ff"/>
     <use xlink:href="#m3cfecc5c8f" x="316.343486" y="246.24" style="fill: #0000ff; stroke: #0000ff"/>
     <use xlink:href="#m3cfecc5c8f" x="357.80411" y="246.24" style="fill: #0000ff; stroke: #0000ff"/>
     <use xlink:href="#m3cfecc5c8f" x="254.975463" y="246.24" style="fill: #0000ff; stroke: #0000ff"/>
     <use xlink:href="#m3cfecc5c8f" x="326.398435" y="246.24" style="fill: #0000ff; stroke: #0000ff"/>
     <use xlink:href="#m3cfecc5c8f" x="365.728346" y="246.24" style="fill: #0000ff; stroke: #0000ff"/>
     <use xlink:href="#m3cfecc5c8f" x="462.009807" y="246.24" style="fill: #0000ff; stroke: #0000ff"/>
     <use xlink:href="#m3cfecc5c8f" x="425.662463" y="246.24" style="fill: #0000ff; stroke: #0000ff"/>
     <use xlink:href="#m3cfecc5c8f" x="316.933903" y="246.24" style="fill: #0000ff; stroke: #0000ff"/>
     <use xlink:href="#m3cfecc5c8f" x="451.468929" y="246.24" style="fill: #0000ff; stroke: #0000ff"/>
     <use xlink:href="#m3cfecc5c8f" x="385.483403" y="246.24" style="fill: #0000ff; stroke: #0000ff"/>
     <use xlink:href="#m3cfecc5c8f" x="287.034052" y="246.24" style="fill: #0000ff; stroke: #0000ff"/>
     <use xlink:href="#m3cfecc5c8f" x="398.332739" y="246.24" style="fill: #0000ff; stroke: #0000ff"/>
     <use xlink:href="#m3cfecc5c8f" x="355.314694" y="246.24" style="fill: #0000ff; stroke: #0000ff"/>
     <use xlink:href="#m3cfecc5c8f" x="421.177482" y="246.24" style="fill: #0000ff; stroke: #0000ff"/>
     <use xlink:href="#m3cfecc5c8f" x="339.730189" y="246.24" style="fill: #0000ff; stroke: #0000ff"/>
     <use xlink:href="#m3cfecc5c8f" x="371.436372" y="246.24" style="fill: #0000ff; stroke: #0000ff"/>
     <use xlink:href="#m3cfecc5c8f" x="446.450768" y="246.24" style="fill: #0000ff; stroke: #0000ff"/>
     <use xlink:href="#m3cfecc5c8f" x="368.746668" y="246.24" style="fill: #0000ff; stroke: #0000ff"/>
     <use xlink:href="#m3cfecc5c8f" x="447.528899" y="246.24" style="fill: #0000ff; stroke: #0000ff"/>
     <use xlink:href="#m3cfecc5c8f" x="382.93951" y="246.24" style="fill: #0000ff; stroke: #0000ff"/>
     <use xlink:href="#m3cfecc5c8f" x="404.619516" y="246.24" style="fill: #0000ff; stroke: #0000ff"/>
    </g>
   </g>
   <g id="patch_3">
    <path d="M 90 256.32 
L 90 34.56 
" style="fill: none; stroke: #000000; stroke-width: 0.8; stroke-linejoin: miter; stroke-linecap: square"/>
   </g>
   <g id="patch_4">
    <path d="M 648 256.32 
L 648 34.56 
" style="fill: none; stroke: #000000; stroke-width: 0.8; stroke-linejoin: miter; stroke-linecap: square"/>
   </g>
   <g id="patch_5">
    <path d="M 90 256.32 
L 648 256.32 
" style="fill: none; stroke: #000000; stroke-width: 0.8; stroke-linejoin: miter; stroke-linecap: square"/>
   </g>
   <g id="patch_6">
    <path d="M 90 34.56 
L 648 34.56 
" style="fill: none; stroke: #000000; stroke-width: 0.8; stroke-linejoin: miter; stroke-linecap: square"/>
   </g>
  </g>
  <g id="text_15">
   <!-- Beta(alpha = 1.41699, beta = 1.36526, a = -1.01165, b = 0.985693) -->
   <g transform="translate(151.795312 14.878125) scale(0.12 -0.12)">
    <defs>
     <path id="DejaVuSans-42" d="M 1259 2228 
L 1259 519 
L 2272 519 
Q 2781 519 3026 730 
Q 3272 941 3272 1375 
Q 3272 1813 3026 2020 
Q 2781 2228 2272 2228 
L 1259 2228 
z
M 1259 4147 
L 1259 2741 
L 2194 2741 
Q 2656 2741 2882 2914 
Q 3109 3088 3109 3444 
Q 3109 3797 2882 3972 
Q 2656 4147 2194 4147 
L 1259 4147 
z
M 628 4666 
L 2241 4666 
Q 2963 4666 3353 4366 
Q 3744 4066 3744 3513 
Q 3744 3084 3544 2831 
Q 3344 2578 2956 2516 
Q 3422 2416 3680 2098 
Q 3938 1781 3938 1306 
Q 3938 681 3513 340 
Q 3088 0 2303 0 
L 628 0 
L 628 4666 
z
" transform="scale(0.015625)"/>
     <path id="DejaVuSans-65" d="M 3597 1894 
L 3597 1613 
L 953 1613 
Q 991 1019 1311 708 
Q 1631 397 2203 397 
Q 2534 397 2845 478 
Q 3156 559 3463 722 
L 3463 178 
Q 3153 47 2828 -22 
Q 2503 -91 2169 -91 
Q 1331 -91 842 396 
Q 353 884 353 1716 
Q 353 2575 817 3079 
Q 1281 3584 2069 3584 
Q 2775 3584 3186 3129 
Q 3597 2675 3597 1894 
z
M 3022 2063 
Q 3016 2534 2758 2815 
Q 2500 3097 2075 3097 
Q 1594 3097 1305 2825 
Q 1016 2553 972 2059 
L 3022 2063 
z
" transform="scale(0.015625)"/>
     <path id="DejaVuSans-74" d="M 1172 4494 
L 1172 3500 
L 2356 3500 
L 2356 3053 
L 1172 3053 
L 1172 1153 
Q 1172 725 1289 603 
Q 1406 481 1766 481 
L 2356 481 
L 2356 0 
L 1766 0 
Q 1100 0 847 248 
Q 594 497 594 1153 
L 594 3053 
L 172 3053 
L 172 3500 
L 594 3500 
L 594 4494 
L 1172 4494 
z
" transform="scale(0.015625)"/>
     <path id="DejaVuSans-61" d="M 2194 1759 
Q 1497 1759 1228 1600 
Q 959 1441 959 1056 
Q 959 750 1161 570 
Q 1363 391 1709 391 
Q 2188 391 2477 730 
Q 2766 1069 2766 1631 
L 2766 1759 
L 2194 1759 
z
M 3341 1997 
L 3341 0 
L 2766 0 
L 2766 531 
Q 2569 213 2275 61 
Q 1981 -91 1556 -91 
Q 1019 -91 701 211 
Q 384 513 384 1019 
Q 384 1609 779 1909 
Q 1175 2209 1959 2209 
L 2766 2209 
L 2766 2266 
Q 2766 2663 2505 2880 
Q 2244 3097 1772 3097 
Q 1472 3097 1187 3025 
Q 903 2953 641 2809 
L 641 3341 
Q 956 3463 1253 3523 
Q 1550 3584 1831 3584 
Q 2591 3584 2966 3190 
Q 3341 2797 3341 1997 
z
" transform="scale(0.015625)"/>
     <path id="DejaVuSans-28" d="M 1984 4856 
Q 1566 4138 1362 3434 
Q 1159 2731 1159 2009 
Q 1159 1288 1364 580 
Q 1569 -128 1984 -844 
L 1484 -844 
Q 1016 -109 783 600 
Q 550 1309 550 2009 
Q 550 2706 781 3412 
Q 1013 4119 1484 4856 
L 1984 4856 
z
" transform="scale(0.015625)"/>
     <path id="DejaVuSans-6c" d="M 603 4863 
L 1178 4863 
L 1178 0 
L 603 0 
L 603 4863 
z
" transform="scale(0.015625)"/>
     <path id="DejaVuSans-70" d="M 1159 525 
L 1159 -1331 
L 581 -1331 
L 581 3500 
L 1159 3500 
L 1159 2969 
Q 1341 3281 1617 3432 
Q 1894 3584 2278 3584 
Q 2916 3584 3314 3078 
Q 3713 2572 3713 1747 
Q 3713 922 3314 415 
Q 2916 -91 2278 -91 
Q 1894 -91 1617 61 
Q 1341 213 1159 525 
z
M 3116 1747 
Q 3116 2381 2855 2742 
Q 2594 3103 2138 3103 
Q 1681 3103 1420 2742 
Q 1159 2381 1159 1747 
Q 1159 1113 1420 752 
Q 1681 391 2138 391 
Q 2594 391 2855 752 
Q 3116 1113 3116 1747 
z
" transform="scale(0.015625)"/>
     <path id="DejaVuSans-68" d="M 3513 2113 
L 3513 0 
L 2938 0 
L 2938 2094 
Q 2938 2591 2744 2837 
Q 2550 3084 2163 3084 
Q 1697 3084 1428 2787 
Q 1159 2491 1159 1978 
L 1159 0 
L 581 0 
L 581 4863 
L 1159 4863 
L 1159 2956 
Q 1366 3272 1645 3428 
Q 1925 3584 2291 3584 
Q 2894 3584 3203 3211 
Q 3513 2838 3513 2113 
z
" transform="scale(0.015625)"/>
     <path id="DejaVuSans-20" transform="scale(0.015625)"/>
     <path id="DejaVuSans-3d" d="M 678 2906 
L 4684 2906 
L 4684 2381 
L 678 2381 
L 678 2906 
z
M 678 1631 
L 4684 1631 
L 4684 1100 
L 678 1100 
L 678 1631 
z
" transform="scale(0.015625)"/>
     <path id="DejaVuSans-39" d="M 703 97 
L 703 672 
Q 941 559 1184 500 
Q 1428 441 1663 441 
Q 2288 441 2617 861 
Q 2947 1281 2994 2138 
Q 2813 1869 2534 1725 
Q 2256 1581 1919 1581 
Q 1219 1581 811 2004 
Q 403 2428 403 3163 
Q 403 3881 828 4315 
Q 1253 4750 1959 4750 
Q 2769 4750 3195 4129 
Q 3622 3509 3622 2328 
Q 3622 1225 3098 567 
Q 2575 -91 1691 -91 
Q 1453 -91 1209 -44 
Q 966 3 703 97 
z
M 1959 2075 
Q 2384 2075 2632 2365 
Q 2881 2656 2881 3163 
Q 2881 3666 2632 3958 
Q 2384 4250 1959 4250 
Q 1534 4250 1286 3958 
Q 1038 3666 1038 3163 
Q 1038 2656 1286 2365 
Q 1534 2075 1959 2075 
z
" transform="scale(0.015625)"/>
     <path id="DejaVuSans-2c" d="M 750 794 
L 1409 794 
L 1409 256 
L 897 -744 
L 494 -744 
L 750 256 
L 750 794 
z
" transform="scale(0.015625)"/>
     <path id="DejaVuSans-62" d="M 3116 1747 
Q 3116 2381 2855 2742 
Q 2594 3103 2138 3103 
Q 1681 3103 1420 2742 
Q 1159 2381 1159 1747 
Q 1159 1113 1420 752 
Q 1681 391 2138 391 
Q 2594 391 2855 752 
Q 3116 1113 3116 1747 
z
M 1159 2969 
Q 1341 3281 1617 3432 
Q 1894 3584 2278 3584 
Q 2916 3584 3314 3078 
Q 3713 2572 3713 1747 
Q 3713 922 3314 415 
Q 2916 -91 2278 -91 
Q 1894 -91 1617 61 
Q 1341 213 1159 525 
L 1159 0 
L 581 0 
L 581 4863 
L 1159 4863 
L 1159 2969 
z
" transform="scale(0.015625)"/>
     <path id="DejaVuSans-2d" d="M 313 2009 
L 1997 2009 
L 1997 1497 
L 313 1497 
L 313 2009 
z
" transform="scale(0.015625)"/>
     <path id="DejaVuSans-38" d="M 2034 2216 
Q 1584 2216 1326 1975 
Q 1069 1734 1069 1313 
Q 1069 891 1326 650 
Q 1584 409 2034 409 
Q 2484 409 2743 651 
Q 3003 894 3003 1313 
Q 3003 1734 2745 1975 
Q 2488 2216 2034 2216 
z
M 1403 2484 
Q 997 2584 770 2862 
Q 544 3141 544 3541 
Q 544 4100 942 4425 
Q 1341 4750 2034 4750 
Q 2731 4750 3128 4425 
Q 3525 4100 3525 3541 
Q 3525 3141 3298 2862 
Q 3072 2584 2669 2484 
Q 3125 2378 3379 2068 
Q 3634 1759 3634 1313 
Q 3634 634 3220 271 
Q 2806 -91 2034 -91 
Q 1263 -91 848 271 
Q 434 634 434 1313 
Q 434 1759 690 2068 
Q 947 2378 1403 2484 
z
M 1172 3481 
Q 1172 3119 1398 2916 
Q 1625 2713 2034 2713 
Q 2441 2713 2670 2916 
Q 2900 3119 2900 3481 
Q 2900 3844 2670 4047 
Q 2441 4250 2034 4250 
Q 1625 4250 1398 4047 
Q 1172 3844 1172 3481 
z
" transform="scale(0.015625)"/>
     <path id="DejaVuSans-29" d="M 513 4856 
L 1013 4856 
Q 1481 4119 1714 3412 
Q 1947 2706 1947 2009 
Q 1947 1309 1714 600 
Q 1481 -109 1013 -844 
L 513 -844 
Q 928 -128 1133 580 
Q 1338 1288 1338 2009 
Q 1338 2731 1133 3434 
Q 928 4138 513 4856 
z
" transform="scale(0.015625)"/>
    </defs>
    <use xlink:href="#DejaVuSans-42"/>
    <use xlink:href="#DejaVuSans-65" transform="translate(68.603516 0)"/>
    <use xlink:href="#DejaVuSans-74" transform="translate(130.126953 0)"/>
    <use xlink:href="#DejaVuSans-61" transform="translate(169.335938 0)"/>
    <use xlink:href="#DejaVuSans-28" transform="translate(230.615234 0)"/>
    <use xlink:href="#DejaVuSans-61" transform="translate(269.628906 0)"/>
    <use xlink:href="#DejaVuSans-6c" transform="translate(330.908203 0)"/>
    <use xlink:href="#DejaVuSans-70" transform="translate(358.691406 0)"/>
    <use xlink:href="#DejaVuSans-68" transform="translate(422.167969 0)"/>
    <use xlink:href="#DejaVuSans-61" transform="translate(485.546875 0)"/>
    <use xlink:href="#DejaVuSans-20" transform="translate(546.826172 0)"/>
    <use xlink:href="#DejaVuSans-3d" transform="translate(578.613281 0)"/>
    <use xlink:href="#DejaVuSans-20" transform="translate(662.402344 0)"/>
    <use xlink:href="#DejaVuSans-31" transform="translate(694.189453 0)"/>
    <use xlink:href="#DejaVuSans-2e" transform="translate(757.8125 0)"/>
    <use xlink:href="#DejaVuSans-34" transform="translate(789.599609 0)"/>
    <use xlink:href="#DejaVuSans-31" transform="translate(853.222656 0)"/>
    <use xlink:href="#DejaVuSans-36" transform="translate(916.845703 0)"/>
    <use xlink:href="#DejaVuSans-39" transform="translate(980.46875 0)"/>
    <use xlink:href="#DejaVuSans-39" transform="translate(1044.091797 0)"/>
    <use xlink:href="#DejaVuSans-2c" transform="translate(1107.714844 0)"/>
    <use xlink:href="#DejaVuSans-20" transform="translate(1139.501953 0)"/>
    <use xlink:href="#DejaVuSans-62" transform="translate(1171.289062 0)"/>
    <use xlink:href="#DejaVuSans-65" transform="translate(1234.765625 0)"/>
    <use xlink:href="#DejaVuSans-74" transform="translate(1296.289062 0)"/>
    <use xlink:href="#DejaVuSans-61" transform="translate(1335.498047 0)"/>
    <use xlink:href="#DejaVuSans-20" transform="translate(1396.777344 0)"/>
    <use xlink:href="#DejaVuSans-3d" transform="translate(1428.564453 0)"/>
    <use xlink:href="#DejaVuSans-20" transform="translate(1512.353516 0)"/>
    <use xlink:href="#DejaVuSans-31" transform="translate(1544.140625 0)"/>
    <use xlink:href="#DejaVuSans-2e" transform="translate(1607.763672 0)"/>
    <use xlink:href="#DejaVuSans-33" transform="translate(1639.550781 0)"/>
    <use xlink:href="#DejaVuSans-36" transform="translate(1703.173828 0)"/>
    <use xlink:href="#DejaVuSans-35" transform="translate(1766.796875 0)"/>
    <use xlink:href="#DejaVuSans-32" transform="translate(1830.419922 0)"/>
    <use xlink:href="#DejaVuSans-36" transform="translate(1894.042969 0)"/>
    <use xlink:href="#DejaVuSans-2c" transform="translate(1957.666016 0)"/>
    <use xlink:href="#DejaVuSans-20" transform="translate(1989.453125 0)"/>
    <use xlink:href="#DejaVuSans-61" transform="translate(2021.240234 0)"/>
    <use xlink:href="#DejaVuSans-20" transform="translate(2082.519531 0)"/>
    <use xlink:href="#DejaVuSans-3d" transform="translate(2114.306641 0)"/>
    <use xlink:href="#DejaVuSans-20" transform="translate(2198.095703 0)"/>
    <use xlink:href="#DejaVuSans-2d" transform="translate(2229.882812 0)"/>
    <use xlink:href="#DejaVuSans-31" transform="translate(2265.966797 0)"/>
    <use xlink:href="#DejaVuSans-2e" transform="translate(2329.589844 0)"/>
    <use xlink:href="#DejaVuSans-30" transform="translate(2361.376953 0)"/>
    <use xlink:href="#DejaVuSans-31" transform="translate(2425 0)"/>
    <use xlink:href="#DejaVuSans-31" transform="translate(2488.623047 0)"/>
    <use xlink:href="#DejaVuSans-36" transform="translate(2552.246094 0)"/>
    <use xlink:href="#DejaVuSans-35" transform="translate(2615.869141 0)"/>
    <use xlink:href="#DejaVuSans-2c" transform="translate(2679.492188 0)"/>
    <use xlink:href="#DejaVuSans-20" transform="translate(2711.279297 0)"/>
    <use xlink:href="#DejaVuSans-62" transform="translate(2743.066406 0)"/>
    <use xlink:href="#DejaVuSans-20" transform="translate(2806.542969 0)"/>
    <use xlink:href="#DejaVuSans-3d" transform="translate(2838.330078 0)"/>
    <use xlink:href="#DejaVuSans-20" transform="translate(2922.119141 0)"/>
    <use xlink:href="#DejaVuSans-30" transform="translate(2953.90625 0)"/>
    <use xlink:href="#DejaVuSans-2e" transform="translate(3017.529297 0)"/>
    <use xlink:href="#DejaVuSans-39" transform="translate(3049.316406 0)"/>
    <use xlink:href="#DejaVuSans-38" transform="translate(3112.939453 0)"/>
    <use xlink:href="#DejaVuSans-35" transform="translate(3176.5625 0)"/>
    <use xlink:href="#DejaVuSans-36" transform="translate(3240.185547 0)"/>
    <use xlink:href="#DejaVuSans-39" transform="translate(3303.808594 0)"/>
    <use xlink:href="#DejaVuSans-33" transform="translate(3367.431641 0)"/>
    <use xlink:href="#DejaVuSans-29" transform="translate(3431.054688 0)"/>
   </g>
  </g>
 </g>
 <defs>
  <clipPath id="pb9ecb9add7">
   <rect x="90" y="34.56" width="558" height="221.76"/>
  </clipPath>
 </defs>
</svg>
