<?xml version="1.0" encoding="utf-8" standalone="no"?>
<!DOCTYPE svg PUBLIC "-//W3C//DTD SVG 1.1//EN"
  "http://www.w3.org/Graphics/SVG/1.1/DTD/svg11.dtd">
<svg xmlns:xlink="http://www.w3.org/1999/xlink" width="864pt" height="432pt" viewBox="0 0 864 432" xmlns="http://www.w3.org/2000/svg" version="1.1">
 <metadata>
  <rdf:RDF xmlns:dc="http://purl.org/dc/elements/1.1/" xmlns:cc="http://creativecommons.org/ns#" xmlns:rdf="http://www.w3.org/1999/02/22-rdf-syntax-ns#">
   <cc:Work>
    <dc:type rdf:resource="http://purl.org/dc/dcmitype/StillImage"/>
    <dc:date>2025-09-26T12:02:29.231456</dc:date>
    <dc:format>image/svg+xml</dc:format>
    <dc:creator>
     <cc:Agent>
      <dc:title>Matplotlib v3.10.6, https://matplotlib.org/</dc:title>
     </cc:Agent>
    </dc:creator>
   </cc:Work>
  </rdf:RDF>
 </metadata>
 <defs>
  <style type="text/css">*{stroke-linejoin: round; stroke-linecap: butt}</style>
 </defs>
 <g id="figure_1">
  <g id="patch_1">
   <path d="M 0 432 
L 864 432 
L 864 0 
L 0 0 
z
" style="fill: #ffffff"/>
  </g>
  <g id="axes_1">
   <g id="patch_2">
    <path d="M 108 384.48 
L 412.363636 384.48 
L 412.363636 51.84 
L 108 51.84 
z
" style="fill: #ffffff"/>
   </g>
   <g id="matplotlib.axis_1">
    <g id="xtick_1">
     <g id="line2d_1">
      <path d="M 129.972776 384.48 
L 129.972776 51.84 
" clip-path="url(#p2b5cacd2b3)" style="fill: none; stroke: #b0b0b0; stroke-width: 0.8; stroke-linecap: square"/>
     </g>
     <g id="line2d_2">
      <defs>
       <path id="me1e38c440d" d="M 0 0 
L 0 3.5 
" style="stroke: #000000; stroke-width: 0.8"/>
      </defs>
      <g>
       <use xlink:href="#me1e38c440d" x="129.972776" y="384.48" style="stroke: #000000; stroke-width: 0.8"/>
      </g>
     </g>
     <g id="text_1">
      <!-- 0 -->
      <g transform="translate(126.791526 399.078438) scale(0.1 -0.1)">
       <defs>
        <path id="DejaVuSans-30" d="M 2034 4250 
Q 1547 4250 1301 3770 
Q 1056 3291 1056 2328 
Q 1056 1369 1301 889 
Q 1547 409 2034 409 
Q 2525 409 2770 889 
Q 3016 1369 3016 2328 
Q 3016 3291 2770 3770 
Q 2525 4250 2034 4250 
z
M 2034 4750 
Q 2819 4750 3233 4129 
Q 3647 3509 3647 2328 
Q 3647 1150 3233 529 
Q 2819 -91 2034 -91 
Q 1250 -91 836 529 
Q 422 1150 422 2328 
Q 422 3509 836 4129 
Q 1250 4750 2034 4750 
z
" transform="scale(0.015625)"/>
       </defs>
       <use xlink:href="#DejaVuSans-30"/>
      </g>
     </g>
    </g>
    <g id="xtick_2">
     <g id="line2d_3">
      <path d="M 195.077297 384.48 
L 195.077297 51.84 
" clip-path="url(#p2b5cacd2b3)" style="fill: none; stroke: #b0b0b0; stroke-width: 0.8; stroke-linecap: square"/>
     </g>
     <g id="line2d_4">
      <g>
       <use xlink:href="#me1e38c440d" x="195.077297" y="384.48" style="stroke: #000000; stroke-width: 0.8"/>
      </g>
     </g>
     <g id="text_2">
      <!-- 2 -->
      <g transform="translate(191.896047 399.078438) scale(0.1 -0.1)">
       <defs>
        <path id="DejaVuSans-32" d="M 1228 531 
L 3431 531 
L 3431 0 
L 469 0 
L 469 531 
Q 828 903 1448 1529 
Q 2069 2156 2228 2338 
Q 2531 2678 2651 2914 
Q 2772 3150 2772 3378 
Q 2772 3750 2511 3984 
Q 2250 4219 1831 4219 
Q 1534 4219 1204 4116 
Q 875 4013 500 3803 
L 500 4441 
Q 881 4594 1212 4672 
Q 1544 4750 1819 4750 
Q 2544 4750 2975 4387 
Q 3406 4025 3406 3419 
Q 3406 3131 3298 2873 
Q 3191 2616 2906 2266 
Q 2828 2175 2409 1742 
Q 1991 1309 1228 531 
z
" transform="scale(0.015625)"/>
       </defs>
       <use xlink:href="#DejaVuSans-32"/>
      </g>
     </g>
    </g>
    <g id="xtick_3">
     <g id="line2d_5">
      <path d="M 260.181818 384.48 
L 260.181818 51.84 
" clip-path="url(#p2b5cacd2b3)" style="fill: none; stroke: #b0b0b0; stroke-width: 0.8; stroke-linecap: square"/>
     </g>
     <g id="line2d_6">
      <g>
       <use xlink:href="#me1e38c440d" x="260.181818" y="384.48" style="stroke: #000000; stroke-width: 0.8"/>
      </g>
     </g>
     <g id="text_3">
      <!-- 4 -->
      <g transform="translate(257.000568 399.078438) scale(0.1 -0.1)">
       <defs>
        <path id="DejaVuSans-34" d="M 2419 4116 
L 825 1625 
L 2419 1625 
L 2419 4116 
z
M 2253 4666 
L 3047 4666 
L 3047 1625 
L 3713 1625 
L 3713 1100 
L 3047 1100 
L 3047 0 
L 2419 0 
L 2419 1100 
L 313 1100 
L 313 1709 
L 2253 4666 
z
" transform="scale(0.015625)"/>
       </defs>
       <use xlink:href="#DejaVuSans-34"/>
      </g>
     </g>
    </g>
    <g id="xtick_4">
     <g id="line2d_7">
      <path d="M 325.286339 384.48 
L 325.286339 51.84 
" clip-path="url(#p2b5cacd2b3)" style="fill: none; stroke: #b0b0b0; stroke-width: 0.8; stroke-linecap: square"/>
     </g>
     <g id="line2d_8">
      <g>
       <use xlink:href="#me1e38c440d" x="325.286339" y="384.48" style="stroke: #000000; stroke-width: 0.8"/>
      </g>
     </g>
     <g id="text_4">
      <!-- 6 -->
      <g transform="translate(322.105089 399.078438) scale(0.1 -0.1)">
       <defs>
        <path id="DejaVuSans-36" d="M 2113 2584 
Q 1688 2584 1439 2293 
Q 1191 2003 1191 1497 
Q 1191 994 1439 701 
Q 1688 409 2113 409 
Q 2538 409 2786 701 
Q 3034 994 3034 1497 
Q 3034 2003 2786 2293 
Q 2538 2584 2113 2584 
z
M 3366 4563 
L 3366 3988 
Q 3128 4100 2886 4159 
Q 2644 4219 2406 4219 
Q 1781 4219 1451 3797 
Q 1122 3375 1075 2522 
Q 1259 2794 1537 2939 
Q 1816 3084 2150 3084 
Q 2853 3084 3261 2657 
Q 3669 2231 3669 1497 
Q 3669 778 3244 343 
Q 2819 -91 2113 -91 
Q 1303 -91 875 529 
Q 447 1150 447 2328 
Q 447 3434 972 4092 
Q 1497 4750 2381 4750 
Q 2619 4750 2861 4703 
Q 3103 4656 3366 4563 
z
" transform="scale(0.015625)"/>
       </defs>
       <use xlink:href="#DejaVuSans-36"/>
      </g>
     </g>
    </g>
    <g id="xtick_5">
     <g id="line2d_9">
      <path d="M 390.39086 384.48 
L 390.39086 51.84 
" clip-path="url(#p2b5cacd2b3)" style="fill: none; stroke: #b0b0b0; stroke-width: 0.8; stroke-linecap: square"/>
     </g>
     <g id="line2d_10">
      <g>
       <use xlink:href="#me1e38c440d" x="390.39086" y="384.48" style="stroke: #000000; stroke-width: 0.8"/>
      </g>
     </g>
     <g id="text_5">
      <!-- 8 -->
      <g transform="translate(387.20961 399.078438) scale(0.1 -0.1)">
       <defs>
        <path id="DejaVuSans-38" d="M 2034 2216 
Q 1584 2216 1326 1975 
Q 1069 1734 1069 1313 
Q 1069 891 1326 650 
Q 1584 409 2034 409 
Q 2484 409 2743 651 
Q 3003 894 3003 1313 
Q 3003 1734 2745 1975 
Q 2488 2216 2034 2216 
z
M 1403 2484 
Q 997 2584 770 2862 
Q 544 3141 544 3541 
Q 544 4100 942 4425 
Q 1341 4750 2034 4750 
Q 2731 4750 3128 4425 
Q 3525 4100 3525 3541 
Q 3525 3141 3298 2862 
Q 3072 2584 2669 2484 
Q 3125 2378 3379 2068 
Q 3634 1759 3634 1313 
Q 3634 634 3220 271 
Q 2806 -91 2034 -91 
Q 1263 -91 848 271 
Q 434 634 434 1313 
Q 434 1759 690 2068 
Q 947 2378 1403 2484 
z
M 1172 3481 
Q 1172 3119 1398 2916 
Q 1625 2713 2034 2713 
Q 2441 2713 2670 2916 
Q 2900 3119 2900 3481 
Q 2900 3844 2670 4047 
Q 2441 4250 2034 4250 
Q 1625 4250 1398 4047 
Q 1172 3844 1172 3481 
z
" transform="scale(0.015625)"/>
       </defs>
       <use xlink:href="#DejaVuSans-38"/>
      </g>
     </g>
    </g>
    <g id="text_6">
     <!-- x1 -->
     <g transform="translate(254.041193 412.756563) scale(0.1 -0.1)">
      <defs>
       <path id="DejaVuSans-78" d="M 3513 3500 
L 2247 1797 
L 3578 0 
L 2900 0 
L 1881 1375 
L 863 0 
L 184 0 
L 1544 1831 
L 300 3500 
L 978 3500 
L 1906 2253 
L 2834 3500 
L 3513 3500 
z
" transform="scale(0.015625)"/>
       <path id="DejaVuSans-31" d="M 794 531 
L 1825 531 
L 1825 4091 
L 703 3866 
L 703 4441 
L 1819 4666 
L 2450 4666 
L 2450 531 
L 3481 531 
L 3481 0 
L 794 0 
L 794 531 
z
" transform="scale(0.015625)"/>
      </defs>
      <use xlink:href="#DejaVuSans-78"/>
      <use xlink:href="#DejaVuSans-31" transform="translate(59.179688 0)"/>
     </g>
    </g>
   </g>
   <g id="matplotlib.axis_2">
    <g id="ytick_1">
     <g id="line2d_11">
      <path d="M 108 324.889412 
L 412.363636 324.889412 
" clip-path="url(#p2b5cacd2b3)" style="fill: none; stroke: #b0b0b0; stroke-width: 0.8; stroke-linecap: square"/>
     </g>
     <g id="line2d_12">
      <defs>
       <path id="mb0bea27b8b" d="M 0 0 
L -3.5 0 
" style="stroke: #000000; stroke-width: 0.8"/>
      </defs>
      <g>
       <use xlink:href="#mb0bea27b8b" x="108" y="324.889412" style="stroke: #000000; stroke-width: 0.8"/>
      </g>
     </g>
     <g id="text_7">
      <!-- 2 -->
      <g transform="translate(94.6375 328.688631) scale(0.1 -0.1)">
       <use xlink:href="#DejaVuSans-32"/>
      </g>
     </g>
    </g>
    <g id="ytick_2">
     <g id="line2d_13">
      <path d="M 108 253.736471 
L 412.363636 253.736471 
" clip-path="url(#p2b5cacd2b3)" style="fill: none; stroke: #b0b0b0; stroke-width: 0.8; stroke-linecap: square"/>
     </g>
     <g id="line2d_14">
      <g>
       <use xlink:href="#mb0bea27b8b" x="108" y="253.736471" style="stroke: #000000; stroke-width: 0.8"/>
      </g>
     </g>
     <g id="text_8">
      <!-- 4 -->
      <g transform="translate(94.6375 257.535689) scale(0.1 -0.1)">
       <use xlink:href="#DejaVuSans-34"/>
      </g>
     </g>
    </g>
    <g id="ytick_3">
     <g id="line2d_15">
      <path d="M 108 182.583529 
L 412.363636 182.583529 
" clip-path="url(#p2b5cacd2b3)" style="fill: none; stroke: #b0b0b0; stroke-width: 0.8; stroke-linecap: square"/>
     </g>
     <g id="line2d_16">
      <g>
       <use xlink:href="#mb0bea27b8b" x="108" y="182.583529" style="stroke: #000000; stroke-width: 0.8"/>
      </g>
     </g>
     <g id="text_9">
      <!-- 6 -->
      <g transform="translate(94.6375 186.382748) scale(0.1 -0.1)">
       <use xlink:href="#DejaVuSans-36"/>
      </g>
     </g>
    </g>
    <g id="ytick_4">
     <g id="line2d_17">
      <path d="M 108 111.430588 
L 412.363636 111.430588 
" clip-path="url(#p2b5cacd2b3)" style="fill: none; stroke: #b0b0b0; stroke-width: 0.8; stroke-linecap: square"/>
     </g>
     <g id="line2d_18">
      <g>
       <use xlink:href="#mb0bea27b8b" x="108" y="111.430588" style="stroke: #000000; stroke-width: 0.8"/>
      </g>
     </g>
     <g id="text_10">
      <!-- 8 -->
      <g transform="translate(94.6375 115.229807) scale(0.1 -0.1)">
       <use xlink:href="#DejaVuSans-38"/>
      </g>
     </g>
    </g>
    <g id="text_11">
     <!-- x2 -->
     <g transform="translate(88.557812 224.300625) rotate(-90) scale(0.1 -0.1)">
      <use xlink:href="#DejaVuSans-78"/>
      <use xlink:href="#DejaVuSans-32" transform="translate(59.179688 0)"/>
     </g>
    </g>
   </g>
   <g id="PathCollection_1">
    <defs>
     <path id="m85b9c0c6f9" d="M -0.49999 0.49999 
L 0.50001 0.49999 
L 0.50001 -0.50001 
L -0.49999 -0.50001 
z
"/>
    </defs>
    <g clip-path="url(#p2b5cacd2b3)">
     <use xlink:href="#m85b9c0c6f9" x="129.972776" y="360.465882" style="fill: #1f77b4"/>
     <use xlink:href="#m85b9c0c6f9" x="129.972776" y="324.889412" style="fill: #1f77b4"/>
     <use xlink:href="#m85b9c0c6f9" x="129.972776" y="289.312941" style="fill: #1f77b4"/>
     <use xlink:href="#m85b9c0c6f9" x="129.972776" y="253.736471" style="fill: #1f77b4"/>
     <use xlink:href="#m85b9c0c6f9" x="129.972776" y="218.16" style="fill: #1f77b4"/>
     <use xlink:href="#m85b9c0c6f9" x="129.972776" y="182.583529" style="fill: #1f77b4"/>
     <use xlink:href="#m85b9c0c6f9" x="129.972776" y="147.007059" style="fill: #1f77b4"/>
     <use xlink:href="#m85b9c0c6f9" x="129.972776" y="111.430588" style="fill: #1f77b4"/>
     <use xlink:href="#m85b9c0c6f9" x="129.972776" y="75.854118" style="fill: #1f77b4"/>
     <use xlink:href="#m85b9c0c6f9" x="162.525036" y="324.889412" style="fill: #1f77b4"/>
     <use xlink:href="#m85b9c0c6f9" x="162.525036" y="289.312941" style="fill: #1f77b4"/>
     <use xlink:href="#m85b9c0c6f9" x="162.525036" y="253.736471" style="fill: #1f77b4"/>
     <use xlink:href="#m85b9c0c6f9" x="162.525036" y="218.16" style="fill: #1f77b4"/>
     <use xlink:href="#m85b9c0c6f9" x="162.525036" y="182.583529" style="fill: #1f77b4"/>
     <use xlink:href="#m85b9c0c6f9" x="162.525036" y="147.007059" style="fill: #1f77b4"/>
     <use xlink:href="#m85b9c0c6f9" x="162.525036" y="111.430588" style="fill: #1f77b4"/>
     <use xlink:href="#m85b9c0c6f9" x="162.525036" y="75.854118" style="fill: #1f77b4"/>
     <use xlink:href="#m85b9c0c6f9" x="195.077297" y="289.312941" style="fill: #1f77b4"/>
     <use xlink:href="#m85b9c0c6f9" x="195.077297" y="253.736471" style="fill: #1f77b4"/>
     <use xlink:href="#m85b9c0c6f9" x="195.077297" y="218.16" style="fill: #1f77b4"/>
     <use xlink:href="#m85b9c0c6f9" x="195.077297" y="182.583529" style="fill: #1f77b4"/>
     <use xlink:href="#m85b9c0c6f9" x="195.077297" y="147.007059" style="fill: #1f77b4"/>
     <use xlink:href="#m85b9c0c6f9" x="195.077297" y="111.430588" style="fill: #1f77b4"/>
     <use xlink:href="#m85b9c0c6f9" x="195.077297" y="75.854118" style="fill: #1f77b4"/>
     <use xlink:href="#m85b9c0c6f9" x="227.629558" y="253.736471" style="fill: #1f77b4"/>
     <use xlink:href="#m85b9c0c6f9" x="227.629558" y="218.16" style="fill: #1f77b4"/>
     <use xlink:href="#m85b9c0c6f9" x="227.629558" y="182.583529" style="fill: #1f77b4"/>
     <use xlink:href="#m85b9c0c6f9" x="227.629558" y="147.007059" style="fill: #1f77b4"/>
     <use xlink:href="#m85b9c0c6f9" x="227.629558" y="111.430588" style="fill: #1f77b4"/>
     <use xlink:href="#m85b9c0c6f9" x="227.629558" y="75.854118" style="fill: #1f77b4"/>
     <use xlink:href="#m85b9c0c6f9" x="260.181818" y="218.16" style="fill: #1f77b4"/>
     <use xlink:href="#m85b9c0c6f9" x="260.181818" y="182.583529" style="fill: #1f77b4"/>
     <use xlink:href="#m85b9c0c6f9" x="260.181818" y="147.007059" style="fill: #1f77b4"/>
     <use xlink:href="#m85b9c0c6f9" x="260.181818" y="111.430588" style="fill: #1f77b4"/>
     <use xlink:href="#m85b9c0c6f9" x="260.181818" y="75.854118" style="fill: #1f77b4"/>
     <use xlink:href="#m85b9c0c6f9" x="292.734079" y="182.583529" style="fill: #1f77b4"/>
     <use xlink:href="#m85b9c0c6f9" x="292.734079" y="147.007059" style="fill: #1f77b4"/>
     <use xlink:href="#m85b9c0c6f9" x="292.734079" y="111.430588" style="fill: #1f77b4"/>
     <use xlink:href="#m85b9c0c6f9" x="292.734079" y="75.854118" style="fill: #1f77b4"/>
     <use xlink:href="#m85b9c0c6f9" x="325.286339" y="147.007059" style="fill: #1f77b4"/>
     <use xlink:href="#m85b9c0c6f9" x="325.286339" y="111.430588" style="fill: #1f77b4"/>
     <use xlink:href="#m85b9c0c6f9" x="325.286339" y="75.854118" style="fill: #1f77b4"/>
     <use xlink:href="#m85b9c0c6f9" x="357.8386" y="111.430588" style="fill: #1f77b4"/>
     <use xlink:href="#m85b9c0c6f9" x="357.8386" y="75.854118" style="fill: #1f77b4"/>
     <use xlink:href="#m85b9c0c6f9" x="390.39086" y="75.854118" style="fill: #1f77b4"/>
    </g>
   </g>
   <g id="patch_3">
    <path d="M 252.043753 84.748235 
L 252.043753 66.96 
L 268.319883 66.96 
L 268.319883 84.748235 
z
" clip-path="url(#p2b5cacd2b3)" style="fill: #ff2200; stroke: #e61f00; stroke-linejoin: miter"/>
   </g>
   <g id="patch_4">
    <path d="M 186.939232 84.748235 
L 186.939232 66.96 
L 203.215362 66.96 
L 203.215362 84.748235 
z
" clip-path="url(#p2b5cacd2b3)" style="fill: #ff2200; stroke: #e61f00; stroke-linejoin: miter"/>
   </g>
   <g id="patch_5">
    <path d="M 219.491492 262.630588 
L 219.491492 244.842353 
L 235.767623 244.842353 
L 235.767623 262.630588 
z
" clip-path="url(#p2b5cacd2b3)" style="fill: #ff2200; stroke: #e61f00; stroke-linejoin: miter"/>
   </g>
   <g id="patch_6">
    <path d="M 219.491492 227.054118 
L 219.491492 209.265882 
L 235.767623 209.265882 
L 235.767623 227.054118 
z
" clip-path="url(#p2b5cacd2b3)" style="fill: #ff2200; stroke: #e61f00; stroke-linejoin: miter"/>
   </g>
   <g id="patch_7">
    <path d="M 219.491492 191.477647 
L 219.491492 173.689412 
L 235.767623 173.689412 
L 235.767623 191.477647 
z
" clip-path="url(#p2b5cacd2b3)" style="fill: #ff2200; stroke: #e61f00; stroke-linejoin: miter"/>
   </g>
   <g id="patch_8">
    <path d="M 219.491492 155.901176 
L 219.491492 138.112941 
L 235.767623 138.112941 
L 235.767623 155.901176 
z
" clip-path="url(#p2b5cacd2b3)" style="fill: #ff2200; stroke: #e61f00; stroke-linejoin: miter"/>
   </g>
   <g id="patch_9">
    <path d="M 219.491492 120.324706 
L 219.491492 102.536471 
L 235.767623 102.536471 
L 235.767623 120.324706 
z
" clip-path="url(#p2b5cacd2b3)" style="fill: #ff2200; stroke: #e61f00; stroke-linejoin: miter"/>
   </g>
   <g id="patch_10">
    <path d="M 219.491492 84.748235 
L 219.491492 66.96 
L 235.767623 66.96 
L 235.767623 84.748235 
z
" clip-path="url(#p2b5cacd2b3)" style="fill: #ff2200; stroke: #e61f00; stroke-linejoin: miter"/>
   </g>
   <g id="patch_11">
    <path d="M 252.043753 227.054118 
L 252.043753 209.265882 
L 268.319883 209.265882 
L 268.319883 227.054118 
z
" clip-path="url(#p2b5cacd2b3)" style="fill: #ff2200; stroke: #e61f00; stroke-linejoin: miter"/>
   </g>
   <g id="patch_12">
    <path d="M 252.043753 191.477647 
L 252.043753 173.689412 
L 268.319883 173.689412 
L 268.319883 191.477647 
z
" clip-path="url(#p2b5cacd2b3)" style="fill: #ff2200; stroke: #e61f00; stroke-linejoin: miter"/>
   </g>
   <g id="patch_13">
    <path d="M 252.043753 155.901176 
L 252.043753 138.112941 
L 268.319883 138.112941 
L 268.319883 155.901176 
z
" clip-path="url(#p2b5cacd2b3)" style="fill: #ff2200; stroke: #e61f00; stroke-linejoin: miter"/>
   </g>
   <g id="patch_14">
    <path d="M 252.043753 120.324706 
L 252.043753 102.536471 
L 268.319883 102.536471 
L 268.319883 120.324706 
z
" clip-path="url(#p2b5cacd2b3)" style="fill: #ff2200; stroke: #e61f00; stroke-linejoin: miter"/>
   </g>
   <g id="patch_15">
    <path d="M 186.939232 120.324706 
L 186.939232 102.536471 
L 203.215362 102.536471 
L 203.215362 120.324706 
z
" clip-path="url(#p2b5cacd2b3)" style="fill: #ff2200; stroke: #e61f00; stroke-linejoin: miter"/>
   </g>
   <g id="patch_16">
    <path d="M 284.596014 191.477647 
L 284.596014 173.689412 
L 300.872144 173.689412 
L 300.872144 191.477647 
z
" clip-path="url(#p2b5cacd2b3)" style="fill: #ff2200; stroke: #e61f00; stroke-linejoin: miter"/>
   </g>
   <g id="patch_17">
    <path d="M 284.596014 155.901176 
L 284.596014 138.112941 
L 300.872144 138.112941 
L 300.872144 155.901176 
z
" clip-path="url(#p2b5cacd2b3)" style="fill: #ff2200; stroke: #e61f00; stroke-linejoin: miter"/>
   </g>
   <g id="patch_18">
    <path d="M 284.596014 120.324706 
L 284.596014 102.536471 
L 300.872144 102.536471 
L 300.872144 120.324706 
z
" clip-path="url(#p2b5cacd2b3)" style="fill: #ff2200; stroke: #e61f00; stroke-linejoin: miter"/>
   </g>
   <g id="patch_19">
    <path d="M 284.596014 84.748235 
L 284.596014 66.96 
L 300.872144 66.96 
L 300.872144 84.748235 
z
" clip-path="url(#p2b5cacd2b3)" style="fill: #ff2200; stroke: #e61f00; stroke-linejoin: miter"/>
   </g>
   <g id="patch_20">
    <path d="M 317.148274 155.901176 
L 317.148274 138.112941 
L 333.424404 138.112941 
L 333.424404 155.901176 
z
" clip-path="url(#p2b5cacd2b3)" style="fill: #ff2200; stroke: #e61f00; stroke-linejoin: miter"/>
   </g>
   <g id="patch_21">
    <path d="M 317.148274 120.324706 
L 317.148274 102.536471 
L 333.424404 102.536471 
L 333.424404 120.324706 
z
" clip-path="url(#p2b5cacd2b3)" style="fill: #ff2200; stroke: #e61f00; stroke-linejoin: miter"/>
   </g>
   <g id="patch_22">
    <path d="M 317.148274 84.748235 
L 317.148274 66.96 
L 333.424404 66.96 
L 333.424404 84.748235 
z
" clip-path="url(#p2b5cacd2b3)" style="fill: #ff2200; stroke: #e61f00; stroke-linejoin: miter"/>
   </g>
   <g id="patch_23">
    <path d="M 349.700535 120.324706 
L 349.700535 102.536471 
L 365.976665 102.536471 
L 365.976665 120.324706 
z
" clip-path="url(#p2b5cacd2b3)" style="fill: #ff2200; stroke: #e61f00; stroke-linejoin: miter"/>
   </g>
   <g id="patch_24">
    <path d="M 349.700535 84.748235 
L 349.700535 66.96 
L 365.976665 66.96 
L 365.976665 84.748235 
z
" clip-path="url(#p2b5cacd2b3)" style="fill: #ff2200; stroke: #e61f00; stroke-linejoin: miter"/>
   </g>
   <g id="patch_25">
    <path d="M 382.252795 84.748235 
L 382.252795 66.96 
L 398.528926 66.96 
L 398.528926 84.748235 
z
" clip-path="url(#p2b5cacd2b3)" style="fill: #ff2200; stroke: #e61f00; stroke-linejoin: miter"/>
   </g>
   <g id="patch_26">
    <path d="M 108 384.48 
L 108 51.84 
" style="fill: none; stroke: #000000; stroke-width: 0.8; stroke-linejoin: miter; stroke-linecap: square"/>
   </g>
   <g id="patch_27">
    <path d="M 108 384.48 
L 412.363636 384.48 
" style="fill: none; stroke: #000000; stroke-width: 0.8; stroke-linejoin: miter; stroke-linecap: square"/>
   </g>
   <g id="patch_28">
    <path d="M 154.386971 262.630588 
L 154.386971 244.842353 
L 170.663102 244.842353 
L 170.663102 262.630588 
z
" clip-path="url(#p2b5cacd2b3)" style="fill: #ff2200; stroke: #e61f00; stroke-linejoin: miter"/>
   </g>
   <g id="patch_29">
    <path d="M 121.834711 333.783529 
L 121.834711 315.995294 
L 138.110841 315.995294 
L 138.110841 333.783529 
z
" clip-path="url(#p2b5cacd2b3)" style="fill: #ff2200; stroke: #e61f00; stroke-linejoin: miter"/>
   </g>
   <g id="patch_30">
    <path d="M 121.834711 298.207059 
L 121.834711 280.418824 
L 138.110841 280.418824 
L 138.110841 298.207059 
z
" clip-path="url(#p2b5cacd2b3)" style="fill: #ff2200; stroke: #e61f00; stroke-linejoin: miter"/>
   </g>
   <g id="patch_31">
    <path d="M 121.834711 262.630588 
L 121.834711 244.842353 
L 138.110841 244.842353 
L 138.110841 262.630588 
z
" clip-path="url(#p2b5cacd2b3)" style="fill: #ff2200; stroke: #e61f00; stroke-linejoin: miter"/>
   </g>
   <g id="patch_32">
    <path d="M 121.834711 227.054118 
L 121.834711 209.265882 
L 138.110841 209.265882 
L 138.110841 227.054118 
z
" clip-path="url(#p2b5cacd2b3)" style="fill: #ff2200; stroke: #e61f00; stroke-linejoin: miter"/>
   </g>
   <g id="patch_33">
    <path d="M 121.834711 191.477647 
L 121.834711 173.689412 
L 138.110841 173.689412 
L 138.110841 191.477647 
z
" clip-path="url(#p2b5cacd2b3)" style="fill: #ff2200; stroke: #e61f00; stroke-linejoin: miter"/>
   </g>
   <g id="patch_34">
    <path d="M 121.834711 155.901176 
L 121.834711 138.112941 
L 138.110841 138.112941 
L 138.110841 155.901176 
z
" clip-path="url(#p2b5cacd2b3)" style="fill: #ff2200; stroke: #e61f00; stroke-linejoin: miter"/>
   </g>
   <g id="patch_35">
    <path d="M 121.834711 120.324706 
L 121.834711 102.536471 
L 138.110841 102.536471 
L 138.110841 120.324706 
z
" clip-path="url(#p2b5cacd2b3)" style="fill: #ff2200; stroke: #e61f00; stroke-linejoin: miter"/>
   </g>
   <g id="patch_36">
    <path d="M 121.834711 84.748235 
L 121.834711 66.96 
L 138.110841 66.96 
L 138.110841 84.748235 
z
" clip-path="url(#p2b5cacd2b3)" style="fill: #ff2200; stroke: #e61f00; stroke-linejoin: miter"/>
   </g>
   <g id="patch_37">
    <path d="M 154.386971 333.783529 
L 154.386971 315.995294 
L 170.663102 315.995294 
L 170.663102 333.783529 
z
" clip-path="url(#p2b5cacd2b3)" style="fill: #ff2200; stroke: #e61f00; stroke-linejoin: miter"/>
   </g>
   <g id="patch_38">
    <path d="M 154.386971 298.207059 
L 154.386971 280.418824 
L 170.663102 280.418824 
L 170.663102 298.207059 
z
" clip-path="url(#p2b5cacd2b3)" style="fill: #ff2200; stroke: #e61f00; stroke-linejoin: miter"/>
   </g>
   <g id="patch_39">
    <path d="M 121.834711 369.36 
L 121.834711 351.571765 
L 138.110841 351.571765 
L 138.110841 369.36 
z
" clip-path="url(#p2b5cacd2b3)" style="fill: #ff2200; stroke: #e61f00; stroke-linejoin: miter"/>
   </g>
   <g id="patch_40">
    <path d="M 154.386971 227.054118 
L 154.386971 209.265882 
L 170.663102 209.265882 
L 170.663102 227.054118 
z
" clip-path="url(#p2b5cacd2b3)" style="fill: #ff2200; stroke: #e61f00; stroke-linejoin: miter"/>
   </g>
   <g id="patch_41">
    <path d="M 154.386971 191.477647 
L 154.386971 173.689412 
L 170.663102 173.689412 
L 170.663102 191.477647 
z
" clip-path="url(#p2b5cacd2b3)" style="fill: #ff2200; stroke: #e61f00; stroke-linejoin: miter"/>
   </g>
   <g id="patch_42">
    <path d="M 154.386971 155.901176 
L 154.386971 138.112941 
L 170.663102 138.112941 
L 170.663102 155.901176 
z
" clip-path="url(#p2b5cacd2b3)" style="fill: #ff2200; stroke: #e61f00; stroke-linejoin: miter"/>
   </g>
   <g id="patch_43">
    <path d="M 154.386971 120.324706 
L 154.386971 102.536471 
L 170.663102 102.536471 
L 170.663102 120.324706 
z
" clip-path="url(#p2b5cacd2b3)" style="fill: #ff2200; stroke: #e61f00; stroke-linejoin: miter"/>
   </g>
   <g id="patch_44">
    <path d="M 154.386971 84.748235 
L 154.386971 66.96 
L 170.663102 66.96 
L 170.663102 84.748235 
z
" clip-path="url(#p2b5cacd2b3)" style="fill: #ff2200; stroke: #e61f00; stroke-linejoin: miter"/>
   </g>
   <g id="patch_45">
    <path d="M 186.939232 298.207059 
L 186.939232 280.418824 
L 203.215362 280.418824 
L 203.215362 298.207059 
z
" clip-path="url(#p2b5cacd2b3)" style="fill: #ff2200; stroke: #e61f00; stroke-linejoin: miter"/>
   </g>
   <g id="patch_46">
    <path d="M 186.939232 262.630588 
L 186.939232 244.842353 
L 203.215362 244.842353 
L 203.215362 262.630588 
z
" clip-path="url(#p2b5cacd2b3)" style="fill: #ff2200; stroke: #e61f00; stroke-linejoin: miter"/>
   </g>
   <g id="patch_47">
    <path d="M 186.939232 227.054118 
L 186.939232 209.265882 
L 203.215362 209.265882 
L 203.215362 227.054118 
z
" clip-path="url(#p2b5cacd2b3)" style="fill: #ff2200; stroke: #e61f00; stroke-linejoin: miter"/>
   </g>
   <g id="patch_48">
    <path d="M 186.939232 191.477647 
L 186.939232 173.689412 
L 203.215362 173.689412 
L 203.215362 191.477647 
z
" clip-path="url(#p2b5cacd2b3)" style="fill: #ff2200; stroke: #e61f00; stroke-linejoin: miter"/>
   </g>
   <g id="patch_49">
    <path d="M 186.939232 155.901176 
L 186.939232 138.112941 
L 203.215362 138.112941 
L 203.215362 155.901176 
z
" clip-path="url(#p2b5cacd2b3)" style="fill: #ff2200; stroke: #e61f00; stroke-linejoin: miter"/>
   </g>
   <g id="text_12">
    <!-- CombinationsDistribution, PDF -->
    <g transform="translate(168.397756 45.84) scale(0.12 -0.12)">
     <defs>
      <path id="DejaVuSans-43" d="M 4122 4306 
L 4122 3641 
Q 3803 3938 3442 4084 
Q 3081 4231 2675 4231 
Q 1875 4231 1450 3742 
Q 1025 3253 1025 2328 
Q 1025 1406 1450 917 
Q 1875 428 2675 428 
Q 3081 428 3442 575 
Q 3803 722 4122 1019 
L 4122 359 
Q 3791 134 3420 21 
Q 3050 -91 2638 -91 
Q 1578 -91 968 557 
Q 359 1206 359 2328 
Q 359 3453 968 4101 
Q 1578 4750 2638 4750 
Q 3056 4750 3426 4639 
Q 3797 4528 4122 4306 
z
" transform="scale(0.015625)"/>
      <path id="DejaVuSans-6f" d="M 1959 3097 
Q 1497 3097 1228 2736 
Q 959 2375 959 1747 
Q 959 1119 1226 758 
Q 1494 397 1959 397 
Q 2419 397 2687 759 
Q 2956 1122 2956 1747 
Q 2956 2369 2687 2733 
Q 2419 3097 1959 3097 
z
M 1959 3584 
Q 2709 3584 3137 3096 
Q 3566 2609 3566 1747 
Q 3566 888 3137 398 
Q 2709 -91 1959 -91 
Q 1206 -91 779 398 
Q 353 888 353 1747 
Q 353 2609 779 3096 
Q 1206 3584 1959 3584 
z
" transform="scale(0.015625)"/>
      <path id="DejaVuSans-6d" d="M 3328 2828 
Q 3544 3216 3844 3400 
Q 4144 3584 4550 3584 
Q 5097 3584 5394 3201 
Q 5691 2819 5691 2113 
L 5691 0 
L 5113 0 
L 5113 2094 
Q 5113 2597 4934 2840 
Q 4756 3084 4391 3084 
Q 3944 3084 3684 2787 
Q 3425 2491 3425 1978 
L 3425 0 
L 2847 0 
L 2847 2094 
Q 2847 2600 2669 2842 
Q 2491 3084 2119 3084 
Q 1678 3084 1418 2786 
Q 1159 2488 1159 1978 
L 1159 0 
L 581 0 
L 581 3500 
L 1159 3500 
L 1159 2956 
Q 1356 3278 1631 3431 
Q 1906 3584 2284 3584 
Q 2666 3584 2933 3390 
Q 3200 3197 3328 2828 
z
" transform="scale(0.015625)"/>
      <path id="DejaVuSans-62" d="M 3116 1747 
Q 3116 2381 2855 2742 
Q 2594 3103 2138 3103 
Q 1681 3103 1420 2742 
Q 1159 2381 1159 1747 
Q 1159 1113 1420 752 
Q 1681 391 2138 391 
Q 2594 391 2855 752 
Q 3116 1113 3116 1747 
z
M 1159 2969 
Q 1341 3281 1617 3432 
Q 1894 3584 2278 3584 
Q 2916 3584 3314 3078 
Q 3713 2572 3713 1747 
Q 3713 922 3314 415 
Q 2916 -91 2278 -91 
Q 1894 -91 1617 61 
Q 1341 213 1159 525 
L 1159 0 
L 581 0 
L 581 4863 
L 1159 4863 
L 1159 2969 
z
" transform="scale(0.015625)"/>
      <path id="DejaVuSans-69" d="M 603 3500 
L 1178 3500 
L 1178 0 
L 603 0 
L 603 3500 
z
M 603 4863 
L 1178 4863 
L 1178 4134 
L 603 4134 
L 603 4863 
z
" transform="scale(0.015625)"/>
      <path id="DejaVuSans-6e" d="M 3513 2113 
L 3513 0 
L 2938 0 
L 2938 2094 
Q 2938 2591 2744 2837 
Q 2550 3084 2163 3084 
Q 1697 3084 1428 2787 
Q 1159 2491 1159 1978 
L 1159 0 
L 581 0 
L 581 3500 
L 1159 3500 
L 1159 2956 
Q 1366 3272 1645 3428 
Q 1925 3584 2291 3584 
Q 2894 3584 3203 3211 
Q 3513 2838 3513 2113 
z
" transform="scale(0.015625)"/>
      <path id="DejaVuSans-61" d="M 2194 1759 
Q 1497 1759 1228 1600 
Q 959 1441 959 1056 
Q 959 750 1161 570 
Q 1363 391 1709 391 
Q 2188 391 2477 730 
Q 2766 1069 2766 1631 
L 2766 1759 
L 2194 1759 
z
M 3341 1997 
L 3341 0 
L 2766 0 
L 2766 531 
Q 2569 213 2275 61 
Q 1981 -91 1556 -91 
Q 1019 -91 701 211 
Q 384 513 384 1019 
Q 384 1609 779 1909 
Q 1175 2209 1959 2209 
L 2766 2209 
L 2766 2266 
Q 2766 2663 2505 2880 
Q 2244 3097 1772 3097 
Q 1472 3097 1187 3025 
Q 903 2953 641 2809 
L 641 3341 
Q 956 3463 1253 3523 
Q 1550 3584 1831 3584 
Q 2591 3584 2966 3190 
Q 3341 2797 3341 1997 
z
" transform="scale(0.015625)"/>
      <path id="DejaVuSans-74" d="M 1172 4494 
L 1172 3500 
L 2356 3500 
L 2356 3053 
L 1172 3053 
L 1172 1153 
Q 1172 725 1289 603 
Q 1406 481 1766 481 
L 2356 481 
L 2356 0 
L 1766 0 
Q 1100 0 847 248 
Q 594 497 594 1153 
L 594 3053 
L 172 3053 
L 172 3500 
L 594 3500 
L 594 4494 
L 1172 4494 
z
" transform="scale(0.015625)"/>
      <path id="DejaVuSans-73" d="M 2834 3397 
L 2834 2853 
Q 2591 2978 2328 3040 
Q 2066 3103 1784 3103 
Q 1356 3103 1142 2972 
Q 928 2841 928 2578 
Q 928 2378 1081 2264 
Q 1234 2150 1697 2047 
L 1894 2003 
Q 2506 1872 2764 1633 
Q 3022 1394 3022 966 
Q 3022 478 2636 193 
Q 2250 -91 1575 -91 
Q 1294 -91 989 -36 
Q 684 19 347 128 
L 347 722 
Q 666 556 975 473 
Q 1284 391 1588 391 
Q 1994 391 2212 530 
Q 2431 669 2431 922 
Q 2431 1156 2273 1281 
Q 2116 1406 1581 1522 
L 1381 1569 
Q 847 1681 609 1914 
Q 372 2147 372 2553 
Q 372 3047 722 3315 
Q 1072 3584 1716 3584 
Q 2034 3584 2315 3537 
Q 2597 3491 2834 3397 
z
" transform="scale(0.015625)"/>
      <path id="DejaVuSans-44" d="M 1259 4147 
L 1259 519 
L 2022 519 
Q 2988 519 3436 956 
Q 3884 1394 3884 2338 
Q 3884 3275 3436 3711 
Q 2988 4147 2022 4147 
L 1259 4147 
z
M 628 4666 
L 1925 4666 
Q 3281 4666 3915 4102 
Q 4550 3538 4550 2338 
Q 4550 1131 3912 565 
Q 3275 0 1925 0 
L 628 0 
L 628 4666 
z
" transform="scale(0.015625)"/>
      <path id="DejaVuSans-72" d="M 2631 2963 
Q 2534 3019 2420 3045 
Q 2306 3072 2169 3072 
Q 1681 3072 1420 2755 
Q 1159 2438 1159 1844 
L 1159 0 
L 581 0 
L 581 3500 
L 1159 3500 
L 1159 2956 
Q 1341 3275 1631 3429 
Q 1922 3584 2338 3584 
Q 2397 3584 2469 3576 
Q 2541 3569 2628 3553 
L 2631 2963 
z
" transform="scale(0.015625)"/>
      <path id="DejaVuSans-75" d="M 544 1381 
L 544 3500 
L 1119 3500 
L 1119 1403 
Q 1119 906 1312 657 
Q 1506 409 1894 409 
Q 2359 409 2629 706 
Q 2900 1003 2900 1516 
L 2900 3500 
L 3475 3500 
L 3475 0 
L 2900 0 
L 2900 538 
Q 2691 219 2414 64 
Q 2138 -91 1772 -91 
Q 1169 -91 856 284 
Q 544 659 544 1381 
z
M 1991 3584 
L 1991 3584 
z
" transform="scale(0.015625)"/>
      <path id="DejaVuSans-2c" d="M 750 794 
L 1409 794 
L 1409 256 
L 897 -744 
L 494 -744 
L 750 256 
L 750 794 
z
" transform="scale(0.015625)"/>
      <path id="DejaVuSans-20" transform="scale(0.015625)"/>
      <path id="DejaVuSans-50" d="M 1259 4147 
L 1259 2394 
L 2053 2394 
Q 2494 2394 2734 2622 
Q 2975 2850 2975 3272 
Q 2975 3691 2734 3919 
Q 2494 4147 2053 4147 
L 1259 4147 
z
M 628 4666 
L 2053 4666 
Q 2838 4666 3239 4311 
Q 3641 3956 3641 3272 
Q 3641 2581 3239 2228 
Q 2838 1875 2053 1875 
L 1259 1875 
L 1259 0 
L 628 0 
L 628 4666 
z
" transform="scale(0.015625)"/>
      <path id="DejaVuSans-46" d="M 628 4666 
L 3309 4666 
L 3309 4134 
L 1259 4134 
L 1259 2759 
L 3109 2759 
L 3109 2228 
L 1259 2228 
L 1259 0 
L 628 0 
L 628 4666 
z
" transform="scale(0.015625)"/>
     </defs>
     <use xlink:href="#DejaVuSans-43"/>
     <use xlink:href="#DejaVuSans-6f" transform="translate(69.824219 0)"/>
     <use xlink:href="#DejaVuSans-6d" transform="translate(131.005859 0)"/>
     <use xlink:href="#DejaVuSans-62" transform="translate(228.417969 0)"/>
     <use xlink:href="#DejaVuSans-69" transform="translate(291.894531 0)"/>
     <use xlink:href="#DejaVuSans-6e" transform="translate(319.677734 0)"/>
     <use xlink:href="#DejaVuSans-61" transform="translate(383.056641 0)"/>
     <use xlink:href="#DejaVuSans-74" transform="translate(444.335938 0)"/>
     <use xlink:href="#DejaVuSans-69" transform="translate(483.544922 0)"/>
     <use xlink:href="#DejaVuSans-6f" transform="translate(511.328125 0)"/>
     <use xlink:href="#DejaVuSans-6e" transform="translate(572.509766 0)"/>
     <use xlink:href="#DejaVuSans-73" transform="translate(635.888672 0)"/>
     <use xlink:href="#DejaVuSans-44" transform="translate(687.988281 0)"/>
     <use xlink:href="#DejaVuSans-69" transform="translate(764.990234 0)"/>
     <use xlink:href="#DejaVuSans-73" transform="translate(792.773438 0)"/>
     <use xlink:href="#DejaVuSans-74" transform="translate(844.873047 0)"/>
     <use xlink:href="#DejaVuSans-72" transform="translate(884.082031 0)"/>
     <use xlink:href="#DejaVuSans-69" transform="translate(925.195312 0)"/>
     <use xlink:href="#DejaVuSans-62" transform="translate(952.978516 0)"/>
     <use xlink:href="#DejaVuSans-75" transform="translate(1016.455078 0)"/>
     <use xlink:href="#DejaVuSans-74" transform="translate(1079.833984 0)"/>
     <use xlink:href="#DejaVuSans-69" transform="translate(1119.042969 0)"/>
     <use xlink:href="#DejaVuSans-6f" transform="translate(1146.826172 0)"/>
     <use xlink:href="#DejaVuSans-6e" transform="translate(1208.007812 0)"/>
     <use xlink:href="#DejaVuSans-2c" transform="translate(1271.386719 0)"/>
     <use xlink:href="#DejaVuSans-20" transform="translate(1303.173828 0)"/>
     <use xlink:href="#DejaVuSans-50" transform="translate(1334.960938 0)"/>
     <use xlink:href="#DejaVuSans-44" transform="translate(1395.263672 0)"/>
     <use xlink:href="#DejaVuSans-46" transform="translate(1472.265625 0)"/>
    </g>
   </g>
  </g>
  <g id="axes_2">
   <g id="patch_50">
    <path d="M 473.236364 384.48 
L 716.727273 384.48 
L 716.727273 51.84 
L 473.236364 51.84 
z
" style="fill: #ffffff"/>
   </g>
   <g id="matplotlib.axis_3">
    <g id="xtick_6">
     <g id="line2d_19">
      <path d="M 486.474283 384.48 
L 486.474283 51.84 
" clip-path="url(#ped81113a11)" style="fill: none; stroke: #b0b0b0; stroke-width: 0.8; stroke-linecap: square"/>
     </g>
     <g id="line2d_20">
      <g>
       <use xlink:href="#me1e38c440d" x="486.474283" y="384.48" style="stroke: #000000; stroke-width: 0.8"/>
      </g>
     </g>
     <g id="text_13">
      <!-- 0 -->
      <g transform="translate(483.293033 399.078438) scale(0.1 -0.1)">
       <use xlink:href="#DejaVuSans-30"/>
      </g>
     </g>
    </g>
    <g id="xtick_7">
     <g id="line2d_21">
      <path d="M 529.877297 384.48 
L 529.877297 51.84 
" clip-path="url(#ped81113a11)" style="fill: none; stroke: #b0b0b0; stroke-width: 0.8; stroke-linecap: square"/>
     </g>
     <g id="line2d_22">
      <g>
       <use xlink:href="#me1e38c440d" x="529.877297" y="384.48" style="stroke: #000000; stroke-width: 0.8"/>
      </g>
     </g>
     <g id="text_14">
      <!-- 2 -->
      <g transform="translate(526.696047 399.078438) scale(0.1 -0.1)">
       <use xlink:href="#DejaVuSans-32"/>
      </g>
     </g>
    </g>
    <g id="xtick_8">
     <g id="line2d_23">
      <path d="M 573.280311 384.48 
L 573.280311 51.84 
" clip-path="url(#ped81113a11)" style="fill: none; stroke: #b0b0b0; stroke-width: 0.8; stroke-linecap: square"/>
     </g>
     <g id="line2d_24">
      <g>
       <use xlink:href="#me1e38c440d" x="573.280311" y="384.48" style="stroke: #000000; stroke-width: 0.8"/>
      </g>
     </g>
     <g id="text_15">
      <!-- 4 -->
      <g transform="translate(570.099061 399.078438) scale(0.1 -0.1)">
       <use xlink:href="#DejaVuSans-34"/>
      </g>
     </g>
    </g>
    <g id="xtick_9">
     <g id="line2d_25">
      <path d="M 616.683325 384.48 
L 616.683325 51.84 
" clip-path="url(#ped81113a11)" style="fill: none; stroke: #b0b0b0; stroke-width: 0.8; stroke-linecap: square"/>
     </g>
     <g id="line2d_26">
      <g>
       <use xlink:href="#me1e38c440d" x="616.683325" y="384.48" style="stroke: #000000; stroke-width: 0.8"/>
      </g>
     </g>
     <g id="text_16">
      <!-- 6 -->
      <g transform="translate(613.502075 399.078438) scale(0.1 -0.1)">
       <use xlink:href="#DejaVuSans-36"/>
      </g>
     </g>
    </g>
    <g id="xtick_10">
     <g id="line2d_27">
      <path d="M 660.086339 384.48 
L 660.086339 51.84 
" clip-path="url(#ped81113a11)" style="fill: none; stroke: #b0b0b0; stroke-width: 0.8; stroke-linecap: square"/>
     </g>
     <g id="line2d_28">
      <g>
       <use xlink:href="#me1e38c440d" x="660.086339" y="384.48" style="stroke: #000000; stroke-width: 0.8"/>
      </g>
     </g>
     <g id="text_17">
      <!-- 8 -->
      <g transform="translate(656.905089 399.078438) scale(0.1 -0.1)">
       <use xlink:href="#DejaVuSans-38"/>
      </g>
     </g>
    </g>
    <g id="xtick_11">
     <g id="line2d_29">
      <path d="M 703.489353 384.48 
L 703.489353 51.84 
" clip-path="url(#ped81113a11)" style="fill: none; stroke: #b0b0b0; stroke-width: 0.8; stroke-linecap: square"/>
     </g>
     <g id="line2d_30">
      <g>
       <use xlink:href="#me1e38c440d" x="703.489353" y="384.48" style="stroke: #000000; stroke-width: 0.8"/>
      </g>
     </g>
     <g id="text_18">
      <!-- 10 -->
      <g transform="translate(697.126853 399.078438) scale(0.1 -0.1)">
       <use xlink:href="#DejaVuSans-31"/>
       <use xlink:href="#DejaVuSans-30" transform="translate(63.623047 0)"/>
      </g>
     </g>
    </g>
    <g id="text_19">
     <!-- x1 -->
     <g transform="translate(588.841193 412.756563) scale(0.1 -0.1)">
      <use xlink:href="#DejaVuSans-78"/>
      <use xlink:href="#DejaVuSans-31" transform="translate(59.179688 0)"/>
     </g>
    </g>
   </g>
   <g id="matplotlib.axis_4">
    <g id="ytick_5">
     <g id="line2d_31">
      <path d="M 473.236364 366.395294 
L 716.727273 366.395294 
" clip-path="url(#ped81113a11)" style="fill: none; stroke: #b0b0b0; stroke-width: 0.8; stroke-linecap: square"/>
     </g>
     <g id="line2d_32">
      <g>
       <use xlink:href="#mb0bea27b8b" x="473.236364" y="366.395294" style="stroke: #000000; stroke-width: 0.8"/>
      </g>
     </g>
     <g id="text_20">
      <!-- 0 -->
      <g transform="translate(459.873864 370.194513) scale(0.1 -0.1)">
       <use xlink:href="#DejaVuSans-30"/>
      </g>
     </g>
    </g>
    <g id="ytick_6">
     <g id="line2d_33">
      <path d="M 473.236364 307.101176 
L 716.727273 307.101176 
" clip-path="url(#ped81113a11)" style="fill: none; stroke: #b0b0b0; stroke-width: 0.8; stroke-linecap: square"/>
     </g>
     <g id="line2d_34">
      <g>
       <use xlink:href="#mb0bea27b8b" x="473.236364" y="307.101176" style="stroke: #000000; stroke-width: 0.8"/>
      </g>
     </g>
     <g id="text_21">
      <!-- 2 -->
      <g transform="translate(459.873864 310.900395) scale(0.1 -0.1)">
       <use xlink:href="#DejaVuSans-32"/>
      </g>
     </g>
    </g>
    <g id="ytick_7">
     <g id="line2d_35">
      <path d="M 473.236364 247.807059 
L 716.727273 247.807059 
" clip-path="url(#ped81113a11)" style="fill: none; stroke: #b0b0b0; stroke-width: 0.8; stroke-linecap: square"/>
     </g>
     <g id="line2d_36">
      <g>
       <use xlink:href="#mb0bea27b8b" x="473.236364" y="247.807059" style="stroke: #000000; stroke-width: 0.8"/>
      </g>
     </g>
     <g id="text_22">
      <!-- 4 -->
      <g transform="translate(459.873864 251.606278) scale(0.1 -0.1)">
       <use xlink:href="#DejaVuSans-34"/>
      </g>
     </g>
    </g>
    <g id="ytick_8">
     <g id="line2d_37">
      <path d="M 473.236364 188.512941 
L 716.727273 188.512941 
" clip-path="url(#ped81113a11)" style="fill: none; stroke: #b0b0b0; stroke-width: 0.8; stroke-linecap: square"/>
     </g>
     <g id="line2d_38">
      <g>
       <use xlink:href="#mb0bea27b8b" x="473.236364" y="188.512941" style="stroke: #000000; stroke-width: 0.8"/>
      </g>
     </g>
     <g id="text_23">
      <!-- 6 -->
      <g transform="translate(459.873864 192.31216) scale(0.1 -0.1)">
       <use xlink:href="#DejaVuSans-36"/>
      </g>
     </g>
    </g>
    <g id="ytick_9">
     <g id="line2d_39">
      <path d="M 473.236364 129.218824 
L 716.727273 129.218824 
" clip-path="url(#ped81113a11)" style="fill: none; stroke: #b0b0b0; stroke-width: 0.8; stroke-linecap: square"/>
     </g>
     <g id="line2d_40">
      <g>
       <use xlink:href="#mb0bea27b8b" x="473.236364" y="129.218824" style="stroke: #000000; stroke-width: 0.8"/>
      </g>
     </g>
     <g id="text_24">
      <!-- 8 -->
      <g transform="translate(459.873864 133.018042) scale(0.1 -0.1)">
       <use xlink:href="#DejaVuSans-38"/>
      </g>
     </g>
    </g>
    <g id="ytick_10">
     <g id="line2d_41">
      <path d="M 473.236364 69.924706 
L 716.727273 69.924706 
" clip-path="url(#ped81113a11)" style="fill: none; stroke: #b0b0b0; stroke-width: 0.8; stroke-linecap: square"/>
     </g>
     <g id="line2d_42">
      <g>
       <use xlink:href="#mb0bea27b8b" x="473.236364" y="69.924706" style="stroke: #000000; stroke-width: 0.8"/>
      </g>
     </g>
     <g id="text_25">
      <!-- 10 -->
      <g transform="translate(453.511364 73.723925) scale(0.1 -0.1)">
       <use xlink:href="#DejaVuSans-31"/>
       <use xlink:href="#DejaVuSans-30" transform="translate(63.623047 0)"/>
      </g>
     </g>
    </g>
    <g id="text_26">
     <!-- x2 -->
     <g transform="translate(447.431676 224.300625) rotate(-90) scale(0.1 -0.1)">
      <use xlink:href="#DejaVuSans-78"/>
      <use xlink:href="#DejaVuSans-32" transform="translate(59.179688 0)"/>
     </g>
    </g>
   </g>
   <g id="QuadContourSet_1">
    <path d="M 484.304132 66.96 
L 484.304132 336.096 
L 486.517686 339.12 
L 705.659504 339.12 
L 705.659504 339.12 
" clip-path="url(#ped81113a11)" style="fill: none; stroke: #440154; stroke-opacity: 0.996094"/>
    <path d="M 484.550083 66.96 
L 484.620354 157.68 
L 484.673058 166.752 
L 484.746843 218.16 
L 484.857521 224.208 
L 484.857521 245.376 
L 485.041983 248.4 
L 485.041983 275.616 
L 485.410909 278.64 
L 485.410909 305.856 
L 486.517686 308.88 
L 705.659504 308.88 
L 705.659504 308.88 
" clip-path="url(#ped81113a11)" style="fill: none; stroke: #460a5d; stroke-opacity: 0.996094"/>
    <path d="M 485.041983 66.96 
L 485.134215 127.44 
L 485.252798 130.464 
L 485.252798 157.68 
L 485.410909 160.704 
L 485.410909 187.92 
L 485.632264 190.944 
L 485.632264 218.16 
L 485.964298 221.184 
L 485.964298 245.376 
L 486.517686 248.4 
L 506.439669 248.4 
L 506.439669 248.4 
L 506.439669 275.616 
L 508.653223 278.64 
L 705.659504 278.64 
L 705.659504 278.64 
" clip-path="url(#ped81113a11)" style="fill: none; stroke: #481c6e; stroke-opacity: 0.996094"/>
    <path d="M 485.533884 66.96 
L 485.533884 97.2 
L 485.687603 100.224 
L 485.687603 127.44 
L 485.885242 130.464 
L 485.885242 157.68 
L 486.14876 160.704 
L 486.14876 187.92 
L 486.517686 190.944 
L 506.439669 190.944 
L 506.439669 190.944 
L 506.439669 218.16 
L 507.177521 221.184 
L 507.177521 245.376 
L 508.653223 248.4 
L 528.575207 248.4 
L 528.575207 248.4 
L 528.575207 275.616 
L 530.78876 276.624 
L 705.659504 276.624 
L 705.659504 276.624 
" clip-path="url(#ped81113a11)" style="fill: none; stroke: #472d7b; stroke-opacity: 0.996094"/>
    <path d="M 486.025785 66.96 
L 486.025785 97.2 
L 486.240992 100.224 
L 486.240992 127.44 
L 486.517686 130.464 
L 506.439669 130.464 
L 506.439669 130.464 
L 506.439669 157.68 
L 506.88238 160.704 
L 506.88238 187.92 
L 507.546446 190.944 
L 507.546446 218.16 
L 508.653223 221.184 
L 528.575207 221.184 
L 528.575207 221.184 
L 528.575207 245.376 
L 530.78876 247.392 
L 550.710744 247.392 
L 552.924298 247.644 
L 705.659504 247.644 
L 705.659504 247.644 
" clip-path="url(#ped81113a11)" style="fill: none; stroke: #433d84; stroke-opacity: 0.996094"/>
    <path d="M 506.716364 66.96 
L 506.716364 97.2 
L 507.072113 100.224 
L 507.072113 127.44 
L 507.546446 130.464 
L 507.546446 157.68 
L 508.210512 160.704 
L 508.210512 187.92 
L 508.653223 189.432 
L 528.575207 189.432 
L 529.313058 190.944 
L 529.313058 218.16 
L 530.78876 220.176 
L 550.710744 220.176 
L 552.924298 221.184 
L 705.659504 221.184 
L 705.659504 221.184 
" clip-path="url(#ped81113a11)" style="fill: none; stroke: #3a538b; stroke-opacity: 0.996094"/>
    <path d="M 508.099835 66.96 
L 508.099835 97.2 
L 508.653223 100.224 
L 528.575207 100.224 
L 528.575207 100.224 
L 528.575207 127.44 
L 529.460628 130.464 
L 529.460628 157.68 
L 530.78876 160.704 
L 550.710744 160.704 
L 550.710744 160.704 
L 550.710744 187.92 
L 552.924298 190.188 
L 572.846281 190.188 
L 575.059835 190.944 
L 705.659504 190.944 
L 705.659504 190.944 
" clip-path="url(#ped81113a11)" style="fill: none; stroke: #2b748e; stroke-opacity: 0.996094"/>
    <path d="M 529.840094 66.96 
L 529.840094 69.984 
L 529.840094 73.008 
L 529.840094 76.032 
L 529.840094 79.056 
L 529.840094 82.08 
L 529.840094 85.104 
L 529.840094 88.128 
L 529.840094 91.152 
L 529.840094 94.176 
L 529.840094 97.2 
L 530.78876 100.224 
L 533.002314 100.224 
L 535.215868 100.224 
L 537.429421 100.224 
L 539.642975 100.224 
L 541.856529 100.224 
L 544.070083 100.224 
L 546.283636 100.224 
L 548.49719 100.224 
L 550.710744 100.224 
L 550.710744 100.224 
L 550.710744 103.248 
L 550.710744 106.272 
L 550.710744 109.296 
L 550.710744 112.32 
L 550.710744 115.344 
L 550.710744 118.368 
L 550.710744 121.392 
L 550.710744 124.416 
L 550.710744 127.44 
L 552.370909 130.464 
L 552.370909 133.488 
L 552.370909 136.512 
L 552.370909 139.536 
L 552.370909 142.56 
L 552.370909 145.584 
L 552.370909 148.608 
L 552.370909 151.632 
L 552.370909 154.656 
L 552.370909 157.68 
L 552.924298 158.436 
L 555.137851 158.436 
L 557.351405 158.436 
L 559.564959 158.436 
L 561.778512 158.436 
L 563.992066 158.436 
L 566.20562 158.436 
L 568.419174 158.436 
L 570.632727 158.436 
L 572.846281 158.436 
L 575.059835 160.0992 
L 577.273388 160.0992 
L 579.486942 160.0992 
L 581.700496 160.0992 
L 583.91405 160.0992 
L 586.127603 160.0992 
L 588.341157 160.0992 
L 590.554711 160.0992 
L 592.768264 160.0992 
L 594.981818 160.704 
L 597.195372 160.704 
L 599.408926 160.704 
L 601.622479 160.704 
L 603.836033 160.704 
L 606.049587 160.704 
L 608.26314 160.704 
L 610.476694 160.704 
L 612.690248 160.704 
L 614.903802 160.704 
L 617.117355 160.704 
L 619.330909 160.704 
L 621.544463 160.704 
L 623.758017 160.704 
L 625.97157 160.704 
L 628.185124 160.704 
L 630.398678 160.704 
L 632.612231 160.704 
L 634.825785 160.704 
L 637.039339 160.704 
L 639.252893 160.704 
L 641.466446 160.704 
L 643.68 160.704 
L 645.893554 160.704 
L 648.107107 160.704 
L 650.320661 160.704 
L 652.534215 160.704 
L 654.747769 160.704 
L 656.961322 160.704 
L 659.174876 160.704 
L 661.38843 160.704 
L 663.601983 160.704 
L 665.815537 160.704 
L 668.029091 160.704 
L 670.242645 160.704 
L 672.456198 160.704 
L 674.669752 160.704 
L 676.883306 160.704 
L 679.09686 160.704 
L 681.310413 160.704 
L 683.523967 160.704 
L 685.737521 160.704 
L 687.951074 160.704 
L 690.164628 160.704 
L 692.378182 160.704 
L 694.591736 160.704 
L 696.805289 160.704 
L 699.018843 160.704 
L 701.232397 160.704 
L 703.44595 160.704 
L 705.659504 160.704 
" clip-path="url(#ped81113a11)" style="fill: none; stroke: #1f998a; stroke-opacity: 0.996094"/>
    <path d="M 552.186446 66.96 
L 552.186446 69.984 
L 552.186446 73.008 
L 552.186446 76.032 
L 552.186446 79.056 
L 552.186446 82.08 
L 552.186446 85.104 
L 552.186446 88.128 
L 552.186446 91.152 
L 552.186446 94.176 
L 552.186446 97.2 
L 552.924298 98.712 
L 555.137851 98.712 
L 557.351405 98.712 
L 559.564959 98.712 
L 561.778512 98.712 
L 563.992066 98.712 
L 566.20562 98.712 
L 568.419174 98.712 
L 570.632727 98.712 
L 572.846281 98.712 
L 573.953058 100.224 
L 573.953058 103.248 
L 573.953058 106.272 
L 573.953058 109.296 
L 573.953058 112.32 
L 573.953058 115.344 
L 573.953058 118.368 
L 573.953058 121.392 
L 573.953058 124.416 
L 573.953058 127.44 
L 575.059835 128.6496 
L 577.273388 128.6496 
L 579.486942 128.6496 
L 581.700496 128.6496 
L 583.91405 128.6496 
L 586.127603 128.6496 
L 588.341157 128.6496 
L 590.554711 128.6496 
L 592.768264 128.6496 
L 594.981818 129.96 
L 597.195372 129.96 
L 599.408926 129.96 
L 601.622479 129.96 
L 603.836033 129.96 
L 606.049587 129.96 
L 608.26314 129.96 
L 610.476694 129.96 
L 612.690248 129.96 
L 614.903802 129.96 
L 617.117355 130.464 
L 619.330909 130.464 
L 621.544463 130.464 
L 623.758017 130.464 
L 625.97157 130.464 
L 628.185124 130.464 
L 630.398678 130.464 
L 632.612231 130.464 
L 634.825785 130.464 
L 637.039339 130.464 
L 639.252893 130.464 
L 641.466446 130.464 
L 643.68 130.464 
L 645.893554 130.464 
L 648.107107 130.464 
L 650.320661 130.464 
L 652.534215 130.464 
L 654.747769 130.464 
L 656.961322 130.464 
L 659.174876 130.464 
L 661.38843 130.464 
L 663.601983 130.464 
L 665.815537 130.464 
L 668.029091 130.464 
L 670.242645 130.464 
L 672.456198 130.464 
L 674.669752 130.464 
L 676.883306 130.464 
L 679.09686 130.464 
L 681.310413 130.464 
L 683.523967 130.464 
L 685.737521 130.464 
L 687.951074 130.464 
L 690.164628 130.464 
L 692.378182 130.464 
L 694.591736 130.464 
L 696.805289 130.464 
L 699.018843 130.464 
L 701.232397 130.464 
L 703.44595 130.464 
L 705.659504 130.464 
" clip-path="url(#ped81113a11)" style="fill: none; stroke: #4cc26c; stroke-opacity: 0.996094"/>
    <path d="M 614.903802 66.96 
L 614.903802 69.984 
L 614.903802 73.008 
L 614.903802 76.032 
L 614.903802 79.056 
L 614.903802 82.08 
L 614.903802 85.104 
L 614.903802 88.128 
L 614.903802 91.152 
L 614.903802 94.176 
L 614.903802 97.2 
L 617.117355 98.496 
L 619.330909 98.496 
L 621.544463 98.496 
L 623.758017 98.496 
L 625.97157 98.496 
L 628.185124 98.496 
L 630.398678 98.496 
L 632.612231 98.496 
L 634.825785 98.496 
L 637.039339 98.496 
L 639.252893 99.09 
L 641.466446 99.09 
L 643.68 99.09 
L 645.893554 99.09 
L 648.107107 99.09 
L 650.320661 99.09 
L 652.534215 99.09 
L 654.747769 99.09 
L 656.961322 99.09 
L 659.174876 99.09 
L 661.38843 99.216 
L 663.601983 99.216 
L 665.815537 99.216 
L 668.029091 99.216 
L 670.242645 99.216 
L 672.456198 99.216 
L 674.669752 99.216 
L 676.883306 99.216 
L 679.09686 99.216 
L 681.310413 99.216 
L 683.523967 99.216 
L 685.737521 99.216 
L 687.951074 99.216 
L 690.164628 99.216 
L 692.378182 99.216 
L 694.591736 99.216 
L 696.805289 99.216 
L 699.018843 99.216 
L 701.232397 99.216 
L 703.44595 99.216 
L 705.659504 99.216 
" clip-path="url(#ped81113a11)" style="fill: none; stroke: #fde725; stroke-opacity: 0.996094"/>
   </g>
   <g id="patch_51">
    <path d="M 473.236364 384.48 
L 473.236364 51.84 
" style="fill: none; stroke: #000000; stroke-width: 0.8; stroke-linejoin: miter; stroke-linecap: square"/>
   </g>
   <g id="patch_52">
    <path d="M 473.236364 384.48 
L 716.727273 384.48 
" style="fill: none; stroke: #000000; stroke-width: 0.8; stroke-linejoin: miter; stroke-linecap: square"/>
   </g>
   <g id="text_27">
    <!-- CombinationsDistribution, CDF -->
    <g transform="translate(502.625881 45.84) scale(0.12 -0.12)">
     <use xlink:href="#DejaVuSans-43"/>
     <use xlink:href="#DejaVuSans-6f" transform="translate(69.824219 0)"/>
     <use xlink:href="#DejaVuSans-6d" transform="translate(131.005859 0)"/>
     <use xlink:href="#DejaVuSans-62" transform="translate(228.417969 0)"/>
     <use xlink:href="#DejaVuSans-69" transform="translate(291.894531 0)"/>
     <use xlink:href="#DejaVuSans-6e" transform="translate(319.677734 0)"/>
     <use xlink:href="#DejaVuSans-61" transform="translate(383.056641 0)"/>
     <use xlink:href="#DejaVuSans-74" transform="translate(444.335938 0)"/>
     <use xlink:href="#DejaVuSans-69" transform="translate(483.544922 0)"/>
     <use xlink:href="#DejaVuSans-6f" transform="translate(511.328125 0)"/>
     <use xlink:href="#DejaVuSans-6e" transform="translate(572.509766 0)"/>
     <use xlink:href="#DejaVuSans-73" transform="translate(635.888672 0)"/>
     <use xlink:href="#DejaVuSans-44" transform="translate(687.988281 0)"/>
     <use xlink:href="#DejaVuSans-69" transform="translate(764.990234 0)"/>
     <use xlink:href="#DejaVuSans-73" transform="translate(792.773438 0)"/>
     <use xlink:href="#DejaVuSans-74" transform="translate(844.873047 0)"/>
     <use xlink:href="#DejaVuSans-72" transform="translate(884.082031 0)"/>
     <use xlink:href="#DejaVuSans-69" transform="translate(925.195312 0)"/>
     <use xlink:href="#DejaVuSans-62" transform="translate(952.978516 0)"/>
     <use xlink:href="#DejaVuSans-75" transform="translate(1016.455078 0)"/>
     <use xlink:href="#DejaVuSans-74" transform="translate(1079.833984 0)"/>
     <use xlink:href="#DejaVuSans-69" transform="translate(1119.042969 0)"/>
     <use xlink:href="#DejaVuSans-6f" transform="translate(1146.826172 0)"/>
     <use xlink:href="#DejaVuSans-6e" transform="translate(1208.007812 0)"/>
     <use xlink:href="#DejaVuSans-2c" transform="translate(1271.386719 0)"/>
     <use xlink:href="#DejaVuSans-20" transform="translate(1303.173828 0)"/>
     <use xlink:href="#DejaVuSans-43" transform="translate(1334.960938 0)"/>
     <use xlink:href="#DejaVuSans-44" transform="translate(1404.785156 0)"/>
     <use xlink:href="#DejaVuSans-46" transform="translate(1481.787109 0)"/>
    </g>
   </g>
  </g>
  <g id="axes_3">
   <g id="patch_53">
    <path d="M 731.945455 369.36 
L 748.577455 369.36 
L 748.577455 66.96 
L 731.945455 66.96 
z
" style="fill: #ffffff"/>
   </g>
   <g id="matplotlib.axis_5"/>
   <g id="matplotlib.axis_6">
    <g id="ytick_11">
     <g id="line2d_43">
      <defs>
       <path id="m2631570011" d="M 0 0 
L 3.5 0 
" style="stroke: #000000; stroke-width: 0.8"/>
      </defs>
      <g>
       <use xlink:href="#m2631570011" x="748.577455" y="369.36" style="stroke: #000000; stroke-width: 0.8"/>
      </g>
     </g>
     <g id="text_28">
      <!-- 0 -->
      <g transform="translate(755.577455 373.159219) scale(0.1 -0.1)">
       <use xlink:href="#DejaVuSans-30"/>
      </g>
     </g>
    </g>
    <g id="ytick_12">
     <g id="line2d_44">
      <g>
       <use xlink:href="#m2631570011" x="748.577455" y="335.76" style="stroke: #000000; stroke-width: 0.8"/>
      </g>
     </g>
     <g id="text_29">
      <!-- 0.0222 -->
      <g transform="translate(755.577455 339.559219) scale(0.1 -0.1)">
       <defs>
        <path id="DejaVuSans-2e" d="M 684 794 
L 1344 794 
L 1344 0 
L 684 0 
L 684 794 
z
" transform="scale(0.015625)"/>
       </defs>
       <use xlink:href="#DejaVuSans-30"/>
       <use xlink:href="#DejaVuSans-2e" transform="translate(63.623047 0)"/>
       <use xlink:href="#DejaVuSans-30" transform="translate(95.410156 0)"/>
       <use xlink:href="#DejaVuSans-32" transform="translate(159.033203 0)"/>
       <use xlink:href="#DejaVuSans-32" transform="translate(222.65625 0)"/>
       <use xlink:href="#DejaVuSans-32" transform="translate(286.279297 0)"/>
      </g>
     </g>
    </g>
    <g id="ytick_13">
     <g id="line2d_45">
      <g>
       <use xlink:href="#m2631570011" x="748.577455" y="302.16" style="stroke: #000000; stroke-width: 0.8"/>
      </g>
     </g>
     <g id="text_30">
      <!-- 0.0667 -->
      <g transform="translate(755.577455 305.959219) scale(0.1 -0.1)">
       <defs>
        <path id="DejaVuSans-37" d="M 525 4666 
L 3525 4666 
L 3525 4397 
L 1831 0 
L 1172 0 
L 2766 4134 
L 525 4134 
L 525 4666 
z
" transform="scale(0.015625)"/>
       </defs>
       <use xlink:href="#DejaVuSans-30"/>
       <use xlink:href="#DejaVuSans-2e" transform="translate(63.623047 0)"/>
       <use xlink:href="#DejaVuSans-30" transform="translate(95.410156 0)"/>
       <use xlink:href="#DejaVuSans-36" transform="translate(159.033203 0)"/>
       <use xlink:href="#DejaVuSans-36" transform="translate(222.65625 0)"/>
       <use xlink:href="#DejaVuSans-37" transform="translate(286.279297 0)"/>
      </g>
     </g>
    </g>
    <g id="ytick_14">
     <g id="line2d_46">
      <g>
       <use xlink:href="#m2631570011" x="748.577455" y="268.56" style="stroke: #000000; stroke-width: 0.8"/>
      </g>
     </g>
     <g id="text_31">
      <!-- 0.111 -->
      <g transform="translate(755.577455 272.359219) scale(0.1 -0.1)">
       <use xlink:href="#DejaVuSans-30"/>
       <use xlink:href="#DejaVuSans-2e" transform="translate(63.623047 0)"/>
       <use xlink:href="#DejaVuSans-31" transform="translate(95.410156 0)"/>
       <use xlink:href="#DejaVuSans-31" transform="translate(159.033203 0)"/>
       <use xlink:href="#DejaVuSans-31" transform="translate(222.65625 0)"/>
      </g>
     </g>
    </g>
    <g id="ytick_15">
     <g id="line2d_47">
      <g>
       <use xlink:href="#m2631570011" x="748.577455" y="234.96" style="stroke: #000000; stroke-width: 0.8"/>
      </g>
     </g>
     <g id="text_32">
      <!-- 0.156 -->
      <g transform="translate(755.577455 238.759219) scale(0.1 -0.1)">
       <defs>
        <path id="DejaVuSans-35" d="M 691 4666 
L 3169 4666 
L 3169 4134 
L 1269 4134 
L 1269 2991 
Q 1406 3038 1543 3061 
Q 1681 3084 1819 3084 
Q 2600 3084 3056 2656 
Q 3513 2228 3513 1497 
Q 3513 744 3044 326 
Q 2575 -91 1722 -91 
Q 1428 -91 1123 -41 
Q 819 9 494 109 
L 494 744 
Q 775 591 1075 516 
Q 1375 441 1709 441 
Q 2250 441 2565 725 
Q 2881 1009 2881 1497 
Q 2881 1984 2565 2268 
Q 2250 2553 1709 2553 
Q 1456 2553 1204 2497 
Q 953 2441 691 2322 
L 691 4666 
z
" transform="scale(0.015625)"/>
       </defs>
       <use xlink:href="#DejaVuSans-30"/>
       <use xlink:href="#DejaVuSans-2e" transform="translate(63.623047 0)"/>
       <use xlink:href="#DejaVuSans-31" transform="translate(95.410156 0)"/>
       <use xlink:href="#DejaVuSans-35" transform="translate(159.033203 0)"/>
       <use xlink:href="#DejaVuSans-36" transform="translate(222.65625 0)"/>
      </g>
     </g>
    </g>
    <g id="ytick_16">
     <g id="line2d_48">
      <g>
       <use xlink:href="#m2631570011" x="748.577455" y="201.36" style="stroke: #000000; stroke-width: 0.8"/>
      </g>
     </g>
     <g id="text_33">
      <!-- 0.222 -->
      <g transform="translate(755.577455 205.159219) scale(0.1 -0.1)">
       <use xlink:href="#DejaVuSans-30"/>
       <use xlink:href="#DejaVuSans-2e" transform="translate(63.623047 0)"/>
       <use xlink:href="#DejaVuSans-32" transform="translate(95.410156 0)"/>
       <use xlink:href="#DejaVuSans-32" transform="translate(159.033203 0)"/>
       <use xlink:href="#DejaVuSans-32" transform="translate(222.65625 0)"/>
      </g>
     </g>
    </g>
    <g id="ytick_17">
     <g id="line2d_49">
      <g>
       <use xlink:href="#m2631570011" x="748.577455" y="167.76" style="stroke: #000000; stroke-width: 0.8"/>
      </g>
     </g>
     <g id="text_34">
      <!-- 0.333 -->
      <g transform="translate(755.577455 171.559219) scale(0.1 -0.1)">
       <defs>
        <path id="DejaVuSans-33" d="M 2597 2516 
Q 3050 2419 3304 2112 
Q 3559 1806 3559 1356 
Q 3559 666 3084 287 
Q 2609 -91 1734 -91 
Q 1441 -91 1130 -33 
Q 819 25 488 141 
L 488 750 
Q 750 597 1062 519 
Q 1375 441 1716 441 
Q 2309 441 2620 675 
Q 2931 909 2931 1356 
Q 2931 1769 2642 2001 
Q 2353 2234 1838 2234 
L 1294 2234 
L 1294 2753 
L 1863 2753 
Q 2328 2753 2575 2939 
Q 2822 3125 2822 3475 
Q 2822 3834 2567 4026 
Q 2313 4219 1838 4219 
Q 1578 4219 1281 4162 
Q 984 4106 628 3988 
L 628 4550 
Q 988 4650 1302 4700 
Q 1616 4750 1894 4750 
Q 2613 4750 3031 4423 
Q 3450 4097 3450 3541 
Q 3450 3153 3228 2886 
Q 3006 2619 2597 2516 
z
" transform="scale(0.015625)"/>
       </defs>
       <use xlink:href="#DejaVuSans-30"/>
       <use xlink:href="#DejaVuSans-2e" transform="translate(63.623047 0)"/>
       <use xlink:href="#DejaVuSans-33" transform="translate(95.410156 0)"/>
       <use xlink:href="#DejaVuSans-33" transform="translate(159.033203 0)"/>
       <use xlink:href="#DejaVuSans-33" transform="translate(222.65625 0)"/>
      </g>
     </g>
    </g>
    <g id="ytick_18">
     <g id="line2d_50">
      <g>
       <use xlink:href="#m2631570011" x="748.577455" y="134.16" style="stroke: #000000; stroke-width: 0.8"/>
      </g>
     </g>
     <g id="text_35">
      <!-- 0.467 -->
      <g transform="translate(755.577455 137.959219) scale(0.1 -0.1)">
       <use xlink:href="#DejaVuSans-30"/>
       <use xlink:href="#DejaVuSans-2e" transform="translate(63.623047 0)"/>
       <use xlink:href="#DejaVuSans-34" transform="translate(95.410156 0)"/>
       <use xlink:href="#DejaVuSans-36" transform="translate(159.033203 0)"/>
       <use xlink:href="#DejaVuSans-37" transform="translate(222.65625 0)"/>
      </g>
     </g>
    </g>
    <g id="ytick_19">
     <g id="line2d_51">
      <g>
       <use xlink:href="#m2631570011" x="748.577455" y="100.56" style="stroke: #000000; stroke-width: 0.8"/>
      </g>
     </g>
     <g id="text_36">
      <!-- 0.622 -->
      <g transform="translate(755.577455 104.359219) scale(0.1 -0.1)">
       <use xlink:href="#DejaVuSans-30"/>
       <use xlink:href="#DejaVuSans-2e" transform="translate(63.623047 0)"/>
       <use xlink:href="#DejaVuSans-36" transform="translate(95.410156 0)"/>
       <use xlink:href="#DejaVuSans-32" transform="translate(159.033203 0)"/>
       <use xlink:href="#DejaVuSans-32" transform="translate(222.65625 0)"/>
      </g>
     </g>
    </g>
    <g id="ytick_20">
     <g id="line2d_52">
      <g>
       <use xlink:href="#m2631570011" x="748.577455" y="66.96" style="stroke: #000000; stroke-width: 0.8"/>
      </g>
     </g>
     <g id="text_37">
      <!-- 0.867 -->
      <g transform="translate(755.577455 70.759219) scale(0.1 -0.1)">
       <use xlink:href="#DejaVuSans-30"/>
       <use xlink:href="#DejaVuSans-2e" transform="translate(63.623047 0)"/>
       <use xlink:href="#DejaVuSans-38" transform="translate(95.410156 0)"/>
       <use xlink:href="#DejaVuSans-36" transform="translate(159.033203 0)"/>
       <use xlink:href="#DejaVuSans-37" transform="translate(222.65625 0)"/>
      </g>
     </g>
    </g>
   </g>
   <g id="LineCollection_1"/>
   <g id="LineCollection_2">
    <path d="M 731.945455 369.36 
L 748.577455 369.36 
" clip-path="url(#p86e5a45c03)" style="fill: none; stroke: #440154; stroke-opacity: 0.996094"/>
    <path d="M 731.945455 335.76 
L 748.577455 335.76 
" clip-path="url(#p86e5a45c03)" style="fill: none; stroke: #460a5d; stroke-opacity: 0.996094"/>
    <path d="M 731.945455 302.16 
L 748.577455 302.16 
" clip-path="url(#p86e5a45c03)" style="fill: none; stroke: #481c6e; stroke-opacity: 0.996094"/>
    <path d="M 731.945455 268.56 
L 748.577455 268.56 
" clip-path="url(#p86e5a45c03)" style="fill: none; stroke: #472d7b; stroke-opacity: 0.996094"/>
    <path d="M 731.945455 234.96 
L 748.577455 234.96 
" clip-path="url(#p86e5a45c03)" style="fill: none; stroke: #433d84; stroke-opacity: 0.996094"/>
    <path d="M 731.945455 201.36 
L 748.577455 201.36 
" clip-path="url(#p86e5a45c03)" style="fill: none; stroke: #3a538b; stroke-opacity: 0.996094"/>
    <path d="M 731.945455 167.76 
L 748.577455 167.76 
" clip-path="url(#p86e5a45c03)" style="fill: none; stroke: #2b748e; stroke-opacity: 0.996094"/>
    <path d="M 731.945455 134.16 
L 748.577455 134.16 
" clip-path="url(#p86e5a45c03)" style="fill: none; stroke: #1f998a; stroke-opacity: 0.996094"/>
    <path d="M 731.945455 100.56 
L 748.577455 100.56 
" clip-path="url(#p86e5a45c03)" style="fill: none; stroke: #4cc26c; stroke-opacity: 0.996094"/>
    <path d="M 731.945455 66.96 
L 748.577455 66.96 
" clip-path="url(#p86e5a45c03)" style="fill: none; stroke: #fde725; stroke-opacity: 0.996094"/>
   </g>
   <g id="patch_54">
    <path d="M 731.945455 369.36 
L 740.261455 384.48 
L 748.577455 369.36 
L 748.577455 66.96 
L 740.261455 51.84 
L 731.945455 66.96 
L 731.945455 369.36 
z
" style="fill: none; stroke: #000000; stroke-width: 0.8; stroke-linejoin: miter; stroke-linecap: square"/>
   </g>
  </g>
  <g id="text_38">
   <!-- CombinationsDistribution -->
   <g transform="translate(355.718437 17.758125) scale(0.12 -0.12)">
    <use xlink:href="#DejaVuSans-43"/>
    <use xlink:href="#DejaVuSans-6f" transform="translate(69.824219 0)"/>
    <use xlink:href="#DejaVuSans-6d" transform="translate(131.005859 0)"/>
    <use xlink:href="#DejaVuSans-62" transform="translate(228.417969 0)"/>
    <use xlink:href="#DejaVuSans-69" transform="translate(291.894531 0)"/>
    <use xlink:href="#DejaVuSans-6e" transform="translate(319.677734 0)"/>
    <use xlink:href="#DejaVuSans-61" transform="translate(383.056641 0)"/>
    <use xlink:href="#DejaVuSans-74" transform="translate(444.335938 0)"/>
    <use xlink:href="#DejaVuSans-69" transform="translate(483.544922 0)"/>
    <use xlink:href="#DejaVuSans-6f" transform="translate(511.328125 0)"/>
    <use xlink:href="#DejaVuSans-6e" transform="translate(572.509766 0)"/>
    <use xlink:href="#DejaVuSans-73" transform="translate(635.888672 0)"/>
    <use xlink:href="#DejaVuSans-44" transform="translate(687.988281 0)"/>
    <use xlink:href="#DejaVuSans-69" transform="translate(764.990234 0)"/>
    <use xlink:href="#DejaVuSans-73" transform="translate(792.773438 0)"/>
    <use xlink:href="#DejaVuSans-74" transform="translate(844.873047 0)"/>
    <use xlink:href="#DejaVuSans-72" transform="translate(884.082031 0)"/>
    <use xlink:href="#DejaVuSans-69" transform="translate(925.195312 0)"/>
    <use xlink:href="#DejaVuSans-62" transform="translate(952.978516 0)"/>
    <use xlink:href="#DejaVuSans-75" transform="translate(1016.455078 0)"/>
    <use xlink:href="#DejaVuSans-74" transform="translate(1079.833984 0)"/>
    <use xlink:href="#DejaVuSans-69" transform="translate(1119.042969 0)"/>
    <use xlink:href="#DejaVuSans-6f" transform="translate(1146.826172 0)"/>
    <use xlink:href="#DejaVuSans-6e" transform="translate(1208.007812 0)"/>
   </g>
  </g>
 </g>
 <defs>
  <clipPath id="p2b5cacd2b3">
   <rect x="108" y="51.84" width="304.363636" height="332.64"/>
  </clipPath>
  <clipPath id="ped81113a11">
   <rect x="473.236364" y="51.84" width="243.490909" height="332.64"/>
  </clipPath>
  <clipPath id="p86e5a45c03">
   <path d="M 731.945455 370.269091 
L 748.577455 370.269091 
L 748.577455 66.050909 
L 731.945455 66.050909 
z
"/>
  </clipPath>
 </defs>
</svg>
