<?xml version="1.0" encoding="utf-8" standalone="no"?>
<!DOCTYPE svg PUBLIC "-//W3C//DTD SVG 1.1//EN"
  "http://www.w3.org/Graphics/SVG/1.1/DTD/svg11.dtd">
<svg xmlns:xlink="http://www.w3.org/1999/xlink" width="720pt" height="288pt" viewBox="0 0 720 288" xmlns="http://www.w3.org/2000/svg" version="1.1">
 <metadata>
  <rdf:RDF xmlns:dc="http://purl.org/dc/elements/1.1/" xmlns:cc="http://creativecommons.org/ns#" xmlns:rdf="http://www.w3.org/1999/02/22-rdf-syntax-ns#">
   <cc:Work>
    <dc:type rdf:resource="http://purl.org/dc/dcmitype/StillImage"/>
    <dc:date>2025-09-26T12:05:10.582051</dc:date>
    <dc:format>image/svg+xml</dc:format>
    <dc:creator>
     <cc:Agent>
      <dc:title>Matplotlib v3.10.6, https://matplotlib.org/</dc:title>
     </cc:Agent>
    </dc:creator>
   </cc:Work>
  </rdf:RDF>
 </metadata>
 <defs>
  <style type="text/css">*{stroke-linejoin: round; stroke-linecap: butt}</style>
 </defs>
 <g id="figure_1">
  <g id="patch_1">
   <path d="M 0 288 
L 720 288 
L 720 0 
L 0 0 
z
" style="fill: #ffffff"/>
  </g>
  <g id="axes_1">
   <g id="patch_2">
    <path d="M 90 256.32 
L 343.636364 256.32 
L 343.636364 34.56 
L 90 34.56 
z
" style="fill: #ffffff"/>
   </g>
   <g id="matplotlib.axis_1">
    <g id="xtick_1">
     <g id="line2d_1">
      <path d="M 134.775579 256.32 
L 134.775579 34.56 
" clip-path="url(#p47916c56b9)" style="fill: none; stroke: #b0b0b0; stroke-width: 0.8; stroke-linecap: square"/>
     </g>
     <g id="line2d_2">
      <defs>
       <path id="m0a28801b37" d="M 0 0 
L 0 3.5 
" style="stroke: #000000; stroke-width: 0.8"/>
      </defs>
      <g>
       <use xlink:href="#m0a28801b37" x="134.775579" y="256.32" style="stroke: #000000; stroke-width: 0.8"/>
      </g>
     </g>
     <g id="text_1">
      <!-- −20 -->
      <g transform="translate(124.223236 270.918437) scale(0.1 -0.1)">
       <defs>
        <path id="DejaVuSans-2212" d="M 678 2272 
L 4684 2272 
L 4684 1741 
L 678 1741 
L 678 2272 
z
" transform="scale(0.015625)"/>
        <path id="DejaVuSans-32" d="M 1228 531 
L 3431 531 
L 3431 0 
L 469 0 
L 469 531 
Q 828 903 1448 1529 
Q 2069 2156 2228 2338 
Q 2531 2678 2651 2914 
Q 2772 3150 2772 3378 
Q 2772 3750 2511 3984 
Q 2250 4219 1831 4219 
Q 1534 4219 1204 4116 
Q 875 4013 500 3803 
L 500 4441 
Q 881 4594 1212 4672 
Q 1544 4750 1819 4750 
Q 2544 4750 2975 4387 
Q 3406 4025 3406 3419 
Q 3406 3131 3298 2873 
Q 3191 2616 2906 2266 
Q 2828 2175 2409 1742 
Q 1991 1309 1228 531 
z
" transform="scale(0.015625)"/>
        <path id="DejaVuSans-30" d="M 2034 4250 
Q 1547 4250 1301 3770 
Q 1056 3291 1056 2328 
Q 1056 1369 1301 889 
Q 1547 409 2034 409 
Q 2525 409 2770 889 
Q 3016 1369 3016 2328 
Q 3016 3291 2770 3770 
Q 2525 4250 2034 4250 
z
M 2034 4750 
Q 2819 4750 3233 4129 
Q 3647 3509 3647 2328 
Q 3647 1150 3233 529 
Q 2819 -91 2034 -91 
Q 1250 -91 836 529 
Q 422 1150 422 2328 
Q 422 3509 836 4129 
Q 1250 4750 2034 4750 
z
" transform="scale(0.015625)"/>
       </defs>
       <use xlink:href="#DejaVuSans-2212"/>
       <use xlink:href="#DejaVuSans-32" transform="translate(83.789062 0)"/>
       <use xlink:href="#DejaVuSans-30" transform="translate(147.412109 0)"/>
      </g>
     </g>
    </g>
    <g id="xtick_2">
     <g id="line2d_3">
      <path d="M 183.785459 256.32 
L 183.785459 34.56 
" clip-path="url(#p47916c56b9)" style="fill: none; stroke: #b0b0b0; stroke-width: 0.8; stroke-linecap: square"/>
     </g>
     <g id="line2d_4">
      <g>
       <use xlink:href="#m0a28801b37" x="183.785459" y="256.32" style="stroke: #000000; stroke-width: 0.8"/>
      </g>
     </g>
     <g id="text_2">
      <!-- 0 -->
      <g transform="translate(180.604209 270.918437) scale(0.1 -0.1)">
       <use xlink:href="#DejaVuSans-30"/>
      </g>
     </g>
    </g>
    <g id="xtick_3">
     <g id="line2d_5">
      <path d="M 232.795339 256.32 
L 232.795339 34.56 
" clip-path="url(#p47916c56b9)" style="fill: none; stroke: #b0b0b0; stroke-width: 0.8; stroke-linecap: square"/>
     </g>
     <g id="line2d_6">
      <g>
       <use xlink:href="#m0a28801b37" x="232.795339" y="256.32" style="stroke: #000000; stroke-width: 0.8"/>
      </g>
     </g>
     <g id="text_3">
      <!-- 20 -->
      <g transform="translate(226.432839 270.918437) scale(0.1 -0.1)">
       <use xlink:href="#DejaVuSans-32"/>
       <use xlink:href="#DejaVuSans-30" transform="translate(63.623047 0)"/>
      </g>
     </g>
    </g>
    <g id="xtick_4">
     <g id="line2d_7">
      <path d="M 281.805219 256.32 
L 281.805219 34.56 
" clip-path="url(#p47916c56b9)" style="fill: none; stroke: #b0b0b0; stroke-width: 0.8; stroke-linecap: square"/>
     </g>
     <g id="line2d_8">
      <g>
       <use xlink:href="#m0a28801b37" x="281.805219" y="256.32" style="stroke: #000000; stroke-width: 0.8"/>
      </g>
     </g>
     <g id="text_4">
      <!-- 40 -->
      <g transform="translate(275.442719 270.918437) scale(0.1 -0.1)">
       <defs>
        <path id="DejaVuSans-34" d="M 2419 4116 
L 825 1625 
L 2419 1625 
L 2419 4116 
z
M 2253 4666 
L 3047 4666 
L 3047 1625 
L 3713 1625 
L 3713 1100 
L 3047 1100 
L 3047 0 
L 2419 0 
L 2419 1100 
L 313 1100 
L 313 1709 
L 2253 4666 
z
" transform="scale(0.015625)"/>
       </defs>
       <use xlink:href="#DejaVuSans-34"/>
       <use xlink:href="#DejaVuSans-30" transform="translate(63.623047 0)"/>
      </g>
     </g>
    </g>
    <g id="xtick_5">
     <g id="line2d_9">
      <path d="M 330.815099 256.32 
L 330.815099 34.56 
" clip-path="url(#p47916c56b9)" style="fill: none; stroke: #b0b0b0; stroke-width: 0.8; stroke-linecap: square"/>
     </g>
     <g id="line2d_10">
      <g>
       <use xlink:href="#m0a28801b37" x="330.815099" y="256.32" style="stroke: #000000; stroke-width: 0.8"/>
      </g>
     </g>
     <g id="text_5">
      <!-- 60 -->
      <g transform="translate(324.452599 270.918437) scale(0.1 -0.1)">
       <defs>
        <path id="DejaVuSans-36" d="M 2113 2584 
Q 1688 2584 1439 2293 
Q 1191 2003 1191 1497 
Q 1191 994 1439 701 
Q 1688 409 2113 409 
Q 2538 409 2786 701 
Q 3034 994 3034 1497 
Q 3034 2003 2786 2293 
Q 2538 2584 2113 2584 
z
M 3366 4563 
L 3366 3988 
Q 3128 4100 2886 4159 
Q 2644 4219 2406 4219 
Q 1781 4219 1451 3797 
Q 1122 3375 1075 2522 
Q 1259 2794 1537 2939 
Q 1816 3084 2150 3084 
Q 2853 3084 3261 2657 
Q 3669 2231 3669 1497 
Q 3669 778 3244 343 
Q 2819 -91 2113 -91 
Q 1303 -91 875 529 
Q 447 1150 447 2328 
Q 447 3434 972 4092 
Q 1497 4750 2381 4750 
Q 2619 4750 2861 4703 
Q 3103 4656 3366 4563 
z
" transform="scale(0.015625)"/>
       </defs>
       <use xlink:href="#DejaVuSans-36"/>
       <use xlink:href="#DejaVuSans-30" transform="translate(63.623047 0)"/>
      </g>
     </g>
    </g>
    <g id="text_6">
     <!-- x -->
     <g transform="translate(213.858807 284.596563) scale(0.1 -0.1)">
      <defs>
       <path id="DejaVuSans-78" d="M 3513 3500 
L 2247 1797 
L 3578 0 
L 2900 0 
L 1881 1375 
L 863 0 
L 184 0 
L 1544 1831 
L 300 3500 
L 978 3500 
L 1906 2253 
L 2834 3500 
L 3513 3500 
z
" transform="scale(0.015625)"/>
      </defs>
      <use xlink:href="#DejaVuSans-78"/>
     </g>
    </g>
   </g>
   <g id="matplotlib.axis_2">
    <g id="ytick_1">
     <g id="line2d_11">
      <path d="M 90 246.24 
L 343.636364 246.24 
" clip-path="url(#p47916c56b9)" style="fill: none; stroke: #b0b0b0; stroke-width: 0.8; stroke-linecap: square"/>
     </g>
     <g id="line2d_12">
      <defs>
       <path id="mbeb0bd3b4d" d="M 0 0 
L -3.5 0 
" style="stroke: #000000; stroke-width: 0.8"/>
      </defs>
      <g>
       <use xlink:href="#mbeb0bd3b4d" x="90" y="246.24" style="stroke: #000000; stroke-width: 0.8"/>
      </g>
     </g>
     <g id="text_7">
      <!-- 0.0 -->
      <g transform="translate(67.096875 250.039219) scale(0.1 -0.1)">
       <defs>
        <path id="DejaVuSans-2e" d="M 684 794 
L 1344 794 
L 1344 0 
L 684 0 
L 684 794 
z
" transform="scale(0.015625)"/>
       </defs>
       <use xlink:href="#DejaVuSans-30"/>
       <use xlink:href="#DejaVuSans-2e" transform="translate(63.623047 0)"/>
       <use xlink:href="#DejaVuSans-30" transform="translate(95.410156 0)"/>
      </g>
     </g>
    </g>
    <g id="ytick_2">
     <g id="line2d_13">
      <path d="M 90 212.427382 
L 343.636364 212.427382 
" clip-path="url(#p47916c56b9)" style="fill: none; stroke: #b0b0b0; stroke-width: 0.8; stroke-linecap: square"/>
     </g>
     <g id="line2d_14">
      <g>
       <use xlink:href="#mbeb0bd3b4d" x="90" y="212.427382" style="stroke: #000000; stroke-width: 0.8"/>
      </g>
     </g>
     <g id="text_8">
      <!-- 0.5 -->
      <g transform="translate(67.096875 216.226601) scale(0.1 -0.1)">
       <defs>
        <path id="DejaVuSans-35" d="M 691 4666 
L 3169 4666 
L 3169 4134 
L 1269 4134 
L 1269 2991 
Q 1406 3038 1543 3061 
Q 1681 3084 1819 3084 
Q 2600 3084 3056 2656 
Q 3513 2228 3513 1497 
Q 3513 744 3044 326 
Q 2575 -91 1722 -91 
Q 1428 -91 1123 -41 
Q 819 9 494 109 
L 494 744 
Q 775 591 1075 516 
Q 1375 441 1709 441 
Q 2250 441 2565 725 
Q 2881 1009 2881 1497 
Q 2881 1984 2565 2268 
Q 2250 2553 1709 2553 
Q 1456 2553 1204 2497 
Q 953 2441 691 2322 
L 691 4666 
z
" transform="scale(0.015625)"/>
       </defs>
       <use xlink:href="#DejaVuSans-30"/>
       <use xlink:href="#DejaVuSans-2e" transform="translate(63.623047 0)"/>
       <use xlink:href="#DejaVuSans-35" transform="translate(95.410156 0)"/>
      </g>
     </g>
    </g>
    <g id="ytick_3">
     <g id="line2d_15">
      <path d="M 90 178.614764 
L 343.636364 178.614764 
" clip-path="url(#p47916c56b9)" style="fill: none; stroke: #b0b0b0; stroke-width: 0.8; stroke-linecap: square"/>
     </g>
     <g id="line2d_16">
      <g>
       <use xlink:href="#mbeb0bd3b4d" x="90" y="178.614764" style="stroke: #000000; stroke-width: 0.8"/>
      </g>
     </g>
     <g id="text_9">
      <!-- 1.0 -->
      <g transform="translate(67.096875 182.413982) scale(0.1 -0.1)">
       <defs>
        <path id="DejaVuSans-31" d="M 794 531 
L 1825 531 
L 1825 4091 
L 703 3866 
L 703 4441 
L 1819 4666 
L 2450 4666 
L 2450 531 
L 3481 531 
L 3481 0 
L 794 0 
L 794 531 
z
" transform="scale(0.015625)"/>
       </defs>
       <use xlink:href="#DejaVuSans-31"/>
       <use xlink:href="#DejaVuSans-2e" transform="translate(63.623047 0)"/>
       <use xlink:href="#DejaVuSans-30" transform="translate(95.410156 0)"/>
      </g>
     </g>
    </g>
    <g id="ytick_4">
     <g id="line2d_17">
      <path d="M 90 144.802145 
L 343.636364 144.802145 
" clip-path="url(#p47916c56b9)" style="fill: none; stroke: #b0b0b0; stroke-width: 0.8; stroke-linecap: square"/>
     </g>
     <g id="line2d_18">
      <g>
       <use xlink:href="#mbeb0bd3b4d" x="90" y="144.802145" style="stroke: #000000; stroke-width: 0.8"/>
      </g>
     </g>
     <g id="text_10">
      <!-- 1.5 -->
      <g transform="translate(67.096875 148.601364) scale(0.1 -0.1)">
       <use xlink:href="#DejaVuSans-31"/>
       <use xlink:href="#DejaVuSans-2e" transform="translate(63.623047 0)"/>
       <use xlink:href="#DejaVuSans-35" transform="translate(95.410156 0)"/>
      </g>
     </g>
    </g>
    <g id="ytick_5">
     <g id="line2d_19">
      <path d="M 90 110.989527 
L 343.636364 110.989527 
" clip-path="url(#p47916c56b9)" style="fill: none; stroke: #b0b0b0; stroke-width: 0.8; stroke-linecap: square"/>
     </g>
     <g id="line2d_20">
      <g>
       <use xlink:href="#mbeb0bd3b4d" x="90" y="110.989527" style="stroke: #000000; stroke-width: 0.8"/>
      </g>
     </g>
     <g id="text_11">
      <!-- 2.0 -->
      <g transform="translate(67.096875 114.788746) scale(0.1 -0.1)">
       <use xlink:href="#DejaVuSans-32"/>
       <use xlink:href="#DejaVuSans-2e" transform="translate(63.623047 0)"/>
       <use xlink:href="#DejaVuSans-30" transform="translate(95.410156 0)"/>
      </g>
     </g>
    </g>
    <g id="ytick_6">
     <g id="line2d_21">
      <path d="M 90 77.176909 
L 343.636364 77.176909 
" clip-path="url(#p47916c56b9)" style="fill: none; stroke: #b0b0b0; stroke-width: 0.8; stroke-linecap: square"/>
     </g>
     <g id="line2d_22">
      <g>
       <use xlink:href="#mbeb0bd3b4d" x="90" y="77.176909" style="stroke: #000000; stroke-width: 0.8"/>
      </g>
     </g>
     <g id="text_12">
      <!-- 2.5 -->
      <g transform="translate(67.096875 80.976128) scale(0.1 -0.1)">
       <use xlink:href="#DejaVuSans-32"/>
       <use xlink:href="#DejaVuSans-2e" transform="translate(63.623047 0)"/>
       <use xlink:href="#DejaVuSans-35" transform="translate(95.410156 0)"/>
      </g>
     </g>
    </g>
    <g id="ytick_7">
     <g id="line2d_23">
      <path d="M 90 43.364291 
L 343.636364 43.364291 
" clip-path="url(#p47916c56b9)" style="fill: none; stroke: #b0b0b0; stroke-width: 0.8; stroke-linecap: square"/>
     </g>
     <g id="line2d_24">
      <g>
       <use xlink:href="#mbeb0bd3b4d" x="90" y="43.364291" style="stroke: #000000; stroke-width: 0.8"/>
      </g>
     </g>
     <g id="text_13">
      <!-- 3.0 -->
      <g transform="translate(67.096875 47.16351) scale(0.1 -0.1)">
       <defs>
        <path id="DejaVuSans-33" d="M 2597 2516 
Q 3050 2419 3304 2112 
Q 3559 1806 3559 1356 
Q 3559 666 3084 287 
Q 2609 -91 1734 -91 
Q 1441 -91 1130 -33 
Q 819 25 488 141 
L 488 750 
Q 750 597 1062 519 
Q 1375 441 1716 441 
Q 2309 441 2620 675 
Q 2931 909 2931 1356 
Q 2931 1769 2642 2001 
Q 2353 2234 1838 2234 
L 1294 2234 
L 1294 2753 
L 1863 2753 
Q 2328 2753 2575 2939 
Q 2822 3125 2822 3475 
Q 2822 3834 2567 4026 
Q 2313 4219 1838 4219 
Q 1578 4219 1281 4162 
Q 984 4106 628 3988 
L 628 4550 
Q 988 4650 1302 4700 
Q 1616 4750 1894 4750 
Q 2613 4750 3031 4423 
Q 3450 4097 3450 3541 
Q 3450 3153 3228 2886 
Q 3006 2619 2597 2516 
z
" transform="scale(0.015625)"/>
       </defs>
       <use xlink:href="#DejaVuSans-33"/>
       <use xlink:href="#DejaVuSans-2e" transform="translate(63.623047 0)"/>
       <use xlink:href="#DejaVuSans-30" transform="translate(95.410156 0)"/>
      </g>
     </g>
    </g>
    <g id="text_14">
     <!-- PDF -->
     <g transform="translate(61.017187 155.180625) rotate(-90) scale(0.1 -0.1)">
      <defs>
       <path id="DejaVuSans-50" d="M 1259 4147 
L 1259 2394 
L 2053 2394 
Q 2494 2394 2734 2622 
Q 2975 2850 2975 3272 
Q 2975 3691 2734 3919 
Q 2494 4147 2053 4147 
L 1259 4147 
z
M 628 4666 
L 2053 4666 
Q 2838 4666 3239 4311 
Q 3641 3956 3641 3272 
Q 3641 2581 3239 2228 
Q 2838 1875 2053 1875 
L 1259 1875 
L 1259 0 
L 628 0 
L 628 4666 
z
" transform="scale(0.015625)"/>
       <path id="DejaVuSans-44" d="M 1259 4147 
L 1259 519 
L 2022 519 
Q 2988 519 3436 956 
Q 3884 1394 3884 2338 
Q 3884 3275 3436 3711 
Q 2988 4147 2022 4147 
L 1259 4147 
z
M 628 4666 
L 1925 4666 
Q 3281 4666 3915 4102 
Q 4550 3538 4550 2338 
Q 4550 1131 3912 565 
Q 3275 0 1925 0 
L 628 0 
L 628 4666 
z
" transform="scale(0.015625)"/>
       <path id="DejaVuSans-46" d="M 628 4666 
L 3309 4666 
L 3309 4134 
L 1259 4134 
L 1259 2759 
L 3109 2759 
L 3109 2228 
L 1259 2228 
L 1259 0 
L 628 0 
L 628 4666 
z
" transform="scale(0.015625)"/>
      </defs>
      <use xlink:href="#DejaVuSans-50"/>
      <use xlink:href="#DejaVuSans-44" transform="translate(60.302734 0)"/>
      <use xlink:href="#DejaVuSans-46" transform="translate(137.304688 0)"/>
     </g>
    </g>
   </g>
   <g id="line2d_25">
    <path d="M 167.456624 246.24 
L 183.463515 246.24 
L 183.819223 44.64 
L 184.174932 192.766663 
L 184.530641 211.176585 
L 184.886349 219.918336 
L 185.242058 225.250231 
L 185.953475 231.566035 
L 186.664893 235.212987 
L 187.37631 237.580062 
L 188.087728 239.227787 
L 188.799145 240.430752 
L 189.866271 241.714933 
L 190.933397 242.608356 
L 192.356232 243.434763 
L 193.779066 244.005338 
L 195.913318 244.580619 
L 198.403279 245.008329 
L 201.960366 245.380705 
L 207.295996 245.686977 
L 212.987335 245.862667 
L 212.987335 245.862667 
" clip-path="url(#p47916c56b9)" style="fill: none; stroke: #1f77b4; stroke-width: 2; stroke-linecap: square"/>
   </g>
   <g id="line2d_26">
    <path d="M 115.668604 246.24 
L 182.442445 246.24 
L 183.926309 188.798956 
L 185.410172 227.177219 
L 186.894035 236.074293 
L 188.377898 239.703897 
L 189.861761 241.591404 
L 191.345624 242.717905 
L 192.829487 243.453015 
L 194.313351 243.963784 
L 197.281077 244.616156 
L 200.248803 245.007167 
L 204.700393 245.359615 
L 212.119708 245.669312 
L 223.990614 245.896074 
L 246.248561 246.059551 
L 298.183771 246.166231 
L 305.603087 246.172802 
L 305.603087 246.172802 
" clip-path="url(#p47916c56b9)" style="fill: none; stroke: #ff7f0e; stroke-width: 2; stroke-linecap: square"/>
   </g>
   <g id="line2d_27">
    <path d="M 166.798896 246.24 
L 183.404131 246.24 
L 183.790299 246.095882 
L 184.176467 213.352162 
L 184.562635 207.570299 
L 184.948803 210.904065 
L 186.107308 224.280327 
L 186.879645 230.051034 
L 187.651981 233.922312 
L 188.424318 236.592584 
L 189.196654 238.495888 
L 189.968991 239.894236 
L 190.741327 240.949159 
L 191.899832 242.102282 
L 193.058337 242.917627 
L 194.60301 243.678393 
L 196.533851 244.311993 
L 198.85086 244.805035 
L 201.940206 245.215042 
L 206.188057 245.543492 
L 212.752917 245.809263 
L 216.228431 245.89236 
L 216.228431 245.89236 
" clip-path="url(#p47916c56b9)" style="fill: none; stroke: #2ca02c; stroke-width: 2; stroke-linecap: square"/>
   </g>
   <g id="line2d_28">
    <path d="M 101.528926 246.24 
L 182.591684 246.24 
L 184.393079 213.18065 
L 186.194473 230.394532 
L 187.995868 237.68049 
L 189.797262 240.743056 
L 191.598657 242.340114 
L 193.400052 243.291867 
L 195.201446 243.91159 
L 197.002841 244.341274 
L 200.60563 244.888656 
L 206.009814 245.332967 
L 213.215393 245.635955 
L 225.825155 245.881336 
L 249.243285 246.053279 
L 303.285124 246.163596 
L 332.107438 246.184626 
L 332.107438 246.184626 
" clip-path="url(#p47916c56b9)" style="fill: none; stroke: #d62728; stroke-width: 2; stroke-linecap: square"/>
   </g>
   <g id="patch_3">
    <path d="M 90 256.32 
L 90 34.56 
" style="fill: none; stroke: #000000; stroke-width: 0.8; stroke-linejoin: miter; stroke-linecap: square"/>
   </g>
   <g id="patch_4">
    <path d="M 343.636364 256.32 
L 343.636364 34.56 
" style="fill: none; stroke: #000000; stroke-width: 0.8; stroke-linejoin: miter; stroke-linecap: square"/>
   </g>
   <g id="patch_5">
    <path d="M 90 256.32 
L 343.636364 256.32 
" style="fill: none; stroke: #000000; stroke-width: 0.8; stroke-linejoin: miter; stroke-linecap: square"/>
   </g>
   <g id="patch_6">
    <path d="M 90 34.56 
L 343.636364 34.56 
" style="fill: none; stroke: #000000; stroke-width: 0.8; stroke-linejoin: miter; stroke-linecap: square"/>
   </g>
   <g id="line2d_29">
    <path d="M 184.441032 246.239999 
L 184.874184 246.139518 
L 184.989692 245.673557 
L 185.105199 243.996442 
L 185.249583 237.763537 
L 185.451721 215.069284 
L 186.144766 108.973024 
L 186.173642 109.313399 
L 186.28915 115.299991 
L 186.549041 146.642549 
L 187.155455 218.588166 
L 187.501977 235.935306 
L 187.819623 242.463792 
L 188.137268 244.942631 
L 188.137268 244.942631 
" clip-path="url(#p47916c56b9)" style="fill: none; stroke: #9467bd; stroke-width: 2; stroke-linecap: square"/>
   </g>
   <g id="legend_1">
    <g id="patch_7">
     <path d="M 219.923864 117.950625 
L 338.636364 117.950625 
Q 340.636364 117.950625 340.636364 115.950625 
L 340.636364 43.56 
Q 340.636364 41.56 338.636364 41.56 
L 219.923864 41.56 
Q 217.923864 41.56 217.923864 43.56 
L 217.923864 115.950625 
Q 217.923864 117.950625 219.923864 117.950625 
z
" style="fill: #4d4d4d; opacity: 0.5; stroke: #4d4d4d; stroke-linejoin: miter"/>
    </g>
    <g id="patch_8">
     <path d="M 217.923864 115.950625 
L 336.636364 115.950625 
Q 338.636364 115.950625 338.636364 113.950625 
L 338.636364 41.56 
Q 338.636364 39.56 336.636364 39.56 
L 217.923864 39.56 
Q 215.923864 39.56 215.923864 41.56 
L 215.923864 113.950625 
Q 215.923864 115.950625 217.923864 115.950625 
z
" style="fill: #ffffff; stroke: #cccccc; stroke-linejoin: miter"/>
    </g>
    <g id="line2d_30">
     <path d="M 219.923864 47.658437 
L 229.923864 47.658437 
L 239.923864 47.658437 
" style="fill: none; stroke: #1f77b4; stroke-width: 2; stroke-linecap: square"/>
    </g>
    <g id="text_15">
     <!-- d1=1, d2=2 -->
     <g transform="translate(247.923864 51.158437) scale(0.1 -0.1)">
      <defs>
       <path id="DejaVuSans-64" d="M 2906 2969 
L 2906 4863 
L 3481 4863 
L 3481 0 
L 2906 0 
L 2906 525 
Q 2725 213 2448 61 
Q 2172 -91 1784 -91 
Q 1150 -91 751 415 
Q 353 922 353 1747 
Q 353 2572 751 3078 
Q 1150 3584 1784 3584 
Q 2172 3584 2448 3432 
Q 2725 3281 2906 2969 
z
M 947 1747 
Q 947 1113 1208 752 
Q 1469 391 1925 391 
Q 2381 391 2643 752 
Q 2906 1113 2906 1747 
Q 2906 2381 2643 2742 
Q 2381 3103 1925 3103 
Q 1469 3103 1208 2742 
Q 947 2381 947 1747 
z
" transform="scale(0.015625)"/>
       <path id="DejaVuSans-3d" d="M 678 2906 
L 4684 2906 
L 4684 2381 
L 678 2381 
L 678 2906 
z
M 678 1631 
L 4684 1631 
L 4684 1100 
L 678 1100 
L 678 1631 
z
" transform="scale(0.015625)"/>
       <path id="DejaVuSans-2c" d="M 750 794 
L 1409 794 
L 1409 256 
L 897 -744 
L 494 -744 
L 750 256 
L 750 794 
z
" transform="scale(0.015625)"/>
       <path id="DejaVuSans-20" transform="scale(0.015625)"/>
      </defs>
      <use xlink:href="#DejaVuSans-64"/>
      <use xlink:href="#DejaVuSans-31" transform="translate(63.476562 0)"/>
      <use xlink:href="#DejaVuSans-3d" transform="translate(127.099609 0)"/>
      <use xlink:href="#DejaVuSans-31" transform="translate(210.888672 0)"/>
      <use xlink:href="#DejaVuSans-2c" transform="translate(274.511719 0)"/>
      <use xlink:href="#DejaVuSans-20" transform="translate(306.298828 0)"/>
      <use xlink:href="#DejaVuSans-64" transform="translate(338.085938 0)"/>
      <use xlink:href="#DejaVuSans-32" transform="translate(401.5625 0)"/>
      <use xlink:href="#DejaVuSans-3d" transform="translate(465.185547 0)"/>
      <use xlink:href="#DejaVuSans-32" transform="translate(548.974609 0)"/>
     </g>
    </g>
    <g id="line2d_31">
     <path d="M 219.923864 62.336562 
L 229.923864 62.336562 
L 239.923864 62.336562 
" style="fill: none; stroke: #ff7f0e; stroke-width: 2; stroke-linecap: square"/>
    </g>
    <g id="text_16">
     <!-- d1=2, d2=1 -->
     <g transform="translate(247.923864 65.836562) scale(0.1 -0.1)">
      <use xlink:href="#DejaVuSans-64"/>
      <use xlink:href="#DejaVuSans-31" transform="translate(63.476562 0)"/>
      <use xlink:href="#DejaVuSans-3d" transform="translate(127.099609 0)"/>
      <use xlink:href="#DejaVuSans-32" transform="translate(210.888672 0)"/>
      <use xlink:href="#DejaVuSans-2c" transform="translate(274.511719 0)"/>
      <use xlink:href="#DejaVuSans-20" transform="translate(306.298828 0)"/>
      <use xlink:href="#DejaVuSans-64" transform="translate(338.085938 0)"/>
      <use xlink:href="#DejaVuSans-32" transform="translate(401.5625 0)"/>
      <use xlink:href="#DejaVuSans-3d" transform="translate(465.185547 0)"/>
      <use xlink:href="#DejaVuSans-31" transform="translate(548.974609 0)"/>
     </g>
    </g>
    <g id="line2d_32">
     <path d="M 219.923864 77.014687 
L 229.923864 77.014687 
L 239.923864 77.014687 
" style="fill: none; stroke: #2ca02c; stroke-width: 2; stroke-linecap: square"/>
    </g>
    <g id="text_17">
     <!-- d1=5, d2=2 -->
     <g transform="translate(247.923864 80.514687) scale(0.1 -0.1)">
      <use xlink:href="#DejaVuSans-64"/>
      <use xlink:href="#DejaVuSans-31" transform="translate(63.476562 0)"/>
      <use xlink:href="#DejaVuSans-3d" transform="translate(127.099609 0)"/>
      <use xlink:href="#DejaVuSans-35" transform="translate(210.888672 0)"/>
      <use xlink:href="#DejaVuSans-2c" transform="translate(274.511719 0)"/>
      <use xlink:href="#DejaVuSans-20" transform="translate(306.298828 0)"/>
      <use xlink:href="#DejaVuSans-64" transform="translate(338.085938 0)"/>
      <use xlink:href="#DejaVuSans-32" transform="translate(401.5625 0)"/>
      <use xlink:href="#DejaVuSans-3d" transform="translate(465.185547 0)"/>
      <use xlink:href="#DejaVuSans-32" transform="translate(548.974609 0)"/>
     </g>
    </g>
    <g id="line2d_33">
     <path d="M 219.923864 91.692813 
L 229.923864 91.692813 
L 239.923864 91.692813 
" style="fill: none; stroke: #d62728; stroke-width: 2; stroke-linecap: square"/>
    </g>
    <g id="text_18">
     <!-- d1=10, d2=1 -->
     <g transform="translate(247.923864 95.192813) scale(0.1 -0.1)">
      <use xlink:href="#DejaVuSans-64"/>
      <use xlink:href="#DejaVuSans-31" transform="translate(63.476562 0)"/>
      <use xlink:href="#DejaVuSans-3d" transform="translate(127.099609 0)"/>
      <use xlink:href="#DejaVuSans-31" transform="translate(210.888672 0)"/>
      <use xlink:href="#DejaVuSans-30" transform="translate(274.511719 0)"/>
      <use xlink:href="#DejaVuSans-2c" transform="translate(338.134766 0)"/>
      <use xlink:href="#DejaVuSans-20" transform="translate(369.921875 0)"/>
      <use xlink:href="#DejaVuSans-64" transform="translate(401.708984 0)"/>
      <use xlink:href="#DejaVuSans-32" transform="translate(465.185547 0)"/>
      <use xlink:href="#DejaVuSans-3d" transform="translate(528.808594 0)"/>
      <use xlink:href="#DejaVuSans-31" transform="translate(612.597656 0)"/>
     </g>
    </g>
    <g id="line2d_34">
     <path d="M 219.923864 106.370937 
L 229.923864 106.370937 
L 239.923864 106.370937 
" style="fill: none; stroke: #9467bd; stroke-width: 2; stroke-linecap: square"/>
    </g>
    <g id="text_19">
     <!-- d1=100, d2=100 -->
     <g transform="translate(247.923864 109.870937) scale(0.1 -0.1)">
      <use xlink:href="#DejaVuSans-64"/>
      <use xlink:href="#DejaVuSans-31" transform="translate(63.476562 0)"/>
      <use xlink:href="#DejaVuSans-3d" transform="translate(127.099609 0)"/>
      <use xlink:href="#DejaVuSans-31" transform="translate(210.888672 0)"/>
      <use xlink:href="#DejaVuSans-30" transform="translate(274.511719 0)"/>
      <use xlink:href="#DejaVuSans-30" transform="translate(338.134766 0)"/>
      <use xlink:href="#DejaVuSans-2c" transform="translate(401.757812 0)"/>
      <use xlink:href="#DejaVuSans-20" transform="translate(433.544922 0)"/>
      <use xlink:href="#DejaVuSans-64" transform="translate(465.332031 0)"/>
      <use xlink:href="#DejaVuSans-32" transform="translate(528.808594 0)"/>
      <use xlink:href="#DejaVuSans-3d" transform="translate(592.431641 0)"/>
      <use xlink:href="#DejaVuSans-31" transform="translate(676.220703 0)"/>
      <use xlink:href="#DejaVuSans-30" transform="translate(739.84375 0)"/>
      <use xlink:href="#DejaVuSans-30" transform="translate(803.466797 0)"/>
     </g>
    </g>
   </g>
  </g>
  <g id="axes_2">
   <g id="patch_9">
    <path d="M 394.363636 256.32 
L 648 256.32 
L 648 34.56 
L 394.363636 34.56 
z
" style="fill: #ffffff"/>
   </g>
   <g id="matplotlib.axis_3">
    <g id="xtick_6">
     <g id="line2d_35">
      <path d="M 439.139216 256.32 
L 439.139216 34.56 
" clip-path="url(#pa411c7c7e0)" style="fill: none; stroke: #b0b0b0; stroke-width: 0.8; stroke-linecap: square"/>
     </g>
     <g id="line2d_36">
      <g>
       <use xlink:href="#m0a28801b37" x="439.139216" y="256.32" style="stroke: #000000; stroke-width: 0.8"/>
      </g>
     </g>
     <g id="text_20">
      <!-- −20 -->
      <g transform="translate(428.586872 270.918437) scale(0.1 -0.1)">
       <use xlink:href="#DejaVuSans-2212"/>
       <use xlink:href="#DejaVuSans-32" transform="translate(83.789062 0)"/>
       <use xlink:href="#DejaVuSans-30" transform="translate(147.412109 0)"/>
      </g>
     </g>
    </g>
    <g id="xtick_7">
     <g id="line2d_37">
      <path d="M 488.149096 256.32 
L 488.149096 34.56 
" clip-path="url(#pa411c7c7e0)" style="fill: none; stroke: #b0b0b0; stroke-width: 0.8; stroke-linecap: square"/>
     </g>
     <g id="line2d_38">
      <g>
       <use xlink:href="#m0a28801b37" x="488.149096" y="256.32" style="stroke: #000000; stroke-width: 0.8"/>
      </g>
     </g>
     <g id="text_21">
      <!-- 0 -->
      <g transform="translate(484.967846 270.918437) scale(0.1 -0.1)">
       <use xlink:href="#DejaVuSans-30"/>
      </g>
     </g>
    </g>
    <g id="xtick_8">
     <g id="line2d_39">
      <path d="M 537.158976 256.32 
L 537.158976 34.56 
" clip-path="url(#pa411c7c7e0)" style="fill: none; stroke: #b0b0b0; stroke-width: 0.8; stroke-linecap: square"/>
     </g>
     <g id="line2d_40">
      <g>
       <use xlink:href="#m0a28801b37" x="537.158976" y="256.32" style="stroke: #000000; stroke-width: 0.8"/>
      </g>
     </g>
     <g id="text_22">
      <!-- 20 -->
      <g transform="translate(530.796476 270.918437) scale(0.1 -0.1)">
       <use xlink:href="#DejaVuSans-32"/>
       <use xlink:href="#DejaVuSans-30" transform="translate(63.623047 0)"/>
      </g>
     </g>
    </g>
    <g id="xtick_9">
     <g id="line2d_41">
      <path d="M 586.168856 256.32 
L 586.168856 34.56 
" clip-path="url(#pa411c7c7e0)" style="fill: none; stroke: #b0b0b0; stroke-width: 0.8; stroke-linecap: square"/>
     </g>
     <g id="line2d_42">
      <g>
       <use xlink:href="#m0a28801b37" x="586.168856" y="256.32" style="stroke: #000000; stroke-width: 0.8"/>
      </g>
     </g>
     <g id="text_23">
      <!-- 40 -->
      <g transform="translate(579.806356 270.918437) scale(0.1 -0.1)">
       <use xlink:href="#DejaVuSans-34"/>
       <use xlink:href="#DejaVuSans-30" transform="translate(63.623047 0)"/>
      </g>
     </g>
    </g>
    <g id="xtick_10">
     <g id="line2d_43">
      <path d="M 635.178735 256.32 
L 635.178735 34.56 
" clip-path="url(#pa411c7c7e0)" style="fill: none; stroke: #b0b0b0; stroke-width: 0.8; stroke-linecap: square"/>
     </g>
     <g id="line2d_44">
      <g>
       <use xlink:href="#m0a28801b37" x="635.178735" y="256.32" style="stroke: #000000; stroke-width: 0.8"/>
      </g>
     </g>
     <g id="text_24">
      <!-- 60 -->
      <g transform="translate(628.816235 270.918437) scale(0.1 -0.1)">
       <use xlink:href="#DejaVuSans-36"/>
       <use xlink:href="#DejaVuSans-30" transform="translate(63.623047 0)"/>
      </g>
     </g>
    </g>
    <g id="text_25">
     <!-- x -->
     <g transform="translate(518.222443 284.596563) scale(0.1 -0.1)">
      <use xlink:href="#DejaVuSans-78"/>
     </g>
    </g>
   </g>
   <g id="matplotlib.axis_4">
    <g id="ytick_8">
     <g id="line2d_45">
      <path d="M 394.363636 246.24 
L 648 246.24 
" clip-path="url(#pa411c7c7e0)" style="fill: none; stroke: #b0b0b0; stroke-width: 0.8; stroke-linecap: square"/>
     </g>
     <g id="line2d_46">
      <g>
       <use xlink:href="#mbeb0bd3b4d" x="394.363636" y="246.24" style="stroke: #000000; stroke-width: 0.8"/>
      </g>
     </g>
     <g id="text_26">
      <!-- 0.0 -->
      <g transform="translate(371.460511 250.039219) scale(0.1 -0.1)">
       <use xlink:href="#DejaVuSans-30"/>
       <use xlink:href="#DejaVuSans-2e" transform="translate(63.623047 0)"/>
       <use xlink:href="#DejaVuSans-30" transform="translate(95.410156 0)"/>
      </g>
     </g>
    </g>
    <g id="ytick_9">
     <g id="line2d_47">
      <path d="M 394.363636 205.830285 
L 648 205.830285 
" clip-path="url(#pa411c7c7e0)" style="fill: none; stroke: #b0b0b0; stroke-width: 0.8; stroke-linecap: square"/>
     </g>
     <g id="line2d_48">
      <g>
       <use xlink:href="#mbeb0bd3b4d" x="394.363636" y="205.830285" style="stroke: #000000; stroke-width: 0.8"/>
      </g>
     </g>
     <g id="text_27">
      <!-- 0.2 -->
      <g transform="translate(371.460511 209.629504) scale(0.1 -0.1)">
       <use xlink:href="#DejaVuSans-30"/>
       <use xlink:href="#DejaVuSans-2e" transform="translate(63.623047 0)"/>
       <use xlink:href="#DejaVuSans-32" transform="translate(95.410156 0)"/>
      </g>
     </g>
    </g>
    <g id="ytick_10">
     <g id="line2d_49">
      <path d="M 394.363636 165.42057 
L 648 165.42057 
" clip-path="url(#pa411c7c7e0)" style="fill: none; stroke: #b0b0b0; stroke-width: 0.8; stroke-linecap: square"/>
     </g>
     <g id="line2d_50">
      <g>
       <use xlink:href="#mbeb0bd3b4d" x="394.363636" y="165.42057" style="stroke: #000000; stroke-width: 0.8"/>
      </g>
     </g>
     <g id="text_28">
      <!-- 0.4 -->
      <g transform="translate(371.460511 169.219789) scale(0.1 -0.1)">
       <use xlink:href="#DejaVuSans-30"/>
       <use xlink:href="#DejaVuSans-2e" transform="translate(63.623047 0)"/>
       <use xlink:href="#DejaVuSans-34" transform="translate(95.410156 0)"/>
      </g>
     </g>
    </g>
    <g id="ytick_11">
     <g id="line2d_51">
      <path d="M 394.363636 125.010856 
L 648 125.010856 
" clip-path="url(#pa411c7c7e0)" style="fill: none; stroke: #b0b0b0; stroke-width: 0.8; stroke-linecap: square"/>
     </g>
     <g id="line2d_52">
      <g>
       <use xlink:href="#mbeb0bd3b4d" x="394.363636" y="125.010856" style="stroke: #000000; stroke-width: 0.8"/>
      </g>
     </g>
     <g id="text_29">
      <!-- 0.6 -->
      <g transform="translate(371.460511 128.810074) scale(0.1 -0.1)">
       <use xlink:href="#DejaVuSans-30"/>
       <use xlink:href="#DejaVuSans-2e" transform="translate(63.623047 0)"/>
       <use xlink:href="#DejaVuSans-36" transform="translate(95.410156 0)"/>
      </g>
     </g>
    </g>
    <g id="ytick_12">
     <g id="line2d_53">
      <path d="M 394.363636 84.601141 
L 648 84.601141 
" clip-path="url(#pa411c7c7e0)" style="fill: none; stroke: #b0b0b0; stroke-width: 0.8; stroke-linecap: square"/>
     </g>
     <g id="line2d_54">
      <g>
       <use xlink:href="#mbeb0bd3b4d" x="394.363636" y="84.601141" style="stroke: #000000; stroke-width: 0.8"/>
      </g>
     </g>
     <g id="text_30">
      <!-- 0.8 -->
      <g transform="translate(371.460511 88.40036) scale(0.1 -0.1)">
       <defs>
        <path id="DejaVuSans-38" d="M 2034 2216 
Q 1584 2216 1326 1975 
Q 1069 1734 1069 1313 
Q 1069 891 1326 650 
Q 1584 409 2034 409 
Q 2484 409 2743 651 
Q 3003 894 3003 1313 
Q 3003 1734 2745 1975 
Q 2488 2216 2034 2216 
z
M 1403 2484 
Q 997 2584 770 2862 
Q 544 3141 544 3541 
Q 544 4100 942 4425 
Q 1341 4750 2034 4750 
Q 2731 4750 3128 4425 
Q 3525 4100 3525 3541 
Q 3525 3141 3298 2862 
Q 3072 2584 2669 2484 
Q 3125 2378 3379 2068 
Q 3634 1759 3634 1313 
Q 3634 634 3220 271 
Q 2806 -91 2034 -91 
Q 1263 -91 848 271 
Q 434 634 434 1313 
Q 434 1759 690 2068 
Q 947 2378 1403 2484 
z
M 1172 3481 
Q 1172 3119 1398 2916 
Q 1625 2713 2034 2713 
Q 2441 2713 2670 2916 
Q 2900 3119 2900 3481 
Q 2900 3844 2670 4047 
Q 2441 4250 2034 4250 
Q 1625 4250 1398 4047 
Q 1172 3844 1172 3481 
z
" transform="scale(0.015625)"/>
       </defs>
       <use xlink:href="#DejaVuSans-30"/>
       <use xlink:href="#DejaVuSans-2e" transform="translate(63.623047 0)"/>
       <use xlink:href="#DejaVuSans-38" transform="translate(95.410156 0)"/>
      </g>
     </g>
    </g>
    <g id="ytick_13">
     <g id="line2d_55">
      <path d="M 394.363636 44.191426 
L 648 44.191426 
" clip-path="url(#pa411c7c7e0)" style="fill: none; stroke: #b0b0b0; stroke-width: 0.8; stroke-linecap: square"/>
     </g>
     <g id="line2d_56">
      <g>
       <use xlink:href="#mbeb0bd3b4d" x="394.363636" y="44.191426" style="stroke: #000000; stroke-width: 0.8"/>
      </g>
     </g>
     <g id="text_31">
      <!-- 1.0 -->
      <g transform="translate(371.460511 47.990645) scale(0.1 -0.1)">
       <use xlink:href="#DejaVuSans-31"/>
       <use xlink:href="#DejaVuSans-2e" transform="translate(63.623047 0)"/>
       <use xlink:href="#DejaVuSans-30" transform="translate(95.410156 0)"/>
      </g>
     </g>
    </g>
    <g id="text_32">
     <!-- CDF -->
     <g transform="translate(365.380824 155.657187) rotate(-90) scale(0.1 -0.1)">
      <defs>
       <path id="DejaVuSans-43" d="M 4122 4306 
L 4122 3641 
Q 3803 3938 3442 4084 
Q 3081 4231 2675 4231 
Q 1875 4231 1450 3742 
Q 1025 3253 1025 2328 
Q 1025 1406 1450 917 
Q 1875 428 2675 428 
Q 3081 428 3442 575 
Q 3803 722 4122 1019 
L 4122 359 
Q 3791 134 3420 21 
Q 3050 -91 2638 -91 
Q 1578 -91 968 557 
Q 359 1206 359 2328 
Q 359 3453 968 4101 
Q 1578 4750 2638 4750 
Q 3056 4750 3426 4639 
Q 3797 4528 4122 4306 
z
" transform="scale(0.015625)"/>
      </defs>
      <use xlink:href="#DejaVuSans-43"/>
      <use xlink:href="#DejaVuSans-44" transform="translate(69.824219 0)"/>
      <use xlink:href="#DejaVuSans-46" transform="translate(146.826172 0)"/>
     </g>
    </g>
   </g>
   <g id="line2d_57">
    <path d="M 471.820261 246.24 
L 487.827151 246.24 
L 488.18286 229.527144 
L 488.538568 191.41892 
L 489.249986 159.706516 
L 489.961403 141.260657 
L 490.672821 128.44226 
L 491.384238 118.832929 
L 492.451364 108.095444 
L 493.51849 100.148438 
L 494.585616 94.002182 
L 495.652742 89.095211 
L 496.719868 85.08136 
L 498.142703 80.738256 
L 499.565537 77.236657 
L 500.988372 74.351817 
L 502.411207 71.933002 
L 504.18975 69.407755 
L 505.968294 67.305566 
L 507.746837 65.527988 
L 509.881089 63.726212 
L 512.015341 62.205692 
L 514.505302 60.706541 
L 517.350971 59.272665 
L 517.350971 59.272665 
" clip-path="url(#pa411c7c7e0)" style="fill: none; stroke: #1f77b4; stroke-width: 2; stroke-linecap: square"/>
   </g>
   <g id="line2d_58">
    <path d="M 420.03224 246.24 
L 486.806082 246.24 
L 488.289945 235.540765 
L 489.773808 176.670803 
L 491.257671 151.623028 
L 492.741534 136.915496 
L 494.225398 126.958979 
L 495.709261 119.64617 
L 497.193124 113.982152 
L 498.676987 109.427932 
L 500.16085 105.662784 
L 501.644713 102.482352 
L 503.128576 99.749444 
L 504.61244 97.368079 
L 506.096303 95.268824 
L 507.580166 93.400044 
L 510.547892 90.20548 
L 513.515618 87.561882 
L 516.483345 85.327146 
L 519.451071 83.405695 
L 522.418797 81.730568 
L 525.386524 80.253265 
L 529.838113 78.331682 
L 534.289702 76.687802 
L 538.741292 75.260594 
L 544.676744 73.62078 
L 550.612197 72.21591 
L 558.031513 70.713618 
L 565.450829 69.429614 
L 574.354007 68.110093 
L 584.741049 66.804521 
L 596.611955 65.545849 
L 609.966723 64.353694 
L 609.966723 64.353694 
" clip-path="url(#pa411c7c7e0)" style="fill: none; stroke: #ff7f0e; stroke-width: 2; stroke-linecap: square"/>
   </g>
   <g id="line2d_59">
    <path d="M 471.162532 246.24 
L 488.153935 246.239658 
L 488.540103 237.466705 
L 489.698608 186.911062 
L 490.470945 162.471121 
L 491.243281 144.693026 
L 492.015618 131.388345 
L 492.787954 121.12045 
L 493.560291 112.979939 
L 494.718795 103.525871 
L 495.8773 96.338453 
L 497.035805 90.695147 
L 498.194309 86.149065 
L 499.352814 82.409781 
L 500.511319 79.280684 
L 502.055992 75.825514 
L 503.600665 72.988657 
L 505.145338 70.618026 
L 506.690011 68.60756 
L 508.620852 66.486891 
L 510.551693 64.704874 
L 512.868703 62.909324 
L 515.185712 61.402634 
L 517.88889 59.924945 
L 520.592067 58.680837 
L 520.592067 58.680837 
" clip-path="url(#pa411c7c7e0)" style="fill: none; stroke: #2ca02c; stroke-width: 2; stroke-linecap: square"/>
   </g>
   <g id="line2d_60">
    <path d="M 405.892562 246.24 
L 486.95532 246.24 
L 488.756715 231.61383 
L 490.55811 178.157624 
L 492.359504 152.662685 
L 494.160899 137.632935 
L 495.962293 127.479285 
L 497.763688 120.039728 
L 499.565083 114.289595 
L 501.366477 109.67412 
L 503.167872 105.86376 
L 504.969267 102.648943 
L 506.770661 99.889234 
L 508.572056 97.486546 
L 510.37345 95.370032 
L 512.174845 93.487075 
L 513.97624 91.797671 
L 517.579029 88.881954 
L 521.181818 86.443632 
L 524.784607 84.365227 
L 528.387397 82.566113 
L 531.990186 80.988874 
L 537.39437 78.949779 
L 542.798554 77.215947 
L 548.202738 75.718106 
L 555.408316 74.005224 
L 562.613895 72.544255 
L 571.620868 70.988231 
L 580.627841 69.663142 
L 591.436209 68.305786 
L 604.045971 66.966905 
L 618.457128 65.679783 
L 634.66968 64.463797 
L 636.471074 64.341063 
L 636.471074 64.341063 
" clip-path="url(#pa411c7c7e0)" style="fill: none; stroke: #d62728; stroke-width: 2; stroke-linecap: square"/>
   </g>
   <g id="patch_10">
    <path d="M 394.363636 256.32 
L 394.363636 34.56 
" style="fill: none; stroke: #000000; stroke-width: 0.8; stroke-linejoin: miter; stroke-linecap: square"/>
   </g>
   <g id="patch_11">
    <path d="M 648 256.32 
L 648 34.56 
" style="fill: none; stroke: #000000; stroke-width: 0.8; stroke-linejoin: miter; stroke-linecap: square"/>
   </g>
   <g id="patch_12">
    <path d="M 394.363636 256.32 
L 648 256.32 
" style="fill: none; stroke: #000000; stroke-width: 0.8; stroke-linejoin: miter; stroke-linecap: square"/>
   </g>
   <g id="patch_13">
    <path d="M 394.363636 34.56 
L 648 34.56 
" style="fill: none; stroke: #000000; stroke-width: 0.8; stroke-linejoin: miter; stroke-linecap: square"/>
   </g>
   <g id="line2d_61">
    <path d="M 488.804668 246.24 
L 489.411082 246.135193 
L 489.526589 245.80314 
L 489.670973 244.417124 
L 489.844234 239.48946 
L 490.046372 225.781335 
L 490.364018 184.184228 
L 491.143692 76.283555 
L 491.490215 56.596918 
L 491.80786 48.86983 
L 492.125505 45.835102 
L 492.443151 44.741041 
L 492.500904 44.64 
L 492.500904 44.64 
" clip-path="url(#pa411c7c7e0)" style="fill: none; stroke: #9467bd; stroke-width: 2; stroke-linecap: square"/>
   </g>
   <g id="legend_2">
    <g id="patch_14">
     <path d="M 524.2875 253.32 
L 643 253.32 
Q 645 253.32 645 251.32 
L 645 178.929375 
Q 645 176.929375 643 176.929375 
L 524.2875 176.929375 
Q 522.2875 176.929375 522.2875 178.929375 
L 522.2875 251.32 
Q 522.2875 253.32 524.2875 253.32 
z
" style="fill: #4d4d4d; opacity: 0.5; stroke: #4d4d4d; stroke-linejoin: miter"/>
    </g>
    <g id="patch_15">
     <path d="M 522.2875 251.32 
L 641 251.32 
Q 643 251.32 643 249.32 
L 643 176.929375 
Q 643 174.929375 641 174.929375 
L 522.2875 174.929375 
Q 520.2875 174.929375 520.2875 176.929375 
L 520.2875 249.32 
Q 520.2875 251.32 522.2875 251.32 
z
" style="fill: #ffffff; stroke: #cccccc; stroke-linejoin: miter"/>
    </g>
    <g id="line2d_62">
     <path d="M 524.2875 183.027813 
L 534.2875 183.027813 
L 544.2875 183.027813 
" style="fill: none; stroke: #1f77b4; stroke-width: 2; stroke-linecap: square"/>
    </g>
    <g id="text_33">
     <!-- d1=1, d2=2 -->
     <g transform="translate(552.2875 186.527813) scale(0.1 -0.1)">
      <use xlink:href="#DejaVuSans-64"/>
      <use xlink:href="#DejaVuSans-31" transform="translate(63.476562 0)"/>
      <use xlink:href="#DejaVuSans-3d" transform="translate(127.099609 0)"/>
      <use xlink:href="#DejaVuSans-31" transform="translate(210.888672 0)"/>
      <use xlink:href="#DejaVuSans-2c" transform="translate(274.511719 0)"/>
      <use xlink:href="#DejaVuSans-20" transform="translate(306.298828 0)"/>
      <use xlink:href="#DejaVuSans-64" transform="translate(338.085938 0)"/>
      <use xlink:href="#DejaVuSans-32" transform="translate(401.5625 0)"/>
      <use xlink:href="#DejaVuSans-3d" transform="translate(465.185547 0)"/>
      <use xlink:href="#DejaVuSans-32" transform="translate(548.974609 0)"/>
     </g>
    </g>
    <g id="line2d_63">
     <path d="M 524.2875 197.705938 
L 534.2875 197.705938 
L 544.2875 197.705938 
" style="fill: none; stroke: #ff7f0e; stroke-width: 2; stroke-linecap: square"/>
    </g>
    <g id="text_34">
     <!-- d1=2, d2=1 -->
     <g transform="translate(552.2875 201.205938) scale(0.1 -0.1)">
      <use xlink:href="#DejaVuSans-64"/>
      <use xlink:href="#DejaVuSans-31" transform="translate(63.476562 0)"/>
      <use xlink:href="#DejaVuSans-3d" transform="translate(127.099609 0)"/>
      <use xlink:href="#DejaVuSans-32" transform="translate(210.888672 0)"/>
      <use xlink:href="#DejaVuSans-2c" transform="translate(274.511719 0)"/>
      <use xlink:href="#DejaVuSans-20" transform="translate(306.298828 0)"/>
      <use xlink:href="#DejaVuSans-64" transform="translate(338.085938 0)"/>
      <use xlink:href="#DejaVuSans-32" transform="translate(401.5625 0)"/>
      <use xlink:href="#DejaVuSans-3d" transform="translate(465.185547 0)"/>
      <use xlink:href="#DejaVuSans-31" transform="translate(548.974609 0)"/>
     </g>
    </g>
    <g id="line2d_64">
     <path d="M 524.2875 212.384063 
L 534.2875 212.384063 
L 544.2875 212.384063 
" style="fill: none; stroke: #2ca02c; stroke-width: 2; stroke-linecap: square"/>
    </g>
    <g id="text_35">
     <!-- d1=5, d2=2 -->
     <g transform="translate(552.2875 215.884063) scale(0.1 -0.1)">
      <use xlink:href="#DejaVuSans-64"/>
      <use xlink:href="#DejaVuSans-31" transform="translate(63.476562 0)"/>
      <use xlink:href="#DejaVuSans-3d" transform="translate(127.099609 0)"/>
      <use xlink:href="#DejaVuSans-35" transform="translate(210.888672 0)"/>
      <use xlink:href="#DejaVuSans-2c" transform="translate(274.511719 0)"/>
      <use xlink:href="#DejaVuSans-20" transform="translate(306.298828 0)"/>
      <use xlink:href="#DejaVuSans-64" transform="translate(338.085938 0)"/>
      <use xlink:href="#DejaVuSans-32" transform="translate(401.5625 0)"/>
      <use xlink:href="#DejaVuSans-3d" transform="translate(465.185547 0)"/>
      <use xlink:href="#DejaVuSans-32" transform="translate(548.974609 0)"/>
     </g>
    </g>
    <g id="line2d_65">
     <path d="M 524.2875 227.062188 
L 534.2875 227.062188 
L 544.2875 227.062188 
" style="fill: none; stroke: #d62728; stroke-width: 2; stroke-linecap: square"/>
    </g>
    <g id="text_36">
     <!-- d1=10, d2=1 -->
     <g transform="translate(552.2875 230.562188) scale(0.1 -0.1)">
      <use xlink:href="#DejaVuSans-64"/>
      <use xlink:href="#DejaVuSans-31" transform="translate(63.476562 0)"/>
      <use xlink:href="#DejaVuSans-3d" transform="translate(127.099609 0)"/>
      <use xlink:href="#DejaVuSans-31" transform="translate(210.888672 0)"/>
      <use xlink:href="#DejaVuSans-30" transform="translate(274.511719 0)"/>
      <use xlink:href="#DejaVuSans-2c" transform="translate(338.134766 0)"/>
      <use xlink:href="#DejaVuSans-20" transform="translate(369.921875 0)"/>
      <use xlink:href="#DejaVuSans-64" transform="translate(401.708984 0)"/>
      <use xlink:href="#DejaVuSans-32" transform="translate(465.185547 0)"/>
      <use xlink:href="#DejaVuSans-3d" transform="translate(528.808594 0)"/>
      <use xlink:href="#DejaVuSans-31" transform="translate(612.597656 0)"/>
     </g>
    </g>
    <g id="line2d_66">
     <path d="M 524.2875 241.740313 
L 534.2875 241.740313 
L 544.2875 241.740313 
" style="fill: none; stroke: #9467bd; stroke-width: 2; stroke-linecap: square"/>
    </g>
    <g id="text_37">
     <!-- d1=100, d2=100 -->
     <g transform="translate(552.2875 245.240313) scale(0.1 -0.1)">
      <use xlink:href="#DejaVuSans-64"/>
      <use xlink:href="#DejaVuSans-31" transform="translate(63.476562 0)"/>
      <use xlink:href="#DejaVuSans-3d" transform="translate(127.099609 0)"/>
      <use xlink:href="#DejaVuSans-31" transform="translate(210.888672 0)"/>
      <use xlink:href="#DejaVuSans-30" transform="translate(274.511719 0)"/>
      <use xlink:href="#DejaVuSans-30" transform="translate(338.134766 0)"/>
      <use xlink:href="#DejaVuSans-2c" transform="translate(401.757812 0)"/>
      <use xlink:href="#DejaVuSans-20" transform="translate(433.544922 0)"/>
      <use xlink:href="#DejaVuSans-64" transform="translate(465.332031 0)"/>
      <use xlink:href="#DejaVuSans-32" transform="translate(528.808594 0)"/>
      <use xlink:href="#DejaVuSans-3d" transform="translate(592.431641 0)"/>
      <use xlink:href="#DejaVuSans-31" transform="translate(676.220703 0)"/>
      <use xlink:href="#DejaVuSans-30" transform="translate(739.84375 0)"/>
      <use xlink:href="#DejaVuSans-30" transform="translate(803.466797 0)"/>
     </g>
    </g>
   </g>
  </g>
  <g id="text_38">
   <!-- FisherSnedecor(d1, d2) -->
   <g transform="translate(290.240625 14.878125) scale(0.12 -0.12)">
    <defs>
     <path id="DejaVuSans-69" d="M 603 3500 
L 1178 3500 
L 1178 0 
L 603 0 
L 603 3500 
z
M 603 4863 
L 1178 4863 
L 1178 4134 
L 603 4134 
L 603 4863 
z
" transform="scale(0.015625)"/>
     <path id="DejaVuSans-73" d="M 2834 3397 
L 2834 2853 
Q 2591 2978 2328 3040 
Q 2066 3103 1784 3103 
Q 1356 3103 1142 2972 
Q 928 2841 928 2578 
Q 928 2378 1081 2264 
Q 1234 2150 1697 2047 
L 1894 2003 
Q 2506 1872 2764 1633 
Q 3022 1394 3022 966 
Q 3022 478 2636 193 
Q 2250 -91 1575 -91 
Q 1294 -91 989 -36 
Q 684 19 347 128 
L 347 722 
Q 666 556 975 473 
Q 1284 391 1588 391 
Q 1994 391 2212 530 
Q 2431 669 2431 922 
Q 2431 1156 2273 1281 
Q 2116 1406 1581 1522 
L 1381 1569 
Q 847 1681 609 1914 
Q 372 2147 372 2553 
Q 372 3047 722 3315 
Q 1072 3584 1716 3584 
Q 2034 3584 2315 3537 
Q 2597 3491 2834 3397 
z
" transform="scale(0.015625)"/>
     <path id="DejaVuSans-68" d="M 3513 2113 
L 3513 0 
L 2938 0 
L 2938 2094 
Q 2938 2591 2744 2837 
Q 2550 3084 2163 3084 
Q 1697 3084 1428 2787 
Q 1159 2491 1159 1978 
L 1159 0 
L 581 0 
L 581 4863 
L 1159 4863 
L 1159 2956 
Q 1366 3272 1645 3428 
Q 1925 3584 2291 3584 
Q 2894 3584 3203 3211 
Q 3513 2838 3513 2113 
z
" transform="scale(0.015625)"/>
     <path id="DejaVuSans-65" d="M 3597 1894 
L 3597 1613 
L 953 1613 
Q 991 1019 1311 708 
Q 1631 397 2203 397 
Q 2534 397 2845 478 
Q 3156 559 3463 722 
L 3463 178 
Q 3153 47 2828 -22 
Q 2503 -91 2169 -91 
Q 1331 -91 842 396 
Q 353 884 353 1716 
Q 353 2575 817 3079 
Q 1281 3584 2069 3584 
Q 2775 3584 3186 3129 
Q 3597 2675 3597 1894 
z
M 3022 2063 
Q 3016 2534 2758 2815 
Q 2500 3097 2075 3097 
Q 1594 3097 1305 2825 
Q 1016 2553 972 2059 
L 3022 2063 
z
" transform="scale(0.015625)"/>
     <path id="DejaVuSans-72" d="M 2631 2963 
Q 2534 3019 2420 3045 
Q 2306 3072 2169 3072 
Q 1681 3072 1420 2755 
Q 1159 2438 1159 1844 
L 1159 0 
L 581 0 
L 581 3500 
L 1159 3500 
L 1159 2956 
Q 1341 3275 1631 3429 
Q 1922 3584 2338 3584 
Q 2397 3584 2469 3576 
Q 2541 3569 2628 3553 
L 2631 2963 
z
" transform="scale(0.015625)"/>
     <path id="DejaVuSans-53" d="M 3425 4513 
L 3425 3897 
Q 3066 4069 2747 4153 
Q 2428 4238 2131 4238 
Q 1616 4238 1336 4038 
Q 1056 3838 1056 3469 
Q 1056 3159 1242 3001 
Q 1428 2844 1947 2747 
L 2328 2669 
Q 3034 2534 3370 2195 
Q 3706 1856 3706 1288 
Q 3706 609 3251 259 
Q 2797 -91 1919 -91 
Q 1588 -91 1214 -16 
Q 841 59 441 206 
L 441 856 
Q 825 641 1194 531 
Q 1563 422 1919 422 
Q 2459 422 2753 634 
Q 3047 847 3047 1241 
Q 3047 1584 2836 1778 
Q 2625 1972 2144 2069 
L 1759 2144 
Q 1053 2284 737 2584 
Q 422 2884 422 3419 
Q 422 4038 858 4394 
Q 1294 4750 2059 4750 
Q 2388 4750 2728 4690 
Q 3069 4631 3425 4513 
z
" transform="scale(0.015625)"/>
     <path id="DejaVuSans-6e" d="M 3513 2113 
L 3513 0 
L 2938 0 
L 2938 2094 
Q 2938 2591 2744 2837 
Q 2550 3084 2163 3084 
Q 1697 3084 1428 2787 
Q 1159 2491 1159 1978 
L 1159 0 
L 581 0 
L 581 3500 
L 1159 3500 
L 1159 2956 
Q 1366 3272 1645 3428 
Q 1925 3584 2291 3584 
Q 2894 3584 3203 3211 
Q 3513 2838 3513 2113 
z
" transform="scale(0.015625)"/>
     <path id="DejaVuSans-63" d="M 3122 3366 
L 3122 2828 
Q 2878 2963 2633 3030 
Q 2388 3097 2138 3097 
Q 1578 3097 1268 2742 
Q 959 2388 959 1747 
Q 959 1106 1268 751 
Q 1578 397 2138 397 
Q 2388 397 2633 464 
Q 2878 531 3122 666 
L 3122 134 
Q 2881 22 2623 -34 
Q 2366 -91 2075 -91 
Q 1284 -91 818 406 
Q 353 903 353 1747 
Q 353 2603 823 3093 
Q 1294 3584 2113 3584 
Q 2378 3584 2631 3529 
Q 2884 3475 3122 3366 
z
" transform="scale(0.015625)"/>
     <path id="DejaVuSans-6f" d="M 1959 3097 
Q 1497 3097 1228 2736 
Q 959 2375 959 1747 
Q 959 1119 1226 758 
Q 1494 397 1959 397 
Q 2419 397 2687 759 
Q 2956 1122 2956 1747 
Q 2956 2369 2687 2733 
Q 2419 3097 1959 3097 
z
M 1959 3584 
Q 2709 3584 3137 3096 
Q 3566 2609 3566 1747 
Q 3566 888 3137 398 
Q 2709 -91 1959 -91 
Q 1206 -91 779 398 
Q 353 888 353 1747 
Q 353 2609 779 3096 
Q 1206 3584 1959 3584 
z
" transform="scale(0.015625)"/>
     <path id="DejaVuSans-28" d="M 1984 4856 
Q 1566 4138 1362 3434 
Q 1159 2731 1159 2009 
Q 1159 1288 1364 580 
Q 1569 -128 1984 -844 
L 1484 -844 
Q 1016 -109 783 600 
Q 550 1309 550 2009 
Q 550 2706 781 3412 
Q 1013 4119 1484 4856 
L 1984 4856 
z
" transform="scale(0.015625)"/>
     <path id="DejaVuSans-29" d="M 513 4856 
L 1013 4856 
Q 1481 4119 1714 3412 
Q 1947 2706 1947 2009 
Q 1947 1309 1714 600 
Q 1481 -109 1013 -844 
L 513 -844 
Q 928 -128 1133 580 
Q 1338 1288 1338 2009 
Q 1338 2731 1133 3434 
Q 928 4138 513 4856 
z
" transform="scale(0.015625)"/>
    </defs>
    <use xlink:href="#DejaVuSans-46"/>
    <use xlink:href="#DejaVuSans-69" transform="translate(50.269531 0)"/>
    <use xlink:href="#DejaVuSans-73" transform="translate(78.052734 0)"/>
    <use xlink:href="#DejaVuSans-68" transform="translate(130.152344 0)"/>
    <use xlink:href="#DejaVuSans-65" transform="translate(193.53125 0)"/>
    <use xlink:href="#DejaVuSans-72" transform="translate(255.054688 0)"/>
    <use xlink:href="#DejaVuSans-53" transform="translate(296.167969 0)"/>
    <use xlink:href="#DejaVuSans-6e" transform="translate(359.644531 0)"/>
    <use xlink:href="#DejaVuSans-65" transform="translate(423.023438 0)"/>
    <use xlink:href="#DejaVuSans-64" transform="translate(484.546875 0)"/>
    <use xlink:href="#DejaVuSans-65" transform="translate(548.023438 0)"/>
    <use xlink:href="#DejaVuSans-63" transform="translate(609.546875 0)"/>
    <use xlink:href="#DejaVuSans-6f" transform="translate(664.527344 0)"/>
    <use xlink:href="#DejaVuSans-72" transform="translate(725.708984 0)"/>
    <use xlink:href="#DejaVuSans-28" transform="translate(766.822266 0)"/>
    <use xlink:href="#DejaVuSans-64" transform="translate(805.835938 0)"/>
    <use xlink:href="#DejaVuSans-31" transform="translate(869.3125 0)"/>
    <use xlink:href="#DejaVuSans-2c" transform="translate(932.935547 0)"/>
    <use xlink:href="#DejaVuSans-20" transform="translate(964.722656 0)"/>
    <use xlink:href="#DejaVuSans-64" transform="translate(996.509766 0)"/>
    <use xlink:href="#DejaVuSans-32" transform="translate(1059.986328 0)"/>
    <use xlink:href="#DejaVuSans-29" transform="translate(1123.609375 0)"/>
   </g>
  </g>
 </g>
 <defs>
  <clipPath id="p47916c56b9">
   <rect x="90" y="34.56" width="253.636364" height="221.76"/>
  </clipPath>
  <clipPath id="pa411c7c7e0">
   <rect x="394.363636" y="34.56" width="253.636364" height="221.76"/>
  </clipPath>
 </defs>
</svg>
