<?xml version="1.0" encoding="utf-8" standalone="no"?>
<!DOCTYPE svg PUBLIC "-//W3C//DTD SVG 1.1//EN"
  "http://www.w3.org/Graphics/SVG/1.1/DTD/svg11.dtd">
<svg xmlns:xlink="http://www.w3.org/1999/xlink" width="460.8pt" height="345.6pt" viewBox="0 0 460.8 345.6" xmlns="http://www.w3.org/2000/svg" version="1.1">
 <metadata>
  <rdf:RDF xmlns:dc="http://purl.org/dc/elements/1.1/" xmlns:cc="http://creativecommons.org/ns#" xmlns:rdf="http://www.w3.org/1999/02/22-rdf-syntax-ns#">
   <cc:Work>
    <dc:type rdf:resource="http://purl.org/dc/dcmitype/StillImage"/>
    <dc:date>2025-09-26T11:56:53.514187</dc:date>
    <dc:format>image/svg+xml</dc:format>
    <dc:creator>
     <cc:Agent>
      <dc:title>Matplotlib v3.10.6, https://matplotlib.org/</dc:title>
     </cc:Agent>
    </dc:creator>
   </cc:Work>
  </rdf:RDF>
 </metadata>
 <defs>
  <style type="text/css">*{stroke-linejoin: round; stroke-linecap: butt}</style>
 </defs>
 <g id="figure_1">
  <g id="patch_1">
   <path d="M 0 345.6 
L 460.8 345.6 
L 460.8 0 
L 0 0 
z
" style="fill: #ffffff"/>
  </g>
  <g id="axes_1">
   <g id="patch_2">
    <path d="M 57.6 307.584 
L 414.72 307.584 
L 414.72 41.472 
L 57.6 41.472 
z
" style="fill: #ffffff"/>
   </g>
   <g id="matplotlib.axis_1">
    <g id="xtick_1">
     <g id="line2d_1">
      <path d="M 73.832727 307.584 
L 73.832727 41.472 
" clip-path="url(#p7bb6262495)" style="fill: none; stroke: #b0b0b0; stroke-width: 0.8; stroke-linecap: square"/>
     </g>
     <g id="line2d_2">
      <defs>
       <path id="m6cf056e078" d="M 0 0 
L 0 3.5 
" style="stroke: #000000; stroke-width: 0.8"/>
      </defs>
      <g>
       <use xlink:href="#m6cf056e078" x="73.832727" y="307.584" style="stroke: #000000; stroke-width: 0.8"/>
      </g>
     </g>
     <g id="text_1">
      <!-- 0 -->
      <g transform="translate(70.651477 322.182437) scale(0.1 -0.1)">
       <defs>
        <path id="DejaVuSans-30" d="M 2034 4250 
Q 1547 4250 1301 3770 
Q 1056 3291 1056 2328 
Q 1056 1369 1301 889 
Q 1547 409 2034 409 
Q 2525 409 2770 889 
Q 3016 1369 3016 2328 
Q 3016 3291 2770 3770 
Q 2525 4250 2034 4250 
z
M 2034 4750 
Q 2819 4750 3233 4129 
Q 3647 3509 3647 2328 
Q 3647 1150 3233 529 
Q 2819 -91 2034 -91 
Q 1250 -91 836 529 
Q 422 1150 422 2328 
Q 422 3509 836 4129 
Q 1250 4750 2034 4750 
z
" transform="scale(0.015625)"/>
       </defs>
       <use xlink:href="#DejaVuSans-30"/>
      </g>
     </g>
    </g>
    <g id="xtick_2">
     <g id="line2d_3">
      <path d="M 127.941818 307.584 
L 127.941818 41.472 
" clip-path="url(#p7bb6262495)" style="fill: none; stroke: #b0b0b0; stroke-width: 0.8; stroke-linecap: square"/>
     </g>
     <g id="line2d_4">
      <g>
       <use xlink:href="#m6cf056e078" x="127.941818" y="307.584" style="stroke: #000000; stroke-width: 0.8"/>
      </g>
     </g>
     <g id="text_2">
      <!-- 2 -->
      <g transform="translate(124.760568 322.182437) scale(0.1 -0.1)">
       <defs>
        <path id="DejaVuSans-32" d="M 1228 531 
L 3431 531 
L 3431 0 
L 469 0 
L 469 531 
Q 828 903 1448 1529 
Q 2069 2156 2228 2338 
Q 2531 2678 2651 2914 
Q 2772 3150 2772 3378 
Q 2772 3750 2511 3984 
Q 2250 4219 1831 4219 
Q 1534 4219 1204 4116 
Q 875 4013 500 3803 
L 500 4441 
Q 881 4594 1212 4672 
Q 1544 4750 1819 4750 
Q 2544 4750 2975 4387 
Q 3406 4025 3406 3419 
Q 3406 3131 3298 2873 
Q 3191 2616 2906 2266 
Q 2828 2175 2409 1742 
Q 1991 1309 1228 531 
z
" transform="scale(0.015625)"/>
       </defs>
       <use xlink:href="#DejaVuSans-32"/>
      </g>
     </g>
    </g>
    <g id="xtick_3">
     <g id="line2d_5">
      <path d="M 182.050909 307.584 
L 182.050909 41.472 
" clip-path="url(#p7bb6262495)" style="fill: none; stroke: #b0b0b0; stroke-width: 0.8; stroke-linecap: square"/>
     </g>
     <g id="line2d_6">
      <g>
       <use xlink:href="#m6cf056e078" x="182.050909" y="307.584" style="stroke: #000000; stroke-width: 0.8"/>
      </g>
     </g>
     <g id="text_3">
      <!-- 4 -->
      <g transform="translate(178.869659 322.182437) scale(0.1 -0.1)">
       <defs>
        <path id="DejaVuSans-34" d="M 2419 4116 
L 825 1625 
L 2419 1625 
L 2419 4116 
z
M 2253 4666 
L 3047 4666 
L 3047 1625 
L 3713 1625 
L 3713 1100 
L 3047 1100 
L 3047 0 
L 2419 0 
L 2419 1100 
L 313 1100 
L 313 1709 
L 2253 4666 
z
" transform="scale(0.015625)"/>
       </defs>
       <use xlink:href="#DejaVuSans-34"/>
      </g>
     </g>
    </g>
    <g id="xtick_4">
     <g id="line2d_7">
      <path d="M 236.16 307.584 
L 236.16 41.472 
" clip-path="url(#p7bb6262495)" style="fill: none; stroke: #b0b0b0; stroke-width: 0.8; stroke-linecap: square"/>
     </g>
     <g id="line2d_8">
      <g>
       <use xlink:href="#m6cf056e078" x="236.16" y="307.584" style="stroke: #000000; stroke-width: 0.8"/>
      </g>
     </g>
     <g id="text_4">
      <!-- 6 -->
      <g transform="translate(232.97875 322.182437) scale(0.1 -0.1)">
       <defs>
        <path id="DejaVuSans-36" d="M 2113 2584 
Q 1688 2584 1439 2293 
Q 1191 2003 1191 1497 
Q 1191 994 1439 701 
Q 1688 409 2113 409 
Q 2538 409 2786 701 
Q 3034 994 3034 1497 
Q 3034 2003 2786 2293 
Q 2538 2584 2113 2584 
z
M 3366 4563 
L 3366 3988 
Q 3128 4100 2886 4159 
Q 2644 4219 2406 4219 
Q 1781 4219 1451 3797 
Q 1122 3375 1075 2522 
Q 1259 2794 1537 2939 
Q 1816 3084 2150 3084 
Q 2853 3084 3261 2657 
Q 3669 2231 3669 1497 
Q 3669 778 3244 343 
Q 2819 -91 2113 -91 
Q 1303 -91 875 529 
Q 447 1150 447 2328 
Q 447 3434 972 4092 
Q 1497 4750 2381 4750 
Q 2619 4750 2861 4703 
Q 3103 4656 3366 4563 
z
" transform="scale(0.015625)"/>
       </defs>
       <use xlink:href="#DejaVuSans-36"/>
      </g>
     </g>
    </g>
    <g id="xtick_5">
     <g id="line2d_9">
      <path d="M 290.269091 307.584 
L 290.269091 41.472 
" clip-path="url(#p7bb6262495)" style="fill: none; stroke: #b0b0b0; stroke-width: 0.8; stroke-linecap: square"/>
     </g>
     <g id="line2d_10">
      <g>
       <use xlink:href="#m6cf056e078" x="290.269091" y="307.584" style="stroke: #000000; stroke-width: 0.8"/>
      </g>
     </g>
     <g id="text_5">
      <!-- 8 -->
      <g transform="translate(287.087841 322.182437) scale(0.1 -0.1)">
       <defs>
        <path id="DejaVuSans-38" d="M 2034 2216 
Q 1584 2216 1326 1975 
Q 1069 1734 1069 1313 
Q 1069 891 1326 650 
Q 1584 409 2034 409 
Q 2484 409 2743 651 
Q 3003 894 3003 1313 
Q 3003 1734 2745 1975 
Q 2488 2216 2034 2216 
z
M 1403 2484 
Q 997 2584 770 2862 
Q 544 3141 544 3541 
Q 544 4100 942 4425 
Q 1341 4750 2034 4750 
Q 2731 4750 3128 4425 
Q 3525 4100 3525 3541 
Q 3525 3141 3298 2862 
Q 3072 2584 2669 2484 
Q 3125 2378 3379 2068 
Q 3634 1759 3634 1313 
Q 3634 634 3220 271 
Q 2806 -91 2034 -91 
Q 1263 -91 848 271 
Q 434 634 434 1313 
Q 434 1759 690 2068 
Q 947 2378 1403 2484 
z
M 1172 3481 
Q 1172 3119 1398 2916 
Q 1625 2713 2034 2713 
Q 2441 2713 2670 2916 
Q 2900 3119 2900 3481 
Q 2900 3844 2670 4047 
Q 2441 4250 2034 4250 
Q 1625 4250 1398 4047 
Q 1172 3844 1172 3481 
z
" transform="scale(0.015625)"/>
       </defs>
       <use xlink:href="#DejaVuSans-38"/>
      </g>
     </g>
    </g>
    <g id="xtick_6">
     <g id="line2d_11">
      <path d="M 344.378182 307.584 
L 344.378182 41.472 
" clip-path="url(#p7bb6262495)" style="fill: none; stroke: #b0b0b0; stroke-width: 0.8; stroke-linecap: square"/>
     </g>
     <g id="line2d_12">
      <g>
       <use xlink:href="#m6cf056e078" x="344.378182" y="307.584" style="stroke: #000000; stroke-width: 0.8"/>
      </g>
     </g>
     <g id="text_6">
      <!-- 10 -->
      <g transform="translate(338.015682 322.182437) scale(0.1 -0.1)">
       <defs>
        <path id="DejaVuSans-31" d="M 794 531 
L 1825 531 
L 1825 4091 
L 703 3866 
L 703 4441 
L 1819 4666 
L 2450 4666 
L 2450 531 
L 3481 531 
L 3481 0 
L 794 0 
L 794 531 
z
" transform="scale(0.015625)"/>
       </defs>
       <use xlink:href="#DejaVuSans-31"/>
       <use xlink:href="#DejaVuSans-30" transform="translate(63.623047 0)"/>
      </g>
     </g>
    </g>
    <g id="xtick_7">
     <g id="line2d_13">
      <path d="M 398.487273 307.584 
L 398.487273 41.472 
" clip-path="url(#p7bb6262495)" style="fill: none; stroke: #b0b0b0; stroke-width: 0.8; stroke-linecap: square"/>
     </g>
     <g id="line2d_14">
      <g>
       <use xlink:href="#m6cf056e078" x="398.487273" y="307.584" style="stroke: #000000; stroke-width: 0.8"/>
      </g>
     </g>
     <g id="text_7">
      <!-- 12 -->
      <g transform="translate(392.124773 322.182437) scale(0.1 -0.1)">
       <use xlink:href="#DejaVuSans-31"/>
       <use xlink:href="#DejaVuSans-32" transform="translate(63.623047 0)"/>
      </g>
     </g>
    </g>
    <g id="text_8">
     <!-- X -->
     <g transform="translate(232.735 335.860562) scale(0.1 -0.1)">
      <defs>
       <path id="DejaVuSans-58" d="M 403 4666 
L 1081 4666 
L 2241 2931 
L 3406 4666 
L 4084 4666 
L 2584 2425 
L 4184 0 
L 3506 0 
L 2194 1984 
L 872 0 
L 191 0 
L 1856 2491 
L 403 4666 
z
" transform="scale(0.015625)"/>
      </defs>
      <use xlink:href="#DejaVuSans-58"/>
     </g>
    </g>
   </g>
   <g id="matplotlib.axis_2">
    <g id="ytick_1">
     <g id="line2d_15">
      <path d="M 57.6 266.084982 
L 414.72 266.084982 
" clip-path="url(#p7bb6262495)" style="fill: none; stroke: #b0b0b0; stroke-width: 0.8; stroke-linecap: square"/>
     </g>
     <g id="line2d_16">
      <defs>
       <path id="md4a70fd950" d="M 0 0 
L -3.5 0 
" style="stroke: #000000; stroke-width: 0.8"/>
      </defs>
      <g>
       <use xlink:href="#md4a70fd950" x="57.6" y="266.084982" style="stroke: #000000; stroke-width: 0.8"/>
      </g>
     </g>
     <g id="text_9">
      <!-- −10 -->
      <g transform="translate(29.495313 269.884201) scale(0.1 -0.1)">
       <defs>
        <path id="DejaVuSans-2212" d="M 678 2272 
L 4684 2272 
L 4684 1741 
L 678 1741 
L 678 2272 
z
" transform="scale(0.015625)"/>
       </defs>
       <use xlink:href="#DejaVuSans-2212"/>
       <use xlink:href="#DejaVuSans-31" transform="translate(83.789062 0)"/>
       <use xlink:href="#DejaVuSans-30" transform="translate(147.412109 0)"/>
      </g>
     </g>
    </g>
    <g id="ytick_2">
     <g id="line2d_17">
      <path d="M 57.6 209.683952 
L 414.72 209.683952 
" clip-path="url(#p7bb6262495)" style="fill: none; stroke: #b0b0b0; stroke-width: 0.8; stroke-linecap: square"/>
     </g>
     <g id="line2d_18">
      <g>
       <use xlink:href="#md4a70fd950" x="57.6" y="209.683952" style="stroke: #000000; stroke-width: 0.8"/>
      </g>
     </g>
     <g id="text_10">
      <!-- −5 -->
      <g transform="translate(35.857813 213.483171) scale(0.1 -0.1)">
       <defs>
        <path id="DejaVuSans-35" d="M 691 4666 
L 3169 4666 
L 3169 4134 
L 1269 4134 
L 1269 2991 
Q 1406 3038 1543 3061 
Q 1681 3084 1819 3084 
Q 2600 3084 3056 2656 
Q 3513 2228 3513 1497 
Q 3513 744 3044 326 
Q 2575 -91 1722 -91 
Q 1428 -91 1123 -41 
Q 819 9 494 109 
L 494 744 
Q 775 591 1075 516 
Q 1375 441 1709 441 
Q 2250 441 2565 725 
Q 2881 1009 2881 1497 
Q 2881 1984 2565 2268 
Q 2250 2553 1709 2553 
Q 1456 2553 1204 2497 
Q 953 2441 691 2322 
L 691 4666 
z
" transform="scale(0.015625)"/>
       </defs>
       <use xlink:href="#DejaVuSans-2212"/>
       <use xlink:href="#DejaVuSans-35" transform="translate(83.789062 0)"/>
      </g>
     </g>
    </g>
    <g id="ytick_3">
     <g id="line2d_19">
      <path d="M 57.6 153.282921 
L 414.72 153.282921 
" clip-path="url(#p7bb6262495)" style="fill: none; stroke: #b0b0b0; stroke-width: 0.8; stroke-linecap: square"/>
     </g>
     <g id="line2d_20">
      <g>
       <use xlink:href="#md4a70fd950" x="57.6" y="153.282921" style="stroke: #000000; stroke-width: 0.8"/>
      </g>
     </g>
     <g id="text_11">
      <!-- 0 -->
      <g transform="translate(44.2375 157.08214) scale(0.1 -0.1)">
       <use xlink:href="#DejaVuSans-30"/>
      </g>
     </g>
    </g>
    <g id="ytick_4">
     <g id="line2d_21">
      <path d="M 57.6 96.881891 
L 414.72 96.881891 
" clip-path="url(#p7bb6262495)" style="fill: none; stroke: #b0b0b0; stroke-width: 0.8; stroke-linecap: square"/>
     </g>
     <g id="line2d_22">
      <g>
       <use xlink:href="#md4a70fd950" x="57.6" y="96.881891" style="stroke: #000000; stroke-width: 0.8"/>
      </g>
     </g>
     <g id="text_12">
      <!-- 5 -->
      <g transform="translate(44.2375 100.68111) scale(0.1 -0.1)">
       <use xlink:href="#DejaVuSans-35"/>
      </g>
     </g>
    </g>
    <g id="text_13">
     <!-- Y -->
     <g transform="translate(23.415625 177.581906) rotate(-90) scale(0.1 -0.1)">
      <defs>
       <path id="DejaVuSans-59" d="M -13 4666 
L 666 4666 
L 1959 2747 
L 3244 4666 
L 3922 4666 
L 2272 2222 
L 2272 0 
L 1638 0 
L 1638 2222 
L -13 4666 
z
" transform="scale(0.015625)"/>
      </defs>
      <use xlink:href="#DejaVuSans-59"/>
     </g>
    </g>
   </g>
   <g id="line2d_23">
    <path d="M 73.832727 153.282921 
L 77.112066 153.117594 
L 80.391405 152.626464 
L 83.670744 151.82398 
L 86.950083 150.733872 
L 90.229421 149.388624 
L 93.50876 147.828758 
L 96.788099 146.101933 
L 100.067438 144.261881 
L 103.346777 142.367206 
L 106.626116 140.480055 
L 109.905455 138.664708 
L 113.184793 136.986092 
L 116.464132 135.50827 
L 119.743471 134.292921 
L 123.02281 133.397847 
L 126.302149 132.875543 
L 129.581488 132.771842 
L 132.860826 133.124688 
L 136.140165 133.963042 
L 139.419504 135.305958 
L 142.698843 137.16184 
L 145.978182 139.52791 
L 149.257521 142.389886 
L 152.53686 145.721896 
L 155.816198 149.486618 
L 159.095537 153.635658 
L 162.374876 158.11016 
L 165.654215 162.841642 
L 168.933554 167.753038 
L 172.212893 172.759945 
L 175.492231 177.772041 
L 178.77157 182.694656 
L 182.050909 187.430474 
L 185.330248 191.881328 
L 188.609587 195.95006 
L 191.888926 199.542417 
L 195.168264 202.568937 
L 198.447603 204.946804 
L 201.726942 206.601626 
L 205.006281 207.469107 
L 208.28562 207.496577 
L 211.564959 206.644349 
L 214.844298 204.886882 
L 218.123636 202.213712 
L 221.402975 198.630135 
L 224.682314 194.157632 
L 227.961653 188.834008 
L 231.240992 182.713245 
L 234.520331 175.865063 
L 237.799669 168.374195 
L 241.079008 160.339373 
L 244.358347 151.872045 
L 247.637686 143.094831 
L 250.917025 134.13975 
L 254.196364 125.146235 
L 257.475702 116.25897 
L 260.755041 107.62558 
L 264.03438 99.39421 
L 267.313719 91.711039 
L 270.593058 84.717762 
L 273.872397 78.549083 
L 277.151736 73.330273 
L 280.431074 69.174815 
L 283.710413 66.182203 
L 286.989752 64.435913 
L 290.269091 64.001602 
L 293.54843 64.925551 
L 296.827769 67.233404 
L 300.107107 70.929216 
L 303.386446 75.994839 
L 306.665785 82.389653 
L 309.945124 90.050672 
L 313.224463 98.893017 
L 316.503802 108.81075 
L 319.78314 119.678089 
L 323.062479 131.350956 
L 326.341818 143.668867 
L 329.621157 156.457133 
L 332.900496 169.529327 
L 336.179835 182.690009 
L 339.459174 195.737641 
L 342.738512 208.467671 
L 346.017851 220.675728 
L 349.29719 232.160875 
L 352.576529 242.728879 
L 355.855868 252.195439 
L 359.135207 260.389321 
L 362.414545 267.155339 
L 365.693884 272.357154 
L 368.973223 275.879808 
L 372.252562 277.631987 
L 375.531901 277.547938 
L 378.81124 275.589021 
L 382.090579 271.744861 
L 385.369917 266.034079 
L 388.649256 258.504567 
L 391.928595 249.233316 
L 395.207934 238.325776 
L 398.487273 225.914759 
" clip-path="url(#p7bb6262495)" style="fill: none; stroke: #000000; stroke-linecap: square"/>
   </g>
   <g id="PathCollection_1">
    <defs>
     <path id="m2a88495686" d="M -3 0 
L 3 0 
M 0 3 
L 0 -3 
" style="stroke: #ff0000; stroke-width: 1.5"/>
    </defs>
    <g clip-path="url(#p7bb6262495)">
     <use xlink:href="#m2a88495686" x="79.243636" y="155.292524" style="fill: #ff0000; stroke: #ff0000; stroke-width: 1.5"/>
     <use xlink:href="#m2a88495686" x="94.906794" y="123.173859" style="fill: #ff0000; stroke: #ff0000; stroke-width: 1.5"/>
     <use xlink:href="#m2a88495686" x="110.569952" y="151.972985" style="fill: #ff0000; stroke: #ff0000; stroke-width: 1.5"/>
     <use xlink:href="#m2a88495686" x="126.23311" y="131.514694" style="fill: #ff0000; stroke: #ff0000; stroke-width: 1.5"/>
     <use xlink:href="#m2a88495686" x="141.896268" y="134.095759" style="fill: #ff0000; stroke: #ff0000; stroke-width: 1.5"/>
     <use xlink:href="#m2a88495686" x="157.559426" y="135.276307" style="fill: #ff0000; stroke: #ff0000; stroke-width: 1.5"/>
     <use xlink:href="#m2a88495686" x="173.222584" y="173.446718" style="fill: #ff0000; stroke: #ff0000; stroke-width: 1.5"/>
     <use xlink:href="#m2a88495686" x="188.885742" y="222.011453" style="fill: #ff0000; stroke: #ff0000; stroke-width: 1.5"/>
     <use xlink:href="#m2a88495686" x="204.5489" y="180.456628" style="fill: #ff0000; stroke: #ff0000; stroke-width: 1.5"/>
     <use xlink:href="#m2a88495686" x="220.212057" y="236.653539" style="fill: #ff0000; stroke: #ff0000; stroke-width: 1.5"/>
     <use xlink:href="#m2a88495686" x="235.875215" y="186.691092" style="fill: #ff0000; stroke: #ff0000; stroke-width: 1.5"/>
     <use xlink:href="#m2a88495686" x="251.538373" y="120.003174" style="fill: #ff0000; stroke: #ff0000; stroke-width: 1.5"/>
     <use xlink:href="#m2a88495686" x="267.201531" y="53.568" style="fill: #ff0000; stroke: #ff0000; stroke-width: 1.5"/>
     <use xlink:href="#m2a88495686" x="282.864689" y="62.866868" style="fill: #ff0000; stroke: #ff0000; stroke-width: 1.5"/>
     <use xlink:href="#m2a88495686" x="298.527847" y="82.760162" style="fill: #ff0000; stroke: #ff0000; stroke-width: 1.5"/>
     <use xlink:href="#m2a88495686" x="314.191005" y="107.210773" style="fill: #ff0000; stroke: #ff0000; stroke-width: 1.5"/>
     <use xlink:href="#m2a88495686" x="329.854163" y="154.713294" style="fill: #ff0000; stroke: #ff0000; stroke-width: 1.5"/>
     <use xlink:href="#m2a88495686" x="345.517321" y="220.721244" style="fill: #ff0000; stroke: #ff0000; stroke-width: 1.5"/>
     <use xlink:href="#m2a88495686" x="361.180478" y="283.082075" style="fill: #ff0000; stroke: #ff0000; stroke-width: 1.5"/>
     <use xlink:href="#m2a88495686" x="376.843636" y="295.488" style="fill: #ff0000; stroke: #ff0000; stroke-width: 1.5"/>
    </g>
   </g>
   <g id="line2d_24">
    <path d="M 73.832727 158.254301 
L 77.112066 154.363964 
L 80.391405 149.742744 
L 83.670744 144.592966 
L 86.950083 139.588451 
L 90.229421 135.455124 
L 93.50876 132.957334 
L 96.788099 132.858617 
L 100.067438 134.920441 
L 103.346777 138.085909 
L 106.626116 141.31859 
L 109.905455 143.594442 
L 113.184793 144.019111 
L 116.464132 142.780243 
L 119.743471 140.530989 
L 123.02281 137.902671 
L 126.302149 135.523664 
L 129.581488 133.881695 
L 132.860826 132.901274 
L 136.140165 132.399806 
L 139.419504 132.222026 
L 142.698843 132.236049 
L 145.978182 132.457459 
L 149.257521 133.175592 
L 152.53686 134.737593 
L 155.816198 137.529869 
L 159.095537 141.973769 
L 162.374876 148.109068 
L 165.654215 155.555704 
L 168.933554 163.959936 
L 172.212893 173.004979 
L 175.492231 182.368665 
L 178.77157 191.424719 
L 182.050909 199.345044 
L 185.330248 205.257342 
L 188.609587 208.21689 
L 191.888926 207.562166 
L 195.168264 204.5094 
L 198.447603 200.830822 
L 201.726942 198.270604 
L 205.006281 198.601129 
L 208.28562 202.716112 
L 211.564959 209.060656 
L 214.844298 215.726412 
L 218.123636 220.806584 
L 221.402975 222.356701 
L 224.682314 219.543079 
L 227.961653 213.15069 
L 231.240992 203.971379 
L 234.520331 192.695216 
L 237.799669 179.929134 
L 241.079008 166.122984 
L 244.358347 151.60883 
L 247.637686 136.695765 
L 250.917025 121.686289 
L 254.196364 106.912789 
L 257.475702 92.891145 
L 260.755041 80.250618 
L 264.03438 69.688581 
L 267.313719 61.996568 
L 270.593058 57.736946 
L 273.872397 56.342092 
L 277.151736 57.083684 
L 280.431074 59.335945 
L 283.710413 62.555628 
L 286.989752 66.348383 
L 290.269091 70.532128 
L 293.54843 74.985396 
L 296.827769 79.624033 
L 300.107107 84.400008 
L 303.386446 89.36586 
L 306.665785 94.678589 
L 309.945124 100.533429 
L 313.224463 107.165362 
L 316.503802 114.828153 
L 319.78314 123.552616 
L 323.062479 133.260878 
L 326.341818 143.919552 
L 329.621157 155.537993 
L 332.900496 168.115844 
L 336.179835 181.442203 
L 339.459174 195.256447 
L 342.738512 209.31243 
L 346.017851 223.366613 
L 349.29719 237.137755 
L 352.576529 250.249467 
L 355.855868 262.275625 
L 359.135207 272.734255 
L 362.414545 281.077972 
L 365.693884 287.093223 
L 368.973223 291.055658 
L 372.252562 293.186758 
L 375.531901 293.616591 
L 378.81124 292.404733 
L 382.090579 289.783095 
L 385.369917 286.104386 
L 388.649256 281.660808 
L 391.928595 276.689568 
L 395.207934 271.381876 
L 398.487273 265.89058 
" clip-path="url(#p7bb6262495)" style="fill: none; stroke-dasharray: 3.7,1.6; stroke-dashoffset: 0; stroke: #0000ff"/>
   </g>
   <g id="patch_3">
    <path d="M 57.6 307.584 
L 57.6 41.472 
" style="fill: none; stroke: #000000; stroke-width: 0.8; stroke-linejoin: miter; stroke-linecap: square"/>
   </g>
   <g id="patch_4">
    <path d="M 414.72 307.584 
L 414.72 41.472 
" style="fill: none; stroke: #000000; stroke-width: 0.8; stroke-linejoin: miter; stroke-linecap: square"/>
   </g>
   <g id="patch_5">
    <path d="M 57.6 307.584 
L 414.72 307.584 
" style="fill: none; stroke: #000000; stroke-width: 0.8; stroke-linejoin: miter; stroke-linecap: square"/>
   </g>
   <g id="patch_6">
    <path d="M 57.6 41.472 
L 414.72 41.472 
" style="fill: none; stroke: #000000; stroke-width: 0.8; stroke-linejoin: miter; stroke-linecap: square"/>
   </g>
   <g id="line2d_25">
    <path d="M 73.832727 158.254301 
L 77.112066 154.363964 
L 80.391405 149.742744 
L 83.670744 144.592966 
L 86.950083 139.588451 
L 90.229421 135.455124 
L 93.50876 132.957334 
L 96.788099 132.858617 
L 100.067438 134.920441 
L 103.346777 138.085909 
L 106.626116 141.31859 
L 109.905455 143.594442 
L 113.184793 144.019111 
L 116.464132 142.780243 
L 119.743471 140.530989 
L 123.02281 137.902671 
L 126.302149 135.523664 
L 129.581488 133.881695 
L 132.860826 132.901274 
L 136.140165 132.399806 
L 139.419504 132.222026 
L 142.698843 132.236049 
L 145.978182 132.457459 
L 149.257521 133.175592 
L 152.53686 134.737593 
L 155.816198 137.529869 
L 159.095537 141.973769 
L 162.374876 148.109068 
L 165.654215 155.555704 
L 168.933554 163.959936 
L 172.212893 173.004979 
L 175.492231 182.368665 
L 178.77157 191.424719 
L 182.050909 199.345044 
L 185.330248 205.257342 
L 188.609587 208.21689 
L 191.888926 207.562166 
L 195.168264 204.5094 
L 198.447603 200.830822 
L 201.726942 198.270604 
L 205.006281 198.601129 
L 208.28562 202.716112 
L 211.564959 209.060656 
L 214.844298 215.726412 
L 218.123636 220.806584 
L 221.402975 222.356701 
L 224.682314 219.543079 
L 227.961653 213.15069 
L 231.240992 203.971379 
L 234.520331 192.695216 
L 237.799669 179.929134 
L 241.079008 166.122984 
L 244.358347 151.60883 
L 247.637686 136.695765 
L 250.917025 121.686289 
L 254.196364 106.912789 
L 257.475702 92.891145 
L 260.755041 80.250618 
L 264.03438 69.688581 
L 267.313719 61.996568 
L 270.593058 57.736946 
L 273.872397 56.342092 
L 277.151736 57.083684 
L 280.431074 59.335945 
L 283.710413 62.555628 
L 286.989752 66.348383 
L 290.269091 70.532128 
L 293.54843 74.985396 
L 296.827769 79.624033 
L 300.107107 84.400008 
L 303.386446 89.36586 
L 306.665785 94.678589 
L 309.945124 100.533429 
L 313.224463 107.165362 
L 316.503802 114.828153 
L 319.78314 123.552616 
L 323.062479 133.260878 
L 326.341818 143.919552 
L 329.621157 155.537993 
L 332.900496 168.115844 
L 336.179835 181.442203 
L 339.459174 195.256447 
L 342.738512 209.31243 
L 346.017851 223.366613 
L 349.29719 237.137755 
L 352.576529 250.249467 
L 355.855868 262.275625 
L 359.135207 272.734255 
L 362.414545 281.077972 
L 365.693884 287.093223 
L 368.973223 291.055658 
L 372.252562 293.186758 
L 375.531901 293.616591 
L 378.81124 292.404733 
L 382.090579 289.783095 
L 385.369917 286.104386 
L 388.649256 281.660808 
L 391.928595 276.689568 
L 395.207934 271.381876 
L 398.487273 265.89058 
" clip-path="url(#p7bb6262495)" style="fill: none; stroke-dasharray: 6.4,1.6,1,1.6; stroke-dashoffset: 0; stroke: #00ff00"/>
   </g>
   <g id="legend_1">
    <g id="patch_7">
     <path d="M 324.510625 110.1845 
L 409.72 110.1845 
Q 411.72 110.1845 411.72 108.1845 
L 411.72 50.472 
Q 411.72 48.472 409.72 48.472 
L 324.510625 48.472 
Q 322.510625 48.472 322.510625 50.472 
L 322.510625 108.1845 
Q 322.510625 110.1845 324.510625 110.1845 
z
" style="fill: #4d4d4d; opacity: 0.5; stroke: #4d4d4d; stroke-linejoin: miter"/>
    </g>
    <g id="patch_8">
     <path d="M 322.510625 108.1845 
L 407.72 108.1845 
Q 409.72 108.1845 409.72 106.1845 
L 409.72 48.472 
Q 409.72 46.472 407.72 46.472 
L 322.510625 46.472 
Q 320.510625 46.472 320.510625 48.472 
L 320.510625 106.1845 
Q 320.510625 108.1845 322.510625 108.1845 
z
" style="fill: #ffffff; stroke: #cccccc; stroke-linejoin: miter"/>
    </g>
    <g id="line2d_26">
     <path d="M 324.510625 54.570438 
L 334.510625 54.570438 
L 344.510625 54.570438 
" style="fill: none; stroke: #000000; stroke-linecap: square"/>
    </g>
    <g id="text_14">
     <!-- Exact -->
     <g transform="translate(352.510625 58.070438) scale(0.1 -0.1)">
      <defs>
       <path id="DejaVuSans-45" d="M 628 4666 
L 3578 4666 
L 3578 4134 
L 1259 4134 
L 1259 2753 
L 3481 2753 
L 3481 2222 
L 1259 2222 
L 1259 531 
L 3634 531 
L 3634 0 
L 628 0 
L 628 4666 
z
" transform="scale(0.015625)"/>
       <path id="DejaVuSans-78" d="M 3513 3500 
L 2247 1797 
L 3578 0 
L 2900 0 
L 1881 1375 
L 863 0 
L 184 0 
L 1544 1831 
L 300 3500 
L 978 3500 
L 1906 2253 
L 2834 3500 
L 3513 3500 
z
" transform="scale(0.015625)"/>
       <path id="DejaVuSans-61" d="M 2194 1759 
Q 1497 1759 1228 1600 
Q 959 1441 959 1056 
Q 959 750 1161 570 
Q 1363 391 1709 391 
Q 2188 391 2477 730 
Q 2766 1069 2766 1631 
L 2766 1759 
L 2194 1759 
z
M 3341 1997 
L 3341 0 
L 2766 0 
L 2766 531 
Q 2569 213 2275 61 
Q 1981 -91 1556 -91 
Q 1019 -91 701 211 
Q 384 513 384 1019 
Q 384 1609 779 1909 
Q 1175 2209 1959 2209 
L 2766 2209 
L 2766 2266 
Q 2766 2663 2505 2880 
Q 2244 3097 1772 3097 
Q 1472 3097 1187 3025 
Q 903 2953 641 2809 
L 641 3341 
Q 956 3463 1253 3523 
Q 1550 3584 1831 3584 
Q 2591 3584 2966 3190 
Q 3341 2797 3341 1997 
z
" transform="scale(0.015625)"/>
       <path id="DejaVuSans-63" d="M 3122 3366 
L 3122 2828 
Q 2878 2963 2633 3030 
Q 2388 3097 2138 3097 
Q 1578 3097 1268 2742 
Q 959 2388 959 1747 
Q 959 1106 1268 751 
Q 1578 397 2138 397 
Q 2388 397 2633 464 
Q 2878 531 3122 666 
L 3122 134 
Q 2881 22 2623 -34 
Q 2366 -91 2075 -91 
Q 1284 -91 818 406 
Q 353 903 353 1747 
Q 353 2603 823 3093 
Q 1294 3584 2113 3584 
Q 2378 3584 2631 3529 
Q 2884 3475 3122 3366 
z
" transform="scale(0.015625)"/>
       <path id="DejaVuSans-74" d="M 1172 4494 
L 1172 3500 
L 2356 3500 
L 2356 3053 
L 1172 3053 
L 1172 1153 
Q 1172 725 1289 603 
Q 1406 481 1766 481 
L 2356 481 
L 2356 0 
L 1766 0 
Q 1100 0 847 248 
Q 594 497 594 1153 
L 594 3053 
L 172 3053 
L 172 3500 
L 594 3500 
L 594 4494 
L 1172 4494 
z
" transform="scale(0.015625)"/>
      </defs>
      <use xlink:href="#DejaVuSans-45"/>
      <use xlink:href="#DejaVuSans-78" transform="translate(63.183594 0)"/>
      <use xlink:href="#DejaVuSans-61" transform="translate(122.363281 0)"/>
      <use xlink:href="#DejaVuSans-63" transform="translate(183.642578 0)"/>
      <use xlink:href="#DejaVuSans-74" transform="translate(238.623047 0)"/>
     </g>
    </g>
    <g id="PathCollection_2">
     <g>
      <use xlink:href="#m2a88495686" x="334.510625" y="70.123563" style="fill: #ff0000; stroke: #ff0000; stroke-width: 1.5"/>
     </g>
    </g>
    <g id="text_15">
     <!-- Noisy data -->
     <g transform="translate(352.510625 72.748563) scale(0.1 -0.1)">
      <defs>
       <path id="DejaVuSans-4e" d="M 628 4666 
L 1478 4666 
L 3547 763 
L 3547 4666 
L 4159 4666 
L 4159 0 
L 3309 0 
L 1241 3903 
L 1241 0 
L 628 0 
L 628 4666 
z
" transform="scale(0.015625)"/>
       <path id="DejaVuSans-6f" d="M 1959 3097 
Q 1497 3097 1228 2736 
Q 959 2375 959 1747 
Q 959 1119 1226 758 
Q 1494 397 1959 397 
Q 2419 397 2687 759 
Q 2956 1122 2956 1747 
Q 2956 2369 2687 2733 
Q 2419 3097 1959 3097 
z
M 1959 3584 
Q 2709 3584 3137 3096 
Q 3566 2609 3566 1747 
Q 3566 888 3137 398 
Q 2709 -91 1959 -91 
Q 1206 -91 779 398 
Q 353 888 353 1747 
Q 353 2609 779 3096 
Q 1206 3584 1959 3584 
z
" transform="scale(0.015625)"/>
       <path id="DejaVuSans-69" d="M 603 3500 
L 1178 3500 
L 1178 0 
L 603 0 
L 603 3500 
z
M 603 4863 
L 1178 4863 
L 1178 4134 
L 603 4134 
L 603 4863 
z
" transform="scale(0.015625)"/>
       <path id="DejaVuSans-73" d="M 2834 3397 
L 2834 2853 
Q 2591 2978 2328 3040 
Q 2066 3103 1784 3103 
Q 1356 3103 1142 2972 
Q 928 2841 928 2578 
Q 928 2378 1081 2264 
Q 1234 2150 1697 2047 
L 1894 2003 
Q 2506 1872 2764 1633 
Q 3022 1394 3022 966 
Q 3022 478 2636 193 
Q 2250 -91 1575 -91 
Q 1294 -91 989 -36 
Q 684 19 347 128 
L 347 722 
Q 666 556 975 473 
Q 1284 391 1588 391 
Q 1994 391 2212 530 
Q 2431 669 2431 922 
Q 2431 1156 2273 1281 
Q 2116 1406 1581 1522 
L 1381 1569 
Q 847 1681 609 1914 
Q 372 2147 372 2553 
Q 372 3047 722 3315 
Q 1072 3584 1716 3584 
Q 2034 3584 2315 3537 
Q 2597 3491 2834 3397 
z
" transform="scale(0.015625)"/>
       <path id="DejaVuSans-79" d="M 2059 -325 
Q 1816 -950 1584 -1140 
Q 1353 -1331 966 -1331 
L 506 -1331 
L 506 -850 
L 844 -850 
Q 1081 -850 1212 -737 
Q 1344 -625 1503 -206 
L 1606 56 
L 191 3500 
L 800 3500 
L 1894 763 
L 2988 3500 
L 3597 3500 
L 2059 -325 
z
" transform="scale(0.015625)"/>
       <path id="DejaVuSans-20" transform="scale(0.015625)"/>
       <path id="DejaVuSans-64" d="M 2906 2969 
L 2906 4863 
L 3481 4863 
L 3481 0 
L 2906 0 
L 2906 525 
Q 2725 213 2448 61 
Q 2172 -91 1784 -91 
Q 1150 -91 751 415 
Q 353 922 353 1747 
Q 353 2572 751 3078 
Q 1150 3584 1784 3584 
Q 2172 3584 2448 3432 
Q 2725 3281 2906 2969 
z
M 947 1747 
Q 947 1113 1208 752 
Q 1469 391 1925 391 
Q 2381 391 2643 752 
Q 2906 1113 2906 1747 
Q 2906 2381 2643 2742 
Q 2381 3103 1925 3103 
Q 1469 3103 1208 2742 
Q 947 2381 947 1747 
z
" transform="scale(0.015625)"/>
      </defs>
      <use xlink:href="#DejaVuSans-4e"/>
      <use xlink:href="#DejaVuSans-6f" transform="translate(74.804688 0)"/>
      <use xlink:href="#DejaVuSans-69" transform="translate(135.986328 0)"/>
      <use xlink:href="#DejaVuSans-73" transform="translate(163.769531 0)"/>
      <use xlink:href="#DejaVuSans-79" transform="translate(215.869141 0)"/>
      <use xlink:href="#DejaVuSans-20" transform="translate(275.048828 0)"/>
      <use xlink:href="#DejaVuSans-64" transform="translate(306.835938 0)"/>
      <use xlink:href="#DejaVuSans-61" transform="translate(370.3125 0)"/>
      <use xlink:href="#DejaVuSans-74" transform="translate(431.591797 0)"/>
      <use xlink:href="#DejaVuSans-61" transform="translate(470.800781 0)"/>
     </g>
    </g>
    <g id="line2d_27">
     <path d="M 324.510625 83.926688 
L 334.510625 83.926688 
L 344.510625 83.926688 
" style="fill: none; stroke-dasharray: 3.7,1.6; stroke-dashoffset: 0; stroke: #0000ff"/>
    </g>
    <g id="text_16">
     <!-- Kriging -->
     <g transform="translate(352.510625 87.426688) scale(0.1 -0.1)">
      <defs>
       <path id="DejaVuSans-4b" d="M 628 4666 
L 1259 4666 
L 1259 2694 
L 3353 4666 
L 4166 4666 
L 1850 2491 
L 4331 0 
L 3500 0 
L 1259 2247 
L 1259 0 
L 628 0 
L 628 4666 
z
" transform="scale(0.015625)"/>
       <path id="DejaVuSans-72" d="M 2631 2963 
Q 2534 3019 2420 3045 
Q 2306 3072 2169 3072 
Q 1681 3072 1420 2755 
Q 1159 2438 1159 1844 
L 1159 0 
L 581 0 
L 581 3500 
L 1159 3500 
L 1159 2956 
Q 1341 3275 1631 3429 
Q 1922 3584 2338 3584 
Q 2397 3584 2469 3576 
Q 2541 3569 2628 3553 
L 2631 2963 
z
" transform="scale(0.015625)"/>
       <path id="DejaVuSans-67" d="M 2906 1791 
Q 2906 2416 2648 2759 
Q 2391 3103 1925 3103 
Q 1463 3103 1205 2759 
Q 947 2416 947 1791 
Q 947 1169 1205 825 
Q 1463 481 1925 481 
Q 2391 481 2648 825 
Q 2906 1169 2906 1791 
z
M 3481 434 
Q 3481 -459 3084 -895 
Q 2688 -1331 1869 -1331 
Q 1566 -1331 1297 -1286 
Q 1028 -1241 775 -1147 
L 775 -588 
Q 1028 -725 1275 -790 
Q 1522 -856 1778 -856 
Q 2344 -856 2625 -561 
Q 2906 -266 2906 331 
L 2906 616 
Q 2728 306 2450 153 
Q 2172 0 1784 0 
Q 1141 0 747 490 
Q 353 981 353 1791 
Q 353 2603 747 3093 
Q 1141 3584 1784 3584 
Q 2172 3584 2450 3431 
Q 2728 3278 2906 2969 
L 2906 3500 
L 3481 3500 
L 3481 434 
z
" transform="scale(0.015625)"/>
       <path id="DejaVuSans-6e" d="M 3513 2113 
L 3513 0 
L 2938 0 
L 2938 2094 
Q 2938 2591 2744 2837 
Q 2550 3084 2163 3084 
Q 1697 3084 1428 2787 
Q 1159 2491 1159 1978 
L 1159 0 
L 581 0 
L 581 3500 
L 1159 3500 
L 1159 2956 
Q 1366 3272 1645 3428 
Q 1925 3584 2291 3584 
Q 2894 3584 3203 3211 
Q 3513 2838 3513 2113 
z
" transform="scale(0.015625)"/>
      </defs>
      <use xlink:href="#DejaVuSans-4b"/>
      <use xlink:href="#DejaVuSans-72" transform="translate(65.576172 0)"/>
      <use xlink:href="#DejaVuSans-69" transform="translate(106.689453 0)"/>
      <use xlink:href="#DejaVuSans-67" transform="translate(134.472656 0)"/>
      <use xlink:href="#DejaVuSans-69" transform="translate(197.949219 0)"/>
      <use xlink:href="#DejaVuSans-6e" transform="translate(225.732422 0)"/>
      <use xlink:href="#DejaVuSans-67" transform="translate(289.111328 0)"/>
     </g>
    </g>
    <g id="line2d_28">
     <path d="M 324.510625 98.604813 
L 334.510625 98.604813 
L 344.510625 98.604813 
" style="fill: none; stroke-dasharray: 6.4,1.6,1,1.6; stroke-dashoffset: 0; stroke: #00ff00"/>
    </g>
    <g id="text_17">
     <!-- GPR -->
     <g transform="translate(352.510625 102.104813) scale(0.1 -0.1)">
      <defs>
       <path id="DejaVuSans-47" d="M 3809 666 
L 3809 1919 
L 2778 1919 
L 2778 2438 
L 4434 2438 
L 4434 434 
Q 4069 175 3628 42 
Q 3188 -91 2688 -91 
Q 1594 -91 976 548 
Q 359 1188 359 2328 
Q 359 3472 976 4111 
Q 1594 4750 2688 4750 
Q 3144 4750 3555 4637 
Q 3966 4525 4313 4306 
L 4313 3634 
Q 3963 3931 3569 4081 
Q 3175 4231 2741 4231 
Q 1884 4231 1454 3753 
Q 1025 3275 1025 2328 
Q 1025 1384 1454 906 
Q 1884 428 2741 428 
Q 3075 428 3337 486 
Q 3600 544 3809 666 
z
" transform="scale(0.015625)"/>
       <path id="DejaVuSans-50" d="M 1259 4147 
L 1259 2394 
L 2053 2394 
Q 2494 2394 2734 2622 
Q 2975 2850 2975 3272 
Q 2975 3691 2734 3919 
Q 2494 4147 2053 4147 
L 1259 4147 
z
M 628 4666 
L 2053 4666 
Q 2838 4666 3239 4311 
Q 3641 3956 3641 3272 
Q 3641 2581 3239 2228 
Q 2838 1875 2053 1875 
L 1259 1875 
L 1259 0 
L 628 0 
L 628 4666 
z
" transform="scale(0.015625)"/>
       <path id="DejaVuSans-52" d="M 2841 2188 
Q 3044 2119 3236 1894 
Q 3428 1669 3622 1275 
L 4263 0 
L 3584 0 
L 2988 1197 
Q 2756 1666 2539 1819 
Q 2322 1972 1947 1972 
L 1259 1972 
L 1259 0 
L 628 0 
L 628 4666 
L 2053 4666 
Q 2853 4666 3247 4331 
Q 3641 3997 3641 3322 
Q 3641 2881 3436 2590 
Q 3231 2300 2841 2188 
z
M 1259 4147 
L 1259 2491 
L 2053 2491 
Q 2509 2491 2742 2702 
Q 2975 2913 2975 3322 
Q 2975 3731 2742 3939 
Q 2509 4147 2053 4147 
L 1259 4147 
z
" transform="scale(0.015625)"/>
      </defs>
      <use xlink:href="#DejaVuSans-47"/>
      <use xlink:href="#DejaVuSans-50" transform="translate(77.490234 0)"/>
      <use xlink:href="#DejaVuSans-52" transform="translate(137.792969 0)"/>
     </g>
    </g>
   </g>
  </g>
  <g id="text_18">
   <!-- test and train with noisy data -->
   <g transform="translate(142.029375 16.030125) scale(0.12 -0.12)">
    <defs>
     <path id="DejaVuSans-65" d="M 3597 1894 
L 3597 1613 
L 953 1613 
Q 991 1019 1311 708 
Q 1631 397 2203 397 
Q 2534 397 2845 478 
Q 3156 559 3463 722 
L 3463 178 
Q 3153 47 2828 -22 
Q 2503 -91 2169 -91 
Q 1331 -91 842 396 
Q 353 884 353 1716 
Q 353 2575 817 3079 
Q 1281 3584 2069 3584 
Q 2775 3584 3186 3129 
Q 3597 2675 3597 1894 
z
M 3022 2063 
Q 3016 2534 2758 2815 
Q 2500 3097 2075 3097 
Q 1594 3097 1305 2825 
Q 1016 2553 972 2059 
L 3022 2063 
z
" transform="scale(0.015625)"/>
     <path id="DejaVuSans-77" d="M 269 3500 
L 844 3500 
L 1563 769 
L 2278 3500 
L 2956 3500 
L 3675 769 
L 4391 3500 
L 4966 3500 
L 4050 0 
L 3372 0 
L 2619 2869 
L 1863 0 
L 1184 0 
L 269 3500 
z
" transform="scale(0.015625)"/>
     <path id="DejaVuSans-68" d="M 3513 2113 
L 3513 0 
L 2938 0 
L 2938 2094 
Q 2938 2591 2744 2837 
Q 2550 3084 2163 3084 
Q 1697 3084 1428 2787 
Q 1159 2491 1159 1978 
L 1159 0 
L 581 0 
L 581 4863 
L 1159 4863 
L 1159 2956 
Q 1366 3272 1645 3428 
Q 1925 3584 2291 3584 
Q 2894 3584 3203 3211 
Q 3513 2838 3513 2113 
z
" transform="scale(0.015625)"/>
    </defs>
    <use xlink:href="#DejaVuSans-74"/>
    <use xlink:href="#DejaVuSans-65" transform="translate(39.208984 0)"/>
    <use xlink:href="#DejaVuSans-73" transform="translate(100.732422 0)"/>
    <use xlink:href="#DejaVuSans-74" transform="translate(152.832031 0)"/>
    <use xlink:href="#DejaVuSans-20" transform="translate(192.041016 0)"/>
    <use xlink:href="#DejaVuSans-61" transform="translate(223.828125 0)"/>
    <use xlink:href="#DejaVuSans-6e" transform="translate(285.107422 0)"/>
    <use xlink:href="#DejaVuSans-64" transform="translate(348.486328 0)"/>
    <use xlink:href="#DejaVuSans-20" transform="translate(411.962891 0)"/>
    <use xlink:href="#DejaVuSans-74" transform="translate(443.75 0)"/>
    <use xlink:href="#DejaVuSans-72" transform="translate(482.958984 0)"/>
    <use xlink:href="#DejaVuSans-61" transform="translate(524.072266 0)"/>
    <use xlink:href="#DejaVuSans-69" transform="translate(585.351562 0)"/>
    <use xlink:href="#DejaVuSans-6e" transform="translate(613.134766 0)"/>
    <use xlink:href="#DejaVuSans-20" transform="translate(676.513672 0)"/>
    <use xlink:href="#DejaVuSans-77" transform="translate(708.300781 0)"/>
    <use xlink:href="#DejaVuSans-69" transform="translate(790.087891 0)"/>
    <use xlink:href="#DejaVuSans-74" transform="translate(817.871094 0)"/>
    <use xlink:href="#DejaVuSans-68" transform="translate(857.080078 0)"/>
    <use xlink:href="#DejaVuSans-20" transform="translate(920.458984 0)"/>
    <use xlink:href="#DejaVuSans-6e" transform="translate(952.246094 0)"/>
    <use xlink:href="#DejaVuSans-6f" transform="translate(1015.625 0)"/>
    <use xlink:href="#DejaVuSans-69" transform="translate(1076.806641 0)"/>
    <use xlink:href="#DejaVuSans-73" transform="translate(1104.589844 0)"/>
    <use xlink:href="#DejaVuSans-79" transform="translate(1156.689453 0)"/>
    <use xlink:href="#DejaVuSans-20" transform="translate(1215.869141 0)"/>
    <use xlink:href="#DejaVuSans-64" transform="translate(1247.65625 0)"/>
    <use xlink:href="#DejaVuSans-61" transform="translate(1311.132812 0)"/>
    <use xlink:href="#DejaVuSans-74" transform="translate(1372.412109 0)"/>
    <use xlink:href="#DejaVuSans-61" transform="translate(1411.621094 0)"/>
   </g>
  </g>
 </g>
 <defs>
  <clipPath id="p7bb6262495">
   <rect x="57.6" y="41.472" width="357.12" height="266.112"/>
  </clipPath>
 </defs>
</svg>
