<?xml version="1.0" encoding="utf-8" standalone="no"?>
<!DOCTYPE svg PUBLIC "-//W3C//DTD SVG 1.1//EN"
  "http://www.w3.org/Graphics/SVG/1.1/DTD/svg11.dtd">
<svg xmlns:xlink="http://www.w3.org/1999/xlink" width="1080pt" height="720pt" viewBox="0 0 1080 720" xmlns="http://www.w3.org/2000/svg" version="1.1">
 <metadata>
  <rdf:RDF xmlns:dc="http://purl.org/dc/elements/1.1/" xmlns:cc="http://creativecommons.org/ns#" xmlns:rdf="http://www.w3.org/1999/02/22-rdf-syntax-ns#">
   <cc:Work>
    <dc:type rdf:resource="http://purl.org/dc/dcmitype/StillImage"/>
    <dc:date>2025-09-26T11:59:39.050751</dc:date>
    <dc:format>image/svg+xml</dc:format>
    <dc:creator>
     <cc:Agent>
      <dc:title>Matplotlib v3.10.6, https://matplotlib.org/</dc:title>
     </cc:Agent>
    </dc:creator>
   </cc:Work>
  </rdf:RDF>
 </metadata>
 <defs>
  <style type="text/css">*{stroke-linejoin: round; stroke-linecap: butt}</style>
 </defs>
 <g id="figure_1">
  <g id="patch_1">
   <path d="M 0 720 
L 1080 720 
L 1080 0 
L 0 0 
z
" style="fill: #ffffff"/>
  </g>
  <g id="axes_1">
   <g id="patch_2">
    <path d="M 135 338.4 
L 972 338.4 
L 972 86.4 
L 135 86.4 
z
" style="fill: #ffffff"/>
   </g>
   <g id="FillBetweenPolyCollection_1">
    <defs>
     <path id="mdf5029749e" d="M 173.045455 -572.072918 
L 173.045455 -569.853794 
L 179.590123 -569.422362 
L 191.655538 -567.81719 
L 196.484442 -566.87749 
L 206.691209 -564.303563 
L 210.076125 -563.270573 
L 214.283311 -561.876971 
L 215.103077 -561.592504 
L 229.536681 -555.959805 
L 237.925964 -552.166078 
L 248.037177 -547.096577 
L 259.308928 -540.804239 
L 261.107625 -539.737398 
L 269.356653 -534.63188 
L 271.655435 -533.150076 
L 284.692675 -524.318214 
L 285.08608 -524.041393 
L 293.434274 -518.042615 
L 300.474311 -512.817622 
L 307.458376 -507.507693 
L 314.791474 -501.821281 
L 340.36527 -481.469302 
L 342.794449 -479.52057 
L 347.188535 -475.999353 
L 347.595782 -475.673405 
L 361.395539 -464.707138 
L 362.276001 -464.014638 
L 366.170176 -460.965469 
L 371.628694 -456.733414 
L 379.325873 -450.860915 
L 394.768366 -439.462874 
L 418.422354 -423.531074 
L 423.055862 -420.70685 
L 423.598008 -420.383638 
L 431.38041 -415.918983 
L 440.92631 -410.91529 
L 452.45031 -405.623723 
L 468.991631 -399.574474 
L 470.304544 -399.176086 
L 479.151705 -396.814857 
L 482.529506 -396.063595 
L 483.752478 -395.812251 
L 505.072551 -393.201984 
L 512.416092 -393.054545 
L 516.916823 -393.132032 
L 527.227305 -393.782636 
L 529.397261 -394.009468 
L 539.562307 -395.508191 
L 545.060911 -396.620153 
L 545.296614 -396.672532 
L 552.331905 -398.413063 
L 565.957668 -402.742015 
L 566.307517 -402.869442 
L 581.48695 -409.152734 
L 586.311662 -411.448441 
L 600.903397 -419.208901 
L 608.54994 -423.734198 
L 612.225612 -426.013526 
L 615.39249 -428.028941 
L 620.360036 -431.282434 
L 638.419851 -443.959437 
L 646.620386 -450.089688 
L 661.609621 -461.744638 
L 662.185469 -462.201374 
L 663.826905 -463.505987 
L 665.930856 -465.18333 
L 680.686465 -476.842862 
L 693.74745 -486.770965 
L 695.86716 -488.368753 
L 719.140805 -505.537302 
L 721.980679 -507.56815 
L 729.289102 -512.7103 
L 730.031873 -513.225602 
L 737.546027 -518.355375 
L 739.060856 -519.370172 
L 757.108301 -530.89249 
L 768.892817 -537.7777 
L 770.461063 -538.651872 
L 771.021166 -538.961594 
L 773.994733 -540.583659 
L 775.778895 -541.538703 
L 776.781393 -542.069254 
L 824.80117 -561.854787 
L 825.471226 -562.047534 
L 833.034204 -564.056445 
L 835.880223 -564.732816 
L 838.75257 -565.371161 
L 849.618827 -567.382999 
L 862.372511 -568.930533 
L 867.080893 -569.271041 
L 874.001006 -569.151543 
L 874.297278 -569.118386 
L 881.51 -568.063574 
L 883.440233 -567.714738 
L 884.343564 -567.542482 
L 904.162105 -562.380094 
L 909.481038 -560.56327 
L 913.585596 -559.042759 
L 919.479855 -556.684174 
L 923.998856 -554.740422 
L 923.998856 -565.196212 
L 923.998856 -565.196212 
L 919.479855 -566.028064 
L 913.585596 -566.99869 
L 909.481038 -567.594204 
L 904.162105 -568.262966 
L 884.343564 -569.653515 
L 883.440233 -569.673434 
L 881.51 -569.703056 
L 874.297278 -569.669621 
L 874.001006 -569.665025 
L 867.080893 -569.907632 
L 862.372511 -570.156787 
L 849.618827 -570.061874 
L 838.75257 -569.05081 
L 835.880223 -568.63983 
L 833.034204 -568.173519 
L 825.471226 -566.649955 
L 824.80117 -566.495154 
L 776.781393 -547.469882 
L 775.778895 -546.918598 
L 773.994733 -545.923533 
L 771.021166 -544.2261 
L 770.461063 -543.900998 
L 768.892817 -542.981814 
L 757.108301 -535.672838 
L 739.060856 -523.260712 
L 737.546027 -522.160951 
L 730.031873 -516.592315 
L 729.289102 -516.032262 
L 721.980679 -510.439759 
L 719.140805 -508.230086 
L 695.86716 -489.587745 
L 693.74745 -487.861176 
L 680.686465 -477.23316 
L 665.930856 -465.779249 
L 663.826905 -464.192888 
L 662.185469 -462.959202 
L 661.609621 -462.527218 
L 646.620386 -451.455247 
L 638.419851 -445.576063 
L 620.360036 -433.255254 
L 615.39249 -430.051286 
L 612.225612 -428.056689 
L 608.54994 -425.791203 
L 600.903397 -421.260225 
L 586.311662 -413.369337 
L 581.48695 -410.99964 
L 566.307517 -404.402463 
L 565.957668 -404.266579 
L 552.331905 -399.57824 
L 545.296614 -397.637267 
L 545.060911 -397.578102 
L 539.562307 -396.307952 
L 529.397261 -394.530172 
L 527.227305 -394.249661 
L 516.916823 -393.424991 
L 512.416092 -393.346088 
L 505.072551 -393.582454 
L 483.752478 -396.558904 
L 482.529506 -396.827611 
L 479.151705 -397.623433 
L 470.304544 -400.07586 
L 468.991631 -400.48447 
L 452.45031 -406.58637 
L 440.92631 -411.833122 
L 431.38041 -416.754288 
L 423.598008 -421.126215 
L 423.055862 -421.442255 
L 418.422354 -424.20207 
L 394.768366 -439.793281 
L 379.325873 -451.182019 
L 371.628694 -457.144046 
L 366.170176 -461.451414 
L 362.276001 -464.55486 
L 361.395539 -465.259452 
L 347.595782 -476.39319 
L 347.188535 -476.723227 
L 342.794449 -480.284679 
L 340.36527 -482.252447 
L 314.791474 -502.647342 
L 307.458376 -508.291643 
L 300.474311 -513.541178 
L 293.434274 -518.688437 
L 285.08608 -524.579827 
L 284.692675 -524.851354 
L 271.655435 -533.515246 
L 269.356653 -534.973049 
L 261.107625 -540.025697 
L 259.308928 -541.089552 
L 248.037177 -547.421012 
L 237.925964 -552.548502 
L 229.536681 -556.360354 
L 215.103077 -561.91705 
L 214.283311 -562.194464 
L 210.076125 -563.558321 
L 206.691209 -564.5899 
L 196.484442 -567.405969 
L 191.655538 -568.578407 
L 179.590123 -571.027559 
L 173.045455 -572.072918 
z
" style="stroke: #0000ff; stroke-opacity: 0.5"/>
    </defs>
    <g clip-path="url(#pabd845be06)">
     <use xlink:href="#mdf5029749e" x="0" y="720" style="fill: #0000ff; fill-opacity: 0.5; stroke: #0000ff; stroke-opacity: 0.5"/>
    </g>
   </g>
   <g id="FillBetweenPolyCollection_2">
    <defs>
     <path id="md416ff4c84" d="M 180.679239 -622.145455 
L 180.679239 -580.18429 
L 189.740161 -580.810531 
L 194.254775 -580.94658 
L 198.604746 -580.965838 
L 198.774987 -580.964351 
L 199.916349 -580.950015 
L 216.345578 -579.898143 
L 218.774436 -579.608294 
L 220.513159 -579.379591 
L 222.341123 -579.120095 
L 242.211335 -575.053607 
L 250.330651 -572.750215 
L 253.224518 -571.842213 
L 264.92991 -567.71863 
L 267.470375 -566.731128 
L 297.88819 -552.605697 
L 303.141432 -549.785722 
L 303.246263 -549.728462 
L 315.473717 -542.80745 
L 318.520857 -541.013912 
L 319.65512 -540.339877 
L 328.952763 -534.661272 
L 368.536462 -499.55917 
L 368.898577 -499.240004 
L 381.218787 -488.54604 
L 382.109363 -487.787484 
L 382.121421 -487.777228 
L 387.445282 -483.291208 
L 390.199294 -481.005682 
L 391.364009 -480.046816 
L 419.651575 -458.488239 
L 422.739693 -456.371905 
L 430.795551 -451.108855 
L 443.235176 -443.771947 
L 443.679376 -443.528785 
L 462.016651 -434.710916 
L 468.516204 -432.186309 
L 503.039016 -424.493148 
L 505.38534 -424.332093 
L 519.686849 -424.36443 
L 527.072556 -425.061691 
L 527.185719 -425.075958 
L 527.268573 -425.086472 
L 528.820221 -425.294032 
L 530.40847 -425.527418 
L 539.752832 -427.325812 
L 540.847471 -427.583624 
L 556.032833 -432.154803 
L 558.610492 -433.110811 
L 571.468905 -438.625498 
L 572.85271 -439.290831 
L 573.015934 -439.370204 
L 587.299247 -447.021576 
L 590.652518 -449.011397 
L 602.402399 -456.517611 
L 619.989372 -469.136713 
L 627.480482 -474.941492 
L 633.416221 -479.695077 
L 649.580625 -493.203093 
L 653.728244 -496.774336 
L 658.49115 -500.914815 
L 660.613679 -502.77146 
L 666.241291 -507.721244 
L 675.892635 -516.267119 
L 697.610513 -534.551646 
L 699.527767 -536.015343 
L 703.567785 -539.092065 
L 713.003794 -546.229822 
L 715.177181 -547.860819 
L 716.489099 -548.84238 
L 718.66607 -550.465812 
L 718.901703 -550.641108 
L 727.5052 -556.976211 
L 728.298721 -557.55335 
L 749.075318 -572.093193 
L 757.419633 -577.548939 
L 760.116315 -579.255702 
L 773.004714 -586.987119 
L 773.988957 -587.546536 
L 785.938826 -593.952828 
L 800.128143 -600.553045 
L 801.927728 -601.305963 
L 803.930456 -602.120638 
L 807.25738 -603.419041 
L 810.205654 -604.511376 
L 832.459646 -610.897749 
L 839.836603 -612.255206 
L 846.240127 -613.114001 
L 849.966148 -613.474935 
L 850.552587 -613.522367 
L 867.001622 -613.799403 
L 876.37276 -613.027607 
L 877.02259 -612.948116 
L 889.75398 -610.695216 
L 892.090368 -610.149232 
L 899.578063 -608.169916 
L 899.659121 -608.146676 
L 900.661152 -607.85627 
L 910.510339 -604.689961 
L 933.954545 -594.375133 
L 933.954545 -595.718301 
L 933.954545 -595.718301 
L 910.510339 -604.971108 
L 900.661152 -608.177036 
L 899.659121 -608.468534 
L 899.578063 -608.491818 
L 892.090368 -610.451029 
L 889.75398 -610.986052 
L 877.02259 -613.345116 
L 876.37276 -613.441893 
L 867.001622 -614.557926 
L 850.552587 -615.132558 
L 849.966148 -615.118705 
L 846.240127 -614.973992 
L 839.836603 -614.494247 
L 832.459646 -613.575154 
L 810.205654 -608.402378 
L 807.25738 -607.447571 
L 803.930456 -606.295392 
L 801.927728 -605.563831 
L 800.128143 -604.882277 
L 785.938826 -598.721355 
L 773.988957 -592.490367 
L 773.004714 -591.936617 
L 760.116315 -584.147614 
L 757.419633 -582.396815 
L 749.075318 -576.732271 
L 728.298721 -561.187183 
L 727.5052 -560.557914 
L 718.901703 -553.594091 
L 718.66607 -553.399961 
L 716.489099 -551.598523 
L 715.177181 -550.506234 
L 713.003794 -548.686164 
L 703.567785 -540.650016 
L 699.527767 -537.154921 
L 697.610513 -535.488186 
L 675.892635 -518.121572 
L 666.241291 -510.948813 
L 660.613679 -506.843048 
L 658.49115 -505.311901 
L 653.728244 -501.914705 
L 649.580625 -499.003859 
L 633.416221 -488.15844 
L 627.480482 -484.406206 
L 619.989372 -479.872751 
L 602.402399 -470.221876 
L 590.652518 -464.639168 
L 587.299247 -463.183443 
L 573.015934 -457.706344 
L 572.85271 -457.650725 
L 571.468905 -457.18567 
L 558.610492 -453.427998 
L 556.032833 -452.799393 
L 540.847471 -449.962659 
L 539.752832 -449.816038 
L 530.40847 -448.884141 
L 528.820221 -448.782778 
L 527.268573 -448.699767 
L 527.185719 -448.69578 
L 527.072556 -448.690407 
L 519.686849 -448.52164 
L 505.38534 -449.207866 
L 503.039016 -449.446711 
L 468.516204 -456.89761 
L 462.016651 -459.078818 
L 443.679376 -466.419564 
L 443.235176 -466.617763 
L 430.795551 -472.523924 
L 422.739693 -476.688127 
L 419.651575 -478.348512 
L 391.364009 -494.898313 
L 390.199294 -495.621035 
L 387.445282 -497.339533 
L 382.121421 -500.69583 
L 382.109363 -500.703478 
L 381.218787 -501.268832 
L 368.898577 -509.173535 
L 368.536462 -509.407582 
L 328.952763 -535.110261 
L 319.65512 -543.293119 
L 318.520857 -544.285876 
L 315.473717 -546.940313 
L 303.246263 -557.367898 
L 303.141432 -557.455511 
L 297.88819 -561.801468 
L 267.470375 -584.85985 
L 264.92991 -586.593517 
L 253.224518 -594.13876 
L 250.330651 -595.887006 
L 242.211335 -600.531701 
L 222.341123 -610.195442 
L 220.513159 -610.958418 
L 218.774436 -611.664019 
L 216.345578 -612.616716 
L 199.916349 -618.043413 
L 198.774987 -618.354323 
L 198.604746 -618.399962 
L 194.254775 -619.501455 
L 189.740161 -620.513465 
L 180.679239 -622.145455 
z
" style="stroke: #0000ff; stroke-opacity: 0.5"/>
    </defs>
    <g clip-path="url(#pabd845be06)">
     <use xlink:href="#md416ff4c84" x="0" y="720" style="fill: #0000ff; fill-opacity: 0.5; stroke: #0000ff; stroke-opacity: 0.5"/>
    </g>
   </g>
   <g id="matplotlib.axis_1">
    <g id="xtick_1">
     <g id="line2d_1">
      <defs>
       <path id="m16d1507099" d="M 0 0 
L 0 3.5 
" style="stroke: #000000; stroke-width: 0.8"/>
      </defs>
      <g>
       <use xlink:href="#m16d1507099" x="167.337264" y="338.4" style="stroke: #000000; stroke-width: 0.8"/>
      </g>
     </g>
    </g>
    <g id="xtick_2">
     <g id="line2d_2">
      <g>
       <use xlink:href="#m16d1507099" x="321.52065" y="338.4" style="stroke: #000000; stroke-width: 0.8"/>
      </g>
     </g>
    </g>
    <g id="xtick_3">
     <g id="line2d_3">
      <g>
       <use xlink:href="#m16d1507099" x="475.704035" y="338.4" style="stroke: #000000; stroke-width: 0.8"/>
      </g>
     </g>
    </g>
    <g id="xtick_4">
     <g id="line2d_4">
      <g>
       <use xlink:href="#m16d1507099" x="629.887421" y="338.4" style="stroke: #000000; stroke-width: 0.8"/>
      </g>
     </g>
    </g>
    <g id="xtick_5">
     <g id="line2d_5">
      <g>
       <use xlink:href="#m16d1507099" x="784.070807" y="338.4" style="stroke: #000000; stroke-width: 0.8"/>
      </g>
     </g>
    </g>
    <g id="xtick_6">
     <g id="line2d_6">
      <g>
       <use xlink:href="#m16d1507099" x="938.254193" y="338.4" style="stroke: #000000; stroke-width: 0.8"/>
      </g>
     </g>
    </g>
   </g>
   <g id="matplotlib.axis_2">
    <g id="ytick_1">
     <g id="line2d_7">
      <defs>
       <path id="m3a9a38c7fb" d="M 0 0 
L -3.5 0 
" style="stroke: #000000; stroke-width: 0.8"/>
      </defs>
      <g>
       <use xlink:href="#m3a9a38c7fb" x="135" y="326.783846" style="stroke: #000000; stroke-width: 0.8"/>
      </g>
     </g>
     <g id="text_1">
      <!-- −1.0 -->
      <g transform="translate(103.717187 330.583065) scale(0.1 -0.1)">
       <defs>
        <path id="DejaVuSans-2212" d="M 678 2272 
L 4684 2272 
L 4684 1741 
L 678 1741 
L 678 2272 
z
" transform="scale(0.015625)"/>
        <path id="DejaVuSans-31" d="M 794 531 
L 1825 531 
L 1825 4091 
L 703 3866 
L 703 4441 
L 1819 4666 
L 2450 4666 
L 2450 531 
L 3481 531 
L 3481 0 
L 794 0 
L 794 531 
z
" transform="scale(0.015625)"/>
        <path id="DejaVuSans-2e" d="M 684 794 
L 1344 794 
L 1344 0 
L 684 0 
L 684 794 
z
" transform="scale(0.015625)"/>
        <path id="DejaVuSans-30" d="M 2034 4250 
Q 1547 4250 1301 3770 
Q 1056 3291 1056 2328 
Q 1056 1369 1301 889 
Q 1547 409 2034 409 
Q 2525 409 2770 889 
Q 3016 1369 3016 2328 
Q 3016 3291 2770 3770 
Q 2525 4250 2034 4250 
z
M 2034 4750 
Q 2819 4750 3233 4129 
Q 3647 3509 3647 2328 
Q 3647 1150 3233 529 
Q 2819 -91 2034 -91 
Q 1250 -91 836 529 
Q 422 1150 422 2328 
Q 422 3509 836 4129 
Q 1250 4750 2034 4750 
z
" transform="scale(0.015625)"/>
       </defs>
       <use xlink:href="#DejaVuSans-2212"/>
       <use xlink:href="#DejaVuSans-31" transform="translate(83.789062 0)"/>
       <use xlink:href="#DejaVuSans-2e" transform="translate(147.412109 0)"/>
       <use xlink:href="#DejaVuSans-30" transform="translate(179.199219 0)"/>
      </g>
     </g>
    </g>
    <g id="ytick_2">
     <g id="line2d_8">
      <g>
       <use xlink:href="#m3a9a38c7fb" x="135" y="282.581094" style="stroke: #000000; stroke-width: 0.8"/>
      </g>
     </g>
     <g id="text_2">
      <!-- −0.5 -->
      <g transform="translate(103.717187 286.380313) scale(0.1 -0.1)">
       <defs>
        <path id="DejaVuSans-35" d="M 691 4666 
L 3169 4666 
L 3169 4134 
L 1269 4134 
L 1269 2991 
Q 1406 3038 1543 3061 
Q 1681 3084 1819 3084 
Q 2600 3084 3056 2656 
Q 3513 2228 3513 1497 
Q 3513 744 3044 326 
Q 2575 -91 1722 -91 
Q 1428 -91 1123 -41 
Q 819 9 494 109 
L 494 744 
Q 775 591 1075 516 
Q 1375 441 1709 441 
Q 2250 441 2565 725 
Q 2881 1009 2881 1497 
Q 2881 1984 2565 2268 
Q 2250 2553 1709 2553 
Q 1456 2553 1204 2497 
Q 953 2441 691 2322 
L 691 4666 
z
" transform="scale(0.015625)"/>
       </defs>
       <use xlink:href="#DejaVuSans-2212"/>
       <use xlink:href="#DejaVuSans-30" transform="translate(83.789062 0)"/>
       <use xlink:href="#DejaVuSans-2e" transform="translate(147.412109 0)"/>
       <use xlink:href="#DejaVuSans-35" transform="translate(179.199219 0)"/>
      </g>
     </g>
    </g>
    <g id="ytick_3">
     <g id="line2d_9">
      <g>
       <use xlink:href="#m3a9a38c7fb" x="135" y="238.378342" style="stroke: #000000; stroke-width: 0.8"/>
      </g>
     </g>
     <g id="text_3">
      <!-- 0.0 -->
      <g transform="translate(112.096875 242.177561) scale(0.1 -0.1)">
       <use xlink:href="#DejaVuSans-30"/>
       <use xlink:href="#DejaVuSans-2e" transform="translate(63.623047 0)"/>
       <use xlink:href="#DejaVuSans-30" transform="translate(95.410156 0)"/>
      </g>
     </g>
    </g>
    <g id="ytick_4">
     <g id="line2d_10">
      <g>
       <use xlink:href="#m3a9a38c7fb" x="135" y="194.17559" style="stroke: #000000; stroke-width: 0.8"/>
      </g>
     </g>
     <g id="text_4">
      <!-- 0.5 -->
      <g transform="translate(112.096875 197.974809) scale(0.1 -0.1)">
       <use xlink:href="#DejaVuSans-30"/>
       <use xlink:href="#DejaVuSans-2e" transform="translate(63.623047 0)"/>
       <use xlink:href="#DejaVuSans-35" transform="translate(95.410156 0)"/>
      </g>
     </g>
    </g>
    <g id="ytick_5">
     <g id="line2d_11">
      <g>
       <use xlink:href="#m3a9a38c7fb" x="135" y="149.972838" style="stroke: #000000; stroke-width: 0.8"/>
      </g>
     </g>
     <g id="text_5">
      <!-- 1.0 -->
      <g transform="translate(112.096875 153.772057) scale(0.1 -0.1)">
       <use xlink:href="#DejaVuSans-31"/>
       <use xlink:href="#DejaVuSans-2e" transform="translate(63.623047 0)"/>
       <use xlink:href="#DejaVuSans-30" transform="translate(95.410156 0)"/>
      </g>
     </g>
    </g>
    <g id="ytick_6">
     <g id="line2d_12">
      <g>
       <use xlink:href="#m3a9a38c7fb" x="135" y="105.770086" style="stroke: #000000; stroke-width: 0.8"/>
      </g>
     </g>
     <g id="text_6">
      <!-- 1.5 -->
      <g transform="translate(112.096875 109.569304) scale(0.1 -0.1)">
       <use xlink:href="#DejaVuSans-31"/>
       <use xlink:href="#DejaVuSans-2e" transform="translate(63.623047 0)"/>
       <use xlink:href="#DejaVuSans-35" transform="translate(95.410156 0)"/>
      </g>
     </g>
    </g>
    <g id="text_7">
     <!-- y -->
     <g transform="translate(96.597656 216.839062) rotate(-90) scale(0.15 -0.15)">
      <defs>
       <path id="DejaVuSans-79" d="M 2059 -325 
Q 1816 -950 1584 -1140 
Q 1353 -1331 966 -1331 
L 506 -1331 
L 506 -850 
L 844 -850 
Q 1081 -850 1212 -737 
Q 1344 -625 1503 -206 
L 1606 56 
L 191 3500 
L 800 3500 
L 1894 763 
L 2988 3500 
L 3597 3500 
L 2059 -325 
z
" transform="scale(0.015625)"/>
      </defs>
      <use xlink:href="#DejaVuSans-79"/>
     </g>
    </g>
   </g>
   <g id="line2d_13">
    <defs>
     <path id="md2d3a6f7b9" d="M 0 -3 
L -0.673542 -0.927051 
L -2.85317 -0.927051 
L -1.089814 0.354102 
L -1.763356 2.427051 
L -0 1.145898 
L 1.763356 2.427051 
L 1.089814 0.354102 
L 2.85317 -0.927051 
L 0.673542 -0.927051 
z
" style="stroke: #ff0000; stroke-linejoin: bevel"/>
    </defs>
    <g clip-path="url(#pabd845be06)">
     <use xlink:href="#md2d3a6f7b9" x="386.723214" y="274.527424" style="fill: #ff0000; stroke: #ff0000; stroke-linejoin: bevel"/>
     <use xlink:href="#md2d3a6f7b9" x="514.801048" y="326.775895" style="fill: #ff0000; stroke: #ff0000; stroke-linejoin: bevel"/>
     <use xlink:href="#md2d3a6f7b9" x="676.018702" y="246.633319" style="fill: #ff0000; stroke: #ff0000; stroke-linejoin: bevel"/>
     <use xlink:href="#md2d3a6f7b9" x="206.89326" y="155.614161" style="fill: #ff0000; stroke: #ff0000; stroke-linejoin: bevel"/>
     <use xlink:href="#md2d3a6f7b9" x="871.124548" y="150.480995" style="fill: #ff0000; stroke: #ff0000; stroke-linejoin: bevel"/>
     <use xlink:href="#md2d3a6f7b9" x="259.477865" y="179.150461" style="fill: #ff0000; stroke: #ff0000; stroke-linejoin: bevel"/>
    </g>
   </g>
   <g id="line2d_14">
    <path d="M 173.045455 150.09156 
L 179.590123 150.519422 
L 191.655538 152.119335 
L 196.484442 153.050967 
L 206.691209 155.55729 
L 210.076125 156.546674 
L 214.283311 157.884031 
L 215.103077 158.158351 
L 229.536681 163.701494 
L 237.925964 167.518966 
L 248.037177 172.663967 
L 259.308928 179.049853 
L 261.107625 180.128161 
L 269.356653 185.267922 
L 271.655435 186.754575 
L 284.692675 195.591792 
L 285.08608 195.868413 
L 293.434274 201.860617 
L 300.474311 207.078288 
L 307.458376 212.38087 
L 314.791474 218.060545 
L 340.36527 238.406158 
L 342.794449 240.35597 
L 347.188535 243.879844 
L 347.595782 244.206082 
L 361.395539 255.18488 
L 362.276001 255.87822 
L 366.170176 258.93076 
L 371.628694 263.165442 
L 379.325873 269.031025 
L 394.768366 280.319288 
L 418.422354 295.942364 
L 423.055862 298.713515 
L 423.598008 299.030869 
L 431.38041 303.420743 
L 440.92631 308.359897 
L 452.45031 313.619368 
L 468.991631 319.71743 
L 470.304544 320.124521 
L 479.151705 322.562115 
L 482.529506 323.350291 
L 483.752478 323.615987 
L 505.072551 326.535828 
L 512.416092 326.780843 
L 516.916823 326.736806 
L 527.227305 326.080303 
L 529.397261 325.843975 
L 539.562307 324.28668 
L 545.060911 323.138383 
L 545.296614 323.084416 
L 552.331905 321.296139 
L 565.957668 316.878359 
L 566.307517 316.748798 
L 581.48695 310.384783 
L 586.311662 308.069484 
L 600.903397 300.272878 
L 608.54994 295.744507 
L 612.225612 293.467958 
L 615.39249 291.45723 
L 620.360036 288.215449 
L 638.419851 275.626422 
L 646.620386 269.558722 
L 661.609621 258.046011 
L 662.185469 257.595077 
L 663.826905 256.306866 
L 665.930856 254.649884 
L 680.686465 242.896437 
L 693.74745 232.418479 
L 695.86716 230.722003 
L 719.140805 212.418286 
L 721.980679 210.248006 
L 729.289102 204.752234 
L 730.031873 204.201573 
L 737.546027 198.722535 
L 739.060856 197.639522 
L 757.108301 185.385426 
L 768.892817 178.131088 
L 770.461063 177.215943 
L 771.021166 176.892093 
L 773.994733 175.199615 
L 775.778895 174.206146 
L 776.781393 173.655302 
L 824.80117 154.277622 
L 825.471226 154.113382 
L 833.034204 152.477235 
L 835.880223 151.966048 
L 838.75257 151.50864 
L 849.618827 150.314946 
L 862.372511 150.007002 
L 867.080893 150.192784 
L 874.001006 150.758162 
L 874.297278 150.790109 
L 881.51 151.762778 
L 883.440233 152.086282 
L 884.343564 152.24679 
L 904.162105 157.203396 
L 909.481038 158.988568 
L 913.585596 160.492961 
L 919.479855 162.841951 
L 923.998856 164.789747 
" clip-path="url(#pabd845be06)" style="fill: none; stroke-dasharray: 5.55,2.4; stroke-dashoffset: 0; stroke: #000000; stroke-width: 1.5"/>
   </g>
   <g id="line2d_15">
    <path d="M 173.045455 149.036644 
L 179.590123 149.775039 
L 191.655538 151.802201 
L 196.484442 152.85827 
L 206.691209 155.553268 
L 210.076125 156.585553 
L 214.283311 157.964282 
L 215.103077 158.245223 
L 229.536681 163.83992 
L 237.925964 167.64271 
L 248.037177 172.741206 
L 259.308928 179.053105 
L 261.107625 180.118452 
L 269.356653 185.197535 
L 271.655435 186.667339 
L 284.692675 195.415216 
L 285.08608 195.68939 
L 293.434274 201.634474 
L 300.474311 206.8206 
L 307.458376 212.100332 
L 314.791474 217.765689 
L 340.36527 238.139126 
L 342.794449 240.097376 
L 347.188535 243.63871 
L 347.595782 243.966703 
L 361.395539 255.016705 
L 362.276001 255.715251 
L 366.170176 258.791558 
L 371.628694 263.06127 
L 379.325873 268.978533 
L 394.768366 280.371923 
L 418.422354 296.133428 
L 423.055862 298.925447 
L 423.598008 299.245074 
L 431.38041 303.663364 
L 440.92631 308.625794 
L 452.45031 313.894954 
L 468.991631 319.970528 
L 470.304544 320.374027 
L 479.151705 322.780855 
L 482.529506 323.554397 
L 483.752478 323.814423 
L 505.072551 326.607781 
L 512.416092 326.799683 
L 516.916823 326.721488 
L 527.227305 325.983851 
L 529.397261 325.73018 
L 539.562307 324.091928 
L 545.060911 322.900873 
L 545.296614 322.845101 
L 552.331905 321.004348 
L 565.957668 316.495703 
L 566.307517 316.364048 
L 581.48695 309.923813 
L 586.311662 307.591111 
L 600.903397 299.765437 
L 608.54994 295.237299 
L 612.225612 292.964892 
L 615.39249 290.959886 
L 620.360036 287.731156 
L 638.419851 275.23225 
L 646.620386 269.227533 
L 661.609621 257.864072 
L 662.185469 257.419712 
L 663.826905 256.150563 
L 665.930856 254.518711 
L 680.686465 242.961989 
L 693.74745 232.68393 
L 695.86716 231.021751 
L 719.140805 213.116306 
L 721.980679 210.996046 
L 729.289102 205.628719 
L 730.031873 205.091041 
L 737.546027 199.741837 
L 739.060856 198.684558 
L 757.108301 186.717336 
L 768.892817 179.620243 
L 770.461063 178.723565 
L 771.021166 178.406153 
L 773.994733 176.746404 
L 775.778895 175.77135 
L 776.781393 175.230432 
L 824.80117 155.825029 
L 825.471226 155.651256 
L 833.034204 153.885018 
L 835.880223 153.313677 
L 838.75257 152.789015 
L 849.618827 151.277563 
L 862.372511 150.45634 
L 867.080893 150.410664 
L 874.001006 150.591716 
L 874.297278 150.605996 
L 881.51 151.116685 
L 883.440233 151.305914 
L 884.343564 151.402002 
L 904.162105 154.67847 
L 909.481038 155.921263 
L 913.585596 156.979275 
L 919.479855 158.643881 
L 923.998856 160.031683 
" clip-path="url(#pabd845be06)" style="fill: none; stroke: #0000ff; stroke-width: 1.5; stroke-linecap: square"/>
   </g>
   <g id="line2d_16">
    <g clip-path="url(#pabd845be06)">
     <use xlink:href="#md2d3a6f7b9" x="689.951087" y="191.259189" style="fill: #ff0000; stroke: #ff0000; stroke-linejoin: bevel"/>
     <use xlink:href="#md2d3a6f7b9" x="912.922349" y="116.039733" style="fill: #ff0000; stroke: #ff0000; stroke-linejoin: bevel"/>
     <use xlink:href="#md2d3a6f7b9" x="330.211311" y="186.063939" style="fill: #ff0000; stroke: #ff0000; stroke-linejoin: bevel"/>
     <use xlink:href="#md2d3a6f7b9" x="884.459744" y="108.065102" style="fill: #ff0000; stroke: #ff0000; stroke-linejoin: bevel"/>
    </g>
   </g>
   <g id="line2d_17">
    <path d="M 180.679239 106.418032 
L 189.740161 107.592892 
L 194.254775 108.397551 
L 198.604746 109.309219 
L 198.774987 109.3476 
L 199.916349 109.610151 
L 216.345578 114.379847 
L 218.774436 115.238456 
L 220.513159 115.876705 
L 222.341123 116.568753 
L 242.211335 125.42631 
L 250.330651 129.706895 
L 253.224518 131.318499 
L 264.92991 138.268074 
L 267.470375 139.862544 
L 297.88819 160.942853 
L 303.141432 164.886818 
L 303.246263 164.96623 
L 315.473717 174.391177 
L 318.520857 176.782439 
L 319.65512 177.676057 
L 328.952763 185.058477 
L 368.536462 216.570568 
L 368.898577 216.851646 
L 381.218787 226.248914 
L 382.109363 226.914043 
L 382.121421 226.923034 
L 387.445282 230.852846 
L 390.199294 232.852663 
L 391.364009 233.691213 
L 419.651575 252.484903 
L 422.739693 254.325012 
L 430.795551 258.899105 
L 443.235176 265.274189 
L 443.679376 265.485526 
L 462.016651 273.159601 
L 468.516204 275.36441 
L 503.039016 282.195865 
L 505.38534 282.351515 
L 519.686849 282.433586 
L 527.072556 281.893104 
L 527.185719 281.881747 
L 527.268573 281.873373 
L 528.820221 281.707385 
L 530.40847 281.519488 
L 539.752832 280.047705 
L 540.847471 279.834618 
L 556.032833 276.016369 
L 558.610492 275.211563 
L 571.468905 270.543426 
L 572.85271 269.977809 
L 573.015934 269.910303 
L 587.299247 263.376168 
L 590.652518 261.669208 
L 602.402399 255.205237 
L 619.989372 244.258171 
L 627.480482 239.190852 
L 633.416221 235.026629 
L 649.580625 223.121406 
L 653.728244 219.955726 
L 658.49115 216.275606 
L 660.613679 214.621882 
L 666.241291 210.202129 
L 675.892635 202.531317 
L 697.610513 185.126084 
L 699.527767 183.596579 
L 703.567785 180.384676 
L 713.003794 172.962574 
L 715.177181 171.27314 
L 716.489099 170.257625 
L 718.66607 168.580057 
L 718.901703 168.399068 
L 727.5052 161.878195 
L 728.298721 161.286085 
L 749.075318 146.480415 
L 757.419633 140.982846 
L 760.116315 139.269948 
L 773.004714 131.555302 
L 773.988957 131.000107 
L 785.938826 124.674611 
L 800.128143 118.230739 
L 801.927728 117.501444 
L 803.930456 116.713901 
L 807.25738 115.462382 
L 810.205654 114.413296 
L 832.459646 108.384654 
L 839.836603 107.148603 
L 846.240127 106.391968 
L 849.966148 106.088128 
L 850.552587 106.049482 
L 867.001622 105.985569 
L 876.37276 106.828913 
L 877.02259 106.910926 
L 889.75398 109.126275 
L 892.090368 109.657235 
L 899.578063 111.613859 
L 899.659121 111.637145 
L 900.661152 111.928701 
L 910.510339 115.152794 
L 933.954545 125.310283 
" clip-path="url(#pabd845be06)" style="fill: none; stroke-dasharray: 5.55,2.4; stroke-dashoffset: 0; stroke: #000000; stroke-width: 1.5"/>
   </g>
   <g id="line2d_18">
    <path d="M 180.679239 118.835128 
L 189.740161 119.338002 
L 194.254775 119.775983 
L 198.604746 120.3171 
L 198.774987 120.340663 
L 199.916349 120.503286 
L 216.345578 123.742571 
L 218.774436 124.363843 
L 220.513159 124.830996 
L 222.341123 125.342232 
L 242.211335 132.207346 
L 250.330651 135.681389 
L 253.224518 137.009514 
L 264.92991 142.843927 
L 267.470375 144.204511 
L 297.88819 162.796418 
L 303.141432 166.379384 
L 303.246263 166.45182 
L 315.473717 175.126118 
L 318.520857 177.350106 
L 319.65512 178.183502 
L 328.952763 185.114233 
L 368.536462 215.516624 
L 368.898577 215.79323 
L 381.218787 225.092564 
L 382.109363 225.754519 
L 382.121421 225.763471 
L 387.445282 229.684629 
L 390.199294 231.686641 
L 391.364009 232.527436 
L 419.651575 251.581625 
L 422.739693 253.469984 
L 430.795551 258.18361 
L 443.235176 264.805145 
L 443.679376 265.025825 
L 462.016651 273.105133 
L 468.516204 275.45804 
L 503.039016 283.030071 
L 505.38534 283.23002 
L 519.686849 283.556965 
L 527.072556 283.123951 
L 527.185719 283.114131 
L 527.268573 283.106881 
L 528.820221 282.961595 
L 530.40847 282.79422 
L 539.752832 281.429075 
L 540.847471 281.226859 
L 556.032833 277.522902 
L 558.610492 276.730595 
L 571.468905 272.094416 
L 572.85271 271.529222 
L 573.015934 271.461726 
L 587.299247 264.89749 
L 590.652518 263.174718 
L 602.402399 256.630257 
L 619.989372 245.495268 
L 627.480482 240.326151 
L 633.416221 236.073242 
L 649.580625 223.896524 
L 653.728244 220.655479 
L 658.49115 216.886642 
L 660.613679 215.192746 
L 666.241291 210.664972 
L 675.892635 202.805655 
L 697.610513 184.980084 
L 699.527767 183.414868 
L 703.567785 180.128959 
L 713.003794 172.542007 
L 715.177181 170.816474 
L 716.489099 169.779548 
L 718.66607 168.067114 
L 718.901703 167.882401 
L 727.5052 161.232937 
L 728.298721 160.629734 
L 749.075318 145.587268 
L 757.419633 140.027123 
L 760.116315 138.298342 
L 773.004714 130.538132 
L 773.988957 129.981548 
L 785.938826 123.662909 
L 800.128143 117.282339 
L 801.927728 116.565103 
L 803.930456 115.791985 
L 807.25738 114.566694 
L 810.205654 113.543123 
L 832.459646 107.763549 
L 839.836603 106.625274 
L 846.240127 105.956003 
L 849.966148 105.70318 
L 850.552587 105.672537 
L 867.001622 105.821336 
L 876.37276 106.76525 
L 877.02259 106.853384 
L 889.75398 109.159366 
L 892.090368 109.69987 
L 899.578063 111.669133 
L 899.659121 111.692395 
L 900.661152 111.983347 
L 910.510339 115.169466 
L 933.954545 124.953283 
" clip-path="url(#pabd845be06)" style="fill: none; stroke: #0000ff; stroke-width: 1.5; stroke-linecap: square"/>
   </g>
   <g id="patch_3">
    <path d="M 135 338.4 
L 135 86.4 
" style="fill: none; stroke: #000000; stroke-width: 0.8; stroke-linejoin: miter; stroke-linecap: square"/>
   </g>
   <g id="patch_4">
    <path d="M 972 338.4 
L 972 86.4 
" style="fill: none; stroke: #000000; stroke-width: 0.8; stroke-linejoin: miter; stroke-linecap: square"/>
   </g>
   <g id="patch_5">
    <path d="M 135 338.4 
L 972 338.4 
" style="fill: none; stroke: #000000; stroke-width: 0.8; stroke-linejoin: miter; stroke-linecap: square"/>
   </g>
   <g id="patch_6">
    <path d="M 135 86.4 
L 972 86.4 
" style="fill: none; stroke: #000000; stroke-width: 0.8; stroke-linejoin: miter; stroke-linecap: square"/>
   </g>
   <g id="text_8">
    <!-- Mixed continuous-categorical modeling -->
    <g transform="translate(435.578438 80.4) scale(0.12 -0.12)">
     <defs>
      <path id="DejaVuSans-4d" d="M 628 4666 
L 1569 4666 
L 2759 1491 
L 3956 4666 
L 4897 4666 
L 4897 0 
L 4281 0 
L 4281 4097 
L 3078 897 
L 2444 897 
L 1241 4097 
L 1241 0 
L 628 0 
L 628 4666 
z
" transform="scale(0.015625)"/>
      <path id="DejaVuSans-69" d="M 603 3500 
L 1178 3500 
L 1178 0 
L 603 0 
L 603 3500 
z
M 603 4863 
L 1178 4863 
L 1178 4134 
L 603 4134 
L 603 4863 
z
" transform="scale(0.015625)"/>
      <path id="DejaVuSans-78" d="M 3513 3500 
L 2247 1797 
L 3578 0 
L 2900 0 
L 1881 1375 
L 863 0 
L 184 0 
L 1544 1831 
L 300 3500 
L 978 3500 
L 1906 2253 
L 2834 3500 
L 3513 3500 
z
" transform="scale(0.015625)"/>
      <path id="DejaVuSans-65" d="M 3597 1894 
L 3597 1613 
L 953 1613 
Q 991 1019 1311 708 
Q 1631 397 2203 397 
Q 2534 397 2845 478 
Q 3156 559 3463 722 
L 3463 178 
Q 3153 47 2828 -22 
Q 2503 -91 2169 -91 
Q 1331 -91 842 396 
Q 353 884 353 1716 
Q 353 2575 817 3079 
Q 1281 3584 2069 3584 
Q 2775 3584 3186 3129 
Q 3597 2675 3597 1894 
z
M 3022 2063 
Q 3016 2534 2758 2815 
Q 2500 3097 2075 3097 
Q 1594 3097 1305 2825 
Q 1016 2553 972 2059 
L 3022 2063 
z
" transform="scale(0.015625)"/>
      <path id="DejaVuSans-64" d="M 2906 2969 
L 2906 4863 
L 3481 4863 
L 3481 0 
L 2906 0 
L 2906 525 
Q 2725 213 2448 61 
Q 2172 -91 1784 -91 
Q 1150 -91 751 415 
Q 353 922 353 1747 
Q 353 2572 751 3078 
Q 1150 3584 1784 3584 
Q 2172 3584 2448 3432 
Q 2725 3281 2906 2969 
z
M 947 1747 
Q 947 1113 1208 752 
Q 1469 391 1925 391 
Q 2381 391 2643 752 
Q 2906 1113 2906 1747 
Q 2906 2381 2643 2742 
Q 2381 3103 1925 3103 
Q 1469 3103 1208 2742 
Q 947 2381 947 1747 
z
" transform="scale(0.015625)"/>
      <path id="DejaVuSans-20" transform="scale(0.015625)"/>
      <path id="DejaVuSans-63" d="M 3122 3366 
L 3122 2828 
Q 2878 2963 2633 3030 
Q 2388 3097 2138 3097 
Q 1578 3097 1268 2742 
Q 959 2388 959 1747 
Q 959 1106 1268 751 
Q 1578 397 2138 397 
Q 2388 397 2633 464 
Q 2878 531 3122 666 
L 3122 134 
Q 2881 22 2623 -34 
Q 2366 -91 2075 -91 
Q 1284 -91 818 406 
Q 353 903 353 1747 
Q 353 2603 823 3093 
Q 1294 3584 2113 3584 
Q 2378 3584 2631 3529 
Q 2884 3475 3122 3366 
z
" transform="scale(0.015625)"/>
      <path id="DejaVuSans-6f" d="M 1959 3097 
Q 1497 3097 1228 2736 
Q 959 2375 959 1747 
Q 959 1119 1226 758 
Q 1494 397 1959 397 
Q 2419 397 2687 759 
Q 2956 1122 2956 1747 
Q 2956 2369 2687 2733 
Q 2419 3097 1959 3097 
z
M 1959 3584 
Q 2709 3584 3137 3096 
Q 3566 2609 3566 1747 
Q 3566 888 3137 398 
Q 2709 -91 1959 -91 
Q 1206 -91 779 398 
Q 353 888 353 1747 
Q 353 2609 779 3096 
Q 1206 3584 1959 3584 
z
" transform="scale(0.015625)"/>
      <path id="DejaVuSans-6e" d="M 3513 2113 
L 3513 0 
L 2938 0 
L 2938 2094 
Q 2938 2591 2744 2837 
Q 2550 3084 2163 3084 
Q 1697 3084 1428 2787 
Q 1159 2491 1159 1978 
L 1159 0 
L 581 0 
L 581 3500 
L 1159 3500 
L 1159 2956 
Q 1366 3272 1645 3428 
Q 1925 3584 2291 3584 
Q 2894 3584 3203 3211 
Q 3513 2838 3513 2113 
z
" transform="scale(0.015625)"/>
      <path id="DejaVuSans-74" d="M 1172 4494 
L 1172 3500 
L 2356 3500 
L 2356 3053 
L 1172 3053 
L 1172 1153 
Q 1172 725 1289 603 
Q 1406 481 1766 481 
L 2356 481 
L 2356 0 
L 1766 0 
Q 1100 0 847 248 
Q 594 497 594 1153 
L 594 3053 
L 172 3053 
L 172 3500 
L 594 3500 
L 594 4494 
L 1172 4494 
z
" transform="scale(0.015625)"/>
      <path id="DejaVuSans-75" d="M 544 1381 
L 544 3500 
L 1119 3500 
L 1119 1403 
Q 1119 906 1312 657 
Q 1506 409 1894 409 
Q 2359 409 2629 706 
Q 2900 1003 2900 1516 
L 2900 3500 
L 3475 3500 
L 3475 0 
L 2900 0 
L 2900 538 
Q 2691 219 2414 64 
Q 2138 -91 1772 -91 
Q 1169 -91 856 284 
Q 544 659 544 1381 
z
M 1991 3584 
L 1991 3584 
z
" transform="scale(0.015625)"/>
      <path id="DejaVuSans-73" d="M 2834 3397 
L 2834 2853 
Q 2591 2978 2328 3040 
Q 2066 3103 1784 3103 
Q 1356 3103 1142 2972 
Q 928 2841 928 2578 
Q 928 2378 1081 2264 
Q 1234 2150 1697 2047 
L 1894 2003 
Q 2506 1872 2764 1633 
Q 3022 1394 3022 966 
Q 3022 478 2636 193 
Q 2250 -91 1575 -91 
Q 1294 -91 989 -36 
Q 684 19 347 128 
L 347 722 
Q 666 556 975 473 
Q 1284 391 1588 391 
Q 1994 391 2212 530 
Q 2431 669 2431 922 
Q 2431 1156 2273 1281 
Q 2116 1406 1581 1522 
L 1381 1569 
Q 847 1681 609 1914 
Q 372 2147 372 2553 
Q 372 3047 722 3315 
Q 1072 3584 1716 3584 
Q 2034 3584 2315 3537 
Q 2597 3491 2834 3397 
z
" transform="scale(0.015625)"/>
      <path id="DejaVuSans-2d" d="M 313 2009 
L 1997 2009 
L 1997 1497 
L 313 1497 
L 313 2009 
z
" transform="scale(0.015625)"/>
      <path id="DejaVuSans-61" d="M 2194 1759 
Q 1497 1759 1228 1600 
Q 959 1441 959 1056 
Q 959 750 1161 570 
Q 1363 391 1709 391 
Q 2188 391 2477 730 
Q 2766 1069 2766 1631 
L 2766 1759 
L 2194 1759 
z
M 3341 1997 
L 3341 0 
L 2766 0 
L 2766 531 
Q 2569 213 2275 61 
Q 1981 -91 1556 -91 
Q 1019 -91 701 211 
Q 384 513 384 1019 
Q 384 1609 779 1909 
Q 1175 2209 1959 2209 
L 2766 2209 
L 2766 2266 
Q 2766 2663 2505 2880 
Q 2244 3097 1772 3097 
Q 1472 3097 1187 3025 
Q 903 2953 641 2809 
L 641 3341 
Q 956 3463 1253 3523 
Q 1550 3584 1831 3584 
Q 2591 3584 2966 3190 
Q 3341 2797 3341 1997 
z
" transform="scale(0.015625)"/>
      <path id="DejaVuSans-67" d="M 2906 1791 
Q 2906 2416 2648 2759 
Q 2391 3103 1925 3103 
Q 1463 3103 1205 2759 
Q 947 2416 947 1791 
Q 947 1169 1205 825 
Q 1463 481 1925 481 
Q 2391 481 2648 825 
Q 2906 1169 2906 1791 
z
M 3481 434 
Q 3481 -459 3084 -895 
Q 2688 -1331 1869 -1331 
Q 1566 -1331 1297 -1286 
Q 1028 -1241 775 -1147 
L 775 -588 
Q 1028 -725 1275 -790 
Q 1522 -856 1778 -856 
Q 2344 -856 2625 -561 
Q 2906 -266 2906 331 
L 2906 616 
Q 2728 306 2450 153 
Q 2172 0 1784 0 
Q 1141 0 747 490 
Q 353 981 353 1791 
Q 353 2603 747 3093 
Q 1141 3584 1784 3584 
Q 2172 3584 2450 3431 
Q 2728 3278 2906 2969 
L 2906 3500 
L 3481 3500 
L 3481 434 
z
" transform="scale(0.015625)"/>
      <path id="DejaVuSans-72" d="M 2631 2963 
Q 2534 3019 2420 3045 
Q 2306 3072 2169 3072 
Q 1681 3072 1420 2755 
Q 1159 2438 1159 1844 
L 1159 0 
L 581 0 
L 581 3500 
L 1159 3500 
L 1159 2956 
Q 1341 3275 1631 3429 
Q 1922 3584 2338 3584 
Q 2397 3584 2469 3576 
Q 2541 3569 2628 3553 
L 2631 2963 
z
" transform="scale(0.015625)"/>
      <path id="DejaVuSans-6c" d="M 603 4863 
L 1178 4863 
L 1178 0 
L 603 0 
L 603 4863 
z
" transform="scale(0.015625)"/>
      <path id="DejaVuSans-6d" d="M 3328 2828 
Q 3544 3216 3844 3400 
Q 4144 3584 4550 3584 
Q 5097 3584 5394 3201 
Q 5691 2819 5691 2113 
L 5691 0 
L 5113 0 
L 5113 2094 
Q 5113 2597 4934 2840 
Q 4756 3084 4391 3084 
Q 3944 3084 3684 2787 
Q 3425 2491 3425 1978 
L 3425 0 
L 2847 0 
L 2847 2094 
Q 2847 2600 2669 2842 
Q 2491 3084 2119 3084 
Q 1678 3084 1418 2786 
Q 1159 2488 1159 1978 
L 1159 0 
L 581 0 
L 581 3500 
L 1159 3500 
L 1159 2956 
Q 1356 3278 1631 3431 
Q 1906 3584 2284 3584 
Q 2666 3584 2933 3390 
Q 3200 3197 3328 2828 
z
" transform="scale(0.015625)"/>
     </defs>
     <use xlink:href="#DejaVuSans-4d"/>
     <use xlink:href="#DejaVuSans-69" transform="translate(86.279297 0)"/>
     <use xlink:href="#DejaVuSans-78" transform="translate(114.0625 0)"/>
     <use xlink:href="#DejaVuSans-65" transform="translate(170.117188 0)"/>
     <use xlink:href="#DejaVuSans-64" transform="translate(231.640625 0)"/>
     <use xlink:href="#DejaVuSans-20" transform="translate(295.117188 0)"/>
     <use xlink:href="#DejaVuSans-63" transform="translate(326.904297 0)"/>
     <use xlink:href="#DejaVuSans-6f" transform="translate(381.884766 0)"/>
     <use xlink:href="#DejaVuSans-6e" transform="translate(443.066406 0)"/>
     <use xlink:href="#DejaVuSans-74" transform="translate(506.445312 0)"/>
     <use xlink:href="#DejaVuSans-69" transform="translate(545.654297 0)"/>
     <use xlink:href="#DejaVuSans-6e" transform="translate(573.4375 0)"/>
     <use xlink:href="#DejaVuSans-75" transform="translate(636.816406 0)"/>
     <use xlink:href="#DejaVuSans-6f" transform="translate(700.195312 0)"/>
     <use xlink:href="#DejaVuSans-75" transform="translate(761.376953 0)"/>
     <use xlink:href="#DejaVuSans-73" transform="translate(824.755859 0)"/>
     <use xlink:href="#DejaVuSans-2d" transform="translate(876.855469 0)"/>
     <use xlink:href="#DejaVuSans-63" transform="translate(912.939453 0)"/>
     <use xlink:href="#DejaVuSans-61" transform="translate(967.919922 0)"/>
     <use xlink:href="#DejaVuSans-74" transform="translate(1029.199219 0)"/>
     <use xlink:href="#DejaVuSans-65" transform="translate(1068.408203 0)"/>
     <use xlink:href="#DejaVuSans-67" transform="translate(1129.931641 0)"/>
     <use xlink:href="#DejaVuSans-6f" transform="translate(1193.408203 0)"/>
     <use xlink:href="#DejaVuSans-72" transform="translate(1254.589844 0)"/>
     <use xlink:href="#DejaVuSans-69" transform="translate(1295.703125 0)"/>
     <use xlink:href="#DejaVuSans-63" transform="translate(1323.486328 0)"/>
     <use xlink:href="#DejaVuSans-61" transform="translate(1378.466797 0)"/>
     <use xlink:href="#DejaVuSans-6c" transform="translate(1439.746094 0)"/>
     <use xlink:href="#DejaVuSans-20" transform="translate(1467.529297 0)"/>
     <use xlink:href="#DejaVuSans-6d" transform="translate(1499.316406 0)"/>
     <use xlink:href="#DejaVuSans-6f" transform="translate(1596.728516 0)"/>
     <use xlink:href="#DejaVuSans-64" transform="translate(1657.910156 0)"/>
     <use xlink:href="#DejaVuSans-65" transform="translate(1721.386719 0)"/>
     <use xlink:href="#DejaVuSans-6c" transform="translate(1782.910156 0)"/>
     <use xlink:href="#DejaVuSans-69" transform="translate(1810.693359 0)"/>
     <use xlink:href="#DejaVuSans-6e" transform="translate(1838.476562 0)"/>
     <use xlink:href="#DejaVuSans-67" transform="translate(1901.855469 0)"/>
    </g>
   </g>
   <g id="legend_1">
    <g id="patch_7">
     <path d="M 142 333.4 
L 320.867188 333.4 
Q 322.867188 333.4 322.867188 331.4 
L 322.867188 273.6875 
Q 322.867188 271.6875 320.867188 271.6875 
L 142 271.6875 
Q 140 271.6875 140 273.6875 
L 140 331.4 
Q 140 333.4 142 333.4 
z
" style="fill: #ffffff; opacity: 0.8; stroke: #cccccc; stroke-linejoin: miter"/>
    </g>
    <g id="line2d_19">
     <g>
      <use xlink:href="#md2d3a6f7b9" x="154" y="279.785937" style="fill: #ff0000; stroke: #ff0000; stroke-linejoin: bevel"/>
     </g>
    </g>
    <g id="text_9">
     <!-- Training data -->
     <g transform="translate(172 283.285937) scale(0.1 -0.1)">
      <defs>
       <path id="DejaVuSans-54" d="M -19 4666 
L 3928 4666 
L 3928 4134 
L 2272 4134 
L 2272 0 
L 1638 0 
L 1638 4134 
L -19 4134 
L -19 4666 
z
" transform="scale(0.015625)"/>
      </defs>
      <use xlink:href="#DejaVuSans-54"/>
      <use xlink:href="#DejaVuSans-72" transform="translate(46.333984 0)"/>
      <use xlink:href="#DejaVuSans-61" transform="translate(87.447266 0)"/>
      <use xlink:href="#DejaVuSans-69" transform="translate(148.726562 0)"/>
      <use xlink:href="#DejaVuSans-6e" transform="translate(176.509766 0)"/>
      <use xlink:href="#DejaVuSans-69" transform="translate(239.888672 0)"/>
      <use xlink:href="#DejaVuSans-6e" transform="translate(267.671875 0)"/>
      <use xlink:href="#DejaVuSans-67" transform="translate(331.050781 0)"/>
      <use xlink:href="#DejaVuSans-20" transform="translate(394.527344 0)"/>
      <use xlink:href="#DejaVuSans-64" transform="translate(426.314453 0)"/>
      <use xlink:href="#DejaVuSans-61" transform="translate(489.791016 0)"/>
      <use xlink:href="#DejaVuSans-74" transform="translate(551.070312 0)"/>
      <use xlink:href="#DejaVuSans-61" transform="translate(590.279297 0)"/>
     </g>
    </g>
    <g id="line2d_20">
     <path d="M 144 294.464063 
L 154 294.464063 
L 164 294.464063 
" style="fill: none; stroke-dasharray: 5.55,2.4; stroke-dashoffset: 0; stroke: #000000; stroke-width: 1.5"/>
    </g>
    <g id="text_10">
     <!-- True function -->
     <g transform="translate(172 297.964063) scale(0.1 -0.1)">
      <defs>
       <path id="DejaVuSans-66" d="M 2375 4863 
L 2375 4384 
L 1825 4384 
Q 1516 4384 1395 4259 
Q 1275 4134 1275 3809 
L 1275 3500 
L 2222 3500 
L 2222 3053 
L 1275 3053 
L 1275 0 
L 697 0 
L 697 3053 
L 147 3053 
L 147 3500 
L 697 3500 
L 697 3744 
Q 697 4328 969 4595 
Q 1241 4863 1831 4863 
L 2375 4863 
z
" transform="scale(0.015625)"/>
      </defs>
      <use xlink:href="#DejaVuSans-54"/>
      <use xlink:href="#DejaVuSans-72" transform="translate(46.333984 0)"/>
      <use xlink:href="#DejaVuSans-75" transform="translate(87.447266 0)"/>
      <use xlink:href="#DejaVuSans-65" transform="translate(150.826172 0)"/>
      <use xlink:href="#DejaVuSans-20" transform="translate(212.349609 0)"/>
      <use xlink:href="#DejaVuSans-66" transform="translate(244.136719 0)"/>
      <use xlink:href="#DejaVuSans-75" transform="translate(279.341797 0)"/>
      <use xlink:href="#DejaVuSans-6e" transform="translate(342.720703 0)"/>
      <use xlink:href="#DejaVuSans-63" transform="translate(406.099609 0)"/>
      <use xlink:href="#DejaVuSans-74" transform="translate(461.080078 0)"/>
      <use xlink:href="#DejaVuSans-69" transform="translate(500.289062 0)"/>
      <use xlink:href="#DejaVuSans-6f" transform="translate(528.072266 0)"/>
      <use xlink:href="#DejaVuSans-6e" transform="translate(589.253906 0)"/>
     </g>
    </g>
    <g id="line2d_21">
     <path d="M 144 309.142187 
L 154 309.142187 
L 164 309.142187 
" style="fill: none; stroke: #0000ff; stroke-width: 1.5; stroke-linecap: square"/>
    </g>
    <g id="text_11">
     <!-- Prediction -->
     <g transform="translate(172 312.642187) scale(0.1 -0.1)">
      <defs>
       <path id="DejaVuSans-50" d="M 1259 4147 
L 1259 2394 
L 2053 2394 
Q 2494 2394 2734 2622 
Q 2975 2850 2975 3272 
Q 2975 3691 2734 3919 
Q 2494 4147 2053 4147 
L 1259 4147 
z
M 628 4666 
L 2053 4666 
Q 2838 4666 3239 4311 
Q 3641 3956 3641 3272 
Q 3641 2581 3239 2228 
Q 2838 1875 2053 1875 
L 1259 1875 
L 1259 0 
L 628 0 
L 628 4666 
z
" transform="scale(0.015625)"/>
      </defs>
      <use xlink:href="#DejaVuSans-50"/>
      <use xlink:href="#DejaVuSans-72" transform="translate(58.552734 0)"/>
      <use xlink:href="#DejaVuSans-65" transform="translate(97.416016 0)"/>
      <use xlink:href="#DejaVuSans-64" transform="translate(158.939453 0)"/>
      <use xlink:href="#DejaVuSans-69" transform="translate(222.416016 0)"/>
      <use xlink:href="#DejaVuSans-63" transform="translate(250.199219 0)"/>
      <use xlink:href="#DejaVuSans-74" transform="translate(305.179688 0)"/>
      <use xlink:href="#DejaVuSans-69" transform="translate(344.388672 0)"/>
      <use xlink:href="#DejaVuSans-6f" transform="translate(372.171875 0)"/>
      <use xlink:href="#DejaVuSans-6e" transform="translate(433.353516 0)"/>
     </g>
    </g>
    <g id="patch_8">
     <path d="M 144 327.320312 
L 164 327.320312 
L 164 320.320312 
L 144 320.320312 
z
" style="fill: #0000ff; fill-opacity: 0.5; stroke: #0000ff; stroke-opacity: 0.5; stroke-linejoin: miter"/>
    </g>
    <g id="text_12">
     <!-- Prediction standard deviation -->
     <g transform="translate(172 327.320312) scale(0.1 -0.1)">
      <defs>
       <path id="DejaVuSans-76" d="M 191 3500 
L 800 3500 
L 1894 563 
L 2988 3500 
L 3597 3500 
L 2284 0 
L 1503 0 
L 191 3500 
z
" transform="scale(0.015625)"/>
      </defs>
      <use xlink:href="#DejaVuSans-50"/>
      <use xlink:href="#DejaVuSans-72" transform="translate(58.552734 0)"/>
      <use xlink:href="#DejaVuSans-65" transform="translate(97.416016 0)"/>
      <use xlink:href="#DejaVuSans-64" transform="translate(158.939453 0)"/>
      <use xlink:href="#DejaVuSans-69" transform="translate(222.416016 0)"/>
      <use xlink:href="#DejaVuSans-63" transform="translate(250.199219 0)"/>
      <use xlink:href="#DejaVuSans-74" transform="translate(305.179688 0)"/>
      <use xlink:href="#DejaVuSans-69" transform="translate(344.388672 0)"/>
      <use xlink:href="#DejaVuSans-6f" transform="translate(372.171875 0)"/>
      <use xlink:href="#DejaVuSans-6e" transform="translate(433.353516 0)"/>
      <use xlink:href="#DejaVuSans-20" transform="translate(496.732422 0)"/>
      <use xlink:href="#DejaVuSans-73" transform="translate(528.519531 0)"/>
      <use xlink:href="#DejaVuSans-74" transform="translate(580.619141 0)"/>
      <use xlink:href="#DejaVuSans-61" transform="translate(619.828125 0)"/>
      <use xlink:href="#DejaVuSans-6e" transform="translate(681.107422 0)"/>
      <use xlink:href="#DejaVuSans-64" transform="translate(744.486328 0)"/>
      <use xlink:href="#DejaVuSans-61" transform="translate(807.962891 0)"/>
      <use xlink:href="#DejaVuSans-72" transform="translate(869.242188 0)"/>
      <use xlink:href="#DejaVuSans-64" transform="translate(908.605469 0)"/>
      <use xlink:href="#DejaVuSans-20" transform="translate(972.082031 0)"/>
      <use xlink:href="#DejaVuSans-64" transform="translate(1003.869141 0)"/>
      <use xlink:href="#DejaVuSans-65" transform="translate(1067.345703 0)"/>
      <use xlink:href="#DejaVuSans-76" transform="translate(1128.869141 0)"/>
      <use xlink:href="#DejaVuSans-69" transform="translate(1188.048828 0)"/>
      <use xlink:href="#DejaVuSans-61" transform="translate(1215.832031 0)"/>
      <use xlink:href="#DejaVuSans-74" transform="translate(1277.111328 0)"/>
      <use xlink:href="#DejaVuSans-69" transform="translate(1316.320312 0)"/>
      <use xlink:href="#DejaVuSans-6f" transform="translate(1344.103516 0)"/>
      <use xlink:href="#DejaVuSans-6e" transform="translate(1405.285156 0)"/>
     </g>
    </g>
   </g>
  </g>
  <g id="axes_2">
   <g id="patch_9">
    <path d="M 135 640.8 
L 972 640.8 
L 972 388.8 
L 135 388.8 
z
" style="fill: #ffffff"/>
   </g>
   <g id="FillBetweenPolyCollection_3">
    <defs>
     <path id="md7112bb71f" d="M 173.045455 -273.406072 
L 173.045455 -270.779319 
L 179.590123 -270.22095 
L 191.655538 -268.429247 
L 196.484442 -267.435482 
L 206.691209 -264.81901 
L 210.076125 -263.689705 
L 214.283311 -262.202112 
L 215.103077 -261.902545 
L 229.536681 -256.10049 
L 237.925964 -252.263508 
L 248.037177 -247.183298 
L 259.308928 -240.940798 
L 261.107625 -239.852932 
L 269.356653 -234.64898 
L 271.655435 -233.143397 
L 284.692675 -224.189203 
L 285.08608 -223.908787 
L 293.434274 -217.832305 
L 300.474311 -212.538051 
L 307.458376 -207.154712 
L 314.791474 -201.385476 
L 340.36527 -180.697421 
L 342.794449 -178.713361 
L 347.188535 -175.1271 
L 347.595782 -174.795056 
L 361.395539 -163.618443 
L 362.276001 -162.912478 
L 366.170176 -159.80422 
L 371.628694 -155.491932 
L 379.325873 -149.518482 
L 394.768366 -137.787454 
L 418.422354 -121.234407 
L 423.055862 -118.307815 
L 423.598008 -117.973066 
L 431.38041 -113.353837 
L 440.92631 -108.191964 
L 452.45031 -102.763102 
L 468.991631 -96.635446 
L 470.304544 -96.237326 
L 479.151705 -93.904049 
L 482.529506 -93.17569 
L 483.752478 -92.934334 
L 505.072551 -90.654545 
L 512.416092 -90.714379 
L 516.916823 -90.869538 
L 527.227305 -91.555737 
L 529.397261 -91.800116 
L 539.562307 -93.403197 
L 545.060911 -94.581625 
L 545.296614 -94.636965 
L 552.331905 -96.469206 
L 565.957668 -100.987517 
L 566.307517 -101.119906 
L 581.48695 -107.616988 
L 586.311662 -109.9783 
L 600.903397 -117.922058 
L 608.54994 -122.530779 
L 612.225612 -124.846352 
L 615.39249 -126.890786 
L 620.360036 -130.185407 
L 638.419851 -142.96167 
L 646.620386 -149.109008 
L 661.609621 -160.752542 
L 662.185469 -161.208035 
L 663.826905 -162.50903 
L 665.930856 -164.181923 
L 680.686465 -175.551905 
L 693.74745 -184.62946 
L 695.86716 -186.082287 
L 719.140805 -201.522368 
L 721.980679 -203.33164 
L 729.289102 -207.90263 
L 730.031873 -208.3601 
L 737.546027 -212.911613 
L 739.060856 -213.811988 
L 757.108301 -224.076103 
L 768.892817 -230.304499 
L 770.461063 -231.104781 
L 771.021166 -231.388977 
L 773.994733 -232.883457 
L 775.778895 -233.768613 
L 776.781393 -234.262181 
L 824.80117 -254.862615 
L 825.471226 -255.110885 
L 833.034204 -257.846402 
L 835.880223 -258.844921 
L 838.75257 -259.836139 
L 849.618827 -263.442359 
L 862.372511 -267.406929 
L 867.080893 -268.803703 
L 874.001006 -269.867911 
L 874.297278 -269.853914 
L 881.51 -269.353089 
L 883.440233 -269.167527 
L 884.343564 -269.073313 
L 904.162105 -265.864854 
L 909.481038 -264.649359 
L 913.585596 -263.614977 
L 919.479855 -261.988029 
L 923.998856 -260.631868 
L 923.998856 -283.470479 
L 923.998856 -283.470479 
L 919.479855 -282.427558 
L 913.585596 -281.040832 
L 909.481038 -280.056599 
L 904.162105 -278.757237 
L 884.343564 -273.650627 
L 883.440233 -273.406904 
L 881.51 -272.882639 
L 874.297278 -270.88011 
L 874.001006 -270.796335 
L 867.080893 -270.044845 
L 862.372511 -269.998804 
L 849.618827 -269.183857 
L 838.75257 -267.682124 
L 835.880223 -267.160085 
L 833.034204 -266.591202 
L 825.471226 -264.830164 
L 824.80117 -264.65672 
L 776.781393 -245.146232 
L 775.778895 -244.59929 
L 773.994733 -243.613038 
L 771.021166 -241.933262 
L 770.461063 -241.611884 
L 768.892817 -240.703775 
L 757.108301 -233.505078 
L 739.060856 -221.328447 
L 737.546027 -220.250721 
L 730.031873 -214.793931 
L 729.289102 -214.245079 
L 721.980679 -208.762953 
L 719.140805 -206.595832 
L 695.86716 -188.268527 
L 693.74745 -186.565407 
L 680.686465 -176.030446 
L 665.930856 -165.125142 
L 663.826905 -163.632008 
L 662.185469 -162.466972 
L 661.609621 -162.058274 
L 646.620386 -151.460712 
L 638.419851 -145.739656 
L 620.360036 -133.531234 
L 615.39249 -130.305478 
L 612.225612 -128.286133 
L 608.54994 -125.981844 
L 600.903397 -121.337852 
L 586.311662 -113.127863 
L 581.48695 -110.628482 
L 566.307517 -103.569734 
L 565.957668 -103.422518 
L 552.331905 -98.281319 
L 545.296614 -96.104252 
L 545.060911 -96.037219 
L 539.562307 -94.584893 
L 529.397261 -92.47877 
L 527.227305 -92.129188 
L 516.916823 -90.962889 
L 512.416092 -90.817059 
L 505.072551 -91.054312 
L 483.752478 -93.994542 
L 482.529506 -94.263356 
L 479.151705 -95.061238 
L 470.304544 -97.53185 
L 468.991631 -97.944771 
L 452.45031 -104.136517 
L 440.92631 -109.482716 
L 431.38041 -114.506314 
L 423.598008 -118.972976 
L 423.055862 -119.295933 
L 418.422354 -122.11626 
L 394.768366 -138.022575 
L 379.325873 -149.729408 
L 371.628694 -155.909995 
L 366.170176 -160.357936 
L 362.276001 -163.555862 
L 361.395539 -164.281188 
L 347.595782 -175.710314 
L 347.188535 -176.048211 
L 342.794449 -179.691249 
L 340.36527 -181.701553 
L 314.791474 -202.429784 
L 307.458376 -208.131518 
L 300.474311 -213.42106 
L 293.434274 -218.595148 
L 285.08608 -224.502169 
L 284.692675 -224.77402 
L 271.655435 -233.42679 
L 269.356653 -234.877643 
L 261.107625 -239.88932 
L 259.308928 -240.944535 
L 248.037177 -247.409218 
L 237.925964 -252.621032 
L 229.536681 -256.494292 
L 215.103077 -262.143675 
L 214.283311 -262.424722 
L 210.076125 -263.798254 
L 206.691209 -264.826582 
L 196.484442 -267.93861 
L 191.655538 -269.250395 
L 179.590123 -272.100968 
L 173.045455 -273.406072 
z
" style="stroke: #0000ff; stroke-opacity: 0.5"/>
    </defs>
    <g clip-path="url(#pdbe606b315)">
     <use xlink:href="#md7112bb71f" x="0" y="720" style="fill: #0000ff; fill-opacity: 0.5; stroke: #0000ff; stroke-opacity: 0.5"/>
    </g>
   </g>
   <g id="FillBetweenPolyCollection_4">
    <defs>
     <path id="m51ce93b218" d="M 180.679239 -297.509937 
L 180.679239 -208.824884 
L 189.740161 -208.584243 
L 194.254775 -208.470406 
L 198.604746 -208.368601 
L 198.774987 -208.364821 
L 199.916349 -208.339941 
L 216.345578 -208.113748 
L 218.774436 -208.109911 
L 220.513159 -208.113414 
L 222.341123 -208.123168 
L 242.211335 -208.755252 
L 250.330651 -209.378685 
L 253.224518 -209.665029 
L 264.92991 -211.215358 
L 267.470375 -211.641907 
L 297.88819 -219.59898 
L 303.141432 -221.528265 
L 303.246263 -221.568404 
L 315.473717 -226.671767 
L 318.520857 -228.06685 
L 319.65512 -228.59783 
L 328.952763 -233.170522 
L 368.536462 -217.589198 
L 368.898577 -217.475095 
L 381.218787 -214.059343 
L 382.109363 -213.847138 
L 382.121421 -213.844296 
L 387.445282 -212.670838 
L 390.199294 -212.126148 
L 391.364009 -211.908251 
L 419.651575 -208.608755 
L 422.739693 -208.441398 
L 430.795551 -208.135785 
L 443.235176 -207.954193 
L 443.679376 -207.952658 
L 462.016651 -208.060397 
L 468.516204 -208.13705 
L 503.039016 -208.247418 
L 505.38534 -208.218333 
L 519.686849 -207.907194 
L 527.072556 -207.654253 
L 527.185719 -207.649896 
L 527.268573 -207.646697 
L 528.820221 -207.58537 
L 530.40847 -207.519857 
L 539.752832 -207.081399 
L 540.847471 -207.024534 
L 556.032833 -206.14593 
L 558.610492 -205.985615 
L 571.468905 -205.188401 
L 572.85271 -205.106355 
L 573.015934 -205.096768 
L 587.299247 -204.376528 
L 590.652518 -204.257065 
L 602.402399 -204.072983 
L 619.989372 -204.784323 
L 627.480482 -205.574097 
L 633.416221 -206.449926 
L 649.580625 -210.113956 
L 653.728244 -211.382322 
L 658.49115 -213.013451 
L 660.613679 -213.801338 
L 666.241291 -216.074079 
L 675.892635 -220.593335 
L 697.610513 -225.793318 
L 699.527767 -225.19697 
L 703.567785 -224.068455 
L 713.003794 -222.160031 
L 715.177181 -221.874109 
L 716.489099 -221.730616 
L 718.66607 -221.541656 
L 718.901703 -221.52492 
L 727.5052 -221.424436 
L 728.298721 -221.466232 
L 749.075318 -225.739532 
L 757.419633 -229.180706 
L 760.116315 -230.497443 
L 773.004714 -238.085971 
L 773.988957 -238.748127 
L 785.938826 -247.598921 
L 800.128143 -259.642976 
L 801.927728 -261.2511 
L 803.930456 -263.054644 
L 807.25738 -266.075649 
L 810.205654 -268.769667 
L 832.459646 -288.594307 
L 839.836603 -294.497546 
L 846.240127 -299.14482 
L 849.966148 -301.604728 
L 850.552587 -301.973978 
L 867.001622 -310.055422 
L 876.37276 -312.440467 
L 877.02259 -312.541097 
L 889.75398 -311.589046 
L 892.090368 -310.91648 
L 899.578063 -308.738325 
L 899.659121 -308.714758 
L 900.661152 -308.42376 
L 910.510339 -305.630285 
L 933.954545 -290.502543 
L 933.954545 -300.120889 
L 933.954545 -300.120889 
L 910.510339 -306.24026 
L 900.661152 -310.357652 
L 899.659121 -310.676681 
L 899.578063 -310.701649 
L 892.090368 -312.454071 
L 889.75398 -312.771693 
L 877.02259 -315.042883 
L 876.37276 -315.204659 
L 867.001622 -317.303475 
L 850.552587 -319.544896 
L 849.966148 -319.582623 
L 846.240127 -319.745455 
L 839.836603 -319.699538 
L 832.459646 -319.103069 
L 810.205654 -313.543937 
L 807.25738 -312.381206 
L 803.930456 -310.953443 
L 801.927728 -310.035967 
L 800.128143 -309.175107 
L 785.938826 -301.25523 
L 773.988957 -293.228068 
L 773.004714 -292.520808 
L 760.116315 -282.751652 
L 757.419633 -280.610495 
L 749.075318 -273.844344 
L 728.298721 -256.704453 
L 727.5052 -256.057954 
L 718.901703 -249.160804 
L 718.66607 -248.975367 
L 716.489099 -247.272467 
L 715.177181 -246.255683 
L 713.003794 -244.587966 
L 703.567785 -237.623982 
L 699.527767 -234.799118 
L 697.610513 -233.49506 
L 675.892635 -234.861035 
L 666.241291 -239.932207 
L 660.613679 -243.079126 
L 658.49115 -244.29284 
L 653.728244 -247.056473 
L 649.580625 -249.495331 
L 633.416221 -259.041573 
L 627.480482 -262.470619 
L 619.989372 -266.669826 
L 602.402399 -275.720816 
L 590.652518 -280.974813 
L 587.299247 -282.344181 
L 573.015934 -287.503705 
L 572.85271 -287.556314 
L 571.468905 -287.996564 
L 558.610492 -291.598793 
L 556.032833 -292.216321 
L 540.847471 -295.171762 
L 539.752832 -295.34095 
L 530.40847 -296.554416 
L 528.820221 -296.720312 
L 527.268573 -296.871261 
L 527.185719 -296.879014 
L 527.072556 -296.889552 
L 519.686849 -297.452893 
L 505.38534 -297.862026 
L 503.039016 -297.844772 
L 468.516204 -294.83149 
L 462.016651 -293.667032 
L 443.679376 -289.293548 
L 443.235176 -289.167158 
L 430.795551 -285.227291 
L 422.739693 -282.263809 
L 419.651575 -281.043119 
L 391.364009 -267.862115 
L 390.199294 -267.251834 
L 387.445282 -265.791657 
L 382.121421 -262.906619 
L 382.109363 -262.899999 
L 381.218787 -262.410133 
L 368.898577 -255.473567 
L 368.536462 -255.266348 
L 328.952763 -234.470033 
L 319.65512 -239.456844 
L 318.520857 -240.082338 
L 315.473717 -241.777706 
L 303.246263 -248.736578 
L 303.141432 -248.796895 
L 297.88819 -251.82315 
L 267.470375 -268.713424 
L 264.92991 -270.018301 
L 253.224518 -275.715925 
L 250.330651 -277.037794 
L 242.211335 -280.548275 
L 222.341123 -287.848031 
L 220.513159 -288.426648 
L 218.774436 -288.962721 
L 216.345578 -289.688431 
L 199.916349 -293.916525 
L 198.774987 -294.168286 
L 198.604746 -294.205394 
L 194.254775 -295.115203 
L 189.740161 -295.983793 
L 180.679239 -297.509937 
z
" style="stroke: #0000ff; stroke-opacity: 0.5"/>
    </defs>
    <g clip-path="url(#pdbe606b315)">
     <use xlink:href="#m51ce93b218" x="0" y="720" style="fill: #0000ff; fill-opacity: 0.5; stroke: #0000ff; stroke-opacity: 0.5"/>
    </g>
   </g>
   <g id="matplotlib.axis_3">
    <g id="xtick_7">
     <g id="line2d_22">
      <g>
       <use xlink:href="#m16d1507099" x="167.337264" y="640.8" style="stroke: #000000; stroke-width: 0.8"/>
      </g>
     </g>
     <g id="text_13">
      <!-- 0.0 -->
      <g transform="translate(159.385701 655.398438) scale(0.1 -0.1)">
       <use xlink:href="#DejaVuSans-30"/>
       <use xlink:href="#DejaVuSans-2e" transform="translate(63.623047 0)"/>
       <use xlink:href="#DejaVuSans-30" transform="translate(95.410156 0)"/>
      </g>
     </g>
    </g>
    <g id="xtick_8">
     <g id="line2d_23">
      <g>
       <use xlink:href="#m16d1507099" x="321.52065" y="640.8" style="stroke: #000000; stroke-width: 0.8"/>
      </g>
     </g>
     <g id="text_14">
      <!-- 0.2 -->
      <g transform="translate(313.569087 655.398438) scale(0.1 -0.1)">
       <defs>
        <path id="DejaVuSans-32" d="M 1228 531 
L 3431 531 
L 3431 0 
L 469 0 
L 469 531 
Q 828 903 1448 1529 
Q 2069 2156 2228 2338 
Q 2531 2678 2651 2914 
Q 2772 3150 2772 3378 
Q 2772 3750 2511 3984 
Q 2250 4219 1831 4219 
Q 1534 4219 1204 4116 
Q 875 4013 500 3803 
L 500 4441 
Q 881 4594 1212 4672 
Q 1544 4750 1819 4750 
Q 2544 4750 2975 4387 
Q 3406 4025 3406 3419 
Q 3406 3131 3298 2873 
Q 3191 2616 2906 2266 
Q 2828 2175 2409 1742 
Q 1991 1309 1228 531 
z
" transform="scale(0.015625)"/>
       </defs>
       <use xlink:href="#DejaVuSans-30"/>
       <use xlink:href="#DejaVuSans-2e" transform="translate(63.623047 0)"/>
       <use xlink:href="#DejaVuSans-32" transform="translate(95.410156 0)"/>
      </g>
     </g>
    </g>
    <g id="xtick_9">
     <g id="line2d_24">
      <g>
       <use xlink:href="#m16d1507099" x="475.704035" y="640.8" style="stroke: #000000; stroke-width: 0.8"/>
      </g>
     </g>
     <g id="text_15">
      <!-- 0.4 -->
      <g transform="translate(467.752473 655.398438) scale(0.1 -0.1)">
       <defs>
        <path id="DejaVuSans-34" d="M 2419 4116 
L 825 1625 
L 2419 1625 
L 2419 4116 
z
M 2253 4666 
L 3047 4666 
L 3047 1625 
L 3713 1625 
L 3713 1100 
L 3047 1100 
L 3047 0 
L 2419 0 
L 2419 1100 
L 313 1100 
L 313 1709 
L 2253 4666 
z
" transform="scale(0.015625)"/>
       </defs>
       <use xlink:href="#DejaVuSans-30"/>
       <use xlink:href="#DejaVuSans-2e" transform="translate(63.623047 0)"/>
       <use xlink:href="#DejaVuSans-34" transform="translate(95.410156 0)"/>
      </g>
     </g>
    </g>
    <g id="xtick_10">
     <g id="line2d_25">
      <g>
       <use xlink:href="#m16d1507099" x="629.887421" y="640.8" style="stroke: #000000; stroke-width: 0.8"/>
      </g>
     </g>
     <g id="text_16">
      <!-- 0.6 -->
      <g transform="translate(621.935859 655.398438) scale(0.1 -0.1)">
       <defs>
        <path id="DejaVuSans-36" d="M 2113 2584 
Q 1688 2584 1439 2293 
Q 1191 2003 1191 1497 
Q 1191 994 1439 701 
Q 1688 409 2113 409 
Q 2538 409 2786 701 
Q 3034 994 3034 1497 
Q 3034 2003 2786 2293 
Q 2538 2584 2113 2584 
z
M 3366 4563 
L 3366 3988 
Q 3128 4100 2886 4159 
Q 2644 4219 2406 4219 
Q 1781 4219 1451 3797 
Q 1122 3375 1075 2522 
Q 1259 2794 1537 2939 
Q 1816 3084 2150 3084 
Q 2853 3084 3261 2657 
Q 3669 2231 3669 1497 
Q 3669 778 3244 343 
Q 2819 -91 2113 -91 
Q 1303 -91 875 529 
Q 447 1150 447 2328 
Q 447 3434 972 4092 
Q 1497 4750 2381 4750 
Q 2619 4750 2861 4703 
Q 3103 4656 3366 4563 
z
" transform="scale(0.015625)"/>
       </defs>
       <use xlink:href="#DejaVuSans-30"/>
       <use xlink:href="#DejaVuSans-2e" transform="translate(63.623047 0)"/>
       <use xlink:href="#DejaVuSans-36" transform="translate(95.410156 0)"/>
      </g>
     </g>
    </g>
    <g id="xtick_11">
     <g id="line2d_26">
      <g>
       <use xlink:href="#m16d1507099" x="784.070807" y="640.8" style="stroke: #000000; stroke-width: 0.8"/>
      </g>
     </g>
     <g id="text_17">
      <!-- 0.8 -->
      <g transform="translate(776.119244 655.398438) scale(0.1 -0.1)">
       <defs>
        <path id="DejaVuSans-38" d="M 2034 2216 
Q 1584 2216 1326 1975 
Q 1069 1734 1069 1313 
Q 1069 891 1326 650 
Q 1584 409 2034 409 
Q 2484 409 2743 651 
Q 3003 894 3003 1313 
Q 3003 1734 2745 1975 
Q 2488 2216 2034 2216 
z
M 1403 2484 
Q 997 2584 770 2862 
Q 544 3141 544 3541 
Q 544 4100 942 4425 
Q 1341 4750 2034 4750 
Q 2731 4750 3128 4425 
Q 3525 4100 3525 3541 
Q 3525 3141 3298 2862 
Q 3072 2584 2669 2484 
Q 3125 2378 3379 2068 
Q 3634 1759 3634 1313 
Q 3634 634 3220 271 
Q 2806 -91 2034 -91 
Q 1263 -91 848 271 
Q 434 634 434 1313 
Q 434 1759 690 2068 
Q 947 2378 1403 2484 
z
M 1172 3481 
Q 1172 3119 1398 2916 
Q 1625 2713 2034 2713 
Q 2441 2713 2670 2916 
Q 2900 3119 2900 3481 
Q 2900 3844 2670 4047 
Q 2441 4250 2034 4250 
Q 1625 4250 1398 4047 
Q 1172 3844 1172 3481 
z
" transform="scale(0.015625)"/>
       </defs>
       <use xlink:href="#DejaVuSans-30"/>
       <use xlink:href="#DejaVuSans-2e" transform="translate(63.623047 0)"/>
       <use xlink:href="#DejaVuSans-38" transform="translate(95.410156 0)"/>
      </g>
     </g>
    </g>
    <g id="xtick_12">
     <g id="line2d_27">
      <g>
       <use xlink:href="#m16d1507099" x="938.254193" y="640.8" style="stroke: #000000; stroke-width: 0.8"/>
      </g>
     </g>
     <g id="text_18">
      <!-- 1.0 -->
      <g transform="translate(930.30263 655.398438) scale(0.1 -0.1)">
       <use xlink:href="#DejaVuSans-31"/>
       <use xlink:href="#DejaVuSans-2e" transform="translate(63.623047 0)"/>
       <use xlink:href="#DejaVuSans-30" transform="translate(95.410156 0)"/>
      </g>
     </g>
    </g>
    <g id="text_19">
     <!-- x -->
     <g transform="translate(549.060938 672.875781) scale(0.15 -0.15)">
      <use xlink:href="#DejaVuSans-78"/>
     </g>
    </g>
   </g>
   <g id="matplotlib.axis_4">
    <g id="ytick_7">
     <g id="line2d_28">
      <g>
       <use xlink:href="#m3a9a38c7fb" x="135" y="629.181946" style="stroke: #000000; stroke-width: 0.8"/>
      </g>
     </g>
     <g id="text_20">
      <!-- −1.0 -->
      <g transform="translate(103.717187 632.981165) scale(0.1 -0.1)">
       <use xlink:href="#DejaVuSans-2212"/>
       <use xlink:href="#DejaVuSans-31" transform="translate(83.789062 0)"/>
       <use xlink:href="#DejaVuSans-2e" transform="translate(147.412109 0)"/>
       <use xlink:href="#DejaVuSans-30" transform="translate(179.199219 0)"/>
      </g>
     </g>
    </g>
    <g id="ytick_8">
     <g id="line2d_29">
      <g>
       <use xlink:href="#m3a9a38c7fb" x="135" y="584.263234" style="stroke: #000000; stroke-width: 0.8"/>
      </g>
     </g>
     <g id="text_21">
      <!-- −0.5 -->
      <g transform="translate(103.717187 588.062453) scale(0.1 -0.1)">
       <use xlink:href="#DejaVuSans-2212"/>
       <use xlink:href="#DejaVuSans-30" transform="translate(83.789062 0)"/>
       <use xlink:href="#DejaVuSans-2e" transform="translate(147.412109 0)"/>
       <use xlink:href="#DejaVuSans-35" transform="translate(179.199219 0)"/>
      </g>
     </g>
    </g>
    <g id="ytick_9">
     <g id="line2d_30">
      <g>
       <use xlink:href="#m3a9a38c7fb" x="135" y="539.344522" style="stroke: #000000; stroke-width: 0.8"/>
      </g>
     </g>
     <g id="text_22">
      <!-- 0.0 -->
      <g transform="translate(112.096875 543.143741) scale(0.1 -0.1)">
       <use xlink:href="#DejaVuSans-30"/>
       <use xlink:href="#DejaVuSans-2e" transform="translate(63.623047 0)"/>
       <use xlink:href="#DejaVuSans-30" transform="translate(95.410156 0)"/>
      </g>
     </g>
    </g>
    <g id="ytick_10">
     <g id="line2d_31">
      <g>
       <use xlink:href="#m3a9a38c7fb" x="135" y="494.42581" style="stroke: #000000; stroke-width: 0.8"/>
      </g>
     </g>
     <g id="text_23">
      <!-- 0.5 -->
      <g transform="translate(112.096875 498.225029) scale(0.1 -0.1)">
       <use xlink:href="#DejaVuSans-30"/>
       <use xlink:href="#DejaVuSans-2e" transform="translate(63.623047 0)"/>
       <use xlink:href="#DejaVuSans-35" transform="translate(95.410156 0)"/>
      </g>
     </g>
    </g>
    <g id="ytick_11">
     <g id="line2d_32">
      <g>
       <use xlink:href="#m3a9a38c7fb" x="135" y="449.507098" style="stroke: #000000; stroke-width: 0.8"/>
      </g>
     </g>
     <g id="text_24">
      <!-- 1.0 -->
      <g transform="translate(112.096875 453.306316) scale(0.1 -0.1)">
       <use xlink:href="#DejaVuSans-31"/>
       <use xlink:href="#DejaVuSans-2e" transform="translate(63.623047 0)"/>
       <use xlink:href="#DejaVuSans-30" transform="translate(95.410156 0)"/>
      </g>
     </g>
    </g>
    <g id="ytick_12">
     <g id="line2d_33">
      <g>
       <use xlink:href="#m3a9a38c7fb" x="135" y="404.588385" style="stroke: #000000; stroke-width: 0.8"/>
      </g>
     </g>
     <g id="text_25">
      <!-- 1.5 -->
      <g transform="translate(112.096875 408.387604) scale(0.1 -0.1)">
       <use xlink:href="#DejaVuSans-31"/>
       <use xlink:href="#DejaVuSans-2e" transform="translate(63.623047 0)"/>
       <use xlink:href="#DejaVuSans-35" transform="translate(95.410156 0)"/>
      </g>
     </g>
    </g>
    <g id="text_26">
     <!-- y -->
     <g transform="translate(96.597656 519.239063) rotate(-90) scale(0.15 -0.15)">
      <use xlink:href="#DejaVuSans-79"/>
     </g>
    </g>
   </g>
   <g id="line2d_34">
    <g clip-path="url(#pdbe606b315)">
     <use xlink:href="#md2d3a6f7b9" x="386.723214" y="576.079117" style="fill: #ff0000; stroke: #ff0000; stroke-linejoin: bevel"/>
     <use xlink:href="#md2d3a6f7b9" x="514.801048" y="629.173866" style="fill: #ff0000; stroke: #ff0000; stroke-linejoin: bevel"/>
     <use xlink:href="#md2d3a6f7b9" x="676.018702" y="547.733206" style="fill: #ff0000; stroke: #ff0000; stroke-linejoin: bevel"/>
     <use xlink:href="#md2d3a6f7b9" x="206.89326" y="455.239795" style="fill: #ff0000; stroke: #ff0000; stroke-linejoin: bevel"/>
     <use xlink:href="#md2d3a6f7b9" x="871.124548" y="450.023485" style="fill: #ff0000; stroke: #ff0000; stroke-linejoin: bevel"/>
     <use xlink:href="#md2d3a6f7b9" x="259.477865" y="479.157316" style="fill: #ff0000; stroke: #ff0000; stroke-linejoin: bevel"/>
    </g>
   </g>
   <g id="line2d_35">
    <path d="M 173.045455 449.627742 
L 179.590123 450.062535 
L 191.655538 451.688362 
L 196.484442 452.635083 
L 206.691209 455.182002 
L 210.076125 456.187411 
L 214.283311 457.54643 
L 215.103077 457.825193 
L 229.536681 463.458119 
L 237.925964 467.337424 
L 248.037177 472.565759 
L 259.308928 479.055078 
L 261.107625 480.150852 
L 269.356653 485.373863 
L 271.655435 486.884595 
L 284.692675 495.86495 
L 285.08608 496.146052 
L 293.434274 502.235312 
L 300.474311 507.537495 
L 307.458376 512.925964 
L 314.791474 518.697634 
L 340.36527 539.372788 
L 342.794449 541.354182 
L 347.188535 544.935133 
L 347.595782 545.266654 
L 361.395539 556.423279 
L 362.276001 557.127849 
L 366.170176 560.229831 
L 371.628694 564.533103 
L 379.325873 570.493691 
L 394.768366 581.964793 
L 418.422354 597.840919 
L 423.055862 600.656954 
L 423.598008 600.979449 
L 431.38041 605.440427 
L 440.92631 610.459581 
L 452.45031 615.804241 
L 468.991631 622.001074 
L 470.304544 622.414759 
L 479.151705 624.891835 
L 482.529506 625.692777 
L 483.752478 625.962777 
L 505.072551 628.92991 
L 512.416092 629.178894 
L 516.916823 629.134144 
L 527.227305 628.467007 
L 529.397261 628.226851 
L 539.562307 626.644333 
L 545.060911 625.477437 
L 545.296614 625.422596 
L 552.331905 623.605353 
L 565.957668 619.116018 
L 566.307517 618.984359 
L 581.48695 612.517264 
L 586.311662 610.164464 
L 600.903397 602.241575 
L 608.54994 597.639857 
L 612.225612 595.326434 
L 615.39249 593.283138 
L 620.360036 589.988849 
L 638.419851 577.195916 
L 646.620386 571.029936 
L 661.609621 559.330751 
L 662.185469 558.872514 
L 663.826905 557.563437 
L 665.930856 555.879617 
L 680.686465 543.935797 
L 693.74745 533.288126 
L 695.86716 531.564172 
L 719.140805 512.963986 
L 721.980679 510.758553 
L 729.289102 505.173765 
L 730.031873 504.614185 
L 737.546027 499.046402 
L 739.060856 497.945847 
L 757.108301 485.49327 
L 768.892817 478.121432 
L 770.461063 477.191464 
L 771.021166 476.862368 
L 773.994733 475.142478 
L 775.778895 474.132917 
L 776.781393 473.573151 
L 824.80117 453.881607 
L 825.471226 453.714706 
L 833.034204 452.052059 
L 835.880223 451.532592 
L 838.75257 451.067775 
L 849.618827 449.854747 
L 862.372511 449.541815 
L 867.080893 449.730606 
L 874.001006 450.305142 
L 874.297278 450.337606 
L 881.51 451.32603 
L 883.440233 451.654773 
L 884.343564 451.817881 
L 904.162105 456.85477 
L 909.481038 458.668857 
L 913.585596 460.197617 
L 919.479855 462.584654 
L 923.998856 464.563999 
" clip-path="url(#pdbe606b315)" style="fill: none; stroke-dasharray: 5.55,2.4; stroke-dashoffset: 0; stroke: #000000; stroke-width: 1.5"/>
   </g>
   <g id="line2d_36">
    <path d="M 173.045455 447.907305 
L 179.590123 448.839041 
L 191.655538 451.160179 
L 196.484442 452.312954 
L 206.691209 455.177204 
L 210.076125 456.256021 
L 214.283311 457.686583 
L 215.103077 457.97689 
L 229.536681 463.702609 
L 237.925964 467.55773 
L 248.037177 472.703742 
L 259.308928 479.057334 
L 261.107625 480.128874 
L 269.356653 485.236689 
L 271.655435 486.714907 
L 284.692675 495.518389 
L 285.08608 495.794522 
L 293.434274 501.786274 
L 300.474311 507.020445 
L 307.458376 512.356885 
L 314.791474 518.09237 
L 340.36527 538.800513 
L 342.794449 540.797695 
L 347.188535 544.412345 
L 347.595782 544.747315 
L 361.395539 556.050184 
L 362.276001 556.76583 
L 366.170176 559.918922 
L 371.628694 564.299036 
L 379.325873 570.376055 
L 394.768366 582.094985 
L 418.422354 598.324666 
L 423.055862 601.198126 
L 423.598008 601.526979 
L 431.38041 606.069924 
L 440.92631 611.16266 
L 452.45031 616.550191 
L 468.991631 622.709891 
L 470.304544 623.115412 
L 479.151705 625.517357 
L 482.529506 626.280477 
L 483.752478 626.535562 
L 505.072551 629.145571 
L 512.416092 629.234281 
L 516.916823 629.083786 
L 527.227305 628.157537 
L 529.397261 627.860557 
L 539.562307 626.005955 
L 545.060911 624.690578 
L 545.296614 624.629391 
L 552.331905 622.624737 
L 565.957668 617.794983 
L 566.307517 617.65518 
L 581.48695 610.877265 
L 586.311662 608.446918 
L 600.903397 600.370045 
L 608.54994 595.743688 
L 612.225612 593.433758 
L 615.39249 591.401868 
L 620.360036 588.141679 
L 638.419851 575.649337 
L 646.620386 569.71514 
L 661.609621 558.594592 
L 662.185469 558.162497 
L 663.826905 556.929481 
L 665.930856 555.346467 
L 680.686465 544.208825 
L 693.74745 534.402566 
L 695.86716 532.824593 
L 719.140805 515.9409 
L 721.980679 513.952703 
L 729.289102 508.926145 
L 730.031873 508.422984 
L 737.546027 503.418833 
L 739.060856 502.429783 
L 757.108301 491.20941 
L 768.892817 484.495863 
L 770.461063 483.641668 
L 771.021166 483.33888 
L 773.994733 481.751753 
L 775.778895 480.816048 
L 776.781393 480.295793 
L 824.80117 460.240332 
L 825.471226 460.029476 
L 833.034204 457.781198 
L 835.880223 456.997497 
L 838.75257 456.240869 
L 849.618827 453.686892 
L 862.372511 451.297134 
L 867.080893 450.575726 
L 874.001006 449.667877 
L 874.297278 449.632988 
L 881.51 448.882136 
L 883.440233 448.712785 
L 884.343564 448.63803 
L 904.162105 447.688954 
L 909.481038 447.647021 
L 913.585596 447.672096 
L 919.479855 447.792206 
L 923.998856 447.948826 
" clip-path="url(#pdbe606b315)" style="fill: none; stroke: #0000ff; stroke-width: 1.5; stroke-linecap: square"/>
   </g>
   <g id="line2d_37">
    <g clip-path="url(#pdbe606b315)">
     <use xlink:href="#md2d3a6f7b9" x="689.951087" y="491.462172" style="fill: #ff0000; stroke: #ff0000; stroke-linejoin: bevel"/>
     <use xlink:href="#md2d3a6f7b9" x="912.922349" y="415.024372" style="fill: #ff0000; stroke: #ff0000; stroke-linejoin: bevel"/>
     <use xlink:href="#md2d3a6f7b9" x="330.211311" y="486.182772" style="fill: #ff0000; stroke: #ff0000; stroke-linejoin: bevel"/>
     <use xlink:href="#md2d3a6f7b9" x="884.459744" y="406.920574" style="fill: #ff0000; stroke: #ff0000; stroke-linejoin: bevel"/>
    </g>
   </g>
   <g id="line2d_38">
    <path d="M 180.679239 405.246827 
L 189.740161 406.440716 
L 194.254775 407.258408 
L 198.604746 408.184842 
L 198.774987 408.223845 
L 199.916349 408.490649 
L 216.345578 413.337601 
L 218.774436 414.210117 
L 220.513159 414.858703 
L 222.341123 415.561961 
L 242.211335 424.562985 
L 250.330651 428.912903 
L 253.224518 430.550611 
L 264.92991 437.612749 
L 267.470375 439.233046 
L 297.88819 460.654796 
L 303.141432 464.662642 
L 303.246263 464.74334 
L 315.473717 474.320945 
L 318.520857 476.750939 
L 319.65512 477.659031 
L 328.952763 485.161025 
L 368.536462 517.183524 
L 368.898577 517.469154 
L 381.218787 527.018631 
L 382.109363 527.694533 
L 382.121421 527.70367 
L 387.445282 531.697134 
L 390.199294 533.729342 
L 391.364009 534.581474 
L 419.651575 553.679569 
L 422.739693 555.549483 
L 430.795551 560.197663 
L 443.235176 566.676006 
L 443.679376 566.890766 
L 462.016651 574.68914 
L 468.516204 576.92966 
L 503.039016 583.871765 
L 505.38534 584.029936 
L 519.686849 584.113337 
L 527.072556 583.564101 
L 527.185719 583.55256 
L 527.268573 583.54405 
L 528.820221 583.375374 
L 530.40847 583.184433 
L 539.752832 581.688812 
L 540.847471 581.472272 
L 556.032833 577.592178 
L 558.610492 576.774337 
L 571.468905 572.03059 
L 572.85271 571.455812 
L 573.015934 571.387211 
L 587.299247 564.747242 
L 590.652518 563.012635 
L 602.402399 556.443965 
L 619.989372 545.319588 
L 627.480482 540.170192 
L 633.416221 535.938521 
L 649.580625 523.840466 
L 653.728244 520.623512 
L 658.49115 516.883784 
L 660.613679 515.203274 
L 666.241291 510.711934 
L 675.892635 502.916876 
L 697.610513 485.229727 
L 699.527767 483.675448 
L 703.567785 480.411522 
L 713.003794 472.869203 
L 715.177181 471.152404 
L 716.489099 470.120441 
L 718.66607 468.415701 
L 718.901703 468.23178 
L 727.5052 461.605288 
L 728.298721 461.003588 
L 749.075318 445.958107 
L 757.419633 440.371494 
L 760.116315 438.630851 
L 773.004714 430.79125 
L 773.988957 430.227061 
L 785.938826 423.799111 
L 800.128143 417.250866 
L 801.927728 416.509758 
L 803.930456 415.70946 
L 807.25738 414.437669 
L 810.205654 413.371591 
L 832.459646 407.245302 
L 839.836603 405.98923 
L 846.240127 405.220341 
L 849.966148 404.911579 
L 850.552587 404.872307 
L 867.001622 404.807358 
L 876.37276 405.664363 
L 877.02259 405.747704 
L 889.75398 407.998935 
L 892.090368 408.538496 
L 899.578063 410.526811 
L 899.659121 410.550475 
L 900.661152 410.846753 
L 910.510339 414.123067 
L 933.954545 424.445079 
" clip-path="url(#pdbe606b315)" style="fill: none; stroke-dasharray: 5.55,2.4; stroke-dashoffset: 0; stroke: #000000; stroke-width: 1.5"/>
   </g>
   <g id="line2d_39">
    <path d="M 180.679239 466.83259 
L 189.740161 467.715982 
L 194.254775 468.207196 
L 198.604746 468.713003 
L 198.774987 468.733446 
L 199.916349 468.871767 
L 216.345578 471.09891 
L 218.774436 471.463684 
L 220.513159 471.729969 
L 222.341123 472.014401 
L 242.211335 475.348237 
L 250.330651 476.791761 
L 253.224518 477.309523 
L 264.92991 479.38317 
L 267.470375 479.822335 
L 297.88819 484.288935 
L 303.141432 484.83742 
L 303.246263 484.847509 
L 315.473717 485.775263 
L 318.520857 485.925406 
L 319.65512 485.972663 
L 328.952763 486.179722 
L 368.536462 483.572227 
L 368.898577 483.525669 
L 381.218787 481.765262 
L 382.109363 481.626431 
L 382.121421 481.624542 
L 387.445282 480.768753 
L 390.199294 480.311009 
L 391.364009 480.114817 
L 419.651575 475.174063 
L 422.739693 474.647396 
L 430.795551 473.318462 
L 443.235176 471.439325 
L 443.679376 471.376897 
L 462.016651 469.136286 
L 468.516204 468.51573 
L 503.039016 466.953905 
L 505.38534 466.95982 
L 519.686849 467.319957 
L 527.072556 467.728097 
L 527.185719 467.735545 
L 527.268573 467.741021 
L 528.820221 467.847159 
L 530.40847 467.962863 
L 539.752832 468.788826 
L 540.847471 468.901852 
L 556.032833 470.818874 
L 558.610492 471.207796 
L 571.468905 473.407517 
L 572.85271 473.668666 
L 573.015934 473.699763 
L 587.299247 476.639646 
L 590.652518 477.384061 
L 602.402399 480.1031 
L 619.989372 484.272926 
L 627.480482 485.977642 
L 633.416221 487.25425 
L 649.580625 490.195356 
L 653.728244 490.780602 
L 658.49115 491.346854 
L 660.613679 491.559768 
L 666.241291 491.996857 
L 675.892635 492.272815 
L 697.610513 490.355811 
L 699.527767 490.001956 
L 703.567785 489.153782 
L 713.003794 486.626001 
L 715.177181 485.935104 
L 716.489099 485.498458 
L 718.66607 484.741488 
L 718.901703 484.657138 
L 727.5052 481.258805 
L 728.298721 480.914658 
L 749.075318 470.208062 
L 757.419633 465.104399 
L 760.116315 463.375453 
L 773.004714 454.69661 
L 773.988957 454.011903 
L 785.938826 445.572925 
L 800.128143 435.590959 
L 801.927728 434.356466 
L 803.930456 432.995956 
L 807.25738 430.771572 
L 810.205654 428.843198 
L 832.459646 416.151312 
L 839.836603 412.901458 
L 846.240127 410.554863 
L 849.966148 409.406324 
L 850.552587 409.240563 
L 867.001622 406.320552 
L 876.37276 406.177437 
L 877.02259 406.20801 
L 889.75398 407.819631 
L 892.090368 408.314724 
L 899.578063 410.280013 
L 899.659121 410.30428 
L 900.661152 410.609294 
L 910.510339 414.064728 
L 933.954545 424.688284 
" clip-path="url(#pdbe606b315)" style="fill: none; stroke: #0000ff; stroke-width: 1.5; stroke-linecap: square"/>
   </g>
   <g id="patch_10">
    <path d="M 135 640.8 
L 135 388.8 
" style="fill: none; stroke: #000000; stroke-width: 0.8; stroke-linejoin: miter; stroke-linecap: square"/>
   </g>
   <g id="patch_11">
    <path d="M 972 640.8 
L 972 388.8 
" style="fill: none; stroke: #000000; stroke-width: 0.8; stroke-linejoin: miter; stroke-linecap: square"/>
   </g>
   <g id="patch_12">
    <path d="M 135 640.8 
L 972 640.8 
" style="fill: none; stroke: #000000; stroke-width: 0.8; stroke-linejoin: miter; stroke-linecap: square"/>
   </g>
   <g id="patch_13">
    <path d="M 135 388.8 
L 972 388.8 
" style="fill: none; stroke: #000000; stroke-width: 0.8; stroke-linejoin: miter; stroke-linecap: square"/>
   </g>
   <g id="text_27">
    <!-- Separate modeling -->
    <g transform="translate(496.456875 382.8) scale(0.12 -0.12)">
     <defs>
      <path id="DejaVuSans-53" d="M 3425 4513 
L 3425 3897 
Q 3066 4069 2747 4153 
Q 2428 4238 2131 4238 
Q 1616 4238 1336 4038 
Q 1056 3838 1056 3469 
Q 1056 3159 1242 3001 
Q 1428 2844 1947 2747 
L 2328 2669 
Q 3034 2534 3370 2195 
Q 3706 1856 3706 1288 
Q 3706 609 3251 259 
Q 2797 -91 1919 -91 
Q 1588 -91 1214 -16 
Q 841 59 441 206 
L 441 856 
Q 825 641 1194 531 
Q 1563 422 1919 422 
Q 2459 422 2753 634 
Q 3047 847 3047 1241 
Q 3047 1584 2836 1778 
Q 2625 1972 2144 2069 
L 1759 2144 
Q 1053 2284 737 2584 
Q 422 2884 422 3419 
Q 422 4038 858 4394 
Q 1294 4750 2059 4750 
Q 2388 4750 2728 4690 
Q 3069 4631 3425 4513 
z
" transform="scale(0.015625)"/>
      <path id="DejaVuSans-70" d="M 1159 525 
L 1159 -1331 
L 581 -1331 
L 581 3500 
L 1159 3500 
L 1159 2969 
Q 1341 3281 1617 3432 
Q 1894 3584 2278 3584 
Q 2916 3584 3314 3078 
Q 3713 2572 3713 1747 
Q 3713 922 3314 415 
Q 2916 -91 2278 -91 
Q 1894 -91 1617 61 
Q 1341 213 1159 525 
z
M 3116 1747 
Q 3116 2381 2855 2742 
Q 2594 3103 2138 3103 
Q 1681 3103 1420 2742 
Q 1159 2381 1159 1747 
Q 1159 1113 1420 752 
Q 1681 391 2138 391 
Q 2594 391 2855 752 
Q 3116 1113 3116 1747 
z
" transform="scale(0.015625)"/>
     </defs>
     <use xlink:href="#DejaVuSans-53"/>
     <use xlink:href="#DejaVuSans-65" transform="translate(63.476562 0)"/>
     <use xlink:href="#DejaVuSans-70" transform="translate(125 0)"/>
     <use xlink:href="#DejaVuSans-61" transform="translate(188.476562 0)"/>
     <use xlink:href="#DejaVuSans-72" transform="translate(249.755859 0)"/>
     <use xlink:href="#DejaVuSans-61" transform="translate(290.869141 0)"/>
     <use xlink:href="#DejaVuSans-74" transform="translate(352.148438 0)"/>
     <use xlink:href="#DejaVuSans-65" transform="translate(391.357422 0)"/>
     <use xlink:href="#DejaVuSans-20" transform="translate(452.880859 0)"/>
     <use xlink:href="#DejaVuSans-6d" transform="translate(484.667969 0)"/>
     <use xlink:href="#DejaVuSans-6f" transform="translate(582.080078 0)"/>
     <use xlink:href="#DejaVuSans-64" transform="translate(643.261719 0)"/>
     <use xlink:href="#DejaVuSans-65" transform="translate(706.738281 0)"/>
     <use xlink:href="#DejaVuSans-6c" transform="translate(768.261719 0)"/>
     <use xlink:href="#DejaVuSans-69" transform="translate(796.044922 0)"/>
     <use xlink:href="#DejaVuSans-6e" transform="translate(823.828125 0)"/>
     <use xlink:href="#DejaVuSans-67" transform="translate(887.207031 0)"/>
    </g>
   </g>
  </g>
 </g>
 <defs>
  <clipPath id="pabd845be06">
   <rect x="135" y="86.4" width="837" height="252"/>
  </clipPath>
  <clipPath id="pdbe606b315">
   <rect x="135" y="388.8" width="837" height="252"/>
  </clipPath>
 </defs>
</svg>
