<?xml version="1.0" encoding="utf-8" standalone="no"?>
<!DOCTYPE svg PUBLIC "-//W3C//DTD SVG 1.1//EN"
  "http://www.w3.org/Graphics/SVG/1.1/DTD/svg11.dtd">
<svg xmlns:xlink="http://www.w3.org/1999/xlink" width="460.8pt" height="345.6pt" viewBox="0 0 460.8 345.6" xmlns="http://www.w3.org/2000/svg" version="1.1">
 <metadata>
  <rdf:RDF xmlns:dc="http://purl.org/dc/elements/1.1/" xmlns:cc="http://creativecommons.org/ns#" xmlns:rdf="http://www.w3.org/1999/02/22-rdf-syntax-ns#">
   <cc:Work>
    <dc:type rdf:resource="http://purl.org/dc/dcmitype/StillImage"/>
    <dc:date>2025-09-26T11:59:38.659564</dc:date>
    <dc:format>image/svg+xml</dc:format>
    <dc:creator>
     <cc:Agent>
      <dc:title>Matplotlib v3.10.6, https://matplotlib.org/</dc:title>
     </cc:Agent>
    </dc:creator>
   </cc:Work>
  </rdf:RDF>
 </metadata>
 <defs>
  <style type="text/css">*{stroke-linejoin: round; stroke-linecap: butt}</style>
 </defs>
 <g id="figure_1">
  <g id="patch_1">
   <path d="M 0 345.6 
L 460.8 345.6 
L 460.8 0 
L 0 0 
z
" style="fill: #ffffff"/>
  </g>
  <g id="axes_1">
   <g id="patch_2">
    <path d="M 53.03 303.64 
L 352.93 303.64 
L 352.93 32.4 
L 53.03 32.4 
z
" style="fill: #ffffff"/>
   </g>
   <g id="matplotlib.axis_1">
    <g id="xtick_1">
     <g id="line2d_1">
      <path d="M 66.661818 303.64 
L 66.661818 32.4 
" clip-path="url(#p8b9b6fb500)" style="fill: none; stroke: #b0b0b0; stroke-width: 0.8; stroke-linecap: square"/>
     </g>
     <g id="line2d_2">
      <defs>
       <path id="m1a9a069f58" d="M 0 0 
L 0 3.5 
" style="stroke: #000000; stroke-width: 0.8"/>
      </defs>
      <g>
       <use xlink:href="#m1a9a069f58" x="66.661818" y="303.64" style="stroke: #000000; stroke-width: 0.8"/>
      </g>
     </g>
     <g id="text_1">
      <!-- 0 -->
      <g transform="translate(63.480568 318.238437) scale(0.1 -0.1)">
       <defs>
        <path id="DejaVuSans-30" d="M 2034 4250 
Q 1547 4250 1301 3770 
Q 1056 3291 1056 2328 
Q 1056 1369 1301 889 
Q 1547 409 2034 409 
Q 2525 409 2770 889 
Q 3016 1369 3016 2328 
Q 3016 3291 2770 3770 
Q 2525 4250 2034 4250 
z
M 2034 4750 
Q 2819 4750 3233 4129 
Q 3647 3509 3647 2328 
Q 3647 1150 3233 529 
Q 2819 -91 2034 -91 
Q 1250 -91 836 529 
Q 422 1150 422 2328 
Q 422 3509 836 4129 
Q 1250 4750 2034 4750 
z
" transform="scale(0.015625)"/>
       </defs>
       <use xlink:href="#DejaVuSans-30"/>
      </g>
     </g>
    </g>
    <g id="xtick_2">
     <g id="line2d_3">
      <path d="M 121.189091 303.64 
L 121.189091 32.4 
" clip-path="url(#p8b9b6fb500)" style="fill: none; stroke: #b0b0b0; stroke-width: 0.8; stroke-linecap: square"/>
     </g>
     <g id="line2d_4">
      <g>
       <use xlink:href="#m1a9a069f58" x="121.189091" y="303.64" style="stroke: #000000; stroke-width: 0.8"/>
      </g>
     </g>
     <g id="text_2">
      <!-- 2 -->
      <g transform="translate(118.007841 318.238437) scale(0.1 -0.1)">
       <defs>
        <path id="DejaVuSans-32" d="M 1228 531 
L 3431 531 
L 3431 0 
L 469 0 
L 469 531 
Q 828 903 1448 1529 
Q 2069 2156 2228 2338 
Q 2531 2678 2651 2914 
Q 2772 3150 2772 3378 
Q 2772 3750 2511 3984 
Q 2250 4219 1831 4219 
Q 1534 4219 1204 4116 
Q 875 4013 500 3803 
L 500 4441 
Q 881 4594 1212 4672 
Q 1544 4750 1819 4750 
Q 2544 4750 2975 4387 
Q 3406 4025 3406 3419 
Q 3406 3131 3298 2873 
Q 3191 2616 2906 2266 
Q 2828 2175 2409 1742 
Q 1991 1309 1228 531 
z
" transform="scale(0.015625)"/>
       </defs>
       <use xlink:href="#DejaVuSans-32"/>
      </g>
     </g>
    </g>
    <g id="xtick_3">
     <g id="line2d_5">
      <path d="M 175.716364 303.64 
L 175.716364 32.4 
" clip-path="url(#p8b9b6fb500)" style="fill: none; stroke: #b0b0b0; stroke-width: 0.8; stroke-linecap: square"/>
     </g>
     <g id="line2d_6">
      <g>
       <use xlink:href="#m1a9a069f58" x="175.716364" y="303.64" style="stroke: #000000; stroke-width: 0.8"/>
      </g>
     </g>
     <g id="text_3">
      <!-- 4 -->
      <g transform="translate(172.535114 318.238437) scale(0.1 -0.1)">
       <defs>
        <path id="DejaVuSans-34" d="M 2419 4116 
L 825 1625 
L 2419 1625 
L 2419 4116 
z
M 2253 4666 
L 3047 4666 
L 3047 1625 
L 3713 1625 
L 3713 1100 
L 3047 1100 
L 3047 0 
L 2419 0 
L 2419 1100 
L 313 1100 
L 313 1709 
L 2253 4666 
z
" transform="scale(0.015625)"/>
       </defs>
       <use xlink:href="#DejaVuSans-34"/>
      </g>
     </g>
    </g>
    <g id="xtick_4">
     <g id="line2d_7">
      <path d="M 230.243636 303.64 
L 230.243636 32.4 
" clip-path="url(#p8b9b6fb500)" style="fill: none; stroke: #b0b0b0; stroke-width: 0.8; stroke-linecap: square"/>
     </g>
     <g id="line2d_8">
      <g>
       <use xlink:href="#m1a9a069f58" x="230.243636" y="303.64" style="stroke: #000000; stroke-width: 0.8"/>
      </g>
     </g>
     <g id="text_4">
      <!-- 6 -->
      <g transform="translate(227.062386 318.238437) scale(0.1 -0.1)">
       <defs>
        <path id="DejaVuSans-36" d="M 2113 2584 
Q 1688 2584 1439 2293 
Q 1191 2003 1191 1497 
Q 1191 994 1439 701 
Q 1688 409 2113 409 
Q 2538 409 2786 701 
Q 3034 994 3034 1497 
Q 3034 2003 2786 2293 
Q 2538 2584 2113 2584 
z
M 3366 4563 
L 3366 3988 
Q 3128 4100 2886 4159 
Q 2644 4219 2406 4219 
Q 1781 4219 1451 3797 
Q 1122 3375 1075 2522 
Q 1259 2794 1537 2939 
Q 1816 3084 2150 3084 
Q 2853 3084 3261 2657 
Q 3669 2231 3669 1497 
Q 3669 778 3244 343 
Q 2819 -91 2113 -91 
Q 1303 -91 875 529 
Q 447 1150 447 2328 
Q 447 3434 972 4092 
Q 1497 4750 2381 4750 
Q 2619 4750 2861 4703 
Q 3103 4656 3366 4563 
z
" transform="scale(0.015625)"/>
       </defs>
       <use xlink:href="#DejaVuSans-36"/>
      </g>
     </g>
    </g>
    <g id="xtick_5">
     <g id="line2d_9">
      <path d="M 284.770909 303.64 
L 284.770909 32.4 
" clip-path="url(#p8b9b6fb500)" style="fill: none; stroke: #b0b0b0; stroke-width: 0.8; stroke-linecap: square"/>
     </g>
     <g id="line2d_10">
      <g>
       <use xlink:href="#m1a9a069f58" x="284.770909" y="303.64" style="stroke: #000000; stroke-width: 0.8"/>
      </g>
     </g>
     <g id="text_5">
      <!-- 8 -->
      <g transform="translate(281.589659 318.238437) scale(0.1 -0.1)">
       <defs>
        <path id="DejaVuSans-38" d="M 2034 2216 
Q 1584 2216 1326 1975 
Q 1069 1734 1069 1313 
Q 1069 891 1326 650 
Q 1584 409 2034 409 
Q 2484 409 2743 651 
Q 3003 894 3003 1313 
Q 3003 1734 2745 1975 
Q 2488 2216 2034 2216 
z
M 1403 2484 
Q 997 2584 770 2862 
Q 544 3141 544 3541 
Q 544 4100 942 4425 
Q 1341 4750 2034 4750 
Q 2731 4750 3128 4425 
Q 3525 4100 3525 3541 
Q 3525 3141 3298 2862 
Q 3072 2584 2669 2484 
Q 3125 2378 3379 2068 
Q 3634 1759 3634 1313 
Q 3634 634 3220 271 
Q 2806 -91 2034 -91 
Q 1263 -91 848 271 
Q 434 634 434 1313 
Q 434 1759 690 2068 
Q 947 2378 1403 2484 
z
M 1172 3481 
Q 1172 3119 1398 2916 
Q 1625 2713 2034 2713 
Q 2441 2713 2670 2916 
Q 2900 3119 2900 3481 
Q 2900 3844 2670 4047 
Q 2441 4250 2034 4250 
Q 1625 4250 1398 4047 
Q 1172 3844 1172 3481 
z
" transform="scale(0.015625)"/>
       </defs>
       <use xlink:href="#DejaVuSans-38"/>
      </g>
     </g>
    </g>
    <g id="xtick_6">
     <g id="line2d_11">
      <path d="M 339.298182 303.64 
L 339.298182 32.4 
" clip-path="url(#p8b9b6fb500)" style="fill: none; stroke: #b0b0b0; stroke-width: 0.8; stroke-linecap: square"/>
     </g>
     <g id="line2d_12">
      <g>
       <use xlink:href="#m1a9a069f58" x="339.298182" y="303.64" style="stroke: #000000; stroke-width: 0.8"/>
      </g>
     </g>
     <g id="text_6">
      <!-- 10 -->
      <g transform="translate(332.935682 318.238437) scale(0.1 -0.1)">
       <defs>
        <path id="DejaVuSans-31" d="M 794 531 
L 1825 531 
L 1825 4091 
L 703 3866 
L 703 4441 
L 1819 4666 
L 2450 4666 
L 2450 531 
L 3481 531 
L 3481 0 
L 794 0 
L 794 531 
z
" transform="scale(0.015625)"/>
       </defs>
       <use xlink:href="#DejaVuSans-31"/>
       <use xlink:href="#DejaVuSans-30" transform="translate(63.623047 0)"/>
      </g>
     </g>
    </g>
    <g id="text_7">
     <!-- x -->
     <g transform="translate(200.020625 331.916562) scale(0.1 -0.1)">
      <defs>
       <path id="DejaVuSans-78" d="M 3513 3500 
L 2247 1797 
L 3578 0 
L 2900 0 
L 1881 1375 
L 863 0 
L 184 0 
L 1544 1831 
L 300 3500 
L 978 3500 
L 1906 2253 
L 2834 3500 
L 3513 3500 
z
" transform="scale(0.015625)"/>
      </defs>
      <use xlink:href="#DejaVuSans-78"/>
     </g>
    </g>
   </g>
   <g id="matplotlib.axis_2">
    <g id="ytick_1">
     <g id="line2d_13">
      <path d="M 53.03 293.311821 
L 352.93 293.311821 
" clip-path="url(#p8b9b6fb500)" style="fill: none; stroke: #b0b0b0; stroke-width: 0.8; stroke-linecap: square"/>
     </g>
     <g id="line2d_14">
      <defs>
       <path id="mc94a122003" d="M 0 0 
L -3.5 0 
" style="stroke: #000000; stroke-width: 0.8"/>
      </defs>
      <g>
       <use xlink:href="#mc94a122003" x="53.03" y="293.311821" style="stroke: #000000; stroke-width: 0.8"/>
      </g>
     </g>
     <g id="text_8">
      <!-- −10 -->
      <g transform="translate(24.925313 297.11104) scale(0.1 -0.1)">
       <defs>
        <path id="DejaVuSans-2212" d="M 678 2272 
L 4684 2272 
L 4684 1741 
L 678 1741 
L 678 2272 
z
" transform="scale(0.015625)"/>
       </defs>
       <use xlink:href="#DejaVuSans-2212"/>
       <use xlink:href="#DejaVuSans-31" transform="translate(83.789062 0)"/>
       <use xlink:href="#DejaVuSans-30" transform="translate(147.412109 0)"/>
      </g>
     </g>
    </g>
    <g id="ytick_2">
     <g id="line2d_15">
      <path d="M 53.03 257.815537 
L 352.93 257.815537 
" clip-path="url(#p8b9b6fb500)" style="fill: none; stroke: #b0b0b0; stroke-width: 0.8; stroke-linecap: square"/>
     </g>
     <g id="line2d_16">
      <g>
       <use xlink:href="#mc94a122003" x="53.03" y="257.815537" style="stroke: #000000; stroke-width: 0.8"/>
      </g>
     </g>
     <g id="text_9">
      <!-- −8 -->
      <g transform="translate(31.287813 261.614756) scale(0.1 -0.1)">
       <use xlink:href="#DejaVuSans-2212"/>
       <use xlink:href="#DejaVuSans-38" transform="translate(83.789062 0)"/>
      </g>
     </g>
    </g>
    <g id="ytick_3">
     <g id="line2d_17">
      <path d="M 53.03 222.319253 
L 352.93 222.319253 
" clip-path="url(#p8b9b6fb500)" style="fill: none; stroke: #b0b0b0; stroke-width: 0.8; stroke-linecap: square"/>
     </g>
     <g id="line2d_18">
      <g>
       <use xlink:href="#mc94a122003" x="53.03" y="222.319253" style="stroke: #000000; stroke-width: 0.8"/>
      </g>
     </g>
     <g id="text_10">
      <!-- −6 -->
      <g transform="translate(31.287813 226.118472) scale(0.1 -0.1)">
       <use xlink:href="#DejaVuSans-2212"/>
       <use xlink:href="#DejaVuSans-36" transform="translate(83.789062 0)"/>
      </g>
     </g>
    </g>
    <g id="ytick_4">
     <g id="line2d_19">
      <path d="M 53.03 186.822969 
L 352.93 186.822969 
" clip-path="url(#p8b9b6fb500)" style="fill: none; stroke: #b0b0b0; stroke-width: 0.8; stroke-linecap: square"/>
     </g>
     <g id="line2d_20">
      <g>
       <use xlink:href="#mc94a122003" x="53.03" y="186.822969" style="stroke: #000000; stroke-width: 0.8"/>
      </g>
     </g>
     <g id="text_11">
      <!-- −4 -->
      <g transform="translate(31.287813 190.622188) scale(0.1 -0.1)">
       <use xlink:href="#DejaVuSans-2212"/>
       <use xlink:href="#DejaVuSans-34" transform="translate(83.789062 0)"/>
      </g>
     </g>
    </g>
    <g id="ytick_5">
     <g id="line2d_21">
      <path d="M 53.03 151.326685 
L 352.93 151.326685 
" clip-path="url(#p8b9b6fb500)" style="fill: none; stroke: #b0b0b0; stroke-width: 0.8; stroke-linecap: square"/>
     </g>
     <g id="line2d_22">
      <g>
       <use xlink:href="#mc94a122003" x="53.03" y="151.326685" style="stroke: #000000; stroke-width: 0.8"/>
      </g>
     </g>
     <g id="text_12">
      <!-- −2 -->
      <g transform="translate(31.287813 155.125904) scale(0.1 -0.1)">
       <use xlink:href="#DejaVuSans-2212"/>
       <use xlink:href="#DejaVuSans-32" transform="translate(83.789062 0)"/>
      </g>
     </g>
    </g>
    <g id="ytick_6">
     <g id="line2d_23">
      <path d="M 53.03 115.830401 
L 352.93 115.830401 
" clip-path="url(#p8b9b6fb500)" style="fill: none; stroke: #b0b0b0; stroke-width: 0.8; stroke-linecap: square"/>
     </g>
     <g id="line2d_24">
      <g>
       <use xlink:href="#mc94a122003" x="53.03" y="115.830401" style="stroke: #000000; stroke-width: 0.8"/>
      </g>
     </g>
     <g id="text_13">
      <!-- 0 -->
      <g transform="translate(39.6675 119.62962) scale(0.1 -0.1)">
       <use xlink:href="#DejaVuSans-30"/>
      </g>
     </g>
    </g>
    <g id="ytick_7">
     <g id="line2d_25">
      <path d="M 53.03 80.334117 
L 352.93 80.334117 
" clip-path="url(#p8b9b6fb500)" style="fill: none; stroke: #b0b0b0; stroke-width: 0.8; stroke-linecap: square"/>
     </g>
     <g id="line2d_26">
      <g>
       <use xlink:href="#mc94a122003" x="53.03" y="80.334117" style="stroke: #000000; stroke-width: 0.8"/>
      </g>
     </g>
     <g id="text_14">
      <!-- 2 -->
      <g transform="translate(39.6675 84.133335) scale(0.1 -0.1)">
       <use xlink:href="#DejaVuSans-32"/>
      </g>
     </g>
    </g>
    <g id="ytick_8">
     <g id="line2d_27">
      <path d="M 53.03 44.837833 
L 352.93 44.837833 
" clip-path="url(#p8b9b6fb500)" style="fill: none; stroke: #b0b0b0; stroke-width: 0.8; stroke-linecap: square"/>
     </g>
     <g id="line2d_28">
      <g>
       <use xlink:href="#mc94a122003" x="53.03" y="44.837833" style="stroke: #000000; stroke-width: 0.8"/>
      </g>
     </g>
     <g id="text_15">
      <!-- 4 -->
      <g transform="translate(39.6675 48.637051) scale(0.1 -0.1)">
       <use xlink:href="#DejaVuSans-34"/>
      </g>
     </g>
    </g>
    <g id="text_16">
     <!-- y -->
     <g transform="translate(18.845625 170.979375) rotate(-90) scale(0.1 -0.1)">
      <defs>
       <path id="DejaVuSans-79" d="M 2059 -325 
Q 1816 -950 1584 -1140 
Q 1353 -1331 966 -1331 
L 506 -1331 
L 506 -850 
L 844 -850 
Q 1081 -850 1212 -737 
Q 1344 -625 1503 -206 
L 1606 56 
L 191 3500 
L 800 3500 
L 1894 763 
L 2988 3500 
L 3597 3500 
L 2059 -325 
z
" transform="scale(0.015625)"/>
      </defs>
      <use xlink:href="#DejaVuSans-79"/>
     </g>
    </g>
   </g>
   <g id="patch_3">
    <path d="M 66.661818 124.102865 
L 69.415721 121.027394 
L 72.169624 118.137244 
L 74.923526 115.45249 
L 77.677429 115.595738 
L 80.431331 116.033172 
L 83.185234 115.95091 
L 85.939137 115.349646 
L 88.693039 114.240001 
L 91.446942 112.642351 
L 94.200845 110.586667 
L 96.954747 108.112337 
L 99.70865 105.267962 
L 102.462553 102.111128 
L 105.216455 100.419795 
L 107.970358 99.767331 
L 110.724261 99.040651 
L 113.478163 98.195379 
L 116.232066 97.193807 
L 118.985969 96.005079 
L 121.739871 94.605318 
L 124.493774 92.97772 
L 127.247677 91.112595 
L 130.001579 89.007369 
L 132.755482 86.66655 
L 135.509385 84.101653 
L 138.263287 81.331094 
L 141.01719 78.380039 
L 143.771093 75.280216 
L 146.524995 72.069674 
L 149.278898 68.792493 
L 152.032801 65.498428 
L 154.786703 62.242481 
L 157.540606 59.084393 
L 160.294509 56.088051 
L 163.048411 55.245228 
L 165.802314 55.600802 
L 168.556217 56.01607 
L 171.310119 56.460715 
L 174.064022 56.91189 
L 176.817925 57.354556 
L 179.571827 57.78173 
L 182.32573 58.194632 
L 185.079633 58.602731 
L 187.833535 59.023689 
L 190.587438 59.483197 
L 193.341341 60.014691 
L 196.095243 60.658945 
L 198.849146 61.463538 
L 201.603049 62.482169 
L 204.356951 64.264272 
L 207.110854 68.270674 
L 209.864757 72.441897 
L 212.618659 76.721469 
L 215.372562 81.061026 
L 218.126465 85.42096 
L 220.880367 89.770929 
L 223.63427 94.09021 
L 226.388173 98.367915 
L 229.142075 102.603053 
L 231.895978 106.804466 
L 234.649881 110.99062 
L 237.403783 115.189289 
L 240.157686 121.251131 
L 242.911589 128.520854 
L 245.665491 135.955744 
L 248.419394 143.490458 
L 251.173297 151.063712 
L 253.927199 158.61885 
L 256.681102 166.104301 
L 259.435005 173.473937 
L 262.188907 180.68734 
L 264.94281 187.709987 
L 267.696713 194.513365 
L 270.450615 201.075018 
L 273.204518 207.37853 
L 275.958421 213.413445 
L 278.712323 219.17512 
L 281.466226 224.664503 
L 284.220129 229.887832 
L 286.974031 234.856226 
L 289.727934 239.585165 
L 292.481837 244.093811 
L 295.235739 248.404142 
L 297.989642 252.539831 
L 300.743545 256.524803 
L 303.497447 260.381337 
L 306.25135 264.127576 
L 309.005253 268.218088 
L 311.759155 272.072623 
L 314.513058 275.291114 
L 317.266961 277.921227 
L 320.020863 280.609863 
L 322.774766 282.918493 
L 325.528669 284.670161 
L 328.282571 285.81371 
L 331.036474 286.366294 
L 333.790376 287.898595 
L 336.544279 289.53656 
L 339.298182 291.310909 
L 339.298182 284.348613 
L 336.544279 285.564967 
L 333.790376 286.238161 
L 331.036474 286.331699 
L 328.282571 284.897163 
L 325.528669 283.425179 
L 322.774766 281.854023 
L 320.020863 280.064022 
L 317.266961 277.829454 
L 314.513058 274.692045 
L 311.759155 271.311621 
L 309.005253 267.774051 
L 306.25135 263.732289 
L 303.497447 258.663987 
L 300.743545 253.080739 
L 297.989642 247.056 
L 295.235739 240.665709 
L 292.481837 233.985847 
L 289.727934 227.09061 
L 286.974031 220.051029 
L 284.220129 212.933916 
L 281.466226 205.801065 
L 278.712323 198.708642 
L 275.958421 191.706722 
L 273.204518 184.838944 
L 270.450615 178.142264 
L 267.696713 171.646781 
L 264.94281 165.375633 
L 262.188907 159.344952 
L 259.435005 153.563869 
L 256.681102 148.034575 
L 253.927199 142.75244 
L 251.173297 137.706182 
L 248.419394 132.878109 
L 245.665491 128.24443 
L 242.911589 123.77565 
L 240.157686 119.437055 
L 237.403783 114.21529 
L 234.649881 107.483033 
L 231.895978 101.117457 
L 229.142075 95.171422 
L 226.388173 89.687071 
L 223.63427 84.695491 
L 220.880367 80.216468 
L 218.126465 76.258337 
L 215.372562 72.817929 
L 212.618659 69.880633 
L 209.864757 67.420558 
L 207.110854 65.400804 
L 204.356951 63.77384 
L 201.603049 60.486268 
L 198.849146 57.001882 
L 196.095243 53.870104 
L 193.341341 51.141975 
L 190.587438 48.860075 
L 187.833535 47.058098 
L 185.079633 45.760522 
L 182.32573 44.982377 
L 179.571827 44.729091 
L 176.817925 44.99641 
L 174.064022 45.7704 
L 171.310119 47.027504 
L 168.556217 48.734671 
L 165.802314 50.849549 
L 163.048411 53.320731 
L 160.294509 54.986712 
L 157.540606 54.867715 
L 154.786703 54.929044 
L 152.032801 55.20657 
L 149.278898 55.730771 
L 146.524995 56.526407 
L 143.771093 57.612256 
L 141.01719 59.000908 
L 138.263287 60.69862 
L 135.509385 62.705218 
L 132.755482 65.014041 
L 130.001579 67.611926 
L 127.247677 70.479231 
L 124.493774 73.589897 
L 121.739871 76.911548 
L 118.985969 80.405625 
L 116.232066 84.027576 
L 113.478163 87.72709 
L 110.724261 91.448389 
L 107.970358 95.130585 
L 105.216455 98.708095 
L 102.462553 101.048872 
L 99.70865 101.70982 
L 96.954747 102.455007 
L 94.200845 103.330497 
L 91.446942 104.37554 
L 88.693039 105.622161 
L 85.939137 107.094795 
L 83.185234 108.809988 
L 80.431331 110.776126 
L 77.677429 112.993187 
L 74.923526 114.648032 
L 72.169624 113.20901 
L 69.415721 111.302232 
L 66.661818 108.952443 
z
" clip-path="url(#p8b9b6fb500)" style="fill: #00ff00"/>
   </g>
   <g id="patch_4">
    <path d="M 66.661818 122.884971 
L 69.415721 120.245619 
L 72.169624 117.741079 
L 74.923526 115.387822 
L 77.677429 115.386527 
L 80.431331 115.610575 
L 83.185234 115.376874 
L 85.939137 114.686066 
L 88.693039 113.547241 
L 91.446942 111.977809 
L 94.200845 110.003367 
L 96.954747 107.657562 
L 99.70865 104.981935 
L 102.462553 102.025737 
L 105.216455 100.282197 
L 107.970358 99.394598 
L 110.724261 98.430334 
L 113.478163 97.353867 
L 116.232066 96.135417 
L 118.985969 94.751089 
L 121.739871 93.182973 
L 124.493774 91.419195 
L 127.247677 89.453945 
L 130.001579 87.287458 
L 132.755482 84.925974 
L 135.509385 82.381663 
L 138.263287 79.672516 
L 141.01719 76.822213 
L 143.771093 73.859946 
L 146.524995 70.820201 
L 149.278898 67.742503 
L 152.032801 64.671098 
L 154.786703 61.654577 
L 157.540606 58.745428 
L 160.294509 55.999518 
L 163.048411 55.090524 
L 165.802314 55.218864 
L 168.556217 55.430742 
L 171.310119 55.70241 
L 174.064022 56.016262 
L 176.817925 56.361125 
L 179.571827 56.732471 
L 182.32573 57.132541 
L 185.079633 57.570387 
L 187.833535 58.061814 
L 190.587438 58.629239 
L 193.341341 59.301442 
L 196.095243 60.113212 
L 198.849146 61.10488 
L 201.603049 62.321725 
L 204.356951 64.224848 
L 207.110854 68.039975 
L 209.864757 72.038247 
L 212.618659 76.171556 
L 215.372562 80.39839 
L 218.126465 84.684407 
L 220.880367 89.002877 
L 223.63427 93.334999 
L 226.388173 97.67009 
L 229.142075 102.005649 
L 231.895978 106.347306 
L 234.649881 110.708656 
L 237.403783 115.110993 
L 240.157686 121.105303 
L 242.911589 128.139402 
L 245.665491 135.335856 
L 248.419394 142.637366 
L 251.173297 149.989944 
L 253.927199 157.343401 
L 256.681102 164.651734 
L 259.435005 171.873431 
L 262.188907 178.971694 
L 264.94281 185.9146 
L 267.696713 192.675194 
L 270.450615 199.231528 
L 273.204518 205.566646 
L 275.958421 211.668512 
L 278.712323 217.529886 
L 281.466226 223.148132 
L 284.220129 228.524961 
L 286.974031 233.666084 
L 289.727934 238.580768 
L 292.481837 243.281264 
L 295.235739 247.782074 
L 297.989642 252.099004 
L 300.743545 256.247946 
L 303.497447 260.243285 
L 306.25135 264.0958 
L 309.005253 268.182394 
L 311.759155 272.011448 
L 314.513058 275.242957 
L 317.266961 277.91385 
L 320.020863 280.565985 
L 322.774766 282.832923 
L 325.528669 284.570081 
L 328.282571 285.740032 
L 331.036474 286.363513 
L 333.790376 287.765118 
L 336.544279 289.217297 
L 339.298182 290.751233 
L 339.298182 284.90829 
L 336.544279 285.88423 
L 333.790376 286.371638 
L 331.036474 286.33448 
L 328.282571 284.970841 
L 325.528669 283.525259 
L 322.774766 281.939593 
L 320.020863 280.1079 
L 317.266961 277.836832 
L 314.513058 274.740203 
L 311.759155 271.372795 
L 309.005253 267.809746 
L 306.25135 263.764065 
L 303.497447 258.80204 
L 300.743545 253.357596 
L 297.989642 247.496827 
L 295.235739 241.287777 
L 292.481837 234.798393 
L 289.727934 228.095007 
L 286.974031 221.241171 
L 284.220129 214.296786 
L 281.466226 207.317436 
L 278.712323 200.353877 
L 275.958421 193.451656 
L 273.204518 186.650829 
L 270.450615 179.985754 
L 267.696713 173.484952 
L 264.94281 167.17102 
L 262.188907 161.060598 
L 259.435005 155.164375 
L 256.681102 149.487142 
L 253.927199 144.027889 
L 251.173297 138.779951 
L 248.419394 133.731201 
L 245.665491 128.864317 
L 242.911589 124.157101 
L 240.157686 119.582882 
L 237.403783 114.293587 
L 234.649881 107.764997 
L 231.895978 101.574618 
L 229.142075 95.768827 
L 226.388173 90.384896 
L 223.63427 85.450702 
L 220.880367 80.98452 
L 218.126465 76.994891 
L 215.372562 73.480565 
L 212.618659 70.430546 
L 209.864757 67.824207 
L 207.110854 65.631504 
L 204.356951 63.813264 
L 201.603049 60.646712 
L 198.849146 57.36054 
L 196.095243 54.415837 
L 193.341341 51.855224 
L 190.587438 49.714034 
L 187.833535 48.019973 
L 185.079633 46.792866 
L 182.32573 46.044468 
L 179.571827 45.77835 
L 176.817925 45.989842 
L 174.064022 46.666029 
L 171.310119 47.785809 
L 168.556217 49.319999 
L 165.802314 51.231487 
L 163.048411 53.475435 
L 160.294509 55.075245 
L 157.540606 55.20668 
L 154.786703 55.516947 
L 152.032801 56.033899 
L 149.278898 56.780761 
L 146.524995 57.77588 
L 143.771093 59.032526 
L 141.01719 60.558733 
L 138.263287 62.357198 
L 135.509385 64.425209 
L 132.755482 66.754617 
L 130.001579 69.331836 
L 127.247677 72.13788 
L 124.493774 75.148422 
L 121.739871 78.333893 
L 118.985969 81.659614 
L 116.232066 85.085967 
L 113.478163 88.568602 
L 110.724261 92.058707 
L 107.970358 95.503318 
L 105.216455 98.845693 
L 102.462553 101.134263 
L 99.70865 101.995848 
L 96.954747 102.909781 
L 94.200845 103.913797 
L 91.446942 105.040083 
L 88.693039 106.314921 
L 85.939137 107.758376 
L 83.185234 109.384024 
L 80.431331 111.198723 
L 77.677429 113.202397 
L 74.923526 114.7127 
L 72.169624 113.605175 
L 69.415721 112.084006 
L 66.661818 110.170337 
z
" clip-path="url(#p8b9b6fb500)" style="fill: #00bf00"/>
   </g>
   <g id="patch_5">
    <path d="M 66.661818 121.480818 
L 69.415721 119.344283 
L 72.169624 117.284326 
L 74.923526 115.313264 
L 77.677429 115.145321 
L 80.431331 115.123348 
L 83.185234 114.715048 
L 85.939137 113.920999 
L 88.693039 112.748532 
L 91.446942 111.211634 
L 94.200845 109.330859 
L 96.954747 107.133236 
L 99.70865 104.652163 
L 102.462553 101.927286 
L 105.216455 100.123556 
L 107.970358 98.96486 
L 110.724261 97.726677 
L 113.478163 96.383658 
L 116.232066 94.91516 
L 118.985969 93.305319 
L 121.739871 91.5431 
L 124.493774 89.622316 
L 127.247677 87.541629 
L 130.001579 85.304512 
L 132.755482 82.919203 
L 135.509385 80.398624 
L 138.263287 77.760282 
L 141.01719 75.02614 
L 143.771093 72.222465 
L 146.524995 69.379638 
L 149.278898 66.531932 
L 152.032801 63.717241 
L 154.786703 60.976762 
L 157.540606 58.354623 
L 160.294509 55.897445 
L 163.048411 54.91216 
L 165.802314 54.778514 
L 168.556217 54.755896 
L 171.310119 54.828132 
L 174.064022 54.983659 
L 176.817925 55.215762 
L 179.571827 55.522742 
L 182.32573 55.908019 
L 185.079633 56.380161 
L 187.833535 56.952833 
L 190.587438 57.644679 
L 193.341341 58.479111 
L 196.095243 59.484017 
L 198.849146 60.69137 
L 201.603049 62.136744 
L 204.356951 64.179394 
L 207.110854 67.773993 
L 209.864757 71.572866 
L 212.618659 75.537542 
L 215.372562 79.634413 
L 218.126465 83.835207 
L 220.880367 88.117362 
L 223.63427 92.464289 
L 226.388173 96.865542 
L 229.142075 101.316879 
L 231.895978 105.820229 
L 234.649881 110.38357 
L 237.403783 115.020721 
L 240.157686 120.937173 
L 242.911589 127.699613 
L 245.665491 134.621166 
L 248.419394 141.653805 
L 251.173297 148.751957 
L 253.927199 155.872889 
L 256.681102 162.977017 
L 259.435005 170.02815 
L 262.188907 176.993664 
L 264.94281 183.844634 
L 267.696713 190.555901 
L 270.450615 197.106102 
L 273.204518 203.477659 
L 275.958421 209.656715 
L 278.712323 215.633036 
L 281.466226 221.399854 
L 284.220129 226.953659 
L 286.974031 232.293926 
L 289.727934 237.422762 
L 292.481837 242.34445 
L 295.235739 247.06487 
L 297.989642 251.590758 
L 300.743545 255.928747 
L 303.497447 260.08412 
L 306.25135 264.059165 
L 309.005253 268.14124 
L 311.759155 271.940918 
L 314.513058 275.187435 
L 317.266961 277.905344 
L 320.020863 280.515396 
L 322.774766 282.734268 
L 325.528669 284.454695 
L 328.282571 285.655085 
L 331.036474 286.360307 
L 333.790376 287.611228 
L 336.544279 288.849206 
L 339.298182 290.105961 
L 339.298182 285.553561 
L 336.544279 286.252321 
L 333.790376 286.525528 
L 331.036474 286.337686 
L 328.282571 285.055788 
L 325.528669 283.640645 
L 322.774766 282.038249 
L 320.020863 280.158489 
L 317.266961 277.845337 
L 314.513058 274.795725 
L 311.759155 271.443326 
L 309.005253 267.8509 
L 306.25135 263.800701 
L 303.497447 258.961205 
L 300.743545 253.676794 
L 297.989642 248.005073 
L 295.235739 242.004981 
L 292.481837 235.735208 
L 289.727934 229.253012 
L 286.974031 222.613328 
L 284.220129 215.868089 
L 281.466226 209.065715 
L 278.712323 202.250726 
L 275.958421 195.463452 
L 273.204518 188.739816 
L 270.450615 182.11118 
L 267.696713 175.604245 
L 264.94281 169.240986 
L 262.188907 163.038627 
L 259.435005 157.009656 
L 256.681102 151.161859 
L 253.927199 145.498401 
L 251.173297 140.017937 
L 248.419394 134.714762 
L 245.665491 129.579008 
L 242.911589 124.596891 
L 240.157686 119.751012 
L 237.403783 114.383858 
L 234.649881 108.090083 
L 231.895978 102.101694 
L 229.142075 96.457597 
L 226.388173 91.189443 
L 223.63427 86.321412 
L 220.880367 81.870035 
L 218.126465 77.84409 
L 215.372562 74.244542 
L 212.618659 71.06456 
L 209.864757 68.289589 
L 207.110854 65.897486 
L 204.356951 63.858718 
L 201.603049 60.831694 
L 198.849146 57.77405 
L 196.095243 55.045032 
L 193.341341 52.677555 
L 190.587438 50.698593 
L 187.833535 49.128954 
L 185.079633 47.983092 
L 182.32573 47.26899 
L 179.571827 46.98808 
L 176.817925 47.135205 
L 174.064022 47.698631 
L 171.310119 48.660087 
L 168.556217 49.994845 
L 165.802314 51.671837 
L 163.048411 53.653799 
L 160.294509 55.177318 
L 157.540606 55.597485 
L 154.786703 56.194762 
L 152.032801 56.987756 
L 149.278898 57.991331 
L 146.524995 59.216443 
L 143.771093 60.670007 
L 141.01719 62.354807 
L 138.263287 64.269432 
L 135.509385 66.408247 
L 132.755482 68.761388 
L 130.001579 71.314783 
L 127.247677 74.050197 
L 124.493774 76.945301 
L 121.739871 79.973766 
L 118.985969 83.105384 
L 116.232066 86.306223 
L 113.478163 89.538811 
L 110.724261 92.762364 
L 107.970358 95.933055 
L 105.216455 99.004335 
L 102.462553 101.232714 
L 99.70865 102.325619 
L 96.954747 103.434107 
L 94.200845 104.586304 
L 91.446942 105.806257 
L 88.693039 107.113629 
L 85.939137 108.523442 
L 83.185234 110.04585 
L 80.431331 111.68595 
L 77.677429 113.443604 
L 74.923526 114.787258 
L 72.169624 114.061928 
L 69.415721 112.985342 
L 66.661818 111.57449 
z
" clip-path="url(#p8b9b6fb500)" style="fill: #008000"/>
   </g>
   <g id="line2d_29">
    <path d="M 66.661818 115.830401 
L 69.415721 115.739897 
L 72.169624 115.468846 
L 74.923526 115.018632 
L 77.677429 114.391555 
L 80.431331 113.590819 
L 83.185234 112.620528 
L 85.939137 111.485661 
L 88.693039 110.192062 
L 91.446942 108.746408 
L 94.200845 107.156191 
L 96.954747 105.429686 
L 99.70865 103.575919 
L 102.462553 101.604634 
L 105.216455 99.526253 
L 107.970358 97.351835 
L 110.724261 95.09304 
L 113.478163 92.762072 
L 116.232066 90.371644 
L 118.985969 87.934919 
L 121.739871 85.465461 
L 124.493774 82.977185 
L 127.247677 80.484297 
L 130.001579 78.001243 
L 132.755482 75.542646 
L 135.509385 73.123252 
L 138.263287 70.757868 
L 141.01719 68.461303 
L 143.771093 66.24831 
L 146.524995 64.133522 
L 149.278898 62.131395 
L 152.032801 60.256145 
L 154.786703 58.52169 
L 157.540606 56.941595 
L 160.294509 55.529005 
L 163.048411 54.296598 
L 165.802314 53.256522 
L 168.556217 52.420347 
L 171.310119 51.799008 
L 174.064022 51.402757 
L 176.817925 51.241115 
L 179.571827 51.322826 
L 182.32573 51.65581 
L 185.079633 52.247129 
L 187.833535 53.102941 
L 190.587438 54.22847 
L 193.341341 55.627974 
L 196.095243 57.304711 
L 198.849146 59.26092 
L 201.603049 61.497791 
L 204.356951 64.015454 
L 207.110854 66.81296 
L 209.864757 69.888266 
L 212.618659 73.238236 
L 215.372562 76.858628 
L 218.126465 80.7441 
L 220.880367 84.888209 
L 223.63427 89.283425 
L 226.388173 93.921134 
L 229.142075 98.79166 
L 231.895978 103.884284 
L 234.649881 109.18726 
L 237.403783 114.687852 
L 240.157686 120.372356 
L 242.911589 126.226139 
L 245.665491 132.233674 
L 248.419394 138.378583 
L 251.173297 144.643679 
L 253.927199 151.011019 
L 256.681102 157.461947 
L 259.435005 163.977154 
L 262.188907 170.536733 
L 264.94281 177.120235 
L 267.696713 183.706736 
L 270.450615 190.274897 
L 273.204518 196.80303 
L 275.958421 203.269169 
L 278.712323 209.651136 
L 281.466226 215.926614 
L 284.220129 222.07322 
L 286.974031 228.068576 
L 289.727934 233.890385 
L 292.481837 239.516505 
L 295.235739 244.925025 
L 297.989642 250.094338 
L 300.743545 255.00322 
L 303.497447 259.630899 
L 306.25135 263.957134 
L 309.005253 267.962287 
L 311.759155 271.627392 
L 314.513058 274.934229 
L 317.266961 277.865393 
L 320.020863 280.40436 
L 322.774766 282.535552 
L 325.528669 284.2444 
L 328.282571 285.517406 
L 331.036474 286.3422 
L 333.790376 286.707593 
L 336.544279 286.603631 
L 339.298182 286.021643 
" clip-path="url(#p8b9b6fb500)" style="fill: none; stroke: #1f77b4; stroke-linecap: square"/>
   </g>
   <g id="PathCollection_1">
    <defs>
     <path id="m52c5446743" d="M -3 3 
L 3 3 
L 3 -3 
L -3 -3 
z
" style="stroke: #1f77b4"/>
    </defs>
    <g clip-path="url(#p8b9b6fb500)">
     <use xlink:href="#m52c5446743" x="75.52325" y="114.897039" style="fill: #1f77b4; stroke: #1f77b4"/>
     <use xlink:href="#m52c5446743" x="103.543071" y="100.801331" style="fill: #1f77b4; stroke: #1f77b4"/>
     <use xlink:href="#m52c5446743" x="161.282188" y="55.065638" style="fill: #1f77b4; stroke: #1f77b4"/>
     <use xlink:href="#m52c5446743" x="203.808856" y="63.492025" style="fill: #1f77b4; stroke: #1f77b4"/>
     <use xlink:href="#m52c5446743" x="238.389072" y="116.701261" style="fill: #1f77b4; stroke: #1f77b4"/>
     <use xlink:href="#m52c5446743" x="307.346624" y="265.589582" style="fill: #1f77b4; stroke: #1f77b4"/>
     <use xlink:href="#m52c5446743" x="317.672555" y="278.264344" style="fill: #1f77b4; stroke: #1f77b4"/>
     <use xlink:href="#m52c5446743" x="330.961785" y="286.325844" style="fill: #1f77b4; stroke: #1f77b4"/>
    </g>
   </g>
   <g id="patch_6">
    <path d="M 53.03 303.64 
L 53.03 32.4 
" style="fill: none; stroke: #000000; stroke-width: 0.8; stroke-linejoin: miter; stroke-linecap: square"/>
   </g>
   <g id="patch_7">
    <path d="M 352.93 303.64 
L 352.93 32.4 
" style="fill: none; stroke: #000000; stroke-width: 0.8; stroke-linejoin: miter; stroke-linecap: square"/>
   </g>
   <g id="patch_8">
    <path d="M 53.03 303.64 
L 352.93 303.64 
" style="fill: none; stroke: #000000; stroke-width: 0.8; stroke-linejoin: miter; stroke-linecap: square"/>
   </g>
   <g id="patch_9">
    <path d="M 53.03 32.4 
L 352.93 32.4 
" style="fill: none; stroke: #000000; stroke-width: 0.8; stroke-linejoin: miter; stroke-linecap: square"/>
   </g>
   <g id="line2d_30">
    <path d="M 66.661818 116.527654 
L 69.415721 116.164813 
L 72.169624 115.673127 
L 74.923526 115.050261 
L 77.677429 114.294462 
L 80.431331 113.404649 
L 83.185234 112.380449 
L 85.939137 111.222221 
L 88.693039 109.931081 
L 91.446942 108.508946 
L 94.200845 106.958582 
L 96.954747 105.283672 
L 99.70865 103.488891 
L 102.462553 101.58 
L 105.216455 99.563945 
L 107.970358 97.448958 
L 110.724261 95.24452 
L 113.478163 92.961234 
L 116.232066 90.610692 
L 118.985969 88.205352 
L 121.739871 85.758433 
L 124.493774 83.283809 
L 127.247677 80.795913 
L 130.001579 78.309647 
L 132.755482 75.840296 
L 135.509385 73.403436 
L 138.263287 71.014857 
L 141.01719 68.690473 
L 143.771093 66.446236 
L 146.524995 64.298041 
L 149.278898 62.261632 
L 152.032801 60.352499 
L 154.786703 58.585762 
L 157.540606 56.976054 
L 160.294509 55.537381 
L 163.048411 54.282979 
L 165.802314 53.225176 
L 168.556217 52.375371 
L 171.310119 51.744109 
L 174.064022 51.341145 
L 176.817925 51.175483 
L 179.571827 51.255411 
L 182.32573 51.588505 
L 185.079633 52.181626 
L 187.833535 53.040894 
L 190.587438 54.171636 
L 193.341341 55.578333 
L 196.095243 57.264524 
L 198.849146 59.23271 
L 201.603049 61.484219 
L 204.356951 64.019056 
L 207.110854 66.835739 
L 209.864757 69.931227 
L 212.618659 73.301051 
L 215.372562 76.939478 
L 218.126465 80.839649 
L 220.880367 84.993698 
L 223.63427 89.39285 
L 226.388173 94.027493 
L 229.142075 98.887238 
L 231.895978 103.960962 
L 234.649881 109.236827 
L 237.403783 114.70229 
L 240.157686 120.344093 
L 242.911589 126.148252 
L 245.665491 132.100087 
L 248.419394 138.184283 
L 251.173297 144.384947 
L 253.927199 150.685645 
L 256.681102 157.069438 
L 259.435005 163.518903 
L 262.188907 170.016146 
L 264.94281 176.54281 
L 267.696713 183.080073 
L 270.450615 189.608641 
L 273.204518 196.108737 
L 275.958421 202.560084 
L 278.712323 208.941881 
L 281.466226 215.232784 
L 284.220129 221.410874 
L 286.974031 227.453627 
L 289.727934 233.337887 
L 292.481837 239.039829 
L 295.235739 244.534925 
L 297.989642 249.797916 
L 300.743545 254.802771 
L 303.497447 259.522662 
L 306.25135 263.929933 
L 309.005253 267.99607 
L 311.759155 271.692122 
L 314.513058 274.99158 
L 317.266961 277.875341 
L 320.020863 280.336943 
L 322.774766 282.386258 
L 325.528669 284.04767 
L 328.282571 285.355436 
L 331.036474 286.348996 
L 333.790376 287.068378 
L 336.544279 287.550763 
L 339.298182 287.829761 
" clip-path="url(#p8b9b6fb500)" style="fill: none; stroke-dasharray: 3.7,1.6; stroke-dashoffset: 0; stroke: #ff7f0e"/>
   </g>
   <g id="line2d_31">
    <path d="M 66.661818 99.449636 
L 69.415721 100.729136 
L 72.169624 102.008636 
L 74.923526 103.288136 
L 77.677429 104.567636 
L 80.431331 105.847136 
L 83.185234 107.126636 
L 85.939137 108.406137 
L 88.693039 109.685637 
L 91.446942 110.965137 
L 94.200845 112.244637 
L 96.954747 113.524137 
L 99.70865 114.803637 
L 102.462553 116.083137 
L 105.216455 117.362637 
L 107.970358 118.642137 
L 110.724261 119.921637 
L 113.478163 121.201137 
L 116.232066 122.480638 
L 118.985969 123.760138 
L 121.739871 125.039638 
L 124.493774 126.319138 
L 127.247677 127.598638 
L 130.001579 128.878138 
L 132.755482 130.157638 
L 135.509385 131.437138 
L 138.263287 132.716638 
L 141.01719 133.996138 
L 143.771093 135.275638 
L 146.524995 136.555138 
L 149.278898 137.834639 
L 152.032801 139.114139 
L 154.786703 140.393639 
L 157.540606 141.673139 
L 160.294509 142.952639 
L 163.048411 144.232139 
L 165.802314 145.511639 
L 168.556217 146.791139 
L 171.310119 148.070639 
L 174.064022 149.350139 
L 176.817925 150.629639 
L 179.571827 151.909139 
L 182.32573 153.18864 
L 185.079633 154.46814 
L 187.833535 155.74764 
L 190.587438 157.02714 
L 193.341341 158.30664 
L 196.095243 159.58614 
L 198.849146 160.86564 
L 201.603049 162.14514 
L 204.356951 163.42464 
L 207.110854 164.70414 
L 209.864757 165.98364 
L 212.618659 167.263141 
L 215.372562 168.542641 
L 218.126465 169.822141 
L 220.880367 171.101641 
L 223.63427 172.381141 
L 226.388173 173.660641 
L 229.142075 174.940141 
L 231.895978 176.219641 
L 234.649881 177.499141 
L 237.403783 178.778641 
L 240.157686 180.058141 
L 242.911589 181.337641 
L 245.665491 182.617142 
L 248.419394 183.896642 
L 251.173297 185.176142 
L 253.927199 186.455642 
L 256.681102 187.735142 
L 259.435005 189.014642 
L 262.188907 190.294142 
L 264.94281 191.573642 
L 267.696713 192.853142 
L 270.450615 194.132642 
L 273.204518 195.412142 
L 275.958421 196.691642 
L 278.712323 197.971143 
L 281.466226 199.250643 
L 284.220129 200.530143 
L 286.974031 201.809643 
L 289.727934 203.089143 
L 292.481837 204.368643 
L 295.235739 205.648143 
L 297.989642 206.927643 
L 300.743545 208.207143 
L 303.497447 209.486643 
L 306.25135 210.766143 
L 309.005253 212.045644 
L 311.759155 213.325144 
L 314.513058 214.604644 
L 317.266961 215.884144 
L 320.020863 217.163644 
L 322.774766 218.443144 
L 325.528669 219.722644 
L 328.282571 221.002144 
L 331.036474 222.281644 
L 333.790376 223.561144 
L 336.544279 224.840644 
L 339.298182 226.120144 
" clip-path="url(#p8b9b6fb500)" style="fill: none; stroke-dasharray: 6.4,1.6,1,1.6; stroke-dashoffset: 0; stroke: #ff0000"/>
   </g>
   <g id="legend_1">
    <g id="patch_10">
     <path d="M 361.93 101.1125 
L 449.89875 101.1125 
Q 451.89875 101.1125 451.89875 99.1125 
L 451.89875 41.4 
Q 451.89875 39.4 449.89875 39.4 
L 361.93 39.4 
Q 359.93 39.4 359.93 41.4 
L 359.93 99.1125 
Q 359.93 101.1125 361.93 101.1125 
z
" style="fill: #4d4d4d; opacity: 0.5; stroke: #4d4d4d; stroke-linejoin: miter"/>
    </g>
    <g id="patch_11">
     <path d="M 359.93 99.1125 
L 447.89875 99.1125 
Q 449.89875 99.1125 449.89875 97.1125 
L 449.89875 39.4 
Q 449.89875 37.4 447.89875 37.4 
L 359.93 37.4 
Q 357.93 37.4 357.93 39.4 
L 357.93 97.1125 
Q 357.93 99.1125 359.93 99.1125 
z
" style="fill: #ffffff; stroke: #cccccc; stroke-linejoin: miter"/>
    </g>
    <g id="line2d_32">
     <path d="M 361.93 45.498437 
L 371.93 45.498437 
L 381.93 45.498437 
" style="fill: none; stroke: #1f77b4; stroke-linecap: square"/>
    </g>
    <g id="text_17">
     <!-- Model -->
     <g transform="translate(389.93 48.998437) scale(0.1 -0.1)">
      <defs>
       <path id="DejaVuSans-4d" d="M 628 4666 
L 1569 4666 
L 2759 1491 
L 3956 4666 
L 4897 4666 
L 4897 0 
L 4281 0 
L 4281 4097 
L 3078 897 
L 2444 897 
L 1241 4097 
L 1241 0 
L 628 0 
L 628 4666 
z
" transform="scale(0.015625)"/>
       <path id="DejaVuSans-6f" d="M 1959 3097 
Q 1497 3097 1228 2736 
Q 959 2375 959 1747 
Q 959 1119 1226 758 
Q 1494 397 1959 397 
Q 2419 397 2687 759 
Q 2956 1122 2956 1747 
Q 2956 2369 2687 2733 
Q 2419 3097 1959 3097 
z
M 1959 3584 
Q 2709 3584 3137 3096 
Q 3566 2609 3566 1747 
Q 3566 888 3137 398 
Q 2709 -91 1959 -91 
Q 1206 -91 779 398 
Q 353 888 353 1747 
Q 353 2609 779 3096 
Q 1206 3584 1959 3584 
z
" transform="scale(0.015625)"/>
       <path id="DejaVuSans-64" d="M 2906 2969 
L 2906 4863 
L 3481 4863 
L 3481 0 
L 2906 0 
L 2906 525 
Q 2725 213 2448 61 
Q 2172 -91 1784 -91 
Q 1150 -91 751 415 
Q 353 922 353 1747 
Q 353 2572 751 3078 
Q 1150 3584 1784 3584 
Q 2172 3584 2448 3432 
Q 2725 3281 2906 2969 
z
M 947 1747 
Q 947 1113 1208 752 
Q 1469 391 1925 391 
Q 2381 391 2643 752 
Q 2906 1113 2906 1747 
Q 2906 2381 2643 2742 
Q 2381 3103 1925 3103 
Q 1469 3103 1208 2742 
Q 947 2381 947 1747 
z
" transform="scale(0.015625)"/>
       <path id="DejaVuSans-65" d="M 3597 1894 
L 3597 1613 
L 953 1613 
Q 991 1019 1311 708 
Q 1631 397 2203 397 
Q 2534 397 2845 478 
Q 3156 559 3463 722 
L 3463 178 
Q 3153 47 2828 -22 
Q 2503 -91 2169 -91 
Q 1331 -91 842 396 
Q 353 884 353 1716 
Q 353 2575 817 3079 
Q 1281 3584 2069 3584 
Q 2775 3584 3186 3129 
Q 3597 2675 3597 1894 
z
M 3022 2063 
Q 3016 2534 2758 2815 
Q 2500 3097 2075 3097 
Q 1594 3097 1305 2825 
Q 1016 2553 972 2059 
L 3022 2063 
z
" transform="scale(0.015625)"/>
       <path id="DejaVuSans-6c" d="M 603 4863 
L 1178 4863 
L 1178 0 
L 603 0 
L 603 4863 
z
" transform="scale(0.015625)"/>
      </defs>
      <use xlink:href="#DejaVuSans-4d"/>
      <use xlink:href="#DejaVuSans-6f" transform="translate(86.279297 0)"/>
      <use xlink:href="#DejaVuSans-64" transform="translate(147.460938 0)"/>
      <use xlink:href="#DejaVuSans-65" transform="translate(210.9375 0)"/>
      <use xlink:href="#DejaVuSans-6c" transform="translate(272.460938 0)"/>
     </g>
    </g>
    <g id="PathCollection_2">
     <g>
      <use xlink:href="#m52c5446743" x="371.93" y="61.051562" style="fill: #1f77b4; stroke: #1f77b4"/>
     </g>
    </g>
    <g id="text_18">
     <!-- Data -->
     <g transform="translate(389.93 63.676562) scale(0.1 -0.1)">
      <defs>
       <path id="DejaVuSans-44" d="M 1259 4147 
L 1259 519 
L 2022 519 
Q 2988 519 3436 956 
Q 3884 1394 3884 2338 
Q 3884 3275 3436 3711 
Q 2988 4147 2022 4147 
L 1259 4147 
z
M 628 4666 
L 1925 4666 
Q 3281 4666 3915 4102 
Q 4550 3538 4550 2338 
Q 4550 1131 3912 565 
Q 3275 0 1925 0 
L 628 0 
L 628 4666 
z
" transform="scale(0.015625)"/>
       <path id="DejaVuSans-61" d="M 2194 1759 
Q 1497 1759 1228 1600 
Q 959 1441 959 1056 
Q 959 750 1161 570 
Q 1363 391 1709 391 
Q 2188 391 2477 730 
Q 2766 1069 2766 1631 
L 2766 1759 
L 2194 1759 
z
M 3341 1997 
L 3341 0 
L 2766 0 
L 2766 531 
Q 2569 213 2275 61 
Q 1981 -91 1556 -91 
Q 1019 -91 701 211 
Q 384 513 384 1019 
Q 384 1609 779 1909 
Q 1175 2209 1959 2209 
L 2766 2209 
L 2766 2266 
Q 2766 2663 2505 2880 
Q 2244 3097 1772 3097 
Q 1472 3097 1187 3025 
Q 903 2953 641 2809 
L 641 3341 
Q 956 3463 1253 3523 
Q 1550 3584 1831 3584 
Q 2591 3584 2966 3190 
Q 3341 2797 3341 1997 
z
" transform="scale(0.015625)"/>
       <path id="DejaVuSans-74" d="M 1172 4494 
L 1172 3500 
L 2356 3500 
L 2356 3053 
L 1172 3053 
L 1172 1153 
Q 1172 725 1289 603 
Q 1406 481 1766 481 
L 2356 481 
L 2356 0 
L 1766 0 
Q 1100 0 847 248 
Q 594 497 594 1153 
L 594 3053 
L 172 3053 
L 172 3500 
L 594 3500 
L 594 4494 
L 1172 4494 
z
" transform="scale(0.015625)"/>
      </defs>
      <use xlink:href="#DejaVuSans-44"/>
      <use xlink:href="#DejaVuSans-61" transform="translate(77.001953 0)"/>
      <use xlink:href="#DejaVuSans-74" transform="translate(138.28125 0)"/>
      <use xlink:href="#DejaVuSans-61" transform="translate(177.490234 0)"/>
     </g>
    </g>
    <g id="line2d_33">
     <path d="M 361.93 74.854687 
L 371.93 74.854687 
L 381.93 74.854687 
" style="fill: none; stroke-dasharray: 3.7,1.6; stroke-dashoffset: 0; stroke: #ff7f0e"/>
    </g>
    <g id="text_19">
     <!-- Metamodel -->
     <g transform="translate(389.93 78.354687) scale(0.1 -0.1)">
      <defs>
       <path id="DejaVuSans-6d" d="M 3328 2828 
Q 3544 3216 3844 3400 
Q 4144 3584 4550 3584 
Q 5097 3584 5394 3201 
Q 5691 2819 5691 2113 
L 5691 0 
L 5113 0 
L 5113 2094 
Q 5113 2597 4934 2840 
Q 4756 3084 4391 3084 
Q 3944 3084 3684 2787 
Q 3425 2491 3425 1978 
L 3425 0 
L 2847 0 
L 2847 2094 
Q 2847 2600 2669 2842 
Q 2491 3084 2119 3084 
Q 1678 3084 1418 2786 
Q 1159 2488 1159 1978 
L 1159 0 
L 581 0 
L 581 3500 
L 1159 3500 
L 1159 2956 
Q 1356 3278 1631 3431 
Q 1906 3584 2284 3584 
Q 2666 3584 2933 3390 
Q 3200 3197 3328 2828 
z
" transform="scale(0.015625)"/>
      </defs>
      <use xlink:href="#DejaVuSans-4d"/>
      <use xlink:href="#DejaVuSans-65" transform="translate(86.279297 0)"/>
      <use xlink:href="#DejaVuSans-74" transform="translate(147.802734 0)"/>
      <use xlink:href="#DejaVuSans-61" transform="translate(187.011719 0)"/>
      <use xlink:href="#DejaVuSans-6d" transform="translate(248.291016 0)"/>
      <use xlink:href="#DejaVuSans-6f" transform="translate(345.703125 0)"/>
      <use xlink:href="#DejaVuSans-64" transform="translate(406.884766 0)"/>
      <use xlink:href="#DejaVuSans-65" transform="translate(470.361328 0)"/>
      <use xlink:href="#DejaVuSans-6c" transform="translate(531.884766 0)"/>
     </g>
    </g>
    <g id="line2d_34">
     <path d="M 361.93 89.532812 
L 371.93 89.532812 
L 381.93 89.532812 
" style="fill: none; stroke-dasharray: 6.4,1.6,1,1.6; stroke-dashoffset: 0; stroke: #ff0000"/>
    </g>
    <g id="text_20">
     <!-- Trend -->
     <g transform="translate(389.93 93.032812) scale(0.1 -0.1)">
      <defs>
       <path id="DejaVuSans-54" d="M -19 4666 
L 3928 4666 
L 3928 4134 
L 2272 4134 
L 2272 0 
L 1638 0 
L 1638 4134 
L -19 4134 
L -19 4666 
z
" transform="scale(0.015625)"/>
       <path id="DejaVuSans-72" d="M 2631 2963 
Q 2534 3019 2420 3045 
Q 2306 3072 2169 3072 
Q 1681 3072 1420 2755 
Q 1159 2438 1159 1844 
L 1159 0 
L 581 0 
L 581 3500 
L 1159 3500 
L 1159 2956 
Q 1341 3275 1631 3429 
Q 1922 3584 2338 3584 
Q 2397 3584 2469 3576 
Q 2541 3569 2628 3553 
L 2631 2963 
z
" transform="scale(0.015625)"/>
       <path id="DejaVuSans-6e" d="M 3513 2113 
L 3513 0 
L 2938 0 
L 2938 2094 
Q 2938 2591 2744 2837 
Q 2550 3084 2163 3084 
Q 1697 3084 1428 2787 
Q 1159 2491 1159 1978 
L 1159 0 
L 581 0 
L 581 3500 
L 1159 3500 
L 1159 2956 
Q 1366 3272 1645 3428 
Q 1925 3584 2291 3584 
Q 2894 3584 3203 3211 
Q 3513 2838 3513 2113 
z
" transform="scale(0.015625)"/>
      </defs>
      <use xlink:href="#DejaVuSans-54"/>
      <use xlink:href="#DejaVuSans-72" transform="translate(46.333984 0)"/>
      <use xlink:href="#DejaVuSans-65" transform="translate(85.197266 0)"/>
      <use xlink:href="#DejaVuSans-6e" transform="translate(146.720703 0)"/>
      <use xlink:href="#DejaVuSans-64" transform="translate(210.099609 0)"/>
     </g>
    </g>
   </g>
  </g>
  <g id="text_21">
   <!-- Gaussian Process Regression metamodel: linear trend -->
   <g transform="translate(68.537813 16.030125) scale(0.12 -0.12)">
    <defs>
     <path id="DejaVuSans-47" d="M 3809 666 
L 3809 1919 
L 2778 1919 
L 2778 2438 
L 4434 2438 
L 4434 434 
Q 4069 175 3628 42 
Q 3188 -91 2688 -91 
Q 1594 -91 976 548 
Q 359 1188 359 2328 
Q 359 3472 976 4111 
Q 1594 4750 2688 4750 
Q 3144 4750 3555 4637 
Q 3966 4525 4313 4306 
L 4313 3634 
Q 3963 3931 3569 4081 
Q 3175 4231 2741 4231 
Q 1884 4231 1454 3753 
Q 1025 3275 1025 2328 
Q 1025 1384 1454 906 
Q 1884 428 2741 428 
Q 3075 428 3337 486 
Q 3600 544 3809 666 
z
" transform="scale(0.015625)"/>
     <path id="DejaVuSans-75" d="M 544 1381 
L 544 3500 
L 1119 3500 
L 1119 1403 
Q 1119 906 1312 657 
Q 1506 409 1894 409 
Q 2359 409 2629 706 
Q 2900 1003 2900 1516 
L 2900 3500 
L 3475 3500 
L 3475 0 
L 2900 0 
L 2900 538 
Q 2691 219 2414 64 
Q 2138 -91 1772 -91 
Q 1169 -91 856 284 
Q 544 659 544 1381 
z
M 1991 3584 
L 1991 3584 
z
" transform="scale(0.015625)"/>
     <path id="DejaVuSans-73" d="M 2834 3397 
L 2834 2853 
Q 2591 2978 2328 3040 
Q 2066 3103 1784 3103 
Q 1356 3103 1142 2972 
Q 928 2841 928 2578 
Q 928 2378 1081 2264 
Q 1234 2150 1697 2047 
L 1894 2003 
Q 2506 1872 2764 1633 
Q 3022 1394 3022 966 
Q 3022 478 2636 193 
Q 2250 -91 1575 -91 
Q 1294 -91 989 -36 
Q 684 19 347 128 
L 347 722 
Q 666 556 975 473 
Q 1284 391 1588 391 
Q 1994 391 2212 530 
Q 2431 669 2431 922 
Q 2431 1156 2273 1281 
Q 2116 1406 1581 1522 
L 1381 1569 
Q 847 1681 609 1914 
Q 372 2147 372 2553 
Q 372 3047 722 3315 
Q 1072 3584 1716 3584 
Q 2034 3584 2315 3537 
Q 2597 3491 2834 3397 
z
" transform="scale(0.015625)"/>
     <path id="DejaVuSans-69" d="M 603 3500 
L 1178 3500 
L 1178 0 
L 603 0 
L 603 3500 
z
M 603 4863 
L 1178 4863 
L 1178 4134 
L 603 4134 
L 603 4863 
z
" transform="scale(0.015625)"/>
     <path id="DejaVuSans-20" transform="scale(0.015625)"/>
     <path id="DejaVuSans-50" d="M 1259 4147 
L 1259 2394 
L 2053 2394 
Q 2494 2394 2734 2622 
Q 2975 2850 2975 3272 
Q 2975 3691 2734 3919 
Q 2494 4147 2053 4147 
L 1259 4147 
z
M 628 4666 
L 2053 4666 
Q 2838 4666 3239 4311 
Q 3641 3956 3641 3272 
Q 3641 2581 3239 2228 
Q 2838 1875 2053 1875 
L 1259 1875 
L 1259 0 
L 628 0 
L 628 4666 
z
" transform="scale(0.015625)"/>
     <path id="DejaVuSans-63" d="M 3122 3366 
L 3122 2828 
Q 2878 2963 2633 3030 
Q 2388 3097 2138 3097 
Q 1578 3097 1268 2742 
Q 959 2388 959 1747 
Q 959 1106 1268 751 
Q 1578 397 2138 397 
Q 2388 397 2633 464 
Q 2878 531 3122 666 
L 3122 134 
Q 2881 22 2623 -34 
Q 2366 -91 2075 -91 
Q 1284 -91 818 406 
Q 353 903 353 1747 
Q 353 2603 823 3093 
Q 1294 3584 2113 3584 
Q 2378 3584 2631 3529 
Q 2884 3475 3122 3366 
z
" transform="scale(0.015625)"/>
     <path id="DejaVuSans-52" d="M 2841 2188 
Q 3044 2119 3236 1894 
Q 3428 1669 3622 1275 
L 4263 0 
L 3584 0 
L 2988 1197 
Q 2756 1666 2539 1819 
Q 2322 1972 1947 1972 
L 1259 1972 
L 1259 0 
L 628 0 
L 628 4666 
L 2053 4666 
Q 2853 4666 3247 4331 
Q 3641 3997 3641 3322 
Q 3641 2881 3436 2590 
Q 3231 2300 2841 2188 
z
M 1259 4147 
L 1259 2491 
L 2053 2491 
Q 2509 2491 2742 2702 
Q 2975 2913 2975 3322 
Q 2975 3731 2742 3939 
Q 2509 4147 2053 4147 
L 1259 4147 
z
" transform="scale(0.015625)"/>
     <path id="DejaVuSans-67" d="M 2906 1791 
Q 2906 2416 2648 2759 
Q 2391 3103 1925 3103 
Q 1463 3103 1205 2759 
Q 947 2416 947 1791 
Q 947 1169 1205 825 
Q 1463 481 1925 481 
Q 2391 481 2648 825 
Q 2906 1169 2906 1791 
z
M 3481 434 
Q 3481 -459 3084 -895 
Q 2688 -1331 1869 -1331 
Q 1566 -1331 1297 -1286 
Q 1028 -1241 775 -1147 
L 775 -588 
Q 1028 -725 1275 -790 
Q 1522 -856 1778 -856 
Q 2344 -856 2625 -561 
Q 2906 -266 2906 331 
L 2906 616 
Q 2728 306 2450 153 
Q 2172 0 1784 0 
Q 1141 0 747 490 
Q 353 981 353 1791 
Q 353 2603 747 3093 
Q 1141 3584 1784 3584 
Q 2172 3584 2450 3431 
Q 2728 3278 2906 2969 
L 2906 3500 
L 3481 3500 
L 3481 434 
z
" transform="scale(0.015625)"/>
     <path id="DejaVuSans-3a" d="M 750 794 
L 1409 794 
L 1409 0 
L 750 0 
L 750 794 
z
M 750 3309 
L 1409 3309 
L 1409 2516 
L 750 2516 
L 750 3309 
z
" transform="scale(0.015625)"/>
    </defs>
    <use xlink:href="#DejaVuSans-47"/>
    <use xlink:href="#DejaVuSans-61" transform="translate(77.490234 0)"/>
    <use xlink:href="#DejaVuSans-75" transform="translate(138.769531 0)"/>
    <use xlink:href="#DejaVuSans-73" transform="translate(202.148438 0)"/>
    <use xlink:href="#DejaVuSans-73" transform="translate(254.248047 0)"/>
    <use xlink:href="#DejaVuSans-69" transform="translate(306.347656 0)"/>
    <use xlink:href="#DejaVuSans-61" transform="translate(334.130859 0)"/>
    <use xlink:href="#DejaVuSans-6e" transform="translate(395.410156 0)"/>
    <use xlink:href="#DejaVuSans-20" transform="translate(458.789062 0)"/>
    <use xlink:href="#DejaVuSans-50" transform="translate(490.576172 0)"/>
    <use xlink:href="#DejaVuSans-72" transform="translate(549.128906 0)"/>
    <use xlink:href="#DejaVuSans-6f" transform="translate(587.992188 0)"/>
    <use xlink:href="#DejaVuSans-63" transform="translate(649.173828 0)"/>
    <use xlink:href="#DejaVuSans-65" transform="translate(704.154297 0)"/>
    <use xlink:href="#DejaVuSans-73" transform="translate(765.677734 0)"/>
    <use xlink:href="#DejaVuSans-73" transform="translate(817.777344 0)"/>
    <use xlink:href="#DejaVuSans-20" transform="translate(869.876953 0)"/>
    <use xlink:href="#DejaVuSans-52" transform="translate(901.664062 0)"/>
    <use xlink:href="#DejaVuSans-65" transform="translate(966.646484 0)"/>
    <use xlink:href="#DejaVuSans-67" transform="translate(1028.169922 0)"/>
    <use xlink:href="#DejaVuSans-72" transform="translate(1091.646484 0)"/>
    <use xlink:href="#DejaVuSans-65" transform="translate(1130.509766 0)"/>
    <use xlink:href="#DejaVuSans-73" transform="translate(1192.033203 0)"/>
    <use xlink:href="#DejaVuSans-73" transform="translate(1244.132812 0)"/>
    <use xlink:href="#DejaVuSans-69" transform="translate(1296.232422 0)"/>
    <use xlink:href="#DejaVuSans-6f" transform="translate(1324.015625 0)"/>
    <use xlink:href="#DejaVuSans-6e" transform="translate(1385.197266 0)"/>
    <use xlink:href="#DejaVuSans-20" transform="translate(1448.576172 0)"/>
    <use xlink:href="#DejaVuSans-6d" transform="translate(1480.363281 0)"/>
    <use xlink:href="#DejaVuSans-65" transform="translate(1577.775391 0)"/>
    <use xlink:href="#DejaVuSans-74" transform="translate(1639.298828 0)"/>
    <use xlink:href="#DejaVuSans-61" transform="translate(1678.507812 0)"/>
    <use xlink:href="#DejaVuSans-6d" transform="translate(1739.787109 0)"/>
    <use xlink:href="#DejaVuSans-6f" transform="translate(1837.199219 0)"/>
    <use xlink:href="#DejaVuSans-64" transform="translate(1898.380859 0)"/>
    <use xlink:href="#DejaVuSans-65" transform="translate(1961.857422 0)"/>
    <use xlink:href="#DejaVuSans-6c" transform="translate(2023.380859 0)"/>
    <use xlink:href="#DejaVuSans-3a" transform="translate(2051.164062 0)"/>
    <use xlink:href="#DejaVuSans-20" transform="translate(2084.855469 0)"/>
    <use xlink:href="#DejaVuSans-6c" transform="translate(2116.642578 0)"/>
    <use xlink:href="#DejaVuSans-69" transform="translate(2144.425781 0)"/>
    <use xlink:href="#DejaVuSans-6e" transform="translate(2172.208984 0)"/>
    <use xlink:href="#DejaVuSans-65" transform="translate(2235.587891 0)"/>
    <use xlink:href="#DejaVuSans-61" transform="translate(2297.111328 0)"/>
    <use xlink:href="#DejaVuSans-72" transform="translate(2358.390625 0)"/>
    <use xlink:href="#DejaVuSans-20" transform="translate(2399.503906 0)"/>
    <use xlink:href="#DejaVuSans-74" transform="translate(2431.291016 0)"/>
    <use xlink:href="#DejaVuSans-72" transform="translate(2470.5 0)"/>
    <use xlink:href="#DejaVuSans-65" transform="translate(2509.363281 0)"/>
    <use xlink:href="#DejaVuSans-6e" transform="translate(2570.886719 0)"/>
    <use xlink:href="#DejaVuSans-64" transform="translate(2634.265625 0)"/>
   </g>
  </g>
 </g>
 <defs>
  <clipPath id="p8b9b6fb500">
   <rect x="53.03" y="32.4" width="299.9" height="271.24"/>
  </clipPath>
 </defs>
</svg>
