<?xml version="1.0" encoding="utf-8" standalone="no"?>
<!DOCTYPE svg PUBLIC "-//W3C//DTD SVG 1.1//EN"
  "http://www.w3.org/Graphics/SVG/1.1/DTD/svg11.dtd">
<svg xmlns:xlink="http://www.w3.org/1999/xlink" width="460.8pt" height="345.6pt" viewBox="0 0 460.8 345.6" xmlns="http://www.w3.org/2000/svg" version="1.1">
 <metadata>
  <rdf:RDF xmlns:dc="http://purl.org/dc/elements/1.1/" xmlns:cc="http://creativecommons.org/ns#" xmlns:rdf="http://www.w3.org/1999/02/22-rdf-syntax-ns#">
   <cc:Work>
    <dc:type rdf:resource="http://purl.org/dc/dcmitype/StillImage"/>
    <dc:date>2025-09-26T11:59:36.946117</dc:date>
    <dc:format>image/svg+xml</dc:format>
    <dc:creator>
     <cc:Agent>
      <dc:title>Matplotlib v3.10.6, https://matplotlib.org/</dc:title>
     </cc:Agent>
    </dc:creator>
   </cc:Work>
  </rdf:RDF>
 </metadata>
 <defs>
  <style type="text/css">*{stroke-linejoin: round; stroke-linecap: butt}</style>
 </defs>
 <g id="figure_1">
  <g id="patch_1">
   <path d="M 0 345.6 
L 460.8 345.6 
L 460.8 0 
L 0 0 
z
" style="fill: #ffffff"/>
  </g>
  <g id="axes_1">
   <g id="patch_2">
    <path d="M 57.6 307.584 
L 414.72 307.584 
L 414.72 41.472 
L 57.6 41.472 
z
" style="fill: #ffffff"/>
   </g>
   <g id="matplotlib.axis_1">
    <g id="xtick_1">
     <g id="line2d_1">
      <path d="M 73.832727 307.584 
L 73.832727 41.472 
" clip-path="url(#pb8e119b8dd)" style="fill: none; stroke: #b0b0b0; stroke-width: 0.8; stroke-linecap: square"/>
     </g>
     <g id="line2d_2">
      <defs>
       <path id="m5af719e3ee" d="M 0 0 
L 0 3.5 
" style="stroke: #000000; stroke-width: 0.8"/>
      </defs>
      <g>
       <use xlink:href="#m5af719e3ee" x="73.832727" y="307.584" style="stroke: #000000; stroke-width: 0.8"/>
      </g>
     </g>
     <g id="text_1">
      <!-- 0.0 -->
      <g transform="translate(65.881165 322.182437) scale(0.1 -0.1)">
       <defs>
        <path id="DejaVuSans-30" d="M 2034 4250 
Q 1547 4250 1301 3770 
Q 1056 3291 1056 2328 
Q 1056 1369 1301 889 
Q 1547 409 2034 409 
Q 2525 409 2770 889 
Q 3016 1369 3016 2328 
Q 3016 3291 2770 3770 
Q 2525 4250 2034 4250 
z
M 2034 4750 
Q 2819 4750 3233 4129 
Q 3647 3509 3647 2328 
Q 3647 1150 3233 529 
Q 2819 -91 2034 -91 
Q 1250 -91 836 529 
Q 422 1150 422 2328 
Q 422 3509 836 4129 
Q 1250 4750 2034 4750 
z
" transform="scale(0.015625)"/>
        <path id="DejaVuSans-2e" d="M 684 794 
L 1344 794 
L 1344 0 
L 684 0 
L 684 794 
z
" transform="scale(0.015625)"/>
       </defs>
       <use xlink:href="#DejaVuSans-30"/>
       <use xlink:href="#DejaVuSans-2e" transform="translate(63.623047 0)"/>
       <use xlink:href="#DejaVuSans-30" transform="translate(95.410156 0)"/>
      </g>
     </g>
    </g>
    <g id="xtick_2">
     <g id="line2d_3">
      <path d="M 138.763636 307.584 
L 138.763636 41.472 
" clip-path="url(#pb8e119b8dd)" style="fill: none; stroke: #b0b0b0; stroke-width: 0.8; stroke-linecap: square"/>
     </g>
     <g id="line2d_4">
      <g>
       <use xlink:href="#m5af719e3ee" x="138.763636" y="307.584" style="stroke: #000000; stroke-width: 0.8"/>
      </g>
     </g>
     <g id="text_2">
      <!-- 0.2 -->
      <g transform="translate(130.812074 322.182437) scale(0.1 -0.1)">
       <defs>
        <path id="DejaVuSans-32" d="M 1228 531 
L 3431 531 
L 3431 0 
L 469 0 
L 469 531 
Q 828 903 1448 1529 
Q 2069 2156 2228 2338 
Q 2531 2678 2651 2914 
Q 2772 3150 2772 3378 
Q 2772 3750 2511 3984 
Q 2250 4219 1831 4219 
Q 1534 4219 1204 4116 
Q 875 4013 500 3803 
L 500 4441 
Q 881 4594 1212 4672 
Q 1544 4750 1819 4750 
Q 2544 4750 2975 4387 
Q 3406 4025 3406 3419 
Q 3406 3131 3298 2873 
Q 3191 2616 2906 2266 
Q 2828 2175 2409 1742 
Q 1991 1309 1228 531 
z
" transform="scale(0.015625)"/>
       </defs>
       <use xlink:href="#DejaVuSans-30"/>
       <use xlink:href="#DejaVuSans-2e" transform="translate(63.623047 0)"/>
       <use xlink:href="#DejaVuSans-32" transform="translate(95.410156 0)"/>
      </g>
     </g>
    </g>
    <g id="xtick_3">
     <g id="line2d_5">
      <path d="M 203.694545 307.584 
L 203.694545 41.472 
" clip-path="url(#pb8e119b8dd)" style="fill: none; stroke: #b0b0b0; stroke-width: 0.8; stroke-linecap: square"/>
     </g>
     <g id="line2d_6">
      <g>
       <use xlink:href="#m5af719e3ee" x="203.694545" y="307.584" style="stroke: #000000; stroke-width: 0.8"/>
      </g>
     </g>
     <g id="text_3">
      <!-- 0.4 -->
      <g transform="translate(195.742983 322.182437) scale(0.1 -0.1)">
       <defs>
        <path id="DejaVuSans-34" d="M 2419 4116 
L 825 1625 
L 2419 1625 
L 2419 4116 
z
M 2253 4666 
L 3047 4666 
L 3047 1625 
L 3713 1625 
L 3713 1100 
L 3047 1100 
L 3047 0 
L 2419 0 
L 2419 1100 
L 313 1100 
L 313 1709 
L 2253 4666 
z
" transform="scale(0.015625)"/>
       </defs>
       <use xlink:href="#DejaVuSans-30"/>
       <use xlink:href="#DejaVuSans-2e" transform="translate(63.623047 0)"/>
       <use xlink:href="#DejaVuSans-34" transform="translate(95.410156 0)"/>
      </g>
     </g>
    </g>
    <g id="xtick_4">
     <g id="line2d_7">
      <path d="M 268.625455 307.584 
L 268.625455 41.472 
" clip-path="url(#pb8e119b8dd)" style="fill: none; stroke: #b0b0b0; stroke-width: 0.8; stroke-linecap: square"/>
     </g>
     <g id="line2d_8">
      <g>
       <use xlink:href="#m5af719e3ee" x="268.625455" y="307.584" style="stroke: #000000; stroke-width: 0.8"/>
      </g>
     </g>
     <g id="text_4">
      <!-- 0.6 -->
      <g transform="translate(260.673892 322.182437) scale(0.1 -0.1)">
       <defs>
        <path id="DejaVuSans-36" d="M 2113 2584 
Q 1688 2584 1439 2293 
Q 1191 2003 1191 1497 
Q 1191 994 1439 701 
Q 1688 409 2113 409 
Q 2538 409 2786 701 
Q 3034 994 3034 1497 
Q 3034 2003 2786 2293 
Q 2538 2584 2113 2584 
z
M 3366 4563 
L 3366 3988 
Q 3128 4100 2886 4159 
Q 2644 4219 2406 4219 
Q 1781 4219 1451 3797 
Q 1122 3375 1075 2522 
Q 1259 2794 1537 2939 
Q 1816 3084 2150 3084 
Q 2853 3084 3261 2657 
Q 3669 2231 3669 1497 
Q 3669 778 3244 343 
Q 2819 -91 2113 -91 
Q 1303 -91 875 529 
Q 447 1150 447 2328 
Q 447 3434 972 4092 
Q 1497 4750 2381 4750 
Q 2619 4750 2861 4703 
Q 3103 4656 3366 4563 
z
" transform="scale(0.015625)"/>
       </defs>
       <use xlink:href="#DejaVuSans-30"/>
       <use xlink:href="#DejaVuSans-2e" transform="translate(63.623047 0)"/>
       <use xlink:href="#DejaVuSans-36" transform="translate(95.410156 0)"/>
      </g>
     </g>
    </g>
    <g id="xtick_5">
     <g id="line2d_9">
      <path d="M 333.556364 307.584 
L 333.556364 41.472 
" clip-path="url(#pb8e119b8dd)" style="fill: none; stroke: #b0b0b0; stroke-width: 0.8; stroke-linecap: square"/>
     </g>
     <g id="line2d_10">
      <g>
       <use xlink:href="#m5af719e3ee" x="333.556364" y="307.584" style="stroke: #000000; stroke-width: 0.8"/>
      </g>
     </g>
     <g id="text_5">
      <!-- 0.8 -->
      <g transform="translate(325.604801 322.182437) scale(0.1 -0.1)">
       <defs>
        <path id="DejaVuSans-38" d="M 2034 2216 
Q 1584 2216 1326 1975 
Q 1069 1734 1069 1313 
Q 1069 891 1326 650 
Q 1584 409 2034 409 
Q 2484 409 2743 651 
Q 3003 894 3003 1313 
Q 3003 1734 2745 1975 
Q 2488 2216 2034 2216 
z
M 1403 2484 
Q 997 2584 770 2862 
Q 544 3141 544 3541 
Q 544 4100 942 4425 
Q 1341 4750 2034 4750 
Q 2731 4750 3128 4425 
Q 3525 4100 3525 3541 
Q 3525 3141 3298 2862 
Q 3072 2584 2669 2484 
Q 3125 2378 3379 2068 
Q 3634 1759 3634 1313 
Q 3634 634 3220 271 
Q 2806 -91 2034 -91 
Q 1263 -91 848 271 
Q 434 634 434 1313 
Q 434 1759 690 2068 
Q 947 2378 1403 2484 
z
M 1172 3481 
Q 1172 3119 1398 2916 
Q 1625 2713 2034 2713 
Q 2441 2713 2670 2916 
Q 2900 3119 2900 3481 
Q 2900 3844 2670 4047 
Q 2441 4250 2034 4250 
Q 1625 4250 1398 4047 
Q 1172 3844 1172 3481 
z
" transform="scale(0.015625)"/>
       </defs>
       <use xlink:href="#DejaVuSans-30"/>
       <use xlink:href="#DejaVuSans-2e" transform="translate(63.623047 0)"/>
       <use xlink:href="#DejaVuSans-38" transform="translate(95.410156 0)"/>
      </g>
     </g>
    </g>
    <g id="xtick_6">
     <g id="line2d_11">
      <path d="M 398.487273 307.584 
L 398.487273 41.472 
" clip-path="url(#pb8e119b8dd)" style="fill: none; stroke: #b0b0b0; stroke-width: 0.8; stroke-linecap: square"/>
     </g>
     <g id="line2d_12">
      <g>
       <use xlink:href="#m5af719e3ee" x="398.487273" y="307.584" style="stroke: #000000; stroke-width: 0.8"/>
      </g>
     </g>
     <g id="text_6">
      <!-- 1.0 -->
      <g transform="translate(390.53571 322.182437) scale(0.1 -0.1)">
       <defs>
        <path id="DejaVuSans-31" d="M 794 531 
L 1825 531 
L 1825 4091 
L 703 3866 
L 703 4441 
L 1819 4666 
L 2450 4666 
L 2450 531 
L 3481 531 
L 3481 0 
L 794 0 
L 794 531 
z
" transform="scale(0.015625)"/>
       </defs>
       <use xlink:href="#DejaVuSans-31"/>
       <use xlink:href="#DejaVuSans-2e" transform="translate(63.623047 0)"/>
       <use xlink:href="#DejaVuSans-30" transform="translate(95.410156 0)"/>
      </g>
     </g>
    </g>
    <g id="text_7">
     <!-- $x_1$ -->
     <g transform="translate(230.81 335.860562) scale(0.1 -0.1)">
      <defs>
       <path id="DejaVuSans-Oblique-78" d="M 3841 3500 
L 2234 1784 
L 3219 0 
L 2559 0 
L 1819 1388 
L 531 0 
L -166 0 
L 1556 1844 
L 641 3500 
L 1300 3500 
L 1972 2234 
L 3144 3500 
L 3841 3500 
z
" transform="scale(0.015625)"/>
      </defs>
      <use xlink:href="#DejaVuSans-Oblique-78" transform="translate(0 0.3125)"/>
      <use xlink:href="#DejaVuSans-31" transform="translate(59.179688 -16.09375) scale(0.7)"/>
     </g>
    </g>
   </g>
   <g id="matplotlib.axis_2">
    <g id="ytick_1">
     <g id="line2d_13">
      <path d="M 57.6 295.488 
L 414.72 295.488 
" clip-path="url(#pb8e119b8dd)" style="fill: none; stroke: #b0b0b0; stroke-width: 0.8; stroke-linecap: square"/>
     </g>
     <g id="line2d_14">
      <defs>
       <path id="m3785e49c2b" d="M 0 0 
L -3.5 0 
" style="stroke: #000000; stroke-width: 0.8"/>
      </defs>
      <g>
       <use xlink:href="#m3785e49c2b" x="57.6" y="295.488" style="stroke: #000000; stroke-width: 0.8"/>
      </g>
     </g>
     <g id="text_8">
      <!-- 0.0 -->
      <g transform="translate(34.696875 299.287219) scale(0.1 -0.1)">
       <use xlink:href="#DejaVuSans-30"/>
       <use xlink:href="#DejaVuSans-2e" transform="translate(63.623047 0)"/>
       <use xlink:href="#DejaVuSans-30" transform="translate(95.410156 0)"/>
      </g>
     </g>
    </g>
    <g id="ytick_2">
     <g id="line2d_15">
      <path d="M 57.6 247.104 
L 414.72 247.104 
" clip-path="url(#pb8e119b8dd)" style="fill: none; stroke: #b0b0b0; stroke-width: 0.8; stroke-linecap: square"/>
     </g>
     <g id="line2d_16">
      <g>
       <use xlink:href="#m3785e49c2b" x="57.6" y="247.104" style="stroke: #000000; stroke-width: 0.8"/>
      </g>
     </g>
     <g id="text_9">
      <!-- 0.2 -->
      <g transform="translate(34.696875 250.903219) scale(0.1 -0.1)">
       <use xlink:href="#DejaVuSans-30"/>
       <use xlink:href="#DejaVuSans-2e" transform="translate(63.623047 0)"/>
       <use xlink:href="#DejaVuSans-32" transform="translate(95.410156 0)"/>
      </g>
     </g>
    </g>
    <g id="ytick_3">
     <g id="line2d_17">
      <path d="M 57.6 198.72 
L 414.72 198.72 
" clip-path="url(#pb8e119b8dd)" style="fill: none; stroke: #b0b0b0; stroke-width: 0.8; stroke-linecap: square"/>
     </g>
     <g id="line2d_18">
      <g>
       <use xlink:href="#m3785e49c2b" x="57.6" y="198.72" style="stroke: #000000; stroke-width: 0.8"/>
      </g>
     </g>
     <g id="text_10">
      <!-- 0.4 -->
      <g transform="translate(34.696875 202.519219) scale(0.1 -0.1)">
       <use xlink:href="#DejaVuSans-30"/>
       <use xlink:href="#DejaVuSans-2e" transform="translate(63.623047 0)"/>
       <use xlink:href="#DejaVuSans-34" transform="translate(95.410156 0)"/>
      </g>
     </g>
    </g>
    <g id="ytick_4">
     <g id="line2d_19">
      <path d="M 57.6 150.336 
L 414.72 150.336 
" clip-path="url(#pb8e119b8dd)" style="fill: none; stroke: #b0b0b0; stroke-width: 0.8; stroke-linecap: square"/>
     </g>
     <g id="line2d_20">
      <g>
       <use xlink:href="#m3785e49c2b" x="57.6" y="150.336" style="stroke: #000000; stroke-width: 0.8"/>
      </g>
     </g>
     <g id="text_11">
      <!-- 0.6 -->
      <g transform="translate(34.696875 154.135219) scale(0.1 -0.1)">
       <use xlink:href="#DejaVuSans-30"/>
       <use xlink:href="#DejaVuSans-2e" transform="translate(63.623047 0)"/>
       <use xlink:href="#DejaVuSans-36" transform="translate(95.410156 0)"/>
      </g>
     </g>
    </g>
    <g id="ytick_5">
     <g id="line2d_21">
      <path d="M 57.6 101.952 
L 414.72 101.952 
" clip-path="url(#pb8e119b8dd)" style="fill: none; stroke: #b0b0b0; stroke-width: 0.8; stroke-linecap: square"/>
     </g>
     <g id="line2d_22">
      <g>
       <use xlink:href="#m3785e49c2b" x="57.6" y="101.952" style="stroke: #000000; stroke-width: 0.8"/>
      </g>
     </g>
     <g id="text_12">
      <!-- 0.8 -->
      <g transform="translate(34.696875 105.751219) scale(0.1 -0.1)">
       <use xlink:href="#DejaVuSans-30"/>
       <use xlink:href="#DejaVuSans-2e" transform="translate(63.623047 0)"/>
       <use xlink:href="#DejaVuSans-38" transform="translate(95.410156 0)"/>
      </g>
     </g>
    </g>
    <g id="ytick_6">
     <g id="line2d_23">
      <path d="M 57.6 53.568 
L 414.72 53.568 
" clip-path="url(#pb8e119b8dd)" style="fill: none; stroke: #b0b0b0; stroke-width: 0.8; stroke-linecap: square"/>
     </g>
     <g id="line2d_24">
      <g>
       <use xlink:href="#m3785e49c2b" x="57.6" y="53.568" style="stroke: #000000; stroke-width: 0.8"/>
      </g>
     </g>
     <g id="text_13">
      <!-- 1.0 -->
      <g transform="translate(34.696875 57.367219) scale(0.1 -0.1)">
       <use xlink:href="#DejaVuSans-31"/>
       <use xlink:href="#DejaVuSans-2e" transform="translate(63.623047 0)"/>
       <use xlink:href="#DejaVuSans-30" transform="translate(95.410156 0)"/>
      </g>
     </g>
    </g>
    <g id="text_14">
     <!-- $x_2$ -->
     <g transform="translate(28.617188 179.878) rotate(-90) scale(0.1 -0.1)">
      <use xlink:href="#DejaVuSans-Oblique-78" transform="translate(0 0.3125)"/>
      <use xlink:href="#DejaVuSans-32" transform="translate(59.179688 -16.09375) scale(0.7)"/>
     </g>
    </g>
   </g>
   <g id="QuadContourSet_1">
    <path d="M 398.487273 272.788322 
L 396.979186 275.938909 
L 395.207934 279.401803 
L 391.928595 284.008959 
L 388.649256 287.085316 
L 385.369917 288.82191 
L 382.090579 289.224835 
L 378.745864 288.157091 
L 376.71255 286.397306 
M 376.00767 240.344745 
L 377.89784 236.840727 
L 379.438096 234.397091 
L 382.090579 230.935607 
L 385.369917 227.884595 
L 388.649256 225.995304 
L 391.928595 225.277084 
L 395.207934 225.927912 
L 396.857731 227.066182 
L 398.487273 228.422434 
M 233.313677 245.541598 
L 233.39102 244.171636 
L 233.703176 241.728 
L 234.520331 238.258812 
L 235.100516 236.840727 
L 236.46651 234.397091 
L 237.799669 232.601084 
L 238.635377 231.953455 
L 241.079008 230.457028 
L 244.358347 229.935296 
L 247.637686 230.609763 
L 250.917025 232.263229 
L 254.196364 234.912512 
L 257.475702 238.61158 
L 259.565505 241.728 
L 261.058032 244.171636 
L 263.381969 249.058909 
L 264.35884 251.502545 
L 265.836311 256.389818 
L 266.905659 261.277091 
L 267.313719 264.247153 
L 267.46722 266.164364 
L 267.538871 268.608 
L 267.477933 271.051636 
L 267.265229 273.495273 
L 266.826915 275.938909 
L 266.172459 278.382545 
L 265.274898 280.826182 
L 264.03438 283.386019 
L 262.012164 285.713455 
L 260.755041 286.875528 
L 257.475702 288.254594 
L 254.196364 288.154613 
L 252.715747 287.551842 
M 105.019221 96.539122 
L 104.21448 92.666182 
L 103.346777 87.493339 
L 103.079714 82.891636 
L 103.111449 80.448 
L 103.346777 77.808916 
L 104.253194 75.560727 
L 106.704831 73.117091 
L 109.905455 74.295093 
L 111.098052 75.560727 
L 113.184793 77.47794 
L 115.208602 80.448 
L 116.464132 82.089939 
L 118.210919 85.335273 
L 119.743471 87.924298 
L 121.85324 92.666182 
L 123.026754 95.109818 
L 126.542876 104.884364 
L 128.513645 112.215273 
L 129.664029 117.102545 
L 130.324171 121.989818 
L 130.528205 124.433455 
L 130.615415 126.877091 
L 130.54778 129.320727 
L 130.268632 131.764364 
L 129.581488 134.502633 
L 127.502425 136.159349 
L 127.502425 136.159349 
" clip-path="url(#pb8e119b8dd)" style="fill: none; stroke: #440154; stroke-opacity: 0.996094"/>
    <path d="M 237.700243 295.488 
L 234.520331 290.591531 
L 231.240992 284.723628 
L 227.961653 277.943396 
L 225.110135 271.051636 
L 224.196673 268.608 
L 221.757764 261.277091 
L 220.400379 256.389818 
L 219.250188 251.502545 
L 218.31891 246.615273 
L 217.676341 241.728 
L 217.349237 236.840727 
L 217.397779 231.953455 
L 217.591184 229.509818 
L 218.123636 225.971604 
L 218.407433 224.622545 
L 219.093626 222.178909 
L 219.988844 219.735273 
L 221.402975 216.793565 
L 222.669562 214.848 
L 224.682314 212.341727 
L 227.961653 209.594764 
L 231.240992 207.864878 
L 234.520331 206.908701 
L 237.799669 206.59154 
L 241.079008 206.839872 
L 244.358347 207.611955 
L 247.637686 208.917099 
L 250.917025 210.706176 
L 254.196364 212.992631 
L 257.475702 215.787684 
L 261.313375 219.735273 
L 264.220821 223.203416 
M 282.2646 262.254277 
L 282.961725 266.164364 
L 283.517292 271.051636 
L 283.710413 275.938909 
L 283.710413 275.938909 
L 283.509771 280.826182 
L 283.250343 283.269818 
L 282.87782 285.713455 
L 282.386252 288.157091 
L 281.769049 290.600727 
L 280.431074 294.667201 
L 280.109331 295.488 
M 358.646536 295.488 
L 356.991053 290.600727 
L 355.790546 285.713455 
L 355.026819 280.826182 
L 354.641547 275.938909 
L 354.610027 271.051636 
L 354.909358 266.164364 
L 355.323014 262.673207 
M 370.449659 222.359044 
L 372.252562 219.609827 
L 375.909636 214.848 
L 378.81124 211.613529 
L 382.090579 208.56495 
L 385.369917 206.124708 
L 388.649256 204.294812 
L 391.928595 203.092359 
L 395.207934 202.551515 
L 398.487273 202.745681 
M 123.657154 72.283231 
L 128.592504 82.891636 
L 129.690384 85.335273 
L 134.496448 97.553455 
L 137.113086 104.884364 
L 140.243444 114.658909 
L 142.95992 124.433455 
L 144.62155 131.764364 
L 146.001568 139.095273 
L 146.615363 143.982545 
L 146.97846 148.869818 
L 146.995071 153.757091 
L 146.829033 156.200727 
L 146.512524 158.644364 
L 145.978182 161.200542 
L 145.082798 163.531636 
L 143.701795 165.975273 
L 142.698843 167.270154 
L 140.94523 168.418909 
L 139.419504 169.168113 
L 136.140165 169.282903 
L 132.860826 168.217441 
L 129.357814 165.975273 
L 126.302149 163.308645 
L 122.303314 158.644364 
L 119.743471 155.251844 
L 115.783643 148.869818 
L 113.041741 143.982545 
L 108.397333 134.208 
L 106.243738 129.320727 
L 102.448691 119.546182 
L 99.059832 109.771636 
L 96.036117 99.997091 
L 93.353079 90.222545 
L 90.613753 78.004364 
L 89.72107 73.117091 
L 88.683831 65.786182 
L 88.199949 60.898909 
L 87.966445 56.011636 
L 87.980025 53.568 
L 87.980025 53.568 
" clip-path="url(#pb8e119b8dd)" style="fill: none; stroke: #470e61; stroke-opacity: 0.996094"/>
    <path d="M 226.378847 295.488 
L 223.721768 290.600727 
L 220.064626 283.269818 
L 216.71802 275.938909 
L 213.638987 268.608 
L 212.814709 266.532439 
M 200.840507 219.752978 
L 200.839914 219.735273 
L 200.890203 217.291636 
L 201.098314 214.848 
L 201.726942 211.474844 
L 202.103699 209.960727 
L 202.958409 207.517091 
L 204.135971 205.073455 
L 205.679723 202.629818 
L 208.28562 199.533782 
L 210.139215 197.742545 
L 213.327465 195.298909 
L 214.844298 194.340931 
L 218.123636 192.579748 
L 221.402975 191.252856 
L 224.682314 190.280935 
L 227.961653 189.683034 
L 231.240992 189.422964 
L 234.520331 189.503823 
L 237.799669 189.925155 
L 241.079008 190.693316 
L 244.358347 191.819375 
L 247.637686 193.284455 
L 251.214652 195.298909 
L 254.800926 197.742545 
L 257.913866 200.186182 
L 260.755041 202.679262 
L 265.517965 207.517091 
L 267.720309 209.960727 
L 271.718658 214.848 
L 275.361198 219.735273 
L 278.718801 224.622545 
L 281.839598 229.509818 
L 284.75291 234.397091 
L 287.47082 239.284364 
L 290.269091 244.739205 
L 292.359239 249.058909 
L 295.487341 256.389818 
L 297.245198 261.277091 
L 298.746527 266.164364 
L 299.842582 271.051636 
L 300.573838 275.938909 
L 300.772272 278.382545 
L 300.844154 280.826182 
L 300.786721 283.269818 
L 300.596872 285.713455 
L 299.839467 290.600727 
L 299.297574 293.044364 
L 298.622168 295.488 
M 340.306017 295.488 
L 338.993526 290.600727 
L 338.485876 288.157091 
L 338.105911 285.713455 
L 337.850132 283.269818 
L 337.715046 280.826182 
L 337.697189 278.382545 
L 337.999517 273.495273 
L 338.730455 268.608 
L 339.821832 263.720727 
L 340.507929 261.106395 
M 360.970555 217.287227 
L 364.21803 212.404364 
L 365.93668 209.960727 
L 369.691173 205.073455 
L 372.252562 202.014377 
L 376.309703 197.742545 
L 378.899555 195.298909 
L 382.090579 192.688586 
L 385.407488 190.411636 
L 388.649256 188.631184 
L 391.928595 187.277965 
L 395.207934 186.400905 
L 398.487273 186.018303 
M 122.368178 53.568 
L 123.67227 56.011636 
L 128.581619 65.786182 
L 130.888553 70.673455 
L 134.198928 78.004364 
L 137.346848 85.335273 
L 141.318228 95.109818 
L 144.149867 102.440727 
L 147.741996 112.215273 
L 151.132029 121.989818 
L 154.310069 131.764364 
L 157.244408 141.538909 
L 159.248687 148.869818 
L 161.003201 156.200727 
L 161.999937 161.088 
L 162.797411 165.975273 
L 163.316343 170.862545 
L 163.435902 173.306182 
L 163.433865 175.749818 
L 163.28018 178.193455 
L 162.933922 180.637091 
L 162.336796 183.080727 
L 161.375611 185.524364 
L 159.926436 187.968 
L 159.095537 188.99168 
L 157.587945 190.411636 
L 155.816198 191.657688 
L 152.53686 193.009766 
L 150.864553 193.243994 
M 115.392503 163.97739 
L 111.197416 156.200727 
L 109.905455 153.757091 
L 109.905455 153.757091 
L 103.258456 139.095273 
L 96.788099 122.53922 
L 92.386898 109.771636 
L 89.248583 99.997091 
L 85.635954 87.778909 
L 82.971039 78.004364 
L 79.982077 65.786182 
L 77.941079 56.011636 
L 77.466825 53.568 
L 77.466825 53.568 
" clip-path="url(#pb8e119b8dd)" style="fill: none; stroke: #481d6f; stroke-opacity: 0.996094"/>
    <path d="M 219.581636 295.488 
L 215.723841 288.157091 
L 211.564959 279.753966 
L 207.311213 270.702509 
M 189.267772 231.25851 
L 188.358614 229.509818 
L 185.330248 224.222664 
L 182.050909 219.656211 
L 178.77157 216.321634 
L 175.492231 214.163198 
L 172.212893 212.844993 
L 168.933554 212.044745 
L 162.374876 211.058027 
L 159.095537 210.576996 
L 155.789802 209.960727 
L 152.53686 209.126953 
L 149.257521 208.041051 
L 145.978182 206.641455 
L 142.698843 204.908143 
L 139.219666 202.629818 
L 136.051985 200.186182 
L 132.860826 197.314483 
L 128.704033 192.855273 
L 126.302149 190.063496 
L 121.249428 183.080727 
L 119.573396 180.637091 
L 115.186771 173.306182 
L 112.474236 168.418909 
L 108.750799 161.088 
L 105.303597 153.757091 
L 102.081239 146.426182 
L 99.041759 139.095273 
L 95.239545 129.320727 
L 92.525633 121.989818 
L 87.417306 107.328 
L 85.816837 102.440727 
L 81.180573 87.778909 
L 78.989001 80.448 
L 75.494705 68.229818 
L 73.832727 62.216944 
M 127.566481 53.568 
L 131.188033 60.898909 
L 134.649582 68.229818 
L 137.975557 75.560727 
L 141.187612 82.891636 
L 145.332691 92.666182 
L 149.347023 102.440727 
L 160.910066 131.764364 
L 167.708199 148.869818 
L 170.775296 156.200727 
L 172.927529 161.088 
L 175.492231 166.550606 
L 178.77157 172.556713 
L 180.143687 174.555626 
M 219.721609 179.04059 
L 221.402975 178.826165 
L 224.682314 178.585829 
L 227.961653 178.551594 
L 231.240992 178.745803 
L 234.520331 179.185036 
L 237.799669 179.880188 
L 241.079008 180.843419 
L 244.358347 182.1013 
L 247.637686 183.638782 
L 251.008275 185.524364 
L 254.703742 187.968 
L 257.960101 190.411636 
L 260.90671 192.855273 
L 264.03438 195.709506 
L 268.463556 200.186182 
L 272.873976 205.073455 
L 277.151736 210.19896 
L 282.661312 217.291636 
L 291.552392 229.509818 
L 300.107107 241.49085 
L 302.183097 244.171636 
L 304.076423 246.615273 
L 306.665785 249.822177 
L 310.80913 253.946182 
L 313.224463 255.962693 
L 316.503802 257.582229 
L 319.78314 257.861683 
L 323.062479 256.714601 
L 323.474187 256.389818 
L 326.656996 253.946182 
L 329.621157 250.881616 
L 336.179835 242.096769 
L 338.01536 239.284364 
L 339.665219 236.840727 
L 349.29719 221.941323 
L 354.006527 214.848 
L 359.156001 207.517091 
L 362.830219 202.629818 
L 366.784789 197.742545 
L 368.973223 195.183798 
L 373.496961 190.411636 
L 376.035579 187.968 
L 378.81124 185.521025 
L 382.090579 182.981461 
L 385.669501 180.637091 
L 388.649256 179.00357 
L 391.928595 177.58203 
L 395.207934 176.562357 
L 398.487273 175.948928 
L 398.487273 175.948928 
" clip-path="url(#pb8e119b8dd)" style="fill: none; stroke: #482878; stroke-opacity: 0.996094"/>
    <path d="M 209.773312 295.488 
L 194.606053 268.608 
L 190.055383 261.277091 
L 186.749833 256.389818 
L 184.986149 253.946182 
L 181.08435 249.058909 
L 178.77157 246.453097 
L 175.492231 243.171576 
L 172.212893 240.320635 
L 168.933554 237.825375 
L 165.654215 235.605023 
L 162.374876 233.576154 
L 149.257521 225.72572 
L 144.277191 222.178909 
L 142.698843 221.012112 
L 138.387837 217.291636 
L 135.781384 214.848 
L 132.860826 211.839942 
L 129.14164 207.517091 
L 125.374977 202.629818 
L 121.950432 197.742545 
L 118.799537 192.855273 
L 115.640359 187.568012 
M 95.087289 143.675463 
L 91.388 134.208 
L 88.631039 126.877091 
L 83.670744 113.276483 
L 73.832727 84.687602 
M 134.578374 53.568 
L 139.419504 63.634797 
L 152.69287 92.666182 
L 159.39231 107.328 
L 164.036559 117.102545 
L 167.70888 124.433455 
L 170.301725 129.320727 
L 173.057349 134.208 
L 176.050268 139.095273 
L 179.408432 143.982545 
L 182.050909 147.405153 
L 185.66454 151.313455 
L 188.609587 153.971121 
L 191.888926 156.33795 
L 195.168264 158.176363 
L 198.447603 159.555462 
L 201.726942 160.553002 
L 205.006281 161.25769 
L 208.28562 161.761345 
L 214.844298 162.398404 
L 221.402975 162.940627 
L 226.344987 163.531636 
L 230.486658 164.231771 
M 271.47561 188.727939 
L 277.151736 194.553755 
L 282.398442 200.186182 
L 290.269091 208.752682 
L 296.827769 215.467039 
L 301.618068 219.735273 
L 303.386446 221.225797 
L 306.665785 223.54247 
L 309.945124 225.370547 
L 313.224463 226.633647 
L 316.503802 227.271232 
L 319.78314 227.247523 
L 323.062479 226.554271 
L 326.341818 225.200444 
L 329.621157 223.241834 
L 333.994335 219.735273 
L 336.652641 217.291636 
L 339.459174 214.465646 
L 346.017851 207.093864 
L 359.135207 191.502561 
L 362.414545 187.763743 
L 366.758446 183.080727 
L 369.135797 180.637091 
L 374.344998 175.749818 
L 377.228056 173.306182 
L 380.388607 170.862545 
L 382.090579 169.623285 
L 385.369917 167.514311 
L 388.649256 165.703359 
L 391.928595 164.213365 
L 395.207934 163.039873 
L 398.487273 162.200999 
L 398.487273 162.200999 
" clip-path="url(#pb8e119b8dd)" style="fill: none; stroke: #443983; stroke-opacity: 0.996094"/>
    <path d="M 196.146553 295.488 
L 191.888926 289.142939 
L 187.694492 283.269818 
L 183.965341 278.382545 
L 179.93065 273.495273 
L 177.024683 270.250405 
M 140.734118 238.128927 
L 139.417664 236.840727 
L 134.948233 231.953455 
L 132.802366 229.509818 
L 128.941749 224.622545 
L 125.385304 219.735273 
L 122.088044 214.848 
L 119.006139 209.960727 
L 114.745902 202.629818 
L 112.074989 197.742545 
L 108.304798 190.411636 
L 105.899879 185.524364 
L 100.067438 172.905359 
L 92.017111 153.757091 
L 86.950083 141.065626 
L 73.832727 106.463188 
M 143.350835 53.568 
L 155.816198 78.87883 
L 157.435485 82.083325 
M 182.710256 123.359233 
L 185.919326 126.877091 
L 188.609587 129.508144 
L 191.888926 132.289022 
L 195.168264 134.652503 
L 198.472678 136.651636 
L 201.726942 138.312637 
L 205.006281 139.703494 
L 210.45735 141.538909 
L 214.844298 142.765052 
L 229.336613 146.426182 
L 234.520331 148.023272 
L 237.799669 149.201877 
L 242.780944 151.313455 
L 244.358347 152.035065 
L 247.73461 153.757091 
L 251.952179 156.200727 
L 255.75344 158.644364 
L 259.237863 161.088 
L 262.48265 163.531636 
L 267.313719 167.431237 
L 274.043703 173.306182 
L 290.269091 188.046019 
L 293.54843 190.802804 
L 296.827769 193.367884 
L 300.107107 195.687837 
L 303.455612 197.742545 
L 306.665785 199.392606 
L 309.945124 200.672089 
L 313.224463 201.522745 
L 316.503802 201.903995 
L 319.78314 201.805775 
L 323.062479 201.222931 
L 326.341818 200.156358 
L 329.621157 198.65946 
L 332.900496 196.742603 
L 336.179835 194.460158 
L 341.119578 190.411636 
L 343.856951 187.968 
L 348.990347 183.080727 
L 352.576529 179.526208 
L 361.226097 170.862545 
L 366.318184 165.975273 
L 371.768599 161.088 
L 374.716256 158.644364 
L 377.866107 156.200727 
L 378.81124 155.48616 
L 382.090579 153.204378 
L 385.369917 151.147505 
L 389.620629 148.869818 
L 391.928595 147.769481 
L 395.273436 146.426182 
L 398.487273 145.39667 
L 398.487273 145.39667 
" clip-path="url(#pb8e119b8dd)" style="fill: none; stroke: #3c4f8a; stroke-opacity: 0.996094"/>
    <path d="M 176.445692 295.488 
L 171.938294 290.600727 
L 165.654215 284.237928 
L 159.095537 277.954585 
L 153.271698 272.416732 
M 121.231114 233.253472 
L 118.954438 229.509818 
L 114.768512 222.178909 
L 112.119633 217.291636 
L 108.351284 209.960727 
L 104.76972 202.629818 
L 102.464431 197.742545 
L 96.788099 185.163102 
L 86.701684 161.088 
L 73.832727 128.894211 
M 154.218154 53.568 
L 160.851517 65.786182 
L 165.654215 74.163887 
L 170.673212 82.290237 
M 206.300787 117.486755 
L 208.28562 118.451346 
L 211.564959 119.870443 
L 218.123636 122.370849 
L 231.240992 127.011826 
L 237.799669 129.640961 
L 242.424782 131.764364 
L 247.225217 134.208 
L 247.637686 134.425066 
L 251.514149 136.651636 
L 255.433088 139.095273 
L 260.755041 142.696406 
L 267.313719 147.567332 
L 275.1013 153.757091 
L 284.181357 161.088 
L 290.594981 165.975273 
L 294.10444 168.418909 
L 297.999267 170.862545 
L 300.107107 172.092422 
L 303.386446 173.722106 
L 306.665785 175.05481 
L 309.945124 176.049538 
L 313.224463 176.692474 
L 316.503802 176.955294 
L 319.78314 176.831292 
L 323.062479 176.318249 
L 326.341818 175.426733 
L 329.621157 174.179276 
L 332.900496 172.591366 
L 336.179835 170.695453 
L 339.617683 168.418909 
L 342.959569 165.975273 
L 349.29719 160.871976 
L 360.278595 151.313455 
L 365.94162 146.426182 
L 372.252562 141.268087 
L 378.467975 136.651636 
L 378.81124 136.406147 
L 382.090579 134.208 
L 382.090579 134.208 
L 386.129105 131.764364 
L 390.708006 129.320727 
L 391.928595 128.708694 
L 396.206038 126.877091 
L 398.487273 126.008122 
L 398.487273 126.008122 
" clip-path="url(#pb8e119b8dd)" style="fill: none; stroke: #2f6b8e; stroke-opacity: 0.996094"/>
    <path d="M 150.44691 295.488 
L 145.978182 290.5313 
L 139.419504 282.721213 
L 132.860826 274.127412 
L 126.302149 264.565147 
L 119.743471 253.917521 
L 112.98407 241.728 
L 106.626116 229.202465 
L 98.809649 212.404364 
L 93.411215 200.186182 
L 84.810513 179.739544 
M 168.78477 53.568 
L 170.394087 56.011636 
L 173.731571 60.898909 
L 177.292813 65.786182 
L 179.167685 68.229818 
L 183.212578 73.117091 
L 185.373036 75.560727 
L 190.187338 80.448 
L 192.8526 82.891636 
L 195.751081 85.335273 
L 198.944142 87.778909 
L 202.50268 90.222545 
L 206.499945 92.666182 
L 208.28562 93.688782 
L 211.564959 95.405875 
L 218.123636 98.49165 
L 238.398883 107.328 
L 244.358347 110.290662 
L 250.917025 113.931896 
L 257.475702 117.987628 
L 264.03438 122.418398 
L 273.574629 129.320727 
L 280.75785 134.596669 
M 322.278655 150.218121 
L 323.062479 150.111373 
L 326.341818 149.343261 
L 329.621157 148.272781 
L 333.879423 146.426182 
L 336.179835 145.296162 
L 339.459174 143.438963 
L 342.738512 141.376887 
L 346.086281 139.095273 
L 352.702292 134.208 
L 374.957137 117.102545 
L 378.81124 114.425379 
L 382.195134 112.215273 
L 386.235588 109.771636 
L 390.660459 107.328 
L 391.928595 106.657615 
L 395.629522 104.884364 
L 398.487273 103.633506 
L 398.487273 103.633506 
" clip-path="url(#pb8e119b8dd)" style="fill: none; stroke: #228d8d; stroke-opacity: 0.996094"/>
    <path d="M 113.249093 269.581759 
L 111.5274 266.164364 
L 107.88361 258.833455 
L 104.374923 251.502545 
L 100.980262 244.171636 
L 97.680128 236.840727 
L 93.50876 227.371966 
L 73.832727 180.642818 
M 192.871275 53.568 
L 195.623006 56.011636 
L 198.592336 58.455273 
L 201.823158 60.898909 
L 205.359673 63.342545 
L 209.239061 65.786182 
L 214.844298 68.98402 
L 216.332865 69.761933 
M 252.350408 88.248963 
L 257.475702 91.390049 
L 264.03438 95.654638 
L 286.989752 110.993914 
L 293.409443 114.658909 
L 293.54843 114.735861 
L 298.497966 117.102545 
L 300.107107 117.81311 
L 303.386446 119.035153 
L 306.665785 120.019583 
L 309.945124 120.750268 
L 313.224463 121.209471 
L 316.503802 121.390466 
L 319.78314 121.289907 
L 323.062479 120.907875 
L 326.341818 120.247851 
L 329.621157 119.32015 
L 332.900496 118.146113 
L 336.179835 116.733613 
L 340.274279 114.658909 
L 344.541352 112.215273 
L 348.441349 109.771636 
L 352.576529 107.011234 
L 362.414545 99.991657 
L 372.610178 92.666182 
L 379.810194 87.778909 
L 385.369917 84.255934 
L 391.953401 80.448 
L 398.487273 77.083724 
L 398.487273 77.083724 
" clip-path="url(#pb8e119b8dd)" style="fill: none; stroke: #3fbc73; stroke-opacity: 0.996094"/>
    <path d="M 107.888385 295.488 
L 106.720649 293.044364 
L 106.626116 292.847243 
L 105.607767 290.600727 
L 104.486621 288.157091 
L 103.350648 285.713455 
L 103.346777 285.705147 
L 102.270832 283.269818 
L 101.177461 280.826182 
L 100.069873 278.382545 
L 100.067438 278.377185 
L 99.013951 275.938909 
L 98.217169 274.117655 
M 82.442986 236.817131 
L 81.436903 234.397091 
L 80.408259 231.953455 
L 80.391405 231.913467 
L 79.405358 229.509818 
L 78.390657 227.066182 
L 77.363165 224.622545 
L 77.112066 224.02764 
L 76.349377 222.178909 
L 75.331493 219.735273 
L 74.300665 217.291636 
L 73.832727 216.189273 
M 253.459977 53.568 
L 254.196364 54.007511 
L 257.475702 56.011636 
L 257.475702 56.011636 
L 260.755041 58.064395 
L 261.370092 58.455273 
L 264.03438 60.153378 
L 265.19329 60.898909 
L 267.313719 62.267403 
L 268.975794 63.342545 
L 270.593058 64.39246 
L 272.752366 65.786182 
L 273.872397 66.511969 
L 276.074065 67.917482 
M 312.896616 83.866866 
L 313.224463 83.910544 
L 316.503802 84.101022 
L 319.78314 84.042296 
L 323.062479 83.734519 
L 326.341818 83.180747 
L 327.53646 82.891636 
L 329.621157 82.392516 
L 332.900496 81.378602 
L 335.37869 80.448 
L 336.179835 80.150018 
L 339.459174 78.729212 
L 340.939252 78.004364 
L 342.738512 77.1305 
L 345.664732 75.560727 
L 346.017851 75.372728 
L 349.29719 73.482239 
L 349.891665 73.117091 
L 352.576529 71.478237 
L 353.830691 70.673455 
L 355.855868 69.381015 
L 357.592703 68.229818 
L 359.135207 67.212194 
L 361.238958 65.786182 
L 362.414545 64.992384 
L 364.815649 63.342545 
L 365.693884 62.740913 
L 368.359347 60.898909 
L 368.973223 60.475597 
L 371.90041 58.455273 
L 372.252562 58.212531 
L 375.465151 56.011636 
L 375.531901 55.965925 
L 378.81124 53.749631 
L 379.08517 53.568 
" clip-path="url(#pb8e119b8dd)" style="fill: none; stroke: #fde725; stroke-opacity: 0.996094"/>
   </g>
   <g id="text_15">
    <g clip-path="url(#pb8e119b8dd)">
     <!-- -0.992482 -->
     <g style="fill: #440154; opacity: 0.996094" transform="translate(372.354646 284.255654) rotate(-89.854177) scale(0.08 -0.08)">
      <defs>
       <path id="DejaVuSans-2d" d="M 313 2009 
L 1997 2009 
L 1997 1497 
L 313 1497 
L 313 2009 
z
" transform="scale(0.015625)"/>
       <path id="DejaVuSans-39" d="M 703 97 
L 703 672 
Q 941 559 1184 500 
Q 1428 441 1663 441 
Q 2288 441 2617 861 
Q 2947 1281 2994 2138 
Q 2813 1869 2534 1725 
Q 2256 1581 1919 1581 
Q 1219 1581 811 2004 
Q 403 2428 403 3163 
Q 403 3881 828 4315 
Q 1253 4750 1959 4750 
Q 2769 4750 3195 4129 
Q 3622 3509 3622 2328 
Q 3622 1225 3098 567 
Q 2575 -91 1691 -91 
Q 1453 -91 1209 -44 
Q 966 3 703 97 
z
M 1959 2075 
Q 2384 2075 2632 2365 
Q 2881 2656 2881 3163 
Q 2881 3666 2632 3958 
Q 2384 4250 1959 4250 
Q 1534 4250 1286 3958 
Q 1038 3666 1038 3163 
Q 1038 2656 1286 2365 
Q 1534 2075 1959 2075 
z
" transform="scale(0.015625)"/>
      </defs>
      <use xlink:href="#DejaVuSans-2d"/>
      <use xlink:href="#DejaVuSans-30" transform="translate(36.083984 0)"/>
      <use xlink:href="#DejaVuSans-2e" transform="translate(99.707031 0)"/>
      <use xlink:href="#DejaVuSans-39" transform="translate(131.494141 0)"/>
      <use xlink:href="#DejaVuSans-39" transform="translate(195.117188 0)"/>
      <use xlink:href="#DejaVuSans-32" transform="translate(258.740234 0)"/>
      <use xlink:href="#DejaVuSans-34" transform="translate(322.363281 0)"/>
      <use xlink:href="#DejaVuSans-38" transform="translate(385.986328 0)"/>
      <use xlink:href="#DejaVuSans-32" transform="translate(449.609375 0)"/>
     </g>
    </g>
   </g>
   <g id="text_16">
    <g clip-path="url(#pb8e119b8dd)">
     <!-- -0.992482 -->
     <g style="fill: #440154; opacity: 0.996094" transform="translate(227.443867 251.325938) rotate(-293.965039) scale(0.08 -0.08)">
      <use xlink:href="#DejaVuSans-2d"/>
      <use xlink:href="#DejaVuSans-30" transform="translate(36.083984 0)"/>
      <use xlink:href="#DejaVuSans-2e" transform="translate(99.707031 0)"/>
      <use xlink:href="#DejaVuSans-39" transform="translate(131.494141 0)"/>
      <use xlink:href="#DejaVuSans-39" transform="translate(195.117188 0)"/>
      <use xlink:href="#DejaVuSans-32" transform="translate(258.740234 0)"/>
      <use xlink:href="#DejaVuSans-34" transform="translate(322.363281 0)"/>
      <use xlink:href="#DejaVuSans-38" transform="translate(385.986328 0)"/>
      <use xlink:href="#DejaVuSans-32" transform="translate(449.609375 0)"/>
     </g>
    </g>
   </g>
   <g id="text_17">
    <g clip-path="url(#pb8e119b8dd)">
     <!-- -0.992482 -->
     <g style="fill: #440154; opacity: 0.996094" transform="translate(101.17633 102.300328) rotate(-297.22153) scale(0.08 -0.08)">
      <use xlink:href="#DejaVuSans-2d"/>
      <use xlink:href="#DejaVuSans-30" transform="translate(36.083984 0)"/>
      <use xlink:href="#DejaVuSans-2e" transform="translate(99.707031 0)"/>
      <use xlink:href="#DejaVuSans-39" transform="translate(131.494141 0)"/>
      <use xlink:href="#DejaVuSans-39" transform="translate(195.117188 0)"/>
      <use xlink:href="#DejaVuSans-32" transform="translate(258.740234 0)"/>
      <use xlink:href="#DejaVuSans-34" transform="translate(322.363281 0)"/>
      <use xlink:href="#DejaVuSans-38" transform="translate(385.986328 0)"/>
      <use xlink:href="#DejaVuSans-32" transform="translate(449.609375 0)"/>
     </g>
    </g>
   </g>
   <g id="text_18">
    <g clip-path="url(#pb8e119b8dd)">
     <!-- -0.87246 -->
     <g style="fill: #470e61; opacity: 0.996094" transform="translate(265.853059 226.335775) rotate(-294.84585) scale(0.08 -0.08)">
      <defs>
       <path id="DejaVuSans-37" d="M 525 4666 
L 3525 4666 
L 3525 4397 
L 1831 0 
L 1172 0 
L 2766 4134 
L 525 4134 
L 525 4666 
z
" transform="scale(0.015625)"/>
      </defs>
      <use xlink:href="#DejaVuSans-2d"/>
      <use xlink:href="#DejaVuSans-30" transform="translate(36.083984 0)"/>
      <use xlink:href="#DejaVuSans-2e" transform="translate(99.707031 0)"/>
      <use xlink:href="#DejaVuSans-38" transform="translate(131.494141 0)"/>
      <use xlink:href="#DejaVuSans-37" transform="translate(195.117188 0)"/>
      <use xlink:href="#DejaVuSans-32" transform="translate(258.740234 0)"/>
      <use xlink:href="#DejaVuSans-34" transform="translate(322.363281 0)"/>
      <use xlink:href="#DejaVuSans-36" transform="translate(385.986328 0)"/>
     </g>
    </g>
   </g>
   <g id="text_19">
    <g clip-path="url(#pb8e119b8dd)">
     <!-- -0.87246 -->
     <g style="fill: #470e61; opacity: 0.996094" transform="translate(356.520232 259.339655) rotate(-69.406978) scale(0.08 -0.08)">
      <use xlink:href="#DejaVuSans-2d"/>
      <use xlink:href="#DejaVuSans-30" transform="translate(36.083984 0)"/>
      <use xlink:href="#DejaVuSans-2e" transform="translate(99.707031 0)"/>
      <use xlink:href="#DejaVuSans-38" transform="translate(131.494141 0)"/>
      <use xlink:href="#DejaVuSans-37" transform="translate(195.117188 0)"/>
      <use xlink:href="#DejaVuSans-32" transform="translate(258.740234 0)"/>
      <use xlink:href="#DejaVuSans-34" transform="translate(322.363281 0)"/>
      <use xlink:href="#DejaVuSans-36" transform="translate(385.986328 0)"/>
     </g>
    </g>
   </g>
   <g id="text_20">
    <g clip-path="url(#pb8e119b8dd)">
     <!-- -0.87246 -->
     <g style="fill: #470e61; opacity: 0.996094" transform="translate(101.626999 39.25953) rotate(-300.846678) scale(0.08 -0.08)">
      <use xlink:href="#DejaVuSans-2d"/>
      <use xlink:href="#DejaVuSans-30" transform="translate(36.083984 0)"/>
      <use xlink:href="#DejaVuSans-2e" transform="translate(99.707031 0)"/>
      <use xlink:href="#DejaVuSans-38" transform="translate(131.494141 0)"/>
      <use xlink:href="#DejaVuSans-37" transform="translate(195.117188 0)"/>
      <use xlink:href="#DejaVuSans-32" transform="translate(258.740234 0)"/>
      <use xlink:href="#DejaVuSans-34" transform="translate(322.363281 0)"/>
      <use xlink:href="#DejaVuSans-36" transform="translate(385.986328 0)"/>
     </g>
    </g>
   </g>
   <g id="text_21">
    <g clip-path="url(#pb8e119b8dd)">
     <!-- -0.742545 -->
     <g style="fill: #481d6f; opacity: 0.996094" transform="translate(197.638384 224.291322) rotate(-284.768784) scale(0.08 -0.08)">
      <defs>
       <path id="DejaVuSans-35" d="M 691 4666 
L 3169 4666 
L 3169 4134 
L 1269 4134 
L 1269 2991 
Q 1406 3038 1543 3061 
Q 1681 3084 1819 3084 
Q 2600 3084 3056 2656 
Q 3513 2228 3513 1497 
Q 3513 744 3044 326 
Q 2575 -91 1722 -91 
Q 1428 -91 1123 -41 
Q 819 9 494 109 
L 494 744 
Q 775 591 1075 516 
Q 1375 441 1709 441 
Q 2250 441 2565 725 
Q 2881 1009 2881 1497 
Q 2881 1984 2565 2268 
Q 2250 2553 1709 2553 
Q 1456 2553 1204 2497 
Q 953 2441 691 2322 
L 691 4666 
z
" transform="scale(0.015625)"/>
      </defs>
      <use xlink:href="#DejaVuSans-2d"/>
      <use xlink:href="#DejaVuSans-30" transform="translate(36.083984 0)"/>
      <use xlink:href="#DejaVuSans-2e" transform="translate(99.707031 0)"/>
      <use xlink:href="#DejaVuSans-37" transform="translate(131.494141 0)"/>
      <use xlink:href="#DejaVuSans-34" transform="translate(195.117188 0)"/>
      <use xlink:href="#DejaVuSans-32" transform="translate(258.740234 0)"/>
      <use xlink:href="#DejaVuSans-35" transform="translate(322.363281 0)"/>
      <use xlink:href="#DejaVuSans-34" transform="translate(385.986328 0)"/>
      <use xlink:href="#DejaVuSans-35" transform="translate(449.609375 0)"/>
     </g>
    </g>
   </g>
   <g id="text_22">
    <g clip-path="url(#pb8e119b8dd)">
     <!-- -0.742545 -->
     <g style="fill: #481d6f; opacity: 0.996094" transform="translate(342.577575 258.053381) rotate(-64.870336) scale(0.08 -0.08)">
      <use xlink:href="#DejaVuSans-2d"/>
      <use xlink:href="#DejaVuSans-30" transform="translate(36.083984 0)"/>
      <use xlink:href="#DejaVuSans-2e" transform="translate(99.707031 0)"/>
      <use xlink:href="#DejaVuSans-37" transform="translate(131.494141 0)"/>
      <use xlink:href="#DejaVuSans-34" transform="translate(195.117188 0)"/>
      <use xlink:href="#DejaVuSans-32" transform="translate(258.740234 0)"/>
      <use xlink:href="#DejaVuSans-35" transform="translate(322.363281 0)"/>
      <use xlink:href="#DejaVuSans-34" transform="translate(385.986328 0)"/>
      <use xlink:href="#DejaVuSans-35" transform="translate(449.609375 0)"/>
     </g>
    </g>
   </g>
   <g id="text_23">
    <g clip-path="url(#pb8e119b8dd)">
     <!-- -0.742545 -->
     <g style="fill: #481d6f; opacity: 0.996094" transform="translate(112.664527 171.724503) rotate(-318.878794) scale(0.08 -0.08)">
      <use xlink:href="#DejaVuSans-2d"/>
      <use xlink:href="#DejaVuSans-30" transform="translate(36.083984 0)"/>
      <use xlink:href="#DejaVuSans-2e" transform="translate(99.707031 0)"/>
      <use xlink:href="#DejaVuSans-37" transform="translate(131.494141 0)"/>
      <use xlink:href="#DejaVuSans-34" transform="translate(195.117188 0)"/>
      <use xlink:href="#DejaVuSans-32" transform="translate(258.740234 0)"/>
      <use xlink:href="#DejaVuSans-35" transform="translate(322.363281 0)"/>
      <use xlink:href="#DejaVuSans-34" transform="translate(385.986328 0)"/>
      <use xlink:href="#DejaVuSans-35" transform="translate(449.609375 0)"/>
     </g>
    </g>
   </g>
   <g id="text_24">
    <g clip-path="url(#pb8e119b8dd)">
     <!-- -0.64413 -->
     <g style="fill: #482878; opacity: 0.996094" transform="translate(189.01147 235.438266) rotate(-294.386567) scale(0.08 -0.08)">
      <defs>
       <path id="DejaVuSans-33" d="M 2597 2516 
Q 3050 2419 3304 2112 
Q 3559 1806 3559 1356 
Q 3559 666 3084 287 
Q 2609 -91 1734 -91 
Q 1441 -91 1130 -33 
Q 819 25 488 141 
L 488 750 
Q 750 597 1062 519 
Q 1375 441 1716 441 
Q 2309 441 2620 675 
Q 2931 909 2931 1356 
Q 2931 1769 2642 2001 
Q 2353 2234 1838 2234 
L 1294 2234 
L 1294 2753 
L 1863 2753 
Q 2328 2753 2575 2939 
Q 2822 3125 2822 3475 
Q 2822 3834 2567 4026 
Q 2313 4219 1838 4219 
Q 1578 4219 1281 4162 
Q 984 4106 628 3988 
L 628 4550 
Q 988 4650 1302 4700 
Q 1616 4750 1894 4750 
Q 2613 4750 3031 4423 
Q 3450 4097 3450 3541 
Q 3450 3153 3228 2886 
Q 3006 2619 2597 2516 
z
" transform="scale(0.015625)"/>
      </defs>
      <use xlink:href="#DejaVuSans-2d"/>
      <use xlink:href="#DejaVuSans-30" transform="translate(36.083984 0)"/>
      <use xlink:href="#DejaVuSans-2e" transform="translate(99.707031 0)"/>
      <use xlink:href="#DejaVuSans-36" transform="translate(131.494141 0)"/>
      <use xlink:href="#DejaVuSans-34" transform="translate(195.117188 0)"/>
      <use xlink:href="#DejaVuSans-34" transform="translate(258.740234 0)"/>
      <use xlink:href="#DejaVuSans-31" transform="translate(322.363281 0)"/>
      <use xlink:href="#DejaVuSans-33" transform="translate(385.986328 0)"/>
     </g>
    </g>
   </g>
   <g id="text_25">
    <g clip-path="url(#pb8e119b8dd)">
     <!-- -0.64413 -->
     <g style="fill: #482878; opacity: 0.996094" transform="translate(180.360748 184.299299) rotate(-356.434052) scale(0.08 -0.08)">
      <use xlink:href="#DejaVuSans-2d"/>
      <use xlink:href="#DejaVuSans-30" transform="translate(36.083984 0)"/>
      <use xlink:href="#DejaVuSans-2e" transform="translate(99.707031 0)"/>
      <use xlink:href="#DejaVuSans-36" transform="translate(131.494141 0)"/>
      <use xlink:href="#DejaVuSans-34" transform="translate(195.117188 0)"/>
      <use xlink:href="#DejaVuSans-34" transform="translate(258.740234 0)"/>
      <use xlink:href="#DejaVuSans-31" transform="translate(322.363281 0)"/>
      <use xlink:href="#DejaVuSans-33" transform="translate(385.986328 0)"/>
     </g>
    </g>
   </g>
   <g id="text_26">
    <g clip-path="url(#pb8e119b8dd)">
     <!-- -0.484656 -->
     <g style="fill: #443983; opacity: 0.996094" transform="translate(93.935641 148.304403) rotate(-295.011442) scale(0.08 -0.08)">
      <use xlink:href="#DejaVuSans-2d"/>
      <use xlink:href="#DejaVuSans-30" transform="translate(36.083984 0)"/>
      <use xlink:href="#DejaVuSans-2e" transform="translate(99.707031 0)"/>
      <use xlink:href="#DejaVuSans-34" transform="translate(131.494141 0)"/>
      <use xlink:href="#DejaVuSans-38" transform="translate(195.117188 0)"/>
      <use xlink:href="#DejaVuSans-34" transform="translate(258.740234 0)"/>
      <use xlink:href="#DejaVuSans-36" transform="translate(322.363281 0)"/>
      <use xlink:href="#DejaVuSans-35" transform="translate(385.986328 0)"/>
      <use xlink:href="#DejaVuSans-36" transform="translate(449.609375 0)"/>
     </g>
    </g>
   </g>
   <g id="text_27">
    <g clip-path="url(#pb8e119b8dd)">
     <!-- -0.484656 -->
     <g style="fill: #443983; opacity: 0.996094" transform="translate(234.124896 164.533045) rotate(-328.718541) scale(0.08 -0.08)">
      <use xlink:href="#DejaVuSans-2d"/>
      <use xlink:href="#DejaVuSans-30" transform="translate(36.083984 0)"/>
      <use xlink:href="#DejaVuSans-2e" transform="translate(99.707031 0)"/>
      <use xlink:href="#DejaVuSans-34" transform="translate(131.494141 0)"/>
      <use xlink:href="#DejaVuSans-38" transform="translate(195.117188 0)"/>
      <use xlink:href="#DejaVuSans-34" transform="translate(258.740234 0)"/>
      <use xlink:href="#DejaVuSans-36" transform="translate(322.363281 0)"/>
      <use xlink:href="#DejaVuSans-35" transform="translate(385.986328 0)"/>
      <use xlink:href="#DejaVuSans-36" transform="translate(449.609375 0)"/>
     </g>
    </g>
   </g>
   <g id="text_28">
    <g clip-path="url(#pb8e119b8dd)">
     <!-- -0.250469 -->
     <g style="fill: #3c4f8a; opacity: 0.996094" transform="translate(142.123038 242.195503) rotate(-319.148499) scale(0.08 -0.08)">
      <use xlink:href="#DejaVuSans-2d"/>
      <use xlink:href="#DejaVuSans-30" transform="translate(36.083984 0)"/>
      <use xlink:href="#DejaVuSans-2e" transform="translate(99.707031 0)"/>
      <use xlink:href="#DejaVuSans-32" transform="translate(131.494141 0)"/>
      <use xlink:href="#DejaVuSans-35" transform="translate(195.117188 0)"/>
      <use xlink:href="#DejaVuSans-30" transform="translate(258.740234 0)"/>
      <use xlink:href="#DejaVuSans-34" transform="translate(322.363281 0)"/>
      <use xlink:href="#DejaVuSans-36" transform="translate(385.986328 0)"/>
      <use xlink:href="#DejaVuSans-39" transform="translate(449.609375 0)"/>
     </g>
    </g>
   </g>
   <g id="text_29">
    <g clip-path="url(#pb8e119b8dd)">
     <!-- -0.250469 -->
     <g style="fill: #3c4f8a; opacity: 0.996094" transform="translate(156.413912 87.016783) rotate(-301.188323) scale(0.08 -0.08)">
      <use xlink:href="#DejaVuSans-2d"/>
      <use xlink:href="#DejaVuSans-30" transform="translate(36.083984 0)"/>
      <use xlink:href="#DejaVuSans-2e" transform="translate(99.707031 0)"/>
      <use xlink:href="#DejaVuSans-32" transform="translate(131.494141 0)"/>
      <use xlink:href="#DejaVuSans-35" transform="translate(195.117188 0)"/>
      <use xlink:href="#DejaVuSans-30" transform="translate(258.740234 0)"/>
      <use xlink:href="#DejaVuSans-34" transform="translate(322.363281 0)"/>
      <use xlink:href="#DejaVuSans-36" transform="translate(385.986328 0)"/>
      <use xlink:href="#DejaVuSans-39" transform="translate(449.609375 0)"/>
     </g>
    </g>
   </g>
   <g id="text_30">
    <g clip-path="url(#pb8e119b8dd)">
     <!-- 0.0732032 -->
     <g style="fill: #2f6b8e; opacity: 0.996094" transform="translate(120.464411 238.622135) rotate(-309.36279) scale(0.08 -0.08)">
      <use xlink:href="#DejaVuSans-30"/>
      <use xlink:href="#DejaVuSans-2e" transform="translate(63.623047 0)"/>
      <use xlink:href="#DejaVuSans-30" transform="translate(95.410156 0)"/>
      <use xlink:href="#DejaVuSans-37" transform="translate(159.033203 0)"/>
      <use xlink:href="#DejaVuSans-33" transform="translate(222.65625 0)"/>
      <use xlink:href="#DejaVuSans-32" transform="translate(286.279297 0)"/>
      <use xlink:href="#DejaVuSans-30" transform="translate(349.902344 0)"/>
      <use xlink:href="#DejaVuSans-33" transform="translate(413.525391 0)"/>
      <use xlink:href="#DejaVuSans-32" transform="translate(477.148438 0)"/>
     </g>
    </g>
   </g>
   <g id="text_31">
    <g clip-path="url(#pb8e119b8dd)">
     <!-- 0.0732032 -->
     <g style="fill: #2f6b8e; opacity: 0.996094" transform="translate(169.191172 88.69557) rotate(-314.96433) scale(0.08 -0.08)">
      <use xlink:href="#DejaVuSans-30"/>
      <use xlink:href="#DejaVuSans-2e" transform="translate(63.623047 0)"/>
      <use xlink:href="#DejaVuSans-30" transform="translate(95.410156 0)"/>
      <use xlink:href="#DejaVuSans-37" transform="translate(159.033203 0)"/>
      <use xlink:href="#DejaVuSans-33" transform="translate(222.65625 0)"/>
      <use xlink:href="#DejaVuSans-32" transform="translate(286.279297 0)"/>
      <use xlink:href="#DejaVuSans-30" transform="translate(349.902344 0)"/>
      <use xlink:href="#DejaVuSans-33" transform="translate(413.525391 0)"/>
      <use xlink:href="#DejaVuSans-32" transform="translate(477.148438 0)"/>
     </g>
    </g>
   </g>
   <g id="text_32">
    <g clip-path="url(#pb8e119b8dd)">
     <!-- 0.516159 -->
     <g style="fill: #228d8d; opacity: 0.996094" transform="translate(66.811296 141.837034) rotate(-292.385073) scale(0.08 -0.08)">
      <use xlink:href="#DejaVuSans-30"/>
      <use xlink:href="#DejaVuSans-2e" transform="translate(63.623047 0)"/>
      <use xlink:href="#DejaVuSans-35" transform="translate(95.410156 0)"/>
      <use xlink:href="#DejaVuSans-31" transform="translate(159.033203 0)"/>
      <use xlink:href="#DejaVuSans-36" transform="translate(222.65625 0)"/>
      <use xlink:href="#DejaVuSans-31" transform="translate(286.279297 0)"/>
      <use xlink:href="#DejaVuSans-35" transform="translate(349.902344 0)"/>
      <use xlink:href="#DejaVuSans-39" transform="translate(413.525391 0)"/>
     </g>
    </g>
   </g>
   <g id="text_33">
    <g clip-path="url(#pb8e119b8dd)">
     <!-- 0.516159 -->
     <g style="fill: #228d8d; opacity: 0.996094" transform="translate(281.553325 141.626543) rotate(-338.344819) scale(0.08 -0.08)">
      <use xlink:href="#DejaVuSans-30"/>
      <use xlink:href="#DejaVuSans-2e" transform="translate(63.623047 0)"/>
      <use xlink:href="#DejaVuSans-35" transform="translate(95.410156 0)"/>
      <use xlink:href="#DejaVuSans-31" transform="translate(159.033203 0)"/>
      <use xlink:href="#DejaVuSans-36" transform="translate(222.65625 0)"/>
      <use xlink:href="#DejaVuSans-31" transform="translate(286.279297 0)"/>
      <use xlink:href="#DejaVuSans-35" transform="translate(349.902344 0)"/>
      <use xlink:href="#DejaVuSans-39" transform="translate(413.525391 0)"/>
     </g>
    </g>
   </g>
   <g id="text_34">
    <g clip-path="url(#pb8e119b8dd)">
     <!-- 1.13286 -->
     <g style="fill: #3fbc73; opacity: 0.996094" transform="translate(112.844663 274.089439) rotate(-299.981675) scale(0.08 -0.08)">
      <use xlink:href="#DejaVuSans-31"/>
      <use xlink:href="#DejaVuSans-2e" transform="translate(63.623047 0)"/>
      <use xlink:href="#DejaVuSans-31" transform="translate(95.410156 0)"/>
      <use xlink:href="#DejaVuSans-33" transform="translate(159.033203 0)"/>
      <use xlink:href="#DejaVuSans-32" transform="translate(222.65625 0)"/>
      <use xlink:href="#DejaVuSans-38" transform="translate(286.279297 0)"/>
      <use xlink:href="#DejaVuSans-36" transform="translate(349.902344 0)"/>
     </g>
    </g>
   </g>
   <g id="text_35">
    <g clip-path="url(#pb8e119b8dd)">
     <!-- 1.13286 -->
     <g style="fill: #3fbc73; opacity: 0.996094" transform="translate(218.762984 73.168276) rotate(-333.174429) scale(0.08 -0.08)">
      <use xlink:href="#DejaVuSans-31"/>
      <use xlink:href="#DejaVuSans-2e" transform="translate(63.623047 0)"/>
      <use xlink:href="#DejaVuSans-31" transform="translate(95.410156 0)"/>
      <use xlink:href="#DejaVuSans-33" transform="translate(159.033203 0)"/>
      <use xlink:href="#DejaVuSans-32" transform="translate(222.65625 0)"/>
      <use xlink:href="#DejaVuSans-38" transform="translate(286.279297 0)"/>
      <use xlink:href="#DejaVuSans-36" transform="translate(349.902344 0)"/>
     </g>
    </g>
   </g>
   <g id="text_36">
    <g clip-path="url(#pb8e119b8dd)">
     <!-- 2.09771 -->
     <g style="fill: #fde725; opacity: 0.996094" transform="translate(81.763262 241.129201) rotate(-292.884245) scale(0.08 -0.08)">
      <use xlink:href="#DejaVuSans-32"/>
      <use xlink:href="#DejaVuSans-2e" transform="translate(63.623047 0)"/>
      <use xlink:href="#DejaVuSans-30" transform="translate(95.410156 0)"/>
      <use xlink:href="#DejaVuSans-39" transform="translate(159.033203 0)"/>
      <use xlink:href="#DejaVuSans-37" transform="translate(222.65625 0)"/>
      <use xlink:href="#DejaVuSans-37" transform="translate(286.279297 0)"/>
      <use xlink:href="#DejaVuSans-31" transform="translate(349.902344 0)"/>
     </g>
    </g>
   </g>
   <g id="text_37">
    <g clip-path="url(#pb8e119b8dd)">
     <!-- 2.09771 -->
     <g style="fill: #fde725; opacity: 0.996094" transform="translate(277.617208 73.267711) rotate(-335.909176) scale(0.08 -0.08)">
      <use xlink:href="#DejaVuSans-32"/>
      <use xlink:href="#DejaVuSans-2e" transform="translate(63.623047 0)"/>
      <use xlink:href="#DejaVuSans-30" transform="translate(95.410156 0)"/>
      <use xlink:href="#DejaVuSans-39" transform="translate(159.033203 0)"/>
      <use xlink:href="#DejaVuSans-37" transform="translate(222.65625 0)"/>
      <use xlink:href="#DejaVuSans-37" transform="translate(286.279297 0)"/>
      <use xlink:href="#DejaVuSans-31" transform="translate(349.902344 0)"/>
     </g>
    </g>
   </g>
   <g id="PathCollection_1">
    <defs>
     <path id="m6980cca2c8" d="M -0 4.242641 
L 2.545584 0 
L 0 -4.242641 
L -2.545584 -0 
z
" style="stroke: #ffa500"/>
    </defs>
    <g clip-path="url(#pb8e119b8dd)">
     <use xlink:href="#m6980cca2c8" x="114.055802" y="97.517848" style="fill: #ffa500; stroke: #ffa500"/>
     <use xlink:href="#m6980cca2c8" x="250.046449" y="258.796961" style="fill: #ffa500; stroke: #ffa500"/>
     <use xlink:href="#m6980cca2c8" x="386.03742" y="255.5712" style="fill: #ffa500; stroke: #ffa500"/>
    </g>
   </g>
   <g id="patch_3">
    <path d="M 57.6 307.584 
L 57.6 41.472 
" style="fill: none; stroke: #000000; stroke-width: 0.8; stroke-linejoin: miter; stroke-linecap: square"/>
   </g>
   <g id="patch_4">
    <path d="M 414.72 307.584 
L 414.72 41.472 
" style="fill: none; stroke: #000000; stroke-width: 0.8; stroke-linejoin: miter; stroke-linecap: square"/>
   </g>
   <g id="patch_5">
    <path d="M 57.6 307.584 
L 414.72 307.584 
" style="fill: none; stroke: #000000; stroke-width: 0.8; stroke-linejoin: miter; stroke-linecap: square"/>
   </g>
   <g id="patch_6">
    <path d="M 57.6 41.472 
L 414.72 41.472 
" style="fill: none; stroke: #000000; stroke-width: 0.8; stroke-linejoin: miter; stroke-linecap: square"/>
   </g>
  </g>
  <g id="text_38">
   <!-- Branin metamodel (mean) -->
   <g transform="translate(151.108125 16.030125) scale(0.12 -0.12)">
    <defs>
     <path id="DejaVuSans-42" d="M 1259 2228 
L 1259 519 
L 2272 519 
Q 2781 519 3026 730 
Q 3272 941 3272 1375 
Q 3272 1813 3026 2020 
Q 2781 2228 2272 2228 
L 1259 2228 
z
M 1259 4147 
L 1259 2741 
L 2194 2741 
Q 2656 2741 2882 2914 
Q 3109 3088 3109 3444 
Q 3109 3797 2882 3972 
Q 2656 4147 2194 4147 
L 1259 4147 
z
M 628 4666 
L 2241 4666 
Q 2963 4666 3353 4366 
Q 3744 4066 3744 3513 
Q 3744 3084 3544 2831 
Q 3344 2578 2956 2516 
Q 3422 2416 3680 2098 
Q 3938 1781 3938 1306 
Q 3938 681 3513 340 
Q 3088 0 2303 0 
L 628 0 
L 628 4666 
z
" transform="scale(0.015625)"/>
     <path id="DejaVuSans-72" d="M 2631 2963 
Q 2534 3019 2420 3045 
Q 2306 3072 2169 3072 
Q 1681 3072 1420 2755 
Q 1159 2438 1159 1844 
L 1159 0 
L 581 0 
L 581 3500 
L 1159 3500 
L 1159 2956 
Q 1341 3275 1631 3429 
Q 1922 3584 2338 3584 
Q 2397 3584 2469 3576 
Q 2541 3569 2628 3553 
L 2631 2963 
z
" transform="scale(0.015625)"/>
     <path id="DejaVuSans-61" d="M 2194 1759 
Q 1497 1759 1228 1600 
Q 959 1441 959 1056 
Q 959 750 1161 570 
Q 1363 391 1709 391 
Q 2188 391 2477 730 
Q 2766 1069 2766 1631 
L 2766 1759 
L 2194 1759 
z
M 3341 1997 
L 3341 0 
L 2766 0 
L 2766 531 
Q 2569 213 2275 61 
Q 1981 -91 1556 -91 
Q 1019 -91 701 211 
Q 384 513 384 1019 
Q 384 1609 779 1909 
Q 1175 2209 1959 2209 
L 2766 2209 
L 2766 2266 
Q 2766 2663 2505 2880 
Q 2244 3097 1772 3097 
Q 1472 3097 1187 3025 
Q 903 2953 641 2809 
L 641 3341 
Q 956 3463 1253 3523 
Q 1550 3584 1831 3584 
Q 2591 3584 2966 3190 
Q 3341 2797 3341 1997 
z
" transform="scale(0.015625)"/>
     <path id="DejaVuSans-6e" d="M 3513 2113 
L 3513 0 
L 2938 0 
L 2938 2094 
Q 2938 2591 2744 2837 
Q 2550 3084 2163 3084 
Q 1697 3084 1428 2787 
Q 1159 2491 1159 1978 
L 1159 0 
L 581 0 
L 581 3500 
L 1159 3500 
L 1159 2956 
Q 1366 3272 1645 3428 
Q 1925 3584 2291 3584 
Q 2894 3584 3203 3211 
Q 3513 2838 3513 2113 
z
" transform="scale(0.015625)"/>
     <path id="DejaVuSans-69" d="M 603 3500 
L 1178 3500 
L 1178 0 
L 603 0 
L 603 3500 
z
M 603 4863 
L 1178 4863 
L 1178 4134 
L 603 4134 
L 603 4863 
z
" transform="scale(0.015625)"/>
     <path id="DejaVuSans-20" transform="scale(0.015625)"/>
     <path id="DejaVuSans-6d" d="M 3328 2828 
Q 3544 3216 3844 3400 
Q 4144 3584 4550 3584 
Q 5097 3584 5394 3201 
Q 5691 2819 5691 2113 
L 5691 0 
L 5113 0 
L 5113 2094 
Q 5113 2597 4934 2840 
Q 4756 3084 4391 3084 
Q 3944 3084 3684 2787 
Q 3425 2491 3425 1978 
L 3425 0 
L 2847 0 
L 2847 2094 
Q 2847 2600 2669 2842 
Q 2491 3084 2119 3084 
Q 1678 3084 1418 2786 
Q 1159 2488 1159 1978 
L 1159 0 
L 581 0 
L 581 3500 
L 1159 3500 
L 1159 2956 
Q 1356 3278 1631 3431 
Q 1906 3584 2284 3584 
Q 2666 3584 2933 3390 
Q 3200 3197 3328 2828 
z
" transform="scale(0.015625)"/>
     <path id="DejaVuSans-65" d="M 3597 1894 
L 3597 1613 
L 953 1613 
Q 991 1019 1311 708 
Q 1631 397 2203 397 
Q 2534 397 2845 478 
Q 3156 559 3463 722 
L 3463 178 
Q 3153 47 2828 -22 
Q 2503 -91 2169 -91 
Q 1331 -91 842 396 
Q 353 884 353 1716 
Q 353 2575 817 3079 
Q 1281 3584 2069 3584 
Q 2775 3584 3186 3129 
Q 3597 2675 3597 1894 
z
M 3022 2063 
Q 3016 2534 2758 2815 
Q 2500 3097 2075 3097 
Q 1594 3097 1305 2825 
Q 1016 2553 972 2059 
L 3022 2063 
z
" transform="scale(0.015625)"/>
     <path id="DejaVuSans-74" d="M 1172 4494 
L 1172 3500 
L 2356 3500 
L 2356 3053 
L 1172 3053 
L 1172 1153 
Q 1172 725 1289 603 
Q 1406 481 1766 481 
L 2356 481 
L 2356 0 
L 1766 0 
Q 1100 0 847 248 
Q 594 497 594 1153 
L 594 3053 
L 172 3053 
L 172 3500 
L 594 3500 
L 594 4494 
L 1172 4494 
z
" transform="scale(0.015625)"/>
     <path id="DejaVuSans-6f" d="M 1959 3097 
Q 1497 3097 1228 2736 
Q 959 2375 959 1747 
Q 959 1119 1226 758 
Q 1494 397 1959 397 
Q 2419 397 2687 759 
Q 2956 1122 2956 1747 
Q 2956 2369 2687 2733 
Q 2419 3097 1959 3097 
z
M 1959 3584 
Q 2709 3584 3137 3096 
Q 3566 2609 3566 1747 
Q 3566 888 3137 398 
Q 2709 -91 1959 -91 
Q 1206 -91 779 398 
Q 353 888 353 1747 
Q 353 2609 779 3096 
Q 1206 3584 1959 3584 
z
" transform="scale(0.015625)"/>
     <path id="DejaVuSans-64" d="M 2906 2969 
L 2906 4863 
L 3481 4863 
L 3481 0 
L 2906 0 
L 2906 525 
Q 2725 213 2448 61 
Q 2172 -91 1784 -91 
Q 1150 -91 751 415 
Q 353 922 353 1747 
Q 353 2572 751 3078 
Q 1150 3584 1784 3584 
Q 2172 3584 2448 3432 
Q 2725 3281 2906 2969 
z
M 947 1747 
Q 947 1113 1208 752 
Q 1469 391 1925 391 
Q 2381 391 2643 752 
Q 2906 1113 2906 1747 
Q 2906 2381 2643 2742 
Q 2381 3103 1925 3103 
Q 1469 3103 1208 2742 
Q 947 2381 947 1747 
z
" transform="scale(0.015625)"/>
     <path id="DejaVuSans-6c" d="M 603 4863 
L 1178 4863 
L 1178 0 
L 603 0 
L 603 4863 
z
" transform="scale(0.015625)"/>
     <path id="DejaVuSans-28" d="M 1984 4856 
Q 1566 4138 1362 3434 
Q 1159 2731 1159 2009 
Q 1159 1288 1364 580 
Q 1569 -128 1984 -844 
L 1484 -844 
Q 1016 -109 783 600 
Q 550 1309 550 2009 
Q 550 2706 781 3412 
Q 1013 4119 1484 4856 
L 1984 4856 
z
" transform="scale(0.015625)"/>
     <path id="DejaVuSans-29" d="M 513 4856 
L 1013 4856 
Q 1481 4119 1714 3412 
Q 1947 2706 1947 2009 
Q 1947 1309 1714 600 
Q 1481 -109 1013 -844 
L 513 -844 
Q 928 -128 1133 580 
Q 1338 1288 1338 2009 
Q 1338 2731 1133 3434 
Q 928 4138 513 4856 
z
" transform="scale(0.015625)"/>
    </defs>
    <use xlink:href="#DejaVuSans-42"/>
    <use xlink:href="#DejaVuSans-72" transform="translate(68.603516 0)"/>
    <use xlink:href="#DejaVuSans-61" transform="translate(109.716797 0)"/>
    <use xlink:href="#DejaVuSans-6e" transform="translate(170.996094 0)"/>
    <use xlink:href="#DejaVuSans-69" transform="translate(234.375 0)"/>
    <use xlink:href="#DejaVuSans-6e" transform="translate(262.158203 0)"/>
    <use xlink:href="#DejaVuSans-20" transform="translate(325.537109 0)"/>
    <use xlink:href="#DejaVuSans-6d" transform="translate(357.324219 0)"/>
    <use xlink:href="#DejaVuSans-65" transform="translate(454.736328 0)"/>
    <use xlink:href="#DejaVuSans-74" transform="translate(516.259766 0)"/>
    <use xlink:href="#DejaVuSans-61" transform="translate(555.46875 0)"/>
    <use xlink:href="#DejaVuSans-6d" transform="translate(616.748047 0)"/>
    <use xlink:href="#DejaVuSans-6f" transform="translate(714.160156 0)"/>
    <use xlink:href="#DejaVuSans-64" transform="translate(775.341797 0)"/>
    <use xlink:href="#DejaVuSans-65" transform="translate(838.818359 0)"/>
    <use xlink:href="#DejaVuSans-6c" transform="translate(900.341797 0)"/>
    <use xlink:href="#DejaVuSans-20" transform="translate(928.125 0)"/>
    <use xlink:href="#DejaVuSans-28" transform="translate(959.912109 0)"/>
    <use xlink:href="#DejaVuSans-6d" transform="translate(998.925781 0)"/>
    <use xlink:href="#DejaVuSans-65" transform="translate(1096.337891 0)"/>
    <use xlink:href="#DejaVuSans-61" transform="translate(1157.861328 0)"/>
    <use xlink:href="#DejaVuSans-6e" transform="translate(1219.140625 0)"/>
    <use xlink:href="#DejaVuSans-29" transform="translate(1282.519531 0)"/>
   </g>
  </g>
 </g>
 <defs>
  <clipPath id="pb8e119b8dd">
   <rect x="57.6" y="41.472" width="357.12" height="266.112"/>
  </clipPath>
 </defs>
</svg>
