<?xml version="1.0" encoding="utf-8" standalone="no"?>
<!DOCTYPE svg PUBLIC "-//W3C//DTD SVG 1.1//EN"
  "http://www.w3.org/Graphics/SVG/1.1/DTD/svg11.dtd">
<svg xmlns:xlink="http://www.w3.org/1999/xlink" width="460.8pt" height="345.6pt" viewBox="0 0 460.8 345.6" xmlns="http://www.w3.org/2000/svg" version="1.1">
 <metadata>
  <rdf:RDF xmlns:dc="http://purl.org/dc/elements/1.1/" xmlns:cc="http://creativecommons.org/ns#" xmlns:rdf="http://www.w3.org/1999/02/22-rdf-syntax-ns#">
   <cc:Work>
    <dc:type rdf:resource="http://purl.org/dc/dcmitype/StillImage"/>
    <dc:date>2025-09-26T11:59:36.390147</dc:date>
    <dc:format>image/svg+xml</dc:format>
    <dc:creator>
     <cc:Agent>
      <dc:title>Matplotlib v3.10.6, https://matplotlib.org/</dc:title>
     </cc:Agent>
    </dc:creator>
   </cc:Work>
  </rdf:RDF>
 </metadata>
 <defs>
  <style type="text/css">*{stroke-linejoin: round; stroke-linecap: butt}</style>
 </defs>
 <g id="figure_1">
  <g id="patch_1">
   <path d="M 0 345.6 
L 460.8 345.6 
L 460.8 0 
L 0 0 
z
" style="fill: #ffffff"/>
  </g>
  <g id="axes_1">
   <g id="patch_2">
    <path d="M 57.6 307.584 
L 414.72 307.584 
L 414.72 41.472 
L 57.6 41.472 
z
" style="fill: #ffffff"/>
   </g>
   <g id="matplotlib.axis_1">
    <g id="xtick_1">
     <g id="line2d_1">
      <path d="M 73.832727 307.584 
L 73.832727 41.472 
" clip-path="url(#pab7b3201dd)" style="fill: none; stroke: #b0b0b0; stroke-width: 0.8; stroke-linecap: square"/>
     </g>
     <g id="line2d_2">
      <defs>
       <path id="mb1e1f33a3a" d="M 0 0 
L 0 3.5 
" style="stroke: #000000; stroke-width: 0.8"/>
      </defs>
      <g>
       <use xlink:href="#mb1e1f33a3a" x="73.832727" y="307.584" style="stroke: #000000; stroke-width: 0.8"/>
      </g>
     </g>
     <g id="text_1">
      <!-- 0 -->
      <g transform="translate(70.651477 322.182437) scale(0.1 -0.1)">
       <defs>
        <path id="DejaVuSans-30" d="M 2034 4250 
Q 1547 4250 1301 3770 
Q 1056 3291 1056 2328 
Q 1056 1369 1301 889 
Q 1547 409 2034 409 
Q 2525 409 2770 889 
Q 3016 1369 3016 2328 
Q 3016 3291 2770 3770 
Q 2525 4250 2034 4250 
z
M 2034 4750 
Q 2819 4750 3233 4129 
Q 3647 3509 3647 2328 
Q 3647 1150 3233 529 
Q 2819 -91 2034 -91 
Q 1250 -91 836 529 
Q 422 1150 422 2328 
Q 422 3509 836 4129 
Q 1250 4750 2034 4750 
z
" transform="scale(0.015625)"/>
       </defs>
       <use xlink:href="#DejaVuSans-30"/>
      </g>
     </g>
    </g>
    <g id="xtick_2">
     <g id="line2d_3">
      <path d="M 127.941818 307.584 
L 127.941818 41.472 
" clip-path="url(#pab7b3201dd)" style="fill: none; stroke: #b0b0b0; stroke-width: 0.8; stroke-linecap: square"/>
     </g>
     <g id="line2d_4">
      <g>
       <use xlink:href="#mb1e1f33a3a" x="127.941818" y="307.584" style="stroke: #000000; stroke-width: 0.8"/>
      </g>
     </g>
     <g id="text_2">
      <!-- 2 -->
      <g transform="translate(124.760568 322.182437) scale(0.1 -0.1)">
       <defs>
        <path id="DejaVuSans-32" d="M 1228 531 
L 3431 531 
L 3431 0 
L 469 0 
L 469 531 
Q 828 903 1448 1529 
Q 2069 2156 2228 2338 
Q 2531 2678 2651 2914 
Q 2772 3150 2772 3378 
Q 2772 3750 2511 3984 
Q 2250 4219 1831 4219 
Q 1534 4219 1204 4116 
Q 875 4013 500 3803 
L 500 4441 
Q 881 4594 1212 4672 
Q 1544 4750 1819 4750 
Q 2544 4750 2975 4387 
Q 3406 4025 3406 3419 
Q 3406 3131 3298 2873 
Q 3191 2616 2906 2266 
Q 2828 2175 2409 1742 
Q 1991 1309 1228 531 
z
" transform="scale(0.015625)"/>
       </defs>
       <use xlink:href="#DejaVuSans-32"/>
      </g>
     </g>
    </g>
    <g id="xtick_3">
     <g id="line2d_5">
      <path d="M 182.050909 307.584 
L 182.050909 41.472 
" clip-path="url(#pab7b3201dd)" style="fill: none; stroke: #b0b0b0; stroke-width: 0.8; stroke-linecap: square"/>
     </g>
     <g id="line2d_6">
      <g>
       <use xlink:href="#mb1e1f33a3a" x="182.050909" y="307.584" style="stroke: #000000; stroke-width: 0.8"/>
      </g>
     </g>
     <g id="text_3">
      <!-- 4 -->
      <g transform="translate(178.869659 322.182437) scale(0.1 -0.1)">
       <defs>
        <path id="DejaVuSans-34" d="M 2419 4116 
L 825 1625 
L 2419 1625 
L 2419 4116 
z
M 2253 4666 
L 3047 4666 
L 3047 1625 
L 3713 1625 
L 3713 1100 
L 3047 1100 
L 3047 0 
L 2419 0 
L 2419 1100 
L 313 1100 
L 313 1709 
L 2253 4666 
z
" transform="scale(0.015625)"/>
       </defs>
       <use xlink:href="#DejaVuSans-34"/>
      </g>
     </g>
    </g>
    <g id="xtick_4">
     <g id="line2d_7">
      <path d="M 236.16 307.584 
L 236.16 41.472 
" clip-path="url(#pab7b3201dd)" style="fill: none; stroke: #b0b0b0; stroke-width: 0.8; stroke-linecap: square"/>
     </g>
     <g id="line2d_8">
      <g>
       <use xlink:href="#mb1e1f33a3a" x="236.16" y="307.584" style="stroke: #000000; stroke-width: 0.8"/>
      </g>
     </g>
     <g id="text_4">
      <!-- 6 -->
      <g transform="translate(232.97875 322.182437) scale(0.1 -0.1)">
       <defs>
        <path id="DejaVuSans-36" d="M 2113 2584 
Q 1688 2584 1439 2293 
Q 1191 2003 1191 1497 
Q 1191 994 1439 701 
Q 1688 409 2113 409 
Q 2538 409 2786 701 
Q 3034 994 3034 1497 
Q 3034 2003 2786 2293 
Q 2538 2584 2113 2584 
z
M 3366 4563 
L 3366 3988 
Q 3128 4100 2886 4159 
Q 2644 4219 2406 4219 
Q 1781 4219 1451 3797 
Q 1122 3375 1075 2522 
Q 1259 2794 1537 2939 
Q 1816 3084 2150 3084 
Q 2853 3084 3261 2657 
Q 3669 2231 3669 1497 
Q 3669 778 3244 343 
Q 2819 -91 2113 -91 
Q 1303 -91 875 529 
Q 447 1150 447 2328 
Q 447 3434 972 4092 
Q 1497 4750 2381 4750 
Q 2619 4750 2861 4703 
Q 3103 4656 3366 4563 
z
" transform="scale(0.015625)"/>
       </defs>
       <use xlink:href="#DejaVuSans-36"/>
      </g>
     </g>
    </g>
    <g id="xtick_5">
     <g id="line2d_9">
      <path d="M 290.269091 307.584 
L 290.269091 41.472 
" clip-path="url(#pab7b3201dd)" style="fill: none; stroke: #b0b0b0; stroke-width: 0.8; stroke-linecap: square"/>
     </g>
     <g id="line2d_10">
      <g>
       <use xlink:href="#mb1e1f33a3a" x="290.269091" y="307.584" style="stroke: #000000; stroke-width: 0.8"/>
      </g>
     </g>
     <g id="text_5">
      <!-- 8 -->
      <g transform="translate(287.087841 322.182437) scale(0.1 -0.1)">
       <defs>
        <path id="DejaVuSans-38" d="M 2034 2216 
Q 1584 2216 1326 1975 
Q 1069 1734 1069 1313 
Q 1069 891 1326 650 
Q 1584 409 2034 409 
Q 2484 409 2743 651 
Q 3003 894 3003 1313 
Q 3003 1734 2745 1975 
Q 2488 2216 2034 2216 
z
M 1403 2484 
Q 997 2584 770 2862 
Q 544 3141 544 3541 
Q 544 4100 942 4425 
Q 1341 4750 2034 4750 
Q 2731 4750 3128 4425 
Q 3525 4100 3525 3541 
Q 3525 3141 3298 2862 
Q 3072 2584 2669 2484 
Q 3125 2378 3379 2068 
Q 3634 1759 3634 1313 
Q 3634 634 3220 271 
Q 2806 -91 2034 -91 
Q 1263 -91 848 271 
Q 434 634 434 1313 
Q 434 1759 690 2068 
Q 947 2378 1403 2484 
z
M 1172 3481 
Q 1172 3119 1398 2916 
Q 1625 2713 2034 2713 
Q 2441 2713 2670 2916 
Q 2900 3119 2900 3481 
Q 2900 3844 2670 4047 
Q 2441 4250 2034 4250 
Q 1625 4250 1398 4047 
Q 1172 3844 1172 3481 
z
" transform="scale(0.015625)"/>
       </defs>
       <use xlink:href="#DejaVuSans-38"/>
      </g>
     </g>
    </g>
    <g id="xtick_6">
     <g id="line2d_11">
      <path d="M 344.378182 307.584 
L 344.378182 41.472 
" clip-path="url(#pab7b3201dd)" style="fill: none; stroke: #b0b0b0; stroke-width: 0.8; stroke-linecap: square"/>
     </g>
     <g id="line2d_12">
      <g>
       <use xlink:href="#mb1e1f33a3a" x="344.378182" y="307.584" style="stroke: #000000; stroke-width: 0.8"/>
      </g>
     </g>
     <g id="text_6">
      <!-- 10 -->
      <g transform="translate(338.015682 322.182437) scale(0.1 -0.1)">
       <defs>
        <path id="DejaVuSans-31" d="M 794 531 
L 1825 531 
L 1825 4091 
L 703 3866 
L 703 4441 
L 1819 4666 
L 2450 4666 
L 2450 531 
L 3481 531 
L 3481 0 
L 794 0 
L 794 531 
z
" transform="scale(0.015625)"/>
       </defs>
       <use xlink:href="#DejaVuSans-31"/>
       <use xlink:href="#DejaVuSans-30" transform="translate(63.623047 0)"/>
      </g>
     </g>
    </g>
    <g id="xtick_7">
     <g id="line2d_13">
      <path d="M 398.487273 307.584 
L 398.487273 41.472 
" clip-path="url(#pab7b3201dd)" style="fill: none; stroke: #b0b0b0; stroke-width: 0.8; stroke-linecap: square"/>
     </g>
     <g id="line2d_14">
      <g>
       <use xlink:href="#mb1e1f33a3a" x="398.487273" y="307.584" style="stroke: #000000; stroke-width: 0.8"/>
      </g>
     </g>
     <g id="text_7">
      <!-- 12 -->
      <g transform="translate(392.124773 322.182437) scale(0.1 -0.1)">
       <use xlink:href="#DejaVuSans-31"/>
       <use xlink:href="#DejaVuSans-32" transform="translate(63.623047 0)"/>
      </g>
     </g>
    </g>
    <g id="text_8">
     <!-- X -->
     <g transform="translate(232.735 335.860562) scale(0.1 -0.1)">
      <defs>
       <path id="DejaVuSans-58" d="M 403 4666 
L 1081 4666 
L 2241 2931 
L 3406 4666 
L 4084 4666 
L 2584 2425 
L 4184 0 
L 3506 0 
L 2194 1984 
L 872 0 
L 191 0 
L 1856 2491 
L 403 4666 
z
" transform="scale(0.015625)"/>
      </defs>
      <use xlink:href="#DejaVuSans-58"/>
     </g>
    </g>
   </g>
   <g id="matplotlib.axis_2">
    <g id="ytick_1">
     <g id="line2d_15">
      <path d="M 57.6 307.065767 
L 414.72 307.065767 
" clip-path="url(#pab7b3201dd)" style="fill: none; stroke: #b0b0b0; stroke-width: 0.8; stroke-linecap: square"/>
     </g>
     <g id="line2d_16">
      <defs>
       <path id="m3dc84465f5" d="M 0 0 
L -3.5 0 
" style="stroke: #000000; stroke-width: 0.8"/>
      </defs>
      <g>
       <use xlink:href="#m3dc84465f5" x="57.6" y="307.065767" style="stroke: #000000; stroke-width: 0.8"/>
      </g>
     </g>
     <g id="text_9">
      <!-- −1.5 -->
      <g transform="translate(26.317187 310.864986) scale(0.1 -0.1)">
       <defs>
        <path id="DejaVuSans-2212" d="M 678 2272 
L 4684 2272 
L 4684 1741 
L 678 1741 
L 678 2272 
z
" transform="scale(0.015625)"/>
        <path id="DejaVuSans-2e" d="M 684 794 
L 1344 794 
L 1344 0 
L 684 0 
L 684 794 
z
" transform="scale(0.015625)"/>
        <path id="DejaVuSans-35" d="M 691 4666 
L 3169 4666 
L 3169 4134 
L 1269 4134 
L 1269 2991 
Q 1406 3038 1543 3061 
Q 1681 3084 1819 3084 
Q 2600 3084 3056 2656 
Q 3513 2228 3513 1497 
Q 3513 744 3044 326 
Q 2575 -91 1722 -91 
Q 1428 -91 1123 -41 
Q 819 9 494 109 
L 494 744 
Q 775 591 1075 516 
Q 1375 441 1709 441 
Q 2250 441 2565 725 
Q 2881 1009 2881 1497 
Q 2881 1984 2565 2268 
Q 2250 2553 1709 2553 
Q 1456 2553 1204 2497 
Q 953 2441 691 2322 
L 691 4666 
z
" transform="scale(0.015625)"/>
       </defs>
       <use xlink:href="#DejaVuSans-2212"/>
       <use xlink:href="#DejaVuSans-31" transform="translate(83.789062 0)"/>
       <use xlink:href="#DejaVuSans-2e" transform="translate(147.412109 0)"/>
       <use xlink:href="#DejaVuSans-35" transform="translate(179.199219 0)"/>
      </g>
     </g>
    </g>
    <g id="ytick_2">
     <g id="line2d_17">
      <path d="M 57.6 269.695384 
L 414.72 269.695384 
" clip-path="url(#pab7b3201dd)" style="fill: none; stroke: #b0b0b0; stroke-width: 0.8; stroke-linecap: square"/>
     </g>
     <g id="line2d_18">
      <g>
       <use xlink:href="#m3dc84465f5" x="57.6" y="269.695384" style="stroke: #000000; stroke-width: 0.8"/>
      </g>
     </g>
     <g id="text_10">
      <!-- −1.0 -->
      <g transform="translate(26.317187 273.494603) scale(0.1 -0.1)">
       <use xlink:href="#DejaVuSans-2212"/>
       <use xlink:href="#DejaVuSans-31" transform="translate(83.789062 0)"/>
       <use xlink:href="#DejaVuSans-2e" transform="translate(147.412109 0)"/>
       <use xlink:href="#DejaVuSans-30" transform="translate(179.199219 0)"/>
      </g>
     </g>
    </g>
    <g id="ytick_3">
     <g id="line2d_19">
      <path d="M 57.6 232.325001 
L 414.72 232.325001 
" clip-path="url(#pab7b3201dd)" style="fill: none; stroke: #b0b0b0; stroke-width: 0.8; stroke-linecap: square"/>
     </g>
     <g id="line2d_20">
      <g>
       <use xlink:href="#m3dc84465f5" x="57.6" y="232.325001" style="stroke: #000000; stroke-width: 0.8"/>
      </g>
     </g>
     <g id="text_11">
      <!-- −0.5 -->
      <g transform="translate(26.317187 236.12422) scale(0.1 -0.1)">
       <use xlink:href="#DejaVuSans-2212"/>
       <use xlink:href="#DejaVuSans-30" transform="translate(83.789062 0)"/>
       <use xlink:href="#DejaVuSans-2e" transform="translate(147.412109 0)"/>
       <use xlink:href="#DejaVuSans-35" transform="translate(179.199219 0)"/>
      </g>
     </g>
    </g>
    <g id="ytick_4">
     <g id="line2d_21">
      <path d="M 57.6 194.954618 
L 414.72 194.954618 
" clip-path="url(#pab7b3201dd)" style="fill: none; stroke: #b0b0b0; stroke-width: 0.8; stroke-linecap: square"/>
     </g>
     <g id="line2d_22">
      <g>
       <use xlink:href="#m3dc84465f5" x="57.6" y="194.954618" style="stroke: #000000; stroke-width: 0.8"/>
      </g>
     </g>
     <g id="text_12">
      <!-- 0.0 -->
      <g transform="translate(34.696875 198.753837) scale(0.1 -0.1)">
       <use xlink:href="#DejaVuSans-30"/>
       <use xlink:href="#DejaVuSans-2e" transform="translate(63.623047 0)"/>
       <use xlink:href="#DejaVuSans-30" transform="translate(95.410156 0)"/>
      </g>
     </g>
    </g>
    <g id="ytick_5">
     <g id="line2d_23">
      <path d="M 57.6 157.584235 
L 414.72 157.584235 
" clip-path="url(#pab7b3201dd)" style="fill: none; stroke: #b0b0b0; stroke-width: 0.8; stroke-linecap: square"/>
     </g>
     <g id="line2d_24">
      <g>
       <use xlink:href="#m3dc84465f5" x="57.6" y="157.584235" style="stroke: #000000; stroke-width: 0.8"/>
      </g>
     </g>
     <g id="text_13">
      <!-- 0.5 -->
      <g transform="translate(34.696875 161.383454) scale(0.1 -0.1)">
       <use xlink:href="#DejaVuSans-30"/>
       <use xlink:href="#DejaVuSans-2e" transform="translate(63.623047 0)"/>
       <use xlink:href="#DejaVuSans-35" transform="translate(95.410156 0)"/>
      </g>
     </g>
    </g>
    <g id="ytick_6">
     <g id="line2d_25">
      <path d="M 57.6 120.213852 
L 414.72 120.213852 
" clip-path="url(#pab7b3201dd)" style="fill: none; stroke: #b0b0b0; stroke-width: 0.8; stroke-linecap: square"/>
     </g>
     <g id="line2d_26">
      <g>
       <use xlink:href="#m3dc84465f5" x="57.6" y="120.213852" style="stroke: #000000; stroke-width: 0.8"/>
      </g>
     </g>
     <g id="text_14">
      <!-- 1.0 -->
      <g transform="translate(34.696875 124.013071) scale(0.1 -0.1)">
       <use xlink:href="#DejaVuSans-31"/>
       <use xlink:href="#DejaVuSans-2e" transform="translate(63.623047 0)"/>
       <use xlink:href="#DejaVuSans-30" transform="translate(95.410156 0)"/>
      </g>
     </g>
    </g>
    <g id="ytick_7">
     <g id="line2d_27">
      <path d="M 57.6 82.843469 
L 414.72 82.843469 
" clip-path="url(#pab7b3201dd)" style="fill: none; stroke: #b0b0b0; stroke-width: 0.8; stroke-linecap: square"/>
     </g>
     <g id="line2d_28">
      <g>
       <use xlink:href="#m3dc84465f5" x="57.6" y="82.843469" style="stroke: #000000; stroke-width: 0.8"/>
      </g>
     </g>
     <g id="text_15">
      <!-- 1.5 -->
      <g transform="translate(34.696875 86.642688) scale(0.1 -0.1)">
       <use xlink:href="#DejaVuSans-31"/>
       <use xlink:href="#DejaVuSans-2e" transform="translate(63.623047 0)"/>
       <use xlink:href="#DejaVuSans-35" transform="translate(95.410156 0)"/>
      </g>
     </g>
    </g>
    <g id="ytick_8">
     <g id="line2d_29">
      <path d="M 57.6 45.473086 
L 414.72 45.473086 
" clip-path="url(#pab7b3201dd)" style="fill: none; stroke: #b0b0b0; stroke-width: 0.8; stroke-linecap: square"/>
     </g>
     <g id="line2d_30">
      <g>
       <use xlink:href="#m3dc84465f5" x="57.6" y="45.473086" style="stroke: #000000; stroke-width: 0.8"/>
      </g>
     </g>
     <g id="text_16">
      <!-- 2.0 -->
      <g transform="translate(34.696875 49.272305) scale(0.1 -0.1)">
       <use xlink:href="#DejaVuSans-32"/>
       <use xlink:href="#DejaVuSans-2e" transform="translate(63.623047 0)"/>
       <use xlink:href="#DejaVuSans-30" transform="translate(95.410156 0)"/>
      </g>
     </g>
    </g>
    <g id="text_17">
     <!-- Y -->
     <g transform="translate(20.2375 177.581906) rotate(-90) scale(0.1 -0.1)">
      <defs>
       <path id="DejaVuSans-59" d="M -13 4666 
L 666 4666 
L 1959 2747 
L 3244 4666 
L 3922 4666 
L 2272 2222 
L 2272 0 
L 1638 0 
L 1638 2222 
L -13 4666 
z
" transform="scale(0.015625)"/>
      </defs>
      <use xlink:href="#DejaVuSans-59"/>
     </g>
    </g>
   </g>
   <g id="line2d_31">
    <path d="M 73.832727 126.965401 
L 77.079273 135.971941 
L 80.325818 144.114792 
L 83.572364 142.288913 
L 86.818909 148.487671 
L 90.065455 149.501106 
L 93.312 146.85407 
L 96.558545 136.839487 
L 99.805091 131.456624 
L 103.051636 131.661595 
L 106.298182 133.427112 
L 109.544727 135.039174 
L 112.791273 148.982288 
L 116.037818 169.131848 
L 119.284364 191.307038 
L 122.530909 207.303553 
L 125.777455 210.895291 
L 129.024 210.365131 
L 132.270545 210.569535 
L 135.517091 206.404447 
L 138.763636 199.130072 
L 142.010182 190.492625 
L 145.256727 188.610498 
L 148.503273 189.844781 
L 151.749818 186.21943 
L 154.996364 184.4072 
L 158.242909 185.116737 
L 161.489455 180.938703 
L 164.736 182.116129 
L 167.982545 193.826138 
L 171.229091 211.614549 
L 174.475636 228.415581 
L 177.722182 246.119035 
L 180.968727 251.113865 
L 184.215273 248.071991 
L 187.461818 236.682201 
L 190.708364 222.678205 
L 193.954909 212.037323 
L 197.201455 202.226847 
L 200.448 193.956666 
L 203.694545 187.049164 
L 206.941091 186.090641 
L 210.187636 189.956338 
L 213.434182 198.516739 
L 216.680727 204.906003 
L 219.927273 200.370954 
L 223.173818 201.249993 
L 226.420364 197.755933 
L 229.666909 199.911235 
L 232.913455 205.72774 
L 236.16 215.838346 
L 239.406545 226.528118 
L 242.653091 231.342362 
L 245.899636 239.404014 
L 249.146182 239.850678 
L 252.392727 232.201516 
L 255.639273 212.905473 
L 258.885818 198.725551 
L 262.132364 184.949543 
L 265.378909 172.803432 
L 268.625455 153.747774 
L 271.872 142.797893 
L 275.118545 136.99551 
L 278.365091 126.719638 
L 281.611636 122.989013 
L 284.858182 124.154104 
L 288.104727 119.402888 
L 291.351273 120.16142 
L 294.597818 119.572497 
L 297.844364 118.185272 
L 301.090909 121.639803 
L 304.337455 123.482469 
L 307.584 116.979641 
L 310.830545 106.795362 
L 314.077091 103.886736 
L 317.323636 114.924817 
L 320.570182 116.404635 
L 323.816727 113.821411 
L 327.063273 117.749827 
L 330.309818 128.890583 
L 333.556364 146.837808 
L 336.802909 161.664298 
L 340.049455 170.806265 
L 343.296 183.974963 
L 346.542545 198.449702 
L 349.789091 207.163938 
L 353.035636 216.917435 
L 356.282182 232.207583 
L 359.528727 254.118351 
L 362.775273 270.140603 
L 366.021818 273.879041 
L 369.268364 270.020312 
L 372.514909 268.871501 
L 375.761455 266.709823 
L 379.008 267.707834 
L 382.254545 262.211825 
L 385.501091 260.313829 
L 388.747636 253.085768 
L 391.994182 232.500964 
L 395.240727 218.138456 
L 398.487273 216.439522 
" clip-path="url(#pab7b3201dd)" style="fill: none; stroke: #1f77b4; stroke-linecap: square"/>
   </g>
   <g id="line2d_32">
    <path d="M 73.832727 223.175633 
L 77.079273 212.570928 
L 80.325818 216.042562 
L 83.572364 214.465121 
L 86.818909 210.194942 
L 90.065455 193.58028 
L 93.312 175.935616 
L 96.558545 155.807701 
L 99.805091 136.031697 
L 103.051636 125.330178 
L 106.298182 121.056122 
L 109.544727 122.907462 
L 112.791273 124.683545 
L 116.037818 127.927104 
L 119.284364 116.158995 
L 122.530909 101.572259 
L 125.777455 90.911635 
L 129.024 84.553456 
L 132.270545 92.955027 
L 135.517091 117.350905 
L 138.763636 135.664711 
L 142.010182 151.718516 
L 145.256727 166.713165 
L 148.503273 174.248436 
L 151.749818 180.265694 
L 154.996364 184.4072 
L 158.242909 188.907169 
L 161.489455 187.155575 
L 164.736 192.12083 
L 167.982545 205.178471 
L 171.229091 220.929978 
L 174.475636 242.266231 
L 177.722182 254.02015 
L 180.968727 253.453274 
L 184.215273 252.668455 
L 187.461818 258.927726 
L 190.708364 262.951689 
L 193.954909 259.770698 
L 197.201455 262.905116 
L 200.448 267.3441 
L 203.694545 262.45455 
L 206.941091 258.054837 
L 210.187636 263.697022 
L 213.434182 269.742985 
L 216.680727 267.337543 
L 219.927273 261.064994 
L 223.173818 249.916026 
L 226.420364 240.371319 
L 229.666909 230.175841 
L 232.913455 222.244726 
L 236.16 215.838346 
L 239.406545 208.923169 
L 242.653091 203.902897 
L 245.899636 199.302512 
L 249.146182 193.387325 
L 252.392727 187.823966 
L 255.639273 179.309537 
L 258.885818 169.604248 
L 262.132364 158.612754 
L 265.378909 148.257222 
L 268.625455 140.179692 
L 271.872 126.73023 
L 275.118545 111.866701 
L 278.365091 103.337611 
L 281.611636 106.544621 
L 284.858182 113.961931 
L 288.104727 122.578733 
L 291.351273 130.668265 
L 294.597818 131.636757 
L 297.844364 135.015078 
L 301.090909 137.015399 
L 304.337455 143.035816 
L 307.584 157.938508 
L 310.830545 175.272513 
L 314.077091 198.401026 
L 317.323636 215.638207 
L 320.570182 226.88739 
L 323.816727 235.707367 
L 327.063273 239.409969 
L 330.309818 244.932194 
L 333.556364 256.458061 
L 336.802909 270.713832 
L 340.049455 281.740595 
L 343.296 285.995051 
L 346.542545 284.468752 
L 349.789091 289.312877 
L 353.035636 295.488 
L 356.282182 293.745186 
L 359.528727 294.864117 
L 362.775273 291.750827 
L 366.021818 286.020473 
L 369.268364 276.865569 
L 372.514909 264.208598 
L 375.761455 249.990695 
L 379.008 252.508833 
L 382.254545 259.512132 
L 385.501091 260.46168 
L 388.747636 258.429982 
L 391.994182 259.664967 
L 395.240727 256.092162 
L 398.487273 256.237217 
" clip-path="url(#pab7b3201dd)" style="fill: none; stroke: #ff7f0e; stroke-linecap: square"/>
   </g>
   <g id="line2d_33">
    <path d="M 73.832727 203.880454 
L 77.079273 187.309179 
L 80.325818 171.272517 
L 83.572364 156.245101 
L 86.818909 143.047131 
L 90.065455 138.073248 
L 93.312 137.930392 
L 96.558545 136.407244 
L 99.805091 134.169318 
L 103.051636 131.81487 
L 106.298182 127.045847 
L 109.544727 126.051752 
L 112.791273 136.868475 
L 116.037818 143.503691 
L 119.284364 131.958419 
L 122.530909 112.931076 
L 125.777455 109.434821 
L 129.024 117.718279 
L 132.270545 123.5496 
L 135.517091 132.144706 
L 138.763636 141.557922 
L 142.010182 152.423844 
L 145.256727 162.939638 
L 148.503273 174.159823 
L 151.749818 186.665195 
L 154.996364 184.4072 
L 158.242909 183.359248 
L 161.489455 184.528999 
L 164.736 189.469285 
L 167.982545 202.030846 
L 171.229091 218.09431 
L 174.475636 229.565756 
L 177.722182 241.204988 
L 180.968727 252.008616 
L 184.215273 250.650096 
L 187.461818 248.179851 
L 190.708364 247.201306 
L 193.954909 240.16052 
L 197.201455 233.327645 
L 200.448 225.982233 
L 203.694545 223.617802 
L 206.941091 231.294098 
L 210.187636 240.672228 
L 213.434182 247.371581 
L 216.680727 249.681021 
L 219.927273 245.433654 
L 223.173818 236.263117 
L 226.420364 225.160804 
L 229.666909 213.802896 
L 232.913455 210.572448 
L 236.16 215.838346 
L 239.406545 216.372583 
L 242.653091 203.5007 
L 245.899636 185.165821 
L 249.146182 174.335635 
L 252.392727 169.320854 
L 255.639273 168.136496 
L 258.885818 159.086974 
L 262.132364 160.859243 
L 265.378909 160.033091 
L 268.625455 160.488813 
L 271.872 162.755842 
L 275.118545 158.814578 
L 278.365091 147.108639 
L 281.611636 138.770287 
L 284.858182 128.611593 
L 288.104727 118.570109 
L 291.351273 111.356729 
L 294.597818 108.344127 
L 297.844364 109.998063 
L 301.090909 121.235312 
L 304.337455 139.241391 
L 307.584 165.116354 
L 310.830545 182.698689 
L 314.077091 198.206086 
L 317.323636 216.513452 
L 320.570182 239.189444 
L 323.816727 246.956872 
L 327.063273 245.650391 
L 330.309818 238.025231 
L 333.556364 228.350326 
L 336.802909 224.670969 
L 340.049455 221.5152 
L 343.296 217.3309 
L 346.542545 213.55712 
L 349.789091 212.194509 
L 353.035636 217.845628 
L 356.282182 220.468127 
L 359.528727 229.232569 
L 362.775273 239.486062 
L 366.021818 247.293973 
L 369.268364 261.485915 
L 372.514909 274.154674 
L 375.761455 275.672314 
L 379.008 272.722831 
L 382.254545 267.315996 
L 385.501091 259.211749 
L 388.747636 256.219382 
L 391.994182 244.939956 
L 395.240727 228.08702 
L 398.487273 206.890393 
" clip-path="url(#pab7b3201dd)" style="fill: none; stroke: #2ca02c; stroke-linecap: square"/>
   </g>
   <g id="line2d_34">
    <path d="M 73.832727 187.649929 
L 77.079273 181.88425 
L 80.325818 165.790636 
L 83.572364 149.944467 
L 86.818909 145.271584 
L 90.065455 147.437974 
L 93.312 147.400269 
L 96.558545 144.375831 
L 99.805091 136.166748 
L 103.051636 123.946356 
L 106.298182 118.707996 
L 109.544727 120.595028 
L 112.791273 123.98394 
L 116.037818 128.07347 
L 119.284364 128.460403 
L 122.530909 132.782947 
L 125.777455 134.665171 
L 129.024 133.833996 
L 132.270545 145.829935 
L 135.517091 161.298297 
L 138.763636 175.034714 
L 142.010182 182.91978 
L 145.256727 183.144364 
L 148.503273 179.542809 
L 151.749818 178.178617 
L 154.996364 184.4072 
L 158.242909 188.767037 
L 161.489455 189.512407 
L 164.736 193.466139 
L 167.982545 199.459867 
L 171.229091 216.701073 
L 174.475636 230.87053 
L 177.722182 239.55587 
L 180.968727 249.271848 
L 184.215273 256.134589 
L 187.461818 254.744523 
L 190.708364 242.422719 
L 193.954909 220.926201 
L 197.201455 201.509795 
L 200.448 187.368051 
L 203.694545 177.792949 
L 206.941091 170.326115 
L 210.187636 169.679439 
L 213.434182 170.284674 
L 216.680727 184.320438 
L 219.927273 195.99775 
L 223.173818 200.805746 
L 226.420364 207.171324 
L 229.666909 213.447643 
L 232.913455 219.191344 
L 236.16 215.838346 
L 239.406545 215.987124 
L 242.653091 215.039397 
L 245.899636 207.87458 
L 249.146182 200.894584 
L 252.392727 195.878512 
L 255.639273 188.755312 
L 258.885818 188.282551 
L 262.132364 180.907397 
L 265.378909 169.221552 
L 268.625455 158.838571 
L 271.872 147.785298 
L 275.118545 134.285902 
L 278.365091 117.962599 
L 281.611636 114.086025 
L 284.858182 112.753685 
L 288.104727 121.870448 
L 291.351273 132.062276 
L 294.597818 139.650033 
L 297.844364 144.332074 
L 301.090909 147.948874 
L 304.337455 144.317793 
L 307.584 143.90616 
L 310.830545 147.02223 
L 314.077091 146.504852 
L 317.323636 149.394319 
L 320.570182 159.814202 
L 323.816727 167.957971 
L 327.063273 183.589676 
L 330.309818 195.491983 
L 333.556364 199.320626 
L 336.802909 206.831901 
L 340.049455 207.340299 
L 343.296 206.645599 
L 346.542545 206.806709 
L 349.789091 208.598679 
L 353.035636 206.930548 
L 356.282182 211.204405 
L 359.528727 223.511791 
L 362.775273 237.699687 
L 366.021818 248.007663 
L 369.268364 261.520141 
L 372.514909 272.119736 
L 375.761455 275.052369 
L 379.008 273.853702 
L 382.254545 262.952524 
L 385.501091 259.737083 
L 388.747636 257.022695 
L 391.994182 256.169015 
L 395.240727 261.753778 
L 398.487273 274.457626 
" clip-path="url(#pab7b3201dd)" style="fill: none; stroke: #d62728; stroke-linecap: square"/>
   </g>
   <g id="line2d_35">
    <path d="M 73.832727 148.957576 
L 77.079273 141.423582 
L 80.325818 136.65467 
L 83.572364 130.543319 
L 86.818909 123.46262 
L 90.065455 117.244133 
L 93.312 115.415765 
L 96.558545 121.647456 
L 99.805091 127.591744 
L 103.051636 139.950449 
L 106.298182 148.529361 
L 109.544727 158.956768 
L 112.791273 164.861361 
L 116.037818 162.605512 
L 119.284364 162.720153 
L 122.530909 155.634045 
L 125.777455 150.697177 
L 129.024 147.900445 
L 132.270545 140.785364 
L 135.517091 137.210165 
L 138.763636 128.776808 
L 142.010182 123.723056 
L 145.256727 125.240764 
L 148.503273 134.661644 
L 151.749818 157.875801 
L 154.996364 184.4072 
L 158.242909 205.273222 
L 161.489455 222.488355 
L 164.736 233.306055 
L 167.982545 241.486604 
L 171.229091 251.106794 
L 174.475636 251.53209 
L 177.722182 250.255485 
L 180.968727 251.832354 
L 184.215273 253.885591 
L 187.461818 261.232442 
L 190.708364 262.052461 
L 193.954909 257.245467 
L 197.201455 245.322444 
L 200.448 236.781802 
L 203.694545 242.227085 
L 206.941091 245.667265 
L 210.187636 246.967876 
L 213.434182 252.887095 
L 216.680727 259.349205 
L 219.927273 258.231065 
L 223.173818 245.567543 
L 226.420364 239.239121 
L 229.666909 235.920427 
L 232.913455 229.364516 
L 236.16 215.838346 
L 239.406545 210.191143 
L 242.653091 205.221153 
L 245.899636 193.578656 
L 249.146182 182.320967 
L 252.392727 174.755681 
L 255.639273 171.744461 
L 258.885818 169.57862 
L 262.132364 165.731363 
L 265.378909 166.906272 
L 268.625455 167.464063 
L 271.872 169.502679 
L 275.118545 166.755507 
L 278.365091 153.837565 
L 281.611636 143.157845 
L 284.858182 131.960405 
L 288.104727 118.507517 
L 291.351273 112.506448 
L 294.597818 99.162023 
L 297.844364 98.999438 
L 301.090909 110.538739 
L 304.337455 125.026737 
L 307.584 131.039937 
L 310.830545 142.029371 
L 314.077091 149.971294 
L 317.323636 153.179125 
L 320.570182 156.820296 
L 323.816727 157.132086 
L 327.063273 159.074694 
L 330.309818 169.76944 
L 333.556364 188.1992 
L 336.802909 198.0393 
L 340.049455 207.639677 
L 343.296 210.093749 
L 346.542545 208.961236 
L 349.789091 212.303088 
L 353.035636 222.262931 
L 356.282182 231.436081 
L 359.528727 235.568244 
L 362.775273 251.422913 
L 366.021818 261.407 
L 369.268364 265.111894 
L 372.514909 270.748282 
L 375.761455 280.656454 
L 379.008 282.642349 
L 382.254545 270.73077 
L 385.501091 258.384802 
L 388.747636 254.376048 
L 391.994182 252.127918 
L 395.240727 250.675466 
L 398.487273 254.791955 
" clip-path="url(#pab7b3201dd)" style="fill: none; stroke: #9467bd; stroke-linecap: square"/>
   </g>
   <g id="line2d_36">
    <path d="M 73.832727 91.757213 
L 77.079273 98.223046 
L 80.325818 104.286446 
L 83.572364 114.512327 
L 86.818909 124.653016 
L 90.065455 129.762741 
L 93.312 127.556391 
L 96.558545 127.573748 
L 99.805091 131.19175 
L 103.051636 131.475153 
L 106.298182 129.942772 
L 109.544727 132.689993 
L 112.791273 132.65738 
L 116.037818 129.305337 
L 119.284364 129.068161 
L 122.530909 129.379802 
L 125.777455 135.289294 
L 129.024 134.433027 
L 132.270545 129.759575 
L 135.517091 124.8141 
L 138.763636 124.781709 
L 142.010182 129.132374 
L 145.256727 140.196129 
L 148.503273 158.080798 
L 151.749818 171.920702 
L 154.996364 184.4072 
L 158.242909 196.286224 
L 161.489455 199.432476 
L 164.736 196.878788 
L 167.982545 204.069561 
L 171.229091 221.049721 
L 174.475636 236.996744 
L 177.722182 243.512615 
L 180.968727 250.935383 
L 184.215273 244.426533 
L 187.461818 231.601085 
L 190.708364 223.96871 
L 193.954909 220.648653 
L 197.201455 221.108278 
L 200.448 220.74851 
L 203.694545 216.943366 
L 206.941091 216.702171 
L 210.187636 213.714466 
L 213.434182 208.899475 
L 216.680727 204.425104 
L 219.927273 209.720533 
L 223.173818 215.932727 
L 226.420364 214.401149 
L 229.666909 214.44636 
L 232.913455 218.309647 
L 236.16 215.838346 
L 239.406545 207.660638 
L 242.653091 206.58724 
L 245.899636 206.787892 
L 249.146182 199.811293 
L 252.392727 187.20838 
L 255.639273 175.735974 
L 258.885818 168.363591 
L 262.132364 163.514769 
L 265.378909 164.387569 
L 268.625455 162.711675 
L 271.872 159.309728 
L 275.118545 149.389067 
L 278.365091 147.422467 
L 281.611636 143.907873 
L 284.858182 129.556273 
L 288.104727 118.988378 
L 291.351273 104.808577 
L 294.597818 93.908475 
L 297.844364 88.479538 
L 301.090909 89.72377 
L 304.337455 93.296917 
L 307.584 109.645473 
L 310.830545 121.254784 
L 314.077091 138.40419 
L 317.323636 150.971845 
L 320.570182 156.504062 
L 323.816727 168.183323 
L 327.063273 176.403988 
L 330.309818 175.787967 
L 333.556364 175.740751 
L 336.802909 190.215154 
L 340.049455 204.528499 
L 343.296 212.192957 
L 346.542545 215.108521 
L 349.789091 214.573465 
L 353.035636 219.460549 
L 356.282182 233.23785 
L 359.528727 241.90985 
L 362.775273 249.089881 
L 366.021818 254.827874 
L 369.268364 263.313747 
L 372.514909 270.463001 
L 375.761455 264.436095 
L 379.008 253.532548 
L 382.254545 252.395021 
L 385.501091 262.398286 
L 388.747636 271.283257 
L 391.994182 274.777744 
L 395.240727 272.46019 
L 398.487273 266.694453 
" clip-path="url(#pab7b3201dd)" style="fill: none; stroke: #8c564b; stroke-linecap: square"/>
   </g>
   <g id="line2d_37">
    <path d="M 73.832727 130.278752 
L 77.079273 130.851102 
L 80.325818 125.285845 
L 83.572364 118.197606 
L 86.818909 127.177261 
L 90.065455 129.638175 
L 93.312 129.265921 
L 96.558545 124.403312 
L 99.805091 129.326791 
L 103.051636 133.645132 
L 106.298182 137.978153 
L 109.544727 149.456581 
L 112.791273 164.063912 
L 116.037818 172.316525 
L 119.284364 176.256015 
L 122.530909 187.334897 
L 125.777455 196.355134 
L 129.024 200.749607 
L 132.270545 201.118185 
L 135.517091 203.778075 
L 138.763636 206.028868 
L 142.010182 201.272213 
L 145.256727 198.584693 
L 148.503273 197.871834 
L 151.749818 191.341889 
L 154.996364 184.4072 
L 158.242909 189.376937 
L 161.489455 202.081967 
L 164.736 206.868947 
L 167.982545 215.191941 
L 171.229091 217.383093 
L 174.475636 225.112743 
L 177.722182 238.466248 
L 180.968727 249.649397 
L 184.215273 250.46641 
L 187.461818 244.520819 
L 190.708364 236.915116 
L 193.954909 223.312839 
L 197.201455 221.326179 
L 200.448 216.682977 
L 203.694545 209.795833 
L 206.941091 212.273231 
L 210.187636 214.812663 
L 213.434182 213.367951 
L 216.680727 207.31974 
L 219.927273 206.236627 
L 223.173818 215.194649 
L 226.420364 221.369381 
L 229.666909 225.942621 
L 232.913455 227.58819 
L 236.16 215.838346 
L 239.406545 205.574872 
L 242.653091 200.412264 
L 245.899636 197.742864 
L 249.146182 189.99723 
L 252.392727 178.81854 
L 255.639273 170.728042 
L 258.885818 167.154857 
L 262.132364 161.558802 
L 265.378909 146.587481 
L 268.625455 134.429237 
L 271.872 125.739925 
L 275.118545 122.039615 
L 278.365091 119.112198 
L 281.611636 122.232546 
L 284.858182 123.609679 
L 288.104727 120.164728 
L 291.351273 125.340555 
L 294.597818 130.41843 
L 297.844364 118.235167 
L 301.090909 108.660087 
L 304.337455 96.364361 
L 307.584 96.918198 
L 310.830545 99.572375 
L 314.077091 96.858686 
L 317.323636 89.130189 
L 320.570182 79.625692 
L 323.816727 68.025181 
L 327.063273 57.72052 
L 330.309818 53.568 
L 333.556364 55.374809 
L 336.802909 64.90222 
L 340.049455 76.257336 
L 343.296 97.590154 
L 346.542545 130.927616 
L 349.789091 161.046894 
L 353.035636 185.012315 
L 356.282182 206.450991 
L 359.528727 216.396144 
L 362.775273 225.703224 
L 366.021818 241.229933 
L 369.268364 259.822268 
L 372.514909 273.868262 
L 375.761455 276.207125 
L 379.008 276.569977 
L 382.254545 273.866275 
L 385.501091 257.359806 
L 388.747636 245.762389 
L 391.994182 228.817817 
L 395.240727 211.371311 
L 398.487273 196.789235 
" clip-path="url(#pab7b3201dd)" style="fill: none; stroke: #e377c2; stroke-linecap: square"/>
   </g>
   <g id="patch_3">
    <path d="M 57.6 307.584 
L 57.6 41.472 
" style="fill: none; stroke: #000000; stroke-width: 0.8; stroke-linejoin: miter; stroke-linecap: square"/>
   </g>
   <g id="patch_4">
    <path d="M 414.72 307.584 
L 414.72 41.472 
" style="fill: none; stroke: #000000; stroke-width: 0.8; stroke-linejoin: miter; stroke-linecap: square"/>
   </g>
   <g id="patch_5">
    <path d="M 57.6 307.584 
L 414.72 307.584 
" style="fill: none; stroke: #000000; stroke-width: 0.8; stroke-linejoin: miter; stroke-linecap: square"/>
   </g>
   <g id="patch_6">
    <path d="M 57.6 41.472 
L 414.72 41.472 
" style="fill: none; stroke: #000000; stroke-width: 0.8; stroke-linejoin: miter; stroke-linecap: square"/>
   </g>
   <g id="line2d_38">
    <path d="M 73.832727 164.804919 
L 77.079273 150.338423 
L 80.325818 140.50577 
L 83.572364 134.461837 
L 86.818909 130.838266 
L 90.065455 129.03838 
L 93.312 129.49447 
L 96.558545 130.196052 
L 99.805091 132.832504 
L 103.051636 128.890406 
L 106.298182 132.382638 
L 109.544727 146.733478 
L 112.791273 158.936341 
L 116.037818 163.347391 
L 119.284364 164.147681 
L 122.530909 162.462537 
L 125.777455 157.24428 
L 129.024 154.810614 
L 132.270545 159.522043 
L 135.517091 168.018213 
L 138.763636 174.732371 
L 142.010182 179.16348 
L 145.256727 185.283682 
L 148.503273 188.931455 
L 151.749818 189.712509 
L 154.996364 184.4072 
L 158.242909 183.558375 
L 161.489455 196.614384 
L 164.736 217.53912 
L 167.982545 225.577945 
L 171.229091 227.87472 
L 174.475636 236.058643 
L 177.722182 245.068639 
L 180.968727 253.79035 
L 184.215273 247.319566 
L 187.461818 244.41872 
L 190.708364 246.95245 
L 193.954909 253.342976 
L 197.201455 256.095644 
L 200.448 266.183844 
L 203.694545 273.303689 
L 206.941091 279.057827 
L 210.187636 284.243091 
L 213.434182 286.866609 
L 216.680727 284.108027 
L 219.927273 283.326789 
L 223.173818 281.9296 
L 226.420364 272.442404 
L 229.666909 250.70512 
L 232.913455 230.415257 
L 236.16 215.838346 
L 239.406545 205.929729 
L 242.653091 201.352501 
L 245.899636 193.071231 
L 249.146182 178.332145 
L 252.392727 165.360842 
L 255.639273 154.828405 
L 258.885818 149.44106 
L 262.132364 154.17979 
L 265.378909 157.90373 
L 268.625455 161.91775 
L 271.872 155.130471 
L 275.118545 141.746897 
L 278.365091 137.313025 
L 281.611636 134.038418 
L 284.858182 126.698649 
L 288.104727 119.055216 
L 291.351273 112.592408 
L 294.597818 108.829276 
L 297.844364 118.261404 
L 301.090909 132.51156 
L 304.337455 148.637771 
L 307.584 156.171865 
L 310.830545 167.736892 
L 314.077091 184.054302 
L 317.323636 205.867874 
L 320.570182 224.44428 
L 323.816727 230.98428 
L 327.063273 232.252683 
L 330.309818 238.711566 
L 333.556364 243.543537 
L 336.802909 253.772645 
L 340.049455 257.947101 
L 343.296 253.212385 
L 346.542545 239.353276 
L 349.789091 231.148856 
L 353.035636 232.646442 
L 356.282182 232.920858 
L 359.528727 233.628362 
L 362.775273 239.800757 
L 366.021818 250.369139 
L 369.268364 263.008992 
L 372.514909 271.364393 
L 375.761455 270.195148 
L 379.008 262.60566 
L 382.254545 255.682014 
L 385.501091 262.087512 
L 388.747636 271.960686 
L 391.994182 275.337994 
L 395.240727 273.780797 
L 398.487273 277.164178 
" clip-path="url(#pab7b3201dd)" style="fill: none; stroke: #7f7f7f; stroke-linecap: square"/>
   </g>
   <g id="line2d_39">
    <path d="M 73.832727 110.966088 
L 77.079273 113.359738 
L 80.325818 114.374322 
L 83.572364 108.949271 
L 86.818909 111.94723 
L 90.065455 112.349176 
L 93.312 121.668429 
L 96.558545 127.138303 
L 99.805091 130.532091 
L 103.051636 136.304189 
L 106.298182 144.943773 
L 109.544727 138.155069 
L 112.791273 121.168229 
L 116.037818 108.951176 
L 119.284364 104.76766 
L 122.530909 104.478948 
L 125.777455 106.063069 
L 129.024 113.204668 
L 132.270545 116.30729 
L 135.517091 114.274374 
L 138.763636 117.79518 
L 142.010182 133.597268 
L 145.256727 152.59899 
L 148.503273 168.427984 
L 151.749818 178.320145 
L 154.996364 184.4072 
L 158.242909 184.61132 
L 161.489455 183.707206 
L 164.736 188.241311 
L 167.982545 203.885986 
L 171.229091 220.297245 
L 174.475636 234.633009 
L 177.722182 250.23807 
L 180.968727 252.742315 
L 184.215273 252.789117 
L 187.461818 255.761141 
L 190.708364 258.978443 
L 193.954909 264.92438 
L 197.201455 266.759252 
L 200.448 259.961717 
L 203.694545 253.382783 
L 206.941091 253.388339 
L 210.187636 253.590629 
L 213.434182 249.35751 
L 216.680727 243.469515 
L 219.927273 245.714342 
L 223.173818 244.061671 
L 226.420364 235.0685 
L 229.666909 226.508351 
L 232.913455 218.829542 
L 236.16 215.838346 
L 239.406545 213.420847 
L 242.653091 206.073116 
L 245.899636 200.192545 
L 249.146182 186.69412 
L 252.392727 172.711165 
L 255.639273 158.603458 
L 258.885818 151.585762 
L 262.132364 145.510626 
L 265.378909 146.074714 
L 268.625455 148.836965 
L 271.872 144.97998 
L 275.118545 147.421185 
L 278.365091 146.71636 
L 281.611636 141.369205 
L 284.858182 132.255062 
L 288.104727 117.734136 
L 291.351273 105.500078 
L 294.597818 97.936147 
L 297.844364 88.616651 
L 301.090909 76.703676 
L 304.337455 75.414608 
L 307.584 85.251162 
L 310.830545 88.264077 
L 314.077091 92.514465 
L 317.323636 100.475471 
L 320.570182 116.37201 
L 323.816727 137.432877 
L 327.063273 161.978048 
L 330.309818 189.846681 
L 333.556364 208.098274 
L 336.802909 218.788014 
L 340.049455 221.618315 
L 343.296 222.617631 
L 346.542545 218.297639 
L 349.789091 220.137341 
L 353.035636 233.582696 
L 356.282182 236.983645 
L 359.528727 247.713888 
L 362.775273 255.386526 
L 366.021818 266.357719 
L 369.268364 270.601475 
L 372.514909 266.099591 
L 375.761455 260.424511 
L 379.008 262.243373 
L 382.254545 262.355894 
L 385.501091 259.899963 
L 388.747636 264.177261 
L 391.994182 273.33179 
L 395.240727 281.215393 
L 398.487273 289.472025 
" clip-path="url(#pab7b3201dd)" style="fill: none; stroke: #bcbd22; stroke-linecap: square"/>
   </g>
   <g id="line2d_40">
    <path d="M 73.832727 129.455501 
L 77.079273 115.018056 
L 80.325818 99.578073 
L 83.572364 89.613266 
L 86.818909 88.423965 
L 90.065455 94.23099 
L 93.312 108.021557 
L 96.558545 117.289794 
L 99.805091 128.375534 
L 103.051636 139.155624 
L 106.298182 141.095335 
L 109.544727 140.636455 
L 112.791273 135.68498 
L 116.037818 127.5982 
L 119.284364 111.380812 
L 122.530909 108.681287 
L 125.777455 102.163448 
L 129.024 101.617021 
L 132.270545 109.76321 
L 135.517091 124.09928 
L 138.763636 137.934531 
L 142.010182 149.837656 
L 145.256727 162.843005 
L 148.503273 167.572419 
L 151.749818 175.110392 
L 154.996364 184.4072 
L 158.242909 203.369515 
L 161.489455 214.579394 
L 164.736 222.898358 
L 167.982545 237.607466 
L 171.229091 243.605425 
L 174.475636 243.644491 
L 177.722182 248.326127 
L 180.968727 253.02696 
L 184.215273 254.838312 
L 187.461818 258.915574 
L 190.708364 251.744125 
L 193.954909 246.71947 
L 197.201455 230.719308 
L 200.448 220.585818 
L 203.694545 215.607582 
L 206.941091 217.908844 
L 210.187636 215.943317 
L 213.434182 215.588631 
L 216.680727 222.823617 
L 219.927273 223.268401 
L 223.173818 217.823901 
L 226.420364 215.43555 
L 229.666909 217.051132 
L 232.913455 213.345582 
L 236.16 215.838346 
L 239.406545 212.589731 
L 242.653091 209.287786 
L 245.899636 206.166757 
L 249.146182 198.135376 
L 252.392727 192.760466 
L 255.639273 187.420728 
L 258.885818 187.472249 
L 262.132364 183.599457 
L 265.378909 175.851433 
L 268.625455 168.980547 
L 271.872 163.273383 
L 275.118545 153.625123 
L 278.365091 141.928385 
L 281.611636 133.776366 
L 284.858182 128.813303 
L 288.104727 118.058456 
L 291.351273 103.774799 
L 294.597818 92.502469 
L 297.844364 86.471404 
L 301.090909 84.340785 
L 304.337455 86.018411 
L 307.584 89.103907 
L 310.830545 96.37282 
L 314.077091 101.383332 
L 317.323636 107.137326 
L 320.570182 116.317385 
L 323.816727 126.045765 
L 327.063273 140.88185 
L 330.309818 149.34496 
L 333.556364 149.71635 
L 336.802909 148.76756 
L 340.049455 153.359502 
L 343.296 155.813656 
L 346.542545 165.108433 
L 349.789091 184.733898 
L 353.035636 205.59772 
L 356.282182 226.489047 
L 359.528727 234.616961 
L 362.775273 247.268803 
L 366.021818 261.939403 
L 369.268364 268.320072 
L 372.514909 269.356967 
L 375.761455 276.222175 
L 379.008 278.976763 
L 382.254545 271.921381 
L 385.501091 257.593991 
L 388.747636 238.203369 
L 391.994182 219.723609 
L 395.240727 205.925524 
L 398.487273 191.457834 
" clip-path="url(#pab7b3201dd)" style="fill: none; stroke: #17becf; stroke-linecap: square"/>
   </g>
   <g id="line2d_41">
    <path d="M 73.832727 194.954618 
L 77.079273 186.007236 
L 80.325818 177.188542 
L 83.572364 168.625372 
L 86.818909 160.440889 
L 90.065455 152.752807 
L 93.312 145.671703 
L 96.558545 139.299421 
L 99.805091 133.727613 
L 103.051636 129.036416 
L 106.298182 125.293303 
L 109.544727 122.552109 
L 112.791273 120.852262 
L 116.037818 120.218208 
L 119.284364 120.659068 
L 122.530909 122.1685 
L 125.777455 124.724796 
L 129.024 128.291187 
L 132.270545 132.816381 
L 135.517091 138.235293 
L 138.763636 144.469982 
L 142.010182 151.430779 
L 145.256727 159.017567 
L 148.503273 167.121228 
L 151.749818 175.62521 
L 154.996364 184.4072 
L 158.242909 193.340892 
L 161.489455 202.297793 
L 164.736 211.149079 
L 167.982545 219.767445 
L 171.229091 228.028935 
L 174.475636 235.814726 
L 177.722182 243.012836 
L 180.968727 249.519739 
L 184.215273 255.241846 
L 187.461818 260.096859 
L 190.708364 264.014948 
L 193.954909 266.939761 
L 197.201455 268.829232 
L 200.448 269.656184 
L 203.694545 269.408724 
L 206.941091 268.09041 
L 210.187636 265.720205 
L 213.434182 262.332197 
L 216.680727 257.975116 
L 219.927273 252.711628 
L 223.173818 246.617436 
L 226.420364 239.780193 
L 229.666909 232.298235 
L 232.913455 224.279174 
L 236.16 215.838346 
L 239.406545 207.097153 
L 242.653091 198.181318 
L 245.899636 189.219073 
L 249.146182 180.339322 
L 252.392727 171.669778 
L 255.639273 163.335134 
L 258.885818 155.455264 
L 262.132364 148.143502 
L 265.378909 141.505013 
L 268.625455 135.635274 
L 271.872 130.618709 
L 275.118545 126.527471 
L 278.365091 123.420401 
L 281.611636 121.342188 
L 284.858182 120.322723 
L 288.104727 120.376669 
L 291.351273 121.503249 
L 294.597818 123.686259 
L 297.844364 126.894304 
L 301.090909 131.081241 
L 304.337455 136.186852 
L 307.584 142.137703 
L 310.830545 148.848206 
L 314.077091 156.221845 
L 317.323636 164.152567 
L 320.570182 172.526306 
L 323.816727 181.222626 
L 327.063273 190.116449 
L 330.309818 199.079858 
L 333.556364 207.983935 
L 336.802909 216.700615 
L 340.049455 225.104528 
L 343.296 233.074803 
L 346.542545 240.496806 
L 349.789091 247.263788 
L 353.035636 253.278422 
L 356.282182 258.4542 
L 359.528727 262.71668 
L 362.775273 266.004558 
L 366.021818 268.270543 
L 369.268364 269.482045 
L 372.514909 269.62164 
L 375.761455 268.687319 
L 379.008 266.692521 
L 382.254545 263.665936 
L 385.501091 259.651095 
L 388.747636 254.705742 
L 391.994182 248.901005 
L 395.240727 242.320371 
L 398.487273 235.058489 
" clip-path="url(#pab7b3201dd)" style="fill: none; stroke-dasharray: 3.7,1.6; stroke-dashoffset: 0; stroke: #000000"/>
   </g>
   <g id="PathCollection_1">
    <defs>
     <path id="mba6518038b" d="M -3 0 
L 3 0 
M 0 3 
L 0 -3 
" style="stroke: #ff0000; stroke-width: 1.5"/>
    </defs>
    <g clip-path="url(#pab7b3201dd)">
     <use xlink:href="#mba6518038b" x="100.887273" y="132.062432" style="fill: #ff0000; stroke: #ff0000; stroke-width: 1.5"/>
     <use xlink:href="#mba6518038b" x="154.996364" y="184.4072" style="fill: #ff0000; stroke: #ff0000; stroke-width: 1.5"/>
     <use xlink:href="#mba6518038b" x="182.050909" y="251.518616" style="fill: #ff0000; stroke: #ff0000; stroke-width: 1.5"/>
     <use xlink:href="#mba6518038b" x="236.16" y="215.838346" style="fill: #ff0000; stroke: #ff0000; stroke-width: 1.5"/>
     <use xlink:href="#mba6518038b" x="287.563636" y="120.292977" style="fill: #ff0000; stroke: #ff0000; stroke-width: 1.5"/>
     <use xlink:href="#mba6518038b" x="371.432727" y="269.694652" style="fill: #ff0000; stroke: #ff0000; stroke-width: 1.5"/>
     <use xlink:href="#mba6518038b" x="384.96" y="260.386584" style="fill: #ff0000; stroke: #ff0000; stroke-width: 1.5"/>
    </g>
   </g>
   <g id="legend_1">
    <g id="patch_7">
     <path d="M 314.909063 80.82825 
L 409.72 80.82825 
Q 411.72 80.82825 411.72 78.82825 
L 411.72 50.472 
Q 411.72 48.472 409.72 48.472 
L 314.909063 48.472 
Q 312.909063 48.472 312.909063 50.472 
L 312.909063 78.82825 
Q 312.909063 80.82825 314.909063 80.82825 
z
" style="fill: #4d4d4d; opacity: 0.5; stroke: #4d4d4d; stroke-linejoin: miter"/>
    </g>
    <g id="patch_8">
     <path d="M 312.909063 78.82825 
L 407.72 78.82825 
Q 409.72 78.82825 409.72 76.82825 
L 409.72 48.472 
Q 409.72 46.472 407.72 46.472 
L 312.909063 46.472 
Q 310.909063 46.472 310.909063 48.472 
L 310.909063 76.82825 
Q 310.909063 78.82825 312.909063 78.82825 
z
" style="fill: #ffffff; stroke: #cccccc; stroke-linejoin: miter"/>
    </g>
    <g id="line2d_42">
     <path d="M 314.909063 54.570437 
L 324.909063 54.570437 
L 334.909063 54.570437 
" style="fill: none; stroke-dasharray: 3.7,1.6; stroke-dashoffset: 0; stroke: #000000"/>
    </g>
    <g id="text_18">
     <!-- model -->
     <g transform="translate(342.909063 58.070437) scale(0.1 -0.1)">
      <defs>
       <path id="DejaVuSans-6d" d="M 3328 2828 
Q 3544 3216 3844 3400 
Q 4144 3584 4550 3584 
Q 5097 3584 5394 3201 
Q 5691 2819 5691 2113 
L 5691 0 
L 5113 0 
L 5113 2094 
Q 5113 2597 4934 2840 
Q 4756 3084 4391 3084 
Q 3944 3084 3684 2787 
Q 3425 2491 3425 1978 
L 3425 0 
L 2847 0 
L 2847 2094 
Q 2847 2600 2669 2842 
Q 2491 3084 2119 3084 
Q 1678 3084 1418 2786 
Q 1159 2488 1159 1978 
L 1159 0 
L 581 0 
L 581 3500 
L 1159 3500 
L 1159 2956 
Q 1356 3278 1631 3431 
Q 1906 3584 2284 3584 
Q 2666 3584 2933 3390 
Q 3200 3197 3328 2828 
z
" transform="scale(0.015625)"/>
       <path id="DejaVuSans-6f" d="M 1959 3097 
Q 1497 3097 1228 2736 
Q 959 2375 959 1747 
Q 959 1119 1226 758 
Q 1494 397 1959 397 
Q 2419 397 2687 759 
Q 2956 1122 2956 1747 
Q 2956 2369 2687 2733 
Q 2419 3097 1959 3097 
z
M 1959 3584 
Q 2709 3584 3137 3096 
Q 3566 2609 3566 1747 
Q 3566 888 3137 398 
Q 2709 -91 1959 -91 
Q 1206 -91 779 398 
Q 353 888 353 1747 
Q 353 2609 779 3096 
Q 1206 3584 1959 3584 
z
" transform="scale(0.015625)"/>
       <path id="DejaVuSans-64" d="M 2906 2969 
L 2906 4863 
L 3481 4863 
L 3481 0 
L 2906 0 
L 2906 525 
Q 2725 213 2448 61 
Q 2172 -91 1784 -91 
Q 1150 -91 751 415 
Q 353 922 353 1747 
Q 353 2572 751 3078 
Q 1150 3584 1784 3584 
Q 2172 3584 2448 3432 
Q 2725 3281 2906 2969 
z
M 947 1747 
Q 947 1113 1208 752 
Q 1469 391 1925 391 
Q 2381 391 2643 752 
Q 2906 1113 2906 1747 
Q 2906 2381 2643 2742 
Q 2381 3103 1925 3103 
Q 1469 3103 1208 2742 
Q 947 2381 947 1747 
z
" transform="scale(0.015625)"/>
       <path id="DejaVuSans-65" d="M 3597 1894 
L 3597 1613 
L 953 1613 
Q 991 1019 1311 708 
Q 1631 397 2203 397 
Q 2534 397 2845 478 
Q 3156 559 3463 722 
L 3463 178 
Q 3153 47 2828 -22 
Q 2503 -91 2169 -91 
Q 1331 -91 842 396 
Q 353 884 353 1716 
Q 353 2575 817 3079 
Q 1281 3584 2069 3584 
Q 2775 3584 3186 3129 
Q 3597 2675 3597 1894 
z
M 3022 2063 
Q 3016 2534 2758 2815 
Q 2500 3097 2075 3097 
Q 1594 3097 1305 2825 
Q 1016 2553 972 2059 
L 3022 2063 
z
" transform="scale(0.015625)"/>
       <path id="DejaVuSans-6c" d="M 603 4863 
L 1178 4863 
L 1178 0 
L 603 0 
L 603 4863 
z
" transform="scale(0.015625)"/>
      </defs>
      <use xlink:href="#DejaVuSans-6d"/>
      <use xlink:href="#DejaVuSans-6f" transform="translate(97.412109 0)"/>
      <use xlink:href="#DejaVuSans-64" transform="translate(158.59375 0)"/>
      <use xlink:href="#DejaVuSans-65" transform="translate(222.070312 0)"/>
      <use xlink:href="#DejaVuSans-6c" transform="translate(283.59375 0)"/>
     </g>
    </g>
    <g id="PathCollection_2">
     <g>
      <use xlink:href="#mba6518038b" x="324.909063" y="70.123562" style="fill: #ff0000; stroke: #ff0000; stroke-width: 1.5"/>
     </g>
    </g>
    <g id="text_19">
     <!-- train sample -->
     <g transform="translate(342.909063 72.748562) scale(0.1 -0.1)">
      <defs>
       <path id="DejaVuSans-74" d="M 1172 4494 
L 1172 3500 
L 2356 3500 
L 2356 3053 
L 1172 3053 
L 1172 1153 
Q 1172 725 1289 603 
Q 1406 481 1766 481 
L 2356 481 
L 2356 0 
L 1766 0 
Q 1100 0 847 248 
Q 594 497 594 1153 
L 594 3053 
L 172 3053 
L 172 3500 
L 594 3500 
L 594 4494 
L 1172 4494 
z
" transform="scale(0.015625)"/>
       <path id="DejaVuSans-72" d="M 2631 2963 
Q 2534 3019 2420 3045 
Q 2306 3072 2169 3072 
Q 1681 3072 1420 2755 
Q 1159 2438 1159 1844 
L 1159 0 
L 581 0 
L 581 3500 
L 1159 3500 
L 1159 2956 
Q 1341 3275 1631 3429 
Q 1922 3584 2338 3584 
Q 2397 3584 2469 3576 
Q 2541 3569 2628 3553 
L 2631 2963 
z
" transform="scale(0.015625)"/>
       <path id="DejaVuSans-61" d="M 2194 1759 
Q 1497 1759 1228 1600 
Q 959 1441 959 1056 
Q 959 750 1161 570 
Q 1363 391 1709 391 
Q 2188 391 2477 730 
Q 2766 1069 2766 1631 
L 2766 1759 
L 2194 1759 
z
M 3341 1997 
L 3341 0 
L 2766 0 
L 2766 531 
Q 2569 213 2275 61 
Q 1981 -91 1556 -91 
Q 1019 -91 701 211 
Q 384 513 384 1019 
Q 384 1609 779 1909 
Q 1175 2209 1959 2209 
L 2766 2209 
L 2766 2266 
Q 2766 2663 2505 2880 
Q 2244 3097 1772 3097 
Q 1472 3097 1187 3025 
Q 903 2953 641 2809 
L 641 3341 
Q 956 3463 1253 3523 
Q 1550 3584 1831 3584 
Q 2591 3584 2966 3190 
Q 3341 2797 3341 1997 
z
" transform="scale(0.015625)"/>
       <path id="DejaVuSans-69" d="M 603 3500 
L 1178 3500 
L 1178 0 
L 603 0 
L 603 3500 
z
M 603 4863 
L 1178 4863 
L 1178 4134 
L 603 4134 
L 603 4863 
z
" transform="scale(0.015625)"/>
       <path id="DejaVuSans-6e" d="M 3513 2113 
L 3513 0 
L 2938 0 
L 2938 2094 
Q 2938 2591 2744 2837 
Q 2550 3084 2163 3084 
Q 1697 3084 1428 2787 
Q 1159 2491 1159 1978 
L 1159 0 
L 581 0 
L 581 3500 
L 1159 3500 
L 1159 2956 
Q 1366 3272 1645 3428 
Q 1925 3584 2291 3584 
Q 2894 3584 3203 3211 
Q 3513 2838 3513 2113 
z
" transform="scale(0.015625)"/>
       <path id="DejaVuSans-20" transform="scale(0.015625)"/>
       <path id="DejaVuSans-73" d="M 2834 3397 
L 2834 2853 
Q 2591 2978 2328 3040 
Q 2066 3103 1784 3103 
Q 1356 3103 1142 2972 
Q 928 2841 928 2578 
Q 928 2378 1081 2264 
Q 1234 2150 1697 2047 
L 1894 2003 
Q 2506 1872 2764 1633 
Q 3022 1394 3022 966 
Q 3022 478 2636 193 
Q 2250 -91 1575 -91 
Q 1294 -91 989 -36 
Q 684 19 347 128 
L 347 722 
Q 666 556 975 473 
Q 1284 391 1588 391 
Q 1994 391 2212 530 
Q 2431 669 2431 922 
Q 2431 1156 2273 1281 
Q 2116 1406 1581 1522 
L 1381 1569 
Q 847 1681 609 1914 
Q 372 2147 372 2553 
Q 372 3047 722 3315 
Q 1072 3584 1716 3584 
Q 2034 3584 2315 3537 
Q 2597 3491 2834 3397 
z
" transform="scale(0.015625)"/>
       <path id="DejaVuSans-70" d="M 1159 525 
L 1159 -1331 
L 581 -1331 
L 581 3500 
L 1159 3500 
L 1159 2969 
Q 1341 3281 1617 3432 
Q 1894 3584 2278 3584 
Q 2916 3584 3314 3078 
Q 3713 2572 3713 1747 
Q 3713 922 3314 415 
Q 2916 -91 2278 -91 
Q 1894 -91 1617 61 
Q 1341 213 1159 525 
z
M 3116 1747 
Q 3116 2381 2855 2742 
Q 2594 3103 2138 3103 
Q 1681 3103 1420 2742 
Q 1159 2381 1159 1747 
Q 1159 1113 1420 752 
Q 1681 391 2138 391 
Q 2594 391 2855 752 
Q 3116 1113 3116 1747 
z
" transform="scale(0.015625)"/>
      </defs>
      <use xlink:href="#DejaVuSans-74"/>
      <use xlink:href="#DejaVuSans-72" transform="translate(39.208984 0)"/>
      <use xlink:href="#DejaVuSans-61" transform="translate(80.322266 0)"/>
      <use xlink:href="#DejaVuSans-69" transform="translate(141.601562 0)"/>
      <use xlink:href="#DejaVuSans-6e" transform="translate(169.384766 0)"/>
      <use xlink:href="#DejaVuSans-20" transform="translate(232.763672 0)"/>
      <use xlink:href="#DejaVuSans-73" transform="translate(264.550781 0)"/>
      <use xlink:href="#DejaVuSans-61" transform="translate(316.650391 0)"/>
      <use xlink:href="#DejaVuSans-6d" transform="translate(377.929688 0)"/>
      <use xlink:href="#DejaVuSans-70" transform="translate(475.341797 0)"/>
      <use xlink:href="#DejaVuSans-6c" transform="translate(538.818359 0)"/>
      <use xlink:href="#DejaVuSans-65" transform="translate(566.601562 0)"/>
     </g>
    </g>
   </g>
  </g>
  <g id="text_20">
   <!-- 10 simulated trajectories -->
   <g transform="translate(155.187187 16.030125) scale(0.12 -0.12)">
    <defs>
     <path id="DejaVuSans-75" d="M 544 1381 
L 544 3500 
L 1119 3500 
L 1119 1403 
Q 1119 906 1312 657 
Q 1506 409 1894 409 
Q 2359 409 2629 706 
Q 2900 1003 2900 1516 
L 2900 3500 
L 3475 3500 
L 3475 0 
L 2900 0 
L 2900 538 
Q 2691 219 2414 64 
Q 2138 -91 1772 -91 
Q 1169 -91 856 284 
Q 544 659 544 1381 
z
M 1991 3584 
L 1991 3584 
z
" transform="scale(0.015625)"/>
     <path id="DejaVuSans-6a" d="M 603 3500 
L 1178 3500 
L 1178 -63 
Q 1178 -731 923 -1031 
Q 669 -1331 103 -1331 
L -116 -1331 
L -116 -844 
L 38 -844 
Q 366 -844 484 -692 
Q 603 -541 603 -63 
L 603 3500 
z
M 603 4863 
L 1178 4863 
L 1178 4134 
L 603 4134 
L 603 4863 
z
" transform="scale(0.015625)"/>
     <path id="DejaVuSans-63" d="M 3122 3366 
L 3122 2828 
Q 2878 2963 2633 3030 
Q 2388 3097 2138 3097 
Q 1578 3097 1268 2742 
Q 959 2388 959 1747 
Q 959 1106 1268 751 
Q 1578 397 2138 397 
Q 2388 397 2633 464 
Q 2878 531 3122 666 
L 3122 134 
Q 2881 22 2623 -34 
Q 2366 -91 2075 -91 
Q 1284 -91 818 406 
Q 353 903 353 1747 
Q 353 2603 823 3093 
Q 1294 3584 2113 3584 
Q 2378 3584 2631 3529 
Q 2884 3475 3122 3366 
z
" transform="scale(0.015625)"/>
    </defs>
    <use xlink:href="#DejaVuSans-31"/>
    <use xlink:href="#DejaVuSans-30" transform="translate(63.623047 0)"/>
    <use xlink:href="#DejaVuSans-20" transform="translate(127.246094 0)"/>
    <use xlink:href="#DejaVuSans-73" transform="translate(159.033203 0)"/>
    <use xlink:href="#DejaVuSans-69" transform="translate(211.132812 0)"/>
    <use xlink:href="#DejaVuSans-6d" transform="translate(238.916016 0)"/>
    <use xlink:href="#DejaVuSans-75" transform="translate(336.328125 0)"/>
    <use xlink:href="#DejaVuSans-6c" transform="translate(399.707031 0)"/>
    <use xlink:href="#DejaVuSans-61" transform="translate(427.490234 0)"/>
    <use xlink:href="#DejaVuSans-74" transform="translate(488.769531 0)"/>
    <use xlink:href="#DejaVuSans-65" transform="translate(527.978516 0)"/>
    <use xlink:href="#DejaVuSans-64" transform="translate(589.501953 0)"/>
    <use xlink:href="#DejaVuSans-20" transform="translate(652.978516 0)"/>
    <use xlink:href="#DejaVuSans-74" transform="translate(684.765625 0)"/>
    <use xlink:href="#DejaVuSans-72" transform="translate(723.974609 0)"/>
    <use xlink:href="#DejaVuSans-61" transform="translate(765.087891 0)"/>
    <use xlink:href="#DejaVuSans-6a" transform="translate(826.367188 0)"/>
    <use xlink:href="#DejaVuSans-65" transform="translate(854.150391 0)"/>
    <use xlink:href="#DejaVuSans-63" transform="translate(915.673828 0)"/>
    <use xlink:href="#DejaVuSans-74" transform="translate(970.654297 0)"/>
    <use xlink:href="#DejaVuSans-6f" transform="translate(1009.863281 0)"/>
    <use xlink:href="#DejaVuSans-72" transform="translate(1071.044922 0)"/>
    <use xlink:href="#DejaVuSans-69" transform="translate(1112.158203 0)"/>
    <use xlink:href="#DejaVuSans-65" transform="translate(1139.941406 0)"/>
    <use xlink:href="#DejaVuSans-73" transform="translate(1201.464844 0)"/>
   </g>
  </g>
 </g>
 <defs>
  <clipPath id="pab7b3201dd">
   <rect x="57.6" y="41.472" width="357.12" height="266.112"/>
  </clipPath>
 </defs>
</svg>
