<?xml version="1.0" encoding="utf-8" standalone="no"?>
<!DOCTYPE svg PUBLIC "-//W3C//DTD SVG 1.1//EN"
  "http://www.w3.org/Graphics/SVG/1.1/DTD/svg11.dtd">
<svg xmlns:xlink="http://www.w3.org/1999/xlink" width="460.8pt" height="345.6pt" viewBox="0 0 460.8 345.6" xmlns="http://www.w3.org/2000/svg" version="1.1">
 <metadata>
  <rdf:RDF xmlns:dc="http://purl.org/dc/elements/1.1/" xmlns:cc="http://creativecommons.org/ns#" xmlns:rdf="http://www.w3.org/1999/02/22-rdf-syntax-ns#">
   <cc:Work>
    <dc:type rdf:resource="http://purl.org/dc/dcmitype/StillImage"/>
    <dc:date>2026-03-11T17:49:46.809894</dc:date>
    <dc:format>image/svg+xml</dc:format>
    <dc:creator>
     <cc:Agent>
      <dc:title>Matplotlib v3.10.8, https://matplotlib.org/</dc:title>
     </cc:Agent>
    </dc:creator>
   </cc:Work>
  </rdf:RDF>
 </metadata>
 <defs>
  <style type="text/css">*{stroke-linejoin: round; stroke-linecap: butt}</style>
 </defs>
 <g id="figure_1">
  <g id="patch_1">
   <path d="M 0 345.6 
L 460.8 345.6 
L 460.8 0 
L 0 0 
z
" style="fill: #ffffff"/>
  </g>
  <g id="axes_1">
   <g id="patch_2">
    <path d="M 57.6 307.584 
L 414.72 307.584 
L 414.72 41.472 
L 57.6 41.472 
z
" style="fill: #ffffff"/>
   </g>
   <g id="matplotlib.axis_1">
    <g id="xtick_1">
     <g id="line2d_1">
      <path d="M 73.832727 307.584 
L 73.832727 41.472 
" clip-path="url(#pece686282c)" style="fill: none; stroke: #b0b0b0; stroke-width: 0.8; stroke-linecap: square"/>
     </g>
     <g id="line2d_2">
      <defs>
       <path id="m4a92d99fee" d="M 0 0 
L 0 3.5 
" style="stroke: #000000; stroke-width: 0.8"/>
      </defs>
      <g>
       <use xlink:href="#m4a92d99fee" x="73.832727" y="307.584" style="stroke: #000000; stroke-width: 0.8"/>
      </g>
     </g>
     <g id="text_1">
      <!-- 0 -->
      <g transform="translate(70.651477 322.182437) scale(0.1 -0.1)">
       <defs>
        <path id="DejaVuSans-30" d="M 2034 4250 
Q 1547 4250 1301 3770 
Q 1056 3291 1056 2328 
Q 1056 1369 1301 889 
Q 1547 409 2034 409 
Q 2525 409 2770 889 
Q 3016 1369 3016 2328 
Q 3016 3291 2770 3770 
Q 2525 4250 2034 4250 
z
M 2034 4750 
Q 2819 4750 3233 4129 
Q 3647 3509 3647 2328 
Q 3647 1150 3233 529 
Q 2819 -91 2034 -91 
Q 1250 -91 836 529 
Q 422 1150 422 2328 
Q 422 3509 836 4129 
Q 1250 4750 2034 4750 
z
" transform="scale(0.015625)"/>
       </defs>
       <use xlink:href="#DejaVuSans-30"/>
      </g>
     </g>
    </g>
    <g id="xtick_2">
     <g id="line2d_3">
      <path d="M 145.579588 307.584 
L 145.579588 41.472 
" clip-path="url(#pece686282c)" style="fill: none; stroke: #b0b0b0; stroke-width: 0.8; stroke-linecap: square"/>
     </g>
     <g id="line2d_4">
      <g>
       <use xlink:href="#m4a92d99fee" x="145.579588" y="307.584" style="stroke: #000000; stroke-width: 0.8"/>
      </g>
     </g>
     <g id="text_2">
      <!-- 200 -->
      <g transform="translate(136.035838 322.182437) scale(0.1 -0.1)">
       <defs>
        <path id="DejaVuSans-32" d="M 1228 531 
L 3431 531 
L 3431 0 
L 469 0 
L 469 531 
Q 828 903 1448 1529 
Q 2069 2156 2228 2338 
Q 2531 2678 2651 2914 
Q 2772 3150 2772 3378 
Q 2772 3750 2511 3984 
Q 2250 4219 1831 4219 
Q 1534 4219 1204 4116 
Q 875 4013 500 3803 
L 500 4441 
Q 881 4594 1212 4672 
Q 1544 4750 1819 4750 
Q 2544 4750 2975 4387 
Q 3406 4025 3406 3419 
Q 3406 3131 3298 2873 
Q 3191 2616 2906 2266 
Q 2828 2175 2409 1742 
Q 1991 1309 1228 531 
z
" transform="scale(0.015625)"/>
       </defs>
       <use xlink:href="#DejaVuSans-32"/>
       <use xlink:href="#DejaVuSans-30" transform="translate(63.623047 0)"/>
       <use xlink:href="#DejaVuSans-30" transform="translate(127.246094 0)"/>
      </g>
     </g>
    </g>
    <g id="xtick_3">
     <g id="line2d_5">
      <path d="M 217.326449 307.584 
L 217.326449 41.472 
" clip-path="url(#pece686282c)" style="fill: none; stroke: #b0b0b0; stroke-width: 0.8; stroke-linecap: square"/>
     </g>
     <g id="line2d_6">
      <g>
       <use xlink:href="#m4a92d99fee" x="217.326449" y="307.584" style="stroke: #000000; stroke-width: 0.8"/>
      </g>
     </g>
     <g id="text_3">
      <!-- 400 -->
      <g transform="translate(207.782699 322.182437) scale(0.1 -0.1)">
       <defs>
        <path id="DejaVuSans-34" d="M 2419 4116 
L 825 1625 
L 2419 1625 
L 2419 4116 
z
M 2253 4666 
L 3047 4666 
L 3047 1625 
L 3713 1625 
L 3713 1100 
L 3047 1100 
L 3047 0 
L 2419 0 
L 2419 1100 
L 313 1100 
L 313 1709 
L 2253 4666 
z
" transform="scale(0.015625)"/>
       </defs>
       <use xlink:href="#DejaVuSans-34"/>
       <use xlink:href="#DejaVuSans-30" transform="translate(63.623047 0)"/>
       <use xlink:href="#DejaVuSans-30" transform="translate(127.246094 0)"/>
      </g>
     </g>
    </g>
    <g id="xtick_4">
     <g id="line2d_7">
      <path d="M 289.07331 307.584 
L 289.07331 41.472 
" clip-path="url(#pece686282c)" style="fill: none; stroke: #b0b0b0; stroke-width: 0.8; stroke-linecap: square"/>
     </g>
     <g id="line2d_8">
      <g>
       <use xlink:href="#m4a92d99fee" x="289.07331" y="307.584" style="stroke: #000000; stroke-width: 0.8"/>
      </g>
     </g>
     <g id="text_4">
      <!-- 600 -->
      <g transform="translate(279.52956 322.182437) scale(0.1 -0.1)">
       <defs>
        <path id="DejaVuSans-36" d="M 2113 2584 
Q 1688 2584 1439 2293 
Q 1191 2003 1191 1497 
Q 1191 994 1439 701 
Q 1688 409 2113 409 
Q 2538 409 2786 701 
Q 3034 994 3034 1497 
Q 3034 2003 2786 2293 
Q 2538 2584 2113 2584 
z
M 3366 4563 
L 3366 3988 
Q 3128 4100 2886 4159 
Q 2644 4219 2406 4219 
Q 1781 4219 1451 3797 
Q 1122 3375 1075 2522 
Q 1259 2794 1537 2939 
Q 1816 3084 2150 3084 
Q 2853 3084 3261 2657 
Q 3669 2231 3669 1497 
Q 3669 778 3244 343 
Q 2819 -91 2113 -91 
Q 1303 -91 875 529 
Q 447 1150 447 2328 
Q 447 3434 972 4092 
Q 1497 4750 2381 4750 
Q 2619 4750 2861 4703 
Q 3103 4656 3366 4563 
z
" transform="scale(0.015625)"/>
       </defs>
       <use xlink:href="#DejaVuSans-36"/>
       <use xlink:href="#DejaVuSans-30" transform="translate(63.623047 0)"/>
       <use xlink:href="#DejaVuSans-30" transform="translate(127.246094 0)"/>
      </g>
     </g>
    </g>
    <g id="xtick_5">
     <g id="line2d_9">
      <path d="M 360.820171 307.584 
L 360.820171 41.472 
" clip-path="url(#pece686282c)" style="fill: none; stroke: #b0b0b0; stroke-width: 0.8; stroke-linecap: square"/>
     </g>
     <g id="line2d_10">
      <g>
       <use xlink:href="#m4a92d99fee" x="360.820171" y="307.584" style="stroke: #000000; stroke-width: 0.8"/>
      </g>
     </g>
     <g id="text_5">
      <!-- 800 -->
      <g transform="translate(351.276421 322.182437) scale(0.1 -0.1)">
       <defs>
        <path id="DejaVuSans-38" d="M 2034 2216 
Q 1584 2216 1326 1975 
Q 1069 1734 1069 1313 
Q 1069 891 1326 650 
Q 1584 409 2034 409 
Q 2484 409 2743 651 
Q 3003 894 3003 1313 
Q 3003 1734 2745 1975 
Q 2488 2216 2034 2216 
z
M 1403 2484 
Q 997 2584 770 2862 
Q 544 3141 544 3541 
Q 544 4100 942 4425 
Q 1341 4750 2034 4750 
Q 2731 4750 3128 4425 
Q 3525 4100 3525 3541 
Q 3525 3141 3298 2862 
Q 3072 2584 2669 2484 
Q 3125 2378 3379 2068 
Q 3634 1759 3634 1313 
Q 3634 634 3220 271 
Q 2806 -91 2034 -91 
Q 1263 -91 848 271 
Q 434 634 434 1313 
Q 434 1759 690 2068 
Q 947 2378 1403 2484 
z
M 1172 3481 
Q 1172 3119 1398 2916 
Q 1625 2713 2034 2713 
Q 2441 2713 2670 2916 
Q 2900 3119 2900 3481 
Q 2900 3844 2670 4047 
Q 2441 4250 2034 4250 
Q 1625 4250 1398 4047 
Q 1172 3844 1172 3481 
z
" transform="scale(0.015625)"/>
       </defs>
       <use xlink:href="#DejaVuSans-38"/>
       <use xlink:href="#DejaVuSans-30" transform="translate(63.623047 0)"/>
       <use xlink:href="#DejaVuSans-30" transform="translate(127.246094 0)"/>
      </g>
     </g>
    </g>
    <g id="text_6">
     <!-- Evaluation number -->
     <g transform="translate(188.674844 335.860562) scale(0.1 -0.1)">
      <defs>
       <path id="DejaVuSans-45" d="M 628 4666 
L 3578 4666 
L 3578 4134 
L 1259 4134 
L 1259 2753 
L 3481 2753 
L 3481 2222 
L 1259 2222 
L 1259 531 
L 3634 531 
L 3634 0 
L 628 0 
L 628 4666 
z
" transform="scale(0.015625)"/>
       <path id="DejaVuSans-76" d="M 191 3500 
L 800 3500 
L 1894 563 
L 2988 3500 
L 3597 3500 
L 2284 0 
L 1503 0 
L 191 3500 
z
" transform="scale(0.015625)"/>
       <path id="DejaVuSans-61" d="M 2194 1759 
Q 1497 1759 1228 1600 
Q 959 1441 959 1056 
Q 959 750 1161 570 
Q 1363 391 1709 391 
Q 2188 391 2477 730 
Q 2766 1069 2766 1631 
L 2766 1759 
L 2194 1759 
z
M 3341 1997 
L 3341 0 
L 2766 0 
L 2766 531 
Q 2569 213 2275 61 
Q 1981 -91 1556 -91 
Q 1019 -91 701 211 
Q 384 513 384 1019 
Q 384 1609 779 1909 
Q 1175 2209 1959 2209 
L 2766 2209 
L 2766 2266 
Q 2766 2663 2505 2880 
Q 2244 3097 1772 3097 
Q 1472 3097 1187 3025 
Q 903 2953 641 2809 
L 641 3341 
Q 956 3463 1253 3523 
Q 1550 3584 1831 3584 
Q 2591 3584 2966 3190 
Q 3341 2797 3341 1997 
z
" transform="scale(0.015625)"/>
       <path id="DejaVuSans-6c" d="M 603 4863 
L 1178 4863 
L 1178 0 
L 603 0 
L 603 4863 
z
" transform="scale(0.015625)"/>
       <path id="DejaVuSans-75" d="M 544 1381 
L 544 3500 
L 1119 3500 
L 1119 1403 
Q 1119 906 1312 657 
Q 1506 409 1894 409 
Q 2359 409 2629 706 
Q 2900 1003 2900 1516 
L 2900 3500 
L 3475 3500 
L 3475 0 
L 2900 0 
L 2900 538 
Q 2691 219 2414 64 
Q 2138 -91 1772 -91 
Q 1169 -91 856 284 
Q 544 659 544 1381 
z
M 1991 3584 
L 1991 3584 
z
" transform="scale(0.015625)"/>
       <path id="DejaVuSans-74" d="M 1172 4494 
L 1172 3500 
L 2356 3500 
L 2356 3053 
L 1172 3053 
L 1172 1153 
Q 1172 725 1289 603 
Q 1406 481 1766 481 
L 2356 481 
L 2356 0 
L 1766 0 
Q 1100 0 847 248 
Q 594 497 594 1153 
L 594 3053 
L 172 3053 
L 172 3500 
L 594 3500 
L 594 4494 
L 1172 4494 
z
" transform="scale(0.015625)"/>
       <path id="DejaVuSans-69" d="M 603 3500 
L 1178 3500 
L 1178 0 
L 603 0 
L 603 3500 
z
M 603 4863 
L 1178 4863 
L 1178 4134 
L 603 4134 
L 603 4863 
z
" transform="scale(0.015625)"/>
       <path id="DejaVuSans-6f" d="M 1959 3097 
Q 1497 3097 1228 2736 
Q 959 2375 959 1747 
Q 959 1119 1226 758 
Q 1494 397 1959 397 
Q 2419 397 2687 759 
Q 2956 1122 2956 1747 
Q 2956 2369 2687 2733 
Q 2419 3097 1959 3097 
z
M 1959 3584 
Q 2709 3584 3137 3096 
Q 3566 2609 3566 1747 
Q 3566 888 3137 398 
Q 2709 -91 1959 -91 
Q 1206 -91 779 398 
Q 353 888 353 1747 
Q 353 2609 779 3096 
Q 1206 3584 1959 3584 
z
" transform="scale(0.015625)"/>
       <path id="DejaVuSans-6e" d="M 3513 2113 
L 3513 0 
L 2938 0 
L 2938 2094 
Q 2938 2591 2744 2837 
Q 2550 3084 2163 3084 
Q 1697 3084 1428 2787 
Q 1159 2491 1159 1978 
L 1159 0 
L 581 0 
L 581 3500 
L 1159 3500 
L 1159 2956 
Q 1366 3272 1645 3428 
Q 1925 3584 2291 3584 
Q 2894 3584 3203 3211 
Q 3513 2838 3513 2113 
z
" transform="scale(0.015625)"/>
       <path id="DejaVuSans-20" transform="scale(0.015625)"/>
       <path id="DejaVuSans-6d" d="M 3328 2828 
Q 3544 3216 3844 3400 
Q 4144 3584 4550 3584 
Q 5097 3584 5394 3201 
Q 5691 2819 5691 2113 
L 5691 0 
L 5113 0 
L 5113 2094 
Q 5113 2597 4934 2840 
Q 4756 3084 4391 3084 
Q 3944 3084 3684 2787 
Q 3425 2491 3425 1978 
L 3425 0 
L 2847 0 
L 2847 2094 
Q 2847 2600 2669 2842 
Q 2491 3084 2119 3084 
Q 1678 3084 1418 2786 
Q 1159 2488 1159 1978 
L 1159 0 
L 581 0 
L 581 3500 
L 1159 3500 
L 1159 2956 
Q 1356 3278 1631 3431 
Q 1906 3584 2284 3584 
Q 2666 3584 2933 3390 
Q 3200 3197 3328 2828 
z
" transform="scale(0.015625)"/>
       <path id="DejaVuSans-62" d="M 3116 1747 
Q 3116 2381 2855 2742 
Q 2594 3103 2138 3103 
Q 1681 3103 1420 2742 
Q 1159 2381 1159 1747 
Q 1159 1113 1420 752 
Q 1681 391 2138 391 
Q 2594 391 2855 752 
Q 3116 1113 3116 1747 
z
M 1159 2969 
Q 1341 3281 1617 3432 
Q 1894 3584 2278 3584 
Q 2916 3584 3314 3078 
Q 3713 2572 3713 1747 
Q 3713 922 3314 415 
Q 2916 -91 2278 -91 
Q 1894 -91 1617 61 
Q 1341 213 1159 525 
L 1159 0 
L 581 0 
L 581 4863 
L 1159 4863 
L 1159 2969 
z
" transform="scale(0.015625)"/>
       <path id="DejaVuSans-65" d="M 3597 1894 
L 3597 1613 
L 953 1613 
Q 991 1019 1311 708 
Q 1631 397 2203 397 
Q 2534 397 2845 478 
Q 3156 559 3463 722 
L 3463 178 
Q 3153 47 2828 -22 
Q 2503 -91 2169 -91 
Q 1331 -91 842 396 
Q 353 884 353 1716 
Q 353 2575 817 3079 
Q 1281 3584 2069 3584 
Q 2775 3584 3186 3129 
Q 3597 2675 3597 1894 
z
M 3022 2063 
Q 3016 2534 2758 2815 
Q 2500 3097 2075 3097 
Q 1594 3097 1305 2825 
Q 1016 2553 972 2059 
L 3022 2063 
z
" transform="scale(0.015625)"/>
       <path id="DejaVuSans-72" d="M 2631 2963 
Q 2534 3019 2420 3045 
Q 2306 3072 2169 3072 
Q 1681 3072 1420 2755 
Q 1159 2438 1159 1844 
L 1159 0 
L 581 0 
L 581 3500 
L 1159 3500 
L 1159 2956 
Q 1341 3275 1631 3429 
Q 1922 3584 2338 3584 
Q 2397 3584 2469 3576 
Q 2541 3569 2628 3553 
L 2631 2963 
z
" transform="scale(0.015625)"/>
      </defs>
      <use xlink:href="#DejaVuSans-45"/>
      <use xlink:href="#DejaVuSans-76" transform="translate(63.183594 0)"/>
      <use xlink:href="#DejaVuSans-61" transform="translate(122.363281 0)"/>
      <use xlink:href="#DejaVuSans-6c" transform="translate(183.642578 0)"/>
      <use xlink:href="#DejaVuSans-75" transform="translate(211.425781 0)"/>
      <use xlink:href="#DejaVuSans-61" transform="translate(274.804688 0)"/>
      <use xlink:href="#DejaVuSans-74" transform="translate(336.083984 0)"/>
      <use xlink:href="#DejaVuSans-69" transform="translate(375.292969 0)"/>
      <use xlink:href="#DejaVuSans-6f" transform="translate(403.076172 0)"/>
      <use xlink:href="#DejaVuSans-6e" transform="translate(464.257812 0)"/>
      <use xlink:href="#DejaVuSans-20" transform="translate(527.636719 0)"/>
      <use xlink:href="#DejaVuSans-6e" transform="translate(559.423828 0)"/>
      <use xlink:href="#DejaVuSans-75" transform="translate(622.802734 0)"/>
      <use xlink:href="#DejaVuSans-6d" transform="translate(686.181641 0)"/>
      <use xlink:href="#DejaVuSans-62" transform="translate(783.59375 0)"/>
      <use xlink:href="#DejaVuSans-65" transform="translate(847.070312 0)"/>
      <use xlink:href="#DejaVuSans-72" transform="translate(908.59375 0)"/>
     </g>
    </g>
   </g>
   <g id="matplotlib.axis_2">
    <g id="ytick_1">
     <g id="line2d_11">
      <path d="M 57.6 278.268391 
L 414.72 278.268391 
" clip-path="url(#pece686282c)" style="fill: none; stroke: #b0b0b0; stroke-width: 0.8; stroke-linecap: square"/>
     </g>
     <g id="line2d_12">
      <defs>
       <path id="mb3cb5c074b" d="M 0 0 
L -3.5 0 
" style="stroke: #000000; stroke-width: 0.8"/>
      </defs>
      <g>
       <use xlink:href="#mb3cb5c074b" x="57.6" y="278.268391" style="stroke: #000000; stroke-width: 0.8"/>
      </g>
     </g>
     <g id="text_7">
      <!-- $\mathdefault{10^{-14}}$ -->
      <g transform="translate(22.7 282.067609) scale(0.1 -0.1)">
       <defs>
        <path id="DejaVuSans-31" d="M 794 531 
L 1825 531 
L 1825 4091 
L 703 3866 
L 703 4441 
L 1819 4666 
L 2450 4666 
L 2450 531 
L 3481 531 
L 3481 0 
L 794 0 
L 794 531 
z
" transform="scale(0.015625)"/>
        <path id="DejaVuSans-2212" d="M 678 2272 
L 4684 2272 
L 4684 1741 
L 678 1741 
L 678 2272 
z
" transform="scale(0.015625)"/>
       </defs>
       <use xlink:href="#DejaVuSans-31" transform="translate(0 0.684375)"/>
       <use xlink:href="#DejaVuSans-30" transform="translate(63.623047 0.684375)"/>
       <use xlink:href="#DejaVuSans-2212" transform="translate(128.203125 38.965625) scale(0.7)"/>
       <use xlink:href="#DejaVuSans-31" transform="translate(186.855469 38.965625) scale(0.7)"/>
       <use xlink:href="#DejaVuSans-34" transform="translate(231.391602 38.965625) scale(0.7)"/>
      </g>
     </g>
    </g>
    <g id="ytick_2">
     <g id="line2d_13">
      <path d="M 57.6 242.810816 
L 414.72 242.810816 
" clip-path="url(#pece686282c)" style="fill: none; stroke: #b0b0b0; stroke-width: 0.8; stroke-linecap: square"/>
     </g>
     <g id="line2d_14">
      <g>
       <use xlink:href="#mb3cb5c074b" x="57.6" y="242.810816" style="stroke: #000000; stroke-width: 0.8"/>
      </g>
     </g>
     <g id="text_8">
      <!-- $\mathdefault{10^{-12}}$ -->
      <g transform="translate(22.7 246.610035) scale(0.1 -0.1)">
       <use xlink:href="#DejaVuSans-31" transform="translate(0 0.765625)"/>
       <use xlink:href="#DejaVuSans-30" transform="translate(63.623047 0.765625)"/>
       <use xlink:href="#DejaVuSans-2212" transform="translate(128.203125 39.046875) scale(0.7)"/>
       <use xlink:href="#DejaVuSans-31" transform="translate(186.855469 39.046875) scale(0.7)"/>
       <use xlink:href="#DejaVuSans-32" transform="translate(231.391602 39.046875) scale(0.7)"/>
      </g>
     </g>
    </g>
    <g id="ytick_3">
     <g id="line2d_15">
      <path d="M 57.6 207.353242 
L 414.72 207.353242 
" clip-path="url(#pece686282c)" style="fill: none; stroke: #b0b0b0; stroke-width: 0.8; stroke-linecap: square"/>
     </g>
     <g id="line2d_16">
      <g>
       <use xlink:href="#mb3cb5c074b" x="57.6" y="207.353242" style="stroke: #000000; stroke-width: 0.8"/>
      </g>
     </g>
     <g id="text_9">
      <!-- $\mathdefault{10^{-10}}$ -->
      <g transform="translate(22.7 211.152461) scale(0.1 -0.1)">
       <use xlink:href="#DejaVuSans-31" transform="translate(0 0.765625)"/>
       <use xlink:href="#DejaVuSans-30" transform="translate(63.623047 0.765625)"/>
       <use xlink:href="#DejaVuSans-2212" transform="translate(128.203125 39.046875) scale(0.7)"/>
       <use xlink:href="#DejaVuSans-31" transform="translate(186.855469 39.046875) scale(0.7)"/>
       <use xlink:href="#DejaVuSans-30" transform="translate(231.391602 39.046875) scale(0.7)"/>
      </g>
     </g>
    </g>
    <g id="ytick_4">
     <g id="line2d_17">
      <path d="M 57.6 171.895668 
L 414.72 171.895668 
" clip-path="url(#pece686282c)" style="fill: none; stroke: #b0b0b0; stroke-width: 0.8; stroke-linecap: square"/>
     </g>
     <g id="line2d_18">
      <g>
       <use xlink:href="#mb3cb5c074b" x="57.6" y="171.895668" style="stroke: #000000; stroke-width: 0.8"/>
      </g>
     </g>
     <g id="text_10">
      <!-- $\mathdefault{10^{-8}}$ -->
      <g transform="translate(27.1 175.694887) scale(0.1 -0.1)">
       <use xlink:href="#DejaVuSans-31" transform="translate(0 0.765625)"/>
       <use xlink:href="#DejaVuSans-30" transform="translate(63.623047 0.765625)"/>
       <use xlink:href="#DejaVuSans-2212" transform="translate(128.203125 39.046875) scale(0.7)"/>
       <use xlink:href="#DejaVuSans-38" transform="translate(186.855469 39.046875) scale(0.7)"/>
      </g>
     </g>
    </g>
    <g id="ytick_5">
     <g id="line2d_19">
      <path d="M 57.6 136.438093 
L 414.72 136.438093 
" clip-path="url(#pece686282c)" style="fill: none; stroke: #b0b0b0; stroke-width: 0.8; stroke-linecap: square"/>
     </g>
     <g id="line2d_20">
      <g>
       <use xlink:href="#mb3cb5c074b" x="57.6" y="136.438093" style="stroke: #000000; stroke-width: 0.8"/>
      </g>
     </g>
     <g id="text_11">
      <!-- $\mathdefault{10^{-6}}$ -->
      <g transform="translate(27.1 140.237312) scale(0.1 -0.1)">
       <use xlink:href="#DejaVuSans-31" transform="translate(0 0.765625)"/>
       <use xlink:href="#DejaVuSans-30" transform="translate(63.623047 0.765625)"/>
       <use xlink:href="#DejaVuSans-2212" transform="translate(128.203125 39.046875) scale(0.7)"/>
       <use xlink:href="#DejaVuSans-36" transform="translate(186.855469 39.046875) scale(0.7)"/>
      </g>
     </g>
    </g>
    <g id="ytick_6">
     <g id="line2d_21">
      <path d="M 57.6 100.980519 
L 414.72 100.980519 
" clip-path="url(#pece686282c)" style="fill: none; stroke: #b0b0b0; stroke-width: 0.8; stroke-linecap: square"/>
     </g>
     <g id="line2d_22">
      <g>
       <use xlink:href="#mb3cb5c074b" x="57.6" y="100.980519" style="stroke: #000000; stroke-width: 0.8"/>
      </g>
     </g>
     <g id="text_12">
      <!-- $\mathdefault{10^{-4}}$ -->
      <g transform="translate(27.1 104.779738) scale(0.1 -0.1)">
       <use xlink:href="#DejaVuSans-31" transform="translate(0 0.684375)"/>
       <use xlink:href="#DejaVuSans-30" transform="translate(63.623047 0.684375)"/>
       <use xlink:href="#DejaVuSans-2212" transform="translate(128.203125 38.965625) scale(0.7)"/>
       <use xlink:href="#DejaVuSans-34" transform="translate(186.855469 38.965625) scale(0.7)"/>
      </g>
     </g>
    </g>
    <g id="ytick_7">
     <g id="line2d_23">
      <path d="M 57.6 65.522945 
L 414.72 65.522945 
" clip-path="url(#pece686282c)" style="fill: none; stroke: #b0b0b0; stroke-width: 0.8; stroke-linecap: square"/>
     </g>
     <g id="line2d_24">
      <g>
       <use xlink:href="#mb3cb5c074b" x="57.6" y="65.522945" style="stroke: #000000; stroke-width: 0.8"/>
      </g>
     </g>
     <g id="text_13">
      <!-- $\mathdefault{10^{-2}}$ -->
      <g transform="translate(27.1 69.322164) scale(0.1 -0.1)">
       <use xlink:href="#DejaVuSans-31" transform="translate(0 0.765625)"/>
       <use xlink:href="#DejaVuSans-30" transform="translate(63.623047 0.765625)"/>
       <use xlink:href="#DejaVuSans-2212" transform="translate(128.203125 39.046875) scale(0.7)"/>
       <use xlink:href="#DejaVuSans-32" transform="translate(186.855469 39.046875) scale(0.7)"/>
      </g>
     </g>
    </g>
    <g id="text_14">
     <!-- Error value -->
     <g transform="translate(16.620312 201.960031) rotate(-90) scale(0.1 -0.1)">
      <use xlink:href="#DejaVuSans-45"/>
      <use xlink:href="#DejaVuSans-72" transform="translate(63.183594 0)"/>
      <use xlink:href="#DejaVuSans-72" transform="translate(102.546875 0)"/>
      <use xlink:href="#DejaVuSans-6f" transform="translate(141.410156 0)"/>
      <use xlink:href="#DejaVuSans-72" transform="translate(202.591797 0)"/>
      <use xlink:href="#DejaVuSans-20" transform="translate(243.705078 0)"/>
      <use xlink:href="#DejaVuSans-76" transform="translate(275.492188 0)"/>
      <use xlink:href="#DejaVuSans-61" transform="translate(334.671875 0)"/>
      <use xlink:href="#DejaVuSans-6c" transform="translate(395.951172 0)"/>
      <use xlink:href="#DejaVuSans-75" transform="translate(423.734375 0)"/>
      <use xlink:href="#DejaVuSans-65" transform="translate(487.113281 0)"/>
     </g>
    </g>
   </g>
   <g id="line2d_25">
    <path d="M 73.832727 307.584 
L 74.191462 47.794158 
L 75.267664 47.794158 
L 75.626399 48.775662 
L 75.985133 54.105268 
L 76.343867 55.105339 
L 76.702602 54.108758 
L 78.137539 54.20905 
L 81.724882 54.677755 
L 85.670959 55.05439 
L 86.029694 54.936388 
L 86.388428 55.370625 
L 86.747162 54.67224 
L 87.105897 53.244993 
L 87.464631 56.104279 
L 87.823365 60.951667 
L 88.182099 53.473872 
L 88.540834 54.033176 
L 92.128177 53.755824 
L 94.998051 53.766671 
L 95.356786 55.240261 
L 95.71552 54.198778 
L 96.074254 55.429009 
L 96.432988 53.998819 
L 97.509191 54.205667 
L 100.7378 54.600407 
L 105.76008 54.981298 
L 106.118815 54.943305 
L 106.477549 55.103918 
L 106.836283 54.841841 
L 107.195018 56.006455 
L 107.553752 54.563756 
L 107.912486 56.476758 
L 108.27122 54.442 
L 108.629955 53.851183 
L 108.988689 61.365595 
L 109.347423 54.045496 
L 111.858564 54.099775 
L 115.087172 54.255173 
L 115.445907 54.712813 
L 115.804641 54.98239 
L 116.163375 55.785142 
L 116.522109 53.082702 
L 116.880844 58.898452 
L 117.239578 54.75742 
L 117.598312 54.932125 
L 117.957047 55.524351 
L 118.315781 53.564794 
L 118.674515 53.226762 
L 119.03325 54.625055 
L 119.391984 55.117196 
L 119.750718 54.53246 
L 120.109453 55.202569 
L 120.468187 54.149066 
L 120.826921 54.576429 
L 121.185655 53.829164 
L 121.54439 58.93204 
L 121.903124 55.184599 
L 122.261858 54.632456 
L 122.620593 54.874841 
L 122.979327 56.402373 
L 123.338061 55.335028 
L 123.696796 55.779814 
L 124.05553 55.671473 
L 124.414264 53.485459 
L 124.772998 59.099911 
L 125.131733 54.556928 
L 125.490467 54.165756 
L 125.849201 55.119108 
L 126.207936 53.803236 
L 126.56667 55.503063 
L 126.925404 54.103502 
L 127.284139 54.376905 
L 127.642873 55.38583 
L 128.001607 55.253593 
L 128.360342 54.827878 
L 128.719076 55.193277 
L 129.07781 53.707383 
L 130.154013 54.796319 
L 130.512747 54.433306 
L 130.871482 56.413661 
L 131.230216 54.123932 
L 131.58895 55.246571 
L 131.947685 53.956843 
L 132.306419 53.745349 
L 132.665153 59.975997 
L 133.023887 61.370825 
L 133.382622 60.313241 
L 133.741356 59.61592 
L 134.10009 60.203915 
L 134.458825 59.948343 
L 134.817559 59.01561 
L 135.176293 66.407686 
L 135.535028 70.977849 
L 135.893762 69.392345 
L 136.252496 63.92776 
L 136.611231 69.627312 
L 136.969965 69.497959 
L 137.328699 64.393082 
L 137.687433 63.391814 
L 138.046168 66.826246 
L 138.404902 64.194937 
L 138.763636 75.652088 
L 139.122371 70.448195 
L 139.481105 69.992021 
L 139.839839 69.909335 
L 140.198574 69.332136 
L 140.557308 69.537212 
L 140.916042 67.968932 
L 141.274776 77.593191 
L 141.992245 73.013652 
L 142.350979 80.196709 
L 142.709714 80.792605 
L 143.427182 79.954237 
L 143.785917 80.857094 
L 144.144651 81.313849 
L 144.503385 86.650662 
L 144.86212 87.757596 
L 145.220854 83.262457 
L 145.579588 87.200911 
L 145.938322 85.870456 
L 146.297057 86.83628 
L 146.655791 93.090883 
L 147.014525 96.483546 
L 147.37326 91.2899 
L 147.731994 90.974352 
L 148.090728 89.976576 
L 148.449463 92.247231 
L 148.808197 91.503635 
L 149.166931 97.832265 
L 149.525665 99.254476 
L 149.8844 98.851779 
L 150.243134 98.033541 
L 150.601868 96.031991 
L 150.960603 95.94002 
L 151.319337 98.565363 
L 151.678071 97.158189 
L 152.036806 102.32125 
L 152.39554 104.273779 
L 152.754274 99.475995 
L 153.471743 114.114977 
L 153.830477 107.223615 
L 154.189211 109.779494 
L 154.547946 109.207303 
L 154.90668 109.177737 
L 155.265414 106.841293 
L 155.624149 105.928844 
L 155.982883 113.667797 
L 156.700352 111.972983 
L 157.059086 120.74622 
L 157.41782 122.160339 
L 157.776554 122.741161 
L 158.135289 124.767216 
L 158.494023 121.402577 
L 158.852757 120.32058 
L 159.211492 120.894405 
L 159.570226 119.168124 
L 159.92896 307.584 
L 160.287695 47.794158 
L 161.363898 47.794158 
L 161.722632 45.170183 
L 162.081366 49.839451 
L 164.592506 48.987823 
L 166.744912 48.659593 
L 169.256052 48.428913 
L 169.614787 48.460057 
L 169.973521 48.342635 
L 170.332255 48.510614 
L 170.690989 48.197849 
L 171.049724 48.833898 
L 171.408458 50.915978 
L 171.767192 50.315207 
L 172.125927 49.97093 
L 172.484661 49.364393 
L 175.354535 49.559122 
L 178.941878 49.761113 
L 179.300613 49.558002 
L 179.659347 48.524346 
L 180.018081 49.840002 
L 180.376816 56.273543 
L 180.73555 48.42846 
L 181.094284 49.304149 
L 181.453019 48.849838 
L 181.811753 55.780398 
L 182.170487 50.491962 
L 182.529221 47.9276 
L 182.887956 48.591723 
L 183.24669 47.286873 
L 183.605424 50.123799 
L 183.964159 49.366352 
L 184.322893 49.372473 
L 184.681627 48.977462 
L 185.040362 49.269514 
L 185.399096 48.81315 
L 186.116565 53.500976 
L 186.475299 52.719904 
L 186.834033 51.286857 
L 187.551502 59.385203 
L 187.910236 54.316519 
L 188.26897 50.900016 
L 188.627705 53.103977 
L 188.986439 57.637796 
L 189.345173 65.532317 
L 190.062642 66.505524 
L 190.421376 65.637443 
L 190.78011 65.151998 
L 191.138845 70.482147 
L 191.856313 68.467713 
L 192.215048 69.59961 
L 192.573782 69.273414 
L 192.932516 69.426734 
L 193.291251 69.270064 
L 193.649985 69.639287 
L 194.008719 69.689334 
L 194.367454 73.83364 
L 194.726188 75.835855 
L 195.084922 75.607399 
L 195.443656 76.388999 
L 195.802391 81.725955 
L 196.161125 81.978626 
L 196.519859 77.374969 
L 196.878594 83.391397 
L 197.237328 76.638603 
L 197.596062 80.0673 
L 197.954797 86.327931 
L 198.313531 86.405654 
L 198.672265 88.739511 
L 199.748468 83.420443 
L 200.107202 90.80873 
L 200.465937 90.298624 
L 200.824671 91.782897 
L 201.183405 87.715194 
L 201.54214 91.50466 
L 201.900874 89.386501 
L 202.259608 96.982207 
L 202.618343 93.800306 
L 202.977077 97.708584 
L 203.335811 98.007365 
L 203.694545 96.781822 
L 204.05328 102.212548 
L 204.412014 103.453289 
L 204.770748 102.735956 
L 205.129483 108.737717 
L 205.488217 102.363684 
L 205.846951 102.965864 
L 206.205686 103.286156 
L 206.56442 98.808606 
L 206.923154 108.173997 
L 207.281888 105.661679 
L 207.640623 106.632028 
L 207.999357 108.346865 
L 208.358091 109.036014 
L 208.716826 112.927118 
L 209.07556 111.741183 
L 209.434294 113.256089 
L 209.793029 110.225974 
L 210.151763 112.56792 
L 210.510497 112.091075 
L 210.869232 109.914072 
L 211.227966 119.231729 
L 211.5867 119.853238 
L 211.945434 121.266366 
L 212.304169 119.021627 
L 212.662903 119.257462 
L 213.021637 121.024301 
L 213.380372 307.584 
L 213.739106 47.794158 
L 214.815309 47.794158 
L 215.174043 43.338646 
L 215.532777 49.764094 
L 218.043918 50.41237 
L 219.120121 50.566292 
L 219.478855 50.498238 
L 219.837589 50.756502 
L 220.196323 50.222223 
L 220.555058 49.377255 
L 221.272526 51.939556 
L 221.631261 48.842713 
L 225.936072 48.364182 
L 229.164681 48.44276 
L 229.523415 50.237372 
L 229.88215 53.93988 
L 230.240884 48.691612 
L 230.599618 48.626964 
L 230.958353 49.813264 
L 231.675821 49.186283 
L 232.034555 48.889046 
L 232.39329 50.210848 
L 232.752024 49.230923 
L 233.110758 50.081294 
L 233.469493 49.767319 
L 233.828227 49.080372 
L 234.186961 49.617422 
L 234.545696 49.875649 
L 234.90443 51.364966 
L 235.263164 49.993476 
L 235.621899 50.52792 
L 235.980633 50.085816 
L 236.339367 54.751882 
L 236.698101 53.950226 
L 237.056836 54.589379 
L 237.41557 50.861676 
L 237.774304 55.043744 
L 238.133039 52.466493 
L 238.491773 60.321393 
L 238.850507 61.554043 
L 239.209242 59.507141 
L 239.567976 60.173786 
L 239.92671 60.329602 
L 240.285445 58.510814 
L 240.644179 59.176579 
L 241.002913 69.627837 
L 241.361647 70.630648 
L 241.720382 67.484384 
L 242.079116 70.956863 
L 242.43785 70.359147 
L 242.796585 71.579309 
L 243.155319 70.908748 
L 243.514053 68.680727 
L 243.872788 70.380982 
L 244.231522 76.025362 
L 244.590256 86.883404 
L 244.94899 82.371503 
L 245.307725 80.136556 
L 245.666459 85.832984 
L 246.025193 81.943714 
L 246.742662 78.203436 
L 247.101396 91.209909 
L 247.460131 85.535364 
L 247.818865 88.20957 
L 248.177599 83.850966 
L 248.536334 87.400022 
L 248.895068 85.622551 
L 249.253802 90.983493 
L 249.612536 90.278539 
L 249.971271 93.84431 
L 251.047474 89.667156 
L 251.406208 89.95726 
L 251.764942 101.592498 
L 252.123677 101.339041 
L 252.482411 101.838168 
L 252.841145 102.138222 
L 253.199879 103.293805 
L 253.917348 104.093813 
L 254.276082 101.463072 
L 254.634817 107.781739 
L 254.993551 107.115889 
L 255.352285 107.725479 
L 255.71102 107.810742 
L 256.069754 103.803857 
L 256.428488 115.316415 
L 256.787223 113.308207 
L 257.504691 111.390945 
L 257.863425 112.538833 
L 258.22216 112.742068 
L 258.580894 119.647366 
L 258.939628 121.569776 
L 259.298363 119.666779 
L 259.657097 120.305541 
L 260.015831 119.36743 
L 260.374566 307.584 
L 260.7333 47.794158 
L 261.809503 47.794158 
L 262.168237 49.71602 
L 263.24444 49.885528 
L 265.038112 50.1288 
L 268.26672 50.235122 
L 270.419126 50.210044 
L 270.77786 49.605249 
L 271.136595 50.327766 
L 271.495329 48.956378 
L 271.854063 48.761325 
L 274.723938 48.343313 
L 276.876344 48.389974 
L 279.746218 48.5867 
L 280.104952 50.258443 
L 280.463687 49.009405 
L 280.822421 49.927494 
L 281.181155 48.026551 
L 281.53989 50.476813 
L 281.898624 49.936834 
L 282.257358 48.833477 
L 282.616092 48.92678 
L 282.974827 49.864597 
L 283.333561 50.196992 
L 284.05103 48.997221 
L 284.409764 49.349764 
L 284.768498 51.344114 
L 285.127233 51.094067 
L 285.485967 47.648665 
L 285.844701 57.405538 
L 286.203435 48.076082 
L 286.56217 48.68013 
L 286.920904 48.774049 
L 287.279638 49.766261 
L 287.638373 48.253769 
L 287.997107 48.210163 
L 288.355841 55.640173 
L 288.714576 55.178931 
L 289.07331 55.221011 
L 289.432044 53.793055 
L 289.790779 54.973439 
L 290.149513 53.85073 
L 290.508247 54.203553 
L 290.866981 55.052979 
L 291.225716 59.396906 
L 291.58445 58.911685 
L 291.943184 59.962409 
L 292.301919 57.481651 
L 292.660653 60.336108 
L 293.019387 58.760079 
L 293.378122 57.728076 
L 293.736856 59.645995 
L 294.09559 64.977708 
L 294.454324 67.114149 
L 294.813059 66.282448 
L 295.171793 67.072636 
L 295.530527 64.920352 
L 295.889262 63.626044 
L 296.247996 63.142242 
L 296.60673 65.628284 
L 296.965465 64.130256 
L 297.324199 59.012907 
L 297.682933 71.527878 
L 298.041668 71.881349 
L 298.400402 69.273206 
L 298.759136 68.811009 
L 299.11787 66.579622 
L 299.476605 69.929641 
L 299.835339 71.116537 
L 300.194073 68.295251 
L 300.552808 69.876596 
L 300.911542 67.958788 
L 301.270276 75.394968 
L 301.629011 76.02645 
L 301.987745 76.0312 
L 302.346479 76.413765 
L 302.705213 71.340438 
L 303.063948 76.521936 
L 303.422682 75.940556 
L 303.781416 73.643302 
L 304.140151 81.207633 
L 304.498885 80.808927 
L 304.857619 78.687284 
L 305.216354 85.634059 
L 305.575088 85.800429 
L 305.933822 87.110472 
L 306.292557 84.707228 
L 306.651291 85.722124 
L 307.010025 91.548291 
L 307.368759 93.261035 
L 307.727494 90.413097 
L 308.086228 97.962805 
L 308.444962 96.798225 
L 308.803697 98.588398 
L 309.521165 96.052615 
L 309.8799 93.169164 
L 310.238634 103.272182 
L 310.597368 97.998397 
L 310.956102 102.377474 
L 311.314837 102.3306 
L 311.673571 103.483603 
L 312.032305 100.038548 
L 312.39104 106.66008 
L 312.749774 105.354109 
L 313.108508 106.461016 
L 313.467243 105.227072 
L 313.825977 107.017497 
L 314.184711 113.398266 
L 314.543446 112.762334 
L 314.90218 112.920581 
L 315.260914 111.077561 
L 315.619648 112.22877 
L 315.978383 115.142009 
L 316.337117 112.954645 
L 316.695851 124.767328 
L 317.054586 118.597406 
L 317.41332 124.45888 
L 317.772054 115.956481 
L 318.130789 121.643154 
L 318.489523 307.584 
L 318.848257 47.794158 
L 319.92446 47.794158 
L 320.283194 45.507819 
L 320.641929 54.973898 
L 321.000663 53.975682 
L 321.359397 54.84948 
L 321.718132 53.788017 
L 322.076866 54.856449 
L 322.794335 54.807039 
L 324.94674 54.41824 
L 327.45788 54.337317 
L 329.969021 54.352988 
L 330.327755 54.491224 
L 330.686489 54.31592 
L 331.045224 56.452045 
L 331.403958 55.876111 
L 331.762692 55.788262 
L 332.121426 59.643944 
L 332.480161 55.060676 
L 337.502441 54.894254 
L 338.21991 55.526384 
L 338.578644 56.153059 
L 338.937378 54.998156 
L 339.654847 54.839105 
L 341.448518 54.746782 
L 345.75333 54.845535 
L 347.547002 54.860891 
L 347.905736 55.055123 
L 348.26447 54.740192 
L 348.623204 55.618175 
L 348.981939 53.68421 
L 349.340673 54.663073 
L 350.058142 54.635514 
L 351.493079 54.869908 
L 354.362953 55.406993 
L 356.515359 55.675831 
L 356.874093 56.010314 
L 357.232828 60.002489 
L 357.591562 55.032781 
L 357.950296 53.234512 
L 358.309031 54.354426 
L 358.667765 54.046021 
L 359.026499 54.963455 
L 359.385234 54.116896 
L 359.743968 54.526139 
L 360.102702 53.913236 
L 360.461436 54.838354 
L 361.178905 54.383387 
L 361.537639 54.596587 
L 361.896374 55.259043 
L 362.255108 52.721591 
L 362.613842 54.110085 
L 362.972577 53.905035 
L 363.331311 55.914915 
L 363.690045 53.920087 
L 364.04878 55.483874 
L 364.407514 53.162164 
L 364.766248 54.251314 
L 365.124982 53.896602 
L 365.483717 54.360472 
L 365.842451 53.791798 
L 366.201185 54.394356 
L 366.55992 53.890024 
L 366.918654 54.215217 
L 367.277388 55.553096 
L 367.636123 53.783238 
L 367.994857 55.945817 
L 368.353591 54.823569 
L 368.712325 55.251153 
L 369.07106 55.219793 
L 369.429794 53.9284 
L 369.788528 54.998881 
L 370.147263 53.684945 
L 370.864731 56.825208 
L 371.223466 53.572506 
L 371.5822 53.919248 
L 371.940934 54.752333 
L 372.299669 53.710425 
L 372.658403 57.330922 
L 373.017137 55.824906 
L 373.375871 55.967156 
L 373.734606 61.250527 
L 374.452074 55.361496 
L 374.810809 61.592815 
L 375.169543 60.820095 
L 375.528277 58.033107 
L 375.887012 58.760791 
L 376.245746 58.135678 
L 376.60448 63.878077 
L 376.963214 65.947744 
L 377.321949 64.888325 
L 377.680683 71.011344 
L 378.039417 69.59971 
L 378.398152 69.980801 
L 378.756886 71.126995 
L 379.11562 69.331529 
L 379.474355 64.485847 
L 379.833089 76.845508 
L 380.191823 74.166373 
L 380.550558 73.864845 
L 380.909292 77.206393 
L 381.268026 76.746252 
L 381.62676 75.624938 
L 381.985495 73.161335 
L 382.344229 80.315182 
L 382.702963 93.205132 
L 383.061698 84.289581 
L 383.420432 87.495836 
L 384.137901 86.11437 
L 384.496635 86.048993 
L 384.855369 84.653749 
L 385.214103 92.64672 
L 385.931572 90.549048 
L 386.290306 93.312475 
L 386.649041 89.620148 
L 387.007775 96.954084 
L 387.366509 96.323099 
L 387.725244 95.219948 
L 388.083978 95.220014 
L 388.442712 94.185206 
L 388.801447 102.631073 
L 389.160181 101.600124 
L 389.518915 101.294605 
L 389.877649 107.220314 
L 390.236384 104.71839 
L 390.595118 103.983806 
L 390.953852 101.239681 
L 391.312587 107.725744 
L 391.671321 108.387978 
L 392.030055 107.088945 
L 392.38879 108.080829 
L 392.747524 106.173766 
L 393.106258 110.770956 
L 393.464992 109.168671 
L 393.823727 109.36561 
L 394.541195 105.413149 
L 394.89993 113.500024 
L 395.258664 112.038753 
L 395.617398 113.093258 
L 395.976133 113.335879 
L 396.334867 112.090373 
L 396.693601 113.794674 
L 397.052336 112.113132 
L 397.41107 124.626275 
L 397.769804 116.659597 
L 398.128538 118.500034 
L 398.487273 119.21224 
L 398.487273 119.21224 
" clip-path="url(#pece686282c)" style="fill: none; stroke: #1f77b4; stroke-linecap: square"/>
   </g>
   <g id="line2d_26">
    <path d="M 73.832727 307.584 
L 74.191462 50.996552 
L 74.90893 50.996552 
L 75.267664 50.471059 
L 75.626399 51.63873 
L 75.985133 57.058303 
L 76.343867 57.969942 
L 76.702602 57.064608 
L 78.137539 57.528505 
L 81.366148 58.748092 
L 84.953491 59.843121 
L 86.029694 60.026388 
L 86.388428 60.525189 
L 86.747162 59.900047 
L 87.105897 58.468724 
L 87.464631 61.459042 
L 87.823365 66.370149 
L 88.182099 58.876471 
L 88.540834 59.483396 
L 91.769442 59.688279 
L 94.998051 60.193844 
L 95.356786 61.740591 
L 95.71552 60.618826 
L 96.074254 61.884978 
L 96.432988 60.486625 
L 97.509191 60.793415 
L 99.302863 61.341817 
L 102.172737 62.591815 
L 105.76008 63.881328 
L 106.118815 63.938509 
L 106.477549 64.191205 
L 106.836283 64.023253 
L 107.195018 65.267869 
L 107.553752 63.920567 
L 107.912486 65.907167 
L 108.27122 63.884533 
L 108.629955 63.27679 
L 108.988689 70.829947 
L 109.347423 63.609207 
L 113.293501 64.743721 
L 115.087172 65.241128 
L 115.445907 65.70607 
L 115.804641 65.987709 
L 116.163375 66.810472 
L 116.522109 64.078039 
L 116.880844 69.90265 
L 117.239578 65.757407 
L 117.598312 65.928724 
L 117.957047 66.518086 
L 118.315781 64.550195 
L 118.674515 64.176718 
L 119.03325 65.625669 
L 119.391984 66.112105 
L 119.750718 65.529559 
L 120.109453 66.192838 
L 120.468187 65.144681 
L 120.826921 65.567813 
L 121.185655 64.835527 
L 121.54439 69.981674 
L 121.903124 66.18873 
L 122.261858 65.64153 
L 122.620593 65.891444 
L 122.979327 67.410356 
L 123.338061 66.354431 
L 123.696796 66.788732 
L 124.05553 66.69642 
L 124.414264 64.516993 
L 124.772998 70.173646 
L 125.131733 65.598973 
L 125.490467 65.223301 
L 125.849201 66.175954 
L 126.207936 64.880107 
L 126.56667 66.57536 
L 126.925404 65.175125 
L 127.284139 65.407145 
L 127.642873 66.475151 
L 128.001607 66.348835 
L 128.360342 65.945451 
L 128.719076 66.319102 
L 129.07781 64.856151 
L 130.154013 65.947078 
L 130.512747 65.605875 
L 130.871482 67.589315 
L 131.230216 65.324738 
L 131.58895 66.445417 
L 131.947685 65.116583 
L 132.306419 64.957238 
L 132.665153 71.206117 
L 133.023887 72.609179 
L 133.382622 71.567163 
L 133.741356 70.868553 
L 134.10009 71.437406 
L 134.458825 71.197418 
L 134.817559 70.274855 
L 135.176293 77.659032 
L 135.535028 82.225798 
L 135.893762 80.643804 
L 136.252496 75.183064 
L 136.611231 80.88004 
L 136.969965 80.747007 
L 137.328699 75.635122 
L 137.687433 74.631235 
L 138.046168 78.08024 
L 138.404902 75.441566 
L 138.763636 86.896289 
L 139.122371 81.696071 
L 139.481105 81.243613 
L 139.839839 81.161379 
L 140.198574 80.578649 
L 140.557308 80.788049 
L 140.916042 79.222314 
L 141.274776 88.847517 
L 141.992245 84.266487 
L 142.350979 91.449649 
L 142.709714 92.044171 
L 143.427182 91.20708 
L 143.785917 92.110235 
L 144.144651 92.567224 
L 144.503385 97.90392 
L 144.86212 99.011187 
L 145.220854 94.515343 
L 145.579588 98.453726 
L 145.938322 97.122707 
L 146.297057 98.088692 
L 146.655791 104.343398 
L 147.014525 107.735998 
L 147.37326 102.542481 
L 147.731994 102.226715 
L 148.090728 101.22884 
L 148.449463 103.500023 
L 148.808197 102.756481 
L 149.166931 109.08506 
L 149.525665 110.50748 
L 149.8844 110.104625 
L 150.243134 109.286526 
L 150.601868 107.284849 
L 150.960603 107.192739 
L 151.319337 109.818052 
L 151.678071 108.410846 
L 152.036806 113.573889 
L 152.39554 115.526535 
L 152.754274 110.728717 
L 153.471743 125.367671 
L 153.830477 118.476294 
L 154.189211 121.032164 
L 154.547946 120.460021 
L 154.90668 120.430406 
L 155.265414 118.093937 
L 155.624149 117.181528 
L 155.982883 124.920446 
L 156.700352 123.225655 
L 157.059086 131.99889 
L 157.41782 133.413017 
L 157.776554 133.993846 
L 158.135289 136.019893 
L 158.494023 132.655263 
L 158.852757 131.573265 
L 159.211492 132.147092 
L 159.570226 130.420813 
L 159.92896 307.584 
L 160.287695 44.620191 
L 160.646429 44.798432 
L 161.005163 44.620191 
L 161.363898 45.703103 
L 161.722632 41.902153 
L 162.081366 47.424801 
L 163.157569 49.158731 
L 164.592506 51.045778 
L 166.386178 52.987316 
L 168.179849 54.584633 
L 170.332255 56.29053 
L 170.690989 56.239263 
L 171.049724 57.108467 
L 171.408458 59.346662 
L 171.767192 58.557953 
L 172.125927 58.357603 
L 172.484661 57.95949 
L 176.072004 60.001074 
L 178.941878 61.308709 
L 179.300613 61.142555 
L 179.659347 60.078721 
L 180.018081 61.323384 
L 180.376816 67.814315 
L 180.73555 59.895836 
L 181.094284 60.727056 
L 181.453019 60.266367 
L 181.811753 67.252986 
L 182.170487 61.885026 
L 182.529221 59.345215 
L 182.887956 59.928388 
L 183.24669 58.640188 
L 183.605424 61.460855 
L 183.964159 60.642856 
L 184.322893 60.686893 
L 184.681627 60.250004 
L 185.040362 60.468694 
L 185.399096 60.015753 
L 186.116565 64.786768 
L 186.475299 64.023703 
L 186.834033 62.566746 
L 187.551502 70.594133 
L 187.910236 65.54731 
L 188.26897 62.156228 
L 188.627705 64.339467 
L 188.986439 68.888735 
L 189.345173 76.791113 
L 190.062642 77.754148 
L 190.421376 76.89537 
L 190.78011 76.412888 
L 191.138845 81.741585 
L 191.856313 79.722087 
L 192.215048 80.855921 
L 192.573782 80.52811 
L 192.932516 80.678484 
L 193.291251 80.523136 
L 193.649985 80.890938 
L 194.008719 80.940878 
L 194.367454 85.08417 
L 194.726188 87.090919 
L 195.084922 86.860692 
L 195.443656 87.64053 
L 195.802391 92.978367 
L 196.161125 93.232272 
L 196.519859 88.627892 
L 196.878594 94.643165 
L 197.237328 87.891926 
L 197.596062 91.32046 
L 197.954797 97.580219 
L 198.313531 97.658681 
L 198.672265 99.992002 
L 199.748468 94.672891 
L 200.107202 102.060977 
L 200.465937 101.551344 
L 200.824671 103.035825 
L 201.183405 98.967958 
L 201.54214 102.757651 
L 201.900874 100.639143 
L 202.259608 108.234812 
L 202.618343 105.05298 
L 202.977077 108.961188 
L 203.335811 109.260016 
L 203.694545 108.034487 
L 204.05328 113.465229 
L 204.412014 114.705875 
L 204.770748 113.98857 
L 205.129483 119.990355 
L 205.488217 113.616323 
L 205.846951 114.218544 
L 206.205686 114.538774 
L 206.56442 110.061257 
L 206.923154 119.426596 
L 207.281888 116.914294 
L 207.640623 117.884678 
L 207.999357 119.599546 
L 208.358091 120.288721 
L 208.716826 124.179836 
L 209.07556 122.99391 
L 209.434294 124.508798 
L 209.793029 121.478671 
L 210.151763 123.820608 
L 210.510497 123.343779 
L 210.869232 121.166756 
L 211.227966 130.484411 
L 211.5867 131.105922 
L 211.945434 132.51904 
L 212.304169 130.274303 
L 212.662903 130.510142 
L 213.021637 132.276983 
L 213.380372 307.584 
L 213.739106 46.055227 
L 214.09784 46.893249 
L 214.456575 45.975093 
L 214.815309 45.975093 
L 215.174043 43.087795 
L 215.532777 50.105733 
L 216.967715 52.478454 
L 218.402652 54.234844 
L 219.837589 55.733225 
L 220.196323 55.487762 
L 220.555058 54.799291 
L 221.272526 57.836781 
L 221.631261 55.046148 
L 222.707464 55.703419 
L 225.936072 57.634056 
L 229.164681 59.428654 
L 229.523415 61.324635 
L 229.88215 64.992447 
L 230.240884 59.732457 
L 230.599618 59.704165 
L 230.958353 60.925733 
L 231.675821 60.374568 
L 232.034555 59.954899 
L 232.39329 61.329173 
L 232.752024 60.371561 
L 233.110758 61.238347 
L 233.469493 60.935459 
L 233.828227 60.249623 
L 234.186961 60.838646 
L 234.545696 60.958833 
L 234.90443 62.514351 
L 235.263164 61.177295 
L 235.621899 61.733171 
L 235.980633 61.310144 
L 236.339367 65.964052 
L 236.698101 65.135223 
L 237.056836 65.848539 
L 237.41557 62.090198 
L 237.774304 66.271624 
L 238.133039 63.695574 
L 238.491773 71.554832 
L 238.850507 72.800787 
L 239.209242 70.760553 
L 239.567976 71.442098 
L 239.92671 71.562856 
L 240.285445 69.761005 
L 240.644179 70.424131 
L 241.002913 80.874033 
L 241.361647 81.876516 
L 241.720382 78.73257 
L 242.079116 82.209408 
L 242.43785 81.612819 
L 242.796585 82.826786 
L 243.155319 82.165097 
L 243.514053 79.932709 
L 243.872788 81.631935 
L 244.231522 87.278112 
L 244.590256 98.136532 
L 244.94899 93.625226 
L 245.307725 91.389684 
L 245.666459 97.084835 
L 246.025193 93.196558 
L 246.742662 89.455716 
L 247.101396 102.461554 
L 247.460131 96.787523 
L 247.818865 99.461864 
L 248.177599 95.103323 
L 248.536334 98.652363 
L 248.895068 96.874949 
L 249.253802 102.235708 
L 249.612536 101.531105 
L 249.971271 105.097066 
L 251.047474 100.919844 
L 251.406208 101.209739 
L 251.764942 112.844937 
L 252.123677 112.591531 
L 252.482411 113.090717 
L 252.841145 113.390829 
L 253.199879 114.546429 
L 253.917348 115.346439 
L 254.276082 112.715733 
L 254.634817 119.03442 
L 254.993551 118.368568 
L 255.352285 118.97812 
L 255.71102 119.063456 
L 256.069754 115.056527 
L 256.428488 126.56909 
L 256.787223 124.56088 
L 257.504691 122.643633 
L 257.863425 123.791532 
L 258.22216 123.994752 
L 258.580894 130.900053 
L 258.939628 132.822459 
L 259.298363 130.919464 
L 259.657097 131.558216 
L 260.015831 130.620106 
L 260.374566 307.584 
L 260.7333 52.595873 
L 261.092034 52.171715 
L 261.809503 52.171715 
L 262.168237 53.973417 
L 263.603174 53.662248 
L 266.473049 52.927399 
L 267.190517 52.826581 
L 268.625455 54.299661 
L 270.419126 55.765973 
L 270.77786 55.358395 
L 271.136595 56.216599 
L 271.495329 54.949185 
L 271.854063 55.059789 
L 276.876344 58.156104 
L 279.746218 59.791173 
L 280.104952 61.502792 
L 280.463687 60.243431 
L 280.822421 61.264743 
L 281.181155 59.28469 
L 281.53989 61.721476 
L 281.898624 61.173857 
L 282.257358 60.078896 
L 282.616092 60.115037 
L 282.974827 61.189233 
L 283.333561 61.449323 
L 284.05103 60.239339 
L 284.409764 60.602681 
L 284.768498 62.626089 
L 285.127233 62.26525 
L 285.485967 58.861149 
L 285.844701 68.66936 
L 286.203435 59.291188 
L 286.56217 59.88498 
L 286.920904 59.989024 
L 287.279638 60.886958 
L 287.638373 59.415898 
L 287.997107 59.450728 
L 288.355841 66.896361 
L 288.714576 66.447748 
L 289.07331 66.511083 
L 289.432044 65.106699 
L 289.790779 66.222107 
L 290.149513 65.111574 
L 290.508247 65.45599 
L 290.866981 66.295858 
L 291.225716 70.630527 
L 291.58445 70.134796 
L 291.943184 71.189984 
L 292.301919 68.736616 
L 292.660653 71.603381 
L 293.019387 70.012597 
L 293.378122 68.991936 
L 293.736856 70.923026 
L 294.09559 76.248238 
L 294.454324 78.373911 
L 294.813059 77.546802 
L 295.171793 78.346121 
L 295.530527 76.174557 
L 295.889262 74.885004 
L 296.247996 74.397843 
L 296.60673 76.875102 
L 296.965465 75.37795 
L 297.324199 70.260205 
L 297.682933 82.777266 
L 298.041668 83.123563 
L 298.400402 80.517084 
L 298.759136 80.057675 
L 299.11787 77.829286 
L 299.476605 81.177514 
L 299.835339 82.364666 
L 300.194073 79.548971 
L 300.552808 81.134108 
L 300.911542 79.212478 
L 301.270276 86.650277 
L 301.629011 87.277601 
L 301.987745 87.286511 
L 302.346479 87.66887 
L 302.705213 82.594027 
L 303.063948 87.77483 
L 303.422682 87.191384 
L 303.781416 84.897254 
L 304.140151 92.459257 
L 304.498885 92.06153 
L 304.857619 89.940405 
L 305.216354 96.886855 
L 305.575088 97.053506 
L 305.933822 98.362631 
L 306.292557 95.959814 
L 306.651291 96.974416 
L 307.010025 102.800709 
L 307.368759 104.513413 
L 307.727494 101.665542 
L 308.086228 109.215392 
L 308.444962 108.050862 
L 308.803697 109.841095 
L 309.521165 107.305382 
L 309.8799 104.421831 
L 310.238634 114.524851 
L 310.597368 109.251134 
L 310.956102 113.630061 
L 311.314837 113.583252 
L 311.673571 114.736308 
L 312.032305 111.291171 
L 312.39104 117.912692 
L 312.749774 116.606717 
L 313.108508 117.713643 
L 313.467243 116.479722 
L 313.825977 118.270174 
L 314.184711 124.650933 
L 314.543446 124.014991 
L 314.90218 124.173268 
L 315.260914 122.330249 
L 315.619648 123.481448 
L 315.978383 126.394685 
L 316.337117 124.207328 
L 316.695851 136.020003 
L 317.054586 129.850084 
L 317.41332 135.711556 
L 317.772054 127.209164 
L 318.130789 132.895845 
L 318.489523 307.584 
L 318.848257 51.310776 
L 319.565726 51.310776 
L 319.92446 51.783604 
L 320.283194 48.853963 
L 320.641929 58.234627 
L 321.000663 57.321826 
L 321.359397 58.110121 
L 321.718132 57.016775 
L 322.076866 57.995311 
L 322.794335 57.762407 
L 323.870537 57.265491 
L 324.229272 57.307657 
L 329.969021 60.143862 
L 330.327755 60.432697 
L 330.686489 60.408471 
L 331.045224 62.657129 
L 331.403958 62.155642 
L 331.762692 62.18746 
L 332.121426 66.075827 
L 332.480161 61.621431 
L 335.350035 62.426983 
L 337.502441 63.090292 
L 338.21991 63.87462 
L 338.578644 64.577765 
L 338.937378 63.523342 
L 339.654847 63.565034 
L 341.807253 64.051378 
L 347.547002 65.517753 
L 347.905736 65.786748 
L 348.26447 65.548938 
L 348.623204 66.458547 
L 348.981939 64.526382 
L 349.340673 65.582033 
L 350.058142 65.706516 
L 351.493079 66.231166 
L 354.004219 67.172891 
L 356.515359 67.909475 
L 356.874093 68.26677 
L 357.232828 72.255691 
L 357.591562 67.318009 
L 357.950296 65.442325 
L 358.309031 66.528529 
L 358.667765 66.185527 
L 359.026499 67.070428 
L 359.385234 66.190396 
L 359.743968 66.56756 
L 360.102702 65.921709 
L 360.461436 66.818813 
L 361.178905 66.308633 
L 361.537639 66.526611 
L 361.896374 67.147409 
L 362.255108 64.613484 
L 362.613842 65.970052 
L 362.972577 65.736469 
L 363.331311 67.710226 
L 363.690045 65.684649 
L 364.04878 67.205585 
L 364.407514 64.892178 
L 364.766248 65.991895 
L 365.124982 65.605135 
L 365.483717 66.03984 
L 365.842451 65.437692 
L 366.201185 66.014177 
L 366.55992 65.476842 
L 366.918654 65.783726 
L 367.277388 67.085651 
L 367.636123 65.282827 
L 367.994857 67.433728 
L 368.353591 66.361755 
L 368.712325 66.72452 
L 369.07106 66.65998 
L 369.429794 65.343067 
L 369.788528 66.379766 
L 370.147263 65.041395 
L 370.864731 68.141907 
L 371.223466 64.897453 
L 371.5822 65.222439 
L 371.940934 66.032352 
L 372.299669 64.969164 
L 372.658403 68.553875 
L 373.017137 67.042975 
L 373.375871 67.23411 
L 373.734606 72.518518 
L 374.452074 66.615846 
L 374.810809 72.856147 
L 375.169543 72.054088 
L 375.528277 69.275374 
L 375.887012 69.991589 
L 376.245746 69.374472 
L 376.60448 75.1101 
L 376.963214 77.195872 
L 377.321949 76.130938 
L 377.680683 82.257703 
L 378.039417 80.849685 
L 378.398152 81.234319 
L 378.756886 82.371886 
L 379.11562 80.580003 
L 379.474355 75.737645 
L 379.833089 88.097578 
L 380.191823 85.417116 
L 380.550558 85.117896 
L 380.909292 88.45957 
L 381.268026 87.996763 
L 381.62676 86.880256 
L 381.985495 84.413751 
L 382.344229 91.56786 
L 382.702963 104.457831 
L 383.061698 95.542418 
L 383.420432 98.748381 
L 384.137901 97.366279 
L 384.496635 97.301004 
L 384.855369 95.906352 
L 385.214103 103.899042 
L 385.931572 101.801892 
L 386.290306 104.56513 
L 386.649041 100.873035 
L 387.007775 108.206841 
L 387.366509 107.575743 
L 387.725244 106.472546 
L 388.083978 106.472659 
L 388.442712 105.437891 
L 388.801447 113.883766 
L 389.160181 112.852771 
L 389.518915 112.547222 
L 389.877649 118.472852 
L 390.236384 115.971019 
L 390.595118 115.236481 
L 390.953852 112.492317 
L 391.312587 118.978353 
L 391.671321 119.640653 
L 392.030055 118.341605 
L 392.38879 119.333509 
L 392.747524 117.42644 
L 393.106258 122.023643 
L 393.464992 120.421357 
L 393.823727 120.618253 
L 394.541195 116.66582 
L 394.89993 124.752712 
L 395.258664 123.291443 
L 395.617398 124.345948 
L 395.976133 124.588553 
L 396.334867 123.343043 
L 396.693601 125.047377 
L 397.052336 123.36582 
L 397.41107 135.878964 
L 397.769804 127.912287 
L 398.128538 129.752715 
L 398.487273 130.464919 
L 398.487273 130.464919 
" clip-path="url(#pece686282c)" style="fill: none; stroke: #ff7f0e; stroke-linecap: square"/>
   </g>
   <g id="line2d_27">
    <path d="M 73.832727 307.584 
L 74.191462 61.982573 
L 74.550196 62.545078 
L 74.90893 51.176862 
L 75.267664 49.38102 
L 75.626399 75.650392 
L 75.985133 73.787531 
L 76.343867 67.602283 
L 76.702602 73.255653 
L 77.42007 68.650888 
L 78.137539 65.566568 
L 78.855008 63.541684 
L 79.572476 62.163248 
L 80.289945 61.15708 
L 81.366148 60.080198 
L 82.442351 59.34369 
L 83.518553 58.837932 
L 84.953491 58.415281 
L 86.029694 58.211229 
L 86.388428 58.280628 
L 86.747162 58.091706 
L 87.105897 63.798421 
L 87.464631 66.811381 
L 87.823365 62.681428 
L 88.182099 71.046069 
L 88.540834 60.313086 
L 90.334505 58.973685 
L 91.410708 58.595375 
L 92.845645 58.374427 
L 93.921848 58.275486 
L 94.280583 58.422368 
L 94.639317 58.116578 
L 94.998051 58.768687 
L 95.356786 57.734996 
L 95.71552 69.861826 
L 96.074254 63.971706 
L 96.432988 60.287491 
L 98.944129 60.135389 
L 101.814003 60.270986 
L 106.118815 60.69604 
L 106.477549 60.792428 
L 106.836283 60.737691 
L 107.195018 61.329965 
L 107.553752 60.830985 
L 107.912486 64.373949 
L 108.27122 62.701475 
L 108.629955 68.942058 
L 108.988689 69.084766 
L 109.347423 61.459123 
L 110.423626 61.62713 
L 113.293501 62.141796 
L 115.087172 62.393344 
L 115.445907 72.447287 
L 115.804641 73.726524 
L 116.163375 92.084111 
L 116.522109 68.585504 
L 116.880844 76.208468 
L 117.239578 65.46989 
L 117.957047 65.90485 
L 118.315781 67.134758 
L 118.674515 89.83436 
L 119.03325 86.36696 
L 119.391984 66.345971 
L 120.468187 66.867046 
L 121.185655 67.453723 
L 121.54439 66.24659 
L 121.903124 61.818604 
L 122.261858 68.776937 
L 122.620593 68.183538 
L 122.979327 68.394305 
L 124.05553 70.013947 
L 124.414264 70.266676 
L 124.772998 65.708823 
L 125.131733 62.970582 
L 125.490467 70.736191 
L 125.849201 71.151204 
L 126.56667 72.644647 
L 126.925404 72.617835 
L 127.284139 69.147302 
L 127.642873 68.324778 
L 128.001607 73.589862 
L 128.360342 74.24379 
L 128.719076 75.711297 
L 129.07781 76.60121 
L 129.436544 77.098091 
L 129.795279 66.973986 
L 130.154013 66.804564 
L 130.512747 79.585722 
L 130.871482 80.378756 
L 131.230216 83.05449 
L 131.58895 86.578617 
L 131.947685 65.552873 
L 132.306419 65.816294 
L 132.665153 93.343821 
L 133.023887 98.876576 
L 133.382622 100.643929 
L 133.741356 107.808506 
L 134.10009 70.472625 
L 134.458825 70.869662 
L 134.817559 95.98009 
L 135.176293 111.262616 
L 135.535028 85.156905 
L 135.893762 85.060428 
L 136.252496 115.88093 
L 136.611231 108.593778 
L 136.969965 110.603061 
L 137.328699 121.73765 
L 137.687433 75.836326 
L 138.046168 75.852045 
L 138.404902 117.772932 
L 138.763636 98.809325 
L 139.122371 99.295436 
L 139.481105 135.821154 
L 139.839839 127.028895 
L 140.198574 81.088045 
L 140.557308 81.103597 
L 140.916042 140.773726 
L 141.274776 131.635795 
L 141.633511 133.695391 
L 141.992245 136.981887 
L 142.350979 137.504471 
L 142.709714 91.767064 
L 143.068448 91.77449 
L 143.427182 138.969012 
L 143.785917 142.974645 
L 144.144651 144.480317 
L 144.503385 150.541901 
L 144.86212 175.079462 
L 145.220854 154.307329 
L 145.579588 155.008629 
L 145.938322 97.12099 
L 146.297057 97.126074 
L 146.655791 164.776602 
L 147.014525 190.89615 
L 147.37326 154.627644 
L 147.731994 176.567299 
L 148.090728 102.462039 
L 148.449463 102.464124 
L 148.808197 190.166904 
L 149.166931 171.70224 
L 149.525665 107.802073 
L 149.8844 107.80049 
L 150.243134 186.88134 
L 150.601868 189.527163 
L 150.960603 173.131994 
L 151.319337 191.327744 
L 151.678071 186.945107 
L 152.036806 113.135868 
L 152.39554 113.136465 
L 152.754274 188.730798 
L 153.113009 190.288276 
L 153.471743 194.306049 
L 153.830477 192.742076 
L 154.189211 197.796255 
L 154.547946 118.47403 
L 154.90668 118.47356 
L 155.265414 198.619565 
L 155.624149 198.572884 
L 155.982883 123.810582 
L 156.341617 123.810809 
L 156.700352 198.899479 
L 157.059086 221.671953 
L 157.41782 224.051982 
L 157.776554 224.666556 
L 158.135289 130.682984 
L 158.494023 130.682964 
L 158.852757 208.102029 
L 159.211492 209.479492 
L 159.570226 233.138986 
L 159.92896 307.584 
L 160.287695 53.0226 
L 160.646429 49.070749 
L 161.005163 43.015305 
L 161.363898 44.672537 
L 161.722632 45.53073 
L 162.081366 52.048296 
L 162.4401 49.637542 
L 162.798835 48.146048 
L 163.157569 47.295818 
L 163.516303 46.845382 
L 163.875038 46.653806 
L 164.233772 46.631146 
L 164.951241 46.886082 
L 166.027443 47.614933 
L 171.049724 51.628431 
L 171.408458 56.33587 
L 171.767192 55.748018 
L 172.125927 61.830074 
L 172.484661 52.670294 
L 177.506941 54.612497 
L 178.941878 55.160757 
L 179.300613 72.034961 
L 179.659347 70.059276 
L 180.018081 64.06809 
L 180.73555 58.312531 
L 181.094284 65.557703 
L 181.453019 66.546156 
L 181.811753 65.422082 
L 182.170487 61.595883 
L 182.529221 69.984067 
L 182.887956 64.646873 
L 183.24669 64.440299 
L 183.605424 72.006024 
L 183.964159 62.40802 
L 184.322893 62.587566 
L 184.681627 74.582842 
L 185.040362 82.074804 
L 185.399096 60.682185 
L 185.75783 61.355822 
L 186.116565 84.260418 
L 186.475299 90.280804 
L 186.834033 93.917792 
L 187.192767 105.709001 
L 187.551502 65.076669 
L 187.910236 65.279628 
L 188.26897 91.618432 
L 188.986439 102.551326 
L 189.345173 114.219329 
L 189.703908 107.623479 
L 190.062642 75.898313 
L 190.421376 75.855361 
L 190.78011 123.801902 
L 191.138845 120.137807 
L 191.497579 112.751156 
L 191.856313 81.235777 
L 192.215048 81.213537 
L 192.573782 119.499791 
L 192.932516 123.965591 
L 193.291251 121.632425 
L 193.649985 116.256587 
L 194.008719 126.807734 
L 194.367454 86.330443 
L 194.726188 86.290256 
L 195.084922 144.351753 
L 195.443656 148.032398 
L 195.802391 148.595768 
L 196.161125 128.902954 
L 196.519859 130.349554 
L 196.878594 147.417592 
L 197.237328 146.349269 
L 197.596062 151.181656 
L 197.954797 97.116631 
L 198.313531 97.126344 
L 198.672265 171.432514 
L 199.030999 163.439534 
L 199.389734 151.548903 
L 199.748468 156.249529 
L 200.107202 102.456557 
L 200.465937 102.456246 
L 200.824671 162.543391 
L 201.183405 164.037505 
L 201.54214 167.277999 
L 201.900874 173.199821 
L 202.259608 107.797856 
L 202.618343 107.797726 
L 202.977077 168.489407 
L 203.335811 169.121353 
L 203.694545 180.061782 
L 204.05328 183.647684 
L 204.412014 113.135885 
L 204.770748 113.136413 
L 205.129483 181.628683 
L 205.488217 182.037617 
L 205.846951 188.183609 
L 206.205686 198.499995 
L 206.56442 192.862471 
L 206.923154 118.473007 
L 207.281888 118.472622 
L 207.640623 190.148646 
L 208.358091 209.951531 
L 208.716826 205.214418 
L 209.07556 123.810836 
L 209.434294 123.810786 
L 209.793029 207.894129 
L 210.510497 217.486684 
L 210.869232 216.698193 
L 211.227966 215.294241 
L 211.5867 216.019679 
L 211.945434 130.682866 
L 212.304169 130.682976 
L 212.662903 219.089207 
L 213.021637 218.397469 
L 213.380372 307.584 
L 213.739106 48.742412 
L 214.09784 64.980853 
L 214.815309 45.95209 
L 215.174043 41.472 
L 215.532777 48.038469 
L 216.250246 48.198302 
L 217.326449 48.724855 
L 220.196323 50.459744 
L 220.555058 51.641679 
L 220.913792 50.825602 
L 221.272526 53.140698 
L 221.631261 51.46804 
L 223.424932 52.412199 
L 228.088478 54.613511 
L 229.164681 55.064442 
L 229.523415 58.503518 
L 229.88215 77.93021 
L 230.240884 62.543277 
L 230.599618 63.526163 
L 230.958353 65.355655 
L 231.317087 64.412655 
L 231.675821 66.804488 
L 232.034555 65.828914 
L 232.39329 67.817126 
L 232.752024 97.579498 
L 233.110758 67.690155 
L 233.469493 68.106539 
L 233.828227 70.349955 
L 234.186961 69.254628 
L 234.545696 62.493351 
L 234.90443 62.501404 
L 235.263164 74.884825 
L 235.621899 75.325644 
L 235.980633 81.622434 
L 236.339367 91.971237 
L 236.698101 64.848098 
L 237.056836 65.49876 
L 237.41557 89.152968 
L 237.774304 101.316317 
L 238.133039 94.681741 
L 238.491773 80.54357 
L 238.850507 80.644861 
L 239.209242 100.886811 
L 239.567976 105.258424 
L 239.92671 70.330873 
L 240.285445 70.364809 
L 240.644179 102.13258 
L 241.002913 101.988679 
L 241.361647 102.003553 
L 241.720382 101.287478 
L 242.43785 146.391491 
L 242.796585 81.113424 
L 243.155319 81.114458 
L 243.514053 140.14111 
L 243.872788 143.079486 
L 244.231522 141.896201 
L 244.590256 120.460802 
L 244.94899 119.665763 
L 245.307725 144.353628 
L 245.666459 91.791519 
L 246.025193 91.790962 
L 246.383928 150.395946 
L 246.742662 150.820666 
L 247.101396 97.125175 
L 247.460131 97.126662 
L 247.818865 158.216758 
L 248.177599 160.964822 
L 248.536334 160.926649 
L 249.253802 173.301035 
L 249.612536 179.954113 
L 249.971271 176.929452 
L 250.330005 102.463013 
L 250.688739 102.460198 
L 251.047474 158.955565 
L 251.406208 170.731921 
L 252.123677 177.227172 
L 252.482411 186.060301 
L 252.841145 184.504952 
L 253.199879 187.117807 
L 253.558614 113.137213 
L 253.917348 113.137035 
L 254.276082 183.228011 
L 254.634817 184.963682 
L 254.993551 199.857513 
L 255.352285 118.473455 
L 255.71102 118.473557 
L 256.069754 206.767915 
L 256.428488 213.985081 
L 256.787223 212.372568 
L 257.145957 205.459267 
L 257.504691 203.689233 
L 257.863425 222.681718 
L 258.22216 223.142751 
L 258.939628 235.780394 
L 259.298363 233.345248 
L 259.657097 130.682997 
L 260.015831 130.683019 
L 260.374566 307.584 
L 260.7333 48.795961 
L 261.092034 49.7756 
L 261.450768 67.173701 
L 261.809503 53.410484 
L 262.168237 72.343217 
L 262.526971 66.664312 
L 263.603174 59.205436 
L 264.320643 55.983367 
L 265.038112 54.192007 
L 265.75558 53.199203 
L 266.473049 52.669932 
L 267.190517 52.427251 
L 268.26672 52.39279 
L 269.342923 52.529484 
L 269.701657 52.775842 
L 270.060392 52.427516 
L 270.419126 53.606847 
L 270.77786 64.532122 
L 271.136595 56.964001 
L 271.495329 56.311324 
L 271.854063 54.71118 
L 272.571532 54.650825 
L 273.647735 54.953557 
L 277.952546 56.547817 
L 279.746218 57.051182 
L 280.104952 65.323339 
L 280.463687 64.700165 
L 280.822421 56.833577 
L 281.181155 54.536966 
L 281.53989 61.475148 
L 282.257358 63.114995 
L 282.616092 63.313119 
L 282.974827 56.658052 
L 283.333561 56.860211 
L 283.692295 64.47422 
L 284.05103 65.366029 
L 284.768498 68.369498 
L 285.127233 63.103793 
L 285.485967 63.715369 
L 285.844701 65.637606 
L 286.203435 62.46371 
L 286.56217 71.682653 
L 286.920904 72.268118 
L 287.279638 61.444992 
L 287.638373 60.903049 
L 287.997107 85.40101 
L 288.355841 92.663443 
L 288.714576 84.973113 
L 289.07331 92.88165 
L 289.432044 97.797345 
L 289.790779 64.955811 
L 290.149513 65.770122 
L 290.508247 98.551735 
L 290.866981 99.868518 
L 291.225716 100.183403 
L 291.58445 70.273945 
L 291.943184 71.008456 
L 293.019387 118.790673 
L 293.378122 100.24971 
L 293.736856 104.784052 
L 294.09559 114.949081 
L 294.454324 93.951516 
L 294.813059 94.495467 
L 295.171793 112.84884 
L 295.530527 75.701623 
L 295.889262 75.875578 
L 296.247996 114.170799 
L 296.60673 119.820398 
L 296.965465 115.482515 
L 297.324199 113.59335 
L 297.682933 117.31066 
L 298.041668 81.038278 
L 298.400402 81.061799 
L 298.759136 127.30214 
L 299.11787 124.40712 
L 299.476605 124.402895 
L 299.835339 119.82541 
L 300.194073 121.202759 
L 300.552808 127.234194 
L 300.911542 125.274727 
L 301.270276 130.497518 
L 301.629011 86.423334 
L 301.987745 86.428375 
L 302.346479 143.23861 
L 302.705213 133.265451 
L 303.063948 138.720441 
L 303.422682 142.246213 
L 303.781416 144.1609 
L 304.140151 91.767826 
L 304.498885 91.784127 
L 304.857619 134.420362 
L 305.216354 135.619999 
L 305.575088 162.873345 
L 305.933822 97.123797 
L 306.292557 97.12934 
L 306.651291 151.256874 
L 307.368759 167.83781 
L 307.727494 167.506642 
L 308.444962 175.475116 
L 308.803697 176.910987 
L 309.162431 107.799184 
L 309.521165 107.800127 
L 309.8799 195.815797 
L 310.238634 174.447544 
L 310.597368 172.852353 
L 310.956102 113.136079 
L 311.314837 113.136811 
L 311.673571 188.829404 
L 312.032305 215.935261 
L 312.39104 118.472849 
L 312.749774 118.473109 
L 313.108508 195.869117 
L 313.467243 194.430931 
L 313.825977 202.966201 
L 314.184711 205.38339 
L 314.543446 123.810772 
L 314.90218 123.810351 
L 315.260914 206.972377 
L 315.619648 214.494572 
L 315.978383 203.859321 
L 316.337117 210.057273 
L 316.695851 130.682984 
L 317.054586 130.682947 
L 317.41332 227.953608 
L 317.772054 223.055075 
L 318.130789 225.487096 
L 318.489523 307.584 
L 318.848257 58.20672 
L 319.206991 58.266636 
L 319.565726 49.595911 
L 319.92446 50.222393 
L 320.283194 49.874535 
L 320.641929 76.831458 
L 321.000663 65.698508 
L 321.359397 74.418028 
L 321.718132 59.296216 
L 322.076866 75.215736 
L 323.153069 67.637691 
L 323.870537 63.993987 
L 324.588006 61.847756 
L 325.305475 60.476635 
L 326.022943 59.540999 
L 326.740412 58.881241 
L 327.816615 58.236689 
L 328.892818 57.829059 
L 329.251552 57.805905 
L 329.610286 57.626581 
L 329.969021 57.783414 
L 330.327755 57.337014 
L 330.686489 58.079296 
L 331.045224 56.880516 
L 331.403958 60.97134 
L 331.762692 58.729343 
L 332.121426 77.846044 
L 332.480161 60.853414 
L 333.197629 60.28414 
L 333.915098 59.743954 
L 334.991301 59.268386 
L 336.426238 58.939594 
L 336.784972 59.009845 
L 337.143707 58.763653 
L 337.502441 59.167838 
L 337.861175 58.190191 
L 338.21991 65.184652 
L 338.578644 63.366848 
L 338.937378 60.022319 
L 340.73105 59.835765 
L 342.883456 59.845739 
L 346.112064 60.117729 
L 348.26447 60.394011 
L 348.623204 64.136917 
L 348.981939 75.640179 
L 349.340673 62.464022 
L 349.699407 60.773088 
L 351.493079 61.098158 
L 354.721688 61.729582 
L 356.515359 62.001879 
L 357.232828 95.24287 
L 357.591562 75.619939 
L 357.950296 62.536703 
L 358.309031 66.546957 
L 359.743968 67.160731 
L 360.461436 67.875018 
L 360.820171 67.952199 
L 361.178905 68.724217 
L 361.537639 75.928153 
L 361.896374 68.384771 
L 362.255108 74.419055 
L 362.613842 68.72089 
L 362.972577 69.010154 
L 363.331311 68.999211 
L 363.690045 70.899954 
L 364.04878 69.731074 
L 364.407514 74.321749 
L 364.766248 73.947474 
L 365.124982 70.533758 
L 365.483717 70.686077 
L 365.842451 71.074202 
L 366.55992 72.23837 
L 366.918654 73.641869 
L 367.277388 73.288113 
L 367.636123 74.67121 
L 367.994857 74.558837 
L 368.353591 63.329152 
L 368.712325 63.527985 
L 369.07106 76.058159 
L 369.788528 77.786363 
L 370.147263 79.434884 
L 370.505997 80.139799 
L 370.864731 66.276584 
L 371.223466 65.996713 
L 371.5822 83.161728 
L 371.940934 84.775576 
L 372.299669 90.752691 
L 372.658403 102.56455 
L 373.017137 65.106482 
L 373.375871 65.323186 
L 373.734606 92.014336 
L 374.09334 93.841969 
L 374.452074 91.502254 
L 374.810809 102.27389 
L 375.169543 70.295287 
L 375.528277 70.538012 
L 375.887012 104.84891 
L 376.245746 103.821738 
L 376.60448 75.791331 
L 376.963214 76.247008 
L 377.321949 95.813786 
L 377.680683 122.011145 
L 378.039417 136.809476 
L 378.398152 132.268253 
L 378.756886 81.117863 
L 379.11562 81.156467 
L 379.474355 130.066348 
L 379.833089 125.754319 
L 380.191823 127.163658 
L 380.550558 132.192015 
L 380.909292 145.062594 
L 381.268026 86.452353 
L 381.62676 86.442241 
L 381.985495 183.802826 
L 382.702963 154.337377 
L 383.061698 157.313338 
L 383.420432 155.479049 
L 383.779166 158.792377 
L 384.137901 97.122664 
L 384.496635 97.124421 
L 384.855369 173.631368 
L 385.214103 164.182239 
L 385.572838 165.323168 
L 385.931572 166.051825 
L 386.290306 170.384364 
L 386.649041 208.035546 
L 387.007775 197.281471 
L 387.366509 201.318758 
L 387.725244 107.799641 
L 388.083978 107.799958 
L 388.442712 167.490135 
L 388.801447 169.26978 
L 389.160181 185.536872 
L 389.518915 183.73112 
L 389.877649 113.136697 
L 390.236384 113.136571 
L 390.595118 196.68411 
L 390.953852 191.342975 
L 391.312587 231.718373 
L 391.671321 118.473768 
L 392.030055 118.473566 
L 392.38879 217.035346 
L 392.747524 142.464574 
L 393.106258 142.462631 
L 393.464992 201.239279 
L 393.823727 118.926698 
L 394.182461 118.926549 
L 394.541195 223.874053 
L 394.89993 139.978415 
L 395.258664 139.97972 
L 395.617398 214.499014 
L 395.976133 219.546004 
L 396.334867 123.810548 
L 396.693601 123.810486 
L 397.052336 211.351613 
L 397.41107 226.411424 
L 397.769804 218.100807 
L 398.487273 226.608459 
L 398.487273 226.608459 
" clip-path="url(#pece686282c)" style="fill: none; stroke: #2ca02c; stroke-linecap: square"/>
   </g>
   <g id="patch_3">
    <path d="M 57.6 307.584 
L 57.6 41.472 
" style="fill: none; stroke: #000000; stroke-width: 0.8; stroke-linejoin: miter; stroke-linecap: square"/>
   </g>
   <g id="patch_4">
    <path d="M 414.72 307.584 
L 414.72 41.472 
" style="fill: none; stroke: #000000; stroke-width: 0.8; stroke-linejoin: miter; stroke-linecap: square"/>
   </g>
   <g id="patch_5">
    <path d="M 57.6 307.584 
L 414.72 307.584 
" style="fill: none; stroke: #000000; stroke-width: 0.8; stroke-linejoin: miter; stroke-linecap: square"/>
   </g>
   <g id="patch_6">
    <path d="M 57.6 41.472 
L 414.72 41.472 
" style="fill: none; stroke: #000000; stroke-width: 0.8; stroke-linejoin: miter; stroke-linecap: square"/>
   </g>
   <g id="line2d_28">
    <path d="M 73.832727 45.673617 
L 74.191462 45.652877 
L 74.90893 45.781708 
L 75.267664 45.742522 
L 75.985133 45.916862 
L 76.343867 45.858138 
L 82.801085 47.029982 
L 87.464631 47.905371 
L 88.182099 47.994427 
L 92.486911 49.185718 
L 97.509191 50.837735 
L 100.379066 52.160093 
L 102.890206 53.568521 
L 105.042612 55.040015 
L 107.195018 56.837861 
L 107.912486 57.542159 
L 108.629955 57.814968 
L 108.988689 57.946359 
L 110.064892 59.408526 
L 111.141095 61.236267 
L 112.217298 63.656269 
L 112.934766 65.84275 
L 113.652235 68.917954 
L 114.010969 71.091114 
L 114.369704 74.133449 
L 114.728438 79.245472 
L 115.087172 101.282873 
L 115.445907 97.01168 
L 115.804641 104.169621 
L 116.163375 96.07828 
L 116.522109 91.195815 
L 116.880844 120.102272 
L 117.239578 113.746734 
L 117.598312 113.318973 
L 117.957047 111.321867 
L 118.315781 95.47943 
L 118.674515 84.71898 
L 119.03325 106.99257 
L 119.391984 109.042232 
L 119.750718 111.837232 
L 120.109453 109.521297 
L 120.468187 109.189374 
L 120.826921 107.867781 
L 121.185655 99.801825 
L 121.54439 86.033719 
L 121.903124 99.954734 
L 122.261858 108.927375 
L 122.620593 110.307873 
L 122.979327 105.786876 
L 123.338061 105.407968 
L 124.414264 97.737516 
L 124.772998 86.451258 
L 125.131733 109.47807 
L 125.490467 109.190094 
L 126.56667 103.078175 
L 126.925404 97.406495 
L 127.284139 84.174313 
L 127.642873 111.247172 
L 128.001607 110.885313 
L 128.360342 107.106652 
L 128.719076 109.536876 
L 129.07781 107.97717 
L 129.436544 103.143361 
L 129.795279 84.450926 
L 130.154013 107.945704 
L 130.512747 110.796761 
L 130.871482 108.970252 
L 131.230216 109.501263 
L 131.58895 106.818562 
L 131.947685 84.497313 
L 132.306419 104.928484 
L 132.665153 113.588923 
L 133.023887 116.233606 
L 133.382622 115.720241 
L 133.741356 113.681982 
L 134.10009 89.830766 
L 134.458825 110.527656 
L 134.817559 115.961451 
L 135.176293 116.828052 
L 135.535028 103.394448 
L 135.893762 117.795216 
L 136.252496 118.437124 
L 136.611231 116.915671 
L 136.969965 118.532964 
L 137.328699 118.141459 
L 137.687433 95.16017 
L 138.046168 117.702076 
L 138.404902 118.378337 
L 138.763636 112.914227 
L 139.122371 118.315095 
L 139.839839 118.411261 
L 140.198574 100.035465 
L 140.557308 118.219626 
L 140.916042 118.56561 
L 142.350979 118.682481 
L 142.709714 108.901385 
L 143.068448 118.670532 
L 144.86212 118.703144 
L 145.579588 118.704162 
L 145.938322 112.348584 
L 146.297057 118.704469 
L 147.731994 118.707932 
L 148.090728 114.891269 
L 148.449463 118.708757 
L 149.166931 118.709055 
L 149.525665 121.68848 
L 149.8844 118.709172 
L 151.678071 118.709181 
L 152.036806 117.563322 
L 152.39554 118.709044 
L 154.189211 118.709284 
L 154.547946 119.353215 
L 154.90668 118.709294 
L 155.624149 118.709292 
L 155.982883 118.406465 
L 156.341617 118.709288 
L 157.776554 118.709306 
L 158.135289 118.583823 
L 158.494023 118.709306 
L 159.570226 118.709306 
L 159.92896 45.907931 
L 160.287695 45.876485 
L 160.646429 46.012702 
L 161.363898 45.913079 
L 162.4401 46.401079 
L 164.951241 47.568754 
L 167.462381 48.995689 
L 169.614787 50.507309 
L 171.049724 51.724016 
L 171.767192 51.686398 
L 172.125927 51.885336 
L 173.560864 53.641821 
L 174.637067 55.321027 
L 175.71327 57.494709 
L 176.430738 59.393624 
L 177.148207 61.928795 
L 177.865676 65.746017 
L 178.22441 68.731299 
L 178.583144 73.678779 
L 178.941878 91.583296 
L 179.300613 84.077256 
L 179.659347 93.245813 
L 180.018081 90.03673 
L 180.376816 83.087713 
L 180.73555 106.275317 
L 181.094284 103.872488 
L 181.453019 97.290075 
L 181.811753 86.224982 
L 182.170487 99.960261 
L 182.529221 92.91157 
L 182.887956 80.100145 
L 183.24669 105.350404 
L 183.605424 98.350381 
L 183.964159 80.121377 
L 184.322893 105.483065 
L 184.681627 105.188848 
L 185.040362 98.808652 
L 185.399096 79.839211 
L 185.75783 99.109671 
L 186.116565 102.37401 
L 186.475299 99.895457 
L 186.834033 108.862919 
L 187.192767 109.276282 
L 187.551502 84.497601 
L 187.910236 107.032608 
L 188.986439 116.604375 
L 189.345173 117.133277 
L 189.703908 113.395368 
L 190.062642 95.002138 
L 190.421376 117.862725 
L 190.78011 117.660058 
L 191.138845 118.267081 
L 191.497579 117.016292 
L 191.856313 100.016174 
L 192.215048 117.879309 
L 192.573782 118.520942 
L 193.291251 117.886482 
L 193.649985 118.434042 
L 194.008719 118.4618 
L 194.367454 104.602916 
L 194.726188 118.65031 
L 195.443656 118.677489 
L 195.802391 118.697698 
L 196.161125 118.533788 
L 196.519859 118.699513 
L 197.596062 118.699957 
L 197.954797 112.346839 
L 198.313531 118.701567 
L 199.748468 118.706642 
L 200.107202 114.88808 
L 200.465937 118.707657 
L 201.900874 118.708742 
L 202.259608 116.56565 
L 202.618343 118.708559 
L 204.05328 118.709149 
L 204.412014 117.563367 
L 204.770748 118.709205 
L 206.56442 118.709278 
L 206.923154 118.115044 
L 207.281888 118.709281 
L 208.716826 118.709297 
L 209.07556 119.024527 
L 209.434294 118.709296 
L 211.5867 118.709305 
L 211.945434 118.583822 
L 212.304169 118.709305 
L 213.021637 118.709306 
L 213.380372 47.073928 
L 213.739106 47.025596 
L 214.09784 47.2088 
L 214.815309 47.008904 
L 215.174043 47.386495 
L 217.685183 48.787531 
L 219.837589 50.246102 
L 222.348729 52.325085 
L 223.783666 54.032224 
L 224.859869 55.64862 
L 225.936072 57.725649 
L 226.653541 59.523922 
L 227.37101 61.892386 
L 228.088478 65.356819 
L 228.447212 67.944007 
L 228.805947 71.879883 
L 229.164681 80.410018 
L 229.88215 84.928565 
L 230.240884 106.05774 
L 230.599618 95.412282 
L 230.958353 113.606695 
L 231.675821 91.859152 
L 232.034555 80.125116 
L 232.39329 92.446274 
L 232.752024 97.578034 
L 233.110758 104.361153 
L 233.469493 103.633453 
L 233.828227 99.591927 
L 234.545696 78.99986 
L 235.263164 106.37179 
L 235.621899 105.510358 
L 235.980633 104.170318 
L 236.339367 101.709718 
L 236.698101 84.217555 
L 237.056836 100.533927 
L 237.41557 108.029536 
L 237.774304 108.745895 
L 238.133039 113.840758 
L 238.491773 99.466986 
L 238.850507 116.140963 
L 239.209242 114.86656 
L 239.567976 116.135232 
L 239.92671 89.804158 
L 240.285445 114.539311 
L 240.644179 114.347855 
L 241.002913 117.698681 
L 241.361647 114.222597 
L 241.720382 118.584895 
L 242.43785 118.386356 
L 242.796585 100.048758 
L 243.155319 118.435116 
L 244.231522 118.656141 
L 244.590256 118.200734 
L 244.94899 118.694768 
L 245.307725 118.685828 
L 245.666459 108.912979 
L 246.025193 118.701896 
L 246.742662 118.702713 
L 247.101396 112.348495 
L 247.460131 118.693921 
L 249.971271 118.70785 
L 250.330005 126.611771 
L 250.688739 118.706415 
L 253.199879 118.7091 
L 253.558614 117.563471 
L 253.917348 118.709227 
L 254.993551 118.70928 
L 255.352285 118.115081 
L 255.71102 118.70928 
L 259.298363 118.709306 
L 259.657097 118.583824 
L 260.015831 118.709306 
L 260.374566 45.944611 
L 260.7333 45.907876 
L 261.092034 46.05026 
L 261.809503 45.896351 
L 264.679377 47.089456 
L 267.190517 48.351658 
L 269.701657 49.872675 
L 272.212798 51.647931 
L 273.647735 53.168541 
L 274.723938 54.584444 
L 275.800141 56.35467 
L 276.876344 58.696189 
L 277.593812 60.802891 
L 278.311281 63.737814 
L 278.670015 65.781465 
L 279.028749 68.581585 
L 279.387484 73.04319 
L 279.746218 84.955049 
L 280.104952 84.444319 
L 280.463687 85.957683 
L 280.822421 80.376428 
L 281.181155 113.215711 
L 281.898624 97.662739 
L 282.257358 96.481753 
L 282.616092 90.461371 
L 282.974827 80.369541 
L 283.333561 101.521807 
L 283.692295 100.859338 
L 284.05103 99.637124 
L 284.409764 100.531859 
L 284.768498 93.757804 
L 285.127233 78.978763 
L 285.485967 96.211414 
L 285.844701 87.261428 
L 286.203435 102.918462 
L 286.56217 103.468084 
L 286.920904 95.002104 
L 287.279638 79.160258 
L 287.638373 99.62247 
L 287.997107 98.678223 
L 288.355841 113.19191 
L 288.714576 112.125545 
L 289.07331 109.340747 
L 289.432044 100.660259 
L 289.790779 84.442185 
L 290.149513 102.144296 
L 290.508247 108.563684 
L 290.866981 110.767506 
L 291.225716 110.014732 
L 291.58445 89.62288 
L 292.301919 116.534598 
L 292.660653 116.612736 
L 293.019387 116.495031 
L 293.378122 116.517956 
L 293.736856 115.91346 
L 294.09559 117.449564 
L 294.454324 110.709753 
L 294.813059 117.847452 
L 295.171793 116.75113 
L 295.530527 95.023913 
L 295.889262 116.913953 
L 296.247996 117.840965 
L 296.60673 118.242939 
L 296.965465 117.710874 
L 297.682933 118.523404 
L 298.041668 100.014571 
L 298.400402 118.439809 
L 298.759136 118.208737 
L 299.11787 118.504428 
L 299.476605 118.238767 
L 299.835339 118.461836 
L 300.194073 118.528672 
L 300.552808 118.373619 
L 301.270276 118.645592 
L 301.629011 104.715896 
L 301.987745 118.645661 
L 302.705213 118.62933 
L 303.781416 118.685711 
L 304.140151 108.904797 
L 304.498885 118.666073 
L 305.216354 118.701474 
L 305.575088 118.702783 
L 305.933822 112.347802 
L 306.292557 118.698862 
L 308.803697 118.708789 
L 309.162431 121.68871 
L 309.521165 118.709037 
L 310.597368 118.709254 
L 310.956102 117.563417 
L 311.314837 118.709241 
L 312.032305 118.709286 
L 312.39104 118.115049 
L 312.749774 118.709231 
L 314.184711 118.709277 
L 314.543446 118.406463 
L 314.90218 118.709301 
L 316.337117 118.709304 
L 316.695851 118.583821 
L 317.054586 118.709304 
L 318.130789 118.709306 
L 318.489523 45.646434 
L 318.848257 45.612597 
L 319.206991 45.745073 
L 319.92446 45.654042 
L 320.641929 45.887429 
L 321.000663 45.822559 
L 321.359397 45.887174 
L 321.718132 45.822991 
L 327.099146 46.901174 
L 331.762692 47.863975 
L 332.480161 48.004028 
L 336.426238 49.251753 
L 340.013581 50.59919 
L 342.883456 52.01466 
L 345.035861 53.297547 
L 347.188267 54.849518 
L 348.26447 55.77144 
L 349.340673 56.182172 
L 350.77561 57.841324 
L 351.851813 59.395636 
L 352.928016 61.36208 
L 353.645485 63.030956 
L 354.362953 65.171641 
L 355.080422 68.155552 
L 355.439156 70.238641 
L 355.797891 73.106393 
L 356.156625 77.732872 
L 356.515359 91.124143 
L 356.874093 92.730327 
L 357.232828 92.90936 
L 357.591562 90.927317 
L 357.950296 110.231097 
L 358.309031 113.42014 
L 358.667765 112.651114 
L 359.026499 110.723704 
L 359.385234 113.688812 
L 359.743968 113.416187 
L 360.102702 109.296768 
L 360.461436 113.212226 
L 360.820171 112.721094 
L 361.178905 101.396427 
L 361.537639 98.187234 
L 361.896374 83.656695 
L 362.255108 108.955465 
L 362.613842 113.667166 
L 362.972577 109.680014 
L 363.331311 99.564337 
L 363.690045 110.012814 
L 364.04878 91.184693 
L 364.407514 84.919565 
L 364.766248 106.490365 
L 365.124982 110.916679 
L 365.483717 112.01607 
L 365.842451 109.297121 
L 366.201185 109.777827 
L 366.55992 104.625259 
L 366.918654 105.742585 
L 367.277388 104.011674 
L 367.636123 105.275988 
L 367.994857 100.195918 
L 368.353591 85.147747 
L 368.712325 106.831761 
L 369.07106 108.281853 
L 369.429794 111.341859 
L 369.788528 109.950575 
L 370.505997 102.882696 
L 370.864731 84.252978 
L 371.223466 110.407711 
L 371.5822 111.798643 
L 371.940934 109.168163 
L 372.299669 110.100188 
L 372.658403 106.405146 
L 373.017137 84.492426 
L 373.375871 107.205796 
L 373.734606 112.830229 
L 374.09334 107.420472 
L 374.452074 116.329703 
L 374.810809 114.738412 
L 375.169543 89.851794 
L 375.528277 115.912699 
L 375.887012 115.759827 
L 376.245746 114.288974 
L 376.60448 94.928837 
L 376.963214 111.552609 
L 377.321949 118.259589 
L 378.039417 118.569046 
L 378.398152 118.323663 
L 378.756886 100.050523 
L 379.11562 117.715587 
L 379.474355 118.458607 
L 379.833089 118.564381 
L 380.191823 118.458626 
L 380.550558 118.636783 
L 380.909292 118.609328 
L 381.268026 104.7311 
L 381.62676 118.632572 
L 382.702963 118.696529 
L 383.779166 118.705051 
L 384.137901 112.348993 
L 384.496635 118.701382 
L 387.366509 118.709075 
L 387.725244 116.566345 
L 388.083978 118.709076 
L 389.518915 118.709177 
L 389.877649 117.563395 
L 390.236384 118.709273 
L 391.312587 118.709253 
L 391.671321 119.353204 
L 392.030055 118.709298 
L 393.464992 118.70929 
L 393.823727 118.147835 
L 394.182461 118.709292 
L 395.976133 118.709302 
L 396.334867 118.406472 
L 396.693601 118.709302 
L 398.487273 118.709306 
L 398.487273 118.709306 
" clip-path="url(#pece686282c)" style="fill: none; stroke: #d62728; stroke-linecap: square"/>
   </g>
   <g id="legend_1">
    <g id="patch_7">
     <path d="M 183.288906 304.584 
L 293.031094 304.584 
Q 295.031094 304.584 295.031094 302.584 
L 295.031094 244.8715 
Q 295.031094 242.8715 293.031094 242.8715 
L 183.288906 242.8715 
Q 181.288906 242.8715 181.288906 244.8715 
L 181.288906 302.584 
Q 181.288906 304.584 183.288906 304.584 
z
" style="fill: #4d4d4d; opacity: 0.5; stroke: #4d4d4d; stroke-linejoin: miter"/>
    </g>
    <g id="patch_8">
     <path d="M 181.288906 302.584 
L 291.031094 302.584 
Q 293.031094 302.584 293.031094 300.584 
L 293.031094 242.8715 
Q 293.031094 240.8715 291.031094 240.8715 
L 181.288906 240.8715 
Q 179.288906 240.8715 179.288906 242.8715 
L 179.288906 300.584 
Q 179.288906 302.584 181.288906 302.584 
z
" style="fill: #ffffff; stroke: #cccccc; stroke-linejoin: miter"/>
    </g>
    <g id="line2d_29">
     <path d="M 183.288906 248.969937 
L 193.288906 248.969937 
L 203.288906 248.969937 
" style="fill: none; stroke: #1f77b4; stroke-linecap: square"/>
    </g>
    <g id="text_15">
     <!-- absolute error -->
     <g transform="translate(211.288906 252.469937) scale(0.1 -0.1)">
      <defs>
       <path id="DejaVuSans-73" d="M 2834 3397 
L 2834 2853 
Q 2591 2978 2328 3040 
Q 2066 3103 1784 3103 
Q 1356 3103 1142 2972 
Q 928 2841 928 2578 
Q 928 2378 1081 2264 
Q 1234 2150 1697 2047 
L 1894 2003 
Q 2506 1872 2764 1633 
Q 3022 1394 3022 966 
Q 3022 478 2636 193 
Q 2250 -91 1575 -91 
Q 1294 -91 989 -36 
Q 684 19 347 128 
L 347 722 
Q 666 556 975 473 
Q 1284 391 1588 391 
Q 1994 391 2212 530 
Q 2431 669 2431 922 
Q 2431 1156 2273 1281 
Q 2116 1406 1581 1522 
L 1381 1569 
Q 847 1681 609 1914 
Q 372 2147 372 2553 
Q 372 3047 722 3315 
Q 1072 3584 1716 3584 
Q 2034 3584 2315 3537 
Q 2597 3491 2834 3397 
z
" transform="scale(0.015625)"/>
      </defs>
      <use xlink:href="#DejaVuSans-61"/>
      <use xlink:href="#DejaVuSans-62" transform="translate(61.279297 0)"/>
      <use xlink:href="#DejaVuSans-73" transform="translate(124.755859 0)"/>
      <use xlink:href="#DejaVuSans-6f" transform="translate(176.855469 0)"/>
      <use xlink:href="#DejaVuSans-6c" transform="translate(238.037109 0)"/>
      <use xlink:href="#DejaVuSans-75" transform="translate(265.820312 0)"/>
      <use xlink:href="#DejaVuSans-74" transform="translate(329.199219 0)"/>
      <use xlink:href="#DejaVuSans-65" transform="translate(368.408203 0)"/>
      <use xlink:href="#DejaVuSans-20" transform="translate(429.931641 0)"/>
      <use xlink:href="#DejaVuSans-65" transform="translate(461.71875 0)"/>
      <use xlink:href="#DejaVuSans-72" transform="translate(523.242188 0)"/>
      <use xlink:href="#DejaVuSans-72" transform="translate(562.605469 0)"/>
      <use xlink:href="#DejaVuSans-6f" transform="translate(601.46875 0)"/>
      <use xlink:href="#DejaVuSans-72" transform="translate(662.650391 0)"/>
     </g>
    </g>
    <g id="line2d_30">
     <path d="M 183.288906 263.648062 
L 193.288906 263.648062 
L 203.288906 263.648062 
" style="fill: none; stroke: #ff7f0e; stroke-linecap: square"/>
    </g>
    <g id="text_16">
     <!-- relative error -->
     <g transform="translate(211.288906 267.148062) scale(0.1 -0.1)">
      <use xlink:href="#DejaVuSans-72"/>
      <use xlink:href="#DejaVuSans-65" transform="translate(38.863281 0)"/>
      <use xlink:href="#DejaVuSans-6c" transform="translate(100.386719 0)"/>
      <use xlink:href="#DejaVuSans-61" transform="translate(128.169922 0)"/>
      <use xlink:href="#DejaVuSans-74" transform="translate(189.449219 0)"/>
      <use xlink:href="#DejaVuSans-69" transform="translate(228.658203 0)"/>
      <use xlink:href="#DejaVuSans-76" transform="translate(256.441406 0)"/>
      <use xlink:href="#DejaVuSans-65" transform="translate(315.621094 0)"/>
      <use xlink:href="#DejaVuSans-20" transform="translate(377.144531 0)"/>
      <use xlink:href="#DejaVuSans-65" transform="translate(408.931641 0)"/>
      <use xlink:href="#DejaVuSans-72" transform="translate(470.455078 0)"/>
      <use xlink:href="#DejaVuSans-72" transform="translate(509.818359 0)"/>
      <use xlink:href="#DejaVuSans-6f" transform="translate(548.681641 0)"/>
      <use xlink:href="#DejaVuSans-72" transform="translate(609.863281 0)"/>
     </g>
    </g>
    <g id="line2d_31">
     <path d="M 183.288906 278.326187 
L 193.288906 278.326187 
L 203.288906 278.326187 
" style="fill: none; stroke: #2ca02c; stroke-linecap: square"/>
    </g>
    <g id="text_17">
     <!-- residual error -->
     <g transform="translate(211.288906 281.826187) scale(0.1 -0.1)">
      <defs>
       <path id="DejaVuSans-64" d="M 2906 2969 
L 2906 4863 
L 3481 4863 
L 3481 0 
L 2906 0 
L 2906 525 
Q 2725 213 2448 61 
Q 2172 -91 1784 -91 
Q 1150 -91 751 415 
Q 353 922 353 1747 
Q 353 2572 751 3078 
Q 1150 3584 1784 3584 
Q 2172 3584 2448 3432 
Q 2725 3281 2906 2969 
z
M 947 1747 
Q 947 1113 1208 752 
Q 1469 391 1925 391 
Q 2381 391 2643 752 
Q 2906 1113 2906 1747 
Q 2906 2381 2643 2742 
Q 2381 3103 1925 3103 
Q 1469 3103 1208 2742 
Q 947 2381 947 1747 
z
" transform="scale(0.015625)"/>
      </defs>
      <use xlink:href="#DejaVuSans-72"/>
      <use xlink:href="#DejaVuSans-65" transform="translate(38.863281 0)"/>
      <use xlink:href="#DejaVuSans-73" transform="translate(100.386719 0)"/>
      <use xlink:href="#DejaVuSans-69" transform="translate(152.486328 0)"/>
      <use xlink:href="#DejaVuSans-64" transform="translate(180.269531 0)"/>
      <use xlink:href="#DejaVuSans-75" transform="translate(243.746094 0)"/>
      <use xlink:href="#DejaVuSans-61" transform="translate(307.125 0)"/>
      <use xlink:href="#DejaVuSans-6c" transform="translate(368.404297 0)"/>
      <use xlink:href="#DejaVuSans-20" transform="translate(396.1875 0)"/>
      <use xlink:href="#DejaVuSans-65" transform="translate(427.974609 0)"/>
      <use xlink:href="#DejaVuSans-72" transform="translate(489.498047 0)"/>
      <use xlink:href="#DejaVuSans-72" transform="translate(528.861328 0)"/>
      <use xlink:href="#DejaVuSans-6f" transform="translate(567.724609 0)"/>
      <use xlink:href="#DejaVuSans-72" transform="translate(628.90625 0)"/>
     </g>
    </g>
    <g id="line2d_32">
     <path d="M 183.288906 293.004312 
L 193.288906 293.004312 
L 203.288906 293.004312 
" style="fill: none; stroke: #d62728; stroke-linecap: square"/>
    </g>
    <g id="text_18">
     <!-- constraint error -->
     <g transform="translate(211.288906 296.504312) scale(0.1 -0.1)">
      <defs>
       <path id="DejaVuSans-63" d="M 3122 3366 
L 3122 2828 
Q 2878 2963 2633 3030 
Q 2388 3097 2138 3097 
Q 1578 3097 1268 2742 
Q 959 2388 959 1747 
Q 959 1106 1268 751 
Q 1578 397 2138 397 
Q 2388 397 2633 464 
Q 2878 531 3122 666 
L 3122 134 
Q 2881 22 2623 -34 
Q 2366 -91 2075 -91 
Q 1284 -91 818 406 
Q 353 903 353 1747 
Q 353 2603 823 3093 
Q 1294 3584 2113 3584 
Q 2378 3584 2631 3529 
Q 2884 3475 3122 3366 
z
" transform="scale(0.015625)"/>
      </defs>
      <use xlink:href="#DejaVuSans-63"/>
      <use xlink:href="#DejaVuSans-6f" transform="translate(54.980469 0)"/>
      <use xlink:href="#DejaVuSans-6e" transform="translate(116.162109 0)"/>
      <use xlink:href="#DejaVuSans-73" transform="translate(179.541016 0)"/>
      <use xlink:href="#DejaVuSans-74" transform="translate(231.640625 0)"/>
      <use xlink:href="#DejaVuSans-72" transform="translate(270.849609 0)"/>
      <use xlink:href="#DejaVuSans-61" transform="translate(311.962891 0)"/>
      <use xlink:href="#DejaVuSans-69" transform="translate(373.242188 0)"/>
      <use xlink:href="#DejaVuSans-6e" transform="translate(401.025391 0)"/>
      <use xlink:href="#DejaVuSans-74" transform="translate(464.404297 0)"/>
      <use xlink:href="#DejaVuSans-20" transform="translate(503.613281 0)"/>
      <use xlink:href="#DejaVuSans-65" transform="translate(535.400391 0)"/>
      <use xlink:href="#DejaVuSans-72" transform="translate(596.923828 0)"/>
      <use xlink:href="#DejaVuSans-72" transform="translate(636.287109 0)"/>
      <use xlink:href="#DejaVuSans-6f" transform="translate(675.150391 0)"/>
      <use xlink:href="#DejaVuSans-72" transform="translate(736.332031 0)"/>
     </g>
    </g>
   </g>
  </g>
  <g id="text_19">
   <!-- Error history -->
   <g transform="translate(193.234688 16.030125) scale(0.12 -0.12)">
    <defs>
     <path id="DejaVuSans-68" d="M 3513 2113 
L 3513 0 
L 2938 0 
L 2938 2094 
Q 2938 2591 2744 2837 
Q 2550 3084 2163 3084 
Q 1697 3084 1428 2787 
Q 1159 2491 1159 1978 
L 1159 0 
L 581 0 
L 581 4863 
L 1159 4863 
L 1159 2956 
Q 1366 3272 1645 3428 
Q 1925 3584 2291 3584 
Q 2894 3584 3203 3211 
Q 3513 2838 3513 2113 
z
" transform="scale(0.015625)"/>
     <path id="DejaVuSans-79" d="M 2059 -325 
Q 1816 -950 1584 -1140 
Q 1353 -1331 966 -1331 
L 506 -1331 
L 506 -850 
L 844 -850 
Q 1081 -850 1212 -737 
Q 1344 -625 1503 -206 
L 1606 56 
L 191 3500 
L 800 3500 
L 1894 763 
L 2988 3500 
L 3597 3500 
L 2059 -325 
z
" transform="scale(0.015625)"/>
    </defs>
    <use xlink:href="#DejaVuSans-45"/>
    <use xlink:href="#DejaVuSans-72" transform="translate(63.183594 0)"/>
    <use xlink:href="#DejaVuSans-72" transform="translate(102.546875 0)"/>
    <use xlink:href="#DejaVuSans-6f" transform="translate(141.410156 0)"/>
    <use xlink:href="#DejaVuSans-72" transform="translate(202.591797 0)"/>
    <use xlink:href="#DejaVuSans-20" transform="translate(243.705078 0)"/>
    <use xlink:href="#DejaVuSans-68" transform="translate(275.492188 0)"/>
    <use xlink:href="#DejaVuSans-69" transform="translate(338.871094 0)"/>
    <use xlink:href="#DejaVuSans-73" transform="translate(366.654297 0)"/>
    <use xlink:href="#DejaVuSans-74" transform="translate(418.753906 0)"/>
    <use xlink:href="#DejaVuSans-6f" transform="translate(457.962891 0)"/>
    <use xlink:href="#DejaVuSans-72" transform="translate(519.144531 0)"/>
    <use xlink:href="#DejaVuSans-79" transform="translate(560.257812 0)"/>
   </g>
  </g>
 </g>
 <defs>
  <clipPath id="pece686282c">
   <rect x="57.6" y="41.472" width="357.12" height="266.112"/>
  </clipPath>
 </defs>
</svg>
