<?xml version="1.0" encoding="utf-8" standalone="no"?>
<!DOCTYPE svg PUBLIC "-//W3C//DTD SVG 1.1//EN"
  "http://www.w3.org/Graphics/SVG/1.1/DTD/svg11.dtd">
<!-- Created with matplotlib (http://matplotlib.org/) -->
<svg height="288pt" version="1.1" viewBox="0 0 432 288" width="432pt" xmlns="http://www.w3.org/2000/svg" xmlns:xlink="http://www.w3.org/1999/xlink">
 <defs>
  <style type="text/css">
*{stroke-linecap:butt;stroke-linejoin:round;}
  </style>
 </defs>
 <g id="figure_1">
  <g id="patch_1">
   <path d="M 0 288 
L 432 288 
L 432 0 
L 0 0 
z
" style="fill:#ffffff;"/>
  </g>
  <g id="axes_1">
   <g id="patch_2">
    <path d="M 54 252 
L 388.8 252 
L 388.8 34.56 
L 54 34.56 
z
" style="fill:#ffffff;"/>
   </g>
   <g id="matplotlib.axis_1">
    <g id="xtick_1">
     <g id="line2d_1">
      <path clip-path="url(#p4c02b2d1ef)" d="M 58.253086 252 
L 58.253086 34.56 
" style="fill:none;stroke:#b0b0b0;stroke-linecap:square;stroke-width:0.8;"/>
     </g>
     <g id="line2d_2">
      <defs>
       <path d="M 0 0 
L 0 3.5 
" id="mb563cf229d" style="stroke:#000000;stroke-width:0.8;"/>
      </defs>
      <g>
       <use style="stroke:#000000;stroke-width:0.8;" x="58.253086" xlink:href="#mb563cf229d" y="252"/>
      </g>
     </g>
     <g id="text_1">
      <!-- −4 -->
      <defs>
       <path d="M 10.59375 35.5 
L 73.1875 35.5 
L 73.1875 27.203125 
L 10.59375 27.203125 
z
" id="DejaVuSans-2212"/>
       <path d="M 37.796875 64.3125 
L 12.890625 25.390625 
L 37.796875 25.390625 
z
M 35.203125 72.90625 
L 47.609375 72.90625 
L 47.609375 25.390625 
L 58.015625 25.390625 
L 58.015625 17.1875 
L 47.609375 17.1875 
L 47.609375 0 
L 37.796875 0 
L 37.796875 17.1875 
L 4.890625 17.1875 
L 4.890625 26.703125 
z
" id="DejaVuSans-34"/>
      </defs>
      <g transform="translate(50.881992 266.598437)scale(0.1 -0.1)">
       <use xlink:href="#DejaVuSans-2212"/>
       <use x="83.789062" xlink:href="#DejaVuSans-34"/>
      </g>
     </g>
    </g>
    <g id="xtick_2">
     <g id="line2d_3">
      <path clip-path="url(#p4c02b2d1ef)" d="M 99.039814 252 
L 99.039814 34.56 
" style="fill:none;stroke:#b0b0b0;stroke-linecap:square;stroke-width:0.8;"/>
     </g>
     <g id="line2d_4">
      <g>
       <use style="stroke:#000000;stroke-width:0.8;" x="99.039814" xlink:href="#mb563cf229d" y="252"/>
      </g>
     </g>
     <g id="text_2">
      <!-- −3 -->
      <defs>
       <path d="M 40.578125 39.3125 
Q 47.65625 37.796875 51.625 33 
Q 55.609375 28.21875 55.609375 21.1875 
Q 55.609375 10.40625 48.1875 4.484375 
Q 40.765625 -1.421875 27.09375 -1.421875 
Q 22.515625 -1.421875 17.65625 -0.515625 
Q 12.796875 0.390625 7.625 2.203125 
L 7.625 11.71875 
Q 11.71875 9.328125 16.59375 8.109375 
Q 21.484375 6.890625 26.8125 6.890625 
Q 36.078125 6.890625 40.9375 10.546875 
Q 45.796875 14.203125 45.796875 21.1875 
Q 45.796875 27.640625 41.28125 31.265625 
Q 36.765625 34.90625 28.71875 34.90625 
L 20.21875 34.90625 
L 20.21875 43.015625 
L 29.109375 43.015625 
Q 36.375 43.015625 40.234375 45.921875 
Q 44.09375 48.828125 44.09375 54.296875 
Q 44.09375 59.90625 40.109375 62.90625 
Q 36.140625 65.921875 28.71875 65.921875 
Q 24.65625 65.921875 20.015625 65.03125 
Q 15.375 64.15625 9.8125 62.3125 
L 9.8125 71.09375 
Q 15.4375 72.65625 20.34375 73.4375 
Q 25.25 74.21875 29.59375 74.21875 
Q 40.828125 74.21875 47.359375 69.109375 
Q 53.90625 64.015625 53.90625 55.328125 
Q 53.90625 49.265625 50.4375 45.09375 
Q 46.96875 40.921875 40.578125 39.3125 
z
" id="DejaVuSans-33"/>
      </defs>
      <g transform="translate(91.668721 266.598437)scale(0.1 -0.1)">
       <use xlink:href="#DejaVuSans-2212"/>
       <use x="83.789062" xlink:href="#DejaVuSans-33"/>
      </g>
     </g>
    </g>
    <g id="xtick_3">
     <g id="line2d_5">
      <path clip-path="url(#p4c02b2d1ef)" d="M 139.826543 252 
L 139.826543 34.56 
" style="fill:none;stroke:#b0b0b0;stroke-linecap:square;stroke-width:0.8;"/>
     </g>
     <g id="line2d_6">
      <g>
       <use style="stroke:#000000;stroke-width:0.8;" x="139.826543" xlink:href="#mb563cf229d" y="252"/>
      </g>
     </g>
     <g id="text_3">
      <!-- −2 -->
      <defs>
       <path d="M 19.1875 8.296875 
L 53.609375 8.296875 
L 53.609375 0 
L 7.328125 0 
L 7.328125 8.296875 
Q 12.9375 14.109375 22.625 23.890625 
Q 32.328125 33.6875 34.8125 36.53125 
Q 39.546875 41.84375 41.421875 45.53125 
Q 43.3125 49.21875 43.3125 52.78125 
Q 43.3125 58.59375 39.234375 62.25 
Q 35.15625 65.921875 28.609375 65.921875 
Q 23.96875 65.921875 18.8125 64.3125 
Q 13.671875 62.703125 7.8125 59.421875 
L 7.8125 69.390625 
Q 13.765625 71.78125 18.9375 73 
Q 24.125 74.21875 28.421875 74.21875 
Q 39.75 74.21875 46.484375 68.546875 
Q 53.21875 62.890625 53.21875 53.421875 
Q 53.21875 48.921875 51.53125 44.890625 
Q 49.859375 40.875 45.40625 35.40625 
Q 44.1875 33.984375 37.640625 27.21875 
Q 31.109375 20.453125 19.1875 8.296875 
z
" id="DejaVuSans-32"/>
      </defs>
      <g transform="translate(132.455449 266.598437)scale(0.1 -0.1)">
       <use xlink:href="#DejaVuSans-2212"/>
       <use x="83.789062" xlink:href="#DejaVuSans-32"/>
      </g>
     </g>
    </g>
    <g id="xtick_4">
     <g id="line2d_7">
      <path clip-path="url(#p4c02b2d1ef)" d="M 180.613271 252 
L 180.613271 34.56 
" style="fill:none;stroke:#b0b0b0;stroke-linecap:square;stroke-width:0.8;"/>
     </g>
     <g id="line2d_8">
      <g>
       <use style="stroke:#000000;stroke-width:0.8;" x="180.613271" xlink:href="#mb563cf229d" y="252"/>
      </g>
     </g>
     <g id="text_4">
      <!-- −1 -->
      <defs>
       <path d="M 12.40625 8.296875 
L 28.515625 8.296875 
L 28.515625 63.921875 
L 10.984375 60.40625 
L 10.984375 69.390625 
L 28.421875 72.90625 
L 38.28125 72.90625 
L 38.28125 8.296875 
L 54.390625 8.296875 
L 54.390625 0 
L 12.40625 0 
z
" id="DejaVuSans-31"/>
      </defs>
      <g transform="translate(173.242178 266.598437)scale(0.1 -0.1)">
       <use xlink:href="#DejaVuSans-2212"/>
       <use x="83.789062" xlink:href="#DejaVuSans-31"/>
      </g>
     </g>
    </g>
    <g id="xtick_5">
     <g id="line2d_9">
      <path clip-path="url(#p4c02b2d1ef)" d="M 221.4 252 
L 221.4 34.56 
" style="fill:none;stroke:#b0b0b0;stroke-linecap:square;stroke-width:0.8;"/>
     </g>
     <g id="line2d_10">
      <g>
       <use style="stroke:#000000;stroke-width:0.8;" x="221.4" xlink:href="#mb563cf229d" y="252"/>
      </g>
     </g>
     <g id="text_5">
      <!-- 0 -->
      <defs>
       <path d="M 31.78125 66.40625 
Q 24.171875 66.40625 20.328125 58.90625 
Q 16.5 51.421875 16.5 36.375 
Q 16.5 21.390625 20.328125 13.890625 
Q 24.171875 6.390625 31.78125 6.390625 
Q 39.453125 6.390625 43.28125 13.890625 
Q 47.125 21.390625 47.125 36.375 
Q 47.125 51.421875 43.28125 58.90625 
Q 39.453125 66.40625 31.78125 66.40625 
z
M 31.78125 74.21875 
Q 44.046875 74.21875 50.515625 64.515625 
Q 56.984375 54.828125 56.984375 36.375 
Q 56.984375 17.96875 50.515625 8.265625 
Q 44.046875 -1.421875 31.78125 -1.421875 
Q 19.53125 -1.421875 13.0625 8.265625 
Q 6.59375 17.96875 6.59375 36.375 
Q 6.59375 54.828125 13.0625 64.515625 
Q 19.53125 74.21875 31.78125 74.21875 
z
" id="DejaVuSans-30"/>
      </defs>
      <g transform="translate(218.21875 266.598437)scale(0.1 -0.1)">
       <use xlink:href="#DejaVuSans-30"/>
      </g>
     </g>
    </g>
    <g id="xtick_6">
     <g id="line2d_11">
      <path clip-path="url(#p4c02b2d1ef)" d="M 262.186729 252 
L 262.186729 34.56 
" style="fill:none;stroke:#b0b0b0;stroke-linecap:square;stroke-width:0.8;"/>
     </g>
     <g id="line2d_12">
      <g>
       <use style="stroke:#000000;stroke-width:0.8;" x="262.186729" xlink:href="#mb563cf229d" y="252"/>
      </g>
     </g>
     <g id="text_6">
      <!-- 1 -->
      <g transform="translate(259.005479 266.598437)scale(0.1 -0.1)">
       <use xlink:href="#DejaVuSans-31"/>
      </g>
     </g>
    </g>
    <g id="xtick_7">
     <g id="line2d_13">
      <path clip-path="url(#p4c02b2d1ef)" d="M 302.973457 252 
L 302.973457 34.56 
" style="fill:none;stroke:#b0b0b0;stroke-linecap:square;stroke-width:0.8;"/>
     </g>
     <g id="line2d_14">
      <g>
       <use style="stroke:#000000;stroke-width:0.8;" x="302.973457" xlink:href="#mb563cf229d" y="252"/>
      </g>
     </g>
     <g id="text_7">
      <!-- 2 -->
      <g transform="translate(299.792207 266.598437)scale(0.1 -0.1)">
       <use xlink:href="#DejaVuSans-32"/>
      </g>
     </g>
    </g>
    <g id="xtick_8">
     <g id="line2d_15">
      <path clip-path="url(#p4c02b2d1ef)" d="M 343.760186 252 
L 343.760186 34.56 
" style="fill:none;stroke:#b0b0b0;stroke-linecap:square;stroke-width:0.8;"/>
     </g>
     <g id="line2d_16">
      <g>
       <use style="stroke:#000000;stroke-width:0.8;" x="343.760186" xlink:href="#mb563cf229d" y="252"/>
      </g>
     </g>
     <g id="text_8">
      <!-- 3 -->
      <g transform="translate(340.578936 266.598437)scale(0.1 -0.1)">
       <use xlink:href="#DejaVuSans-33"/>
      </g>
     </g>
    </g>
    <g id="xtick_9">
     <g id="line2d_17">
      <path clip-path="url(#p4c02b2d1ef)" d="M 384.546914 252 
L 384.546914 34.56 
" style="fill:none;stroke:#b0b0b0;stroke-linecap:square;stroke-width:0.8;"/>
     </g>
     <g id="line2d_18">
      <g>
       <use style="stroke:#000000;stroke-width:0.8;" x="384.546914" xlink:href="#mb563cf229d" y="252"/>
      </g>
     </g>
     <g id="text_9">
      <!-- 4 -->
      <g transform="translate(381.365664 266.598437)scale(0.1 -0.1)">
       <use xlink:href="#DejaVuSans-34"/>
      </g>
     </g>
    </g>
    <g id="text_10">
     <!-- X0 -->
     <defs>
      <path d="M 6.296875 72.90625 
L 16.890625 72.90625 
L 35.015625 45.796875 
L 53.21875 72.90625 
L 63.8125 72.90625 
L 40.375 37.890625 
L 65.375 0 
L 54.78125 0 
L 34.28125 31 
L 13.625 0 
L 2.984375 0 
L 29 38.921875 
z
" id="DejaVuSans-58"/>
     </defs>
     <g transform="translate(214.79375 280.276563)scale(0.1 -0.1)">
      <use xlink:href="#DejaVuSans-58"/>
      <use x="68.505859" xlink:href="#DejaVuSans-30"/>
     </g>
    </g>
   </g>
   <g id="matplotlib.axis_2">
    <g id="ytick_1">
     <g id="line2d_19">
      <path clip-path="url(#p4c02b2d1ef)" d="M 54 207.796323 
L 388.8 207.796323 
" style="fill:none;stroke:#b0b0b0;stroke-linecap:square;stroke-width:0.8;"/>
     </g>
     <g id="line2d_20">
      <defs>
       <path d="M 0 0 
L -3.5 0 
" id="ma2af0637f5" style="stroke:#000000;stroke-width:0.8;"/>
      </defs>
      <g>
       <use style="stroke:#000000;stroke-width:0.8;" x="54" xlink:href="#ma2af0637f5" y="207.796323"/>
      </g>
     </g>
     <g id="text_11">
      <!-- −2 -->
      <g transform="translate(32.257812 211.595542)scale(0.1 -0.1)">
       <use xlink:href="#DejaVuSans-2212"/>
       <use x="83.789062" xlink:href="#DejaVuSans-32"/>
      </g>
     </g>
    </g>
    <g id="ytick_2">
     <g id="line2d_21">
      <path clip-path="url(#p4c02b2d1ef)" d="M 54 161.20033 
L 388.8 161.20033 
" style="fill:none;stroke:#b0b0b0;stroke-linecap:square;stroke-width:0.8;"/>
     </g>
     <g id="line2d_22">
      <g>
       <use style="stroke:#000000;stroke-width:0.8;" x="54" xlink:href="#ma2af0637f5" y="161.20033"/>
      </g>
     </g>
     <g id="text_12">
      <!-- 0 -->
      <g transform="translate(40.6375 164.999549)scale(0.1 -0.1)">
       <use xlink:href="#DejaVuSans-30"/>
      </g>
     </g>
    </g>
    <g id="ytick_3">
     <g id="line2d_23">
      <path clip-path="url(#p4c02b2d1ef)" d="M 54 114.604338 
L 388.8 114.604338 
" style="fill:none;stroke:#b0b0b0;stroke-linecap:square;stroke-width:0.8;"/>
     </g>
     <g id="line2d_24">
      <g>
       <use style="stroke:#000000;stroke-width:0.8;" x="54" xlink:href="#ma2af0637f5" y="114.604338"/>
      </g>
     </g>
     <g id="text_13">
      <!-- 2 -->
      <g transform="translate(40.6375 118.403556)scale(0.1 -0.1)">
       <use xlink:href="#DejaVuSans-32"/>
      </g>
     </g>
    </g>
    <g id="ytick_4">
     <g id="line2d_25">
      <path clip-path="url(#p4c02b2d1ef)" d="M 54 68.008345 
L 388.8 68.008345 
" style="fill:none;stroke:#b0b0b0;stroke-linecap:square;stroke-width:0.8;"/>
     </g>
     <g id="line2d_26">
      <g>
       <use style="stroke:#000000;stroke-width:0.8;" x="54" xlink:href="#ma2af0637f5" y="68.008345"/>
      </g>
     </g>
     <g id="text_14">
      <!-- 4 -->
      <g transform="translate(40.6375 71.807563)scale(0.1 -0.1)">
       <use xlink:href="#DejaVuSans-34"/>
      </g>
     </g>
    </g>
    <g id="text_15">
     <!-- X1 -->
     <g transform="translate(26.178125 149.88625)rotate(-90)scale(0.1 -0.1)">
      <use xlink:href="#DejaVuSans-58"/>
      <use x="68.505859" xlink:href="#DejaVuSans-31"/>
     </g>
    </g>
   </g>
   <g id="LineCollection_1">
    <path clip-path="url(#p4c02b2d1ef)" d="M 69.218182 227.452074 
L 71.596023 227.756634 
L 73.973864 227.998603 
L 76.351705 228.191449 
L 76.68941 228.2175 
L 78.729545 228.577825 
L 81.107386 228.925559 
L 83.485227 229.20531 
L 85.863068 229.43107 
L 88.240909 229.613823 
L 90.610959 229.761818 
L 90.61875 229.763045 
L 92.996591 230.131259 
L 95.374432 230.432092 
L 97.752273 230.678625 
L 100.130114 230.881275 
L 102.507955 231.048356 
L 104.885795 231.186527 
L 107.263636 231.301133 
L 107.370663 231.306136 
L 109.641477 231.605851 
L 112.019318 231.869778 
L 114.397159 232.090642 
L 116.775 232.276007 
L 119.152841 232.432032 
L 121.530682 232.563737 
L 123.908523 232.67523 
L 126.286364 232.76988 
L 128.664205 232.850455 
L 131.042045 233.100413 
L 133.419886 233.314372 
L 135.797727 233.49801 
L 138.175568 233.656042 
L 140.553409 233.792392 
L 142.93125 233.910337 
L 145.309091 234.012618 
L 147.686932 234.101533 
L 150.064773 234.179013 
L 152.442614 234.246687 
L 154.820455 234.305928 
L 157.198295 234.3579 
L 159.083021 234.394773 
L 159.576136 234.430082 
L 161.953977 234.591265 
L 164.331818 234.733508 
L 166.709659 234.859255 
L 169.0875 234.970596 
L 171.465341 235.069321 
L 173.843182 235.156967 
L 176.221023 235.234858 
L 178.598864 235.304131 
L 180.976705 235.365771 
L 183.354545 235.420624 
L 185.732386 235.469425 
L 188.110227 235.512807 
L 190.488068 235.551321 
L 192.865909 235.585439 
L 195.24375 235.615574 
L 197.621591 235.642078 
L 199.999432 235.665256 
L 202.377273 235.685369 
L 204.755114 235.70264 
L 207.132955 235.717257 
L 209.510795 235.729374 
L 211.888636 235.739122 
L 213.778796 235.745067 
" style="fill:none;stroke:#0000ff;stroke-width:1.5;"/>
    <path clip-path="url(#p4c02b2d1ef)" d="M 276.565969 234.834103 
L 278.468182 234.733508 
L 280.846023 234.591265 
L 283.223864 234.430082 
L 283.716979 234.394773 
L 285.601705 234.3579 
L 287.979545 234.305928 
L 290.357386 234.246687 
L 292.735227 234.179013 
L 295.113068 234.101533 
L 297.490909 234.012618 
L 299.86875 233.910337 
L 302.246591 233.792392 
L 304.624432 233.656042 
L 307.002273 233.49801 
L 309.380114 233.314372 
L 311.757955 233.100413 
L 314.135795 232.850455 
L 316.513636 232.76988 
L 318.891477 232.67523 
L 321.269318 232.563737 
L 323.647159 232.432032 
L 326.025 232.276007 
L 328.402841 232.090642 
L 330.780682 231.869778 
L 333.158523 231.605851 
L 335.429337 231.306136 
L 335.536364 231.301133 
L 337.914205 231.186527 
L 340.292045 231.048356 
L 342.669886 230.881275 
L 345.047727 230.678625 
L 347.425568 230.432092 
L 349.803409 230.131259 
L 352.18125 229.763045 
L 352.189041 229.761818 
L 354.559091 229.613823 
L 356.936932 229.43107 
L 359.314773 229.20531 
L 361.692614 228.925559 
L 364.070455 228.577825 
L 366.11059 228.2175 
L 366.448295 228.191449 
L 368.826136 227.998603 
L 371.203977 227.756634 
L 373.581818 227.452074 
" style="fill:none;stroke:#0000ff;stroke-width:1.5;"/>
   </g>
   <g id="LineCollection_2">
    <path clip-path="url(#p4c02b2d1ef)" d="M 69.218182 199.595657 
L 70.913433 200.419773 
L 71.596023 200.749298 
L 73.973864 201.81793 
L 74.316036 201.964091 
L 76.351705 202.855997 
L 78.059532 203.508409 
L 78.729545 203.77908 
L 81.107386 204.675791 
L 82.231721 205.052727 
L 83.485227 205.513235 
L 85.863068 206.291526 
L 86.902775 206.597045 
L 88.240909 207.044361 
L 90.61875 207.749551 
L 92.142236 208.141364 
L 92.996591 208.401354 
L 95.374432 209.069628 
L 97.752273 209.61728 
L 98.063145 209.685682 
L 100.130114 210.248511 
L 102.507955 210.795698 
L 104.773438 211.23 
L 104.885795 211.257847 
L 107.263636 211.831989 
L 109.641477 212.309628 
L 112.019318 212.70816 
L 112.435254 212.774318 
L 114.397159 213.19968 
L 116.775 213.64502 
L 119.152841 214.019868 
L 121.378728 214.318636 
L 121.530682 214.347924 
L 123.908523 214.792344 
L 126.286364 215.169624 
L 128.664205 215.490801 
L 131.042045 215.764975 
L 131.961935 215.862955 
L 133.419886 216.100131 
L 135.797727 216.449595 
L 138.175568 216.750329 
L 140.553409 217.009804 
L 142.93125 217.234254 
L 145.017871 217.407273 
L 145.309091 217.446616 
L 147.686932 217.754495 
L 150.064773 218.02278 
L 152.442614 218.257109 
L 154.820455 218.462238 
L 157.198295 218.642198 
L 159.576136 218.800403 
L 161.953977 218.93976 
L 162.166082 218.951591 
L 164.331818 219.164375 
L 166.709659 219.372504 
L 169.0875 219.556789 
L 171.465341 219.720192 
L 173.843182 219.86526 
L 176.221023 219.99418 
L 178.598864 220.108838 
L 180.976705 220.210859 
L 183.354545 220.30165 
L 185.732386 220.382422 
L 188.110227 220.454226 
L 189.640238 220.495909 
L 190.488068 220.540496 
L 192.865909 220.654622 
L 195.24375 220.75542 
L 197.621591 220.844076 
L 199.999432 220.921606 
L 202.377273 220.988886 
L 204.755114 221.046657 
L 207.132955 221.095548 
L 209.510795 221.136081 
L 211.888636 221.168686 
L 214.266477 221.193703 
L 216.644318 221.211391 
L 219.022159 221.221932 
L 221.4 221.225434 
L 223.777841 221.221932 
L 226.155682 221.211391 
L 228.533523 221.193703 
L 230.911364 221.168686 
L 233.289205 221.136081 
L 235.667045 221.095548 
L 238.044886 221.046657 
L 240.422727 220.988886 
L 242.800568 220.921606 
L 245.178409 220.844076 
L 247.55625 220.75542 
L 249.934091 220.654622 
L 252.311932 220.540496 
L 253.159762 220.495909 
L 254.689773 220.454226 
L 257.067614 220.382422 
L 259.445455 220.30165 
L 261.823295 220.210859 
L 264.201136 220.108838 
L 266.578977 219.99418 
L 268.956818 219.86526 
L 271.334659 219.720192 
L 273.7125 219.556789 
L 276.090341 219.372504 
L 278.468182 219.164375 
L 280.633918 218.951591 
L 280.846023 218.93976 
L 283.223864 218.800403 
L 285.601705 218.642198 
L 287.979545 218.462238 
L 290.357386 218.257109 
L 292.735227 218.02278 
L 295.113068 217.754495 
L 297.490909 217.446616 
L 297.782129 217.407273 
L 299.72725 217.245987 
" style="fill:none;stroke:#0000ff;stroke-width:1.5;"/>
    <path clip-path="url(#p4c02b2d1ef)" d="M 361.142967 204.860061 
L 361.692614 204.675791 
L 364.070455 203.77908 
L 364.740468 203.508409 
L 366.448295 202.855997 
L 368.483964 201.964091 
L 368.826136 201.81793 
L 371.203977 200.749298 
L 371.886567 200.419773 
L 373.581818 199.595657 
" style="fill:none;stroke:#0000ff;stroke-width:1.5;"/>
    <path clip-path="url(#p4c02b2d1ef)" d="M 373.581818 79.365689 
L 373.179639 78.418636 
L 372.495724 76.874318 
L 371.764903 75.33 
L 371.203977 74.200838 
L 371.02352 73.785682 
L 370.339061 72.241364 
L 369.607672 70.697045 
L 368.826136 69.152727 
L 368.138656 67.608409 
L 367.404046 66.064091 
L 366.619076 64.519773 
L 366.448295 64.188678 
L 365.896372 62.975455 
L 365.155837 61.431136 
L 364.364543 59.886818 
L 364.070455 59.32653 
L 363.613156 58.3425 
L 362.863917 56.798182 
L 362.063324 55.253864 
L 361.692614 54.559663 
L 361.289137 53.709545 
L 360.528305 52.165227 
L 359.715327 50.620909 
L 359.314773 49.883549 
L 358.923682 49.076591 
L 358.148226 47.532273 
L 357.319624 45.987955 
L 356.936932 45.295403 
L 356.515416 44.443636 
" style="fill:none;stroke:#0000ff;stroke-width:1.5;"/>
    <path clip-path="url(#p4c02b2d1ef)" d="M 86.284584 44.443636 
L 85.863068 45.295403 
L 85.480376 45.987955 
L 84.651774 47.532273 
L 83.876318 49.076591 
L 83.485227 49.883549 
L 83.084673 50.620909 
L 82.271695 52.165227 
L 81.510863 53.709545 
L 81.107386 54.559663 
L 80.736676 55.253864 
L 79.936083 56.798182 
L 79.186844 58.3425 
L 78.729545 59.32653 
L 78.435457 59.886818 
L 77.644163 61.431136 
L 76.903628 62.975455 
L 76.351705 64.188678 
L 76.180924 64.519773 
L 75.395954 66.064091 
L 74.661344 67.608409 
L 73.973864 69.152727 
L 73.192328 70.697045 
L 72.460939 72.241364 
L 71.77648 73.785682 
L 71.596023 74.200838 
L 71.035097 75.33 
L 70.304276 76.874318 
L 69.620361 78.418636 
L 69.218182 79.365689 
" style="fill:none;stroke:#0000ff;stroke-width:1.5;"/>
   </g>
   <g id="LineCollection_3">
    <path clip-path="url(#p4c02b2d1ef)" d="M 69.218182 176.497735 
L 69.525054 177.255 
L 70.265503 178.799318 
L 71.169909 180.343636 
L 71.596023 180.970642 
L 72.155265 181.887955 
L 72.430201 182.267569 
" style="fill:none;stroke:#0000ff;stroke-width:1.5;"/>
    <path clip-path="url(#p4c02b2d1ef)" d="M 127.925822 208.625442 
L 131.042045 209.233173 
L 150.064773 212.183771 
L 164.331818 213.755988 
L 180.976705 215.060674 
L 190.488068 215.552397 
L 207.132955 216.087084 
L 219.022159 216.260801 
L 230.911364 216.187614 
L 242.800568 215.854335 
L 254.689773 215.450333 
L 264.201136 214.897324 
L 280.846023 213.528788 
L 292.735227 212.183771 
L 302.246591 210.837323 
L 307.002273 210.063585 
L 311.757955 209.233173 
L 318.891477 207.797937 
L 324.006371 206.597045 
L 328.402841 205.538807 
L 337.914205 202.731917 
L 345.047727 200.109934 
L 349.803409 198.059738 
L 354.272574 195.786818 
L 356.936932 194.2425 
L 359.356324 192.698182 
L 361.692614 191.0324 
L 364.070455 189.117141 
L 365.290446 188.065227 
L 368.262171 184.976591 
L 370.644735 181.887955 
L 372.534497 178.799318 
L 373.581818 176.497735 
L 373.581818 176.497735 
" style="fill:none;stroke:#0000ff;stroke-width:1.5;"/>
    <path clip-path="url(#p4c02b2d1ef)" d="M 373.581818 141.610196 
L 373.226118 140.191364 
L 372.806031 138.647045 
L 372.784565 138.574327 
" style="fill:none;stroke:#0000ff;stroke-width:1.5;"/>
    <path clip-path="url(#p4c02b2d1ef)" d="M 347.380879 81.271725 
L 346.697014 79.962955 
L 345.839921 78.418636 
L 345.047727 77.07152 
L 344.942059 76.874318 
L 344.105945 75.33 
L 343.212493 73.785682 
L 342.669886 72.883554 
L 342.316483 72.241364 
L 341.441633 70.697045 
L 340.506802 69.152727 
L 340.292045 68.803448 
L 339.617035 67.608409 
L 338.698214 66.064091 
L 337.914205 64.815013 
L 337.74329 64.519773 
L 336.83677 62.975455 
L 335.868111 61.431136 
L 335.536364 60.913915 
L 334.926319 59.886818 
L 333.96698 58.3425 
L 333.158523 57.108006 
L 332.96989 56.798182 
L 332.01613 55.253864 
L 330.996999 53.709545 
L 330.780682 53.386321 
L 330.017888 52.165227 
L 329.000771 50.620909 
L 328.402841 49.746255 
L 327.973835 49.076591 
L 326.954784 47.532273 
L 326.025 46.201224 
L 325.884837 45.987955 
L 324.859857 44.443636 
" style="fill:none;stroke:#0000ff;stroke-width:1.5;"/>
    <path clip-path="url(#p4c02b2d1ef)" d="M 117.940143 44.443636 
L 116.915163 45.987955 
L 116.775 46.201224 
L 116.740845 46.250119 
" style="fill:none;stroke:#0000ff;stroke-width:1.5;"/>
    <path clip-path="url(#p4c02b2d1ef)" d="M 85.392749 100.597312 
L 84.8911 101.583409 
L 84.156175 103.127727 
L 83.485227 104.632718 
L 83.465475 104.672045 
L 82.6958 106.216364 
L 81.975959 107.760682 
L 81.302793 109.305 
L 81.107386 109.765169 
L 80.585909 110.849318 
L 79.87887 112.393636 
L 79.217935 113.937955 
L 78.729545 115.144041 
L 78.573579 115.482273 
L 77.877515 117.026591 
L 77.227239 118.570909 
L 76.619906 120.115227 
L 76.351705 120.824705 
L 75.990013 121.659545 
L 75.34948 123.203864 
L 74.751922 124.748182 
L 74.194737 126.2925 
L 73.973864 126.930273 
L 73.611439 127.836818 
L 73.024089 129.381136 
L 72.47759 130.925455 
L 71.9696 132.469773 
L 71.596023 133.681048 
L 71.47646 134.014091 
L 70.943318 135.558409 
L 70.449832 137.102727 
L 69.993969 138.647045 
L 69.573882 140.191364 
L 69.218182 141.610196 
" style="fill:none;stroke:#0000ff;stroke-width:1.5;"/>
   </g>
   <g id="LineCollection_4">
    <path clip-path="url(#p4c02b2d1ef)" d="M 141.001993 44.443636 
L 140.553409 44.959981 
L 139.746125 45.87055 
" style="fill:none;stroke:#0000ff;stroke-width:1.5;"/>
    <path clip-path="url(#p4c02b2d1ef)" d="M 103.833822 97.264646 
L 98.916348 106.216364 
L 93.502353 117.026591 
L 88.107564 129.381136 
L 86.869183 132.469773 
L 84.216764 140.191364 
L 82.500255 146.368636 
L 81.817623 149.457273 
L 81.077328 154.090227 
L 80.718364 157.178864 
L 80.552108 160.2675 
L 80.597259 163.356136 
L 80.886691 166.444773 
L 81.412521 169.533409 
L 82.220164 172.622045 
L 82.7765 174.166364 
L 84.160672 177.255 
L 85.011276 178.799318 
L 87.087226 181.887955 
L 89.74456 184.976591 
L 93.119347 188.065227 
L 95.374432 189.817451 
L 97.752273 191.460311 
L 100.130114 192.92615 
L 104.885795 195.469725 
L 108.9908 197.331136 
L 112.855755 198.875455 
L 116.775 200.272249 
L 123.908523 202.491687 
L 131.042045 204.339015 
L 140.553409 206.34289 
L 157.198295 209.043571 
L 169.0875 210.434611 
L 176.221023 211.05393 
L 197.621591 212.420545 
L 209.510795 212.733504 
L 223.777841 212.855774 
L 238.044886 212.637662 
L 249.934091 212.217497 
L 259.445455 211.626636 
L 276.090341 210.173676 
L 290.357386 208.335536 
L 295.113068 207.62878 
L 302.246591 206.34289 
L 307.002273 205.388118 
L 318.891477 202.491687 
L 326.025 200.272249 
L 330.780682 198.565234 
L 335.536364 196.593249 
L 340.292045 194.2425 
L 343.063603 192.698182 
L 345.5272 191.153864 
L 347.719576 189.609545 
L 351.476322 186.520909 
L 354.424565 183.432273 
L 356.936932 180.083128 
L 357.788724 178.799318 
L 358.639328 177.255 
L 360.0235 174.166364 
L 361.02933 171.077727 
L 361.692614 167.800497 
L 362.091324 164.900455 
L 362.253404 161.811818 
L 362.189745 158.723182 
L 361.925507 155.634545 
L 361.265525 151.001591 
L 360.660694 147.912955 
L 359.898517 144.824318 
L 357.576972 137.102727 
L 354.090784 127.836818 
L 352.798389 124.748182 
L 346.280948 110.849318 
L 340.501782 100.039091 
L 331.400128 84.595909 
L 322.252534 70.697045 
L 313.234295 58.3425 
L 307.002273 50.555296 
L 303.157962 45.987955 
L 301.798007 44.443636 
L 301.798007 44.443636 
" style="fill:none;stroke:#0000ff;stroke-width:1.5;"/>
   </g>
   <g id="LineCollection_5">
    <path clip-path="url(#p4c02b2d1ef)" d="M 168.664229 44.443636 
L 164.331818 47.795671 
L 159.145679 52.165227 
L 154.084416 56.798182 
L 149.392662 61.431136 
L 143.593523 67.608409 
L 138.175568 73.865685 
L 134.427851 78.418636 
L 127.368035 87.684545 
L 119.899284 98.494773 
L 113.163401 109.305 
L 107.985509 118.570909 
L 103.387342 127.836818 
L 100.124531 135.558409 
L 98.912702 138.647045 
L 97.378261 143.28 
L 96.461167 146.368636 
L 95.719427 149.457273 
L 94.841097 154.090227 
L 94.459655 157.178864 
L 94.282989 160.2675 
L 94.330966 163.356136 
L 94.638523 166.444773 
L 95.262596 169.533409 
L 96.156824 172.622045 
L 96.761332 174.166364 
L 98.314139 177.255 
L 99.25931 178.799318 
L 101.58616 181.887955 
L 104.590722 184.976591 
L 107.263636 187.228149 
L 109.641477 188.963343 
L 112.019318 190.499813 
L 114.397159 191.878209 
L 116.775 193.122378 
L 121.530682 195.308457 
L 126.78565 197.331136 
L 131.042045 198.760976 
L 138.175568 200.828837 
L 142.884895 201.954475 
L 142.884895 201.954475 
" style="fill:none;stroke:#0000ff;stroke-width:1.5;"/>
    <path clip-path="url(#p4c02b2d1ef)" d="M 200.36769 209.04128 
L 209.510795 209.334452 
L 221.4 209.462828 
L 233.289205 209.334452 
L 242.800568 209.02631 
L 252.311932 208.478757 
L 266.578977 207.310304 
L 278.468182 205.887056 
L 287.979545 204.404853 
L 295.113068 203.044428 
L 302.246591 201.43786 
L 309.380114 199.513285 
L 316.513636 197.156208 
L 321.269318 195.308457 
L 326.863102 192.698182 
L 330.780682 190.499813 
L 333.158523 188.963343 
L 335.536364 187.228149 
L 336.453125 186.520909 
L 339.800612 183.432273 
L 342.426637 180.343636 
L 344.485861 177.255 
L 346.038668 174.166364 
L 347.131591 171.077727 
L 347.893695 167.989091 
L 348.350639 164.900455 
L 348.522869 161.811818 
L 348.455223 158.723182 
L 348.174439 155.634545 
L 347.694555 152.545909 
L 346.338833 146.368636 
L 344.916221 141.735682 
L 343.887298 138.647045 
L 341.461625 132.469773 
L 338.688068 126.2925 
L 333.9913 117.026591 
L 326.836401 104.672045 
L 319.794247 93.861818 
L 313.15003 84.595909 
L 307.002273 76.747929 
L 303.274734 72.241364 
L 297.490909 65.740393 
L 293.407338 61.431136 
L 287.979545 56.102699 
L 283.223864 51.786496 
L 278.468182 47.795671 
L 274.135771 44.443636 
L 274.135771 44.443636 
" style="fill:none;stroke:#0000ff;stroke-width:1.5;"/>
   </g>
   <g id="LineCollection_6">
    <path clip-path="url(#p4c02b2d1ef)" d="M 259.654223 56.506052 
L 257.067614 55.155403 
L 252.311932 52.906073 
L 247.55625 50.991242 
L 242.800568 49.394831 
L 238.044886 48.114066 
L 233.289205 47.159277 
L 228.533523 46.518759 
L 223.777841 46.204972 
L 219.022159 46.204972 
L 214.266477 46.518759 
L 209.510795 47.159277 
L 204.755114 48.114066 
L 199.999432 49.394831 
L 195.24375 50.991242 
L 190.488068 52.906073 
L 185.544794 55.253864 
L 180.976705 57.708815 
L 176.221023 60.595351 
L 171.465341 63.808795 
L 166.391932 67.608409 
L 160.77422 72.241364 
L 155.662821 76.874318 
L 150.944823 81.507273 
L 146.5512 86.140227 
L 140.553409 93.010736 
L 137.32486 96.950455 
L 132.589629 103.127727 
L 128.207861 109.305 
L 125.117655 113.937955 
L 120.396002 121.659545 
L 116.775 128.337052 
L 115.437079 130.925455 
L 112.618357 137.102727 
L 110.238613 143.28 
L 108.380669 149.457273 
L 107.707176 152.545909 
L 107.222427 155.634545 
L 106.899122 158.723182 
L 106.821232 161.811818 
L 107.019544 164.900455 
L 107.508285 167.989091 
L 108.3208 171.077727 
L 108.893942 172.622045 
L 110.366369 175.710682 
L 112.019318 178.272186 
L 112.372371 178.799318 
L 114.397159 181.231897 
L 114.976897 181.887955 
L 116.775 183.605916 
L 119.152841 185.599468 
L 121.530682 187.322452 
L 123.908523 188.840408 
L 126.286364 190.195593 
L 128.664205 191.412867 
L 133.419886 193.552486 
L 138.175568 195.353812 
L 144.422169 197.331136 
L 147.686932 198.262246 
L 154.820455 199.977179 
L 165.422108 201.964091 
L 171.465341 202.928973 
L 183.354545 204.353026 
L 190.488068 204.947259 
L 204.755114 205.831496 
L 214.266477 206.098701 
L 223.777841 206.149996 
L 233.289205 205.993993 
L 242.800568 205.604262 
L 252.311932 204.947259 
L 259.445455 204.353026 
L 266.578977 203.508409 
L 273.7125 202.583403 
L 283.223864 200.957368 
L 292.735227 198.841883 
L 297.490909 197.597067 
L 304.624432 195.353812 
L 309.380114 193.552486 
L 314.662941 191.153864 
L 318.891477 188.840408 
L 321.269318 187.322452 
L 323.647159 185.599468 
L 324.46013 184.976591 
L 327.823103 181.887955 
L 330.427629 178.799318 
L 332.433631 175.710682 
L 333.906058 172.622045 
L 334.935869 169.533409 
L 335.562647 166.444773 
L 335.91678 163.356136 
L 335.972023 160.2675 
L 335.768603 157.178864 
L 335.092824 152.545909 
L 334.419331 149.457273 
L 333.54892 146.368636 
L 331.432678 140.191364 
L 328.402841 133.17366 
L 327.362921 130.925455 
L 324.133041 124.748182 
L 318.891477 115.88504 
L 316.650724 112.393636 
L 311.330265 104.672045 
L 307.888069 100.039091 
L 303.258541 94.220168 
L 303.258541 94.220168 
" style="fill:none;stroke:#0000ff;stroke-width:1.5;"/>
   </g>
   <g id="LineCollection_7">
    <path clip-path="url(#p4c02b2d1ef)" d="M 119.249619 156.30758 
L 118.993071 158.723182 
L 118.905705 161.811818 
L 119.152841 165.058536 
L 119.652936 167.989091 
L 120.059903 169.533409 
L 120.582178 171.077727 
L 121.990842 174.166364 
L 122.874967 175.710682 
L 125.125478 178.799318 
L 126.532096 180.343636 
L 128.664205 182.365423 
L 131.042045 184.290784 
L 133.419886 185.950616 
L 135.797727 187.409978 
L 138.175568 188.710414 
L 140.553409 189.876059 
L 145.309091 191.914447 
L 150.064773 193.625452 
L 154.820455 195.089286 
L 161.953977 196.912755 
L 169.0875 198.396615 
L 178.598864 199.946702 
L 188.110227 201.106796 
L 195.24375 201.732218 
L 207.132955 202.453269 
L 216.644318 202.719714 
L 226.155682 202.719714 
L 235.667045 202.453269 
L 245.178409 201.893517 
L 252.311932 201.341182 
L 259.445455 200.54578 
L 268.956818 199.219895 
L 278.870124 197.331136 
L 283.223864 196.349932 
L 290.75621 194.2425 
L 295.364401 192.698182 
L 299.86875 190.935752 
L 304.624432 188.710414 
L 307.002273 187.409978 
L 309.380114 185.950616 
L 311.757955 184.290784 
L 314.135795 182.365423 
L 314.694035 181.887955 
L 316.513636 180.0668 
L 317.674522 178.799318 
L 319.925033 175.710682 
L 321.269318 173.196184 
L 321.562343 172.622045 
L 322.217822 171.077727 
L 323.147064 167.989091 
L 323.671854 164.900455 
L 323.894295 161.811818 
L 323.806929 158.723182 
L 323.467738 155.634545 
L 322.9196 152.545909 
L 322.149353 149.457273 
L 320.647332 144.824318 
L 319.444921 141.735682 
L 316.598718 135.558409 
L 313.285243 129.381136 
L 310.474966 124.748182 
L 306.328498 118.570909 
L 302.246591 113.064612 
L 299.270198 109.305 
L 295.113068 104.433348 
L 291.097395 100.039091 
L 286.509964 95.406136 
L 283.211962 92.3175 
L 278.468182 88.161265 
L 273.7125 84.37052 
L 268.956818 80.920934 
L 264.201136 77.819055 
L 259.445455 75.058408 
L 254.689773 72.623325 
L 249.934091 70.523948 
L 245.178409 68.74224 
L 240.422727 67.291851 
L 235.667045 66.168459 
L 230.911364 65.354104 
L 226.155682 64.874584 
L 221.4 64.716904 
L 216.644318 64.874584 
L 211.888636 65.354104 
L 207.132955 66.168459 
L 202.377273 67.291851 
L 197.621591 68.74224 
L 192.462863 70.697045 
L 188.110227 72.623325 
L 182.874312 75.33 
L 178.598864 77.819055 
L 173.843182 80.920934 
L 168.79575 84.595909 
L 164.331818 88.161265 
L 161.295287 90.773182 
L 156.290036 95.406136 
L 151.702605 100.039091 
L 146.421417 105.870393 
L 146.421417 105.870393 
" style="fill:none;stroke:#0000ff;stroke-width:1.5;"/>
   </g>
   <g id="LineCollection_8">
    <path clip-path="url(#p4c02b2d1ef)" d="M 268.361281 100.84953 
L 264.201136 98.026186 
L 259.445455 95.157571 
L 254.004574 92.3175 
L 249.934091 90.472753 
L 245.178409 88.642496 
L 240.422727 87.153458 
L 235.667045 86.004666 
L 230.911364 85.173316 
L 226.155682 84.687901 
L 221.4 84.524013 
L 216.644318 84.687901 
L 211.888636 85.173316 
L 207.132955 86.004666 
L 202.377273 87.153458 
L 197.621591 88.642496 
L 192.185183 90.773182 
L 188.110227 92.640291 
L 182.929509 95.406136 
L 178.598864 98.026186 
L 173.843182 101.26861 
L 169.0875 104.895729 
L 164.331818 108.929402 
L 160.607918 112.393636 
L 156.072257 117.026591 
L 151.981818 121.659545 
L 148.276393 126.2925 
L 144.950345 130.925455 
L 142.93125 134.035656 
L 141.074119 137.102727 
L 138.613882 141.735682 
L 136.552263 146.368636 
L 134.948367 151.001591 
L 134.162518 154.090227 
L 133.643184 157.178864 
L 133.400866 160.2675 
L 133.467975 163.356136 
L 133.886713 166.444773 
L 134.251298 167.989091 
L 134.736387 169.533409 
L 135.797727 171.95964 
L 136.109331 172.622045 
L 136.989114 174.166364 
L 139.283687 177.255 
L 140.738127 178.799318 
L 142.93125 180.787878 
L 145.309091 182.613311 
L 147.686932 184.181839 
L 150.064773 185.555308 
L 152.442614 186.772199 
L 157.198295 188.856893 
L 161.953977 190.575525 
L 166.709659 192.02056 
L 173.843182 193.784378 
L 180.976705 195.17725 
L 188.110227 196.261319 
L 195.24375 197.083192 
L 204.755114 197.858329 
L 211.888636 198.20138 
L 219.022159 198.351065 
L 226.155682 198.321432 
L 233.289205 198.10972 
L 240.422727 197.695923 
L 249.934091 196.842193 
L 257.067614 195.914367 
L 264.201136 194.748847 
L 271.334659 193.24404 
L 278.468182 191.319386 
L 283.600044 189.609545 
L 287.979545 187.863385 
L 290.876271 186.520909 
L 293.789457 184.976591 
L 296.314158 183.432273 
L 298.509689 181.887955 
L 300.413339 180.343636 
L 302.246591 178.600449 
L 303.516313 177.255 
L 305.810886 174.166364 
L 307.002273 171.95964 
L 307.441079 171.077727 
L 308.063613 169.533409 
L 308.548702 167.989091 
L 309.170831 164.900455 
L 309.407936 161.811818 
L 309.313222 158.723182 
L 308.930935 155.634545 
L 308.277573 152.545909 
L 307.359466 149.457273 
L 305.613239 144.824318 
L 303.440725 140.2345 
L 303.440725 140.2345 
" style="fill:none;stroke:#0000ff;stroke-width:1.5;"/>
   </g>
   <g id="LineCollection_9">
    <path clip-path="url(#p4c02b2d1ef)" d="M 245.555164 190.590714 
L 249.934091 189.938014 
L 254.689773 189.069647 
L 259.445455 187.996654 
L 264.776078 186.520909 
L 269.292841 184.976591 
L 273.7125 183.113671 
L 276.160307 181.887955 
L 278.822154 180.343636 
L 281.082022 178.799318 
L 283.223864 177.055132 
L 284.656733 175.710682 
L 286.037902 174.166364 
L 287.206489 172.622045 
L 288.161129 171.077727 
L 288.959482 169.533409 
L 289.581574 167.989091 
L 290.049126 166.444773 
L 290.601257 163.356136 
L 290.690568 160.2675 
L 290.357386 157.157022 
L 289.695428 154.090227 
L 288.687634 151.001591 
L 287.376333 147.912955 
L 285.601705 144.527765 
L 283.919316 141.735682 
L 281.788442 138.647045 
L 279.385747 135.558409 
L 276.090341 131.814458 
L 273.7125 129.381136 
L 270.405325 126.2925 
L 266.578977 123.10602 
L 262.534055 120.115227 
L 259.445455 118.059372 
L 254.689773 115.274476 
L 249.934091 112.897243 
L 244.971413 110.849318 
L 240.370079 109.305 
L 235.667045 108.074653 
L 230.911364 107.191575 
L 226.155682 106.666143 
L 221.4 106.493366 
L 216.644318 106.666143 
L 211.888636 107.191575 
L 207.132955 108.074653 
L 202.377273 109.319552 
L 197.621591 110.922687 
L 192.865909 112.897243 
L 187.739877 115.482273 
L 183.354545 118.059372 
L 180.265945 120.115227 
L 176.098128 123.203864 
L 172.394675 126.2925 
L 169.0875 129.381136 
L 166.098681 132.469773 
L 163.414253 135.558409 
L 161.011558 138.647045 
L 158.880684 141.735682 
L 157.024625 144.824318 
L 155.423667 147.912955 
L 154.112366 151.001591 
L 153.104572 154.090227 
L 152.438298 157.178864 
L 152.109432 160.2675 
L 152.098528 161.811818 
L 152.198743 163.356136 
L 152.750874 166.444773 
L 153.218426 167.989091 
L 153.840518 169.533409 
L 154.820455 171.366514 
L 155.593511 172.622045 
L 157.198295 174.653611 
L 158.143267 175.710682 
L 159.791632 177.255 
L 161.953977 178.965664 
L 164.331818 180.558012 
L 166.709659 181.924521 
L 169.769891 183.432273 
L 173.843182 185.102666 
L 178.598864 186.698772 
L 183.640908 188.065227 
L 188.110227 189.069647 
L 192.542657 189.880826 
L 192.542657 189.880826 
" style="fill:none;stroke:#0000ff;stroke-width:1.5;"/>
   </g>
   <g id="LineCollection_10">
    <path clip-path="url(#p4c02b2d1ef)" d="M 209.387139 134.800445 
L 207.132955 135.414778 
L 206.688076 135.558409 
L 204.755114 136.189348 
L 202.377273 137.102727 
L 199.999432 138.159951 
L 199.030267 138.647045 
L 197.621591 139.37794 
L 196.212037 140.191364 
L 195.24375 140.77391 
L 193.785737 141.735682 
L 192.865909 142.375078 
L 191.663193 143.28 
L 190.488068 144.222843 
L 189.787215 144.824318 
L 188.121648 146.368636 
L 188.110227 146.380062 
L 186.658385 147.912955 
L 185.732386 149.00094 
L 185.360442 149.457273 
L 184.230695 151.001591 
L 183.354545 152.382268 
L 183.253791 152.545909 
L 182.434346 154.090227 
L 181.766208 155.634545 
L 181.25192 157.178864 
L 180.976705 158.370038 
L 180.895899 158.723182 
L 180.70457 160.2675 
L 180.686432 161.811818 
L 180.853135 163.356136 
L 180.976705 163.879733 
L 181.220011 164.900455 
L 181.80639 166.444773 
L 182.636481 167.989091 
L 183.354545 169.002027 
L 183.744104 169.533409 
L 185.173103 171.077727 
L 185.732386 171.572145 
L 186.98612 172.622045 
L 188.110227 173.409511 
L 189.26839 174.166364 
L 190.488068 174.851103 
L 192.156787 175.710682 
L 192.865909 176.032005 
L 195.24375 177.012632 
L 195.894938 177.255 
L 197.621591 177.834724 
L 199.999432 178.539852 
L 200.990989 178.799318 
L 202.377273 179.134483 
L 204.755114 179.634167 
L 207.132955 180.057042 
L 209.07007 180.343636 
L 209.510795 180.405505 
L 211.888636 180.67814 
L 214.266477 180.887325 
L 216.644318 181.035226 
L 219.022159 181.123366 
L 221.4 181.152646 
L 223.777841 181.123366 
L 226.155682 181.035226 
L 228.533523 180.887325 
L 230.911364 180.67814 
L 233.289205 180.405505 
L 233.72993 180.343636 
L 235.667045 180.057042 
L 238.044886 179.634167 
L 240.422727 179.134483 
L 241.809011 178.799318 
L 242.800568 178.539852 
L 245.178409 177.834724 
L 246.905062 177.255 
L 247.55625 177.012632 
L 249.934091 176.032005 
L 250.643213 175.710682 
L 252.311932 174.851103 
L 253.53161 174.166364 
L 254.689773 173.409511 
L 255.81388 172.622045 
L 257.067614 171.572145 
L 257.626897 171.077727 
L 259.055896 169.533409 
L 259.445455 169.002027 
L 260.163519 167.989091 
L 260.99361 166.444773 
L 261.579989 164.900455 
L 261.823295 163.879733 
L 261.946865 163.356136 
L 262.113568 161.811818 
L 262.09543 160.2675 
L 261.904101 158.723182 
L 261.823295 158.370038 
L 261.54808 157.178864 
L 261.033792 155.634545 
L 260.365654 154.090227 
L 259.546209 152.545909 
L 259.445455 152.382268 
L 258.569305 151.001591 
L 257.61795 149.701127 
" style="fill:none;stroke:#0000ff;stroke-width:1.5;"/>
   </g>
   <g id="patch_3">
    <path d="M 54 252 
L 54 34.56 
" style="fill:none;stroke:#000000;stroke-linecap:square;stroke-linejoin:miter;stroke-width:0.8;"/>
   </g>
   <g id="patch_4">
    <path d="M 388.8 252 
L 388.8 34.56 
" style="fill:none;stroke:#000000;stroke-linecap:square;stroke-linejoin:miter;stroke-width:0.8;"/>
   </g>
   <g id="patch_5">
    <path d="M 54 252 
L 388.8 252 
" style="fill:none;stroke:#000000;stroke-linecap:square;stroke-linejoin:miter;stroke-width:0.8;"/>
   </g>
   <g id="patch_6">
    <path d="M 54 34.56 
L 388.8 34.56 
" style="fill:none;stroke:#000000;stroke-linecap:square;stroke-linejoin:miter;stroke-width:0.8;"/>
   </g>
   <g id="text_16">
    <g clip-path="url(#p4c02b2d1ef)">
     <!-- 2.55855e-10 -->
     <defs>
      <path d="M 10.6875 12.40625 
L 21 12.40625 
L 21 0 
L 10.6875 0 
z
" id="DejaVuSans-2e"/>
      <path d="M 10.796875 72.90625 
L 49.515625 72.90625 
L 49.515625 64.59375 
L 19.828125 64.59375 
L 19.828125 46.734375 
Q 21.96875 47.46875 24.109375 47.828125 
Q 26.265625 48.1875 28.421875 48.1875 
Q 40.625 48.1875 47.75 41.5 
Q 54.890625 34.8125 54.890625 23.390625 
Q 54.890625 11.625 47.5625 5.09375 
Q 40.234375 -1.421875 26.90625 -1.421875 
Q 22.3125 -1.421875 17.546875 -0.640625 
Q 12.796875 0.140625 7.71875 1.703125 
L 7.71875 11.625 
Q 12.109375 9.234375 16.796875 8.0625 
Q 21.484375 6.890625 26.703125 6.890625 
Q 35.15625 6.890625 40.078125 11.328125 
Q 45.015625 15.765625 45.015625 23.390625 
Q 45.015625 31 40.078125 35.4375 
Q 35.15625 39.890625 26.703125 39.890625 
Q 22.75 39.890625 18.8125 39.015625 
Q 14.890625 38.140625 10.796875 36.28125 
z
" id="DejaVuSans-35"/>
      <path d="M 31.78125 34.625 
Q 24.75 34.625 20.71875 30.859375 
Q 16.703125 27.09375 16.703125 20.515625 
Q 16.703125 13.921875 20.71875 10.15625 
Q 24.75 6.390625 31.78125 6.390625 
Q 38.8125 6.390625 42.859375 10.171875 
Q 46.921875 13.96875 46.921875 20.515625 
Q 46.921875 27.09375 42.890625 30.859375 
Q 38.875 34.625 31.78125 34.625 
z
M 21.921875 38.8125 
Q 15.578125 40.375 12.03125 44.71875 
Q 8.5 49.078125 8.5 55.328125 
Q 8.5 64.0625 14.71875 69.140625 
Q 20.953125 74.21875 31.78125 74.21875 
Q 42.671875 74.21875 48.875 69.140625 
Q 55.078125 64.0625 55.078125 55.328125 
Q 55.078125 49.078125 51.53125 44.71875 
Q 48 40.375 41.703125 38.8125 
Q 48.828125 37.15625 52.796875 32.3125 
Q 56.78125 27.484375 56.78125 20.515625 
Q 56.78125 9.90625 50.3125 4.234375 
Q 43.84375 -1.421875 31.78125 -1.421875 
Q 19.734375 -1.421875 13.25 4.234375 
Q 6.78125 9.90625 6.78125 20.515625 
Q 6.78125 27.484375 10.78125 32.3125 
Q 14.796875 37.15625 21.921875 38.8125 
z
M 18.3125 54.390625 
Q 18.3125 48.734375 21.84375 45.5625 
Q 25.390625 42.390625 31.78125 42.390625 
Q 38.140625 42.390625 41.71875 45.5625 
Q 45.3125 48.734375 45.3125 54.390625 
Q 45.3125 60.0625 41.71875 63.234375 
Q 38.140625 66.40625 31.78125 66.40625 
Q 25.390625 66.40625 21.84375 63.234375 
Q 18.3125 60.0625 18.3125 54.390625 
z
" id="DejaVuSans-38"/>
      <path d="M 56.203125 29.59375 
L 56.203125 25.203125 
L 14.890625 25.203125 
Q 15.484375 15.921875 20.484375 11.0625 
Q 25.484375 6.203125 34.421875 6.203125 
Q 39.59375 6.203125 44.453125 7.46875 
Q 49.3125 8.734375 54.109375 11.28125 
L 54.109375 2.78125 
Q 49.265625 0.734375 44.1875 -0.34375 
Q 39.109375 -1.421875 33.890625 -1.421875 
Q 20.796875 -1.421875 13.15625 6.1875 
Q 5.515625 13.8125 5.515625 26.8125 
Q 5.515625 40.234375 12.765625 48.109375 
Q 20.015625 56 32.328125 56 
Q 43.359375 56 49.78125 48.890625 
Q 56.203125 41.796875 56.203125 29.59375 
z
M 47.21875 32.234375 
Q 47.125 39.59375 43.09375 43.984375 
Q 39.0625 48.390625 32.421875 48.390625 
Q 24.90625 48.390625 20.390625 44.140625 
Q 15.875 39.890625 15.1875 32.171875 
z
" id="DejaVuSans-65"/>
      <path d="M 4.890625 31.390625 
L 31.203125 31.390625 
L 31.203125 23.390625 
L 4.890625 23.390625 
z
" id="DejaVuSans-2d"/>
     </defs>
     <g style="fill:#0000ff;" transform="translate(219.674066 238.185631)rotate(-0.754475)scale(0.08 -0.08)">
      <use xlink:href="#DejaVuSans-32"/>
      <use x="63.623047" xlink:href="#DejaVuSans-2e"/>
      <use x="95.410156" xlink:href="#DejaVuSans-35"/>
      <use x="159.033203" xlink:href="#DejaVuSans-35"/>
      <use x="222.65625" xlink:href="#DejaVuSans-38"/>
      <use x="286.279297" xlink:href="#DejaVuSans-35"/>
      <use x="349.902344" xlink:href="#DejaVuSans-35"/>
      <use x="413.525391" xlink:href="#DejaVuSans-65"/>
      <use x="475.048828" xlink:href="#DejaVuSans-2d"/>
      <use x="511.132812" xlink:href="#DejaVuSans-31"/>
      <use x="574.755859" xlink:href="#DejaVuSans-30"/>
     </g>
    </g>
   </g>
   <g id="text_17">
    <g clip-path="url(#p4c02b2d1ef)">
     <!-- 1.09564e-05 -->
     <defs>
      <path d="M 10.984375 1.515625 
L 10.984375 10.5 
Q 14.703125 8.734375 18.5 7.8125 
Q 22.3125 6.890625 25.984375 6.890625 
Q 35.75 6.890625 40.890625 13.453125 
Q 46.046875 20.015625 46.78125 33.40625 
Q 43.953125 29.203125 39.59375 26.953125 
Q 35.25 24.703125 29.984375 24.703125 
Q 19.046875 24.703125 12.671875 31.3125 
Q 6.296875 37.9375 6.296875 49.421875 
Q 6.296875 60.640625 12.9375 67.421875 
Q 19.578125 74.21875 30.609375 74.21875 
Q 43.265625 74.21875 49.921875 64.515625 
Q 56.59375 54.828125 56.59375 36.375 
Q 56.59375 19.140625 48.40625 8.859375 
Q 40.234375 -1.421875 26.421875 -1.421875 
Q 22.703125 -1.421875 18.890625 -0.6875 
Q 15.09375 0.046875 10.984375 1.515625 
z
M 30.609375 32.421875 
Q 37.25 32.421875 41.125 36.953125 
Q 45.015625 41.5 45.015625 49.421875 
Q 45.015625 57.28125 41.125 61.84375 
Q 37.25 66.40625 30.609375 66.40625 
Q 23.96875 66.40625 20.09375 61.84375 
Q 16.21875 57.28125 16.21875 49.421875 
Q 16.21875 41.5 20.09375 36.953125 
Q 23.96875 32.421875 30.609375 32.421875 
z
" id="DejaVuSans-39"/>
      <path d="M 33.015625 40.375 
Q 26.375 40.375 22.484375 35.828125 
Q 18.609375 31.296875 18.609375 23.390625 
Q 18.609375 15.53125 22.484375 10.953125 
Q 26.375 6.390625 33.015625 6.390625 
Q 39.65625 6.390625 43.53125 10.953125 
Q 47.40625 15.53125 47.40625 23.390625 
Q 47.40625 31.296875 43.53125 35.828125 
Q 39.65625 40.375 33.015625 40.375 
z
M 52.59375 71.296875 
L 52.59375 62.3125 
Q 48.875 64.0625 45.09375 64.984375 
Q 41.3125 65.921875 37.59375 65.921875 
Q 27.828125 65.921875 22.671875 59.328125 
Q 17.53125 52.734375 16.796875 39.40625 
Q 19.671875 43.65625 24.015625 45.921875 
Q 28.375 48.1875 33.59375 48.1875 
Q 44.578125 48.1875 50.953125 41.515625 
Q 57.328125 34.859375 57.328125 23.390625 
Q 57.328125 12.15625 50.6875 5.359375 
Q 44.046875 -1.421875 33.015625 -1.421875 
Q 20.359375 -1.421875 13.671875 8.265625 
Q 6.984375 17.96875 6.984375 36.375 
Q 6.984375 53.65625 15.1875 63.9375 
Q 23.390625 74.21875 37.203125 74.21875 
Q 40.921875 74.21875 44.703125 73.484375 
Q 48.484375 72.75 52.59375 71.296875 
z
" id="DejaVuSans-36"/>
     </defs>
     <g style="fill:#0000ff;" transform="translate(306.167455 219.858702)rotate(-11.258625)scale(0.08 -0.08)">
      <use xlink:href="#DejaVuSans-31"/>
      <use x="63.623047" xlink:href="#DejaVuSans-2e"/>
      <use x="95.410156" xlink:href="#DejaVuSans-30"/>
      <use x="159.033203" xlink:href="#DejaVuSans-39"/>
      <use x="222.65625" xlink:href="#DejaVuSans-35"/>
      <use x="286.279297" xlink:href="#DejaVuSans-36"/>
      <use x="349.902344" xlink:href="#DejaVuSans-34"/>
      <use x="413.525391" xlink:href="#DejaVuSans-65"/>
      <use x="475.048828" xlink:href="#DejaVuSans-2d"/>
      <use x="511.132812" xlink:href="#DejaVuSans-30"/>
      <use x="574.755859" xlink:href="#DejaVuSans-35"/>
     </g>
    </g>
   </g>
   <g id="text_18">
    <g clip-path="url(#p4c02b2d1ef)">
     <!-- 0.000106015 -->
     <g style="fill:#0000ff;" transform="translate(72.500478 191.096325)rotate(-335.633412)scale(0.08 -0.08)">
      <use xlink:href="#DejaVuSans-30"/>
      <use x="63.623047" xlink:href="#DejaVuSans-2e"/>
      <use x="95.410156" xlink:href="#DejaVuSans-30"/>
      <use x="159.033203" xlink:href="#DejaVuSans-30"/>
      <use x="222.65625" xlink:href="#DejaVuSans-30"/>
      <use x="286.279297" xlink:href="#DejaVuSans-31"/>
      <use x="349.902344" xlink:href="#DejaVuSans-30"/>
      <use x="413.525391" xlink:href="#DejaVuSans-36"/>
      <use x="477.148438" xlink:href="#DejaVuSans-30"/>
      <use x="540.771484" xlink:href="#DejaVuSans-31"/>
      <use x="604.394531" xlink:href="#DejaVuSans-35"/>
     </g>
    </g>
   </g>
   <g id="text_19">
    <g clip-path="url(#p4c02b2d1ef)">
     <!-- 0.000106015 -->
     <g style="fill:#0000ff;" transform="translate(348.590912 85.803387)rotate(-294.051506)scale(0.08 -0.08)">
      <use xlink:href="#DejaVuSans-30"/>
      <use x="63.623047" xlink:href="#DejaVuSans-2e"/>
      <use x="95.410156" xlink:href="#DejaVuSans-30"/>
      <use x="159.033203" xlink:href="#DejaVuSans-30"/>
      <use x="222.65625" xlink:href="#DejaVuSans-30"/>
      <use x="286.279297" xlink:href="#DejaVuSans-31"/>
      <use x="349.902344" xlink:href="#DejaVuSans-30"/>
      <use x="413.525391" xlink:href="#DejaVuSans-36"/>
      <use x="477.148438" xlink:href="#DejaVuSans-30"/>
      <use x="540.771484" xlink:href="#DejaVuSans-31"/>
      <use x="604.394531" xlink:href="#DejaVuSans-35"/>
     </g>
    </g>
   </g>
   <g id="text_20">
    <g clip-path="url(#p4c02b2d1ef)">
     <!-- 0.000106015 -->
     <g style="fill:#0000ff;" transform="translate(88.697912 97.136451)rotate(-60.039393)scale(0.08 -0.08)">
      <use xlink:href="#DejaVuSans-30"/>
      <use x="63.623047" xlink:href="#DejaVuSans-2e"/>
      <use x="95.410156" xlink:href="#DejaVuSans-30"/>
      <use x="159.033203" xlink:href="#DejaVuSans-30"/>
      <use x="222.65625" xlink:href="#DejaVuSans-30"/>
      <use x="286.279297" xlink:href="#DejaVuSans-31"/>
      <use x="349.902344" xlink:href="#DejaVuSans-30"/>
      <use x="413.525391" xlink:href="#DejaVuSans-36"/>
      <use x="477.148438" xlink:href="#DejaVuSans-30"/>
      <use x="540.771484" xlink:href="#DejaVuSans-31"/>
      <use x="604.394531" xlink:href="#DejaVuSans-35"/>
     </g>
    </g>
   </g>
   <g id="text_21">
    <g clip-path="url(#p4c02b2d1ef)">
     <!-- 0.000378586 -->
     <defs>
      <path d="M 8.203125 72.90625 
L 55.078125 72.90625 
L 55.078125 68.703125 
L 28.609375 0 
L 18.3125 0 
L 43.21875 64.59375 
L 8.203125 64.59375 
z
" id="DejaVuSans-37"/>
     </defs>
     <g style="fill:#0000ff;" transform="translate(107.071674 93.876806)rotate(-55.105379)scale(0.08 -0.08)">
      <use xlink:href="#DejaVuSans-30"/>
      <use x="63.623047" xlink:href="#DejaVuSans-2e"/>
      <use x="95.410156" xlink:href="#DejaVuSans-30"/>
      <use x="159.033203" xlink:href="#DejaVuSans-30"/>
      <use x="222.65625" xlink:href="#DejaVuSans-30"/>
      <use x="286.279297" xlink:href="#DejaVuSans-33"/>
      <use x="349.902344" xlink:href="#DejaVuSans-37"/>
      <use x="413.525391" xlink:href="#DejaVuSans-38"/>
      <use x="477.148438" xlink:href="#DejaVuSans-35"/>
      <use x="540.771484" xlink:href="#DejaVuSans-38"/>
      <use x="604.394531" xlink:href="#DejaVuSans-36"/>
     </g>
    </g>
   </g>
   <g id="text_22">
    <g clip-path="url(#p4c02b2d1ef)">
     <!-- 0.00114454 -->
     <g style="fill:#0000ff;" transform="translate(147.198619 206.051433)rotate(-353.130037)scale(0.08 -0.08)">
      <use xlink:href="#DejaVuSans-30"/>
      <use x="63.623047" xlink:href="#DejaVuSans-2e"/>
      <use x="95.410156" xlink:href="#DejaVuSans-30"/>
      <use x="159.033203" xlink:href="#DejaVuSans-30"/>
      <use x="222.65625" xlink:href="#DejaVuSans-31"/>
      <use x="286.279297" xlink:href="#DejaVuSans-31"/>
      <use x="349.902344" xlink:href="#DejaVuSans-34"/>
      <use x="413.525391" xlink:href="#DejaVuSans-34"/>
      <use x="477.148438" xlink:href="#DejaVuSans-35"/>
      <use x="540.771484" xlink:href="#DejaVuSans-34"/>
     </g>
    </g>
   </g>
   <g id="text_23">
    <g clip-path="url(#p4c02b2d1ef)">
     <!-- 0.00284155 -->
     <g style="fill:#0000ff;" transform="translate(263.549043 59.071995)rotate(-318.921457)scale(0.08 -0.08)">
      <use xlink:href="#DejaVuSans-30"/>
      <use x="63.623047" xlink:href="#DejaVuSans-2e"/>
      <use x="95.410156" xlink:href="#DejaVuSans-30"/>
      <use x="159.033203" xlink:href="#DejaVuSans-30"/>
      <use x="222.65625" xlink:href="#DejaVuSans-32"/>
      <use x="286.279297" xlink:href="#DejaVuSans-38"/>
      <use x="349.902344" xlink:href="#DejaVuSans-34"/>
      <use x="413.525391" xlink:href="#DejaVuSans-31"/>
      <use x="477.148438" xlink:href="#DejaVuSans-35"/>
      <use x="540.771484" xlink:href="#DejaVuSans-35"/>
     </g>
    </g>
   </g>
   <g id="text_24">
    <g clip-path="url(#p4c02b2d1ef)">
     <!-- 0.00624559 -->
     <g style="fill:#0000ff;" transform="translate(119.742773 151.604378)rotate(-61.04686)scale(0.08 -0.08)">
      <use xlink:href="#DejaVuSans-30"/>
      <use x="63.623047" xlink:href="#DejaVuSans-2e"/>
      <use x="95.410156" xlink:href="#DejaVuSans-30"/>
      <use x="159.033203" xlink:href="#DejaVuSans-30"/>
      <use x="222.65625" xlink:href="#DejaVuSans-36"/>
      <use x="286.279297" xlink:href="#DejaVuSans-32"/>
      <use x="349.902344" xlink:href="#DejaVuSans-34"/>
      <use x="413.525391" xlink:href="#DejaVuSans-35"/>
      <use x="477.148438" xlink:href="#DejaVuSans-35"/>
      <use x="540.771484" xlink:href="#DejaVuSans-39"/>
     </g>
    </g>
   </g>
   <g id="text_25">
    <g clip-path="url(#p4c02b2d1ef)">
     <!-- 0.0143045 -->
     <g style="fill:#0000ff;" transform="translate(272.061143 103.918106)rotate(-311.805008)scale(0.08 -0.08)">
      <use xlink:href="#DejaVuSans-30"/>
      <use x="63.623047" xlink:href="#DejaVuSans-2e"/>
      <use x="95.410156" xlink:href="#DejaVuSans-30"/>
      <use x="159.033203" xlink:href="#DejaVuSans-31"/>
      <use x="222.65625" xlink:href="#DejaVuSans-34"/>
      <use x="286.279297" xlink:href="#DejaVuSans-33"/>
      <use x="349.902344" xlink:href="#DejaVuSans-30"/>
      <use x="413.525391" xlink:href="#DejaVuSans-34"/>
      <use x="477.148438" xlink:href="#DejaVuSans-35"/>
     </g>
    </g>
   </g>
   <g id="text_26">
    <g clip-path="url(#p4c02b2d1ef)">
     <!-- 0.0346523 -->
     <g style="fill:#0000ff;" transform="translate(197.364886 194.060921)rotate(-359.28026)scale(0.08 -0.08)">
      <use xlink:href="#DejaVuSans-30"/>
      <use x="63.623047" xlink:href="#DejaVuSans-2e"/>
      <use x="95.410156" xlink:href="#DejaVuSans-30"/>
      <use x="159.033203" xlink:href="#DejaVuSans-33"/>
      <use x="222.65625" xlink:href="#DejaVuSans-34"/>
      <use x="286.279297" xlink:href="#DejaVuSans-36"/>
      <use x="349.902344" xlink:href="#DejaVuSans-35"/>
      <use x="413.525391" xlink:href="#DejaVuSans-32"/>
      <use x="477.148438" xlink:href="#DejaVuSans-33"/>
     </g>
    </g>
   </g>
   <g id="text_27">
    <g clip-path="url(#p4c02b2d1ef)">
     <!-- 0.0891452 -->
     <g style="fill:#0000ff;" transform="translate(214.328803 131.235847)rotate(-343.092361)scale(0.08 -0.08)">
      <use xlink:href="#DejaVuSans-30"/>
      <use x="63.623047" xlink:href="#DejaVuSans-2e"/>
      <use x="95.410156" xlink:href="#DejaVuSans-30"/>
      <use x="159.033203" xlink:href="#DejaVuSans-38"/>
      <use x="222.65625" xlink:href="#DejaVuSans-39"/>
      <use x="286.279297" xlink:href="#DejaVuSans-31"/>
      <use x="349.902344" xlink:href="#DejaVuSans-34"/>
      <use x="413.525391" xlink:href="#DejaVuSans-35"/>
      <use x="477.148438" xlink:href="#DejaVuSans-32"/>
     </g>
    </g>
   </g>
   <g id="text_28">
    <!-- [X0,X1] iso-PDF -->
    <defs>
     <path d="M 8.59375 75.984375 
L 29.296875 75.984375 
L 29.296875 69 
L 17.578125 69 
L 17.578125 -6.203125 
L 29.296875 -6.203125 
L 29.296875 -13.1875 
L 8.59375 -13.1875 
z
" id="DejaVuSans-5b"/>
     <path d="M 11.71875 12.40625 
L 22.015625 12.40625 
L 22.015625 4 
L 14.015625 -11.625 
L 7.71875 -11.625 
L 11.71875 4 
z
" id="DejaVuSans-2c"/>
     <path d="M 30.421875 75.984375 
L 30.421875 -13.1875 
L 9.71875 -13.1875 
L 9.71875 -6.203125 
L 21.390625 -6.203125 
L 21.390625 69 
L 9.71875 69 
L 9.71875 75.984375 
z
" id="DejaVuSans-5d"/>
     <path id="DejaVuSans-20"/>
     <path d="M 9.421875 54.6875 
L 18.40625 54.6875 
L 18.40625 0 
L 9.421875 0 
z
M 9.421875 75.984375 
L 18.40625 75.984375 
L 18.40625 64.59375 
L 9.421875 64.59375 
z
" id="DejaVuSans-69"/>
     <path d="M 44.28125 53.078125 
L 44.28125 44.578125 
Q 40.484375 46.53125 36.375 47.5 
Q 32.28125 48.484375 27.875 48.484375 
Q 21.1875 48.484375 17.84375 46.4375 
Q 14.5 44.390625 14.5 40.28125 
Q 14.5 37.15625 16.890625 35.375 
Q 19.28125 33.59375 26.515625 31.984375 
L 29.59375 31.296875 
Q 39.15625 29.25 43.1875 25.515625 
Q 47.21875 21.78125 47.21875 15.09375 
Q 47.21875 7.46875 41.1875 3.015625 
Q 35.15625 -1.421875 24.609375 -1.421875 
Q 20.21875 -1.421875 15.453125 -0.5625 
Q 10.6875 0.296875 5.421875 2 
L 5.421875 11.28125 
Q 10.40625 8.6875 15.234375 7.390625 
Q 20.0625 6.109375 24.8125 6.109375 
Q 31.15625 6.109375 34.5625 8.28125 
Q 37.984375 10.453125 37.984375 14.40625 
Q 37.984375 18.0625 35.515625 20.015625 
Q 33.0625 21.96875 24.703125 23.78125 
L 21.578125 24.515625 
Q 13.234375 26.265625 9.515625 29.90625 
Q 5.8125 33.546875 5.8125 39.890625 
Q 5.8125 47.609375 11.28125 51.796875 
Q 16.75 56 26.8125 56 
Q 31.78125 56 36.171875 55.265625 
Q 40.578125 54.546875 44.28125 53.078125 
z
" id="DejaVuSans-73"/>
     <path d="M 30.609375 48.390625 
Q 23.390625 48.390625 19.1875 42.75 
Q 14.984375 37.109375 14.984375 27.296875 
Q 14.984375 17.484375 19.15625 11.84375 
Q 23.34375 6.203125 30.609375 6.203125 
Q 37.796875 6.203125 41.984375 11.859375 
Q 46.1875 17.53125 46.1875 27.296875 
Q 46.1875 37.015625 41.984375 42.703125 
Q 37.796875 48.390625 30.609375 48.390625 
z
M 30.609375 56 
Q 42.328125 56 49.015625 48.375 
Q 55.71875 40.765625 55.71875 27.296875 
Q 55.71875 13.875 49.015625 6.21875 
Q 42.328125 -1.421875 30.609375 -1.421875 
Q 18.84375 -1.421875 12.171875 6.21875 
Q 5.515625 13.875 5.515625 27.296875 
Q 5.515625 40.765625 12.171875 48.375 
Q 18.84375 56 30.609375 56 
z
" id="DejaVuSans-6f"/>
     <path d="M 19.671875 64.796875 
L 19.671875 37.40625 
L 32.078125 37.40625 
Q 38.96875 37.40625 42.71875 40.96875 
Q 46.484375 44.53125 46.484375 51.125 
Q 46.484375 57.671875 42.71875 61.234375 
Q 38.96875 64.796875 32.078125 64.796875 
z
M 9.8125 72.90625 
L 32.078125 72.90625 
Q 44.34375 72.90625 50.609375 67.359375 
Q 56.890625 61.8125 56.890625 51.125 
Q 56.890625 40.328125 50.609375 34.8125 
Q 44.34375 29.296875 32.078125 29.296875 
L 19.671875 29.296875 
L 19.671875 0 
L 9.8125 0 
z
" id="DejaVuSans-50"/>
     <path d="M 19.671875 64.796875 
L 19.671875 8.109375 
L 31.59375 8.109375 
Q 46.6875 8.109375 53.6875 14.9375 
Q 60.6875 21.78125 60.6875 36.53125 
Q 60.6875 51.171875 53.6875 57.984375 
Q 46.6875 64.796875 31.59375 64.796875 
z
M 9.8125 72.90625 
L 30.078125 72.90625 
Q 51.265625 72.90625 61.171875 64.09375 
Q 71.09375 55.28125 71.09375 36.53125 
Q 71.09375 17.671875 61.125 8.828125 
Q 51.171875 0 30.078125 0 
L 9.8125 0 
z
" id="DejaVuSans-44"/>
     <path d="M 9.8125 72.90625 
L 51.703125 72.90625 
L 51.703125 64.59375 
L 19.671875 64.59375 
L 19.671875 43.109375 
L 48.578125 43.109375 
L 48.578125 34.8125 
L 19.671875 34.8125 
L 19.671875 0 
L 9.8125 0 
z
" id="DejaVuSans-46"/>
    </defs>
    <g transform="translate(174.73125 28.56)scale(0.12 -0.12)">
     <use xlink:href="#DejaVuSans-5b"/>
     <use x="39.013672" xlink:href="#DejaVuSans-58"/>
     <use x="107.519531" xlink:href="#DejaVuSans-30"/>
     <use x="171.142578" xlink:href="#DejaVuSans-2c"/>
     <use x="202.929688" xlink:href="#DejaVuSans-58"/>
     <use x="271.435547" xlink:href="#DejaVuSans-31"/>
     <use x="335.058594" xlink:href="#DejaVuSans-5d"/>
     <use x="374.072266" xlink:href="#DejaVuSans-20"/>
     <use x="405.859375" xlink:href="#DejaVuSans-69"/>
     <use x="433.642578" xlink:href="#DejaVuSans-73"/>
     <use x="485.742188" xlink:href="#DejaVuSans-6f"/>
     <use x="546.939453" xlink:href="#DejaVuSans-2d"/>
     <use x="583.023438" xlink:href="#DejaVuSans-50"/>
     <use x="643.326172" xlink:href="#DejaVuSans-44"/>
     <use x="720.328125" xlink:href="#DejaVuSans-46"/>
    </g>
   </g>
   <g id="legend_1">
    <g id="patch_7">
     <path d="M 274.01875 59.238125 
L 383.8 59.238125 
Q 385.8 59.238125 385.8 57.238125 
L 385.8 43.56 
Q 385.8 41.56 383.8 41.56 
L 274.01875 41.56 
Q 272.01875 41.56 272.01875 43.56 
L 272.01875 57.238125 
Q 272.01875 59.238125 274.01875 59.238125 
z
" style="fill:#4c4c4c;opacity:0.5;stroke:#4c4c4c;stroke-linejoin:miter;"/>
    </g>
    <g id="patch_8">
     <path d="M 272.01875 57.238125 
L 381.8 57.238125 
Q 383.8 57.238125 383.8 55.238125 
L 383.8 41.56 
Q 383.8 39.56 381.8 39.56 
L 272.01875 39.56 
Q 270.01875 39.56 270.01875 41.56 
L 270.01875 55.238125 
Q 270.01875 57.238125 272.01875 57.238125 
z
" style="fill:#ffffff;stroke:#cccccc;stroke-linejoin:miter;"/>
    </g>
    <g id="line2d_27">
     <path d="M 274.01875 47.658437 
L 294.01875 47.658437 
" style="fill:none;stroke:#0000ff;stroke-width:1.5;"/>
    </g>
    <g id="text_29">
     <!-- [X0,X1] iso-PDF -->
     <g transform="translate(302.01875 51.158437)scale(0.1 -0.1)">
      <use xlink:href="#DejaVuSans-5b"/>
      <use x="39.013672" xlink:href="#DejaVuSans-58"/>
      <use x="107.519531" xlink:href="#DejaVuSans-30"/>
      <use x="171.142578" xlink:href="#DejaVuSans-2c"/>
      <use x="202.929688" xlink:href="#DejaVuSans-58"/>
      <use x="271.435547" xlink:href="#DejaVuSans-31"/>
      <use x="335.058594" xlink:href="#DejaVuSans-5d"/>
      <use x="374.072266" xlink:href="#DejaVuSans-20"/>
      <use x="405.859375" xlink:href="#DejaVuSans-69"/>
      <use x="433.642578" xlink:href="#DejaVuSans-73"/>
      <use x="485.742188" xlink:href="#DejaVuSans-6f"/>
      <use x="546.939453" xlink:href="#DejaVuSans-2d"/>
      <use x="583.023438" xlink:href="#DejaVuSans-50"/>
      <use x="643.326172" xlink:href="#DejaVuSans-44"/>
      <use x="720.328125" xlink:href="#DejaVuSans-46"/>
     </g>
    </g>
   </g>
  </g>
 </g>
 <defs>
  <clipPath id="p4c02b2d1ef">
   <rect height="217.44" width="334.8" x="54" y="34.56"/>
  </clipPath>
 </defs>
</svg>
