<?xml version="1.0" encoding="utf-8" standalone="no"?>
<!DOCTYPE svg PUBLIC "-//W3C//DTD SVG 1.1//EN"
  "http://www.w3.org/Graphics/SVG/1.1/DTD/svg11.dtd">
<!-- Created with matplotlib (http://matplotlib.org/) -->
<svg height="288pt" version="1.1" viewBox="0 0 432 288" width="432pt" xmlns="http://www.w3.org/2000/svg" xmlns:xlink="http://www.w3.org/1999/xlink">
 <defs>
  <style type="text/css">
*{stroke-linecap:butt;stroke-linejoin:round;stroke-miterlimit:100000;}
  </style>
 </defs>
 <g id="figure_1">
  <g id="patch_1">
   <path d="M 0 288 
L 432 288 
L 432 0 
L 0 0 
z
" style="fill:#ffffff;"/>
  </g>
  <g id="axes_1">
   <g id="patch_2">
    <path d="M 54 252 
L 388.8 252 
L 388.8 28.8 
L 54 28.8 
z
" style="fill:#ffffff;"/>
   </g>
   <g id="LineCollection_1">
    <path clip-path="url(#p9b83db8db2)" d="M 334.350873 252 
L 336.4875 251.057796 
L 338.150297 250.25625 
L 339.103125 249.818006 
L 341.71875 248.5125 
L 341.71875 248.5125 
L 344.334375 247.22824 
L 345.206412 246.76875 
L 346.95 245.876672 
L 348.512406 245.025 
L 349.565625 244.463583 
L 351.662585 243.28125 
L 352.18125 242.993245 
L 354.677678 241.5375 
L 354.796875 241.46856 
L 357.4125 239.909908 
L 357.601767 239.79375 
L 360.028125 238.301192 
L 360.424081 238.05 
L 362.64375 236.628535 
L 363.135238 236.30625 
L 365.259375 234.890159 
L 365.742802 234.5625 
L 367.875 233.08272 
L 368.251788 232.81875 
L 370.490625 231.201178 
L 370.664863 231.075 
L 373.002839 229.33125 
L 373.10625 229.251785 
L 375.289868 227.5875 
L 375.721875 227.241723 
L 377.495375 225.84375 
L 378.3375 225.141604 
L 379.615008 224.1 
L 380.953125 222.937608 
L 381.64236 222.35625 
L 383.56875 220.6125 
L 385.527009 218.86875 
L 386.184375 218.233531 
L 387.386693 217.125 
L 388.8 215.700582 
" style="fill:none;stroke:#0000ff;"/>
    <path clip-path="url(#p9b83db8db2)" d="M 54 215.700582 
L 55.413307 217.125 
L 56.615625 218.233531 
L 57.272991 218.86875 
L 59.23125 220.6125 
L 61.15764 222.35625 
L 61.846875 222.937608 
L 63.184992 224.1 
L 64.4625 225.141604 
L 65.304625 225.84375 
L 67.078125 227.241723 
L 67.510132 227.5875 
L 69.69375 229.251785 
L 69.797161 229.33125 
L 72.135137 231.075 
L 72.309375 231.201178 
L 74.548212 232.81875 
L 74.925 233.08272 
L 77.057198 234.5625 
L 77.540625 234.890159 
L 79.664762 236.30625 
L 80.15625 236.628535 
L 82.375919 238.05 
L 82.771875 238.301192 
L 85.198233 239.79375 
L 85.3875 239.909908 
L 88.003125 241.46856 
L 88.122322 241.5375 
L 90.61875 242.993245 
L 91.137415 243.28125 
L 93.234375 244.463583 
L 94.287594 245.025 
L 95.85 245.876672 
L 97.593588 246.76875 
L 98.465625 247.22824 
L 101.08125 248.5125 
L 101.08125 248.5125 
L 103.696875 249.818006 
L 104.649703 250.25625 
L 106.3125 251.057796 
L 108.449127 252 
" style="fill:none;stroke:#0000ff;"/>
    <path clip-path="url(#p9b83db8db2)" d="M 388.8 65.099418 
L 387.386693 63.675 
L 386.184375 62.566469 
L 385.527009 61.93125 
L 383.56875 60.1875 
L 383.56875 60.1875 
L 381.64236 58.44375 
L 380.953125 57.862392 
L 379.615008 56.7 
L 378.3375 55.658396 
L 377.495375 54.95625 
L 375.721875 53.558277 
L 375.289868 53.2125 
L 373.10625 51.548215 
L 373.002839 51.46875 
L 370.664863 49.725 
L 370.490625 49.598822 
L 368.251788 47.98125 
L 367.875 47.71728 
L 365.742802 46.2375 
L 365.259375 45.909841 
L 363.135238 44.49375 
L 362.64375 44.171465 
L 360.424081 42.75 
L 360.028125 42.498808 
L 357.601767 41.00625 
L 357.4125 40.890092 
L 354.796875 39.33144 
L 354.677678 39.2625 
L 352.18125 37.806755 
L 351.662585 37.51875 
L 349.565625 36.336417 
L 348.512406 35.775 
L 346.95 34.923328 
L 345.206412 34.03125 
L 344.334375 33.57176 
L 341.71875 32.2875 
L 341.71875 32.2875 
L 339.103125 30.981994 
L 338.150297 30.54375 
L 336.4875 29.742204 
L 334.350873 28.8 
" style="fill:none;stroke:#0000ff;"/>
    <path clip-path="url(#p9b83db8db2)" d="M 108.449127 28.8 
L 106.3125 29.742204 
L 104.649703 30.54375 
L 103.696875 30.981994 
L 101.08125 32.2875 
L 101.08125 32.2875 
L 98.465625 33.57176 
L 97.593588 34.03125 
L 95.85 34.923328 
L 94.287594 35.775 
L 93.234375 36.336417 
L 91.137415 37.51875 
L 90.61875 37.806755 
L 88.122322 39.2625 
L 88.003125 39.33144 
L 85.3875 40.890092 
L 85.198233 41.00625 
L 82.771875 42.498808 
L 82.375919 42.75 
L 80.15625 44.171465 
L 79.664762 44.49375 
L 77.540625 45.909841 
L 77.057198 46.2375 
L 74.925 47.71728 
L 74.548212 47.98125 
L 72.309375 49.598822 
L 72.135137 49.725 
L 69.797161 51.46875 
L 69.69375 51.548215 
L 67.510132 53.2125 
L 67.078125 53.558277 
L 65.304625 54.95625 
L 64.4625 55.658396 
L 63.184992 56.7 
L 61.846875 57.862392 
L 61.15764 58.44375 
L 59.23125 60.1875 
L 59.23125 60.1875 
L 57.272991 61.93125 
L 56.615625 62.566469 
L 55.413307 63.675 
L 54 65.099418 
" style="fill:none;stroke:#0000ff;"/>
   </g>
   <g id="LineCollection_2">
    <path clip-path="url(#p9b83db8db2)" d="M 281.61723 252 
L 284.175 251.411406 
L 286.790625 250.731693 
L 288.458196 250.25625 
L 289.40625 250.014473 
L 292.021875 249.297284 
L 294.546608 248.5125 
L 294.6375 248.486963 
L 296.884219 247.829415 
" style="fill:none;stroke:#0000ff;"/>
    <path clip-path="url(#p9b83db8db2)" d="M 352.977699 220.226606 
L 354.796875 218.86875 
L 357.083285 217.125 
L 357.4125 216.861507 
L 359.279826 215.38125 
L 360.028125 214.754155 
L 361.383138 213.6375 
L 362.64375 212.531155 
L 363.387611 211.89375 
L 365.259375 210.173024 
L 365.28521 210.15 
L 367.193448 208.40625 
L 367.875 207.731535 
L 369.0007 206.6625 
L 370.490625 205.115515 
L 370.689585 204.91875 
L 372.385416 203.175 
L 373.10625 202.366187 
L 373.990285 201.43125 
L 375.497509 199.6875 
L 375.721875 199.41466 
L 377.018723 197.94375 
L 378.3375 196.256576 
L 378.38525 196.2 
L 379.809218 194.45625 
L 380.953125 192.862329 
L 381.070451 192.7125 
L 382.382171 190.96875 
L 383.530445 189.225 
L 383.56875 189.164405 
L 384.745926 187.48125 
L 385.82171 185.7375 
L 386.184375 185.105464 
L 386.89754 183.99375 
L 387.91711 182.25 
L 388.8 180.54482 
" style="fill:none;stroke:#0000ff;"/>
    <path clip-path="url(#p9b83db8db2)" d="M 54 180.54482 
L 54.88289 182.25 
L 55.90246 183.99375 
L 56.615625 185.105464 
L 56.97829 185.7375 
L 57.316251 186.285304 
" style="fill:none;stroke:#0000ff;"/>
    <path clip-path="url(#p9b83db8db2)" d="M 102.764922 228.776327 
L 103.696875 229.33125 
L 103.696875 229.33125 
L 106.3125 230.855523 
L 106.70774 231.075 
L 108.928125 232.319884 
L 109.868767 232.81875 
L 111.54375 233.722092 
L 113.203268 234.5625 
L 114.159375 235.058408 
L 116.740464 236.30625 
L 116.775 236.323473 
L 119.390625 237.595632 
L 120.402698 238.05 
L 122.00625 238.800467 
L 124.326728 239.79375 
L 124.621875 239.92639 
L 127.2375 241.056944 
L 128.450719 241.5375 
L 129.853125 242.126857 
L 132.46875 243.131673 
L 132.878011 243.28125 
L 135.084375 244.145815 
L 137.615137 245.025 
L 137.7 245.056833 
L 140.315625 246.006145 
L 142.706506 246.76875 
L 142.93125 246.846968 
L 145.546875 247.721448 
L 148.1625 248.486963 
L 148.253392 248.5125 
L 150.778125 249.297284 
L 153.39375 250.014473 
L 154.341804 250.25625 
L 156.009375 250.731693 
L 158.625 251.411406 
L 161.18277 252 
" style="fill:none;stroke:#0000ff;"/>
    <path clip-path="url(#p9b83db8db2)" d="M 388.8 100.25518 
L 387.91711 98.55 
L 386.89754 96.80625 
L 386.184375 95.694536 
L 385.82171 95.0625 
L 385.483749 94.514696 
" style="fill:none;stroke:#0000ff;"/>
    <path clip-path="url(#p9b83db8db2)" d="M 340.035078 52.023673 
L 339.103125 51.46875 
L 339.103125 51.46875 
L 336.4875 49.944477 
L 336.09226 49.725 
L 333.871875 48.480116 
L 332.931233 47.98125 
L 331.25625 47.077908 
L 329.596732 46.2375 
L 328.640625 45.741592 
L 326.059536 44.49375 
L 326.025 44.476527 
L 323.409375 43.204368 
L 322.397302 42.75 
L 320.79375 41.999533 
L 318.473272 41.00625 
L 318.178125 40.87361 
L 315.5625 39.743056 
L 314.349281 39.2625 
L 312.946875 38.673143 
L 310.33125 37.668327 
L 309.921989 37.51875 
L 307.715625 36.654185 
L 305.184863 35.775 
L 305.1 35.743167 
L 302.484375 34.793855 
L 300.093494 34.03125 
L 299.86875 33.953032 
L 297.253125 33.078552 
L 294.6375 32.313037 
L 294.546608 32.2875 
L 292.021875 31.502716 
L 289.40625 30.785527 
L 288.458196 30.54375 
L 286.790625 30.068307 
L 284.175 29.388594 
L 281.61723 28.8 
" style="fill:none;stroke:#0000ff;"/>
    <path clip-path="url(#p9b83db8db2)" d="M 161.18277 28.8 
L 158.625 29.388594 
L 156.009375 30.068307 
L 154.341804 30.54375 
L 153.39375 30.785527 
L 150.778125 31.502716 
L 148.253392 32.2875 
L 148.1625 32.313037 
L 145.915781 32.970585 
" style="fill:none;stroke:#0000ff;"/>
    <path clip-path="url(#p9b83db8db2)" d="M 89.822301 60.573394 
L 88.003125 61.93125 
L 88.003125 61.93125 
L 85.716715 63.675 
L 85.3875 63.938493 
L 83.520174 65.41875 
L 82.771875 66.045845 
L 81.416862 67.1625 
L 80.15625 68.268845 
L 79.412389 68.90625 
L 77.540625 70.626976 
L 77.51479 70.65 
L 75.606552 72.39375 
L 74.925 73.068465 
L 73.7993 74.1375 
L 72.309375 75.684485 
L 72.110415 75.88125 
L 70.414584 77.625 
L 69.69375 78.433813 
L 68.809715 79.36875 
L 67.302491 81.1125 
L 67.078125 81.38534 
L 65.781277 82.85625 
L 64.4625 84.543424 
L 64.41475 84.6 
L 62.990782 86.34375 
L 61.846875 87.937671 
L 61.729549 88.0875 
L 60.417829 89.83125 
L 59.269555 91.575 
L 59.23125 91.635595 
L 58.054074 93.31875 
L 56.97829 95.0625 
L 56.615625 95.694536 
L 55.90246 96.80625 
L 54.88289 98.55 
L 54 100.25518 
" style="fill:none;stroke:#0000ff;"/>
   </g>
   <g id="LineCollection_3">
    <path clip-path="url(#p9b83db8db2)" d="M 231.849243 250.104909 
L 237.09375 249.844492 
L 244.940625 249.226231 
L 252.7875 248.318841 
L 258.01875 247.607949 
L 265.865625 246.273061 
L 271.920224 245.025 
L 276.328125 244.071923 
L 286.790625 241.314813 
L 292.021875 239.723466 
L 297.253125 237.992708 
L 302.484375 236.114841 
L 307.715625 234.073815 
L 315.5625 230.646995 
L 323.409375 226.77863 
L 328.640625 223.894955 
L 334.128859 220.6125 
L 339.47163 217.125 
L 344.334375 213.6375 
L 349.565625 209.558561 
L 352.978754 206.6625 
L 358.56562 201.43125 
L 363.487366 196.2 
L 366.451217 192.7125 
L 370.490625 187.323373 
L 371.644803 185.7375 
L 374.950215 180.50625 
L 378.621578 173.53125 
L 380.209591 170.04375 
L 382.777352 163.06875 
L 384.22598 157.8375 
L 384.998054 154.35 
L 385.566737 150.8625 
L 385.956688 147.375 
L 386.252894 142.14375 
L 386.252894 138.65625 
L 385.956688 133.425 
L 385.566737 129.9375 
L 384.998054 126.45 
L 384.22598 122.9625 
L 382.777352 117.73125 
L 381.575007 114.24375 
L 378.621578 107.26875 
L 374.950215 100.29375 
L 372.772219 96.80625 
L 370.385199 93.31875 
L 369.164419 91.575 
L 364.972261 86.34375 
L 361.910722 82.85625 
L 356.770492 77.625 
L 350.967946 72.39375 
L 346.642433 68.90625 
L 341.71875 65.247427 
L 336.4875 61.68558 
L 331.25625 58.44375 
L 325.137842 54.95625 
L 320.79375 52.680831 
L 312.946875 48.956254 
L 305.1 45.675089 
L 297.077723 42.75 
L 292.021875 41.076534 
L 281.559375 38.03319 
L 271.096875 35.585615 
L 265.865625 34.526939 
L 255.403125 32.815098 
L 244.940625 31.573769 
L 237.09375 30.955508 
L 229.246875 30.60662 
L 221.4 30.482896 
L 213.553125 30.60662 
L 205.70625 30.955508 
L 197.859375 31.573769 
L 190.0125 32.481159 
L 184.78125 33.192051 
L 176.934375 34.526939 
L 170.879776 35.775 
L 166.471875 36.728077 
L 156.009375 39.485187 
L 150.778125 41.076534 
L 145.546875 42.807292 
L 140.315625 44.685159 
L 135.084375 46.726185 
L 127.2375 50.153005 
L 119.390625 54.02137 
L 114.159375 56.905045 
L 108.671141 60.1875 
L 103.32837 63.675 
L 98.465625 67.1625 
L 93.234375 71.241439 
L 89.821246 74.1375 
L 84.23438 79.36875 
L 79.312634 84.6 
L 76.348783 88.0875 
L 72.309375 93.476627 
L 71.155197 95.0625 
L 67.849785 100.29375 
L 64.178422 107.26875 
L 62.590409 110.75625 
L 60.022648 117.73125 
L 58.57402 122.9625 
L 57.801946 126.45 
L 57.233263 129.9375 
L 56.843312 133.425 
L 56.547106 138.65625 
L 56.547106 142.14375 
L 56.843312 147.375 
L 57.233263 150.8625 
L 57.801946 154.35 
L 58.57402 157.8375 
L 60.022648 163.06875 
L 61.224993 166.55625 
L 64.178422 173.53125 
L 67.849785 180.50625 
L 70.027781 183.99375 
L 72.414801 187.48125 
L 73.635581 189.225 
L 77.827739 194.45625 
L 80.889278 197.94375 
L 86.029508 203.175 
L 91.832054 208.40625 
L 96.157567 211.89375 
L 101.08125 215.552573 
L 106.3125 219.11442 
L 111.54375 222.35625 
L 117.662158 225.84375 
L 122.00625 228.119169 
L 129.853125 231.843746 
L 137.7 235.124911 
L 145.722277 238.05 
L 150.778125 239.723466 
L 161.240625 242.76681 
L 169.456884 244.734988 
L 169.456884 244.734988 
" style="fill:none;stroke:#0000ff;"/>
   </g>
   <g id="LineCollection_4">
    <path clip-path="url(#p9b83db8db2)" d="M 208.335865 38.383885 
L 203.090625 38.750637 
L 195.24375 39.52762 
L 190.0125 40.175465 
L 182.165625 41.422336 
L 176.934375 42.41649 
L 166.471875 44.805069 
L 161.240625 46.2375 
L 156.009375 47.787015 
L 148.1625 50.416061 
L 140.315625 53.474826 
L 135.084375 55.729554 
L 127.2375 59.536979 
L 122.00625 62.375815 
L 116.775 65.495285 
L 111.54375 68.90625 
L 106.3125 72.650722 
L 102.181332 75.88125 
L 98.140704 79.36875 
L 94.394331 82.85625 
L 89.397781 88.0875 
L 85.064414 93.31875 
L 82.480523 96.80625 
L 81.24685 98.55 
L 77.540625 104.659209 
L 76.089076 107.26875 
L 73.635581 112.5 
L 71.648586 117.73125 
L 70.54617 121.21875 
L 69.280664 126.45 
L 68.625772 129.9375 
L 68.176708 133.425 
L 67.914505 136.9125 
L 67.828285 140.4 
L 67.914505 143.8875 
L 68.176708 147.375 
L 68.625772 150.8625 
L 69.280664 154.35 
L 70.54617 159.58125 
L 71.648586 163.06875 
L 73.635581 168.3 
L 76.089076 173.53125 
L 79.017407 178.7625 
L 82.771875 184.38274 
L 83.713694 185.7375 
L 86.424092 189.225 
L 91.012239 194.45625 
L 94.394331 197.94375 
L 100.105468 203.175 
L 104.363722 206.6625 
L 109.042927 210.15 
L 114.159375 213.6375 
L 119.776083 217.125 
L 124.621875 219.879112 
L 129.853125 222.572864 
L 135.084375 225.070446 
L 142.93125 228.401479 
L 150.778125 231.290391 
L 156.009375 233.012985 
L 161.240625 234.5625 
L 166.471875 235.994931 
L 176.934375 238.38351 
L 182.165625 239.377664 
L 192.628125 240.96922 
L 200.475 241.812891 
L 208.321875 242.415401 
L 216.16875 242.723664 
L 224.015625 242.76681 
L 231.8625 242.548862 
L 239.709375 242.049363 
L 247.55625 241.27238 
L 252.7875 240.624535 
L 260.634375 239.377664 
L 265.865625 238.38351 
L 276.328125 235.994931 
L 281.559375 234.5625 
L 286.790625 233.012985 
L 294.6375 230.383939 
L 302.484375 227.325174 
L 307.715625 225.070446 
L 315.5625 221.263021 
L 320.79375 218.424185 
L 326.025 215.304715 
L 331.25625 211.89375 
L 336.4875 208.149278 
L 340.618668 204.91875 
L 344.659296 201.43125 
L 348.405669 197.94375 
L 353.402219 192.7125 
L 357.735586 187.48125 
L 360.319477 183.99375 
L 361.55315 182.25 
L 365.259375 176.140791 
L 366.710924 173.53125 
L 369.164419 168.3 
L 371.151414 163.06875 
L 372.25383 159.58125 
L 373.519336 154.35 
L 374.174228 150.8625 
L 374.623292 147.375 
L 374.885495 143.8875 
L 374.971715 140.4 
L 374.885495 136.9125 
L 374.623292 133.425 
L 374.174228 129.9375 
L 373.519336 126.45 
L 372.25383 121.21875 
L 371.151414 117.73125 
L 369.164419 112.5 
L 366.710924 107.26875 
L 363.782593 102.0375 
L 360.028125 96.41726 
L 359.086306 95.0625 
L 356.375908 91.575 
L 351.787761 86.34375 
L 348.405669 82.85625 
L 342.694532 77.625 
L 338.436278 74.1375 
L 333.757073 70.65 
L 328.640625 67.1625 
L 323.023917 63.675 
L 318.178125 60.920888 
L 312.946875 58.227136 
L 307.715625 55.729554 
L 299.86875 52.398521 
L 292.021875 49.509609 
L 286.790625 47.787015 
L 281.559375 46.2375 
L 276.328125 44.805069 
L 270.729858 43.447587 
L 270.729858 43.447587 
" style="fill:none;stroke:#0000ff;"/>
   </g>
   <g id="LineCollection_5">
    <path clip-path="url(#p9b83db8db2)" d="M 283.799239 224.918082 
L 286.790625 223.894955 
L 292.021875 221.986233 
L 297.253125 219.879112 
L 305.1 216.295345 
L 310.33125 213.578664 
L 316.348469 210.15 
L 320.79375 207.346158 
L 324.343088 204.91875 
L 329.008844 201.43125 
L 333.871875 197.401305 
L 337.110209 194.45625 
L 340.618668 190.96875 
L 345.262983 185.7375 
L 347.998882 182.25 
L 351.586968 177.01875 
L 354.796875 171.398023 
L 356.375908 168.3 
L 358.56562 163.06875 
L 359.729028 159.58125 
L 361.161558 154.35 
L 361.839935 150.8625 
L 362.305104 147.375 
L 362.57671 143.8875 
L 362.670015 140.4 
L 362.57671 136.9125 
L 362.305104 133.425 
L 361.839935 129.9375 
L 361.161558 126.45 
L 360.028125 122.290866 
L 359.183395 119.475 
L 357.868273 115.9875 
L 355.527394 110.75625 
L 352.653512 105.525 
L 349.239588 100.29375 
L 346.642433 96.80625 
L 343.779349 93.31875 
L 340.618668 89.83125 
L 335.243017 84.6 
L 331.167995 81.1125 
L 326.025 77.10102 
L 321.819237 74.1375 
L 318.178125 71.771275 
L 312.946875 68.660771 
L 306.901958 65.41875 
L 302.484375 63.259861 
L 295.444281 60.1875 
L 292.021875 58.813767 
L 284.175 56.000745 
L 276.328125 53.608688 
L 267.897034 51.46875 
L 263.25 50.416061 
L 255.403125 48.956254 
L 248.563701 47.98125 
L 244.940625 47.510895 
L 239.709375 46.980676 
L 231.8625 46.463264 
L 224.015625 46.2375 
L 216.16875 46.282194 
L 208.321875 46.601511 
L 200.475 47.225628 
L 192.628125 48.180648 
L 187.396875 48.956254 
L 179.55 50.416061 
L 171.703125 52.208837 
L 163.85625 54.360224 
L 156.009375 56.905045 
L 150.778125 58.813767 
L 145.546875 60.920888 
L 137.7 64.504655 
L 132.46875 67.221336 
L 126.451531 70.65 
L 122.00625 73.453842 
L 118.456912 75.88125 
L 113.791156 79.36875 
L 108.928125 83.398695 
L 105.689791 86.34375 
L 102.181332 89.83125 
L 97.537017 95.0625 
L 94.801118 98.55 
L 91.213032 103.78125 
L 88.003125 109.401977 
L 86.424092 112.5 
L 84.23438 117.73125 
L 83.070972 121.21875 
L 81.638442 126.45 
L 80.960065 129.9375 
L 80.494896 133.425 
L 80.22329 136.9125 
L 80.129985 140.4 
L 80.22329 143.8875 
L 80.494896 147.375 
L 80.960065 150.8625 
L 81.638442 154.35 
L 82.771875 158.509134 
L 83.616605 161.325 
L 84.931727 164.8125 
L 87.272606 170.04375 
L 90.146488 175.275 
L 93.560412 180.50625 
L 96.157567 183.99375 
L 99.020651 187.48125 
L 102.181332 190.96875 
L 107.556983 196.2 
L 111.632005 199.6875 
L 116.775 203.69898 
L 120.980763 206.6625 
L 124.621875 209.028725 
L 129.853125 212.139229 
L 135.898042 215.38125 
L 140.315625 217.540139 
L 147.355719 220.6125 
L 150.778125 221.986233 
L 158.625 224.799255 
L 166.471875 227.191312 
L 174.902966 229.33125 
L 179.55 230.383939 
L 187.396875 231.843746 
L 194.236299 232.81875 
L 197.859375 233.289105 
L 203.090625 233.819324 
L 210.9375 234.336736 
L 218.784375 234.5625 
L 226.63125 234.517806 
L 231.604599 234.347195 
L 231.604599 234.347195 
" style="fill:none;stroke:#0000ff;"/>
   </g>
   <g id="LineCollection_6">
    <path clip-path="url(#p9b83db8db2)" d="M 154.486286 67.852021 
L 150.778125 69.419069 
L 144.495926 72.39375 
L 140.315625 74.58099 
L 135.084375 77.625 
L 129.697228 81.1125 
L 124.621875 84.811219 
L 120.570987 88.0875 
L 116.740464 91.575 
L 113.235459 95.0625 
L 110.112029 98.55 
L 106.3125 103.44711 
L 104.823639 105.525 
L 101.621944 110.75625 
L 98.99377 115.9875 
L 96.900093 121.21875 
L 95.85 124.70625 
L 94.939034 128.19375 
L 94.287594 131.68125 
L 93.867829 135.16875 
L 93.662188 138.65625 
L 93.662188 142.14375 
L 93.867829 145.63125 
L 94.287594 149.11875 
L 94.939034 152.60625 
L 95.85 156.09375 
L 96.900093 159.58125 
L 98.258155 163.06875 
L 100.690306 168.3 
L 103.724121 173.53125 
L 104.823639 175.275 
L 107.318513 178.7625 
L 110.112029 182.25 
L 114.159375 186.678276 
L 116.775 189.25707 
L 120.570987 192.7125 
L 124.892945 196.2 
L 129.853125 199.794266 
L 135.084375 203.175 
L 135.084375 203.175 
L 140.315625 206.21901 
L 145.546875 208.938299 
L 151.982586 211.89375 
L 156.214826 213.6375 
L 161.240625 215.531285 
L 166.471875 217.292751 
L 171.771677 218.86875 
L 176.934375 220.252037 
L 184.78125 222.004154 
L 192.628125 223.399938 
L 200.475 224.426743 
L 205.70625 224.94475 
L 210.9375 225.299952 
L 218.784375 225.558541 
L 226.63125 225.507349 
L 234.478125 225.141604 
L 239.709375 224.707311 
L 247.55625 223.7734 
L 252.7875 222.975322 
L 260.634375 221.47188 
L 268.48125 219.590982 
L 276.829335 217.125 
L 281.962299 215.38125 
L 286.790625 213.558985 
L 292.021875 211.380931 
L 298.304074 208.40625 
L 302.484375 206.21901 
L 307.715625 203.175 
L 313.102772 199.6875 
L 318.178125 195.988781 
L 322.229013 192.7125 
L 326.059536 189.225 
L 329.564541 185.7375 
L 332.687971 182.25 
L 336.4875 177.35289 
L 337.976361 175.275 
L 341.178056 170.04375 
L 343.80623 164.8125 
L 345.899907 159.58125 
L 346.95 156.09375 
L 347.860966 152.60625 
L 348.512406 149.11875 
L 348.932171 145.63125 
L 349.137812 142.14375 
L 349.137812 138.65625 
L 348.932171 135.16875 
L 348.512406 131.68125 
L 347.860966 128.19375 
L 346.95 124.70625 
L 345.899907 121.21875 
L 344.541845 117.73125 
L 342.109694 112.5 
L 339.075879 107.26875 
L 337.976361 105.525 
L 335.481487 102.0375 
L 332.687971 98.55 
L 328.640625 94.121724 
L 326.025 91.54293 
L 322.229013 88.0875 
L 317.907055 84.6 
L 312.946875 81.005734 
L 307.715625 77.625 
L 302.484375 74.58099 
L 297.253125 71.861701 
L 290.817414 68.90625 
L 286.585174 67.1625 
L 281.559375 65.268715 
L 276.328125 63.507249 
L 271.028323 61.93125 
L 265.865625 60.547963 
L 258.01875 58.795846 
L 250.171875 57.400062 
L 242.325 56.373257 
L 237.09375 55.85525 
L 231.8625 55.500048 
L 224.015625 55.241459 
L 216.16875 55.292651 
L 210.883292 55.50333 
L 210.883292 55.50333 
" style="fill:none;stroke:#0000ff;"/>
   </g>
   <g id="LineCollection_7">
    <path clip-path="url(#p9b83db8db2)" d="M 110.037651 129.195688 
L 109.539636 131.68125 
L 109.07175 135.16875 
L 108.831346 138.65625 
L 108.831346 142.14375 
L 109.07175 145.63125 
L 109.539636 149.11875 
L 110.265757 152.60625 
L 111.281155 156.09375 
L 113.235459 161.325 
L 114.897202 164.8125 
L 116.868046 168.3 
L 117.923483 170.04375 
L 120.335782 173.53125 
L 123.081615 177.01875 
L 127.2375 181.561806 
L 129.853125 184.10056 
L 133.680893 187.48125 
L 138.176866 190.96875 
L 143.27073 194.45625 
L 148.1625 197.427577 
L 153.39375 200.240012 
L 159.657291 203.175 
L 163.85625 204.91875 
L 169.0875 206.878286 
L 174.31875 208.593674 
L 179.797145 210.15 
L 184.78125 211.401865 
L 192.628125 212.994176 
L 200.475 214.176764 
L 205.70625 214.754155 
L 210.9375 215.150077 
L 218.784375 215.445769 
L 224.015625 215.445769 
L 231.8625 215.150077 
L 237.09375 214.754155 
L 242.325 214.176764 
L 250.171875 212.994176 
L 255.699712 211.89375 
L 260.634375 210.780106 
L 268.48125 208.593674 
L 276.328125 205.94559 
L 283.142709 203.175 
L 286.95084 201.43125 
L 292.021875 198.879405 
L 297.253125 195.882089 
L 302.484375 192.48618 
L 306.941366 189.225 
L 311.160018 185.7375 
L 315.5625 181.561806 
L 318.178125 178.7625 
L 321.117429 175.275 
L 323.690511 171.7875 
L 325.931954 168.3 
L 327.902798 164.8125 
L 330.291264 159.58125 
L 331.518845 156.09375 
L 332.534243 152.60625 
L 333.260364 149.11875 
L 333.72825 145.63125 
L 333.968654 142.14375 
L 333.968654 138.65625 
L 333.72825 135.16875 
L 333.260364 131.68125 
L 332.534243 128.19375 
L 331.518845 124.70625 
L 329.564541 119.475 
L 327.902798 115.9875 
L 325.931954 112.5 
L 324.876517 110.75625 
L 322.464218 107.26875 
L 319.718385 103.78125 
L 315.5625 99.238194 
L 312.946875 96.69944 
L 309.119107 93.31875 
L 304.623134 89.83125 
L 299.52927 86.34375 
L 294.6375 83.372423 
L 289.40625 80.559988 
L 283.142709 77.625 
L 278.94375 75.88125 
L 273.7125 73.921714 
L 268.48125 72.206326 
L 263.002855 70.65 
L 258.01875 69.398135 
L 250.171875 67.805824 
L 242.325 66.623236 
L 237.09375 66.045845 
L 231.8625 65.649923 
L 224.015625 65.354231 
L 218.784375 65.354231 
L 210.9375 65.649923 
L 205.70625 66.045845 
L 200.475 66.623236 
L 192.628125 67.805824 
L 187.100288 68.90625 
L 182.165625 70.019894 
L 174.31875 72.206326 
L 166.471875 74.85441 
L 159.657291 77.625 
L 155.84916 79.36875 
L 150.778125 81.920595 
L 145.546875 84.917911 
L 141.259864 87.676529 
L 141.259864 87.676529 
" style="fill:none;stroke:#0000ff;"/>
   </g>
   <g id="LineCollection_8">
    <path clip-path="url(#p9b83db8db2)" d="M 274.709399 87.891912 
L 271.096875 86.34375 
L 265.865625 84.346918 
L 260.634375 82.637453 
L 255.095086 81.1125 
L 250.171875 79.952224 
L 244.940625 78.957229 
L 239.709375 78.167007 
L 234.478125 77.599622 
L 229.246875 77.19939 
L 224.015625 77.003318 
L 218.784375 77.003318 
L 213.553125 77.19939 
L 208.082065 77.625 
L 203.090625 78.167007 
L 197.859375 78.957229 
L 192.628125 79.952224 
L 187.396875 81.186406 
L 182.165625 82.637453 
L 176.246856 84.6 
L 171.703125 86.34375 
L 166.471875 88.630078 
L 160.723457 91.575 
L 156.009375 94.352738 
L 152.329107 96.80625 
L 148.1625 99.948971 
L 145.546875 102.155066 
L 141.956505 105.525 
L 138.74564 109.0125 
L 135.977059 112.5 
L 133.603188 115.9875 
L 131.60125 119.475 
L 129.960584 122.9625 
L 128.598114 126.45 
L 127.587082 129.9375 
L 126.85973 133.425 
L 126.414799 136.9125 
L 126.268493 140.4 
L 126.414799 143.8875 
L 126.85973 147.375 
L 127.587082 150.8625 
L 128.598114 154.35 
L 129.960584 157.8375 
L 131.60125 161.325 
L 133.603188 164.8125 
L 135.977059 168.3 
L 138.74564 171.7875 
L 141.956505 175.275 
L 145.678314 178.7625 
L 149.943404 182.25 
L 153.39375 184.730112 
L 157.692762 187.48125 
L 161.240625 189.511681 
L 166.471875 192.169922 
L 171.703125 194.45625 
L 176.934375 196.453082 
L 182.165625 198.162547 
L 187.704914 199.6875 
L 192.628125 200.847776 
L 197.859375 201.842771 
L 203.090625 202.632993 
L 208.321875 203.200378 
L 213.553125 203.60061 
L 218.784375 203.796682 
L 224.015625 203.796682 
L 229.246875 203.60061 
L 234.717935 203.175 
L 239.709375 202.632993 
L 244.940625 201.842771 
L 250.171875 200.847776 
L 255.403125 199.613594 
L 260.634375 198.162547 
L 266.553144 196.2 
L 271.096875 194.45625 
L 276.328125 192.169922 
L 282.076543 189.225 
L 286.790625 186.447262 
L 290.470893 183.99375 
L 294.6375 180.851029 
L 297.253125 178.644934 
L 300.843495 175.275 
L 304.05436 171.7875 
L 306.822941 168.3 
L 309.196812 164.8125 
L 311.19875 161.325 
L 312.839416 157.8375 
L 314.201886 154.35 
L 315.212918 150.8625 
L 315.94027 147.375 
L 316.385201 143.8875 
L 316.531507 140.4 
L 316.385201 136.9125 
L 315.94027 133.425 
L 315.212918 129.9375 
L 314.201886 126.45 
L 312.916139 123.156414 
L 312.916139 123.156414 
" style="fill:none;stroke:#0000ff;"/>
   </g>
   <g id="LineCollection_9">
    <path clip-path="url(#p9b83db8db2)" d="M 215.858771 91.402299 
L 210.9375 91.757404 
L 205.70625 92.379027 
L 200.319039 93.31875 
L 195.24375 94.452589 
L 190.0125 95.932584 
L 184.78125 97.749107 
L 179.55 99.948971 
L 175.346369 102.0375 
L 171.703125 104.112022 
L 169.0875 105.785805 
L 166.471875 107.636542 
L 163.85625 109.69758 
L 160.723457 112.5 
L 157.423661 115.9875 
L 154.698876 119.475 
L 152.478883 122.9625 
L 150.728353 126.45 
L 149.36854 129.9375 
L 148.436106 133.425 
L 147.875089 136.9125 
L 147.685103 140.4 
L 147.875089 143.8875 
L 148.436106 147.375 
L 149.36854 150.8625 
L 150.728353 154.35 
L 152.478883 157.8375 
L 154.698876 161.325 
L 157.423661 164.8125 
L 159.001445 166.55625 
L 161.240625 168.785307 
L 163.85625 171.10242 
L 166.968032 173.53125 
L 169.478707 175.275 
L 172.254813 177.01875 
L 176.934375 179.592857 
L 179.55 180.851029 
L 184.78125 183.050893 
L 190.0125 184.867416 
L 195.24375 186.347411 
L 200.475 187.514431 
L 205.70625 188.420973 
L 210.9375 189.042596 
L 216.16875 189.416608 
L 221.4 189.543265 
L 226.63125 189.416608 
L 231.8625 189.042596 
L 237.09375 188.420973 
L 242.480961 187.48125 
L 247.55625 186.347411 
L 252.7875 184.867416 
L 258.01875 183.050893 
L 263.25 180.851029 
L 267.453631 178.7625 
L 271.096875 176.687978 
L 273.7125 175.014195 
L 276.328125 173.163458 
L 278.94375 171.10242 
L 282.076543 168.3 
L 285.376339 164.8125 
L 288.101124 161.325 
L 290.321117 157.8375 
L 292.071647 154.35 
L 293.43146 150.8625 
L 294.363894 147.375 
L 294.924911 143.8875 
L 295.114897 140.4 
L 294.924911 136.9125 
L 294.363894 133.425 
L 293.43146 129.9375 
L 292.071647 126.45 
L 290.321117 122.9625 
L 288.101124 119.475 
L 285.376339 115.9875 
L 283.798555 114.24375 
L 281.559375 112.014693 
L 278.94375 109.69758 
L 275.831968 107.26875 
L 273.321293 105.525 
L 270.545187 103.78125 
L 267.360068 101.988577 
L 267.360068 101.988577 
" style="fill:none;stroke:#0000ff;"/>
   </g>
   <g id="LineCollection_10">
    <path clip-path="url(#p9b83db8db2)" d="M 247.318563 162.914516 
L 247.55625 162.794704 
L 250.171875 161.325 
L 250.171875 161.325 
L 252.7875 159.58125 
L 252.7875 159.58125 
L 254.992057 157.8375 
L 255.403125 157.475059 
L 256.871053 156.09375 
L 258.01875 154.868107 
L 258.478966 154.35 
L 259.836381 152.60625 
L 260.634375 151.403147 
L 260.979668 150.8625 
L 261.91721 149.11875 
L 262.671361 147.375 
L 263.25 145.63125 
L 263.25 145.63125 
L 263.655797 143.8875 
L 263.897625 142.14375 
L 263.977961 140.4 
L 263.897625 138.65625 
L 263.655797 136.9125 
L 263.25 135.16875 
L 263.25 135.16875 
L 262.671361 133.425 
L 261.91721 131.68125 
L 260.979668 129.9375 
L 260.634375 129.396853 
L 259.836381 128.19375 
L 258.478966 126.45 
L 258.01875 125.931893 
L 256.871053 124.70625 
L 255.403125 123.324941 
L 254.992057 122.9625 
L 252.7875 121.21875 
L 252.7875 121.21875 
L 250.171875 119.475 
L 247.55625 118.005296 
L 247.012589 117.73125 
L 244.940625 116.752631 
L 243.102161 115.9875 
L 242.325 115.68069 
L 239.709375 114.775746 
L 237.904721 114.24375 
L 237.09375 114.013555 
L 234.478125 113.388526 
L 231.8625 112.885759 
L 229.246875 112.5 
L 226.63125 112.229469 
L 224.015625 112.06825 
L 221.4 112.014693 
L 218.784375 112.06825 
L 216.16875 112.229469 
L 213.553125 112.5 
L 210.9375 112.885759 
L 208.321875 113.388526 
L 205.70625 114.013555 
L 204.895279 114.24375 
L 203.090625 114.775746 
L 200.475 115.68069 
L 199.697839 115.9875 
L 197.859375 116.752631 
L 195.787411 117.73125 
L 195.24375 118.005296 
L 192.628125 119.475 
L 190.0125 121.21875 
L 190.0125 121.21875 
L 187.807943 122.9625 
L 187.396875 123.324941 
L 185.928947 124.70625 
L 184.78125 125.931893 
L 184.321034 126.45 
L 182.963619 128.19375 
L 182.165625 129.396853 
L 181.820332 129.9375 
L 180.88279 131.68125 
L 180.128639 133.425 
L 179.55 135.16875 
L 179.55 135.16875 
L 179.144203 136.9125 
L 178.902375 138.65625 
L 178.822039 140.4 
L 178.902375 142.14375 
L 179.144203 143.8875 
L 179.55 145.63125 
L 179.55 145.63125 
L 180.128639 147.375 
L 180.88279 149.11875 
L 181.820332 150.8625 
L 182.165625 151.403147 
L 182.963619 152.60625 
L 184.321034 154.35 
L 184.78125 154.868107 
L 185.928947 156.09375 
L 187.396875 157.475059 
L 187.807943 157.8375 
L 190.0125 159.58125 
L 190.0125 159.58125 
L 192.628125 161.325 
L 192.628125 161.325 
L 195.24375 162.794704 
L 195.787411 163.06875 
L 197.859375 164.047369 
L 199.697839 164.8125 
L 200.262365 165.035365 
" style="fill:none;stroke:#0000ff;"/>
   </g>
   <g id="patch_3">
    <path d="M 54 252 
L 388.8 252 
" style="fill:none;stroke:#000000;stroke-linecap:square;stroke-linejoin:miter;"/>
   </g>
   <g id="patch_4">
    <path d="M 54 28.8 
L 388.8 28.8 
" style="fill:none;stroke:#000000;stroke-linecap:square;stroke-linejoin:miter;"/>
   </g>
   <g id="patch_5">
    <path d="M 54 252 
L 54 28.8 
" style="fill:none;stroke:#000000;stroke-linecap:square;stroke-linejoin:miter;"/>
   </g>
   <g id="patch_6">
    <path d="M 388.8 252 
L 388.8 28.8 
" style="fill:none;stroke:#000000;stroke-linecap:square;stroke-linejoin:miter;"/>
   </g>
   <g id="matplotlib.axis_1">
    <g id="xtick_1">
     <g id="line2d_1">
      <path clip-path="url(#p9b83db8db2)" d="M 86.803796 252 
L 86.803796 28.8 
" style="fill:none;stroke:#000000;stroke-dasharray:1.000000,3.000000;stroke-dashoffset:0.0;stroke-width:0.5;"/>
     </g>
     <g id="line2d_2">
      <defs>
       <path d="M 0 0 
L 0 -4 
" id="mb0f0f51a9f" style="stroke:#000000;stroke-width:0.5;"/>
      </defs>
      <g>
       <use style="stroke:#000000;stroke-width:0.5;" x="86.8037959274" xlink:href="#mb0f0f51a9f" y="252.0"/>
      </g>
     </g>
     <g id="line2d_3">
      <defs>
       <path d="M 0 0 
L 0 4 
" id="m645773c9f9" style="stroke:#000000;stroke-width:0.5;"/>
      </defs>
      <g>
       <use style="stroke:#000000;stroke-width:0.5;" x="86.8037959274" xlink:href="#m645773c9f9" y="28.8"/>
      </g>
     </g>
     <g id="text_1">
      <!-- −3 -->
      <defs>
       <path d="M 10.59375 35.5 
L 73.1875 35.5 
L 73.1875 27.203125 
L 10.59375 27.203125 
z
" id="BitstreamVeraSans-Roman-2212"/>
       <path d="M 40.578125 39.3125 
Q 47.65625 37.796875 51.625 33 
Q 55.609375 28.21875 55.609375 21.1875 
Q 55.609375 10.40625 48.1875 4.484375 
Q 40.765625 -1.421875 27.09375 -1.421875 
Q 22.515625 -1.421875 17.65625 -0.515625 
Q 12.796875 0.390625 7.625 2.203125 
L 7.625 11.71875 
Q 11.71875 9.328125 16.59375 8.109375 
Q 21.484375 6.890625 26.8125 6.890625 
Q 36.078125 6.890625 40.9375 10.546875 
Q 45.796875 14.203125 45.796875 21.1875 
Q 45.796875 27.640625 41.28125 31.265625 
Q 36.765625 34.90625 28.71875 34.90625 
L 20.21875 34.90625 
L 20.21875 43.015625 
L 29.109375 43.015625 
Q 36.375 43.015625 40.234375 45.921875 
Q 44.09375 48.828125 44.09375 54.296875 
Q 44.09375 59.90625 40.109375 62.90625 
Q 36.140625 65.921875 28.71875 65.921875 
Q 24.65625 65.921875 20.015625 65.03125 
Q 15.375 64.15625 9.8125 62.3125 
L 9.8125 71.09375 
Q 15.4375 72.65625 20.34375 73.4375 
Q 25.25 74.21875 29.59375 74.21875 
Q 40.828125 74.21875 47.359375 69.109375 
Q 53.90625 64.015625 53.90625 55.328125 
Q 53.90625 49.265625 50.4375 45.09375 
Q 46.96875 40.921875 40.578125 39.3125 
" id="BitstreamVeraSans-Roman-33"/>
      </defs>
      <g transform="translate(79.4327021774 263.5984375)scale(0.1 -0.1)">
       <use xlink:href="#BitstreamVeraSans-Roman-2212"/>
       <use x="83.7890625" xlink:href="#BitstreamVeraSans-Roman-33"/>
      </g>
     </g>
    </g>
    <g id="xtick_2">
     <g id="line2d_4">
      <path clip-path="url(#p9b83db8db2)" d="M 131.669197 252 
L 131.669197 28.8 
" style="fill:none;stroke:#000000;stroke-dasharray:1.000000,3.000000;stroke-dashoffset:0.0;stroke-width:0.5;"/>
     </g>
     <g id="line2d_5">
      <g>
       <use style="stroke:#000000;stroke-width:0.5;" x="131.669197285" xlink:href="#mb0f0f51a9f" y="252.0"/>
      </g>
     </g>
     <g id="line2d_6">
      <g>
       <use style="stroke:#000000;stroke-width:0.5;" x="131.669197285" xlink:href="#m645773c9f9" y="28.8"/>
      </g>
     </g>
     <g id="text_2">
      <!-- −2 -->
      <defs>
       <path d="M 19.1875 8.296875 
L 53.609375 8.296875 
L 53.609375 0 
L 7.328125 0 
L 7.328125 8.296875 
Q 12.9375 14.109375 22.625 23.890625 
Q 32.328125 33.6875 34.8125 36.53125 
Q 39.546875 41.84375 41.421875 45.53125 
Q 43.3125 49.21875 43.3125 52.78125 
Q 43.3125 58.59375 39.234375 62.25 
Q 35.15625 65.921875 28.609375 65.921875 
Q 23.96875 65.921875 18.8125 64.3125 
Q 13.671875 62.703125 7.8125 59.421875 
L 7.8125 69.390625 
Q 13.765625 71.78125 18.9375 73 
Q 24.125 74.21875 28.421875 74.21875 
Q 39.75 74.21875 46.484375 68.546875 
Q 53.21875 62.890625 53.21875 53.421875 
Q 53.21875 48.921875 51.53125 44.890625 
Q 49.859375 40.875 45.40625 35.40625 
Q 44.1875 33.984375 37.640625 27.21875 
Q 31.109375 20.453125 19.1875 8.296875 
" id="BitstreamVeraSans-Roman-32"/>
      </defs>
      <g transform="translate(124.298103535 263.5984375)scale(0.1 -0.1)">
       <use xlink:href="#BitstreamVeraSans-Roman-2212"/>
       <use x="83.7890625" xlink:href="#BitstreamVeraSans-Roman-32"/>
      </g>
     </g>
    </g>
    <g id="xtick_3">
     <g id="line2d_7">
      <path clip-path="url(#p9b83db8db2)" d="M 176.534599 252 
L 176.534599 28.8 
" style="fill:none;stroke:#000000;stroke-dasharray:1.000000,3.000000;stroke-dashoffset:0.0;stroke-width:0.5;"/>
     </g>
     <g id="line2d_8">
      <g>
       <use style="stroke:#000000;stroke-width:0.5;" x="176.534598642" xlink:href="#mb0f0f51a9f" y="252.0"/>
      </g>
     </g>
     <g id="line2d_9">
      <g>
       <use style="stroke:#000000;stroke-width:0.5;" x="176.534598642" xlink:href="#m645773c9f9" y="28.8"/>
      </g>
     </g>
     <g id="text_3">
      <!-- −1 -->
      <defs>
       <path d="M 12.40625 8.296875 
L 28.515625 8.296875 
L 28.515625 63.921875 
L 10.984375 60.40625 
L 10.984375 69.390625 
L 28.421875 72.90625 
L 38.28125 72.90625 
L 38.28125 8.296875 
L 54.390625 8.296875 
L 54.390625 0 
L 12.40625 0 
z
" id="BitstreamVeraSans-Roman-31"/>
      </defs>
      <g transform="translate(169.163504892 263.5984375)scale(0.1 -0.1)">
       <use xlink:href="#BitstreamVeraSans-Roman-2212"/>
       <use x="83.7890625" xlink:href="#BitstreamVeraSans-Roman-31"/>
      </g>
     </g>
    </g>
    <g id="xtick_4">
     <g id="line2d_10">
      <path clip-path="url(#p9b83db8db2)" d="M 221.4 252 
L 221.4 28.8 
" style="fill:none;stroke:#000000;stroke-dasharray:1.000000,3.000000;stroke-dashoffset:0.0;stroke-width:0.5;"/>
     </g>
     <g id="line2d_11">
      <g>
       <use style="stroke:#000000;stroke-width:0.5;" x="221.4" xlink:href="#mb0f0f51a9f" y="252.0"/>
      </g>
     </g>
     <g id="line2d_12">
      <g>
       <use style="stroke:#000000;stroke-width:0.5;" x="221.4" xlink:href="#m645773c9f9" y="28.8"/>
      </g>
     </g>
     <g id="text_4">
      <!-- 0 -->
      <defs>
       <path d="M 31.78125 66.40625 
Q 24.171875 66.40625 20.328125 58.90625 
Q 16.5 51.421875 16.5 36.375 
Q 16.5 21.390625 20.328125 13.890625 
Q 24.171875 6.390625 31.78125 6.390625 
Q 39.453125 6.390625 43.28125 13.890625 
Q 47.125 21.390625 47.125 36.375 
Q 47.125 51.421875 43.28125 58.90625 
Q 39.453125 66.40625 31.78125 66.40625 
M 31.78125 74.21875 
Q 44.046875 74.21875 50.515625 64.515625 
Q 56.984375 54.828125 56.984375 36.375 
Q 56.984375 17.96875 50.515625 8.265625 
Q 44.046875 -1.421875 31.78125 -1.421875 
Q 19.53125 -1.421875 13.0625 8.265625 
Q 6.59375 17.96875 6.59375 36.375 
Q 6.59375 54.828125 13.0625 64.515625 
Q 19.53125 74.21875 31.78125 74.21875 
" id="BitstreamVeraSans-Roman-30"/>
      </defs>
      <g transform="translate(218.21875 263.5984375)scale(0.1 -0.1)">
       <use xlink:href="#BitstreamVeraSans-Roman-30"/>
      </g>
     </g>
    </g>
    <g id="xtick_5">
     <g id="line2d_13">
      <path clip-path="url(#p9b83db8db2)" d="M 266.265401 252 
L 266.265401 28.8 
" style="fill:none;stroke:#000000;stroke-dasharray:1.000000,3.000000;stroke-dashoffset:0.0;stroke-width:0.5;"/>
     </g>
     <g id="line2d_14">
      <g>
       <use style="stroke:#000000;stroke-width:0.5;" x="266.265401358" xlink:href="#mb0f0f51a9f" y="252.0"/>
      </g>
     </g>
     <g id="line2d_15">
      <g>
       <use style="stroke:#000000;stroke-width:0.5;" x="266.265401358" xlink:href="#m645773c9f9" y="28.8"/>
      </g>
     </g>
     <g id="text_5">
      <!-- 1 -->
      <g transform="translate(263.084151358 263.5984375)scale(0.1 -0.1)">
       <use xlink:href="#BitstreamVeraSans-Roman-31"/>
      </g>
     </g>
    </g>
    <g id="xtick_6">
     <g id="line2d_16">
      <path clip-path="url(#p9b83db8db2)" d="M 311.130803 252 
L 311.130803 28.8 
" style="fill:none;stroke:#000000;stroke-dasharray:1.000000,3.000000;stroke-dashoffset:0.0;stroke-width:0.5;"/>
     </g>
     <g id="line2d_17">
      <g>
       <use style="stroke:#000000;stroke-width:0.5;" x="311.130802715" xlink:href="#mb0f0f51a9f" y="252.0"/>
      </g>
     </g>
     <g id="line2d_18">
      <g>
       <use style="stroke:#000000;stroke-width:0.5;" x="311.130802715" xlink:href="#m645773c9f9" y="28.8"/>
      </g>
     </g>
     <g id="text_6">
      <!-- 2 -->
      <g transform="translate(307.949552715 263.5984375)scale(0.1 -0.1)">
       <use xlink:href="#BitstreamVeraSans-Roman-32"/>
      </g>
     </g>
    </g>
    <g id="xtick_7">
     <g id="line2d_19">
      <path clip-path="url(#p9b83db8db2)" d="M 355.996204 252 
L 355.996204 28.8 
" style="fill:none;stroke:#000000;stroke-dasharray:1.000000,3.000000;stroke-dashoffset:0.0;stroke-width:0.5;"/>
     </g>
     <g id="line2d_20">
      <g>
       <use style="stroke:#000000;stroke-width:0.5;" x="355.996204073" xlink:href="#mb0f0f51a9f" y="252.0"/>
      </g>
     </g>
     <g id="line2d_21">
      <g>
       <use style="stroke:#000000;stroke-width:0.5;" x="355.996204073" xlink:href="#m645773c9f9" y="28.8"/>
      </g>
     </g>
     <g id="text_7">
      <!-- 3 -->
      <g transform="translate(352.814954073 263.5984375)scale(0.1 -0.1)">
       <use xlink:href="#BitstreamVeraSans-Roman-33"/>
      </g>
     </g>
    </g>
    <g id="text_8">
     <!-- X0 -->
     <defs>
      <path d="M 6.296875 72.90625 
L 16.890625 72.90625 
L 35.015625 45.796875 
L 53.21875 72.90625 
L 63.8125 72.90625 
L 40.375 37.890625 
L 65.375 0 
L 54.78125 0 
L 34.28125 31 
L 13.625 0 
L 2.984375 0 
L 29 38.921875 
z
" id="BitstreamVeraSans-Roman-58"/>
     </defs>
     <g transform="translate(214.79375 278.2765625)scale(0.1 -0.1)">
      <use xlink:href="#BitstreamVeraSans-Roman-58"/>
      <use x="68.505859375" xlink:href="#BitstreamVeraSans-Roman-30"/>
     </g>
    </g>
   </g>
   <g id="matplotlib.axis_2">
    <g id="ytick_1">
     <g id="line2d_22">
      <path clip-path="url(#p9b83db8db2)" d="M 54 240.100892 
L 388.8 240.100892 
" style="fill:none;stroke:#000000;stroke-dasharray:1.000000,3.000000;stroke-dashoffset:0.0;stroke-width:0.5;"/>
     </g>
     <g id="line2d_23">
      <defs>
       <path d="M 0 0 
L 4 0 
" id="mad62ea3550" style="stroke:#000000;stroke-width:0.5;"/>
      </defs>
      <g>
       <use style="stroke:#000000;stroke-width:0.5;" x="54.0" xlink:href="#mad62ea3550" y="240.100891906"/>
      </g>
     </g>
     <g id="line2d_24">
      <defs>
       <path d="M 0 0 
L -4 0 
" id="ma8628b29ea" style="stroke:#000000;stroke-width:0.5;"/>
      </defs>
      <g>
       <use style="stroke:#000000;stroke-width:0.5;" x="388.8" xlink:href="#ma8628b29ea" y="240.100891906"/>
      </g>
     </g>
     <g id="text_9">
      <!-- 0 -->
      <g transform="translate(43.6375 242.860266906)scale(0.1 -0.1)">
       <use xlink:href="#BitstreamVeraSans-Roman-30"/>
      </g>
     </g>
    </g>
    <g id="ytick_2">
     <g id="line2d_25">
      <path clip-path="url(#p9b83db8db2)" d="M 54 190.250446 
L 388.8 190.250446 
" style="fill:none;stroke:#000000;stroke-dasharray:1.000000,3.000000;stroke-dashoffset:0.0;stroke-width:0.5;"/>
     </g>
     <g id="line2d_26">
      <g>
       <use style="stroke:#000000;stroke-width:0.5;" x="54.0" xlink:href="#mad62ea3550" y="190.250445953"/>
      </g>
     </g>
     <g id="line2d_27">
      <g>
       <use style="stroke:#000000;stroke-width:0.5;" x="388.8" xlink:href="#ma8628b29ea" y="190.250445953"/>
      </g>
     </g>
     <g id="text_10">
      <!-- 1 -->
      <g transform="translate(43.6375 193.009820953)scale(0.1 -0.1)">
       <use xlink:href="#BitstreamVeraSans-Roman-31"/>
      </g>
     </g>
    </g>
    <g id="ytick_3">
     <g id="line2d_28">
      <path clip-path="url(#p9b83db8db2)" d="M 54 140.4 
L 388.8 140.4 
" style="fill:none;stroke:#000000;stroke-dasharray:1.000000,3.000000;stroke-dashoffset:0.0;stroke-width:0.5;"/>
     </g>
     <g id="line2d_29">
      <g>
       <use style="stroke:#000000;stroke-width:0.5;" x="54.0" xlink:href="#mad62ea3550" y="140.4"/>
      </g>
     </g>
     <g id="line2d_30">
      <g>
       <use style="stroke:#000000;stroke-width:0.5;" x="388.8" xlink:href="#ma8628b29ea" y="140.4"/>
      </g>
     </g>
     <g id="text_11">
      <!-- 2 -->
      <g transform="translate(43.6375 143.159375)scale(0.1 -0.1)">
       <use xlink:href="#BitstreamVeraSans-Roman-32"/>
      </g>
     </g>
    </g>
    <g id="ytick_4">
     <g id="line2d_31">
      <path clip-path="url(#p9b83db8db2)" d="M 54 90.549554 
L 388.8 90.549554 
" style="fill:none;stroke:#000000;stroke-dasharray:1.000000,3.000000;stroke-dashoffset:0.0;stroke-width:0.5;"/>
     </g>
     <g id="line2d_32">
      <g>
       <use style="stroke:#000000;stroke-width:0.5;" x="54.0" xlink:href="#mad62ea3550" y="90.5495540472"/>
      </g>
     </g>
     <g id="line2d_33">
      <g>
       <use style="stroke:#000000;stroke-width:0.5;" x="388.8" xlink:href="#ma8628b29ea" y="90.5495540472"/>
      </g>
     </g>
     <g id="text_12">
      <!-- 3 -->
      <g transform="translate(43.6375 93.3089290472)scale(0.1 -0.1)">
       <use xlink:href="#BitstreamVeraSans-Roman-33"/>
      </g>
     </g>
    </g>
    <g id="ytick_5">
     <g id="line2d_34">
      <path clip-path="url(#p9b83db8db2)" d="M 54 40.699108 
L 388.8 40.699108 
" style="fill:none;stroke:#000000;stroke-dasharray:1.000000,3.000000;stroke-dashoffset:0.0;stroke-width:0.5;"/>
     </g>
     <g id="line2d_35">
      <g>
       <use style="stroke:#000000;stroke-width:0.5;" x="54.0" xlink:href="#mad62ea3550" y="40.6991080943"/>
      </g>
     </g>
     <g id="line2d_36">
      <g>
       <use style="stroke:#000000;stroke-width:0.5;" x="388.8" xlink:href="#ma8628b29ea" y="40.6991080943"/>
      </g>
     </g>
     <g id="text_13">
      <!-- 4 -->
      <defs>
       <path d="M 37.796875 64.3125 
L 12.890625 25.390625 
L 37.796875 25.390625 
z
M 35.203125 72.90625 
L 47.609375 72.90625 
L 47.609375 25.390625 
L 58.015625 25.390625 
L 58.015625 17.1875 
L 47.609375 17.1875 
L 47.609375 0 
L 37.796875 0 
L 37.796875 17.1875 
L 4.890625 17.1875 
L 4.890625 26.703125 
z
" id="BitstreamVeraSans-Roman-34"/>
      </defs>
      <g transform="translate(43.6375 43.4584830943)scale(0.1 -0.1)">
       <use xlink:href="#BitstreamVeraSans-Roman-34"/>
      </g>
     </g>
    </g>
    <g id="text_14">
     <!-- X1 -->
     <g transform="translate(36.5578125 147.00625)rotate(-90.0)scale(0.1 -0.1)">
      <use xlink:href="#BitstreamVeraSans-Roman-58"/>
      <use x="68.505859375" xlink:href="#BitstreamVeraSans-Roman-31"/>
     </g>
    </g>
   </g>
   <g id="text_15">
    <g clip-path="url(#p9b83db8db2)">
     <!-- 0.000102206 -->
     <defs>
      <path d="M 33.015625 40.375 
Q 26.375 40.375 22.484375 35.828125 
Q 18.609375 31.296875 18.609375 23.390625 
Q 18.609375 15.53125 22.484375 10.953125 
Q 26.375 6.390625 33.015625 6.390625 
Q 39.65625 6.390625 43.53125 10.953125 
Q 47.40625 15.53125 47.40625 23.390625 
Q 47.40625 31.296875 43.53125 35.828125 
Q 39.65625 40.375 33.015625 40.375 
M 52.59375 71.296875 
L 52.59375 62.3125 
Q 48.875 64.0625 45.09375 64.984375 
Q 41.3125 65.921875 37.59375 65.921875 
Q 27.828125 65.921875 22.671875 59.328125 
Q 17.53125 52.734375 16.796875 39.40625 
Q 19.671875 43.65625 24.015625 45.921875 
Q 28.375 48.1875 33.59375 48.1875 
Q 44.578125 48.1875 50.953125 41.515625 
Q 57.328125 34.859375 57.328125 23.390625 
Q 57.328125 12.15625 50.6875 5.359375 
Q 44.046875 -1.421875 33.015625 -1.421875 
Q 20.359375 -1.421875 13.671875 8.265625 
Q 6.984375 17.96875 6.984375 36.375 
Q 6.984375 53.65625 15.1875 63.9375 
Q 23.390625 74.21875 37.203125 74.21875 
Q 40.921875 74.21875 44.703125 73.484375 
Q 48.484375 72.75 52.59375 71.296875 
" id="BitstreamVeraSans-Roman-36"/>
      <path d="M 10.6875 12.40625 
L 21 12.40625 
L 21 0 
L 10.6875 0 
z
" id="BitstreamVeraSans-Roman-2e"/>
     </defs>
     <g style="fill:#0000ff;" transform="translate(303.034044289 250.043971746)rotate(-26.099007958865293)scale(0.08 -0.08)">
      <use xlink:href="#BitstreamVeraSans-Roman-30"/>
      <use x="63.623046875" xlink:href="#BitstreamVeraSans-Roman-2e"/>
      <use x="95.41015625" xlink:href="#BitstreamVeraSans-Roman-30"/>
      <use x="159.033203125" xlink:href="#BitstreamVeraSans-Roman-30"/>
      <use x="222.65625" xlink:href="#BitstreamVeraSans-Roman-30"/>
      <use x="286.279296875" xlink:href="#BitstreamVeraSans-Roman-31"/>
      <use x="349.90234375" xlink:href="#BitstreamVeraSans-Roman-30"/>
      <use x="413.525390625" xlink:href="#BitstreamVeraSans-Roman-32"/>
      <use x="477.1484375" xlink:href="#BitstreamVeraSans-Roman-32"/>
      <use x="540.771484375" xlink:href="#BitstreamVeraSans-Roman-30"/>
      <use x="604.39453125" xlink:href="#BitstreamVeraSans-Roman-36"/>
     </g>
    </g>
   </g>
   <g id="text_16">
    <g clip-path="url(#p9b83db8db2)">
     <!-- 0.000102206 -->
     <g style="fill:#0000ff;" transform="translate(56.4659957603 193.597190242)rotate(-317.09127469029835)scale(0.08 -0.08)">
      <use xlink:href="#BitstreamVeraSans-Roman-30"/>
      <use x="63.623046875" xlink:href="#BitstreamVeraSans-Roman-2e"/>
      <use x="95.41015625" xlink:href="#BitstreamVeraSans-Roman-30"/>
      <use x="159.033203125" xlink:href="#BitstreamVeraSans-Roman-30"/>
      <use x="222.65625" xlink:href="#BitstreamVeraSans-Roman-30"/>
      <use x="286.279296875" xlink:href="#BitstreamVeraSans-Roman-31"/>
      <use x="349.90234375" xlink:href="#BitstreamVeraSans-Roman-30"/>
      <use x="413.525390625" xlink:href="#BitstreamVeraSans-Roman-32"/>
      <use x="477.1484375" xlink:href="#BitstreamVeraSans-Roman-32"/>
      <use x="540.771484375" xlink:href="#BitstreamVeraSans-Roman-30"/>
      <use x="604.39453125" xlink:href="#BitstreamVeraSans-Roman-36"/>
     </g>
    </g>
   </g>
   <g id="text_17">
    <g clip-path="url(#p9b83db8db2)">
     <!-- 0.000102206 -->
     <g style="fill:#0000ff;" transform="translate(344.18474576 54.0511425167)rotate(-317.09127469029846)scale(0.08 -0.08)">
      <use xlink:href="#BitstreamVeraSans-Roman-30"/>
      <use x="63.623046875" xlink:href="#BitstreamVeraSans-Roman-2e"/>
      <use x="95.41015625" xlink:href="#BitstreamVeraSans-Roman-30"/>
      <use x="159.033203125" xlink:href="#BitstreamVeraSans-Roman-30"/>
      <use x="222.65625" xlink:href="#BitstreamVeraSans-Roman-30"/>
      <use x="286.279296875" xlink:href="#BitstreamVeraSans-Roman-31"/>
      <use x="349.90234375" xlink:href="#BitstreamVeraSans-Roman-30"/>
      <use x="413.525390625" xlink:href="#BitstreamVeraSans-Roman-32"/>
      <use x="477.1484375" xlink:href="#BitstreamVeraSans-Roman-32"/>
      <use x="540.771484375" xlink:href="#BitstreamVeraSans-Roman-30"/>
      <use x="604.39453125" xlink:href="#BitstreamVeraSans-Roman-36"/>
     </g>
    </g>
   </g>
   <g id="text_18">
    <g clip-path="url(#p9b83db8db2)">
     <!-- 0.000102206 -->
     <g style="fill:#0000ff;" transform="translate(93.7149727012 58.2314717459)rotate(-26.099007958865286)scale(0.08 -0.08)">
      <use xlink:href="#BitstreamVeraSans-Roman-30"/>
      <use x="63.623046875" xlink:href="#BitstreamVeraSans-Roman-2e"/>
      <use x="95.41015625" xlink:href="#BitstreamVeraSans-Roman-30"/>
      <use x="159.033203125" xlink:href="#BitstreamVeraSans-Roman-30"/>
      <use x="222.65625" xlink:href="#BitstreamVeraSans-Roman-30"/>
      <use x="286.279296875" xlink:href="#BitstreamVeraSans-Roman-31"/>
      <use x="349.90234375" xlink:href="#BitstreamVeraSans-Roman-30"/>
      <use x="413.525390625" xlink:href="#BitstreamVeraSans-Roman-32"/>
      <use x="477.1484375" xlink:href="#BitstreamVeraSans-Roman-32"/>
      <use x="540.771484375" xlink:href="#BitstreamVeraSans-Roman-30"/>
      <use x="604.39453125" xlink:href="#BitstreamVeraSans-Roman-36"/>
     </g>
    </g>
   </g>
   <g id="text_19">
    <g clip-path="url(#p9b83db8db2)">
     <!-- 0.000310042 -->
     <g style="fill:#0000ff;" transform="translate(173.66280741 249.397646997)rotate(-355.1326785327788)scale(0.08 -0.08)">
      <use xlink:href="#BitstreamVeraSans-Roman-30"/>
      <use x="63.623046875" xlink:href="#BitstreamVeraSans-Roman-2e"/>
      <use x="95.41015625" xlink:href="#BitstreamVeraSans-Roman-30"/>
      <use x="159.033203125" xlink:href="#BitstreamVeraSans-Roman-30"/>
      <use x="222.65625" xlink:href="#BitstreamVeraSans-Roman-30"/>
      <use x="286.279296875" xlink:href="#BitstreamVeraSans-Roman-33"/>
      <use x="349.90234375" xlink:href="#BitstreamVeraSans-Roman-31"/>
      <use x="413.525390625" xlink:href="#BitstreamVeraSans-Roman-30"/>
      <use x="477.1484375" xlink:href="#BitstreamVeraSans-Roman-30"/>
      <use x="540.771484375" xlink:href="#BitstreamVeraSans-Roman-34"/>
      <use x="604.39453125" xlink:href="#BitstreamVeraSans-Roman-32"/>
     </g>
    </g>
   </g>
   <g id="text_20">
    <g clip-path="url(#p9b83db8db2)">
     <!-- 0.000760515 -->
     <defs>
      <path d="M 8.203125 72.90625 
L 55.078125 72.90625 
L 55.078125 68.703125 
L 28.609375 0 
L 18.3125 0 
L 43.21875 64.59375 
L 8.203125 64.59375 
z
" id="BitstreamVeraSans-Roman-37"/>
      <path d="M 10.796875 72.90625 
L 49.515625 72.90625 
L 49.515625 64.59375 
L 19.828125 64.59375 
L 19.828125 46.734375 
Q 21.96875 47.46875 24.109375 47.828125 
Q 26.265625 48.1875 28.421875 48.1875 
Q 40.625 48.1875 47.75 41.5 
Q 54.890625 34.8125 54.890625 23.390625 
Q 54.890625 11.625 47.5625 5.09375 
Q 40.234375 -1.421875 26.90625 -1.421875 
Q 22.3125 -1.421875 17.546875 -0.640625 
Q 12.796875 0.140625 7.71875 1.703125 
L 7.71875 11.625 
Q 12.109375 9.234375 16.796875 8.0625 
Q 21.484375 6.890625 26.703125 6.890625 
Q 35.15625 6.890625 40.078125 11.328125 
Q 45.015625 15.765625 45.015625 23.390625 
Q 45.015625 31 40.078125 35.4375 
Q 35.15625 39.890625 26.703125 39.890625 
Q 22.75 39.890625 18.8125 39.015625 
Q 14.890625 38.140625 10.796875 36.28125 
z
" id="BitstreamVeraSans-Roman-35"/>
     </defs>
     <g style="fill:#0000ff;" transform="translate(212.897130884 38.7933373579)rotate(-355.36864334096157)scale(0.08 -0.08)">
      <use xlink:href="#BitstreamVeraSans-Roman-30"/>
      <use x="63.623046875" xlink:href="#BitstreamVeraSans-Roman-2e"/>
      <use x="95.41015625" xlink:href="#BitstreamVeraSans-Roman-30"/>
      <use x="159.033203125" xlink:href="#BitstreamVeraSans-Roman-30"/>
      <use x="222.65625" xlink:href="#BitstreamVeraSans-Roman-30"/>
      <use x="286.279296875" xlink:href="#BitstreamVeraSans-Roman-37"/>
      <use x="349.90234375" xlink:href="#BitstreamVeraSans-Roman-36"/>
      <use x="413.525390625" xlink:href="#BitstreamVeraSans-Roman-30"/>
      <use x="477.1484375" xlink:href="#BitstreamVeraSans-Roman-35"/>
      <use x="540.771484375" xlink:href="#BitstreamVeraSans-Roman-31"/>
      <use x="604.39453125" xlink:href="#BitstreamVeraSans-Roman-35"/>
     </g>
    </g>
   </g>
   <g id="text_21">
    <g clip-path="url(#p9b83db8db2)">
     <!-- 0.0018655 -->
     <defs>
      <path d="M 31.78125 34.625 
Q 24.75 34.625 20.71875 30.859375 
Q 16.703125 27.09375 16.703125 20.515625 
Q 16.703125 13.921875 20.71875 10.15625 
Q 24.75 6.390625 31.78125 6.390625 
Q 38.8125 6.390625 42.859375 10.171875 
Q 46.921875 13.96875 46.921875 20.515625 
Q 46.921875 27.09375 42.890625 30.859375 
Q 38.875 34.625 31.78125 34.625 
M 21.921875 38.8125 
Q 15.578125 40.375 12.03125 44.71875 
Q 8.5 49.078125 8.5 55.328125 
Q 8.5 64.0625 14.71875 69.140625 
Q 20.953125 74.21875 31.78125 74.21875 
Q 42.671875 74.21875 48.875 69.140625 
Q 55.078125 64.0625 55.078125 55.328125 
Q 55.078125 49.078125 51.53125 44.71875 
Q 48 40.375 41.703125 38.8125 
Q 48.828125 37.15625 52.796875 32.3125 
Q 56.78125 27.484375 56.78125 20.515625 
Q 56.78125 9.90625 50.3125 4.234375 
Q 43.84375 -1.421875 31.78125 -1.421875 
Q 19.734375 -1.421875 13.25 4.234375 
Q 6.78125 9.90625 6.78125 20.515625 
Q 6.78125 27.484375 10.78125 32.3125 
Q 14.796875 37.15625 21.921875 38.8125 
M 18.3125 54.390625 
Q 18.3125 48.734375 21.84375 45.5625 
Q 25.390625 42.390625 31.78125 42.390625 
Q 38.140625 42.390625 41.71875 45.5625 
Q 45.3125 48.734375 45.3125 54.390625 
Q 45.3125 60.0625 41.71875 63.234375 
Q 38.140625 66.40625 31.78125 66.40625 
Q 25.390625 66.40625 21.84375 63.234375 
Q 18.3125 60.0625 18.3125 54.390625 
" id="BitstreamVeraSans-Roman-38"/>
     </defs>
     <g style="fill:#0000ff;" transform="translate(237.121869114 237.387542206)rotate(-10.21512825446427)scale(0.08 -0.08)">
      <use xlink:href="#BitstreamVeraSans-Roman-30"/>
      <use x="63.623046875" xlink:href="#BitstreamVeraSans-Roman-2e"/>
      <use x="95.41015625" xlink:href="#BitstreamVeraSans-Roman-30"/>
      <use x="159.033203125" xlink:href="#BitstreamVeraSans-Roman-30"/>
      <use x="222.65625" xlink:href="#BitstreamVeraSans-Roman-31"/>
      <use x="286.279296875" xlink:href="#BitstreamVeraSans-Roman-38"/>
      <use x="349.90234375" xlink:href="#BitstreamVeraSans-Roman-36"/>
      <use x="413.525390625" xlink:href="#BitstreamVeraSans-Roman-35"/>
      <use x="477.1484375" xlink:href="#BitstreamVeraSans-Roman-35"/>
     </g>
    </g>
   </g>
   <g id="text_22">
    <g clip-path="url(#p9b83db8db2)">
     <!-- 0.00460717 -->
     <g style="fill:#0000ff;" transform="translate(159.012961379 66.6300571499)rotate(-12.287213456257405)scale(0.08 -0.08)">
      <use xlink:href="#BitstreamVeraSans-Roman-30"/>
      <use x="63.623046875" xlink:href="#BitstreamVeraSans-Roman-2e"/>
      <use x="95.41015625" xlink:href="#BitstreamVeraSans-Roman-30"/>
      <use x="159.033203125" xlink:href="#BitstreamVeraSans-Roman-30"/>
      <use x="222.65625" xlink:href="#BitstreamVeraSans-Roman-34"/>
      <use x="286.279296875" xlink:href="#BitstreamVeraSans-Roman-36"/>
      <use x="349.90234375" xlink:href="#BitstreamVeraSans-Roman-30"/>
      <use x="413.525390625" xlink:href="#BitstreamVeraSans-Roman-37"/>
      <use x="477.1484375" xlink:href="#BitstreamVeraSans-Roman-31"/>
      <use x="540.771484375" xlink:href="#BitstreamVeraSans-Roman-37"/>
     </g>
    </g>
   </g>
   <g id="text_23">
    <g clip-path="url(#p9b83db8db2)">
     <!-- 0.0113782 -->
     <g style="fill:#0000ff;" transform="translate(110.319189021 124.063004045)rotate(-52.66569122562464)scale(0.08 -0.08)">
      <use xlink:href="#BitstreamVeraSans-Roman-30"/>
      <use x="63.623046875" xlink:href="#BitstreamVeraSans-Roman-2e"/>
      <use x="95.41015625" xlink:href="#BitstreamVeraSans-Roman-30"/>
      <use x="159.033203125" xlink:href="#BitstreamVeraSans-Roman-31"/>
      <use x="222.65625" xlink:href="#BitstreamVeraSans-Roman-31"/>
      <use x="286.279296875" xlink:href="#BitstreamVeraSans-Roman-33"/>
      <use x="349.90234375" xlink:href="#BitstreamVeraSans-Roman-37"/>
      <use x="413.525390625" xlink:href="#BitstreamVeraSans-Roman-38"/>
      <use x="477.1484375" xlink:href="#BitstreamVeraSans-Roman-32"/>
     </g>
    </g>
   </g>
   <g id="text_24">
    <g clip-path="url(#p9b83db8db2)">
     <!-- 0.0280527 -->
     <g style="fill:#0000ff;" transform="translate(279.617504191 89.1383657626)rotate(-317.785911891693)scale(0.08 -0.08)">
      <use xlink:href="#BitstreamVeraSans-Roman-30"/>
      <use x="63.623046875" xlink:href="#BitstreamVeraSans-Roman-2e"/>
      <use x="95.41015625" xlink:href="#BitstreamVeraSans-Roman-30"/>
      <use x="159.033203125" xlink:href="#BitstreamVeraSans-Roman-32"/>
      <use x="222.65625" xlink:href="#BitstreamVeraSans-Roman-38"/>
      <use x="286.279296875" xlink:href="#BitstreamVeraSans-Roman-30"/>
      <use x="349.90234375" xlink:href="#BitstreamVeraSans-Roman-35"/>
      <use x="413.525390625" xlink:href="#BitstreamVeraSans-Roman-32"/>
      <use x="477.1484375" xlink:href="#BitstreamVeraSans-Roman-37"/>
     </g>
    </g>
   </g>
   <g id="text_25">
    <g clip-path="url(#p9b83db8db2)">
     <!-- 0.0688117 -->
     <g style="fill:#0000ff;" transform="translate(220.686525579 91.1500461268)rotate(-348.5367298878058)scale(0.08 -0.08)">
      <use xlink:href="#BitstreamVeraSans-Roman-30"/>
      <use x="63.623046875" xlink:href="#BitstreamVeraSans-Roman-2e"/>
      <use x="95.41015625" xlink:href="#BitstreamVeraSans-Roman-30"/>
      <use x="159.033203125" xlink:href="#BitstreamVeraSans-Roman-36"/>
      <use x="222.65625" xlink:href="#BitstreamVeraSans-Roman-38"/>
      <use x="286.279296875" xlink:href="#BitstreamVeraSans-Roman-38"/>
      <use x="349.90234375" xlink:href="#BitstreamVeraSans-Roman-31"/>
      <use x="413.525390625" xlink:href="#BitstreamVeraSans-Roman-31"/>
      <use x="477.1484375" xlink:href="#BitstreamVeraSans-Roman-37"/>
     </g>
    </g>
   </g>
   <g id="text_26">
    <g clip-path="url(#p9b83db8db2)">
     <!-- 0.169078 -->
     <defs>
      <path d="M 10.984375 1.515625 
L 10.984375 10.5 
Q 14.703125 8.734375 18.5 7.8125 
Q 22.3125 6.890625 25.984375 6.890625 
Q 35.75 6.890625 40.890625 13.453125 
Q 46.046875 20.015625 46.78125 33.40625 
Q 43.953125 29.203125 39.59375 26.953125 
Q 35.25 24.703125 29.984375 24.703125 
Q 19.046875 24.703125 12.671875 31.3125 
Q 6.296875 37.9375 6.296875 49.421875 
Q 6.296875 60.640625 12.9375 67.421875 
Q 19.578125 74.21875 30.609375 74.21875 
Q 43.265625 74.21875 49.921875 64.515625 
Q 56.59375 54.828125 56.59375 36.375 
Q 56.59375 19.140625 48.40625 8.859375 
Q 40.234375 -1.421875 26.421875 -1.421875 
Q 22.703125 -1.421875 18.890625 -0.6875 
Q 15.09375 0.046875 10.984375 1.515625 
M 30.609375 32.421875 
Q 37.25 32.421875 41.125 36.953125 
Q 45.015625 41.5 45.015625 49.421875 
Q 45.015625 57.28125 41.125 61.84375 
Q 37.25 66.40625 30.609375 66.40625 
Q 23.96875 66.40625 20.09375 61.84375 
Q 16.21875 57.28125 16.21875 49.421875 
Q 16.21875 41.5 20.09375 36.953125 
Q 23.96875 32.421875 30.609375 32.421875 
" id="BitstreamVeraSans-Roman-39"/>
     </defs>
     <g style="fill:#0000ff;" transform="translate(205.043170076 171.765551061)rotate(-2.487532464691106)scale(0.08 -0.08)">
      <use xlink:href="#BitstreamVeraSans-Roman-30"/>
      <use x="63.623046875" xlink:href="#BitstreamVeraSans-Roman-2e"/>
      <use x="95.41015625" xlink:href="#BitstreamVeraSans-Roman-31"/>
      <use x="159.033203125" xlink:href="#BitstreamVeraSans-Roman-36"/>
      <use x="222.65625" xlink:href="#BitstreamVeraSans-Roman-39"/>
      <use x="286.279296875" xlink:href="#BitstreamVeraSans-Roman-30"/>
      <use x="349.90234375" xlink:href="#BitstreamVeraSans-Roman-37"/>
      <use x="413.525390625" xlink:href="#BitstreamVeraSans-Roman-38"/>
     </g>
    </g>
   </g>
   <g id="text_27">
    <!-- [X0,X1] iso-PDF -->
    <defs>
     <path d="M 30.421875 75.984375 
L 30.421875 -13.1875 
L 9.71875 -13.1875 
L 9.71875 -6.203125 
L 21.390625 -6.203125 
L 21.390625 69 
L 9.71875 69 
L 9.71875 75.984375 
z
" id="BitstreamVeraSans-Roman-5d"/>
     <path d="M 11.71875 12.40625 
L 22.015625 12.40625 
L 22.015625 4 
L 14.015625 -11.625 
L 7.71875 -11.625 
L 11.71875 4 
z
" id="BitstreamVeraSans-Roman-2c"/>
     <path id="BitstreamVeraSans-Roman-20"/>
     <path d="M 19.671875 64.796875 
L 19.671875 8.109375 
L 31.59375 8.109375 
Q 46.6875 8.109375 53.6875 14.9375 
Q 60.6875 21.78125 60.6875 36.53125 
Q 60.6875 51.171875 53.6875 57.984375 
Q 46.6875 64.796875 31.59375 64.796875 
z
M 9.8125 72.90625 
L 30.078125 72.90625 
Q 51.265625 72.90625 61.171875 64.09375 
Q 71.09375 55.28125 71.09375 36.53125 
Q 71.09375 17.671875 61.125 8.828125 
Q 51.171875 0 30.078125 0 
L 9.8125 0 
z
" id="BitstreamVeraSans-Roman-44"/>
     <path d="M 19.671875 64.796875 
L 19.671875 37.40625 
L 32.078125 37.40625 
Q 38.96875 37.40625 42.71875 40.96875 
Q 46.484375 44.53125 46.484375 51.125 
Q 46.484375 57.671875 42.71875 61.234375 
Q 38.96875 64.796875 32.078125 64.796875 
z
M 9.8125 72.90625 
L 32.078125 72.90625 
Q 44.34375 72.90625 50.609375 67.359375 
Q 56.890625 61.8125 56.890625 51.125 
Q 56.890625 40.328125 50.609375 34.8125 
Q 44.34375 29.296875 32.078125 29.296875 
L 19.671875 29.296875 
L 19.671875 0 
L 9.8125 0 
z
" id="BitstreamVeraSans-Roman-50"/>
     <path d="M 9.421875 54.6875 
L 18.40625 54.6875 
L 18.40625 0 
L 9.421875 0 
z
M 9.421875 75.984375 
L 18.40625 75.984375 
L 18.40625 64.59375 
L 9.421875 64.59375 
z
" id="BitstreamVeraSans-Roman-69"/>
     <path d="M 9.8125 72.90625 
L 51.703125 72.90625 
L 51.703125 64.59375 
L 19.671875 64.59375 
L 19.671875 43.109375 
L 48.578125 43.109375 
L 48.578125 34.8125 
L 19.671875 34.8125 
L 19.671875 0 
L 9.8125 0 
z
" id="BitstreamVeraSans-Roman-46"/>
     <path d="M 44.28125 53.078125 
L 44.28125 44.578125 
Q 40.484375 46.53125 36.375 47.5 
Q 32.28125 48.484375 27.875 48.484375 
Q 21.1875 48.484375 17.84375 46.4375 
Q 14.5 44.390625 14.5 40.28125 
Q 14.5 37.15625 16.890625 35.375 
Q 19.28125 33.59375 26.515625 31.984375 
L 29.59375 31.296875 
Q 39.15625 29.25 43.1875 25.515625 
Q 47.21875 21.78125 47.21875 15.09375 
Q 47.21875 7.46875 41.1875 3.015625 
Q 35.15625 -1.421875 24.609375 -1.421875 
Q 20.21875 -1.421875 15.453125 -0.5625 
Q 10.6875 0.296875 5.421875 2 
L 5.421875 11.28125 
Q 10.40625 8.6875 15.234375 7.390625 
Q 20.0625 6.109375 24.8125 6.109375 
Q 31.15625 6.109375 34.5625 8.28125 
Q 37.984375 10.453125 37.984375 14.40625 
Q 37.984375 18.0625 35.515625 20.015625 
Q 33.0625 21.96875 24.703125 23.78125 
L 21.578125 24.515625 
Q 13.234375 26.265625 9.515625 29.90625 
Q 5.8125 33.546875 5.8125 39.890625 
Q 5.8125 47.609375 11.28125 51.796875 
Q 16.75 56 26.8125 56 
Q 31.78125 56 36.171875 55.265625 
Q 40.578125 54.546875 44.28125 53.078125 
" id="BitstreamVeraSans-Roman-73"/>
     <path d="M 4.890625 31.390625 
L 31.203125 31.390625 
L 31.203125 23.390625 
L 4.890625 23.390625 
z
" id="BitstreamVeraSans-Roman-2d"/>
     <path d="M 8.59375 75.984375 
L 29.296875 75.984375 
L 29.296875 69 
L 17.578125 69 
L 17.578125 -6.203125 
L 29.296875 -6.203125 
L 29.296875 -13.1875 
L 8.59375 -13.1875 
z
" id="BitstreamVeraSans-Roman-5b"/>
     <path d="M 30.609375 48.390625 
Q 23.390625 48.390625 19.1875 42.75 
Q 14.984375 37.109375 14.984375 27.296875 
Q 14.984375 17.484375 19.15625 11.84375 
Q 23.34375 6.203125 30.609375 6.203125 
Q 37.796875 6.203125 41.984375 11.859375 
Q 46.1875 17.53125 46.1875 27.296875 
Q 46.1875 37.015625 41.984375 42.703125 
Q 37.796875 48.390625 30.609375 48.390625 
M 30.609375 56 
Q 42.328125 56 49.015625 48.375 
Q 55.71875 40.765625 55.71875 27.296875 
Q 55.71875 13.875 49.015625 6.21875 
Q 42.328125 -1.421875 30.609375 -1.421875 
Q 18.84375 -1.421875 12.171875 6.21875 
Q 5.515625 13.875 5.515625 27.296875 
Q 5.515625 40.765625 12.171875 48.375 
Q 18.84375 56 30.609375 56 
" id="BitstreamVeraSans-Roman-6f"/>
    </defs>
    <g transform="translate(174.73125 23.8)scale(0.12 -0.12)">
     <use xlink:href="#BitstreamVeraSans-Roman-5b"/>
     <use x="39.013671875" xlink:href="#BitstreamVeraSans-Roman-58"/>
     <use x="107.51953125" xlink:href="#BitstreamVeraSans-Roman-30"/>
     <use x="171.142578125" xlink:href="#BitstreamVeraSans-Roman-2c"/>
     <use x="202.9296875" xlink:href="#BitstreamVeraSans-Roman-58"/>
     <use x="271.435546875" xlink:href="#BitstreamVeraSans-Roman-31"/>
     <use x="335.05859375" xlink:href="#BitstreamVeraSans-Roman-5d"/>
     <use x="374.072265625" xlink:href="#BitstreamVeraSans-Roman-20"/>
     <use x="405.859375" xlink:href="#BitstreamVeraSans-Roman-69"/>
     <use x="433.642578125" xlink:href="#BitstreamVeraSans-Roman-73"/>
     <use x="485.7421875" xlink:href="#BitstreamVeraSans-Roman-6f"/>
     <use x="546.939453125" xlink:href="#BitstreamVeraSans-Roman-2d"/>
     <use x="583.0234375" xlink:href="#BitstreamVeraSans-Roman-50"/>
     <use x="643.326171875" xlink:href="#BitstreamVeraSans-Roman-44"/>
     <use x="720.328125" xlink:href="#BitstreamVeraSans-Roman-46"/>
    </g>
   </g>
   <g id="legend_1">
    <g id="patch_7">
     <path d="M 274.01875 53.478125 
L 383.8 53.478125 
Q 385.8 53.478125 385.8 51.478125 
L 385.8 37.8 
Q 385.8 35.8 383.8 35.8 
L 274.01875 35.8 
Q 272.01875 35.8 272.01875 37.8 
L 272.01875 51.478125 
Q 272.01875 53.478125 274.01875 53.478125 
z
" style="fill:#4c4c4c;opacity:0.5;stroke:#4c4c4c;stroke-linejoin:miter;"/>
    </g>
    <g id="patch_8">
     <path d="M 272.01875 51.478125 
L 381.8 51.478125 
Q 383.8 51.478125 383.8 49.478125 
L 383.8 35.8 
Q 383.8 33.8 381.8 33.8 
L 272.01875 33.8 
Q 270.01875 33.8 270.01875 35.8 
L 270.01875 49.478125 
Q 270.01875 51.478125 272.01875 51.478125 
z
" style="fill:#ffffff;stroke:#000000;stroke-linejoin:miter;"/>
    </g>
    <g id="line2d_37">
     <path d="M 277.01875 41.898438 
L 284.01875 41.898438 
L 291.01875 41.898438 
" style="fill:none;stroke:#0000ff;stroke-linecap:square;"/>
    </g>
    <g id="text_28">
     <!-- [X0,X1] iso-PDF -->
     <g transform="translate(302.01875 45.3984375)scale(0.1 -0.1)">
      <use xlink:href="#BitstreamVeraSans-Roman-5b"/>
      <use x="39.013671875" xlink:href="#BitstreamVeraSans-Roman-58"/>
      <use x="107.51953125" xlink:href="#BitstreamVeraSans-Roman-30"/>
      <use x="171.142578125" xlink:href="#BitstreamVeraSans-Roman-2c"/>
      <use x="202.9296875" xlink:href="#BitstreamVeraSans-Roman-58"/>
      <use x="271.435546875" xlink:href="#BitstreamVeraSans-Roman-31"/>
      <use x="335.05859375" xlink:href="#BitstreamVeraSans-Roman-5d"/>
      <use x="374.072265625" xlink:href="#BitstreamVeraSans-Roman-20"/>
      <use x="405.859375" xlink:href="#BitstreamVeraSans-Roman-69"/>
      <use x="433.642578125" xlink:href="#BitstreamVeraSans-Roman-73"/>
      <use x="485.7421875" xlink:href="#BitstreamVeraSans-Roman-6f"/>
      <use x="546.939453125" xlink:href="#BitstreamVeraSans-Roman-2d"/>
      <use x="583.0234375" xlink:href="#BitstreamVeraSans-Roman-50"/>
      <use x="643.326171875" xlink:href="#BitstreamVeraSans-Roman-44"/>
      <use x="720.328125" xlink:href="#BitstreamVeraSans-Roman-46"/>
     </g>
    </g>
   </g>
  </g>
 </g>
 <defs>
  <clipPath id="p9b83db8db2">
   <rect height="223.2" width="334.8" x="54.0" y="28.8"/>
  </clipPath>
 </defs>
</svg>
