<?xml version="1.0" encoding="utf-8" standalone="no"?>
<!DOCTYPE svg PUBLIC "-//W3C//DTD SVG 1.1//EN"
  "http://www.w3.org/Graphics/SVG/1.1/DTD/svg11.dtd">
<!-- Created with matplotlib (http://matplotlib.org/) -->
<svg height="288pt" version="1.1" viewBox="0 0 432 288" width="432pt" xmlns="http://www.w3.org/2000/svg" xmlns:xlink="http://www.w3.org/1999/xlink">
 <defs>
  <style type="text/css">
*{stroke-linecap:butt;stroke-linejoin:round;}
  </style>
 </defs>
 <g id="figure_1">
  <g id="patch_1">
   <path d="M 0 288 
L 432 288 
L 432 0 
L 0 0 
z
" style="fill:#ffffff;"/>
  </g>
  <g id="axes_1">
   <g id="patch_2">
    <path d="M 54 252 
L 388.8 252 
L 388.8 34.56 
L 54 34.56 
z
" style="fill:#ffffff;"/>
   </g>
   <g id="matplotlib.axis_1">
    <g id="xtick_1">
     <g id="line2d_1">
      <path clip-path="url(#pa6d0f6d06f)" d="M 71.902251 252 
L 71.902251 34.56 
" style="fill:none;stroke:#b0b0b0;stroke-linecap:square;stroke-width:0.8;"/>
     </g>
     <g id="line2d_2">
      <defs>
       <path d="M 0 0 
L 0 3.5 
" id="m5a1be01305" style="stroke:#000000;stroke-width:0.8;"/>
      </defs>
      <g>
       <use style="stroke:#000000;stroke-width:0.8;" x="71.902251" xlink:href="#m5a1be01305" y="252"/>
      </g>
     </g>
     <g id="text_1">
      <!-- −0.25 -->
      <defs>
       <path d="M 10.59375 35.5 
L 73.1875 35.5 
L 73.1875 27.203125 
L 10.59375 27.203125 
z
" id="DejaVuSans-2212"/>
       <path d="M 31.78125 66.40625 
Q 24.171875 66.40625 20.328125 58.90625 
Q 16.5 51.421875 16.5 36.375 
Q 16.5 21.390625 20.328125 13.890625 
Q 24.171875 6.390625 31.78125 6.390625 
Q 39.453125 6.390625 43.28125 13.890625 
Q 47.125 21.390625 47.125 36.375 
Q 47.125 51.421875 43.28125 58.90625 
Q 39.453125 66.40625 31.78125 66.40625 
z
M 31.78125 74.21875 
Q 44.046875 74.21875 50.515625 64.515625 
Q 56.984375 54.828125 56.984375 36.375 
Q 56.984375 17.96875 50.515625 8.265625 
Q 44.046875 -1.421875 31.78125 -1.421875 
Q 19.53125 -1.421875 13.0625 8.265625 
Q 6.59375 17.96875 6.59375 36.375 
Q 6.59375 54.828125 13.0625 64.515625 
Q 19.53125 74.21875 31.78125 74.21875 
z
" id="DejaVuSans-30"/>
       <path d="M 10.6875 12.40625 
L 21 12.40625 
L 21 0 
L 10.6875 0 
z
" id="DejaVuSans-2e"/>
       <path d="M 19.1875 8.296875 
L 53.609375 8.296875 
L 53.609375 0 
L 7.328125 0 
L 7.328125 8.296875 
Q 12.9375 14.109375 22.625 23.890625 
Q 32.328125 33.6875 34.8125 36.53125 
Q 39.546875 41.84375 41.421875 45.53125 
Q 43.3125 49.21875 43.3125 52.78125 
Q 43.3125 58.59375 39.234375 62.25 
Q 35.15625 65.921875 28.609375 65.921875 
Q 23.96875 65.921875 18.8125 64.3125 
Q 13.671875 62.703125 7.8125 59.421875 
L 7.8125 69.390625 
Q 13.765625 71.78125 18.9375 73 
Q 24.125 74.21875 28.421875 74.21875 
Q 39.75 74.21875 46.484375 68.546875 
Q 53.21875 62.890625 53.21875 53.421875 
Q 53.21875 48.921875 51.53125 44.890625 
Q 49.859375 40.875 45.40625 35.40625 
Q 44.1875 33.984375 37.640625 27.21875 
Q 31.109375 20.453125 19.1875 8.296875 
z
" id="DejaVuSans-32"/>
       <path d="M 10.796875 72.90625 
L 49.515625 72.90625 
L 49.515625 64.59375 
L 19.828125 64.59375 
L 19.828125 46.734375 
Q 21.96875 47.46875 24.109375 47.828125 
Q 26.265625 48.1875 28.421875 48.1875 
Q 40.625 48.1875 47.75 41.5 
Q 54.890625 34.8125 54.890625 23.390625 
Q 54.890625 11.625 47.5625 5.09375 
Q 40.234375 -1.421875 26.90625 -1.421875 
Q 22.3125 -1.421875 17.546875 -0.640625 
Q 12.796875 0.140625 7.71875 1.703125 
L 7.71875 11.625 
Q 12.109375 9.234375 16.796875 8.0625 
Q 21.484375 6.890625 26.703125 6.890625 
Q 35.15625 6.890625 40.078125 11.328125 
Q 45.015625 15.765625 45.015625 23.390625 
Q 45.015625 31 40.078125 35.4375 
Q 35.15625 39.890625 26.703125 39.890625 
Q 22.75 39.890625 18.8125 39.015625 
Q 14.890625 38.140625 10.796875 36.28125 
z
" id="DejaVuSans-35"/>
      </defs>
      <g transform="translate(56.579594 266.598437)scale(0.1 -0.1)">
       <use xlink:href="#DejaVuSans-2212"/>
       <use x="83.789062" xlink:href="#DejaVuSans-30"/>
       <use x="147.412109" xlink:href="#DejaVuSans-2e"/>
       <use x="179.199219" xlink:href="#DejaVuSans-32"/>
       <use x="242.822266" xlink:href="#DejaVuSans-35"/>
      </g>
     </g>
    </g>
    <g id="xtick_2">
     <g id="line2d_3">
      <path clip-path="url(#pa6d0f6d06f)" d="M 112.576868 252 
L 112.576868 34.56 
" style="fill:none;stroke:#b0b0b0;stroke-linecap:square;stroke-width:0.8;"/>
     </g>
     <g id="line2d_4">
      <g>
       <use style="stroke:#000000;stroke-width:0.8;" x="112.576868" xlink:href="#m5a1be01305" y="252"/>
      </g>
     </g>
     <g id="text_2">
      <!-- 0.00 -->
      <g transform="translate(101.444055 266.598437)scale(0.1 -0.1)">
       <use xlink:href="#DejaVuSans-30"/>
       <use x="63.623047" xlink:href="#DejaVuSans-2e"/>
       <use x="95.410156" xlink:href="#DejaVuSans-30"/>
       <use x="159.033203" xlink:href="#DejaVuSans-30"/>
      </g>
     </g>
    </g>
    <g id="xtick_3">
     <g id="line2d_5">
      <path clip-path="url(#pa6d0f6d06f)" d="M 153.251485 252 
L 153.251485 34.56 
" style="fill:none;stroke:#b0b0b0;stroke-linecap:square;stroke-width:0.8;"/>
     </g>
     <g id="line2d_6">
      <g>
       <use style="stroke:#000000;stroke-width:0.8;" x="153.251485" xlink:href="#m5a1be01305" y="252"/>
      </g>
     </g>
     <g id="text_3">
      <!-- 0.25 -->
      <g transform="translate(142.118673 266.598437)scale(0.1 -0.1)">
       <use xlink:href="#DejaVuSans-30"/>
       <use x="63.623047" xlink:href="#DejaVuSans-2e"/>
       <use x="95.410156" xlink:href="#DejaVuSans-32"/>
       <use x="159.033203" xlink:href="#DejaVuSans-35"/>
      </g>
     </g>
    </g>
    <g id="xtick_4">
     <g id="line2d_7">
      <path clip-path="url(#pa6d0f6d06f)" d="M 193.926102 252 
L 193.926102 34.56 
" style="fill:none;stroke:#b0b0b0;stroke-linecap:square;stroke-width:0.8;"/>
     </g>
     <g id="line2d_8">
      <g>
       <use style="stroke:#000000;stroke-width:0.8;" x="193.926102" xlink:href="#m5a1be01305" y="252"/>
      </g>
     </g>
     <g id="text_4">
      <!-- 0.50 -->
      <g transform="translate(182.79329 266.598437)scale(0.1 -0.1)">
       <use xlink:href="#DejaVuSans-30"/>
       <use x="63.623047" xlink:href="#DejaVuSans-2e"/>
       <use x="95.410156" xlink:href="#DejaVuSans-35"/>
       <use x="159.033203" xlink:href="#DejaVuSans-30"/>
      </g>
     </g>
    </g>
    <g id="xtick_5">
     <g id="line2d_9">
      <path clip-path="url(#pa6d0f6d06f)" d="M 234.60072 252 
L 234.60072 34.56 
" style="fill:none;stroke:#b0b0b0;stroke-linecap:square;stroke-width:0.8;"/>
     </g>
     <g id="line2d_10">
      <g>
       <use style="stroke:#000000;stroke-width:0.8;" x="234.60072" xlink:href="#m5a1be01305" y="252"/>
      </g>
     </g>
     <g id="text_5">
      <!-- 0.75 -->
      <defs>
       <path d="M 8.203125 72.90625 
L 55.078125 72.90625 
L 55.078125 68.703125 
L 28.609375 0 
L 18.3125 0 
L 43.21875 64.59375 
L 8.203125 64.59375 
z
" id="DejaVuSans-37"/>
      </defs>
      <g transform="translate(223.467907 266.598437)scale(0.1 -0.1)">
       <use xlink:href="#DejaVuSans-30"/>
       <use x="63.623047" xlink:href="#DejaVuSans-2e"/>
       <use x="95.410156" xlink:href="#DejaVuSans-37"/>
       <use x="159.033203" xlink:href="#DejaVuSans-35"/>
      </g>
     </g>
    </g>
    <g id="xtick_6">
     <g id="line2d_11">
      <path clip-path="url(#pa6d0f6d06f)" d="M 275.275337 252 
L 275.275337 34.56 
" style="fill:none;stroke:#b0b0b0;stroke-linecap:square;stroke-width:0.8;"/>
     </g>
     <g id="line2d_12">
      <g>
       <use style="stroke:#000000;stroke-width:0.8;" x="275.275337" xlink:href="#m5a1be01305" y="252"/>
      </g>
     </g>
     <g id="text_6">
      <!-- 1.00 -->
      <defs>
       <path d="M 12.40625 8.296875 
L 28.515625 8.296875 
L 28.515625 63.921875 
L 10.984375 60.40625 
L 10.984375 69.390625 
L 28.421875 72.90625 
L 38.28125 72.90625 
L 38.28125 8.296875 
L 54.390625 8.296875 
L 54.390625 0 
L 12.40625 0 
z
" id="DejaVuSans-31"/>
      </defs>
      <g transform="translate(264.142525 266.598437)scale(0.1 -0.1)">
       <use xlink:href="#DejaVuSans-31"/>
       <use x="63.623047" xlink:href="#DejaVuSans-2e"/>
       <use x="95.410156" xlink:href="#DejaVuSans-30"/>
       <use x="159.033203" xlink:href="#DejaVuSans-30"/>
      </g>
     </g>
    </g>
    <g id="xtick_7">
     <g id="line2d_13">
      <path clip-path="url(#pa6d0f6d06f)" d="M 315.949954 252 
L 315.949954 34.56 
" style="fill:none;stroke:#b0b0b0;stroke-linecap:square;stroke-width:0.8;"/>
     </g>
     <g id="line2d_14">
      <g>
       <use style="stroke:#000000;stroke-width:0.8;" x="315.949954" xlink:href="#m5a1be01305" y="252"/>
      </g>
     </g>
     <g id="text_7">
      <!-- 1.25 -->
      <g transform="translate(304.817142 266.598437)scale(0.1 -0.1)">
       <use xlink:href="#DejaVuSans-31"/>
       <use x="63.623047" xlink:href="#DejaVuSans-2e"/>
       <use x="95.410156" xlink:href="#DejaVuSans-32"/>
       <use x="159.033203" xlink:href="#DejaVuSans-35"/>
      </g>
     </g>
    </g>
    <g id="xtick_8">
     <g id="line2d_15">
      <path clip-path="url(#pa6d0f6d06f)" d="M 356.624572 252 
L 356.624572 34.56 
" style="fill:none;stroke:#b0b0b0;stroke-linecap:square;stroke-width:0.8;"/>
     </g>
     <g id="line2d_16">
      <g>
       <use style="stroke:#000000;stroke-width:0.8;" x="356.624572" xlink:href="#m5a1be01305" y="252"/>
      </g>
     </g>
     <g id="text_8">
      <!-- 1.50 -->
      <g transform="translate(345.491759 266.598437)scale(0.1 -0.1)">
       <use xlink:href="#DejaVuSans-31"/>
       <use x="63.623047" xlink:href="#DejaVuSans-2e"/>
       <use x="95.410156" xlink:href="#DejaVuSans-35"/>
       <use x="159.033203" xlink:href="#DejaVuSans-30"/>
      </g>
     </g>
    </g>
    <g id="text_9">
     <!-- X0 -->
     <defs>
      <path d="M 6.296875 72.90625 
L 16.890625 72.90625 
L 35.015625 45.796875 
L 53.21875 72.90625 
L 63.8125 72.90625 
L 40.375 37.890625 
L 65.375 0 
L 54.78125 0 
L 34.28125 31 
L 13.625 0 
L 2.984375 0 
L 29 38.921875 
z
" id="DejaVuSans-58"/>
     </defs>
     <g transform="translate(214.79375 280.276563)scale(0.1 -0.1)">
      <use xlink:href="#DejaVuSans-58"/>
      <use x="68.505859" xlink:href="#DejaVuSans-30"/>
     </g>
    </g>
   </g>
   <g id="matplotlib.axis_2">
    <g id="ytick_1">
     <g id="line2d_17">
      <path clip-path="url(#pa6d0f6d06f)" d="M 54 230.771496 
L 388.8 230.771496 
" style="fill:none;stroke:#b0b0b0;stroke-linecap:square;stroke-width:0.8;"/>
     </g>
     <g id="line2d_18">
      <defs>
       <path d="M 0 0 
L -3.5 0 
" id="m042b6530ee" style="stroke:#000000;stroke-width:0.8;"/>
      </defs>
      <g>
       <use style="stroke:#000000;stroke-width:0.8;" x="54" xlink:href="#m042b6530ee" y="230.771496"/>
      </g>
     </g>
     <g id="text_10">
      <!-- 1.6 -->
      <defs>
       <path d="M 33.015625 40.375 
Q 26.375 40.375 22.484375 35.828125 
Q 18.609375 31.296875 18.609375 23.390625 
Q 18.609375 15.53125 22.484375 10.953125 
Q 26.375 6.390625 33.015625 6.390625 
Q 39.65625 6.390625 43.53125 10.953125 
Q 47.40625 15.53125 47.40625 23.390625 
Q 47.40625 31.296875 43.53125 35.828125 
Q 39.65625 40.375 33.015625 40.375 
z
M 52.59375 71.296875 
L 52.59375 62.3125 
Q 48.875 64.0625 45.09375 64.984375 
Q 41.3125 65.921875 37.59375 65.921875 
Q 27.828125 65.921875 22.671875 59.328125 
Q 17.53125 52.734375 16.796875 39.40625 
Q 19.671875 43.65625 24.015625 45.921875 
Q 28.375 48.1875 33.59375 48.1875 
Q 44.578125 48.1875 50.953125 41.515625 
Q 57.328125 34.859375 57.328125 23.390625 
Q 57.328125 12.15625 50.6875 5.359375 
Q 44.046875 -1.421875 33.015625 -1.421875 
Q 20.359375 -1.421875 13.671875 8.265625 
Q 6.984375 17.96875 6.984375 36.375 
Q 6.984375 53.65625 15.1875 63.9375 
Q 23.390625 74.21875 37.203125 74.21875 
Q 40.921875 74.21875 44.703125 73.484375 
Q 48.484375 72.75 52.59375 71.296875 
z
" id="DejaVuSans-36"/>
      </defs>
      <g transform="translate(31.096875 234.570715)scale(0.1 -0.1)">
       <use xlink:href="#DejaVuSans-31"/>
       <use x="63.623047" xlink:href="#DejaVuSans-2e"/>
       <use x="95.410156" xlink:href="#DejaVuSans-36"/>
      </g>
     </g>
    </g>
    <g id="ytick_2">
     <g id="line2d_19">
      <path clip-path="url(#pa6d0f6d06f)" d="M 54 193.366459 
L 388.8 193.366459 
" style="fill:none;stroke:#b0b0b0;stroke-linecap:square;stroke-width:0.8;"/>
     </g>
     <g id="line2d_20">
      <g>
       <use style="stroke:#000000;stroke-width:0.8;" x="54" xlink:href="#m042b6530ee" y="193.366459"/>
      </g>
     </g>
     <g id="text_11">
      <!-- 1.8 -->
      <defs>
       <path d="M 31.78125 34.625 
Q 24.75 34.625 20.71875 30.859375 
Q 16.703125 27.09375 16.703125 20.515625 
Q 16.703125 13.921875 20.71875 10.15625 
Q 24.75 6.390625 31.78125 6.390625 
Q 38.8125 6.390625 42.859375 10.171875 
Q 46.921875 13.96875 46.921875 20.515625 
Q 46.921875 27.09375 42.890625 30.859375 
Q 38.875 34.625 31.78125 34.625 
z
M 21.921875 38.8125 
Q 15.578125 40.375 12.03125 44.71875 
Q 8.5 49.078125 8.5 55.328125 
Q 8.5 64.0625 14.71875 69.140625 
Q 20.953125 74.21875 31.78125 74.21875 
Q 42.671875 74.21875 48.875 69.140625 
Q 55.078125 64.0625 55.078125 55.328125 
Q 55.078125 49.078125 51.53125 44.71875 
Q 48 40.375 41.703125 38.8125 
Q 48.828125 37.15625 52.796875 32.3125 
Q 56.78125 27.484375 56.78125 20.515625 
Q 56.78125 9.90625 50.3125 4.234375 
Q 43.84375 -1.421875 31.78125 -1.421875 
Q 19.734375 -1.421875 13.25 4.234375 
Q 6.78125 9.90625 6.78125 20.515625 
Q 6.78125 27.484375 10.78125 32.3125 
Q 14.796875 37.15625 21.921875 38.8125 
z
M 18.3125 54.390625 
Q 18.3125 48.734375 21.84375 45.5625 
Q 25.390625 42.390625 31.78125 42.390625 
Q 38.140625 42.390625 41.71875 45.5625 
Q 45.3125 48.734375 45.3125 54.390625 
Q 45.3125 60.0625 41.71875 63.234375 
Q 38.140625 66.40625 31.78125 66.40625 
Q 25.390625 66.40625 21.84375 63.234375 
Q 18.3125 60.0625 18.3125 54.390625 
z
" id="DejaVuSans-38"/>
      </defs>
      <g transform="translate(31.096875 197.165678)scale(0.1 -0.1)">
       <use xlink:href="#DejaVuSans-31"/>
       <use x="63.623047" xlink:href="#DejaVuSans-2e"/>
       <use x="95.410156" xlink:href="#DejaVuSans-38"/>
      </g>
     </g>
    </g>
    <g id="ytick_3">
     <g id="line2d_21">
      <path clip-path="url(#pa6d0f6d06f)" d="M 54 155.961423 
L 388.8 155.961423 
" style="fill:none;stroke:#b0b0b0;stroke-linecap:square;stroke-width:0.8;"/>
     </g>
     <g id="line2d_22">
      <g>
       <use style="stroke:#000000;stroke-width:0.8;" x="54" xlink:href="#m042b6530ee" y="155.961423"/>
      </g>
     </g>
     <g id="text_12">
      <!-- 2.0 -->
      <g transform="translate(31.096875 159.760642)scale(0.1 -0.1)">
       <use xlink:href="#DejaVuSans-32"/>
       <use x="63.623047" xlink:href="#DejaVuSans-2e"/>
       <use x="95.410156" xlink:href="#DejaVuSans-30"/>
      </g>
     </g>
    </g>
    <g id="ytick_4">
     <g id="line2d_23">
      <path clip-path="url(#pa6d0f6d06f)" d="M 54 118.556386 
L 388.8 118.556386 
" style="fill:none;stroke:#b0b0b0;stroke-linecap:square;stroke-width:0.8;"/>
     </g>
     <g id="line2d_24">
      <g>
       <use style="stroke:#000000;stroke-width:0.8;" x="54" xlink:href="#m042b6530ee" y="118.556386"/>
      </g>
     </g>
     <g id="text_13">
      <!-- 2.2 -->
      <g transform="translate(31.096875 122.355605)scale(0.1 -0.1)">
       <use xlink:href="#DejaVuSans-32"/>
       <use x="63.623047" xlink:href="#DejaVuSans-2e"/>
       <use x="95.410156" xlink:href="#DejaVuSans-32"/>
      </g>
     </g>
    </g>
    <g id="ytick_5">
     <g id="line2d_25">
      <path clip-path="url(#pa6d0f6d06f)" d="M 54 81.15135 
L 388.8 81.15135 
" style="fill:none;stroke:#b0b0b0;stroke-linecap:square;stroke-width:0.8;"/>
     </g>
     <g id="line2d_26">
      <g>
       <use style="stroke:#000000;stroke-width:0.8;" x="54" xlink:href="#m042b6530ee" y="81.15135"/>
      </g>
     </g>
     <g id="text_14">
      <!-- 2.4 -->
      <defs>
       <path d="M 37.796875 64.3125 
L 12.890625 25.390625 
L 37.796875 25.390625 
z
M 35.203125 72.90625 
L 47.609375 72.90625 
L 47.609375 25.390625 
L 58.015625 25.390625 
L 58.015625 17.1875 
L 47.609375 17.1875 
L 47.609375 0 
L 37.796875 0 
L 37.796875 17.1875 
L 4.890625 17.1875 
L 4.890625 26.703125 
z
" id="DejaVuSans-34"/>
      </defs>
      <g transform="translate(31.096875 84.950568)scale(0.1 -0.1)">
       <use xlink:href="#DejaVuSans-32"/>
       <use x="63.623047" xlink:href="#DejaVuSans-2e"/>
       <use x="95.410156" xlink:href="#DejaVuSans-34"/>
      </g>
     </g>
    </g>
    <g id="ytick_6">
     <g id="line2d_27">
      <path clip-path="url(#pa6d0f6d06f)" d="M 54 43.746313 
L 388.8 43.746313 
" style="fill:none;stroke:#b0b0b0;stroke-linecap:square;stroke-width:0.8;"/>
     </g>
     <g id="line2d_28">
      <g>
       <use style="stroke:#000000;stroke-width:0.8;" x="54" xlink:href="#m042b6530ee" y="43.746313"/>
      </g>
     </g>
     <g id="text_15">
      <!-- 2.6 -->
      <g transform="translate(31.096875 47.545532)scale(0.1 -0.1)">
       <use xlink:href="#DejaVuSans-32"/>
       <use x="63.623047" xlink:href="#DejaVuSans-2e"/>
       <use x="95.410156" xlink:href="#DejaVuSans-36"/>
      </g>
     </g>
    </g>
    <g id="text_16">
     <!-- X1 -->
     <g transform="translate(25.017187 149.88625)rotate(-90)scale(0.1 -0.1)">
      <use xlink:href="#DejaVuSans-58"/>
      <use x="68.505859" xlink:href="#DejaVuSans-31"/>
     </g>
    </g>
   </g>
   <g id="LineCollection_1">
    <path clip-path="url(#pa6d0f6d06f)" d="M 69.218182 147.439457 
L 69.322693 147.912955 
L 69.374927 148.141318 
" style="fill:none;stroke:#0000ff;stroke-width:1.5;"/>
    <path clip-path="url(#pa6d0f6d06f)" d="M 87.231393 192.856435 
L 88.157534 194.2425 
L 88.240909 194.364012 
L 89.241963 195.786818 
L 90.37081 197.331136 
L 90.61875 197.660741 
L 91.557194 198.875455 
L 92.795541 200.419773 
L 92.996591 200.663509 
L 94.100159 201.964091 
L 95.374432 203.410001 
L 95.463744 203.508409 
L 96.904701 205.052727 
L 97.752273 205.929577 
L 98.41777 206.597045 
L 100.01053 208.141364 
L 100.130114 208.25413 
L 101.698568 209.685682 
L 102.507955 210.400134 
L 103.48035 211.23 
L 104.885795 212.391416 
L 105.365575 212.774318 
L 107.263636 214.242859 
L 107.365159 214.318636 
L 109.494089 215.862955 
L 109.641477 215.966862 
L 111.762774 217.407273 
L 112.019318 217.576619 
L 114.184232 218.951591 
L 114.397159 219.083209 
L 116.775 220.495909 
L 119.152841 221.821457 
L 119.561772 222.040227 
L 121.530682 223.068429 
L 122.561555 223.584545 
L 123.908523 224.243541 
L 125.797879 225.128864 
L 126.286364 225.352777 
L 128.664205 226.39992 
L 129.310887 226.673182 
L 131.042045 227.389975 
L 133.133615 228.2175 
L 133.419886 228.328594 
L 135.797727 229.217039 
L 137.322999 229.761818 
L 138.175568 230.060963 
L 140.553409 230.862158 
L 141.929367 231.306136 
L 142.93125 231.624188 
L 145.309091 232.349037 
L 147.027994 232.850455 
L 147.686932 233.039833 
L 150.064773 233.697634 
L 152.442614 234.32589 
L 152.712958 234.394773 
L 154.820455 234.924787 
L 157.198295 235.497287 
L 159.112919 235.939091 
L 159.576136 236.044724 
L 161.953977 236.567833 
L 164.331818 237.068815 
L 166.383317 237.483409 
L 166.709659 237.54869 
L 169.0875 238.008114 
L 171.465341 238.448741 
L 173.843182 238.87149 
L 174.75449 239.027727 
L 176.221023 239.277052 
L 178.598864 239.666418 
L 180.976705 240.040484 
L 183.354545 240.399968 
L 184.534544 240.572045 
L 185.732386 240.745549 
L 188.110227 241.077936 
L 190.488068 241.397756 
L 192.865909 241.705578 
L 195.24375 242.001937 
L 196.193806 242.116364 
" style="fill:none;stroke:#0000ff;stroke-width:1.5;"/>
   </g>
   <g id="LineCollection_2">
    <path clip-path="url(#pa6d0f6d06f)" d="M 75.973071 44.443636 
L 76.033441 45.987955 
L 76.095593 47.532273 
L 76.118046 48.07427 
" style="fill:none;stroke:#0000ff;stroke-width:1.5;"/>
    <path clip-path="url(#pa6d0f6d06f)" d="M 79.309492 96.36222 
L 80.392572 106.216364 
L 81.625419 115.482273 
L 82.852293 123.203864 
L 84.307368 130.925455 
L 85.863068 137.882837 
L 87.267329 143.28 
L 89.137198 149.457273 
L 90.762654 154.090227 
L 92.996591 159.627417 
L 94.668572 163.356136 
L 96.958062 167.989091 
L 99.519693 172.622045 
L 101.403417 175.710682 
L 103.446217 178.799318 
L 105.66917 181.887955 
L 108.096909 184.976591 
L 110.758194 188.065227 
L 114.397159 191.860784 
L 116.92334 194.2425 
L 120.529436 197.331136 
L 123.908523 199.946047 
L 126.761014 201.964091 
L 131.600808 205.052727 
L 135.797727 207.436917 
L 140.553409 209.856924 
L 145.309091 212.019618 
L 150.993929 214.318636 
L 157.198295 216.53048 
L 164.331818 218.748826 
L 171.465341 220.678822 
L 178.598864 222.368467 
L 185.732386 223.855896 
L 195.24375 225.576079 
L 204.755114 227.047116 
L 214.266477 228.312944 
L 226.155682 229.658749 
L 238.044886 230.790186 
L 252.311932 231.920206 
L 268.956818 232.989315 
L 287.979545 233.957408 
L 309.380114 234.799427 
L 333.158523 235.505591 
L 361.692614 236.119331 
L 373.581818 236.317893 
L 373.581818 236.317893 
" style="fill:none;stroke:#0000ff;stroke-width:1.5;"/>
   </g>
   <g id="LineCollection_3">
    <path clip-path="url(#pa6d0f6d06f)" d="M 90.146734 44.443636 
L 91.030105 59.886818 
L 91.94162 72.241364 
L 93.085183 84.595909 
L 94.328316 95.406136 
L 95.622406 104.672045 
L 96.903683 112.393636 
L 98.412986 120.115227 
L 100.130114 127.533879 
L 101.451008 132.469773 
L 103.347762 138.647045 
L 104.98287 143.28 
L 106.841739 147.912955 
L 108.96609 152.545909 
L 111.409034 157.178864 
L 114.166445 161.811818 
L 116.775 165.74265 
L 119.562141 169.533409 
L 122.060473 172.622045 
L 124.793713 175.710682 
L 128.664205 179.643061 
L 131.101868 181.887955 
L 134.778171 184.976591 
L 138.874785 188.065227 
L 143.477331 191.153864 
L 147.686932 193.67921 
L 152.442614 196.237275 
L 157.969868 198.875455 
L 161.953977 200.589096 
L 166.709659 202.450494 
L 171.465341 204.138744 
L 178.598864 206.391873 
L 185.732386 208.359856 
L 192.865909 210.088955 
L 199.999432 211.61608 
L 209.510795 213.388279 
L 219.022159 214.90919 
L 228.533523 216.222135 
L 240.422727 217.622314 
L 253.969792 218.951591 
L 266.578977 219.985248 
L 283.223864 221.107034 
L 289.963326 221.495809 
L 289.963326 221.495809 
" style="fill:none;stroke:#0000ff;stroke-width:1.5;"/>
    <path clip-path="url(#pa6d0f6d06f)" d="M 338.320839 223.492831 
L 340.292045 223.551378 
L 341.441675 223.584545 
L 342.669886 223.62007 
L 345.047727 223.686878 
L 347.425568 223.751728 
L 349.803409 223.814678 
L 352.18125 223.875782 
L 354.559091 223.935095 
L 356.936932 223.992667 
L 359.314773 224.048549 
L 361.692614 224.102789 
L 364.070455 224.155434 
L 366.448295 224.206529 
L 368.826136 224.256118 
L 371.203977 224.304244 
L 373.581818 224.350947 
" style="fill:none;stroke:#0000ff;stroke-width:1.5;"/>
   </g>
   <g id="LineCollection_4">
    <path clip-path="url(#pa6d0f6d06f)" d="M 105.649323 44.443636 
L 106.540728 56.798182 
L 107.663963 69.152727 
L 108.88332 79.962955 
L 110.146777 89.228864 
L 111.661028 98.494773 
L 113.160467 106.216364 
L 114.548 112.393636 
L 116.140278 118.570909 
L 117.976349 124.748182 
L 119.543873 129.381136 
L 121.530682 134.56141 
L 123.301952 138.647045 
L 125.570855 143.28 
L 127.26351 146.368636 
L 129.122182 149.457273 
L 131.172634 152.545909 
L 133.44584 155.634545 
L 135.952873 158.723182 
L 138.687817 161.811818 
L 141.680913 164.900455 
L 145.309091 168.294184 
L 148.601681 171.077727 
L 152.632443 174.166364 
L 157.198295 177.293256 
L 162.215783 180.343636 
L 166.709659 182.786707 
L 171.465341 185.117183 
L 176.221023 187.218873 
L 182.271453 189.609545 
L 188.110227 191.662367 
L 195.24375 193.878386 
L 202.377273 195.824418 
L 209.510795 197.54181 
L 216.644318 199.064919 
L 226.155682 200.840049 
L 235.667045 202.370155 
L 242.536734 203.345697 
L 242.536734 203.345697 
" style="fill:none;stroke:#0000ff;stroke-width:1.5;"/>
    <path clip-path="url(#pa6d0f6d06f)" d="M 290.697468 208.067434 
L 291.772551 208.141364 
L 292.735227 208.207523 
L 295.113068 208.366205 
L 297.490909 208.520023 
L 299.86875 208.669139 
L 302.246591 208.81371 
L 304.624432 208.953886 
L 307.002273 209.089811 
L 309.380114 209.221623 
L 311.757955 209.349455 
L 314.135795 209.473436 
L 316.513636 209.593689 
L 318.388049 209.685682 
L 318.891477 209.710411 
L 321.269318 209.823926 
L 323.647159 209.934054 
L 326.025 210.040902 
L 328.402841 210.144571 
L 330.780682 210.245158 
L 333.158523 210.342759 
L 335.536364 210.437463 
L 337.914205 210.52936 
L 340.292045 210.618533 
L 342.669886 210.705065 
L 345.047727 210.789035 
L 347.425568 210.870518 
L 349.803409 210.949589 
L 352.18125 211.02632 
L 354.559091 211.100778 
L 356.936932 211.17303 
L 358.868552 211.23 
L 359.314773 211.243193 
L 361.692614 211.311492 
L 364.070455 211.377768 
L 366.448295 211.44208 
L 368.826136 211.504485 
L 371.203977 211.565036 
L 373.581818 211.623787 
" style="fill:none;stroke:#0000ff;stroke-width:1.5;"/>
   </g>
   <g id="LineCollection_5">
    <path clip-path="url(#pa6d0f6d06f)" d="M 122.886157 44.443636 
L 123.018596 45.987955 
L 123.155064 47.532273 
L 123.216166 48.203424 
" style="fill:none;stroke:#0000ff;stroke-width:1.5;"/>
    <path clip-path="url(#pa6d0f6d06f)" d="M 130.350056 96.037869 
L 131.706024 101.583409 
L 133.42088 107.760682 
L 135.394084 113.937955 
L 137.073536 118.570909 
L 138.953494 123.203864 
L 141.069601 127.836818 
L 143.466014 132.469773 
L 146.197699 137.102727 
L 148.237467 140.191364 
L 150.482952 143.28 
L 152.966017 146.368636 
L 155.724593 149.457273 
L 158.803926 152.545909 
L 162.262521 155.634545 
L 166.709659 159.153601 
L 171.465341 162.500014 
L 176.221023 165.483266 
L 180.976705 168.157581 
L 186.814363 171.077727 
L 190.488068 172.743096 
L 195.24375 174.719476 
L 202.072102 177.255 
L 207.132955 178.935871 
L 214.266477 181.057592 
L 221.4 182.93196 
L 228.533523 184.595116 
L 235.667045 186.076803 
L 245.178409 187.811942 
L 254.689773 189.314615 
L 264.201136 190.622133 
L 276.090341 192.026982 
L 287.979545 193.219419 
L 302.246591 194.42037 
L 318.891477 195.565273 
L 335.536364 196.48963 
L 354.559091 197.331136 
L 373.581818 197.993416 
L 373.581818 197.993416 
" style="fill:none;stroke:#0000ff;stroke-width:1.5;"/>
   </g>
   <g id="LineCollection_6">
    <path clip-path="url(#pa6d0f6d06f)" d="M 142.302071 44.443636 
L 142.480517 45.987955 
L 142.664465 47.532273 
L 142.854055 49.076591 
L 142.93125 49.687713 
L 143.049925 50.620909 
L 143.2521 52.165227 
L 143.460424 53.709545 
L 143.675065 55.253864 
L 143.896197 56.798182 
L 144.124003 58.3425 
L 144.358673 59.886818 
L 144.600405 61.431136 
L 144.849406 62.975455 
L 145.105893 64.519773 
L 145.309091 65.708457 
L 145.370397 66.064091 
L 145.643938 67.608409 
L 145.925754 69.152727 
L 146.216104 70.697045 
L 146.51526 72.241364 
L 146.823508 73.785682 
L 147.141144 75.33 
L 147.468479 76.874318 
L 147.686932 77.875786 
L 147.806542 78.418636 
L 148.156365 79.962955 
L 148.517034 81.507273 
L 148.888929 83.051591 
L 149.272444 84.595909 
L 149.667997 86.140227 
L 150.064773 87.642174 
L 150.076096 87.684545 
L 150.49992 89.228864 
L 150.937328 90.773182 
L 151.388831 92.3175 
L 151.854965 93.861818 
L 152.336293 95.406136 
L 152.442614 95.737904 
L 152.636938 96.336309 
" style="fill:none;stroke:#0000ff;stroke-width:1.5;"/>
    <path clip-path="url(#pa6d0f6d06f)" d="M 176.476575 137.938816 
L 177.184081 138.647045 
L 178.598864 140.010021 
L 178.792227 140.191364 
L 180.495637 141.735682 
L 180.976705 142.156445 
L 182.298046 143.28 
L 183.354545 144.145997 
L 184.206502 144.824318 
L 185.732386 145.996304 
L 186.231893 146.368636 
L 188.110227 147.720271 
L 188.386382 147.912955 
L 190.488068 149.329621 
L 190.683552 149.457273 
L 192.865909 150.834993 
L 193.138563 151.001591 
L 195.24375 152.246043 
L 195.76833 152.545909 
L 197.621591 153.571532 
L 198.591724 154.090227 
L 199.999432 154.819405 
L 201.629789 155.634545 
L 202.377273 155.998268 
L 204.755114 157.11499 
L 204.895575 157.178864 
L 207.132955 158.178462 
L 208.398502 158.723182 
L 209.510795 159.194016 
L 211.888636 160.16434 
L 212.14975 160.2675 
L 214.266477 161.090872 
L 216.193475 161.811818 
L 216.644318 161.978004 
L 219.022159 162.826439 
L 220.563742 163.356136 
L 221.4 163.639547 
L 223.777841 164.41851 
L 225.304448 164.900455 
L 226.155682 165.165781 
L 228.533523 165.882482 
L 230.471388 166.444773 
L 230.911364 166.570943 
L 233.289205 167.231695 
L 235.667045 167.867169 
L 236.137915 167.989091 
L 238.044886 168.47772 
L 240.422727 169.06517 
L 242.388573 169.533409 
L 242.800568 169.630606 
L 245.178409 170.174629 
L 247.55625 170.698759 
L 249.33696 171.077727 
L 249.934091 171.203742 
L 252.311932 171.690276 
L 254.689773 172.159447 
L 257.067614 172.61197 
L 257.122124 172.622045 
L 259.445455 173.048435 
L 261.823295 173.469678 
L 264.201136 173.876312 
L 265.954969 174.166364 
L 266.578977 174.268938 
L 268.956818 174.64819 
L 271.334659 175.014569 
L 273.7125 175.368575 
L 276.090341 175.710682 
L 278.468182 176.04159 
L 280.846023 176.36154 
L 283.223864 176.670941 
L 285.601705 176.970184 
L 287.941199 177.255 
L 287.979545 177.259651 
L 290.357386 177.540038 
L 292.735227 177.811378 
L 295.113068 178.073996 
L 297.490909 178.328202 
L 299.86875 178.574295 
L 302.113932 178.799318 
L 302.246591 178.812582 
L 304.624432 179.043702 
L 307.002273 179.26755 
L 309.380114 179.484375 
L 311.757955 179.694416 
L 314.135795 179.897903 
L 316.513636 180.095057 
L 318.891477 180.286089 
L 319.62902 180.343636 
L 321.269318 180.471495 
L 323.647159 180.651316 
L 326.025 180.82561 
L 328.402841 180.994556 
L 330.780682 181.158328 
L 333.158523 181.317091 
L 335.536364 181.471006 
L 337.914205 181.620227 
L 340.292045 181.764902 
L 342.377348 181.887955 
L 342.669886 181.905222 
L 345.047727 182.041619 
L 347.425568 182.173885 
L 349.803409 182.302146 
L 352.18125 182.426526 
L 354.559091 182.547143 
L 356.936932 182.664111 
L 359.314773 182.777542 
L 361.692614 182.887543 
L 364.070455 182.994215 
L 366.448295 183.097659 
L 368.826136 183.197972 
L 371.203977 183.295246 
L 373.581818 183.389572 
" style="fill:none;stroke:#0000ff;stroke-width:1.5;"/>
   </g>
   <g id="LineCollection_7">
    <path clip-path="url(#pa6d0f6d06f)" d="M 165.107517 44.443636 
L 165.35716 45.987955 
L 165.614649 47.532273 
L 165.88019 49.076591 
L 166.154002 50.620909 
L 166.436311 52.165227 
L 166.709659 53.615955 
L 166.727468 53.709545 
L 167.029475 55.253864 
L 167.34082 56.798182 
L 167.661775 58.3425 
L 167.992625 59.886818 
L 168.333668 61.431136 
L 168.685212 62.975455 
L 169.047583 64.519773 
L 169.0875 64.685409 
L 169.423567 66.064091 
L 169.811502 67.608409 
L 170.211474 69.152727 
L 170.623874 70.697045 
L 171.049114 72.241364 
L 171.465341 73.70756 
L 171.4878 73.785682 
L 171.943675 75.33 
L 172.413931 76.874318 
L 172.899071 78.418636 
L 173.399619 79.962955 
L 173.843182 81.290176 
L 173.916756 81.507273 
L 174.454463 83.051591 
L 175.009561 84.595909 
L 175.582694 86.140227 
L 176.174539 87.684545 
L 176.221023 87.802644 
L 176.791097 89.228864 
L 177.42857 90.773182 
L 178.087325 92.3175 
L 178.598864 93.479638 
L 178.769879 93.861818 
L 179.48083 95.406136 
L 180.216106 96.950455 
L 180.976705 98.494773 
L 181.772001 100.039091 
L 182.595246 101.583409 
L 183.354545 102.96025 
L 183.448653 103.127727 
L 184.341282 104.672045 
L 185.266185 106.216364 
L 185.732386 106.970667 
L 186.230509 107.760682 
L 187.236046 109.305 
L 188.110227 110.601211 
L 188.281094 110.849318 
L 189.376534 112.393636 
L 190.488068 113.903399 
L 190.514073 113.937955 
L 191.710032 115.482273 
L 192.865909 116.91973 
L 192.953833 117.026591 
L 194.262498 118.570909 
L 195.24375 119.687577 
L 195.62867 120.115227 
L 197.064063 121.659545 
L 197.621591 122.239787 
L 198.571462 123.203864 
L 199.999432 124.60263 
L 200.151907 124.748182 
L 201.820451 126.2925 
L 202.377273 126.790849 
L 203.577876 127.836818 
L 204.755114 128.828126 
L 205.430278 129.381136 
L 207.132955 130.729983 
L 207.386817 130.925455 
L 209.458479 132.469773 
L 209.510795 132.507586 
L 211.657764 134.014091 
L 211.888636 134.171005 
L 213.992936 135.558409 
L 214.266477 135.733208 
L 216.477441 137.102727 
L 216.644318 137.202976 
L 219.022159 138.587352 
L 219.127945 138.647045 
L 221.4 139.891751 
L 221.965268 140.191364 
L 223.777841 141.124662 
L 225.005317 141.735682 
L 226.155682 142.292305 
L 228.268799 143.28 
L 228.533523 143.400347 
L 230.911364 144.448202 
L 231.794687 144.824318 
L 233.289205 145.443869 
L 235.602866 146.368636 
L 235.667045 146.393626 
L 238.044886 147.292288 
L 239.749502 147.912955 
L 240.422727 148.151971 
L 242.800568 148.969375 
L 244.271438 149.457273 
L 245.178409 149.75089 
L 247.55625 150.495768 
L 249.230075 151.001591 
L 249.934091 151.209411 
L 252.311932 151.889411 
L 254.689773 152.544065 
L 254.696671 152.545909 
L 257.067614 153.165919 
L 259.445455 153.764984 
L 260.780467 154.090227 
L 261.823295 154.338894 
L 264.201136 154.887959 
L 266.578977 155.417381 
L 267.586025 155.634545 
L 268.956818 155.925306 
L 271.334659 156.413442 
L 273.7125 156.884495 
L 275.24836 157.178864 
L 276.090341 157.339074 
L 278.468182 157.77784 
L 280.690006 158.173764 
" style="fill:none;stroke:#0000ff;stroke-width:1.5;"/>
    <path clip-path="url(#pa6d0f6d06f)" d="M 328.686387 164.302806 
L 330.780682 164.490118 
L 333.158523 164.696151 
L 335.536364 164.895764 
L 335.593847 164.900455 
L 337.914205 165.089586 
L 340.292045 165.277418 
L 342.669886 165.459445 
L 345.047727 165.635852 
L 347.425568 165.806818 
L 349.803409 165.972517 
L 352.18125 166.133114 
L 354.559091 166.28877 
L 356.936932 166.439639 
L 357.020199 166.444773 
L 359.314773 166.586257 
L 361.692614 166.728395 
L 364.070455 166.86618 
L 366.448295 166.999742 
L 368.826136 167.129213 
L 371.203977 167.254715 
L 373.581818 167.37637 
" style="fill:none;stroke:#0000ff;stroke-width:1.5;"/>
   </g>
   <g id="LineCollection_8">
    <path clip-path="url(#pa6d0f6d06f)" d="M 192.647108 44.443636 
L 192.865909 45.373826 
L 192.889566 45.47318 
" style="fill:none;stroke:#0000ff;stroke-width:1.5;"/>
    <path clip-path="url(#pa6d0f6d06f)" d="M 210.920545 90.133231 
L 211.334955 90.773182 
L 211.888636 91.602444 
L 212.376012 92.3175 
L 213.461054 93.861818 
L 214.266477 94.971501 
L 214.588788 95.406136 
L 215.767954 96.950455 
L 216.644318 98.060925 
L 216.994438 98.494773 
L 218.278089 100.039091 
L 219.022159 100.905984 
L 219.617272 101.583409 
L 221.017188 103.127727 
L 221.4 103.537671 
L 222.485185 104.672045 
L 223.777841 105.979174 
L 224.018284 106.216364 
L 225.630219 107.760682 
L 226.155682 108.248807 
L 227.322268 109.305 
L 228.533523 110.367283 
L 229.097824 110.849318 
L 230.911364 112.350826 
L 230.964484 112.393636 
L 232.936289 113.937955 
L 233.289205 114.206146 
L 235.016079 115.482273 
L 235.667045 115.949154 
L 237.212896 117.026591 
L 238.044886 117.589716 
L 239.537592 118.570909 
L 240.422727 119.136232 
L 242.002097 120.115227 
L 242.800568 120.596405 
L 244.619523 121.659545 
L 245.178409 121.977293 
L 247.404276 123.203864 
L 247.55625 123.285369 
L 249.934091 124.523182 
L 250.380116 124.748182 
L 252.311932 125.697479 
L 253.563221 126.2925 
L 254.689773 126.814617 
L 256.970497 127.836818 
L 257.067614 127.879263 
L 259.445455 128.888597 
L 260.645958 129.381136 
L 261.823295 129.85256 
L 264.201136 130.773297 
L 264.606256 130.925455 
L 266.578977 131.649162 
L 268.897942 132.469773 
L 268.956818 132.490133 
L 271.334659 133.289163 
L 273.572723 134.014091 
L 273.7125 134.05837 
L 276.090341 134.790187 
L 278.468182 135.495661 
L 278.685964 135.558409 
L 280.846023 136.167704 
L 283.223864 136.815114 
L 284.314461 137.102727 
L 285.601705 137.435311 
L 287.979545 138.030216 
L 290.357386 138.604428 
L 290.539043 138.647045 
L 292.735227 139.152303 
L 295.113068 139.680861 
L 297.490909 140.191364 
L 299.86875 140.678445 
L 302.246591 141.149103 
L 304.624432 141.603952 
L 305.334036 141.735682 
L 307.002273 142.039899 
L 309.380114 142.459845 
L 311.757955 142.865905 
L 314.135795 143.25858 
L 314.269253 143.28 
L 316.513636 143.634207 
L 318.891477 143.997344 
L 321.269318 144.348676 
L 323.647159 144.688619 
L 324.625401 144.824318 
L 326.025 145.015402 
L 328.402841 145.330208 
L 330.780682 145.634929 
L 333.158523 145.929909 
L 335.536364 146.21548 
L 336.85121 146.368636 
L 337.914205 146.490625 
L 340.292045 146.755447 
L 342.669886 147.0119 
L 345.047727 147.260262 
L 347.425568 147.500799 
L 349.803409 147.733769 
L 351.690323 147.912955 
L 352.18125 147.958933 
L 354.559091 148.175236 
L 356.936932 148.384777 
L 359.314773 148.587772 
L 361.692614 148.78443 
L 364.070455 148.974951 
L 366.448295 149.15953 
L 368.826136 149.338352 
L 370.45696 149.457273 
L 371.203977 149.511058 
L 373.581818 149.677243 
" style="fill:none;stroke:#0000ff;stroke-width:1.5;"/>
   </g>
   <g id="LineCollection_9">
    <path clip-path="url(#pa6d0f6d06f)" d="M 227.556805 44.443636 
L 228.131417 45.987955 
L 228.533523 47.035684 
L 228.72726 47.532273 
L 229.347681 49.076591 
L 229.988492 50.620909 
L 230.650308 52.165227 
L 230.911364 52.756939 
L 231.339009 53.709545 
L 232.053613 55.253864 
L 232.791618 56.798182 
L 233.289205 57.80834 
L 233.557158 58.3425 
L 234.354389 59.886818 
L 235.177809 61.431136 
L 235.667045 62.32174 
L 236.033066 62.975455 
L 236.923221 64.519773 
L 237.84282 66.064091 
L 238.044886 66.394211 
L 238.803085 67.608409 
L 239.798198 69.152727 
L 240.422727 70.093095 
L 240.832211 70.697045 
L 241.910004 72.241364 
L 242.800568 73.477522 
L 243.027377 73.785682 
L 244.195891 75.33 
L 245.178409 76.587422 
L 245.4076 76.874318 
L 246.675867 78.418636 
L 247.55625 79.457552 
L 247.994447 79.962955 
L 249.372629 81.507273 
L 249.934091 82.118223 
L 250.812388 83.051591 
L 252.311932 84.595909 
L 253.88921 86.140227 
L 254.689773 86.900426 
L 255.536408 87.684545 
L 257.067614 89.06069 
L 257.259572 89.228864 
L 259.071535 90.773182 
L 259.445455 91.082981 
L 260.975234 92.3175 
L 261.823295 92.982468 
L 262.975311 93.861818 
L 264.201136 94.771453 
L 265.080214 95.406136 
L 266.578977 96.458644 
L 267.299178 96.950455 
L 268.956818 98.052048 
L 269.642293 98.494773 
L 271.334659 99.559025 
L 272.120583 100.039091 
L 273.7125 100.986345 
L 274.746088 101.583409 
L 276.090341 102.340235 
L 277.531953 103.127727 
L 278.468182 103.626421 
L 280.492534 104.672045 
L 280.846023 104.850172 
L 283.223864 106.013352 
L 283.651571 106.216364 
L 285.601705 107.120076 
L 287.029241 107.760682 
L 287.979545 108.177225 
L 290.357386 109.186976 
L 290.643612 109.305 
L 292.735227 110.148049 
L 294.534409 110.849318 
L 295.113068 111.069882 
L 297.490909 111.949392 
L 298.731454 112.393636 
L 299.86875 112.792187 
L 302.246591 113.599443 
L 303.275555 113.937955 
L 304.624432 114.372501 
L 307.002273 115.11429 
L 308.219967 115.482273 
L 309.380114 115.82581 
L 311.757955 116.508179 
L 311.971724 116.567511 
" style="fill:none;stroke:#0000ff;stroke-width:1.5;"/>
    <path clip-path="url(#pa6d0f6d06f)" d="M 359.427241 125.880699 
L 361.692614 126.179958 
L 362.570619 126.2925 
L 364.070455 126.481885 
L 366.448295 126.772973 
L 368.826136 127.05481 
L 371.203977 127.327693 
L 373.581818 127.591911 
" style="fill:none;stroke:#0000ff;stroke-width:1.5;"/>
   </g>
   <g id="LineCollection_10">
    <path clip-path="url(#pa6d0f6d06f)" d="M 282.598138 44.443636 
L 283.223864 45.305842 
L 283.243234 45.331948 
" style="fill:none;stroke:#0000ff;stroke-width:1.5;"/>
    <path clip-path="url(#pa6d0f6d06f)" d="M 320.112287 76.008808 
L 321.269318 76.606401 
L 321.803804 76.874318 
L 323.647159 77.776608 
L 324.9997 78.418636 
L 326.025 78.894107 
L 328.402841 79.962955 
L 330.780682 80.978696 
L 332.058163 81.507273 
L 333.158523 81.952546 
L 335.536364 82.885208 
L 335.973265 83.051591 
L 337.914205 83.774933 
L 340.191188 84.595909 
L 340.292045 84.63151 
L 342.669886 85.447284 
L 344.758536 86.140227 
L 345.047727 86.234212 
L 347.425568 86.984902 
L 349.71785 87.684545 
L 349.803409 87.710141 
L 352.18125 88.401437 
L 354.559091 89.069792 
L 355.142201 89.228864 
L 356.936932 89.709083 
L 359.314773 90.325091 
L 361.101252 90.773182 
L 361.692614 90.918743 
L 364.070455 91.486835 
L 366.448295 92.036308 
L 367.70376 92.3175 
L 368.826136 92.564357 
L 371.203977 93.071431 
L 373.581818 93.561972 
" style="fill:none;stroke:#0000ff;stroke-width:1.5;"/>
   </g>
   <g id="line2d_29">
    <path clip-path="url(#pa6d0f6d06f)" d="M 69.218182 242.116364 
L 72.344897 239.425199 
L 75.444472 236.769287 
L 78.518099 234.147875 
L 81.566913 231.560241 
L 84.591994 229.0057 
L 87.594374 226.483596 
L 90.575037 223.993301 
L 93.534927 221.534214 
L 96.474947 219.105761 
L 99.395963 216.707388 
L 102.298809 214.338566 
L 105.184286 211.998785 
L 108.053166 209.687553 
L 110.906196 207.404398 
L 113.744097 205.148865 
L 116.567565 202.920512 
L 119.377278 200.718916 
L 122.173893 198.543665 
L 124.958047 196.394361 
L 127.730362 194.270618 
L 130.491446 192.172064 
L 133.241891 190.098336 
L 135.982276 188.049081 
L 138.71317 186.023957 
L 141.43513 184.022632 
L 144.148704 182.04478 
L 146.854432 180.090087 
L 149.552847 178.158244 
L 152.244474 176.248952 
L 154.929833 174.361915 
L 157.609441 172.496849 
L 160.28381 170.653472 
L 162.953447 168.831511 
L 165.618862 167.030698 
L 168.28056 165.250769 
L 170.939046 163.491466 
L 173.594828 161.752538 
L 176.248413 160.033736 
L 178.900311 158.334817 
L 181.551036 156.655541 
L 184.201105 154.991916 
L 186.85104 153.327357 
L 189.501369 151.659886 
L 192.152627 149.989441 
L 194.805357 148.315958 
L 197.46011 146.639365 
L 200.117448 144.959583 
L 202.777942 143.276528 
L 205.442176 141.59011 
L 208.110747 139.900231 
L 210.784268 138.206786 
L 213.463366 136.509662 
L 216.148684 134.808739 
L 218.840887 133.103888 
L 221.540658 131.394972 
L 224.248702 129.681845 
L 226.965747 127.964349 
L 229.692549 126.242319 
L 232.42989 124.515579 
L 235.178581 122.783939 
L 237.939468 121.047201 
L 240.713429 119.305151 
L 243.501382 117.557565 
L 246.304284 115.804203 
L 249.123137 114.04481 
L 251.958992 112.279115 
L 254.812949 110.506832 
L 257.686167 108.727655 
L 260.579863 106.941261 
L 263.495322 105.147303 
L 266.433902 103.345415 
L 269.397037 101.535206 
L 272.386248 99.71626 
L 275.403149 97.888134 
L 278.449457 96.050354 
L 281.527002 94.202415 
L 284.637735 92.343776 
L 287.783746 90.473861 
L 290.967272 88.592049 
L 294.190717 86.697677 
L 297.456671 84.790032 
L 300.767924 82.868345 
L 304.127498 80.93179 
L 307.538668 78.979474 
L 311.004995 77.010431 
L 314.530362 75.023615 
L 318.119014 73.017889 
L 321.775611 70.992015 
L 325.505278 68.944641 
L 329.313681 66.874289 
L 333.207098 64.779334 
L 337.192523 62.657986 
L 341.277773 60.508267 
L 345.471633 58.327982 
L 349.784024 56.114682 
L 354.22621 53.865629 
L 358.811059 51.577739 
L 363.553369 49.247522 
L 368.470283 46.871006 
L 373.581818 44.443636 
" style="fill:none;stroke:#ff0000;stroke-linecap:square;stroke-width:2;"/>
   </g>
   <g id="patch_3">
    <path d="M 54 252 
L 54 34.56 
" style="fill:none;stroke:#000000;stroke-linecap:square;stroke-linejoin:miter;stroke-width:0.8;"/>
   </g>
   <g id="patch_4">
    <path d="M 388.8 252 
L 388.8 34.56 
" style="fill:none;stroke:#000000;stroke-linecap:square;stroke-linejoin:miter;stroke-width:0.8;"/>
   </g>
   <g id="patch_5">
    <path d="M 54 252 
L 388.8 252 
" style="fill:none;stroke:#000000;stroke-linecap:square;stroke-linejoin:miter;stroke-width:0.8;"/>
   </g>
   <g id="patch_6">
    <path d="M 54 34.56 
L 388.8 34.56 
" style="fill:none;stroke:#000000;stroke-linecap:square;stroke-linejoin:miter;stroke-width:0.8;"/>
   </g>
   <g id="text_17">
    <g clip-path="url(#pa6d0f6d06f)">
     <!-- 0.371181 -->
     <defs>
      <path d="M 40.578125 39.3125 
Q 47.65625 37.796875 51.625 33 
Q 55.609375 28.21875 55.609375 21.1875 
Q 55.609375 10.40625 48.1875 4.484375 
Q 40.765625 -1.421875 27.09375 -1.421875 
Q 22.515625 -1.421875 17.65625 -0.515625 
Q 12.796875 0.390625 7.625 2.203125 
L 7.625 11.71875 
Q 11.71875 9.328125 16.59375 8.109375 
Q 21.484375 6.890625 26.8125 6.890625 
Q 36.078125 6.890625 40.9375 10.546875 
Q 45.796875 14.203125 45.796875 21.1875 
Q 45.796875 27.640625 41.28125 31.265625 
Q 36.765625 34.90625 28.71875 34.90625 
L 20.21875 34.90625 
L 20.21875 43.015625 
L 29.109375 43.015625 
Q 36.375 43.015625 40.234375 45.921875 
Q 44.09375 48.828125 44.09375 54.296875 
Q 44.09375 59.90625 40.109375 62.90625 
Q 36.140625 65.921875 28.71875 65.921875 
Q 24.65625 65.921875 20.015625 65.03125 
Q 15.375 64.15625 9.8125 62.3125 
L 9.8125 71.09375 
Q 15.4375 72.65625 20.34375 73.4375 
Q 25.25 74.21875 29.59375 74.21875 
Q 40.828125 74.21875 47.359375 69.109375 
Q 53.90625 64.015625 53.90625 55.328125 
Q 53.90625 49.265625 50.4375 45.09375 
Q 46.96875 40.921875 40.578125 39.3125 
z
" id="DejaVuSans-33"/>
     </defs>
     <g style="fill:#0000ff;" transform="translate(67.293169 154.348385)rotate(-291.532137)scale(0.08 -0.08)">
      <use xlink:href="#DejaVuSans-30"/>
      <use x="63.623047" xlink:href="#DejaVuSans-2e"/>
      <use x="95.410156" xlink:href="#DejaVuSans-33"/>
      <use x="159.033203" xlink:href="#DejaVuSans-37"/>
      <use x="222.65625" xlink:href="#DejaVuSans-31"/>
      <use x="286.279297" xlink:href="#DejaVuSans-31"/>
      <use x="349.902344" xlink:href="#DejaVuSans-38"/>
      <use x="413.525391" xlink:href="#DejaVuSans-31"/>
     </g>
    </g>
   </g>
   <g id="text_18">
    <g clip-path="url(#pa6d0f6d06f)">
     <!-- 0.407869 -->
     <defs>
      <path d="M 10.984375 1.515625 
L 10.984375 10.5 
Q 14.703125 8.734375 18.5 7.8125 
Q 22.3125 6.890625 25.984375 6.890625 
Q 35.75 6.890625 40.890625 13.453125 
Q 46.046875 20.015625 46.78125 33.40625 
Q 43.953125 29.203125 39.59375 26.953125 
Q 35.25 24.703125 29.984375 24.703125 
Q 19.046875 24.703125 12.671875 31.3125 
Q 6.296875 37.9375 6.296875 49.421875 
Q 6.296875 60.640625 12.9375 67.421875 
Q 19.578125 74.21875 30.609375 74.21875 
Q 43.265625 74.21875 49.921875 64.515625 
Q 56.59375 54.828125 56.59375 36.375 
Q 56.59375 19.140625 48.40625 8.859375 
Q 40.234375 -1.421875 26.421875 -1.421875 
Q 22.703125 -1.421875 18.890625 -0.6875 
Q 15.09375 0.046875 10.984375 1.515625 
z
M 30.609375 32.421875 
Q 37.25 32.421875 41.125 36.953125 
Q 45.015625 41.5 45.015625 49.421875 
Q 45.015625 57.28125 41.125 61.84375 
Q 37.25 66.40625 30.609375 66.40625 
Q 23.96875 66.40625 20.09375 61.84375 
Q 16.21875 57.28125 16.21875 49.421875 
Q 16.21875 41.5 20.09375 36.953125 
Q 23.96875 32.421875 30.609375 32.421875 
z
" id="DejaVuSans-39"/>
     </defs>
     <g style="fill:#0000ff;" transform="translate(73.923463 53.339477)rotate(-273.735387)scale(0.08 -0.08)">
      <use xlink:href="#DejaVuSans-30"/>
      <use x="63.623047" xlink:href="#DejaVuSans-2e"/>
      <use x="95.410156" xlink:href="#DejaVuSans-34"/>
      <use x="159.033203" xlink:href="#DejaVuSans-30"/>
      <use x="222.65625" xlink:href="#DejaVuSans-37"/>
      <use x="286.279297" xlink:href="#DejaVuSans-38"/>
      <use x="349.902344" xlink:href="#DejaVuSans-36"/>
      <use x="413.525391" xlink:href="#DejaVuSans-39"/>
     </g>
    </g>
   </g>
   <g id="text_19">
    <g clip-path="url(#pa6d0f6d06f)">
     <!-- 0.441111 -->
     <g style="fill:#0000ff;" transform="translate(294.975055 224.068054)rotate(-357.648931)scale(0.08 -0.08)">
      <use xlink:href="#DejaVuSans-30"/>
      <use x="63.623047" xlink:href="#DejaVuSans-2e"/>
      <use x="95.410156" xlink:href="#DejaVuSans-34"/>
      <use x="159.033203" xlink:href="#DejaVuSans-34"/>
      <use x="222.65625" xlink:href="#DejaVuSans-31"/>
      <use x="286.279297" xlink:href="#DejaVuSans-31"/>
      <use x="349.902344" xlink:href="#DejaVuSans-31"/>
      <use x="413.525391" xlink:href="#DejaVuSans-31"/>
     </g>
    </g>
   </g>
   <g id="text_20">
    <g clip-path="url(#pa6d0f6d06f)">
     <!-- 0.477716 -->
     <g style="fill:#0000ff;" transform="translate(247.368664 206.44046)rotate(-354.443586)scale(0.08 -0.08)">
      <use xlink:href="#DejaVuSans-30"/>
      <use x="63.623047" xlink:href="#DejaVuSans-2e"/>
      <use x="95.410156" xlink:href="#DejaVuSans-34"/>
      <use x="159.033203" xlink:href="#DejaVuSans-37"/>
      <use x="222.65625" xlink:href="#DejaVuSans-37"/>
      <use x="286.279297" xlink:href="#DejaVuSans-37"/>
      <use x="349.902344" xlink:href="#DejaVuSans-31"/>
      <use x="413.525391" xlink:href="#DejaVuSans-36"/>
     </g>
    </g>
   </g>
   <g id="text_21">
    <g clip-path="url(#pa6d0f6d06f)">
     <!-- 0.518294 -->
     <g style="fill:#0000ff;" transform="translate(121.026137 53.679759)rotate(-278.370197)scale(0.08 -0.08)">
      <use xlink:href="#DejaVuSans-30"/>
      <use x="63.623047" xlink:href="#DejaVuSans-2e"/>
      <use x="95.410156" xlink:href="#DejaVuSans-35"/>
      <use x="159.033203" xlink:href="#DejaVuSans-31"/>
      <use x="222.65625" xlink:href="#DejaVuSans-38"/>
      <use x="286.279297" xlink:href="#DejaVuSans-32"/>
      <use x="349.902344" xlink:href="#DejaVuSans-39"/>
      <use x="413.525391" xlink:href="#DejaVuSans-34"/>
     </g>
    </g>
   </g>
   <g id="text_22">
    <g clip-path="url(#pa6d0f6d06f)">
     <!-- 0.563271 -->
     <g style="fill:#0000ff;" transform="translate(150.769167 103.051027)rotate(-299.524894)scale(0.08 -0.08)">
      <use xlink:href="#DejaVuSans-30"/>
      <use x="63.623047" xlink:href="#DejaVuSans-2e"/>
      <use x="95.410156" xlink:href="#DejaVuSans-35"/>
      <use x="159.033203" xlink:href="#DejaVuSans-36"/>
      <use x="222.65625" xlink:href="#DejaVuSans-33"/>
      <use x="286.279297" xlink:href="#DejaVuSans-32"/>
      <use x="349.902344" xlink:href="#DejaVuSans-37"/>
      <use x="413.525391" xlink:href="#DejaVuSans-31"/>
     </g>
    </g>
   </g>
   <g id="text_23">
    <g clip-path="url(#pa6d0f6d06f)">
     <!-- 0.614265 -->
     <g style="fill:#0000ff;" transform="translate(285.412096 161.522584)rotate(-352.776011)scale(0.08 -0.08)">
      <use xlink:href="#DejaVuSans-30"/>
      <use x="63.623047" xlink:href="#DejaVuSans-2e"/>
      <use x="95.410156" xlink:href="#DejaVuSans-36"/>
      <use x="159.033203" xlink:href="#DejaVuSans-31"/>
      <use x="222.65625" xlink:href="#DejaVuSans-34"/>
      <use x="286.279297" xlink:href="#DejaVuSans-32"/>
      <use x="349.902344" xlink:href="#DejaVuSans-36"/>
      <use x="413.525391" xlink:href="#DejaVuSans-35"/>
     </g>
    </g>
   </g>
   <g id="text_24">
    <g clip-path="url(#pa6d0f6d06f)">
     <!-- 0.671971 -->
     <g style="fill:#0000ff;" transform="translate(190.875233 51.676182)rotate(-291.754404)scale(0.08 -0.08)">
      <use xlink:href="#DejaVuSans-30"/>
      <use x="63.623047" xlink:href="#DejaVuSans-2e"/>
      <use x="95.410156" xlink:href="#DejaVuSans-36"/>
      <use x="159.033203" xlink:href="#DejaVuSans-37"/>
      <use x="222.65625" xlink:href="#DejaVuSans-31"/>
      <use x="286.279297" xlink:href="#DejaVuSans-39"/>
      <use x="349.902344" xlink:href="#DejaVuSans-37"/>
      <use x="413.525391" xlink:href="#DejaVuSans-31"/>
     </g>
    </g>
   </g>
   <g id="text_25">
    <g clip-path="url(#pa6d0f6d06f)">
     <!-- 0.737198 -->
     <g style="fill:#0000ff;" transform="translate(316.379715 120.568217)rotate(-348.994424)scale(0.08 -0.08)">
      <use xlink:href="#DejaVuSans-30"/>
      <use x="63.623047" xlink:href="#DejaVuSans-2e"/>
      <use x="95.410156" xlink:href="#DejaVuSans-37"/>
      <use x="159.033203" xlink:href="#DejaVuSans-33"/>
      <use x="222.65625" xlink:href="#DejaVuSans-37"/>
      <use x="286.279297" xlink:href="#DejaVuSans-31"/>
      <use x="349.902344" xlink:href="#DejaVuSans-39"/>
      <use x="413.525391" xlink:href="#DejaVuSans-38"/>
     </g>
    </g>
   </g>
   <g id="text_26">
    <g clip-path="url(#pa6d0f6d06f)">
     <!-- 0.819069 -->
     <g style="fill:#0000ff;" transform="translate(283.761542 52.356131)rotate(-320.36654)scale(0.08 -0.08)">
      <use xlink:href="#DejaVuSans-30"/>
      <use x="63.623047" xlink:href="#DejaVuSans-2e"/>
      <use x="95.410156" xlink:href="#DejaVuSans-38"/>
      <use x="159.033203" xlink:href="#DejaVuSans-31"/>
      <use x="222.65625" xlink:href="#DejaVuSans-39"/>
      <use x="286.279297" xlink:href="#DejaVuSans-30"/>
      <use x="349.902344" xlink:href="#DejaVuSans-36"/>
      <use x="413.525391" xlink:href="#DejaVuSans-39"/>
     </g>
    </g>
   </g>
   <g id="text_27">
    <!-- [X0,X1] Quantile -->
    <defs>
     <path d="M 8.59375 75.984375 
L 29.296875 75.984375 
L 29.296875 69 
L 17.578125 69 
L 17.578125 -6.203125 
L 29.296875 -6.203125 
L 29.296875 -13.1875 
L 8.59375 -13.1875 
z
" id="DejaVuSans-5b"/>
     <path d="M 11.71875 12.40625 
L 22.015625 12.40625 
L 22.015625 4 
L 14.015625 -11.625 
L 7.71875 -11.625 
L 11.71875 4 
z
" id="DejaVuSans-2c"/>
     <path d="M 30.421875 75.984375 
L 30.421875 -13.1875 
L 9.71875 -13.1875 
L 9.71875 -6.203125 
L 21.390625 -6.203125 
L 21.390625 69 
L 9.71875 69 
L 9.71875 75.984375 
z
" id="DejaVuSans-5d"/>
     <path id="DejaVuSans-20"/>
     <path d="M 39.40625 66.21875 
Q 28.65625 66.21875 22.328125 58.203125 
Q 16.015625 50.203125 16.015625 36.375 
Q 16.015625 22.609375 22.328125 14.59375 
Q 28.65625 6.59375 39.40625 6.59375 
Q 50.140625 6.59375 56.421875 14.59375 
Q 62.703125 22.609375 62.703125 36.375 
Q 62.703125 50.203125 56.421875 58.203125 
Q 50.140625 66.21875 39.40625 66.21875 
z
M 53.21875 1.3125 
L 66.21875 -12.890625 
L 54.296875 -12.890625 
L 43.5 -1.21875 
Q 41.890625 -1.3125 41.03125 -1.359375 
Q 40.1875 -1.421875 39.40625 -1.421875 
Q 24.03125 -1.421875 14.8125 8.859375 
Q 5.609375 19.140625 5.609375 36.375 
Q 5.609375 53.65625 14.8125 63.9375 
Q 24.03125 74.21875 39.40625 74.21875 
Q 54.734375 74.21875 63.90625 63.9375 
Q 73.09375 53.65625 73.09375 36.375 
Q 73.09375 23.6875 67.984375 14.640625 
Q 62.890625 5.609375 53.21875 1.3125 
z
" id="DejaVuSans-51"/>
     <path d="M 8.5 21.578125 
L 8.5 54.6875 
L 17.484375 54.6875 
L 17.484375 21.921875 
Q 17.484375 14.15625 20.5 10.265625 
Q 23.53125 6.390625 29.59375 6.390625 
Q 36.859375 6.390625 41.078125 11.03125 
Q 45.3125 15.671875 45.3125 23.6875 
L 45.3125 54.6875 
L 54.296875 54.6875 
L 54.296875 0 
L 45.3125 0 
L 45.3125 8.40625 
Q 42.046875 3.421875 37.71875 1 
Q 33.40625 -1.421875 27.6875 -1.421875 
Q 18.265625 -1.421875 13.375 4.4375 
Q 8.5 10.296875 8.5 21.578125 
z
M 31.109375 56 
z
" id="DejaVuSans-75"/>
     <path d="M 34.28125 27.484375 
Q 23.390625 27.484375 19.1875 25 
Q 14.984375 22.515625 14.984375 16.5 
Q 14.984375 11.71875 18.140625 8.90625 
Q 21.296875 6.109375 26.703125 6.109375 
Q 34.1875 6.109375 38.703125 11.40625 
Q 43.21875 16.703125 43.21875 25.484375 
L 43.21875 27.484375 
z
M 52.203125 31.203125 
L 52.203125 0 
L 43.21875 0 
L 43.21875 8.296875 
Q 40.140625 3.328125 35.546875 0.953125 
Q 30.953125 -1.421875 24.3125 -1.421875 
Q 15.921875 -1.421875 10.953125 3.296875 
Q 6 8.015625 6 15.921875 
Q 6 25.140625 12.171875 29.828125 
Q 18.359375 34.515625 30.609375 34.515625 
L 43.21875 34.515625 
L 43.21875 35.40625 
Q 43.21875 41.609375 39.140625 45 
Q 35.0625 48.390625 27.6875 48.390625 
Q 23 48.390625 18.546875 47.265625 
Q 14.109375 46.140625 10.015625 43.890625 
L 10.015625 52.203125 
Q 14.9375 54.109375 19.578125 55.046875 
Q 24.21875 56 28.609375 56 
Q 40.484375 56 46.34375 49.84375 
Q 52.203125 43.703125 52.203125 31.203125 
z
" id="DejaVuSans-61"/>
     <path d="M 54.890625 33.015625 
L 54.890625 0 
L 45.90625 0 
L 45.90625 32.71875 
Q 45.90625 40.484375 42.875 44.328125 
Q 39.84375 48.1875 33.796875 48.1875 
Q 26.515625 48.1875 22.3125 43.546875 
Q 18.109375 38.921875 18.109375 30.90625 
L 18.109375 0 
L 9.078125 0 
L 9.078125 54.6875 
L 18.109375 54.6875 
L 18.109375 46.1875 
Q 21.34375 51.125 25.703125 53.5625 
Q 30.078125 56 35.796875 56 
Q 45.21875 56 50.046875 50.171875 
Q 54.890625 44.34375 54.890625 33.015625 
z
" id="DejaVuSans-6e"/>
     <path d="M 18.3125 70.21875 
L 18.3125 54.6875 
L 36.8125 54.6875 
L 36.8125 47.703125 
L 18.3125 47.703125 
L 18.3125 18.015625 
Q 18.3125 11.328125 20.140625 9.421875 
Q 21.96875 7.515625 27.59375 7.515625 
L 36.8125 7.515625 
L 36.8125 0 
L 27.59375 0 
Q 17.1875 0 13.234375 3.875 
Q 9.28125 7.765625 9.28125 18.015625 
L 9.28125 47.703125 
L 2.6875 47.703125 
L 2.6875 54.6875 
L 9.28125 54.6875 
L 9.28125 70.21875 
z
" id="DejaVuSans-74"/>
     <path d="M 9.421875 54.6875 
L 18.40625 54.6875 
L 18.40625 0 
L 9.421875 0 
z
M 9.421875 75.984375 
L 18.40625 75.984375 
L 18.40625 64.59375 
L 9.421875 64.59375 
z
" id="DejaVuSans-69"/>
     <path d="M 9.421875 75.984375 
L 18.40625 75.984375 
L 18.40625 0 
L 9.421875 0 
z
" id="DejaVuSans-6c"/>
     <path d="M 56.203125 29.59375 
L 56.203125 25.203125 
L 14.890625 25.203125 
Q 15.484375 15.921875 20.484375 11.0625 
Q 25.484375 6.203125 34.421875 6.203125 
Q 39.59375 6.203125 44.453125 7.46875 
Q 49.3125 8.734375 54.109375 11.28125 
L 54.109375 2.78125 
Q 49.265625 0.734375 44.1875 -0.34375 
Q 39.109375 -1.421875 33.890625 -1.421875 
Q 20.796875 -1.421875 13.15625 6.1875 
Q 5.515625 13.8125 5.515625 26.8125 
Q 5.515625 40.234375 12.765625 48.109375 
Q 20.015625 56 32.328125 56 
Q 43.359375 56 49.78125 48.890625 
Q 56.203125 41.796875 56.203125 29.59375 
z
M 47.21875 32.234375 
Q 47.125 39.59375 43.09375 43.984375 
Q 39.0625 48.390625 32.421875 48.390625 
Q 24.90625 48.390625 20.390625 44.140625 
Q 15.875 39.890625 15.1875 32.171875 
z
" id="DejaVuSans-65"/>
    </defs>
    <g transform="translate(171.666562 28.56)scale(0.12 -0.12)">
     <use xlink:href="#DejaVuSans-5b"/>
     <use x="39.013672" xlink:href="#DejaVuSans-58"/>
     <use x="107.519531" xlink:href="#DejaVuSans-30"/>
     <use x="171.142578" xlink:href="#DejaVuSans-2c"/>
     <use x="202.929688" xlink:href="#DejaVuSans-58"/>
     <use x="271.435547" xlink:href="#DejaVuSans-31"/>
     <use x="335.058594" xlink:href="#DejaVuSans-5d"/>
     <use x="374.072266" xlink:href="#DejaVuSans-20"/>
     <use x="405.859375" xlink:href="#DejaVuSans-51"/>
     <use x="484.570312" xlink:href="#DejaVuSans-75"/>
     <use x="547.949219" xlink:href="#DejaVuSans-61"/>
     <use x="609.228516" xlink:href="#DejaVuSans-6e"/>
     <use x="672.607422" xlink:href="#DejaVuSans-74"/>
     <use x="711.816406" xlink:href="#DejaVuSans-69"/>
     <use x="739.599609" xlink:href="#DejaVuSans-6c"/>
     <use x="767.382812" xlink:href="#DejaVuSans-65"/>
    </g>
   </g>
   <g id="legend_1">
    <g id="patch_7">
     <path d="M 63 73.91625 
L 135.78125 73.91625 
Q 137.78125 73.91625 137.78125 71.91625 
L 137.78125 43.56 
Q 137.78125 41.56 135.78125 41.56 
L 63 41.56 
Q 61 41.56 61 43.56 
L 61 71.91625 
Q 61 73.91625 63 73.91625 
z
" style="fill:#4c4c4c;opacity:0.5;stroke:#4c4c4c;stroke-linejoin:miter;"/>
    </g>
    <g id="patch_8">
     <path d="M 61 71.91625 
L 133.78125 71.91625 
Q 135.78125 71.91625 135.78125 69.91625 
L 135.78125 41.56 
Q 135.78125 39.56 133.78125 39.56 
L 61 39.56 
Q 59 39.56 59 41.56 
L 59 69.91625 
Q 59 71.91625 61 71.91625 
z
" style="fill:#ffffff;stroke:#cccccc;stroke-linejoin:miter;"/>
    </g>
    <g id="line2d_30">
     <path d="M 63 47.658437 
L 83 47.658437 
" style="fill:none;stroke:#ff0000;stroke-linecap:square;stroke-width:2;"/>
    </g>
    <g id="line2d_31"/>
    <g id="text_28">
     <!-- quantile -->
     <defs>
      <path d="M 14.796875 27.296875 
Q 14.796875 17.390625 18.875 11.75 
Q 22.953125 6.109375 30.078125 6.109375 
Q 37.203125 6.109375 41.296875 11.75 
Q 45.40625 17.390625 45.40625 27.296875 
Q 45.40625 37.203125 41.296875 42.84375 
Q 37.203125 48.484375 30.078125 48.484375 
Q 22.953125 48.484375 18.875 42.84375 
Q 14.796875 37.203125 14.796875 27.296875 
z
M 45.40625 8.203125 
Q 42.578125 3.328125 38.25 0.953125 
Q 33.9375 -1.421875 27.875 -1.421875 
Q 17.96875 -1.421875 11.734375 6.484375 
Q 5.515625 14.40625 5.515625 27.296875 
Q 5.515625 40.1875 11.734375 48.09375 
Q 17.96875 56 27.875 56 
Q 33.9375 56 38.25 53.625 
Q 42.578125 51.265625 45.40625 46.390625 
L 45.40625 54.6875 
L 54.390625 54.6875 
L 54.390625 -20.796875 
L 45.40625 -20.796875 
z
" id="DejaVuSans-71"/>
     </defs>
     <g transform="translate(91 51.158437)scale(0.1 -0.1)">
      <use xlink:href="#DejaVuSans-71"/>
      <use x="63.476562" xlink:href="#DejaVuSans-75"/>
      <use x="126.855469" xlink:href="#DejaVuSans-61"/>
      <use x="188.134766" xlink:href="#DejaVuSans-6e"/>
      <use x="251.513672" xlink:href="#DejaVuSans-74"/>
      <use x="290.722656" xlink:href="#DejaVuSans-69"/>
      <use x="318.505859" xlink:href="#DejaVuSans-6c"/>
      <use x="346.289062" xlink:href="#DejaVuSans-65"/>
     </g>
    </g>
    <g id="line2d_32">
     <path d="M 63 62.336562 
L 83 62.336562 
" style="fill:none;stroke:#0000ff;stroke-width:1.5;"/>
    </g>
    <g id="text_29">
     <!-- iso-CDF -->
     <defs>
      <path d="M 44.28125 53.078125 
L 44.28125 44.578125 
Q 40.484375 46.53125 36.375 47.5 
Q 32.28125 48.484375 27.875 48.484375 
Q 21.1875 48.484375 17.84375 46.4375 
Q 14.5 44.390625 14.5 40.28125 
Q 14.5 37.15625 16.890625 35.375 
Q 19.28125 33.59375 26.515625 31.984375 
L 29.59375 31.296875 
Q 39.15625 29.25 43.1875 25.515625 
Q 47.21875 21.78125 47.21875 15.09375 
Q 47.21875 7.46875 41.1875 3.015625 
Q 35.15625 -1.421875 24.609375 -1.421875 
Q 20.21875 -1.421875 15.453125 -0.5625 
Q 10.6875 0.296875 5.421875 2 
L 5.421875 11.28125 
Q 10.40625 8.6875 15.234375 7.390625 
Q 20.0625 6.109375 24.8125 6.109375 
Q 31.15625 6.109375 34.5625 8.28125 
Q 37.984375 10.453125 37.984375 14.40625 
Q 37.984375 18.0625 35.515625 20.015625 
Q 33.0625 21.96875 24.703125 23.78125 
L 21.578125 24.515625 
Q 13.234375 26.265625 9.515625 29.90625 
Q 5.8125 33.546875 5.8125 39.890625 
Q 5.8125 47.609375 11.28125 51.796875 
Q 16.75 56 26.8125 56 
Q 31.78125 56 36.171875 55.265625 
Q 40.578125 54.546875 44.28125 53.078125 
z
" id="DejaVuSans-73"/>
      <path d="M 30.609375 48.390625 
Q 23.390625 48.390625 19.1875 42.75 
Q 14.984375 37.109375 14.984375 27.296875 
Q 14.984375 17.484375 19.15625 11.84375 
Q 23.34375 6.203125 30.609375 6.203125 
Q 37.796875 6.203125 41.984375 11.859375 
Q 46.1875 17.53125 46.1875 27.296875 
Q 46.1875 37.015625 41.984375 42.703125 
Q 37.796875 48.390625 30.609375 48.390625 
z
M 30.609375 56 
Q 42.328125 56 49.015625 48.375 
Q 55.71875 40.765625 55.71875 27.296875 
Q 55.71875 13.875 49.015625 6.21875 
Q 42.328125 -1.421875 30.609375 -1.421875 
Q 18.84375 -1.421875 12.171875 6.21875 
Q 5.515625 13.875 5.515625 27.296875 
Q 5.515625 40.765625 12.171875 48.375 
Q 18.84375 56 30.609375 56 
z
" id="DejaVuSans-6f"/>
      <path d="M 4.890625 31.390625 
L 31.203125 31.390625 
L 31.203125 23.390625 
L 4.890625 23.390625 
z
" id="DejaVuSans-2d"/>
      <path d="M 64.40625 67.28125 
L 64.40625 56.890625 
Q 59.421875 61.53125 53.78125 63.8125 
Q 48.140625 66.109375 41.796875 66.109375 
Q 29.296875 66.109375 22.65625 58.46875 
Q 16.015625 50.828125 16.015625 36.375 
Q 16.015625 21.96875 22.65625 14.328125 
Q 29.296875 6.6875 41.796875 6.6875 
Q 48.140625 6.6875 53.78125 8.984375 
Q 59.421875 11.28125 64.40625 15.921875 
L 64.40625 5.609375 
Q 59.234375 2.09375 53.4375 0.328125 
Q 47.65625 -1.421875 41.21875 -1.421875 
Q 24.65625 -1.421875 15.125 8.703125 
Q 5.609375 18.84375 5.609375 36.375 
Q 5.609375 53.953125 15.125 64.078125 
Q 24.65625 74.21875 41.21875 74.21875 
Q 47.75 74.21875 53.53125 72.484375 
Q 59.328125 70.75 64.40625 67.28125 
z
" id="DejaVuSans-43"/>
      <path d="M 19.671875 64.796875 
L 19.671875 8.109375 
L 31.59375 8.109375 
Q 46.6875 8.109375 53.6875 14.9375 
Q 60.6875 21.78125 60.6875 36.53125 
Q 60.6875 51.171875 53.6875 57.984375 
Q 46.6875 64.796875 31.59375 64.796875 
z
M 9.8125 72.90625 
L 30.078125 72.90625 
Q 51.265625 72.90625 61.171875 64.09375 
Q 71.09375 55.28125 71.09375 36.53125 
Q 71.09375 17.671875 61.125 8.828125 
Q 51.171875 0 30.078125 0 
L 9.8125 0 
z
" id="DejaVuSans-44"/>
      <path d="M 9.8125 72.90625 
L 51.703125 72.90625 
L 51.703125 64.59375 
L 19.671875 64.59375 
L 19.671875 43.109375 
L 48.578125 43.109375 
L 48.578125 34.8125 
L 19.671875 34.8125 
L 19.671875 0 
L 9.8125 0 
z
" id="DejaVuSans-46"/>
     </defs>
     <g transform="translate(91 65.836562)scale(0.1 -0.1)">
      <use xlink:href="#DejaVuSans-69"/>
      <use x="27.783203" xlink:href="#DejaVuSans-73"/>
      <use x="79.882812" xlink:href="#DejaVuSans-6f"/>
      <use x="141.080078" xlink:href="#DejaVuSans-2d"/>
      <use x="177.164062" xlink:href="#DejaVuSans-43"/>
      <use x="246.988281" xlink:href="#DejaVuSans-44"/>
      <use x="323.990234" xlink:href="#DejaVuSans-46"/>
     </g>
    </g>
   </g>
  </g>
 </g>
 <defs>
  <clipPath id="pa6d0f6d06f">
   <rect height="217.44" width="334.8" x="54" y="34.56"/>
  </clipPath>
 </defs>
</svg>
