<?xml version="1.0" encoding="utf-8" standalone="no"?>
<!DOCTYPE svg PUBLIC "-//W3C//DTD SVG 1.1//EN"
  "http://www.w3.org/Graphics/SVG/1.1/DTD/svg11.dtd">
<!-- Created with matplotlib (https://matplotlib.org/) -->
<svg height="144pt" version="1.1" viewBox="0 0 720 144" width="720pt" xmlns="http://www.w3.org/2000/svg" xmlns:xlink="http://www.w3.org/1999/xlink">
 <defs>
  <style type="text/css">
*{stroke-linecap:butt;stroke-linejoin:round;}
  </style>
 </defs>
 <g id="figure_1">
  <g id="patch_1">
   <path d="M 0 144 
L 720 144 
L 720 0 
L 0 0 
z
" style="fill:#ffffff;"/>
  </g>
  <g id="axes_1">
   <g id="patch_2">
    <path d="M 90 128.16 
L 648 128.16 
L 648 17.28 
L 90 17.28 
z
" style="fill:#ffffff;"/>
   </g>
   <g id="matplotlib.axis_1">
    <g id="xtick_1">
     <g id="line2d_1">
      <defs>
       <path d="M 0 0 
L 0 3.5 
" id="m1c5f5a359f" style="stroke:#000000;stroke-width:0.8;"/>
      </defs>
      <g>
       <use style="stroke:#000000;stroke-width:0.8;" x="115.363636" xlink:href="#m1c5f5a359f" y="128.16"/>
      </g>
     </g>
     <g id="text_1">
      <!-- 2020-08-03 -->
      <defs>
       <path d="M 19.1875 8.296875 
L 53.609375 8.296875 
L 53.609375 0 
L 7.328125 0 
L 7.328125 8.296875 
Q 12.9375 14.109375 22.625 23.890625 
Q 32.328125 33.6875 34.8125 36.53125 
Q 39.546875 41.84375 41.421875 45.53125 
Q 43.3125 49.21875 43.3125 52.78125 
Q 43.3125 58.59375 39.234375 62.25 
Q 35.15625 65.921875 28.609375 65.921875 
Q 23.96875 65.921875 18.8125 64.3125 
Q 13.671875 62.703125 7.8125 59.421875 
L 7.8125 69.390625 
Q 13.765625 71.78125 18.9375 73 
Q 24.125 74.21875 28.421875 74.21875 
Q 39.75 74.21875 46.484375 68.546875 
Q 53.21875 62.890625 53.21875 53.421875 
Q 53.21875 48.921875 51.53125 44.890625 
Q 49.859375 40.875 45.40625 35.40625 
Q 44.1875 33.984375 37.640625 27.21875 
Q 31.109375 20.453125 19.1875 8.296875 
z
" id="DejaVuSans-50"/>
       <path d="M 31.78125 66.40625 
Q 24.171875 66.40625 20.328125 58.90625 
Q 16.5 51.421875 16.5 36.375 
Q 16.5 21.390625 20.328125 13.890625 
Q 24.171875 6.390625 31.78125 6.390625 
Q 39.453125 6.390625 43.28125 13.890625 
Q 47.125 21.390625 47.125 36.375 
Q 47.125 51.421875 43.28125 58.90625 
Q 39.453125 66.40625 31.78125 66.40625 
z
M 31.78125 74.21875 
Q 44.046875 74.21875 50.515625 64.515625 
Q 56.984375 54.828125 56.984375 36.375 
Q 56.984375 17.96875 50.515625 8.265625 
Q 44.046875 -1.421875 31.78125 -1.421875 
Q 19.53125 -1.421875 13.0625 8.265625 
Q 6.59375 17.96875 6.59375 36.375 
Q 6.59375 54.828125 13.0625 64.515625 
Q 19.53125 74.21875 31.78125 74.21875 
z
" id="DejaVuSans-48"/>
       <path d="M 4.890625 31.390625 
L 31.203125 31.390625 
L 31.203125 23.390625 
L 4.890625 23.390625 
z
" id="DejaVuSans-45"/>
       <path d="M 31.78125 34.625 
Q 24.75 34.625 20.71875 30.859375 
Q 16.703125 27.09375 16.703125 20.515625 
Q 16.703125 13.921875 20.71875 10.15625 
Q 24.75 6.390625 31.78125 6.390625 
Q 38.8125 6.390625 42.859375 10.171875 
Q 46.921875 13.96875 46.921875 20.515625 
Q 46.921875 27.09375 42.890625 30.859375 
Q 38.875 34.625 31.78125 34.625 
z
M 21.921875 38.8125 
Q 15.578125 40.375 12.03125 44.71875 
Q 8.5 49.078125 8.5 55.328125 
Q 8.5 64.0625 14.71875 69.140625 
Q 20.953125 74.21875 31.78125 74.21875 
Q 42.671875 74.21875 48.875 69.140625 
Q 55.078125 64.0625 55.078125 55.328125 
Q 55.078125 49.078125 51.53125 44.71875 
Q 48 40.375 41.703125 38.8125 
Q 48.828125 37.15625 52.796875 32.3125 
Q 56.78125 27.484375 56.78125 20.515625 
Q 56.78125 9.90625 50.3125 4.234375 
Q 43.84375 -1.421875 31.78125 -1.421875 
Q 19.734375 -1.421875 13.25 4.234375 
Q 6.78125 9.90625 6.78125 20.515625 
Q 6.78125 27.484375 10.78125 32.3125 
Q 14.796875 37.15625 21.921875 38.8125 
z
M 18.3125 54.390625 
Q 18.3125 48.734375 21.84375 45.5625 
Q 25.390625 42.390625 31.78125 42.390625 
Q 38.140625 42.390625 41.71875 45.5625 
Q 45.3125 48.734375 45.3125 54.390625 
Q 45.3125 60.0625 41.71875 63.234375 
Q 38.140625 66.40625 31.78125 66.40625 
Q 25.390625 66.40625 21.84375 63.234375 
Q 18.3125 60.0625 18.3125 54.390625 
z
" id="DejaVuSans-56"/>
       <path d="M 40.578125 39.3125 
Q 47.65625 37.796875 51.625 33 
Q 55.609375 28.21875 55.609375 21.1875 
Q 55.609375 10.40625 48.1875 4.484375 
Q 40.765625 -1.421875 27.09375 -1.421875 
Q 22.515625 -1.421875 17.65625 -0.515625 
Q 12.796875 0.390625 7.625 2.203125 
L 7.625 11.71875 
Q 11.71875 9.328125 16.59375 8.109375 
Q 21.484375 6.890625 26.8125 6.890625 
Q 36.078125 6.890625 40.9375 10.546875 
Q 45.796875 14.203125 45.796875 21.1875 
Q 45.796875 27.640625 41.28125 31.265625 
Q 36.765625 34.90625 28.71875 34.90625 
L 20.21875 34.90625 
L 20.21875 43.015625 
L 29.109375 43.015625 
Q 36.375 43.015625 40.234375 45.921875 
Q 44.09375 48.828125 44.09375 54.296875 
Q 44.09375 59.90625 40.109375 62.90625 
Q 36.140625 65.921875 28.71875 65.921875 
Q 24.65625 65.921875 20.015625 65.03125 
Q 15.375 64.15625 9.8125 62.3125 
L 9.8125 71.09375 
Q 15.4375 72.65625 20.34375 73.4375 
Q 25.25 74.21875 29.59375 74.21875 
Q 40.828125 74.21875 47.359375 69.109375 
Q 53.90625 64.015625 53.90625 55.328125 
Q 53.90625 49.265625 50.4375 45.09375 
Q 46.96875 40.921875 40.578125 39.3125 
z
" id="DejaVuSans-51"/>
      </defs>
      <g transform="translate(86.305824 142.758438)scale(0.1 -0.1)">
       <use xlink:href="#DejaVuSans-50"/>
       <use x="63.623047" xlink:href="#DejaVuSans-48"/>
       <use x="127.246094" xlink:href="#DejaVuSans-50"/>
       <use x="190.869141" xlink:href="#DejaVuSans-48"/>
       <use x="254.492188" xlink:href="#DejaVuSans-45"/>
       <use x="290.576172" xlink:href="#DejaVuSans-48"/>
       <use x="354.199219" xlink:href="#DejaVuSans-56"/>
       <use x="417.822266" xlink:href="#DejaVuSans-45"/>
       <use x="453.90625" xlink:href="#DejaVuSans-48"/>
       <use x="517.529297" xlink:href="#DejaVuSans-51"/>
      </g>
     </g>
    </g>
    <g id="xtick_2">
     <g id="line2d_2">
      <g>
       <use style="stroke:#000000;stroke-width:0.8;" x="186.211783" xlink:href="#m1c5f5a359f" y="128.16"/>
      </g>
     </g>
     <g id="text_2">
      <!-- 2020-08-28 -->
      <g transform="translate(157.15397 142.758438)scale(0.1 -0.1)">
       <use xlink:href="#DejaVuSans-50"/>
       <use x="63.623047" xlink:href="#DejaVuSans-48"/>
       <use x="127.246094" xlink:href="#DejaVuSans-50"/>
       <use x="190.869141" xlink:href="#DejaVuSans-48"/>
       <use x="254.492188" xlink:href="#DejaVuSans-45"/>
       <use x="290.576172" xlink:href="#DejaVuSans-48"/>
       <use x="354.199219" xlink:href="#DejaVuSans-56"/>
       <use x="417.822266" xlink:href="#DejaVuSans-45"/>
       <use x="453.90625" xlink:href="#DejaVuSans-50"/>
       <use x="517.529297" xlink:href="#DejaVuSans-56"/>
      </g>
     </g>
    </g>
    <g id="xtick_3">
     <g id="line2d_3">
      <g>
       <use style="stroke:#000000;stroke-width:0.8;" x="257.059929" xlink:href="#m1c5f5a359f" y="128.16"/>
      </g>
     </g>
     <g id="text_3">
      <!-- 2020-09-22 -->
      <defs>
       <path d="M 10.984375 1.515625 
L 10.984375 10.5 
Q 14.703125 8.734375 18.5 7.8125 
Q 22.3125 6.890625 25.984375 6.890625 
Q 35.75 6.890625 40.890625 13.453125 
Q 46.046875 20.015625 46.78125 33.40625 
Q 43.953125 29.203125 39.59375 26.953125 
Q 35.25 24.703125 29.984375 24.703125 
Q 19.046875 24.703125 12.671875 31.3125 
Q 6.296875 37.9375 6.296875 49.421875 
Q 6.296875 60.640625 12.9375 67.421875 
Q 19.578125 74.21875 30.609375 74.21875 
Q 43.265625 74.21875 49.921875 64.515625 
Q 56.59375 54.828125 56.59375 36.375 
Q 56.59375 19.140625 48.40625 8.859375 
Q 40.234375 -1.421875 26.421875 -1.421875 
Q 22.703125 -1.421875 18.890625 -0.6875 
Q 15.09375 0.046875 10.984375 1.515625 
z
M 30.609375 32.421875 
Q 37.25 32.421875 41.125 36.953125 
Q 45.015625 41.5 45.015625 49.421875 
Q 45.015625 57.28125 41.125 61.84375 
Q 37.25 66.40625 30.609375 66.40625 
Q 23.96875 66.40625 20.09375 61.84375 
Q 16.21875 57.28125 16.21875 49.421875 
Q 16.21875 41.5 20.09375 36.953125 
Q 23.96875 32.421875 30.609375 32.421875 
z
" id="DejaVuSans-57"/>
      </defs>
      <g transform="translate(228.002116 142.758438)scale(0.1 -0.1)">
       <use xlink:href="#DejaVuSans-50"/>
       <use x="63.623047" xlink:href="#DejaVuSans-48"/>
       <use x="127.246094" xlink:href="#DejaVuSans-50"/>
       <use x="190.869141" xlink:href="#DejaVuSans-48"/>
       <use x="254.492188" xlink:href="#DejaVuSans-45"/>
       <use x="290.576172" xlink:href="#DejaVuSans-48"/>
       <use x="354.199219" xlink:href="#DejaVuSans-57"/>
       <use x="417.822266" xlink:href="#DejaVuSans-45"/>
       <use x="453.90625" xlink:href="#DejaVuSans-50"/>
       <use x="517.529297" xlink:href="#DejaVuSans-50"/>
      </g>
     </g>
    </g>
    <g id="xtick_4">
     <g id="line2d_4">
      <g>
       <use style="stroke:#000000;stroke-width:0.8;" x="327.908075" xlink:href="#m1c5f5a359f" y="128.16"/>
      </g>
     </g>
     <g id="text_4">
      <!-- 2020-10-17 -->
      <defs>
       <path d="M 12.40625 8.296875 
L 28.515625 8.296875 
L 28.515625 63.921875 
L 10.984375 60.40625 
L 10.984375 69.390625 
L 28.421875 72.90625 
L 38.28125 72.90625 
L 38.28125 8.296875 
L 54.390625 8.296875 
L 54.390625 0 
L 12.40625 0 
z
" id="DejaVuSans-49"/>
       <path d="M 8.203125 72.90625 
L 55.078125 72.90625 
L 55.078125 68.703125 
L 28.609375 0 
L 18.3125 0 
L 43.21875 64.59375 
L 8.203125 64.59375 
z
" id="DejaVuSans-55"/>
      </defs>
      <g transform="translate(298.850263 142.758438)scale(0.1 -0.1)">
       <use xlink:href="#DejaVuSans-50"/>
       <use x="63.623047" xlink:href="#DejaVuSans-48"/>
       <use x="127.246094" xlink:href="#DejaVuSans-50"/>
       <use x="190.869141" xlink:href="#DejaVuSans-48"/>
       <use x="254.492188" xlink:href="#DejaVuSans-45"/>
       <use x="290.576172" xlink:href="#DejaVuSans-49"/>
       <use x="354.199219" xlink:href="#DejaVuSans-48"/>
       <use x="417.822266" xlink:href="#DejaVuSans-45"/>
       <use x="453.90625" xlink:href="#DejaVuSans-49"/>
       <use x="517.529297" xlink:href="#DejaVuSans-55"/>
      </g>
     </g>
    </g>
    <g id="xtick_5">
     <g id="line2d_5">
      <g>
       <use style="stroke:#000000;stroke-width:0.8;" x="398.756221" xlink:href="#m1c5f5a359f" y="128.16"/>
      </g>
     </g>
     <g id="text_5">
      <!-- 2020-11-11 -->
      <g transform="translate(369.698409 142.758438)scale(0.1 -0.1)">
       <use xlink:href="#DejaVuSans-50"/>
       <use x="63.623047" xlink:href="#DejaVuSans-48"/>
       <use x="127.246094" xlink:href="#DejaVuSans-50"/>
       <use x="190.869141" xlink:href="#DejaVuSans-48"/>
       <use x="254.492188" xlink:href="#DejaVuSans-45"/>
       <use x="290.576172" xlink:href="#DejaVuSans-49"/>
       <use x="354.199219" xlink:href="#DejaVuSans-49"/>
       <use x="417.822266" xlink:href="#DejaVuSans-45"/>
       <use x="453.90625" xlink:href="#DejaVuSans-49"/>
       <use x="517.529297" xlink:href="#DejaVuSans-49"/>
      </g>
     </g>
    </g>
    <g id="xtick_6">
     <g id="line2d_6">
      <g>
       <use style="stroke:#000000;stroke-width:0.8;" x="469.604368" xlink:href="#m1c5f5a359f" y="128.16"/>
      </g>
     </g>
     <g id="text_6">
      <!-- 2020-12-06 -->
      <defs>
       <path d="M 33.015625 40.375 
Q 26.375 40.375 22.484375 35.828125 
Q 18.609375 31.296875 18.609375 23.390625 
Q 18.609375 15.53125 22.484375 10.953125 
Q 26.375 6.390625 33.015625 6.390625 
Q 39.65625 6.390625 43.53125 10.953125 
Q 47.40625 15.53125 47.40625 23.390625 
Q 47.40625 31.296875 43.53125 35.828125 
Q 39.65625 40.375 33.015625 40.375 
z
M 52.59375 71.296875 
L 52.59375 62.3125 
Q 48.875 64.0625 45.09375 64.984375 
Q 41.3125 65.921875 37.59375 65.921875 
Q 27.828125 65.921875 22.671875 59.328125 
Q 17.53125 52.734375 16.796875 39.40625 
Q 19.671875 43.65625 24.015625 45.921875 
Q 28.375 48.1875 33.59375 48.1875 
Q 44.578125 48.1875 50.953125 41.515625 
Q 57.328125 34.859375 57.328125 23.390625 
Q 57.328125 12.15625 50.6875 5.359375 
Q 44.046875 -1.421875 33.015625 -1.421875 
Q 20.359375 -1.421875 13.671875 8.265625 
Q 6.984375 17.96875 6.984375 36.375 
Q 6.984375 53.65625 15.1875 63.9375 
Q 23.390625 74.21875 37.203125 74.21875 
Q 40.921875 74.21875 44.703125 73.484375 
Q 48.484375 72.75 52.59375 71.296875 
z
" id="DejaVuSans-54"/>
      </defs>
      <g transform="translate(440.546555 142.758438)scale(0.1 -0.1)">
       <use xlink:href="#DejaVuSans-50"/>
       <use x="63.623047" xlink:href="#DejaVuSans-48"/>
       <use x="127.246094" xlink:href="#DejaVuSans-50"/>
       <use x="190.869141" xlink:href="#DejaVuSans-48"/>
       <use x="254.492188" xlink:href="#DejaVuSans-45"/>
       <use x="290.576172" xlink:href="#DejaVuSans-49"/>
       <use x="354.199219" xlink:href="#DejaVuSans-50"/>
       <use x="417.822266" xlink:href="#DejaVuSans-45"/>
       <use x="453.90625" xlink:href="#DejaVuSans-48"/>
       <use x="517.529297" xlink:href="#DejaVuSans-54"/>
      </g>
     </g>
    </g>
    <g id="xtick_7">
     <g id="line2d_7">
      <g>
       <use style="stroke:#000000;stroke-width:0.8;" x="540.452514" xlink:href="#m1c5f5a359f" y="128.16"/>
      </g>
     </g>
     <g id="text_7">
      <!-- 2020-12-31 -->
      <g transform="translate(511.394701 142.758438)scale(0.1 -0.1)">
       <use xlink:href="#DejaVuSans-50"/>
       <use x="63.623047" xlink:href="#DejaVuSans-48"/>
       <use x="127.246094" xlink:href="#DejaVuSans-50"/>
       <use x="190.869141" xlink:href="#DejaVuSans-48"/>
       <use x="254.492188" xlink:href="#DejaVuSans-45"/>
       <use x="290.576172" xlink:href="#DejaVuSans-49"/>
       <use x="354.199219" xlink:href="#DejaVuSans-50"/>
       <use x="417.822266" xlink:href="#DejaVuSans-45"/>
       <use x="453.90625" xlink:href="#DejaVuSans-51"/>
       <use x="517.529297" xlink:href="#DejaVuSans-49"/>
      </g>
     </g>
    </g>
    <g id="xtick_8">
     <g id="line2d_8">
      <g>
       <use style="stroke:#000000;stroke-width:0.8;" x="611.30066" xlink:href="#m1c5f5a359f" y="128.16"/>
      </g>
     </g>
     <g id="text_8">
      <!-- 2021-01-26 -->
      <g transform="translate(582.242848 142.758438)scale(0.1 -0.1)">
       <use xlink:href="#DejaVuSans-50"/>
       <use x="63.623047" xlink:href="#DejaVuSans-48"/>
       <use x="127.246094" xlink:href="#DejaVuSans-50"/>
       <use x="190.869141" xlink:href="#DejaVuSans-49"/>
       <use x="254.492188" xlink:href="#DejaVuSans-45"/>
       <use x="290.576172" xlink:href="#DejaVuSans-48"/>
       <use x="354.199219" xlink:href="#DejaVuSans-49"/>
       <use x="417.822266" xlink:href="#DejaVuSans-45"/>
       <use x="453.90625" xlink:href="#DejaVuSans-50"/>
       <use x="517.529297" xlink:href="#DejaVuSans-54"/>
      </g>
     </g>
    </g>
    <g id="text_9">
     <!-- date -->
     <defs>
      <path d="M 45.40625 46.390625 
L 45.40625 75.984375 
L 54.390625 75.984375 
L 54.390625 0 
L 45.40625 0 
L 45.40625 8.203125 
Q 42.578125 3.328125 38.25 0.953125 
Q 33.9375 -1.421875 27.875 -1.421875 
Q 17.96875 -1.421875 11.734375 6.484375 
Q 5.515625 14.40625 5.515625 27.296875 
Q 5.515625 40.1875 11.734375 48.09375 
Q 17.96875 56 27.875 56 
Q 33.9375 56 38.25 53.625 
Q 42.578125 51.265625 45.40625 46.390625 
z
M 14.796875 27.296875 
Q 14.796875 17.390625 18.875 11.75 
Q 22.953125 6.109375 30.078125 6.109375 
Q 37.203125 6.109375 41.296875 11.75 
Q 45.40625 17.390625 45.40625 27.296875 
Q 45.40625 37.203125 41.296875 42.84375 
Q 37.203125 48.484375 30.078125 48.484375 
Q 22.953125 48.484375 18.875 42.84375 
Q 14.796875 37.203125 14.796875 27.296875 
z
" id="DejaVuSans-100"/>
      <path d="M 34.28125 27.484375 
Q 23.390625 27.484375 19.1875 25 
Q 14.984375 22.515625 14.984375 16.5 
Q 14.984375 11.71875 18.140625 8.90625 
Q 21.296875 6.109375 26.703125 6.109375 
Q 34.1875 6.109375 38.703125 11.40625 
Q 43.21875 16.703125 43.21875 25.484375 
L 43.21875 27.484375 
z
M 52.203125 31.203125 
L 52.203125 0 
L 43.21875 0 
L 43.21875 8.296875 
Q 40.140625 3.328125 35.546875 0.953125 
Q 30.953125 -1.421875 24.3125 -1.421875 
Q 15.921875 -1.421875 10.953125 3.296875 
Q 6 8.015625 6 15.921875 
Q 6 25.140625 12.171875 29.828125 
Q 18.359375 34.515625 30.609375 34.515625 
L 43.21875 34.515625 
L 43.21875 35.40625 
Q 43.21875 41.609375 39.140625 45 
Q 35.0625 48.390625 27.6875 48.390625 
Q 23 48.390625 18.546875 47.265625 
Q 14.109375 46.140625 10.015625 43.890625 
L 10.015625 52.203125 
Q 14.9375 54.109375 19.578125 55.046875 
Q 24.21875 56 28.609375 56 
Q 40.484375 56 46.34375 49.84375 
Q 52.203125 43.703125 52.203125 31.203125 
z
" id="DejaVuSans-97"/>
      <path d="M 18.3125 70.21875 
L 18.3125 54.6875 
L 36.8125 54.6875 
L 36.8125 47.703125 
L 18.3125 47.703125 
L 18.3125 18.015625 
Q 18.3125 11.328125 20.140625 9.421875 
Q 21.96875 7.515625 27.59375 7.515625 
L 36.8125 7.515625 
L 36.8125 0 
L 27.59375 0 
Q 17.1875 0 13.234375 3.875 
Q 9.28125 7.765625 9.28125 18.015625 
L 9.28125 47.703125 
L 2.6875 47.703125 
L 2.6875 54.6875 
L 9.28125 54.6875 
L 9.28125 70.21875 
z
" id="DejaVuSans-116"/>
      <path d="M 56.203125 29.59375 
L 56.203125 25.203125 
L 14.890625 25.203125 
Q 15.484375 15.921875 20.484375 11.0625 
Q 25.484375 6.203125 34.421875 6.203125 
Q 39.59375 6.203125 44.453125 7.46875 
Q 49.3125 8.734375 54.109375 11.28125 
L 54.109375 2.78125 
Q 49.265625 0.734375 44.1875 -0.34375 
Q 39.109375 -1.421875 33.890625 -1.421875 
Q 20.796875 -1.421875 13.15625 6.1875 
Q 5.515625 13.8125 5.515625 26.8125 
Q 5.515625 40.234375 12.765625 48.109375 
Q 20.015625 56 32.328125 56 
Q 43.359375 56 49.78125 48.890625 
Q 56.203125 41.796875 56.203125 29.59375 
z
M 47.21875 32.234375 
Q 47.125 39.59375 43.09375 43.984375 
Q 39.0625 48.390625 32.421875 48.390625 
Q 24.90625 48.390625 20.390625 44.140625 
Q 15.875 39.890625 15.1875 32.171875 
z
" id="DejaVuSans-101"/>
     </defs>
     <g transform="translate(357.725 156.436563)scale(0.1 -0.1)">
      <use xlink:href="#DejaVuSans-100"/>
      <use x="63.476562" xlink:href="#DejaVuSans-97"/>
      <use x="124.755859" xlink:href="#DejaVuSans-116"/>
      <use x="163.964844" xlink:href="#DejaVuSans-101"/>
     </g>
    </g>
   </g>
   <g id="matplotlib.axis_2">
    <g id="ytick_1">
     <g id="line2d_9">
      <defs>
       <path d="M 0 0 
L -3.5 0 
" id="m4af5c28679" style="stroke:#000000;stroke-width:0.8;"/>
      </defs>
      <g>
       <use style="stroke:#000000;stroke-width:0.8;" x="90" xlink:href="#m4af5c28679" y="69.591116"/>
      </g>
     </g>
     <g id="text_10">
      <!-- $\mathdefault{10^{2}}$ -->
      <g transform="translate(65.4 73.390335)scale(0.1 -0.1)">
       <use transform="translate(0 0.765625)" xlink:href="#DejaVuSans-49"/>
       <use transform="translate(63.623047 0.765625)" xlink:href="#DejaVuSans-48"/>
       <use transform="translate(128.203125 39.046875)scale(0.7)" xlink:href="#DejaVuSans-50"/>
      </g>
     </g>
    </g>
    <g id="ytick_2">
     <g id="line2d_10">
      <defs>
       <path d="M 0 0 
L -2 0 
" id="m6836409854" style="stroke:#000000;stroke-width:0.6;"/>
      </defs>
      <g>
       <use style="stroke:#000000;stroke-width:0.6;" x="90" xlink:href="#m6836409854" y="111.817631"/>
      </g>
     </g>
    </g>
    <g id="ytick_3">
     <g id="line2d_11">
      <g>
       <use style="stroke:#000000;stroke-width:0.6;" x="90" xlink:href="#m6836409854" y="101.17952"/>
      </g>
     </g>
    </g>
    <g id="ytick_4">
     <g id="line2d_12">
      <g>
       <use style="stroke:#000000;stroke-width:0.6;" x="90" xlink:href="#m6836409854" y="93.631661"/>
      </g>
     </g>
    </g>
    <g id="ytick_5">
     <g id="line2d_13">
      <g>
       <use style="stroke:#000000;stroke-width:0.6;" x="90" xlink:href="#m6836409854" y="87.777086"/>
      </g>
     </g>
    </g>
    <g id="ytick_6">
     <g id="line2d_14">
      <g>
       <use style="stroke:#000000;stroke-width:0.6;" x="90" xlink:href="#m6836409854" y="82.99355"/>
      </g>
     </g>
    </g>
    <g id="ytick_7">
     <g id="line2d_15">
      <g>
       <use style="stroke:#000000;stroke-width:0.6;" x="90" xlink:href="#m6836409854" y="78.949128"/>
      </g>
     </g>
    </g>
    <g id="ytick_8">
     <g id="line2d_16">
      <g>
       <use style="stroke:#000000;stroke-width:0.6;" x="90" xlink:href="#m6836409854" y="75.445691"/>
      </g>
     </g>
    </g>
    <g id="ytick_9">
     <g id="line2d_17">
      <g>
       <use style="stroke:#000000;stroke-width:0.6;" x="90" xlink:href="#m6836409854" y="72.35544"/>
      </g>
     </g>
    </g>
    <g id="ytick_10">
     <g id="line2d_18">
      <g>
       <use style="stroke:#000000;stroke-width:0.6;" x="90" xlink:href="#m6836409854" y="51.405146"/>
      </g>
     </g>
    </g>
    <g id="ytick_11">
     <g id="line2d_19">
      <g>
       <use style="stroke:#000000;stroke-width:0.6;" x="90" xlink:href="#m6836409854" y="40.767035"/>
      </g>
     </g>
    </g>
    <g id="ytick_12">
     <g id="line2d_20">
      <g>
       <use style="stroke:#000000;stroke-width:0.6;" x="90" xlink:href="#m6836409854" y="33.219176"/>
      </g>
     </g>
    </g>
    <g id="ytick_13">
     <g id="line2d_21">
      <g>
       <use style="stroke:#000000;stroke-width:0.6;" x="90" xlink:href="#m6836409854" y="27.364601"/>
      </g>
     </g>
    </g>
    <g id="ytick_14">
     <g id="line2d_22">
      <g>
       <use style="stroke:#000000;stroke-width:0.6;" x="90" xlink:href="#m6836409854" y="22.581065"/>
      </g>
     </g>
    </g>
    <g id="ytick_15">
     <g id="line2d_23">
      <g>
       <use style="stroke:#000000;stroke-width:0.6;" x="90" xlink:href="#m6836409854" y="18.536643"/>
      </g>
     </g>
    </g>
   </g>
   <g id="line2d_24">
    <path clip-path="url(#p74732c0560)" d="M 115.363636 63.94728 
L 118.197562 61.331487 
L 121.031488 48.667072 
L 123.865414 63.527482 
L 126.69934 49.144118 
L 129.533266 55.979622 
L 132.367191 61.140673 
L 135.201117 91.131026 
L 138.035043 62.707515 
L 140.868969 46.403876 
L 143.702895 54.169469 
L 146.536821 64.589846 
L 149.370747 32.064313 
L 152.204672 46.512517 
L 155.038598 54.610435 
L 157.872524 92.351563 
L 160.70645 55.058938 
L 163.540376 77.848122 
L 166.374302 76.109949 
L 169.208228 116.081609 
L 172.042153 54.169469 
L 174.876079 61.912399 
L 177.710005 66.853042 
L 180.543931 49.752888 
L 183.377857 45.134105 
L 186.211783 41.29709 
L 189.045708 56.772335 
L 191.879634 64.373904 
L 194.71356 103.943844 
L 197.547486 40.942533 
L 200.381412 46.187934 
L 203.215338 77.138975 
L 206.049264 82.99355 
L 208.883189 53.879557 
L 211.717115 50.000407 
L 214.551041 68.311018 
L 217.384967 77.138975 
L 220.218893 74.479809 
L 223.052819 60.951236 
L 225.886745 83.434515 
L 228.72067 57.096251 
L 231.554596 77.848122 
L 234.388522 42.859813 
L 237.222448 58.433448 
L 240.056374 57.424215 
L 242.8903 55.362257 
L 245.724225 76.109949 
L 248.558151 94.295919 
L 251.392077 52.204298 
L 254.226003 53.028559 
L 257.059929 85.276451 
L 259.893855 74.797835 
L 262.727781 68.311018 
L 265.561706 95.677123 
L 268.395632 41.747132 
L 271.229558 90.54141 
L 274.063484 49.507682 
L 276.89741 42.390448 
L 279.731336 75.445691 
L 282.565262 77.848122 
L 285.399187 60.576418 
L 288.233113 102.068989 
L 291.067039 111.817631 
L 293.900965 72.35544 
L 296.734891 67.330088 
L 299.568817 76.448493 
L 302.402743 95.677123 
L 305.236668 58.262523 
L 308.070594 50.885588 
L 310.90452 56.611865 
L 313.738446 75.775718 
L 316.572372 113.163403 
L 319.406298 84.339323 
L 322.240223 67.330088 
L 325.074149 80.492915 
L 327.908075 49.876355 
L 330.742001 46.080626 
L 333.575927 85.757874 
L 336.409853 63.736541 
L 339.243779 62.707515 
L 342.077704 22.32 
L 344.91163 47.624412 
L 347.745556 55.979622 
L 350.579482 65.471838 
L 353.413408 61.331487 
L 356.247334 66.153352 
L 359.08126 78.576969 
L 361.915185 49.752888 
L 364.749111 73.244908 
L 367.583037 48.431763 
L 370.416963 74.479809 
L 373.250889 38.586365 
L 376.084815 72.648591 
L 378.91874 75.775718 
L 381.752666 53.592813 
L 384.586592 78.576969 
L 387.420518 55.210159 
L 390.254444 40.50597 
L 393.08837 69.071558 
L 395.922296 107.034095 
L 398.756221 66.617733 
L 401.590147 47.173984 
L 404.424073 46.62161 
L 407.257999 105.963056 
L 410.091925 50.125047 
L 412.925851 60.024044 
L 415.759777 72.945056 
L 418.593702 24.579296 
L 421.427628 29.495293 
L 424.261554 52.889371 
L 427.09548 48.082709 
L 429.929406 63.736541 
L 432.763332 91.131026 
L 435.597257 79.326643 
L 438.431183 57.424215 
L 441.265109 53.879557 
L 444.099035 39.07375 
L 446.932961 55.823914 
L 449.766887 67.330088 
L 452.600813 55.515242 
L 458.268664 66.853042 
L 461.10259 88.848125 
L 463.936516 76.791463 
L 466.770442 39.155869 
L 469.604368 63.320075 
L 472.438294 66.853042 
L 475.272219 55.823914 
L 478.106145 65.248545 
L 480.940071 80.492915 
L 483.773997 48.667072 
L 486.607923 61.140673 
L 489.441849 57.589748 
L 492.275775 75.119763 
L 495.1097 78.210014 
L 497.943626 58.262523 
L 500.777552 92.983805 
L 503.611478 75.775718 
L 506.445404 60.024044 
L 509.27933 61.140673 
L 512.113255 60.576418 
L 514.947181 83.434515 
L 517.781107 44.420827 
L 520.615033 68.062326 
L 523.448959 58.262523 
L 526.282885 40.50597 
L 529.116811 95.677123 
L 531.950736 99.486235 
L 534.784662 46.403876 
L 537.618588 65.471838 
L 540.452514 102.989673 
L 543.28644 37.560434 
L 546.120366 53.450608 
L 548.954292 80.492915 
L 551.788217 51.801679 
L 554.622143 92.351563 
L 557.456069 73.855094 
L 560.289995 103.943844 
L 563.123921 103.943844 
L 565.957847 107.034095 
L 568.791772 61.717329 
L 571.625698 55.823914 
L 577.29355 104.93403 
L 580.127476 78.210014 
L 582.961402 77.138975 
L 585.795328 103.943844 
L 588.629253 36.872968 
L 591.463179 117.672206 
L 594.297105 100.31922 
L 597.131031 92.983805 
L 599.964957 81.713452 
L 602.798883 91.131026 
L 605.632809 123.12 
L 608.466734 110.537533 
L 611.30066 59.305182 
L 614.134586 78.576969 
L 616.968512 59.128503 
L 619.802438 109.316996 
L 622.636364 114.581955 
L 622.636364 114.581955 
" style="fill:none;stroke:#1f77b4;stroke-linecap:square;stroke-width:1.5;"/>
   </g>
   <g id="line2d_25">
    <path clip-path="url(#p74732c0560)" d="M 132.367191 56.95694 
L 135.201117 58.87815 
L 138.035043 59.053146 
L 140.868969 58.556222 
L 143.702895 57.25972 
L 146.536821 59.636492 
L 149.370747 53.900159 
L 152.204672 51.858819 
L 155.038598 49.438042 
L 157.872524 51.014516 
L 160.70645 52.301077 
L 163.540376 54.462621 
L 166.374302 55.384057 
L 169.208228 66.022168 
L 172.042153 68.097709 
L 174.876079 69.666185 
L 177.710005 67.192902 
L 180.543931 65.891636 
L 186.211783 55.384057 
L 189.045708 52.378758 
L 191.879634 53.531774 
L 194.71356 55.801745 
L 197.547486 51.95433 
L 200.381412 51.367691 
L 203.215338 54.951454 
L 206.049264 60.523307 
L 208.883189 60.024044 
L 211.717115 57.804121 
L 214.551041 56.001942 
L 217.384967 61.523699 
L 220.218893 66.384515 
L 223.052819 64.3432 
L 225.886745 64.373904 
L 228.72067 65.027136 
L 231.554596 69.779194 
L 234.388522 63.977524 
L 237.222448 61.717329 
L 240.056374 59.687836 
L 242.8903 58.853245 
L 245.724225 58.384498 
L 248.558151 61.551273 
L 251.392077 58.408961 
L 254.226003 60.682964 
L 257.059929 63.438392 
L 262.727781 68.097709 
L 265.561706 69.591116 
L 268.395632 61.578876 
L 271.229558 66.054903 
L 274.063484 65.185095 
L 276.89741 58.828365 
L 279.731336 58.87815 
L 282.565262 59.687836 
L 285.399187 57.142852 
L 288.233113 64.038117 
L 291.067039 64.80758 
L 293.900965 69.034838 
L 296.734891 76.302868 
L 299.568817 76.448493 
L 302.402743 78.262123 
L 305.236668 77.592649 
L 308.070594 69.930634 
L 310.90452 64.964218 
L 313.738446 65.31215 
L 316.572372 68.346738 
L 319.406298 69.071558 
L 322.240223 66.550887 
L 325.074149 69.666185 
L 327.908075 69.367187 
L 330.742001 66.517528 
L 333.575927 67.364497 
L 336.409853 63.94728 
L 339.243779 61.82862 
L 342.077704 50.702497 
L 344.91163 47.85256 
L 347.745556 48.58279 
L 350.579482 50.830526 
L 353.413408 49.351252 
L 356.247334 49.542572 
L 359.08126 50.593253 
L 361.915185 58.92803 
L 364.749111 62.794153 
L 367.583037 61.22228 
L 370.416963 62.165354 
L 373.250889 57.306614 
L 376.084815 57.899964 
L 378.91874 57.708628 
L 381.752666 58.408961 
L 384.586592 58.803507 
L 387.420518 60.102246 
L 390.254444 54.908583 
L 393.08837 60.20688 
L 395.922296 61.968401 
L 398.756221 61.059318 
L 401.590147 59.713546 
L 404.424073 55.691181 
L 407.257999 59.178862 
L 410.091925 61.634169 
L 412.925851 60.496792 
L 415.759777 58.853245 
L 418.593702 49.629999 
L 421.427628 45.9433 
L 424.261554 46.731158 
L 427.09548 43.740418 
L 429.929406 44.957623 
L 432.763332 46.465901 
L 435.597257 46.762542 
L 438.431183 53.879557 
L 441.265109 60.364617 
L 444.099035 57.119541 
L 446.932961 58.507043 
L 449.766887 58.903078 
L 452.600813 55.912777 
L 455.434738 54.420541 
L 458.268664 55.449568 
L 461.10259 58.556222 
L 463.936516 65.375909 
L 466.770442 60.978215 
L 469.604368 60.496792 
L 472.438294 62.137127 
L 475.272219 61.276827 
L 478.106145 61.086408 
L 480.940071 60.603014 
L 483.773997 56.980107 
L 486.607923 61.551273 
L 489.441849 60.709668 
L 492.275775 61.523699 
L 495.1097 64.3432 
L 497.943626 63.261116 
L 500.777552 64.007803 
L 503.611478 68.742909 
L 506.445404 68.526075 
L 509.27933 69.255936 
L 512.113255 67.124577 
L 514.947181 67.571904 
L 517.781107 64.09885 
L 523.448959 60.154511 
L 526.282885 56.293839 
L 529.116811 58.679573 
L 531.950736 61.523699 
L 534.784662 56.910667 
L 537.618588 60.470304 
L 540.452514 62.621162 
L 543.28644 57.780215 
L 546.120366 60.763158 
L 548.954292 59.998028 
L 551.788217 56.024281 
L 554.622143 60.924285 
L 557.456069 61.800753 
L 560.289995 61.82862 
L 563.123921 72.397118 
L 565.957847 80.154371 
L 568.791772 76.546028 
L 571.625698 77.951011 
L 574.459624 76.693013 
L 577.29355 79.764846 
L 582.961402 75.073531 
L 585.795328 74.935321 
L 588.629253 66.617733 
L 591.463179 72.313827 
L 594.297105 73.855094 
L 597.131031 73.201862 
L 599.964957 73.591846 
L 602.798883 74.98131 
L 605.632809 75.633769 
L 608.466734 98.907033 
L 611.30066 86.965193 
L 614.134586 84.208138 
L 616.968512 77.951011 
L 619.802438 80.154371 
L 622.636364 81.654025 
L 622.636364 81.654025 
" style="fill:none;stroke:#ff7f0e;stroke-linecap:square;stroke-width:1.5;"/>
   </g>
   <g id="patch_3">
    <path d="M 90 128.16 
L 90 17.28 
" style="fill:none;stroke:#000000;stroke-linecap:square;stroke-linejoin:miter;stroke-width:0.8;"/>
   </g>
   <g id="patch_4">
    <path d="M 648 128.16 
L 648 17.28 
" style="fill:none;stroke:#000000;stroke-linecap:square;stroke-linejoin:miter;stroke-width:0.8;"/>
   </g>
   <g id="patch_5">
    <path d="M 90 128.16 
L 648 128.16 
" style="fill:none;stroke:#000000;stroke-linecap:square;stroke-linejoin:miter;stroke-width:0.8;"/>
   </g>
   <g id="patch_6">
    <path d="M 90 17.28 
L 648 17.28 
" style="fill:none;stroke:#000000;stroke-linecap:square;stroke-linejoin:miter;stroke-width:0.8;"/>
   </g>
   <g id="text_11">
    <!-- openturns - Pypi, daily, with mirrors - total on period: 24752 -->
    <defs>
     <path d="M 30.609375 48.390625 
Q 23.390625 48.390625 19.1875 42.75 
Q 14.984375 37.109375 14.984375 27.296875 
Q 14.984375 17.484375 19.15625 11.84375 
Q 23.34375 6.203125 30.609375 6.203125 
Q 37.796875 6.203125 41.984375 11.859375 
Q 46.1875 17.53125 46.1875 27.296875 
Q 46.1875 37.015625 41.984375 42.703125 
Q 37.796875 48.390625 30.609375 48.390625 
z
M 30.609375 56 
Q 42.328125 56 49.015625 48.375 
Q 55.71875 40.765625 55.71875 27.296875 
Q 55.71875 13.875 49.015625 6.21875 
Q 42.328125 -1.421875 30.609375 -1.421875 
Q 18.84375 -1.421875 12.171875 6.21875 
Q 5.515625 13.875 5.515625 27.296875 
Q 5.515625 40.765625 12.171875 48.375 
Q 18.84375 56 30.609375 56 
z
" id="DejaVuSans-111"/>
     <path d="M 18.109375 8.203125 
L 18.109375 -20.796875 
L 9.078125 -20.796875 
L 9.078125 54.6875 
L 18.109375 54.6875 
L 18.109375 46.390625 
Q 20.953125 51.265625 25.265625 53.625 
Q 29.59375 56 35.59375 56 
Q 45.5625 56 51.78125 48.09375 
Q 58.015625 40.1875 58.015625 27.296875 
Q 58.015625 14.40625 51.78125 6.484375 
Q 45.5625 -1.421875 35.59375 -1.421875 
Q 29.59375 -1.421875 25.265625 0.953125 
Q 20.953125 3.328125 18.109375 8.203125 
z
M 48.6875 27.296875 
Q 48.6875 37.203125 44.609375 42.84375 
Q 40.53125 48.484375 33.40625 48.484375 
Q 26.265625 48.484375 22.1875 42.84375 
Q 18.109375 37.203125 18.109375 27.296875 
Q 18.109375 17.390625 22.1875 11.75 
Q 26.265625 6.109375 33.40625 6.109375 
Q 40.53125 6.109375 44.609375 11.75 
Q 48.6875 17.390625 48.6875 27.296875 
z
" id="DejaVuSans-112"/>
     <path d="M 54.890625 33.015625 
L 54.890625 0 
L 45.90625 0 
L 45.90625 32.71875 
Q 45.90625 40.484375 42.875 44.328125 
Q 39.84375 48.1875 33.796875 48.1875 
Q 26.515625 48.1875 22.3125 43.546875 
Q 18.109375 38.921875 18.109375 30.90625 
L 18.109375 0 
L 9.078125 0 
L 9.078125 54.6875 
L 18.109375 54.6875 
L 18.109375 46.1875 
Q 21.34375 51.125 25.703125 53.5625 
Q 30.078125 56 35.796875 56 
Q 45.21875 56 50.046875 50.171875 
Q 54.890625 44.34375 54.890625 33.015625 
z
" id="DejaVuSans-110"/>
     <path d="M 8.5 21.578125 
L 8.5 54.6875 
L 17.484375 54.6875 
L 17.484375 21.921875 
Q 17.484375 14.15625 20.5 10.265625 
Q 23.53125 6.390625 29.59375 6.390625 
Q 36.859375 6.390625 41.078125 11.03125 
Q 45.3125 15.671875 45.3125 23.6875 
L 45.3125 54.6875 
L 54.296875 54.6875 
L 54.296875 0 
L 45.3125 0 
L 45.3125 8.40625 
Q 42.046875 3.421875 37.71875 1 
Q 33.40625 -1.421875 27.6875 -1.421875 
Q 18.265625 -1.421875 13.375 4.4375 
Q 8.5 10.296875 8.5 21.578125 
z
M 31.109375 56 
z
" id="DejaVuSans-117"/>
     <path d="M 41.109375 46.296875 
Q 39.59375 47.171875 37.8125 47.578125 
Q 36.03125 48 33.890625 48 
Q 26.265625 48 22.1875 43.046875 
Q 18.109375 38.09375 18.109375 28.8125 
L 18.109375 0 
L 9.078125 0 
L 9.078125 54.6875 
L 18.109375 54.6875 
L 18.109375 46.1875 
Q 20.953125 51.171875 25.484375 53.578125 
Q 30.03125 56 36.53125 56 
Q 37.453125 56 38.578125 55.875 
Q 39.703125 55.765625 41.0625 55.515625 
z
" id="DejaVuSans-114"/>
     <path d="M 44.28125 53.078125 
L 44.28125 44.578125 
Q 40.484375 46.53125 36.375 47.5 
Q 32.28125 48.484375 27.875 48.484375 
Q 21.1875 48.484375 17.84375 46.4375 
Q 14.5 44.390625 14.5 40.28125 
Q 14.5 37.15625 16.890625 35.375 
Q 19.28125 33.59375 26.515625 31.984375 
L 29.59375 31.296875 
Q 39.15625 29.25 43.1875 25.515625 
Q 47.21875 21.78125 47.21875 15.09375 
Q 47.21875 7.46875 41.1875 3.015625 
Q 35.15625 -1.421875 24.609375 -1.421875 
Q 20.21875 -1.421875 15.453125 -0.5625 
Q 10.6875 0.296875 5.421875 2 
L 5.421875 11.28125 
Q 10.40625 8.6875 15.234375 7.390625 
Q 20.0625 6.109375 24.8125 6.109375 
Q 31.15625 6.109375 34.5625 8.28125 
Q 37.984375 10.453125 37.984375 14.40625 
Q 37.984375 18.0625 35.515625 20.015625 
Q 33.0625 21.96875 24.703125 23.78125 
L 21.578125 24.515625 
Q 13.234375 26.265625 9.515625 29.90625 
Q 5.8125 33.546875 5.8125 39.890625 
Q 5.8125 47.609375 11.28125 51.796875 
Q 16.75 56 26.8125 56 
Q 31.78125 56 36.171875 55.265625 
Q 40.578125 54.546875 44.28125 53.078125 
z
" id="DejaVuSans-115"/>
     <path id="DejaVuSans-32"/>
     <path d="M 19.671875 64.796875 
L 19.671875 37.40625 
L 32.078125 37.40625 
Q 38.96875 37.40625 42.71875 40.96875 
Q 46.484375 44.53125 46.484375 51.125 
Q 46.484375 57.671875 42.71875 61.234375 
Q 38.96875 64.796875 32.078125 64.796875 
z
M 9.8125 72.90625 
L 32.078125 72.90625 
Q 44.34375 72.90625 50.609375 67.359375 
Q 56.890625 61.8125 56.890625 51.125 
Q 56.890625 40.328125 50.609375 34.8125 
Q 44.34375 29.296875 32.078125 29.296875 
L 19.671875 29.296875 
L 19.671875 0 
L 9.8125 0 
z
" id="DejaVuSans-80"/>
     <path d="M 32.171875 -5.078125 
Q 28.375 -14.84375 24.75 -17.8125 
Q 21.140625 -20.796875 15.09375 -20.796875 
L 7.90625 -20.796875 
L 7.90625 -13.28125 
L 13.1875 -13.28125 
Q 16.890625 -13.28125 18.9375 -11.515625 
Q 21 -9.765625 23.484375 -3.21875 
L 25.09375 0.875 
L 2.984375 54.6875 
L 12.5 54.6875 
L 29.59375 11.921875 
L 46.6875 54.6875 
L 56.203125 54.6875 
z
" id="DejaVuSans-121"/>
     <path d="M 9.421875 54.6875 
L 18.40625 54.6875 
L 18.40625 0 
L 9.421875 0 
z
M 9.421875 75.984375 
L 18.40625 75.984375 
L 18.40625 64.59375 
L 9.421875 64.59375 
z
" id="DejaVuSans-105"/>
     <path d="M 11.71875 12.40625 
L 22.015625 12.40625 
L 22.015625 4 
L 14.015625 -11.625 
L 7.71875 -11.625 
L 11.71875 4 
z
" id="DejaVuSans-44"/>
     <path d="M 9.421875 75.984375 
L 18.40625 75.984375 
L 18.40625 0 
L 9.421875 0 
z
" id="DejaVuSans-108"/>
     <path d="M 4.203125 54.6875 
L 13.1875 54.6875 
L 24.421875 12.015625 
L 35.59375 54.6875 
L 46.1875 54.6875 
L 57.421875 12.015625 
L 68.609375 54.6875 
L 77.59375 54.6875 
L 63.28125 0 
L 52.6875 0 
L 40.921875 44.828125 
L 29.109375 0 
L 18.5 0 
z
" id="DejaVuSans-119"/>
     <path d="M 54.890625 33.015625 
L 54.890625 0 
L 45.90625 0 
L 45.90625 32.71875 
Q 45.90625 40.484375 42.875 44.328125 
Q 39.84375 48.1875 33.796875 48.1875 
Q 26.515625 48.1875 22.3125 43.546875 
Q 18.109375 38.921875 18.109375 30.90625 
L 18.109375 0 
L 9.078125 0 
L 9.078125 75.984375 
L 18.109375 75.984375 
L 18.109375 46.1875 
Q 21.34375 51.125 25.703125 53.5625 
Q 30.078125 56 35.796875 56 
Q 45.21875 56 50.046875 50.171875 
Q 54.890625 44.34375 54.890625 33.015625 
z
" id="DejaVuSans-104"/>
     <path d="M 52 44.1875 
Q 55.375 50.25 60.0625 53.125 
Q 64.75 56 71.09375 56 
Q 79.640625 56 84.28125 50.015625 
Q 88.921875 44.046875 88.921875 33.015625 
L 88.921875 0 
L 79.890625 0 
L 79.890625 32.71875 
Q 79.890625 40.578125 77.09375 44.375 
Q 74.3125 48.1875 68.609375 48.1875 
Q 61.625 48.1875 57.5625 43.546875 
Q 53.515625 38.921875 53.515625 30.90625 
L 53.515625 0 
L 44.484375 0 
L 44.484375 32.71875 
Q 44.484375 40.625 41.703125 44.40625 
Q 38.921875 48.1875 33.109375 48.1875 
Q 26.21875 48.1875 22.15625 43.53125 
Q 18.109375 38.875 18.109375 30.90625 
L 18.109375 0 
L 9.078125 0 
L 9.078125 54.6875 
L 18.109375 54.6875 
L 18.109375 46.1875 
Q 21.1875 51.21875 25.484375 53.609375 
Q 29.78125 56 35.6875 56 
Q 41.65625 56 45.828125 52.96875 
Q 50 49.953125 52 44.1875 
z
" id="DejaVuSans-109"/>
     <path d="M 11.71875 12.40625 
L 22.015625 12.40625 
L 22.015625 0 
L 11.71875 0 
z
M 11.71875 51.703125 
L 22.015625 51.703125 
L 22.015625 39.3125 
L 11.71875 39.3125 
z
" id="DejaVuSans-58"/>
     <path d="M 37.796875 64.3125 
L 12.890625 25.390625 
L 37.796875 25.390625 
z
M 35.203125 72.90625 
L 47.609375 72.90625 
L 47.609375 25.390625 
L 58.015625 25.390625 
L 58.015625 17.1875 
L 47.609375 17.1875 
L 47.609375 0 
L 37.796875 0 
L 37.796875 17.1875 
L 4.890625 17.1875 
L 4.890625 26.703125 
z
" id="DejaVuSans-52"/>
     <path d="M 10.796875 72.90625 
L 49.515625 72.90625 
L 49.515625 64.59375 
L 19.828125 64.59375 
L 19.828125 46.734375 
Q 21.96875 47.46875 24.109375 47.828125 
Q 26.265625 48.1875 28.421875 48.1875 
Q 40.625 48.1875 47.75 41.5 
Q 54.890625 34.8125 54.890625 23.390625 
Q 54.890625 11.625 47.5625 5.09375 
Q 40.234375 -1.421875 26.90625 -1.421875 
Q 22.3125 -1.421875 17.546875 -0.640625 
Q 12.796875 0.140625 7.71875 1.703125 
L 7.71875 11.625 
Q 12.109375 9.234375 16.796875 8.0625 
Q 21.484375 6.890625 26.703125 6.890625 
Q 35.15625 6.890625 40.078125 11.328125 
Q 45.015625 15.765625 45.015625 23.390625 
Q 45.015625 31 40.078125 35.4375 
Q 35.15625 39.890625 26.703125 39.890625 
Q 22.75 39.890625 18.8125 39.015625 
Q 14.890625 38.140625 10.796875 36.28125 
z
" id="DejaVuSans-53"/>
    </defs>
    <g transform="translate(188.740313 11.28)scale(0.12 -0.12)">
     <use xlink:href="#DejaVuSans-111"/>
     <use x="61.181641" xlink:href="#DejaVuSans-112"/>
     <use x="124.658203" xlink:href="#DejaVuSans-101"/>
     <use x="186.181641" xlink:href="#DejaVuSans-110"/>
     <use x="249.560547" xlink:href="#DejaVuSans-116"/>
     <use x="288.769531" xlink:href="#DejaVuSans-117"/>
     <use x="352.148438" xlink:href="#DejaVuSans-114"/>
     <use x="391.511719" xlink:href="#DejaVuSans-110"/>
     <use x="454.890625" xlink:href="#DejaVuSans-115"/>
     <use x="506.990234" xlink:href="#DejaVuSans-32"/>
     <use x="538.777344" xlink:href="#DejaVuSans-45"/>
     <use x="574.861328" xlink:href="#DejaVuSans-32"/>
     <use x="606.648438" xlink:href="#DejaVuSans-80"/>
     <use x="666.951172" xlink:href="#DejaVuSans-121"/>
     <use x="726.130859" xlink:href="#DejaVuSans-112"/>
     <use x="789.607422" xlink:href="#DejaVuSans-105"/>
     <use x="817.390625" xlink:href="#DejaVuSans-44"/>
     <use x="849.177734" xlink:href="#DejaVuSans-32"/>
     <use x="880.964844" xlink:href="#DejaVuSans-100"/>
     <use x="944.441406" xlink:href="#DejaVuSans-97"/>
     <use x="1005.720703" xlink:href="#DejaVuSans-105"/>
     <use x="1033.503906" xlink:href="#DejaVuSans-108"/>
     <use x="1061.287109" xlink:href="#DejaVuSans-121"/>
     <use x="1120.466797" xlink:href="#DejaVuSans-44"/>
     <use x="1152.253906" xlink:href="#DejaVuSans-32"/>
     <use x="1184.041016" xlink:href="#DejaVuSans-119"/>
     <use x="1265.828125" xlink:href="#DejaVuSans-105"/>
     <use x="1293.611328" xlink:href="#DejaVuSans-116"/>
     <use x="1332.820312" xlink:href="#DejaVuSans-104"/>
     <use x="1396.199219" xlink:href="#DejaVuSans-32"/>
     <use x="1427.986328" xlink:href="#DejaVuSans-109"/>
     <use x="1525.398438" xlink:href="#DejaVuSans-105"/>
     <use x="1553.181641" xlink:href="#DejaVuSans-114"/>
     <use x="1592.544922" xlink:href="#DejaVuSans-114"/>
     <use x="1631.408203" xlink:href="#DejaVuSans-111"/>
     <use x="1692.589844" xlink:href="#DejaVuSans-114"/>
     <use x="1733.703125" xlink:href="#DejaVuSans-115"/>
     <use x="1785.802734" xlink:href="#DejaVuSans-32"/>
     <use x="1817.589844" xlink:href="#DejaVuSans-45"/>
     <use x="1853.673828" xlink:href="#DejaVuSans-32"/>
     <use x="1885.460938" xlink:href="#DejaVuSans-116"/>
     <use x="1924.669922" xlink:href="#DejaVuSans-111"/>
     <use x="1985.851562" xlink:href="#DejaVuSans-116"/>
     <use x="2025.060547" xlink:href="#DejaVuSans-97"/>
     <use x="2086.339844" xlink:href="#DejaVuSans-108"/>
     <use x="2114.123047" xlink:href="#DejaVuSans-32"/>
     <use x="2145.910156" xlink:href="#DejaVuSans-111"/>
     <use x="2207.091797" xlink:href="#DejaVuSans-110"/>
     <use x="2270.470703" xlink:href="#DejaVuSans-32"/>
     <use x="2302.257812" xlink:href="#DejaVuSans-112"/>
     <use x="2365.734375" xlink:href="#DejaVuSans-101"/>
     <use x="2427.257812" xlink:href="#DejaVuSans-114"/>
     <use x="2468.371094" xlink:href="#DejaVuSans-105"/>
     <use x="2496.154297" xlink:href="#DejaVuSans-111"/>
     <use x="2557.335938" xlink:href="#DejaVuSans-100"/>
     <use x="2620.8125" xlink:href="#DejaVuSans-58"/>
     <use x="2654.503906" xlink:href="#DejaVuSans-32"/>
     <use x="2686.291016" xlink:href="#DejaVuSans-50"/>
     <use x="2749.914062" xlink:href="#DejaVuSans-52"/>
     <use x="2813.537109" xlink:href="#DejaVuSans-55"/>
     <use x="2877.160156" xlink:href="#DejaVuSans-53"/>
     <use x="2940.783203" xlink:href="#DejaVuSans-50"/>
    </g>
   </g>
   <g id="legend_1">
    <g id="patch_7">
     <path d="M 555.434375 54.63625 
L 641 54.63625 
Q 643 54.63625 643 52.63625 
L 643 24.28 
Q 643 22.28 641 22.28 
L 555.434375 22.28 
Q 553.434375 22.28 553.434375 24.28 
L 553.434375 52.63625 
Q 553.434375 54.63625 555.434375 54.63625 
z
" style="fill:#ffffff;opacity:0.8;stroke:#cccccc;stroke-linejoin:miter;"/>
    </g>
    <g id="line2d_26">
     <path d="M 557.434375 30.378438 
L 577.434375 30.378438 
" style="fill:none;stroke:#1f77b4;stroke-linecap:square;stroke-width:1.5;"/>
    </g>
    <g id="line2d_27"/>
    <g id="text_12">
     <!-- downloads -->
     <g transform="translate(585.434375 33.878438)scale(0.1 -0.1)">
      <use xlink:href="#DejaVuSans-100"/>
      <use x="63.476562" xlink:href="#DejaVuSans-111"/>
      <use x="124.658203" xlink:href="#DejaVuSans-119"/>
      <use x="206.445312" xlink:href="#DejaVuSans-110"/>
      <use x="269.824219" xlink:href="#DejaVuSans-108"/>
      <use x="297.607422" xlink:href="#DejaVuSans-111"/>
      <use x="358.789062" xlink:href="#DejaVuSans-97"/>
      <use x="420.068359" xlink:href="#DejaVuSans-100"/>
      <use x="483.544922" xlink:href="#DejaVuSans-115"/>
     </g>
    </g>
    <g id="line2d_28">
     <path d="M 557.434375 45.056563 
L 577.434375 45.056563 
" style="fill:none;stroke:#ff7f0e;stroke-linecap:square;stroke-width:1.5;"/>
    </g>
    <g id="line2d_29"/>
    <g id="text_13">
     <!-- rolling -->
     <defs>
      <path d="M 45.40625 27.984375 
Q 45.40625 37.75 41.375 43.109375 
Q 37.359375 48.484375 30.078125 48.484375 
Q 22.859375 48.484375 18.828125 43.109375 
Q 14.796875 37.75 14.796875 27.984375 
Q 14.796875 18.265625 18.828125 12.890625 
Q 22.859375 7.515625 30.078125 7.515625 
Q 37.359375 7.515625 41.375 12.890625 
Q 45.40625 18.265625 45.40625 27.984375 
z
M 54.390625 6.78125 
Q 54.390625 -7.171875 48.1875 -13.984375 
Q 42 -20.796875 29.203125 -20.796875 
Q 24.46875 -20.796875 20.265625 -20.09375 
Q 16.0625 -19.390625 12.109375 -17.921875 
L 12.109375 -9.1875 
Q 16.0625 -11.328125 19.921875 -12.34375 
Q 23.78125 -13.375 27.78125 -13.375 
Q 36.625 -13.375 41.015625 -8.765625 
Q 45.40625 -4.15625 45.40625 5.171875 
L 45.40625 9.625 
Q 42.625 4.78125 38.28125 2.390625 
Q 33.9375 0 27.875 0 
Q 17.828125 0 11.671875 7.65625 
Q 5.515625 15.328125 5.515625 27.984375 
Q 5.515625 40.671875 11.671875 48.328125 
Q 17.828125 56 27.875 56 
Q 33.9375 56 38.28125 53.609375 
Q 42.625 51.21875 45.40625 46.390625 
L 45.40625 54.6875 
L 54.390625 54.6875 
z
" id="DejaVuSans-103"/>
     </defs>
     <g transform="translate(585.434375 48.556563)scale(0.1 -0.1)">
      <use xlink:href="#DejaVuSans-114"/>
      <use x="38.863281" xlink:href="#DejaVuSans-111"/>
      <use x="100.044922" xlink:href="#DejaVuSans-108"/>
      <use x="127.828125" xlink:href="#DejaVuSans-108"/>
      <use x="155.611328" xlink:href="#DejaVuSans-105"/>
      <use x="183.394531" xlink:href="#DejaVuSans-110"/>
      <use x="246.773438" xlink:href="#DejaVuSans-103"/>
     </g>
    </g>
   </g>
  </g>
 </g>
 <defs>
  <clipPath id="p74732c0560">
   <rect height="110.88" width="558" x="90" y="17.28"/>
  </clipPath>
 </defs>
</svg>
