<?xml version="1.0" encoding="utf-8" standalone="no"?>
<!DOCTYPE svg PUBLIC "-//W3C//DTD SVG 1.1//EN"
  "http://www.w3.org/Graphics/SVG/1.1/DTD/svg11.dtd">
<!-- Created with matplotlib (https://matplotlib.org/) -->
<svg height="144pt" version="1.1" viewBox="0 0 720 144" width="720pt" xmlns="http://www.w3.org/2000/svg" xmlns:xlink="http://www.w3.org/1999/xlink">
 <defs>
  <style type="text/css">
*{stroke-linecap:butt;stroke-linejoin:round;}
  </style>
 </defs>
 <g id="figure_1">
  <g id="patch_1">
   <path d="M 0 144 
L 720 144 
L 720 0 
L 0 0 
z
" style="fill:#ffffff;"/>
  </g>
  <g id="axes_1">
   <g id="patch_2">
    <path d="M 90 128.16 
L 648 128.16 
L 648 17.28 
L 90 17.28 
z
" style="fill:#ffffff;"/>
   </g>
   <g id="matplotlib.axis_1">
    <g id="xtick_1">
     <g id="line2d_1">
      <defs>
       <path d="M 0 0 
L 0 3.5 
" id="m0e816ace46" style="stroke:#000000;stroke-width:0.8;"/>
      </defs>
      <g>
       <use style="stroke:#000000;stroke-width:0.8;" x="115.363636" xlink:href="#m0e816ace46" y="128.16"/>
      </g>
     </g>
     <g id="text_1">
      <!-- 2020-08-24 -->
      <defs>
       <path d="M 19.1875 8.296875 
L 53.609375 8.296875 
L 53.609375 0 
L 7.328125 0 
L 7.328125 8.296875 
Q 12.9375 14.109375 22.625 23.890625 
Q 32.328125 33.6875 34.8125 36.53125 
Q 39.546875 41.84375 41.421875 45.53125 
Q 43.3125 49.21875 43.3125 52.78125 
Q 43.3125 58.59375 39.234375 62.25 
Q 35.15625 65.921875 28.609375 65.921875 
Q 23.96875 65.921875 18.8125 64.3125 
Q 13.671875 62.703125 7.8125 59.421875 
L 7.8125 69.390625 
Q 13.765625 71.78125 18.9375 73 
Q 24.125 74.21875 28.421875 74.21875 
Q 39.75 74.21875 46.484375 68.546875 
Q 53.21875 62.890625 53.21875 53.421875 
Q 53.21875 48.921875 51.53125 44.890625 
Q 49.859375 40.875 45.40625 35.40625 
Q 44.1875 33.984375 37.640625 27.21875 
Q 31.109375 20.453125 19.1875 8.296875 
z
" id="DejaVuSans-50"/>
       <path d="M 31.78125 66.40625 
Q 24.171875 66.40625 20.328125 58.90625 
Q 16.5 51.421875 16.5 36.375 
Q 16.5 21.390625 20.328125 13.890625 
Q 24.171875 6.390625 31.78125 6.390625 
Q 39.453125 6.390625 43.28125 13.890625 
Q 47.125 21.390625 47.125 36.375 
Q 47.125 51.421875 43.28125 58.90625 
Q 39.453125 66.40625 31.78125 66.40625 
z
M 31.78125 74.21875 
Q 44.046875 74.21875 50.515625 64.515625 
Q 56.984375 54.828125 56.984375 36.375 
Q 56.984375 17.96875 50.515625 8.265625 
Q 44.046875 -1.421875 31.78125 -1.421875 
Q 19.53125 -1.421875 13.0625 8.265625 
Q 6.59375 17.96875 6.59375 36.375 
Q 6.59375 54.828125 13.0625 64.515625 
Q 19.53125 74.21875 31.78125 74.21875 
z
" id="DejaVuSans-48"/>
       <path d="M 4.890625 31.390625 
L 31.203125 31.390625 
L 31.203125 23.390625 
L 4.890625 23.390625 
z
" id="DejaVuSans-45"/>
       <path d="M 31.78125 34.625 
Q 24.75 34.625 20.71875 30.859375 
Q 16.703125 27.09375 16.703125 20.515625 
Q 16.703125 13.921875 20.71875 10.15625 
Q 24.75 6.390625 31.78125 6.390625 
Q 38.8125 6.390625 42.859375 10.171875 
Q 46.921875 13.96875 46.921875 20.515625 
Q 46.921875 27.09375 42.890625 30.859375 
Q 38.875 34.625 31.78125 34.625 
z
M 21.921875 38.8125 
Q 15.578125 40.375 12.03125 44.71875 
Q 8.5 49.078125 8.5 55.328125 
Q 8.5 64.0625 14.71875 69.140625 
Q 20.953125 74.21875 31.78125 74.21875 
Q 42.671875 74.21875 48.875 69.140625 
Q 55.078125 64.0625 55.078125 55.328125 
Q 55.078125 49.078125 51.53125 44.71875 
Q 48 40.375 41.703125 38.8125 
Q 48.828125 37.15625 52.796875 32.3125 
Q 56.78125 27.484375 56.78125 20.515625 
Q 56.78125 9.90625 50.3125 4.234375 
Q 43.84375 -1.421875 31.78125 -1.421875 
Q 19.734375 -1.421875 13.25 4.234375 
Q 6.78125 9.90625 6.78125 20.515625 
Q 6.78125 27.484375 10.78125 32.3125 
Q 14.796875 37.15625 21.921875 38.8125 
z
M 18.3125 54.390625 
Q 18.3125 48.734375 21.84375 45.5625 
Q 25.390625 42.390625 31.78125 42.390625 
Q 38.140625 42.390625 41.71875 45.5625 
Q 45.3125 48.734375 45.3125 54.390625 
Q 45.3125 60.0625 41.71875 63.234375 
Q 38.140625 66.40625 31.78125 66.40625 
Q 25.390625 66.40625 21.84375 63.234375 
Q 18.3125 60.0625 18.3125 54.390625 
z
" id="DejaVuSans-56"/>
       <path d="M 37.796875 64.3125 
L 12.890625 25.390625 
L 37.796875 25.390625 
z
M 35.203125 72.90625 
L 47.609375 72.90625 
L 47.609375 25.390625 
L 58.015625 25.390625 
L 58.015625 17.1875 
L 47.609375 17.1875 
L 47.609375 0 
L 37.796875 0 
L 37.796875 17.1875 
L 4.890625 17.1875 
L 4.890625 26.703125 
z
" id="DejaVuSans-52"/>
      </defs>
      <g transform="translate(86.305824 142.758438)scale(0.1 -0.1)">
       <use xlink:href="#DejaVuSans-50"/>
       <use x="63.623047" xlink:href="#DejaVuSans-48"/>
       <use x="127.246094" xlink:href="#DejaVuSans-50"/>
       <use x="190.869141" xlink:href="#DejaVuSans-48"/>
       <use x="254.492188" xlink:href="#DejaVuSans-45"/>
       <use x="290.576172" xlink:href="#DejaVuSans-48"/>
       <use x="354.199219" xlink:href="#DejaVuSans-56"/>
       <use x="417.822266" xlink:href="#DejaVuSans-45"/>
       <use x="453.90625" xlink:href="#DejaVuSans-50"/>
       <use x="517.529297" xlink:href="#DejaVuSans-52"/>
      </g>
     </g>
    </g>
    <g id="xtick_2">
     <g id="line2d_2">
      <g>
       <use style="stroke:#000000;stroke-width:0.8;" x="186.211783" xlink:href="#m0e816ace46" y="128.16"/>
      </g>
     </g>
     <g id="text_2">
      <!-- 2020-09-18 -->
      <defs>
       <path d="M 10.984375 1.515625 
L 10.984375 10.5 
Q 14.703125 8.734375 18.5 7.8125 
Q 22.3125 6.890625 25.984375 6.890625 
Q 35.75 6.890625 40.890625 13.453125 
Q 46.046875 20.015625 46.78125 33.40625 
Q 43.953125 29.203125 39.59375 26.953125 
Q 35.25 24.703125 29.984375 24.703125 
Q 19.046875 24.703125 12.671875 31.3125 
Q 6.296875 37.9375 6.296875 49.421875 
Q 6.296875 60.640625 12.9375 67.421875 
Q 19.578125 74.21875 30.609375 74.21875 
Q 43.265625 74.21875 49.921875 64.515625 
Q 56.59375 54.828125 56.59375 36.375 
Q 56.59375 19.140625 48.40625 8.859375 
Q 40.234375 -1.421875 26.421875 -1.421875 
Q 22.703125 -1.421875 18.890625 -0.6875 
Q 15.09375 0.046875 10.984375 1.515625 
z
M 30.609375 32.421875 
Q 37.25 32.421875 41.125 36.953125 
Q 45.015625 41.5 45.015625 49.421875 
Q 45.015625 57.28125 41.125 61.84375 
Q 37.25 66.40625 30.609375 66.40625 
Q 23.96875 66.40625 20.09375 61.84375 
Q 16.21875 57.28125 16.21875 49.421875 
Q 16.21875 41.5 20.09375 36.953125 
Q 23.96875 32.421875 30.609375 32.421875 
z
" id="DejaVuSans-57"/>
       <path d="M 12.40625 8.296875 
L 28.515625 8.296875 
L 28.515625 63.921875 
L 10.984375 60.40625 
L 10.984375 69.390625 
L 28.421875 72.90625 
L 38.28125 72.90625 
L 38.28125 8.296875 
L 54.390625 8.296875 
L 54.390625 0 
L 12.40625 0 
z
" id="DejaVuSans-49"/>
      </defs>
      <g transform="translate(157.15397 142.758438)scale(0.1 -0.1)">
       <use xlink:href="#DejaVuSans-50"/>
       <use x="63.623047" xlink:href="#DejaVuSans-48"/>
       <use x="127.246094" xlink:href="#DejaVuSans-50"/>
       <use x="190.869141" xlink:href="#DejaVuSans-48"/>
       <use x="254.492188" xlink:href="#DejaVuSans-45"/>
       <use x="290.576172" xlink:href="#DejaVuSans-48"/>
       <use x="354.199219" xlink:href="#DejaVuSans-57"/>
       <use x="417.822266" xlink:href="#DejaVuSans-45"/>
       <use x="453.90625" xlink:href="#DejaVuSans-49"/>
       <use x="517.529297" xlink:href="#DejaVuSans-56"/>
      </g>
     </g>
    </g>
    <g id="xtick_3">
     <g id="line2d_3">
      <g>
       <use style="stroke:#000000;stroke-width:0.8;" x="257.059929" xlink:href="#m0e816ace46" y="128.16"/>
      </g>
     </g>
     <g id="text_3">
      <!-- 2020-10-13 -->
      <defs>
       <path d="M 40.578125 39.3125 
Q 47.65625 37.796875 51.625 33 
Q 55.609375 28.21875 55.609375 21.1875 
Q 55.609375 10.40625 48.1875 4.484375 
Q 40.765625 -1.421875 27.09375 -1.421875 
Q 22.515625 -1.421875 17.65625 -0.515625 
Q 12.796875 0.390625 7.625 2.203125 
L 7.625 11.71875 
Q 11.71875 9.328125 16.59375 8.109375 
Q 21.484375 6.890625 26.8125 6.890625 
Q 36.078125 6.890625 40.9375 10.546875 
Q 45.796875 14.203125 45.796875 21.1875 
Q 45.796875 27.640625 41.28125 31.265625 
Q 36.765625 34.90625 28.71875 34.90625 
L 20.21875 34.90625 
L 20.21875 43.015625 
L 29.109375 43.015625 
Q 36.375 43.015625 40.234375 45.921875 
Q 44.09375 48.828125 44.09375 54.296875 
Q 44.09375 59.90625 40.109375 62.90625 
Q 36.140625 65.921875 28.71875 65.921875 
Q 24.65625 65.921875 20.015625 65.03125 
Q 15.375 64.15625 9.8125 62.3125 
L 9.8125 71.09375 
Q 15.4375 72.65625 20.34375 73.4375 
Q 25.25 74.21875 29.59375 74.21875 
Q 40.828125 74.21875 47.359375 69.109375 
Q 53.90625 64.015625 53.90625 55.328125 
Q 53.90625 49.265625 50.4375 45.09375 
Q 46.96875 40.921875 40.578125 39.3125 
z
" id="DejaVuSans-51"/>
      </defs>
      <g transform="translate(228.002116 142.758438)scale(0.1 -0.1)">
       <use xlink:href="#DejaVuSans-50"/>
       <use x="63.623047" xlink:href="#DejaVuSans-48"/>
       <use x="127.246094" xlink:href="#DejaVuSans-50"/>
       <use x="190.869141" xlink:href="#DejaVuSans-48"/>
       <use x="254.492188" xlink:href="#DejaVuSans-45"/>
       <use x="290.576172" xlink:href="#DejaVuSans-49"/>
       <use x="354.199219" xlink:href="#DejaVuSans-48"/>
       <use x="417.822266" xlink:href="#DejaVuSans-45"/>
       <use x="453.90625" xlink:href="#DejaVuSans-49"/>
       <use x="517.529297" xlink:href="#DejaVuSans-51"/>
      </g>
     </g>
    </g>
    <g id="xtick_4">
     <g id="line2d_4">
      <g>
       <use style="stroke:#000000;stroke-width:0.8;" x="327.908075" xlink:href="#m0e816ace46" y="128.16"/>
      </g>
     </g>
     <g id="text_4">
      <!-- 2020-11-07 -->
      <defs>
       <path d="M 8.203125 72.90625 
L 55.078125 72.90625 
L 55.078125 68.703125 
L 28.609375 0 
L 18.3125 0 
L 43.21875 64.59375 
L 8.203125 64.59375 
z
" id="DejaVuSans-55"/>
      </defs>
      <g transform="translate(298.850263 142.758438)scale(0.1 -0.1)">
       <use xlink:href="#DejaVuSans-50"/>
       <use x="63.623047" xlink:href="#DejaVuSans-48"/>
       <use x="127.246094" xlink:href="#DejaVuSans-50"/>
       <use x="190.869141" xlink:href="#DejaVuSans-48"/>
       <use x="254.492188" xlink:href="#DejaVuSans-45"/>
       <use x="290.576172" xlink:href="#DejaVuSans-49"/>
       <use x="354.199219" xlink:href="#DejaVuSans-49"/>
       <use x="417.822266" xlink:href="#DejaVuSans-45"/>
       <use x="453.90625" xlink:href="#DejaVuSans-48"/>
       <use x="517.529297" xlink:href="#DejaVuSans-55"/>
      </g>
     </g>
    </g>
    <g id="xtick_5">
     <g id="line2d_5">
      <g>
       <use style="stroke:#000000;stroke-width:0.8;" x="398.756221" xlink:href="#m0e816ace46" y="128.16"/>
      </g>
     </g>
     <g id="text_5">
      <!-- 2020-12-02 -->
      <g transform="translate(369.698409 142.758438)scale(0.1 -0.1)">
       <use xlink:href="#DejaVuSans-50"/>
       <use x="63.623047" xlink:href="#DejaVuSans-48"/>
       <use x="127.246094" xlink:href="#DejaVuSans-50"/>
       <use x="190.869141" xlink:href="#DejaVuSans-48"/>
       <use x="254.492188" xlink:href="#DejaVuSans-45"/>
       <use x="290.576172" xlink:href="#DejaVuSans-49"/>
       <use x="354.199219" xlink:href="#DejaVuSans-50"/>
       <use x="417.822266" xlink:href="#DejaVuSans-45"/>
       <use x="453.90625" xlink:href="#DejaVuSans-48"/>
       <use x="517.529297" xlink:href="#DejaVuSans-50"/>
      </g>
     </g>
    </g>
    <g id="xtick_6">
     <g id="line2d_6">
      <g>
       <use style="stroke:#000000;stroke-width:0.8;" x="469.604368" xlink:href="#m0e816ace46" y="128.16"/>
      </g>
     </g>
     <g id="text_6">
      <!-- 2020-12-27 -->
      <g transform="translate(440.546555 142.758438)scale(0.1 -0.1)">
       <use xlink:href="#DejaVuSans-50"/>
       <use x="63.623047" xlink:href="#DejaVuSans-48"/>
       <use x="127.246094" xlink:href="#DejaVuSans-50"/>
       <use x="190.869141" xlink:href="#DejaVuSans-48"/>
       <use x="254.492188" xlink:href="#DejaVuSans-45"/>
       <use x="290.576172" xlink:href="#DejaVuSans-49"/>
       <use x="354.199219" xlink:href="#DejaVuSans-50"/>
       <use x="417.822266" xlink:href="#DejaVuSans-45"/>
       <use x="453.90625" xlink:href="#DejaVuSans-50"/>
       <use x="517.529297" xlink:href="#DejaVuSans-55"/>
      </g>
     </g>
    </g>
    <g id="xtick_7">
     <g id="line2d_7">
      <g>
       <use style="stroke:#000000;stroke-width:0.8;" x="540.452514" xlink:href="#m0e816ace46" y="128.16"/>
      </g>
     </g>
     <g id="text_7">
      <!-- 2021-01-21 -->
      <g transform="translate(511.394701 142.758438)scale(0.1 -0.1)">
       <use xlink:href="#DejaVuSans-50"/>
       <use x="63.623047" xlink:href="#DejaVuSans-48"/>
       <use x="127.246094" xlink:href="#DejaVuSans-50"/>
       <use x="190.869141" xlink:href="#DejaVuSans-49"/>
       <use x="254.492188" xlink:href="#DejaVuSans-45"/>
       <use x="290.576172" xlink:href="#DejaVuSans-48"/>
       <use x="354.199219" xlink:href="#DejaVuSans-49"/>
       <use x="417.822266" xlink:href="#DejaVuSans-45"/>
       <use x="453.90625" xlink:href="#DejaVuSans-50"/>
       <use x="517.529297" xlink:href="#DejaVuSans-49"/>
      </g>
     </g>
    </g>
    <g id="xtick_8">
     <g id="line2d_8">
      <g>
       <use style="stroke:#000000;stroke-width:0.8;" x="611.30066" xlink:href="#m0e816ace46" y="128.16"/>
      </g>
     </g>
     <g id="text_8">
      <!-- 2021-02-16 -->
      <defs>
       <path d="M 33.015625 40.375 
Q 26.375 40.375 22.484375 35.828125 
Q 18.609375 31.296875 18.609375 23.390625 
Q 18.609375 15.53125 22.484375 10.953125 
Q 26.375 6.390625 33.015625 6.390625 
Q 39.65625 6.390625 43.53125 10.953125 
Q 47.40625 15.53125 47.40625 23.390625 
Q 47.40625 31.296875 43.53125 35.828125 
Q 39.65625 40.375 33.015625 40.375 
z
M 52.59375 71.296875 
L 52.59375 62.3125 
Q 48.875 64.0625 45.09375 64.984375 
Q 41.3125 65.921875 37.59375 65.921875 
Q 27.828125 65.921875 22.671875 59.328125 
Q 17.53125 52.734375 16.796875 39.40625 
Q 19.671875 43.65625 24.015625 45.921875 
Q 28.375 48.1875 33.59375 48.1875 
Q 44.578125 48.1875 50.953125 41.515625 
Q 57.328125 34.859375 57.328125 23.390625 
Q 57.328125 12.15625 50.6875 5.359375 
Q 44.046875 -1.421875 33.015625 -1.421875 
Q 20.359375 -1.421875 13.671875 8.265625 
Q 6.984375 17.96875 6.984375 36.375 
Q 6.984375 53.65625 15.1875 63.9375 
Q 23.390625 74.21875 37.203125 74.21875 
Q 40.921875 74.21875 44.703125 73.484375 
Q 48.484375 72.75 52.59375 71.296875 
z
" id="DejaVuSans-54"/>
      </defs>
      <g transform="translate(582.242848 142.758438)scale(0.1 -0.1)">
       <use xlink:href="#DejaVuSans-50"/>
       <use x="63.623047" xlink:href="#DejaVuSans-48"/>
       <use x="127.246094" xlink:href="#DejaVuSans-50"/>
       <use x="190.869141" xlink:href="#DejaVuSans-49"/>
       <use x="254.492188" xlink:href="#DejaVuSans-45"/>
       <use x="290.576172" xlink:href="#DejaVuSans-48"/>
       <use x="354.199219" xlink:href="#DejaVuSans-50"/>
       <use x="417.822266" xlink:href="#DejaVuSans-45"/>
       <use x="453.90625" xlink:href="#DejaVuSans-49"/>
       <use x="517.529297" xlink:href="#DejaVuSans-54"/>
      </g>
     </g>
    </g>
    <g id="text_9">
     <!-- date -->
     <defs>
      <path d="M 45.40625 46.390625 
L 45.40625 75.984375 
L 54.390625 75.984375 
L 54.390625 0 
L 45.40625 0 
L 45.40625 8.203125 
Q 42.578125 3.328125 38.25 0.953125 
Q 33.9375 -1.421875 27.875 -1.421875 
Q 17.96875 -1.421875 11.734375 6.484375 
Q 5.515625 14.40625 5.515625 27.296875 
Q 5.515625 40.1875 11.734375 48.09375 
Q 17.96875 56 27.875 56 
Q 33.9375 56 38.25 53.625 
Q 42.578125 51.265625 45.40625 46.390625 
z
M 14.796875 27.296875 
Q 14.796875 17.390625 18.875 11.75 
Q 22.953125 6.109375 30.078125 6.109375 
Q 37.203125 6.109375 41.296875 11.75 
Q 45.40625 17.390625 45.40625 27.296875 
Q 45.40625 37.203125 41.296875 42.84375 
Q 37.203125 48.484375 30.078125 48.484375 
Q 22.953125 48.484375 18.875 42.84375 
Q 14.796875 37.203125 14.796875 27.296875 
z
" id="DejaVuSans-100"/>
      <path d="M 34.28125 27.484375 
Q 23.390625 27.484375 19.1875 25 
Q 14.984375 22.515625 14.984375 16.5 
Q 14.984375 11.71875 18.140625 8.90625 
Q 21.296875 6.109375 26.703125 6.109375 
Q 34.1875 6.109375 38.703125 11.40625 
Q 43.21875 16.703125 43.21875 25.484375 
L 43.21875 27.484375 
z
M 52.203125 31.203125 
L 52.203125 0 
L 43.21875 0 
L 43.21875 8.296875 
Q 40.140625 3.328125 35.546875 0.953125 
Q 30.953125 -1.421875 24.3125 -1.421875 
Q 15.921875 -1.421875 10.953125 3.296875 
Q 6 8.015625 6 15.921875 
Q 6 25.140625 12.171875 29.828125 
Q 18.359375 34.515625 30.609375 34.515625 
L 43.21875 34.515625 
L 43.21875 35.40625 
Q 43.21875 41.609375 39.140625 45 
Q 35.0625 48.390625 27.6875 48.390625 
Q 23 48.390625 18.546875 47.265625 
Q 14.109375 46.140625 10.015625 43.890625 
L 10.015625 52.203125 
Q 14.9375 54.109375 19.578125 55.046875 
Q 24.21875 56 28.609375 56 
Q 40.484375 56 46.34375 49.84375 
Q 52.203125 43.703125 52.203125 31.203125 
z
" id="DejaVuSans-97"/>
      <path d="M 18.3125 70.21875 
L 18.3125 54.6875 
L 36.8125 54.6875 
L 36.8125 47.703125 
L 18.3125 47.703125 
L 18.3125 18.015625 
Q 18.3125 11.328125 20.140625 9.421875 
Q 21.96875 7.515625 27.59375 7.515625 
L 36.8125 7.515625 
L 36.8125 0 
L 27.59375 0 
Q 17.1875 0 13.234375 3.875 
Q 9.28125 7.765625 9.28125 18.015625 
L 9.28125 47.703125 
L 2.6875 47.703125 
L 2.6875 54.6875 
L 9.28125 54.6875 
L 9.28125 70.21875 
z
" id="DejaVuSans-116"/>
      <path d="M 56.203125 29.59375 
L 56.203125 25.203125 
L 14.890625 25.203125 
Q 15.484375 15.921875 20.484375 11.0625 
Q 25.484375 6.203125 34.421875 6.203125 
Q 39.59375 6.203125 44.453125 7.46875 
Q 49.3125 8.734375 54.109375 11.28125 
L 54.109375 2.78125 
Q 49.265625 0.734375 44.1875 -0.34375 
Q 39.109375 -1.421875 33.890625 -1.421875 
Q 20.796875 -1.421875 13.15625 6.1875 
Q 5.515625 13.8125 5.515625 26.8125 
Q 5.515625 40.234375 12.765625 48.109375 
Q 20.015625 56 32.328125 56 
Q 43.359375 56 49.78125 48.890625 
Q 56.203125 41.796875 56.203125 29.59375 
z
M 47.21875 32.234375 
Q 47.125 39.59375 43.09375 43.984375 
Q 39.0625 48.390625 32.421875 48.390625 
Q 24.90625 48.390625 20.390625 44.140625 
Q 15.875 39.890625 15.1875 32.171875 
z
" id="DejaVuSans-101"/>
     </defs>
     <g transform="translate(357.725 156.436563)scale(0.1 -0.1)">
      <use xlink:href="#DejaVuSans-100"/>
      <use x="63.476562" xlink:href="#DejaVuSans-97"/>
      <use x="124.755859" xlink:href="#DejaVuSans-116"/>
      <use x="163.964844" xlink:href="#DejaVuSans-101"/>
     </g>
    </g>
   </g>
   <g id="matplotlib.axis_2">
    <g id="ytick_1">
     <g id="line2d_9">
      <defs>
       <path d="M 0 0 
L -3.5 0 
" id="mba56c6f799" style="stroke:#000000;stroke-width:0.8;"/>
      </defs>
      <g>
       <use style="stroke:#000000;stroke-width:0.8;" x="90" xlink:href="#mba56c6f799" y="108.556148"/>
      </g>
     </g>
     <g id="text_10">
      <!-- $\mathdefault{10^{1}}$ -->
      <g transform="translate(65.4 112.355367)scale(0.1 -0.1)">
       <use transform="translate(0 0.684375)" xlink:href="#DejaVuSans-49"/>
       <use transform="translate(63.623047 0.684375)" xlink:href="#DejaVuSans-48"/>
       <use transform="translate(128.203125 38.965625)scale(0.7)" xlink:href="#DejaVuSans-49"/>
      </g>
     </g>
    </g>
    <g id="ytick_2">
     <g id="line2d_10">
      <g>
       <use style="stroke:#000000;stroke-width:0.8;" x="90" xlink:href="#mba56c6f799" y="60.176079"/>
      </g>
     </g>
     <g id="text_11">
      <!-- $\mathdefault{10^{2}}$ -->
      <g transform="translate(65.4 63.975298)scale(0.1 -0.1)">
       <use transform="translate(0 0.765625)" xlink:href="#DejaVuSans-49"/>
       <use transform="translate(63.623047 0.765625)" xlink:href="#DejaVuSans-48"/>
       <use transform="translate(128.203125 39.046875)scale(0.7)" xlink:href="#DejaVuSans-50"/>
      </g>
     </g>
    </g>
    <g id="ytick_3">
     <g id="line2d_11">
      <defs>
       <path d="M 0 0 
L -2 0 
" id="m06cceef790" style="stroke:#000000;stroke-width:0.6;"/>
      </defs>
      <g>
       <use style="stroke:#000000;stroke-width:0.6;" x="90" xlink:href="#m06cceef790" y="127.808513"/>
      </g>
     </g>
    </g>
    <g id="ytick_4">
     <g id="line2d_12">
      <g>
       <use style="stroke:#000000;stroke-width:0.6;" x="90" xlink:href="#m06cceef790" y="123.12"/>
      </g>
     </g>
    </g>
    <g id="ytick_5">
     <g id="line2d_13">
      <g>
       <use style="stroke:#000000;stroke-width:0.6;" x="90" xlink:href="#m06cceef790" y="119.289206"/>
      </g>
     </g>
    </g>
    <g id="ytick_6">
     <g id="line2d_14">
      <g>
       <use style="stroke:#000000;stroke-width:0.6;" x="90" xlink:href="#m06cceef790" y="116.050316"/>
      </g>
     </g>
    </g>
    <g id="ytick_7">
     <g id="line2d_15">
      <g>
       <use style="stroke:#000000;stroke-width:0.6;" x="90" xlink:href="#m06cceef790" y="113.244661"/>
      </g>
     </g>
    </g>
    <g id="ytick_8">
     <g id="line2d_16">
      <g>
       <use style="stroke:#000000;stroke-width:0.6;" x="90" xlink:href="#m06cceef790" y="110.769899"/>
      </g>
     </g>
    </g>
    <g id="ytick_9">
     <g id="line2d_17">
      <g>
       <use style="stroke:#000000;stroke-width:0.6;" x="90" xlink:href="#m06cceef790" y="93.992296"/>
      </g>
     </g>
    </g>
    <g id="ytick_10">
     <g id="line2d_18">
      <g>
       <use style="stroke:#000000;stroke-width:0.6;" x="90" xlink:href="#m06cceef790" y="85.472989"/>
      </g>
     </g>
    </g>
    <g id="ytick_11">
     <g id="line2d_19">
      <g>
       <use style="stroke:#000000;stroke-width:0.6;" x="90" xlink:href="#m06cceef790" y="79.428444"/>
      </g>
     </g>
    </g>
    <g id="ytick_12">
     <g id="line2d_20">
      <g>
       <use style="stroke:#000000;stroke-width:0.6;" x="90" xlink:href="#m06cceef790" y="74.739931"/>
      </g>
     </g>
    </g>
    <g id="ytick_13">
     <g id="line2d_21">
      <g>
       <use style="stroke:#000000;stroke-width:0.6;" x="90" xlink:href="#m06cceef790" y="70.909137"/>
      </g>
     </g>
    </g>
    <g id="ytick_14">
     <g id="line2d_22">
      <g>
       <use style="stroke:#000000;stroke-width:0.6;" x="90" xlink:href="#m06cceef790" y="67.670247"/>
      </g>
     </g>
    </g>
    <g id="ytick_15">
     <g id="line2d_23">
      <g>
       <use style="stroke:#000000;stroke-width:0.6;" x="90" xlink:href="#m06cceef790" y="64.864592"/>
      </g>
     </g>
    </g>
    <g id="ytick_16">
     <g id="line2d_24">
      <g>
       <use style="stroke:#000000;stroke-width:0.6;" x="90" xlink:href="#m06cceef790" y="62.38983"/>
      </g>
     </g>
    </g>
    <g id="ytick_17">
     <g id="line2d_25">
      <g>
       <use style="stroke:#000000;stroke-width:0.6;" x="90" xlink:href="#m06cceef790" y="45.612227"/>
      </g>
     </g>
    </g>
    <g id="ytick_18">
     <g id="line2d_26">
      <g>
       <use style="stroke:#000000;stroke-width:0.6;" x="90" xlink:href="#m06cceef790" y="37.09292"/>
      </g>
     </g>
    </g>
    <g id="ytick_19">
     <g id="line2d_27">
      <g>
       <use style="stroke:#000000;stroke-width:0.6;" x="90" xlink:href="#m06cceef790" y="31.048376"/>
      </g>
     </g>
    </g>
    <g id="ytick_20">
     <g id="line2d_28">
      <g>
       <use style="stroke:#000000;stroke-width:0.6;" x="90" xlink:href="#m06cceef790" y="26.359862"/>
      </g>
     </g>
    </g>
    <g id="ytick_21">
     <g id="line2d_29">
      <g>
       <use style="stroke:#000000;stroke-width:0.6;" x="90" xlink:href="#m06cceef790" y="22.529068"/>
      </g>
     </g>
    </g>
    <g id="ytick_22">
     <g id="line2d_30">
      <g>
       <use style="stroke:#000000;stroke-width:0.6;" x="90" xlink:href="#m06cceef790" y="19.290178"/>
      </g>
     </g>
    </g>
   </g>
   <g id="line2d_31">
    <path clip-path="url(#p14833fec75)" d="M 115.363636 54.02674 
L 118.197562 57.983351 
L 121.031488 44.289052 
L 123.865414 40.590196 
L 126.69934 37.517403 
L 129.533266 49.910428 
L 132.367191 55.997985 
L 135.201117 87.68674 
L 138.035043 37.233464 
L 140.868969 41.434133 
L 143.702895 66.220624 
L 146.536821 70.909137 
L 149.370747 47.593808 
L 152.204672 44.487272 
L 155.038598 59.15094 
L 157.872524 66.220624 
L 160.70645 64.091087 
L 163.540376 53.257013 
L 166.374302 71.262275 
L 169.208228 50.169829 
L 172.042153 66.788529 
L 174.876079 38.768878 
L 177.710005 51.240695 
L 180.543931 50.432473 
L 183.377857 48.781197 
L 186.211783 65.39655 
L 189.045708 79.960402 
L 191.879634 46.252212 
L 194.71356 46.912304 
L 197.547486 72.73735 
L 200.381412 64.345771 
L 203.215338 59.15094 
L 206.049264 81.06651 
L 208.883189 37.87781 
L 211.717115 76.953682 
L 214.551041 44.092684 
L 217.384967 38.392997 
L 220.218893 64.864592 
L 223.052819 66.788529 
L 225.886745 52.956848 
L 228.72067 86.185301 
L 231.554596 93.992296 
L 234.388522 62.38983 
L 237.222448 58.365383 
L 240.056374 65.667666 
L 242.8903 81.06651 
L 245.724225 51.103814 
L 248.558151 45.196151 
L 251.392077 49.781919 
L 254.226003 65.128888 
L 257.059929 95.07003 
L 259.893855 71.986871 
L 262.727781 58.365383 
L 265.561706 68.906556 
L 268.395632 44.387928 
L 271.229558 41.348197 
L 274.063484 73.122888 
L 276.89741 55.487566 
L 279.731336 54.663492 
L 282.565262 22.32 
L 285.399187 42.584507 
L 288.233113 49.275601 
L 291.067039 56.877243 
L 293.900965 53.561529 
L 296.734891 57.423019 
L 299.568817 67.372211 
L 302.402743 44.289052 
L 305.236668 63.102142 
L 308.070594 43.231056 
L 310.90452 64.091087 
L 313.738446 35.346577 
L 316.572372 62.624594 
L 319.406298 65.128888 
L 322.240223 47.364175 
L 325.074149 67.372211 
L 327.908075 48.659393 
L 330.742001 36.883852 
L 333.575927 59.760002 
L 336.409853 90.161502 
L 339.243779 57.794908 
L 342.077704 42.223791 
L 344.91163 41.781433 
L 347.745556 89.303783 
L 350.579482 44.587088 
L 353.413408 52.514491 
L 356.247334 62.862011 
L 359.08126 24.12931 
L 361.915185 28.066183 
L 364.749111 46.800838 
L 367.583037 42.951524 
L 370.416963 55.487566 
L 373.250889 77.425863 
L 376.084815 67.972571 
L 378.91874 50.432473 
L 381.752666 47.593808 
L 384.586592 35.736889 
L 387.420518 49.150905 
L 390.254444 58.365383 
L 393.08837 48.903712 
L 398.756221 57.983351 
L 401.590147 75.59765 
L 404.424073 65.942326 
L 407.257999 35.802651 
L 410.091925 55.154048 
L 412.925851 57.983351 
L 415.759777 49.150905 
L 418.593702 56.698423 
L 421.427628 68.906556 
L 424.261554 43.419499 
L 427.09548 53.40872 
L 429.929406 50.565036 
L 432.763332 64.60358 
L 435.597257 67.078343 
L 438.431183 51.103814 
L 441.265109 78.909623 
L 444.099035 65.128888 
L 446.932961 52.514491 
L 449.766887 53.40872 
L 452.600813 52.956848 
L 455.434738 71.262275 
L 458.268664 40.018983 
L 461.10259 58.95178 
L 463.936516 51.103814 
L 466.770442 36.883852 
L 469.604368 81.06651 
L 472.438294 84.116957 
L 475.272219 41.607066 
L 478.106145 56.877243 
L 480.940071 86.922612 
L 483.773997 34.524982 
L 486.607923 47.250293 
L 489.441849 68.906556 
L 492.275775 45.929783 
L 495.1097 78.403305 
L 497.943626 63.590797 
L 500.777552 87.68674 
L 503.611478 87.68674 
L 506.445404 90.161502 
L 509.27933 53.870523 
L 512.113255 49.150905 
L 517.781107 88.479709 
L 520.615033 67.078343 
L 523.448959 66.220624 
L 526.282885 87.68674 
L 529.116811 33.974438 
L 531.950736 98.680809 
L 534.784662 84.784036 
L 537.618588 78.909623 
L 540.452514 69.883997 
L 543.28644 77.425863 
L 546.120366 103.043561 
L 548.954292 92.967156 
L 551.788217 51.938806 
L 554.622143 67.372211 
L 557.456069 51.797316 
L 560.289995 91.989715 
L 563.123921 96.206047 
L 565.957847 97.407013 
L 568.791772 123.12 
L 571.625698 81.642195 
L 577.29355 51.103814 
L 580.127476 56.170917 
L 582.961402 39.384635 
L 585.795328 65.942326 
L 588.629253 57.239514 
L 591.463179 59.967011 
L 594.297105 83.470408 
L 597.131031 87.68674 
L 599.964957 70.220184 
L 602.798883 71.262275 
L 605.632809 52.369084 
L 608.466734 89.303783 
L 611.30066 85.472989 
L 614.134586 73.122888 
L 616.968512 74.323854 
L 619.802438 98.680809 
L 622.636364 52.660911 
L 622.636364 52.660911 
" style="fill:none;stroke:#1f77b4;stroke-linecap:square;stroke-width:1.5;"/>
   </g>
   <g id="line2d_32">
    <path clip-path="url(#p14833fec75)" d="M 132.367191 47.315293 
L 135.201117 49.133151 
L 138.035043 46.05203 
L 140.868969 45.582233 
L 143.702895 48.452214 
L 146.536821 52.914316 
L 149.370747 52.514491 
L 152.204672 50.736712 
L 155.038598 49.293475 
L 157.872524 53.715458 
L 160.70645 57.608141 
L 163.540376 55.973396 
L 166.374302 55.997985 
L 169.208228 56.521112 
L 172.042153 60.326698 
L 174.876079 55.680552 
L 177.710005 53.870523 
L 180.543931 52.245246 
L 183.377857 51.576882 
L 186.211783 51.201495 
L 189.045708 53.73754 
L 191.879634 51.221086 
L 194.71356 53.042173 
L 197.547486 55.2488 
L 203.215338 58.980116 
L 206.049264 60.176079 
L 208.883189 53.759645 
L 211.717115 57.344177 
L 214.551041 56.64761 
L 217.384967 51.556956 
L 220.218893 51.596826 
L 223.052819 52.245246 
L 225.886745 50.207149 
L 228.72067 55.729077 
L 231.554596 56.345285 
L 234.388522 59.730596 
L 237.222448 65.551045 
L 240.056374 65.667666 
L 242.8903 67.120073 
L 245.724225 66.583939 
L 248.558151 60.447975 
L 251.392077 56.470726 
L 254.226003 56.749359 
L 257.059929 59.179546 
L 259.893855 59.760002 
L 262.727781 57.741376 
L 265.561706 60.236197 
L 268.395632 59.996751 
L 271.229558 57.714661 
L 274.063484 58.392938 
L 276.89741 55.656332 
L 279.731336 53.959648 
L 282.565262 45.049526 
L 285.399187 42.767214 
L 288.233113 43.352004 
L 291.067039 45.152056 
L 293.900965 43.96741 
L 296.734891 44.120624 
L 299.568817 44.96204 
L 302.402743 51.636771 
L 305.236668 54.732874 
L 308.070594 53.474073 
L 310.90452 54.229314 
L 313.738446 50.338294 
L 316.572372 50.813466 
L 319.406298 50.660239 
L 322.240223 51.221086 
L 325.074149 51.53705 
L 327.908075 52.577118 
L 330.742001 48.417882 
L 333.575927 52.660911 
L 336.409853 54.071588 
L 339.243779 53.343568 
L 342.077704 52.265835 
L 344.91163 49.044609 
L 347.745556 51.837644 
L 350.579482 53.803926 
L 353.413408 52.893081 
L 356.247334 51.576882 
L 359.08126 44.190638 
L 361.915185 41.238223 
L 364.749111 41.869163 
L 367.583037 39.474092 
L 370.416963 40.448865 
L 373.250889 41.656737 
L 376.084815 41.894296 
L 378.91874 47.593808 
L 381.752666 52.787231 
L 384.586592 50.188481 
L 387.420518 51.299633 
L 390.254444 51.616789 
L 393.08837 49.222069 
L 395.922296 48.027044 
L 398.756221 48.851118 
L 401.590147 51.339016 
L 404.424073 56.800419 
L 407.257999 53.278619 
L 410.091925 52.893081 
L 412.925851 54.206709 
L 415.759777 53.517756 
L 418.593702 53.365263 
L 421.427628 52.978147 
L 424.261554 50.076818 
L 427.09548 53.73754 
L 429.929406 53.063559 
L 432.763332 53.715458 
L 435.597257 55.973396 
L 438.431183 55.106832 
L 441.265109 55.704801 
L 444.099035 59.496811 
L 446.932961 59.323164 
L 449.766887 59.907657 
L 452.600813 58.200803 
L 455.434738 58.559036 
L 458.268664 55.777714 
L 463.936516 52.618973 
L 466.770442 49.527235 
L 469.604368 51.4378 
L 472.438294 53.715458 
L 475.272219 50.021208 
L 478.106145 52.871869 
L 480.940071 54.594338 
L 483.773997 50.717568 
L 486.607923 53.106395 
L 489.441849 52.493657 
L 492.275775 49.311365 
L 495.1097 53.23543 
L 497.943626 53.937331 
L 500.777552 53.959648 
L 503.611478 62.423207 
L 506.445404 68.63544 
L 509.27933 65.745775 
L 512.113255 66.870926 
L 514.947181 65.863485 
L 517.781107 68.323497 
L 523.448959 64.566556 
L 526.282885 64.455874 
L 529.116811 57.794908 
L 531.950736 62.356505 
L 534.784662 63.590797 
L 537.618588 63.067669 
L 540.452514 63.37998 
L 543.28644 64.492703 
L 546.120366 65.015211 
L 548.954292 83.653115 
L 551.788217 74.089744 
L 554.622143 71.881814 
L 557.456069 66.870926 
L 560.289995 68.63544 
L 563.123921 69.836407 
L 565.957847 69.647116 
L 568.791772 70.414733 
L 571.625698 76.754522 
L 577.29355 76.168125 
L 580.127476 70.611101 
L 582.961402 60.878044 
L 585.795328 59.122372 
L 588.629253 56.195739 
L 591.463179 54.640416 
L 594.297105 55.632139 
L 597.131031 58.95178 
L 599.964957 60.69265 
L 602.798883 68.412152 
L 605.632809 65.551045 
L 608.466734 69.366338 
L 611.30066 72.95679 
L 616.968512 70.611101 
L 619.802438 73.01201 
L 622.636364 68.815795 
L 622.636364 68.815795 
" style="fill:none;stroke:#ff7f0e;stroke-linecap:square;stroke-width:1.5;"/>
   </g>
   <g id="patch_3">
    <path d="M 90 128.16 
L 90 17.28 
" style="fill:none;stroke:#000000;stroke-linecap:square;stroke-linejoin:miter;stroke-width:0.8;"/>
   </g>
   <g id="patch_4">
    <path d="M 648 128.16 
L 648 17.28 
" style="fill:none;stroke:#000000;stroke-linecap:square;stroke-linejoin:miter;stroke-width:0.8;"/>
   </g>
   <g id="patch_5">
    <path d="M 90 128.16 
L 648 128.16 
" style="fill:none;stroke:#000000;stroke-linecap:square;stroke-linejoin:miter;stroke-width:0.8;"/>
   </g>
   <g id="patch_6">
    <path d="M 90 17.28 
L 648 17.28 
" style="fill:none;stroke:#000000;stroke-linecap:square;stroke-linejoin:miter;stroke-width:0.8;"/>
   </g>
   <g id="text_12">
    <!-- openturns - Pypi, daily, with mirrors - total on period: 23116 -->
    <defs>
     <path d="M 30.609375 48.390625 
Q 23.390625 48.390625 19.1875 42.75 
Q 14.984375 37.109375 14.984375 27.296875 
Q 14.984375 17.484375 19.15625 11.84375 
Q 23.34375 6.203125 30.609375 6.203125 
Q 37.796875 6.203125 41.984375 11.859375 
Q 46.1875 17.53125 46.1875 27.296875 
Q 46.1875 37.015625 41.984375 42.703125 
Q 37.796875 48.390625 30.609375 48.390625 
z
M 30.609375 56 
Q 42.328125 56 49.015625 48.375 
Q 55.71875 40.765625 55.71875 27.296875 
Q 55.71875 13.875 49.015625 6.21875 
Q 42.328125 -1.421875 30.609375 -1.421875 
Q 18.84375 -1.421875 12.171875 6.21875 
Q 5.515625 13.875 5.515625 27.296875 
Q 5.515625 40.765625 12.171875 48.375 
Q 18.84375 56 30.609375 56 
z
" id="DejaVuSans-111"/>
     <path d="M 18.109375 8.203125 
L 18.109375 -20.796875 
L 9.078125 -20.796875 
L 9.078125 54.6875 
L 18.109375 54.6875 
L 18.109375 46.390625 
Q 20.953125 51.265625 25.265625 53.625 
Q 29.59375 56 35.59375 56 
Q 45.5625 56 51.78125 48.09375 
Q 58.015625 40.1875 58.015625 27.296875 
Q 58.015625 14.40625 51.78125 6.484375 
Q 45.5625 -1.421875 35.59375 -1.421875 
Q 29.59375 -1.421875 25.265625 0.953125 
Q 20.953125 3.328125 18.109375 8.203125 
z
M 48.6875 27.296875 
Q 48.6875 37.203125 44.609375 42.84375 
Q 40.53125 48.484375 33.40625 48.484375 
Q 26.265625 48.484375 22.1875 42.84375 
Q 18.109375 37.203125 18.109375 27.296875 
Q 18.109375 17.390625 22.1875 11.75 
Q 26.265625 6.109375 33.40625 6.109375 
Q 40.53125 6.109375 44.609375 11.75 
Q 48.6875 17.390625 48.6875 27.296875 
z
" id="DejaVuSans-112"/>
     <path d="M 54.890625 33.015625 
L 54.890625 0 
L 45.90625 0 
L 45.90625 32.71875 
Q 45.90625 40.484375 42.875 44.328125 
Q 39.84375 48.1875 33.796875 48.1875 
Q 26.515625 48.1875 22.3125 43.546875 
Q 18.109375 38.921875 18.109375 30.90625 
L 18.109375 0 
L 9.078125 0 
L 9.078125 54.6875 
L 18.109375 54.6875 
L 18.109375 46.1875 
Q 21.34375 51.125 25.703125 53.5625 
Q 30.078125 56 35.796875 56 
Q 45.21875 56 50.046875 50.171875 
Q 54.890625 44.34375 54.890625 33.015625 
z
" id="DejaVuSans-110"/>
     <path d="M 8.5 21.578125 
L 8.5 54.6875 
L 17.484375 54.6875 
L 17.484375 21.921875 
Q 17.484375 14.15625 20.5 10.265625 
Q 23.53125 6.390625 29.59375 6.390625 
Q 36.859375 6.390625 41.078125 11.03125 
Q 45.3125 15.671875 45.3125 23.6875 
L 45.3125 54.6875 
L 54.296875 54.6875 
L 54.296875 0 
L 45.3125 0 
L 45.3125 8.40625 
Q 42.046875 3.421875 37.71875 1 
Q 33.40625 -1.421875 27.6875 -1.421875 
Q 18.265625 -1.421875 13.375 4.4375 
Q 8.5 10.296875 8.5 21.578125 
z
M 31.109375 56 
z
" id="DejaVuSans-117"/>
     <path d="M 41.109375 46.296875 
Q 39.59375 47.171875 37.8125 47.578125 
Q 36.03125 48 33.890625 48 
Q 26.265625 48 22.1875 43.046875 
Q 18.109375 38.09375 18.109375 28.8125 
L 18.109375 0 
L 9.078125 0 
L 9.078125 54.6875 
L 18.109375 54.6875 
L 18.109375 46.1875 
Q 20.953125 51.171875 25.484375 53.578125 
Q 30.03125 56 36.53125 56 
Q 37.453125 56 38.578125 55.875 
Q 39.703125 55.765625 41.0625 55.515625 
z
" id="DejaVuSans-114"/>
     <path d="M 44.28125 53.078125 
L 44.28125 44.578125 
Q 40.484375 46.53125 36.375 47.5 
Q 32.28125 48.484375 27.875 48.484375 
Q 21.1875 48.484375 17.84375 46.4375 
Q 14.5 44.390625 14.5 40.28125 
Q 14.5 37.15625 16.890625 35.375 
Q 19.28125 33.59375 26.515625 31.984375 
L 29.59375 31.296875 
Q 39.15625 29.25 43.1875 25.515625 
Q 47.21875 21.78125 47.21875 15.09375 
Q 47.21875 7.46875 41.1875 3.015625 
Q 35.15625 -1.421875 24.609375 -1.421875 
Q 20.21875 -1.421875 15.453125 -0.5625 
Q 10.6875 0.296875 5.421875 2 
L 5.421875 11.28125 
Q 10.40625 8.6875 15.234375 7.390625 
Q 20.0625 6.109375 24.8125 6.109375 
Q 31.15625 6.109375 34.5625 8.28125 
Q 37.984375 10.453125 37.984375 14.40625 
Q 37.984375 18.0625 35.515625 20.015625 
Q 33.0625 21.96875 24.703125 23.78125 
L 21.578125 24.515625 
Q 13.234375 26.265625 9.515625 29.90625 
Q 5.8125 33.546875 5.8125 39.890625 
Q 5.8125 47.609375 11.28125 51.796875 
Q 16.75 56 26.8125 56 
Q 31.78125 56 36.171875 55.265625 
Q 40.578125 54.546875 44.28125 53.078125 
z
" id="DejaVuSans-115"/>
     <path id="DejaVuSans-32"/>
     <path d="M 19.671875 64.796875 
L 19.671875 37.40625 
L 32.078125 37.40625 
Q 38.96875 37.40625 42.71875 40.96875 
Q 46.484375 44.53125 46.484375 51.125 
Q 46.484375 57.671875 42.71875 61.234375 
Q 38.96875 64.796875 32.078125 64.796875 
z
M 9.8125 72.90625 
L 32.078125 72.90625 
Q 44.34375 72.90625 50.609375 67.359375 
Q 56.890625 61.8125 56.890625 51.125 
Q 56.890625 40.328125 50.609375 34.8125 
Q 44.34375 29.296875 32.078125 29.296875 
L 19.671875 29.296875 
L 19.671875 0 
L 9.8125 0 
z
" id="DejaVuSans-80"/>
     <path d="M 32.171875 -5.078125 
Q 28.375 -14.84375 24.75 -17.8125 
Q 21.140625 -20.796875 15.09375 -20.796875 
L 7.90625 -20.796875 
L 7.90625 -13.28125 
L 13.1875 -13.28125 
Q 16.890625 -13.28125 18.9375 -11.515625 
Q 21 -9.765625 23.484375 -3.21875 
L 25.09375 0.875 
L 2.984375 54.6875 
L 12.5 54.6875 
L 29.59375 11.921875 
L 46.6875 54.6875 
L 56.203125 54.6875 
z
" id="DejaVuSans-121"/>
     <path d="M 9.421875 54.6875 
L 18.40625 54.6875 
L 18.40625 0 
L 9.421875 0 
z
M 9.421875 75.984375 
L 18.40625 75.984375 
L 18.40625 64.59375 
L 9.421875 64.59375 
z
" id="DejaVuSans-105"/>
     <path d="M 11.71875 12.40625 
L 22.015625 12.40625 
L 22.015625 4 
L 14.015625 -11.625 
L 7.71875 -11.625 
L 11.71875 4 
z
" id="DejaVuSans-44"/>
     <path d="M 9.421875 75.984375 
L 18.40625 75.984375 
L 18.40625 0 
L 9.421875 0 
z
" id="DejaVuSans-108"/>
     <path d="M 4.203125 54.6875 
L 13.1875 54.6875 
L 24.421875 12.015625 
L 35.59375 54.6875 
L 46.1875 54.6875 
L 57.421875 12.015625 
L 68.609375 54.6875 
L 77.59375 54.6875 
L 63.28125 0 
L 52.6875 0 
L 40.921875 44.828125 
L 29.109375 0 
L 18.5 0 
z
" id="DejaVuSans-119"/>
     <path d="M 54.890625 33.015625 
L 54.890625 0 
L 45.90625 0 
L 45.90625 32.71875 
Q 45.90625 40.484375 42.875 44.328125 
Q 39.84375 48.1875 33.796875 48.1875 
Q 26.515625 48.1875 22.3125 43.546875 
Q 18.109375 38.921875 18.109375 30.90625 
L 18.109375 0 
L 9.078125 0 
L 9.078125 75.984375 
L 18.109375 75.984375 
L 18.109375 46.1875 
Q 21.34375 51.125 25.703125 53.5625 
Q 30.078125 56 35.796875 56 
Q 45.21875 56 50.046875 50.171875 
Q 54.890625 44.34375 54.890625 33.015625 
z
" id="DejaVuSans-104"/>
     <path d="M 52 44.1875 
Q 55.375 50.25 60.0625 53.125 
Q 64.75 56 71.09375 56 
Q 79.640625 56 84.28125 50.015625 
Q 88.921875 44.046875 88.921875 33.015625 
L 88.921875 0 
L 79.890625 0 
L 79.890625 32.71875 
Q 79.890625 40.578125 77.09375 44.375 
Q 74.3125 48.1875 68.609375 48.1875 
Q 61.625 48.1875 57.5625 43.546875 
Q 53.515625 38.921875 53.515625 30.90625 
L 53.515625 0 
L 44.484375 0 
L 44.484375 32.71875 
Q 44.484375 40.625 41.703125 44.40625 
Q 38.921875 48.1875 33.109375 48.1875 
Q 26.21875 48.1875 22.15625 43.53125 
Q 18.109375 38.875 18.109375 30.90625 
L 18.109375 0 
L 9.078125 0 
L 9.078125 54.6875 
L 18.109375 54.6875 
L 18.109375 46.1875 
Q 21.1875 51.21875 25.484375 53.609375 
Q 29.78125 56 35.6875 56 
Q 41.65625 56 45.828125 52.96875 
Q 50 49.953125 52 44.1875 
z
" id="DejaVuSans-109"/>
     <path d="M 11.71875 12.40625 
L 22.015625 12.40625 
L 22.015625 0 
L 11.71875 0 
z
M 11.71875 51.703125 
L 22.015625 51.703125 
L 22.015625 39.3125 
L 11.71875 39.3125 
z
" id="DejaVuSans-58"/>
    </defs>
    <g transform="translate(188.740313 11.28)scale(0.12 -0.12)">
     <use xlink:href="#DejaVuSans-111"/>
     <use x="61.181641" xlink:href="#DejaVuSans-112"/>
     <use x="124.658203" xlink:href="#DejaVuSans-101"/>
     <use x="186.181641" xlink:href="#DejaVuSans-110"/>
     <use x="249.560547" xlink:href="#DejaVuSans-116"/>
     <use x="288.769531" xlink:href="#DejaVuSans-117"/>
     <use x="352.148438" xlink:href="#DejaVuSans-114"/>
     <use x="391.511719" xlink:href="#DejaVuSans-110"/>
     <use x="454.890625" xlink:href="#DejaVuSans-115"/>
     <use x="506.990234" xlink:href="#DejaVuSans-32"/>
     <use x="538.777344" xlink:href="#DejaVuSans-45"/>
     <use x="574.861328" xlink:href="#DejaVuSans-32"/>
     <use x="606.648438" xlink:href="#DejaVuSans-80"/>
     <use x="666.951172" xlink:href="#DejaVuSans-121"/>
     <use x="726.130859" xlink:href="#DejaVuSans-112"/>
     <use x="789.607422" xlink:href="#DejaVuSans-105"/>
     <use x="817.390625" xlink:href="#DejaVuSans-44"/>
     <use x="849.177734" xlink:href="#DejaVuSans-32"/>
     <use x="880.964844" xlink:href="#DejaVuSans-100"/>
     <use x="944.441406" xlink:href="#DejaVuSans-97"/>
     <use x="1005.720703" xlink:href="#DejaVuSans-105"/>
     <use x="1033.503906" xlink:href="#DejaVuSans-108"/>
     <use x="1061.287109" xlink:href="#DejaVuSans-121"/>
     <use x="1120.466797" xlink:href="#DejaVuSans-44"/>
     <use x="1152.253906" xlink:href="#DejaVuSans-32"/>
     <use x="1184.041016" xlink:href="#DejaVuSans-119"/>
     <use x="1265.828125" xlink:href="#DejaVuSans-105"/>
     <use x="1293.611328" xlink:href="#DejaVuSans-116"/>
     <use x="1332.820312" xlink:href="#DejaVuSans-104"/>
     <use x="1396.199219" xlink:href="#DejaVuSans-32"/>
     <use x="1427.986328" xlink:href="#DejaVuSans-109"/>
     <use x="1525.398438" xlink:href="#DejaVuSans-105"/>
     <use x="1553.181641" xlink:href="#DejaVuSans-114"/>
     <use x="1592.544922" xlink:href="#DejaVuSans-114"/>
     <use x="1631.408203" xlink:href="#DejaVuSans-111"/>
     <use x="1692.589844" xlink:href="#DejaVuSans-114"/>
     <use x="1733.703125" xlink:href="#DejaVuSans-115"/>
     <use x="1785.802734" xlink:href="#DejaVuSans-32"/>
     <use x="1817.589844" xlink:href="#DejaVuSans-45"/>
     <use x="1853.673828" xlink:href="#DejaVuSans-32"/>
     <use x="1885.460938" xlink:href="#DejaVuSans-116"/>
     <use x="1924.669922" xlink:href="#DejaVuSans-111"/>
     <use x="1985.851562" xlink:href="#DejaVuSans-116"/>
     <use x="2025.060547" xlink:href="#DejaVuSans-97"/>
     <use x="2086.339844" xlink:href="#DejaVuSans-108"/>
     <use x="2114.123047" xlink:href="#DejaVuSans-32"/>
     <use x="2145.910156" xlink:href="#DejaVuSans-111"/>
     <use x="2207.091797" xlink:href="#DejaVuSans-110"/>
     <use x="2270.470703" xlink:href="#DejaVuSans-32"/>
     <use x="2302.257812" xlink:href="#DejaVuSans-112"/>
     <use x="2365.734375" xlink:href="#DejaVuSans-101"/>
     <use x="2427.257812" xlink:href="#DejaVuSans-114"/>
     <use x="2468.371094" xlink:href="#DejaVuSans-105"/>
     <use x="2496.154297" xlink:href="#DejaVuSans-111"/>
     <use x="2557.335938" xlink:href="#DejaVuSans-100"/>
     <use x="2620.8125" xlink:href="#DejaVuSans-58"/>
     <use x="2654.503906" xlink:href="#DejaVuSans-32"/>
     <use x="2686.291016" xlink:href="#DejaVuSans-50"/>
     <use x="2749.914062" xlink:href="#DejaVuSans-51"/>
     <use x="2813.537109" xlink:href="#DejaVuSans-49"/>
     <use x="2877.160156" xlink:href="#DejaVuSans-49"/>
     <use x="2940.783203" xlink:href="#DejaVuSans-54"/>
    </g>
   </g>
   <g id="legend_1">
    <g id="patch_7">
     <path d="M 97 123.16 
L 182.565625 123.16 
Q 184.565625 123.16 184.565625 121.16 
L 184.565625 92.80375 
Q 184.565625 90.80375 182.565625 90.80375 
L 97 90.80375 
Q 95 90.80375 95 92.80375 
L 95 121.16 
Q 95 123.16 97 123.16 
z
" style="fill:#ffffff;opacity:0.8;stroke:#cccccc;stroke-linejoin:miter;"/>
    </g>
    <g id="line2d_33">
     <path d="M 99 98.902187 
L 119 98.902187 
" style="fill:none;stroke:#1f77b4;stroke-linecap:square;stroke-width:1.5;"/>
    </g>
    <g id="line2d_34"/>
    <g id="text_13">
     <!-- downloads -->
     <g transform="translate(127 102.402187)scale(0.1 -0.1)">
      <use xlink:href="#DejaVuSans-100"/>
      <use x="63.476562" xlink:href="#DejaVuSans-111"/>
      <use x="124.658203" xlink:href="#DejaVuSans-119"/>
      <use x="206.445312" xlink:href="#DejaVuSans-110"/>
      <use x="269.824219" xlink:href="#DejaVuSans-108"/>
      <use x="297.607422" xlink:href="#DejaVuSans-111"/>
      <use x="358.789062" xlink:href="#DejaVuSans-97"/>
      <use x="420.068359" xlink:href="#DejaVuSans-100"/>
      <use x="483.544922" xlink:href="#DejaVuSans-115"/>
     </g>
    </g>
    <g id="line2d_35">
     <path d="M 99 113.580313 
L 119 113.580313 
" style="fill:none;stroke:#ff7f0e;stroke-linecap:square;stroke-width:1.5;"/>
    </g>
    <g id="line2d_36"/>
    <g id="text_14">
     <!-- rolling -->
     <defs>
      <path d="M 45.40625 27.984375 
Q 45.40625 37.75 41.375 43.109375 
Q 37.359375 48.484375 30.078125 48.484375 
Q 22.859375 48.484375 18.828125 43.109375 
Q 14.796875 37.75 14.796875 27.984375 
Q 14.796875 18.265625 18.828125 12.890625 
Q 22.859375 7.515625 30.078125 7.515625 
Q 37.359375 7.515625 41.375 12.890625 
Q 45.40625 18.265625 45.40625 27.984375 
z
M 54.390625 6.78125 
Q 54.390625 -7.171875 48.1875 -13.984375 
Q 42 -20.796875 29.203125 -20.796875 
Q 24.46875 -20.796875 20.265625 -20.09375 
Q 16.0625 -19.390625 12.109375 -17.921875 
L 12.109375 -9.1875 
Q 16.0625 -11.328125 19.921875 -12.34375 
Q 23.78125 -13.375 27.78125 -13.375 
Q 36.625 -13.375 41.015625 -8.765625 
Q 45.40625 -4.15625 45.40625 5.171875 
L 45.40625 9.625 
Q 42.625 4.78125 38.28125 2.390625 
Q 33.9375 0 27.875 0 
Q 17.828125 0 11.671875 7.65625 
Q 5.515625 15.328125 5.515625 27.984375 
Q 5.515625 40.671875 11.671875 48.328125 
Q 17.828125 56 27.875 56 
Q 33.9375 56 38.28125 53.609375 
Q 42.625 51.21875 45.40625 46.390625 
L 45.40625 54.6875 
L 54.390625 54.6875 
z
" id="DejaVuSans-103"/>
     </defs>
     <g transform="translate(127 117.080313)scale(0.1 -0.1)">
      <use xlink:href="#DejaVuSans-114"/>
      <use x="38.863281" xlink:href="#DejaVuSans-111"/>
      <use x="100.044922" xlink:href="#DejaVuSans-108"/>
      <use x="127.828125" xlink:href="#DejaVuSans-108"/>
      <use x="155.611328" xlink:href="#DejaVuSans-105"/>
      <use x="183.394531" xlink:href="#DejaVuSans-110"/>
      <use x="246.773438" xlink:href="#DejaVuSans-103"/>
     </g>
    </g>
   </g>
  </g>
 </g>
 <defs>
  <clipPath id="p14833fec75">
   <rect height="110.88" width="558" x="90" y="17.28"/>
  </clipPath>
 </defs>
</svg>
