<?xml version="1.0" encoding="utf-8" standalone="no"?>
<!DOCTYPE svg PUBLIC "-//W3C//DTD SVG 1.1//EN"
  "http://www.w3.org/Graphics/SVG/1.1/DTD/svg11.dtd">
<svg xmlns:xlink="http://www.w3.org/1999/xlink" width="460.8pt" height="345.6pt" viewBox="0 0 460.8 345.6" xmlns="http://www.w3.org/2000/svg" version="1.1">
 <metadata>
  <rdf:RDF xmlns:dc="http://purl.org/dc/elements/1.1/" xmlns:cc="http://creativecommons.org/ns#" xmlns:rdf="http://www.w3.org/1999/02/22-rdf-syntax-ns#">
   <cc:Work>
    <dc:type rdf:resource="http://purl.org/dc/dcmitype/StillImage"/>
    <dc:date>2025-11-24T14:20:09.343044</dc:date>
    <dc:format>image/svg+xml</dc:format>
    <dc:creator>
     <cc:Agent>
      <dc:title>Matplotlib v3.10.8, https://matplotlib.org/</dc:title>
     </cc:Agent>
    </dc:creator>
   </cc:Work>
  </rdf:RDF>
 </metadata>
 <defs>
  <style type="text/css">*{stroke-linejoin: round; stroke-linecap: butt}</style>
 </defs>
 <g id="figure_1">
  <g id="patch_1">
   <path d="M 0 345.6 
L 460.8 345.6 
L 460.8 0 
L 0 0 
z
" style="fill: #ffffff"/>
  </g>
  <g id="axes_1">
   <g id="patch_2">
    <path d="M 57.6 307.584 
L 414.72 307.584 
L 414.72 68.0832 
L 57.6 68.0832 
z
" style="fill: #ffffff"/>
   </g>
   <g id="matplotlib.axis_1">
    <g id="xtick_1">
     <g id="line2d_1">
      <path d="M 62.813809 307.584 
L 62.813809 68.0832 
" clip-path="url(#p4267030fe8)" style="fill: none; stroke: #b0b0b0; stroke-width: 0.8; stroke-linecap: square"/>
     </g>
     <g id="line2d_2">
      <defs>
       <path id="m89057ca8bd" d="M 0 0 
L 0 3.5 
" style="stroke: #000000; stroke-width: 0.8"/>
      </defs>
      <g>
       <use xlink:href="#m89057ca8bd" x="62.813809" y="307.584" style="stroke: #000000; stroke-width: 0.8"/>
      </g>
     </g>
     <g id="text_1">
      <!-- −3 -->
      <g transform="translate(55.442715 322.182437) scale(0.1 -0.1)">
       <defs>
        <path id="DejaVuSans-2212" d="M 678 2272 
L 4684 2272 
L 4684 1741 
L 678 1741 
L 678 2272 
z
" transform="scale(0.015625)"/>
        <path id="DejaVuSans-33" d="M 2597 2516 
Q 3050 2419 3304 2112 
Q 3559 1806 3559 1356 
Q 3559 666 3084 287 
Q 2609 -91 1734 -91 
Q 1441 -91 1130 -33 
Q 819 25 488 141 
L 488 750 
Q 750 597 1062 519 
Q 1375 441 1716 441 
Q 2309 441 2620 675 
Q 2931 909 2931 1356 
Q 2931 1769 2642 2001 
Q 2353 2234 1838 2234 
L 1294 2234 
L 1294 2753 
L 1863 2753 
Q 2328 2753 2575 2939 
Q 2822 3125 2822 3475 
Q 2822 3834 2567 4026 
Q 2313 4219 1838 4219 
Q 1578 4219 1281 4162 
Q 984 4106 628 3988 
L 628 4550 
Q 988 4650 1302 4700 
Q 1616 4750 1894 4750 
Q 2613 4750 3031 4423 
Q 3450 4097 3450 3541 
Q 3450 3153 3228 2886 
Q 3006 2619 2597 2516 
z
" transform="scale(0.015625)"/>
       </defs>
       <use xlink:href="#DejaVuSans-2212"/>
       <use xlink:href="#DejaVuSans-33" transform="translate(83.789062 0)"/>
      </g>
     </g>
    </g>
    <g id="xtick_2">
     <g id="line2d_3">
      <path d="M 120.595873 307.584 
L 120.595873 68.0832 
" clip-path="url(#p4267030fe8)" style="fill: none; stroke: #b0b0b0; stroke-width: 0.8; stroke-linecap: square"/>
     </g>
     <g id="line2d_4">
      <g>
       <use xlink:href="#m89057ca8bd" x="120.595873" y="307.584" style="stroke: #000000; stroke-width: 0.8"/>
      </g>
     </g>
     <g id="text_2">
      <!-- −2 -->
      <g transform="translate(113.224779 322.182437) scale(0.1 -0.1)">
       <defs>
        <path id="DejaVuSans-32" d="M 1228 531 
L 3431 531 
L 3431 0 
L 469 0 
L 469 531 
Q 828 903 1448 1529 
Q 2069 2156 2228 2338 
Q 2531 2678 2651 2914 
Q 2772 3150 2772 3378 
Q 2772 3750 2511 3984 
Q 2250 4219 1831 4219 
Q 1534 4219 1204 4116 
Q 875 4013 500 3803 
L 500 4441 
Q 881 4594 1212 4672 
Q 1544 4750 1819 4750 
Q 2544 4750 2975 4387 
Q 3406 4025 3406 3419 
Q 3406 3131 3298 2873 
Q 3191 2616 2906 2266 
Q 2828 2175 2409 1742 
Q 1991 1309 1228 531 
z
" transform="scale(0.015625)"/>
       </defs>
       <use xlink:href="#DejaVuSans-2212"/>
       <use xlink:href="#DejaVuSans-32" transform="translate(83.789062 0)"/>
      </g>
     </g>
    </g>
    <g id="xtick_3">
     <g id="line2d_5">
      <path d="M 178.377936 307.584 
L 178.377936 68.0832 
" clip-path="url(#p4267030fe8)" style="fill: none; stroke: #b0b0b0; stroke-width: 0.8; stroke-linecap: square"/>
     </g>
     <g id="line2d_6">
      <g>
       <use xlink:href="#m89057ca8bd" x="178.377936" y="307.584" style="stroke: #000000; stroke-width: 0.8"/>
      </g>
     </g>
     <g id="text_3">
      <!-- −1 -->
      <g transform="translate(171.006843 322.182437) scale(0.1 -0.1)">
       <defs>
        <path id="DejaVuSans-31" d="M 794 531 
L 1825 531 
L 1825 4091 
L 703 3866 
L 703 4441 
L 1819 4666 
L 2450 4666 
L 2450 531 
L 3481 531 
L 3481 0 
L 794 0 
L 794 531 
z
" transform="scale(0.015625)"/>
       </defs>
       <use xlink:href="#DejaVuSans-2212"/>
       <use xlink:href="#DejaVuSans-31" transform="translate(83.789062 0)"/>
      </g>
     </g>
    </g>
    <g id="xtick_4">
     <g id="line2d_7">
      <path d="M 236.16 307.584 
L 236.16 68.0832 
" clip-path="url(#p4267030fe8)" style="fill: none; stroke: #b0b0b0; stroke-width: 0.8; stroke-linecap: square"/>
     </g>
     <g id="line2d_8">
      <g>
       <use xlink:href="#m89057ca8bd" x="236.16" y="307.584" style="stroke: #000000; stroke-width: 0.8"/>
      </g>
     </g>
     <g id="text_4">
      <!-- 0 -->
      <g transform="translate(232.97875 322.182437) scale(0.1 -0.1)">
       <defs>
        <path id="DejaVuSans-30" d="M 2034 4250 
Q 1547 4250 1301 3770 
Q 1056 3291 1056 2328 
Q 1056 1369 1301 889 
Q 1547 409 2034 409 
Q 2525 409 2770 889 
Q 3016 1369 3016 2328 
Q 3016 3291 2770 3770 
Q 2525 4250 2034 4250 
z
M 2034 4750 
Q 2819 4750 3233 4129 
Q 3647 3509 3647 2328 
Q 3647 1150 3233 529 
Q 2819 -91 2034 -91 
Q 1250 -91 836 529 
Q 422 1150 422 2328 
Q 422 3509 836 4129 
Q 1250 4750 2034 4750 
z
" transform="scale(0.015625)"/>
       </defs>
       <use xlink:href="#DejaVuSans-30"/>
      </g>
     </g>
    </g>
    <g id="xtick_5">
     <g id="line2d_9">
      <path d="M 293.942064 307.584 
L 293.942064 68.0832 
" clip-path="url(#p4267030fe8)" style="fill: none; stroke: #b0b0b0; stroke-width: 0.8; stroke-linecap: square"/>
     </g>
     <g id="line2d_10">
      <g>
       <use xlink:href="#m89057ca8bd" x="293.942064" y="307.584" style="stroke: #000000; stroke-width: 0.8"/>
      </g>
     </g>
     <g id="text_5">
      <!-- 1 -->
      <g transform="translate(290.760814 322.182437) scale(0.1 -0.1)">
       <use xlink:href="#DejaVuSans-31"/>
      </g>
     </g>
    </g>
    <g id="xtick_6">
     <g id="line2d_11">
      <path d="M 351.724127 307.584 
L 351.724127 68.0832 
" clip-path="url(#p4267030fe8)" style="fill: none; stroke: #b0b0b0; stroke-width: 0.8; stroke-linecap: square"/>
     </g>
     <g id="line2d_12">
      <g>
       <use xlink:href="#m89057ca8bd" x="351.724127" y="307.584" style="stroke: #000000; stroke-width: 0.8"/>
      </g>
     </g>
     <g id="text_6">
      <!-- 2 -->
      <g transform="translate(348.542877 322.182437) scale(0.1 -0.1)">
       <use xlink:href="#DejaVuSans-32"/>
      </g>
     </g>
    </g>
    <g id="xtick_7">
     <g id="line2d_13">
      <path d="M 409.506191 307.584 
L 409.506191 68.0832 
" clip-path="url(#p4267030fe8)" style="fill: none; stroke: #b0b0b0; stroke-width: 0.8; stroke-linecap: square"/>
     </g>
     <g id="line2d_14">
      <g>
       <use xlink:href="#m89057ca8bd" x="409.506191" y="307.584" style="stroke: #000000; stroke-width: 0.8"/>
      </g>
     </g>
     <g id="text_7">
      <!-- 3 -->
      <g transform="translate(406.324941 322.182437) scale(0.1 -0.1)">
       <use xlink:href="#DejaVuSans-33"/>
      </g>
     </g>
    </g>
    <g id="text_8">
     <!-- $x$ -->
     <g transform="translate(233.16 335.860562) scale(0.1 -0.1)">
      <defs>
       <path id="DejaVuSans-Oblique-78" d="M 3841 3500 
L 2234 1784 
L 3219 0 
L 2559 0 
L 1819 1388 
L 531 0 
L -166 0 
L 1556 1844 
L 641 3500 
L 1300 3500 
L 1972 2234 
L 3144 3500 
L 3841 3500 
z
" transform="scale(0.015625)"/>
      </defs>
      <use xlink:href="#DejaVuSans-Oblique-78" transform="translate(0 0.3125)"/>
     </g>
    </g>
   </g>
   <g id="matplotlib.axis_2">
    <g id="ytick_1">
     <g id="line2d_15">
      <path d="M 57.6 286.64784 
L 414.72 286.64784 
" clip-path="url(#p4267030fe8)" style="fill: none; stroke: #b0b0b0; stroke-width: 0.8; stroke-linecap: square"/>
     </g>
     <g id="line2d_16">
      <defs>
       <path id="m9c159bb90d" d="M 0 0 
L -3.5 0 
" style="stroke: #000000; stroke-width: 0.8"/>
      </defs>
      <g>
       <use xlink:href="#m9c159bb90d" x="57.6" y="286.64784" style="stroke: #000000; stroke-width: 0.8"/>
      </g>
     </g>
     <g id="text_9">
      <!-- −7.5 -->
      <g transform="translate(26.317187 290.447058) scale(0.1 -0.1)">
       <defs>
        <path id="DejaVuSans-37" d="M 525 4666 
L 3525 4666 
L 3525 4397 
L 1831 0 
L 1172 0 
L 2766 4134 
L 525 4134 
L 525 4666 
z
" transform="scale(0.015625)"/>
        <path id="DejaVuSans-2e" d="M 684 794 
L 1344 794 
L 1344 0 
L 684 0 
L 684 794 
z
" transform="scale(0.015625)"/>
        <path id="DejaVuSans-35" d="M 691 4666 
L 3169 4666 
L 3169 4134 
L 1269 4134 
L 1269 2991 
Q 1406 3038 1543 3061 
Q 1681 3084 1819 3084 
Q 2600 3084 3056 2656 
Q 3513 2228 3513 1497 
Q 3513 744 3044 326 
Q 2575 -91 1722 -91 
Q 1428 -91 1123 -41 
Q 819 9 494 109 
L 494 744 
Q 775 591 1075 516 
Q 1375 441 1709 441 
Q 2250 441 2565 725 
Q 2881 1009 2881 1497 
Q 2881 1984 2565 2268 
Q 2250 2553 1709 2553 
Q 1456 2553 1204 2497 
Q 953 2441 691 2322 
L 691 4666 
z
" transform="scale(0.015625)"/>
       </defs>
       <use xlink:href="#DejaVuSans-2212"/>
       <use xlink:href="#DejaVuSans-37" transform="translate(83.789062 0)"/>
       <use xlink:href="#DejaVuSans-2e" transform="translate(147.412109 0)"/>
       <use xlink:href="#DejaVuSans-35" transform="translate(179.199219 0)"/>
      </g>
     </g>
    </g>
    <g id="ytick_2">
     <g id="line2d_17">
      <path d="M 57.6 253.70976 
L 414.72 253.70976 
" clip-path="url(#p4267030fe8)" style="fill: none; stroke: #b0b0b0; stroke-width: 0.8; stroke-linecap: square"/>
     </g>
     <g id="line2d_18">
      <g>
       <use xlink:href="#m9c159bb90d" x="57.6" y="253.70976" style="stroke: #000000; stroke-width: 0.8"/>
      </g>
     </g>
     <g id="text_10">
      <!-- −5.0 -->
      <g transform="translate(26.317187 257.508979) scale(0.1 -0.1)">
       <use xlink:href="#DejaVuSans-2212"/>
       <use xlink:href="#DejaVuSans-35" transform="translate(83.789062 0)"/>
       <use xlink:href="#DejaVuSans-2e" transform="translate(147.412109 0)"/>
       <use xlink:href="#DejaVuSans-30" transform="translate(179.199219 0)"/>
      </g>
     </g>
    </g>
    <g id="ytick_3">
     <g id="line2d_19">
      <path d="M 57.6 220.77168 
L 414.72 220.77168 
" clip-path="url(#p4267030fe8)" style="fill: none; stroke: #b0b0b0; stroke-width: 0.8; stroke-linecap: square"/>
     </g>
     <g id="line2d_20">
      <g>
       <use xlink:href="#m9c159bb90d" x="57.6" y="220.77168" style="stroke: #000000; stroke-width: 0.8"/>
      </g>
     </g>
     <g id="text_11">
      <!-- −2.5 -->
      <g transform="translate(26.317187 224.570899) scale(0.1 -0.1)">
       <use xlink:href="#DejaVuSans-2212"/>
       <use xlink:href="#DejaVuSans-32" transform="translate(83.789062 0)"/>
       <use xlink:href="#DejaVuSans-2e" transform="translate(147.412109 0)"/>
       <use xlink:href="#DejaVuSans-35" transform="translate(179.199219 0)"/>
      </g>
     </g>
    </g>
    <g id="ytick_4">
     <g id="line2d_21">
      <path d="M 57.6 187.8336 
L 414.72 187.8336 
" clip-path="url(#p4267030fe8)" style="fill: none; stroke: #b0b0b0; stroke-width: 0.8; stroke-linecap: square"/>
     </g>
     <g id="line2d_22">
      <g>
       <use xlink:href="#m9c159bb90d" x="57.6" y="187.8336" style="stroke: #000000; stroke-width: 0.8"/>
      </g>
     </g>
     <g id="text_12">
      <!-- 0.0 -->
      <g transform="translate(34.696875 191.632819) scale(0.1 -0.1)">
       <use xlink:href="#DejaVuSans-30"/>
       <use xlink:href="#DejaVuSans-2e" transform="translate(63.623047 0)"/>
       <use xlink:href="#DejaVuSans-30" transform="translate(95.410156 0)"/>
      </g>
     </g>
    </g>
    <g id="ytick_5">
     <g id="line2d_23">
      <path d="M 57.6 154.89552 
L 414.72 154.89552 
" clip-path="url(#p4267030fe8)" style="fill: none; stroke: #b0b0b0; stroke-width: 0.8; stroke-linecap: square"/>
     </g>
     <g id="line2d_24">
      <g>
       <use xlink:href="#m9c159bb90d" x="57.6" y="154.89552" style="stroke: #000000; stroke-width: 0.8"/>
      </g>
     </g>
     <g id="text_13">
      <!-- 2.5 -->
      <g transform="translate(34.696875 158.694739) scale(0.1 -0.1)">
       <use xlink:href="#DejaVuSans-32"/>
       <use xlink:href="#DejaVuSans-2e" transform="translate(63.623047 0)"/>
       <use xlink:href="#DejaVuSans-35" transform="translate(95.410156 0)"/>
      </g>
     </g>
    </g>
    <g id="ytick_6">
     <g id="line2d_25">
      <path d="M 57.6 121.95744 
L 414.72 121.95744 
" clip-path="url(#p4267030fe8)" style="fill: none; stroke: #b0b0b0; stroke-width: 0.8; stroke-linecap: square"/>
     </g>
     <g id="line2d_26">
      <g>
       <use xlink:href="#m9c159bb90d" x="57.6" y="121.95744" style="stroke: #000000; stroke-width: 0.8"/>
      </g>
     </g>
     <g id="text_14">
      <!-- 5.0 -->
      <g transform="translate(34.696875 125.756659) scale(0.1 -0.1)">
       <use xlink:href="#DejaVuSans-35"/>
       <use xlink:href="#DejaVuSans-2e" transform="translate(63.623047 0)"/>
       <use xlink:href="#DejaVuSans-30" transform="translate(95.410156 0)"/>
      </g>
     </g>
    </g>
    <g id="ytick_7">
     <g id="line2d_27">
      <path d="M 57.6 89.01936 
L 414.72 89.01936 
" clip-path="url(#p4267030fe8)" style="fill: none; stroke: #b0b0b0; stroke-width: 0.8; stroke-linecap: square"/>
     </g>
     <g id="line2d_28">
      <g>
       <use xlink:href="#m9c159bb90d" x="57.6" y="89.01936" style="stroke: #000000; stroke-width: 0.8"/>
      </g>
     </g>
     <g id="text_15">
      <!-- 7.5 -->
      <g transform="translate(34.696875 92.818579) scale(0.1 -0.1)">
       <use xlink:href="#DejaVuSans-37"/>
       <use xlink:href="#DejaVuSans-2e" transform="translate(63.623047 0)"/>
       <use xlink:href="#DejaVuSans-35" transform="translate(95.410156 0)"/>
      </g>
     </g>
    </g>
    <g id="text_16">
     <!-- $\phi_i(x)$ -->
     <g transform="translate(20.217188 199.1336) rotate(-90) scale(0.1 -0.1)">
      <defs>
       <path id="DejaVuSans-Oblique-3d5" d="M 2991 4863 
L 2738 3572 
Q 3363 3572 3684 3094 
Q 4016 2606 3850 1747 
Q 3681 888 3159 400 
Q 2653 -78 2028 -78 
L 1784 -1331 
L 1213 -1331 
L 1456 -78 
Q 834 -78 509 400 
Q 178 888 347 1747 
Q 513 2606 1034 3094 
Q 1544 3572 2166 3572 
L 2419 4863 
L 2991 4863 
z
M 2128 434 
Q 2481 434 2784 756 
Q 3116 1116 3244 1747 
Q 3369 2372 3169 2738 
Q 2991 3059 2638 3059 
L 2128 434 
z
M 1556 434 
L 2066 3059 
Q 1716 3059 1413 2738 
Q 1072 2372 953 1747 
Q 834 1116 1028 756 
Q 1203 434 1556 434 
z
" transform="scale(0.015625)"/>
       <path id="DejaVuSans-Oblique-69" d="M 1172 4863 
L 1747 4863 
L 1606 4134 
L 1031 4134 
L 1172 4863 
z
M 909 3500 
L 1484 3500 
L 800 0 
L 225 0 
L 909 3500 
z
" transform="scale(0.015625)"/>
       <path id="DejaVuSans-28" d="M 1984 4856 
Q 1566 4138 1362 3434 
Q 1159 2731 1159 2009 
Q 1159 1288 1364 580 
Q 1569 -128 1984 -844 
L 1484 -844 
Q 1016 -109 783 600 
Q 550 1309 550 2009 
Q 550 2706 781 3412 
Q 1013 4119 1484 4856 
L 1984 4856 
z
" transform="scale(0.015625)"/>
       <path id="DejaVuSans-29" d="M 513 4856 
L 1013 4856 
Q 1481 4119 1714 3412 
Q 1947 2706 1947 2009 
Q 1947 1309 1714 600 
Q 1481 -109 1013 -844 
L 513 -844 
Q 928 -128 1133 580 
Q 1338 1288 1338 2009 
Q 1338 2731 1133 3434 
Q 928 4138 513 4856 
z
" transform="scale(0.015625)"/>
      </defs>
      <use xlink:href="#DejaVuSans-Oblique-3d5" transform="translate(0 0.015625)"/>
      <use xlink:href="#DejaVuSans-Oblique-69" transform="translate(65.966797 -16.390625) scale(0.7)"/>
      <use xlink:href="#DejaVuSans-28" transform="translate(88.149414 0.015625)"/>
      <use xlink:href="#DejaVuSans-Oblique-78" transform="translate(127.163086 0.015625)"/>
      <use xlink:href="#DejaVuSans-29" transform="translate(186.342773 0.015625)"/>
     </g>
    </g>
   </g>
   <g id="line2d_29">
    <path d="M 57.6 174.658368 
L 414.72 174.658368 
L 414.72 174.658368 
" clip-path="url(#p4267030fe8)" style="fill: none; stroke: #1f77b4; stroke-width: 1.5; stroke-linecap: square"/>
   </g>
   <g id="line2d_30">
    <path d="M 57.6 228.548127 
L 414.72 147.119073 
L 414.72 147.119073 
" clip-path="url(#p4267030fe8)" style="fill: none; stroke: #ff7f0e; stroke-width: 1.5; stroke-linecap: square"/>
   </g>
   <g id="line2d_31">
    <path d="M 57.6 108.183596 
L 64.778291 115.192885 
L 71.956583 121.914613 
L 79.134874 128.348781 
L 86.313166 134.495389 
L 93.491457 140.354435 
L 100.669749 145.925922 
L 107.84804 151.209847 
L 115.026332 156.206212 
L 122.204623 160.915017 
L 129.382915 165.33626 
L 136.561206 169.469944 
L 143.739497 173.316066 
L 150.917789 176.874629 
L 158.09608 180.14563 
L 165.274372 183.129071 
L 172.452663 185.824952 
L 179.630955 188.233271 
L 186.809246 190.354031 
L 193.987538 192.187229 
L 201.165829 193.732867 
L 208.344121 194.990945 
L 215.522412 195.961462 
L 222.700704 196.644418 
L 229.878995 197.039814 
L 237.057286 197.147649 
L 244.235578 196.967924 
L 251.413869 196.500638 
L 258.592161 195.745791 
L 265.770452 194.703384 
L 272.948744 193.373417 
L 280.127035 191.755888 
L 287.305327 189.8508 
L 294.483618 187.65815 
L 301.66191 185.17794 
L 308.840201 182.41017 
L 316.018492 179.354839 
L 323.196784 176.011947 
L 330.375075 172.381495 
L 337.553367 168.463482 
L 344.731658 164.257908 
L 351.90995 159.764774 
L 359.088241 154.98408 
L 366.266533 149.915825 
L 373.444824 144.560009 
L 380.623116 138.916632 
L 387.801407 132.985696 
L 394.979698 126.767198 
L 402.15799 120.26114 
L 409.336281 113.467521 
L 414.72 108.183596 
L 414.72 108.183596 
" clip-path="url(#p4267030fe8)" style="fill: none; stroke: #2ca02c; stroke-width: 1.5; stroke-linecap: square"/>
   </g>
   <g id="line2d_32">
    <path d="M 57.6 296.6976 
L 62.983719 284.272211 
L 66.572864 276.456713 
L 70.16201 269.006666 
L 73.751156 261.914336 
L 77.340302 255.171989 
L 80.929447 248.77189 
L 84.518593 242.706305 
L 88.107739 236.967499 
L 91.696884 231.547739 
L 95.28603 226.439289 
L 98.875176 221.634415 
L 102.464322 217.125383 
L 106.053467 212.904459 
L 109.642613 208.963907 
L 113.231759 205.295994 
L 116.820905 201.892984 
L 120.41005 198.747145 
L 123.999196 195.85074 
L 127.588342 193.196037 
L 131.177487 190.7753 
L 134.766633 188.580794 
L 138.355779 186.604786 
L 141.944925 184.839542 
L 145.53407 183.277326 
L 149.123216 181.910404 
L 152.712362 180.731042 
L 156.301508 179.731505 
L 159.890653 178.904059 
L 163.479799 178.24097 
L 167.068945 177.734503 
L 172.452663 177.25155 
L 177.836382 177.07749 
L 183.220101 177.18622 
L 188.603819 177.551637 
L 193.987538 178.147636 
L 199.371256 178.948114 
L 206.549548 180.288378 
L 213.727839 181.883879 
L 222.700704 184.142917 
L 235.262714 187.583043 
L 251.413869 191.99446 
L 260.386734 194.202741 
L 267.565025 195.740233 
L 274.743317 197.007021 
L 280.127035 197.74224 
L 285.510754 198.264278 
L 290.894472 198.547033 
L 296.278191 198.5644 
L 301.66191 198.290276 
L 307.045628 197.698558 
L 310.634774 197.114747 
L 314.22392 196.370446 
L 317.813065 195.457921 
L 321.402211 194.369439 
L 324.991357 193.097264 
L 328.580503 191.633662 
L 332.169648 189.970898 
L 335.758794 188.101238 
L 339.34794 186.016949 
L 342.937085 183.710294 
L 346.526231 181.173541 
L 350.115377 178.398953 
L 353.704523 175.378798 
L 357.293668 172.105341 
L 360.882814 168.570846 
L 364.47196 164.76758 
L 368.061106 160.687809 
L 371.650251 156.323798 
L 375.239397 151.667812 
L 378.828543 146.712117 
L 382.417688 141.448978 
L 386.006834 135.870662 
L 389.59598 129.969434 
L 393.185126 123.737558 
L 396.774271 117.167302 
L 400.363417 110.25093 
L 403.952563 102.980709 
L 407.541709 95.348903 
L 411.130854 87.347778 
L 414.72 78.9696 
L 414.72 78.9696 
" clip-path="url(#p4267030fe8)" style="fill: none; stroke: #d62728; stroke-width: 1.5; stroke-linecap: square"/>
   </g>
   <g id="line2d_33">
    <path d="M 57.6 88.605002 
L 61.189146 101.604869 
L 64.778291 113.587413 
L 68.367437 124.598993 
L 71.956583 134.685011 
L 75.545729 143.889905 
L 79.134874 152.257155 
L 82.72402 159.829277 
L 86.313166 166.647829 
L 89.902312 172.753406 
L 93.491457 178.185645 
L 97.080603 182.983218 
L 100.669749 187.18384 
L 104.258894 190.824262 
L 107.84804 193.940278 
L 111.437186 196.566716 
L 115.026332 198.737448 
L 118.615477 200.485383 
L 122.204623 201.842469 
L 125.793769 202.839693 
L 129.382915 203.507082 
L 132.97206 203.873701 
L 136.561206 203.967657 
L 140.150352 203.816092 
L 143.739497 203.445189 
L 147.328643 202.880172 
L 150.917789 202.145302 
L 156.301508 200.775228 
L 161.685226 199.149772 
L 168.863518 196.705042 
L 181.425528 192.079157 
L 192.192965 188.206597 
L 199.371256 185.864588 
L 204.754975 184.297452 
L 210.138693 182.927313 
L 215.522412 181.780115 
L 220.906131 180.876937 
L 226.289849 180.233993 
L 231.673568 179.862633 
L 237.057286 179.769342 
L 242.441005 179.955743 
L 247.824724 180.418592 
L 253.208442 181.149782 
L 258.592161 182.136342 
L 263.975879 183.360436 
L 269.359598 184.799363 
L 276.537889 187.003776 
L 283.716181 189.461762 
L 296.278191 194.081501 
L 307.045628 197.958886 
L 312.429347 199.715563 
L 317.813065 201.263879 
L 323.196784 202.53249 
L 326.78593 203.185406 
L 330.375075 203.656459 
L 333.964221 203.920905 
L 337.553367 203.953043 
L 341.142513 203.726209 
L 344.731658 203.212777 
L 348.320804 202.384164 
L 351.90995 201.210823 
L 355.499095 199.662246 
L 359.088241 197.706966 
L 362.677387 195.312555 
L 366.266533 192.445621 
L 369.855678 189.071816 
L 373.444824 185.155828 
L 377.03397 180.661385 
L 380.623116 175.551253 
L 384.212261 169.78724 
L 387.801407 163.330189 
L 391.390553 156.139987 
L 394.979698 148.175555 
L 398.568844 139.394858 
L 402.15799 129.754897 
L 405.747136 119.211713 
L 409.336281 107.720386 
L 412.925427 95.235036 
L 414.72 88.605002 
L 414.72 88.605002 
" clip-path="url(#p4267030fe8)" style="fill: none; stroke: #9467bd; stroke-width: 1.5; stroke-linecap: square"/>
   </g>
   <g id="line2d_34">
    <path d="M 57.6 227.595995 
L 59.394573 220.936615 
L 61.189146 214.7286 
L 62.983719 208.954086 
L 64.778291 203.595614 
L 66.572864 198.636128 
L 68.367437 194.058969 
L 70.16201 189.847873 
L 71.956583 185.986967 
L 73.751156 182.460762 
L 75.545729 179.254151 
L 77.340302 176.352405 
L 79.134874 173.741168 
L 80.929447 171.406454 
L 82.72402 169.33464 
L 84.518593 167.512465 
L 86.313166 165.927024 
L 88.107739 164.565766 
L 89.902312 163.416485 
L 91.696884 162.467323 
L 93.491457 161.706759 
L 95.28603 161.123609 
L 97.080603 160.707019 
L 98.875176 160.446466 
L 100.669749 160.331746 
L 102.464322 160.352977 
L 104.258894 160.500589 
L 107.84804 161.138238 
L 111.437186 162.174285 
L 115.026332 163.543094 
L 118.615477 165.183667 
L 122.204623 167.039509 
L 127.588342 170.114047 
L 136.561206 175.635869 
L 145.53407 181.140884 
L 150.917789 184.237346 
L 156.301508 187.081402 
L 161.685226 189.61216 
L 165.274372 191.102043 
L 168.863518 192.421927 
L 172.452663 193.564364 
L 176.041809 194.524406 
L 179.630955 195.299476 
L 183.220101 195.889232 
L 186.809246 196.295433 
L 190.398392 196.521807 
L 193.987538 196.573917 
L 197.576683 196.459029 
L 201.165829 196.185973 
L 206.549548 195.502648 
L 211.933266 194.526856 
L 217.316985 193.304172 
L 224.495276 191.377057 
L 233.468141 188.672846 
L 247.824724 184.290143 
L 255.003015 182.363028 
L 260.386734 181.140344 
L 265.770452 180.164552 
L 271.154171 179.481227 
L 274.743317 179.208171 
L 278.332462 179.093283 
L 281.921608 179.145393 
L 285.510754 179.371767 
L 289.099899 179.777968 
L 292.689045 180.367724 
L 296.278191 181.142794 
L 299.867337 182.102836 
L 303.456482 183.245273 
L 307.045628 184.565157 
L 310.634774 186.05504 
L 316.018492 188.585798 
L 321.402211 191.429854 
L 326.78593 194.526316 
L 335.758794 200.031331 
L 344.731658 205.553153 
L 350.115377 208.627691 
L 353.704523 210.483533 
L 357.293668 212.124106 
L 360.882814 213.492915 
L 364.47196 214.528962 
L 368.061106 215.166611 
L 369.855678 215.314223 
L 371.650251 215.335454 
L 373.444824 215.220734 
L 375.239397 214.960181 
L 377.03397 214.543591 
L 378.828543 213.960441 
L 380.623116 213.199877 
L 382.417688 212.250715 
L 384.212261 211.101434 
L 386.006834 209.740176 
L 387.801407 208.154735 
L 389.59598 206.33256 
L 391.390553 204.260746 
L 393.185126 201.926032 
L 394.979698 199.314795 
L 396.774271 196.413049 
L 398.568844 193.206438 
L 400.363417 189.680233 
L 402.15799 185.819327 
L 403.952563 181.608231 
L 405.747136 177.031072 
L 407.541709 172.071586 
L 409.336281 166.713114 
L 411.130854 160.9386 
L 412.925427 154.730585 
L 414.72 148.071205 
L 414.72 148.071205 
" clip-path="url(#p4267030fe8)" style="fill: none; stroke: #8c564b; stroke-width: 1.5; stroke-linecap: square"/>
   </g>
   <g id="line2d_35">
    <path d="M 57.6 228.252978 
L 59.394573 231.021688 
L 61.189146 233.301067 
L 62.983719 235.124771 
L 64.778291 236.525112 
L 66.572864 237.533088 
L 68.367437 238.178418 
L 70.16201 238.489564 
L 71.956583 238.49377 
L 73.751156 238.217085 
L 75.545729 237.684394 
L 77.340302 236.919447 
L 79.134874 235.94489 
L 80.929447 234.782287 
L 82.72402 233.452156 
L 86.313166 230.366286 
L 89.902312 226.831446 
L 93.491457 222.976734 
L 98.875176 216.842486 
L 109.642613 204.446554 
L 115.026332 198.668754 
L 118.615477 195.094669 
L 122.204623 191.787262 
L 125.793769 188.775269 
L 129.382915 186.079815 
L 132.97206 183.715056 
L 136.561206 181.688789 
L 140.150352 180.003048 
L 143.739497 178.654674 
L 147.328643 177.635875 
L 150.917789 176.934753 
L 154.506935 176.535819 
L 158.09608 176.420486 
L 161.685226 176.567539 
L 165.274372 176.953589 
L 168.863518 177.553504 
L 172.452663 178.340819 
L 177.836382 179.81305 
L 183.220101 181.550601 
L 190.398392 184.116423 
L 202.960402 188.689485 
L 208.344121 190.467799 
L 213.727839 192.034272 
L 219.111558 193.330789 
L 224.495276 194.310512 
L 228.084422 194.770001 
L 231.673568 195.065841 
L 235.262714 195.193451 
L 238.851859 195.150859 
L 242.441005 194.938724 
L 246.030151 194.560325 
L 249.619296 194.021537 
L 255.003015 192.931745 
L 260.386734 191.539462 
L 265.770452 189.89539 
L 272.948744 187.419605 
L 290.894472 180.947812 
L 296.278191 179.288128 
L 301.66191 177.925432 
L 305.251055 177.228441 
L 308.840201 176.732224 
L 312.429347 176.46263 
L 316.018492 176.443972 
L 319.607638 176.698608 
L 323.196784 177.246494 
L 326.78593 178.104731 
L 330.375075 179.287075 
L 333.964221 180.803435 
L 337.553367 182.659356 
L 341.142513 184.85547 
L 344.731658 187.386934 
L 348.320804 190.242848 
L 351.90995 193.405649 
L 355.499095 196.850487 
L 359.088241 200.544581 
L 364.47196 206.460046 
L 373.444824 216.842486 
L 378.828543 222.976734 
L 382.417688 226.831446 
L 386.006834 230.366286 
L 389.59598 233.452156 
L 391.390553 234.782287 
L 393.185126 235.94489 
L 394.979698 236.919447 
L 396.774271 237.684394 
L 398.568844 238.217085 
L 400.363417 238.49377 
L 402.15799 238.489564 
L 403.952563 238.178418 
L 405.747136 237.533088 
L 407.541709 236.525112 
L 409.336281 235.124771 
L 411.130854 233.301067 
L 412.925427 231.021688 
L 414.72 228.252978 
L 414.72 228.252978 
" clip-path="url(#p4267030fe8)" style="fill: none; stroke: #e377c2; stroke-width: 1.5; stroke-linecap: square"/>
   </g>
   <g id="line2d_36">
    <path d="M 57.6 103.811022 
L 61.189146 110.895212 
L 64.778291 118.655516 
L 70.16201 130.965116 
L 77.340302 147.469178 
L 80.929447 155.370707 
L 84.518593 162.863672 
L 88.107739 169.850487 
L 91.696884 176.257266 
L 95.28603 182.031341 
L 98.875176 187.138932 
L 102.464322 191.562932 
L 104.258894 193.517288 
L 106.053467 195.300842 
L 107.84804 196.915245 
L 109.642613 198.362822 
L 111.437186 199.646523 
L 113.231759 200.769866 
L 115.026332 201.736891 
L 116.820905 202.552108 
L 118.615477 203.220451 
L 120.41005 203.747233 
L 122.204623 204.138104 
L 123.999196 204.39901 
L 125.793769 204.536148 
L 129.382915 204.464968 
L 132.97206 203.977837 
L 136.561206 203.129826 
L 140.150352 201.976806 
L 143.739497 200.574547 
L 149.123216 198.123422 
L 156.301508 194.47961 
L 167.068945 188.969346 
L 172.452663 186.483803 
L 177.836382 184.318752 
L 181.425528 183.092465 
L 185.014673 182.060427 
L 188.603819 181.235084 
L 192.192965 180.624342 
L 195.782111 180.231675 
L 199.371256 180.05629 
L 202.960402 180.093327 
L 206.549548 180.334097 
L 210.138693 180.766358 
L 213.727839 181.374616 
L 219.111558 182.576007 
L 224.495276 184.058799 
L 231.673568 186.329705 
L 247.824724 191.608401 
L 253.208442 193.091193 
L 258.592161 194.292584 
L 262.181307 194.900842 
L 265.770452 195.333103 
L 269.359598 195.573873 
L 272.948744 195.61091 
L 276.537889 195.435525 
L 280.127035 195.042858 
L 283.716181 194.432116 
L 287.305327 193.606773 
L 290.894472 192.574735 
L 294.483618 191.348448 
L 298.072764 189.944977 
L 303.456482 187.556265 
L 308.840201 184.911282 
L 324.991357 176.689288 
L 328.580503 175.092653 
L 332.169648 173.690394 
L 335.758794 172.537374 
L 339.34794 171.689363 
L 342.937085 171.202232 
L 346.526231 171.131052 
L 348.320804 171.26819 
L 350.115377 171.529096 
L 351.90995 171.919967 
L 353.704523 172.446749 
L 355.499095 173.115092 
L 357.293668 173.930309 
L 359.088241 174.897334 
L 360.882814 176.020677 
L 362.677387 177.304378 
L 364.47196 178.751955 
L 366.266533 180.366358 
L 368.061106 182.149912 
L 369.855678 184.104268 
L 373.444824 188.528268 
L 377.03397 193.635859 
L 380.623116 199.409934 
L 384.212261 205.816713 
L 387.801407 212.803528 
L 391.390553 220.296493 
L 396.774271 232.26438 
L 409.336281 260.957958 
L 412.925427 268.417667 
L 414.72 271.856178 
L 414.72 271.856178 
" clip-path="url(#p4267030fe8)" style="fill: none; stroke: #7f7f7f; stroke-width: 1.5; stroke-linecap: square"/>
   </g>
   <g id="patch_3">
    <path d="M 57.6 307.584 
L 57.6 68.0832 
" style="fill: none; stroke: #000000; stroke-width: 0.8; stroke-linejoin: miter; stroke-linecap: square"/>
   </g>
   <g id="patch_4">
    <path d="M 414.72 307.584 
L 414.72 68.0832 
" style="fill: none; stroke: #000000; stroke-width: 0.8; stroke-linejoin: miter; stroke-linecap: square"/>
   </g>
   <g id="patch_5">
    <path d="M 57.6 307.584 
L 414.72 307.584 
" style="fill: none; stroke: #000000; stroke-width: 0.8; stroke-linejoin: miter; stroke-linecap: square"/>
   </g>
   <g id="patch_6">
    <path d="M 57.6 68.0832 
L 414.72 68.0832 
" style="fill: none; stroke: #000000; stroke-width: 0.8; stroke-linejoin: miter; stroke-linecap: square"/>
   </g>
   <g id="legend_1">
    <g id="patch_7">
     <path d="M 109.16 46.608 
L 363.16 46.608 
Q 365.16 46.608 365.16 44.608 
L 365.16 15.208 
Q 365.16 13.208 363.16 13.208 
L 109.16 13.208 
Q 107.16 13.208 107.16 15.208 
L 107.16 44.608 
Q 107.16 46.608 109.16 46.608 
z
" style="fill: #ffffff; opacity: 0.8; stroke: #cccccc; stroke-linejoin: miter"/>
    </g>
    <g id="line2d_37">
     <path d="M 111.16 21.308 
L 121.16 21.308 
L 131.16 21.308 
" style="fill: none; stroke: #1f77b4; stroke-width: 1.5; stroke-linecap: square"/>
    </g>
    <g id="text_17">
     <!-- $\phi_(x)$ -->
     <g transform="translate(139.16 24.808) scale(0.1 -0.1)">
      <use xlink:href="#DejaVuSans-Oblique-3d5" transform="translate(0 0.015625)"/>
      <use xlink:href="#DejaVuSans-28" transform="translate(65.966797 -16.390625) scale(0.7)"/>
      <use xlink:href="#DejaVuSans-Oblique-78" transform="translate(96.010742 0.015625)"/>
      <use xlink:href="#DejaVuSans-29" transform="translate(155.19043 0.015625)"/>
     </g>
    </g>
    <g id="line2d_38">
     <path d="M 111.16 36.508 
L 121.16 36.508 
L 131.16 36.508 
" style="fill: none; stroke: #ff7f0e; stroke-width: 1.5; stroke-linecap: square"/>
    </g>
    <g id="text_18">
     <!-- $\phi_(x)$ -->
     <g transform="translate(139.16 40.008) scale(0.1 -0.1)">
      <use xlink:href="#DejaVuSans-Oblique-3d5" transform="translate(0 0.015625)"/>
      <use xlink:href="#DejaVuSans-28" transform="translate(65.966797 -16.390625) scale(0.7)"/>
      <use xlink:href="#DejaVuSans-Oblique-78" transform="translate(96.010742 0.015625)"/>
      <use xlink:href="#DejaVuSans-29" transform="translate(155.19043 0.015625)"/>
     </g>
    </g>
    <g id="line2d_39">
     <path d="M 178.66 21.308 
L 188.66 21.308 
L 198.66 21.308 
" style="fill: none; stroke: #2ca02c; stroke-width: 1.5; stroke-linecap: square"/>
    </g>
    <g id="text_19">
     <!-- $\phi_(x)$ -->
     <g transform="translate(206.66 24.808) scale(0.1 -0.1)">
      <use xlink:href="#DejaVuSans-Oblique-3d5" transform="translate(0 0.015625)"/>
      <use xlink:href="#DejaVuSans-28" transform="translate(65.966797 -16.390625) scale(0.7)"/>
      <use xlink:href="#DejaVuSans-Oblique-78" transform="translate(96.010742 0.015625)"/>
      <use xlink:href="#DejaVuSans-29" transform="translate(155.19043 0.015625)"/>
     </g>
    </g>
    <g id="line2d_40">
     <path d="M 178.66 36.508 
L 188.66 36.508 
L 198.66 36.508 
" style="fill: none; stroke: #d62728; stroke-width: 1.5; stroke-linecap: square"/>
    </g>
    <g id="text_20">
     <!-- $\phi_(x)$ -->
     <g transform="translate(206.66 40.008) scale(0.1 -0.1)">
      <use xlink:href="#DejaVuSans-Oblique-3d5" transform="translate(0 0.015625)"/>
      <use xlink:href="#DejaVuSans-28" transform="translate(65.966797 -16.390625) scale(0.7)"/>
      <use xlink:href="#DejaVuSans-Oblique-78" transform="translate(96.010742 0.015625)"/>
      <use xlink:href="#DejaVuSans-29" transform="translate(155.19043 0.015625)"/>
     </g>
    </g>
    <g id="line2d_41">
     <path d="M 246.16 21.308 
L 256.16 21.308 
L 266.16 21.308 
" style="fill: none; stroke: #9467bd; stroke-width: 1.5; stroke-linecap: square"/>
    </g>
    <g id="text_21">
     <!-- $\phi_(x)$ -->
     <g transform="translate(274.16 24.808) scale(0.1 -0.1)">
      <use xlink:href="#DejaVuSans-Oblique-3d5" transform="translate(0 0.015625)"/>
      <use xlink:href="#DejaVuSans-28" transform="translate(65.966797 -16.390625) scale(0.7)"/>
      <use xlink:href="#DejaVuSans-Oblique-78" transform="translate(96.010742 0.015625)"/>
      <use xlink:href="#DejaVuSans-29" transform="translate(155.19043 0.015625)"/>
     </g>
    </g>
    <g id="line2d_42">
     <path d="M 246.16 36.508 
L 256.16 36.508 
L 266.16 36.508 
" style="fill: none; stroke: #8c564b; stroke-width: 1.5; stroke-linecap: square"/>
    </g>
    <g id="text_22">
     <!-- $\phi_(x)$ -->
     <g transform="translate(274.16 40.008) scale(0.1 -0.1)">
      <use xlink:href="#DejaVuSans-Oblique-3d5" transform="translate(0 0.015625)"/>
      <use xlink:href="#DejaVuSans-28" transform="translate(65.966797 -16.390625) scale(0.7)"/>
      <use xlink:href="#DejaVuSans-Oblique-78" transform="translate(96.010742 0.015625)"/>
      <use xlink:href="#DejaVuSans-29" transform="translate(155.19043 0.015625)"/>
     </g>
    </g>
    <g id="line2d_43">
     <path d="M 313.66 21.308 
L 323.66 21.308 
L 333.66 21.308 
" style="fill: none; stroke: #e377c2; stroke-width: 1.5; stroke-linecap: square"/>
    </g>
    <g id="text_23">
     <!-- $\phi_(x)$ -->
     <g transform="translate(341.66 24.808) scale(0.1 -0.1)">
      <use xlink:href="#DejaVuSans-Oblique-3d5" transform="translate(0 0.015625)"/>
      <use xlink:href="#DejaVuSans-28" transform="translate(65.966797 -16.390625) scale(0.7)"/>
      <use xlink:href="#DejaVuSans-Oblique-78" transform="translate(96.010742 0.015625)"/>
      <use xlink:href="#DejaVuSans-29" transform="translate(155.19043 0.015625)"/>
     </g>
    </g>
    <g id="line2d_44">
     <path d="M 313.66 36.508 
L 323.66 36.508 
L 333.66 36.508 
" style="fill: none; stroke: #7f7f7f; stroke-width: 1.5; stroke-linecap: square"/>
    </g>
    <g id="text_24">
     <!-- $\phi_(x)$ -->
     <g transform="translate(341.66 40.008) scale(0.1 -0.1)">
      <use xlink:href="#DejaVuSans-Oblique-3d5" transform="translate(0 0.015625)"/>
      <use xlink:href="#DejaVuSans-28" transform="translate(65.966797 -16.390625) scale(0.7)"/>
      <use xlink:href="#DejaVuSans-Oblique-78" transform="translate(96.010742 0.015625)"/>
      <use xlink:href="#DejaVuSans-29" transform="translate(155.19043 0.015625)"/>
     </g>
    </g>
   </g>
  </g>
 </g>
 <defs>
  <clipPath id="p4267030fe8">
   <rect x="57.6" y="68.0832" width="357.12" height="239.5008"/>
  </clipPath>
 </defs>
</svg>
