<?xml version="1.0" encoding="utf-8" standalone="no"?>
<!DOCTYPE svg PUBLIC "-//W3C//DTD SVG 1.1//EN"
  "http://www.w3.org/Graphics/SVG/1.1/DTD/svg11.dtd">
<svg xmlns:xlink="http://www.w3.org/1999/xlink" width="864pt" height="432pt" viewBox="0 0 864 432" xmlns="http://www.w3.org/2000/svg" version="1.1">
 <metadata>
  <rdf:RDF xmlns:dc="http://purl.org/dc/elements/1.1/" xmlns:cc="http://creativecommons.org/ns#" xmlns:rdf="http://www.w3.org/1999/02/22-rdf-syntax-ns#">
   <cc:Work>
    <dc:type rdf:resource="http://purl.org/dc/dcmitype/StillImage"/>
    <dc:date>2026-01-05T15:36:37.601879</dc:date>
    <dc:format>image/svg+xml</dc:format>
    <dc:creator>
     <cc:Agent>
      <dc:title>Matplotlib v3.10.8, https://matplotlib.org/</dc:title>
     </cc:Agent>
    </dc:creator>
   </cc:Work>
  </rdf:RDF>
 </metadata>
 <defs>
  <style type="text/css">*{stroke-linejoin: round; stroke-linecap: butt}</style>
 </defs>
 <g id="figure_1">
  <g id="patch_1">
   <path d="M 0 432 
L 864 432 
L 864 0 
L 0 0 
z
" style="fill: #ffffff"/>
  </g>
  <g id="axes_1">
   <g id="patch_2">
    <path d="M 108 384.48 
L 412.363636 384.48 
L 412.363636 51.84 
L 108 51.84 
z
" style="fill: #ffffff"/>
   </g>
   <g id="matplotlib.axis_1">
    <g id="xtick_1">
     <g id="line2d_1">
      <path d="M 119.673037 384.48 
L 119.673037 51.84 
" clip-path="url(#p1cb617bd38)" style="fill: none; stroke: #b0b0b0; stroke-width: 0.8; stroke-linecap: square"/>
     </g>
     <g id="line2d_2">
      <defs>
       <path id="mda3cb8ae1b" d="M 0 0 
L 0 3.5 
" style="stroke: #000000; stroke-width: 0.8"/>
      </defs>
      <g>
       <use xlink:href="#mda3cb8ae1b" x="119.673037" y="384.48" style="stroke: #000000; stroke-width: 0.8"/>
      </g>
     </g>
     <g id="text_1">
      <!-- 0.0 -->
      <g transform="translate(111.721475 399.078438) scale(0.1 -0.1)">
       <defs>
        <path id="DejaVuSans-30" d="M 2034 4250 
Q 1547 4250 1301 3770 
Q 1056 3291 1056 2328 
Q 1056 1369 1301 889 
Q 1547 409 2034 409 
Q 2525 409 2770 889 
Q 3016 1369 3016 2328 
Q 3016 3291 2770 3770 
Q 2525 4250 2034 4250 
z
M 2034 4750 
Q 2819 4750 3233 4129 
Q 3647 3509 3647 2328 
Q 3647 1150 3233 529 
Q 2819 -91 2034 -91 
Q 1250 -91 836 529 
Q 422 1150 422 2328 
Q 422 3509 836 4129 
Q 1250 4750 2034 4750 
z
" transform="scale(0.015625)"/>
        <path id="DejaVuSans-2e" d="M 684 794 
L 1344 794 
L 1344 0 
L 684 0 
L 684 794 
z
" transform="scale(0.015625)"/>
       </defs>
       <use xlink:href="#DejaVuSans-30"/>
       <use xlink:href="#DejaVuSans-2e" transform="translate(63.623047 0)"/>
       <use xlink:href="#DejaVuSans-30" transform="translate(95.410156 0)"/>
      </g>
     </g>
    </g>
    <g id="xtick_2">
     <g id="line2d_3">
      <path d="M 175.87655 384.48 
L 175.87655 51.84 
" clip-path="url(#p1cb617bd38)" style="fill: none; stroke: #b0b0b0; stroke-width: 0.8; stroke-linecap: square"/>
     </g>
     <g id="line2d_4">
      <g>
       <use xlink:href="#mda3cb8ae1b" x="175.87655" y="384.48" style="stroke: #000000; stroke-width: 0.8"/>
      </g>
     </g>
     <g id="text_2">
      <!-- 0.2 -->
      <g transform="translate(167.924987 399.078438) scale(0.1 -0.1)">
       <defs>
        <path id="DejaVuSans-32" d="M 1228 531 
L 3431 531 
L 3431 0 
L 469 0 
L 469 531 
Q 828 903 1448 1529 
Q 2069 2156 2228 2338 
Q 2531 2678 2651 2914 
Q 2772 3150 2772 3378 
Q 2772 3750 2511 3984 
Q 2250 4219 1831 4219 
Q 1534 4219 1204 4116 
Q 875 4013 500 3803 
L 500 4441 
Q 881 4594 1212 4672 
Q 1544 4750 1819 4750 
Q 2544 4750 2975 4387 
Q 3406 4025 3406 3419 
Q 3406 3131 3298 2873 
Q 3191 2616 2906 2266 
Q 2828 2175 2409 1742 
Q 1991 1309 1228 531 
z
" transform="scale(0.015625)"/>
       </defs>
       <use xlink:href="#DejaVuSans-30"/>
       <use xlink:href="#DejaVuSans-2e" transform="translate(63.623047 0)"/>
       <use xlink:href="#DejaVuSans-32" transform="translate(95.410156 0)"/>
      </g>
     </g>
    </g>
    <g id="xtick_3">
     <g id="line2d_5">
      <path d="M 232.080062 384.48 
L 232.080062 51.84 
" clip-path="url(#p1cb617bd38)" style="fill: none; stroke: #b0b0b0; stroke-width: 0.8; stroke-linecap: square"/>
     </g>
     <g id="line2d_6">
      <g>
       <use xlink:href="#mda3cb8ae1b" x="232.080062" y="384.48" style="stroke: #000000; stroke-width: 0.8"/>
      </g>
     </g>
     <g id="text_3">
      <!-- 0.4 -->
      <g transform="translate(224.128499 399.078438) scale(0.1 -0.1)">
       <defs>
        <path id="DejaVuSans-34" d="M 2419 4116 
L 825 1625 
L 2419 1625 
L 2419 4116 
z
M 2253 4666 
L 3047 4666 
L 3047 1625 
L 3713 1625 
L 3713 1100 
L 3047 1100 
L 3047 0 
L 2419 0 
L 2419 1100 
L 313 1100 
L 313 1709 
L 2253 4666 
z
" transform="scale(0.015625)"/>
       </defs>
       <use xlink:href="#DejaVuSans-30"/>
       <use xlink:href="#DejaVuSans-2e" transform="translate(63.623047 0)"/>
       <use xlink:href="#DejaVuSans-34" transform="translate(95.410156 0)"/>
      </g>
     </g>
    </g>
    <g id="xtick_4">
     <g id="line2d_7">
      <path d="M 288.283574 384.48 
L 288.283574 51.84 
" clip-path="url(#p1cb617bd38)" style="fill: none; stroke: #b0b0b0; stroke-width: 0.8; stroke-linecap: square"/>
     </g>
     <g id="line2d_8">
      <g>
       <use xlink:href="#mda3cb8ae1b" x="288.283574" y="384.48" style="stroke: #000000; stroke-width: 0.8"/>
      </g>
     </g>
     <g id="text_4">
      <!-- 0.6 -->
      <g transform="translate(280.332012 399.078438) scale(0.1 -0.1)">
       <defs>
        <path id="DejaVuSans-36" d="M 2113 2584 
Q 1688 2584 1439 2293 
Q 1191 2003 1191 1497 
Q 1191 994 1439 701 
Q 1688 409 2113 409 
Q 2538 409 2786 701 
Q 3034 994 3034 1497 
Q 3034 2003 2786 2293 
Q 2538 2584 2113 2584 
z
M 3366 4563 
L 3366 3988 
Q 3128 4100 2886 4159 
Q 2644 4219 2406 4219 
Q 1781 4219 1451 3797 
Q 1122 3375 1075 2522 
Q 1259 2794 1537 2939 
Q 1816 3084 2150 3084 
Q 2853 3084 3261 2657 
Q 3669 2231 3669 1497 
Q 3669 778 3244 343 
Q 2819 -91 2113 -91 
Q 1303 -91 875 529 
Q 447 1150 447 2328 
Q 447 3434 972 4092 
Q 1497 4750 2381 4750 
Q 2619 4750 2861 4703 
Q 3103 4656 3366 4563 
z
" transform="scale(0.015625)"/>
       </defs>
       <use xlink:href="#DejaVuSans-30"/>
       <use xlink:href="#DejaVuSans-2e" transform="translate(63.623047 0)"/>
       <use xlink:href="#DejaVuSans-36" transform="translate(95.410156 0)"/>
      </g>
     </g>
    </g>
    <g id="xtick_5">
     <g id="line2d_9">
      <path d="M 344.487087 384.48 
L 344.487087 51.84 
" clip-path="url(#p1cb617bd38)" style="fill: none; stroke: #b0b0b0; stroke-width: 0.8; stroke-linecap: square"/>
     </g>
     <g id="line2d_10">
      <g>
       <use xlink:href="#mda3cb8ae1b" x="344.487087" y="384.48" style="stroke: #000000; stroke-width: 0.8"/>
      </g>
     </g>
     <g id="text_5">
      <!-- 0.8 -->
      <g transform="translate(336.535524 399.078438) scale(0.1 -0.1)">
       <defs>
        <path id="DejaVuSans-38" d="M 2034 2216 
Q 1584 2216 1326 1975 
Q 1069 1734 1069 1313 
Q 1069 891 1326 650 
Q 1584 409 2034 409 
Q 2484 409 2743 651 
Q 3003 894 3003 1313 
Q 3003 1734 2745 1975 
Q 2488 2216 2034 2216 
z
M 1403 2484 
Q 997 2584 770 2862 
Q 544 3141 544 3541 
Q 544 4100 942 4425 
Q 1341 4750 2034 4750 
Q 2731 4750 3128 4425 
Q 3525 4100 3525 3541 
Q 3525 3141 3298 2862 
Q 3072 2584 2669 2484 
Q 3125 2378 3379 2068 
Q 3634 1759 3634 1313 
Q 3634 634 3220 271 
Q 2806 -91 2034 -91 
Q 1263 -91 848 271 
Q 434 634 434 1313 
Q 434 1759 690 2068 
Q 947 2378 1403 2484 
z
M 1172 3481 
Q 1172 3119 1398 2916 
Q 1625 2713 2034 2713 
Q 2441 2713 2670 2916 
Q 2900 3119 2900 3481 
Q 2900 3844 2670 4047 
Q 2441 4250 2034 4250 
Q 1625 4250 1398 4047 
Q 1172 3844 1172 3481 
z
" transform="scale(0.015625)"/>
       </defs>
       <use xlink:href="#DejaVuSans-30"/>
       <use xlink:href="#DejaVuSans-2e" transform="translate(63.623047 0)"/>
       <use xlink:href="#DejaVuSans-38" transform="translate(95.410156 0)"/>
      </g>
     </g>
    </g>
    <g id="xtick_6">
     <g id="line2d_11">
      <path d="M 400.690599 384.48 
L 400.690599 51.84 
" clip-path="url(#p1cb617bd38)" style="fill: none; stroke: #b0b0b0; stroke-width: 0.8; stroke-linecap: square"/>
     </g>
     <g id="line2d_12">
      <g>
       <use xlink:href="#mda3cb8ae1b" x="400.690599" y="384.48" style="stroke: #000000; stroke-width: 0.8"/>
      </g>
     </g>
     <g id="text_6">
      <!-- 1.0 -->
      <g transform="translate(392.739037 399.078438) scale(0.1 -0.1)">
       <defs>
        <path id="DejaVuSans-31" d="M 794 531 
L 1825 531 
L 1825 4091 
L 703 3866 
L 703 4441 
L 1819 4666 
L 2450 4666 
L 2450 531 
L 3481 531 
L 3481 0 
L 794 0 
L 794 531 
z
" transform="scale(0.015625)"/>
       </defs>
       <use xlink:href="#DejaVuSans-31"/>
       <use xlink:href="#DejaVuSans-2e" transform="translate(63.623047 0)"/>
       <use xlink:href="#DejaVuSans-30" transform="translate(95.410156 0)"/>
      </g>
     </g>
    </g>
    <g id="text_7">
     <!-- u -->
     <g transform="translate(257.013068 412.756563) scale(0.1 -0.1)">
      <defs>
       <path id="DejaVuSans-75" d="M 544 1381 
L 544 3500 
L 1119 3500 
L 1119 1403 
Q 1119 906 1312 657 
Q 1506 409 1894 409 
Q 2359 409 2629 706 
Q 2900 1003 2900 1516 
L 2900 3500 
L 3475 3500 
L 3475 0 
L 2900 0 
L 2900 538 
Q 2691 219 2414 64 
Q 2138 -91 1772 -91 
Q 1169 -91 856 284 
Q 544 659 544 1381 
z
M 1991 3584 
L 1991 3584 
z
" transform="scale(0.015625)"/>
      </defs>
      <use xlink:href="#DejaVuSans-75"/>
     </g>
    </g>
   </g>
   <g id="matplotlib.axis_2">
    <g id="ytick_1">
     <g id="line2d_13">
      <path d="M 108 369.36 
L 412.363636 369.36 
" clip-path="url(#p1cb617bd38)" style="fill: none; stroke: #b0b0b0; stroke-width: 0.8; stroke-linecap: square"/>
     </g>
     <g id="line2d_14">
      <defs>
       <path id="m24d86006fd" d="M 0 0 
L -3.5 0 
" style="stroke: #000000; stroke-width: 0.8"/>
      </defs>
      <g>
       <use xlink:href="#m24d86006fd" x="108" y="369.36" style="stroke: #000000; stroke-width: 0.8"/>
      </g>
     </g>
     <g id="text_8">
      <!-- 0.0 -->
      <g transform="translate(85.096875 373.159219) scale(0.1 -0.1)">
       <use xlink:href="#DejaVuSans-30"/>
       <use xlink:href="#DejaVuSans-2e" transform="translate(63.623047 0)"/>
       <use xlink:href="#DejaVuSans-30" transform="translate(95.410156 0)"/>
      </g>
     </g>
    </g>
    <g id="ytick_2">
     <g id="line2d_15">
      <path d="M 108 308.88 
L 412.363636 308.88 
" clip-path="url(#p1cb617bd38)" style="fill: none; stroke: #b0b0b0; stroke-width: 0.8; stroke-linecap: square"/>
     </g>
     <g id="line2d_16">
      <g>
       <use xlink:href="#m24d86006fd" x="108" y="308.88" style="stroke: #000000; stroke-width: 0.8"/>
      </g>
     </g>
     <g id="text_9">
      <!-- 0.2 -->
      <g transform="translate(85.096875 312.679219) scale(0.1 -0.1)">
       <use xlink:href="#DejaVuSans-30"/>
       <use xlink:href="#DejaVuSans-2e" transform="translate(63.623047 0)"/>
       <use xlink:href="#DejaVuSans-32" transform="translate(95.410156 0)"/>
      </g>
     </g>
    </g>
    <g id="ytick_3">
     <g id="line2d_17">
      <path d="M 108 248.4 
L 412.363636 248.4 
" clip-path="url(#p1cb617bd38)" style="fill: none; stroke: #b0b0b0; stroke-width: 0.8; stroke-linecap: square"/>
     </g>
     <g id="line2d_18">
      <g>
       <use xlink:href="#m24d86006fd" x="108" y="248.4" style="stroke: #000000; stroke-width: 0.8"/>
      </g>
     </g>
     <g id="text_10">
      <!-- 0.4 -->
      <g transform="translate(85.096875 252.199219) scale(0.1 -0.1)">
       <use xlink:href="#DejaVuSans-30"/>
       <use xlink:href="#DejaVuSans-2e" transform="translate(63.623047 0)"/>
       <use xlink:href="#DejaVuSans-34" transform="translate(95.410156 0)"/>
      </g>
     </g>
    </g>
    <g id="ytick_4">
     <g id="line2d_19">
      <path d="M 108 187.92 
L 412.363636 187.92 
" clip-path="url(#p1cb617bd38)" style="fill: none; stroke: #b0b0b0; stroke-width: 0.8; stroke-linecap: square"/>
     </g>
     <g id="line2d_20">
      <g>
       <use xlink:href="#m24d86006fd" x="108" y="187.92" style="stroke: #000000; stroke-width: 0.8"/>
      </g>
     </g>
     <g id="text_11">
      <!-- 0.6 -->
      <g transform="translate(85.096875 191.719219) scale(0.1 -0.1)">
       <use xlink:href="#DejaVuSans-30"/>
       <use xlink:href="#DejaVuSans-2e" transform="translate(63.623047 0)"/>
       <use xlink:href="#DejaVuSans-36" transform="translate(95.410156 0)"/>
      </g>
     </g>
    </g>
    <g id="ytick_5">
     <g id="line2d_21">
      <path d="M 108 127.44 
L 412.363636 127.44 
" clip-path="url(#p1cb617bd38)" style="fill: none; stroke: #b0b0b0; stroke-width: 0.8; stroke-linecap: square"/>
     </g>
     <g id="line2d_22">
      <g>
       <use xlink:href="#m24d86006fd" x="108" y="127.44" style="stroke: #000000; stroke-width: 0.8"/>
      </g>
     </g>
     <g id="text_12">
      <!-- 0.8 -->
      <g transform="translate(85.096875 131.239219) scale(0.1 -0.1)">
       <use xlink:href="#DejaVuSans-30"/>
       <use xlink:href="#DejaVuSans-2e" transform="translate(63.623047 0)"/>
       <use xlink:href="#DejaVuSans-38" transform="translate(95.410156 0)"/>
      </g>
     </g>
    </g>
    <g id="ytick_6">
     <g id="line2d_23">
      <path d="M 108 66.96 
L 412.363636 66.96 
" clip-path="url(#p1cb617bd38)" style="fill: none; stroke: #b0b0b0; stroke-width: 0.8; stroke-linecap: square"/>
     </g>
     <g id="line2d_24">
      <g>
       <use xlink:href="#m24d86006fd" x="108" y="66.96" style="stroke: #000000; stroke-width: 0.8"/>
      </g>
     </g>
     <g id="text_13">
      <!-- 1.0 -->
      <g transform="translate(85.096875 70.759219) scale(0.1 -0.1)">
       <use xlink:href="#DejaVuSans-31"/>
       <use xlink:href="#DejaVuSans-2e" transform="translate(63.623047 0)"/>
       <use xlink:href="#DejaVuSans-30" transform="translate(95.410156 0)"/>
      </g>
     </g>
    </g>
    <g id="text_14">
     <!-- $\chi_L(u)$ -->
     <g transform="translate(78.996875 230.31) rotate(-90) scale(0.1 -0.1)">
      <defs>
       <path id="DejaVuSans-Oblique-3c7" d="M 1922 -781 
L 1691 416 
L 394 -1334 
L -284 -1334 
L 1553 1141 
L 1269 2613 
Q 1194 3006 713 3006 
L 559 3006 
L 653 3500 
L 872 3494 
Q 1675 3472 1775 2950 
L 2006 1753 
L 3303 3503 
L 3981 3503 
L 2144 1028 
L 2428 -444 
Q 2503 -838 2984 -838 
L 3138 -838 
L 3044 -1331 
L 2825 -1325 
Q 2022 -1303 1922 -781 
z
" transform="scale(0.015625)"/>
       <path id="DejaVuSans-Oblique-4c" d="M 1075 4666 
L 1709 4666 
L 909 525 
L 3181 525 
L 3078 0 
L 172 0 
L 1075 4666 
z
" transform="scale(0.015625)"/>
       <path id="DejaVuSans-28" d="M 1984 4856 
Q 1566 4138 1362 3434 
Q 1159 2731 1159 2009 
Q 1159 1288 1364 580 
Q 1569 -128 1984 -844 
L 1484 -844 
Q 1016 -109 783 600 
Q 550 1309 550 2009 
Q 550 2706 781 3412 
Q 1013 4119 1484 4856 
L 1984 4856 
z
" transform="scale(0.015625)"/>
       <path id="DejaVuSans-Oblique-75" d="M 428 1388 
L 838 3500 
L 1416 3500 
L 1006 1409 
Q 975 1256 961 1147 
Q 947 1038 947 966 
Q 947 700 1109 554 
Q 1272 409 1569 409 
Q 2031 409 2368 721 
Q 2706 1034 2809 1563 
L 3194 3500 
L 3769 3500 
L 3091 0 
L 2516 0 
L 2631 550 
Q 2388 244 2052 76 
Q 1716 -91 1338 -91 
Q 878 -91 622 161 
Q 366 413 366 863 
Q 366 956 381 1097 
Q 397 1238 428 1388 
z
" transform="scale(0.015625)"/>
       <path id="DejaVuSans-29" d="M 513 4856 
L 1013 4856 
Q 1481 4119 1714 3412 
Q 1947 2706 1947 2009 
Q 1947 1309 1714 600 
Q 1481 -109 1013 -844 
L 513 -844 
Q 928 -128 1133 580 
Q 1338 1288 1338 2009 
Q 1338 2731 1133 3434 
Q 928 4138 513 4856 
z
" transform="scale(0.015625)"/>
      </defs>
      <use xlink:href="#DejaVuSans-Oblique-3c7" transform="translate(0 0.125)"/>
      <use xlink:href="#DejaVuSans-Oblique-4c" transform="translate(59.179688 -16.28125) scale(0.7)"/>
      <use xlink:href="#DejaVuSans-28" transform="translate(100.913086 0.125)"/>
      <use xlink:href="#DejaVuSans-Oblique-75" transform="translate(139.926758 0.125)"/>
      <use xlink:href="#DejaVuSans-29" transform="translate(203.305664 0.125)"/>
     </g>
    </g>
   </g>
   <g id="line2d_25">
    <path d="M 121.834711 369.36 
L 123.996384 369.36 
L 126.158058 356.401308 
L 128.319731 359.679146 
L 130.481405 346.1946 
L 132.643079 337.281691 
L 134.804752 330.981682 
L 136.966426 326.31521 
L 139.128099 318.474164 
L 141.289773 319.924186 
L 143.451446 307.232127 
L 145.61312 303.092171 
L 147.774793 293.74896 
L 149.936467 291.258019 
L 152.09814 291.687917 
L 154.259814 287.328734 
L 156.421488 285.767363 
L 160.744835 287.24051 
L 162.906508 280.316204 
L 165.068182 277.704915 
L 167.229855 273.635923 
L 169.391529 264.977156 
L 171.553202 263.427208 
L 173.714876 255.909372 
L 175.87655 259.30564 
L 180.199897 259.976472 
L 182.36157 259.002925 
L 184.523244 259.390603 
L 186.684917 256.096261 
L 188.846591 255.4146 
L 191.008264 257.105666 
L 193.169938 253.128393 
L 195.331612 251.577114 
L 197.493285 251.196265 
L 199.654959 248.799598 
L 201.816632 245.544142 
L 203.978306 241.48771 
L 206.139979 240.535089 
L 208.301653 241.528709 
L 210.463326 238.836912 
L 212.625 237.185701 
L 214.786674 238.262256 
L 216.948347 235.027507 
L 219.110021 234.47367 
L 221.271694 233.142543 
L 223.433368 231.078886 
L 225.595041 231.500986 
L 227.756715 228.815287 
L 229.918388 225.478472 
L 232.080062 223.033607 
L 236.403409 219.924416 
L 238.565083 220.648224 
L 240.726756 217.822843 
L 247.211777 218.144966 
L 251.535124 215.835217 
L 253.696798 216.712101 
L 258.020145 212.156191 
L 260.181818 211.879322 
L 262.343492 209.778777 
L 264.505165 210.203188 
L 266.666839 208.224937 
L 268.828512 207.515325 
L 270.990186 206.255953 
L 273.15186 203.282599 
L 275.313533 203.897916 
L 277.475207 203.949649 
L 279.63688 203.458334 
L 281.798554 201.875153 
L 283.960227 200.9102 
L 286.121901 199.434531 
L 288.283574 199.672207 
L 290.445248 198.292767 
L 292.606921 197.510078 
L 294.768595 195.144262 
L 296.930269 193.919141 
L 301.253616 190.539663 
L 305.576963 188.431676 
L 307.738636 187.978008 
L 309.90031 185.976885 
L 314.223657 184.237374 
L 316.385331 184.486276 
L 318.547004 183.203459 
L 320.708678 182.491294 
L 322.870351 182.346913 
L 325.032025 182.764913 
L 327.193698 181.673264 
L 331.517045 177.547411 
L 333.678719 176.599516 
L 335.840393 174.113499 
L 338.002066 172.728446 
L 340.16374 172.998108 
L 342.325413 171.718912 
L 344.487087 169.403629 
L 346.64876 168.765336 
L 348.810434 165.41275 
L 353.133781 163.27738 
L 355.295455 159.969139 
L 357.457128 157.829956 
L 359.618802 156.323141 
L 363.942149 152.181004 
L 366.103822 153.400501 
L 368.265496 152.144474 
L 374.750517 146.685767 
L 376.91219 144.96583 
L 379.073864 140.882329 
L 381.235537 140.898267 
L 387.720558 133.705153 
L 389.882231 128.944536 
L 394.205579 124.032418 
L 396.367252 117.714094 
L 398.528926 108.449507 
L 398.528926 108.449507 
" clip-path="url(#p1cb617bd38)" style="fill: none; stroke: #1f77b4; stroke-linecap: square"/>
   </g>
   <g id="line2d_26">
    <path d="M 121.834711 369.36 
L 130.481405 369.36 
L 132.643079 365.337493 
L 134.804752 359.338556 
L 136.966426 354.354659 
L 139.128099 347.167297 
L 141.289773 346.702372 
L 143.451446 335.813855 
L 145.61312 331.307531 
L 147.774793 322.667042 
L 149.936467 319.53358 
L 152.09814 318.880718 
L 154.259814 314.34752 
L 156.421488 312.184772 
L 160.744835 311.91795 
L 162.906508 305.33522 
L 165.068182 302.440454 
L 167.229855 298.302341 
L 169.391529 290.152629 
L 171.553202 288.219004 
L 173.714876 281.032123 
L 175.87655 283.518266 
L 180.199897 283.158721 
L 182.36157 281.849071 
L 184.523244 281.774722 
L 186.684917 278.420019 
L 188.846591 277.419367 
L 191.008264 278.570384 
L 193.169938 274.628101 
L 195.331612 272.880294 
L 197.493285 272.202547 
L 199.654959 269.706151 
L 201.816632 266.432469 
L 203.978306 262.428719 
L 206.139979 261.261471 
L 208.301653 261.883593 
L 210.463326 259.140897 
L 212.625 257.355873 
L 214.786674 258.08245 
L 216.948347 254.854017 
L 219.110021 254.095876 
L 221.271694 252.627575 
L 223.433368 250.487705 
L 225.595041 250.648086 
L 227.756715 247.941232 
L 229.918388 244.632451 
L 232.080062 242.150726 
L 236.403409 238.84708 
L 238.565083 239.318355 
L 240.726756 236.493733 
L 247.211777 236.229141 
L 251.535124 233.719434 
L 253.696798 234.365597 
L 258.020145 229.774869 
L 260.181818 229.35295 
L 262.343492 227.227789 
L 264.505165 227.467896 
L 266.666839 225.461317 
L 268.828512 224.644935 
L 270.990186 223.315678 
L 273.15186 220.380887 
L 275.313533 220.813818 
L 277.475207 220.720864 
L 279.63688 220.120769 
L 281.798554 218.497623 
L 283.960227 217.456767 
L 286.121901 215.937906 
L 288.283574 216.030989 
L 290.445248 214.60619 
L 292.606921 213.744117 
L 294.768595 211.394829 
L 296.930269 210.119838 
L 301.253616 206.700174 
L 305.576963 204.483505 
L 307.738636 203.942898 
L 309.90031 201.946979 
L 314.223657 200.090677 
L 316.385331 200.218568 
L 318.547004 198.905707 
L 320.708678 198.131961 
L 322.870351 197.894622 
L 325.032025 198.18855 
L 327.193698 197.062572 
L 331.517045 192.987379 
L 333.678719 192.002565 
L 335.840393 189.572339 
L 338.002066 188.180636 
L 340.16374 188.347706 
L 342.325413 187.060057 
L 344.487087 184.801131 
L 346.64876 184.121443 
L 348.810434 180.895133 
L 353.133781 178.745772 
L 355.295455 175.576019 
L 357.457128 173.508492 
L 359.618802 172.03899 
L 363.942149 168.06421 
L 366.103822 169.15994 
L 368.265496 167.950903 
L 372.588843 164.472038 
L 376.91219 161.225864 
L 379.073864 157.473968 
L 381.235537 157.534736 
L 385.558884 153.298003 
L 387.720558 151.292983 
L 389.882231 147.223042 
L 392.043905 145.315022 
L 394.205579 143.782262 
L 396.367252 139.267257 
L 398.528926 133.732544 
L 398.528926 133.732544 
" clip-path="url(#p1cb617bd38)" style="fill: none; stroke-dasharray: 3.7,1.6; stroke-dashoffset: 0; stroke: #0000ff"/>
   </g>
   <g id="line2d_27">
    <path d="M 121.834711 369.36 
L 123.996384 369.36 
L 126.158058 330.977802 
L 128.319731 340.686393 
L 130.481405 319.93629 
L 132.643079 309.10235 
L 134.804752 302.476858 
L 136.966426 298.109655 
L 139.128099 289.584366 
L 141.289773 292.95484 
L 143.451446 278.409548 
L 145.61312 274.619515 
L 147.774793 264.536547 
L 149.936467 262.677957 
L 152.09814 264.191976 
L 154.259814 259.989126 
L 156.421488 259.022511 
L 160.744835 262.240719 
L 162.906508 254.946543 
L 165.068182 252.607678 
L 167.229855 248.590735 
L 169.391529 239.386864 
L 171.553202 238.213515 
L 173.714876 230.332796 
L 175.87655 234.652532 
L 180.199897 236.354969 
L 182.36157 235.712626 
L 184.523244 236.563148 
L 186.684917 233.314339 
L 188.846591 232.947864 
L 191.008264 235.185319 
L 193.169938 231.155017 
L 195.331612 229.792557 
L 197.493285 229.705927 
L 199.654959 227.397436 
L 201.816632 224.14472 
L 203.978306 220.016341 
L 206.139979 219.272788 
L 208.301653 220.641077 
L 210.463326 217.98664 
L 212.625 216.460291 
L 214.786674 217.890324 
L 216.948347 214.632826 
L 219.110021 214.279156 
L 221.271694 213.077357 
L 223.433368 211.078483 
L 225.595041 211.762587 
L 227.756715 209.083386 
L 229.918388 205.700468 
L 232.080062 203.27847 
L 236.403409 200.343974 
L 238.565083 201.321703 
L 240.726756 198.478909 
L 247.211777 199.382028 
L 251.535124 197.254867 
L 253.696798 198.364417 
L 258.020145 193.812945 
L 260.181818 193.67653 
L 262.343492 191.585736 
L 264.505165 192.193532 
L 266.666839 190.228979 
L 268.828512 189.618509 
L 270.990186 188.418026 
L 273.15186 185.384709 
L 275.313533 186.182039 
L 277.475207 186.37465 
L 279.63688 185.984894 
L 281.798554 184.427529 
L 283.960227 183.527859 
L 286.121901 182.081244 
L 288.283574 182.460067 
L 290.445248 181.11189 
L 292.606921 180.398063 
L 294.768595 177.994241 
L 296.930269 176.804691 
L 301.253616 173.428916 
L 305.576963 171.400155 
L 307.738636 171.022485 
L 309.90031 168.993055 
L 314.223657 167.339586 
L 316.385331 167.702332 
L 318.547004 166.429547 
L 320.708678 165.76297 
L 322.870351 165.699784 
L 325.032025 166.234505 
L 327.193698 165.156141 
L 331.517045 160.916574 
L 333.678719 159.982526 
L 335.840393 157.401279 
L 338.002066 155.992606 
L 340.16374 156.350406 
L 342.325413 155.047737 
L 344.487087 152.630773 
L 346.64876 152.00517 
L 348.810434 148.463258 
L 353.133781 146.261568 
L 355.295455 142.739915 
L 357.457128 140.464704 
L 359.618802 138.86038 
L 363.942149 134.395372 
L 366.103822 135.707202 
L 368.265496 134.324148 
L 376.91219 126.211083 
L 379.073864 121.567256 
L 381.235537 121.389834 
L 385.558884 115.422259 
L 387.720558 112.27039 
L 389.882231 106.161064 
L 392.043905 102.204642 
L 394.205579 97.776096 
L 396.367252 86.894152 
L 398.528926 66.96 
L 398.528926 66.96 
" clip-path="url(#p1cb617bd38)" style="fill: none; stroke-dasharray: 3.7,1.6; stroke-dashoffset: 0; stroke: #0000ff"/>
   </g>
   <g id="patch_3">
    <path d="M 108 384.48 
L 108 51.84 
" style="fill: none; stroke: #000000; stroke-width: 0.8; stroke-linejoin: miter; stroke-linecap: square"/>
   </g>
   <g id="patch_4">
    <path d="M 108 384.48 
L 412.363636 384.48 
" style="fill: none; stroke: #000000; stroke-width: 0.8; stroke-linejoin: miter; stroke-linecap: square"/>
   </g>
   <g id="text_15">
    <!-- Lower tail dependence function:Frank : -->
    <g transform="translate(143.130256 45.84) scale(0.12 -0.12)">
     <defs>
      <path id="DejaVuSans-4c" d="M 628 4666 
L 1259 4666 
L 1259 531 
L 3531 531 
L 3531 0 
L 628 0 
L 628 4666 
z
" transform="scale(0.015625)"/>
      <path id="DejaVuSans-6f" d="M 1959 3097 
Q 1497 3097 1228 2736 
Q 959 2375 959 1747 
Q 959 1119 1226 758 
Q 1494 397 1959 397 
Q 2419 397 2687 759 
Q 2956 1122 2956 1747 
Q 2956 2369 2687 2733 
Q 2419 3097 1959 3097 
z
M 1959 3584 
Q 2709 3584 3137 3096 
Q 3566 2609 3566 1747 
Q 3566 888 3137 398 
Q 2709 -91 1959 -91 
Q 1206 -91 779 398 
Q 353 888 353 1747 
Q 353 2609 779 3096 
Q 1206 3584 1959 3584 
z
" transform="scale(0.015625)"/>
      <path id="DejaVuSans-77" d="M 269 3500 
L 844 3500 
L 1563 769 
L 2278 3500 
L 2956 3500 
L 3675 769 
L 4391 3500 
L 4966 3500 
L 4050 0 
L 3372 0 
L 2619 2869 
L 1863 0 
L 1184 0 
L 269 3500 
z
" transform="scale(0.015625)"/>
      <path id="DejaVuSans-65" d="M 3597 1894 
L 3597 1613 
L 953 1613 
Q 991 1019 1311 708 
Q 1631 397 2203 397 
Q 2534 397 2845 478 
Q 3156 559 3463 722 
L 3463 178 
Q 3153 47 2828 -22 
Q 2503 -91 2169 -91 
Q 1331 -91 842 396 
Q 353 884 353 1716 
Q 353 2575 817 3079 
Q 1281 3584 2069 3584 
Q 2775 3584 3186 3129 
Q 3597 2675 3597 1894 
z
M 3022 2063 
Q 3016 2534 2758 2815 
Q 2500 3097 2075 3097 
Q 1594 3097 1305 2825 
Q 1016 2553 972 2059 
L 3022 2063 
z
" transform="scale(0.015625)"/>
      <path id="DejaVuSans-72" d="M 2631 2963 
Q 2534 3019 2420 3045 
Q 2306 3072 2169 3072 
Q 1681 3072 1420 2755 
Q 1159 2438 1159 1844 
L 1159 0 
L 581 0 
L 581 3500 
L 1159 3500 
L 1159 2956 
Q 1341 3275 1631 3429 
Q 1922 3584 2338 3584 
Q 2397 3584 2469 3576 
Q 2541 3569 2628 3553 
L 2631 2963 
z
" transform="scale(0.015625)"/>
      <path id="DejaVuSans-20" transform="scale(0.015625)"/>
      <path id="DejaVuSans-74" d="M 1172 4494 
L 1172 3500 
L 2356 3500 
L 2356 3053 
L 1172 3053 
L 1172 1153 
Q 1172 725 1289 603 
Q 1406 481 1766 481 
L 2356 481 
L 2356 0 
L 1766 0 
Q 1100 0 847 248 
Q 594 497 594 1153 
L 594 3053 
L 172 3053 
L 172 3500 
L 594 3500 
L 594 4494 
L 1172 4494 
z
" transform="scale(0.015625)"/>
      <path id="DejaVuSans-61" d="M 2194 1759 
Q 1497 1759 1228 1600 
Q 959 1441 959 1056 
Q 959 750 1161 570 
Q 1363 391 1709 391 
Q 2188 391 2477 730 
Q 2766 1069 2766 1631 
L 2766 1759 
L 2194 1759 
z
M 3341 1997 
L 3341 0 
L 2766 0 
L 2766 531 
Q 2569 213 2275 61 
Q 1981 -91 1556 -91 
Q 1019 -91 701 211 
Q 384 513 384 1019 
Q 384 1609 779 1909 
Q 1175 2209 1959 2209 
L 2766 2209 
L 2766 2266 
Q 2766 2663 2505 2880 
Q 2244 3097 1772 3097 
Q 1472 3097 1187 3025 
Q 903 2953 641 2809 
L 641 3341 
Q 956 3463 1253 3523 
Q 1550 3584 1831 3584 
Q 2591 3584 2966 3190 
Q 3341 2797 3341 1997 
z
" transform="scale(0.015625)"/>
      <path id="DejaVuSans-69" d="M 603 3500 
L 1178 3500 
L 1178 0 
L 603 0 
L 603 3500 
z
M 603 4863 
L 1178 4863 
L 1178 4134 
L 603 4134 
L 603 4863 
z
" transform="scale(0.015625)"/>
      <path id="DejaVuSans-6c" d="M 603 4863 
L 1178 4863 
L 1178 0 
L 603 0 
L 603 4863 
z
" transform="scale(0.015625)"/>
      <path id="DejaVuSans-64" d="M 2906 2969 
L 2906 4863 
L 3481 4863 
L 3481 0 
L 2906 0 
L 2906 525 
Q 2725 213 2448 61 
Q 2172 -91 1784 -91 
Q 1150 -91 751 415 
Q 353 922 353 1747 
Q 353 2572 751 3078 
Q 1150 3584 1784 3584 
Q 2172 3584 2448 3432 
Q 2725 3281 2906 2969 
z
M 947 1747 
Q 947 1113 1208 752 
Q 1469 391 1925 391 
Q 2381 391 2643 752 
Q 2906 1113 2906 1747 
Q 2906 2381 2643 2742 
Q 2381 3103 1925 3103 
Q 1469 3103 1208 2742 
Q 947 2381 947 1747 
z
" transform="scale(0.015625)"/>
      <path id="DejaVuSans-70" d="M 1159 525 
L 1159 -1331 
L 581 -1331 
L 581 3500 
L 1159 3500 
L 1159 2969 
Q 1341 3281 1617 3432 
Q 1894 3584 2278 3584 
Q 2916 3584 3314 3078 
Q 3713 2572 3713 1747 
Q 3713 922 3314 415 
Q 2916 -91 2278 -91 
Q 1894 -91 1617 61 
Q 1341 213 1159 525 
z
M 3116 1747 
Q 3116 2381 2855 2742 
Q 2594 3103 2138 3103 
Q 1681 3103 1420 2742 
Q 1159 2381 1159 1747 
Q 1159 1113 1420 752 
Q 1681 391 2138 391 
Q 2594 391 2855 752 
Q 3116 1113 3116 1747 
z
" transform="scale(0.015625)"/>
      <path id="DejaVuSans-6e" d="M 3513 2113 
L 3513 0 
L 2938 0 
L 2938 2094 
Q 2938 2591 2744 2837 
Q 2550 3084 2163 3084 
Q 1697 3084 1428 2787 
Q 1159 2491 1159 1978 
L 1159 0 
L 581 0 
L 581 3500 
L 1159 3500 
L 1159 2956 
Q 1366 3272 1645 3428 
Q 1925 3584 2291 3584 
Q 2894 3584 3203 3211 
Q 3513 2838 3513 2113 
z
" transform="scale(0.015625)"/>
      <path id="DejaVuSans-63" d="M 3122 3366 
L 3122 2828 
Q 2878 2963 2633 3030 
Q 2388 3097 2138 3097 
Q 1578 3097 1268 2742 
Q 959 2388 959 1747 
Q 959 1106 1268 751 
Q 1578 397 2138 397 
Q 2388 397 2633 464 
Q 2878 531 3122 666 
L 3122 134 
Q 2881 22 2623 -34 
Q 2366 -91 2075 -91 
Q 1284 -91 818 406 
Q 353 903 353 1747 
Q 353 2603 823 3093 
Q 1294 3584 2113 3584 
Q 2378 3584 2631 3529 
Q 2884 3475 3122 3366 
z
" transform="scale(0.015625)"/>
      <path id="DejaVuSans-66" d="M 2375 4863 
L 2375 4384 
L 1825 4384 
Q 1516 4384 1395 4259 
Q 1275 4134 1275 3809 
L 1275 3500 
L 2222 3500 
L 2222 3053 
L 1275 3053 
L 1275 0 
L 697 0 
L 697 3053 
L 147 3053 
L 147 3500 
L 697 3500 
L 697 3744 
Q 697 4328 969 4595 
Q 1241 4863 1831 4863 
L 2375 4863 
z
" transform="scale(0.015625)"/>
      <path id="DejaVuSans-3a" d="M 750 794 
L 1409 794 
L 1409 0 
L 750 0 
L 750 794 
z
M 750 3309 
L 1409 3309 
L 1409 2516 
L 750 2516 
L 750 3309 
z
" transform="scale(0.015625)"/>
      <path id="DejaVuSans-46" d="M 628 4666 
L 3309 4666 
L 3309 4134 
L 1259 4134 
L 1259 2759 
L 3109 2759 
L 3109 2228 
L 1259 2228 
L 1259 0 
L 628 0 
L 628 4666 
z
" transform="scale(0.015625)"/>
      <path id="DejaVuSans-6b" d="M 581 4863 
L 1159 4863 
L 1159 1991 
L 2875 3500 
L 3609 3500 
L 1753 1863 
L 3688 0 
L 2938 0 
L 1159 1709 
L 1159 0 
L 581 0 
L 581 4863 
z
" transform="scale(0.015625)"/>
     </defs>
     <use xlink:href="#DejaVuSans-4c"/>
     <use xlink:href="#DejaVuSans-6f" transform="translate(53.962891 0)"/>
     <use xlink:href="#DejaVuSans-77" transform="translate(115.144531 0)"/>
     <use xlink:href="#DejaVuSans-65" transform="translate(196.931641 0)"/>
     <use xlink:href="#DejaVuSans-72" transform="translate(258.455078 0)"/>
     <use xlink:href="#DejaVuSans-20" transform="translate(299.568359 0)"/>
     <use xlink:href="#DejaVuSans-74" transform="translate(331.355469 0)"/>
     <use xlink:href="#DejaVuSans-61" transform="translate(370.564453 0)"/>
     <use xlink:href="#DejaVuSans-69" transform="translate(431.84375 0)"/>
     <use xlink:href="#DejaVuSans-6c" transform="translate(459.626953 0)"/>
     <use xlink:href="#DejaVuSans-20" transform="translate(487.410156 0)"/>
     <use xlink:href="#DejaVuSans-64" transform="translate(519.197266 0)"/>
     <use xlink:href="#DejaVuSans-65" transform="translate(582.673828 0)"/>
     <use xlink:href="#DejaVuSans-70" transform="translate(644.197266 0)"/>
     <use xlink:href="#DejaVuSans-65" transform="translate(707.673828 0)"/>
     <use xlink:href="#DejaVuSans-6e" transform="translate(769.197266 0)"/>
     <use xlink:href="#DejaVuSans-64" transform="translate(832.576172 0)"/>
     <use xlink:href="#DejaVuSans-65" transform="translate(896.052734 0)"/>
     <use xlink:href="#DejaVuSans-6e" transform="translate(957.576172 0)"/>
     <use xlink:href="#DejaVuSans-63" transform="translate(1020.955078 0)"/>
     <use xlink:href="#DejaVuSans-65" transform="translate(1075.935547 0)"/>
     <use xlink:href="#DejaVuSans-20" transform="translate(1137.458984 0)"/>
     <use xlink:href="#DejaVuSans-66" transform="translate(1169.246094 0)"/>
     <use xlink:href="#DejaVuSans-75" transform="translate(1204.451172 0)"/>
     <use xlink:href="#DejaVuSans-6e" transform="translate(1267.830078 0)"/>
     <use xlink:href="#DejaVuSans-63" transform="translate(1331.208984 0)"/>
     <use xlink:href="#DejaVuSans-74" transform="translate(1386.189453 0)"/>
     <use xlink:href="#DejaVuSans-69" transform="translate(1425.398438 0)"/>
     <use xlink:href="#DejaVuSans-6f" transform="translate(1453.181641 0)"/>
     <use xlink:href="#DejaVuSans-6e" transform="translate(1514.363281 0)"/>
     <use xlink:href="#DejaVuSans-3a" transform="translate(1577.742188 0)"/>
     <use xlink:href="#DejaVuSans-46" transform="translate(1611.433594 0)"/>
     <use xlink:href="#DejaVuSans-72" transform="translate(1661.703125 0)"/>
     <use xlink:href="#DejaVuSans-61" transform="translate(1702.816406 0)"/>
     <use xlink:href="#DejaVuSans-6e" transform="translate(1764.095703 0)"/>
     <use xlink:href="#DejaVuSans-6b" transform="translate(1827.474609 0)"/>
     <use xlink:href="#DejaVuSans-20" transform="translate(1885.384766 0)"/>
     <use xlink:href="#DejaVuSans-3a" transform="translate(1917.171875 0)"/>
    </g>
   </g>
   <g id="legend_1">
    <g id="patch_5">
     <path d="M 231.088849 381.48 
L 293.274787 381.48 
Q 295.274787 381.48 295.274787 379.48 
L 295.274787 336.42375 
Q 295.274787 334.42375 293.274787 334.42375 
L 231.088849 334.42375 
Q 229.088849 334.42375 229.088849 336.42375 
L 229.088849 379.48 
Q 229.088849 381.48 231.088849 381.48 
z
" style="fill: #4d4d4d; opacity: 0.5; stroke: #4d4d4d; stroke-linejoin: miter"/>
    </g>
    <g id="patch_6">
     <path d="M 229.088849 379.48 
L 291.274787 379.48 
Q 293.274787 379.48 293.274787 377.48 
L 293.274787 334.42375 
Q 293.274787 332.42375 291.274787 332.42375 
L 229.088849 332.42375 
Q 227.088849 332.42375 227.088849 334.42375 
L 227.088849 377.48 
Q 227.088849 379.48 229.088849 379.48 
z
" style="fill: #ffffff; stroke: #cccccc; stroke-linejoin: miter"/>
    </g>
    <g id="line2d_28">
     <path d="M 231.088849 340.52375 
L 241.088849 340.52375 
L 251.088849 340.52375 
" style="fill: none; stroke: #1f77b4; stroke-linecap: square"/>
    </g>
    <g id="text_16">
     <!-- $\chi_L(u)$ -->
     <g transform="translate(259.088849 344.02375) scale(0.1 -0.1)">
      <use xlink:href="#DejaVuSans-Oblique-3c7" transform="translate(0 0.125)"/>
      <use xlink:href="#DejaVuSans-Oblique-4c" transform="translate(59.179688 -16.28125) scale(0.7)"/>
      <use xlink:href="#DejaVuSans-28" transform="translate(100.913086 0.125)"/>
      <use xlink:href="#DejaVuSans-Oblique-75" transform="translate(139.926758 0.125)"/>
      <use xlink:href="#DejaVuSans-29" transform="translate(203.305664 0.125)"/>
     </g>
    </g>
    <g id="line2d_29">
     <path d="M 231.088849 355.222188 
L 241.088849 355.222188 
L 251.088849 355.222188 
" style="fill: none; stroke-dasharray: 3.7,1.6; stroke-dashoffset: 0; stroke: #0000ff"/>
    </g>
    <g id="text_17">
     <!-- CI low -->
     <g transform="translate(259.088849 358.722188) scale(0.1 -0.1)">
      <defs>
       <path id="DejaVuSans-43" d="M 4122 4306 
L 4122 3641 
Q 3803 3938 3442 4084 
Q 3081 4231 2675 4231 
Q 1875 4231 1450 3742 
Q 1025 3253 1025 2328 
Q 1025 1406 1450 917 
Q 1875 428 2675 428 
Q 3081 428 3442 575 
Q 3803 722 4122 1019 
L 4122 359 
Q 3791 134 3420 21 
Q 3050 -91 2638 -91 
Q 1578 -91 968 557 
Q 359 1206 359 2328 
Q 359 3453 968 4101 
Q 1578 4750 2638 4750 
Q 3056 4750 3426 4639 
Q 3797 4528 4122 4306 
z
" transform="scale(0.015625)"/>
       <path id="DejaVuSans-49" d="M 628 4666 
L 1259 4666 
L 1259 0 
L 628 0 
L 628 4666 
z
" transform="scale(0.015625)"/>
      </defs>
      <use xlink:href="#DejaVuSans-43"/>
      <use xlink:href="#DejaVuSans-49" transform="translate(69.824219 0)"/>
      <use xlink:href="#DejaVuSans-20" transform="translate(99.316406 0)"/>
      <use xlink:href="#DejaVuSans-6c" transform="translate(131.103516 0)"/>
      <use xlink:href="#DejaVuSans-6f" transform="translate(158.886719 0)"/>
      <use xlink:href="#DejaVuSans-77" transform="translate(220.068359 0)"/>
     </g>
    </g>
    <g id="line2d_30">
     <path d="M 231.088849 369.900313 
L 241.088849 369.900313 
L 251.088849 369.900313 
" style="fill: none; stroke-dasharray: 3.7,1.6; stroke-dashoffset: 0; stroke: #0000ff"/>
    </g>
    <g id="text_18">
     <!-- CI up -->
     <g transform="translate(259.088849 373.400313) scale(0.1 -0.1)">
      <use xlink:href="#DejaVuSans-43"/>
      <use xlink:href="#DejaVuSans-49" transform="translate(69.824219 0)"/>
      <use xlink:href="#DejaVuSans-20" transform="translate(99.316406 0)"/>
      <use xlink:href="#DejaVuSans-75" transform="translate(131.103516 0)"/>
      <use xlink:href="#DejaVuSans-70" transform="translate(194.482422 0)"/>
     </g>
    </g>
   </g>
  </g>
  <g id="axes_2">
   <g id="patch_7">
    <path d="M 473.236364 384.48 
L 777.6 384.48 
L 777.6 51.84 
L 473.236364 51.84 
z
" style="fill: #ffffff"/>
   </g>
   <g id="matplotlib.axis_3">
    <g id="xtick_7">
     <g id="line2d_31">
      <path d="M 484.909401 384.48 
L 484.909401 51.84 
" clip-path="url(#pa90fd50cfd)" style="fill: none; stroke: #b0b0b0; stroke-width: 0.8; stroke-linecap: square"/>
     </g>
     <g id="line2d_32">
      <g>
       <use xlink:href="#mda3cb8ae1b" x="484.909401" y="384.48" style="stroke: #000000; stroke-width: 0.8"/>
      </g>
     </g>
     <g id="text_19">
      <!-- 0.0 -->
      <g transform="translate(476.957838 399.078438) scale(0.1 -0.1)">
       <use xlink:href="#DejaVuSans-30"/>
       <use xlink:href="#DejaVuSans-2e" transform="translate(63.623047 0)"/>
       <use xlink:href="#DejaVuSans-30" transform="translate(95.410156 0)"/>
      </g>
     </g>
    </g>
    <g id="xtick_8">
     <g id="line2d_33">
      <path d="M 541.112913 384.48 
L 541.112913 51.84 
" clip-path="url(#pa90fd50cfd)" style="fill: none; stroke: #b0b0b0; stroke-width: 0.8; stroke-linecap: square"/>
     </g>
     <g id="line2d_34">
      <g>
       <use xlink:href="#mda3cb8ae1b" x="541.112913" y="384.48" style="stroke: #000000; stroke-width: 0.8"/>
      </g>
     </g>
     <g id="text_20">
      <!-- 0.2 -->
      <g transform="translate(533.161351 399.078438) scale(0.1 -0.1)">
       <use xlink:href="#DejaVuSans-30"/>
       <use xlink:href="#DejaVuSans-2e" transform="translate(63.623047 0)"/>
       <use xlink:href="#DejaVuSans-32" transform="translate(95.410156 0)"/>
      </g>
     </g>
    </g>
    <g id="xtick_9">
     <g id="line2d_35">
      <path d="M 597.316426 384.48 
L 597.316426 51.84 
" clip-path="url(#pa90fd50cfd)" style="fill: none; stroke: #b0b0b0; stroke-width: 0.8; stroke-linecap: square"/>
     </g>
     <g id="line2d_36">
      <g>
       <use xlink:href="#mda3cb8ae1b" x="597.316426" y="384.48" style="stroke: #000000; stroke-width: 0.8"/>
      </g>
     </g>
     <g id="text_21">
      <!-- 0.4 -->
      <g transform="translate(589.364863 399.078438) scale(0.1 -0.1)">
       <use xlink:href="#DejaVuSans-30"/>
       <use xlink:href="#DejaVuSans-2e" transform="translate(63.623047 0)"/>
       <use xlink:href="#DejaVuSans-34" transform="translate(95.410156 0)"/>
      </g>
     </g>
    </g>
    <g id="xtick_10">
     <g id="line2d_37">
      <path d="M 653.519938 384.48 
L 653.519938 51.84 
" clip-path="url(#pa90fd50cfd)" style="fill: none; stroke: #b0b0b0; stroke-width: 0.8; stroke-linecap: square"/>
     </g>
     <g id="line2d_38">
      <g>
       <use xlink:href="#mda3cb8ae1b" x="653.519938" y="384.48" style="stroke: #000000; stroke-width: 0.8"/>
      </g>
     </g>
     <g id="text_22">
      <!-- 0.6 -->
      <g transform="translate(645.568376 399.078438) scale(0.1 -0.1)">
       <use xlink:href="#DejaVuSans-30"/>
       <use xlink:href="#DejaVuSans-2e" transform="translate(63.623047 0)"/>
       <use xlink:href="#DejaVuSans-36" transform="translate(95.410156 0)"/>
      </g>
     </g>
    </g>
    <g id="xtick_11">
     <g id="line2d_39">
      <path d="M 709.72345 384.48 
L 709.72345 51.84 
" clip-path="url(#pa90fd50cfd)" style="fill: none; stroke: #b0b0b0; stroke-width: 0.8; stroke-linecap: square"/>
     </g>
     <g id="line2d_40">
      <g>
       <use xlink:href="#mda3cb8ae1b" x="709.72345" y="384.48" style="stroke: #000000; stroke-width: 0.8"/>
      </g>
     </g>
     <g id="text_23">
      <!-- 0.8 -->
      <g transform="translate(701.771888 399.078438) scale(0.1 -0.1)">
       <use xlink:href="#DejaVuSans-30"/>
       <use xlink:href="#DejaVuSans-2e" transform="translate(63.623047 0)"/>
       <use xlink:href="#DejaVuSans-38" transform="translate(95.410156 0)"/>
      </g>
     </g>
    </g>
    <g id="xtick_12">
     <g id="line2d_41">
      <path d="M 765.926963 384.48 
L 765.926963 51.84 
" clip-path="url(#pa90fd50cfd)" style="fill: none; stroke: #b0b0b0; stroke-width: 0.8; stroke-linecap: square"/>
     </g>
     <g id="line2d_42">
      <g>
       <use xlink:href="#mda3cb8ae1b" x="765.926963" y="384.48" style="stroke: #000000; stroke-width: 0.8"/>
      </g>
     </g>
     <g id="text_24">
      <!-- 1.0 -->
      <g transform="translate(757.9754 399.078438) scale(0.1 -0.1)">
       <use xlink:href="#DejaVuSans-31"/>
       <use xlink:href="#DejaVuSans-2e" transform="translate(63.623047 0)"/>
       <use xlink:href="#DejaVuSans-30" transform="translate(95.410156 0)"/>
      </g>
     </g>
    </g>
    <g id="text_25">
     <!-- u -->
     <g transform="translate(622.249432 412.756563) scale(0.1 -0.1)">
      <use xlink:href="#DejaVuSans-75"/>
     </g>
    </g>
   </g>
   <g id="matplotlib.axis_4">
    <g id="ytick_7">
     <g id="line2d_43">
      <path d="M 473.236364 369.36 
L 777.6 369.36 
" clip-path="url(#pa90fd50cfd)" style="fill: none; stroke: #b0b0b0; stroke-width: 0.8; stroke-linecap: square"/>
     </g>
     <g id="line2d_44">
      <g>
       <use xlink:href="#m24d86006fd" x="473.236364" y="369.36" style="stroke: #000000; stroke-width: 0.8"/>
      </g>
     </g>
     <g id="text_26">
      <!-- 0.0 -->
      <g transform="translate(450.333239 373.159219) scale(0.1 -0.1)">
       <use xlink:href="#DejaVuSans-30"/>
       <use xlink:href="#DejaVuSans-2e" transform="translate(63.623047 0)"/>
       <use xlink:href="#DejaVuSans-30" transform="translate(95.410156 0)"/>
      </g>
     </g>
    </g>
    <g id="ytick_8">
     <g id="line2d_45">
      <path d="M 473.236364 308.88 
L 777.6 308.88 
" clip-path="url(#pa90fd50cfd)" style="fill: none; stroke: #b0b0b0; stroke-width: 0.8; stroke-linecap: square"/>
     </g>
     <g id="line2d_46">
      <g>
       <use xlink:href="#m24d86006fd" x="473.236364" y="308.88" style="stroke: #000000; stroke-width: 0.8"/>
      </g>
     </g>
     <g id="text_27">
      <!-- 0.2 -->
      <g transform="translate(450.333239 312.679219) scale(0.1 -0.1)">
       <use xlink:href="#DejaVuSans-30"/>
       <use xlink:href="#DejaVuSans-2e" transform="translate(63.623047 0)"/>
       <use xlink:href="#DejaVuSans-32" transform="translate(95.410156 0)"/>
      </g>
     </g>
    </g>
    <g id="ytick_9">
     <g id="line2d_47">
      <path d="M 473.236364 248.4 
L 777.6 248.4 
" clip-path="url(#pa90fd50cfd)" style="fill: none; stroke: #b0b0b0; stroke-width: 0.8; stroke-linecap: square"/>
     </g>
     <g id="line2d_48">
      <g>
       <use xlink:href="#m24d86006fd" x="473.236364" y="248.4" style="stroke: #000000; stroke-width: 0.8"/>
      </g>
     </g>
     <g id="text_28">
      <!-- 0.4 -->
      <g transform="translate(450.333239 252.199219) scale(0.1 -0.1)">
       <use xlink:href="#DejaVuSans-30"/>
       <use xlink:href="#DejaVuSans-2e" transform="translate(63.623047 0)"/>
       <use xlink:href="#DejaVuSans-34" transform="translate(95.410156 0)"/>
      </g>
     </g>
    </g>
    <g id="ytick_10">
     <g id="line2d_49">
      <path d="M 473.236364 187.92 
L 777.6 187.92 
" clip-path="url(#pa90fd50cfd)" style="fill: none; stroke: #b0b0b0; stroke-width: 0.8; stroke-linecap: square"/>
     </g>
     <g id="line2d_50">
      <g>
       <use xlink:href="#m24d86006fd" x="473.236364" y="187.92" style="stroke: #000000; stroke-width: 0.8"/>
      </g>
     </g>
     <g id="text_29">
      <!-- 0.6 -->
      <g transform="translate(450.333239 191.719219) scale(0.1 -0.1)">
       <use xlink:href="#DejaVuSans-30"/>
       <use xlink:href="#DejaVuSans-2e" transform="translate(63.623047 0)"/>
       <use xlink:href="#DejaVuSans-36" transform="translate(95.410156 0)"/>
      </g>
     </g>
    </g>
    <g id="ytick_11">
     <g id="line2d_51">
      <path d="M 473.236364 127.44 
L 777.6 127.44 
" clip-path="url(#pa90fd50cfd)" style="fill: none; stroke: #b0b0b0; stroke-width: 0.8; stroke-linecap: square"/>
     </g>
     <g id="line2d_52">
      <g>
       <use xlink:href="#m24d86006fd" x="473.236364" y="127.44" style="stroke: #000000; stroke-width: 0.8"/>
      </g>
     </g>
     <g id="text_30">
      <!-- 0.8 -->
      <g transform="translate(450.333239 131.239219) scale(0.1 -0.1)">
       <use xlink:href="#DejaVuSans-30"/>
       <use xlink:href="#DejaVuSans-2e" transform="translate(63.623047 0)"/>
       <use xlink:href="#DejaVuSans-38" transform="translate(95.410156 0)"/>
      </g>
     </g>
    </g>
    <g id="ytick_12">
     <g id="line2d_53">
      <path d="M 473.236364 66.96 
L 777.6 66.96 
" clip-path="url(#pa90fd50cfd)" style="fill: none; stroke: #b0b0b0; stroke-width: 0.8; stroke-linecap: square"/>
     </g>
     <g id="line2d_54">
      <g>
       <use xlink:href="#m24d86006fd" x="473.236364" y="66.96" style="stroke: #000000; stroke-width: 0.8"/>
      </g>
     </g>
     <g id="text_31">
      <!-- 1.0 -->
      <g transform="translate(450.333239 70.759219) scale(0.1 -0.1)">
       <use xlink:href="#DejaVuSans-31"/>
       <use xlink:href="#DejaVuSans-2e" transform="translate(63.623047 0)"/>
       <use xlink:href="#DejaVuSans-30" transform="translate(95.410156 0)"/>
      </g>
     </g>
    </g>
    <g id="text_32">
     <!-- $\chi_L(u)$ -->
     <g transform="translate(444.233239 230.31) rotate(-90) scale(0.1 -0.1)">
      <use xlink:href="#DejaVuSans-Oblique-3c7" transform="translate(0 0.125)"/>
      <use xlink:href="#DejaVuSans-Oblique-4c" transform="translate(59.179688 -16.28125) scale(0.7)"/>
      <use xlink:href="#DejaVuSans-28" transform="translate(100.913086 0.125)"/>
      <use xlink:href="#DejaVuSans-Oblique-75" transform="translate(139.926758 0.125)"/>
      <use xlink:href="#DejaVuSans-29" transform="translate(203.305664 0.125)"/>
     </g>
    </g>
   </g>
   <g id="line2d_55">
    <path d="M 487.071074 290.960363 
L 489.232748 153.622755 
L 491.394421 160.448831 
L 493.556095 183.746801 
L 495.717769 150.39404 
L 497.879442 154.609697 
L 500.041116 157.703155 
L 502.202789 150.13562 
L 504.364463 153.159164 
L 506.526136 155.638166 
L 508.68781 157.721956 
L 510.849483 156.168895 
L 513.011157 164.156079 
L 517.334504 166.377863 
L 519.496178 167.341915 
L 521.657851 161.114565 
L 523.819525 162.330938 
L 525.981198 152.769532 
L 528.142872 156.376328 
L 530.304545 153.848006 
L 532.466219 155.288847 
L 534.627893 161.970537 
L 536.789566 157.902912 
L 538.95124 162.379889 
L 541.112913 161.812363 
L 543.274587 162.834308 
L 545.43626 168.214554 
L 547.597934 166.170417 
L 549.759607 168.400985 
L 551.921281 169.187753 
L 556.244628 175.691709 
L 558.406302 170.206616 
L 560.567975 172.135004 
L 562.729649 170.526741 
L 564.891322 167.892197 
L 567.052996 167.607317 
L 569.214669 169.507347 
L 571.376343 169.243194 
L 573.538017 167.986495 
L 575.69969 165.797293 
L 577.861364 166.678327 
L 580.023037 163.676575 
L 584.346384 165.526222 
L 586.508058 164.604385 
L 588.669731 165.52919 
L 590.831405 164.68217 
L 592.993079 163.017701 
L 595.154752 160.570433 
L 597.316426 159.903524 
L 601.639773 160.326048 
L 603.801446 158.948222 
L 605.96312 160.803749 
L 608.124793 157.934361 
L 612.44814 158.581774 
L 614.609814 160.423766 
L 616.771488 160.756279 
L 618.933161 162.55728 
L 621.094835 162.895736 
L 623.256508 160.406048 
L 625.418182 158.69074 
L 627.579855 158.430882 
L 629.741529 160.270069 
L 631.903202 162.761644 
L 636.22655 159.670535 
L 638.388223 160.185376 
L 640.549897 157.429021 
L 642.71157 156.041403 
L 644.873244 155.999818 
L 647.034917 156.626974 
L 649.196591 156.628657 
L 651.358264 155.385315 
L 653.519938 155.445622 
L 655.681612 153.645691 
L 657.843285 155.016564 
L 660.004959 152.669925 
L 662.166632 154.08545 
L 664.328306 153.667492 
L 666.489979 150.207405 
L 668.651653 151.093241 
L 670.813326 150.776835 
L 672.975 149.882293 
L 675.136674 150.238191 
L 677.298347 150.016535 
L 679.460021 149.222809 
L 681.621694 147.249797 
L 683.783368 147.737674 
L 685.945041 149.458978 
L 688.106715 150.003864 
L 690.268388 151.769873 
L 692.430062 152.96792 
L 694.591736 152.434828 
L 696.753409 152.532213 
L 698.915083 152.082267 
L 701.076756 151.081823 
L 703.23843 153.677305 
L 705.400103 153.958662 
L 707.561777 151.924319 
L 709.72345 153.49998 
L 711.885124 151.556927 
L 714.046798 149.023145 
L 716.208471 149.587168 
L 718.370145 148.984531 
L 720.531818 147.179446 
L 722.693492 146.683776 
L 724.855165 148.193282 
L 729.178512 147.626846 
L 731.340186 146.808149 
L 733.50186 145.378258 
L 739.98688 139.128851 
L 744.310227 131.513737 
L 746.471901 131.122019 
L 748.633574 129.956237 
L 750.795248 126.807834 
L 752.956921 125.83562 
L 755.118595 123.857513 
L 757.280269 120.515775 
L 759.441942 122.306864 
L 763.765289 108.449507 
L 763.765289 108.449507 
" clip-path="url(#pa90fd50cfd)" style="fill: none; stroke: #1f77b4; stroke-linecap: square"/>
   </g>
   <g id="line2d_56">
    <path d="M 487.071074 369.36 
L 489.232748 280.698761 
L 491.394421 262.412136 
L 493.556095 266.850522 
L 495.717769 231.077767 
L 497.879442 227.466617 
L 500.041116 224.592124 
L 502.202789 213.765893 
L 504.364463 212.670345 
L 508.68781 210.866317 
L 510.849483 207.193095 
L 513.011157 212.18062 
L 517.334504 210.749217 
L 519.496178 210.156711 
L 521.657851 203.269553 
L 523.819525 203.135406 
L 525.981198 193.396054 
L 528.142872 195.592982 
L 530.304545 192.323739 
L 532.466219 192.714824 
L 534.627893 197.934243 
L 536.789566 193.441017 
L 538.95124 196.775902 
L 541.112913 195.558767 
L 543.274587 195.832698 
L 545.43626 200.13467 
L 547.597934 197.675792 
L 549.759607 199.164563 
L 551.921281 199.35829 
L 556.244628 204.360061 
L 558.406302 198.85276 
L 560.567975 200.192342 
L 562.729649 198.287359 
L 564.891322 195.446878 
L 567.052996 194.792324 
L 569.214669 196.176242 
L 571.376343 195.570439 
L 573.538017 194.056257 
L 575.69969 191.686215 
L 577.861364 192.178436 
L 580.023037 189.07088 
L 584.346384 190.190224 
L 586.508058 189.044535 
L 588.669731 189.628674 
L 590.831405 188.568943 
L 592.993079 186.753005 
L 595.154752 184.211408 
L 597.316426 183.338905 
L 601.639773 183.256049 
L 603.801446 181.736938 
L 605.96312 183.250764 
L 608.124793 180.345224 
L 612.44814 180.531932 
L 614.609814 182.057206 
L 616.771488 182.172383 
L 618.933161 183.670249 
L 621.094835 183.800911 
L 623.256508 181.280973 
L 625.418182 179.490921 
L 627.579855 179.071326 
L 629.741529 180.627863 
L 631.903202 182.801831 
L 636.22655 179.572376 
L 638.388223 179.899379 
L 640.549897 177.152956 
L 642.71157 175.696395 
L 644.873244 175.509099 
L 647.034917 175.954152 
L 649.196591 175.813572 
L 651.358264 174.503861 
L 653.519938 174.42395 
L 655.681612 172.5953 
L 657.843285 173.754616 
L 660.004959 171.416095 
L 662.166632 172.62267 
L 664.328306 172.105177 
L 666.489979 168.725179 
L 668.651653 169.44027 
L 670.813326 169.025516 
L 672.975 168.068662 
L 675.136674 168.291645 
L 677.298347 167.973025 
L 679.460021 167.118048 
L 681.621694 165.155243 
L 683.783368 165.511496 
L 685.945041 167.030766 
L 688.106715 167.444715 
L 690.268388 169.009765 
L 692.430062 170.042128 
L 694.591736 169.447727 
L 696.753409 169.448653 
L 698.915083 168.937058 
L 701.076756 167.910416 
L 703.23843 170.265983 
L 705.400103 170.448263 
L 707.561777 168.457666 
L 709.72345 169.860289 
L 711.885124 167.961901 
L 714.046798 165.513953 
L 716.208471 165.975219 
L 718.370145 165.345945 
L 720.531818 163.594859 
L 722.693492 163.074689 
L 724.855165 164.433782 
L 729.178512 163.811834 
L 731.340186 163.009854 
L 733.50186 161.646285 
L 739.98688 155.808706 
L 744.310227 148.833582 
L 746.471901 148.540404 
L 748.633574 147.567305 
L 750.795248 144.829576 
L 752.956921 144.142821 
L 755.118595 142.632474 
L 757.280269 140.044829 
L 759.441942 142.255015 
L 761.603616 137.209147 
L 763.765289 133.732544 
L 763.765289 133.732544 
" clip-path="url(#pa90fd50cfd)" style="fill: none; stroke-dasharray: 3.7,1.6; stroke-dashoffset: 0; stroke: #0000ff"/>
   </g>
   <g id="line2d_57">
    <path d="M 487.071074 182.154974 
L 489.232748 66.96 
L 491.394421 66.96 
L 493.556095 99.923144 
L 495.717769 68.85706 
L 497.879442 80.91377 
L 500.041116 89.985097 
L 502.202789 85.643439 
L 504.364463 92.7957 
L 506.526136 98.721317 
L 508.68781 103.738814 
L 510.849483 104.297008 
L 513.011157 115.314276 
L 515.172831 118.411522 
L 517.334504 121.193644 
L 519.496178 123.715868 
L 521.657851 118.119572 
L 523.819525 120.689014 
L 525.981198 111.261876 
L 528.142872 116.291221 
L 530.304545 114.489945 
L 532.466219 116.983881 
L 534.627893 125.154279 
L 536.789566 121.491422 
L 538.95124 127.127457 
L 541.112913 127.204108 
L 543.274587 128.975723 
L 545.43626 135.455638 
L 547.597934 133.814097 
L 549.759607 136.793736 
L 551.921281 138.174249 
L 556.244628 146.20473 
L 558.406302 140.713347 
L 560.567975 143.236608 
L 562.729649 141.914397 
L 564.891322 139.470024 
L 567.052996 139.550174 
L 569.214669 141.972251 
L 571.376343 142.04514 
L 573.538017 141.036336 
L 575.69969 139.013562 
L 577.861364 140.284228 
L 580.023037 137.369375 
L 584.346384 139.951161 
L 586.508058 139.244486 
L 588.669731 140.510818 
L 590.831405 139.867996 
L 592.993079 138.341951 
L 595.154752 135.971464 
L 597.316426 135.502006 
L 601.639773 136.42296 
L 603.801446 135.173883 
L 605.96312 137.376725 
L 608.124793 134.522064 
L 612.44814 135.62348 
L 614.609814 137.787705 
L 616.771488 138.33415 
L 618.933161 140.443624 
L 621.094835 140.98643 
L 623.256508 138.506128 
L 625.418182 136.848999 
L 627.579855 136.741104 
L 629.741529 138.868357 
L 631.903202 141.687186 
L 636.22655 138.70142 
L 638.388223 139.400683 
L 640.549897 136.608794 
L 642.71157 135.273189 
L 644.873244 135.369323 
L 647.034917 136.175099 
L 649.196591 136.310981 
L 651.358264 135.11668 
L 653.519938 135.308989 
L 655.681612 133.515376 
L 657.843285 135.098863 
L 660.004959 132.716463 
L 662.166632 134.341989 
L 664.328306 134.010012 
L 666.489979 130.431052 
L 668.651653 131.483577 
L 670.813326 131.251162 
L 672.975 130.399095 
L 675.136674 130.878313 
L 677.298347 130.738518 
L 679.460021 129.985166 
L 681.621694 127.96924 
L 683.783368 128.578135 
L 685.945041 130.502328 
L 688.106715 131.167383 
L 690.268388 133.13526 
L 692.430062 134.494039 
L 694.591736 133.99916 
L 696.753409 134.175486 
L 698.915083 133.762887 
L 701.076756 132.756985 
L 703.23843 135.59998 
L 705.400103 135.961363 
L 707.561777 133.835547 
L 709.72345 135.578075 
L 711.885124 133.539303 
L 714.046798 130.857372 
L 716.208471 131.499989 
L 718.370145 130.881629 
L 720.531818 128.959339 
L 722.693492 128.440156 
L 724.855165 130.080199 
L 729.178512 129.461851 
L 731.340186 128.555302 
L 733.50186 126.968841 
L 739.98688 119.920405 
L 742.148554 115.705554 
L 744.310227 111.203955 
L 746.471901 110.528775 
L 748.633574 108.920598 
L 750.795248 104.972564 
L 752.956921 103.321164 
L 755.118595 100.296012 
L 757.280269 95.282962 
L 759.441942 95.697483 
L 761.603616 83.860695 
L 763.765289 66.96 
L 763.765289 66.96 
" clip-path="url(#pa90fd50cfd)" style="fill: none; stroke-dasharray: 3.7,1.6; stroke-dashoffset: 0; stroke: #0000ff"/>
   </g>
   <g id="patch_8">
    <path d="M 473.236364 384.48 
L 473.236364 51.84 
" style="fill: none; stroke: #000000; stroke-width: 0.8; stroke-linejoin: miter; stroke-linecap: square"/>
   </g>
   <g id="patch_9">
    <path d="M 473.236364 384.48 
L 777.6 384.48 
" style="fill: none; stroke: #000000; stroke-width: 0.8; stroke-linejoin: miter; stroke-linecap: square"/>
   </g>
   <g id="text_33">
    <!-- Lower tail dependence function: Gumbel(2.0) -->
    <g transform="translate(489.136619 45.84) scale(0.12 -0.12)">
     <defs>
      <path id="DejaVuSans-47" d="M 3809 666 
L 3809 1919 
L 2778 1919 
L 2778 2438 
L 4434 2438 
L 4434 434 
Q 4069 175 3628 42 
Q 3188 -91 2688 -91 
Q 1594 -91 976 548 
Q 359 1188 359 2328 
Q 359 3472 976 4111 
Q 1594 4750 2688 4750 
Q 3144 4750 3555 4637 
Q 3966 4525 4313 4306 
L 4313 3634 
Q 3963 3931 3569 4081 
Q 3175 4231 2741 4231 
Q 1884 4231 1454 3753 
Q 1025 3275 1025 2328 
Q 1025 1384 1454 906 
Q 1884 428 2741 428 
Q 3075 428 3337 486 
Q 3600 544 3809 666 
z
" transform="scale(0.015625)"/>
      <path id="DejaVuSans-6d" d="M 3328 2828 
Q 3544 3216 3844 3400 
Q 4144 3584 4550 3584 
Q 5097 3584 5394 3201 
Q 5691 2819 5691 2113 
L 5691 0 
L 5113 0 
L 5113 2094 
Q 5113 2597 4934 2840 
Q 4756 3084 4391 3084 
Q 3944 3084 3684 2787 
Q 3425 2491 3425 1978 
L 3425 0 
L 2847 0 
L 2847 2094 
Q 2847 2600 2669 2842 
Q 2491 3084 2119 3084 
Q 1678 3084 1418 2786 
Q 1159 2488 1159 1978 
L 1159 0 
L 581 0 
L 581 3500 
L 1159 3500 
L 1159 2956 
Q 1356 3278 1631 3431 
Q 1906 3584 2284 3584 
Q 2666 3584 2933 3390 
Q 3200 3197 3328 2828 
z
" transform="scale(0.015625)"/>
      <path id="DejaVuSans-62" d="M 3116 1747 
Q 3116 2381 2855 2742 
Q 2594 3103 2138 3103 
Q 1681 3103 1420 2742 
Q 1159 2381 1159 1747 
Q 1159 1113 1420 752 
Q 1681 391 2138 391 
Q 2594 391 2855 752 
Q 3116 1113 3116 1747 
z
M 1159 2969 
Q 1341 3281 1617 3432 
Q 1894 3584 2278 3584 
Q 2916 3584 3314 3078 
Q 3713 2572 3713 1747 
Q 3713 922 3314 415 
Q 2916 -91 2278 -91 
Q 1894 -91 1617 61 
Q 1341 213 1159 525 
L 1159 0 
L 581 0 
L 581 4863 
L 1159 4863 
L 1159 2969 
z
" transform="scale(0.015625)"/>
     </defs>
     <use xlink:href="#DejaVuSans-4c"/>
     <use xlink:href="#DejaVuSans-6f" transform="translate(53.962891 0)"/>
     <use xlink:href="#DejaVuSans-77" transform="translate(115.144531 0)"/>
     <use xlink:href="#DejaVuSans-65" transform="translate(196.931641 0)"/>
     <use xlink:href="#DejaVuSans-72" transform="translate(258.455078 0)"/>
     <use xlink:href="#DejaVuSans-20" transform="translate(299.568359 0)"/>
     <use xlink:href="#DejaVuSans-74" transform="translate(331.355469 0)"/>
     <use xlink:href="#DejaVuSans-61" transform="translate(370.564453 0)"/>
     <use xlink:href="#DejaVuSans-69" transform="translate(431.84375 0)"/>
     <use xlink:href="#DejaVuSans-6c" transform="translate(459.626953 0)"/>
     <use xlink:href="#DejaVuSans-20" transform="translate(487.410156 0)"/>
     <use xlink:href="#DejaVuSans-64" transform="translate(519.197266 0)"/>
     <use xlink:href="#DejaVuSans-65" transform="translate(582.673828 0)"/>
     <use xlink:href="#DejaVuSans-70" transform="translate(644.197266 0)"/>
     <use xlink:href="#DejaVuSans-65" transform="translate(707.673828 0)"/>
     <use xlink:href="#DejaVuSans-6e" transform="translate(769.197266 0)"/>
     <use xlink:href="#DejaVuSans-64" transform="translate(832.576172 0)"/>
     <use xlink:href="#DejaVuSans-65" transform="translate(896.052734 0)"/>
     <use xlink:href="#DejaVuSans-6e" transform="translate(957.576172 0)"/>
     <use xlink:href="#DejaVuSans-63" transform="translate(1020.955078 0)"/>
     <use xlink:href="#DejaVuSans-65" transform="translate(1075.935547 0)"/>
     <use xlink:href="#DejaVuSans-20" transform="translate(1137.458984 0)"/>
     <use xlink:href="#DejaVuSans-66" transform="translate(1169.246094 0)"/>
     <use xlink:href="#DejaVuSans-75" transform="translate(1204.451172 0)"/>
     <use xlink:href="#DejaVuSans-6e" transform="translate(1267.830078 0)"/>
     <use xlink:href="#DejaVuSans-63" transform="translate(1331.208984 0)"/>
     <use xlink:href="#DejaVuSans-74" transform="translate(1386.189453 0)"/>
     <use xlink:href="#DejaVuSans-69" transform="translate(1425.398438 0)"/>
     <use xlink:href="#DejaVuSans-6f" transform="translate(1453.181641 0)"/>
     <use xlink:href="#DejaVuSans-6e" transform="translate(1514.363281 0)"/>
     <use xlink:href="#DejaVuSans-3a" transform="translate(1577.742188 0)"/>
     <use xlink:href="#DejaVuSans-20" transform="translate(1611.433594 0)"/>
     <use xlink:href="#DejaVuSans-47" transform="translate(1643.220703 0)"/>
     <use xlink:href="#DejaVuSans-75" transform="translate(1720.710938 0)"/>
     <use xlink:href="#DejaVuSans-6d" transform="translate(1784.089844 0)"/>
     <use xlink:href="#DejaVuSans-62" transform="translate(1881.501953 0)"/>
     <use xlink:href="#DejaVuSans-65" transform="translate(1944.978516 0)"/>
     <use xlink:href="#DejaVuSans-6c" transform="translate(2006.501953 0)"/>
     <use xlink:href="#DejaVuSans-28" transform="translate(2034.285156 0)"/>
     <use xlink:href="#DejaVuSans-32" transform="translate(2073.298828 0)"/>
     <use xlink:href="#DejaVuSans-2e" transform="translate(2136.921875 0)"/>
     <use xlink:href="#DejaVuSans-30" transform="translate(2168.708984 0)"/>
     <use xlink:href="#DejaVuSans-29" transform="translate(2232.332031 0)"/>
    </g>
   </g>
   <g id="legend_2">
    <g id="patch_10">
     <path d="M 596.325213 381.48 
L 658.511151 381.48 
Q 660.511151 381.48 660.511151 379.48 
L 660.511151 336.42375 
Q 660.511151 334.42375 658.511151 334.42375 
L 596.325213 334.42375 
Q 594.325213 334.42375 594.325213 336.42375 
L 594.325213 379.48 
Q 594.325213 381.48 596.325213 381.48 
z
" style="fill: #4d4d4d; opacity: 0.5; stroke: #4d4d4d; stroke-linejoin: miter"/>
    </g>
    <g id="patch_11">
     <path d="M 594.325213 379.48 
L 656.511151 379.48 
Q 658.511151 379.48 658.511151 377.48 
L 658.511151 334.42375 
Q 658.511151 332.42375 656.511151 332.42375 
L 594.325213 332.42375 
Q 592.325213 332.42375 592.325213 334.42375 
L 592.325213 377.48 
Q 592.325213 379.48 594.325213 379.48 
z
" style="fill: #ffffff; stroke: #cccccc; stroke-linejoin: miter"/>
    </g>
    <g id="line2d_58">
     <path d="M 596.325213 340.52375 
L 606.325213 340.52375 
L 616.325213 340.52375 
" style="fill: none; stroke: #1f77b4; stroke-linecap: square"/>
    </g>
    <g id="text_34">
     <!-- $\chi_L(u)$ -->
     <g transform="translate(624.325213 344.02375) scale(0.1 -0.1)">
      <use xlink:href="#DejaVuSans-Oblique-3c7" transform="translate(0 0.125)"/>
      <use xlink:href="#DejaVuSans-Oblique-4c" transform="translate(59.179688 -16.28125) scale(0.7)"/>
      <use xlink:href="#DejaVuSans-28" transform="translate(100.913086 0.125)"/>
      <use xlink:href="#DejaVuSans-Oblique-75" transform="translate(139.926758 0.125)"/>
      <use xlink:href="#DejaVuSans-29" transform="translate(203.305664 0.125)"/>
     </g>
    </g>
    <g id="line2d_59">
     <path d="M 596.325213 355.222188 
L 606.325213 355.222188 
L 616.325213 355.222188 
" style="fill: none; stroke-dasharray: 3.7,1.6; stroke-dashoffset: 0; stroke: #0000ff"/>
    </g>
    <g id="text_35">
     <!-- CI low -->
     <g transform="translate(624.325213 358.722188) scale(0.1 -0.1)">
      <use xlink:href="#DejaVuSans-43"/>
      <use xlink:href="#DejaVuSans-49" transform="translate(69.824219 0)"/>
      <use xlink:href="#DejaVuSans-20" transform="translate(99.316406 0)"/>
      <use xlink:href="#DejaVuSans-6c" transform="translate(131.103516 0)"/>
      <use xlink:href="#DejaVuSans-6f" transform="translate(158.886719 0)"/>
      <use xlink:href="#DejaVuSans-77" transform="translate(220.068359 0)"/>
     </g>
    </g>
    <g id="line2d_60">
     <path d="M 596.325213 369.900313 
L 606.325213 369.900313 
L 616.325213 369.900313 
" style="fill: none; stroke-dasharray: 3.7,1.6; stroke-dashoffset: 0; stroke: #0000ff"/>
    </g>
    <g id="text_36">
     <!-- CI up -->
     <g transform="translate(624.325213 373.400313) scale(0.1 -0.1)">
      <use xlink:href="#DejaVuSans-43"/>
      <use xlink:href="#DejaVuSans-49" transform="translate(69.824219 0)"/>
      <use xlink:href="#DejaVuSans-20" transform="translate(99.316406 0)"/>
      <use xlink:href="#DejaVuSans-75" transform="translate(131.103516 0)"/>
      <use xlink:href="#DejaVuSans-70" transform="translate(194.482422 0)"/>
     </g>
    </g>
   </g>
  </g>
 </g>
 <defs>
  <clipPath id="p1cb617bd38">
   <rect x="108" y="51.84" width="304.363636" height="332.64"/>
  </clipPath>
  <clipPath id="pa90fd50cfd">
   <rect x="473.236364" y="51.84" width="304.363636" height="332.64"/>
  </clipPath>
 </defs>
</svg>
