<?xml version="1.0" encoding="utf-8" standalone="no"?>
<!DOCTYPE svg PUBLIC "-//W3C//DTD SVG 1.1//EN"
  "http://www.w3.org/Graphics/SVG/1.1/DTD/svg11.dtd">
<svg xmlns:xlink="http://www.w3.org/1999/xlink" width="324pt" height="324pt" viewBox="0 0 324 324" xmlns="http://www.w3.org/2000/svg" version="1.1">
 <metadata>
  <rdf:RDF xmlns:dc="http://purl.org/dc/elements/1.1/" xmlns:cc="http://creativecommons.org/ns#" xmlns:rdf="http://www.w3.org/1999/02/22-rdf-syntax-ns#">
   <cc:Work>
    <dc:type rdf:resource="http://purl.org/dc/dcmitype/StillImage"/>
    <dc:date>2022-01-01T00:00:00+00:00</dc:date>
    <dc:format>image/svg+xml</dc:format>
    <dc:creator>
     <cc:Agent>
      <dc:title>Matplotlib v3.10.8, https://matplotlib.org/</dc:title>
     </cc:Agent>
    </dc:creator>
   </cc:Work>
  </rdf:RDF>
 </metadata>
 <defs>
  <style type="text/css">*{stroke-linejoin: round; stroke-linecap: butt}</style>
 </defs>
 <g id="figure_1">
  <g id="patch_1">
   <path d="M 0 324 
L 324 324 
L 324 0 
L 0 0 
z
" style="fill: #ffffff"/>
  </g>
  <g id="axes_1">
   <g id="patch_2">
    <path d="M 40.5 288.36 
L 291.6 288.36 
L 291.6 38.88 
L 40.5 38.88 
z
" style="fill: #ffffff"/>
   </g>
   <g id="matplotlib.axis_1">
    <g id="xtick_1">
     <g id="line2d_1">
      <path d="M 51.913636 288.36 
L 51.913636 38.88 
" clip-path="url(#pf52fcb7b3c)" style="fill: none; stroke: #b0b0b0; stroke-width: 0.8; stroke-linecap: square"/>
     </g>
     <g id="line2d_2">
      <defs>
       <path id="mc1a7c5c19b" d="M 0 0 
L 0 3.5 
" style="stroke: #000000; stroke-width: 0.8"/>
      </defs>
      <g>
       <use xlink:href="#mc1a7c5c19b" x="51.913636" y="288.36" style="stroke: #000000; stroke-width: 0.8"/>
      </g>
     </g>
     <g id="text_1">
      <!-- 0.0 -->
      <g transform="translate(43.962074 302.958438) scale(0.1 -0.1)">
       <defs>
        <path id="DejaVuSans-30" d="M 2034 4250 
Q 1547 4250 1301 3770 
Q 1056 3291 1056 2328 
Q 1056 1369 1301 889 
Q 1547 409 2034 409 
Q 2525 409 2770 889 
Q 3016 1369 3016 2328 
Q 3016 3291 2770 3770 
Q 2525 4250 2034 4250 
z
M 2034 4750 
Q 2819 4750 3233 4129 
Q 3647 3509 3647 2328 
Q 3647 1150 3233 529 
Q 2819 -91 2034 -91 
Q 1250 -91 836 529 
Q 422 1150 422 2328 
Q 422 3509 836 4129 
Q 1250 4750 2034 4750 
z
" transform="scale(0.015625)"/>
        <path id="DejaVuSans-2e" d="M 684 794 
L 1344 794 
L 1344 0 
L 684 0 
L 684 794 
z
" transform="scale(0.015625)"/>
       </defs>
       <use xlink:href="#DejaVuSans-30"/>
       <use xlink:href="#DejaVuSans-2e" transform="translate(63.623047 0)"/>
       <use xlink:href="#DejaVuSans-30" transform="translate(95.410156 0)"/>
      </g>
     </g>
    </g>
    <g id="xtick_2">
     <g id="line2d_3">
      <path d="M 97.568182 288.36 
L 97.568182 38.88 
" clip-path="url(#pf52fcb7b3c)" style="fill: none; stroke: #b0b0b0; stroke-width: 0.8; stroke-linecap: square"/>
     </g>
     <g id="line2d_4">
      <g>
       <use xlink:href="#mc1a7c5c19b" x="97.568182" y="288.36" style="stroke: #000000; stroke-width: 0.8"/>
      </g>
     </g>
     <g id="text_2">
      <!-- 0.2 -->
      <g transform="translate(89.616619 302.958438) scale(0.1 -0.1)">
       <defs>
        <path id="DejaVuSans-32" d="M 1228 531 
L 3431 531 
L 3431 0 
L 469 0 
L 469 531 
Q 828 903 1448 1529 
Q 2069 2156 2228 2338 
Q 2531 2678 2651 2914 
Q 2772 3150 2772 3378 
Q 2772 3750 2511 3984 
Q 2250 4219 1831 4219 
Q 1534 4219 1204 4116 
Q 875 4013 500 3803 
L 500 4441 
Q 881 4594 1212 4672 
Q 1544 4750 1819 4750 
Q 2544 4750 2975 4387 
Q 3406 4025 3406 3419 
Q 3406 3131 3298 2873 
Q 3191 2616 2906 2266 
Q 2828 2175 2409 1742 
Q 1991 1309 1228 531 
z
" transform="scale(0.015625)"/>
       </defs>
       <use xlink:href="#DejaVuSans-30"/>
       <use xlink:href="#DejaVuSans-2e" transform="translate(63.623047 0)"/>
       <use xlink:href="#DejaVuSans-32" transform="translate(95.410156 0)"/>
      </g>
     </g>
    </g>
    <g id="xtick_3">
     <g id="line2d_5">
      <path d="M 143.222727 288.36 
L 143.222727 38.88 
" clip-path="url(#pf52fcb7b3c)" style="fill: none; stroke: #b0b0b0; stroke-width: 0.8; stroke-linecap: square"/>
     </g>
     <g id="line2d_6">
      <g>
       <use xlink:href="#mc1a7c5c19b" x="143.222727" y="288.36" style="stroke: #000000; stroke-width: 0.8"/>
      </g>
     </g>
     <g id="text_3">
      <!-- 0.4 -->
      <g transform="translate(135.271165 302.958438) scale(0.1 -0.1)">
       <defs>
        <path id="DejaVuSans-34" d="M 2419 4116 
L 825 1625 
L 2419 1625 
L 2419 4116 
z
M 2253 4666 
L 3047 4666 
L 3047 1625 
L 3713 1625 
L 3713 1100 
L 3047 1100 
L 3047 0 
L 2419 0 
L 2419 1100 
L 313 1100 
L 313 1709 
L 2253 4666 
z
" transform="scale(0.015625)"/>
       </defs>
       <use xlink:href="#DejaVuSans-30"/>
       <use xlink:href="#DejaVuSans-2e" transform="translate(63.623047 0)"/>
       <use xlink:href="#DejaVuSans-34" transform="translate(95.410156 0)"/>
      </g>
     </g>
    </g>
    <g id="xtick_4">
     <g id="line2d_7">
      <path d="M 188.877273 288.36 
L 188.877273 38.88 
" clip-path="url(#pf52fcb7b3c)" style="fill: none; stroke: #b0b0b0; stroke-width: 0.8; stroke-linecap: square"/>
     </g>
     <g id="line2d_8">
      <g>
       <use xlink:href="#mc1a7c5c19b" x="188.877273" y="288.36" style="stroke: #000000; stroke-width: 0.8"/>
      </g>
     </g>
     <g id="text_4">
      <!-- 0.6 -->
      <g transform="translate(180.92571 302.958438) scale(0.1 -0.1)">
       <defs>
        <path id="DejaVuSans-36" d="M 2113 2584 
Q 1688 2584 1439 2293 
Q 1191 2003 1191 1497 
Q 1191 994 1439 701 
Q 1688 409 2113 409 
Q 2538 409 2786 701 
Q 3034 994 3034 1497 
Q 3034 2003 2786 2293 
Q 2538 2584 2113 2584 
z
M 3366 4563 
L 3366 3988 
Q 3128 4100 2886 4159 
Q 2644 4219 2406 4219 
Q 1781 4219 1451 3797 
Q 1122 3375 1075 2522 
Q 1259 2794 1537 2939 
Q 1816 3084 2150 3084 
Q 2853 3084 3261 2657 
Q 3669 2231 3669 1497 
Q 3669 778 3244 343 
Q 2819 -91 2113 -91 
Q 1303 -91 875 529 
Q 447 1150 447 2328 
Q 447 3434 972 4092 
Q 1497 4750 2381 4750 
Q 2619 4750 2861 4703 
Q 3103 4656 3366 4563 
z
" transform="scale(0.015625)"/>
       </defs>
       <use xlink:href="#DejaVuSans-30"/>
       <use xlink:href="#DejaVuSans-2e" transform="translate(63.623047 0)"/>
       <use xlink:href="#DejaVuSans-36" transform="translate(95.410156 0)"/>
      </g>
     </g>
    </g>
    <g id="xtick_5">
     <g id="line2d_9">
      <path d="M 234.531818 288.36 
L 234.531818 38.88 
" clip-path="url(#pf52fcb7b3c)" style="fill: none; stroke: #b0b0b0; stroke-width: 0.8; stroke-linecap: square"/>
     </g>
     <g id="line2d_10">
      <g>
       <use xlink:href="#mc1a7c5c19b" x="234.531818" y="288.36" style="stroke: #000000; stroke-width: 0.8"/>
      </g>
     </g>
     <g id="text_5">
      <!-- 0.8 -->
      <g transform="translate(226.580256 302.958438) scale(0.1 -0.1)">
       <defs>
        <path id="DejaVuSans-38" d="M 2034 2216 
Q 1584 2216 1326 1975 
Q 1069 1734 1069 1313 
Q 1069 891 1326 650 
Q 1584 409 2034 409 
Q 2484 409 2743 651 
Q 3003 894 3003 1313 
Q 3003 1734 2745 1975 
Q 2488 2216 2034 2216 
z
M 1403 2484 
Q 997 2584 770 2862 
Q 544 3141 544 3541 
Q 544 4100 942 4425 
Q 1341 4750 2034 4750 
Q 2731 4750 3128 4425 
Q 3525 4100 3525 3541 
Q 3525 3141 3298 2862 
Q 3072 2584 2669 2484 
Q 3125 2378 3379 2068 
Q 3634 1759 3634 1313 
Q 3634 634 3220 271 
Q 2806 -91 2034 -91 
Q 1263 -91 848 271 
Q 434 634 434 1313 
Q 434 1759 690 2068 
Q 947 2378 1403 2484 
z
M 1172 3481 
Q 1172 3119 1398 2916 
Q 1625 2713 2034 2713 
Q 2441 2713 2670 2916 
Q 2900 3119 2900 3481 
Q 2900 3844 2670 4047 
Q 2441 4250 2034 4250 
Q 1625 4250 1398 4047 
Q 1172 3844 1172 3481 
z
" transform="scale(0.015625)"/>
       </defs>
       <use xlink:href="#DejaVuSans-30"/>
       <use xlink:href="#DejaVuSans-2e" transform="translate(63.623047 0)"/>
       <use xlink:href="#DejaVuSans-38" transform="translate(95.410156 0)"/>
      </g>
     </g>
    </g>
    <g id="xtick_6">
     <g id="line2d_11">
      <path d="M 280.186364 288.36 
L 280.186364 38.88 
" clip-path="url(#pf52fcb7b3c)" style="fill: none; stroke: #b0b0b0; stroke-width: 0.8; stroke-linecap: square"/>
     </g>
     <g id="line2d_12">
      <g>
       <use xlink:href="#mc1a7c5c19b" x="280.186364" y="288.36" style="stroke: #000000; stroke-width: 0.8"/>
      </g>
     </g>
     <g id="text_6">
      <!-- 1.0 -->
      <g transform="translate(272.234801 302.958438) scale(0.1 -0.1)">
       <defs>
        <path id="DejaVuSans-31" d="M 794 531 
L 1825 531 
L 1825 4091 
L 703 3866 
L 703 4441 
L 1819 4666 
L 2450 4666 
L 2450 531 
L 3481 531 
L 3481 0 
L 794 0 
L 794 531 
z
" transform="scale(0.015625)"/>
       </defs>
       <use xlink:href="#DejaVuSans-31"/>
       <use xlink:href="#DejaVuSans-2e" transform="translate(63.623047 0)"/>
       <use xlink:href="#DejaVuSans-30" transform="translate(95.410156 0)"/>
      </g>
     </g>
    </g>
    <g id="text_7">
     <!-- X0 -->
     <g transform="translate(159.44375 316.636563) scale(0.1 -0.1)">
      <defs>
       <path id="DejaVuSans-58" d="M 403 4666 
L 1081 4666 
L 2241 2931 
L 3406 4666 
L 4084 4666 
L 2584 2425 
L 4184 0 
L 3506 0 
L 2194 1984 
L 872 0 
L 191 0 
L 1856 2491 
L 403 4666 
z
" transform="scale(0.015625)"/>
      </defs>
      <use xlink:href="#DejaVuSans-58"/>
      <use xlink:href="#DejaVuSans-30" transform="translate(68.505859 0)"/>
     </g>
    </g>
   </g>
   <g id="matplotlib.axis_2">
    <g id="ytick_1">
     <g id="line2d_13">
      <path d="M 40.5 277.02 
L 291.6 277.02 
" clip-path="url(#pf52fcb7b3c)" style="fill: none; stroke: #b0b0b0; stroke-width: 0.8; stroke-linecap: square"/>
     </g>
     <g id="line2d_14">
      <defs>
       <path id="m10e81f912e" d="M 0 0 
L -3.5 0 
" style="stroke: #000000; stroke-width: 0.8"/>
      </defs>
      <g>
       <use xlink:href="#m10e81f912e" x="40.5" y="277.02" style="stroke: #000000; stroke-width: 0.8"/>
      </g>
     </g>
     <g id="text_8">
      <!-- 0.0 -->
      <g transform="translate(17.596875 280.819219) scale(0.1 -0.1)">
       <use xlink:href="#DejaVuSans-30"/>
       <use xlink:href="#DejaVuSans-2e" transform="translate(63.623047 0)"/>
       <use xlink:href="#DejaVuSans-30" transform="translate(95.410156 0)"/>
      </g>
     </g>
    </g>
    <g id="ytick_2">
     <g id="line2d_15">
      <path d="M 40.5 231.66 
L 291.6 231.66 
" clip-path="url(#pf52fcb7b3c)" style="fill: none; stroke: #b0b0b0; stroke-width: 0.8; stroke-linecap: square"/>
     </g>
     <g id="line2d_16">
      <g>
       <use xlink:href="#m10e81f912e" x="40.5" y="231.66" style="stroke: #000000; stroke-width: 0.8"/>
      </g>
     </g>
     <g id="text_9">
      <!-- 0.2 -->
      <g transform="translate(17.596875 235.459219) scale(0.1 -0.1)">
       <use xlink:href="#DejaVuSans-30"/>
       <use xlink:href="#DejaVuSans-2e" transform="translate(63.623047 0)"/>
       <use xlink:href="#DejaVuSans-32" transform="translate(95.410156 0)"/>
      </g>
     </g>
    </g>
    <g id="ytick_3">
     <g id="line2d_17">
      <path d="M 40.5 186.3 
L 291.6 186.3 
" clip-path="url(#pf52fcb7b3c)" style="fill: none; stroke: #b0b0b0; stroke-width: 0.8; stroke-linecap: square"/>
     </g>
     <g id="line2d_18">
      <g>
       <use xlink:href="#m10e81f912e" x="40.5" y="186.3" style="stroke: #000000; stroke-width: 0.8"/>
      </g>
     </g>
     <g id="text_10">
      <!-- 0.4 -->
      <g transform="translate(17.596875 190.099219) scale(0.1 -0.1)">
       <use xlink:href="#DejaVuSans-30"/>
       <use xlink:href="#DejaVuSans-2e" transform="translate(63.623047 0)"/>
       <use xlink:href="#DejaVuSans-34" transform="translate(95.410156 0)"/>
      </g>
     </g>
    </g>
    <g id="ytick_4">
     <g id="line2d_19">
      <path d="M 40.5 140.94 
L 291.6 140.94 
" clip-path="url(#pf52fcb7b3c)" style="fill: none; stroke: #b0b0b0; stroke-width: 0.8; stroke-linecap: square"/>
     </g>
     <g id="line2d_20">
      <g>
       <use xlink:href="#m10e81f912e" x="40.5" y="140.94" style="stroke: #000000; stroke-width: 0.8"/>
      </g>
     </g>
     <g id="text_11">
      <!-- 0.6 -->
      <g transform="translate(17.596875 144.739219) scale(0.1 -0.1)">
       <use xlink:href="#DejaVuSans-30"/>
       <use xlink:href="#DejaVuSans-2e" transform="translate(63.623047 0)"/>
       <use xlink:href="#DejaVuSans-36" transform="translate(95.410156 0)"/>
      </g>
     </g>
    </g>
    <g id="ytick_5">
     <g id="line2d_21">
      <path d="M 40.5 95.58 
L 291.6 95.58 
" clip-path="url(#pf52fcb7b3c)" style="fill: none; stroke: #b0b0b0; stroke-width: 0.8; stroke-linecap: square"/>
     </g>
     <g id="line2d_22">
      <g>
       <use xlink:href="#m10e81f912e" x="40.5" y="95.58" style="stroke: #000000; stroke-width: 0.8"/>
      </g>
     </g>
     <g id="text_12">
      <!-- 0.8 -->
      <g transform="translate(17.596875 99.379219) scale(0.1 -0.1)">
       <use xlink:href="#DejaVuSans-30"/>
       <use xlink:href="#DejaVuSans-2e" transform="translate(63.623047 0)"/>
       <use xlink:href="#DejaVuSans-38" transform="translate(95.410156 0)"/>
      </g>
     </g>
    </g>
    <g id="ytick_6">
     <g id="line2d_23">
      <path d="M 40.5 50.22 
L 291.6 50.22 
" clip-path="url(#pf52fcb7b3c)" style="fill: none; stroke: #b0b0b0; stroke-width: 0.8; stroke-linecap: square"/>
     </g>
     <g id="line2d_24">
      <g>
       <use xlink:href="#m10e81f912e" x="40.5" y="50.22" style="stroke: #000000; stroke-width: 0.8"/>
      </g>
     </g>
     <g id="text_13">
      <!-- 1.0 -->
      <g transform="translate(17.596875 54.019219) scale(0.1 -0.1)">
       <use xlink:href="#DejaVuSans-31"/>
       <use xlink:href="#DejaVuSans-2e" transform="translate(63.623047 0)"/>
       <use xlink:href="#DejaVuSans-30" transform="translate(95.410156 0)"/>
      </g>
     </g>
    </g>
    <g id="text_14">
     <!-- Distribution -->
     <g transform="translate(11.517187 192.78875) rotate(-90) scale(0.1 -0.1)">
      <defs>
       <path id="DejaVuSans-44" d="M 1259 4147 
L 1259 519 
L 2022 519 
Q 2988 519 3436 956 
Q 3884 1394 3884 2338 
Q 3884 3275 3436 3711 
Q 2988 4147 2022 4147 
L 1259 4147 
z
M 628 4666 
L 1925 4666 
Q 3281 4666 3915 4102 
Q 4550 3538 4550 2338 
Q 4550 1131 3912 565 
Q 3275 0 1925 0 
L 628 0 
L 628 4666 
z
" transform="scale(0.015625)"/>
       <path id="DejaVuSans-69" d="M 603 3500 
L 1178 3500 
L 1178 0 
L 603 0 
L 603 3500 
z
M 603 4863 
L 1178 4863 
L 1178 4134 
L 603 4134 
L 603 4863 
z
" transform="scale(0.015625)"/>
       <path id="DejaVuSans-73" d="M 2834 3397 
L 2834 2853 
Q 2591 2978 2328 3040 
Q 2066 3103 1784 3103 
Q 1356 3103 1142 2972 
Q 928 2841 928 2578 
Q 928 2378 1081 2264 
Q 1234 2150 1697 2047 
L 1894 2003 
Q 2506 1872 2764 1633 
Q 3022 1394 3022 966 
Q 3022 478 2636 193 
Q 2250 -91 1575 -91 
Q 1294 -91 989 -36 
Q 684 19 347 128 
L 347 722 
Q 666 556 975 473 
Q 1284 391 1588 391 
Q 1994 391 2212 530 
Q 2431 669 2431 922 
Q 2431 1156 2273 1281 
Q 2116 1406 1581 1522 
L 1381 1569 
Q 847 1681 609 1914 
Q 372 2147 372 2553 
Q 372 3047 722 3315 
Q 1072 3584 1716 3584 
Q 2034 3584 2315 3537 
Q 2597 3491 2834 3397 
z
" transform="scale(0.015625)"/>
       <path id="DejaVuSans-74" d="M 1172 4494 
L 1172 3500 
L 2356 3500 
L 2356 3053 
L 1172 3053 
L 1172 1153 
Q 1172 725 1289 603 
Q 1406 481 1766 481 
L 2356 481 
L 2356 0 
L 1766 0 
Q 1100 0 847 248 
Q 594 497 594 1153 
L 594 3053 
L 172 3053 
L 172 3500 
L 594 3500 
L 594 4494 
L 1172 4494 
z
" transform="scale(0.015625)"/>
       <path id="DejaVuSans-72" d="M 2631 2963 
Q 2534 3019 2420 3045 
Q 2306 3072 2169 3072 
Q 1681 3072 1420 2755 
Q 1159 2438 1159 1844 
L 1159 0 
L 581 0 
L 581 3500 
L 1159 3500 
L 1159 2956 
Q 1341 3275 1631 3429 
Q 1922 3584 2338 3584 
Q 2397 3584 2469 3576 
Q 2541 3569 2628 3553 
L 2631 2963 
z
" transform="scale(0.015625)"/>
       <path id="DejaVuSans-62" d="M 3116 1747 
Q 3116 2381 2855 2742 
Q 2594 3103 2138 3103 
Q 1681 3103 1420 2742 
Q 1159 2381 1159 1747 
Q 1159 1113 1420 752 
Q 1681 391 2138 391 
Q 2594 391 2855 752 
Q 3116 1113 3116 1747 
z
M 1159 2969 
Q 1341 3281 1617 3432 
Q 1894 3584 2278 3584 
Q 2916 3584 3314 3078 
Q 3713 2572 3713 1747 
Q 3713 922 3314 415 
Q 2916 -91 2278 -91 
Q 1894 -91 1617 61 
Q 1341 213 1159 525 
L 1159 0 
L 581 0 
L 581 4863 
L 1159 4863 
L 1159 2969 
z
" transform="scale(0.015625)"/>
       <path id="DejaVuSans-75" d="M 544 1381 
L 544 3500 
L 1119 3500 
L 1119 1403 
Q 1119 906 1312 657 
Q 1506 409 1894 409 
Q 2359 409 2629 706 
Q 2900 1003 2900 1516 
L 2900 3500 
L 3475 3500 
L 3475 0 
L 2900 0 
L 2900 538 
Q 2691 219 2414 64 
Q 2138 -91 1772 -91 
Q 1169 -91 856 284 
Q 544 659 544 1381 
z
M 1991 3584 
L 1991 3584 
z
" transform="scale(0.015625)"/>
       <path id="DejaVuSans-6f" d="M 1959 3097 
Q 1497 3097 1228 2736 
Q 959 2375 959 1747 
Q 959 1119 1226 758 
Q 1494 397 1959 397 
Q 2419 397 2687 759 
Q 2956 1122 2956 1747 
Q 2956 2369 2687 2733 
Q 2419 3097 1959 3097 
z
M 1959 3584 
Q 2709 3584 3137 3096 
Q 3566 2609 3566 1747 
Q 3566 888 3137 398 
Q 2709 -91 1959 -91 
Q 1206 -91 779 398 
Q 353 888 353 1747 
Q 353 2609 779 3096 
Q 1206 3584 1959 3584 
z
" transform="scale(0.015625)"/>
       <path id="DejaVuSans-6e" d="M 3513 2113 
L 3513 0 
L 2938 0 
L 2938 2094 
Q 2938 2591 2744 2837 
Q 2550 3084 2163 3084 
Q 1697 3084 1428 2787 
Q 1159 2491 1159 1978 
L 1159 0 
L 581 0 
L 581 3500 
L 1159 3500 
L 1159 2956 
Q 1366 3272 1645 3428 
Q 1925 3584 2291 3584 
Q 2894 3584 3203 3211 
Q 3513 2838 3513 2113 
z
" transform="scale(0.015625)"/>
      </defs>
      <use xlink:href="#DejaVuSans-44"/>
      <use xlink:href="#DejaVuSans-69" transform="translate(77.001953 0)"/>
      <use xlink:href="#DejaVuSans-73" transform="translate(104.785156 0)"/>
      <use xlink:href="#DejaVuSans-74" transform="translate(156.884766 0)"/>
      <use xlink:href="#DejaVuSans-72" transform="translate(196.09375 0)"/>
      <use xlink:href="#DejaVuSans-69" transform="translate(237.207031 0)"/>
      <use xlink:href="#DejaVuSans-62" transform="translate(264.990234 0)"/>
      <use xlink:href="#DejaVuSans-75" transform="translate(328.466797 0)"/>
      <use xlink:href="#DejaVuSans-74" transform="translate(391.845703 0)"/>
      <use xlink:href="#DejaVuSans-69" transform="translate(431.054688 0)"/>
      <use xlink:href="#DejaVuSans-6f" transform="translate(458.837891 0)"/>
      <use xlink:href="#DejaVuSans-6e" transform="translate(520.019531 0)"/>
     </g>
    </g>
   </g>
   <g id="line2d_25">
    <path d="M 51.913636 277.02 
L 280.186364 50.22 
" clip-path="url(#pf52fcb7b3c)" style="fill: none; stroke-dasharray: 3.7,1.6; stroke-dashoffset: 0; stroke: #1f77b4"/>
   </g>
   <g id="PathCollection_1">
    <defs>
     <path id="m72459a0306" d="M 0 1.5 
C 0.397805 1.5 0.77937 1.341951 1.06066 1.06066 
C 1.341951 0.77937 1.5 0.397805 1.5 0 
C 1.5 -0.397805 1.341951 -0.77937 1.06066 -1.06066 
C 0.77937 -1.341951 0.397805 -1.5 0 -1.5 
C -0.397805 -1.5 -0.77937 -1.341951 -1.06066 -1.06066 
C -1.341951 -0.77937 -1.5 -0.397805 -1.5 0 
C -1.5 0.397805 -1.341951 0.77937 -1.06066 1.06066 
C -0.77937 1.341951 -0.397805 1.5 0 1.5 
z
" style="stroke: #ff7f0e"/>
    </defs>
    <g clip-path="url(#pf52fcb7b3c)">
     <use xlink:href="#m72459a0306" x="53.055" y="274.52319" style="fill: #ff7f0e; stroke: #ff7f0e"/>
     <use xlink:href="#m72459a0306" x="55.337727" y="273.71383" style="fill: #ff7f0e; stroke: #ff7f0e"/>
     <use xlink:href="#m72459a0306" x="57.620455" y="271.464701" style="fill: #ff7f0e; stroke: #ff7f0e"/>
     <use xlink:href="#m72459a0306" x="59.903182" y="268.653146" style="fill: #ff7f0e; stroke: #ff7f0e"/>
     <use xlink:href="#m72459a0306" x="62.185909" y="266.049596" style="fill: #ff7f0e; stroke: #ff7f0e"/>
     <use xlink:href="#m72459a0306" x="64.468636" y="262.750308" style="fill: #ff7f0e; stroke: #ff7f0e"/>
     <use xlink:href="#m72459a0306" x="66.751364" y="257.612068" style="fill: #ff7f0e; stroke: #ff7f0e"/>
     <use xlink:href="#m72459a0306" x="69.034091" y="255.520041" style="fill: #ff7f0e; stroke: #ff7f0e"/>
     <use xlink:href="#m72459a0306" x="71.316818" y="254.393041" style="fill: #ff7f0e; stroke: #ff7f0e"/>
     <use xlink:href="#m72459a0306" x="73.599545" y="253.721844" style="fill: #ff7f0e; stroke: #ff7f0e"/>
     <use xlink:href="#m72459a0306" x="75.882273" y="243.133351" style="fill: #ff7f0e; stroke: #ff7f0e"/>
     <use xlink:href="#m72459a0306" x="78.165" y="243.086819" style="fill: #ff7f0e; stroke: #ff7f0e"/>
     <use xlink:href="#m72459a0306" x="80.447727" y="238.724971" style="fill: #ff7f0e; stroke: #ff7f0e"/>
     <use xlink:href="#m72459a0306" x="82.730455" y="238.630603" style="fill: #ff7f0e; stroke: #ff7f0e"/>
     <use xlink:href="#m72459a0306" x="85.013182" y="237.573974" style="fill: #ff7f0e; stroke: #ff7f0e"/>
     <use xlink:href="#m72459a0306" x="87.295909" y="235.37053" style="fill: #ff7f0e; stroke: #ff7f0e"/>
     <use xlink:href="#m72459a0306" x="89.578636" y="234.779672" style="fill: #ff7f0e; stroke: #ff7f0e"/>
     <use xlink:href="#m72459a0306" x="91.861364" y="232.612116" style="fill: #ff7f0e; stroke: #ff7f0e"/>
     <use xlink:href="#m72459a0306" x="94.144091" y="232.560328" style="fill: #ff7f0e; stroke: #ff7f0e"/>
     <use xlink:href="#m72459a0306" x="96.426818" y="227.737835" style="fill: #ff7f0e; stroke: #ff7f0e"/>
     <use xlink:href="#m72459a0306" x="98.709545" y="227.448411" style="fill: #ff7f0e; stroke: #ff7f0e"/>
     <use xlink:href="#m72459a0306" x="100.992273" y="225.813081" style="fill: #ff7f0e; stroke: #ff7f0e"/>
     <use xlink:href="#m72459a0306" x="103.275" y="225.184273" style="fill: #ff7f0e; stroke: #ff7f0e"/>
     <use xlink:href="#m72459a0306" x="105.557727" y="224.570559" style="fill: #ff7f0e; stroke: #ff7f0e"/>
     <use xlink:href="#m72459a0306" x="107.840455" y="223.656072" style="fill: #ff7f0e; stroke: #ff7f0e"/>
     <use xlink:href="#m72459a0306" x="110.123182" y="220.089178" style="fill: #ff7f0e; stroke: #ff7f0e"/>
     <use xlink:href="#m72459a0306" x="112.405909" y="219.096078" style="fill: #ff7f0e; stroke: #ff7f0e"/>
     <use xlink:href="#m72459a0306" x="114.688636" y="217.293307" style="fill: #ff7f0e; stroke: #ff7f0e"/>
     <use xlink:href="#m72459a0306" x="116.971364" y="211.776534" style="fill: #ff7f0e; stroke: #ff7f0e"/>
     <use xlink:href="#m72459a0306" x="119.254091" y="207.900835" style="fill: #ff7f0e; stroke: #ff7f0e"/>
     <use xlink:href="#m72459a0306" x="121.536818" y="207.595654" style="fill: #ff7f0e; stroke: #ff7f0e"/>
     <use xlink:href="#m72459a0306" x="123.819545" y="205.850508" style="fill: #ff7f0e; stroke: #ff7f0e"/>
     <use xlink:href="#m72459a0306" x="126.102273" y="205.732196" style="fill: #ff7f0e; stroke: #ff7f0e"/>
     <use xlink:href="#m72459a0306" x="128.385" y="204.673119" style="fill: #ff7f0e; stroke: #ff7f0e"/>
     <use xlink:href="#m72459a0306" x="130.667727" y="202.040629" style="fill: #ff7f0e; stroke: #ff7f0e"/>
     <use xlink:href="#m72459a0306" x="132.950455" y="197.444307" style="fill: #ff7f0e; stroke: #ff7f0e"/>
     <use xlink:href="#m72459a0306" x="135.233182" y="195.078939" style="fill: #ff7f0e; stroke: #ff7f0e"/>
     <use xlink:href="#m72459a0306" x="137.515909" y="194.955332" style="fill: #ff7f0e; stroke: #ff7f0e"/>
     <use xlink:href="#m72459a0306" x="139.798636" y="185.236092" style="fill: #ff7f0e; stroke: #ff7f0e"/>
     <use xlink:href="#m72459a0306" x="142.081364" y="184.974899" style="fill: #ff7f0e; stroke: #ff7f0e"/>
     <use xlink:href="#m72459a0306" x="144.364091" y="179.90829" style="fill: #ff7f0e; stroke: #ff7f0e"/>
     <use xlink:href="#m72459a0306" x="146.646818" y="178.091143" style="fill: #ff7f0e; stroke: #ff7f0e"/>
     <use xlink:href="#m72459a0306" x="148.929545" y="176.196929" style="fill: #ff7f0e; stroke: #ff7f0e"/>
     <use xlink:href="#m72459a0306" x="151.212273" y="174.945314" style="fill: #ff7f0e; stroke: #ff7f0e"/>
     <use xlink:href="#m72459a0306" x="153.495" y="173.684143" style="fill: #ff7f0e; stroke: #ff7f0e"/>
     <use xlink:href="#m72459a0306" x="155.777727" y="171.822861" style="fill: #ff7f0e; stroke: #ff7f0e"/>
     <use xlink:href="#m72459a0306" x="158.060455" y="171.74386" style="fill: #ff7f0e; stroke: #ff7f0e"/>
     <use xlink:href="#m72459a0306" x="160.343182" y="167.564799" style="fill: #ff7f0e; stroke: #ff7f0e"/>
     <use xlink:href="#m72459a0306" x="162.625909" y="158.902758" style="fill: #ff7f0e; stroke: #ff7f0e"/>
     <use xlink:href="#m72459a0306" x="164.908636" y="157.272845" style="fill: #ff7f0e; stroke: #ff7f0e"/>
     <use xlink:href="#m72459a0306" x="167.191364" y="154.274303" style="fill: #ff7f0e; stroke: #ff7f0e"/>
     <use xlink:href="#m72459a0306" x="169.474091" y="147.033457" style="fill: #ff7f0e; stroke: #ff7f0e"/>
     <use xlink:href="#m72459a0306" x="171.756818" y="140.538983" style="fill: #ff7f0e; stroke: #ff7f0e"/>
     <use xlink:href="#m72459a0306" x="174.039545" y="140.268522" style="fill: #ff7f0e; stroke: #ff7f0e"/>
     <use xlink:href="#m72459a0306" x="176.322273" y="136.881979" style="fill: #ff7f0e; stroke: #ff7f0e"/>
     <use xlink:href="#m72459a0306" x="178.605" y="134.901679" style="fill: #ff7f0e; stroke: #ff7f0e"/>
     <use xlink:href="#m72459a0306" x="180.887727" y="133.884268" style="fill: #ff7f0e; stroke: #ff7f0e"/>
     <use xlink:href="#m72459a0306" x="183.170455" y="133.546008" style="fill: #ff7f0e; stroke: #ff7f0e"/>
     <use xlink:href="#m72459a0306" x="185.453182" y="132.583227" style="fill: #ff7f0e; stroke: #ff7f0e"/>
     <use xlink:href="#m72459a0306" x="187.735909" y="132.46618" style="fill: #ff7f0e; stroke: #ff7f0e"/>
     <use xlink:href="#m72459a0306" x="190.018636" y="130.222389" style="fill: #ff7f0e; stroke: #ff7f0e"/>
     <use xlink:href="#m72459a0306" x="192.301364" y="128.256809" style="fill: #ff7f0e; stroke: #ff7f0e"/>
     <use xlink:href="#m72459a0306" x="194.584091" y="127.726784" style="fill: #ff7f0e; stroke: #ff7f0e"/>
     <use xlink:href="#m72459a0306" x="196.866818" y="124.606533" style="fill: #ff7f0e; stroke: #ff7f0e"/>
     <use xlink:href="#m72459a0306" x="199.149545" y="124.582316" style="fill: #ff7f0e; stroke: #ff7f0e"/>
     <use xlink:href="#m72459a0306" x="201.432273" y="122.316671" style="fill: #ff7f0e; stroke: #ff7f0e"/>
     <use xlink:href="#m72459a0306" x="203.715" y="117.18584" style="fill: #ff7f0e; stroke: #ff7f0e"/>
     <use xlink:href="#m72459a0306" x="205.997727" y="117.086202" style="fill: #ff7f0e; stroke: #ff7f0e"/>
     <use xlink:href="#m72459a0306" x="208.280455" y="116.718827" style="fill: #ff7f0e; stroke: #ff7f0e"/>
     <use xlink:href="#m72459a0306" x="210.563182" y="111.802294" style="fill: #ff7f0e; stroke: #ff7f0e"/>
     <use xlink:href="#m72459a0306" x="212.845909" y="109.643404" style="fill: #ff7f0e; stroke: #ff7f0e"/>
     <use xlink:href="#m72459a0306" x="215.128636" y="108.331838" style="fill: #ff7f0e; stroke: #ff7f0e"/>
     <use xlink:href="#m72459a0306" x="217.411364" y="106.670311" style="fill: #ff7f0e; stroke: #ff7f0e"/>
     <use xlink:href="#m72459a0306" x="219.694091" y="103.945936" style="fill: #ff7f0e; stroke: #ff7f0e"/>
     <use xlink:href="#m72459a0306" x="221.976818" y="102.198138" style="fill: #ff7f0e; stroke: #ff7f0e"/>
     <use xlink:href="#m72459a0306" x="224.259545" y="100.965683" style="fill: #ff7f0e; stroke: #ff7f0e"/>
     <use xlink:href="#m72459a0306" x="226.542273" y="98.898929" style="fill: #ff7f0e; stroke: #ff7f0e"/>
     <use xlink:href="#m72459a0306" x="228.825" y="98.719698" style="fill: #ff7f0e; stroke: #ff7f0e"/>
     <use xlink:href="#m72459a0306" x="231.107727" y="97.570892" style="fill: #ff7f0e; stroke: #ff7f0e"/>
     <use xlink:href="#m72459a0306" x="233.390455" y="97.317721" style="fill: #ff7f0e; stroke: #ff7f0e"/>
     <use xlink:href="#m72459a0306" x="235.673182" y="91.627638" style="fill: #ff7f0e; stroke: #ff7f0e"/>
     <use xlink:href="#m72459a0306" x="237.955909" y="86.506676" style="fill: #ff7f0e; stroke: #ff7f0e"/>
     <use xlink:href="#m72459a0306" x="240.238636" y="86.434361" style="fill: #ff7f0e; stroke: #ff7f0e"/>
     <use xlink:href="#m72459a0306" x="242.521364" y="85.965183" style="fill: #ff7f0e; stroke: #ff7f0e"/>
     <use xlink:href="#m72459a0306" x="244.804091" y="85.355862" style="fill: #ff7f0e; stroke: #ff7f0e"/>
     <use xlink:href="#m72459a0306" x="247.086818" y="82.464177" style="fill: #ff7f0e; stroke: #ff7f0e"/>
     <use xlink:href="#m72459a0306" x="249.369545" y="76.077326" style="fill: #ff7f0e; stroke: #ff7f0e"/>
     <use xlink:href="#m72459a0306" x="251.652273" y="75.714467" style="fill: #ff7f0e; stroke: #ff7f0e"/>
     <use xlink:href="#m72459a0306" x="253.935" y="73.311416" style="fill: #ff7f0e; stroke: #ff7f0e"/>
     <use xlink:href="#m72459a0306" x="256.217727" y="71.169599" style="fill: #ff7f0e; stroke: #ff7f0e"/>
     <use xlink:href="#m72459a0306" x="258.500455" y="69.652983" style="fill: #ff7f0e; stroke: #ff7f0e"/>
     <use xlink:href="#m72459a0306" x="260.783182" y="67.303389" style="fill: #ff7f0e; stroke: #ff7f0e"/>
     <use xlink:href="#m72459a0306" x="263.065909" y="60.917492" style="fill: #ff7f0e; stroke: #ff7f0e"/>
     <use xlink:href="#m72459a0306" x="265.348636" y="60.128982" style="fill: #ff7f0e; stroke: #ff7f0e"/>
     <use xlink:href="#m72459a0306" x="267.631364" y="59.538459" style="fill: #ff7f0e; stroke: #ff7f0e"/>
     <use xlink:href="#m72459a0306" x="269.914091" y="58.689933" style="fill: #ff7f0e; stroke: #ff7f0e"/>
     <use xlink:href="#m72459a0306" x="272.196818" y="57.418992" style="fill: #ff7f0e; stroke: #ff7f0e"/>
     <use xlink:href="#m72459a0306" x="274.479545" y="55.774412" style="fill: #ff7f0e; stroke: #ff7f0e"/>
     <use xlink:href="#m72459a0306" x="276.762273" y="54.079389" style="fill: #ff7f0e; stroke: #ff7f0e"/>
     <use xlink:href="#m72459a0306" x="279.045" y="53.019774" style="fill: #ff7f0e; stroke: #ff7f0e"/>
    </g>
   </g>
   <g id="patch_3">
    <path d="M 40.5 288.36 
L 40.5 38.88 
" style="fill: none; stroke: #000000; stroke-width: 0.8; stroke-linejoin: miter; stroke-linecap: square"/>
   </g>
   <g id="patch_4">
    <path d="M 291.6 288.36 
L 291.6 38.88 
" style="fill: none; stroke: #000000; stroke-width: 0.8; stroke-linejoin: miter; stroke-linecap: square"/>
   </g>
   <g id="patch_5">
    <path d="M 40.5 288.36 
L 291.6 288.36 
" style="fill: none; stroke: #000000; stroke-width: 0.8; stroke-linejoin: miter; stroke-linecap: square"/>
   </g>
   <g id="patch_6">
    <path d="M 40.5 38.88 
L 291.6 38.88 
" style="fill: none; stroke: #000000; stroke-width: 0.8; stroke-linejoin: miter; stroke-linecap: square"/>
   </g>
   <g id="legend_1">
    <g id="patch_7">
     <path d="M 49.5 63.558125 
L 122.415625 63.558125 
Q 124.415625 63.558125 124.415625 61.558125 
L 124.415625 47.88 
Q 124.415625 45.88 122.415625 45.88 
L 49.5 45.88 
Q 47.5 45.88 47.5 47.88 
L 47.5 61.558125 
Q 47.5 63.558125 49.5 63.558125 
z
" style="fill: #4d4d4d; opacity: 0.5; stroke: #4d4d4d; stroke-linejoin: miter"/>
    </g>
    <g id="patch_8">
     <path d="M 47.5 61.558125 
L 120.415625 61.558125 
Q 122.415625 61.558125 122.415625 59.558125 
L 122.415625 45.88 
Q 122.415625 43.88 120.415625 43.88 
L 47.5 43.88 
Q 45.5 43.88 45.5 45.88 
L 45.5 59.558125 
Q 45.5 61.558125 47.5 61.558125 
z
" style="fill: #ffffff; stroke: #cccccc; stroke-linejoin: miter"/>
    </g>
    <g id="line2d_26">
     <path d="M 49.5 51.978437 
L 59.5 51.978437 
L 69.5 51.978437 
" style="fill: none; stroke-dasharray: 3.7,1.6; stroke-dashoffset: 0; stroke: #1f77b4"/>
    </g>
    <g id="text_15">
     <!-- Test line -->
     <g transform="translate(77.5 55.478437) scale(0.1 -0.1)">
      <defs>
       <path id="DejaVuSans-54" d="M -19 4666 
L 3928 4666 
L 3928 4134 
L 2272 4134 
L 2272 0 
L 1638 0 
L 1638 4134 
L -19 4134 
L -19 4666 
z
" transform="scale(0.015625)"/>
       <path id="DejaVuSans-65" d="M 3597 1894 
L 3597 1613 
L 953 1613 
Q 991 1019 1311 708 
Q 1631 397 2203 397 
Q 2534 397 2845 478 
Q 3156 559 3463 722 
L 3463 178 
Q 3153 47 2828 -22 
Q 2503 -91 2169 -91 
Q 1331 -91 842 396 
Q 353 884 353 1716 
Q 353 2575 817 3079 
Q 1281 3584 2069 3584 
Q 2775 3584 3186 3129 
Q 3597 2675 3597 1894 
z
M 3022 2063 
Q 3016 2534 2758 2815 
Q 2500 3097 2075 3097 
Q 1594 3097 1305 2825 
Q 1016 2553 972 2059 
L 3022 2063 
z
" transform="scale(0.015625)"/>
       <path id="DejaVuSans-20" transform="scale(0.015625)"/>
       <path id="DejaVuSans-6c" d="M 603 4863 
L 1178 4863 
L 1178 0 
L 603 0 
L 603 4863 
z
" transform="scale(0.015625)"/>
      </defs>
      <use xlink:href="#DejaVuSans-54"/>
      <use xlink:href="#DejaVuSans-65" transform="translate(44.083984 0)"/>
      <use xlink:href="#DejaVuSans-73" transform="translate(105.607422 0)"/>
      <use xlink:href="#DejaVuSans-74" transform="translate(157.707031 0)"/>
      <use xlink:href="#DejaVuSans-20" transform="translate(196.916016 0)"/>
      <use xlink:href="#DejaVuSans-6c" transform="translate(228.703125 0)"/>
      <use xlink:href="#DejaVuSans-69" transform="translate(256.486328 0)"/>
      <use xlink:href="#DejaVuSans-6e" transform="translate(284.269531 0)"/>
      <use xlink:href="#DejaVuSans-65" transform="translate(347.648438 0)"/>
     </g>
    </g>
   </g>
  </g>
  <g id="text_16">
   <!-- Sample versus model CDF-plot -->
   <g transform="translate(69.409688 15.598125) scale(0.12 -0.12)">
    <defs>
     <path id="DejaVuSans-53" d="M 3425 4513 
L 3425 3897 
Q 3066 4069 2747 4153 
Q 2428 4238 2131 4238 
Q 1616 4238 1336 4038 
Q 1056 3838 1056 3469 
Q 1056 3159 1242 3001 
Q 1428 2844 1947 2747 
L 2328 2669 
Q 3034 2534 3370 2195 
Q 3706 1856 3706 1288 
Q 3706 609 3251 259 
Q 2797 -91 1919 -91 
Q 1588 -91 1214 -16 
Q 841 59 441 206 
L 441 856 
Q 825 641 1194 531 
Q 1563 422 1919 422 
Q 2459 422 2753 634 
Q 3047 847 3047 1241 
Q 3047 1584 2836 1778 
Q 2625 1972 2144 2069 
L 1759 2144 
Q 1053 2284 737 2584 
Q 422 2884 422 3419 
Q 422 4038 858 4394 
Q 1294 4750 2059 4750 
Q 2388 4750 2728 4690 
Q 3069 4631 3425 4513 
z
" transform="scale(0.015625)"/>
     <path id="DejaVuSans-61" d="M 2194 1759 
Q 1497 1759 1228 1600 
Q 959 1441 959 1056 
Q 959 750 1161 570 
Q 1363 391 1709 391 
Q 2188 391 2477 730 
Q 2766 1069 2766 1631 
L 2766 1759 
L 2194 1759 
z
M 3341 1997 
L 3341 0 
L 2766 0 
L 2766 531 
Q 2569 213 2275 61 
Q 1981 -91 1556 -91 
Q 1019 -91 701 211 
Q 384 513 384 1019 
Q 384 1609 779 1909 
Q 1175 2209 1959 2209 
L 2766 2209 
L 2766 2266 
Q 2766 2663 2505 2880 
Q 2244 3097 1772 3097 
Q 1472 3097 1187 3025 
Q 903 2953 641 2809 
L 641 3341 
Q 956 3463 1253 3523 
Q 1550 3584 1831 3584 
Q 2591 3584 2966 3190 
Q 3341 2797 3341 1997 
z
" transform="scale(0.015625)"/>
     <path id="DejaVuSans-6d" d="M 3328 2828 
Q 3544 3216 3844 3400 
Q 4144 3584 4550 3584 
Q 5097 3584 5394 3201 
Q 5691 2819 5691 2113 
L 5691 0 
L 5113 0 
L 5113 2094 
Q 5113 2597 4934 2840 
Q 4756 3084 4391 3084 
Q 3944 3084 3684 2787 
Q 3425 2491 3425 1978 
L 3425 0 
L 2847 0 
L 2847 2094 
Q 2847 2600 2669 2842 
Q 2491 3084 2119 3084 
Q 1678 3084 1418 2786 
Q 1159 2488 1159 1978 
L 1159 0 
L 581 0 
L 581 3500 
L 1159 3500 
L 1159 2956 
Q 1356 3278 1631 3431 
Q 1906 3584 2284 3584 
Q 2666 3584 2933 3390 
Q 3200 3197 3328 2828 
z
" transform="scale(0.015625)"/>
     <path id="DejaVuSans-70" d="M 1159 525 
L 1159 -1331 
L 581 -1331 
L 581 3500 
L 1159 3500 
L 1159 2969 
Q 1341 3281 1617 3432 
Q 1894 3584 2278 3584 
Q 2916 3584 3314 3078 
Q 3713 2572 3713 1747 
Q 3713 922 3314 415 
Q 2916 -91 2278 -91 
Q 1894 -91 1617 61 
Q 1341 213 1159 525 
z
M 3116 1747 
Q 3116 2381 2855 2742 
Q 2594 3103 2138 3103 
Q 1681 3103 1420 2742 
Q 1159 2381 1159 1747 
Q 1159 1113 1420 752 
Q 1681 391 2138 391 
Q 2594 391 2855 752 
Q 3116 1113 3116 1747 
z
" transform="scale(0.015625)"/>
     <path id="DejaVuSans-76" d="M 191 3500 
L 800 3500 
L 1894 563 
L 2988 3500 
L 3597 3500 
L 2284 0 
L 1503 0 
L 191 3500 
z
" transform="scale(0.015625)"/>
     <path id="DejaVuSans-64" d="M 2906 2969 
L 2906 4863 
L 3481 4863 
L 3481 0 
L 2906 0 
L 2906 525 
Q 2725 213 2448 61 
Q 2172 -91 1784 -91 
Q 1150 -91 751 415 
Q 353 922 353 1747 
Q 353 2572 751 3078 
Q 1150 3584 1784 3584 
Q 2172 3584 2448 3432 
Q 2725 3281 2906 2969 
z
M 947 1747 
Q 947 1113 1208 752 
Q 1469 391 1925 391 
Q 2381 391 2643 752 
Q 2906 1113 2906 1747 
Q 2906 2381 2643 2742 
Q 2381 3103 1925 3103 
Q 1469 3103 1208 2742 
Q 947 2381 947 1747 
z
" transform="scale(0.015625)"/>
     <path id="DejaVuSans-43" d="M 4122 4306 
L 4122 3641 
Q 3803 3938 3442 4084 
Q 3081 4231 2675 4231 
Q 1875 4231 1450 3742 
Q 1025 3253 1025 2328 
Q 1025 1406 1450 917 
Q 1875 428 2675 428 
Q 3081 428 3442 575 
Q 3803 722 4122 1019 
L 4122 359 
Q 3791 134 3420 21 
Q 3050 -91 2638 -91 
Q 1578 -91 968 557 
Q 359 1206 359 2328 
Q 359 3453 968 4101 
Q 1578 4750 2638 4750 
Q 3056 4750 3426 4639 
Q 3797 4528 4122 4306 
z
" transform="scale(0.015625)"/>
     <path id="DejaVuSans-46" d="M 628 4666 
L 3309 4666 
L 3309 4134 
L 1259 4134 
L 1259 2759 
L 3109 2759 
L 3109 2228 
L 1259 2228 
L 1259 0 
L 628 0 
L 628 4666 
z
" transform="scale(0.015625)"/>
     <path id="DejaVuSans-2d" d="M 313 2009 
L 1997 2009 
L 1997 1497 
L 313 1497 
L 313 2009 
z
" transform="scale(0.015625)"/>
    </defs>
    <use xlink:href="#DejaVuSans-53"/>
    <use xlink:href="#DejaVuSans-61" transform="translate(63.476562 0)"/>
    <use xlink:href="#DejaVuSans-6d" transform="translate(124.755859 0)"/>
    <use xlink:href="#DejaVuSans-70" transform="translate(222.167969 0)"/>
    <use xlink:href="#DejaVuSans-6c" transform="translate(285.644531 0)"/>
    <use xlink:href="#DejaVuSans-65" transform="translate(313.427734 0)"/>
    <use xlink:href="#DejaVuSans-20" transform="translate(374.951172 0)"/>
    <use xlink:href="#DejaVuSans-76" transform="translate(406.738281 0)"/>
    <use xlink:href="#DejaVuSans-65" transform="translate(465.917969 0)"/>
    <use xlink:href="#DejaVuSans-72" transform="translate(527.441406 0)"/>
    <use xlink:href="#DejaVuSans-73" transform="translate(568.554688 0)"/>
    <use xlink:href="#DejaVuSans-75" transform="translate(620.654297 0)"/>
    <use xlink:href="#DejaVuSans-73" transform="translate(684.033203 0)"/>
    <use xlink:href="#DejaVuSans-20" transform="translate(736.132812 0)"/>
    <use xlink:href="#DejaVuSans-6d" transform="translate(767.919922 0)"/>
    <use xlink:href="#DejaVuSans-6f" transform="translate(865.332031 0)"/>
    <use xlink:href="#DejaVuSans-64" transform="translate(926.513672 0)"/>
    <use xlink:href="#DejaVuSans-65" transform="translate(989.990234 0)"/>
    <use xlink:href="#DejaVuSans-6c" transform="translate(1051.513672 0)"/>
    <use xlink:href="#DejaVuSans-20" transform="translate(1079.296875 0)"/>
    <use xlink:href="#DejaVuSans-43" transform="translate(1111.083984 0)"/>
    <use xlink:href="#DejaVuSans-44" transform="translate(1180.908203 0)"/>
    <use xlink:href="#DejaVuSans-46" transform="translate(1257.910156 0)"/>
    <use xlink:href="#DejaVuSans-2d" transform="translate(1315.429688 0)"/>
    <use xlink:href="#DejaVuSans-70" transform="translate(1351.513672 0)"/>
    <use xlink:href="#DejaVuSans-6c" transform="translate(1414.990234 0)"/>
    <use xlink:href="#DejaVuSans-6f" transform="translate(1442.773438 0)"/>
    <use xlink:href="#DejaVuSans-74" transform="translate(1503.955078 0)"/>
   </g>
  </g>
 </g>
 <defs>
  <clipPath id="pf52fcb7b3c">
   <rect x="40.5" y="38.88" width="251.1" height="249.48"/>
  </clipPath>
 </defs>
</svg>
