<?xml version="1.0" encoding="utf-8" standalone="no"?>
<!DOCTYPE svg PUBLIC "-//W3C//DTD SVG 1.1//EN"
  "http://www.w3.org/Graphics/SVG/1.1/DTD/svg11.dtd">
<svg xmlns:xlink="http://www.w3.org/1999/xlink" width="432pt" height="288pt" viewBox="0 0 432 288" xmlns="http://www.w3.org/2000/svg" version="1.1">
 <metadata>
  <rdf:RDF xmlns:dc="http://purl.org/dc/elements/1.1/" xmlns:cc="http://creativecommons.org/ns#" xmlns:rdf="http://www.w3.org/1999/02/22-rdf-syntax-ns#">
   <cc:Work>
    <dc:type rdf:resource="http://purl.org/dc/dcmitype/StillImage"/>
    <dc:date>2022-01-01T00:00:00+00:00</dc:date>
    <dc:format>image/svg+xml</dc:format>
    <dc:creator>
     <cc:Agent>
      <dc:title>Matplotlib v3.10.8, https://matplotlib.org/</dc:title>
     </cc:Agent>
    </dc:creator>
   </cc:Work>
  </rdf:RDF>
 </metadata>
 <defs>
  <style type="text/css">*{stroke-linejoin: round; stroke-linecap: butt}</style>
 </defs>
 <g id="figure_1">
  <g id="patch_1">
   <path d="M 0 288 
L 432 288 
L 432 0 
L 0 0 
z
" style="fill: #ffffff"/>
  </g>
  <g id="axes_1">
   <g id="patch_2">
    <path d="M 54 256.32 
L 388.8 256.32 
L 388.8 34.56 
L 54 34.56 
z
" style="fill: #ffffff"/>
   </g>
   <g id="matplotlib.axis_1">
    <g id="xtick_1">
     <g id="line2d_1">
      <path d="M 69.218182 256.32 
L 69.218182 34.56 
" clip-path="url(#p1773d94a60)" style="fill: none; stroke: #b0b0b0; stroke-width: 0.8; stroke-linecap: square"/>
     </g>
     <g id="line2d_2">
      <defs>
       <path id="mcf799a6c70" d="M 0 0 
L 0 3.5 
" style="stroke: #000000; stroke-width: 0.8"/>
      </defs>
      <g>
       <use xlink:href="#mcf799a6c70" x="69.218182" y="256.32" style="stroke: #000000; stroke-width: 0.8"/>
      </g>
     </g>
     <g id="text_1">
      <!-- −1.00 -->
      <g transform="translate(53.895526 270.918437) scale(0.1 -0.1)">
       <defs>
        <path id="DejaVuSans-2212" d="M 678 2272 
L 4684 2272 
L 4684 1741 
L 678 1741 
L 678 2272 
z
" transform="scale(0.015625)"/>
        <path id="DejaVuSans-31" d="M 794 531 
L 1825 531 
L 1825 4091 
L 703 3866 
L 703 4441 
L 1819 4666 
L 2450 4666 
L 2450 531 
L 3481 531 
L 3481 0 
L 794 0 
L 794 531 
z
" transform="scale(0.015625)"/>
        <path id="DejaVuSans-2e" d="M 684 794 
L 1344 794 
L 1344 0 
L 684 0 
L 684 794 
z
" transform="scale(0.015625)"/>
        <path id="DejaVuSans-30" d="M 2034 4250 
Q 1547 4250 1301 3770 
Q 1056 3291 1056 2328 
Q 1056 1369 1301 889 
Q 1547 409 2034 409 
Q 2525 409 2770 889 
Q 3016 1369 3016 2328 
Q 3016 3291 2770 3770 
Q 2525 4250 2034 4250 
z
M 2034 4750 
Q 2819 4750 3233 4129 
Q 3647 3509 3647 2328 
Q 3647 1150 3233 529 
Q 2819 -91 2034 -91 
Q 1250 -91 836 529 
Q 422 1150 422 2328 
Q 422 3509 836 4129 
Q 1250 4750 2034 4750 
z
" transform="scale(0.015625)"/>
       </defs>
       <use xlink:href="#DejaVuSans-2212"/>
       <use xlink:href="#DejaVuSans-31" transform="translate(83.789062 0)"/>
       <use xlink:href="#DejaVuSans-2e" transform="translate(147.412109 0)"/>
       <use xlink:href="#DejaVuSans-30" transform="translate(179.199219 0)"/>
       <use xlink:href="#DejaVuSans-30" transform="translate(242.822266 0)"/>
      </g>
     </g>
    </g>
    <g id="xtick_2">
     <g id="line2d_3">
      <path d="M 107.263636 256.32 
L 107.263636 34.56 
" clip-path="url(#p1773d94a60)" style="fill: none; stroke: #b0b0b0; stroke-width: 0.8; stroke-linecap: square"/>
     </g>
     <g id="line2d_4">
      <g>
       <use xlink:href="#mcf799a6c70" x="107.263636" y="256.32" style="stroke: #000000; stroke-width: 0.8"/>
      </g>
     </g>
     <g id="text_2">
      <!-- −0.75 -->
      <g transform="translate(91.94098 270.918437) scale(0.1 -0.1)">
       <defs>
        <path id="DejaVuSans-37" d="M 525 4666 
L 3525 4666 
L 3525 4397 
L 1831 0 
L 1172 0 
L 2766 4134 
L 525 4134 
L 525 4666 
z
" transform="scale(0.015625)"/>
        <path id="DejaVuSans-35" d="M 691 4666 
L 3169 4666 
L 3169 4134 
L 1269 4134 
L 1269 2991 
Q 1406 3038 1543 3061 
Q 1681 3084 1819 3084 
Q 2600 3084 3056 2656 
Q 3513 2228 3513 1497 
Q 3513 744 3044 326 
Q 2575 -91 1722 -91 
Q 1428 -91 1123 -41 
Q 819 9 494 109 
L 494 744 
Q 775 591 1075 516 
Q 1375 441 1709 441 
Q 2250 441 2565 725 
Q 2881 1009 2881 1497 
Q 2881 1984 2565 2268 
Q 2250 2553 1709 2553 
Q 1456 2553 1204 2497 
Q 953 2441 691 2322 
L 691 4666 
z
" transform="scale(0.015625)"/>
       </defs>
       <use xlink:href="#DejaVuSans-2212"/>
       <use xlink:href="#DejaVuSans-30" transform="translate(83.789062 0)"/>
       <use xlink:href="#DejaVuSans-2e" transform="translate(147.412109 0)"/>
       <use xlink:href="#DejaVuSans-37" transform="translate(179.199219 0)"/>
       <use xlink:href="#DejaVuSans-35" transform="translate(242.822266 0)"/>
      </g>
     </g>
    </g>
    <g id="xtick_3">
     <g id="line2d_5">
      <path d="M 145.309091 256.32 
L 145.309091 34.56 
" clip-path="url(#p1773d94a60)" style="fill: none; stroke: #b0b0b0; stroke-width: 0.8; stroke-linecap: square"/>
     </g>
     <g id="line2d_6">
      <g>
       <use xlink:href="#mcf799a6c70" x="145.309091" y="256.32" style="stroke: #000000; stroke-width: 0.8"/>
      </g>
     </g>
     <g id="text_3">
      <!-- −0.50 -->
      <g transform="translate(129.986435 270.918437) scale(0.1 -0.1)">
       <use xlink:href="#DejaVuSans-2212"/>
       <use xlink:href="#DejaVuSans-30" transform="translate(83.789062 0)"/>
       <use xlink:href="#DejaVuSans-2e" transform="translate(147.412109 0)"/>
       <use xlink:href="#DejaVuSans-35" transform="translate(179.199219 0)"/>
       <use xlink:href="#DejaVuSans-30" transform="translate(242.822266 0)"/>
      </g>
     </g>
    </g>
    <g id="xtick_4">
     <g id="line2d_7">
      <path d="M 183.354545 256.32 
L 183.354545 34.56 
" clip-path="url(#p1773d94a60)" style="fill: none; stroke: #b0b0b0; stroke-width: 0.8; stroke-linecap: square"/>
     </g>
     <g id="line2d_8">
      <g>
       <use xlink:href="#mcf799a6c70" x="183.354545" y="256.32" style="stroke: #000000; stroke-width: 0.8"/>
      </g>
     </g>
     <g id="text_4">
      <!-- −0.25 -->
      <g transform="translate(168.031889 270.918437) scale(0.1 -0.1)">
       <defs>
        <path id="DejaVuSans-32" d="M 1228 531 
L 3431 531 
L 3431 0 
L 469 0 
L 469 531 
Q 828 903 1448 1529 
Q 2069 2156 2228 2338 
Q 2531 2678 2651 2914 
Q 2772 3150 2772 3378 
Q 2772 3750 2511 3984 
Q 2250 4219 1831 4219 
Q 1534 4219 1204 4116 
Q 875 4013 500 3803 
L 500 4441 
Q 881 4594 1212 4672 
Q 1544 4750 1819 4750 
Q 2544 4750 2975 4387 
Q 3406 4025 3406 3419 
Q 3406 3131 3298 2873 
Q 3191 2616 2906 2266 
Q 2828 2175 2409 1742 
Q 1991 1309 1228 531 
z
" transform="scale(0.015625)"/>
       </defs>
       <use xlink:href="#DejaVuSans-2212"/>
       <use xlink:href="#DejaVuSans-30" transform="translate(83.789062 0)"/>
       <use xlink:href="#DejaVuSans-2e" transform="translate(147.412109 0)"/>
       <use xlink:href="#DejaVuSans-32" transform="translate(179.199219 0)"/>
       <use xlink:href="#DejaVuSans-35" transform="translate(242.822266 0)"/>
      </g>
     </g>
    </g>
    <g id="xtick_5">
     <g id="line2d_9">
      <path d="M 221.4 256.32 
L 221.4 34.56 
" clip-path="url(#p1773d94a60)" style="fill: none; stroke: #b0b0b0; stroke-width: 0.8; stroke-linecap: square"/>
     </g>
     <g id="line2d_10">
      <g>
       <use xlink:href="#mcf799a6c70" x="221.4" y="256.32" style="stroke: #000000; stroke-width: 0.8"/>
      </g>
     </g>
     <g id="text_5">
      <!-- 0.00 -->
      <g transform="translate(210.267188 270.918437) scale(0.1 -0.1)">
       <use xlink:href="#DejaVuSans-30"/>
       <use xlink:href="#DejaVuSans-2e" transform="translate(63.623047 0)"/>
       <use xlink:href="#DejaVuSans-30" transform="translate(95.410156 0)"/>
       <use xlink:href="#DejaVuSans-30" transform="translate(159.033203 0)"/>
      </g>
     </g>
    </g>
    <g id="xtick_6">
     <g id="line2d_11">
      <path d="M 259.445455 256.32 
L 259.445455 34.56 
" clip-path="url(#p1773d94a60)" style="fill: none; stroke: #b0b0b0; stroke-width: 0.8; stroke-linecap: square"/>
     </g>
     <g id="line2d_12">
      <g>
       <use xlink:href="#mcf799a6c70" x="259.445455" y="256.32" style="stroke: #000000; stroke-width: 0.8"/>
      </g>
     </g>
     <g id="text_6">
      <!-- 0.25 -->
      <g transform="translate(248.312642 270.918437) scale(0.1 -0.1)">
       <use xlink:href="#DejaVuSans-30"/>
       <use xlink:href="#DejaVuSans-2e" transform="translate(63.623047 0)"/>
       <use xlink:href="#DejaVuSans-32" transform="translate(95.410156 0)"/>
       <use xlink:href="#DejaVuSans-35" transform="translate(159.033203 0)"/>
      </g>
     </g>
    </g>
    <g id="xtick_7">
     <g id="line2d_13">
      <path d="M 297.490909 256.32 
L 297.490909 34.56 
" clip-path="url(#p1773d94a60)" style="fill: none; stroke: #b0b0b0; stroke-width: 0.8; stroke-linecap: square"/>
     </g>
     <g id="line2d_14">
      <g>
       <use xlink:href="#mcf799a6c70" x="297.490909" y="256.32" style="stroke: #000000; stroke-width: 0.8"/>
      </g>
     </g>
     <g id="text_7">
      <!-- 0.50 -->
      <g transform="translate(286.358097 270.918437) scale(0.1 -0.1)">
       <use xlink:href="#DejaVuSans-30"/>
       <use xlink:href="#DejaVuSans-2e" transform="translate(63.623047 0)"/>
       <use xlink:href="#DejaVuSans-35" transform="translate(95.410156 0)"/>
       <use xlink:href="#DejaVuSans-30" transform="translate(159.033203 0)"/>
      </g>
     </g>
    </g>
    <g id="xtick_8">
     <g id="line2d_15">
      <path d="M 335.536364 256.32 
L 335.536364 34.56 
" clip-path="url(#p1773d94a60)" style="fill: none; stroke: #b0b0b0; stroke-width: 0.8; stroke-linecap: square"/>
     </g>
     <g id="line2d_16">
      <g>
       <use xlink:href="#mcf799a6c70" x="335.536364" y="256.32" style="stroke: #000000; stroke-width: 0.8"/>
      </g>
     </g>
     <g id="text_8">
      <!-- 0.75 -->
      <g transform="translate(324.403551 270.918437) scale(0.1 -0.1)">
       <use xlink:href="#DejaVuSans-30"/>
       <use xlink:href="#DejaVuSans-2e" transform="translate(63.623047 0)"/>
       <use xlink:href="#DejaVuSans-37" transform="translate(95.410156 0)"/>
       <use xlink:href="#DejaVuSans-35" transform="translate(159.033203 0)"/>
      </g>
     </g>
    </g>
    <g id="xtick_9">
     <g id="line2d_17">
      <path d="M 373.581818 256.32 
L 373.581818 34.56 
" clip-path="url(#p1773d94a60)" style="fill: none; stroke: #b0b0b0; stroke-width: 0.8; stroke-linecap: square"/>
     </g>
     <g id="line2d_18">
      <g>
       <use xlink:href="#mcf799a6c70" x="373.581818" y="256.32" style="stroke: #000000; stroke-width: 0.8"/>
      </g>
     </g>
     <g id="text_9">
      <!-- 1.00 -->
      <g transform="translate(362.449006 270.918437) scale(0.1 -0.1)">
       <use xlink:href="#DejaVuSans-31"/>
       <use xlink:href="#DejaVuSans-2e" transform="translate(63.623047 0)"/>
       <use xlink:href="#DejaVuSans-30" transform="translate(95.410156 0)"/>
       <use xlink:href="#DejaVuSans-30" transform="translate(159.033203 0)"/>
      </g>
     </g>
    </g>
    <g id="text_10">
     <!-- $t$ -->
     <g transform="translate(219.4 284.596563) scale(0.1 -0.1)">
      <defs>
       <path id="DejaVuSans-Oblique-74" d="M 2706 3500 
L 2619 3053 
L 1472 3053 
L 1100 1153 
Q 1081 1047 1072 975 
Q 1063 903 1063 863 
Q 1063 663 1183 572 
Q 1303 481 1569 481 
L 2150 481 
L 2053 0 
L 1503 0 
Q 991 0 739 200 
Q 488 400 488 806 
Q 488 878 497 964 
Q 506 1050 525 1153 
L 897 3053 
L 409 3053 
L 500 3500 
L 978 3500 
L 1172 4494 
L 1747 4494 
L 1556 3500 
L 2706 3500 
z
" transform="scale(0.015625)"/>
      </defs>
      <use xlink:href="#DejaVuSans-Oblique-74" transform="translate(0 0.78125)"/>
     </g>
    </g>
   </g>
   <g id="matplotlib.axis_2">
    <g id="ytick_1">
     <g id="line2d_19">
      <path d="M 54 250.129198 
L 388.8 250.129198 
" clip-path="url(#p1773d94a60)" style="fill: none; stroke: #b0b0b0; stroke-width: 0.8; stroke-linecap: square"/>
     </g>
     <g id="line2d_20">
      <defs>
       <path id="m09c393a39f" d="M 0 0 
L -3.5 0 
" style="stroke: #000000; stroke-width: 0.8"/>
      </defs>
      <g>
       <use xlink:href="#m09c393a39f" x="54" y="250.129198" style="stroke: #000000; stroke-width: 0.8"/>
      </g>
     </g>
     <g id="text_11">
      <!-- −0.6 -->
      <g transform="translate(22.717187 253.928417) scale(0.1 -0.1)">
       <defs>
        <path id="DejaVuSans-36" d="M 2113 2584 
Q 1688 2584 1439 2293 
Q 1191 2003 1191 1497 
Q 1191 994 1439 701 
Q 1688 409 2113 409 
Q 2538 409 2786 701 
Q 3034 994 3034 1497 
Q 3034 2003 2786 2293 
Q 2538 2584 2113 2584 
z
M 3366 4563 
L 3366 3988 
Q 3128 4100 2886 4159 
Q 2644 4219 2406 4219 
Q 1781 4219 1451 3797 
Q 1122 3375 1075 2522 
Q 1259 2794 1537 2939 
Q 1816 3084 2150 3084 
Q 2853 3084 3261 2657 
Q 3669 2231 3669 1497 
Q 3669 778 3244 343 
Q 2819 -91 2113 -91 
Q 1303 -91 875 529 
Q 447 1150 447 2328 
Q 447 3434 972 4092 
Q 1497 4750 2381 4750 
Q 2619 4750 2861 4703 
Q 3103 4656 3366 4563 
z
" transform="scale(0.015625)"/>
       </defs>
       <use xlink:href="#DejaVuSans-2212"/>
       <use xlink:href="#DejaVuSans-30" transform="translate(83.789062 0)"/>
       <use xlink:href="#DejaVuSans-2e" transform="translate(147.412109 0)"/>
       <use xlink:href="#DejaVuSans-36" transform="translate(179.199219 0)"/>
      </g>
     </g>
    </g>
    <g id="ytick_2">
     <g id="line2d_21">
      <path d="M 54 221.908686 
L 388.8 221.908686 
" clip-path="url(#p1773d94a60)" style="fill: none; stroke: #b0b0b0; stroke-width: 0.8; stroke-linecap: square"/>
     </g>
     <g id="line2d_22">
      <g>
       <use xlink:href="#m09c393a39f" x="54" y="221.908686" style="stroke: #000000; stroke-width: 0.8"/>
      </g>
     </g>
     <g id="text_12">
      <!-- −0.4 -->
      <g transform="translate(22.717187 225.707904) scale(0.1 -0.1)">
       <defs>
        <path id="DejaVuSans-34" d="M 2419 4116 
L 825 1625 
L 2419 1625 
L 2419 4116 
z
M 2253 4666 
L 3047 4666 
L 3047 1625 
L 3713 1625 
L 3713 1100 
L 3047 1100 
L 3047 0 
L 2419 0 
L 2419 1100 
L 313 1100 
L 313 1709 
L 2253 4666 
z
" transform="scale(0.015625)"/>
       </defs>
       <use xlink:href="#DejaVuSans-2212"/>
       <use xlink:href="#DejaVuSans-30" transform="translate(83.789062 0)"/>
       <use xlink:href="#DejaVuSans-2e" transform="translate(147.412109 0)"/>
       <use xlink:href="#DejaVuSans-34" transform="translate(179.199219 0)"/>
      </g>
     </g>
    </g>
    <g id="ytick_3">
     <g id="line2d_23">
      <path d="M 54 193.688173 
L 388.8 193.688173 
" clip-path="url(#p1773d94a60)" style="fill: none; stroke: #b0b0b0; stroke-width: 0.8; stroke-linecap: square"/>
     </g>
     <g id="line2d_24">
      <g>
       <use xlink:href="#m09c393a39f" x="54" y="193.688173" style="stroke: #000000; stroke-width: 0.8"/>
      </g>
     </g>
     <g id="text_13">
      <!-- −0.2 -->
      <g transform="translate(22.717187 197.487392) scale(0.1 -0.1)">
       <use xlink:href="#DejaVuSans-2212"/>
       <use xlink:href="#DejaVuSans-30" transform="translate(83.789062 0)"/>
       <use xlink:href="#DejaVuSans-2e" transform="translate(147.412109 0)"/>
       <use xlink:href="#DejaVuSans-32" transform="translate(179.199219 0)"/>
      </g>
     </g>
    </g>
    <g id="ytick_4">
     <g id="line2d_25">
      <path d="M 54 165.467661 
L 388.8 165.467661 
" clip-path="url(#p1773d94a60)" style="fill: none; stroke: #b0b0b0; stroke-width: 0.8; stroke-linecap: square"/>
     </g>
     <g id="line2d_26">
      <g>
       <use xlink:href="#m09c393a39f" x="54" y="165.467661" style="stroke: #000000; stroke-width: 0.8"/>
      </g>
     </g>
     <g id="text_14">
      <!-- 0.0 -->
      <g transform="translate(31.096875 169.26688) scale(0.1 -0.1)">
       <use xlink:href="#DejaVuSans-30"/>
       <use xlink:href="#DejaVuSans-2e" transform="translate(63.623047 0)"/>
       <use xlink:href="#DejaVuSans-30" transform="translate(95.410156 0)"/>
      </g>
     </g>
    </g>
    <g id="ytick_5">
     <g id="line2d_27">
      <path d="M 54 137.247149 
L 388.8 137.247149 
" clip-path="url(#p1773d94a60)" style="fill: none; stroke: #b0b0b0; stroke-width: 0.8; stroke-linecap: square"/>
     </g>
     <g id="line2d_28">
      <g>
       <use xlink:href="#m09c393a39f" x="54" y="137.247149" style="stroke: #000000; stroke-width: 0.8"/>
      </g>
     </g>
     <g id="text_15">
      <!-- 0.2 -->
      <g transform="translate(31.096875 141.046368) scale(0.1 -0.1)">
       <use xlink:href="#DejaVuSans-30"/>
       <use xlink:href="#DejaVuSans-2e" transform="translate(63.623047 0)"/>
       <use xlink:href="#DejaVuSans-32" transform="translate(95.410156 0)"/>
      </g>
     </g>
    </g>
    <g id="ytick_6">
     <g id="line2d_29">
      <path d="M 54 109.026636 
L 388.8 109.026636 
" clip-path="url(#p1773d94a60)" style="fill: none; stroke: #b0b0b0; stroke-width: 0.8; stroke-linecap: square"/>
     </g>
     <g id="line2d_30">
      <g>
       <use xlink:href="#m09c393a39f" x="54" y="109.026636" style="stroke: #000000; stroke-width: 0.8"/>
      </g>
     </g>
     <g id="text_16">
      <!-- 0.4 -->
      <g transform="translate(31.096875 112.825855) scale(0.1 -0.1)">
       <use xlink:href="#DejaVuSans-30"/>
       <use xlink:href="#DejaVuSans-2e" transform="translate(63.623047 0)"/>
       <use xlink:href="#DejaVuSans-34" transform="translate(95.410156 0)"/>
      </g>
     </g>
    </g>
    <g id="ytick_7">
     <g id="line2d_31">
      <path d="M 54 80.806124 
L 388.8 80.806124 
" clip-path="url(#p1773d94a60)" style="fill: none; stroke: #b0b0b0; stroke-width: 0.8; stroke-linecap: square"/>
     </g>
     <g id="line2d_32">
      <g>
       <use xlink:href="#m09c393a39f" x="54" y="80.806124" style="stroke: #000000; stroke-width: 0.8"/>
      </g>
     </g>
     <g id="text_17">
      <!-- 0.6 -->
      <g transform="translate(31.096875 84.605343) scale(0.1 -0.1)">
       <use xlink:href="#DejaVuSans-30"/>
       <use xlink:href="#DejaVuSans-2e" transform="translate(63.623047 0)"/>
       <use xlink:href="#DejaVuSans-36" transform="translate(95.410156 0)"/>
      </g>
     </g>
    </g>
    <g id="ytick_8">
     <g id="line2d_33">
      <path d="M 54 52.585612 
L 388.8 52.585612 
" clip-path="url(#p1773d94a60)" style="fill: none; stroke: #b0b0b0; stroke-width: 0.8; stroke-linecap: square"/>
     </g>
     <g id="line2d_34">
      <g>
       <use xlink:href="#m09c393a39f" x="54" y="52.585612" style="stroke: #000000; stroke-width: 0.8"/>
      </g>
     </g>
     <g id="text_18">
      <!-- 0.8 -->
      <g transform="translate(31.096875 56.384831) scale(0.1 -0.1)">
       <defs>
        <path id="DejaVuSans-38" d="M 2034 2216 
Q 1584 2216 1326 1975 
Q 1069 1734 1069 1313 
Q 1069 891 1326 650 
Q 1584 409 2034 409 
Q 2484 409 2743 651 
Q 3003 894 3003 1313 
Q 3003 1734 2745 1975 
Q 2488 2216 2034 2216 
z
M 1403 2484 
Q 997 2584 770 2862 
Q 544 3141 544 3541 
Q 544 4100 942 4425 
Q 1341 4750 2034 4750 
Q 2731 4750 3128 4425 
Q 3525 4100 3525 3541 
Q 3525 3141 3298 2862 
Q 3072 2584 2669 2484 
Q 3125 2378 3379 2068 
Q 3634 1759 3634 1313 
Q 3634 634 3220 271 
Q 2806 -91 2034 -91 
Q 1263 -91 848 271 
Q 434 634 434 1313 
Q 434 1759 690 2068 
Q 947 2378 1403 2484 
z
M 1172 3481 
Q 1172 3119 1398 2916 
Q 1625 2713 2034 2713 
Q 2441 2713 2670 2916 
Q 2900 3119 2900 3481 
Q 2900 3844 2670 4047 
Q 2441 4250 2034 4250 
Q 1625 4250 1398 4047 
Q 1172 3844 1172 3481 
z
" transform="scale(0.015625)"/>
       </defs>
       <use xlink:href="#DejaVuSans-30"/>
       <use xlink:href="#DejaVuSans-2e" transform="translate(63.623047 0)"/>
       <use xlink:href="#DejaVuSans-38" transform="translate(95.410156 0)"/>
      </g>
     </g>
    </g>
    <g id="text_19">
     <!-- $\sqrt{\lambda_n}\phi_n$ -->
     <g transform="translate(16.617187 161.24) rotate(-90) scale(0.1 -0.1)">
      <defs>
       <path id="STIXSizeOneSym-Regular-221a" d="M 6970 9933 
L 3373 -1888 
L 3104 -1888 
L 1626 2918 
Q 1555 3149 1465 3251 
Q 1376 3354 1229 3354 
Q 1011 3354 794 3181 
L 717 3309 
L 1766 4115 
L 1926 4115 
L 3379 -602 
L 3405 -602 
L 6605 9933 
L 6970 9933 
z
" transform="scale(0.015625)"/>
       <path id="DejaVuSans-Oblique-3bb" d="M 2350 4316 
L 3125 0 
L 2516 0 
L 2038 2588 
L 328 0 
L -281 0 
L 1903 3356 
L 1794 3975 
Q 1725 4369 1391 4369 
L 1091 4369 
L 1184 4863 
L 1550 4856 
Q 2253 4847 2350 4316 
z
" transform="scale(0.015625)"/>
       <path id="DejaVuSans-Oblique-6e" d="M 3566 2113 
L 3156 0 
L 2578 0 
L 2988 2091 
Q 3016 2238 3031 2350 
Q 3047 2463 3047 2528 
Q 3047 2791 2881 2937 
Q 2716 3084 2419 3084 
Q 1956 3084 1622 2776 
Q 1288 2469 1184 1941 
L 800 0 
L 225 0 
L 903 3500 
L 1478 3500 
L 1363 2950 
Q 1603 3253 1940 3418 
Q 2278 3584 2650 3584 
Q 3113 3584 3367 3334 
Q 3622 3084 3622 2631 
Q 3622 2519 3608 2391 
Q 3594 2263 3566 2113 
z
" transform="scale(0.015625)"/>
       <path id="DejaVuSans-Oblique-3d5" d="M 2991 4863 
L 2738 3572 
Q 3363 3572 3684 3094 
Q 4016 2606 3850 1747 
Q 3681 888 3159 400 
Q 2653 -78 2028 -78 
L 1784 -1331 
L 1213 -1331 
L 1456 -78 
Q 834 -78 509 400 
Q 178 888 347 1747 
Q 513 2606 1034 3094 
Q 1544 3572 2166 3572 
L 2419 4863 
L 2991 4863 
z
M 2128 434 
Q 2481 434 2784 756 
Q 3116 1116 3244 1747 
Q 3369 2372 3169 2738 
Q 2991 3059 2638 3059 
L 2128 434 
z
M 1556 434 
L 2066 3059 
Q 1716 3059 1413 2738 
Q 1072 2372 953 1747 
Q 834 1116 1028 756 
Q 1203 434 1556 434 
z
" transform="scale(0.015625)"/>
      </defs>
      <use xlink:href="#STIXSizeOneSym-Regular-221a" transform="translate(0 4.109375) scale(0.669402)"/>
      <use xlink:href="#DejaVuSans-Oblique-3bb" transform="translate(83.252945 0.765625)"/>
      <use xlink:href="#DejaVuSans-Oblique-6e" transform="translate(142.432632 -15.640625) scale(0.7)"/>
      <use xlink:href="#DejaVuSans-Oblique-3d5" transform="translate(202.032242 0.765625)"/>
      <use xlink:href="#DejaVuSans-Oblique-6e" transform="translate(267.999039 -15.640625) scale(0.7)"/>
      <path d="M 70.752945 101.5 
L 70.752945 107.75 
L 202.032242 107.75 
L 202.032242 101.5 
L 70.752945 101.5 
z
"/>
     </g>
    </g>
   </g>
   <g id="line2d_35">
    <path d="M 69.218182 86.967934 
L 78.766845 82.124219 
L 88.315508 77.520485 
L 97.864171 73.170909 
L 107.412834 69.08889 
L 115.767914 65.746523 
L 124.122995 62.626563 
L 132.478075 59.7364 
L 140.833155 57.082888 
L 149.188235 54.672329 
L 157.543316 52.510455 
L 165.898396 50.60241 
L 174.253476 48.952741 
L 181.414973 47.747381 
L 188.576471 46.736859 
L 195.737968 45.922945 
L 202.899465 45.307066 
L 210.060963 44.890302 
L 217.22246 44.673384 
L 224.383957 44.656693 
L 231.545455 44.840256 
L 238.706952 45.223754 
L 245.868449 45.806512 
L 253.029947 46.58751 
L 260.191444 47.565378 
L 267.352941 48.738403 
L 275.708021 50.350826 
L 284.063102 52.222224 
L 292.418182 54.348138 
L 300.773262 56.723508 
L 309.128342 59.342685 
L 317.483422 62.199448 
L 325.838503 65.28702 
L 334.193583 68.598086 
L 342.548663 72.124815 
L 352.097326 76.408727 
L 361.645989 80.95022 
L 371.194652 85.73531 
L 373.581818 86.967934 
L 373.581818 86.967934 
" clip-path="url(#p1773d94a60)" style="fill: none; stroke: #1f77b4; stroke-linecap: square"/>
   </g>
   <g id="line2d_36">
    <path d="M 69.218182 93.343291 
L 73.992513 91.181599 
L 78.766845 89.317938 
L 83.541176 87.760521 
L 87.121925 86.797666 
L 90.702674 86.013478 
L 94.283422 85.410009 
L 97.864171 84.988888 
L 101.44492 84.751322 
L 105.025668 84.69809 
L 108.606417 84.829538 
L 112.187166 85.145581 
L 115.767914 85.645699 
L 119.348663 86.32894 
L 122.929412 87.193919 
L 126.51016 88.238823 
L 130.090909 89.461412 
L 134.865241 91.363272 
L 139.639572 93.568787 
L 144.413904 96.069221 
L 149.188235 98.85459 
L 153.962567 101.913701 
L 158.736898 105.234197 
L 163.51123 108.802611 
L 168.285561 112.604418 
L 174.253476 117.661153 
L 180.22139 123.02591 
L 186.189305 128.664296 
L 193.350802 135.740431 
L 201.705882 144.340266 
L 212.448128 155.774256 
L 243.481283 189.084249 
L 251.836364 197.587592 
L 258.997861 204.556936 
L 264.965775 210.09012 
L 270.93369 215.335685 
L 276.901604 220.260035 
L 281.675936 223.947024 
L 286.450267 227.39323 
L 291.224599 230.584649 
L 295.99893 233.508362 
L 300.773262 236.152588 
L 305.547594 238.506734 
L 310.321925 240.561433 
L 315.096257 242.30859 
L 318.677005 243.412992 
L 322.257754 244.338168 
L 325.838503 245.082164 
L 329.419251 245.64345 
L 333 246.02093 
L 336.580749 246.213941 
L 340.161497 246.222252 
L 343.742246 246.046065 
L 347.322995 245.686016 
L 350.903743 245.143169 
L 354.484492 244.419014 
L 358.065241 243.515461 
L 361.645989 242.434838 
L 366.420321 240.72335 
L 371.194652 238.70957 
L 373.581818 237.592032 
L 373.581818 237.592032 
" clip-path="url(#p1773d94a60)" style="fill: none; stroke: #ff7f0e; stroke-linecap: square"/>
   </g>
   <g id="line2d_37">
    <path d="M 69.218182 114.106036 
L 72.79893 113.002882 
L 76.379679 112.234576 
L 78.766845 111.911511 
L 81.154011 111.741304 
L 83.541176 111.724786 
L 85.928342 111.862342 
L 88.315508 112.153909 
L 90.702674 112.598972 
L 94.283422 113.552141 
L 97.864171 114.843253 
L 101.44492 116.464903 
L 105.025668 118.407472 
L 108.606417 120.659173 
L 112.187166 123.206123 
L 115.767914 126.032426 
L 119.348663 129.120267 
L 122.929412 132.450027 
L 127.703743 137.228987 
L 132.478075 142.345292 
L 138.445989 149.124941 
L 145.607487 157.661178 
L 168.285561 185.077956 
L 174.253476 191.751988 
L 179.027807 196.757296 
L 183.802139 201.401032 
L 187.382888 204.613084 
L 190.963636 207.568955 
L 194.544385 210.248779 
L 198.125134 212.634531 
L 201.705882 214.710152 
L 205.286631 216.461661 
L 208.86738 217.877255 
L 212.448128 218.94739 
L 214.835294 219.465231 
L 217.22246 219.824725 
L 219.609626 220.024794 
L 221.996791 220.064837 
L 224.383957 219.944736 
L 226.771123 219.66485 
L 229.158289 219.226018 
L 231.545455 218.629557 
L 235.126203 217.443351 
L 238.706952 215.914611 
L 242.287701 214.053644 
L 245.868449 211.872988 
L 249.449198 209.387328 
L 253.029947 206.613392 
L 256.610695 203.569833 
L 260.191444 200.2771 
L 264.965775 195.537607 
L 269.740107 190.451062 
L 275.708021 183.697317 
L 282.869519 175.178751 
L 306.741176 146.368594 
L 312.709091 139.748563 
L 317.483422 134.793814 
L 322.257754 130.204326 
L 325.838503 127.033579 
L 329.419251 124.118026 
L 333 121.476095 
L 336.580749 119.124334 
L 340.161497 117.077307 
L 343.742246 115.347506 
L 347.322995 113.945282 
L 350.903743 112.878782 
L 353.290909 112.357303 
L 355.678075 111.988896 
L 358.065241 111.774298 
L 360.452406 111.713799 
L 362.839572 111.807238 
L 365.226738 112.054005 
L 367.613904 112.45305 
L 371.194652 113.333759 
L 373.581818 114.106036 
L 373.581818 114.106036 
" clip-path="url(#p1773d94a60)" style="fill: none; stroke: #2ca02c; stroke-linecap: square"/>
   </g>
   <g id="line2d_38">
    <path d="M 69.218182 127.646988 
L 71.605348 127.098789 
L 73.992513 126.773872 
L 76.379679 126.674241 
L 78.766845 126.800767 
L 81.154011 127.15315 
L 83.541176 127.729883 
L 85.928342 128.528237 
L 88.315508 129.544241 
L 90.702674 130.772686 
L 93.08984 132.207128 
L 95.477005 133.839904 
L 99.057754 136.641264 
L 102.638503 139.83398 
L 106.219251 143.377854 
L 109.8 147.227652 
L 114.574332 152.75007 
L 120.542246 160.096582 
L 137.252406 181.039516 
L 142.026738 186.501507 
L 145.607487 190.286576 
L 149.188235 193.745808 
L 152.768984 196.830726 
L 155.15615 198.657669 
L 157.543316 200.287251 
L 159.930481 201.709119 
L 162.317647 202.914171 
L 164.704813 203.894623 
L 167.091979 204.644058 
L 169.479144 205.157475 
L 171.86631 205.431319 
L 174.253476 205.463514 
L 176.640642 205.253475 
L 179.027807 204.80212 
L 181.414973 204.111861 
L 183.802139 203.186599 
L 186.189305 202.031699 
L 188.576471 200.653961 
L 190.963636 199.061574 
L 193.350802 197.264076 
L 196.931551 194.207251 
L 200.512299 190.755147 
L 204.093048 186.954935 
L 207.673797 182.858714 
L 212.448128 177.034424 
L 218.416043 169.373034 
L 230.351872 153.900898 
L 235.126203 148.076608 
L 238.706952 143.980387 
L 242.287701 140.180175 
L 245.868449 136.728071 
L 249.449198 133.671246 
L 251.836364 131.873748 
L 254.223529 130.281361 
L 256.610695 128.903623 
L 258.997861 127.748723 
L 261.385027 126.823461 
L 263.772193 126.133202 
L 266.159358 125.681847 
L 268.546524 125.471808 
L 270.93369 125.504003 
L 273.320856 125.777847 
L 275.708021 126.291264 
L 278.095187 127.040699 
L 280.482353 128.021151 
L 282.869519 129.226203 
L 285.256684 130.648071 
L 287.64385 132.277653 
L 290.031016 134.104596 
L 293.611765 137.189514 
L 297.192513 140.648746 
L 300.773262 144.433815 
L 305.547594 149.895806 
L 310.321925 155.708795 
L 319.870588 167.817337 
L 327.032086 176.748359 
L 331.806417 182.364899 
L 335.387166 186.305825 
L 338.967914 189.956934 
L 342.548663 193.271427 
L 346.129412 196.207375 
L 348.516578 197.936072 
L 350.903743 199.470714 
L 353.290909 200.80304 
L 355.678075 201.925993 
L 358.065241 202.833746 
L 360.452406 203.521708 
L 362.839572 203.98653 
L 365.226738 204.226097 
L 367.613904 204.239508 
L 370.00107 204.027053 
L 372.388235 203.590176 
L 373.581818 203.288334 
L 373.581818 203.288334 
" clip-path="url(#p1773d94a60)" style="fill: none; stroke: #d62728; stroke-linecap: square"/>
   </g>
   <g id="line2d_39">
    <path d="M 69.218182 134.697686 
L 75.186096 135.919145 
L 78.766845 136.786243 
L 81.154011 137.546195 
L 83.541176 138.499601 
L 85.928342 139.674597 
L 88.315508 141.088885 
L 90.702674 142.750714 
L 93.08984 144.659847 
L 95.477005 146.80851 
L 97.864171 149.182322 
L 101.44492 153.119914 
L 105.025668 157.430506 
L 109.8 163.574154 
L 120.542246 177.65185 
L 124.122995 181.980992 
L 127.703743 185.93323 
L 130.090909 188.307537 
L 132.478075 190.441469 
L 134.865241 192.310986 
L 137.252406 193.895303 
L 139.639572 195.177073 
L 142.026738 196.142536 
L 144.413904 196.781614 
L 146.80107 197.087966 
L 149.188235 197.058999 
L 151.575401 196.695835 
L 153.962567 196.003249 
L 156.349733 194.989558 
L 158.736898 193.666483 
L 161.124064 192.048982 
L 163.51123 190.155043 
L 165.898396 188.005465 
L 168.285561 185.623601 
L 171.86631 181.67192 
L 175.447059 177.350422 
L 180.22139 171.19104 
L 193.350802 153.916397 
L 196.931551 149.627644 
L 200.512299 145.711953 
L 202.899465 143.353012 
L 205.286631 141.223276 
L 207.673797 139.344121 
L 210.060963 137.734372 
L 212.448128 136.410133 
L 214.835294 135.384636 
L 217.22246 134.668115 
L 219.609626 134.26772 
L 221.996791 134.18744 
L 224.383957 134.428078 
L 226.771123 134.987233 
L 229.158289 135.859331 
L 231.545455 137.035668 
L 233.93262 138.504499 
L 236.319786 140.251138 
L 238.706952 142.2581 
L 241.094118 144.505262 
L 244.674866 148.276378 
L 248.255615 152.451228 
L 253.029947 158.480577 
L 261.385027 169.606859 
L 267.352941 177.350422 
L 270.93369 181.671921 
L 274.514439 185.623602 
L 276.901604 188.005465 
L 279.28877 190.155043 
L 281.675936 192.048982 
L 284.063102 193.666484 
L 286.450267 194.989558 
L 288.837433 196.003249 
L 291.224599 196.695835 
L 293.611765 197.058999 
L 295.99893 197.087966 
L 298.386096 196.781614 
L 300.773262 196.142536 
L 303.160428 195.177073 
L 305.547594 193.895302 
L 307.934759 192.310986 
L 310.321925 190.441468 
L 312.709091 188.307537 
L 315.096257 185.933229 
L 318.677005 181.980991 
L 322.257754 177.651849 
L 327.032086 171.49082 
L 337.774332 157.430506 
L 341.35508 153.119914 
L 344.935829 149.182322 
L 347.322995 146.80851 
L 349.71016 144.659848 
L 352.097326 142.750715 
L 354.484492 141.088886 
L 356.871658 139.674598 
L 359.258824 138.499602 
L 361.645989 137.546196 
L 364.033155 136.786244 
L 367.613904 135.919145 
L 373.581818 134.697684 
L 373.581818 134.697684 
" clip-path="url(#p1773d94a60)" style="fill: none; stroke: #9467bd; stroke-linecap: square"/>
   </g>
   <g id="line2d_40">
    <path d="M 69.218182 139.359389 
L 71.605348 140.760725 
L 73.992513 141.792605 
L 82.347594 144.989781 
L 84.734759 146.257824 
L 87.121925 147.802459 
L 89.509091 149.647095 
L 91.896257 151.794496 
L 94.283422 154.229892 
L 96.670588 156.923959 
L 100.251337 161.357721 
L 105.025668 167.722505 
L 110.993583 175.721787 
L 114.574332 180.169392 
L 116.961497 182.865061 
L 119.348663 185.283976 
L 121.735829 187.380197 
L 124.122995 189.114521 
L 126.51016 190.455105 
L 128.897326 191.377903 
L 131.284492 191.866937 
L 133.671658 191.91439 
L 136.058824 191.520552 
L 138.445989 190.693623 
L 140.833155 189.449375 
L 143.220321 187.810709 
L 145.607487 185.807096 
L 147.994652 183.473937 
L 150.381818 180.851834 
L 153.962567 176.476412 
L 157.543316 171.71922 
L 169.479144 155.409987 
L 173.059893 151.065395 
L 175.447059 148.459967 
L 177.834225 146.134876 
L 180.22139 144.125651 
L 182.608556 142.462615 
L 184.995722 141.170479 
L 187.382888 140.268019 
L 189.770053 139.767849 
L 192.157219 139.676283 
L 194.544385 139.993294 
L 196.931551 140.71256 
L 199.318717 141.821604 
L 201.705882 143.302018 
L 204.093048 145.129773 
L 206.480214 147.275607 
L 208.86738 149.705482 
L 212.448128 153.798102 
L 216.028877 158.298794 
L 221.996791 166.274626 
L 227.964706 174.172591 
L 231.545455 178.554208 
L 233.93262 181.229839 
L 236.319786 183.659715 
L 238.706952 185.805548 
L 241.094118 187.633304 
L 243.481283 189.113718 
L 245.868449 190.222762 
L 248.255615 190.942028 
L 250.642781 191.25904 
L 253.029947 191.167474 
L 255.417112 190.667304 
L 257.804278 189.764844 
L 260.191444 188.472708 
L 262.57861 186.809673 
L 264.965775 184.800448 
L 267.352941 182.475357 
L 269.740107 179.869929 
L 273.320856 175.525337 
L 276.901604 170.794127 
L 290.031016 152.949509 
L 293.611765 148.739039 
L 295.99893 146.256037 
L 298.386096 144.082883 
L 300.773262 142.257673 
L 303.160428 140.812928 
L 305.547594 139.77491 
L 307.934759 139.163018 
L 310.321925 138.989289 
L 312.709091 139.257999 
L 315.096257 139.965403 
L 317.483422 141.099599 
L 319.870588 142.640555 
L 322.257754 144.56028 
L 324.64492 146.823186 
L 327.032086 149.386612 
L 330.612834 153.686494 
L 335.387166 159.971544 
L 342.548663 169.577601 
L 346.129412 174.011364 
L 348.516578 176.705431 
L 350.903743 179.140828 
L 353.290909 181.288229 
L 355.678075 183.132866 
L 358.065241 184.677501 
L 360.452406 185.945544 
L 362.839572 186.984274 
L 367.613904 188.702279 
L 370.00107 189.625732 
L 372.388235 190.815159 
L 373.581818 191.575932 
L 373.581818 191.575932 
" clip-path="url(#p1773d94a60)" style="fill: none; stroke: #8c564b; stroke-linecap: square"/>
   </g>
   <g id="patch_3">
    <path d="M 54 256.32 
L 54 34.56 
" style="fill: none; stroke: #000000; stroke-width: 0.8; stroke-linejoin: miter; stroke-linecap: square"/>
   </g>
   <g id="patch_4">
    <path d="M 388.8 256.32 
L 388.8 34.56 
" style="fill: none; stroke: #000000; stroke-width: 0.8; stroke-linejoin: miter; stroke-linecap: square"/>
   </g>
   <g id="patch_5">
    <path d="M 54 256.32 
L 388.8 256.32 
" style="fill: none; stroke: #000000; stroke-width: 0.8; stroke-linejoin: miter; stroke-linecap: square"/>
   </g>
   <g id="patch_6">
    <path d="M 54 34.56 
L 388.8 34.56 
" style="fill: none; stroke: #000000; stroke-width: 0.8; stroke-linejoin: miter; stroke-linecap: square"/>
   </g>
   <g id="line2d_41">
    <path d="M 69.218182 155.004621 
L 70.411765 150.205095 
L 71.605348 146.356134 
L 72.79893 143.373775 
L 73.992513 141.178201 
L 75.186096 139.693658 
L 76.379679 138.848351 
L 77.573262 138.57435 
L 78.766845 138.807497 
L 79.960428 139.487301 
L 81.154011 140.556841 
L 82.347594 141.962667 
L 83.541176 143.654699 
L 85.928342 147.7133 
L 88.315508 152.395542 
L 97.864171 172.210536 
L 100.251337 176.500952 
L 102.638503 180.27544 
L 105.025668 183.461714 
L 107.412834 186.01301 
L 108.606417 187.042201 
L 109.8 187.905228 
L 110.993583 188.602168 
L 112.187166 189.134177 
L 113.380749 189.503409 
L 114.574332 189.712938 
L 115.767914 189.766683 
L 116.961497 189.669333 
L 118.15508 189.426276 
L 119.348663 189.043529 
L 120.542246 188.527667 
L 122.929412 187.125322 
L 125.316578 185.28063 
L 127.703743 183.059985 
L 130.090909 180.533002 
L 133.671658 176.323977 
L 139.639572 168.779608 
L 144.413904 162.862556 
L 147.994652 158.800269 
L 150.381818 156.362618 
L 152.768984 154.188448 
L 155.15615 152.310555 
L 157.543316 150.754833 
L 159.930481 149.540198 
L 162.317647 148.678631 
L 164.704813 148.175309 
L 167.091979 148.028832 
L 169.479144 148.23153 
L 171.86631 148.769843 
L 174.253476 149.624774 
L 176.640642 150.772386 
L 179.027807 152.184362 
L 181.414973 153.828597 
L 184.995722 156.652569 
L 188.576471 159.790201 
L 201.705882 171.758285 
L 205.286631 174.561297 
L 207.673797 176.20287 
L 210.060963 177.62936 
L 212.448128 178.816419 
L 214.835294 179.743893 
L 217.22246 180.396093 
L 219.609626 180.762021 
L 221.996791 180.835516 
L 224.383957 180.615342 
L 226.771123 180.105204 
L 229.158289 179.313696 
L 231.545455 178.254185 
L 233.93262 176.944623 
L 236.319786 175.4073 
L 238.706952 173.668532 
L 242.287701 170.749134 
L 247.062032 166.45705 
L 256.610695 157.670241 
L 260.191444 154.726899 
L 262.57861 152.979589 
L 264.965775 151.447256 
L 267.352941 150.163669 
L 269.740107 149.159117 
L 272.127273 148.459798 
L 274.514439 148.087245 
L 276.901604 148.057797 
L 279.28877 148.38212 
L 281.675936 149.064793 
L 284.063102 150.103961 
L 286.450267 151.491069 
L 288.837433 153.210676 
L 291.224599 155.240378 
L 293.611765 157.550815 
L 295.99893 160.105797 
L 299.579679 164.301504 
L 305.547594 171.825305 
L 310.321925 177.770887 
L 313.902674 181.830356 
L 316.28984 184.21301 
L 318.677005 186.254221 
L 321.064171 187.885771 
L 323.451337 189.043537 
L 324.64492 189.426285 
L 325.838503 189.669343 
L 327.032086 189.766693 
L 328.225668 189.712948 
L 329.419251 189.503419 
L 330.612834 189.134188 
L 331.806417 188.602179 
L 333 187.905238 
L 334.193583 187.042211 
L 335.387166 186.01302 
L 336.580749 184.818749 
L 338.967914 181.945599 
L 341.35508 178.457843 
L 343.742246 174.414645 
L 346.129412 169.902146 
L 349.71016 162.516397 
L 355.678075 149.995634 
L 358.065241 145.586113 
L 359.258824 143.654686 
L 360.452406 141.962654 
L 361.645989 140.556828 
L 362.839572 139.487289 
L 364.033155 138.807486 
L 365.226738 138.574341 
L 366.420321 138.848344 
L 367.613904 139.693655 
L 368.807487 141.178202 
L 370.00107 143.37378 
L 371.194652 146.356146 
L 372.388235 150.205114 
L 373.581818 155.004649 
L 373.581818 155.004649 
" clip-path="url(#p1773d94a60)" style="fill: none; stroke: #e377c2; stroke-linecap: square"/>
   </g>
   <g id="line2d_42">
    <path d="M 69.218182 157.886299 
L 70.411765 152.023022 
L 71.605348 147.502828 
L 72.79893 144.182741 
L 73.992513 141.928515 
L 75.186096 140.614376 
L 76.379679 140.122765 
L 77.573262 140.344072 
L 78.766845 141.176373 
L 79.960428 142.525163 
L 81.154011 144.303084 
L 82.347594 146.429661 
L 84.734759 151.439667 
L 88.315508 159.923441 
L 91.896257 168.394405 
L 94.283422 173.548833 
L 96.670588 178.071605 
L 99.057754 181.827786 
L 100.251337 183.390805 
L 101.44492 184.73498 
L 102.638503 185.857035 
L 103.832086 186.756087 
L 105.025668 187.43345 
L 106.219251 187.892426 
L 107.412834 188.138119 
L 108.606417 188.177244 
L 109.8 188.017951 
L 110.993583 187.669648 
L 112.187166 187.142839 
L 113.380749 186.448961 
L 114.574332 185.600237 
L 116.961497 183.490204 
L 119.348663 180.920894 
L 121.735829 178.004519 
L 125.316578 173.225075 
L 132.478075 163.51544 
L 134.865241 160.576194 
L 137.252406 157.913634 
L 139.639572 155.58687 
L 142.026738 153.642341 
L 144.413904 152.113642 
L 146.80107 151.021631 
L 149.188235 150.374816 
L 151.575401 150.169956 
L 153.962567 150.392885 
L 156.349733 151.019488 
L 158.736898 152.016835 
L 161.124064 153.344418 
L 163.51123 154.955466 
L 165.898396 156.79832 
L 169.479144 159.875976 
L 180.22139 169.562648 
L 183.802139 172.335287 
L 186.189305 173.92207 
L 188.576471 175.25817 
L 190.963636 176.315595 
L 193.350802 177.073485 
L 195.737968 177.51839 
L 198.125134 177.644398 
L 200.512299 177.453108 
L 202.899465 176.953458 
L 205.286631 176.161409 
L 207.673797 175.099495 
L 210.060963 173.796258 
L 212.448128 172.285559 
L 216.028877 169.715559 
L 220.803209 165.949501 
L 226.771123 161.219767 
L 230.351872 158.649767 
L 232.739037 157.139067 
L 235.126203 155.83583 
L 237.513369 154.773916 
L 239.900535 153.981866 
L 242.287701 153.482215 
L 244.674866 153.290925 
L 247.062032 153.416933 
L 249.449198 153.861837 
L 251.836364 154.619727 
L 254.223529 155.677151 
L 256.610695 157.01325 
L 258.997861 158.600033 
L 261.385027 160.402813 
L 264.965775 163.421234 
L 270.93369 168.882493 
L 275.708021 173.14578 
L 279.28877 175.979851 
L 281.675936 177.590899 
L 284.063102 178.918482 
L 286.450267 179.91583 
L 288.837433 180.542433 
L 291.224599 180.765362 
L 293.611765 180.560503 
L 295.99893 179.913688 
L 298.386096 178.821678 
L 300.773262 177.292979 
L 303.160428 175.348451 
L 305.547594 173.021688 
L 307.934759 170.359129 
L 311.515508 165.868324 
L 316.28984 159.356629 
L 321.064171 152.930809 
L 323.451337 150.014434 
L 325.838503 147.445125 
L 328.225668 145.335093 
L 329.419251 144.486369 
L 330.612834 143.792492 
L 331.806417 143.265682 
L 333 142.917379 
L 334.193583 142.758086 
L 335.387166 142.797212 
L 336.580749 143.042905 
L 337.774332 143.501881 
L 338.967914 144.179243 
L 340.161497 145.078296 
L 341.35508 146.20035 
L 342.548663 147.544525 
L 343.742246 149.107543 
L 344.935829 150.883515 
L 347.322995 155.0364 
L 349.71016 159.895442 
L 352.097326 165.296614 
L 359.258824 182.104289 
L 360.452406 184.505656 
L 361.645989 186.632232 
L 362.839572 188.410152 
L 364.033155 189.75894 
L 365.226738 190.591239 
L 366.420321 190.812545 
L 367.613904 190.320932 
L 368.807487 189.006792 
L 370.00107 186.752564 
L 371.194652 183.432475 
L 372.388235 178.912279 
L 373.581818 173.049 
L 373.581818 173.049 
" clip-path="url(#p1773d94a60)" style="fill: none; stroke: #7f7f7f; stroke-linecap: square"/>
   </g>
   <g id="line2d_43">
    <path d="M 69.218182 114.02184 
L 70.411765 123.087958 
L 71.605348 131.241332 
L 72.79893 138.54195 
L 73.992513 145.047299 
L 75.186096 150.812419 
L 76.379679 155.889947 
L 77.573262 160.330172 
L 78.766845 164.181085 
L 79.960428 167.488429 
L 81.154011 170.29575 
L 82.347594 172.644455 
L 83.541176 174.573862 
L 84.734759 176.121253 
L 85.928342 177.321931 
L 87.121925 178.209271 
L 88.315508 178.814778 
L 89.509091 179.16814 
L 90.702674 179.297284 
L 91.896257 179.228429 
L 93.08984 178.986143 
L 94.283422 178.593395 
L 96.670588 177.440738 
L 99.057754 175.924346 
L 102.638503 173.250442 
L 109.8 167.674292 
L 113.380749 165.233281 
L 115.767914 163.833753 
L 118.15508 162.644409 
L 120.542246 161.678129 
L 122.929412 160.939394 
L 125.316578 160.425513 
L 127.703743 160.127776 
L 130.090909 160.032544 
L 132.478075 160.12225 
L 134.865241 160.37634 
L 138.445989 161.015667 
L 142.026738 161.891929 
L 147.994652 163.653733 
L 156.349733 166.160005 
L 161.124064 167.341035 
L 164.704813 168.025956 
L 168.285561 168.509047 
L 171.86631 168.777417 
L 175.447059 168.830313 
L 179.027807 168.678099 
L 182.608556 168.340902 
L 187.382888 167.653343 
L 193.350802 166.531654 
L 206.480214 163.922163 
L 211.254545 163.211268 
L 216.028877 162.741284 
L 220.803209 162.554289 
L 224.383957 162.610753 
L 229.158289 162.942958 
L 233.93262 163.540151 
L 239.900535 164.575307 
L 257.804278 168.027007 
L 262.57861 168.58501 
L 266.159358 168.80156 
L 269.740107 168.8187 
L 273.320856 168.622646 
L 276.901604 168.210314 
L 280.482353 167.590459 
L 285.256684 166.479923 
L 290.031016 165.12599 
L 301.966845 161.57867 
L 305.547594 160.772116 
L 309.128342 160.230116 
L 311.515508 160.055493 
L 313.902674 160.055851 
L 316.28984 160.250361 
L 318.677005 160.654748 
L 321.064171 161.280317 
L 323.451337 162.132909 
L 325.838503 163.211778 
L 328.225668 164.508402 
L 330.612834 166.005217 
L 334.193583 168.561515 
L 344.935829 176.719302 
L 347.322995 178.071648 
L 348.516578 178.593432 
L 349.71016 178.986183 
L 350.903743 179.228471 
L 352.097326 179.297328 
L 353.290909 179.168185 
L 354.484492 178.814823 
L 355.678075 178.209316 
L 356.871658 177.321974 
L 358.065241 176.121294 
L 359.258824 174.573899 
L 360.452406 172.644488 
L 361.645989 170.295776 
L 362.839572 167.488446 
L 364.033155 164.181092 
L 365.226738 160.330167 
L 366.420321 155.889926 
L 367.613904 150.81238 
L 368.807487 145.04724 
L 370.00107 138.541867 
L 371.194652 131.241222 
L 372.388235 123.087817 
L 373.581818 114.021664 
L 373.581818 114.021664 
" clip-path="url(#p1773d94a60)" style="fill: none; stroke: #bcbd22; stroke-linecap: square"/>
   </g>
   <g id="line2d_44">
    <path d="M 69.218182 116.94929 
L 70.411765 126.951388 
L 71.605348 135.761887 
L 72.79893 143.474541 
L 73.992513 150.178358 
L 75.186096 155.957712 
L 76.379679 160.892461 
L 77.573262 165.058074 
L 78.766845 168.525745 
L 79.960428 171.362524 
L 81.154011 173.63144 
L 82.347594 175.391629 
L 83.541176 176.698459 
L 84.734759 177.603662 
L 85.928342 178.155459 
L 87.121925 178.398691 
L 88.315508 178.374949 
L 89.509091 178.122699 
L 90.702674 177.677412 
L 91.896257 177.071689 
L 94.283422 175.49576 
L 96.670588 173.603123 
L 105.025668 166.64476 
L 107.412834 164.973897 
L 109.8 163.552265 
L 112.187166 162.405862 
L 114.574332 161.54486 
L 116.961497 160.966348 
L 119.348663 160.65685 
L 121.735829 160.594644 
L 124.122995 160.751866 
L 126.51016 161.096405 
L 130.090909 161.888244 
L 134.865241 163.270369 
L 144.413904 166.177058 
L 147.994652 167.048324 
L 151.575401 167.709211 
L 155.15615 168.130856 
L 158.736898 168.304502 
L 162.317647 168.239547 
L 165.898396 167.960855 
L 170.672727 167.322283 
L 176.640642 166.253737 
L 186.189305 164.481753 
L 190.963636 163.801997 
L 195.737968 163.36798 
L 199.318717 163.230286 
L 204.093048 163.30617 
L 208.86738 163.659331 
L 213.641711 164.239741 
L 220.803209 165.367851 
L 230.351872 166.858235 
L 235.126203 167.388016 
L 239.900535 167.675421 
L 244.674866 167.677724 
L 249.449198 167.384486 
L 254.223529 166.820223 
L 260.191444 165.826253 
L 273.320856 163.429782 
L 278.095187 162.859908 
L 281.675936 162.64887 
L 285.256684 162.661385 
L 288.837433 162.917497 
L 292.418182 163.420821 
L 295.99893 164.156069 
L 300.773262 165.432185 
L 313.902674 169.341721 
L 317.483422 170.03246 
L 319.870588 170.287553 
L 322.257754 170.338853 
L 324.64492 170.156149 
L 327.032086 169.714398 
L 329.419251 168.995727 
L 331.806417 167.991636 
L 334.193583 166.705429 
L 336.580749 165.154837 
L 338.967914 163.374851 
L 342.548663 160.402019 
L 347.322995 156.35781 
L 349.71016 154.599968 
L 350.903743 153.863671 
L 352.097326 153.257949 
L 353.290909 152.812661 
L 354.484492 152.56041 
L 355.678075 152.536667 
L 356.871658 152.779898 
L 358.065241 153.331692 
L 359.258824 154.23689 
L 360.452406 155.543715 
L 361.645989 157.303898 
L 362.839572 159.572807 
L 364.033155 162.409578 
L 365.226738 165.877238 
L 366.420321 170.042839 
L 367.613904 174.977575 
L 368.807487 180.756912 
L 370.00107 187.460712 
L 371.194652 195.173346 
L 372.388235 203.983822 
L 373.581818 213.985895 
L 373.581818 213.985895 
" clip-path="url(#p1773d94a60)" style="fill: none; stroke: #17becf; stroke-linecap: square"/>
   </g>
  </g>
  <g id="text_20">
   <!-- Quadrature approx. of KL expansion for $C(s,t)=e^{-|s-t|}$ -->
   <g transform="translate(50.82 16.8) scale(0.12 -0.12)">
    <defs>
     <path id="DejaVuSans-51" d="M 2522 4238 
Q 1834 4238 1429 3725 
Q 1025 3213 1025 2328 
Q 1025 1447 1429 934 
Q 1834 422 2522 422 
Q 3209 422 3611 934 
Q 4013 1447 4013 2328 
Q 4013 3213 3611 3725 
Q 3209 4238 2522 4238 
z
M 3406 84 
L 4238 -825 
L 3475 -825 
L 2784 -78 
Q 2681 -84 2626 -87 
Q 2572 -91 2522 -91 
Q 1538 -91 948 567 
Q 359 1225 359 2328 
Q 359 3434 948 4092 
Q 1538 4750 2522 4750 
Q 3503 4750 4090 4092 
Q 4678 3434 4678 2328 
Q 4678 1516 4351 937 
Q 4025 359 3406 84 
z
" transform="scale(0.015625)"/>
     <path id="DejaVuSans-75" d="M 544 1381 
L 544 3500 
L 1119 3500 
L 1119 1403 
Q 1119 906 1312 657 
Q 1506 409 1894 409 
Q 2359 409 2629 706 
Q 2900 1003 2900 1516 
L 2900 3500 
L 3475 3500 
L 3475 0 
L 2900 0 
L 2900 538 
Q 2691 219 2414 64 
Q 2138 -91 1772 -91 
Q 1169 -91 856 284 
Q 544 659 544 1381 
z
M 1991 3584 
L 1991 3584 
z
" transform="scale(0.015625)"/>
     <path id="DejaVuSans-61" d="M 2194 1759 
Q 1497 1759 1228 1600 
Q 959 1441 959 1056 
Q 959 750 1161 570 
Q 1363 391 1709 391 
Q 2188 391 2477 730 
Q 2766 1069 2766 1631 
L 2766 1759 
L 2194 1759 
z
M 3341 1997 
L 3341 0 
L 2766 0 
L 2766 531 
Q 2569 213 2275 61 
Q 1981 -91 1556 -91 
Q 1019 -91 701 211 
Q 384 513 384 1019 
Q 384 1609 779 1909 
Q 1175 2209 1959 2209 
L 2766 2209 
L 2766 2266 
Q 2766 2663 2505 2880 
Q 2244 3097 1772 3097 
Q 1472 3097 1187 3025 
Q 903 2953 641 2809 
L 641 3341 
Q 956 3463 1253 3523 
Q 1550 3584 1831 3584 
Q 2591 3584 2966 3190 
Q 3341 2797 3341 1997 
z
" transform="scale(0.015625)"/>
     <path id="DejaVuSans-64" d="M 2906 2969 
L 2906 4863 
L 3481 4863 
L 3481 0 
L 2906 0 
L 2906 525 
Q 2725 213 2448 61 
Q 2172 -91 1784 -91 
Q 1150 -91 751 415 
Q 353 922 353 1747 
Q 353 2572 751 3078 
Q 1150 3584 1784 3584 
Q 2172 3584 2448 3432 
Q 2725 3281 2906 2969 
z
M 947 1747 
Q 947 1113 1208 752 
Q 1469 391 1925 391 
Q 2381 391 2643 752 
Q 2906 1113 2906 1747 
Q 2906 2381 2643 2742 
Q 2381 3103 1925 3103 
Q 1469 3103 1208 2742 
Q 947 2381 947 1747 
z
" transform="scale(0.015625)"/>
     <path id="DejaVuSans-72" d="M 2631 2963 
Q 2534 3019 2420 3045 
Q 2306 3072 2169 3072 
Q 1681 3072 1420 2755 
Q 1159 2438 1159 1844 
L 1159 0 
L 581 0 
L 581 3500 
L 1159 3500 
L 1159 2956 
Q 1341 3275 1631 3429 
Q 1922 3584 2338 3584 
Q 2397 3584 2469 3576 
Q 2541 3569 2628 3553 
L 2631 2963 
z
" transform="scale(0.015625)"/>
     <path id="DejaVuSans-74" d="M 1172 4494 
L 1172 3500 
L 2356 3500 
L 2356 3053 
L 1172 3053 
L 1172 1153 
Q 1172 725 1289 603 
Q 1406 481 1766 481 
L 2356 481 
L 2356 0 
L 1766 0 
Q 1100 0 847 248 
Q 594 497 594 1153 
L 594 3053 
L 172 3053 
L 172 3500 
L 594 3500 
L 594 4494 
L 1172 4494 
z
" transform="scale(0.015625)"/>
     <path id="DejaVuSans-65" d="M 3597 1894 
L 3597 1613 
L 953 1613 
Q 991 1019 1311 708 
Q 1631 397 2203 397 
Q 2534 397 2845 478 
Q 3156 559 3463 722 
L 3463 178 
Q 3153 47 2828 -22 
Q 2503 -91 2169 -91 
Q 1331 -91 842 396 
Q 353 884 353 1716 
Q 353 2575 817 3079 
Q 1281 3584 2069 3584 
Q 2775 3584 3186 3129 
Q 3597 2675 3597 1894 
z
M 3022 2063 
Q 3016 2534 2758 2815 
Q 2500 3097 2075 3097 
Q 1594 3097 1305 2825 
Q 1016 2553 972 2059 
L 3022 2063 
z
" transform="scale(0.015625)"/>
     <path id="DejaVuSans-20" transform="scale(0.015625)"/>
     <path id="DejaVuSans-70" d="M 1159 525 
L 1159 -1331 
L 581 -1331 
L 581 3500 
L 1159 3500 
L 1159 2969 
Q 1341 3281 1617 3432 
Q 1894 3584 2278 3584 
Q 2916 3584 3314 3078 
Q 3713 2572 3713 1747 
Q 3713 922 3314 415 
Q 2916 -91 2278 -91 
Q 1894 -91 1617 61 
Q 1341 213 1159 525 
z
M 3116 1747 
Q 3116 2381 2855 2742 
Q 2594 3103 2138 3103 
Q 1681 3103 1420 2742 
Q 1159 2381 1159 1747 
Q 1159 1113 1420 752 
Q 1681 391 2138 391 
Q 2594 391 2855 752 
Q 3116 1113 3116 1747 
z
" transform="scale(0.015625)"/>
     <path id="DejaVuSans-6f" d="M 1959 3097 
Q 1497 3097 1228 2736 
Q 959 2375 959 1747 
Q 959 1119 1226 758 
Q 1494 397 1959 397 
Q 2419 397 2687 759 
Q 2956 1122 2956 1747 
Q 2956 2369 2687 2733 
Q 2419 3097 1959 3097 
z
M 1959 3584 
Q 2709 3584 3137 3096 
Q 3566 2609 3566 1747 
Q 3566 888 3137 398 
Q 2709 -91 1959 -91 
Q 1206 -91 779 398 
Q 353 888 353 1747 
Q 353 2609 779 3096 
Q 1206 3584 1959 3584 
z
" transform="scale(0.015625)"/>
     <path id="DejaVuSans-78" d="M 3513 3500 
L 2247 1797 
L 3578 0 
L 2900 0 
L 1881 1375 
L 863 0 
L 184 0 
L 1544 1831 
L 300 3500 
L 978 3500 
L 1906 2253 
L 2834 3500 
L 3513 3500 
z
" transform="scale(0.015625)"/>
     <path id="DejaVuSans-66" d="M 2375 4863 
L 2375 4384 
L 1825 4384 
Q 1516 4384 1395 4259 
Q 1275 4134 1275 3809 
L 1275 3500 
L 2222 3500 
L 2222 3053 
L 1275 3053 
L 1275 0 
L 697 0 
L 697 3053 
L 147 3053 
L 147 3500 
L 697 3500 
L 697 3744 
Q 697 4328 969 4595 
Q 1241 4863 1831 4863 
L 2375 4863 
z
" transform="scale(0.015625)"/>
     <path id="DejaVuSans-4b" d="M 628 4666 
L 1259 4666 
L 1259 2694 
L 3353 4666 
L 4166 4666 
L 1850 2491 
L 4331 0 
L 3500 0 
L 1259 2247 
L 1259 0 
L 628 0 
L 628 4666 
z
" transform="scale(0.015625)"/>
     <path id="DejaVuSans-4c" d="M 628 4666 
L 1259 4666 
L 1259 531 
L 3531 531 
L 3531 0 
L 628 0 
L 628 4666 
z
" transform="scale(0.015625)"/>
     <path id="DejaVuSans-6e" d="M 3513 2113 
L 3513 0 
L 2938 0 
L 2938 2094 
Q 2938 2591 2744 2837 
Q 2550 3084 2163 3084 
Q 1697 3084 1428 2787 
Q 1159 2491 1159 1978 
L 1159 0 
L 581 0 
L 581 3500 
L 1159 3500 
L 1159 2956 
Q 1366 3272 1645 3428 
Q 1925 3584 2291 3584 
Q 2894 3584 3203 3211 
Q 3513 2838 3513 2113 
z
" transform="scale(0.015625)"/>
     <path id="DejaVuSans-73" d="M 2834 3397 
L 2834 2853 
Q 2591 2978 2328 3040 
Q 2066 3103 1784 3103 
Q 1356 3103 1142 2972 
Q 928 2841 928 2578 
Q 928 2378 1081 2264 
Q 1234 2150 1697 2047 
L 1894 2003 
Q 2506 1872 2764 1633 
Q 3022 1394 3022 966 
Q 3022 478 2636 193 
Q 2250 -91 1575 -91 
Q 1294 -91 989 -36 
Q 684 19 347 128 
L 347 722 
Q 666 556 975 473 
Q 1284 391 1588 391 
Q 1994 391 2212 530 
Q 2431 669 2431 922 
Q 2431 1156 2273 1281 
Q 2116 1406 1581 1522 
L 1381 1569 
Q 847 1681 609 1914 
Q 372 2147 372 2553 
Q 372 3047 722 3315 
Q 1072 3584 1716 3584 
Q 2034 3584 2315 3537 
Q 2597 3491 2834 3397 
z
" transform="scale(0.015625)"/>
     <path id="DejaVuSans-69" d="M 603 3500 
L 1178 3500 
L 1178 0 
L 603 0 
L 603 3500 
z
M 603 4863 
L 1178 4863 
L 1178 4134 
L 603 4134 
L 603 4863 
z
" transform="scale(0.015625)"/>
     <path id="DejaVuSans-Oblique-43" d="M 4447 4306 
L 4319 3641 
Q 4019 3944 3683 4091 
Q 3347 4238 2956 4238 
Q 2422 4238 2017 3981 
Q 1613 3725 1319 3200 
Q 1131 2863 1032 2486 
Q 934 2109 934 1728 
Q 934 1091 1264 756 
Q 1594 422 2222 422 
Q 2656 422 3056 561 
Q 3456 700 3834 978 
L 3688 231 
Q 3316 72 2936 -9 
Q 2556 -91 2175 -91 
Q 1278 -91 773 396 
Q 269 884 269 1753 
Q 269 2309 461 2846 
Q 653 3384 1013 3828 
Q 1394 4300 1883 4525 
Q 2372 4750 3022 4750 
Q 3422 4750 3780 4639 
Q 4138 4528 4447 4306 
z
" transform="scale(0.015625)"/>
     <path id="DejaVuSans-28" d="M 1984 4856 
Q 1566 4138 1362 3434 
Q 1159 2731 1159 2009 
Q 1159 1288 1364 580 
Q 1569 -128 1984 -844 
L 1484 -844 
Q 1016 -109 783 600 
Q 550 1309 550 2009 
Q 550 2706 781 3412 
Q 1013 4119 1484 4856 
L 1984 4856 
z
" transform="scale(0.015625)"/>
     <path id="DejaVuSans-Oblique-73" d="M 3200 3397 
L 3091 2853 
Q 2863 2978 2609 3040 
Q 2356 3103 2088 3103 
Q 1634 3103 1373 2948 
Q 1113 2794 1113 2528 
Q 1113 2219 1719 2053 
Q 1766 2041 1788 2034 
L 1972 1978 
Q 2547 1819 2739 1644 
Q 2931 1469 2931 1166 
Q 2931 609 2489 259 
Q 2047 -91 1331 -91 
Q 1053 -91 747 -37 
Q 441 16 72 128 
L 184 722 
Q 500 559 806 475 
Q 1113 391 1394 391 
Q 1816 391 2080 572 
Q 2344 753 2344 1031 
Q 2344 1331 1650 1516 
L 1591 1531 
L 1394 1581 
Q 956 1697 753 1886 
Q 550 2075 550 2369 
Q 550 2928 970 3256 
Q 1391 3584 2113 3584 
Q 2397 3584 2667 3537 
Q 2938 3491 3200 3397 
z
" transform="scale(0.015625)"/>
     <path id="DejaVuSans-2c" d="M 750 794 
L 1409 794 
L 1409 256 
L 897 -744 
L 494 -744 
L 750 256 
L 750 794 
z
" transform="scale(0.015625)"/>
     <path id="DejaVuSans-29" d="M 513 4856 
L 1013 4856 
Q 1481 4119 1714 3412 
Q 1947 2706 1947 2009 
Q 1947 1309 1714 600 
Q 1481 -109 1013 -844 
L 513 -844 
Q 928 -128 1133 580 
Q 1338 1288 1338 2009 
Q 1338 2731 1133 3434 
Q 928 4138 513 4856 
z
" transform="scale(0.015625)"/>
     <path id="DejaVuSans-3d" d="M 678 2906 
L 4684 2906 
L 4684 2381 
L 678 2381 
L 678 2906 
z
M 678 1631 
L 4684 1631 
L 4684 1100 
L 678 1100 
L 678 1631 
z
" transform="scale(0.015625)"/>
     <path id="DejaVuSans-Oblique-65" d="M 3078 2063 
Q 3088 2113 3092 2166 
Q 3097 2219 3097 2272 
Q 3097 2653 2873 2875 
Q 2650 3097 2266 3097 
Q 1838 3097 1509 2826 
Q 1181 2556 1013 2059 
L 3078 2063 
z
M 3578 1613 
L 903 1613 
Q 884 1494 878 1425 
Q 872 1356 872 1306 
Q 872 872 1139 634 
Q 1406 397 1894 397 
Q 2269 397 2603 481 
Q 2938 566 3225 728 
L 3116 159 
Q 2806 34 2476 -28 
Q 2147 -91 1806 -91 
Q 1078 -91 686 257 
Q 294 606 294 1247 
Q 294 1794 489 2264 
Q 684 2734 1063 3103 
Q 1306 3334 1642 3459 
Q 1978 3584 2356 3584 
Q 2950 3584 3301 3228 
Q 3653 2872 3653 2272 
Q 3653 2128 3634 1964 
Q 3616 1800 3578 1613 
z
" transform="scale(0.015625)"/>
     <path id="DejaVuSans-7c" d="M 1344 4891 
L 1344 -1509 
L 813 -1509 
L 813 4891 
L 1344 4891 
z
" transform="scale(0.015625)"/>
    </defs>
    <use xlink:href="#DejaVuSans-51" transform="translate(0 0.223438)"/>
    <use xlink:href="#DejaVuSans-75" transform="translate(78.710938 0.223438)"/>
    <use xlink:href="#DejaVuSans-61" transform="translate(142.089844 0.223438)"/>
    <use xlink:href="#DejaVuSans-64" transform="translate(203.369141 0.223438)"/>
    <use xlink:href="#DejaVuSans-72" transform="translate(266.845703 0.223438)"/>
    <use xlink:href="#DejaVuSans-61" transform="translate(307.958984 0.223438)"/>
    <use xlink:href="#DejaVuSans-74" transform="translate(369.238281 0.223438)"/>
    <use xlink:href="#DejaVuSans-75" transform="translate(408.447266 0.223438)"/>
    <use xlink:href="#DejaVuSans-72" transform="translate(471.826172 0.223438)"/>
    <use xlink:href="#DejaVuSans-65" transform="translate(512.939453 0.223438)"/>
    <use xlink:href="#DejaVuSans-20" transform="translate(574.462891 0.223438)"/>
    <use xlink:href="#DejaVuSans-61" transform="translate(606.25 0.223438)"/>
    <use xlink:href="#DejaVuSans-70" transform="translate(667.529297 0.223438)"/>
    <use xlink:href="#DejaVuSans-70" transform="translate(731.005859 0.223438)"/>
    <use xlink:href="#DejaVuSans-72" transform="translate(794.482422 0.223438)"/>
    <use xlink:href="#DejaVuSans-6f" transform="translate(835.595703 0.223438)"/>
    <use xlink:href="#DejaVuSans-78" transform="translate(896.777344 0.223438)"/>
    <use xlink:href="#DejaVuSans-2e" transform="translate(955.957031 0.223438)"/>
    <use xlink:href="#DejaVuSans-20" transform="translate(987.744141 0.223438)"/>
    <use xlink:href="#DejaVuSans-6f" transform="translate(1019.53125 0.223438)"/>
    <use xlink:href="#DejaVuSans-66" transform="translate(1080.712891 0.223438)"/>
    <use xlink:href="#DejaVuSans-20" transform="translate(1115.917969 0.223438)"/>
    <use xlink:href="#DejaVuSans-4b" transform="translate(1147.705078 0.223438)"/>
    <use xlink:href="#DejaVuSans-4c" transform="translate(1213.28125 0.223438)"/>
    <use xlink:href="#DejaVuSans-20" transform="translate(1268.994141 0.223438)"/>
    <use xlink:href="#DejaVuSans-65" transform="translate(1300.78125 0.223438)"/>
    <use xlink:href="#DejaVuSans-78" transform="translate(1362.304688 0.223438)"/>
    <use xlink:href="#DejaVuSans-70" transform="translate(1421.484375 0.223438)"/>
    <use xlink:href="#DejaVuSans-61" transform="translate(1484.960938 0.223438)"/>
    <use xlink:href="#DejaVuSans-6e" transform="translate(1546.240234 0.223438)"/>
    <use xlink:href="#DejaVuSans-73" transform="translate(1609.619141 0.223438)"/>
    <use xlink:href="#DejaVuSans-69" transform="translate(1661.71875 0.223438)"/>
    <use xlink:href="#DejaVuSans-6f" transform="translate(1689.501953 0.223438)"/>
    <use xlink:href="#DejaVuSans-6e" transform="translate(1750.683594 0.223438)"/>
    <use xlink:href="#DejaVuSans-20" transform="translate(1814.0625 0.223438)"/>
    <use xlink:href="#DejaVuSans-66" transform="translate(1845.849609 0.223438)"/>
    <use xlink:href="#DejaVuSans-6f" transform="translate(1881.054688 0.223438)"/>
    <use xlink:href="#DejaVuSans-72" transform="translate(1942.236328 0.223438)"/>
    <use xlink:href="#DejaVuSans-20" transform="translate(1983.349609 0.223438)"/>
    <use xlink:href="#DejaVuSans-Oblique-43" transform="translate(2015.136719 0.223438)"/>
    <use xlink:href="#DejaVuSans-28" transform="translate(2084.960938 0.223438)"/>
    <use xlink:href="#DejaVuSans-Oblique-73" transform="translate(2123.974609 0.223438)"/>
    <use xlink:href="#DejaVuSans-2c" transform="translate(2176.074219 0.223438)"/>
    <use xlink:href="#DejaVuSans-Oblique-74" transform="translate(2227.34375 0.223438)"/>
    <use xlink:href="#DejaVuSans-29" transform="translate(2266.552734 0.223438)"/>
    <use xlink:href="#DejaVuSans-3d" transform="translate(2325.048828 0.223438)"/>
    <use xlink:href="#DejaVuSans-Oblique-65" transform="translate(2428.320312 0.223438)"/>
    <use xlink:href="#DejaVuSans-2212" transform="translate(2494.493646 38.504688) scale(0.7)"/>
    <use xlink:href="#DejaVuSans-7c" transform="translate(2553.14599 38.504688) scale(0.7)"/>
    <use xlink:href="#DejaVuSans-Oblique-73" transform="translate(2576.729974 38.504688) scale(0.7)"/>
    <use xlink:href="#DejaVuSans-2212" transform="translate(2626.837396 38.504688) scale(0.7)"/>
    <use xlink:href="#DejaVuSans-Oblique-74" transform="translate(2699.127435 38.504688) scale(0.7)"/>
    <use xlink:href="#DejaVuSans-7c" transform="translate(2726.573724 38.504688) scale(0.7)"/>
   </g>
  </g>
 </g>
 <defs>
  <clipPath id="p1773d94a60">
   <rect x="54" y="34.56" width="334.8" height="221.76"/>
  </clipPath>
 </defs>
</svg>
