<?xml version="1.0" encoding="utf-8" standalone="no"?>
<!DOCTYPE svg PUBLIC "-//W3C//DTD SVG 1.1//EN"
  "http://www.w3.org/Graphics/SVG/1.1/DTD/svg11.dtd">
<svg xmlns:xlink="http://www.w3.org/1999/xlink" width="720pt" height="288pt" viewBox="0 0 720 288" xmlns="http://www.w3.org/2000/svg" version="1.1">
 <metadata>
  <rdf:RDF xmlns:dc="http://purl.org/dc/elements/1.1/" xmlns:cc="http://creativecommons.org/ns#" xmlns:rdf="http://www.w3.org/1999/02/22-rdf-syntax-ns#">
   <cc:Work>
    <dc:type rdf:resource="http://purl.org/dc/dcmitype/StillImage"/>
    <dc:date>2022-01-01T00:00:00+00:00</dc:date>
    <dc:format>image/svg+xml</dc:format>
    <dc:creator>
     <cc:Agent>
      <dc:title>Matplotlib v3.10.8, https://matplotlib.org/</dc:title>
     </cc:Agent>
    </dc:creator>
   </cc:Work>
  </rdf:RDF>
 </metadata>
 <defs>
  <style type="text/css">*{stroke-linejoin: round; stroke-linecap: butt}</style>
 </defs>
 <g id="figure_1">
  <g id="patch_1">
   <path d="M 0 288 
L 720 288 
L 720 0 
L 0 0 
z
" style="fill: #ffffff"/>
  </g>
  <g id="axes_1">
   <g id="patch_2">
    <path d="M 202.32 256.32 
L 424.08 256.32 
L 424.08 34.56 
L 202.32 34.56 
z
" style="fill: #ffffff"/>
   </g>
   <g id="matplotlib.axis_1">
    <g id="xtick_1">
     <g id="line2d_1">
      <path d="M 202.32 256.32 
L 202.32 34.56 
" clip-path="url(#p77cc757973)" style="fill: none; stroke: #b0b0b0; stroke-width: 0.8; stroke-linecap: square"/>
     </g>
     <g id="line2d_2">
      <defs>
       <path id="mbc781b9515" d="M 0 0 
L 0 3.5 
" style="stroke: #000000; stroke-width: 0.8"/>
      </defs>
      <g>
       <use xlink:href="#mbc781b9515" x="202.32" y="256.32" style="stroke: #000000; stroke-width: 0.8"/>
      </g>
     </g>
     <g id="text_1">
      <!-- −3 -->
      <g transform="translate(194.948906 270.918437) scale(0.1 -0.1)">
       <defs>
        <path id="DejaVuSans-2212" d="M 678 2272 
L 4684 2272 
L 4684 1741 
L 678 1741 
L 678 2272 
z
" transform="scale(0.015625)"/>
        <path id="DejaVuSans-33" d="M 2597 2516 
Q 3050 2419 3304 2112 
Q 3559 1806 3559 1356 
Q 3559 666 3084 287 
Q 2609 -91 1734 -91 
Q 1441 -91 1130 -33 
Q 819 25 488 141 
L 488 750 
Q 750 597 1062 519 
Q 1375 441 1716 441 
Q 2309 441 2620 675 
Q 2931 909 2931 1356 
Q 2931 1769 2642 2001 
Q 2353 2234 1838 2234 
L 1294 2234 
L 1294 2753 
L 1863 2753 
Q 2328 2753 2575 2939 
Q 2822 3125 2822 3475 
Q 2822 3834 2567 4026 
Q 2313 4219 1838 4219 
Q 1578 4219 1281 4162 
Q 984 4106 628 3988 
L 628 4550 
Q 988 4650 1302 4700 
Q 1616 4750 1894 4750 
Q 2613 4750 3031 4423 
Q 3450 4097 3450 3541 
Q 3450 3153 3228 2886 
Q 3006 2619 2597 2516 
z
" transform="scale(0.015625)"/>
       </defs>
       <use xlink:href="#DejaVuSans-2212"/>
       <use xlink:href="#DejaVuSans-33" transform="translate(83.789062 0)"/>
      </g>
     </g>
    </g>
    <g id="xtick_2">
     <g id="line2d_3">
      <path d="M 239.28 256.32 
L 239.28 34.56 
" clip-path="url(#p77cc757973)" style="fill: none; stroke: #b0b0b0; stroke-width: 0.8; stroke-linecap: square"/>
     </g>
     <g id="line2d_4">
      <g>
       <use xlink:href="#mbc781b9515" x="239.28" y="256.32" style="stroke: #000000; stroke-width: 0.8"/>
      </g>
     </g>
     <g id="text_2">
      <!-- −2 -->
      <g transform="translate(231.908906 270.918437) scale(0.1 -0.1)">
       <defs>
        <path id="DejaVuSans-32" d="M 1228 531 
L 3431 531 
L 3431 0 
L 469 0 
L 469 531 
Q 828 903 1448 1529 
Q 2069 2156 2228 2338 
Q 2531 2678 2651 2914 
Q 2772 3150 2772 3378 
Q 2772 3750 2511 3984 
Q 2250 4219 1831 4219 
Q 1534 4219 1204 4116 
Q 875 4013 500 3803 
L 500 4441 
Q 881 4594 1212 4672 
Q 1544 4750 1819 4750 
Q 2544 4750 2975 4387 
Q 3406 4025 3406 3419 
Q 3406 3131 3298 2873 
Q 3191 2616 2906 2266 
Q 2828 2175 2409 1742 
Q 1991 1309 1228 531 
z
" transform="scale(0.015625)"/>
       </defs>
       <use xlink:href="#DejaVuSans-2212"/>
       <use xlink:href="#DejaVuSans-32" transform="translate(83.789062 0)"/>
      </g>
     </g>
    </g>
    <g id="xtick_3">
     <g id="line2d_5">
      <path d="M 276.24 256.32 
L 276.24 34.56 
" clip-path="url(#p77cc757973)" style="fill: none; stroke: #b0b0b0; stroke-width: 0.8; stroke-linecap: square"/>
     </g>
     <g id="line2d_6">
      <g>
       <use xlink:href="#mbc781b9515" x="276.24" y="256.32" style="stroke: #000000; stroke-width: 0.8"/>
      </g>
     </g>
     <g id="text_3">
      <!-- −1 -->
      <g transform="translate(268.868906 270.918437) scale(0.1 -0.1)">
       <defs>
        <path id="DejaVuSans-31" d="M 794 531 
L 1825 531 
L 1825 4091 
L 703 3866 
L 703 4441 
L 1819 4666 
L 2450 4666 
L 2450 531 
L 3481 531 
L 3481 0 
L 794 0 
L 794 531 
z
" transform="scale(0.015625)"/>
       </defs>
       <use xlink:href="#DejaVuSans-2212"/>
       <use xlink:href="#DejaVuSans-31" transform="translate(83.789062 0)"/>
      </g>
     </g>
    </g>
    <g id="xtick_4">
     <g id="line2d_7">
      <path d="M 313.2 256.32 
L 313.2 34.56 
" clip-path="url(#p77cc757973)" style="fill: none; stroke: #b0b0b0; stroke-width: 0.8; stroke-linecap: square"/>
     </g>
     <g id="line2d_8">
      <g>
       <use xlink:href="#mbc781b9515" x="313.2" y="256.32" style="stroke: #000000; stroke-width: 0.8"/>
      </g>
     </g>
     <g id="text_4">
      <!-- 0 -->
      <g transform="translate(310.01875 270.918437) scale(0.1 -0.1)">
       <defs>
        <path id="DejaVuSans-30" d="M 2034 4250 
Q 1547 4250 1301 3770 
Q 1056 3291 1056 2328 
Q 1056 1369 1301 889 
Q 1547 409 2034 409 
Q 2525 409 2770 889 
Q 3016 1369 3016 2328 
Q 3016 3291 2770 3770 
Q 2525 4250 2034 4250 
z
M 2034 4750 
Q 2819 4750 3233 4129 
Q 3647 3509 3647 2328 
Q 3647 1150 3233 529 
Q 2819 -91 2034 -91 
Q 1250 -91 836 529 
Q 422 1150 422 2328 
Q 422 3509 836 4129 
Q 1250 4750 2034 4750 
z
" transform="scale(0.015625)"/>
       </defs>
       <use xlink:href="#DejaVuSans-30"/>
      </g>
     </g>
    </g>
    <g id="xtick_5">
     <g id="line2d_9">
      <path d="M 350.16 256.32 
L 350.16 34.56 
" clip-path="url(#p77cc757973)" style="fill: none; stroke: #b0b0b0; stroke-width: 0.8; stroke-linecap: square"/>
     </g>
     <g id="line2d_10">
      <g>
       <use xlink:href="#mbc781b9515" x="350.16" y="256.32" style="stroke: #000000; stroke-width: 0.8"/>
      </g>
     </g>
     <g id="text_5">
      <!-- 1 -->
      <g transform="translate(346.97875 270.918437) scale(0.1 -0.1)">
       <use xlink:href="#DejaVuSans-31"/>
      </g>
     </g>
    </g>
    <g id="xtick_6">
     <g id="line2d_11">
      <path d="M 387.12 256.32 
L 387.12 34.56 
" clip-path="url(#p77cc757973)" style="fill: none; stroke: #b0b0b0; stroke-width: 0.8; stroke-linecap: square"/>
     </g>
     <g id="line2d_12">
      <g>
       <use xlink:href="#mbc781b9515" x="387.12" y="256.32" style="stroke: #000000; stroke-width: 0.8"/>
      </g>
     </g>
     <g id="text_6">
      <!-- 2 -->
      <g transform="translate(383.93875 270.918437) scale(0.1 -0.1)">
       <use xlink:href="#DejaVuSans-32"/>
      </g>
     </g>
    </g>
    <g id="xtick_7">
     <g id="line2d_13">
      <path d="M 424.08 256.32 
L 424.08 34.56 
" clip-path="url(#p77cc757973)" style="fill: none; stroke: #b0b0b0; stroke-width: 0.8; stroke-linecap: square"/>
     </g>
     <g id="line2d_14">
      <g>
       <use xlink:href="#mbc781b9515" x="424.08" y="256.32" style="stroke: #000000; stroke-width: 0.8"/>
      </g>
     </g>
     <g id="text_7">
      <!-- 3 -->
      <g transform="translate(420.89875 270.918437) scale(0.1 -0.1)">
       <use xlink:href="#DejaVuSans-33"/>
      </g>
     </g>
    </g>
    <g id="text_8">
     <!-- $s$ -->
     <g transform="translate(310.55 284.596563) scale(0.1 -0.1)">
      <defs>
       <path id="DejaVuSans-Oblique-73" d="M 3200 3397 
L 3091 2853 
Q 2863 2978 2609 3040 
Q 2356 3103 2088 3103 
Q 1634 3103 1373 2948 
Q 1113 2794 1113 2528 
Q 1113 2219 1719 2053 
Q 1766 2041 1788 2034 
L 1972 1978 
Q 2547 1819 2739 1644 
Q 2931 1469 2931 1166 
Q 2931 609 2489 259 
Q 2047 -91 1331 -91 
Q 1053 -91 747 -37 
Q 441 16 72 128 
L 184 722 
Q 500 559 806 475 
Q 1113 391 1394 391 
Q 1816 391 2080 572 
Q 2344 753 2344 1031 
Q 2344 1331 1650 1516 
L 1591 1531 
L 1394 1581 
Q 956 1697 753 1886 
Q 550 2075 550 2369 
Q 550 2928 970 3256 
Q 1391 3584 2113 3584 
Q 2397 3584 2667 3537 
Q 2938 3491 3200 3397 
z
" transform="scale(0.015625)"/>
      </defs>
      <use xlink:href="#DejaVuSans-Oblique-73"/>
     </g>
    </g>
   </g>
   <g id="matplotlib.axis_2">
    <g id="ytick_1">
     <g id="line2d_15">
      <path d="M 202.32 256.32 
L 424.08 256.32 
" clip-path="url(#p77cc757973)" style="fill: none; stroke: #b0b0b0; stroke-width: 0.8; stroke-linecap: square"/>
     </g>
     <g id="line2d_16">
      <defs>
       <path id="m35a6f42f60" d="M 0 0 
L -3.5 0 
" style="stroke: #000000; stroke-width: 0.8"/>
      </defs>
      <g>
       <use xlink:href="#m35a6f42f60" x="202.32" y="256.32" style="stroke: #000000; stroke-width: 0.8"/>
      </g>
     </g>
     <g id="text_9">
      <!-- −3 -->
      <g transform="translate(180.577813 260.119219) scale(0.1 -0.1)">
       <use xlink:href="#DejaVuSans-2212"/>
       <use xlink:href="#DejaVuSans-33" transform="translate(83.789062 0)"/>
      </g>
     </g>
    </g>
    <g id="ytick_2">
     <g id="line2d_17">
      <path d="M 202.32 219.36 
L 424.08 219.36 
" clip-path="url(#p77cc757973)" style="fill: none; stroke: #b0b0b0; stroke-width: 0.8; stroke-linecap: square"/>
     </g>
     <g id="line2d_18">
      <g>
       <use xlink:href="#m35a6f42f60" x="202.32" y="219.36" style="stroke: #000000; stroke-width: 0.8"/>
      </g>
     </g>
     <g id="text_10">
      <!-- −2 -->
      <g transform="translate(180.577813 223.159219) scale(0.1 -0.1)">
       <use xlink:href="#DejaVuSans-2212"/>
       <use xlink:href="#DejaVuSans-32" transform="translate(83.789062 0)"/>
      </g>
     </g>
    </g>
    <g id="ytick_3">
     <g id="line2d_19">
      <path d="M 202.32 182.4 
L 424.08 182.4 
" clip-path="url(#p77cc757973)" style="fill: none; stroke: #b0b0b0; stroke-width: 0.8; stroke-linecap: square"/>
     </g>
     <g id="line2d_20">
      <g>
       <use xlink:href="#m35a6f42f60" x="202.32" y="182.4" style="stroke: #000000; stroke-width: 0.8"/>
      </g>
     </g>
     <g id="text_11">
      <!-- −1 -->
      <g transform="translate(180.577813 186.199219) scale(0.1 -0.1)">
       <use xlink:href="#DejaVuSans-2212"/>
       <use xlink:href="#DejaVuSans-31" transform="translate(83.789062 0)"/>
      </g>
     </g>
    </g>
    <g id="ytick_4">
     <g id="line2d_21">
      <path d="M 202.32 145.44 
L 424.08 145.44 
" clip-path="url(#p77cc757973)" style="fill: none; stroke: #b0b0b0; stroke-width: 0.8; stroke-linecap: square"/>
     </g>
     <g id="line2d_22">
      <g>
       <use xlink:href="#m35a6f42f60" x="202.32" y="145.44" style="stroke: #000000; stroke-width: 0.8"/>
      </g>
     </g>
     <g id="text_12">
      <!-- 0 -->
      <g transform="translate(188.9575 149.239219) scale(0.1 -0.1)">
       <use xlink:href="#DejaVuSans-30"/>
      </g>
     </g>
    </g>
    <g id="ytick_5">
     <g id="line2d_23">
      <path d="M 202.32 108.48 
L 424.08 108.48 
" clip-path="url(#p77cc757973)" style="fill: none; stroke: #b0b0b0; stroke-width: 0.8; stroke-linecap: square"/>
     </g>
     <g id="line2d_24">
      <g>
       <use xlink:href="#m35a6f42f60" x="202.32" y="108.48" style="stroke: #000000; stroke-width: 0.8"/>
      </g>
     </g>
     <g id="text_13">
      <!-- 1 -->
      <g transform="translate(188.9575 112.279219) scale(0.1 -0.1)">
       <use xlink:href="#DejaVuSans-31"/>
      </g>
     </g>
    </g>
    <g id="ytick_6">
     <g id="line2d_25">
      <path d="M 202.32 71.52 
L 424.08 71.52 
" clip-path="url(#p77cc757973)" style="fill: none; stroke: #b0b0b0; stroke-width: 0.8; stroke-linecap: square"/>
     </g>
     <g id="line2d_26">
      <g>
       <use xlink:href="#m35a6f42f60" x="202.32" y="71.52" style="stroke: #000000; stroke-width: 0.8"/>
      </g>
     </g>
     <g id="text_14">
      <!-- 2 -->
      <g transform="translate(188.9575 75.319219) scale(0.1 -0.1)">
       <use xlink:href="#DejaVuSans-32"/>
      </g>
     </g>
    </g>
    <g id="ytick_7">
     <g id="line2d_27">
      <path d="M 202.32 34.56 
L 424.08 34.56 
" clip-path="url(#p77cc757973)" style="fill: none; stroke: #b0b0b0; stroke-width: 0.8; stroke-linecap: square"/>
     </g>
     <g id="line2d_28">
      <g>
       <use xlink:href="#m35a6f42f60" x="202.32" y="34.56" style="stroke: #000000; stroke-width: 0.8"/>
      </g>
     </g>
     <g id="text_15">
      <!-- 3 -->
      <g transform="translate(188.9575 38.359219) scale(0.1 -0.1)">
       <use xlink:href="#DejaVuSans-33"/>
      </g>
     </g>
    </g>
    <g id="text_16">
     <!-- $t$ -->
     <g transform="translate(174.498125 147.44) rotate(-90) scale(0.1 -0.1)">
      <defs>
       <path id="DejaVuSans-Oblique-74" d="M 2706 3500 
L 2619 3053 
L 1472 3053 
L 1100 1153 
Q 1081 1047 1072 975 
Q 1063 903 1063 863 
Q 1063 663 1183 572 
Q 1303 481 1569 481 
L 2150 481 
L 2053 0 
L 1503 0 
Q 991 0 739 200 
Q 488 400 488 806 
Q 488 878 497 964 
Q 506 1050 525 1153 
L 897 3053 
L 409 3053 
L 500 3500 
L 978 3500 
L 1172 4494 
L 1747 4494 
L 1556 3500 
L 2706 3500 
z
" transform="scale(0.015625)"/>
      </defs>
      <use xlink:href="#DejaVuSans-Oblique-74" transform="translate(0 0.78125)"/>
     </g>
    </g>
   </g>
   <g id="QuadContourSet_1">
    <path d="M 310.983028 256.32 
L 311.196345 180.09 
L 311.428944 159.3 
L 311.734505 148.905 
L 312.163738 147.1725 
L 311.4675 146.476262 
L 309.735 146.905495 
L 304.5375 147.116706 
L 282.015 147.419892 
L 243.9 147.581132 
L 202.32 147.656972 
M 424.08 148.443337 
L 366.9075 148.68663 
L 346.1175 148.95223 
L 335.7225 149.35424 
L 330.525 149.7288 
L 327.06 150.133173 
L 324.345478 150.6375 
L 323.595 150.878853 
L 321.8625 151.654424 
L 320.7932 152.37 
L 320.13 153.0332 
L 319.414424 154.1025 
L 318.3975 156.585478 
L 317.893173 159.3 
L 317.4888 162.765 
L 317.11424 167.9625 
L 316.761427 176.625 
L 316.566545 187.02 
L 316.347081 214.74 
L 316.203337 256.32 
M 202.32 142.436663 
L 259.4925 142.19337 
L 280.2825 141.92777 
L 290.6775 141.52576 
L 295.875 141.1512 
L 299.34 140.746827 
L 302.054522 140.2425 
L 302.805 140.001147 
L 304.5375 139.225576 
L 305.6068 138.51 
L 306.27 137.8468 
L 306.985576 136.7775 
L 308.0025 134.294522 
L 308.506827 131.58 
L 308.9112 128.115 
L 309.28576 122.9175 
L 309.638573 114.255 
L 309.833455 103.86 
L 310.052919 76.14 
L 310.196663 34.56 
M 315.416972 34.56 
L 315.203655 110.79 
L 314.971056 131.58 
L 314.665495 141.975 
L 314.236262 143.7075 
L 314.9325 144.403738 
L 316.665 143.974505 
L 321.8625 143.763294 
L 344.385 143.460108 
L 382.5 143.298868 
L 424.08 143.223028 
L 424.08 143.223028 
" clip-path="url(#p77cc757973)" style="fill: none; stroke: #440154; stroke-opacity: 0.996094"/>
    <path d="M 307.464166 256.32 
L 307.819602 207.81 
L 308.22451 180.09 
L 308.619981 166.23 
L 308.9788 159.3 
L 309.443912 154.1025 
L 309.98853 150.6375 
L 310.719206 148.905 
L 309.735 147.920794 
L 308.0025 148.65147 
L 304.5375 149.196088 
L 299.34 149.6612 
L 292.41 150.020019 
L 280.2825 150.378513 
L 259.4925 150.717243 
L 226.575 151.031292 
L 202.32 151.175834 
M 424.08 155.181778 
L 399.825 155.690433 
L 385.965 156.155252 
L 373.8375 156.74895 
L 363.4425 157.476794 
L 358.245 158.014203 
L 353.0475 158.708445 
L 349.499522 159.3 
L 346.1175 160.069638 
L 342.6525 161.057721 
L 339.1875 162.475768 
L 337.455 163.417332 
L 335.7225 164.56604 
L 333.82627 166.23 
L 332.2575 168.053253 
L 330.525 170.842869 
L 329.478138 173.16 
L 328.7925 174.965841 
L 327.829638 178.3575 
L 327.04436 181.8225 
L 326.217354 187.02 
L 325.395223 193.95 
L 324.963689 199.1475 
L 324.31735 209.5425 
L 323.715017 223.4025 
L 323.320941 237.2625 
L 322.941778 256.32 
M 202.32 135.698222 
L 226.575 135.189567 
L 240.435 134.724748 
L 252.5625 134.13105 
L 262.9575 133.403206 
L 268.155 132.865797 
L 273.3525 132.171555 
L 276.900478 131.58 
L 280.2825 130.810362 
L 283.7475 129.822279 
L 287.2125 128.404232 
L 288.945 127.462668 
L 290.6775 126.31396 
L 292.57373 124.65 
L 294.1425 122.826747 
L 295.875 120.037131 
L 296.921862 117.72 
L 297.6075 115.914159 
L 298.570362 112.5225 
L 299.35564 109.0575 
L 300.182646 103.86 
L 301.004777 96.93 
L 301.436311 91.7325 
L 302.08265 81.3375 
L 302.684983 67.4775 
L 303.079059 53.6175 
L 303.458222 34.56 
M 318.935834 34.56 
L 318.580398 83.07 
L 318.17549 110.79 
L 317.780019 124.65 
L 317.4212 131.58 
L 316.956088 136.7775 
L 316.41147 140.2425 
L 315.680794 141.975 
L 316.665 142.959206 
L 318.3975 142.22853 
L 321.8625 141.683912 
L 327.06 141.2188 
L 333.99 140.859981 
L 346.1175 140.501487 
L 366.9075 140.162757 
L 399.825 139.848708 
L 424.08 139.704166 
L 424.08 139.704166 
" clip-path="url(#p77cc757973)" style="fill: none; stroke: #481f70; stroke-opacity: 0.996094"/>
    <path d="M 304.33744 256.32 
L 304.848428 214.74 
L 305.322305 192.2175 
L 305.869046 176.625 
L 306.461407 166.23 
L 306.906378 161.0325 
L 307.595462 155.835 
L 308.345508 152.37 
L 310.030621 148.905 
L 309.735 148.609379 
L 306.27 150.294492 
L 302.805 151.044538 
L 299.34 151.540521 
L 294.1425 152.047981 
L 285.48 152.601354 
L 273.3525 153.108499 
L 256.0275 153.566499 
L 230.04 153.992973 
L 202.32 154.30256 
M 424.08 163.253091 
L 408.4875 164.091939 
L 398.0925 164.840233 
L 387.6975 165.834051 
L 380.7675 166.699353 
L 373.8375 167.80379 
L 370.3725 168.495981 
L 365.175 169.740565 
L 361.71 170.795384 
L 358.245 172.067097 
L 354.78 173.653717 
L 352.560691 174.8925 
L 349.5825 176.950606 
L 347.85 178.413008 
L 346.1175 180.150535 
L 344.385 182.245021 
L 342.363439 185.2875 
L 340.570988 188.7525 
L 339.14624 192.2175 
L 338.008387 195.6825 
L 337.055478 199.1475 
L 335.7225 205.208188 
L 334.713038 211.275 
L 333.787289 218.205 
L 332.903402 226.8675 
L 332.075576 237.2625 
L 331.266258 251.1225 
L 331.013091 256.32 
M 202.32 127.626909 
L 217.9125 126.788061 
L 228.3075 126.039767 
L 238.7025 125.045949 
L 245.6325 124.180647 
L 252.5625 123.07621 
L 256.0275 122.384019 
L 261.225 121.139435 
L 264.69 120.084616 
L 268.155 118.812903 
L 271.62 117.226283 
L 273.839309 115.9875 
L 276.8175 113.929394 
L 278.55 112.466992 
L 280.2825 110.729465 
L 282.015 108.634979 
L 284.036561 105.5925 
L 285.829012 102.1275 
L 287.25376 98.6625 
L 288.391613 95.1975 
L 289.344522 91.7325 
L 290.6775 85.671812 
L 291.686962 79.605 
L 292.612711 72.675 
L 293.496598 64.0125 
L 294.324424 53.6175 
L 295.133742 39.7575 
L 295.386909 34.56 
M 322.06256 34.56 
L 321.551572 76.14 
L 321.077695 98.6625 
L 320.530954 114.255 
L 319.938593 124.65 
L 319.493622 129.8475 
L 318.804538 135.045 
L 318.054492 138.51 
L 316.369379 141.975 
L 316.665 142.270621 
L 320.13 140.585508 
L 323.595 139.835462 
L 327.06 139.339479 
L 332.2575 138.832019 
L 340.92 138.278646 
L 353.0475 137.771501 
L 370.3725 137.313501 
L 396.36 136.887027 
L 424.08 136.57744 
L 424.08 136.57744 
" clip-path="url(#p77cc757973)" style="fill: none; stroke: #46327e; stroke-opacity: 0.996094"/>
    <path d="M 301.382112 256.32 
L 301.951635 223.4025 
L 302.560128 200.88 
L 303.185659 185.2875 
L 303.79828 174.8925 
L 304.380619 167.9625 
L 304.973885 162.765 
L 305.511602 159.3 
L 306.27 155.716073 
L 306.744948 154.1025 
L 308.0025 151.619755 
L 308.548137 150.6375 
L 308.0025 150.091863 
L 304.5375 151.895052 
L 302.805 152.406722 
L 299.34 153.128398 
L 294.1425 153.885527 
L 287.2125 154.574181 
L 278.55 155.177129 
L 266.4225 155.759463 
L 247.365 156.393635 
L 223.11 156.929378 
L 202.32 157.257888 
M 424.08 172.997138 
L 415.4175 173.904347 
L 406.755 174.996743 
L 398.0925 176.380144 
L 392.895 177.397843 
L 387.6975 178.590734 
L 382.304244 180.09 
L 377.250434 181.8225 
L 373.129762 183.555 
L 369.697754 185.2875 
L 366.794642 187.02 
L 363.4425 189.437075 
L 361.71 190.897838 
L 359.9775 192.545165 
L 358.245 194.41809 
L 355.889699 197.415 
L 354.70732 199.1475 
L 352.684716 202.6125 
L 350.996277 206.0775 
L 349.562816 209.5425 
L 347.790418 214.74 
L 346.1175 220.865442 
L 344.799126 226.8675 
L 343.840603 232.065 
L 342.6525 239.727369 
L 341.664347 247.6575 
L 340.757138 256.32 
M 202.32 117.882862 
L 210.9825 116.975653 
L 219.645 115.883257 
L 228.3075 114.499856 
L 233.505 113.482157 
L 238.7025 112.289266 
L 244.095756 110.79 
L 249.149566 109.0575 
L 253.270238 107.325 
L 256.702246 105.5925 
L 259.605358 103.86 
L 262.9575 101.442925 
L 264.69 99.982162 
L 266.4225 98.334835 
L 268.155 96.46191 
L 270.510301 93.465 
L 271.69268 91.7325 
L 273.715284 88.2675 
L 275.403723 84.8025 
L 276.837184 81.3375 
L 278.609582 76.14 
L 280.2825 70.014558 
L 281.600874 64.0125 
L 282.559397 58.815 
L 283.7475 51.152631 
L 284.735653 43.2225 
L 285.642862 34.56 
M 325.017888 34.56 
L 324.448365 67.4775 
L 323.839872 90 
L 323.214341 105.5925 
L 322.60172 115.9875 
L 322.019381 122.9175 
L 321.426115 128.115 
L 320.888398 131.58 
L 320.13 135.163927 
L 319.655052 136.7775 
L 318.3975 139.260245 
L 317.851863 140.2425 
L 318.3975 140.788137 
L 321.8625 138.984948 
L 323.595 138.473278 
L 327.06 137.751602 
L 332.2575 136.994473 
L 339.1875 136.305819 
L 347.85 135.702871 
L 359.9775 135.120537 
L 379.035 134.486365 
L 403.29 133.950622 
L 424.08 133.622112 
L 424.08 133.622112 
" clip-path="url(#p77cc757973)" style="fill: none; stroke: #423f85; stroke-opacity: 0.996094"/>
    <path d="M 298.444749 256.32 
L 299.089039 228.6 
L 299.837904 206.0775 
L 300.494724 192.2175 
L 301.168844 181.8225 
L 301.929227 173.16 
L 302.805 166.115695 
L 303.701126 161.0325 
L 304.5375 157.560769 
L 305.115918 155.835 
L 306.27 153.575482 
L 306.996296 152.37 
L 306.27 151.643704 
L 304.5375 152.695715 
L 302.805 153.524082 
L 301.0725 154.104837 
L 297.6075 154.938874 
L 292.524305 155.835 
L 288.945 156.318408 
L 282.015 157.046776 
L 273.3525 157.717816 
L 261.225 158.41728 
L 245.6325 159.062798 
L 223.11 159.735411 
L 202.32 160.195251 
M 424.08 185.2875 
L 415.4175 186.975366 
L 410.22 188.183996 
L 405.0225 189.570357 
L 399.825 191.18565 
L 394.6275 193.095787 
L 391.1625 194.575025 
L 387.6975 196.260921 
L 384.2325 198.2012 
L 380.7675 200.454798 
L 377.908238 202.6125 
L 375.57 204.622762 
L 372.382762 207.81 
L 370.3725 210.148238 
L 368.214798 213.0075 
L 365.9612 216.4725 
L 364.020921 219.9375 
L 362.335025 223.4025 
L 360.855787 226.8675 
L 359.544165 230.3325 
L 357.838424 235.53 
L 356.378577 240.7275 
L 354.735366 247.6575 
L 353.36271 254.5875 
L 353.0475 256.32 
M 202.32 105.5925 
L 210.9825 103.904634 
L 216.18 102.696004 
L 221.3775 101.309643 
L 226.575 99.69435 
L 231.7725 97.784213 
L 235.2375 96.304975 
L 238.7025 94.619079 
L 242.1675 92.6788 
L 245.6325 90.425202 
L 248.491762 88.2675 
L 250.83 86.257238 
L 254.017238 83.07 
L 256.0275 80.731762 
L 258.185202 77.8725 
L 260.4388 74.4075 
L 262.379079 70.9425 
L 264.064975 67.4775 
L 265.544213 64.0125 
L 266.855835 60.5475 
L 268.561576 55.35 
L 270.021423 50.1525 
L 271.664634 43.2225 
L 273.03729 36.2925 
L 273.3525 34.56 
M 327.955251 34.56 
L 327.310961 62.28 
L 326.562096 84.8025 
L 325.905276 98.6625 
L 325.231156 109.0575 
L 324.470773 117.72 
L 323.595 124.764305 
L 322.698874 129.8475 
L 321.8625 133.319231 
L 321.284082 135.045 
L 320.13 137.304518 
L 319.403704 138.51 
L 320.13 139.236296 
L 321.8625 138.184285 
L 323.595 137.355918 
L 325.3275 136.775163 
L 328.7925 135.941126 
L 333.875695 135.045 
L 337.455 134.561592 
L 344.385 133.833224 
L 353.0475 133.162184 
L 365.175 132.46272 
L 380.7675 131.817202 
L 403.29 131.144589 
L 424.08 130.684749 
L 424.08 130.684749 
" clip-path="url(#p77cc757973)" style="fill: none; stroke: #3e4c8a; stroke-opacity: 0.996094"/>
    <path d="M 295.156385 256.32 
L 295.202011 254.5875 
L 295.24857 252.855 
L 295.296095 251.1225 
L 295.344623 249.39 
L 295.39419 247.6575 
L 295.444836 245.925 
L 295.496602 244.1925 
L 295.549531 242.46 
L 295.603669 240.7275 
L 295.659065 238.995 
L 295.715771 237.2625 
L 295.773841 235.53 
L 295.833332 233.7975 
L 295.875 232.615141 
L 295.893749 232.065 
L 295.954491 230.3325 
L 296.016841 228.6 
L 296.080873 226.8675 
L 296.146668 225.135 
L 296.214312 223.4025 
L 296.283898 221.67 
L 296.355523 219.9375 
L 296.429295 218.205 
L 296.505327 216.4725 
L 296.583742 214.74 
L 296.664672 213.0075 
L 296.748259 211.275 
L 296.834659 209.5425 
L 296.924038 207.81 
L 297.016578 206.0775 
L 297.112475 204.345 
L 297.211945 202.6125 
L 297.31522 200.88 
L 297.422556 199.1475 
L 297.534229 197.415 
L 297.6075 196.327763 
L 297.649552 195.6825 
L 297.768213 193.95 
L 297.892375 192.2175 
L 298.022492 190.485 
L 298.159073 188.7525 
L 298.302685 187.02 
L 298.453966 185.2875 
L 298.613628 183.555 
L 298.782473 181.8225 
L 298.961395 180.09 
L 299.151385 178.3575 
L 299.34 176.743558 
L 299.353399 176.625 
L 299.567762 174.8925 
L 299.798821 173.16 
L 300.048814 171.4275 
L 300.320287 169.695 
L 300.61599 167.9625 
L 300.938454 166.23 
L 301.0725 165.596406 
L 301.297683 164.4975 
L 301.706197 162.765 
L 302.168935 161.0325 
L 302.684443 159.3 
L 302.805 158.982137 
L 303.326867 157.5675 
L 304.222495 155.835 
L 304.5375 155.349054 
L 305.330751 154.1025 
L 304.5375 153.309249 
L 303.290946 154.1025 
L 302.805 154.417505 
L 301.0725 155.313133 
L 299.657863 155.835 
L 299.34 155.955557 
L 297.6075 156.471065 
L 295.875 156.933803 
L 294.1425 157.342317 
L 293.043594 157.5675 
L 292.41 157.701546 
L 290.6775 158.02401 
L 288.945 158.319713 
L 287.2125 158.591186 
L 285.48 158.841179 
L 283.7475 159.072238 
L 282.015 159.286601 
L 281.896442 159.3 
L 280.2825 159.488615 
L 278.55 159.678605 
L 276.8175 159.857527 
L 275.085 160.026372 
L 273.3525 160.186034 
L 271.62 160.337315 
L 269.8875 160.480927 
L 268.155 160.617508 
L 266.4225 160.747625 
L 264.69 160.871787 
L 262.9575 160.990448 
L 262.312237 161.0325 
L 261.225 161.105771 
L 259.4925 161.217444 
L 257.76 161.32478 
L 256.0275 161.428055 
L 254.295 161.527525 
L 252.5625 161.623422 
L 250.83 161.715962 
L 249.0975 161.805341 
L 247.365 161.891741 
L 245.6325 161.975328 
L 243.9 162.056258 
L 242.1675 162.134673 
L 240.435 162.210705 
L 238.7025 162.284477 
L 236.97 162.356102 
L 235.2375 162.425688 
L 233.505 162.493332 
L 231.7725 162.559127 
L 230.04 162.623159 
L 228.3075 162.685509 
L 226.575 162.746251 
L 226.024859 162.765 
L 224.8425 162.806668 
L 223.11 162.866159 
L 221.3775 162.924229 
L 219.645 162.980935 
L 217.9125 163.036331 
L 216.18 163.090469 
L 214.4475 163.143398 
L 212.715 163.195164 
L 210.9825 163.24581 
L 209.25 163.295377 
L 207.5175 163.343905 
L 205.785 163.39143 
L 204.0525 163.437989 
L 202.32 163.483615 
M 424.08 203.12029 
L 422.3475 203.702369 
L 420.615 204.30481 
L 420.502588 204.345 
L 418.8825 204.945728 
L 417.15 205.611202 
L 415.976331 206.0775 
L 415.4175 206.307777 
L 413.685 207.044647 
L 411.9525 207.81 
L 411.9525 207.81 
L 410.22 208.628091 
L 408.4875 209.479187 
L 408.362614 209.5425 
L 406.755 210.38833 
L 405.135765 211.275 
L 405.0225 211.339361 
L 403.29 212.356854 
L 402.224605 213.0075 
L 401.5575 213.4304 
L 399.825 214.570906 
L 399.577101 214.74 
L 398.0925 215.791575 
L 397.168169 216.4725 
L 396.36 217.090749 
L 394.95906 218.205 
L 394.6275 218.478869 
L 392.928537 219.9375 
L 392.895 219.967405 
L 391.1625 221.571477 
L 391.060106 221.67 
L 389.43 223.300106 
L 389.331477 223.4025 
L 387.727405 225.135 
L 387.6975 225.168537 
L 386.238869 226.8675 
L 385.965 227.19906 
L 384.850749 228.6 
L 384.2325 229.408169 
L 383.551575 230.3325 
L 382.5 231.817101 
L 382.330906 232.065 
L 381.1904 233.7975 
L 380.7675 234.464605 
L 380.116854 235.53 
L 379.099361 237.2625 
L 379.035 237.375765 
L 378.14833 238.995 
L 377.3025 240.602614 
L 377.239187 240.7275 
L 376.388091 242.46 
L 375.57 244.1925 
L 375.57 244.1925 
L 374.804647 245.925 
L 374.067777 247.6575 
L 373.8375 248.216331 
L 373.371202 249.39 
L 372.705728 251.1225 
L 372.105 252.742588 
L 372.06481 252.855 
L 371.462369 254.5875 
L 370.88029 256.32 
M 202.32 87.75971 
L 204.0525 87.177631 
L 205.785 86.57519 
L 205.897412 86.535 
L 207.5175 85.934272 
L 209.25 85.268798 
L 210.423669 84.8025 
L 210.9825 84.572223 
L 212.715 83.835353 
L 214.4475 83.07 
L 214.4475 83.07 
L 216.18 82.251909 
L 217.9125 81.400813 
L 218.037386 81.3375 
L 219.645 80.49167 
L 221.264235 79.605 
L 221.3775 79.540639 
L 223.11 78.523146 
L 224.175395 77.8725 
L 224.8425 77.4496 
L 226.575 76.309094 
L 226.822899 76.14 
L 228.3075 75.088425 
L 229.231831 74.4075 
L 230.04 73.789251 
L 231.44094 72.675 
L 231.7725 72.401131 
L 233.471463 70.9425 
L 233.505 70.912595 
L 235.2375 69.308523 
L 235.339894 69.21 
L 236.97 67.579894 
L 237.068523 67.4775 
L 238.672595 65.745 
L 238.7025 65.711463 
L 240.161131 64.0125 
L 240.435 63.68094 
L 241.549251 62.28 
L 242.1675 61.471831 
L 242.848425 60.5475 
L 243.9 59.062899 
L 244.069094 58.815 
L 245.2096 57.0825 
L 245.6325 56.415395 
L 246.283146 55.35 
L 247.300639 53.6175 
L 247.365 53.504235 
L 248.25167 51.885 
L 249.0975 50.277386 
L 249.160813 50.1525 
L 250.011909 48.42 
L 250.83 46.6875 
L 250.83 46.6875 
L 251.595353 44.955 
L 252.332223 43.2225 
L 252.5625 42.663669 
L 253.028798 41.49 
L 253.694272 39.7575 
L 254.295 38.137412 
L 254.33519 38.025 
L 254.937631 36.2925 
L 255.51971 34.56 
M 331.243615 34.56 
L 331.197989 36.2925 
L 331.15143 38.025 
L 331.103905 39.7575 
L 331.055377 41.49 
L 331.00581 43.2225 
L 330.955164 44.955 
L 330.903398 46.6875 
L 330.850469 48.42 
L 330.796331 50.1525 
L 330.740935 51.885 
L 330.684229 53.6175 
L 330.626159 55.35 
L 330.566668 57.0825 
L 330.525 58.264859 
L 330.506251 58.815 
L 330.445509 60.5475 
L 330.383159 62.28 
L 330.319127 64.0125 
L 330.253332 65.745 
L 330.185688 67.4775 
L 330.116102 69.21 
L 330.044477 70.9425 
L 329.970705 72.675 
L 329.894673 74.4075 
L 329.816258 76.14 
L 329.735328 77.8725 
L 329.651741 79.605 
L 329.565341 81.3375 
L 329.475962 83.07 
L 329.383422 84.8025 
L 329.287525 86.535 
L 329.188055 88.2675 
L 329.08478 90 
L 328.977444 91.7325 
L 328.865771 93.465 
L 328.7925 94.552237 
L 328.750448 95.1975 
L 328.631787 96.93 
L 328.507625 98.6625 
L 328.377508 100.395 
L 328.240927 102.1275 
L 328.097315 103.86 
L 327.946034 105.5925 
L 327.786372 107.325 
L 327.617527 109.0575 
L 327.438605 110.79 
L 327.248615 112.5225 
L 327.06 114.136442 
L 327.046601 114.255 
L 326.832238 115.9875 
L 326.601179 117.72 
L 326.351186 119.4525 
L 326.079713 121.185 
L 325.78401 122.9175 
L 325.461546 124.65 
L 325.3275 125.283594 
L 325.102317 126.3825 
L 324.693803 128.115 
L 324.231065 129.8475 
L 323.715557 131.58 
L 323.595 131.897863 
L 323.073133 133.3125 
L 322.177505 135.045 
L 321.8625 135.530946 
L 321.069249 136.7775 
L 321.8625 137.570751 
L 323.109054 136.7775 
L 323.595 136.462495 
L 325.3275 135.566867 
L 326.742137 135.045 
L 327.06 134.924443 
L 328.7925 134.408935 
L 330.525 133.946197 
L 332.2575 133.537683 
L 333.356406 133.3125 
L 333.99 133.178454 
L 335.7225 132.85599 
L 337.455 132.560287 
L 339.1875 132.288814 
L 340.92 132.038821 
L 342.6525 131.807762 
L 344.385 131.593399 
L 344.503558 131.58 
L 346.1175 131.391385 
L 347.85 131.201395 
L 349.5825 131.022473 
L 351.315 130.853628 
L 353.0475 130.693966 
L 354.78 130.542685 
L 356.5125 130.399073 
L 358.245 130.262492 
L 359.9775 130.132375 
L 361.71 130.008213 
L 363.4425 129.889552 
L 364.087763 129.8475 
L 365.175 129.774229 
L 366.9075 129.662556 
L 368.64 129.55522 
L 370.3725 129.451945 
L 372.105 129.352475 
L 373.8375 129.256578 
L 375.57 129.164038 
L 377.3025 129.074659 
L 379.035 128.988259 
L 380.7675 128.904672 
L 382.5 128.823742 
L 384.2325 128.745327 
L 385.965 128.669295 
L 387.6975 128.595523 
L 389.43 128.523898 
L 391.1625 128.454312 
L 392.895 128.386668 
L 394.6275 128.320873 
L 396.36 128.256841 
L 398.0925 128.194491 
L 399.825 128.133749 
L 400.375141 128.115 
L 401.5575 128.073332 
L 403.29 128.013841 
L 405.0225 127.955771 
L 406.755 127.899065 
L 408.4875 127.843669 
L 410.22 127.789531 
L 411.9525 127.736602 
L 413.685 127.684836 
L 415.4175 127.63419 
L 417.15 127.584623 
L 418.8825 127.536095 
L 420.615 127.48857 
L 422.3475 127.442011 
L 424.08 127.396385 
M 306.27 152.582763 
L 306.398189 152.37 
L 306.27 152.241811 
L 306.057237 152.37 
L 306.27 152.582763 
z
M 320.13 138.638189 
L 320.342763 138.51 
L 320.13 138.297237 
L 320.001811 138.51 
L 320.13 138.638189 
z
" clip-path="url(#p77cc757973)" style="fill: none; stroke: #38598c; stroke-opacity: 0.996094"/>
    <path d="M 290.635993 256.32 
L 290.6775 255.194551 
L 290.699323 254.5875 
L 290.763016 252.855 
L 290.828032 251.1225 
L 290.894421 249.39 
L 290.962233 247.6575 
L 291.031522 245.925 
L 291.102345 244.1925 
L 291.174762 242.46 
L 291.248836 240.7275 
L 291.324634 238.995 
L 291.402226 237.2625 
L 291.481688 235.53 
L 291.563098 233.7975 
L 291.64654 232.065 
L 291.732104 230.3325 
L 291.819884 228.6 
L 291.90998 226.8675 
L 292.002501 225.135 
L 292.09756 223.4025 
L 292.195279 221.67 
L 292.295787 219.9375 
L 292.399223 218.205 
L 292.41 218.030771 
L 292.503965 216.4725 
L 292.611781 214.74 
L 292.723056 213.0075 
L 292.837985 211.275 
L 292.956781 209.5425 
L 293.079671 207.81 
L 293.206903 206.0775 
L 293.338743 204.345 
L 293.475483 202.6125 
L 293.617436 200.88 
L 293.764944 199.1475 
L 293.918376 197.415 
L 294.078132 195.6825 
L 294.1425 195.018208 
L 294.243411 193.95 
L 294.415425 192.2175 
L 294.595641 190.485 
L 294.784732 188.7525 
L 294.983442 187.02 
L 295.192585 185.2875 
L 295.413051 183.555 
L 295.645787 181.8225 
L 295.875 180.211003 
L 295.89178 180.09 
L 296.153152 178.3575 
L 296.43246 176.625 
L 296.731637 174.8925 
L 297.052674 173.16 
L 297.397332 171.4275 
L 297.6075 170.465697 
L 297.771843 169.695 
L 298.187557 167.9625 
L 298.644116 166.23 
L 299.14152 164.4975 
L 299.34 163.903347 
L 299.711835 162.765 
L 300.383053 161.0325 
L 301.0725 159.33648 
L 301.086999 159.3 
L 302.263599 157.5675 
L 302.805 156.761694 
L 303.418817 155.835 
L 302.805 155.221183 
L 301.878306 155.835 
L 301.0725 156.376401 
L 299.34 157.553001 
L 299.30352 157.5675 
L 297.6075 158.256947 
L 295.875 158.928165 
L 294.736653 159.3 
L 294.1425 159.49848 
L 292.41 159.995884 
L 290.6775 160.452443 
L 288.945 160.868157 
L 288.174303 161.0325 
L 287.2125 161.242668 
L 285.48 161.587326 
L 283.7475 161.908363 
L 282.015 162.20754 
L 280.2825 162.486848 
L 278.55 162.74822 
L 278.428997 162.765 
L 276.8175 162.994213 
L 275.085 163.226949 
L 273.3525 163.447415 
L 271.62 163.656558 
L 269.8875 163.855268 
L 268.155 164.044359 
L 266.4225 164.224575 
L 264.69 164.396589 
L 263.621792 164.4975 
L 262.9575 164.561868 
L 261.225 164.721624 
L 259.4925 164.875056 
L 257.76 165.022564 
L 256.0275 165.164517 
L 254.295 165.301257 
L 252.5625 165.433097 
L 250.83 165.560329 
L 249.0975 165.683219 
L 247.365 165.802015 
L 245.6325 165.916944 
L 243.9 166.028219 
L 242.1675 166.136035 
L 240.609229 166.23 
L 240.435 166.240777 
L 238.7025 166.344213 
L 236.97 166.444721 
L 235.2375 166.54244 
L 233.505 166.637499 
L 231.7725 166.73002 
L 230.04 166.820116 
L 228.3075 166.907896 
L 226.575 166.99346 
L 224.8425 167.076902 
L 223.11 167.158312 
L 221.3775 167.237774 
L 219.645 167.315366 
L 217.9125 167.391164 
L 216.18 167.465238 
L 214.4475 167.537655 
L 212.715 167.608478 
L 210.9825 167.677767 
L 209.25 167.745579 
L 207.5175 167.811968 
L 205.785 167.876984 
L 204.0525 167.940677 
L 203.445449 167.9625 
L 202.32 168.004007 
M 424.08 237.699919 
L 422.3475 238.995 
L 422.3475 238.995 
L 420.615 240.364635 
L 420.169483 240.7275 
L 418.8825 241.806625 
L 418.126043 242.46 
L 417.15 243.327945 
L 416.206045 244.1925 
L 415.4175 244.93611 
L 414.399225 245.925 
L 413.685 246.639225 
L 412.69611 247.6575 
L 411.9525 248.446045 
L 411.087945 249.39 
L 410.22 250.366043 
L 409.566625 251.1225 
L 408.4875 252.409483 
L 408.124635 252.855 
L 406.755 254.5875 
L 406.755 254.5875 
L 405.459919 256.32 
M 202.32 53.180081 
L 204.0525 51.885 
L 204.0525 51.885 
L 205.785 50.515365 
L 206.230517 50.1525 
L 207.5175 49.073375 
L 208.273957 48.42 
L 209.25 47.552055 
L 210.193955 46.6875 
L 210.9825 45.94389 
L 212.000775 44.955 
L 212.715 44.240775 
L 213.70389 43.2225 
L 214.4475 42.433955 
L 215.312055 41.49 
L 216.18 40.513957 
L 216.833375 39.7575 
L 217.9125 38.470517 
L 218.275365 38.025 
L 219.645 36.2925 
L 219.645 36.2925 
L 220.940081 34.56 
M 335.764007 34.56 
L 335.7225 35.685449 
L 335.700677 36.2925 
L 335.636984 38.025 
L 335.571968 39.7575 
L 335.505579 41.49 
L 335.437767 43.2225 
L 335.368478 44.955 
L 335.297655 46.6875 
L 335.225238 48.42 
L 335.151164 50.1525 
L 335.075366 51.885 
L 334.997774 53.6175 
L 334.918312 55.35 
L 334.836902 57.0825 
L 334.75346 58.815 
L 334.667896 60.5475 
L 334.580116 62.28 
L 334.49002 64.0125 
L 334.397499 65.745 
L 334.30244 67.4775 
L 334.204721 69.21 
L 334.104213 70.9425 
L 334.000777 72.675 
L 333.99 72.849229 
L 333.896035 74.4075 
L 333.788219 76.14 
L 333.676944 77.8725 
L 333.562015 79.605 
L 333.443219 81.3375 
L 333.320329 83.07 
L 333.193097 84.8025 
L 333.061257 86.535 
L 332.924517 88.2675 
L 332.782564 90 
L 332.635056 91.7325 
L 332.481624 93.465 
L 332.321868 95.1975 
L 332.2575 95.861792 
L 332.156589 96.93 
L 331.984575 98.6625 
L 331.804359 100.395 
L 331.615268 102.1275 
L 331.416558 103.86 
L 331.207415 105.5925 
L 330.986949 107.325 
L 330.754213 109.0575 
L 330.525 110.668997 
L 330.50822 110.79 
L 330.246848 112.5225 
L 329.96754 114.255 
L 329.668363 115.9875 
L 329.347326 117.72 
L 329.002668 119.4525 
L 328.7925 120.414303 
L 328.628157 121.185 
L 328.212443 122.9175 
L 327.755884 124.65 
L 327.25848 126.3825 
L 327.06 126.976653 
L 326.688165 128.115 
L 326.016947 129.8475 
L 325.3275 131.54352 
L 325.313001 131.58 
L 324.136401 133.3125 
L 323.595 134.118306 
L 322.981183 135.045 
L 323.595 135.658817 
L 324.521694 135.045 
L 325.3275 134.503599 
L 327.06 133.326999 
L 327.09648 133.3125 
L 328.7925 132.623053 
L 330.525 131.951835 
L 331.663347 131.58 
L 332.2575 131.38152 
L 333.99 130.884116 
L 335.7225 130.427557 
L 337.455 130.011843 
L 338.225697 129.8475 
L 339.1875 129.637332 
L 340.92 129.292674 
L 342.6525 128.971637 
L 344.385 128.67246 
L 346.1175 128.393152 
L 347.85 128.13178 
L 347.971003 128.115 
L 349.5825 127.885787 
L 351.315 127.653051 
L 353.0475 127.432585 
L 354.78 127.223442 
L 356.5125 127.024732 
L 358.245 126.835641 
L 359.9775 126.655425 
L 361.71 126.483411 
L 362.778208 126.3825 
L 363.4425 126.318132 
L 365.175 126.158376 
L 366.9075 126.004944 
L 368.64 125.857436 
L 370.3725 125.715483 
L 372.105 125.578743 
L 373.8375 125.446903 
L 375.57 125.319671 
L 377.3025 125.196781 
L 379.035 125.077985 
L 380.7675 124.963056 
L 382.5 124.851781 
L 384.2325 124.743965 
L 385.790771 124.65 
L 385.965 124.639223 
L 387.6975 124.535787 
L 389.43 124.435279 
L 391.1625 124.33756 
L 392.895 124.242501 
L 394.6275 124.14998 
L 396.36 124.059884 
L 398.0925 123.972104 
L 399.825 123.88654 
L 401.5575 123.803098 
L 403.29 123.721688 
L 405.0225 123.642226 
L 406.755 123.564634 
L 408.4875 123.488836 
L 410.22 123.414762 
L 411.9525 123.342345 
L 413.685 123.271522 
L 415.4175 123.202233 
L 417.15 123.134421 
L 418.8825 123.068032 
L 420.615 123.003016 
L 422.3475 122.939323 
L 422.954551 122.9175 
L 424.08 122.875993 
M 304.5375 154.109254 
L 304.541798 154.1025 
L 304.5375 154.098202 
L 304.530746 154.1025 
L 304.5375 154.109254 
z
M 321.8625 136.781798 
L 321.869254 136.7775 
L 321.8625 136.770746 
L 321.858202 136.7775 
L 321.8625 136.781798 
z
" clip-path="url(#p77cc757973)" style="fill: none; stroke: #31678e; stroke-opacity: 0.996094"/>
    <path d="M 275.302741 256.32 
L 275.440579 254.5875 
L 275.581174 252.855 
L 275.724621 251.1225 
L 275.871018 249.39 
L 276.02047 247.6575 
L 276.173084 245.925 
L 276.328973 244.1925 
L 276.488256 242.46 
L 276.651055 240.7275 
L 276.8175 238.995 
L 276.8175 238.995 
L 276.986678 237.2625 
L 277.159882 235.53 
L 277.337273 233.7975 
L 277.519023 232.065 
L 277.705309 230.3325 
L 277.896318 228.6 
L 278.092245 226.8675 
L 278.293293 225.135 
L 278.499675 223.4025 
L 278.55 222.994243 
L 278.711105 221.67 
L 278.928396 219.9375 
L 279.152018 218.205 
L 279.382268 216.4725 
L 279.619452 214.74 
L 279.863888 213.0075 
L 280.115903 211.275 
L 280.2825 210.170208 
L 280.375925 209.5425 
L 280.644815 207.81 
L 280.923031 206.0775 
L 281.211048 204.345 
L 281.509336 202.6125 
L 281.818352 200.88 
L 282.015 199.824471 
L 282.139505 199.1475 
L 282.474919 197.415 
L 282.824103 195.6825 
L 283.187682 193.95 
L 283.566131 192.2175 
L 283.7475 191.432908 
L 283.96388 190.485 
L 284.383617 188.7525 
L 284.823163 187.02 
L 285.282526 185.2875 
L 285.48 184.593284 
L 285.771773 183.555 
L 286.294374 181.8225 
L 286.843029 180.09 
L 287.2125 178.997856 
L 287.42659 178.3575 
L 288.0677 176.625 
L 288.7376 174.8925 
L 288.945 174.414115 
L 289.482988 173.16 
L 290.292916 171.4275 
L 290.6775 170.679343 
L 291.178628 169.695 
L 292.232676 167.9625 
L 292.41 167.726746 
L 293.529876 166.23 
L 294.1425 165.405422 
L 294.81303 164.4975 
L 294.1425 163.82697 
L 293.234578 164.4975 
L 292.41 165.110124 
L 290.913254 166.23 
L 290.6775 166.407324 
L 288.945 167.461372 
L 287.960657 167.9625 
L 287.2125 168.347084 
L 285.48 169.157012 
L 284.225885 169.695 
L 283.7475 169.9024 
L 282.015 170.5723 
L 280.2825 171.21341 
L 279.642144 171.4275 
L 278.55 171.796971 
L 276.8175 172.345626 
L 275.085 172.868227 
L 274.046716 173.16 
L 273.3525 173.357474 
L 271.62 173.816837 
L 269.8875 174.256383 
L 268.155 174.67612 
L 267.207092 174.8925 
L 266.4225 175.073869 
L 264.69 175.452318 
L 262.9575 175.815897 
L 261.225 176.165081 
L 259.4925 176.500495 
L 258.815529 176.625 
L 257.76 176.821648 
L 256.0275 177.130664 
L 254.295 177.428952 
L 252.5625 177.716969 
L 250.83 177.995185 
L 249.0975 178.264075 
L 248.469792 178.3575 
L 247.365 178.524097 
L 245.6325 178.776112 
L 243.9 179.020548 
L 242.1675 179.257732 
L 240.435 179.487982 
L 238.7025 179.711604 
L 236.97 179.928895 
L 235.645757 180.09 
L 235.2375 180.140325 
L 233.505 180.346707 
L 231.7725 180.547755 
L 230.04 180.743682 
L 228.3075 180.934691 
L 226.575 181.120977 
L 224.8425 181.302727 
L 223.11 181.480118 
L 221.3775 181.653322 
L 219.645 181.8225 
L 219.645 181.8225 
L 217.9125 181.988945 
L 216.18 182.151744 
L 214.4475 182.311027 
L 212.715 182.466916 
L 210.9825 182.61953 
L 209.25 182.768982 
L 207.5175 182.915379 
L 205.785 183.058826 
L 204.0525 183.199421 
L 202.32 183.337259 
M 351.097259 34.56 
L 350.959421 36.2925 
L 350.818826 38.025 
L 350.675379 39.7575 
L 350.528982 41.49 
L 350.37953 43.2225 
L 350.226916 44.955 
L 350.071027 46.6875 
L 349.911744 48.42 
L 349.748945 50.1525 
L 349.5825 51.885 
L 349.5825 51.885 
L 349.413322 53.6175 
L 349.240118 55.35 
L 349.062727 57.0825 
L 348.880977 58.815 
L 348.694691 60.5475 
L 348.503682 62.28 
L 348.307755 64.0125 
L 348.106707 65.745 
L 347.900325 67.4775 
L 347.85 67.885757 
L 347.688895 69.21 
L 347.471604 70.9425 
L 347.247982 72.675 
L 347.017732 74.4075 
L 346.780548 76.14 
L 346.536112 77.8725 
L 346.284097 79.605 
L 346.1175 80.709792 
L 346.024075 81.3375 
L 345.755185 83.07 
L 345.476969 84.8025 
L 345.188952 86.535 
L 344.890664 88.2675 
L 344.581648 90 
L 344.385 91.055529 
L 344.260495 91.7325 
L 343.925081 93.465 
L 343.575897 95.1975 
L 343.212318 96.93 
L 342.833869 98.6625 
L 342.6525 99.447092 
L 342.43612 100.395 
L 342.016383 102.1275 
L 341.576837 103.86 
L 341.117474 105.5925 
L 340.92 106.286716 
L 340.628227 107.325 
L 340.105626 109.0575 
L 339.556971 110.79 
L 339.1875 111.882144 
L 338.97341 112.5225 
L 338.3323 114.255 
L 337.6624 115.9875 
L 337.455 116.465885 
L 336.917012 117.72 
L 336.107084 119.4525 
L 335.7225 120.200657 
L 335.221372 121.185 
L 334.167324 122.9175 
L 333.99 123.153254 
L 332.870124 124.65 
L 332.2575 125.474578 
L 331.58697 126.3825 
L 332.2575 127.05303 
L 333.165422 126.3825 
L 333.99 125.769876 
L 335.486746 124.65 
L 335.7225 124.472676 
L 337.455 123.418628 
L 338.439343 122.9175 
L 339.1875 122.532916 
L 340.92 121.722988 
L 342.174115 121.185 
L 342.6525 120.9776 
L 344.385 120.3077 
L 346.1175 119.66659 
L 346.757856 119.4525 
L 347.85 119.083029 
L 349.5825 118.534374 
L 351.315 118.011773 
L 352.353284 117.72 
L 353.0475 117.522526 
L 354.78 117.063163 
L 356.5125 116.623617 
L 358.245 116.20388 
L 359.192908 115.9875 
L 359.9775 115.806131 
L 361.71 115.427682 
L 363.4425 115.064103 
L 365.175 114.714919 
L 366.9075 114.379505 
L 367.584471 114.255 
L 368.64 114.058352 
L 370.3725 113.749336 
L 372.105 113.451048 
L 373.8375 113.163031 
L 375.57 112.884815 
L 377.3025 112.615925 
L 377.930208 112.5225 
L 379.035 112.355903 
L 380.7675 112.103888 
L 382.5 111.859452 
L 384.2325 111.622268 
L 385.965 111.392018 
L 387.6975 111.168396 
L 389.43 110.951105 
L 390.754243 110.79 
L 391.1625 110.739675 
L 392.895 110.533293 
L 394.6275 110.332245 
L 396.36 110.136318 
L 398.0925 109.945309 
L 399.825 109.759023 
L 401.5575 109.577273 
L 403.29 109.399882 
L 405.0225 109.226678 
L 406.755 109.0575 
L 406.755 109.0575 
L 408.4875 108.891055 
L 410.22 108.728256 
L 411.9525 108.568973 
L 413.685 108.413084 
L 415.4175 108.26047 
L 417.15 108.111018 
L 418.8825 107.964621 
L 420.615 107.821174 
L 422.3475 107.680579 
L 424.08 107.542741 
M 295.875 163.047872 
L 296.080813 162.765 
L 295.875 162.559187 
L 295.592128 162.765 
L 295.875 163.047872 
z
M 330.525 128.320813 
L 330.807872 128.115 
L 330.525 127.832128 
L 330.319187 128.115 
L 330.525 128.320813 
z
" clip-path="url(#p77cc757973)" style="fill: none; stroke: #20928c; stroke-opacity: 0.996094"/>
    <path d="M 255.397286 256.32 
L 255.67249 254.5875 
L 255.952909 252.855 
L 256.0275 252.405891 
L 256.239103 251.1225 
L 256.531177 249.39 
L 256.829177 247.6575 
L 257.133259 245.925 
L 257.443581 244.1925 
L 257.76 242.461604 
L 257.760291 242.46 
L 258.085015 240.7275 
L 258.416907 238.995 
L 258.756153 237.2625 
L 259.102929 235.53 
L 259.457386 233.7975 
L 259.4925 233.631801 
L 259.82217 232.065 
L 260.195949 230.3325 
L 260.578679 228.6 
L 260.970506 226.8675 
L 261.225 225.775294 
L 261.373139 225.135 
L 261.788762 223.4025 
L 262.215082 221.67 
L 262.652168 219.9375 
L 262.9575 218.764824 
L 263.102247 218.205 
L 263.569333 216.4725 
L 264.04912 214.74 
L 264.541334 213.0075 
L 264.69 212.507648 
L 265.054137 211.275 
L 265.585124 209.5425 
L 266.130388 207.81 
L 266.4225 206.92045 
L 266.697473 206.0775 
L 267.290552 204.345 
L 267.899155 202.6125 
L 268.155 201.921009 
L 268.537702 200.88 
L 269.206109 199.1475 
L 269.8875 197.415 
L 269.8875 197.415 
L 270.627639 195.6825 
L 271.382053 193.95 
L 271.62 193.441334 
L 272.189211 192.2175 
L 273.030032 190.485 
L 273.3525 189.864602 
L 273.927446 188.7525 
L 274.865029 187.02 
L 275.085 186.652543 
L 275.898361 185.2875 
L 276.8175 183.733603 
L 276.922621 183.555 
L 278.259108 181.8225 
L 278.55 181.459379 
L 279.644237 180.09 
L 280.2825 179.288729 
L 281.022274 178.3575 
L 280.2825 177.617726 
L 279.351271 178.3575 
L 278.55 178.995763 
L 277.180621 180.09 
L 276.8175 180.380892 
L 275.085 181.717379 
L 274.906397 181.8225 
L 273.3525 182.741639 
L 271.987457 183.555 
L 271.62 183.774971 
L 269.8875 184.712554 
L 268.775398 185.2875 
L 268.155 185.609968 
L 266.4225 186.450789 
L 265.198666 187.02 
L 264.69 187.257947 
L 262.9575 188.012361 
L 261.225 188.7525 
L 261.225 188.7525 
L 259.4925 189.433891 
L 257.76 190.102298 
L 256.718991 190.485 
L 256.0275 190.740845 
L 254.295 191.349448 
L 252.5625 191.942527 
L 251.71955 192.2175 
L 250.83 192.509612 
L 249.0975 193.054876 
L 247.365 193.585863 
L 246.132352 193.95 
L 245.6325 194.098666 
L 243.9 194.59088 
L 242.1675 195.070667 
L 240.435 195.537753 
L 239.875176 195.6825 
L 238.7025 195.987832 
L 236.97 196.424918 
L 235.2375 196.851238 
L 233.505 197.266861 
L 232.864706 197.415 
L 231.7725 197.669494 
L 230.04 198.061321 
L 228.3075 198.444051 
L 226.575 198.81783 
L 225.008199 199.1475 
L 224.8425 199.182614 
L 223.11 199.537071 
L 221.3775 199.883847 
L 219.645 200.223093 
L 217.9125 200.554985 
L 216.18 200.879709 
L 216.178396 200.88 
L 214.4475 201.196419 
L 212.715 201.506741 
L 210.9825 201.810823 
L 209.25 202.108823 
L 207.5175 202.400897 
L 206.234109 202.6125 
L 205.785 202.687091 
L 204.0525 202.96751 
L 202.32 203.242714 
M 371.002714 34.56 
L 370.72751 36.2925 
L 370.447091 38.025 
L 370.3725 38.474109 
L 370.160897 39.7575 
L 369.868823 41.49 
L 369.570823 43.2225 
L 369.266741 44.955 
L 368.956419 46.6875 
L 368.64 48.418396 
L 368.639709 48.42 
L 368.314985 50.1525 
L 367.983093 51.885 
L 367.643847 53.6175 
L 367.297071 55.35 
L 366.942614 57.0825 
L 366.9075 57.248199 
L 366.57783 58.815 
L 366.204051 60.5475 
L 365.821321 62.28 
L 365.429494 64.0125 
L 365.175 65.104706 
L 365.026861 65.745 
L 364.611238 67.4775 
L 364.184918 69.21 
L 363.747832 70.9425 
L 363.4425 72.115176 
L 363.297753 72.675 
L 362.830667 74.4075 
L 362.35088 76.14 
L 361.858666 77.8725 
L 361.71 78.372352 
L 361.345863 79.605 
L 360.814876 81.3375 
L 360.269612 83.07 
L 359.9775 83.95955 
L 359.702527 84.8025 
L 359.109448 86.535 
L 358.500845 88.2675 
L 358.245 88.958991 
L 357.862298 90 
L 357.193891 91.7325 
L 356.5125 93.465 
L 356.5125 93.465 
L 355.772361 95.1975 
L 355.017947 96.93 
L 354.78 97.438666 
L 354.210789 98.6625 
L 353.369968 100.395 
L 353.0475 101.015398 
L 352.472554 102.1275 
L 351.534971 103.86 
L 351.315 104.227457 
L 350.501639 105.5925 
L 349.5825 107.146397 
L 349.477379 107.325 
L 348.140892 109.0575 
L 347.85 109.420621 
L 346.755763 110.79 
L 346.1175 111.591271 
L 345.377726 112.5225 
L 346.1175 113.262274 
L 347.048729 112.5225 
L 347.85 111.884237 
L 349.219379 110.79 
L 349.5825 110.499108 
L 351.315 109.162621 
L 351.493603 109.0575 
L 353.0475 108.138361 
L 354.412543 107.325 
L 354.78 107.105029 
L 356.5125 106.167446 
L 357.624602 105.5925 
L 358.245 105.270032 
L 359.9775 104.429211 
L 361.201334 103.86 
L 361.71 103.622053 
L 363.4425 102.867639 
L 365.175 102.1275 
L 365.175 102.1275 
L 366.9075 101.446109 
L 368.64 100.777702 
L 369.681009 100.395 
L 370.3725 100.139155 
L 372.105 99.530552 
L 373.8375 98.937473 
L 374.68045 98.6625 
L 375.57 98.370388 
L 377.3025 97.825124 
L 379.035 97.294137 
L 380.267648 96.93 
L 380.7675 96.781334 
L 382.5 96.28912 
L 384.2325 95.809333 
L 385.965 95.342247 
L 386.524824 95.1975 
L 387.6975 94.892168 
L 389.43 94.455082 
L 391.1625 94.028762 
L 392.895 93.613139 
L 393.535294 93.465 
L 394.6275 93.210506 
L 396.36 92.818679 
L 398.0925 92.435949 
L 399.825 92.06217 
L 401.391801 91.7325 
L 401.5575 91.697386 
L 403.29 91.342929 
L 405.0225 90.996153 
L 406.755 90.656907 
L 408.4875 90.325015 
L 410.22 90.000291 
L 410.221604 90 
L 411.9525 89.683581 
L 413.685 89.373259 
L 415.4175 89.069177 
L 417.15 88.771177 
L 418.8825 88.479103 
L 420.165891 88.2675 
L 420.615 88.192909 
L 422.3475 87.91249 
L 424.08 87.637286 
M 282.015 177.103584 
L 282.392786 176.625 
L 282.015 176.247214 
L 281.536416 176.625 
L 282.015 177.103584 
z
M 283.7475 174.902444 
L 283.755296 174.8925 
L 283.7475 174.884704 
L 283.737556 174.8925 
L 283.7475 174.902444 
z
M 342.6525 115.995296 
L 342.662444 115.9875 
L 342.6525 115.977556 
L 342.644704 115.9875 
L 342.6525 115.995296 
z
M 344.385 114.632786 
L 344.863584 114.255 
L 344.385 113.776416 
L 344.007214 114.255 
L 344.385 114.632786 
z
" clip-path="url(#p77cc757973)" style="fill: none; stroke: #4ac16d; stroke-opacity: 0.996094"/>
    <path d="M 228.693139 256.32 
L 229.269898 254.5875 
L 229.854929 252.855 
L 230.04 252.32317 
L 230.456314 251.1225 
L 231.07065 249.39 
L 231.693257 247.6575 
L 231.7725 247.445141 
L 232.337759 245.925 
L 232.993458 244.1925 
L 233.505 242.866449 
L 233.661243 242.46 
L 234.353398 240.7275 
L 235.053536 238.995 
L 235.2375 238.557075 
L 235.779499 237.2625 
L 236.520534 235.53 
L 236.97 234.505272 
L 237.279414 233.7975 
L 238.065674 232.065 
L 238.7025 230.681041 
L 238.86236 230.3325 
L 239.698643 228.6 
L 240.435 227.083517 
L 240.53956 226.8675 
L 241.430854 225.135 
L 242.1675 223.708103 
L 242.324792 223.4025 
L 243.275245 221.67 
L 243.9 220.543263 
L 244.23493 219.9375 
L 245.244166 218.205 
L 245.6325 217.562583 
L 246.289746 216.4725 
L 247.336965 214.74 
L 247.365 214.698549 
L 248.506279 213.0075 
L 249.0975 212.128783 
L 249.670661 211.275 
L 250.83 209.5425 
L 250.83 209.5425 
L 252.29608 207.81 
L 252.5625 207.494768 
L 253.758977 206.0775 
L 254.295 205.441724 
L 255.218575 204.345 
L 254.295 203.421425 
L 253.198276 204.345 
L 252.5625 204.881023 
L 251.145232 206.0775 
L 250.83 206.34392 
L 249.0975 207.81 
L 249.0975 207.81 
L 247.365 208.969339 
L 246.511217 209.5425 
L 245.6325 210.133721 
L 243.941451 211.275 
L 243.9 211.303035 
L 242.1675 212.350254 
L 241.077417 213.0075 
L 240.435 213.395834 
L 238.7025 214.40507 
L 238.096737 214.74 
L 236.97 215.364755 
L 235.2375 216.315208 
L 234.931897 216.4725 
L 233.505 217.209146 
L 231.7725 218.10044 
L 231.556483 218.205 
L 230.04 218.941357 
L 228.3075 219.77764 
L 227.958959 219.9375 
L 226.575 220.574326 
L 224.8425 221.360586 
L 224.134728 221.67 
L 223.11 222.119466 
L 221.3775 222.860501 
L 220.082925 223.4025 
L 219.645 223.586464 
L 217.9125 224.286602 
L 216.18 224.978757 
L 215.773551 225.135 
L 214.4475 225.646542 
L 212.715 226.302241 
L 211.194859 226.8675 
L 210.9825 226.946743 
L 209.25 227.56935 
L 207.5175 228.183686 
L 206.31683 228.6 
L 205.785 228.785071 
L 204.0525 229.370102 
L 202.32 229.946861 
M 397.706861 34.56 
L 397.130102 36.2925 
L 396.545071 38.025 
L 396.36 38.55683 
L 395.943686 39.7575 
L 395.32935 41.49 
L 394.706743 43.2225 
L 394.6275 43.434859 
L 394.062241 44.955 
L 393.406542 46.6875 
L 392.895 48.013551 
L 392.738757 48.42 
L 392.046602 50.1525 
L 391.346464 51.885 
L 391.1625 52.322925 
L 390.620501 53.6175 
L 389.879466 55.35 
L 389.43 56.374728 
L 389.120586 57.0825 
L 388.334326 58.815 
L 387.6975 60.198959 
L 387.53764 60.5475 
L 386.701357 62.28 
L 385.965 63.796483 
L 385.86044 64.0125 
L 384.969146 65.745 
L 384.2325 67.171897 
L 384.075208 67.4775 
L 383.124755 69.21 
L 382.5 70.336737 
L 382.16507 70.9425 
L 381.155834 72.675 
L 380.7675 73.317417 
L 380.110254 74.4075 
L 379.063035 76.14 
L 379.035 76.181451 
L 377.893721 77.8725 
L 377.3025 78.751217 
L 376.729339 79.605 
L 375.57 81.3375 
L 375.57 81.3375 
L 374.10392 83.07 
L 373.8375 83.385232 
L 372.641023 84.8025 
L 372.105 85.438276 
L 371.181425 86.535 
L 372.105 87.458575 
L 373.201724 86.535 
L 373.8375 85.998977 
L 375.254768 84.8025 
L 375.57 84.53608 
L 377.3025 83.07 
L 377.3025 83.07 
L 379.035 81.910661 
L 379.888783 81.3375 
L 380.7675 80.746279 
L 382.458549 79.605 
L 382.5 79.576965 
L 384.2325 78.529746 
L 385.322583 77.8725 
L 385.965 77.484166 
L 387.6975 76.47493 
L 388.303263 76.14 
L 389.43 75.515245 
L 391.1625 74.564792 
L 391.468103 74.4075 
L 392.895 73.670854 
L 394.6275 72.77956 
L 394.843517 72.675 
L 396.36 71.938643 
L 398.0925 71.10236 
L 398.441041 70.9425 
L 399.825 70.305674 
L 401.5575 69.519414 
L 402.265272 69.21 
L 403.29 68.760534 
L 405.0225 68.019499 
L 406.317075 67.4775 
L 406.755 67.293536 
L 408.4875 66.593398 
L 410.22 65.901243 
L 410.626449 65.745 
L 411.9525 65.233458 
L 413.685 64.577759 
L 415.205141 64.0125 
L 415.4175 63.933257 
L 417.15 63.31065 
L 418.8825 62.696314 
L 420.08317 62.28 
L 420.615 62.094929 
L 422.3475 61.509898 
L 424.08 60.933139 
M 256.0275 203.383095 
L 256.674754 202.6125 
L 256.0275 201.965246 
L 255.256905 202.6125 
L 256.0275 203.383095 
z
M 257.76 201.318581 
L 258.127384 200.88 
L 257.76 200.512616 
L 257.321419 200.88 
L 257.76 201.318581 
z
M 259.4925 199.247858 
L 259.576328 199.1475 
L 259.4925 199.063672 
L 259.392142 199.1475 
L 259.4925 199.247858 
z
M 366.9075 91.816328 
L 367.007858 91.7325 
L 366.9075 91.632142 
L 366.823672 91.7325 
L 366.9075 91.816328 
z
M 368.64 90.367384 
L 369.078581 90 
L 368.64 89.561419 
L 368.272616 90 
L 368.64 90.367384 
z
M 370.3725 88.914754 
L 371.143095 88.2675 
L 370.3725 87.496905 
L 369.725246 88.2675 
L 370.3725 88.914754 
z
" clip-path="url(#p77cc757973)" style="fill: none; stroke: #fde725; stroke-opacity: 0.996094"/>
   </g>
   <g id="patch_3">
    <path d="M 202.32 256.32 
L 202.32 34.56 
" style="fill: none; stroke: #000000; stroke-width: 0.8; stroke-linejoin: miter; stroke-linecap: square"/>
   </g>
   <g id="patch_4">
    <path d="M 424.08 256.32 
L 424.08 34.56 
" style="fill: none; stroke: #000000; stroke-width: 0.8; stroke-linejoin: miter; stroke-linecap: square"/>
   </g>
   <g id="patch_5">
    <path d="M 202.32 256.32 
L 424.08 256.32 
" style="fill: none; stroke: #000000; stroke-width: 0.8; stroke-linejoin: miter; stroke-linecap: square"/>
   </g>
   <g id="patch_6">
    <path d="M 202.32 34.56 
L 424.08 34.56 
" style="fill: none; stroke: #000000; stroke-width: 0.8; stroke-linejoin: miter; stroke-linecap: square"/>
   </g>
  </g>
  <g id="axes_2">
   <g id="patch_7">
    <path d="M 564.3 246.24 
L 575.388 246.24 
L 575.388 44.64 
L 564.3 44.64 
z
" style="fill: #ffffff"/>
   </g>
   <g id="matplotlib.axis_3"/>
   <g id="matplotlib.axis_4">
    <g id="ytick_8">
     <g id="line2d_29">
      <defs>
       <path id="ma0b09f8d96" d="M 0 0 
L 3.5 0 
" style="stroke: #000000; stroke-width: 0.8"/>
      </defs>
      <g>
       <use xlink:href="#ma0b09f8d96" x="575.388" y="246.24" style="stroke: #000000; stroke-width: 0.8"/>
      </g>
     </g>
     <g id="text_17">
      <!-- 0.129 -->
      <g transform="translate(582.388 250.039219) scale(0.1 -0.1)">
       <defs>
        <path id="DejaVuSans-2e" d="M 684 794 
L 1344 794 
L 1344 0 
L 684 0 
L 684 794 
z
" transform="scale(0.015625)"/>
        <path id="DejaVuSans-39" d="M 703 97 
L 703 672 
Q 941 559 1184 500 
Q 1428 441 1663 441 
Q 2288 441 2617 861 
Q 2947 1281 2994 2138 
Q 2813 1869 2534 1725 
Q 2256 1581 1919 1581 
Q 1219 1581 811 2004 
Q 403 2428 403 3163 
Q 403 3881 828 4315 
Q 1253 4750 1959 4750 
Q 2769 4750 3195 4129 
Q 3622 3509 3622 2328 
Q 3622 1225 3098 567 
Q 2575 -91 1691 -91 
Q 1453 -91 1209 -44 
Q 966 3 703 97 
z
M 1959 2075 
Q 2384 2075 2632 2365 
Q 2881 2656 2881 3163 
Q 2881 3666 2632 3958 
Q 2384 4250 1959 4250 
Q 1534 4250 1286 3958 
Q 1038 3666 1038 3163 
Q 1038 2656 1286 2365 
Q 1534 2075 1959 2075 
z
" transform="scale(0.015625)"/>
       </defs>
       <use xlink:href="#DejaVuSans-30"/>
       <use xlink:href="#DejaVuSans-2e" transform="translate(63.623047 0)"/>
       <use xlink:href="#DejaVuSans-31" transform="translate(95.410156 0)"/>
       <use xlink:href="#DejaVuSans-32" transform="translate(159.033203 0)"/>
       <use xlink:href="#DejaVuSans-39" transform="translate(222.65625 0)"/>
      </g>
     </g>
    </g>
    <g id="ytick_9">
     <g id="line2d_30">
      <g>
       <use xlink:href="#ma0b09f8d96" x="575.388" y="223.84" style="stroke: #000000; stroke-width: 0.8"/>
      </g>
     </g>
     <g id="text_18">
      <!-- 0.219 -->
      <g transform="translate(582.388 227.639219) scale(0.1 -0.1)">
       <use xlink:href="#DejaVuSans-30"/>
       <use xlink:href="#DejaVuSans-2e" transform="translate(63.623047 0)"/>
       <use xlink:href="#DejaVuSans-32" transform="translate(95.410156 0)"/>
       <use xlink:href="#DejaVuSans-31" transform="translate(159.033203 0)"/>
       <use xlink:href="#DejaVuSans-39" transform="translate(222.65625 0)"/>
      </g>
     </g>
    </g>
    <g id="ytick_10">
     <g id="line2d_31">
      <g>
       <use xlink:href="#ma0b09f8d96" x="575.388" y="201.44" style="stroke: #000000; stroke-width: 0.8"/>
      </g>
     </g>
     <g id="text_19">
      <!-- 0.28 -->
      <g transform="translate(582.388 205.239219) scale(0.1 -0.1)">
       <defs>
        <path id="DejaVuSans-38" d="M 2034 2216 
Q 1584 2216 1326 1975 
Q 1069 1734 1069 1313 
Q 1069 891 1326 650 
Q 1584 409 2034 409 
Q 2484 409 2743 651 
Q 3003 894 3003 1313 
Q 3003 1734 2745 1975 
Q 2488 2216 2034 2216 
z
M 1403 2484 
Q 997 2584 770 2862 
Q 544 3141 544 3541 
Q 544 4100 942 4425 
Q 1341 4750 2034 4750 
Q 2731 4750 3128 4425 
Q 3525 4100 3525 3541 
Q 3525 3141 3298 2862 
Q 3072 2584 2669 2484 
Q 3125 2378 3379 2068 
Q 3634 1759 3634 1313 
Q 3634 634 3220 271 
Q 2806 -91 2034 -91 
Q 1263 -91 848 271 
Q 434 634 434 1313 
Q 434 1759 690 2068 
Q 947 2378 1403 2484 
z
M 1172 3481 
Q 1172 3119 1398 2916 
Q 1625 2713 2034 2713 
Q 2441 2713 2670 2916 
Q 2900 3119 2900 3481 
Q 2900 3844 2670 4047 
Q 2441 4250 2034 4250 
Q 1625 4250 1398 4047 
Q 1172 3844 1172 3481 
z
" transform="scale(0.015625)"/>
       </defs>
       <use xlink:href="#DejaVuSans-30"/>
       <use xlink:href="#DejaVuSans-2e" transform="translate(63.623047 0)"/>
       <use xlink:href="#DejaVuSans-32" transform="translate(95.410156 0)"/>
       <use xlink:href="#DejaVuSans-38" transform="translate(159.033203 0)"/>
      </g>
     </g>
    </g>
    <g id="ytick_11">
     <g id="line2d_32">
      <g>
       <use xlink:href="#ma0b09f8d96" x="575.388" y="179.04" style="stroke: #000000; stroke-width: 0.8"/>
      </g>
     </g>
     <g id="text_20">
      <!-- 0.33 -->
      <g transform="translate(582.388 182.839219) scale(0.1 -0.1)">
       <use xlink:href="#DejaVuSans-30"/>
       <use xlink:href="#DejaVuSans-2e" transform="translate(63.623047 0)"/>
       <use xlink:href="#DejaVuSans-33" transform="translate(95.410156 0)"/>
       <use xlink:href="#DejaVuSans-33" transform="translate(159.033203 0)"/>
      </g>
     </g>
    </g>
    <g id="ytick_12">
     <g id="line2d_33">
      <g>
       <use xlink:href="#ma0b09f8d96" x="575.388" y="156.64" style="stroke: #000000; stroke-width: 0.8"/>
      </g>
     </g>
     <g id="text_21">
      <!-- 0.375 -->
      <g transform="translate(582.388 160.439219) scale(0.1 -0.1)">
       <defs>
        <path id="DejaVuSans-37" d="M 525 4666 
L 3525 4666 
L 3525 4397 
L 1831 0 
L 1172 0 
L 2766 4134 
L 525 4134 
L 525 4666 
z
" transform="scale(0.015625)"/>
        <path id="DejaVuSans-35" d="M 691 4666 
L 3169 4666 
L 3169 4134 
L 1269 4134 
L 1269 2991 
Q 1406 3038 1543 3061 
Q 1681 3084 1819 3084 
Q 2600 3084 3056 2656 
Q 3513 2228 3513 1497 
Q 3513 744 3044 326 
Q 2575 -91 1722 -91 
Q 1428 -91 1123 -41 
Q 819 9 494 109 
L 494 744 
Q 775 591 1075 516 
Q 1375 441 1709 441 
Q 2250 441 2565 725 
Q 2881 1009 2881 1497 
Q 2881 1984 2565 2268 
Q 2250 2553 1709 2553 
Q 1456 2553 1204 2497 
Q 953 2441 691 2322 
L 691 4666 
z
" transform="scale(0.015625)"/>
       </defs>
       <use xlink:href="#DejaVuSans-30"/>
       <use xlink:href="#DejaVuSans-2e" transform="translate(63.623047 0)"/>
       <use xlink:href="#DejaVuSans-33" transform="translate(95.410156 0)"/>
       <use xlink:href="#DejaVuSans-37" transform="translate(159.033203 0)"/>
       <use xlink:href="#DejaVuSans-35" transform="translate(222.65625 0)"/>
      </g>
     </g>
    </g>
    <g id="ytick_13">
     <g id="line2d_34">
      <g>
       <use xlink:href="#ma0b09f8d96" x="575.388" y="134.24" style="stroke: #000000; stroke-width: 0.8"/>
      </g>
     </g>
     <g id="text_22">
      <!-- 0.423 -->
      <g transform="translate(582.388 138.039219) scale(0.1 -0.1)">
       <defs>
        <path id="DejaVuSans-34" d="M 2419 4116 
L 825 1625 
L 2419 1625 
L 2419 4116 
z
M 2253 4666 
L 3047 4666 
L 3047 1625 
L 3713 1625 
L 3713 1100 
L 3047 1100 
L 3047 0 
L 2419 0 
L 2419 1100 
L 313 1100 
L 313 1709 
L 2253 4666 
z
" transform="scale(0.015625)"/>
       </defs>
       <use xlink:href="#DejaVuSans-30"/>
       <use xlink:href="#DejaVuSans-2e" transform="translate(63.623047 0)"/>
       <use xlink:href="#DejaVuSans-34" transform="translate(95.410156 0)"/>
       <use xlink:href="#DejaVuSans-32" transform="translate(159.033203 0)"/>
       <use xlink:href="#DejaVuSans-33" transform="translate(222.65625 0)"/>
      </g>
     </g>
    </g>
    <g id="ytick_14">
     <g id="line2d_35">
      <g>
       <use xlink:href="#ma0b09f8d96" x="575.388" y="111.84" style="stroke: #000000; stroke-width: 0.8"/>
      </g>
     </g>
     <g id="text_23">
      <!-- 0.484 -->
      <g transform="translate(582.388 115.639219) scale(0.1 -0.1)">
       <use xlink:href="#DejaVuSans-30"/>
       <use xlink:href="#DejaVuSans-2e" transform="translate(63.623047 0)"/>
       <use xlink:href="#DejaVuSans-34" transform="translate(95.410156 0)"/>
       <use xlink:href="#DejaVuSans-38" transform="translate(159.033203 0)"/>
       <use xlink:href="#DejaVuSans-34" transform="translate(222.65625 0)"/>
      </g>
     </g>
    </g>
    <g id="ytick_15">
     <g id="line2d_36">
      <g>
       <use xlink:href="#ma0b09f8d96" x="575.388" y="89.44" style="stroke: #000000; stroke-width: 0.8"/>
      </g>
     </g>
     <g id="text_24">
      <!-- 0.67 -->
      <g transform="translate(582.388 93.239219) scale(0.1 -0.1)">
       <defs>
        <path id="DejaVuSans-36" d="M 2113 2584 
Q 1688 2584 1439 2293 
Q 1191 2003 1191 1497 
Q 1191 994 1439 701 
Q 1688 409 2113 409 
Q 2538 409 2786 701 
Q 3034 994 3034 1497 
Q 3034 2003 2786 2293 
Q 2538 2584 2113 2584 
z
M 3366 4563 
L 3366 3988 
Q 3128 4100 2886 4159 
Q 2644 4219 2406 4219 
Q 1781 4219 1451 3797 
Q 1122 3375 1075 2522 
Q 1259 2794 1537 2939 
Q 1816 3084 2150 3084 
Q 2853 3084 3261 2657 
Q 3669 2231 3669 1497 
Q 3669 778 3244 343 
Q 2819 -91 2113 -91 
Q 1303 -91 875 529 
Q 447 1150 447 2328 
Q 447 3434 972 4092 
Q 1497 4750 2381 4750 
Q 2619 4750 2861 4703 
Q 3103 4656 3366 4563 
z
" transform="scale(0.015625)"/>
       </defs>
       <use xlink:href="#DejaVuSans-30"/>
       <use xlink:href="#DejaVuSans-2e" transform="translate(63.623047 0)"/>
       <use xlink:href="#DejaVuSans-36" transform="translate(95.410156 0)"/>
       <use xlink:href="#DejaVuSans-37" transform="translate(159.033203 0)"/>
      </g>
     </g>
    </g>
    <g id="ytick_16">
     <g id="line2d_37">
      <g>
       <use xlink:href="#ma0b09f8d96" x="575.388" y="67.04" style="stroke: #000000; stroke-width: 0.8"/>
      </g>
     </g>
     <g id="text_25">
      <!-- 0.892 -->
      <g transform="translate(582.388 70.839219) scale(0.1 -0.1)">
       <use xlink:href="#DejaVuSans-30"/>
       <use xlink:href="#DejaVuSans-2e" transform="translate(63.623047 0)"/>
       <use xlink:href="#DejaVuSans-38" transform="translate(95.410156 0)"/>
       <use xlink:href="#DejaVuSans-39" transform="translate(159.033203 0)"/>
       <use xlink:href="#DejaVuSans-32" transform="translate(222.65625 0)"/>
      </g>
     </g>
    </g>
    <g id="ytick_17">
     <g id="line2d_38">
      <g>
       <use xlink:href="#ma0b09f8d96" x="575.388" y="44.64" style="stroke: #000000; stroke-width: 0.8"/>
      </g>
     </g>
     <g id="text_26">
      <!-- 1.2 -->
      <g transform="translate(582.388 48.439219) scale(0.1 -0.1)">
       <use xlink:href="#DejaVuSans-31"/>
       <use xlink:href="#DejaVuSans-2e" transform="translate(63.623047 0)"/>
       <use xlink:href="#DejaVuSans-32" transform="translate(95.410156 0)"/>
      </g>
     </g>
    </g>
   </g>
   <g id="LineCollection_1"/>
   <g id="LineCollection_2">
    <path d="M 564.3 246.24 
L 575.388 246.24 
" clip-path="url(#p3fdaee952e)" style="fill: none; stroke: #440154; stroke-opacity: 0.996094"/>
    <path d="M 564.3 223.84 
L 575.388 223.84 
" clip-path="url(#p3fdaee952e)" style="fill: none; stroke: #481f70; stroke-opacity: 0.996094"/>
    <path d="M 564.3 201.44 
L 575.388 201.44 
" clip-path="url(#p3fdaee952e)" style="fill: none; stroke: #46327e; stroke-opacity: 0.996094"/>
    <path d="M 564.3 179.04 
L 575.388 179.04 
" clip-path="url(#p3fdaee952e)" style="fill: none; stroke: #423f85; stroke-opacity: 0.996094"/>
    <path d="M 564.3 156.64 
L 575.388 156.64 
" clip-path="url(#p3fdaee952e)" style="fill: none; stroke: #3e4c8a; stroke-opacity: 0.996094"/>
    <path d="M 564.3 134.24 
L 575.388 134.24 
" clip-path="url(#p3fdaee952e)" style="fill: none; stroke: #38598c; stroke-opacity: 0.996094"/>
    <path d="M 564.3 111.84 
L 575.388 111.84 
" clip-path="url(#p3fdaee952e)" style="fill: none; stroke: #31678e; stroke-opacity: 0.996094"/>
    <path d="M 564.3 89.44 
L 575.388 89.44 
" clip-path="url(#p3fdaee952e)" style="fill: none; stroke: #20928c; stroke-opacity: 0.996094"/>
    <path d="M 564.3 67.04 
L 575.388 67.04 
" clip-path="url(#p3fdaee952e)" style="fill: none; stroke: #4ac16d; stroke-opacity: 0.996094"/>
    <path d="M 564.3 44.64 
L 575.388 44.64 
" clip-path="url(#p3fdaee952e)" style="fill: none; stroke: #fde725; stroke-opacity: 0.996094"/>
   </g>
   <g id="patch_8">
    <path d="M 564.3 246.24 
L 569.844 256.32 
L 575.388 246.24 
L 575.388 44.64 
L 569.844 34.56 
L 564.3 44.64 
L 564.3 246.24 
z
" style="fill: none; stroke: #000000; stroke-width: 0.8; stroke-linejoin: miter; stroke-linecap: square"/>
   </g>
  </g>
  <g id="text_27">
   <!-- FractionalBrownianMotionModel(scale=[1], amplitude=[1], exponent=[0.25]) -->
   <g transform="translate(127.892813 14.878125) scale(0.12 -0.12)">
    <defs>
     <path id="DejaVuSans-46" d="M 628 4666 
L 3309 4666 
L 3309 4134 
L 1259 4134 
L 1259 2759 
L 3109 2759 
L 3109 2228 
L 1259 2228 
L 1259 0 
L 628 0 
L 628 4666 
z
" transform="scale(0.015625)"/>
     <path id="DejaVuSans-72" d="M 2631 2963 
Q 2534 3019 2420 3045 
Q 2306 3072 2169 3072 
Q 1681 3072 1420 2755 
Q 1159 2438 1159 1844 
L 1159 0 
L 581 0 
L 581 3500 
L 1159 3500 
L 1159 2956 
Q 1341 3275 1631 3429 
Q 1922 3584 2338 3584 
Q 2397 3584 2469 3576 
Q 2541 3569 2628 3553 
L 2631 2963 
z
" transform="scale(0.015625)"/>
     <path id="DejaVuSans-61" d="M 2194 1759 
Q 1497 1759 1228 1600 
Q 959 1441 959 1056 
Q 959 750 1161 570 
Q 1363 391 1709 391 
Q 2188 391 2477 730 
Q 2766 1069 2766 1631 
L 2766 1759 
L 2194 1759 
z
M 3341 1997 
L 3341 0 
L 2766 0 
L 2766 531 
Q 2569 213 2275 61 
Q 1981 -91 1556 -91 
Q 1019 -91 701 211 
Q 384 513 384 1019 
Q 384 1609 779 1909 
Q 1175 2209 1959 2209 
L 2766 2209 
L 2766 2266 
Q 2766 2663 2505 2880 
Q 2244 3097 1772 3097 
Q 1472 3097 1187 3025 
Q 903 2953 641 2809 
L 641 3341 
Q 956 3463 1253 3523 
Q 1550 3584 1831 3584 
Q 2591 3584 2966 3190 
Q 3341 2797 3341 1997 
z
" transform="scale(0.015625)"/>
     <path id="DejaVuSans-63" d="M 3122 3366 
L 3122 2828 
Q 2878 2963 2633 3030 
Q 2388 3097 2138 3097 
Q 1578 3097 1268 2742 
Q 959 2388 959 1747 
Q 959 1106 1268 751 
Q 1578 397 2138 397 
Q 2388 397 2633 464 
Q 2878 531 3122 666 
L 3122 134 
Q 2881 22 2623 -34 
Q 2366 -91 2075 -91 
Q 1284 -91 818 406 
Q 353 903 353 1747 
Q 353 2603 823 3093 
Q 1294 3584 2113 3584 
Q 2378 3584 2631 3529 
Q 2884 3475 3122 3366 
z
" transform="scale(0.015625)"/>
     <path id="DejaVuSans-74" d="M 1172 4494 
L 1172 3500 
L 2356 3500 
L 2356 3053 
L 1172 3053 
L 1172 1153 
Q 1172 725 1289 603 
Q 1406 481 1766 481 
L 2356 481 
L 2356 0 
L 1766 0 
Q 1100 0 847 248 
Q 594 497 594 1153 
L 594 3053 
L 172 3053 
L 172 3500 
L 594 3500 
L 594 4494 
L 1172 4494 
z
" transform="scale(0.015625)"/>
     <path id="DejaVuSans-69" d="M 603 3500 
L 1178 3500 
L 1178 0 
L 603 0 
L 603 3500 
z
M 603 4863 
L 1178 4863 
L 1178 4134 
L 603 4134 
L 603 4863 
z
" transform="scale(0.015625)"/>
     <path id="DejaVuSans-6f" d="M 1959 3097 
Q 1497 3097 1228 2736 
Q 959 2375 959 1747 
Q 959 1119 1226 758 
Q 1494 397 1959 397 
Q 2419 397 2687 759 
Q 2956 1122 2956 1747 
Q 2956 2369 2687 2733 
Q 2419 3097 1959 3097 
z
M 1959 3584 
Q 2709 3584 3137 3096 
Q 3566 2609 3566 1747 
Q 3566 888 3137 398 
Q 2709 -91 1959 -91 
Q 1206 -91 779 398 
Q 353 888 353 1747 
Q 353 2609 779 3096 
Q 1206 3584 1959 3584 
z
" transform="scale(0.015625)"/>
     <path id="DejaVuSans-6e" d="M 3513 2113 
L 3513 0 
L 2938 0 
L 2938 2094 
Q 2938 2591 2744 2837 
Q 2550 3084 2163 3084 
Q 1697 3084 1428 2787 
Q 1159 2491 1159 1978 
L 1159 0 
L 581 0 
L 581 3500 
L 1159 3500 
L 1159 2956 
Q 1366 3272 1645 3428 
Q 1925 3584 2291 3584 
Q 2894 3584 3203 3211 
Q 3513 2838 3513 2113 
z
" transform="scale(0.015625)"/>
     <path id="DejaVuSans-6c" d="M 603 4863 
L 1178 4863 
L 1178 0 
L 603 0 
L 603 4863 
z
" transform="scale(0.015625)"/>
     <path id="DejaVuSans-42" d="M 1259 2228 
L 1259 519 
L 2272 519 
Q 2781 519 3026 730 
Q 3272 941 3272 1375 
Q 3272 1813 3026 2020 
Q 2781 2228 2272 2228 
L 1259 2228 
z
M 1259 4147 
L 1259 2741 
L 2194 2741 
Q 2656 2741 2882 2914 
Q 3109 3088 3109 3444 
Q 3109 3797 2882 3972 
Q 2656 4147 2194 4147 
L 1259 4147 
z
M 628 4666 
L 2241 4666 
Q 2963 4666 3353 4366 
Q 3744 4066 3744 3513 
Q 3744 3084 3544 2831 
Q 3344 2578 2956 2516 
Q 3422 2416 3680 2098 
Q 3938 1781 3938 1306 
Q 3938 681 3513 340 
Q 3088 0 2303 0 
L 628 0 
L 628 4666 
z
" transform="scale(0.015625)"/>
     <path id="DejaVuSans-77" d="M 269 3500 
L 844 3500 
L 1563 769 
L 2278 3500 
L 2956 3500 
L 3675 769 
L 4391 3500 
L 4966 3500 
L 4050 0 
L 3372 0 
L 2619 2869 
L 1863 0 
L 1184 0 
L 269 3500 
z
" transform="scale(0.015625)"/>
     <path id="DejaVuSans-4d" d="M 628 4666 
L 1569 4666 
L 2759 1491 
L 3956 4666 
L 4897 4666 
L 4897 0 
L 4281 0 
L 4281 4097 
L 3078 897 
L 2444 897 
L 1241 4097 
L 1241 0 
L 628 0 
L 628 4666 
z
" transform="scale(0.015625)"/>
     <path id="DejaVuSans-64" d="M 2906 2969 
L 2906 4863 
L 3481 4863 
L 3481 0 
L 2906 0 
L 2906 525 
Q 2725 213 2448 61 
Q 2172 -91 1784 -91 
Q 1150 -91 751 415 
Q 353 922 353 1747 
Q 353 2572 751 3078 
Q 1150 3584 1784 3584 
Q 2172 3584 2448 3432 
Q 2725 3281 2906 2969 
z
M 947 1747 
Q 947 1113 1208 752 
Q 1469 391 1925 391 
Q 2381 391 2643 752 
Q 2906 1113 2906 1747 
Q 2906 2381 2643 2742 
Q 2381 3103 1925 3103 
Q 1469 3103 1208 2742 
Q 947 2381 947 1747 
z
" transform="scale(0.015625)"/>
     <path id="DejaVuSans-65" d="M 3597 1894 
L 3597 1613 
L 953 1613 
Q 991 1019 1311 708 
Q 1631 397 2203 397 
Q 2534 397 2845 478 
Q 3156 559 3463 722 
L 3463 178 
Q 3153 47 2828 -22 
Q 2503 -91 2169 -91 
Q 1331 -91 842 396 
Q 353 884 353 1716 
Q 353 2575 817 3079 
Q 1281 3584 2069 3584 
Q 2775 3584 3186 3129 
Q 3597 2675 3597 1894 
z
M 3022 2063 
Q 3016 2534 2758 2815 
Q 2500 3097 2075 3097 
Q 1594 3097 1305 2825 
Q 1016 2553 972 2059 
L 3022 2063 
z
" transform="scale(0.015625)"/>
     <path id="DejaVuSans-28" d="M 1984 4856 
Q 1566 4138 1362 3434 
Q 1159 2731 1159 2009 
Q 1159 1288 1364 580 
Q 1569 -128 1984 -844 
L 1484 -844 
Q 1016 -109 783 600 
Q 550 1309 550 2009 
Q 550 2706 781 3412 
Q 1013 4119 1484 4856 
L 1984 4856 
z
" transform="scale(0.015625)"/>
     <path id="DejaVuSans-73" d="M 2834 3397 
L 2834 2853 
Q 2591 2978 2328 3040 
Q 2066 3103 1784 3103 
Q 1356 3103 1142 2972 
Q 928 2841 928 2578 
Q 928 2378 1081 2264 
Q 1234 2150 1697 2047 
L 1894 2003 
Q 2506 1872 2764 1633 
Q 3022 1394 3022 966 
Q 3022 478 2636 193 
Q 2250 -91 1575 -91 
Q 1294 -91 989 -36 
Q 684 19 347 128 
L 347 722 
Q 666 556 975 473 
Q 1284 391 1588 391 
Q 1994 391 2212 530 
Q 2431 669 2431 922 
Q 2431 1156 2273 1281 
Q 2116 1406 1581 1522 
L 1381 1569 
Q 847 1681 609 1914 
Q 372 2147 372 2553 
Q 372 3047 722 3315 
Q 1072 3584 1716 3584 
Q 2034 3584 2315 3537 
Q 2597 3491 2834 3397 
z
" transform="scale(0.015625)"/>
     <path id="DejaVuSans-3d" d="M 678 2906 
L 4684 2906 
L 4684 2381 
L 678 2381 
L 678 2906 
z
M 678 1631 
L 4684 1631 
L 4684 1100 
L 678 1100 
L 678 1631 
z
" transform="scale(0.015625)"/>
     <path id="DejaVuSans-5b" d="M 550 4863 
L 1875 4863 
L 1875 4416 
L 1125 4416 
L 1125 -397 
L 1875 -397 
L 1875 -844 
L 550 -844 
L 550 4863 
z
" transform="scale(0.015625)"/>
     <path id="DejaVuSans-5d" d="M 1947 4863 
L 1947 -844 
L 622 -844 
L 622 -397 
L 1369 -397 
L 1369 4416 
L 622 4416 
L 622 4863 
L 1947 4863 
z
" transform="scale(0.015625)"/>
     <path id="DejaVuSans-2c" d="M 750 794 
L 1409 794 
L 1409 256 
L 897 -744 
L 494 -744 
L 750 256 
L 750 794 
z
" transform="scale(0.015625)"/>
     <path id="DejaVuSans-20" transform="scale(0.015625)"/>
     <path id="DejaVuSans-6d" d="M 3328 2828 
Q 3544 3216 3844 3400 
Q 4144 3584 4550 3584 
Q 5097 3584 5394 3201 
Q 5691 2819 5691 2113 
L 5691 0 
L 5113 0 
L 5113 2094 
Q 5113 2597 4934 2840 
Q 4756 3084 4391 3084 
Q 3944 3084 3684 2787 
Q 3425 2491 3425 1978 
L 3425 0 
L 2847 0 
L 2847 2094 
Q 2847 2600 2669 2842 
Q 2491 3084 2119 3084 
Q 1678 3084 1418 2786 
Q 1159 2488 1159 1978 
L 1159 0 
L 581 0 
L 581 3500 
L 1159 3500 
L 1159 2956 
Q 1356 3278 1631 3431 
Q 1906 3584 2284 3584 
Q 2666 3584 2933 3390 
Q 3200 3197 3328 2828 
z
" transform="scale(0.015625)"/>
     <path id="DejaVuSans-70" d="M 1159 525 
L 1159 -1331 
L 581 -1331 
L 581 3500 
L 1159 3500 
L 1159 2969 
Q 1341 3281 1617 3432 
Q 1894 3584 2278 3584 
Q 2916 3584 3314 3078 
Q 3713 2572 3713 1747 
Q 3713 922 3314 415 
Q 2916 -91 2278 -91 
Q 1894 -91 1617 61 
Q 1341 213 1159 525 
z
M 3116 1747 
Q 3116 2381 2855 2742 
Q 2594 3103 2138 3103 
Q 1681 3103 1420 2742 
Q 1159 2381 1159 1747 
Q 1159 1113 1420 752 
Q 1681 391 2138 391 
Q 2594 391 2855 752 
Q 3116 1113 3116 1747 
z
" transform="scale(0.015625)"/>
     <path id="DejaVuSans-75" d="M 544 1381 
L 544 3500 
L 1119 3500 
L 1119 1403 
Q 1119 906 1312 657 
Q 1506 409 1894 409 
Q 2359 409 2629 706 
Q 2900 1003 2900 1516 
L 2900 3500 
L 3475 3500 
L 3475 0 
L 2900 0 
L 2900 538 
Q 2691 219 2414 64 
Q 2138 -91 1772 -91 
Q 1169 -91 856 284 
Q 544 659 544 1381 
z
M 1991 3584 
L 1991 3584 
z
" transform="scale(0.015625)"/>
     <path id="DejaVuSans-78" d="M 3513 3500 
L 2247 1797 
L 3578 0 
L 2900 0 
L 1881 1375 
L 863 0 
L 184 0 
L 1544 1831 
L 300 3500 
L 978 3500 
L 1906 2253 
L 2834 3500 
L 3513 3500 
z
" transform="scale(0.015625)"/>
     <path id="DejaVuSans-29" d="M 513 4856 
L 1013 4856 
Q 1481 4119 1714 3412 
Q 1947 2706 1947 2009 
Q 1947 1309 1714 600 
Q 1481 -109 1013 -844 
L 513 -844 
Q 928 -128 1133 580 
Q 1338 1288 1338 2009 
Q 1338 2731 1133 3434 
Q 928 4138 513 4856 
z
" transform="scale(0.015625)"/>
    </defs>
    <use xlink:href="#DejaVuSans-46"/>
    <use xlink:href="#DejaVuSans-72" transform="translate(50.269531 0)"/>
    <use xlink:href="#DejaVuSans-61" transform="translate(91.382812 0)"/>
    <use xlink:href="#DejaVuSans-63" transform="translate(152.662109 0)"/>
    <use xlink:href="#DejaVuSans-74" transform="translate(207.642578 0)"/>
    <use xlink:href="#DejaVuSans-69" transform="translate(246.851562 0)"/>
    <use xlink:href="#DejaVuSans-6f" transform="translate(274.634766 0)"/>
    <use xlink:href="#DejaVuSans-6e" transform="translate(335.816406 0)"/>
    <use xlink:href="#DejaVuSans-61" transform="translate(399.195312 0)"/>
    <use xlink:href="#DejaVuSans-6c" transform="translate(460.474609 0)"/>
    <use xlink:href="#DejaVuSans-42" transform="translate(488.257812 0)"/>
    <use xlink:href="#DejaVuSans-72" transform="translate(556.861328 0)"/>
    <use xlink:href="#DejaVuSans-6f" transform="translate(595.724609 0)"/>
    <use xlink:href="#DejaVuSans-77" transform="translate(656.90625 0)"/>
    <use xlink:href="#DejaVuSans-6e" transform="translate(738.693359 0)"/>
    <use xlink:href="#DejaVuSans-69" transform="translate(802.072266 0)"/>
    <use xlink:href="#DejaVuSans-61" transform="translate(829.855469 0)"/>
    <use xlink:href="#DejaVuSans-6e" transform="translate(891.134766 0)"/>
    <use xlink:href="#DejaVuSans-4d" transform="translate(954.513672 0)"/>
    <use xlink:href="#DejaVuSans-6f" transform="translate(1040.792969 0)"/>
    <use xlink:href="#DejaVuSans-74" transform="translate(1101.974609 0)"/>
    <use xlink:href="#DejaVuSans-69" transform="translate(1141.183594 0)"/>
    <use xlink:href="#DejaVuSans-6f" transform="translate(1168.966797 0)"/>
    <use xlink:href="#DejaVuSans-6e" transform="translate(1230.148438 0)"/>
    <use xlink:href="#DejaVuSans-4d" transform="translate(1293.527344 0)"/>
    <use xlink:href="#DejaVuSans-6f" transform="translate(1379.806641 0)"/>
    <use xlink:href="#DejaVuSans-64" transform="translate(1440.988281 0)"/>
    <use xlink:href="#DejaVuSans-65" transform="translate(1504.464844 0)"/>
    <use xlink:href="#DejaVuSans-6c" transform="translate(1565.988281 0)"/>
    <use xlink:href="#DejaVuSans-28" transform="translate(1593.771484 0)"/>
    <use xlink:href="#DejaVuSans-73" transform="translate(1632.785156 0)"/>
    <use xlink:href="#DejaVuSans-63" transform="translate(1684.884766 0)"/>
    <use xlink:href="#DejaVuSans-61" transform="translate(1739.865234 0)"/>
    <use xlink:href="#DejaVuSans-6c" transform="translate(1801.144531 0)"/>
    <use xlink:href="#DejaVuSans-65" transform="translate(1828.927734 0)"/>
    <use xlink:href="#DejaVuSans-3d" transform="translate(1890.451172 0)"/>
    <use xlink:href="#DejaVuSans-5b" transform="translate(1974.240234 0)"/>
    <use xlink:href="#DejaVuSans-31" transform="translate(2013.253906 0)"/>
    <use xlink:href="#DejaVuSans-5d" transform="translate(2076.876953 0)"/>
    <use xlink:href="#DejaVuSans-2c" transform="translate(2115.890625 0)"/>
    <use xlink:href="#DejaVuSans-20" transform="translate(2147.677734 0)"/>
    <use xlink:href="#DejaVuSans-61" transform="translate(2179.464844 0)"/>
    <use xlink:href="#DejaVuSans-6d" transform="translate(2240.744141 0)"/>
    <use xlink:href="#DejaVuSans-70" transform="translate(2338.15625 0)"/>
    <use xlink:href="#DejaVuSans-6c" transform="translate(2401.632812 0)"/>
    <use xlink:href="#DejaVuSans-69" transform="translate(2429.416016 0)"/>
    <use xlink:href="#DejaVuSans-74" transform="translate(2457.199219 0)"/>
    <use xlink:href="#DejaVuSans-75" transform="translate(2496.408203 0)"/>
    <use xlink:href="#DejaVuSans-64" transform="translate(2559.787109 0)"/>
    <use xlink:href="#DejaVuSans-65" transform="translate(2623.263672 0)"/>
    <use xlink:href="#DejaVuSans-3d" transform="translate(2684.787109 0)"/>
    <use xlink:href="#DejaVuSans-5b" transform="translate(2768.576172 0)"/>
    <use xlink:href="#DejaVuSans-31" transform="translate(2807.589844 0)"/>
    <use xlink:href="#DejaVuSans-5d" transform="translate(2871.212891 0)"/>
    <use xlink:href="#DejaVuSans-2c" transform="translate(2910.226562 0)"/>
    <use xlink:href="#DejaVuSans-20" transform="translate(2942.013672 0)"/>
    <use xlink:href="#DejaVuSans-65" transform="translate(2973.800781 0)"/>
    <use xlink:href="#DejaVuSans-78" transform="translate(3033.574219 0)"/>
    <use xlink:href="#DejaVuSans-70" transform="translate(3092.753906 0)"/>
    <use xlink:href="#DejaVuSans-6f" transform="translate(3156.230469 0)"/>
    <use xlink:href="#DejaVuSans-6e" transform="translate(3217.412109 0)"/>
    <use xlink:href="#DejaVuSans-65" transform="translate(3280.791016 0)"/>
    <use xlink:href="#DejaVuSans-6e" transform="translate(3342.314453 0)"/>
    <use xlink:href="#DejaVuSans-74" transform="translate(3405.693359 0)"/>
    <use xlink:href="#DejaVuSans-3d" transform="translate(3444.902344 0)"/>
    <use xlink:href="#DejaVuSans-5b" transform="translate(3528.691406 0)"/>
    <use xlink:href="#DejaVuSans-30" transform="translate(3567.705078 0)"/>
    <use xlink:href="#DejaVuSans-2e" transform="translate(3631.328125 0)"/>
    <use xlink:href="#DejaVuSans-32" transform="translate(3663.115234 0)"/>
    <use xlink:href="#DejaVuSans-35" transform="translate(3726.738281 0)"/>
    <use xlink:href="#DejaVuSans-5d" transform="translate(3790.361328 0)"/>
    <use xlink:href="#DejaVuSans-29" transform="translate(3829.375 0)"/>
   </g>
  </g>
 </g>
 <defs>
  <clipPath id="p77cc757973">
   <rect x="202.32" y="34.56" width="221.76" height="221.76"/>
  </clipPath>
  <clipPath id="p3fdaee952e">
   <path d="M 564.3 247.149091 
L 575.388 247.149091 
L 575.388 43.730909 
L 564.3 43.730909 
z
"/>
  </clipPath>
 </defs>
</svg>
