<?xml version="1.0" encoding="utf-8" standalone="no"?>
<!DOCTYPE svg PUBLIC "-//W3C//DTD SVG 1.1//EN"
  "http://www.w3.org/Graphics/SVG/1.1/DTD/svg11.dtd">
<svg xmlns:xlink="http://www.w3.org/1999/xlink" width="460.8pt" height="345.6pt" viewBox="0 0 460.8 345.6" xmlns="http://www.w3.org/2000/svg" version="1.1">
 <metadata>
  <rdf:RDF xmlns:dc="http://purl.org/dc/elements/1.1/" xmlns:cc="http://creativecommons.org/ns#" xmlns:rdf="http://www.w3.org/1999/02/22-rdf-syntax-ns#">
   <cc:Work>
    <dc:type rdf:resource="http://purl.org/dc/dcmitype/StillImage"/>
    <dc:date>2022-01-01T00:00:00+00:00</dc:date>
    <dc:format>image/svg+xml</dc:format>
    <dc:creator>
     <cc:Agent>
      <dc:title>Matplotlib v3.10.8, https://matplotlib.org/</dc:title>
     </cc:Agent>
    </dc:creator>
   </cc:Work>
  </rdf:RDF>
 </metadata>
 <defs>
  <style type="text/css">*{stroke-linejoin: round; stroke-linecap: butt}</style>
 </defs>
 <g id="figure_1">
  <g id="patch_1">
   <path d="M 0 345.6 
L 460.8 345.6 
L 460.8 0 
L 0 0 
z
" style="fill: #ffffff"/>
  </g>
  <g id="axes_1">
   <g id="patch_2">
    <path d="M 57.6 307.584 
L 414.72 307.584 
L 414.72 41.472 
L 57.6 41.472 
z
" style="fill: #ffffff"/>
   </g>
   <g id="matplotlib.axis_1">
    <g id="xtick_1">
     <g id="line2d_1">
      <path d="M 70.707061 307.584 
L 70.707061 41.472 
" clip-path="url(#p0abb0b3651)" style="fill: none; stroke: #b0b0b0; stroke-width: 0.8; stroke-linecap: square"/>
     </g>
     <g id="line2d_2">
      <defs>
       <path id="m784afc060d" d="M 0 0 
L 0 3.5 
" style="stroke: #000000; stroke-width: 0.8"/>
      </defs>
      <g>
       <use xlink:href="#m784afc060d" x="70.707061" y="307.584" style="stroke: #000000; stroke-width: 0.8"/>
      </g>
     </g>
     <g id="text_1">
      <!-- 0 -->
      <g transform="translate(67.525811 322.182437) scale(0.1 -0.1)">
       <defs>
        <path id="DejaVuSans-30" d="M 2034 4250 
Q 1547 4250 1301 3770 
Q 1056 3291 1056 2328 
Q 1056 1369 1301 889 
Q 1547 409 2034 409 
Q 2525 409 2770 889 
Q 3016 1369 3016 2328 
Q 3016 3291 2770 3770 
Q 2525 4250 2034 4250 
z
M 2034 4750 
Q 2819 4750 3233 4129 
Q 3647 3509 3647 2328 
Q 3647 1150 3233 529 
Q 2819 -91 2034 -91 
Q 1250 -91 836 529 
Q 422 1150 422 2328 
Q 422 3509 836 4129 
Q 1250 4750 2034 4750 
z
" transform="scale(0.015625)"/>
       </defs>
       <use xlink:href="#DejaVuSans-30"/>
      </g>
     </g>
    </g>
    <g id="xtick_2">
     <g id="line2d_3">
      <path d="M 134.723672 307.584 
L 134.723672 41.472 
" clip-path="url(#p0abb0b3651)" style="fill: none; stroke: #b0b0b0; stroke-width: 0.8; stroke-linecap: square"/>
     </g>
     <g id="line2d_4">
      <g>
       <use xlink:href="#m784afc060d" x="134.723672" y="307.584" style="stroke: #000000; stroke-width: 0.8"/>
      </g>
     </g>
     <g id="text_2">
      <!-- 2 -->
      <g transform="translate(131.542422 322.182437) scale(0.1 -0.1)">
       <defs>
        <path id="DejaVuSans-32" d="M 1228 531 
L 3431 531 
L 3431 0 
L 469 0 
L 469 531 
Q 828 903 1448 1529 
Q 2069 2156 2228 2338 
Q 2531 2678 2651 2914 
Q 2772 3150 2772 3378 
Q 2772 3750 2511 3984 
Q 2250 4219 1831 4219 
Q 1534 4219 1204 4116 
Q 875 4013 500 3803 
L 500 4441 
Q 881 4594 1212 4672 
Q 1544 4750 1819 4750 
Q 2544 4750 2975 4387 
Q 3406 4025 3406 3419 
Q 3406 3131 3298 2873 
Q 3191 2616 2906 2266 
Q 2828 2175 2409 1742 
Q 1991 1309 1228 531 
z
" transform="scale(0.015625)"/>
       </defs>
       <use xlink:href="#DejaVuSans-32"/>
      </g>
     </g>
    </g>
    <g id="xtick_3">
     <g id="line2d_5">
      <path d="M 198.740284 307.584 
L 198.740284 41.472 
" clip-path="url(#p0abb0b3651)" style="fill: none; stroke: #b0b0b0; stroke-width: 0.8; stroke-linecap: square"/>
     </g>
     <g id="line2d_6">
      <g>
       <use xlink:href="#m784afc060d" x="198.740284" y="307.584" style="stroke: #000000; stroke-width: 0.8"/>
      </g>
     </g>
     <g id="text_3">
      <!-- 4 -->
      <g transform="translate(195.559034 322.182437) scale(0.1 -0.1)">
       <defs>
        <path id="DejaVuSans-34" d="M 2419 4116 
L 825 1625 
L 2419 1625 
L 2419 4116 
z
M 2253 4666 
L 3047 4666 
L 3047 1625 
L 3713 1625 
L 3713 1100 
L 3047 1100 
L 3047 0 
L 2419 0 
L 2419 1100 
L 313 1100 
L 313 1709 
L 2253 4666 
z
" transform="scale(0.015625)"/>
       </defs>
       <use xlink:href="#DejaVuSans-34"/>
      </g>
     </g>
    </g>
    <g id="xtick_4">
     <g id="line2d_7">
      <path d="M 262.756895 307.584 
L 262.756895 41.472 
" clip-path="url(#p0abb0b3651)" style="fill: none; stroke: #b0b0b0; stroke-width: 0.8; stroke-linecap: square"/>
     </g>
     <g id="line2d_8">
      <g>
       <use xlink:href="#m784afc060d" x="262.756895" y="307.584" style="stroke: #000000; stroke-width: 0.8"/>
      </g>
     </g>
     <g id="text_4">
      <!-- 6 -->
      <g transform="translate(259.575645 322.182437) scale(0.1 -0.1)">
       <defs>
        <path id="DejaVuSans-36" d="M 2113 2584 
Q 1688 2584 1439 2293 
Q 1191 2003 1191 1497 
Q 1191 994 1439 701 
Q 1688 409 2113 409 
Q 2538 409 2786 701 
Q 3034 994 3034 1497 
Q 3034 2003 2786 2293 
Q 2538 2584 2113 2584 
z
M 3366 4563 
L 3366 3988 
Q 3128 4100 2886 4159 
Q 2644 4219 2406 4219 
Q 1781 4219 1451 3797 
Q 1122 3375 1075 2522 
Q 1259 2794 1537 2939 
Q 1816 3084 2150 3084 
Q 2853 3084 3261 2657 
Q 3669 2231 3669 1497 
Q 3669 778 3244 343 
Q 2819 -91 2113 -91 
Q 1303 -91 875 529 
Q 447 1150 447 2328 
Q 447 3434 972 4092 
Q 1497 4750 2381 4750 
Q 2619 4750 2861 4703 
Q 3103 4656 3366 4563 
z
" transform="scale(0.015625)"/>
       </defs>
       <use xlink:href="#DejaVuSans-36"/>
      </g>
     </g>
    </g>
    <g id="xtick_5">
     <g id="line2d_9">
      <path d="M 326.773507 307.584 
L 326.773507 41.472 
" clip-path="url(#p0abb0b3651)" style="fill: none; stroke: #b0b0b0; stroke-width: 0.8; stroke-linecap: square"/>
     </g>
     <g id="line2d_10">
      <g>
       <use xlink:href="#m784afc060d" x="326.773507" y="307.584" style="stroke: #000000; stroke-width: 0.8"/>
      </g>
     </g>
     <g id="text_5">
      <!-- 8 -->
      <g transform="translate(323.592257 322.182437) scale(0.1 -0.1)">
       <defs>
        <path id="DejaVuSans-38" d="M 2034 2216 
Q 1584 2216 1326 1975 
Q 1069 1734 1069 1313 
Q 1069 891 1326 650 
Q 1584 409 2034 409 
Q 2484 409 2743 651 
Q 3003 894 3003 1313 
Q 3003 1734 2745 1975 
Q 2488 2216 2034 2216 
z
M 1403 2484 
Q 997 2584 770 2862 
Q 544 3141 544 3541 
Q 544 4100 942 4425 
Q 1341 4750 2034 4750 
Q 2731 4750 3128 4425 
Q 3525 4100 3525 3541 
Q 3525 3141 3298 2862 
Q 3072 2584 2669 2484 
Q 3125 2378 3379 2068 
Q 3634 1759 3634 1313 
Q 3634 634 3220 271 
Q 2806 -91 2034 -91 
Q 1263 -91 848 271 
Q 434 634 434 1313 
Q 434 1759 690 2068 
Q 947 2378 1403 2484 
z
M 1172 3481 
Q 1172 3119 1398 2916 
Q 1625 2713 2034 2713 
Q 2441 2713 2670 2916 
Q 2900 3119 2900 3481 
Q 2900 3844 2670 4047 
Q 2441 4250 2034 4250 
Q 1625 4250 1398 4047 
Q 1172 3844 1172 3481 
z
" transform="scale(0.015625)"/>
       </defs>
       <use xlink:href="#DejaVuSans-38"/>
      </g>
     </g>
    </g>
    <g id="xtick_6">
     <g id="line2d_11">
      <path d="M 390.790118 307.584 
L 390.790118 41.472 
" clip-path="url(#p0abb0b3651)" style="fill: none; stroke: #b0b0b0; stroke-width: 0.8; stroke-linecap: square"/>
     </g>
     <g id="line2d_12">
      <g>
       <use xlink:href="#m784afc060d" x="390.790118" y="307.584" style="stroke: #000000; stroke-width: 0.8"/>
      </g>
     </g>
     <g id="text_6">
      <!-- 10 -->
      <g transform="translate(384.427618 322.182437) scale(0.1 -0.1)">
       <defs>
        <path id="DejaVuSans-31" d="M 794 531 
L 1825 531 
L 1825 4091 
L 703 3866 
L 703 4441 
L 1819 4666 
L 2450 4666 
L 2450 531 
L 3481 531 
L 3481 0 
L 794 0 
L 794 531 
z
" transform="scale(0.015625)"/>
       </defs>
       <use xlink:href="#DejaVuSans-31"/>
       <use xlink:href="#DejaVuSans-30" transform="translate(63.623047 0)"/>
      </g>
     </g>
    </g>
    <g id="text_7">
     <!-- x -->
     <g transform="translate(233.200625 335.860562) scale(0.1 -0.1)">
      <defs>
       <path id="DejaVuSans-78" d="M 3513 3500 
L 2247 1797 
L 3578 0 
L 2900 0 
L 1881 1375 
L 863 0 
L 184 0 
L 1544 1831 
L 300 3500 
L 978 3500 
L 1906 2253 
L 2834 3500 
L 3513 3500 
z
" transform="scale(0.015625)"/>
      </defs>
      <use xlink:href="#DejaVuSans-78"/>
     </g>
    </g>
   </g>
   <g id="matplotlib.axis_2">
    <g id="ytick_1">
     <g id="line2d_13">
      <path d="M 57.6 279.999601 
L 414.72 279.999601 
" clip-path="url(#p0abb0b3651)" style="fill: none; stroke: #b0b0b0; stroke-width: 0.8; stroke-linecap: square"/>
     </g>
     <g id="line2d_14">
      <defs>
       <path id="mbbff2682a2" d="M 0 0 
L -3.5 0 
" style="stroke: #000000; stroke-width: 0.8"/>
      </defs>
      <g>
       <use xlink:href="#mbbff2682a2" x="57.6" y="279.999601" style="stroke: #000000; stroke-width: 0.8"/>
      </g>
     </g>
     <g id="text_8">
      <!-- 0 -->
      <g transform="translate(44.2375 283.79882) scale(0.1 -0.1)">
       <use xlink:href="#DejaVuSans-30"/>
      </g>
     </g>
    </g>
    <g id="ytick_2">
     <g id="line2d_15">
      <path d="M 57.6 235.776725 
L 414.72 235.776725 
" clip-path="url(#p0abb0b3651)" style="fill: none; stroke: #b0b0b0; stroke-width: 0.8; stroke-linecap: square"/>
     </g>
     <g id="line2d_16">
      <g>
       <use xlink:href="#mbbff2682a2" x="57.6" y="235.776725" style="stroke: #000000; stroke-width: 0.8"/>
      </g>
     </g>
     <g id="text_9">
      <!-- 2 -->
      <g transform="translate(44.2375 239.575944) scale(0.1 -0.1)">
       <use xlink:href="#DejaVuSans-32"/>
      </g>
     </g>
    </g>
    <g id="ytick_3">
     <g id="line2d_17">
      <path d="M 57.6 191.553848 
L 414.72 191.553848 
" clip-path="url(#p0abb0b3651)" style="fill: none; stroke: #b0b0b0; stroke-width: 0.8; stroke-linecap: square"/>
     </g>
     <g id="line2d_18">
      <g>
       <use xlink:href="#mbbff2682a2" x="57.6" y="191.553848" style="stroke: #000000; stroke-width: 0.8"/>
      </g>
     </g>
     <g id="text_10">
      <!-- 4 -->
      <g transform="translate(44.2375 195.353067) scale(0.1 -0.1)">
       <use xlink:href="#DejaVuSans-34"/>
      </g>
     </g>
    </g>
    <g id="ytick_4">
     <g id="line2d_19">
      <path d="M 57.6 147.330972 
L 414.72 147.330972 
" clip-path="url(#p0abb0b3651)" style="fill: none; stroke: #b0b0b0; stroke-width: 0.8; stroke-linecap: square"/>
     </g>
     <g id="line2d_20">
      <g>
       <use xlink:href="#mbbff2682a2" x="57.6" y="147.330972" style="stroke: #000000; stroke-width: 0.8"/>
      </g>
     </g>
     <g id="text_11">
      <!-- 6 -->
      <g transform="translate(44.2375 151.13019) scale(0.1 -0.1)">
       <use xlink:href="#DejaVuSans-36"/>
      </g>
     </g>
    </g>
    <g id="ytick_5">
     <g id="line2d_21">
      <path d="M 57.6 103.108095 
L 414.72 103.108095 
" clip-path="url(#p0abb0b3651)" style="fill: none; stroke: #b0b0b0; stroke-width: 0.8; stroke-linecap: square"/>
     </g>
     <g id="line2d_22">
      <g>
       <use xlink:href="#mbbff2682a2" x="57.6" y="103.108095" style="stroke: #000000; stroke-width: 0.8"/>
      </g>
     </g>
     <g id="text_12">
      <!-- 8 -->
      <g transform="translate(44.2375 106.907314) scale(0.1 -0.1)">
       <use xlink:href="#DejaVuSans-38"/>
      </g>
     </g>
    </g>
    <g id="ytick_6">
     <g id="line2d_23">
      <path d="M 57.6 58.885218 
L 414.72 58.885218 
" clip-path="url(#p0abb0b3651)" style="fill: none; stroke: #b0b0b0; stroke-width: 0.8; stroke-linecap: square"/>
     </g>
     <g id="line2d_24">
      <g>
       <use xlink:href="#mbbff2682a2" x="57.6" y="58.885218" style="stroke: #000000; stroke-width: 0.8"/>
      </g>
     </g>
     <g id="text_13">
      <!-- 10 -->
      <g transform="translate(37.875 62.684437) scale(0.1 -0.1)">
       <use xlink:href="#DejaVuSans-31"/>
       <use xlink:href="#DejaVuSans-30" transform="translate(63.623047 0)"/>
      </g>
     </g>
    </g>
    <g id="text_14">
     <!-- y -->
     <g transform="translate(31.795313 177.487375) rotate(-90) scale(0.1 -0.1)">
      <defs>
       <path id="DejaVuSans-79" d="M 2059 -325 
Q 1816 -950 1584 -1140 
Q 1353 -1331 966 -1331 
L 506 -1331 
L 506 -850 
L 844 -850 
Q 1081 -850 1212 -737 
Q 1344 -625 1503 -206 
L 1606 56 
L 191 3500 
L 800 3500 
L 1894 763 
L 2988 3500 
L 3597 3500 
L 2059 -325 
z
" transform="scale(0.015625)"/>
      </defs>
      <use xlink:href="#DejaVuSans-79"/>
     </g>
    </g>
   </g>
   <g id="line2d_25">
    <path d="M 73.832727 53.568 
L 75.131345 120.030313 
L 76.429964 156.329902 
L 77.728582 179.202399 
L 79.0272 194.934958 
L 80.325818 206.419445 
L 81.624436 215.17178 
L 82.923055 222.063285 
L 84.221673 227.630382 
L 85.520291 232.221388 
L 86.818909 236.072321 
L 88.117527 239.348785 
L 89.416145 242.170403 
L 90.714764 244.625742 
L 92.013382 246.781775 
L 93.312 248.690087 
L 95.909236 251.916721 
L 98.506473 254.540441 
L 101.103709 256.715795 
L 103.700945 258.548666 
L 106.298182 260.114033 
L 108.895418 261.466474 
L 112.791273 263.182138 
L 116.687127 264.607069 
L 120.582982 265.809394 
L 125.777455 267.147874 
L 130.971927 268.255617 
L 137.465018 269.397874 
L 145.256727 270.505935 
L 154.347055 271.537744 
L 164.736 272.472667 
L 176.423564 273.304812 
L 190.708364 274.101752 
L 208.889018 274.877734 
L 230.965527 275.5833 
L 258.236509 276.225529 
L 293.2992 276.820021 
L 338.750836 277.359176 
L 398.487273 277.840381 
L 398.487273 277.840381 
" clip-path="url(#p0abb0b3651)" style="fill: none; stroke: #1f77b4; stroke-linecap: square"/>
   </g>
   <g id="line2d_26">
    <path d="M 73.832727 180.518126 
L 77.728582 192.417928 
L 81.624436 203.403116 
L 85.520291 213.515128 
L 89.416145 222.794364 
L 93.312 231.280204 
L 97.207855 239.011012 
L 101.103709 246.024154 
L 103.700945 250.318881 
L 106.298182 254.321368 
L 108.895418 258.041957 
L 111.492655 261.490803 
L 114.089891 264.677869 
L 116.687127 267.612933 
L 119.284364 270.305586 
L 121.8816 272.765236 
L 124.478836 275.001105 
L 127.076073 277.022236 
L 129.673309 278.837493 
L 132.270545 280.455559 
L 134.867782 281.884942 
L 137.465018 283.133972 
L 140.062255 284.210809 
L 142.659491 285.123437 
L 146.555345 286.201534 
L 150.4512 286.953363 
L 154.347055 287.403736 
L 158.242909 287.576629 
L 162.138764 287.495196 
L 166.034618 287.181775 
L 169.930473 286.657903 
L 173.826327 285.944328 
L 179.0208 284.732201 
L 184.215273 283.263445 
L 189.409745 281.580893 
L 195.902836 279.238533 
L 203.694545 276.174003 
L 215.382109 271.299754 
L 230.965527 264.816144 
L 240.055855 261.292216 
L 247.847564 258.533177 
L 254.340655 256.465319 
L 260.833745 254.640461 
L 267.326836 253.08491 
L 272.521309 252.049505 
L 277.715782 251.210478 
L 282.910255 250.575962 
L 288.104727 250.152617 
L 293.2992 249.945673 
L 298.493673 249.958978 
L 303.688145 250.19505 
L 308.882618 250.655119 
L 314.077091 251.339177 
L 319.271564 252.246027 
L 324.466036 253.373329 
L 329.660509 254.717645 
L 334.854982 256.274493 
L 340.049455 258.038389 
L 345.243927 260.002896 
L 351.737018 262.729372 
L 358.230109 265.741558 
L 364.7232 269.021295 
L 371.216291 272.548622 
L 377.709382 276.301919 
L 385.501091 281.071486 
L 393.2928 286.09052 
L 398.487273 289.552993 
L 398.487273 289.552993 
" clip-path="url(#p0abb0b3651)" style="fill: none; stroke: #ff7f0e; stroke-linecap: square"/>
   </g>
   <g id="line2d_27">
    <path d="M 73.832727 136.286386 
L 76.389062 158.078988 
L 78.945397 177.488577 
L 81.501732 194.247431 
L 84.058067 208.989852 
L 86.614402 221.702175 
L 89.170737 232.598644 
L 91.727072 241.914424 
L 94.283407 249.704677 
L 96.839742 256.147296 
L 99.396077 261.46226 
L 101.952412 265.69613 
L 104.508747 268.969187 
L 107.065082 271.498206 
L 109.621417 273.303389 
L 112.177752 274.463138 
L 114.734087 275.115067 
L 117.290422 275.335807 
L 119.846757 275.171665 
L 122.403092 274.693747 
L 124.959427 274.004283 
L 130.072097 272.041832 
L 135.184767 269.748735 
L 140.297437 267.370278 
L 142.853772 266.156335 
L 145.410107 265.226815 
L 147.966442 264.104306 
L 153.079112 262.435556 
L 155.635447 261.778651 
L 158.191782 261.251642 
L 163.304452 260.593049 
L 165.860787 260.535017 
L 170.973457 260.833948 
L 173.529792 261.097453 
L 176.086127 261.559345 
L 178.642462 262.249652 
L 181.198797 263.13936 
L 183.755132 263.666032 
L 186.311467 264.787866 
L 188.867802 265.733243 
L 199.093142 270.770532 
L 204.205812 273.716317 
L 209.318482 276.593274 
L 211.874817 278.183748 
L 214.431152 279.269819 
L 216.987487 280.951052 
L 219.543822 282.250693 
L 222.100157 283.678206 
L 224.656492 285.238315 
L 227.212827 286.184029 
L 229.769162 287.302152 
L 232.325497 288.640593 
L 237.438168 291.023943 
L 242.550838 292.586414 
L 245.107173 293.404256 
L 247.663508 293.767629 
L 250.219843 294.521704 
L 252.776178 294.703222 
L 255.332513 295.036905 
L 260.445183 295.488 
L 263.001518 295.203577 
L 268.114188 294.851001 
L 270.670523 294.524066 
L 275.783193 293.52673 
L 278.339528 292.555373 
L 280.895863 291.767559 
L 283.452198 291.270409 
L 286.008533 290.082277 
L 288.564868 289.044791 
L 291.121203 287.68695 
L 293.677538 286.821029 
L 296.233873 285.327893 
L 298.790208 284.111925 
L 301.346543 282.567337 
L 303.902878 280.847135 
L 306.459213 279.678065 
L 309.015548 278.190918 
L 314.128218 274.852659 
L 316.684553 273.382002 
L 321.797223 269.915355 
L 324.353558 268.627797 
L 329.466228 265.097635 
L 334.578898 262.538546 
L 337.135233 260.992692 
L 339.691568 259.618234 
L 342.247903 258.086551 
L 352.473243 253.747667 
L 355.029578 252.897941 
L 357.585913 251.922029 
L 360.142248 251.403117 
L 362.698583 250.731029 
L 370.367588 249.79881 
L 372.923923 249.572081 
L 380.592928 249.87135 
L 383.149263 250.431423 
L 385.705598 250.773203 
L 388.261933 251.653801 
L 390.818268 252.176087 
L 393.374603 253.319177 
L 398.487273 255.344889 
L 398.487273 255.344889 
" clip-path="url(#p0abb0b3651)" style="fill: none; stroke: #2ca02c; stroke-linecap: square"/>
   </g>
   <g id="patch_3">
    <path d="M 57.6 307.584 
L 57.6 41.472 
" style="fill: none; stroke: #000000; stroke-width: 0.8; stroke-linejoin: miter; stroke-linecap: square"/>
   </g>
   <g id="patch_4">
    <path d="M 414.72 307.584 
L 414.72 41.472 
" style="fill: none; stroke: #000000; stroke-width: 0.8; stroke-linejoin: miter; stroke-linecap: square"/>
   </g>
   <g id="patch_5">
    <path d="M 57.6 307.584 
L 414.72 307.584 
" style="fill: none; stroke: #000000; stroke-width: 0.8; stroke-linejoin: miter; stroke-linecap: square"/>
   </g>
   <g id="patch_6">
    <path d="M 57.6 41.472 
L 414.72 41.472 
" style="fill: none; stroke: #000000; stroke-width: 0.8; stroke-linejoin: miter; stroke-linecap: square"/>
   </g>
   <g id="line2d_28">
    <path d="M 73.832727 136.978381 
L 76.389062 159.161347 
L 78.945397 178.137047 
L 81.501732 195.327935 
L 84.058067 209.867245 
L 86.614402 222.327197 
L 89.170737 233.205447 
L 91.727072 242.160552 
L 94.283407 249.941528 
L 96.839742 256.501728 
L 99.396077 261.556097 
L 101.952412 265.765897 
L 104.508747 269.142692 
L 107.065082 271.472143 
L 109.621417 273.138109 
L 112.177752 274.298912 
L 114.734087 274.881844 
L 117.290422 274.923343 
L 119.846757 274.736933 
L 122.403092 274.216672 
L 127.515762 272.52751 
L 130.072097 271.359622 
L 132.628432 269.984742 
L 137.741102 267.670896 
L 140.297437 266.511948 
L 142.853772 265.489645 
L 145.410107 263.90187 
L 147.966442 263.379584 
L 150.522777 262.065098 
L 160.748117 259.831551 
L 163.304452 260.108889 
L 165.860787 259.707053 
L 168.417122 259.513726 
L 170.973457 259.758337 
L 173.529792 260.572131 
L 178.642462 261.365343 
L 181.198797 261.464537 
L 183.755132 263.449762 
L 186.311467 263.616435 
L 188.867802 265.210958 
L 191.424137 265.659691 
L 193.980472 266.866886 
L 199.093142 269.717864 
L 201.649477 270.553925 
L 204.205812 271.945337 
L 206.762147 273.659972 
L 209.318482 275.213333 
L 211.874817 275.947502 
L 214.431152 278.666896 
L 216.987487 279.438178 
L 219.543822 281.447696 
L 222.100157 282.550636 
L 224.656492 282.905574 
L 227.212827 285.388455 
L 229.769162 286.756249 
L 232.325497 287.392574 
L 234.881832 288.242469 
L 237.438168 288.354821 
L 239.994503 289.838341 
L 242.550838 290.606587 
L 245.107173 290.972659 
L 247.663508 292.194025 
L 250.219843 291.877212 
L 252.776178 293.23151 
L 255.332513 293.016591 
L 257.888848 293.526055 
L 260.445183 292.804707 
L 263.001518 293.70285 
L 265.557853 293.723768 
L 268.114188 293.375578 
L 270.670523 292.34484 
L 273.226858 292.130257 
L 275.783193 291.012303 
L 278.339528 291.252865 
L 280.895863 290.416634 
L 283.452198 288.25006 
L 286.008533 288.318214 
L 288.564868 286.910101 
L 291.121203 286.518387 
L 293.677538 284.056593 
L 296.233873 283.325208 
L 298.790208 281.711959 
L 301.346543 280.747899 
L 303.902878 280.172579 
L 306.459213 277.631777 
L 309.015548 275.873297 
L 314.128218 273.413675 
L 316.684553 271.396566 
L 319.240888 270.345163 
L 321.797223 269.159646 
L 324.353558 266.141321 
L 329.466228 264.801193 
L 332.022563 262.438256 
L 334.578898 260.313687 
L 337.135233 259.419593 
L 339.691568 258.148631 
L 342.247903 257.635793 
L 344.804238 255.895516 
L 347.360573 254.546953 
L 349.916908 253.408249 
L 352.473243 252.849525 
L 355.029578 251.558993 
L 357.585913 251.479031 
L 360.142248 250.379127 
L 362.698583 249.970206 
L 365.254918 249.186778 
L 367.811253 249.200948 
L 370.367588 248.797425 
L 372.923923 249.020105 
L 375.480258 248.819019 
L 378.036593 249.206347 
L 380.592928 250.220552 
L 383.149263 250.016092 
L 385.705598 251.252302 
L 388.261933 251.355545 
L 390.818268 253.080302 
L 393.374603 253.337396 
L 395.930938 254.410983 
L 398.487273 256.21469 
L 398.487273 256.21469 
" clip-path="url(#p0abb0b3651)" style="fill: none; stroke: #d62728; stroke-linecap: square"/>
   </g>
   <g id="legend_1">
    <g id="patch_7">
     <path d="M 346.580938 110.1845 
L 409.72 110.1845 
Q 411.72 110.1845 411.72 108.1845 
L 411.72 50.472 
Q 411.72 48.472 409.72 48.472 
L 346.580938 48.472 
Q 344.580938 48.472 344.580938 50.472 
L 344.580938 108.1845 
Q 344.580938 110.1845 346.580938 110.1845 
z
" style="fill: #4d4d4d; opacity: 0.5; stroke: #4d4d4d; stroke-linejoin: miter"/>
    </g>
    <g id="patch_8">
     <path d="M 344.580938 108.1845 
L 407.72 108.1845 
Q 409.72 108.1845 409.72 106.1845 
L 409.72 48.472 
Q 409.72 46.472 407.72 46.472 
L 344.580938 46.472 
Q 342.580938 46.472 342.580938 48.472 
L 342.580938 106.1845 
Q 342.580938 108.1845 344.580938 108.1845 
z
" style="fill: #ffffff; stroke: #cccccc; stroke-linejoin: miter"/>
    </g>
    <g id="line2d_29">
     <path d="M 346.580938 54.570438 
L 356.580938 54.570438 
L 366.580938 54.570438 
" style="fill: none; stroke: #1f77b4; stroke-linecap: square"/>
    </g>
    <g id="text_15">
     <!-- model -->
     <g transform="translate(374.580938 58.070438) scale(0.1 -0.1)">
      <defs>
       <path id="DejaVuSans-6d" d="M 3328 2828 
Q 3544 3216 3844 3400 
Q 4144 3584 4550 3584 
Q 5097 3584 5394 3201 
Q 5691 2819 5691 2113 
L 5691 0 
L 5113 0 
L 5113 2094 
Q 5113 2597 4934 2840 
Q 4756 3084 4391 3084 
Q 3944 3084 3684 2787 
Q 3425 2491 3425 1978 
L 3425 0 
L 2847 0 
L 2847 2094 
Q 2847 2600 2669 2842 
Q 2491 3084 2119 3084 
Q 1678 3084 1418 2786 
Q 1159 2488 1159 1978 
L 1159 0 
L 581 0 
L 581 3500 
L 1159 3500 
L 1159 2956 
Q 1356 3278 1631 3431 
Q 1906 3584 2284 3584 
Q 2666 3584 2933 3390 
Q 3200 3197 3328 2828 
z
" transform="scale(0.015625)"/>
       <path id="DejaVuSans-6f" d="M 1959 3097 
Q 1497 3097 1228 2736 
Q 959 2375 959 1747 
Q 959 1119 1226 758 
Q 1494 397 1959 397 
Q 2419 397 2687 759 
Q 2956 1122 2956 1747 
Q 2956 2369 2687 2733 
Q 2419 3097 1959 3097 
z
M 1959 3584 
Q 2709 3584 3137 3096 
Q 3566 2609 3566 1747 
Q 3566 888 3137 398 
Q 2709 -91 1959 -91 
Q 1206 -91 779 398 
Q 353 888 353 1747 
Q 353 2609 779 3096 
Q 1206 3584 1959 3584 
z
" transform="scale(0.015625)"/>
       <path id="DejaVuSans-64" d="M 2906 2969 
L 2906 4863 
L 3481 4863 
L 3481 0 
L 2906 0 
L 2906 525 
Q 2725 213 2448 61 
Q 2172 -91 1784 -91 
Q 1150 -91 751 415 
Q 353 922 353 1747 
Q 353 2572 751 3078 
Q 1150 3584 1784 3584 
Q 2172 3584 2448 3432 
Q 2725 3281 2906 2969 
z
M 947 1747 
Q 947 1113 1208 752 
Q 1469 391 1925 391 
Q 2381 391 2643 752 
Q 2906 1113 2906 1747 
Q 2906 2381 2643 2742 
Q 2381 3103 1925 3103 
Q 1469 3103 1208 2742 
Q 947 2381 947 1747 
z
" transform="scale(0.015625)"/>
       <path id="DejaVuSans-65" d="M 3597 1894 
L 3597 1613 
L 953 1613 
Q 991 1019 1311 708 
Q 1631 397 2203 397 
Q 2534 397 2845 478 
Q 3156 559 3463 722 
L 3463 178 
Q 3153 47 2828 -22 
Q 2503 -91 2169 -91 
Q 1331 -91 842 396 
Q 353 884 353 1716 
Q 353 2575 817 3079 
Q 1281 3584 2069 3584 
Q 2775 3584 3186 3129 
Q 3597 2675 3597 1894 
z
M 3022 2063 
Q 3016 2534 2758 2815 
Q 2500 3097 2075 3097 
Q 1594 3097 1305 2825 
Q 1016 2553 972 2059 
L 3022 2063 
z
" transform="scale(0.015625)"/>
       <path id="DejaVuSans-6c" d="M 603 4863 
L 1178 4863 
L 1178 0 
L 603 0 
L 603 4863 
z
" transform="scale(0.015625)"/>
      </defs>
      <use xlink:href="#DejaVuSans-6d"/>
      <use xlink:href="#DejaVuSans-6f" transform="translate(97.412109 0)"/>
      <use xlink:href="#DejaVuSans-64" transform="translate(158.59375 0)"/>
      <use xlink:href="#DejaVuSans-65" transform="translate(222.070312 0)"/>
      <use xlink:href="#DejaVuSans-6c" transform="translate(283.59375 0)"/>
     </g>
    </g>
    <g id="line2d_30">
     <path d="M 346.580938 69.248563 
L 356.580938 69.248563 
L 366.580938 69.248563 
" style="fill: none; stroke: #ff7f0e; stroke-linecap: square"/>
    </g>
    <g id="text_16">
     <!-- $d = $5 -->
     <g transform="translate(374.580938 72.748563) scale(0.1 -0.1)">
      <defs>
       <path id="DejaVuSans-Oblique-64" d="M 2675 525 
Q 2444 222 2128 65 
Q 1813 -91 1428 -91 
Q 903 -91 598 267 
Q 294 625 294 1247 
Q 294 1766 478 2236 
Q 663 2706 1013 3078 
Q 1244 3325 1534 3454 
Q 1825 3584 2144 3584 
Q 2481 3584 2739 3421 
Q 2997 3259 3138 2956 
L 3513 4863 
L 4091 4863 
L 3144 0 
L 2566 0 
L 2675 525 
z
M 891 1350 
Q 891 897 1095 644 
Q 1300 391 1663 391 
Q 1931 391 2161 520 
Q 2391 650 2566 903 
Q 2750 1166 2856 1509 
Q 2963 1853 2963 2188 
Q 2963 2622 2758 2865 
Q 2553 3109 2194 3109 
Q 1922 3109 1687 2981 
Q 1453 2853 1288 2613 
Q 1106 2353 998 2009 
Q 891 1666 891 1350 
z
" transform="scale(0.015625)"/>
       <path id="DejaVuSans-3d" d="M 678 2906 
L 4684 2906 
L 4684 2381 
L 678 2381 
L 678 2906 
z
M 678 1631 
L 4684 1631 
L 4684 1100 
L 678 1100 
L 678 1631 
z
" transform="scale(0.015625)"/>
       <path id="DejaVuSans-35" d="M 691 4666 
L 3169 4666 
L 3169 4134 
L 1269 4134 
L 1269 2991 
Q 1406 3038 1543 3061 
Q 1681 3084 1819 3084 
Q 2600 3084 3056 2656 
Q 3513 2228 3513 1497 
Q 3513 744 3044 326 
Q 2575 -91 1722 -91 
Q 1428 -91 1123 -41 
Q 819 9 494 109 
L 494 744 
Q 775 591 1075 516 
Q 1375 441 1709 441 
Q 2250 441 2565 725 
Q 2881 1009 2881 1497 
Q 2881 1984 2565 2268 
Q 2250 2553 1709 2553 
Q 1456 2553 1204 2497 
Q 953 2441 691 2322 
L 691 4666 
z
" transform="scale(0.015625)"/>
      </defs>
      <use xlink:href="#DejaVuSans-Oblique-64" transform="translate(0 0.015625)"/>
      <use xlink:href="#DejaVuSans-3d" transform="translate(82.958984 0.015625)"/>
      <use xlink:href="#DejaVuSans-35" transform="translate(186.230469 0.015625)"/>
     </g>
    </g>
    <g id="line2d_31">
     <path d="M 346.580938 83.926688 
L 356.580938 83.926688 
L 366.580938 83.926688 
" style="fill: none; stroke: #2ca02c; stroke-linecap: square"/>
    </g>
    <g id="text_17">
     <!-- $d = $8 -->
     <g transform="translate(374.580938 87.426688) scale(0.1 -0.1)">
      <use xlink:href="#DejaVuSans-Oblique-64" transform="translate(0 0.015625)"/>
      <use xlink:href="#DejaVuSans-3d" transform="translate(82.958984 0.015625)"/>
      <use xlink:href="#DejaVuSans-38" transform="translate(186.230469 0.015625)"/>
     </g>
    </g>
    <g id="line2d_32">
     <path d="M 346.580938 98.604813 
L 356.580938 98.604813 
L 366.580938 98.604813 
" style="fill: none; stroke: #d62728; stroke-linecap: square"/>
    </g>
    <g id="text_18">
     <!-- $d = $9 -->
     <g transform="translate(374.580938 102.104813) scale(0.1 -0.1)">
      <defs>
       <path id="DejaVuSans-39" d="M 703 97 
L 703 672 
Q 941 559 1184 500 
Q 1428 441 1663 441 
Q 2288 441 2617 861 
Q 2947 1281 2994 2138 
Q 2813 1869 2534 1725 
Q 2256 1581 1919 1581 
Q 1219 1581 811 2004 
Q 403 2428 403 3163 
Q 403 3881 828 4315 
Q 1253 4750 1959 4750 
Q 2769 4750 3195 4129 
Q 3622 3509 3622 2328 
Q 3622 1225 3098 567 
Q 2575 -91 1691 -91 
Q 1453 -91 1209 -44 
Q 966 3 703 97 
z
M 1959 2075 
Q 2384 2075 2632 2365 
Q 2881 2656 2881 3163 
Q 2881 3666 2632 3958 
Q 2384 4250 1959 4250 
Q 1534 4250 1286 3958 
Q 1038 3666 1038 3163 
Q 1038 2656 1286 2365 
Q 1534 2075 1959 2075 
z
" transform="scale(0.015625)"/>
      </defs>
      <use xlink:href="#DejaVuSans-Oblique-64" transform="translate(0 0.015625)"/>
      <use xlink:href="#DejaVuSans-3d" transform="translate(82.958984 0.015625)"/>
      <use xlink:href="#DejaVuSans-39" transform="translate(186.230469 0.015625)"/>
     </g>
    </g>
   </g>
  </g>
  <g id="text_19">
   <!-- Polynomial surrogate model of degree $d$ -->
   <g transform="translate(109.5 16.032) scale(0.12 -0.12)">
    <defs>
     <path id="DejaVuSans-50" d="M 1259 4147 
L 1259 2394 
L 2053 2394 
Q 2494 2394 2734 2622 
Q 2975 2850 2975 3272 
Q 2975 3691 2734 3919 
Q 2494 4147 2053 4147 
L 1259 4147 
z
M 628 4666 
L 2053 4666 
Q 2838 4666 3239 4311 
Q 3641 3956 3641 3272 
Q 3641 2581 3239 2228 
Q 2838 1875 2053 1875 
L 1259 1875 
L 1259 0 
L 628 0 
L 628 4666 
z
" transform="scale(0.015625)"/>
     <path id="DejaVuSans-6e" d="M 3513 2113 
L 3513 0 
L 2938 0 
L 2938 2094 
Q 2938 2591 2744 2837 
Q 2550 3084 2163 3084 
Q 1697 3084 1428 2787 
Q 1159 2491 1159 1978 
L 1159 0 
L 581 0 
L 581 3500 
L 1159 3500 
L 1159 2956 
Q 1366 3272 1645 3428 
Q 1925 3584 2291 3584 
Q 2894 3584 3203 3211 
Q 3513 2838 3513 2113 
z
" transform="scale(0.015625)"/>
     <path id="DejaVuSans-69" d="M 603 3500 
L 1178 3500 
L 1178 0 
L 603 0 
L 603 3500 
z
M 603 4863 
L 1178 4863 
L 1178 4134 
L 603 4134 
L 603 4863 
z
" transform="scale(0.015625)"/>
     <path id="DejaVuSans-61" d="M 2194 1759 
Q 1497 1759 1228 1600 
Q 959 1441 959 1056 
Q 959 750 1161 570 
Q 1363 391 1709 391 
Q 2188 391 2477 730 
Q 2766 1069 2766 1631 
L 2766 1759 
L 2194 1759 
z
M 3341 1997 
L 3341 0 
L 2766 0 
L 2766 531 
Q 2569 213 2275 61 
Q 1981 -91 1556 -91 
Q 1019 -91 701 211 
Q 384 513 384 1019 
Q 384 1609 779 1909 
Q 1175 2209 1959 2209 
L 2766 2209 
L 2766 2266 
Q 2766 2663 2505 2880 
Q 2244 3097 1772 3097 
Q 1472 3097 1187 3025 
Q 903 2953 641 2809 
L 641 3341 
Q 956 3463 1253 3523 
Q 1550 3584 1831 3584 
Q 2591 3584 2966 3190 
Q 3341 2797 3341 1997 
z
" transform="scale(0.015625)"/>
     <path id="DejaVuSans-20" transform="scale(0.015625)"/>
     <path id="DejaVuSans-73" d="M 2834 3397 
L 2834 2853 
Q 2591 2978 2328 3040 
Q 2066 3103 1784 3103 
Q 1356 3103 1142 2972 
Q 928 2841 928 2578 
Q 928 2378 1081 2264 
Q 1234 2150 1697 2047 
L 1894 2003 
Q 2506 1872 2764 1633 
Q 3022 1394 3022 966 
Q 3022 478 2636 193 
Q 2250 -91 1575 -91 
Q 1294 -91 989 -36 
Q 684 19 347 128 
L 347 722 
Q 666 556 975 473 
Q 1284 391 1588 391 
Q 1994 391 2212 530 
Q 2431 669 2431 922 
Q 2431 1156 2273 1281 
Q 2116 1406 1581 1522 
L 1381 1569 
Q 847 1681 609 1914 
Q 372 2147 372 2553 
Q 372 3047 722 3315 
Q 1072 3584 1716 3584 
Q 2034 3584 2315 3537 
Q 2597 3491 2834 3397 
z
" transform="scale(0.015625)"/>
     <path id="DejaVuSans-75" d="M 544 1381 
L 544 3500 
L 1119 3500 
L 1119 1403 
Q 1119 906 1312 657 
Q 1506 409 1894 409 
Q 2359 409 2629 706 
Q 2900 1003 2900 1516 
L 2900 3500 
L 3475 3500 
L 3475 0 
L 2900 0 
L 2900 538 
Q 2691 219 2414 64 
Q 2138 -91 1772 -91 
Q 1169 -91 856 284 
Q 544 659 544 1381 
z
M 1991 3584 
L 1991 3584 
z
" transform="scale(0.015625)"/>
     <path id="DejaVuSans-72" d="M 2631 2963 
Q 2534 3019 2420 3045 
Q 2306 3072 2169 3072 
Q 1681 3072 1420 2755 
Q 1159 2438 1159 1844 
L 1159 0 
L 581 0 
L 581 3500 
L 1159 3500 
L 1159 2956 
Q 1341 3275 1631 3429 
Q 1922 3584 2338 3584 
Q 2397 3584 2469 3576 
Q 2541 3569 2628 3553 
L 2631 2963 
z
" transform="scale(0.015625)"/>
     <path id="DejaVuSans-67" d="M 2906 1791 
Q 2906 2416 2648 2759 
Q 2391 3103 1925 3103 
Q 1463 3103 1205 2759 
Q 947 2416 947 1791 
Q 947 1169 1205 825 
Q 1463 481 1925 481 
Q 2391 481 2648 825 
Q 2906 1169 2906 1791 
z
M 3481 434 
Q 3481 -459 3084 -895 
Q 2688 -1331 1869 -1331 
Q 1566 -1331 1297 -1286 
Q 1028 -1241 775 -1147 
L 775 -588 
Q 1028 -725 1275 -790 
Q 1522 -856 1778 -856 
Q 2344 -856 2625 -561 
Q 2906 -266 2906 331 
L 2906 616 
Q 2728 306 2450 153 
Q 2172 0 1784 0 
Q 1141 0 747 490 
Q 353 981 353 1791 
Q 353 2603 747 3093 
Q 1141 3584 1784 3584 
Q 2172 3584 2450 3431 
Q 2728 3278 2906 2969 
L 2906 3500 
L 3481 3500 
L 3481 434 
z
" transform="scale(0.015625)"/>
     <path id="DejaVuSans-74" d="M 1172 4494 
L 1172 3500 
L 2356 3500 
L 2356 3053 
L 1172 3053 
L 1172 1153 
Q 1172 725 1289 603 
Q 1406 481 1766 481 
L 2356 481 
L 2356 0 
L 1766 0 
Q 1100 0 847 248 
Q 594 497 594 1153 
L 594 3053 
L 172 3053 
L 172 3500 
L 594 3500 
L 594 4494 
L 1172 4494 
z
" transform="scale(0.015625)"/>
     <path id="DejaVuSans-66" d="M 2375 4863 
L 2375 4384 
L 1825 4384 
Q 1516 4384 1395 4259 
Q 1275 4134 1275 3809 
L 1275 3500 
L 2222 3500 
L 2222 3053 
L 1275 3053 
L 1275 0 
L 697 0 
L 697 3053 
L 147 3053 
L 147 3500 
L 697 3500 
L 697 3744 
Q 697 4328 969 4595 
Q 1241 4863 1831 4863 
L 2375 4863 
z
" transform="scale(0.015625)"/>
    </defs>
    <use xlink:href="#DejaVuSans-50" transform="translate(0 0.015625)"/>
    <use xlink:href="#DejaVuSans-6f" transform="translate(60.302734 0.015625)"/>
    <use xlink:href="#DejaVuSans-6c" transform="translate(121.484375 0.015625)"/>
    <use xlink:href="#DejaVuSans-79" transform="translate(149.267578 0.015625)"/>
    <use xlink:href="#DejaVuSans-6e" transform="translate(208.447266 0.015625)"/>
    <use xlink:href="#DejaVuSans-6f" transform="translate(271.826172 0.015625)"/>
    <use xlink:href="#DejaVuSans-6d" transform="translate(333.007812 0.015625)"/>
    <use xlink:href="#DejaVuSans-69" transform="translate(430.419922 0.015625)"/>
    <use xlink:href="#DejaVuSans-61" transform="translate(458.203125 0.015625)"/>
    <use xlink:href="#DejaVuSans-6c" transform="translate(519.482422 0.015625)"/>
    <use xlink:href="#DejaVuSans-20" transform="translate(547.265625 0.015625)"/>
    <use xlink:href="#DejaVuSans-73" transform="translate(579.052734 0.015625)"/>
    <use xlink:href="#DejaVuSans-75" transform="translate(631.152344 0.015625)"/>
    <use xlink:href="#DejaVuSans-72" transform="translate(694.53125 0.015625)"/>
    <use xlink:href="#DejaVuSans-72" transform="translate(735.644531 0.015625)"/>
    <use xlink:href="#DejaVuSans-6f" transform="translate(776.757812 0.015625)"/>
    <use xlink:href="#DejaVuSans-67" transform="translate(837.939453 0.015625)"/>
    <use xlink:href="#DejaVuSans-61" transform="translate(901.416016 0.015625)"/>
    <use xlink:href="#DejaVuSans-74" transform="translate(962.695312 0.015625)"/>
    <use xlink:href="#DejaVuSans-65" transform="translate(1001.904297 0.015625)"/>
    <use xlink:href="#DejaVuSans-20" transform="translate(1063.427734 0.015625)"/>
    <use xlink:href="#DejaVuSans-6d" transform="translate(1095.214844 0.015625)"/>
    <use xlink:href="#DejaVuSans-6f" transform="translate(1192.626953 0.015625)"/>
    <use xlink:href="#DejaVuSans-64" transform="translate(1253.808594 0.015625)"/>
    <use xlink:href="#DejaVuSans-65" transform="translate(1317.285156 0.015625)"/>
    <use xlink:href="#DejaVuSans-6c" transform="translate(1378.808594 0.015625)"/>
    <use xlink:href="#DejaVuSans-20" transform="translate(1406.591797 0.015625)"/>
    <use xlink:href="#DejaVuSans-6f" transform="translate(1438.378906 0.015625)"/>
    <use xlink:href="#DejaVuSans-66" transform="translate(1499.560547 0.015625)"/>
    <use xlink:href="#DejaVuSans-20" transform="translate(1534.765625 0.015625)"/>
    <use xlink:href="#DejaVuSans-64" transform="translate(1566.552734 0.015625)"/>
    <use xlink:href="#DejaVuSans-65" transform="translate(1630.029297 0.015625)"/>
    <use xlink:href="#DejaVuSans-67" transform="translate(1691.552734 0.015625)"/>
    <use xlink:href="#DejaVuSans-72" transform="translate(1755.029297 0.015625)"/>
    <use xlink:href="#DejaVuSans-65" transform="translate(1796.142578 0.015625)"/>
    <use xlink:href="#DejaVuSans-65" transform="translate(1857.666016 0.015625)"/>
    <use xlink:href="#DejaVuSans-20" transform="translate(1919.189453 0.015625)"/>
    <use xlink:href="#DejaVuSans-Oblique-64" transform="translate(1950.976562 0.015625)"/>
   </g>
  </g>
 </g>
 <defs>
  <clipPath id="p0abb0b3651">
   <rect x="57.6" y="41.472" width="357.12" height="266.112"/>
  </clipPath>
 </defs>
</svg>
