<?xml version="1.0" encoding="utf-8" standalone="no"?>
<!DOCTYPE svg PUBLIC "-//W3C//DTD SVG 1.1//EN"
  "http://www.w3.org/Graphics/SVG/1.1/DTD/svg11.dtd">
<svg xmlns:xlink="http://www.w3.org/1999/xlink" width="460.8pt" height="345.6pt" viewBox="0 0 460.8 345.6" xmlns="http://www.w3.org/2000/svg" version="1.1">
 <metadata>
  <rdf:RDF xmlns:dc="http://purl.org/dc/elements/1.1/" xmlns:cc="http://creativecommons.org/ns#" xmlns:rdf="http://www.w3.org/1999/02/22-rdf-syntax-ns#">
   <cc:Work>
    <dc:type rdf:resource="http://purl.org/dc/dcmitype/StillImage"/>
    <dc:date>2022-01-01T00:00:00+00:00</dc:date>
    <dc:format>image/svg+xml</dc:format>
    <dc:creator>
     <cc:Agent>
      <dc:title>Matplotlib v3.10.8, https://matplotlib.org/</dc:title>
     </cc:Agent>
    </dc:creator>
   </cc:Work>
  </rdf:RDF>
 </metadata>
 <defs>
  <style type="text/css">*{stroke-linejoin: round; stroke-linecap: butt}</style>
 </defs>
 <g id="figure_1">
  <g id="patch_1">
   <path d="M 0 345.6 
L 460.8 345.6 
L 460.8 0 
L 0 0 
z
" style="fill: #ffffff"/>
  </g>
  <g id="axes_1">
   <g id="patch_2">
    <path d="M 57.6 307.584 
L 414.72 307.584 
L 414.72 41.472 
L 57.6 41.472 
z
" style="fill: #ffffff"/>
   </g>
   <g id="matplotlib.axis_1">
    <g id="xtick_1">
     <g id="line2d_1">
      <path d="M 73.832727 307.584 
L 73.832727 41.472 
" clip-path="url(#pc3447f0e3d)" style="fill: none; stroke: #b0b0b0; stroke-width: 0.8; stroke-linecap: square"/>
     </g>
     <g id="line2d_2">
      <defs>
       <path id="m4d03c261de" d="M 0 0 
L 0 3.5 
" style="stroke: #000000; stroke-width: 0.8"/>
      </defs>
      <g>
       <use xlink:href="#m4d03c261de" x="73.832727" y="307.584" style="stroke: #000000; stroke-width: 0.8"/>
      </g>
     </g>
     <g id="text_1">
      <!-- 0 -->
      <g transform="translate(70.651477 322.182437) scale(0.1 -0.1)">
       <defs>
        <path id="DejaVuSans-30" d="M 2034 4250 
Q 1547 4250 1301 3770 
Q 1056 3291 1056 2328 
Q 1056 1369 1301 889 
Q 1547 409 2034 409 
Q 2525 409 2770 889 
Q 3016 1369 3016 2328 
Q 3016 3291 2770 3770 
Q 2525 4250 2034 4250 
z
M 2034 4750 
Q 2819 4750 3233 4129 
Q 3647 3509 3647 2328 
Q 3647 1150 3233 529 
Q 2819 -91 2034 -91 
Q 1250 -91 836 529 
Q 422 1150 422 2328 
Q 422 3509 836 4129 
Q 1250 4750 2034 4750 
z
" transform="scale(0.015625)"/>
       </defs>
       <use xlink:href="#DejaVuSans-30"/>
      </g>
     </g>
    </g>
    <g id="xtick_2">
     <g id="line2d_3">
      <path d="M 127.941818 307.584 
L 127.941818 41.472 
" clip-path="url(#pc3447f0e3d)" style="fill: none; stroke: #b0b0b0; stroke-width: 0.8; stroke-linecap: square"/>
     </g>
     <g id="line2d_4">
      <g>
       <use xlink:href="#m4d03c261de" x="127.941818" y="307.584" style="stroke: #000000; stroke-width: 0.8"/>
      </g>
     </g>
     <g id="text_2">
      <!-- 2 -->
      <g transform="translate(124.760568 322.182437) scale(0.1 -0.1)">
       <defs>
        <path id="DejaVuSans-32" d="M 1228 531 
L 3431 531 
L 3431 0 
L 469 0 
L 469 531 
Q 828 903 1448 1529 
Q 2069 2156 2228 2338 
Q 2531 2678 2651 2914 
Q 2772 3150 2772 3378 
Q 2772 3750 2511 3984 
Q 2250 4219 1831 4219 
Q 1534 4219 1204 4116 
Q 875 4013 500 3803 
L 500 4441 
Q 881 4594 1212 4672 
Q 1544 4750 1819 4750 
Q 2544 4750 2975 4387 
Q 3406 4025 3406 3419 
Q 3406 3131 3298 2873 
Q 3191 2616 2906 2266 
Q 2828 2175 2409 1742 
Q 1991 1309 1228 531 
z
" transform="scale(0.015625)"/>
       </defs>
       <use xlink:href="#DejaVuSans-32"/>
      </g>
     </g>
    </g>
    <g id="xtick_3">
     <g id="line2d_5">
      <path d="M 182.050909 307.584 
L 182.050909 41.472 
" clip-path="url(#pc3447f0e3d)" style="fill: none; stroke: #b0b0b0; stroke-width: 0.8; stroke-linecap: square"/>
     </g>
     <g id="line2d_6">
      <g>
       <use xlink:href="#m4d03c261de" x="182.050909" y="307.584" style="stroke: #000000; stroke-width: 0.8"/>
      </g>
     </g>
     <g id="text_3">
      <!-- 4 -->
      <g transform="translate(178.869659 322.182437) scale(0.1 -0.1)">
       <defs>
        <path id="DejaVuSans-34" d="M 2419 4116 
L 825 1625 
L 2419 1625 
L 2419 4116 
z
M 2253 4666 
L 3047 4666 
L 3047 1625 
L 3713 1625 
L 3713 1100 
L 3047 1100 
L 3047 0 
L 2419 0 
L 2419 1100 
L 313 1100 
L 313 1709 
L 2253 4666 
z
" transform="scale(0.015625)"/>
       </defs>
       <use xlink:href="#DejaVuSans-34"/>
      </g>
     </g>
    </g>
    <g id="xtick_4">
     <g id="line2d_7">
      <path d="M 236.16 307.584 
L 236.16 41.472 
" clip-path="url(#pc3447f0e3d)" style="fill: none; stroke: #b0b0b0; stroke-width: 0.8; stroke-linecap: square"/>
     </g>
     <g id="line2d_8">
      <g>
       <use xlink:href="#m4d03c261de" x="236.16" y="307.584" style="stroke: #000000; stroke-width: 0.8"/>
      </g>
     </g>
     <g id="text_4">
      <!-- 6 -->
      <g transform="translate(232.97875 322.182437) scale(0.1 -0.1)">
       <defs>
        <path id="DejaVuSans-36" d="M 2113 2584 
Q 1688 2584 1439 2293 
Q 1191 2003 1191 1497 
Q 1191 994 1439 701 
Q 1688 409 2113 409 
Q 2538 409 2786 701 
Q 3034 994 3034 1497 
Q 3034 2003 2786 2293 
Q 2538 2584 2113 2584 
z
M 3366 4563 
L 3366 3988 
Q 3128 4100 2886 4159 
Q 2644 4219 2406 4219 
Q 1781 4219 1451 3797 
Q 1122 3375 1075 2522 
Q 1259 2794 1537 2939 
Q 1816 3084 2150 3084 
Q 2853 3084 3261 2657 
Q 3669 2231 3669 1497 
Q 3669 778 3244 343 
Q 2819 -91 2113 -91 
Q 1303 -91 875 529 
Q 447 1150 447 2328 
Q 447 3434 972 4092 
Q 1497 4750 2381 4750 
Q 2619 4750 2861 4703 
Q 3103 4656 3366 4563 
z
" transform="scale(0.015625)"/>
       </defs>
       <use xlink:href="#DejaVuSans-36"/>
      </g>
     </g>
    </g>
    <g id="xtick_5">
     <g id="line2d_9">
      <path d="M 290.269091 307.584 
L 290.269091 41.472 
" clip-path="url(#pc3447f0e3d)" style="fill: none; stroke: #b0b0b0; stroke-width: 0.8; stroke-linecap: square"/>
     </g>
     <g id="line2d_10">
      <g>
       <use xlink:href="#m4d03c261de" x="290.269091" y="307.584" style="stroke: #000000; stroke-width: 0.8"/>
      </g>
     </g>
     <g id="text_5">
      <!-- 8 -->
      <g transform="translate(287.087841 322.182437) scale(0.1 -0.1)">
       <defs>
        <path id="DejaVuSans-38" d="M 2034 2216 
Q 1584 2216 1326 1975 
Q 1069 1734 1069 1313 
Q 1069 891 1326 650 
Q 1584 409 2034 409 
Q 2484 409 2743 651 
Q 3003 894 3003 1313 
Q 3003 1734 2745 1975 
Q 2488 2216 2034 2216 
z
M 1403 2484 
Q 997 2584 770 2862 
Q 544 3141 544 3541 
Q 544 4100 942 4425 
Q 1341 4750 2034 4750 
Q 2731 4750 3128 4425 
Q 3525 4100 3525 3541 
Q 3525 3141 3298 2862 
Q 3072 2584 2669 2484 
Q 3125 2378 3379 2068 
Q 3634 1759 3634 1313 
Q 3634 634 3220 271 
Q 2806 -91 2034 -91 
Q 1263 -91 848 271 
Q 434 634 434 1313 
Q 434 1759 690 2068 
Q 947 2378 1403 2484 
z
M 1172 3481 
Q 1172 3119 1398 2916 
Q 1625 2713 2034 2713 
Q 2441 2713 2670 2916 
Q 2900 3119 2900 3481 
Q 2900 3844 2670 4047 
Q 2441 4250 2034 4250 
Q 1625 4250 1398 4047 
Q 1172 3844 1172 3481 
z
" transform="scale(0.015625)"/>
       </defs>
       <use xlink:href="#DejaVuSans-38"/>
      </g>
     </g>
    </g>
    <g id="xtick_6">
     <g id="line2d_11">
      <path d="M 344.378182 307.584 
L 344.378182 41.472 
" clip-path="url(#pc3447f0e3d)" style="fill: none; stroke: #b0b0b0; stroke-width: 0.8; stroke-linecap: square"/>
     </g>
     <g id="line2d_12">
      <g>
       <use xlink:href="#m4d03c261de" x="344.378182" y="307.584" style="stroke: #000000; stroke-width: 0.8"/>
      </g>
     </g>
     <g id="text_6">
      <!-- 10 -->
      <g transform="translate(338.015682 322.182437) scale(0.1 -0.1)">
       <defs>
        <path id="DejaVuSans-31" d="M 794 531 
L 1825 531 
L 1825 4091 
L 703 3866 
L 703 4441 
L 1819 4666 
L 2450 4666 
L 2450 531 
L 3481 531 
L 3481 0 
L 794 0 
L 794 531 
z
" transform="scale(0.015625)"/>
       </defs>
       <use xlink:href="#DejaVuSans-31"/>
       <use xlink:href="#DejaVuSans-30" transform="translate(63.623047 0)"/>
      </g>
     </g>
    </g>
    <g id="xtick_7">
     <g id="line2d_13">
      <path d="M 398.487273 307.584 
L 398.487273 41.472 
" clip-path="url(#pc3447f0e3d)" style="fill: none; stroke: #b0b0b0; stroke-width: 0.8; stroke-linecap: square"/>
     </g>
     <g id="line2d_14">
      <g>
       <use xlink:href="#m4d03c261de" x="398.487273" y="307.584" style="stroke: #000000; stroke-width: 0.8"/>
      </g>
     </g>
     <g id="text_7">
      <!-- 12 -->
      <g transform="translate(392.124773 322.182437) scale(0.1 -0.1)">
       <use xlink:href="#DejaVuSans-31"/>
       <use xlink:href="#DejaVuSans-32" transform="translate(63.623047 0)"/>
      </g>
     </g>
    </g>
    <g id="text_8">
     <!-- $t$ -->
     <g transform="translate(234.16 335.860562) scale(0.1 -0.1)">
      <defs>
       <path id="DejaVuSans-Oblique-74" d="M 2706 3500 
L 2619 3053 
L 1472 3053 
L 1100 1153 
Q 1081 1047 1072 975 
Q 1063 903 1063 863 
Q 1063 663 1183 572 
Q 1303 481 1569 481 
L 2150 481 
L 2053 0 
L 1503 0 
Q 991 0 739 200 
Q 488 400 488 806 
Q 488 878 497 964 
Q 506 1050 525 1153 
L 897 3053 
L 409 3053 
L 500 3500 
L 978 3500 
L 1172 4494 
L 1747 4494 
L 1556 3500 
L 2706 3500 
z
" transform="scale(0.015625)"/>
      </defs>
      <use xlink:href="#DejaVuSans-Oblique-74" transform="translate(0 0.78125)"/>
     </g>
    </g>
   </g>
   <g id="matplotlib.axis_2">
    <g id="ytick_1">
     <g id="line2d_15">
      <path d="M 57.6 295.488 
L 414.72 295.488 
" clip-path="url(#pc3447f0e3d)" style="fill: none; stroke: #b0b0b0; stroke-width: 0.8; stroke-linecap: square"/>
     </g>
     <g id="line2d_16">
      <defs>
       <path id="me9f975e0fb" d="M 0 0 
L -3.5 0 
" style="stroke: #000000; stroke-width: 0.8"/>
      </defs>
      <g>
       <use xlink:href="#me9f975e0fb" x="57.6" y="295.488" style="stroke: #000000; stroke-width: 0.8"/>
      </g>
     </g>
     <g id="text_9">
      <!-- 0 -->
      <g transform="translate(44.2375 299.287219) scale(0.1 -0.1)">
       <use xlink:href="#DejaVuSans-30"/>
      </g>
     </g>
    </g>
    <g id="ytick_2">
     <g id="line2d_17">
      <path d="M 57.6 251.099511 
L 414.72 251.099511 
" clip-path="url(#pc3447f0e3d)" style="fill: none; stroke: #b0b0b0; stroke-width: 0.8; stroke-linecap: square"/>
     </g>
     <g id="line2d_18">
      <g>
       <use xlink:href="#me9f975e0fb" x="57.6" y="251.099511" style="stroke: #000000; stroke-width: 0.8"/>
      </g>
     </g>
     <g id="text_10">
      <!-- 50 -->
      <g transform="translate(37.875 254.898729) scale(0.1 -0.1)">
       <defs>
        <path id="DejaVuSans-35" d="M 691 4666 
L 3169 4666 
L 3169 4134 
L 1269 4134 
L 1269 2991 
Q 1406 3038 1543 3061 
Q 1681 3084 1819 3084 
Q 2600 3084 3056 2656 
Q 3513 2228 3513 1497 
Q 3513 744 3044 326 
Q 2575 -91 1722 -91 
Q 1428 -91 1123 -41 
Q 819 9 494 109 
L 494 744 
Q 775 591 1075 516 
Q 1375 441 1709 441 
Q 2250 441 2565 725 
Q 2881 1009 2881 1497 
Q 2881 1984 2565 2268 
Q 2250 2553 1709 2553 
Q 1456 2553 1204 2497 
Q 953 2441 691 2322 
L 691 4666 
z
" transform="scale(0.015625)"/>
       </defs>
       <use xlink:href="#DejaVuSans-35"/>
       <use xlink:href="#DejaVuSans-30" transform="translate(63.623047 0)"/>
      </g>
     </g>
    </g>
    <g id="ytick_3">
     <g id="line2d_19">
      <path d="M 57.6 206.711021 
L 414.72 206.711021 
" clip-path="url(#pc3447f0e3d)" style="fill: none; stroke: #b0b0b0; stroke-width: 0.8; stroke-linecap: square"/>
     </g>
     <g id="line2d_20">
      <g>
       <use xlink:href="#me9f975e0fb" x="57.6" y="206.711021" style="stroke: #000000; stroke-width: 0.8"/>
      </g>
     </g>
     <g id="text_11">
      <!-- 100 -->
      <g transform="translate(31.5125 210.51024) scale(0.1 -0.1)">
       <use xlink:href="#DejaVuSans-31"/>
       <use xlink:href="#DejaVuSans-30" transform="translate(63.623047 0)"/>
       <use xlink:href="#DejaVuSans-30" transform="translate(127.246094 0)"/>
      </g>
     </g>
    </g>
    <g id="ytick_4">
     <g id="line2d_21">
      <path d="M 57.6 162.322532 
L 414.72 162.322532 
" clip-path="url(#pc3447f0e3d)" style="fill: none; stroke: #b0b0b0; stroke-width: 0.8; stroke-linecap: square"/>
     </g>
     <g id="line2d_22">
      <g>
       <use xlink:href="#me9f975e0fb" x="57.6" y="162.322532" style="stroke: #000000; stroke-width: 0.8"/>
      </g>
     </g>
     <g id="text_12">
      <!-- 150 -->
      <g transform="translate(31.5125 166.121751) scale(0.1 -0.1)">
       <use xlink:href="#DejaVuSans-31"/>
       <use xlink:href="#DejaVuSans-35" transform="translate(63.623047 0)"/>
       <use xlink:href="#DejaVuSans-30" transform="translate(127.246094 0)"/>
      </g>
     </g>
    </g>
    <g id="ytick_5">
     <g id="line2d_23">
      <path d="M 57.6 117.934042 
L 414.72 117.934042 
" clip-path="url(#pc3447f0e3d)" style="fill: none; stroke: #b0b0b0; stroke-width: 0.8; stroke-linecap: square"/>
     </g>
     <g id="line2d_24">
      <g>
       <use xlink:href="#me9f975e0fb" x="57.6" y="117.934042" style="stroke: #000000; stroke-width: 0.8"/>
      </g>
     </g>
     <g id="text_13">
      <!-- 200 -->
      <g transform="translate(31.5125 121.733261) scale(0.1 -0.1)">
       <use xlink:href="#DejaVuSans-32"/>
       <use xlink:href="#DejaVuSans-30" transform="translate(63.623047 0)"/>
       <use xlink:href="#DejaVuSans-30" transform="translate(127.246094 0)"/>
      </g>
     </g>
    </g>
    <g id="ytick_6">
     <g id="line2d_25">
      <path d="M 57.6 73.545553 
L 414.72 73.545553 
" clip-path="url(#pc3447f0e3d)" style="fill: none; stroke: #b0b0b0; stroke-width: 0.8; stroke-linecap: square"/>
     </g>
     <g id="line2d_26">
      <g>
       <use xlink:href="#me9f975e0fb" x="57.6" y="73.545553" style="stroke: #000000; stroke-width: 0.8"/>
      </g>
     </g>
     <g id="text_14">
      <!-- 250 -->
      <g transform="translate(31.5125 77.344772) scale(0.1 -0.1)">
       <use xlink:href="#DejaVuSans-32"/>
       <use xlink:href="#DejaVuSans-35" transform="translate(63.623047 0)"/>
       <use xlink:href="#DejaVuSans-30" transform="translate(127.246094 0)"/>
      </g>
     </g>
    </g>
    <g id="text_15">
     <!-- $z$ -->
     <g transform="translate(25.432812 177.178) rotate(-90) scale(0.1 -0.1)">
      <defs>
       <path id="DejaVuSans-Oblique-7a" d="M 744 3500 
L 3475 3500 
L 3372 2975 
L 738 459 
L 2913 459 
L 2822 0 
L -19 0 
L 84 525 
L 2719 3041 
L 653 3041 
L 744 3500 
z
" transform="scale(0.015625)"/>
      </defs>
      <use xlink:href="#DejaVuSans-Oblique-7a" transform="translate(0 0.3125)"/>
     </g>
    </g>
   </g>
   <g id="line2d_27">
    <path d="M 73.832727 204.33406 
L 77.112066 197.107682 
L 80.391405 190.309986 
L 83.670744 183.922973 
L 86.950083 177.929399 
L 90.229421 172.312742 
L 93.50876 167.057177 
L 96.788099 162.14754 
L 100.067438 157.569308 
L 103.346777 153.308564 
L 106.626116 149.351977 
L 109.905455 145.686776 
L 113.184793 142.300726 
L 116.464132 139.182105 
L 119.743471 136.319684 
L 123.02281 133.702705 
L 126.302149 131.320862 
L 129.581488 129.164283 
L 132.860826 127.223508 
L 136.140165 125.489475 
L 139.419504 123.953505 
L 142.698843 122.60728 
L 145.978182 121.442832 
L 149.257521 120.45253 
L 152.53686 119.629061 
L 155.816198 118.96542 
L 159.095537 118.454895 
L 162.374876 118.091058 
L 165.654215 117.867748 
L 168.933554 117.779066 
L 172.212893 117.819358 
L 175.492231 117.983209 
L 178.77157 118.26543 
L 182.050909 118.661052 
L 185.330248 119.165312 
L 188.609587 119.77365 
L 191.888926 120.481694 
L 195.168264 121.285258 
L 198.447603 122.180332 
L 201.726942 123.163073 
L 205.006281 124.229799 
L 208.28562 125.376985 
L 211.564959 126.601252 
L 214.844298 127.899363 
L 218.123636 129.268217 
L 221.402975 130.704845 
L 224.682314 132.2064 
L 227.961653 133.770156 
L 231.240992 135.393501 
L 234.520331 137.073933 
L 237.799669 138.809056 
L 241.079008 140.596572 
L 244.358347 142.434282 
L 247.637686 144.320078 
L 250.917025 146.251941 
L 254.196364 148.227936 
L 257.475702 150.246211 
L 260.755041 152.304991 
L 264.03438 154.402573 
L 267.313719 156.53733 
L 270.593058 158.7077 
L 273.872397 160.912188 
L 277.151736 163.149362 
L 280.431074 165.417848 
L 283.710413 167.716332 
L 286.989752 170.043554 
L 290.269091 172.398308 
L 293.54843 174.779438 
L 296.827769 177.185836 
L 300.107107 179.616441 
L 303.386446 182.070237 
L 306.665785 184.546249 
L 309.945124 187.043546 
L 313.224463 189.561233 
L 316.503802 192.098455 
L 319.78314 194.65439 
L 323.062479 197.228253 
L 326.341818 199.819292 
L 329.621157 202.426785 
L 332.900496 205.050041 
L 336.179835 207.688398 
L 339.459174 210.341223 
L 342.738512 213.007908 
L 346.017851 215.68787 
L 349.29719 218.380553 
L 352.576529 221.085422 
L 355.855868 223.801965 
L 359.135207 226.529693 
L 362.414545 229.268135 
L 365.693884 232.016842 
L 368.973223 234.775383 
L 372.252562 237.543345 
L 375.531901 240.320332 
L 378.81124 243.105965 
L 382.090579 245.899882 
L 385.369917 248.701733 
L 388.649256 251.511188 
L 391.928595 254.327925 
L 395.207934 257.151639 
L 398.487273 259.982038 
" clip-path="url(#pc3447f0e3d)" style="fill: none; stroke: #ff0000; stroke-linecap: square"/>
   </g>
   <g id="line2d_28">
    <path d="M 73.832727 174.894024 
L 77.112066 169.110471 
L 80.391405 163.573753 
L 83.670744 158.278737 
L 86.950083 153.220402 
L 90.229421 148.393827 
L 93.50876 143.794195 
L 96.788099 139.41679 
L 100.067438 135.256991 
L 103.346777 131.310276 
L 106.626116 127.572217 
L 109.905455 124.038476 
L 113.184793 120.704805 
L 116.464132 117.567048 
L 119.743471 114.621132 
L 123.02281 111.863069 
L 126.302149 109.288954 
L 129.581488 106.894965 
L 132.860826 104.677357 
L 136.140165 102.632465 
L 139.419504 100.756697 
L 142.698843 99.04654 
L 145.978182 97.49855 
L 149.257521 96.109358 
L 152.53686 94.875662 
L 155.816198 93.79423 
L 159.095537 92.861898 
L 162.374876 92.075567 
L 165.654215 91.432201 
L 168.933554 90.92883 
L 172.212893 90.562543 
L 175.492231 90.330491 
L 178.77157 90.229884 
L 182.050909 90.25799 
L 185.330248 90.412134 
L 188.609587 90.689696 
L 191.888926 91.08811 
L 195.168264 91.604865 
L 198.447603 92.237501 
L 201.726942 92.983609 
L 205.006281 93.840831 
L 208.28562 94.806857 
L 211.564959 95.879426 
L 214.844298 97.056323 
L 218.123636 98.33538 
L 221.402975 99.714473 
L 224.682314 101.191523 
L 227.961653 102.764494 
L 231.240992 104.431393 
L 234.520331 106.190266 
L 237.799669 108.039203 
L 241.079008 109.976331 
L 244.358347 111.999817 
L 247.637686 114.107866 
L 250.917025 116.298721 
L 254.196364 118.57066 
L 257.475702 120.921999 
L 260.755041 123.351086 
L 264.03438 125.856305 
L 267.313719 128.436075 
L 270.593058 131.088846 
L 273.872397 133.8131 
L 277.151736 136.607352 
L 280.431074 139.470146 
L 283.710413 142.400059 
L 286.989752 145.395694 
L 290.269091 148.455686 
L 293.54843 151.578697 
L 296.827769 154.763418 
L 300.107107 158.008566 
L 303.386446 161.312884 
L 306.665785 164.675143 
L 309.945124 168.094138 
L 313.224463 171.568691 
L 316.503802 175.097646 
L 319.78314 178.679873 
L 323.062479 182.314265 
L 326.341818 185.999737 
L 329.621157 189.735227 
L 332.900496 193.519696 
L 336.179835 197.352125 
L 339.459174 201.231519 
L 342.738512 205.1569 
L 346.017851 209.127314 
L 349.29719 213.141823 
L 352.576529 217.199512 
L 355.855868 221.299482 
L 359.135207 225.440856 
L 362.414545 229.622772 
L 365.693884 233.844388 
L 368.973223 238.104878 
L 372.252562 242.403435 
L 375.531901 246.739268 
L 378.81124 251.111601 
L 382.090579 255.519676 
L 385.369917 259.96275 
L 388.649256 264.440095 
L 391.928595 268.951 
L 395.207934 273.494767 
L 398.487273 278.070712 
" clip-path="url(#pc3447f0e3d)" style="fill: none; stroke: #ff0000; stroke-linecap: square"/>
   </g>
   <g id="line2d_29">
    <path d="M 73.832727 182.981525 
L 77.112066 177.793216 
L 80.391405 172.875758 
L 83.670744 168.221597 
L 86.950083 163.823391 
L 90.229421 159.674001 
L 93.50876 155.76649 
L 96.788099 152.094111 
L 100.067438 148.650309 
L 103.346777 145.428707 
L 106.626116 142.423111 
L 109.905455 139.627495 
L 113.184793 137.036005 
L 116.464132 134.642947 
L 119.743471 132.442789 
L 123.02281 130.43015 
L 126.302149 128.599802 
L 129.581488 126.94666 
L 132.860826 125.465784 
L 136.140165 124.152368 
L 139.419504 123.001744 
L 142.698843 122.009371 
L 145.978182 121.170835 
L 149.257521 120.481848 
L 152.53686 119.938239 
L 155.816198 119.535952 
L 159.095537 119.271048 
L 162.374876 119.139695 
L 165.654215 119.138169 
L 168.933554 119.262849 
L 172.212893 119.510216 
L 175.492231 119.876848 
L 178.77157 120.359419 
L 182.050909 120.954697 
L 185.330248 121.659537 
L 188.609587 122.470886 
L 191.888926 123.385772 
L 195.168264 124.401308 
L 198.447603 125.514687 
L 201.726942 126.723181 
L 205.006281 128.024137 
L 208.28562 129.414977 
L 211.564959 130.893195 
L 214.844298 132.456352 
L 218.123636 134.102082 
L 221.402975 135.82808 
L 224.682314 137.632109 
L 227.961653 139.511993 
L 231.240992 141.465615 
L 234.520331 143.490921 
L 237.799669 145.58591 
L 241.079008 147.74864 
L 244.358347 149.977221 
L 247.637686 152.269817 
L 250.917025 154.624643 
L 254.196364 157.039963 
L 257.475702 159.514091 
L 260.755041 162.045386 
L 264.03438 164.632254 
L 267.313719 167.273146 
L 270.593058 169.966555 
L 273.872397 172.711015 
L 277.151736 175.505105 
L 280.431074 178.347439 
L 283.710413 181.236672 
L 286.989752 184.171497 
L 290.269091 187.150641 
L 293.54843 190.172869 
L 296.827769 193.23698 
L 300.107107 196.341806 
L 303.386446 199.48621 
L 306.665785 202.66909 
L 309.945124 205.889372 
L 313.224463 209.146013 
L 316.503802 212.438 
L 319.78314 215.764347 
L 323.062479 219.124095 
L 326.341818 222.516313 
L 329.621157 225.940095 
L 332.900496 229.394562 
L 336.179835 232.878858 
L 339.459174 236.39215 
L 342.738512 239.93363 
L 346.017851 243.502512 
L 349.29719 247.098033 
L 352.576529 250.719448 
L 355.855868 254.366036 
L 359.135207 258.037095 
L 362.414545 261.731942 
L 365.693884 265.449915 
L 368.973223 269.190368 
L 372.252562 272.952673 
L 375.531901 276.736223 
L 378.81124 280.540425 
L 382.090579 284.364701 
L 385.369917 288.208494 
L 388.649256 292.071258 
L 391.928595 295.488 
L 395.207934 295.488 
L 398.487273 295.488 
" clip-path="url(#pc3447f0e3d)" style="fill: none; stroke: #ff0000; stroke-linecap: square"/>
   </g>
   <g id="line2d_30">
    <path d="M 73.832727 179.353009 
L 77.112066 173.621957 
L 80.391405 168.040424 
L 83.670744 162.60784 
L 86.950083 157.32364 
L 90.229421 152.187258 
L 93.50876 147.198132 
L 96.788099 142.355702 
L 100.067438 137.659409 
L 103.346777 133.108698 
L 106.626116 128.703014 
L 109.905455 124.441806 
L 113.184793 120.324524 
L 116.464132 116.350621 
L 119.743471 112.51955 
L 123.02281 108.830769 
L 126.302149 105.283736 
L 129.581488 101.877912 
L 132.860826 98.612759 
L 136.140165 95.487743 
L 139.419504 92.502329 
L 142.698843 89.655987 
L 145.978182 86.948188 
L 149.257521 84.378404 
L 152.53686 81.946111 
L 155.816198 79.650785 
L 159.095537 77.491905 
L 162.374876 75.468952 
L 165.654215 73.581409 
L 168.933554 71.82876 
L 172.212893 70.210493 
L 175.492231 68.726095 
L 178.77157 67.375058 
L 182.050909 66.156875 
L 185.330248 65.071039 
L 188.609587 64.117047 
L 191.888926 63.294398 
L 195.168264 62.602591 
L 198.447603 62.04113 
L 201.726942 61.609517 
L 205.006281 61.307259 
L 208.28562 61.133864 
L 211.564959 61.088841 
L 214.844298 61.171703 
L 218.123636 61.381961 
L 221.402975 61.719133 
L 224.682314 62.182734 
L 227.961653 62.772284 
L 231.240992 63.487303 
L 234.520331 64.327314 
L 237.799669 65.291842 
L 241.079008 66.380413 
L 244.358347 67.592554 
L 247.637686 68.927796 
L 250.917025 70.38567 
L 254.196364 71.96571 
L 257.475702 73.667451 
L 260.755041 75.490429 
L 264.03438 77.434184 
L 267.313719 79.498255 
L 270.593058 81.682186 
L 273.872397 83.98552 
L 277.151736 86.407802 
L 280.431074 88.948581 
L 283.710413 91.607405 
L 286.989752 94.383825 
L 290.269091 97.277394 
L 293.54843 100.287666 
L 296.827769 103.414196 
L 300.107107 106.656544 
L 303.386446 110.014267 
L 306.665785 113.486927 
L 309.945124 117.074087 
L 313.224463 120.77531 
L 316.503802 124.590164 
L 319.78314 128.518215 
L 323.062479 132.559033 
L 326.341818 136.712188 
L 329.621157 140.977254 
L 332.900496 145.353805 
L 336.179835 149.841416 
L 339.459174 154.439665 
L 342.738512 159.148131 
L 346.017851 163.966394 
L 349.29719 168.894037 
L 352.576529 173.930644 
L 355.855868 179.075799 
L 359.135207 184.32909 
L 362.414545 189.690106 
L 365.693884 195.158437 
L 368.973223 200.733673 
L 372.252562 206.41541 
L 375.531901 212.20324 
L 378.81124 218.096762 
L 382.090579 224.095571 
L 385.369917 230.199269 
L 388.649256 236.407455 
L 391.928595 242.719733 
L 395.207934 249.135705 
L 398.487273 255.654979 
" clip-path="url(#pc3447f0e3d)" style="fill: none; stroke: #ff0000; stroke-linecap: square"/>
   </g>
   <g id="line2d_31">
    <path d="M 73.832727 170.832239 
L 77.112066 164.370888 
L 80.391405 158.220417 
L 83.670744 152.371936 
L 86.950083 146.816811 
L 90.229421 141.546653 
L 93.50876 136.553312 
L 96.788099 131.828874 
L 100.067438 127.365649 
L 103.346777 123.156168 
L 106.626116 119.193175 
L 109.905455 115.469622 
L 113.184793 111.978662 
L 116.464132 108.713643 
L 119.743471 105.668106 
L 123.02281 102.835773 
L 126.302149 100.21055 
L 129.581488 97.786512 
L 132.860826 95.557907 
L 136.140165 93.519148 
L 139.419504 91.664805 
L 142.698843 89.989604 
L 145.978182 88.488424 
L 149.257521 87.156288 
L 152.53686 85.988362 
L 155.816198 84.979951 
L 159.095537 84.126494 
L 162.374876 83.423559 
L 165.654215 82.866842 
L 168.933554 82.452163 
L 172.212893 82.17546 
L 175.492231 82.032786 
L 178.77157 82.020311 
L 182.050909 82.13431 
L 185.330248 82.371167 
L 188.609587 82.727369 
L 191.888926 83.199504 
L 195.168264 83.784255 
L 198.447603 84.478404 
L 201.726942 85.278822 
L 205.006281 86.182469 
L 208.28562 87.186395 
L 211.564959 88.287731 
L 214.844298 89.483693 
L 218.123636 90.771574 
L 221.402975 92.148746 
L 224.682314 93.612656 
L 227.961653 95.160823 
L 231.240992 96.790838 
L 234.520331 98.500361 
L 237.799669 100.287119 
L 241.079008 102.148901 
L 244.358347 104.083564 
L 247.637686 106.089024 
L 250.917025 108.163255 
L 254.196364 110.304292 
L 257.475702 112.510223 
L 260.755041 114.779194 
L 264.03438 117.109402 
L 267.313719 119.499095 
L 270.593058 121.946573 
L 273.872397 124.450183 
L 277.151736 127.008321 
L 280.431074 129.619427 
L 283.710413 132.281986 
L 286.989752 134.994527 
L 290.269091 137.755621 
L 293.54843 140.563879 
L 296.827769 143.417954 
L 300.107107 146.316534 
L 303.386446 149.258347 
L 306.665785 152.242157 
L 309.945124 155.266762 
L 313.224463 158.330998 
L 316.503802 161.433729 
L 319.78314 164.573856 
L 323.062479 167.750309 
L 326.341818 170.962049 
L 329.621157 174.208067 
L 332.900496 177.487384 
L 336.179835 180.799046 
L 339.459174 184.142129 
L 342.738512 187.515735 
L 346.017851 190.918991 
L 349.29719 194.351048 
L 352.576529 197.811084 
L 355.855868 201.298298 
L 359.135207 204.811913 
L 362.414545 208.351175 
L 365.693884 211.915349 
L 368.973223 215.503723 
L 372.252562 219.115606 
L 375.531901 222.750325 
L 378.81124 226.407228 
L 382.090579 230.085679 
L 385.369917 233.785063 
L 388.649256 237.504781 
L 391.928595 241.244251 
L 395.207934 245.00291 
L 398.487273 248.780207 
" clip-path="url(#pc3447f0e3d)" style="fill: none; stroke: #ff0000; stroke-linecap: square"/>
   </g>
   <g id="line2d_32">
    <path d="M 73.832727 178.594957 
L 77.112066 171.138522 
L 80.391405 164.159703 
L 83.670744 157.635909 
L 86.950083 151.545616 
L 90.229421 145.868317 
L 93.50876 140.584476 
L 96.788099 135.675483 
L 100.067438 131.123605 
L 103.346777 126.91195 
L 106.626116 123.024424 
L 109.905455 119.445696 
L 113.184793 116.161157 
L 116.464132 113.156893 
L 119.743471 110.419644 
L 123.02281 107.936781 
L 126.302149 105.696271 
L 129.581488 103.686648 
L 132.860826 101.896993 
L 136.140165 100.316898 
L 139.419504 98.936453 
L 142.698843 97.746212 
L 145.978182 96.737178 
L 149.257521 95.90078 
L 152.53686 95.228852 
L 155.816198 94.713614 
L 159.095537 94.347653 
L 162.374876 94.123909 
L 165.654215 94.035653 
L 168.933554 94.076479 
L 172.212893 94.240278 
L 175.492231 94.521234 
L 178.77157 94.913806 
L 182.050909 95.412714 
L 185.330248 96.012927 
L 188.609587 96.709654 
L 191.888926 97.498329 
L 195.168264 98.374603 
L 198.447603 99.334331 
L 201.726942 100.373568 
L 205.006281 101.48855 
L 208.28562 102.675696 
L 211.564959 103.931592 
L 214.844298 105.252986 
L 218.123636 106.636779 
L 221.402975 108.08002 
L 224.682314 109.579897 
L 227.961653 111.133731 
L 231.240992 112.738969 
L 234.520331 114.39318 
L 237.799669 116.094048 
L 241.079008 117.839365 
L 244.358347 119.627028 
L 247.637686 121.455035 
L 250.917025 123.321477 
L 254.196364 125.224537 
L 257.475702 127.162481 
L 260.755041 129.13366 
L 264.03438 131.136502 
L 267.313719 133.16951 
L 270.593058 135.231255 
L 273.872397 137.320379 
L 277.151736 139.435586 
L 280.431074 141.575644 
L 283.710413 143.739375 
L 286.989752 145.925661 
L 290.269091 148.133435 
L 293.54843 150.36168 
L 296.827769 152.609427 
L 300.107107 154.875755 
L 303.386446 157.159784 
L 306.665785 159.460678 
L 309.945124 161.777637 
L 313.224463 164.109903 
L 316.503802 166.456751 
L 319.78314 168.817492 
L 323.062479 171.191468 
L 326.341818 173.578053 
L 329.621157 175.976651 
L 332.900496 178.386694 
L 336.179835 180.807639 
L 339.459174 183.238973 
L 342.738512 185.680202 
L 346.017851 188.130859 
L 349.29719 190.590499 
L 352.576529 193.058695 
L 355.855868 195.535044 
L 359.135207 198.01916 
L 362.414545 200.510675 
L 365.693884 203.009239 
L 368.973223 205.514519 
L 372.252562 208.026197 
L 375.531901 210.543971 
L 378.81124 213.067552 
L 382.090579 215.596666 
L 385.369917 218.13105 
L 388.649256 220.670456 
L 391.928595 223.214646 
L 395.207934 225.763393 
L 398.487273 228.316482 
" clip-path="url(#pc3447f0e3d)" style="fill: none; stroke: #ff0000; stroke-linecap: square"/>
   </g>
   <g id="line2d_33">
    <path d="M 73.832727 173.58961 
L 77.112066 168.5295 
L 80.391405 163.754296 
L 83.670744 159.255048 
L 86.950083 155.023086 
L 90.229421 151.050012 
L 93.50876 147.327694 
L 96.788099 143.848254 
L 100.067438 140.604061 
L 103.346777 137.587724 
L 106.626116 134.792086 
L 109.905455 132.210212 
L 113.184793 129.835387 
L 116.464132 127.661106 
L 119.743471 125.681069 
L 123.02281 123.889173 
L 126.302149 122.279508 
L 129.581488 120.846348 
L 132.860826 119.584149 
L 136.140165 118.487539 
L 139.419504 117.551317 
L 142.698843 116.770442 
L 145.978182 116.140036 
L 149.257521 115.65537 
L 152.53686 115.311866 
L 155.816198 115.10509 
L 159.095537 115.030745 
L 162.374876 115.084672 
L 165.654215 115.26284 
L 168.933554 115.561346 
L 172.212893 115.97641 
L 175.492231 116.504369 
L 178.77157 117.141677 
L 182.050909 117.884899 
L 185.330248 118.730708 
L 188.609587 119.675879 
L 191.888926 120.717292 
L 195.168264 121.851924 
L 198.447603 123.076845 
L 201.726942 124.389218 
L 205.006281 125.786297 
L 208.28562 127.265421 
L 211.564959 128.824011 
L 214.844298 130.459572 
L 218.123636 132.169684 
L 221.402975 133.952007 
L 224.682314 135.804271 
L 227.961653 137.724278 
L 231.240992 139.709902 
L 234.520331 141.75908 
L 237.799669 143.869816 
L 241.079008 146.040175 
L 244.358347 148.268285 
L 247.637686 150.552332 
L 250.917025 152.890557 
L 254.196364 155.281259 
L 257.475702 157.722789 
L 260.755041 160.213551 
L 264.03438 162.751998 
L 267.313719 165.336631 
L 270.593058 167.965999 
L 273.872397 170.638698 
L 277.151736 173.353366 
L 280.431074 176.108684 
L 283.710413 178.903375 
L 286.989752 181.736203 
L 290.269091 184.605969 
L 293.54843 187.511513 
L 296.827769 190.45171 
L 300.107107 193.425472 
L 303.386446 196.431745 
L 306.665785 199.469508 
L 309.945124 202.53777 
L 313.224463 205.635573 
L 316.503802 208.761991 
L 319.78314 211.916123 
L 323.062479 215.097099 
L 326.341818 218.304075 
L 329.621157 221.536235 
L 332.900496 224.792788 
L 336.179835 228.072968 
L 339.459174 231.376031 
L 342.738512 234.701259 
L 346.017851 238.047956 
L 349.29719 241.415447 
L 352.576529 244.80308 
L 355.855868 248.21022 
L 359.135207 251.636256 
L 362.414545 255.080594 
L 365.693884 258.542658 
L 368.973223 262.021892 
L 372.252562 265.517757 
L 375.531901 269.029729 
L 378.81124 272.557303 
L 382.090579 276.09999 
L 385.369917 279.657313 
L 388.649256 283.228813 
L 391.928595 286.814045 
L 395.207934 290.412577 
L 398.487273 294.023992 
" clip-path="url(#pc3447f0e3d)" style="fill: none; stroke: #ff0000; stroke-linecap: square"/>
   </g>
   <g id="line2d_34">
    <path d="M 73.832727 180.821381 
L 77.112066 173.515826 
L 80.391405 166.476573 
L 83.670744 159.698532 
L 86.950083 153.176714 
L 90.229421 146.906223 
L 93.50876 140.882259 
L 96.788099 135.10011 
L 100.067438 129.555158 
L 103.346777 124.242871 
L 106.626116 119.158803 
L 109.905455 114.298595 
L 113.184793 109.65797 
L 116.464132 105.232733 
L 119.743471 101.018769 
L 123.02281 97.012041 
L 126.302149 93.208591 
L 129.581488 89.604535 
L 132.860826 86.196063 
L 136.140165 82.979439 
L 139.419504 79.950998 
L 142.698843 77.107145 
L 145.978182 74.444352 
L 149.257521 71.959162 
L 152.53686 69.64818 
L 155.816198 67.508079 
L 159.095537 65.535594 
L 162.374876 63.727523 
L 165.654215 62.080724 
L 168.933554 60.592117 
L 172.212893 59.25868 
L 175.492231 58.077448 
L 178.77157 57.045512 
L 182.050909 56.160022 
L 185.330248 55.418178 
L 188.609587 54.817238 
L 191.888926 54.354508 
L 195.168264 54.027349 
L 198.447603 53.83317 
L 201.726942 53.76943 
L 205.006281 53.833639 
L 208.28562 54.02335 
L 211.564959 54.336168 
L 214.844298 54.769739 
L 218.123636 55.321757 
L 221.402975 55.989958 
L 224.682314 56.772124 
L 227.961653 57.666077 
L 231.240992 58.669682 
L 234.520331 59.780842 
L 237.799669 60.997505 
L 241.079008 62.317653 
L 244.358347 63.73931 
L 247.637686 65.260537 
L 250.917025 66.879432 
L 254.196364 68.594128 
L 257.475702 70.402795 
L 260.755041 72.303638 
L 264.03438 74.294896 
L 267.313719 76.374842 
L 270.593058 78.541781 
L 273.872397 80.794051 
L 277.151736 83.130022 
L 280.431074 85.548095 
L 283.710413 88.046702 
L 286.989752 90.624303 
L 290.269091 93.279391 
L 293.54843 96.010483 
L 296.827769 98.816129 
L 300.107107 101.694904 
L 303.386446 104.64541 
L 306.665785 107.666278 
L 309.945124 110.756163 
L 313.224463 113.913747 
L 316.503802 117.137736 
L 319.78314 120.426862 
L 323.062479 123.77988 
L 326.341818 127.19557 
L 329.621157 130.672733 
L 332.900496 134.210197 
L 336.179835 137.806808 
L 339.459174 141.461437 
L 342.738512 145.172976 
L 346.017851 148.940337 
L 349.29719 152.762453 
L 352.576529 156.638279 
L 355.855868 160.566788 
L 359.135207 164.546975 
L 362.414545 168.577851 
L 365.693884 172.658448 
L 368.973223 176.787817 
L 372.252562 180.965025 
L 375.531901 185.189159 
L 378.81124 189.459322 
L 382.090579 193.774635 
L 385.369917 198.134235 
L 388.649256 202.537276 
L 391.928595 206.982928 
L 395.207934 211.470377 
L 398.487273 215.998825 
" clip-path="url(#pc3447f0e3d)" style="fill: none; stroke: #ff0000; stroke-linecap: square"/>
   </g>
   <g id="line2d_35">
    <path d="M 73.832727 166.011403 
L 77.112066 161.205093 
L 80.391405 156.735303 
L 83.670744 152.587231 
L 86.950083 148.746727 
L 90.229421 145.200263 
L 93.50876 141.934905 
L 96.788099 138.93829 
L 100.067438 136.198598 
L 103.346777 133.704528 
L 106.626116 131.445278 
L 109.905455 129.410518 
L 113.184793 127.590375 
L 116.464132 125.975409 
L 119.743471 124.556596 
L 123.02281 123.325309 
L 126.302149 122.273299 
L 129.581488 121.392681 
L 132.860826 120.675918 
L 136.140165 120.115801 
L 139.419504 119.705441 
L 142.698843 119.438251 
L 145.978182 119.307934 
L 149.257521 119.308471 
L 152.53686 119.434105 
L 155.816198 119.679334 
L 159.095537 120.038898 
L 162.374876 120.507769 
L 165.654215 121.081138 
L 168.933554 121.75441 
L 172.212893 122.52319 
L 175.492231 123.383278 
L 178.77157 124.330657 
L 182.050909 125.361488 
L 185.330248 126.472101 
L 188.609587 127.658986 
L 191.888926 128.91879 
L 195.168264 130.248304 
L 198.447603 131.644462 
L 201.726942 133.104334 
L 205.006281 134.625117 
L 208.28562 136.204132 
L 211.564959 137.838817 
L 214.844298 139.526725 
L 218.123636 141.265513 
L 221.402975 143.052945 
L 224.682314 144.886881 
L 227.961653 146.765274 
L 231.240992 148.686171 
L 234.520331 150.647702 
L 237.799669 152.648078 
L 241.079008 154.685593 
L 244.358347 156.758611 
L 247.637686 158.865572 
L 250.917025 161.004983 
L 254.196364 163.175417 
L 257.475702 165.375508 
L 260.755041 167.603953 
L 264.03438 169.859504 
L 267.313719 172.14097 
L 270.593058 174.44721 
L 273.872397 176.777135 
L 277.151736 179.129703 
L 280.431074 181.503918 
L 283.710413 183.898828 
L 286.989752 186.313522 
L 290.269091 188.747132 
L 293.54843 191.198823 
L 296.827769 193.667803 
L 300.107107 196.153309 
L 303.386446 198.654615 
L 306.665785 201.171026 
L 309.945124 203.701878 
L 313.224463 206.246535 
L 316.503802 208.804391 
L 319.78314 211.374865 
L 323.062479 213.957401 
L 326.341818 216.55147 
L 329.621157 219.156564 
L 332.900496 221.772198 
L 336.179835 224.397909 
L 339.459174 227.033252 
L 342.738512 229.677806 
L 346.017851 232.331164 
L 349.29719 234.992939 
L 352.576529 237.662762 
L 355.855868 240.340278 
L 359.135207 243.025148 
L 362.414545 245.71705 
L 365.693884 248.415673 
L 368.973223 251.120724 
L 372.252562 253.831917 
L 375.531901 256.548985 
L 378.81124 259.271667 
L 382.090579 261.999718 
L 385.369917 264.732901 
L 388.649256 267.47099 
L 391.928595 270.213769 
L 395.207934 272.961033 
L 398.487273 275.712584 
" clip-path="url(#pc3447f0e3d)" style="fill: none; stroke: #ff0000; stroke-linecap: square"/>
   </g>
   <g id="line2d_36">
    <path d="M 73.832727 181.183528 
L 77.112066 173.58543 
L 80.391405 166.404786 
L 83.670744 159.625557 
L 86.950083 153.232315 
L 90.229421 147.21023 
L 93.50876 141.545038 
L 96.788099 136.223026 
L 100.067438 131.231005 
L 103.346777 126.556295 
L 106.626116 122.186702 
L 109.905455 118.110503 
L 113.184793 114.316422 
L 116.464132 110.793618 
L 119.743471 107.531668 
L 123.02281 104.520547 
L 126.302149 101.750617 
L 129.581488 99.212609 
L 132.860826 96.897611 
L 136.140165 94.797054 
L 139.419504 92.902696 
L 142.698843 91.206616 
L 145.978182 89.701193 
L 149.257521 88.3791 
L 152.53686 87.233294 
L 155.816198 86.256999 
L 159.095537 85.443702 
L 162.374876 84.78714 
L 165.654215 84.281289 
L 168.933554 83.920358 
L 172.212893 83.698779 
L 175.492231 83.611196 
L 178.77157 83.65246 
L 182.050909 83.81762 
L 185.330248 84.101916 
L 188.609587 84.500768 
L 191.888926 85.009775 
L 195.168264 85.624704 
L 198.447603 86.341485 
L 201.726942 87.156204 
L 205.006281 88.065097 
L 208.28562 89.064545 
L 211.564959 90.151069 
L 214.844298 91.321323 
L 218.123636 92.572089 
L 221.402975 93.900273 
L 224.682314 95.302901 
L 227.961653 96.777111 
L 231.240992 98.320153 
L 234.520331 99.929382 
L 237.799669 101.602254 
L 241.079008 103.336325 
L 244.358347 105.129241 
L 247.637686 106.978743 
L 250.917025 108.882655 
L 254.196364 110.838887 
L 257.475702 112.845428 
L 260.755041 114.900345 
L 264.03438 117.001779 
L 267.313719 119.147942 
L 270.593058 121.337116 
L 273.872397 123.567648 
L 277.151736 125.837949 
L 280.431074 128.14649 
L 283.710413 130.491802 
L 286.989752 132.872471 
L 290.269091 135.287141 
L 293.54843 137.734502 
L 296.827769 140.213301 
L 300.107107 142.722327 
L 303.386446 145.260421 
L 306.665785 147.826465 
L 309.945124 150.419384 
L 313.224463 153.038146 
L 316.503802 155.681759 
L 319.78314 158.349266 
L 323.062479 161.03975 
L 326.341818 163.752329 
L 329.621157 166.486152 
L 332.900496 169.240404 
L 336.179835 172.014299 
L 339.459174 174.807083 
L 342.738512 177.61803 
L 346.017851 180.446441 
L 349.29719 183.291647 
L 352.576529 186.153001 
L 355.855868 189.029883 
L 359.135207 191.921696 
L 362.414545 194.827866 
L 365.693884 197.747842 
L 368.973223 200.681094 
L 372.252562 203.62711 
L 375.531901 206.585401 
L 378.81124 209.555495 
L 382.090579 212.536938 
L 385.369917 215.529295 
L 388.649256 218.532145 
L 391.928595 221.545086 
L 395.207934 224.56773 
L 398.487273 227.599703 
" clip-path="url(#pc3447f0e3d)" style="fill: none; stroke: #ff0000; stroke-linecap: square"/>
   </g>
   <g id="line2d_37">
    <path d="M 73.832727 204.33406 
L 77.112066 197.107797 
L 80.391405 190.310406 
L 83.670744 183.923823 
L 86.950083 177.930751 
L 90.229421 172.314622 
L 93.50876 167.059566 
L 96.788099 162.150384 
L 100.067438 157.572517 
L 103.346777 153.312023 
L 106.626116 149.355545 
L 109.905455 145.690291 
L 113.184793 142.30401 
L 116.464132 139.184965 
L 119.743471 136.321915 
L 123.02281 133.704095 
L 126.302149 131.321191 
L 129.581488 129.163326 
L 132.860826 127.221038 
L 136.140165 125.485266 
L 139.419504 123.94733 
L 142.698843 122.598913 
L 145.978182 121.432054 
L 149.257521 120.439123 
L 152.53686 119.612813 
L 155.816198 118.946127 
L 159.095537 118.432359 
L 162.374876 118.065088 
L 165.654215 117.838164 
L 168.933554 117.745694 
L 172.212893 117.782034 
L 175.492231 117.941779 
L 178.77157 118.21975 
L 182.050909 118.610987 
L 185.330248 119.110738 
L 188.609587 119.714453 
L 191.888926 120.41777 
L 195.168264 121.216515 
L 198.447603 122.106686 
L 201.726942 123.084452 
L 205.006281 124.146141 
L 208.28562 125.288237 
L 211.564959 126.507373 
L 214.844298 127.80032 
L 218.123636 129.163989 
L 221.402975 130.595418 
L 224.682314 132.091771 
L 227.961653 133.650331 
L 231.240992 135.268494 
L 234.520331 136.943768 
L 237.799669 138.673764 
L 241.079008 140.456194 
L 244.358347 142.288866 
L 247.637686 144.16968 
L 250.917025 146.096624 
L 254.196364 148.067771 
L 257.475702 150.081276 
L 260.755041 152.135369 
L 264.03438 154.228357 
L 267.313719 156.358616 
L 270.593058 158.524592 
L 273.872397 160.724795 
L 277.151736 162.957797 
L 280.431074 165.222232 
L 283.710413 167.516791 
L 286.989752 169.840217 
L 290.269091 172.12952 
L 293.54843 174.438516 
L 296.827769 176.771708 
L 300.107107 179.128045 
L 303.386446 181.506526 
L 306.665785 183.87005 
L 309.945124 186.26077 
L 313.224463 188.67804 
L 316.503802 191.126775 
L 319.78314 193.677017 
L 323.062479 196.305511 
L 326.341818 198.953924 
L 329.621157 201.622712 
L 332.900496 204.231869 
L 336.179835 206.84752 
L 339.459174 209.560528 
L 342.738512 212.321193 
L 346.017851 215.037033 
L 349.29719 217.71995 
L 352.576529 220.370694 
L 355.855868 223.122672 
L 359.135207 225.90291 
L 362.414545 228.681499 
L 365.693884 231.435429 
L 368.973223 234.222123 
L 372.252562 237.287439 
L 375.531901 240.341082 
L 378.81124 243.301672 
L 382.090579 246.336657 
L 385.369917 249.308348 
L 388.649256 252.096808 
L 391.928595 254.890758 
L 395.207934 257.924922 
L 398.487273 261.085953 
" clip-path="url(#pc3447f0e3d)" style="fill: none; stroke: #0000ff; stroke-linecap: square"/>
   </g>
   <g id="patch_3">
    <path d="M 57.6 307.584 
L 57.6 41.472 
" style="fill: none; stroke: #000000; stroke-width: 0.8; stroke-linejoin: miter; stroke-linecap: square"/>
   </g>
   <g id="patch_4">
    <path d="M 414.72 307.584 
L 414.72 41.472 
" style="fill: none; stroke: #000000; stroke-width: 0.8; stroke-linejoin: miter; stroke-linecap: square"/>
   </g>
   <g id="patch_5">
    <path d="M 57.6 307.584 
L 414.72 307.584 
" style="fill: none; stroke: #000000; stroke-width: 0.8; stroke-linejoin: miter; stroke-linecap: square"/>
   </g>
   <g id="patch_6">
    <path d="M 57.6 41.472 
L 414.72 41.472 
" style="fill: none; stroke: #000000; stroke-width: 0.8; stroke-linejoin: miter; stroke-linecap: square"/>
   </g>
   <g id="line2d_38">
    <path d="M 73.832727 174.894024 
L 77.112066 169.110477 
L 80.391405 163.573779 
L 83.670744 158.278803 
L 86.950083 153.220528 
L 90.229421 148.394038 
L 93.50876 143.794518 
L 96.788099 139.417255 
L 100.067438 135.25763 
L 103.346777 131.311123 
L 106.626116 127.573307 
L 109.905455 124.039844 
L 113.184793 120.70649 
L 116.464132 117.569087 
L 119.743471 114.623562 
L 123.02281 111.865929 
L 126.302149 109.292282 
L 129.581488 106.898799 
L 132.860826 104.681734 
L 136.140165 102.637422 
L 139.419504 100.76227 
L 142.698843 99.052763 
L 145.978182 97.505457 
L 149.257521 96.11698 
L 152.53686 94.884031 
L 155.816198 93.803376 
L 159.095537 92.871848 
L 162.374876 92.086348 
L 165.654215 91.443837 
L 168.933554 90.941344 
L 172.212893 90.575956 
L 175.492231 90.344822 
L 178.77157 90.245151 
L 182.050909 90.274208 
L 185.330248 90.429317 
L 188.609587 90.707855 
L 191.888926 91.107256 
L 195.168264 91.625005 
L 198.447603 92.258642 
L 201.726942 93.005757 
L 205.006281 93.863987 
L 208.28562 94.831024 
L 211.564959 95.904602 
L 214.844298 97.082507 
L 218.123636 98.362569 
L 221.402975 99.742661 
L 224.682314 101.220705 
L 227.961653 102.794661 
L 231.240992 104.462536 
L 234.520331 106.222376 
L 237.799669 108.072268 
L 241.079008 110.010339 
L 244.358347 112.034754 
L 247.637686 114.143718 
L 250.917025 116.335473 
L 254.196364 118.608296 
L 257.475702 120.960502 
L 260.755041 123.390439 
L 264.03438 125.89649 
L 267.313719 128.477074 
L 270.593058 131.130639 
L 273.872397 133.855669 
L 277.151736 136.650676 
L 280.431074 139.514207 
L 283.710413 142.444835 
L 286.989752 145.441166 
L 290.269091 148.494181 
L 293.54843 151.60935 
L 296.827769 154.786057 
L 300.107107 158.023021 
L 303.386446 161.318988 
L 306.665785 164.682515 
L 309.945124 168.088891 
L 313.224463 171.544674 
L 316.503802 175.072102 
L 319.78314 178.672577 
L 323.062479 182.332886 
L 326.341818 186.045443 
L 329.621157 189.80316 
L 332.900496 193.621995 
L 336.179835 197.4681 
L 339.459174 201.343625 
L 342.738512 205.249946 
L 346.017851 209.193233 
L 349.29719 213.207961 
L 352.576529 217.329691 
L 355.855868 221.494574 
L 359.135207 225.654231 
L 362.414545 229.866611 
L 365.693884 234.08014 
L 368.973223 238.308627 
L 372.252562 242.545607 
L 375.531901 246.899282 
L 378.81124 251.409087 
L 382.090579 255.934872 
L 385.369917 260.39153 
L 388.649256 264.82008 
L 391.928595 269.298662 
L 395.207934 273.703389 
L 398.487273 277.910889 
" clip-path="url(#pc3447f0e3d)" style="fill: none; stroke: #0000ff; stroke-linecap: square"/>
   </g>
   <g id="line2d_39">
    <path d="M 73.832727 182.981525 
L 77.112066 177.793208 
L 80.391405 172.875718 
L 83.670744 168.221494 
L 86.950083 163.823187 
L 90.229421 159.673652 
L 93.50876 155.765948 
L 96.788099 152.093324 
L 100.067438 148.649222 
L 103.346777 145.427265 
L 106.626116 142.421256 
L 109.905455 139.62517 
L 113.184793 137.033153 
L 116.464132 134.639511 
L 119.743471 132.438712 
L 123.02281 130.425378 
L 126.302149 128.594282 
L 129.581488 126.94034 
L 132.860826 125.458615 
L 136.140165 124.144303 
L 139.419504 122.992738 
L 142.698843 121.999381 
L 145.978182 121.159822 
L 149.257521 120.469774 
L 152.53686 119.925068 
L 155.816198 119.521654 
L 159.095537 119.255592 
L 162.374876 119.123054 
L 165.654215 119.120318 
L 168.933554 119.243767 
L 172.212893 119.489882 
L 175.492231 119.855246 
L 178.77157 120.336535 
L 182.050909 120.930518 
L 185.330248 121.634053 
L 188.609587 122.444089 
L 191.888926 123.357656 
L 195.168264 124.371869 
L 198.447603 125.483925 
L 201.726942 126.691095 
L 205.006281 127.99073 
L 208.28562 129.380252 
L 211.564959 130.857157 
L 214.844298 132.419009 
L 218.123636 134.063442 
L 221.402975 135.788154 
L 224.682314 137.590908 
L 227.961653 139.46953 
L 231.240992 141.421905 
L 234.520331 143.445978 
L 237.799669 145.539751 
L 241.079008 147.701282 
L 244.358347 149.928684 
L 247.637686 152.220119 
L 250.917025 154.573805 
L 254.196364 156.988007 
L 257.475702 159.461038 
L 260.755041 161.991259 
L 264.03438 164.577077 
L 267.313719 167.216943 
L 270.593058 169.909349 
L 273.872397 172.652833 
L 277.151736 175.445972 
L 280.431074 178.287381 
L 283.710413 181.175716 
L 286.989752 184.109669 
L 290.269091 187.108679 
L 293.54843 190.153088 
L 296.827769 193.239814 
L 300.107107 196.367688 
L 303.386446 199.53557 
L 306.665785 202.700729 
L 309.945124 205.894648 
L 313.224463 209.118232 
L 316.503802 212.366876 
L 319.78314 215.637382 
L 323.062479 218.94495 
L 326.341818 222.288894 
L 329.621157 225.664117 
L 332.900496 229.091867 
L 336.179835 232.537489 
L 339.459174 235.986686 
L 342.738512 239.46934 
L 346.017851 243.005109 
L 349.29719 246.598521 
L 352.576529 250.277483 
L 355.855868 254.038246 
L 359.135207 257.898869 
L 362.414545 261.770432 
L 365.693884 265.714416 
L 368.973223 269.656088 
L 372.252562 273.606878 
L 375.531901 277.448652 
L 378.81124 281.042761 
L 382.090579 284.357285 
L 385.369917 287.332134 
L 388.649256 289.95656 
L 391.928595 292.14238 
L 395.207934 293.824971 
L 398.487273 295.129478 
" clip-path="url(#pc3447f0e3d)" style="fill: none; stroke: #0000ff; stroke-linecap: square"/>
   </g>
   <g id="line2d_40">
    <path d="M 73.832727 179.353009 
L 77.112066 173.621975 
L 80.391405 168.040499 
L 83.670744 162.608015 
L 86.950083 157.323959 
L 90.229421 152.18777 
L 93.50876 147.198886 
L 96.788099 142.35675 
L 100.067438 137.660804 
L 103.346777 133.110492 
L 106.626116 128.705262 
L 109.905455 124.444562 
L 113.184793 120.327842 
L 116.464132 116.354554 
L 119.743471 112.524151 
L 123.02281 108.836089 
L 126.302149 105.289827 
L 129.581488 101.884823 
L 132.860826 98.620539 
L 136.140165 95.496438 
L 139.419504 92.511985 
L 142.698843 89.666648 
L 145.978182 86.959895 
L 149.257521 84.391198 
L 152.53686 81.96003 
L 155.816198 79.665865 
L 159.095537 77.50818 
L 162.374876 75.486455 
L 165.654215 73.60017 
L 168.933554 71.848808 
L 172.212893 70.231853 
L 175.492231 68.748792 
L 178.77157 67.399115 
L 182.050909 66.182311 
L 185.330248 65.097873 
L 188.609587 64.145295 
L 191.888926 63.324075 
L 195.168264 62.63371 
L 198.447603 62.0737 
L 201.726942 61.643549 
L 205.006281 61.34276 
L 208.28562 61.170839 
L 211.564959 61.127295 
L 214.844298 61.211637 
L 218.123636 61.423378 
L 221.402975 61.762031 
L 224.682314 62.227111 
L 227.961653 62.818138 
L 231.240992 63.534628 
L 234.520331 64.376106 
L 237.799669 65.342092 
L 241.079008 66.432114 
L 244.358347 67.645697 
L 247.637686 68.98237 
L 250.917025 70.441664 
L 254.196364 72.023112 
L 257.475702 73.726247 
L 260.755041 75.550606 
L 264.03438 77.495728 
L 267.313719 79.561151 
L 270.593058 81.746417 
L 273.872397 84.05107 
L 277.151736 86.474654 
L 280.431074 89.016717 
L 283.710413 91.676807 
L 286.989752 94.454475 
L 290.269091 97.332375 
L 293.54843 100.325093 
L 296.827769 103.433718 
L 300.107107 106.65781 
L 303.386446 109.99693 
L 306.665785 113.466297 
L 309.945124 117.061496 
L 313.224463 120.759641 
L 316.503802 124.57343 
L 319.78314 128.50581 
L 323.062479 132.532253 
L 326.341818 136.674766 
L 329.621157 140.951417 
L 332.900496 145.378041 
L 336.179835 149.944452 
L 339.459174 154.582844 
L 342.738512 159.297932 
L 346.017851 164.140561 
L 349.29719 169.112088 
L 352.576529 174.255121 
L 355.855868 179.488161 
L 359.135207 184.956193 
L 362.414545 190.570273 
L 365.693884 196.359549 
L 368.973223 202.332033 
L 372.252562 208.433164 
L 375.531901 214.641885 
L 378.81124 220.947147 
L 382.090579 227.355418 
L 385.369917 233.863317 
L 388.649256 240.323932 
L 391.928595 246.5331 
L 395.207934 252.423799 
L 398.487273 257.939129 
" clip-path="url(#pc3447f0e3d)" style="fill: none; stroke: #0000ff; stroke-linecap: square"/>
   </g>
   <g id="line2d_41">
    <path d="M 73.832727 170.832239 
L 77.112066 164.370916 
L 80.391405 158.220518 
L 83.670744 152.37214 
L 86.950083 146.817132 
L 90.229421 141.547092 
L 93.50876 136.55386 
L 96.788099 131.82951 
L 100.067438 127.366342 
L 103.346777 123.156879 
L 106.626116 119.193857 
L 109.905455 115.470222 
L 113.184793 111.979121 
L 116.464132 108.713898 
L 119.743471 105.668088 
L 123.02281 102.835411 
L 126.302149 100.209768 
L 129.581488 97.785234 
L 132.860826 95.556054 
L 136.140165 93.516639 
L 139.419504 91.661559 
L 142.698843 89.98554 
L 145.978182 88.48346 
L 149.257521 87.150343 
L 152.53686 85.981355 
L 155.816198 84.971802 
L 159.095537 84.117124 
L 162.374876 83.412892 
L 165.654215 82.854802 
L 168.933554 82.438676 
L 172.212893 82.160454 
L 175.492231 82.016193 
L 178.77157 82.002063 
L 182.050909 82.114343 
L 185.330248 82.34942 
L 188.609587 82.703782 
L 191.888926 83.174021 
L 195.168264 83.756823 
L 198.447603 84.448972 
L 201.726942 85.247342 
L 205.006281 86.148898 
L 208.28562 87.150691 
L 211.564959 88.249855 
L 214.844298 89.44361 
L 218.123636 90.729252 
L 221.402975 92.104156 
L 224.682314 93.565772 
L 227.961653 95.111622 
L 231.240992 96.7393 
L 234.520331 98.446468 
L 237.799669 100.230857 
L 241.079008 102.09026 
L 244.358347 104.022535 
L 247.637686 106.0256 
L 250.917025 108.097435 
L 254.196364 110.236075 
L 257.475702 112.439612 
L 260.755041 114.706194 
L 264.03438 117.03402 
L 267.313719 119.421342 
L 270.593058 121.86646 
L 273.872397 124.367726 
L 277.151736 126.923537 
L 280.431074 129.532334 
L 283.710413 132.192606 
L 286.989752 134.902884 
L 290.269091 137.637818 
L 293.54843 140.417304 
L 296.827769 143.242163 
L 300.107107 146.111091 
L 303.386446 149.022821 
L 306.665785 151.99128 
L 309.945124 155.042786 
L 313.224463 158.146703 
L 316.503802 161.261605 
L 319.78314 164.420459 
L 323.062479 167.622416 
L 326.341818 170.860093 
L 329.621157 174.146074 
L 332.900496 177.456058 
L 336.179835 180.793952 
L 339.459174 184.172756 
L 342.738512 187.584882 
L 346.017851 191.036644 
L 349.29719 194.516254 
L 352.576529 198.054641 
L 355.855868 201.607878 
L 359.135207 205.144068 
L 362.414545 208.691309 
L 365.693884 212.206125 
L 368.973223 215.714627 
L 372.252562 219.190947 
L 375.531901 222.667616 
L 378.81124 226.173442 
L 382.090579 229.723095 
L 385.369917 233.369188 
L 388.649256 237.087074 
L 391.928595 240.827976 
L 395.207934 244.689829 
L 398.487273 248.664146 
" clip-path="url(#pc3447f0e3d)" style="fill: none; stroke: #0000ff; stroke-linecap: square"/>
   </g>
   <g id="line2d_42">
    <path d="M 73.832727 178.594957 
L 77.112066 171.138535 
L 80.391405 164.15983 
L 83.670744 157.636353 
L 86.950083 151.546671 
L 90.229421 145.870358 
L 93.50876 140.587947 
L 96.788099 135.680886 
L 100.067438 131.131496 
L 103.346777 126.922927 
L 106.626116 123.03912 
L 109.905455 119.464772 
L 113.184793 116.185299 
L 116.464132 113.186801 
L 119.743471 110.456031 
L 123.02281 107.980365 
L 126.302149 105.747772 
L 129.581488 103.746786 
L 132.860826 101.966479 
L 136.140165 100.396439 
L 139.419504 99.026739 
L 142.698843 97.847923 
L 145.978182 96.850975 
L 149.257521 96.027306 
L 152.53686 95.368728 
L 155.816198 94.86744 
L 159.095537 94.516006 
L 162.374876 94.30734 
L 165.654215 94.234689 
L 168.933554 94.291618 
L 172.212893 94.471993 
L 175.492231 94.769971 
L 178.77157 95.17998 
L 182.050909 95.696713 
L 185.330248 96.315111 
L 188.609587 97.030355 
L 191.888926 97.837849 
L 195.168264 98.733216 
L 198.447603 99.712285 
L 201.726942 100.771079 
L 205.006281 101.905811 
L 208.28562 103.11287 
L 211.564959 104.388815 
L 214.844298 105.730369 
L 218.123636 107.134408 
L 221.402975 108.597954 
L 224.682314 110.118172 
L 227.961653 111.692357 
L 231.240992 113.317935 
L 234.520331 114.992451 
L 237.799669 116.713567 
L 241.079008 118.479054 
L 244.358347 120.286789 
L 247.637686 122.134749 
L 250.917025 124.021006 
L 254.196364 125.943724 
L 257.475702 127.901152 
L 260.755041 129.891624 
L 264.03438 131.913551 
L 267.313719 133.965418 
L 270.593058 136.045785 
L 273.872397 138.153277 
L 277.151736 140.286586 
L 280.431074 142.444464 
L 283.710413 144.625723 
L 286.989752 146.829232 
L 290.269091 149.094904 
L 293.54843 151.385245 
L 296.827769 153.695559 
L 300.107107 156.024909 
L 303.386446 158.3724 
L 306.665785 160.685026 
L 309.945124 162.953632 
L 313.224463 165.237161 
L 316.503802 167.549982 
L 319.78314 169.870719 
L 323.062479 172.198868 
L 326.341818 174.563001 
L 329.621157 177.024297 
L 332.900496 179.485271 
L 336.179835 181.805714 
L 339.459174 184.113708 
L 342.738512 186.490483 
L 346.017851 188.864111 
L 349.29719 191.242297 
L 352.576529 193.466538 
L 355.855868 195.749846 
L 359.135207 198.166153 
L 362.414545 200.639351 
L 365.693884 203.240186 
L 368.973223 205.872655 
L 372.252562 208.487135 
L 375.531901 211.086552 
L 378.81124 213.614097 
L 382.090579 216.14874 
L 385.369917 218.68847 
L 388.649256 221.246809 
L 391.928595 223.811906 
L 395.207934 226.293549 
L 398.487273 228.614657 
" clip-path="url(#pc3447f0e3d)" style="fill: none; stroke: #0000ff; stroke-linecap: square"/>
   </g>
   <g id="line2d_43">
    <path d="M 73.832727 173.58961 
L 77.112066 168.529539 
L 80.391405 163.754464 
L 83.670744 159.25545 
L 86.950083 155.023838 
L 90.229421 151.051242 
L 93.50876 147.329535 
L 96.788099 143.850844 
L 100.067438 140.607542 
L 103.346777 137.592239 
L 106.626116 134.797777 
L 109.905455 132.217221 
L 113.184793 129.843853 
L 116.464132 127.671165 
L 119.743471 125.692851 
L 123.02281 123.902805 
L 126.302149 122.295111 
L 129.581488 120.864036 
L 132.860826 119.604029 
L 136.140165 118.509713 
L 139.419504 117.575878 
L 142.698843 116.797478 
L 145.978182 116.169626 
L 149.257521 115.687585 
L 152.53686 115.346771 
L 155.816198 115.142741 
L 159.095537 115.071191 
L 162.374876 115.127954 
L 165.654215 115.308993 
L 168.933554 115.610397 
L 172.212893 116.028378 
L 175.492231 116.559267 
L 178.77157 117.199512 
L 182.050909 117.945669 
L 185.330248 118.794405 
L 188.609587 119.742491 
L 191.888926 120.7868 
L 195.168264 121.924301 
L 198.447603 123.15206 
L 201.726942 124.467236 
L 205.006281 125.867076 
L 208.28562 127.348914 
L 211.564959 128.910167 
L 214.844298 130.548335 
L 218.123636 132.260994 
L 221.402975 134.045799 
L 224.682314 135.900478 
L 227.961653 137.822828 
L 231.240992 139.810718 
L 234.520331 141.862084 
L 237.799669 143.974926 
L 241.079008 146.147306 
L 244.358347 148.37735 
L 247.637686 150.663239 
L 250.917025 153.003215 
L 254.196364 155.395573 
L 257.475702 157.838662 
L 260.755041 160.330884 
L 264.03438 162.870689 
L 267.313719 165.45658 
L 270.593058 168.087102 
L 273.872397 170.760849 
L 277.151736 173.476459 
L 280.431074 176.232612 
L 283.710413 179.02803 
L 286.989752 181.861476 
L 290.269091 184.744236 
L 293.54843 187.664043 
L 296.827769 190.618639 
L 300.107107 193.606933 
L 303.386446 196.627868 
L 306.665785 199.65361 
L 309.945124 202.683034 
L 313.224463 205.746569 
L 316.503802 208.836097 
L 319.78314 211.923694 
L 323.062479 215.039901 
L 326.341818 218.172121 
L 329.621157 221.296915 
L 332.900496 224.434338 
L 336.179835 227.665354 
L 339.459174 230.939905 
L 342.738512 234.280013 
L 346.017851 237.703699 
L 349.29719 241.221586 
L 352.576529 244.92248 
L 355.855868 248.622363 
L 359.135207 252.355225 
L 362.414545 256.126205 
L 365.693884 260.011736 
L 368.973223 263.867255 
L 372.252562 267.673264 
L 375.531901 271.385875 
L 378.81124 274.93636 
L 382.090579 278.301492 
L 385.369917 281.378028 
L 388.649256 284.040925 
L 391.928595 286.366014 
L 395.207934 288.170847 
L 398.487273 289.62131 
" clip-path="url(#pc3447f0e3d)" style="fill: none; stroke: #0000ff; stroke-linecap: square"/>
   </g>
   <g id="line2d_44">
    <path d="M 73.832727 180.821381 
L 77.112066 173.515847 
L 80.391405 166.476619 
L 83.670744 159.698559 
L 86.950083 153.176631 
L 90.229421 146.9059 
L 93.50876 140.881526 
L 96.788099 135.098767 
L 100.067438 129.552974 
L 103.346777 124.239588 
L 106.626116 119.15414 
L 109.905455 114.292251 
L 113.184793 109.649625 
L 116.464132 105.222052 
L 119.743471 101.005404 
L 123.02281 96.995632 
L 126.302149 93.188769 
L 129.581488 89.580924 
L 132.860826 86.168282 
L 136.140165 82.947101 
L 139.419504 79.913714 
L 142.698843 77.064524 
L 145.978182 74.396005 
L 149.257521 71.904697 
L 152.53686 69.587211 
L 155.816198 67.440221 
L 159.095537 65.460466 
L 162.374876 63.644747 
L 165.654215 61.989931 
L 168.933554 60.49294 
L 172.212893 59.15076 
L 175.492231 57.960434 
L 178.77157 56.919061 
L 182.050909 56.023796 
L 185.330248 55.271851 
L 188.609587 54.66049 
L 191.888926 54.18703 
L 195.168264 53.848841 
L 198.447603 53.643341 
L 201.726942 53.568 
L 205.006281 53.620336 
L 208.28562 53.797916 
L 211.564959 54.098351 
L 214.844298 54.5193 
L 218.123636 55.058467 
L 221.402975 55.713599 
L 224.682314 56.482487 
L 227.961653 57.362965 
L 231.240992 58.352908 
L 234.520331 59.450231 
L 237.799669 60.65289 
L 241.079008 61.95888 
L 244.358347 63.366235 
L 247.637686 64.873025 
L 250.917025 66.477359 
L 254.196364 68.177381 
L 257.475702 69.971271 
L 260.755041 71.857243 
L 264.03438 73.833547 
L 267.313719 75.898465 
L 270.593058 78.050312 
L 273.872397 80.287436 
L 277.151736 82.608216 
L 280.431074 85.011062 
L 283.710413 87.494415 
L 286.989752 90.056744 
L 290.269091 92.688275 
L 293.54843 95.394898 
L 296.827769 98.175919 
L 300.107107 101.029923 
L 303.386446 103.955523 
L 306.665785 106.949999 
L 309.945124 110.044635 
L 313.224463 113.213742 
L 316.503802 116.442201 
L 319.78314 119.752771 
L 323.062479 123.105038 
L 326.341818 126.527279 
L 329.621157 130.071591 
L 332.900496 133.666662 
L 336.179835 137.324762 
L 339.459174 141.018403 
L 342.738512 144.795839 
L 346.017851 148.586425 
L 349.29719 152.370726 
L 352.576529 156.123803 
L 355.855868 159.905523 
L 359.135207 163.83214 
L 362.414545 167.83994 
L 365.693884 171.873408 
L 368.973223 175.955212 
L 372.252562 180.080612 
L 375.531901 184.296627 
L 378.81124 188.642911 
L 382.090579 193.134664 
L 385.369917 197.692455 
L 388.649256 202.266562 
L 391.928595 206.74537 
L 395.207934 211.278262 
L 398.487273 215.892895 
" clip-path="url(#pc3447f0e3d)" style="fill: none; stroke: #0000ff; stroke-linecap: square"/>
   </g>
   <g id="line2d_45">
    <path d="M 73.832727 166.011403 
L 77.112066 161.205093 
L 80.391405 156.735299 
L 83.670744 152.587217 
L 86.950083 148.746693 
L 90.229421 145.200196 
L 93.50876 141.93479 
L 96.788099 138.938107 
L 100.067438 136.198325 
L 103.346777 133.704141 
L 106.626116 131.444747 
L 109.905455 129.409815 
L 113.184793 127.589467 
L 116.464132 125.974263 
L 119.743471 124.555177 
L 123.02281 123.323579 
L 126.302149 122.27122 
L 129.581488 121.390215 
L 132.860826 120.673024 
L 136.140165 120.112441 
L 139.419504 119.701575 
L 142.698843 119.433839 
L 145.978182 119.302936 
L 149.257521 119.302848 
L 152.53686 119.427819 
L 155.816198 119.672348 
L 159.095537 120.031176 
L 162.374876 120.499274 
L 165.654215 121.071837 
L 168.933554 121.74427 
L 172.212893 122.512181 
L 175.492231 123.371369 
L 178.77157 124.317821 
L 182.050909 125.347699 
L 185.330248 126.457334 
L 188.609587 127.643219 
L 191.888926 128.902002 
L 195.168264 130.230476 
L 198.447603 131.625578 
L 201.726942 133.084378 
L 205.006281 134.604076 
L 208.28562 136.181994 
L 211.564959 137.815573 
L 214.844298 139.502367 
L 218.123636 141.240036 
L 221.402975 143.026344 
L 224.682314 144.859154 
L 227.961653 146.73642 
L 231.240992 148.656191 
L 234.520331 150.616597 
L 237.799669 152.615853 
L 241.079008 154.652252 
L 244.358347 156.724162 
L 247.637686 158.830022 
L 250.917025 160.96834 
L 254.196364 163.137692 
L 257.475702 165.336712 
L 260.755041 167.564098 
L 264.03438 169.818603 
L 267.313719 172.099037 
L 270.593058 174.404259 
L 273.872397 176.733182 
L 277.151736 179.084763 
L 280.431074 181.458008 
L 283.710413 183.851966 
L 286.989752 186.265725 
L 290.269091 188.69108 
L 293.54843 191.133726 
L 296.827769 193.593533 
L 300.107107 196.069742 
L 303.386446 198.561628 
L 306.665785 201.062605 
L 309.945124 203.583542 
L 313.224463 206.111047 
L 316.503802 208.591788 
L 319.78314 211.052212 
L 323.062479 213.521499 
L 326.341818 215.989281 
L 329.621157 218.42693 
L 332.900496 220.857028 
L 336.179835 223.364108 
L 339.459174 225.860124 
L 342.738512 228.393859 
L 346.017851 231.030688 
L 349.29719 233.79111 
L 352.576529 236.719414 
L 355.855868 239.777184 
L 359.135207 243.040076 
L 362.414545 246.421094 
L 365.693884 249.855787 
L 368.973223 253.346121 
L 372.252562 256.853744 
L 375.531901 260.180667 
L 378.81124 263.432793 
L 382.090579 266.646575 
L 385.369917 269.703803 
L 388.649256 272.487265 
L 391.928595 274.906653 
L 395.207934 277.199377 
L 398.487273 279.415153 
" clip-path="url(#pc3447f0e3d)" style="fill: none; stroke: #0000ff; stroke-linecap: square"/>
   </g>
   <g id="line2d_46">
    <path d="M 73.832727 181.183528 
L 77.112066 173.585416 
L 80.391405 166.404732 
L 83.670744 159.625433 
L 86.950083 153.232096 
L 90.229421 147.209891 
L 93.50876 141.54456 
L 96.788099 136.222391 
L 100.067438 131.230203 
L 103.346777 126.555321 
L 106.626116 122.185558 
L 109.905455 118.109196 
L 113.184793 114.314967 
L 116.464132 110.792037 
L 119.743471 107.52999 
L 123.02281 104.518809 
L 126.302149 101.748863 
L 129.581488 99.21089 
L 132.860826 96.895987 
L 136.140165 94.79559 
L 139.419504 92.901467 
L 142.698843 91.205701 
L 145.978182 89.700679 
L 149.257521 88.379082 
L 152.53686 87.233871 
L 155.816198 86.258277 
L 159.095537 85.445793 
L 162.374876 84.79016 
L 165.654215 84.28536 
L 168.933554 83.925608 
L 172.212893 83.705339 
L 175.492231 83.619202 
L 178.77157 83.662051 
L 182.050909 83.82894 
L 185.330248 84.115111 
L 188.609587 84.515988 
L 191.888926 85.027172 
L 195.168264 85.644433 
L 198.447603 86.363703 
L 201.726942 87.18107 
L 205.006281 88.092771 
L 208.28562 89.095189 
L 211.564959 90.184846 
L 214.844298 91.358395 
L 218.123636 92.612622 
L 221.402975 93.944431 
L 224.682314 95.350849 
L 227.961653 96.829013 
L 231.240992 98.376175 
L 234.520331 99.989687 
L 237.799669 101.667007 
L 241.079008 103.405687 
L 244.358347 105.203375 
L 247.637686 107.057809 
L 250.917025 108.966813 
L 254.196364 110.928295 
L 257.475702 112.940243 
L 260.755041 115.000722 
L 264.03438 117.107872 
L 267.313719 119.259902 
L 270.593058 121.455093 
L 273.872397 123.69179 
L 277.151736 125.968401 
L 280.431074 128.283397 
L 283.710413 130.635304 
L 286.989752 133.022709 
L 290.269091 135.470084 
L 293.54843 137.953138 
L 296.827769 140.468269 
L 300.107107 143.014263 
L 303.386446 145.589953 
L 306.665785 148.191716 
L 309.945124 150.78332 
L 313.224463 153.400732 
L 316.503802 156.089371 
L 319.78314 158.813572 
L 323.062479 161.538358 
L 326.341818 164.284318 
L 329.621157 167.072244 
L 332.900496 169.892375 
L 336.179835 172.63428 
L 339.459174 175.386062 
L 342.738512 178.144902 
L 346.017851 180.855026 
L 349.29719 183.558955 
L 352.576529 186.200778 
L 355.855868 188.99583 
L 359.135207 191.840505 
L 362.414545 194.64181 
L 365.693884 197.489638 
L 368.973223 200.385313 
L 372.252562 203.332861 
L 375.531901 206.358733 
L 378.81124 209.532375 
L 382.090579 212.761098 
L 385.369917 215.974098 
L 388.649256 219.199897 
L 391.928595 222.450243 
L 395.207934 225.789731 
L 398.487273 229.093135 
" clip-path="url(#pc3447f0e3d)" style="fill: none; stroke: #0000ff; stroke-linecap: square"/>
   </g>
  </g>
  <g id="text_16">
   <!-- Model/metamodel comparison -->
   <g transform="translate(139.17375 16.030125) scale(0.12 -0.12)">
    <defs>
     <path id="DejaVuSans-4d" d="M 628 4666 
L 1569 4666 
L 2759 1491 
L 3956 4666 
L 4897 4666 
L 4897 0 
L 4281 0 
L 4281 4097 
L 3078 897 
L 2444 897 
L 1241 4097 
L 1241 0 
L 628 0 
L 628 4666 
z
" transform="scale(0.015625)"/>
     <path id="DejaVuSans-6f" d="M 1959 3097 
Q 1497 3097 1228 2736 
Q 959 2375 959 1747 
Q 959 1119 1226 758 
Q 1494 397 1959 397 
Q 2419 397 2687 759 
Q 2956 1122 2956 1747 
Q 2956 2369 2687 2733 
Q 2419 3097 1959 3097 
z
M 1959 3584 
Q 2709 3584 3137 3096 
Q 3566 2609 3566 1747 
Q 3566 888 3137 398 
Q 2709 -91 1959 -91 
Q 1206 -91 779 398 
Q 353 888 353 1747 
Q 353 2609 779 3096 
Q 1206 3584 1959 3584 
z
" transform="scale(0.015625)"/>
     <path id="DejaVuSans-64" d="M 2906 2969 
L 2906 4863 
L 3481 4863 
L 3481 0 
L 2906 0 
L 2906 525 
Q 2725 213 2448 61 
Q 2172 -91 1784 -91 
Q 1150 -91 751 415 
Q 353 922 353 1747 
Q 353 2572 751 3078 
Q 1150 3584 1784 3584 
Q 2172 3584 2448 3432 
Q 2725 3281 2906 2969 
z
M 947 1747 
Q 947 1113 1208 752 
Q 1469 391 1925 391 
Q 2381 391 2643 752 
Q 2906 1113 2906 1747 
Q 2906 2381 2643 2742 
Q 2381 3103 1925 3103 
Q 1469 3103 1208 2742 
Q 947 2381 947 1747 
z
" transform="scale(0.015625)"/>
     <path id="DejaVuSans-65" d="M 3597 1894 
L 3597 1613 
L 953 1613 
Q 991 1019 1311 708 
Q 1631 397 2203 397 
Q 2534 397 2845 478 
Q 3156 559 3463 722 
L 3463 178 
Q 3153 47 2828 -22 
Q 2503 -91 2169 -91 
Q 1331 -91 842 396 
Q 353 884 353 1716 
Q 353 2575 817 3079 
Q 1281 3584 2069 3584 
Q 2775 3584 3186 3129 
Q 3597 2675 3597 1894 
z
M 3022 2063 
Q 3016 2534 2758 2815 
Q 2500 3097 2075 3097 
Q 1594 3097 1305 2825 
Q 1016 2553 972 2059 
L 3022 2063 
z
" transform="scale(0.015625)"/>
     <path id="DejaVuSans-6c" d="M 603 4863 
L 1178 4863 
L 1178 0 
L 603 0 
L 603 4863 
z
" transform="scale(0.015625)"/>
     <path id="DejaVuSans-2f" d="M 1625 4666 
L 2156 4666 
L 531 -594 
L 0 -594 
L 1625 4666 
z
" transform="scale(0.015625)"/>
     <path id="DejaVuSans-6d" d="M 3328 2828 
Q 3544 3216 3844 3400 
Q 4144 3584 4550 3584 
Q 5097 3584 5394 3201 
Q 5691 2819 5691 2113 
L 5691 0 
L 5113 0 
L 5113 2094 
Q 5113 2597 4934 2840 
Q 4756 3084 4391 3084 
Q 3944 3084 3684 2787 
Q 3425 2491 3425 1978 
L 3425 0 
L 2847 0 
L 2847 2094 
Q 2847 2600 2669 2842 
Q 2491 3084 2119 3084 
Q 1678 3084 1418 2786 
Q 1159 2488 1159 1978 
L 1159 0 
L 581 0 
L 581 3500 
L 1159 3500 
L 1159 2956 
Q 1356 3278 1631 3431 
Q 1906 3584 2284 3584 
Q 2666 3584 2933 3390 
Q 3200 3197 3328 2828 
z
" transform="scale(0.015625)"/>
     <path id="DejaVuSans-74" d="M 1172 4494 
L 1172 3500 
L 2356 3500 
L 2356 3053 
L 1172 3053 
L 1172 1153 
Q 1172 725 1289 603 
Q 1406 481 1766 481 
L 2356 481 
L 2356 0 
L 1766 0 
Q 1100 0 847 248 
Q 594 497 594 1153 
L 594 3053 
L 172 3053 
L 172 3500 
L 594 3500 
L 594 4494 
L 1172 4494 
z
" transform="scale(0.015625)"/>
     <path id="DejaVuSans-61" d="M 2194 1759 
Q 1497 1759 1228 1600 
Q 959 1441 959 1056 
Q 959 750 1161 570 
Q 1363 391 1709 391 
Q 2188 391 2477 730 
Q 2766 1069 2766 1631 
L 2766 1759 
L 2194 1759 
z
M 3341 1997 
L 3341 0 
L 2766 0 
L 2766 531 
Q 2569 213 2275 61 
Q 1981 -91 1556 -91 
Q 1019 -91 701 211 
Q 384 513 384 1019 
Q 384 1609 779 1909 
Q 1175 2209 1959 2209 
L 2766 2209 
L 2766 2266 
Q 2766 2663 2505 2880 
Q 2244 3097 1772 3097 
Q 1472 3097 1187 3025 
Q 903 2953 641 2809 
L 641 3341 
Q 956 3463 1253 3523 
Q 1550 3584 1831 3584 
Q 2591 3584 2966 3190 
Q 3341 2797 3341 1997 
z
" transform="scale(0.015625)"/>
     <path id="DejaVuSans-20" transform="scale(0.015625)"/>
     <path id="DejaVuSans-63" d="M 3122 3366 
L 3122 2828 
Q 2878 2963 2633 3030 
Q 2388 3097 2138 3097 
Q 1578 3097 1268 2742 
Q 959 2388 959 1747 
Q 959 1106 1268 751 
Q 1578 397 2138 397 
Q 2388 397 2633 464 
Q 2878 531 3122 666 
L 3122 134 
Q 2881 22 2623 -34 
Q 2366 -91 2075 -91 
Q 1284 -91 818 406 
Q 353 903 353 1747 
Q 353 2603 823 3093 
Q 1294 3584 2113 3584 
Q 2378 3584 2631 3529 
Q 2884 3475 3122 3366 
z
" transform="scale(0.015625)"/>
     <path id="DejaVuSans-70" d="M 1159 525 
L 1159 -1331 
L 581 -1331 
L 581 3500 
L 1159 3500 
L 1159 2969 
Q 1341 3281 1617 3432 
Q 1894 3584 2278 3584 
Q 2916 3584 3314 3078 
Q 3713 2572 3713 1747 
Q 3713 922 3314 415 
Q 2916 -91 2278 -91 
Q 1894 -91 1617 61 
Q 1341 213 1159 525 
z
M 3116 1747 
Q 3116 2381 2855 2742 
Q 2594 3103 2138 3103 
Q 1681 3103 1420 2742 
Q 1159 2381 1159 1747 
Q 1159 1113 1420 752 
Q 1681 391 2138 391 
Q 2594 391 2855 752 
Q 3116 1113 3116 1747 
z
" transform="scale(0.015625)"/>
     <path id="DejaVuSans-72" d="M 2631 2963 
Q 2534 3019 2420 3045 
Q 2306 3072 2169 3072 
Q 1681 3072 1420 2755 
Q 1159 2438 1159 1844 
L 1159 0 
L 581 0 
L 581 3500 
L 1159 3500 
L 1159 2956 
Q 1341 3275 1631 3429 
Q 1922 3584 2338 3584 
Q 2397 3584 2469 3576 
Q 2541 3569 2628 3553 
L 2631 2963 
z
" transform="scale(0.015625)"/>
     <path id="DejaVuSans-69" d="M 603 3500 
L 1178 3500 
L 1178 0 
L 603 0 
L 603 3500 
z
M 603 4863 
L 1178 4863 
L 1178 4134 
L 603 4134 
L 603 4863 
z
" transform="scale(0.015625)"/>
     <path id="DejaVuSans-73" d="M 2834 3397 
L 2834 2853 
Q 2591 2978 2328 3040 
Q 2066 3103 1784 3103 
Q 1356 3103 1142 2972 
Q 928 2841 928 2578 
Q 928 2378 1081 2264 
Q 1234 2150 1697 2047 
L 1894 2003 
Q 2506 1872 2764 1633 
Q 3022 1394 3022 966 
Q 3022 478 2636 193 
Q 2250 -91 1575 -91 
Q 1294 -91 989 -36 
Q 684 19 347 128 
L 347 722 
Q 666 556 975 473 
Q 1284 391 1588 391 
Q 1994 391 2212 530 
Q 2431 669 2431 922 
Q 2431 1156 2273 1281 
Q 2116 1406 1581 1522 
L 1381 1569 
Q 847 1681 609 1914 
Q 372 2147 372 2553 
Q 372 3047 722 3315 
Q 1072 3584 1716 3584 
Q 2034 3584 2315 3537 
Q 2597 3491 2834 3397 
z
" transform="scale(0.015625)"/>
     <path id="DejaVuSans-6e" d="M 3513 2113 
L 3513 0 
L 2938 0 
L 2938 2094 
Q 2938 2591 2744 2837 
Q 2550 3084 2163 3084 
Q 1697 3084 1428 2787 
Q 1159 2491 1159 1978 
L 1159 0 
L 581 0 
L 581 3500 
L 1159 3500 
L 1159 2956 
Q 1366 3272 1645 3428 
Q 1925 3584 2291 3584 
Q 2894 3584 3203 3211 
Q 3513 2838 3513 2113 
z
" transform="scale(0.015625)"/>
    </defs>
    <use xlink:href="#DejaVuSans-4d"/>
    <use xlink:href="#DejaVuSans-6f" transform="translate(86.279297 0)"/>
    <use xlink:href="#DejaVuSans-64" transform="translate(147.460938 0)"/>
    <use xlink:href="#DejaVuSans-65" transform="translate(210.9375 0)"/>
    <use xlink:href="#DejaVuSans-6c" transform="translate(272.460938 0)"/>
    <use xlink:href="#DejaVuSans-2f" transform="translate(300.244141 0)"/>
    <use xlink:href="#DejaVuSans-6d" transform="translate(333.935547 0)"/>
    <use xlink:href="#DejaVuSans-65" transform="translate(431.347656 0)"/>
    <use xlink:href="#DejaVuSans-74" transform="translate(492.871094 0)"/>
    <use xlink:href="#DejaVuSans-61" transform="translate(532.080078 0)"/>
    <use xlink:href="#DejaVuSans-6d" transform="translate(593.359375 0)"/>
    <use xlink:href="#DejaVuSans-6f" transform="translate(690.771484 0)"/>
    <use xlink:href="#DejaVuSans-64" transform="translate(751.953125 0)"/>
    <use xlink:href="#DejaVuSans-65" transform="translate(815.429688 0)"/>
    <use xlink:href="#DejaVuSans-6c" transform="translate(876.953125 0)"/>
    <use xlink:href="#DejaVuSans-20" transform="translate(904.736328 0)"/>
    <use xlink:href="#DejaVuSans-63" transform="translate(936.523438 0)"/>
    <use xlink:href="#DejaVuSans-6f" transform="translate(991.503906 0)"/>
    <use xlink:href="#DejaVuSans-6d" transform="translate(1052.685547 0)"/>
    <use xlink:href="#DejaVuSans-70" transform="translate(1150.097656 0)"/>
    <use xlink:href="#DejaVuSans-61" transform="translate(1213.574219 0)"/>
    <use xlink:href="#DejaVuSans-72" transform="translate(1274.853516 0)"/>
    <use xlink:href="#DejaVuSans-69" transform="translate(1315.966797 0)"/>
    <use xlink:href="#DejaVuSans-73" transform="translate(1343.75 0)"/>
    <use xlink:href="#DejaVuSans-6f" transform="translate(1395.849609 0)"/>
    <use xlink:href="#DejaVuSans-6e" transform="translate(1457.03125 0)"/>
   </g>
  </g>
 </g>
 <defs>
  <clipPath id="pc3447f0e3d">
   <rect x="57.6" y="41.472" width="357.12" height="266.112"/>
  </clipPath>
 </defs>
</svg>
