<?xml version="1.0" encoding="utf-8" standalone="no"?>
<!DOCTYPE svg PUBLIC "-//W3C//DTD SVG 1.1//EN"
  "http://www.w3.org/Graphics/SVG/1.1/DTD/svg11.dtd">
<svg xmlns:xlink="http://www.w3.org/1999/xlink" width="460.8pt" height="345.6pt" viewBox="0 0 460.8 345.6" xmlns="http://www.w3.org/2000/svg" version="1.1">
 <metadata>
  <rdf:RDF xmlns:dc="http://purl.org/dc/elements/1.1/" xmlns:cc="http://creativecommons.org/ns#" xmlns:rdf="http://www.w3.org/1999/02/22-rdf-syntax-ns#">
   <cc:Work>
    <dc:type rdf:resource="http://purl.org/dc/dcmitype/StillImage"/>
    <dc:date>2022-01-01T00:00:00+00:00</dc:date>
    <dc:format>image/svg+xml</dc:format>
    <dc:creator>
     <cc:Agent>
      <dc:title>Matplotlib v3.10.8, https://matplotlib.org/</dc:title>
     </cc:Agent>
    </dc:creator>
   </cc:Work>
  </rdf:RDF>
 </metadata>
 <defs>
  <style type="text/css">*{stroke-linejoin: round; stroke-linecap: butt}</style>
 </defs>
 <g id="figure_1">
  <g id="patch_1">
   <path d="M 0 345.6 
L 460.8 345.6 
L 460.8 0 
L 0 0 
z
" style="fill: #ffffff"/>
  </g>
  <g id="axes_1">
   <g id="patch_2">
    <path d="M 57.6 307.584 
L 343.296 307.584 
L 343.296 41.472 
L 57.6 41.472 
z
" style="fill: #ffffff"/>
   </g>
   <g id="matplotlib.axis_1">
    <g id="xtick_1">
     <g id="line2d_1">
      <path d="M 70.586182 307.584 
L 70.586182 41.472 
" clip-path="url(#p71957f74da)" style="fill: none; stroke: #b0b0b0; stroke-width: 0.8; stroke-linecap: square"/>
     </g>
     <g id="line2d_2">
      <defs>
       <path id="m52ed5779a8" d="M 0 0 
L 0 3.5 
" style="stroke: #000000; stroke-width: 0.8"/>
      </defs>
      <g>
       <use xlink:href="#m52ed5779a8" x="70.586182" y="307.584" style="stroke: #000000; stroke-width: 0.8"/>
      </g>
     </g>
     <g id="text_1">
      <!-- −1.5 -->
      <g transform="translate(58.444776 322.182437) scale(0.1 -0.1)">
       <defs>
        <path id="DejaVuSans-2212" d="M 678 2272 
L 4684 2272 
L 4684 1741 
L 678 1741 
L 678 2272 
z
" transform="scale(0.015625)"/>
        <path id="DejaVuSans-31" d="M 794 531 
L 1825 531 
L 1825 4091 
L 703 3866 
L 703 4441 
L 1819 4666 
L 2450 4666 
L 2450 531 
L 3481 531 
L 3481 0 
L 794 0 
L 794 531 
z
" transform="scale(0.015625)"/>
        <path id="DejaVuSans-2e" d="M 684 794 
L 1344 794 
L 1344 0 
L 684 0 
L 684 794 
z
" transform="scale(0.015625)"/>
        <path id="DejaVuSans-35" d="M 691 4666 
L 3169 4666 
L 3169 4134 
L 1269 4134 
L 1269 2991 
Q 1406 3038 1543 3061 
Q 1681 3084 1819 3084 
Q 2600 3084 3056 2656 
Q 3513 2228 3513 1497 
Q 3513 744 3044 326 
Q 2575 -91 1722 -91 
Q 1428 -91 1123 -41 
Q 819 9 494 109 
L 494 744 
Q 775 591 1075 516 
Q 1375 441 1709 441 
Q 2250 441 2565 725 
Q 2881 1009 2881 1497 
Q 2881 1984 2565 2268 
Q 2250 2553 1709 2553 
Q 1456 2553 1204 2497 
Q 953 2441 691 2322 
L 691 4666 
z
" transform="scale(0.015625)"/>
       </defs>
       <use xlink:href="#DejaVuSans-2212"/>
       <use xlink:href="#DejaVuSans-31" transform="translate(83.789062 0)"/>
       <use xlink:href="#DejaVuSans-2e" transform="translate(147.412109 0)"/>
       <use xlink:href="#DejaVuSans-35" transform="translate(179.199219 0)"/>
      </g>
     </g>
    </g>
    <g id="xtick_2">
     <g id="line2d_3">
      <path d="M 113.873455 307.584 
L 113.873455 41.472 
" clip-path="url(#p71957f74da)" style="fill: none; stroke: #b0b0b0; stroke-width: 0.8; stroke-linecap: square"/>
     </g>
     <g id="line2d_4">
      <g>
       <use xlink:href="#m52ed5779a8" x="113.873455" y="307.584" style="stroke: #000000; stroke-width: 0.8"/>
      </g>
     </g>
     <g id="text_2">
      <!-- −1.0 -->
      <g transform="translate(101.732048 322.182437) scale(0.1 -0.1)">
       <defs>
        <path id="DejaVuSans-30" d="M 2034 4250 
Q 1547 4250 1301 3770 
Q 1056 3291 1056 2328 
Q 1056 1369 1301 889 
Q 1547 409 2034 409 
Q 2525 409 2770 889 
Q 3016 1369 3016 2328 
Q 3016 3291 2770 3770 
Q 2525 4250 2034 4250 
z
M 2034 4750 
Q 2819 4750 3233 4129 
Q 3647 3509 3647 2328 
Q 3647 1150 3233 529 
Q 2819 -91 2034 -91 
Q 1250 -91 836 529 
Q 422 1150 422 2328 
Q 422 3509 836 4129 
Q 1250 4750 2034 4750 
z
" transform="scale(0.015625)"/>
       </defs>
       <use xlink:href="#DejaVuSans-2212"/>
       <use xlink:href="#DejaVuSans-31" transform="translate(83.789062 0)"/>
       <use xlink:href="#DejaVuSans-2e" transform="translate(147.412109 0)"/>
       <use xlink:href="#DejaVuSans-30" transform="translate(179.199219 0)"/>
      </g>
     </g>
    </g>
    <g id="xtick_3">
     <g id="line2d_5">
      <path d="M 157.160727 307.584 
L 157.160727 41.472 
" clip-path="url(#p71957f74da)" style="fill: none; stroke: #b0b0b0; stroke-width: 0.8; stroke-linecap: square"/>
     </g>
     <g id="line2d_6">
      <g>
       <use xlink:href="#m52ed5779a8" x="157.160727" y="307.584" style="stroke: #000000; stroke-width: 0.8"/>
      </g>
     </g>
     <g id="text_3">
      <!-- −0.5 -->
      <g transform="translate(145.019321 322.182437) scale(0.1 -0.1)">
       <use xlink:href="#DejaVuSans-2212"/>
       <use xlink:href="#DejaVuSans-30" transform="translate(83.789062 0)"/>
       <use xlink:href="#DejaVuSans-2e" transform="translate(147.412109 0)"/>
       <use xlink:href="#DejaVuSans-35" transform="translate(179.199219 0)"/>
      </g>
     </g>
    </g>
    <g id="xtick_4">
     <g id="line2d_7">
      <path d="M 200.448 307.584 
L 200.448 41.472 
" clip-path="url(#p71957f74da)" style="fill: none; stroke: #b0b0b0; stroke-width: 0.8; stroke-linecap: square"/>
     </g>
     <g id="line2d_8">
      <g>
       <use xlink:href="#m52ed5779a8" x="200.448" y="307.584" style="stroke: #000000; stroke-width: 0.8"/>
      </g>
     </g>
     <g id="text_4">
      <!-- 0.0 -->
      <g transform="translate(192.496438 322.182437) scale(0.1 -0.1)">
       <use xlink:href="#DejaVuSans-30"/>
       <use xlink:href="#DejaVuSans-2e" transform="translate(63.623047 0)"/>
       <use xlink:href="#DejaVuSans-30" transform="translate(95.410156 0)"/>
      </g>
     </g>
    </g>
    <g id="xtick_5">
     <g id="line2d_9">
      <path d="M 243.735273 307.584 
L 243.735273 41.472 
" clip-path="url(#p71957f74da)" style="fill: none; stroke: #b0b0b0; stroke-width: 0.8; stroke-linecap: square"/>
     </g>
     <g id="line2d_10">
      <g>
       <use xlink:href="#m52ed5779a8" x="243.735273" y="307.584" style="stroke: #000000; stroke-width: 0.8"/>
      </g>
     </g>
     <g id="text_5">
      <!-- 0.5 -->
      <g transform="translate(235.78371 322.182437) scale(0.1 -0.1)">
       <use xlink:href="#DejaVuSans-30"/>
       <use xlink:href="#DejaVuSans-2e" transform="translate(63.623047 0)"/>
       <use xlink:href="#DejaVuSans-35" transform="translate(95.410156 0)"/>
      </g>
     </g>
    </g>
    <g id="xtick_6">
     <g id="line2d_11">
      <path d="M 287.022545 307.584 
L 287.022545 41.472 
" clip-path="url(#p71957f74da)" style="fill: none; stroke: #b0b0b0; stroke-width: 0.8; stroke-linecap: square"/>
     </g>
     <g id="line2d_12">
      <g>
       <use xlink:href="#m52ed5779a8" x="287.022545" y="307.584" style="stroke: #000000; stroke-width: 0.8"/>
      </g>
     </g>
     <g id="text_6">
      <!-- 1.0 -->
      <g transform="translate(279.070983 322.182437) scale(0.1 -0.1)">
       <use xlink:href="#DejaVuSans-31"/>
       <use xlink:href="#DejaVuSans-2e" transform="translate(63.623047 0)"/>
       <use xlink:href="#DejaVuSans-30" transform="translate(95.410156 0)"/>
      </g>
     </g>
    </g>
    <g id="xtick_7">
     <g id="line2d_13">
      <path d="M 330.309818 307.584 
L 330.309818 41.472 
" clip-path="url(#p71957f74da)" style="fill: none; stroke: #b0b0b0; stroke-width: 0.8; stroke-linecap: square"/>
     </g>
     <g id="line2d_14">
      <g>
       <use xlink:href="#m52ed5779a8" x="330.309818" y="307.584" style="stroke: #000000; stroke-width: 0.8"/>
      </g>
     </g>
     <g id="text_7">
      <!-- 1.5 -->
      <g transform="translate(322.358256 322.182437) scale(0.1 -0.1)">
       <use xlink:href="#DejaVuSans-31"/>
       <use xlink:href="#DejaVuSans-2e" transform="translate(63.623047 0)"/>
       <use xlink:href="#DejaVuSans-35" transform="translate(95.410156 0)"/>
      </g>
     </g>
    </g>
    <g id="text_8">
     <!-- x1 -->
     <g transform="translate(194.307375 335.860562) scale(0.1 -0.1)">
      <defs>
       <path id="DejaVuSans-78" d="M 3513 3500 
L 2247 1797 
L 3578 0 
L 2900 0 
L 1881 1375 
L 863 0 
L 184 0 
L 1544 1831 
L 300 3500 
L 978 3500 
L 1906 2253 
L 2834 3500 
L 3513 3500 
z
" transform="scale(0.015625)"/>
      </defs>
      <use xlink:href="#DejaVuSans-78"/>
      <use xlink:href="#DejaVuSans-31" transform="translate(59.179688 0)"/>
     </g>
    </g>
   </g>
   <g id="matplotlib.axis_2">
    <g id="ytick_1">
     <g id="line2d_15">
      <path d="M 57.6 271.296 
L 343.296 271.296 
" clip-path="url(#p71957f74da)" style="fill: none; stroke: #b0b0b0; stroke-width: 0.8; stroke-linecap: square"/>
     </g>
     <g id="line2d_16">
      <defs>
       <path id="m9ca6303b13" d="M 0 0 
L -3.5 0 
" style="stroke: #000000; stroke-width: 0.8"/>
      </defs>
      <g>
       <use xlink:href="#m9ca6303b13" x="57.6" y="271.296" style="stroke: #000000; stroke-width: 0.8"/>
      </g>
     </g>
     <g id="text_9">
      <!-- −2 -->
      <g transform="translate(35.857813 275.095219) scale(0.1 -0.1)">
       <defs>
        <path id="DejaVuSans-32" d="M 1228 531 
L 3431 531 
L 3431 0 
L 469 0 
L 469 531 
Q 828 903 1448 1529 
Q 2069 2156 2228 2338 
Q 2531 2678 2651 2914 
Q 2772 3150 2772 3378 
Q 2772 3750 2511 3984 
Q 2250 4219 1831 4219 
Q 1534 4219 1204 4116 
Q 875 4013 500 3803 
L 500 4441 
Q 881 4594 1212 4672 
Q 1544 4750 1819 4750 
Q 2544 4750 2975 4387 
Q 3406 4025 3406 3419 
Q 3406 3131 3298 2873 
Q 3191 2616 2906 2266 
Q 2828 2175 2409 1742 
Q 1991 1309 1228 531 
z
" transform="scale(0.015625)"/>
       </defs>
       <use xlink:href="#DejaVuSans-2212"/>
       <use xlink:href="#DejaVuSans-32" transform="translate(83.789062 0)"/>
      </g>
     </g>
    </g>
    <g id="ytick_2">
     <g id="line2d_17">
      <path d="M 57.6 222.912 
L 343.296 222.912 
" clip-path="url(#p71957f74da)" style="fill: none; stroke: #b0b0b0; stroke-width: 0.8; stroke-linecap: square"/>
     </g>
     <g id="line2d_18">
      <g>
       <use xlink:href="#m9ca6303b13" x="57.6" y="222.912" style="stroke: #000000; stroke-width: 0.8"/>
      </g>
     </g>
     <g id="text_10">
      <!-- −1 -->
      <g transform="translate(35.857813 226.711219) scale(0.1 -0.1)">
       <use xlink:href="#DejaVuSans-2212"/>
       <use xlink:href="#DejaVuSans-31" transform="translate(83.789062 0)"/>
      </g>
     </g>
    </g>
    <g id="ytick_3">
     <g id="line2d_19">
      <path d="M 57.6 174.528 
L 343.296 174.528 
" clip-path="url(#p71957f74da)" style="fill: none; stroke: #b0b0b0; stroke-width: 0.8; stroke-linecap: square"/>
     </g>
     <g id="line2d_20">
      <g>
       <use xlink:href="#m9ca6303b13" x="57.6" y="174.528" style="stroke: #000000; stroke-width: 0.8"/>
      </g>
     </g>
     <g id="text_11">
      <!-- 0 -->
      <g transform="translate(44.2375 178.327219) scale(0.1 -0.1)">
       <use xlink:href="#DejaVuSans-30"/>
      </g>
     </g>
    </g>
    <g id="ytick_4">
     <g id="line2d_21">
      <path d="M 57.6 126.144 
L 343.296 126.144 
" clip-path="url(#p71957f74da)" style="fill: none; stroke: #b0b0b0; stroke-width: 0.8; stroke-linecap: square"/>
     </g>
     <g id="line2d_22">
      <g>
       <use xlink:href="#m9ca6303b13" x="57.6" y="126.144" style="stroke: #000000; stroke-width: 0.8"/>
      </g>
     </g>
     <g id="text_12">
      <!-- 1 -->
      <g transform="translate(44.2375 129.943219) scale(0.1 -0.1)">
       <use xlink:href="#DejaVuSans-31"/>
      </g>
     </g>
    </g>
    <g id="ytick_5">
     <g id="line2d_23">
      <path d="M 57.6 77.76 
L 343.296 77.76 
" clip-path="url(#p71957f74da)" style="fill: none; stroke: #b0b0b0; stroke-width: 0.8; stroke-linecap: square"/>
     </g>
     <g id="line2d_24">
      <g>
       <use xlink:href="#m9ca6303b13" x="57.6" y="77.76" style="stroke: #000000; stroke-width: 0.8"/>
      </g>
     </g>
     <g id="text_13">
      <!-- 2 -->
      <g transform="translate(44.2375 81.559219) scale(0.1 -0.1)">
       <use xlink:href="#DejaVuSans-32"/>
      </g>
     </g>
    </g>
    <g id="text_14">
     <!-- x3 -->
     <g transform="translate(29.778125 180.668625) rotate(-90) scale(0.1 -0.1)">
      <defs>
       <path id="DejaVuSans-33" d="M 2597 2516 
Q 3050 2419 3304 2112 
Q 3559 1806 3559 1356 
Q 3559 666 3084 287 
Q 2609 -91 1734 -91 
Q 1441 -91 1130 -33 
Q 819 25 488 141 
L 488 750 
Q 750 597 1062 519 
Q 1375 441 1716 441 
Q 2309 441 2620 675 
Q 2931 909 2931 1356 
Q 2931 1769 2642 2001 
Q 2353 2234 1838 2234 
L 1294 2234 
L 1294 2753 
L 1863 2753 
Q 2328 2753 2575 2939 
Q 2822 3125 2822 3475 
Q 2822 3834 2567 4026 
Q 2313 4219 1838 4219 
Q 1578 4219 1281 4162 
Q 984 4106 628 3988 
L 628 4550 
Q 988 4650 1302 4700 
Q 1616 4750 1894 4750 
Q 2613 4750 3031 4423 
Q 3450 4097 3450 3541 
Q 3450 3153 3228 2886 
Q 3006 2619 2597 2516 
z
" transform="scale(0.015625)"/>
      </defs>
      <use xlink:href="#DejaVuSans-78"/>
      <use xlink:href="#DejaVuSans-33" transform="translate(59.179688 0)"/>
     </g>
    </g>
   </g>
   <g id="QuadContourSet_1">
    <path d="M 330.309818 65.114165 
L 327.712582 65.168827 
L 325.115345 65.221782 
L 322.518109 65.272983 
L 319.920873 65.322384 
L 317.323636 65.36994 
L 314.7264 65.415608 
L 312.129164 65.459347 
L 309.531927 65.501118 
L 306.934691 65.540884 
L 304.337455 65.578608 
L 301.740218 65.614256 
L 299.142982 65.647797 
L 297.802895 65.664 
L 296.545745 65.678063 
L 293.948509 65.705113 
L 291.351273 65.730135 
L 288.754036 65.753106 
L 286.1568 65.774006 
L 283.559564 65.792815 
L 280.962327 65.809517 
L 278.365091 65.824096 
L 275.767855 65.836541 
L 273.170618 65.846838 
L 270.573382 65.85498 
L 267.976145 65.860959 
L 265.378909 65.864769 
L 262.781673 65.866407 
L 260.184436 65.865872 
L 257.5872 65.863163 
L 254.989964 65.858284 
L 252.392727 65.851239 
L 249.795491 65.842035 
L 247.198255 65.830678 
L 244.601018 65.81718 
L 242.003782 65.801554 
L 239.406545 65.783812 
L 236.809309 65.763971 
L 234.212073 65.742048 
L 231.614836 65.718064 
L 229.0176 65.69204 
L 226.420364 65.664 
L 226.420364 65.664 
L 223.823127 65.63154 
L 221.225891 65.596957 
L 218.628655 65.560282 
L 216.031418 65.521548 
L 213.434182 65.48079 
L 210.836945 65.438045 
L 208.239709 65.39335 
L 205.642473 65.346747 
L 203.045236 65.298277 
L 200.448 65.247984 
L 197.850764 65.195913 
L 195.253527 65.142111 
L 192.656291 65.086626 
L 190.059055 65.029508 
L 187.461818 64.97081 
L 184.864582 64.910582 
L 182.267345 64.848881 
L 179.670109 64.78576 
L 177.072873 64.721278 
L 174.475636 64.655492 
L 171.8784 64.588461 
L 169.281164 64.520245 
L 166.683927 64.450907 
L 164.086691 64.380508 
L 161.489455 64.309112 
L 158.892218 64.236782 
L 156.294982 64.163585 
L 153.697745 64.089586 
L 151.100509 64.014851 
L 148.503273 63.939449 
L 145.906036 63.863445 
L 143.3088 63.78691 
L 140.711564 63.709912 
L 138.114327 63.63252 
L 135.517091 63.554804 
L 132.919855 63.476834 
L 130.322618 63.39868 
L 127.725382 63.320412 
L 125.217678 63.2448 
L 125.128145 63.241788 
L 122.530909 63.154448 
L 119.933673 63.067216 
L 117.336436 62.980172 
L 114.7392 62.893394 
L 112.141964 62.806959 
L 109.544727 62.720947 
L 106.947491 62.635433 
L 104.350255 62.550496 
L 101.753018 62.466211 
L 99.155782 62.382654 
L 96.558545 62.299901 
L 93.961309 62.218026 
L 91.364073 62.137103 
L 88.766836 62.057204 
L 86.1696 61.978402 
L 83.572364 61.900767 
L 80.975127 61.824369 
L 78.377891 61.749277 
L 75.780655 61.675559 
L 73.183418 61.60328 
L 70.586182 61.532507 
" clip-path="url(#p71957f74da)" style="fill: none; stroke: #440154; stroke-opacity: 0.996094"/>
    <path d="M 330.309818 89.440224 
L 327.712582 89.491168 
L 325.115345 89.540522 
L 322.518109 89.588241 
L 319.920873 89.634282 
L 317.323636 89.678603 
L 314.7264 89.721165 
L 312.129164 89.76193 
L 309.531927 89.80086 
L 306.934691 89.837921 
L 305.599134 89.856 
L 304.337455 89.873948 
L 301.740218 89.908861 
L 299.142982 89.941711 
L 296.545745 89.972467 
L 293.948509 90.001101 
L 291.351273 90.027589 
L 288.754036 90.051905 
L 286.1568 90.074029 
L 283.559564 90.09394 
L 280.962327 90.11162 
L 278.365091 90.127053 
L 275.767855 90.140227 
L 273.170618 90.151128 
L 270.573382 90.159746 
L 267.976145 90.166075 
L 265.378909 90.170108 
L 262.781673 90.171842 
L 260.184436 90.171276 
L 257.5872 90.168409 
L 254.989964 90.163244 
L 252.392727 90.155786 
L 249.795491 90.146042 
L 247.198255 90.134021 
L 244.601018 90.119733 
L 242.003782 90.10319 
L 239.406545 90.084409 
L 236.809309 90.063406 
L 234.212073 90.0402 
L 231.614836 90.014811 
L 229.0176 89.987263 
L 226.420364 89.95758 
L 223.823127 89.925789 
L 221.225891 89.891919 
L 218.628655 89.856 
L 218.628655 89.856 
L 216.031418 89.8199 
L 213.434182 89.781914 
L 210.836945 89.742076 
L 208.239709 89.700421 
L 205.642473 89.656988 
L 203.045236 89.611814 
L 200.448 89.564942 
L 197.850764 89.516412 
L 195.253527 89.466269 
L 192.656291 89.414558 
L 190.059055 89.361325 
L 187.461818 89.306618 
L 184.864582 89.250487 
L 182.267345 89.192982 
L 179.670109 89.134154 
L 177.072873 89.074057 
L 174.475636 89.012745 
L 171.8784 88.950273 
L 169.281164 88.886697 
L 166.683927 88.822074 
L 164.086691 88.756463 
L 161.489455 88.689923 
L 158.892218 88.622513 
L 156.294982 88.554294 
L 153.697745 88.485327 
L 151.100509 88.415675 
L 148.503273 88.345401 
L 145.906036 88.274567 
L 143.3088 88.203237 
L 140.711564 88.131475 
L 138.114327 88.059347 
L 135.517091 87.986916 
L 132.919855 87.914249 
L 130.322618 87.84141 
L 127.725382 87.768465 
L 125.128145 87.69548 
L 122.530909 87.62252 
L 119.933673 87.549651 
L 117.336436 87.476939 
L 115.898292 87.4368 
L 114.7392 87.405775 
L 112.141964 87.336531 
L 109.544727 87.267625 
L 106.947491 87.199119 
L 104.350255 87.131074 
L 101.753018 87.063552 
L 99.155782 86.996613 
L 96.558545 86.930318 
L 93.961309 86.864727 
L 91.364073 86.799898 
L 88.766836 86.73589 
L 86.1696 86.67276 
L 83.572364 86.610565 
L 80.975127 86.549362 
L 78.377891 86.489204 
L 75.780655 86.430148 
L 73.183418 86.372244 
L 70.586182 86.315546 
" clip-path="url(#p71957f74da)" style="fill: none; stroke: #39558c; stroke-opacity: 0.996094"/>
    <path d="M 330.309818 114.652705 
L 327.712582 114.784561 
L 325.115345 114.912301 
L 322.518109 115.035808 
L 319.920873 115.154973 
L 317.323636 115.269687 
L 314.7264 115.379848 
L 312.129164 115.485357 
L 309.531927 115.586117 
L 306.934691 115.68204 
L 304.337455 115.773038 
L 301.740218 115.859029 
L 299.142982 115.939937 
L 296.545745 116.015688 
L 293.948509 116.086214 
L 291.351273 116.151452 
L 288.754036 116.211343 
L 286.1568 116.265833 
L 283.559564 116.314873 
L 280.962327 116.358419 
L 278.365091 116.396431 
L 275.767855 116.428877 
L 273.170618 116.455725 
L 271.76667 116.4672 
L 270.573382 116.478343 
L 267.976145 116.496153 
L 265.378909 116.507503 
L 262.781673 116.512383 
L 260.184436 116.510788 
L 257.5872 116.50272 
L 254.989964 116.488187 
L 252.392727 116.4672 
L 252.392727 116.4672 
L 249.795491 116.443201 
L 247.198255 116.413592 
L 244.601018 116.3784 
L 242.003782 116.337657 
L 239.406545 116.2914 
L 236.809309 116.239669 
L 234.212073 116.182512 
L 231.614836 116.11998 
L 229.0176 116.05213 
L 226.420364 115.979022 
L 223.823127 115.900722 
L 221.225891 115.817301 
L 218.628655 115.728833 
L 216.031418 115.635399 
L 213.434182 115.537082 
L 210.836945 115.433971 
L 208.239709 115.326158 
L 205.642473 115.213742 
L 203.045236 115.096822 
L 200.448 114.975504 
L 197.850764 114.849898 
L 195.253527 114.720116 
L 192.656291 114.586275 
L 190.059055 114.448496 
L 187.461818 114.306902 
L 184.864582 114.161621 
L 182.881876 114.048 
L 182.267345 114.016909 
L 179.670109 113.882488 
L 177.072873 113.745165 
L 174.475636 113.605066 
L 171.8784 113.462317 
L 169.281164 113.317044 
L 166.683927 113.169381 
L 164.086691 113.019458 
L 161.489455 112.867412 
L 158.892218 112.713379 
L 156.294982 112.557498 
L 153.697745 112.399908 
L 151.100509 112.240753 
L 148.503273 112.080174 
L 145.906036 111.918317 
L 143.3088 111.755327 
L 141.304724 111.6288 
L 140.711564 111.595464 
L 138.114327 111.448751 
L 135.517091 111.301424 
L 132.919855 111.153615 
L 130.322618 111.005457 
L 127.725382 110.857083 
L 125.128145 110.708628 
L 122.530909 110.560224 
L 119.933673 110.412005 
L 117.336436 110.264105 
L 114.7392 110.116657 
L 112.141964 109.969793 
L 109.544727 109.823645 
L 106.947491 109.678346 
L 104.350255 109.534025 
L 101.753018 109.390813 
L 99.155782 109.248838 
L 98.430996 109.2096 
L 96.558545 109.118645 
L 93.961309 108.993822 
L 91.364073 108.870449 
L 88.766836 108.748639 
L 86.1696 108.6285 
L 83.572364 108.51014 
L 80.975127 108.393667 
L 78.377891 108.279185 
L 75.780655 108.166797 
L 73.183418 108.056605 
L 70.586182 107.948706 
" clip-path="url(#p71957f74da)" style="fill: none; stroke: #26828e; stroke-opacity: 0.996094"/>
    <path d="M 330.309818 135.853588 
L 322.518109 137.736798 
L 319.920873 138.345797 
L 312.129164 140.426633 
L 311.177355 140.6592 
L 306.934691 141.974946 
L 301.740218 143.552492 
L 293.948509 146.266454 
L 288.754036 148.265987 
L 283.559564 150.566326 
L 278.365091 153.363684 
L 275.319544 155.1744 
L 273.170618 156.943712 
L 272.172291 157.5936 
L 270.573382 159.417998 
L 269.863485 160.0128 
L 268.365955 162.432 
L 267.976145 163.817856 
L 267.520059 164.8512 
L 267.121276 167.2704 
L 266.997237 172.1088 
L 266.980286 179.3664 
L 266.872169 181.7856 
L 266.473386 184.2048 
L 265.378909 186.651504 
L 262.781673 187.801105 
L 260.184436 187.425402 
L 259.089332 186.624 
L 257.5872 184.2048 
L 257.5872 184.2048 
L 257.275776 181.7856 
L 257.178909 176.9472 
L 257.081238 167.2704 
L 256.769814 164.8512 
L 255.935959 162.432 
L 254.989964 161.184899 
L 254.374236 160.0128 
L 252.033949 157.5936 
L 249.795491 155.946164 
L 248.945525 155.1744 
L 247.198255 154.201686 
L 244.601018 152.57873 
L 239.406545 149.987579 
L 234.212073 147.725946 
L 221.188321 143.0784 
L 216.031418 141.590814 
L 213.061402 140.6592 
L 205.642473 138.715938 
L 203.045236 138.036723 
L 182.267345 133.357508 
L 155.779771 128.5632 
L 130.322618 124.911593 
L 117.336436 123.286569 
L 96.558545 121.069319 
L 75.780655 119.290945 
L 70.586182 118.883864 
L 70.586182 118.883864 
" clip-path="url(#p71957f74da)" style="fill: none; stroke: #228d8d; stroke-opacity: 0.996094"/>
    <path d="M 330.309818 142.959183 
L 330.024691 143.0784 
L 325.115345 145.886455 
L 322.290217 147.9168 
L 319.835104 150.336 
L 318.106038 152.7552 
L 316.970386 155.1744 
L 316.254272 157.5936 
L 315.845715 160.0128 
L 315.633814 162.432 
L 315.501568 167.2704 
L 315.346858 186.624 
L 315.134957 189.0432 
L 314.7264 191.4624 
L 314.7264 191.4624 
L 313.978707 193.8816 
L 312.75921 196.3008 
L 310.820384 198.72 
L 307.839362 201.1392 
L 304.337455 203.024747 
L 303.273968 203.5584 
L 299.142982 205.010032 
L 296.102932 205.9776 
L 291.351273 206.996708 
L 286.1568 207.938736 
L 283.167234 208.3968 
L 275.767855 209.073395 
L 267.976145 209.474367 
L 260.184436 209.555041 
L 252.392727 209.314764 
L 244.601018 208.755482 
L 239.406545 208.149303 
L 234.212073 207.252518 
L 228.150133 205.9776 
L 223.823127 204.577756 
L 220.960141 203.5584 
L 216.39916 201.1392 
L 213.410236 198.72 
L 211.486593 196.3008 
L 210.264828 193.8816 
L 209.533114 191.4624 
L 209.115657 189.0432 
L 208.89914 186.624 
L 208.764012 181.7856 
L 208.605932 162.432 
L 208.239709 159.145241 
L 207.982925 157.5936 
L 207.281179 155.1744 
L 206.136623 152.7552 
L 204.421139 150.336 
L 201.962865 147.9168 
L 197.850764 145.092544 
L 194.226284 143.0784 
L 187.461818 140.240117 
L 179.670109 137.606812 
L 171.8784 135.380938 
L 161.489455 132.874174 
L 148.503273 130.227182 
L 135.517091 127.952901 
L 119.933673 125.622072 
L 101.753018 123.344268 
L 80.975127 121.228335 
L 70.586182 120.396997 
L 70.586182 120.396997 
" clip-path="url(#p71957f74da)" style="fill: none; stroke: #218e8d; stroke-opacity: 0.996094"/>
    <path d="M 330.309818 213.618514 
L 319.493288 215.6544 
L 309.531927 216.955089 
L 299.119076 218.0736 
L 288.754036 218.773514 
L 278.365091 219.252058 
L 267.976145 219.500548 
L 257.5872 219.515408 
L 247.198255 219.296426 
L 236.809309 218.846751 
L 225.147029 218.0736 
L 216.031418 217.110573 
L 204.756507 215.6544 
L 195.253527 213.881856 
L 192.058865 213.2352 
L 183.133894 210.816 
L 176.636792 208.3968 
L 171.8784 205.9776 
L 171.8784 205.9776 
L 168.428447 203.5584 
L 165.960878 201.1392 
L 164.086691 198.401813 
L 163.08647 196.3008 
L 162.339373 193.8816 
L 161.881316 191.4624 
L 161.619986 189.0432 
L 161.423715 184.2048 
L 161.392983 169.6896 
L 161.303327 162.432 
L 161.169535 160.0128 
L 160.911576 157.5936 
L 160.459428 155.1744 
L 159.721967 152.7552 
L 158.588766 150.336 
L 156.933976 147.9168 
L 154.604538 145.4976 
L 151.100509 142.887874 
L 147.246449 140.6592 
L 140.711564 137.842493 
L 135.004463 135.8208 
L 125.128145 133.092696 
L 114.7392 130.764213 
L 101.753018 128.407955 
L 86.1696 126.143629 
L 70.586182 124.403866 
L 70.586182 124.403866 
" clip-path="url(#p71957f74da)" style="fill: none; stroke: #21918c; stroke-opacity: 0.996094"/>
    <path d="M 330.309818 224.196284 
L 317.042784 225.3312 
L 301.740218 226.216926 
L 288.754036 226.757343 
L 275.767855 227.091021 
L 262.781673 227.210465 
L 249.795491 227.112993 
L 236.809309 226.800793 
L 223.823127 226.280878 
L 210.836945 225.564924 
L 203.045236 224.997747 
L 190.059055 223.827764 
L 179.670109 222.739133 
L 163.050407 220.4928 
L 149.353283 218.0736 
L 138.114327 215.52499 
L 130.018919 213.2352 
L 122.530909 210.486465 
L 117.336436 208.026083 
L 113.889964 205.9776 
L 110.833467 203.5584 
L 108.598689 201.1392 
L 106.947491 198.560173 
L 105.938762 196.3008 
L 105.238119 193.8816 
L 104.808544 191.4624 
L 104.563464 189.0432 
L 104.378592 184.2048 
L 104.349387 169.6896 
L 104.263548 162.432 
L 104.135451 160.0128 
L 103.888473 157.5936 
L 103.455573 155.1744 
L 102.749506 152.7552 
L 101.660257 150.336 
L 100.042924 147.9168 
L 97.73444 145.4976 
L 93.961309 142.760808 
L 90.158067 140.6592 
L 83.572364 138.010651 
L 75.780655 135.658938 
L 70.586182 134.450699 
L 70.586182 134.450699 
" clip-path="url(#p71957f74da)" style="fill: none; stroke: #1f948c; stroke-opacity: 0.996094"/>
    <path d="M 330.309818 236.832644 
L 327.712582 236.949053 
L 325.115345 237.061827 
L 322.518109 237.170865 
L 319.920873 237.276069 
L 317.323636 237.377345 
L 315.99223 237.4272 
L 314.7264 237.469394 
L 312.129164 237.552311 
L 309.531927 237.631497 
L 306.934691 237.706881 
L 304.337455 237.778395 
L 301.740218 237.845974 
L 299.142982 237.909558 
L 296.545745 237.969089 
L 293.948509 238.024514 
L 291.351273 238.075784 
L 288.754036 238.122851 
L 286.1568 238.165673 
L 283.559564 238.204213 
L 280.962327 238.238435 
L 278.365091 238.268309 
L 275.767855 238.293807 
L 273.170618 238.314907 
L 270.573382 238.331589 
L 267.976145 238.343839 
L 265.378909 238.351646 
L 262.781673 238.355003 
L 260.184436 238.353906 
L 257.5872 238.348356 
L 254.989964 238.33836 
L 252.392727 238.323924 
L 249.795491 238.305064 
L 247.198255 238.281795 
L 244.601018 238.254138 
L 242.003782 238.222119 
L 239.406545 238.185766 
L 236.809309 238.145112 
L 234.212073 238.100193 
L 231.614836 238.051051 
L 229.0176 237.997728 
L 226.420364 237.940274 
L 223.823127 237.878739 
L 221.225891 237.81318 
L 218.628655 237.743655 
L 216.031418 237.670226 
L 213.434182 237.592961 
L 210.836945 237.511928 
L 208.239709 237.4272 
L 208.239709 237.4272 
L 205.642473 237.327953 
L 203.045236 237.224731 
L 200.448 237.117626 
L 197.850764 237.006735 
L 195.253527 236.892158 
L 192.656291 236.773997 
L 190.059055 236.652359 
L 187.461818 236.527353 
L 184.864582 236.399092 
L 182.267345 236.267692 
L 179.670109 236.13327 
L 177.072873 235.995948 
L 174.475636 235.855849 
L 171.8784 235.713099 
L 169.281164 235.567827 
L 166.683927 235.420163 
L 164.086691 235.270241 
L 161.489455 235.118195 
L 159.631398 235.008 
L 158.892218 234.958344 
L 156.294982 234.781778 
L 153.697745 234.603276 
L 151.100509 234.423 
L 148.503273 234.241113 
L 145.906036 234.057777 
L 143.3088 233.873159 
L 140.711564 233.687423 
L 138.114327 233.500737 
L 135.517091 233.31327 
L 132.919855 233.12519 
L 130.322618 232.936665 
L 127.725382 232.747867 
L 125.538368 232.5888 
L 125.128145 232.55471 
L 122.530909 232.338953 
L 119.933673 232.123465 
L 117.336436 231.90844 
L 114.7392 231.694072 
L 112.141964 231.480553 
L 109.544727 231.268076 
L 106.947491 231.056832 
L 104.350255 230.847011 
L 101.753018 230.638802 
L 99.155782 230.432392 
L 96.558545 230.227967 
L 95.809033 230.1696 
L 93.961309 230.003688 
L 91.364073 229.773187 
L 88.766836 229.545603 
L 86.1696 229.321143 
L 83.572364 229.100008 
L 80.975127 228.882396 
L 78.377891 228.668505 
L 75.780655 228.458526 
L 73.183418 228.252649 
L 70.586182 228.051058 
" clip-path="url(#p71957f74da)" style="fill: none; stroke: #1f9f88; stroke-opacity: 0.996094"/>
    <path d="M 330.309818 260.914377 
L 327.712582 260.965322 
L 325.115345 261.014676 
L 322.518109 261.062395 
L 319.920873 261.108435 
L 317.323636 261.152757 
L 314.7264 261.195319 
L 312.129164 261.236083 
L 309.531927 261.275014 
L 306.934691 261.312075 
L 304.337455 261.347233 
L 301.740218 261.380457 
L 299.142982 261.411717 
L 296.545745 261.440984 
L 293.948509 261.468233 
L 291.351273 261.493438 
L 288.754036 261.516578 
L 286.1568 261.537631 
L 283.559564 261.556578 
L 280.962327 261.573403 
L 278.365091 261.588089 
L 275.767855 261.600625 
L 273.170618 261.610998 
L 270.573382 261.6192 
L 270.573382 261.6192 
L 267.976145 261.624976 
L 265.378909 261.628657 
L 262.781673 261.630239 
L 260.184436 261.629722 
L 257.5872 261.627105 
L 254.989964 261.622392 
L 253.771793 261.6192 
L 252.392727 261.615432 
L 249.795491 261.606159 
L 247.198255 261.59472 
L 244.601018 261.581123 
L 242.003782 261.565381 
L 239.406545 261.547509 
L 236.809309 261.527522 
L 234.212073 261.505439 
L 231.614836 261.481279 
L 229.0176 261.455064 
L 226.420364 261.426818 
L 223.823127 261.396565 
L 221.225891 261.364334 
L 218.628655 261.330154 
L 216.031418 261.294054 
L 213.434182 261.256068 
L 210.836945 261.21623 
L 208.239709 261.174575 
L 205.642473 261.131142 
L 203.045236 261.085968 
L 200.448 261.039095 
L 197.850764 260.990566 
L 195.253527 260.940423 
L 192.656291 260.888711 
L 190.059055 260.835478 
L 187.461818 260.780772 
L 184.864582 260.724641 
L 182.267345 260.667135 
L 179.670109 260.608308 
L 177.072873 260.548211 
L 174.475636 260.486899 
L 171.8784 260.424427 
L 169.281164 260.360851 
L 166.683927 260.296228 
L 164.086691 260.230617 
L 161.489455 260.164077 
L 158.892218 260.096667 
L 156.294982 260.028448 
L 153.697745 259.959481 
L 151.100509 259.889829 
L 148.503273 259.819555 
L 145.906036 259.74872 
L 143.3088 259.677391 
L 140.711564 259.605629 
L 138.114327 259.533501 
L 135.517091 259.46107 
L 132.919855 259.388403 
L 130.322618 259.315564 
L 127.725382 259.242619 
L 126.208753 259.2 
L 125.128145 259.168089 
L 122.530909 259.091419 
L 119.933673 259.014844 
L 117.336436 258.938434 
L 114.7392 258.862258 
L 112.141964 258.786383 
L 109.544727 258.710878 
L 106.947491 258.635812 
L 104.350255 258.561251 
L 101.753018 258.487263 
L 99.155782 258.413914 
L 96.558545 258.341271 
L 93.961309 258.269398 
L 91.364073 258.198361 
L 88.766836 258.128224 
L 86.1696 258.059048 
L 83.572364 257.990898 
L 80.975127 257.923833 
L 78.377891 257.857915 
L 75.780655 257.793203 
L 73.183418 257.729755 
L 70.586182 257.667628 
" clip-path="url(#p71957f74da)" style="fill: none; stroke: #56c667; stroke-opacity: 0.996094"/>
    <path d="M 330.309818 285.131866 
L 327.712582 285.186528 
L 325.115345 285.239484 
L 322.518109 285.290685 
L 319.920873 285.340085 
L 317.323636 285.387641 
L 314.7264 285.433309 
L 312.129164 285.477049 
L 309.531927 285.51882 
L 306.934691 285.558585 
L 304.337455 285.596309 
L 301.740218 285.631957 
L 299.142982 285.665498 
L 296.545745 285.696902 
L 293.948509 285.726139 
L 291.351273 285.753184 
L 288.754036 285.778012 
L 286.1568 285.800601 
L 284.802734 285.8112 
L 283.559564 285.822057 
L 280.962327 285.842197 
L 278.365091 285.859779 
L 275.767855 285.874786 
L 273.170618 285.887203 
L 270.573382 285.897022 
L 267.976145 285.904231 
L 265.378909 285.908826 
L 262.781673 285.910801 
L 260.184436 285.910156 
L 257.5872 285.90689 
L 254.989964 285.901006 
L 252.392727 285.892511 
L 249.795491 285.881411 
L 247.198255 285.867716 
L 244.601018 285.851439 
L 242.003782 285.832595 
L 239.406545 285.8112 
L 239.406545 285.8112 
L 236.809309 285.789755 
L 234.212073 285.76606 
L 231.614836 285.740137 
L 229.0176 285.712009 
L 226.420364 285.681701 
L 223.823127 285.649241 
L 221.225891 285.614659 
L 218.628655 285.577984 
L 216.031418 285.53925 
L 213.434182 285.498492 
L 210.836945 285.455746 
L 208.239709 285.411052 
L 205.642473 285.364449 
L 203.045236 285.315979 
L 200.448 285.265685 
L 197.850764 285.213614 
L 195.253527 285.159812 
L 192.656291 285.104327 
L 190.059055 285.04721 
L 187.461818 284.988511 
L 184.864582 284.928284 
L 182.267345 284.866582 
L 179.670109 284.803462 
L 177.072873 284.738979 
L 174.475636 284.673193 
L 171.8784 284.606162 
L 169.281164 284.537947 
L 166.683927 284.468608 
L 164.086691 284.398209 
L 161.489455 284.326813 
L 158.892218 284.254484 
L 156.294982 284.181287 
L 153.697745 284.107287 
L 151.100509 284.032553 
L 148.503273 283.95715 
L 145.906036 283.881147 
L 143.3088 283.804612 
L 140.711564 283.727613 
L 138.114327 283.650221 
L 135.517091 283.572505 
L 132.919855 283.494535 
L 130.322618 283.416381 
L 129.513565 283.392 
L 127.725382 283.342144 
L 125.128145 283.269691 
L 122.530909 283.197263 
L 119.933673 283.124925 
L 117.336436 283.052743 
L 114.7392 282.980781 
L 112.141964 282.909105 
L 109.544727 282.837778 
L 106.947491 282.766865 
L 104.350255 282.69643 
L 101.753018 282.626536 
L 99.155782 282.557246 
L 96.558545 282.488622 
L 93.961309 282.420726 
L 91.364073 282.35362 
L 88.766836 282.287363 
L 86.1696 282.222015 
L 83.572364 282.157635 
L 80.975127 282.094282 
L 78.377891 282.032011 
L 75.780655 281.97088 
L 73.183418 281.910942 
L 70.586182 281.852252 
" clip-path="url(#p71957f74da)" style="fill: none; stroke: #fde725; stroke-opacity: 0.996094"/>
   </g>
   <g id="patch_3">
    <path d="M 57.6 307.584 
L 57.6 41.472 
" style="fill: none; stroke: #000000; stroke-width: 0.8; stroke-linejoin: miter; stroke-linecap: square"/>
   </g>
   <g id="patch_4">
    <path d="M 343.296 307.584 
L 343.296 41.472 
" style="fill: none; stroke: #000000; stroke-width: 0.8; stroke-linejoin: miter; stroke-linecap: square"/>
   </g>
   <g id="patch_5">
    <path d="M 57.6 307.584 
L 343.296 307.584 
" style="fill: none; stroke: #000000; stroke-width: 0.8; stroke-linejoin: miter; stroke-linecap: square"/>
   </g>
   <g id="patch_6">
    <path d="M 57.6 41.472 
L 343.296 41.472 
" style="fill: none; stroke: #000000; stroke-width: 0.8; stroke-linejoin: miter; stroke-linecap: square"/>
   </g>
  </g>
  <g id="axes_2">
   <g id="patch_7">
    <path d="M 361.152 295.488 
L 374.4576 295.488 
L 374.4576 53.568 
L 361.152 53.568 
z
" style="fill: #ffffff"/>
   </g>
   <g id="matplotlib.axis_3"/>
   <g id="matplotlib.axis_4">
    <g id="ytick_6">
     <g id="line2d_25">
      <defs>
       <path id="m7a865d3047" d="M 0 0 
L 3.5 0 
" style="stroke: #000000; stroke-width: 0.8"/>
      </defs>
      <g>
       <use xlink:href="#m7a865d3047" x="374.4576" y="295.488" style="stroke: #000000; stroke-width: 0.8"/>
      </g>
     </g>
     <g id="text_15">
      <!-- -18.9 -->
      <g transform="translate(381.4576 299.287219) scale(0.1 -0.1)">
       <defs>
        <path id="DejaVuSans-2d" d="M 313 2009 
L 1997 2009 
L 1997 1497 
L 313 1497 
L 313 2009 
z
" transform="scale(0.015625)"/>
        <path id="DejaVuSans-38" d="M 2034 2216 
Q 1584 2216 1326 1975 
Q 1069 1734 1069 1313 
Q 1069 891 1326 650 
Q 1584 409 2034 409 
Q 2484 409 2743 651 
Q 3003 894 3003 1313 
Q 3003 1734 2745 1975 
Q 2488 2216 2034 2216 
z
M 1403 2484 
Q 997 2584 770 2862 
Q 544 3141 544 3541 
Q 544 4100 942 4425 
Q 1341 4750 2034 4750 
Q 2731 4750 3128 4425 
Q 3525 4100 3525 3541 
Q 3525 3141 3298 2862 
Q 3072 2584 2669 2484 
Q 3125 2378 3379 2068 
Q 3634 1759 3634 1313 
Q 3634 634 3220 271 
Q 2806 -91 2034 -91 
Q 1263 -91 848 271 
Q 434 634 434 1313 
Q 434 1759 690 2068 
Q 947 2378 1403 2484 
z
M 1172 3481 
Q 1172 3119 1398 2916 
Q 1625 2713 2034 2713 
Q 2441 2713 2670 2916 
Q 2900 3119 2900 3481 
Q 2900 3844 2670 4047 
Q 2441 4250 2034 4250 
Q 1625 4250 1398 4047 
Q 1172 3844 1172 3481 
z
" transform="scale(0.015625)"/>
        <path id="DejaVuSans-39" d="M 703 97 
L 703 672 
Q 941 559 1184 500 
Q 1428 441 1663 441 
Q 2288 441 2617 861 
Q 2947 1281 2994 2138 
Q 2813 1869 2534 1725 
Q 2256 1581 1919 1581 
Q 1219 1581 811 2004 
Q 403 2428 403 3163 
Q 403 3881 828 4315 
Q 1253 4750 1959 4750 
Q 2769 4750 3195 4129 
Q 3622 3509 3622 2328 
Q 3622 1225 3098 567 
Q 2575 -91 1691 -91 
Q 1453 -91 1209 -44 
Q 966 3 703 97 
z
M 1959 2075 
Q 2384 2075 2632 2365 
Q 2881 2656 2881 3163 
Q 2881 3666 2632 3958 
Q 2384 4250 1959 4250 
Q 1534 4250 1286 3958 
Q 1038 3666 1038 3163 
Q 1038 2656 1286 2365 
Q 1534 2075 1959 2075 
z
" transform="scale(0.015625)"/>
       </defs>
       <use xlink:href="#DejaVuSans-2d"/>
       <use xlink:href="#DejaVuSans-31" transform="translate(36.083984 0)"/>
       <use xlink:href="#DejaVuSans-38" transform="translate(99.707031 0)"/>
       <use xlink:href="#DejaVuSans-2e" transform="translate(163.330078 0)"/>
       <use xlink:href="#DejaVuSans-39" transform="translate(195.117188 0)"/>
      </g>
     </g>
    </g>
    <g id="ytick_7">
     <g id="line2d_26">
      <g>
       <use xlink:href="#m7a865d3047" x="374.4576" y="268.608" style="stroke: #000000; stroke-width: 0.8"/>
      </g>
     </g>
     <g id="text_16">
      <!-- -8.11 -->
      <g transform="translate(381.4576 272.407219) scale(0.1 -0.1)">
       <use xlink:href="#DejaVuSans-2d"/>
       <use xlink:href="#DejaVuSans-38" transform="translate(36.083984 0)"/>
       <use xlink:href="#DejaVuSans-2e" transform="translate(99.707031 0)"/>
       <use xlink:href="#DejaVuSans-31" transform="translate(131.494141 0)"/>
       <use xlink:href="#DejaVuSans-31" transform="translate(195.117188 0)"/>
      </g>
     </g>
    </g>
    <g id="ytick_8">
     <g id="line2d_27">
      <g>
       <use xlink:href="#m7a865d3047" x="374.4576" y="241.728" style="stroke: #000000; stroke-width: 0.8"/>
      </g>
     </g>
     <g id="text_17">
      <!-- -0.926 -->
      <g transform="translate(381.4576 245.527219) scale(0.1 -0.1)">
       <defs>
        <path id="DejaVuSans-36" d="M 2113 2584 
Q 1688 2584 1439 2293 
Q 1191 2003 1191 1497 
Q 1191 994 1439 701 
Q 1688 409 2113 409 
Q 2538 409 2786 701 
Q 3034 994 3034 1497 
Q 3034 2003 2786 2293 
Q 2538 2584 2113 2584 
z
M 3366 4563 
L 3366 3988 
Q 3128 4100 2886 4159 
Q 2644 4219 2406 4219 
Q 1781 4219 1451 3797 
Q 1122 3375 1075 2522 
Q 1259 2794 1537 2939 
Q 1816 3084 2150 3084 
Q 2853 3084 3261 2657 
Q 3669 2231 3669 1497 
Q 3669 778 3244 343 
Q 2819 -91 2113 -91 
Q 1303 -91 875 529 
Q 447 1150 447 2328 
Q 447 3434 972 4092 
Q 1497 4750 2381 4750 
Q 2619 4750 2861 4703 
Q 3103 4656 3366 4563 
z
" transform="scale(0.015625)"/>
       </defs>
       <use xlink:href="#DejaVuSans-2d"/>
       <use xlink:href="#DejaVuSans-30" transform="translate(36.083984 0)"/>
       <use xlink:href="#DejaVuSans-2e" transform="translate(99.707031 0)"/>
       <use xlink:href="#DejaVuSans-39" transform="translate(131.494141 0)"/>
       <use xlink:href="#DejaVuSans-32" transform="translate(195.117188 0)"/>
       <use xlink:href="#DejaVuSans-36" transform="translate(258.740234 0)"/>
      </g>
     </g>
    </g>
    <g id="ytick_9">
     <g id="line2d_28">
      <g>
       <use xlink:href="#m7a865d3047" x="374.4576" y="214.848" style="stroke: #000000; stroke-width: 0.8"/>
      </g>
     </g>
     <g id="text_18">
      <!-- 1 -->
      <g transform="translate(381.4576 218.647219) scale(0.1 -0.1)">
       <use xlink:href="#DejaVuSans-31"/>
      </g>
     </g>
    </g>
    <g id="ytick_10">
     <g id="line2d_29">
      <g>
       <use xlink:href="#m7a865d3047" x="374.4576" y="187.968" style="stroke: #000000; stroke-width: 0.8"/>
      </g>
     </g>
     <g id="text_19">
      <!-- 1.18 -->
      <g transform="translate(381.4576 191.767219) scale(0.1 -0.1)">
       <use xlink:href="#DejaVuSans-31"/>
       <use xlink:href="#DejaVuSans-2e" transform="translate(63.623047 0)"/>
       <use xlink:href="#DejaVuSans-31" transform="translate(95.410156 0)"/>
       <use xlink:href="#DejaVuSans-38" transform="translate(159.033203 0)"/>
      </g>
     </g>
    </g>
    <g id="ytick_11">
     <g id="line2d_30">
      <g>
       <use xlink:href="#m7a865d3047" x="374.4576" y="161.088" style="stroke: #000000; stroke-width: 0.8"/>
      </g>
     </g>
     <g id="text_20">
      <!-- 1.6 -->
      <g transform="translate(381.4576 164.887219) scale(0.1 -0.1)">
       <use xlink:href="#DejaVuSans-31"/>
       <use xlink:href="#DejaVuSans-2e" transform="translate(63.623047 0)"/>
       <use xlink:href="#DejaVuSans-36" transform="translate(95.410156 0)"/>
      </g>
     </g>
    </g>
    <g id="ytick_12">
     <g id="line2d_31">
      <g>
       <use xlink:href="#m7a865d3047" x="374.4576" y="134.208" style="stroke: #000000; stroke-width: 0.8"/>
      </g>
     </g>
     <g id="text_21">
      <!-- 2.25 -->
      <g transform="translate(381.4576 138.007219) scale(0.1 -0.1)">
       <use xlink:href="#DejaVuSans-32"/>
       <use xlink:href="#DejaVuSans-2e" transform="translate(63.623047 0)"/>
       <use xlink:href="#DejaVuSans-32" transform="translate(95.410156 0)"/>
       <use xlink:href="#DejaVuSans-35" transform="translate(159.033203 0)"/>
      </g>
     </g>
    </g>
    <g id="ytick_13">
     <g id="line2d_32">
      <g>
       <use xlink:href="#m7a865d3047" x="374.4576" y="107.328" style="stroke: #000000; stroke-width: 0.8"/>
      </g>
     </g>
     <g id="text_22">
      <!-- 3.94 -->
      <g transform="translate(381.4576 111.127219) scale(0.1 -0.1)">
       <defs>
        <path id="DejaVuSans-34" d="M 2419 4116 
L 825 1625 
L 2419 1625 
L 2419 4116 
z
M 2253 4666 
L 3047 4666 
L 3047 1625 
L 3713 1625 
L 3713 1100 
L 3047 1100 
L 3047 0 
L 2419 0 
L 2419 1100 
L 313 1100 
L 313 1709 
L 2253 4666 
z
" transform="scale(0.015625)"/>
       </defs>
       <use xlink:href="#DejaVuSans-33"/>
       <use xlink:href="#DejaVuSans-2e" transform="translate(63.623047 0)"/>
       <use xlink:href="#DejaVuSans-39" transform="translate(95.410156 0)"/>
       <use xlink:href="#DejaVuSans-34" transform="translate(159.033203 0)"/>
      </g>
     </g>
    </g>
    <g id="ytick_14">
     <g id="line2d_33">
      <g>
       <use xlink:href="#m7a865d3047" x="374.4576" y="80.448" style="stroke: #000000; stroke-width: 0.8"/>
      </g>
     </g>
     <g id="text_23">
      <!-- 11.2 -->
      <g transform="translate(381.4576 84.247219) scale(0.1 -0.1)">
       <use xlink:href="#DejaVuSans-31"/>
       <use xlink:href="#DejaVuSans-31" transform="translate(63.623047 0)"/>
       <use xlink:href="#DejaVuSans-2e" transform="translate(127.246094 0)"/>
       <use xlink:href="#DejaVuSans-32" transform="translate(159.033203 0)"/>
      </g>
     </g>
    </g>
    <g id="ytick_15">
     <g id="line2d_34">
      <g>
       <use xlink:href="#m7a865d3047" x="374.4576" y="53.568" style="stroke: #000000; stroke-width: 0.8"/>
      </g>
     </g>
     <g id="text_24">
      <!-- 21.9 -->
      <g transform="translate(381.4576 57.367219) scale(0.1 -0.1)">
       <use xlink:href="#DejaVuSans-32"/>
       <use xlink:href="#DejaVuSans-31" transform="translate(63.623047 0)"/>
       <use xlink:href="#DejaVuSans-2e" transform="translate(127.246094 0)"/>
       <use xlink:href="#DejaVuSans-39" transform="translate(159.033203 0)"/>
      </g>
     </g>
    </g>
   </g>
   <g id="LineCollection_1"/>
   <g id="LineCollection_2">
    <path d="M 361.152 295.488 
L 374.4576 295.488 
" clip-path="url(#p6979aa5d0d)" style="fill: none; stroke: #440154; stroke-opacity: 0.996094"/>
    <path d="M 361.152 268.608 
L 374.4576 268.608 
" clip-path="url(#p6979aa5d0d)" style="fill: none; stroke: #39558c; stroke-opacity: 0.996094"/>
    <path d="M 361.152 241.728 
L 374.4576 241.728 
" clip-path="url(#p6979aa5d0d)" style="fill: none; stroke: #26828e; stroke-opacity: 0.996094"/>
    <path d="M 361.152 214.848 
L 374.4576 214.848 
" clip-path="url(#p6979aa5d0d)" style="fill: none; stroke: #228d8d; stroke-opacity: 0.996094"/>
    <path d="M 361.152 187.968 
L 374.4576 187.968 
" clip-path="url(#p6979aa5d0d)" style="fill: none; stroke: #218e8d; stroke-opacity: 0.996094"/>
    <path d="M 361.152 161.088 
L 374.4576 161.088 
" clip-path="url(#p6979aa5d0d)" style="fill: none; stroke: #21918c; stroke-opacity: 0.996094"/>
    <path d="M 361.152 134.208 
L 374.4576 134.208 
" clip-path="url(#p6979aa5d0d)" style="fill: none; stroke: #1f948c; stroke-opacity: 0.996094"/>
    <path d="M 361.152 107.328 
L 374.4576 107.328 
" clip-path="url(#p6979aa5d0d)" style="fill: none; stroke: #1f9f88; stroke-opacity: 0.996094"/>
    <path d="M 361.152 80.448 
L 374.4576 80.448 
" clip-path="url(#p6979aa5d0d)" style="fill: none; stroke: #56c667; stroke-opacity: 0.996094"/>
    <path d="M 361.152 53.568 
L 374.4576 53.568 
" clip-path="url(#p6979aa5d0d)" style="fill: none; stroke: #fde725; stroke-opacity: 0.996094"/>
   </g>
   <g id="patch_8">
    <path d="M 361.152 295.488 
L 367.8048 307.584 
L 374.4576 295.488 
L 374.4576 53.568 
L 367.8048 41.472 
L 361.152 53.568 
L 361.152 295.488 
z
" style="fill: none; stroke: #000000; stroke-width: 0.8; stroke-linejoin: miter; stroke-linecap: square"/>
   </g>
  </g>
  <g id="text_25">
   <!-- y1 as a function of (x1,x3) around [0,2,2.5] -->
   <g transform="translate(100.81875 16.030125) scale(0.12 -0.12)">
    <defs>
     <path id="DejaVuSans-79" d="M 2059 -325 
Q 1816 -950 1584 -1140 
Q 1353 -1331 966 -1331 
L 506 -1331 
L 506 -850 
L 844 -850 
Q 1081 -850 1212 -737 
Q 1344 -625 1503 -206 
L 1606 56 
L 191 3500 
L 800 3500 
L 1894 763 
L 2988 3500 
L 3597 3500 
L 2059 -325 
z
" transform="scale(0.015625)"/>
     <path id="DejaVuSans-20" transform="scale(0.015625)"/>
     <path id="DejaVuSans-61" d="M 2194 1759 
Q 1497 1759 1228 1600 
Q 959 1441 959 1056 
Q 959 750 1161 570 
Q 1363 391 1709 391 
Q 2188 391 2477 730 
Q 2766 1069 2766 1631 
L 2766 1759 
L 2194 1759 
z
M 3341 1997 
L 3341 0 
L 2766 0 
L 2766 531 
Q 2569 213 2275 61 
Q 1981 -91 1556 -91 
Q 1019 -91 701 211 
Q 384 513 384 1019 
Q 384 1609 779 1909 
Q 1175 2209 1959 2209 
L 2766 2209 
L 2766 2266 
Q 2766 2663 2505 2880 
Q 2244 3097 1772 3097 
Q 1472 3097 1187 3025 
Q 903 2953 641 2809 
L 641 3341 
Q 956 3463 1253 3523 
Q 1550 3584 1831 3584 
Q 2591 3584 2966 3190 
Q 3341 2797 3341 1997 
z
" transform="scale(0.015625)"/>
     <path id="DejaVuSans-73" d="M 2834 3397 
L 2834 2853 
Q 2591 2978 2328 3040 
Q 2066 3103 1784 3103 
Q 1356 3103 1142 2972 
Q 928 2841 928 2578 
Q 928 2378 1081 2264 
Q 1234 2150 1697 2047 
L 1894 2003 
Q 2506 1872 2764 1633 
Q 3022 1394 3022 966 
Q 3022 478 2636 193 
Q 2250 -91 1575 -91 
Q 1294 -91 989 -36 
Q 684 19 347 128 
L 347 722 
Q 666 556 975 473 
Q 1284 391 1588 391 
Q 1994 391 2212 530 
Q 2431 669 2431 922 
Q 2431 1156 2273 1281 
Q 2116 1406 1581 1522 
L 1381 1569 
Q 847 1681 609 1914 
Q 372 2147 372 2553 
Q 372 3047 722 3315 
Q 1072 3584 1716 3584 
Q 2034 3584 2315 3537 
Q 2597 3491 2834 3397 
z
" transform="scale(0.015625)"/>
     <path id="DejaVuSans-66" d="M 2375 4863 
L 2375 4384 
L 1825 4384 
Q 1516 4384 1395 4259 
Q 1275 4134 1275 3809 
L 1275 3500 
L 2222 3500 
L 2222 3053 
L 1275 3053 
L 1275 0 
L 697 0 
L 697 3053 
L 147 3053 
L 147 3500 
L 697 3500 
L 697 3744 
Q 697 4328 969 4595 
Q 1241 4863 1831 4863 
L 2375 4863 
z
" transform="scale(0.015625)"/>
     <path id="DejaVuSans-75" d="M 544 1381 
L 544 3500 
L 1119 3500 
L 1119 1403 
Q 1119 906 1312 657 
Q 1506 409 1894 409 
Q 2359 409 2629 706 
Q 2900 1003 2900 1516 
L 2900 3500 
L 3475 3500 
L 3475 0 
L 2900 0 
L 2900 538 
Q 2691 219 2414 64 
Q 2138 -91 1772 -91 
Q 1169 -91 856 284 
Q 544 659 544 1381 
z
M 1991 3584 
L 1991 3584 
z
" transform="scale(0.015625)"/>
     <path id="DejaVuSans-6e" d="M 3513 2113 
L 3513 0 
L 2938 0 
L 2938 2094 
Q 2938 2591 2744 2837 
Q 2550 3084 2163 3084 
Q 1697 3084 1428 2787 
Q 1159 2491 1159 1978 
L 1159 0 
L 581 0 
L 581 3500 
L 1159 3500 
L 1159 2956 
Q 1366 3272 1645 3428 
Q 1925 3584 2291 3584 
Q 2894 3584 3203 3211 
Q 3513 2838 3513 2113 
z
" transform="scale(0.015625)"/>
     <path id="DejaVuSans-63" d="M 3122 3366 
L 3122 2828 
Q 2878 2963 2633 3030 
Q 2388 3097 2138 3097 
Q 1578 3097 1268 2742 
Q 959 2388 959 1747 
Q 959 1106 1268 751 
Q 1578 397 2138 397 
Q 2388 397 2633 464 
Q 2878 531 3122 666 
L 3122 134 
Q 2881 22 2623 -34 
Q 2366 -91 2075 -91 
Q 1284 -91 818 406 
Q 353 903 353 1747 
Q 353 2603 823 3093 
Q 1294 3584 2113 3584 
Q 2378 3584 2631 3529 
Q 2884 3475 3122 3366 
z
" transform="scale(0.015625)"/>
     <path id="DejaVuSans-74" d="M 1172 4494 
L 1172 3500 
L 2356 3500 
L 2356 3053 
L 1172 3053 
L 1172 1153 
Q 1172 725 1289 603 
Q 1406 481 1766 481 
L 2356 481 
L 2356 0 
L 1766 0 
Q 1100 0 847 248 
Q 594 497 594 1153 
L 594 3053 
L 172 3053 
L 172 3500 
L 594 3500 
L 594 4494 
L 1172 4494 
z
" transform="scale(0.015625)"/>
     <path id="DejaVuSans-69" d="M 603 3500 
L 1178 3500 
L 1178 0 
L 603 0 
L 603 3500 
z
M 603 4863 
L 1178 4863 
L 1178 4134 
L 603 4134 
L 603 4863 
z
" transform="scale(0.015625)"/>
     <path id="DejaVuSans-6f" d="M 1959 3097 
Q 1497 3097 1228 2736 
Q 959 2375 959 1747 
Q 959 1119 1226 758 
Q 1494 397 1959 397 
Q 2419 397 2687 759 
Q 2956 1122 2956 1747 
Q 2956 2369 2687 2733 
Q 2419 3097 1959 3097 
z
M 1959 3584 
Q 2709 3584 3137 3096 
Q 3566 2609 3566 1747 
Q 3566 888 3137 398 
Q 2709 -91 1959 -91 
Q 1206 -91 779 398 
Q 353 888 353 1747 
Q 353 2609 779 3096 
Q 1206 3584 1959 3584 
z
" transform="scale(0.015625)"/>
     <path id="DejaVuSans-28" d="M 1984 4856 
Q 1566 4138 1362 3434 
Q 1159 2731 1159 2009 
Q 1159 1288 1364 580 
Q 1569 -128 1984 -844 
L 1484 -844 
Q 1016 -109 783 600 
Q 550 1309 550 2009 
Q 550 2706 781 3412 
Q 1013 4119 1484 4856 
L 1984 4856 
z
" transform="scale(0.015625)"/>
     <path id="DejaVuSans-2c" d="M 750 794 
L 1409 794 
L 1409 256 
L 897 -744 
L 494 -744 
L 750 256 
L 750 794 
z
" transform="scale(0.015625)"/>
     <path id="DejaVuSans-29" d="M 513 4856 
L 1013 4856 
Q 1481 4119 1714 3412 
Q 1947 2706 1947 2009 
Q 1947 1309 1714 600 
Q 1481 -109 1013 -844 
L 513 -844 
Q 928 -128 1133 580 
Q 1338 1288 1338 2009 
Q 1338 2731 1133 3434 
Q 928 4138 513 4856 
z
" transform="scale(0.015625)"/>
     <path id="DejaVuSans-72" d="M 2631 2963 
Q 2534 3019 2420 3045 
Q 2306 3072 2169 3072 
Q 1681 3072 1420 2755 
Q 1159 2438 1159 1844 
L 1159 0 
L 581 0 
L 581 3500 
L 1159 3500 
L 1159 2956 
Q 1341 3275 1631 3429 
Q 1922 3584 2338 3584 
Q 2397 3584 2469 3576 
Q 2541 3569 2628 3553 
L 2631 2963 
z
" transform="scale(0.015625)"/>
     <path id="DejaVuSans-64" d="M 2906 2969 
L 2906 4863 
L 3481 4863 
L 3481 0 
L 2906 0 
L 2906 525 
Q 2725 213 2448 61 
Q 2172 -91 1784 -91 
Q 1150 -91 751 415 
Q 353 922 353 1747 
Q 353 2572 751 3078 
Q 1150 3584 1784 3584 
Q 2172 3584 2448 3432 
Q 2725 3281 2906 2969 
z
M 947 1747 
Q 947 1113 1208 752 
Q 1469 391 1925 391 
Q 2381 391 2643 752 
Q 2906 1113 2906 1747 
Q 2906 2381 2643 2742 
Q 2381 3103 1925 3103 
Q 1469 3103 1208 2742 
Q 947 2381 947 1747 
z
" transform="scale(0.015625)"/>
     <path id="DejaVuSans-5b" d="M 550 4863 
L 1875 4863 
L 1875 4416 
L 1125 4416 
L 1125 -397 
L 1875 -397 
L 1875 -844 
L 550 -844 
L 550 4863 
z
" transform="scale(0.015625)"/>
     <path id="DejaVuSans-5d" d="M 1947 4863 
L 1947 -844 
L 622 -844 
L 622 -397 
L 1369 -397 
L 1369 4416 
L 622 4416 
L 622 4863 
L 1947 4863 
z
" transform="scale(0.015625)"/>
    </defs>
    <use xlink:href="#DejaVuSans-79"/>
    <use xlink:href="#DejaVuSans-31" transform="translate(59.179688 0)"/>
    <use xlink:href="#DejaVuSans-20" transform="translate(122.802734 0)"/>
    <use xlink:href="#DejaVuSans-61" transform="translate(154.589844 0)"/>
    <use xlink:href="#DejaVuSans-73" transform="translate(215.869141 0)"/>
    <use xlink:href="#DejaVuSans-20" transform="translate(267.96875 0)"/>
    <use xlink:href="#DejaVuSans-61" transform="translate(299.755859 0)"/>
    <use xlink:href="#DejaVuSans-20" transform="translate(361.035156 0)"/>
    <use xlink:href="#DejaVuSans-66" transform="translate(392.822266 0)"/>
    <use xlink:href="#DejaVuSans-75" transform="translate(428.027344 0)"/>
    <use xlink:href="#DejaVuSans-6e" transform="translate(491.40625 0)"/>
    <use xlink:href="#DejaVuSans-63" transform="translate(554.785156 0)"/>
    <use xlink:href="#DejaVuSans-74" transform="translate(609.765625 0)"/>
    <use xlink:href="#DejaVuSans-69" transform="translate(648.974609 0)"/>
    <use xlink:href="#DejaVuSans-6f" transform="translate(676.757812 0)"/>
    <use xlink:href="#DejaVuSans-6e" transform="translate(737.939453 0)"/>
    <use xlink:href="#DejaVuSans-20" transform="translate(801.318359 0)"/>
    <use xlink:href="#DejaVuSans-6f" transform="translate(833.105469 0)"/>
    <use xlink:href="#DejaVuSans-66" transform="translate(894.287109 0)"/>
    <use xlink:href="#DejaVuSans-20" transform="translate(929.492188 0)"/>
    <use xlink:href="#DejaVuSans-28" transform="translate(961.279297 0)"/>
    <use xlink:href="#DejaVuSans-78" transform="translate(1000.292969 0)"/>
    <use xlink:href="#DejaVuSans-31" transform="translate(1059.472656 0)"/>
    <use xlink:href="#DejaVuSans-2c" transform="translate(1123.095703 0)"/>
    <use xlink:href="#DejaVuSans-78" transform="translate(1154.882812 0)"/>
    <use xlink:href="#DejaVuSans-33" transform="translate(1214.0625 0)"/>
    <use xlink:href="#DejaVuSans-29" transform="translate(1277.685547 0)"/>
    <use xlink:href="#DejaVuSans-20" transform="translate(1316.699219 0)"/>
    <use xlink:href="#DejaVuSans-61" transform="translate(1348.486328 0)"/>
    <use xlink:href="#DejaVuSans-72" transform="translate(1409.765625 0)"/>
    <use xlink:href="#DejaVuSans-6f" transform="translate(1448.628906 0)"/>
    <use xlink:href="#DejaVuSans-75" transform="translate(1509.810547 0)"/>
    <use xlink:href="#DejaVuSans-6e" transform="translate(1573.189453 0)"/>
    <use xlink:href="#DejaVuSans-64" transform="translate(1636.568359 0)"/>
    <use xlink:href="#DejaVuSans-20" transform="translate(1700.044922 0)"/>
    <use xlink:href="#DejaVuSans-5b" transform="translate(1731.832031 0)"/>
    <use xlink:href="#DejaVuSans-30" transform="translate(1770.845703 0)"/>
    <use xlink:href="#DejaVuSans-2c" transform="translate(1834.46875 0)"/>
    <use xlink:href="#DejaVuSans-32" transform="translate(1866.255859 0)"/>
    <use xlink:href="#DejaVuSans-2c" transform="translate(1929.878906 0)"/>
    <use xlink:href="#DejaVuSans-32" transform="translate(1961.666016 0)"/>
    <use xlink:href="#DejaVuSans-2e" transform="translate(2025.289062 0)"/>
    <use xlink:href="#DejaVuSans-35" transform="translate(2057.076172 0)"/>
    <use xlink:href="#DejaVuSans-5d" transform="translate(2120.699219 0)"/>
   </g>
  </g>
 </g>
 <defs>
  <clipPath id="p71957f74da">
   <rect x="57.6" y="41.472" width="285.696" height="266.112"/>
  </clipPath>
  <clipPath id="p6979aa5d0d">
   <path d="M 361.152 296.397091 
L 374.4576 296.397091 
L 374.4576 52.658909 
L 361.152 52.658909 
z
"/>
  </clipPath>
 </defs>
</svg>
