<?xml version="1.0" encoding="utf-8" standalone="no"?>
<!DOCTYPE svg PUBLIC "-//W3C//DTD SVG 1.1//EN"
  "http://www.w3.org/Graphics/SVG/1.1/DTD/svg11.dtd">
<svg xmlns:xlink="http://www.w3.org/1999/xlink" width="864pt" height="288pt" viewBox="0 0 864 288" xmlns="http://www.w3.org/2000/svg" version="1.1">
 <metadata>
  <rdf:RDF xmlns:dc="http://purl.org/dc/elements/1.1/" xmlns:cc="http://creativecommons.org/ns#" xmlns:rdf="http://www.w3.org/1999/02/22-rdf-syntax-ns#">
   <cc:Work>
    <dc:type rdf:resource="http://purl.org/dc/dcmitype/StillImage"/>
    <dc:date>2022-01-01T00:00:00+00:00</dc:date>
    <dc:format>image/svg+xml</dc:format>
    <dc:creator>
     <cc:Agent>
      <dc:title>Matplotlib v3.10.8, https://matplotlib.org/</dc:title>
     </cc:Agent>
    </dc:creator>
   </cc:Work>
  </rdf:RDF>
 </metadata>
 <defs>
  <style type="text/css">*{stroke-linejoin: round; stroke-linecap: butt}</style>
 </defs>
 <g id="figure_1">
  <g id="patch_1">
   <path d="M 0 288 
L 864 288 
L 864 0 
L 0 0 
z
" style="fill: #ffffff"/>
  </g>
  <g id="axes_1">
   <g id="patch_2">
    <path d="M 108 256.32 
L 412.363636 256.32 
L 412.363636 34.56 
L 108 34.56 
z
" style="fill: #ffffff"/>
   </g>
   <g id="matplotlib.axis_1">
    <g id="xtick_1">
     <g id="line2d_1">
      <path d="M 121.834711 256.32 
L 121.834711 34.56 
" clip-path="url(#pcf6cfc6e17)" style="fill: none; stroke: #b0b0b0; stroke-width: 0.8; stroke-linecap: square"/>
     </g>
     <g id="line2d_2">
      <defs>
       <path id="m4c9de6cd0c" d="M 0 0 
L 0 3.5 
" style="stroke: #000000; stroke-width: 0.8"/>
      </defs>
      <g>
       <use xlink:href="#m4c9de6cd0c" x="121.834711" y="256.32" style="stroke: #000000; stroke-width: 0.8"/>
      </g>
     </g>
     <g id="text_1">
      <!-- 0 -->
      <g transform="translate(118.653461 270.918437) scale(0.1 -0.1)">
       <defs>
        <path id="DejaVuSans-30" d="M 2034 4250 
Q 1547 4250 1301 3770 
Q 1056 3291 1056 2328 
Q 1056 1369 1301 889 
Q 1547 409 2034 409 
Q 2525 409 2770 889 
Q 3016 1369 3016 2328 
Q 3016 3291 2770 3770 
Q 2525 4250 2034 4250 
z
M 2034 4750 
Q 2819 4750 3233 4129 
Q 3647 3509 3647 2328 
Q 3647 1150 3233 529 
Q 2819 -91 2034 -91 
Q 1250 -91 836 529 
Q 422 1150 422 2328 
Q 422 3509 836 4129 
Q 1250 4750 2034 4750 
z
" transform="scale(0.015625)"/>
       </defs>
       <use xlink:href="#DejaVuSans-30"/>
      </g>
     </g>
    </g>
    <g id="xtick_2">
     <g id="line2d_3">
      <path d="M 177.173554 256.32 
L 177.173554 34.56 
" clip-path="url(#pcf6cfc6e17)" style="fill: none; stroke: #b0b0b0; stroke-width: 0.8; stroke-linecap: square"/>
     </g>
     <g id="line2d_4">
      <g>
       <use xlink:href="#m4c9de6cd0c" x="177.173554" y="256.32" style="stroke: #000000; stroke-width: 0.8"/>
      </g>
     </g>
     <g id="text_2">
      <!-- 1 -->
      <g transform="translate(173.992304 270.918437) scale(0.1 -0.1)">
       <defs>
        <path id="DejaVuSans-31" d="M 794 531 
L 1825 531 
L 1825 4091 
L 703 3866 
L 703 4441 
L 1819 4666 
L 2450 4666 
L 2450 531 
L 3481 531 
L 3481 0 
L 794 0 
L 794 531 
z
" transform="scale(0.015625)"/>
       </defs>
       <use xlink:href="#DejaVuSans-31"/>
      </g>
     </g>
    </g>
    <g id="xtick_3">
     <g id="line2d_5">
      <path d="M 232.512397 256.32 
L 232.512397 34.56 
" clip-path="url(#pcf6cfc6e17)" style="fill: none; stroke: #b0b0b0; stroke-width: 0.8; stroke-linecap: square"/>
     </g>
     <g id="line2d_6">
      <g>
       <use xlink:href="#m4c9de6cd0c" x="232.512397" y="256.32" style="stroke: #000000; stroke-width: 0.8"/>
      </g>
     </g>
     <g id="text_3">
      <!-- 2 -->
      <g transform="translate(229.331147 270.918437) scale(0.1 -0.1)">
       <defs>
        <path id="DejaVuSans-32" d="M 1228 531 
L 3431 531 
L 3431 0 
L 469 0 
L 469 531 
Q 828 903 1448 1529 
Q 2069 2156 2228 2338 
Q 2531 2678 2651 2914 
Q 2772 3150 2772 3378 
Q 2772 3750 2511 3984 
Q 2250 4219 1831 4219 
Q 1534 4219 1204 4116 
Q 875 4013 500 3803 
L 500 4441 
Q 881 4594 1212 4672 
Q 1544 4750 1819 4750 
Q 2544 4750 2975 4387 
Q 3406 4025 3406 3419 
Q 3406 3131 3298 2873 
Q 3191 2616 2906 2266 
Q 2828 2175 2409 1742 
Q 1991 1309 1228 531 
z
" transform="scale(0.015625)"/>
       </defs>
       <use xlink:href="#DejaVuSans-32"/>
      </g>
     </g>
    </g>
    <g id="xtick_4">
     <g id="line2d_7">
      <path d="M 287.85124 256.32 
L 287.85124 34.56 
" clip-path="url(#pcf6cfc6e17)" style="fill: none; stroke: #b0b0b0; stroke-width: 0.8; stroke-linecap: square"/>
     </g>
     <g id="line2d_8">
      <g>
       <use xlink:href="#m4c9de6cd0c" x="287.85124" y="256.32" style="stroke: #000000; stroke-width: 0.8"/>
      </g>
     </g>
     <g id="text_4">
      <!-- 3 -->
      <g transform="translate(284.66999 270.918437) scale(0.1 -0.1)">
       <defs>
        <path id="DejaVuSans-33" d="M 2597 2516 
Q 3050 2419 3304 2112 
Q 3559 1806 3559 1356 
Q 3559 666 3084 287 
Q 2609 -91 1734 -91 
Q 1441 -91 1130 -33 
Q 819 25 488 141 
L 488 750 
Q 750 597 1062 519 
Q 1375 441 1716 441 
Q 2309 441 2620 675 
Q 2931 909 2931 1356 
Q 2931 1769 2642 2001 
Q 2353 2234 1838 2234 
L 1294 2234 
L 1294 2753 
L 1863 2753 
Q 2328 2753 2575 2939 
Q 2822 3125 2822 3475 
Q 2822 3834 2567 4026 
Q 2313 4219 1838 4219 
Q 1578 4219 1281 4162 
Q 984 4106 628 3988 
L 628 4550 
Q 988 4650 1302 4700 
Q 1616 4750 1894 4750 
Q 2613 4750 3031 4423 
Q 3450 4097 3450 3541 
Q 3450 3153 3228 2886 
Q 3006 2619 2597 2516 
z
" transform="scale(0.015625)"/>
       </defs>
       <use xlink:href="#DejaVuSans-33"/>
      </g>
     </g>
    </g>
    <g id="xtick_5">
     <g id="line2d_9">
      <path d="M 343.190083 256.32 
L 343.190083 34.56 
" clip-path="url(#pcf6cfc6e17)" style="fill: none; stroke: #b0b0b0; stroke-width: 0.8; stroke-linecap: square"/>
     </g>
     <g id="line2d_10">
      <g>
       <use xlink:href="#m4c9de6cd0c" x="343.190083" y="256.32" style="stroke: #000000; stroke-width: 0.8"/>
      </g>
     </g>
     <g id="text_5">
      <!-- 4 -->
      <g transform="translate(340.008833 270.918437) scale(0.1 -0.1)">
       <defs>
        <path id="DejaVuSans-34" d="M 2419 4116 
L 825 1625 
L 2419 1625 
L 2419 4116 
z
M 2253 4666 
L 3047 4666 
L 3047 1625 
L 3713 1625 
L 3713 1100 
L 3047 1100 
L 3047 0 
L 2419 0 
L 2419 1100 
L 313 1100 
L 313 1709 
L 2253 4666 
z
" transform="scale(0.015625)"/>
       </defs>
       <use xlink:href="#DejaVuSans-34"/>
      </g>
     </g>
    </g>
    <g id="xtick_6">
     <g id="line2d_11">
      <path d="M 398.528926 256.32 
L 398.528926 34.56 
" clip-path="url(#pcf6cfc6e17)" style="fill: none; stroke: #b0b0b0; stroke-width: 0.8; stroke-linecap: square"/>
     </g>
     <g id="line2d_12">
      <g>
       <use xlink:href="#m4c9de6cd0c" x="398.528926" y="256.32" style="stroke: #000000; stroke-width: 0.8"/>
      </g>
     </g>
     <g id="text_6">
      <!-- 5 -->
      <g transform="translate(395.347676 270.918437) scale(0.1 -0.1)">
       <defs>
        <path id="DejaVuSans-35" d="M 691 4666 
L 3169 4666 
L 3169 4134 
L 1269 4134 
L 1269 2991 
Q 1406 3038 1543 3061 
Q 1681 3084 1819 3084 
Q 2600 3084 3056 2656 
Q 3513 2228 3513 1497 
Q 3513 744 3044 326 
Q 2575 -91 1722 -91 
Q 1428 -91 1123 -41 
Q 819 9 494 109 
L 494 744 
Q 775 591 1075 516 
Q 1375 441 1709 441 
Q 2250 441 2565 725 
Q 2881 1009 2881 1497 
Q 2881 1984 2565 2268 
Q 2250 2553 1709 2553 
Q 1456 2553 1204 2497 
Q 953 2441 691 2322 
L 691 4666 
z
" transform="scale(0.015625)"/>
       </defs>
       <use xlink:href="#DejaVuSans-35"/>
      </g>
     </g>
    </g>
    <g id="text_7">
     <!-- $\tau = \|s-t\|$ -->
     <g transform="translate(235.281818 284.698125) scale(0.1 -0.1)">
      <defs>
       <path id="DejaVuSans-Oblique-3c4" d="M 2103 638 
Q 2188 488 2525 488 
L 2800 488 
L 2706 0 
L 2363 0 
Q 1800 0 1600 300 
Q 1403 606 1534 1269 
L 1856 2925 
L 541 2925 
L 653 3500 
L 3881 3500 
L 3769 2925 
L 2444 2925 
L 2113 1234 
Q 2025 781 2103 638 
z
" transform="scale(0.015625)"/>
       <path id="DejaVuSans-3d" d="M 678 2906 
L 4684 2906 
L 4684 2381 
L 678 2381 
L 678 2906 
z
M 678 1631 
L 4684 1631 
L 4684 1100 
L 678 1100 
L 678 1631 
z
" transform="scale(0.015625)"/>
       <path id="DejaVuSans-2016" d="M 1344 4891 
L 1344 -1509 
L 813 -1509 
L 813 4891 
L 1344 4891 
z
M 2375 4891 
L 2375 -1509 
L 1844 -1509 
L 1844 4891 
L 2375 4891 
z
" transform="scale(0.015625)"/>
       <path id="DejaVuSans-Oblique-73" d="M 3200 3397 
L 3091 2853 
Q 2863 2978 2609 3040 
Q 2356 3103 2088 3103 
Q 1634 3103 1373 2948 
Q 1113 2794 1113 2528 
Q 1113 2219 1719 2053 
Q 1766 2041 1788 2034 
L 1972 1978 
Q 2547 1819 2739 1644 
Q 2931 1469 2931 1166 
Q 2931 609 2489 259 
Q 2047 -91 1331 -91 
Q 1053 -91 747 -37 
Q 441 16 72 128 
L 184 722 
Q 500 559 806 475 
Q 1113 391 1394 391 
Q 1816 391 2080 572 
Q 2344 753 2344 1031 
Q 2344 1331 1650 1516 
L 1591 1531 
L 1394 1581 
Q 956 1697 753 1886 
Q 550 2075 550 2369 
Q 550 2928 970 3256 
Q 1391 3584 2113 3584 
Q 2397 3584 2667 3537 
Q 2938 3491 3200 3397 
z
" transform="scale(0.015625)"/>
       <path id="DejaVuSans-2212" d="M 678 2272 
L 4684 2272 
L 4684 1741 
L 678 1741 
L 678 2272 
z
" transform="scale(0.015625)"/>
       <path id="DejaVuSans-Oblique-74" d="M 2706 3500 
L 2619 3053 
L 1472 3053 
L 1100 1153 
Q 1081 1047 1072 975 
Q 1063 903 1063 863 
Q 1063 663 1183 572 
Q 1303 481 1569 481 
L 2150 481 
L 2053 0 
L 1503 0 
Q 991 0 739 200 
Q 488 400 488 806 
Q 488 878 497 964 
Q 506 1050 525 1153 
L 897 3053 
L 409 3053 
L 500 3500 
L 978 3500 
L 1172 4494 
L 1747 4494 
L 1556 3500 
L 2706 3500 
z
" transform="scale(0.015625)"/>
      </defs>
      <use xlink:href="#DejaVuSans-Oblique-3c4" transform="translate(0 0.578125)"/>
      <use xlink:href="#DejaVuSans-3d" transform="translate(79.6875 0.578125)"/>
      <use xlink:href="#DejaVuSans-2016" transform="translate(182.958984 0.578125)"/>
      <use xlink:href="#DejaVuSans-Oblique-73" transform="translate(232.958984 0.578125)"/>
      <use xlink:href="#DejaVuSans-2212" transform="translate(304.541016 0.578125)"/>
      <use xlink:href="#DejaVuSans-Oblique-74" transform="translate(407.8125 0.578125)"/>
      <use xlink:href="#DejaVuSans-2016" transform="translate(447.021484 0.578125)"/>
     </g>
    </g>
   </g>
   <g id="matplotlib.axis_2">
    <g id="ytick_1">
     <g id="line2d_13">
      <path d="M 108 246.24 
L 412.363636 246.24 
" clip-path="url(#pcf6cfc6e17)" style="fill: none; stroke: #b0b0b0; stroke-width: 0.8; stroke-linecap: square"/>
     </g>
     <g id="line2d_14">
      <defs>
       <path id="md548d4c43d" d="M 0 0 
L -3.5 0 
" style="stroke: #000000; stroke-width: 0.8"/>
      </defs>
      <g>
       <use xlink:href="#md548d4c43d" x="108" y="246.24" style="stroke: #000000; stroke-width: 0.8"/>
      </g>
     </g>
     <g id="text_8">
      <!-- 0.0 -->
      <g transform="translate(85.096875 250.039219) scale(0.1 -0.1)">
       <defs>
        <path id="DejaVuSans-2e" d="M 684 794 
L 1344 794 
L 1344 0 
L 684 0 
L 684 794 
z
" transform="scale(0.015625)"/>
       </defs>
       <use xlink:href="#DejaVuSans-30"/>
       <use xlink:href="#DejaVuSans-2e" transform="translate(63.623047 0)"/>
       <use xlink:href="#DejaVuSans-30" transform="translate(95.410156 0)"/>
      </g>
     </g>
    </g>
    <g id="ytick_2">
     <g id="line2d_15">
      <path d="M 108 205.92 
L 412.363636 205.92 
" clip-path="url(#pcf6cfc6e17)" style="fill: none; stroke: #b0b0b0; stroke-width: 0.8; stroke-linecap: square"/>
     </g>
     <g id="line2d_16">
      <g>
       <use xlink:href="#md548d4c43d" x="108" y="205.92" style="stroke: #000000; stroke-width: 0.8"/>
      </g>
     </g>
     <g id="text_9">
      <!-- 0.2 -->
      <g transform="translate(85.096875 209.719219) scale(0.1 -0.1)">
       <use xlink:href="#DejaVuSans-30"/>
       <use xlink:href="#DejaVuSans-2e" transform="translate(63.623047 0)"/>
       <use xlink:href="#DejaVuSans-32" transform="translate(95.410156 0)"/>
      </g>
     </g>
    </g>
    <g id="ytick_3">
     <g id="line2d_17">
      <path d="M 108 165.6 
L 412.363636 165.6 
" clip-path="url(#pcf6cfc6e17)" style="fill: none; stroke: #b0b0b0; stroke-width: 0.8; stroke-linecap: square"/>
     </g>
     <g id="line2d_18">
      <g>
       <use xlink:href="#md548d4c43d" x="108" y="165.6" style="stroke: #000000; stroke-width: 0.8"/>
      </g>
     </g>
     <g id="text_10">
      <!-- 0.4 -->
      <g transform="translate(85.096875 169.399219) scale(0.1 -0.1)">
       <use xlink:href="#DejaVuSans-30"/>
       <use xlink:href="#DejaVuSans-2e" transform="translate(63.623047 0)"/>
       <use xlink:href="#DejaVuSans-34" transform="translate(95.410156 0)"/>
      </g>
     </g>
    </g>
    <g id="ytick_4">
     <g id="line2d_19">
      <path d="M 108 125.28 
L 412.363636 125.28 
" clip-path="url(#pcf6cfc6e17)" style="fill: none; stroke: #b0b0b0; stroke-width: 0.8; stroke-linecap: square"/>
     </g>
     <g id="line2d_20">
      <g>
       <use xlink:href="#md548d4c43d" x="108" y="125.28" style="stroke: #000000; stroke-width: 0.8"/>
      </g>
     </g>
     <g id="text_11">
      <!-- 0.6 -->
      <g transform="translate(85.096875 129.079219) scale(0.1 -0.1)">
       <defs>
        <path id="DejaVuSans-36" d="M 2113 2584 
Q 1688 2584 1439 2293 
Q 1191 2003 1191 1497 
Q 1191 994 1439 701 
Q 1688 409 2113 409 
Q 2538 409 2786 701 
Q 3034 994 3034 1497 
Q 3034 2003 2786 2293 
Q 2538 2584 2113 2584 
z
M 3366 4563 
L 3366 3988 
Q 3128 4100 2886 4159 
Q 2644 4219 2406 4219 
Q 1781 4219 1451 3797 
Q 1122 3375 1075 2522 
Q 1259 2794 1537 2939 
Q 1816 3084 2150 3084 
Q 2853 3084 3261 2657 
Q 3669 2231 3669 1497 
Q 3669 778 3244 343 
Q 2819 -91 2113 -91 
Q 1303 -91 875 529 
Q 447 1150 447 2328 
Q 447 3434 972 4092 
Q 1497 4750 2381 4750 
Q 2619 4750 2861 4703 
Q 3103 4656 3366 4563 
z
" transform="scale(0.015625)"/>
       </defs>
       <use xlink:href="#DejaVuSans-30"/>
       <use xlink:href="#DejaVuSans-2e" transform="translate(63.623047 0)"/>
       <use xlink:href="#DejaVuSans-36" transform="translate(95.410156 0)"/>
      </g>
     </g>
    </g>
    <g id="ytick_5">
     <g id="line2d_21">
      <path d="M 108 84.96 
L 412.363636 84.96 
" clip-path="url(#pcf6cfc6e17)" style="fill: none; stroke: #b0b0b0; stroke-width: 0.8; stroke-linecap: square"/>
     </g>
     <g id="line2d_22">
      <g>
       <use xlink:href="#md548d4c43d" x="108" y="84.96" style="stroke: #000000; stroke-width: 0.8"/>
      </g>
     </g>
     <g id="text_12">
      <!-- 0.8 -->
      <g transform="translate(85.096875 88.759219) scale(0.1 -0.1)">
       <defs>
        <path id="DejaVuSans-38" d="M 2034 2216 
Q 1584 2216 1326 1975 
Q 1069 1734 1069 1313 
Q 1069 891 1326 650 
Q 1584 409 2034 409 
Q 2484 409 2743 651 
Q 3003 894 3003 1313 
Q 3003 1734 2745 1975 
Q 2488 2216 2034 2216 
z
M 1403 2484 
Q 997 2584 770 2862 
Q 544 3141 544 3541 
Q 544 4100 942 4425 
Q 1341 4750 2034 4750 
Q 2731 4750 3128 4425 
Q 3525 4100 3525 3541 
Q 3525 3141 3298 2862 
Q 3072 2584 2669 2484 
Q 3125 2378 3379 2068 
Q 3634 1759 3634 1313 
Q 3634 634 3220 271 
Q 2806 -91 2034 -91 
Q 1263 -91 848 271 
Q 434 634 434 1313 
Q 434 1759 690 2068 
Q 947 2378 1403 2484 
z
M 1172 3481 
Q 1172 3119 1398 2916 
Q 1625 2713 2034 2713 
Q 2441 2713 2670 2916 
Q 2900 3119 2900 3481 
Q 2900 3844 2670 4047 
Q 2441 4250 2034 4250 
Q 1625 4250 1398 4047 
Q 1172 3844 1172 3481 
z
" transform="scale(0.015625)"/>
       </defs>
       <use xlink:href="#DejaVuSans-30"/>
       <use xlink:href="#DejaVuSans-2e" transform="translate(63.623047 0)"/>
       <use xlink:href="#DejaVuSans-38" transform="translate(95.410156 0)"/>
      </g>
     </g>
    </g>
    <g id="ytick_6">
     <g id="line2d_23">
      <path d="M 108 44.64 
L 412.363636 44.64 
" clip-path="url(#pcf6cfc6e17)" style="fill: none; stroke: #b0b0b0; stroke-width: 0.8; stroke-linecap: square"/>
     </g>
     <g id="line2d_24">
      <g>
       <use xlink:href="#md548d4c43d" x="108" y="44.64" style="stroke: #000000; stroke-width: 0.8"/>
      </g>
     </g>
     <g id="text_13">
      <!-- 1.0 -->
      <g transform="translate(85.096875 48.439219) scale(0.1 -0.1)">
       <use xlink:href="#DejaVuSans-31"/>
       <use xlink:href="#DejaVuSans-2e" transform="translate(63.623047 0)"/>
       <use xlink:href="#DejaVuSans-30" transform="translate(95.410156 0)"/>
      </g>
     </g>
    </g>
    <g id="text_14">
     <!-- $C(\tau)$ -->
     <g transform="translate(79.017187 155.89) rotate(-90) scale(0.1 -0.1)">
      <defs>
       <path id="DejaVuSans-Oblique-43" d="M 4447 4306 
L 4319 3641 
Q 4019 3944 3683 4091 
Q 3347 4238 2956 4238 
Q 2422 4238 2017 3981 
Q 1613 3725 1319 3200 
Q 1131 2863 1032 2486 
Q 934 2109 934 1728 
Q 934 1091 1264 756 
Q 1594 422 2222 422 
Q 2656 422 3056 561 
Q 3456 700 3834 978 
L 3688 231 
Q 3316 72 2936 -9 
Q 2556 -91 2175 -91 
Q 1278 -91 773 396 
Q 269 884 269 1753 
Q 269 2309 461 2846 
Q 653 3384 1013 3828 
Q 1394 4300 1883 4525 
Q 2372 4750 3022 4750 
Q 3422 4750 3780 4639 
Q 4138 4528 4447 4306 
z
" transform="scale(0.015625)"/>
       <path id="DejaVuSans-28" d="M 1984 4856 
Q 1566 4138 1362 3434 
Q 1159 2731 1159 2009 
Q 1159 1288 1364 580 
Q 1569 -128 1984 -844 
L 1484 -844 
Q 1016 -109 783 600 
Q 550 1309 550 2009 
Q 550 2706 781 3412 
Q 1013 4119 1484 4856 
L 1984 4856 
z
" transform="scale(0.015625)"/>
       <path id="DejaVuSans-29" d="M 513 4856 
L 1013 4856 
Q 1481 4119 1714 3412 
Q 1947 2706 1947 2009 
Q 1947 1309 1714 600 
Q 1481 -109 1013 -844 
L 513 -844 
Q 928 -128 1133 580 
Q 1338 1288 1338 2009 
Q 1338 2731 1133 3434 
Q 928 4138 513 4856 
z
" transform="scale(0.015625)"/>
      </defs>
      <use xlink:href="#DejaVuSans-Oblique-43" transform="translate(0 0.125)"/>
      <use xlink:href="#DejaVuSans-28" transform="translate(69.824219 0.125)"/>
      <use xlink:href="#DejaVuSans-Oblique-3c4" transform="translate(108.837891 0.125)"/>
      <use xlink:href="#DejaVuSans-29" transform="translate(169.042969 0.125)"/>
     </g>
    </g>
   </g>
   <g id="line2d_25">
    <path d="M 398.528926 232.126418 
L 363.942149 230.83885 
L 335.840393 229.587521 
L 309.90031 228.213794 
L 288.283574 226.856619 
L 268.828512 225.416769 
L 251.535124 223.908322 
L 236.403409 222.356292 
L 223.433368 220.800234 
L 212.625 219.297382 
L 201.816632 217.551858 
L 193.169938 215.930439 
L 184.523244 214.048788 
L 178.038223 212.418386 
L 171.553202 210.545844 
L 167.229855 209.128851 
L 162.906508 207.543986 
L 158.583161 205.75222 
L 154.259814 203.699648 
L 149.936467 201.308933 
L 147.774793 199.952587 
L 145.61312 198.463594 
L 143.451446 196.816193 
L 141.289773 194.976493 
L 139.128099 192.898664 
L 136.966426 190.518623 
L 134.804752 187.742879 
L 132.643079 184.42732 
L 130.481405 180.332546 
L 128.319731 175.015442 
L 126.158058 167.501301 
L 123.996384 154.796973 
L 121.834711 44.64 
L 121.834711 44.64 
" clip-path="url(#pcf6cfc6e17)" style="fill: none; stroke: #00ff00; stroke-width: 2; stroke-linecap: square"/>
   </g>
   <g id="line2d_26">
    <path d="M 398.528926 246.24 
L 165.068182 246.158424 
L 158.583161 245.976668 
L 154.259814 245.66483 
L 152.09814 245.389954 
L 149.936467 244.983713 
L 147.774793 244.383328 
L 145.61312 243.496017 
L 143.451446 242.184656 
L 141.289773 240.24659 
L 139.128099 237.382314 
L 136.966426 233.149189 
L 134.804752 226.893035 
L 132.643079 217.64704 
L 130.481405 203.982344 
L 128.319731 183.787233 
L 126.158058 153.940794 
L 123.996384 109.830617 
L 121.834711 44.64 
L 121.834711 44.64 
" clip-path="url(#pcf6cfc6e17)" style="fill: none; stroke: #ffa500; stroke-width: 2; stroke-linecap: square"/>
   </g>
   <g id="line2d_27">
    <path d="M 398.528926 246.24 
L 139.128099 246.22843 
L 136.966426 246.125882 
L 134.804752 245.410456 
L 132.643079 241.795852 
L 130.481405 228.693065 
L 128.319731 195.180352 
L 126.158058 136.738968 
L 123.996384 73.169739 
L 121.834711 44.64 
L 121.834711 44.64 
" clip-path="url(#pcf6cfc6e17)" style="fill: none; stroke: #0000ff; stroke-width: 2; stroke-linecap: square"/>
   </g>
   <g id="patch_3">
    <path d="M 108 256.32 
L 108 34.56 
" style="fill: none; stroke: #000000; stroke-width: 0.8; stroke-linejoin: miter; stroke-linecap: square"/>
   </g>
   <g id="patch_4">
    <path d="M 412.363636 256.32 
L 412.363636 34.56 
" style="fill: none; stroke: #000000; stroke-width: 0.8; stroke-linejoin: miter; stroke-linecap: square"/>
   </g>
   <g id="patch_5">
    <path d="M 108 256.32 
L 412.363636 256.32 
" style="fill: none; stroke: #000000; stroke-width: 0.8; stroke-linejoin: miter; stroke-linecap: square"/>
   </g>
   <g id="patch_6">
    <path d="M 108 34.56 
L 412.363636 34.56 
" style="fill: none; stroke: #000000; stroke-width: 0.8; stroke-linejoin: miter; stroke-linecap: square"/>
   </g>
   <g id="legend_1">
    <g id="patch_7">
     <path d="M 334.963636 88.655313 
L 407.363636 88.655313 
Q 409.363636 88.655313 409.363636 86.655313 
L 409.363636 43.56 
Q 409.363636 41.56 407.363636 41.56 
L 334.963636 41.56 
Q 332.963636 41.56 332.963636 43.56 
L 332.963636 86.655313 
Q 332.963636 88.655313 334.963636 88.655313 
z
" style="fill: #4d4d4d; opacity: 0.5; stroke: #4d4d4d; stroke-linejoin: miter"/>
    </g>
    <g id="patch_8">
     <path d="M 332.963636 86.655313 
L 405.363636 86.655313 
Q 407.363636 86.655313 407.363636 84.655313 
L 407.363636 41.56 
Q 407.363636 39.56 405.363636 39.56 
L 332.963636 39.56 
Q 330.963636 39.56 330.963636 41.56 
L 330.963636 84.655313 
Q 330.963636 86.655313 332.963636 86.655313 
z
" style="fill: #ffffff; stroke: #cccccc; stroke-linejoin: miter"/>
    </g>
    <g id="line2d_28">
     <path d="M 334.963636 47.658438 
L 344.963636 47.658438 
L 354.963636 47.658438 
" style="fill: none; stroke: #00ff00; stroke-width: 2; stroke-linecap: square"/>
    </g>
    <g id="text_15">
     <!-- $p = 0.25$ -->
     <g transform="translate(362.963636 51.158438) scale(0.1 -0.1)">
      <defs>
       <path id="DejaVuSans-Oblique-70" d="M 3175 2156 
Q 3175 2616 2975 2859 
Q 2775 3103 2400 3103 
Q 2144 3103 1911 2972 
Q 1678 2841 1497 2591 
Q 1319 2344 1212 1994 
Q 1106 1644 1106 1300 
Q 1106 863 1306 627 
Q 1506 391 1875 391 
Q 2147 391 2380 519 
Q 2613 647 2778 891 
Q 2956 1147 3065 1494 
Q 3175 1841 3175 2156 
z
M 1394 2969 
Q 1625 3272 1939 3428 
Q 2253 3584 2638 3584 
Q 3175 3584 3472 3232 
Q 3769 2881 3769 2247 
Q 3769 1728 3584 1258 
Q 3400 788 3053 416 
Q 2822 169 2531 39 
Q 2241 -91 1919 -91 
Q 1547 -91 1294 64 
Q 1041 219 916 525 
L 556 -1331 
L -19 -1331 
L 922 3500 
L 1497 3500 
L 1394 2969 
z
" transform="scale(0.015625)"/>
      </defs>
      <use xlink:href="#DejaVuSans-Oblique-70" transform="translate(0 0.78125)"/>
      <use xlink:href="#DejaVuSans-3d" transform="translate(82.958984 0.78125)"/>
      <use xlink:href="#DejaVuSans-30" transform="translate(186.230469 0.78125)"/>
      <use xlink:href="#DejaVuSans-2e" transform="translate(249.853516 0.78125)"/>
      <use xlink:href="#DejaVuSans-32" transform="translate(276.140625 0.78125)"/>
      <use xlink:href="#DejaVuSans-35" transform="translate(339.763672 0.78125)"/>
     </g>
    </g>
    <g id="line2d_29">
     <path d="M 334.963636 62.356875 
L 344.963636 62.356875 
L 354.963636 62.356875 
" style="fill: none; stroke: #ffa500; stroke-width: 2; stroke-linecap: square"/>
    </g>
    <g id="text_16">
     <!-- $p = 1$ -->
     <g transform="translate(362.963636 65.856875) scale(0.1 -0.1)">
      <use xlink:href="#DejaVuSans-Oblique-70" transform="translate(0 0.09375)"/>
      <use xlink:href="#DejaVuSans-3d" transform="translate(82.958984 0.09375)"/>
      <use xlink:href="#DejaVuSans-31" transform="translate(186.230469 0.09375)"/>
     </g>
    </g>
    <g id="line2d_30">
     <path d="M 334.963636 77.055313 
L 344.963636 77.055313 
L 354.963636 77.055313 
" style="fill: none; stroke: #0000ff; stroke-width: 2; stroke-linecap: square"/>
    </g>
    <g id="text_17">
     <!-- $p = 2$ -->
     <g transform="translate(362.963636 80.555313) scale(0.1 -0.1)">
      <use xlink:href="#DejaVuSans-Oblique-70" transform="translate(0 0.78125)"/>
      <use xlink:href="#DejaVuSans-3d" transform="translate(82.958984 0.78125)"/>
      <use xlink:href="#DejaVuSans-32" transform="translate(186.230469 0.78125)"/>
     </g>
    </g>
   </g>
  </g>
  <g id="axes_2">
   <g id="patch_9">
    <path d="M 473.236364 256.32 
L 777.6 256.32 
L 777.6 34.56 
L 473.236364 34.56 
z
" style="fill: #ffffff"/>
   </g>
   <g id="matplotlib.axis_3">
    <g id="xtick_7">
     <g id="line2d_31">
      <path d="M 487.071074 256.32 
L 487.071074 34.56 
" clip-path="url(#p412c97add0)" style="fill: none; stroke: #b0b0b0; stroke-width: 0.8; stroke-linecap: square"/>
     </g>
     <g id="line2d_32">
      <g>
       <use xlink:href="#m4c9de6cd0c" x="487.071074" y="256.32" style="stroke: #000000; stroke-width: 0.8"/>
      </g>
     </g>
     <g id="text_18">
      <!-- −1.00 -->
      <g transform="translate(471.748418 270.918437) scale(0.1 -0.1)">
       <use xlink:href="#DejaVuSans-2212"/>
       <use xlink:href="#DejaVuSans-31" transform="translate(83.789062 0)"/>
       <use xlink:href="#DejaVuSans-2e" transform="translate(147.412109 0)"/>
       <use xlink:href="#DejaVuSans-30" transform="translate(179.199219 0)"/>
       <use xlink:href="#DejaVuSans-30" transform="translate(242.822266 0)"/>
      </g>
     </g>
    </g>
    <g id="xtick_8">
     <g id="line2d_33">
      <path d="M 521.657851 256.32 
L 521.657851 34.56 
" clip-path="url(#p412c97add0)" style="fill: none; stroke: #b0b0b0; stroke-width: 0.8; stroke-linecap: square"/>
     </g>
     <g id="line2d_34">
      <g>
       <use xlink:href="#m4c9de6cd0c" x="521.657851" y="256.32" style="stroke: #000000; stroke-width: 0.8"/>
      </g>
     </g>
     <g id="text_19">
      <!-- −0.75 -->
      <g transform="translate(506.335195 270.918437) scale(0.1 -0.1)">
       <defs>
        <path id="DejaVuSans-37" d="M 525 4666 
L 3525 4666 
L 3525 4397 
L 1831 0 
L 1172 0 
L 2766 4134 
L 525 4134 
L 525 4666 
z
" transform="scale(0.015625)"/>
       </defs>
       <use xlink:href="#DejaVuSans-2212"/>
       <use xlink:href="#DejaVuSans-30" transform="translate(83.789062 0)"/>
       <use xlink:href="#DejaVuSans-2e" transform="translate(147.412109 0)"/>
       <use xlink:href="#DejaVuSans-37" transform="translate(179.199219 0)"/>
       <use xlink:href="#DejaVuSans-35" transform="translate(242.822266 0)"/>
      </g>
     </g>
    </g>
    <g id="xtick_9">
     <g id="line2d_35">
      <path d="M 556.244628 256.32 
L 556.244628 34.56 
" clip-path="url(#p412c97add0)" style="fill: none; stroke: #b0b0b0; stroke-width: 0.8; stroke-linecap: square"/>
     </g>
     <g id="line2d_36">
      <g>
       <use xlink:href="#m4c9de6cd0c" x="556.244628" y="256.32" style="stroke: #000000; stroke-width: 0.8"/>
      </g>
     </g>
     <g id="text_20">
      <!-- −0.50 -->
      <g transform="translate(540.921972 270.918437) scale(0.1 -0.1)">
       <use xlink:href="#DejaVuSans-2212"/>
       <use xlink:href="#DejaVuSans-30" transform="translate(83.789062 0)"/>
       <use xlink:href="#DejaVuSans-2e" transform="translate(147.412109 0)"/>
       <use xlink:href="#DejaVuSans-35" transform="translate(179.199219 0)"/>
       <use xlink:href="#DejaVuSans-30" transform="translate(242.822266 0)"/>
      </g>
     </g>
    </g>
    <g id="xtick_10">
     <g id="line2d_37">
      <path d="M 590.831405 256.32 
L 590.831405 34.56 
" clip-path="url(#p412c97add0)" style="fill: none; stroke: #b0b0b0; stroke-width: 0.8; stroke-linecap: square"/>
     </g>
     <g id="line2d_38">
      <g>
       <use xlink:href="#m4c9de6cd0c" x="590.831405" y="256.32" style="stroke: #000000; stroke-width: 0.8"/>
      </g>
     </g>
     <g id="text_21">
      <!-- −0.25 -->
      <g transform="translate(575.508749 270.918437) scale(0.1 -0.1)">
       <use xlink:href="#DejaVuSans-2212"/>
       <use xlink:href="#DejaVuSans-30" transform="translate(83.789062 0)"/>
       <use xlink:href="#DejaVuSans-2e" transform="translate(147.412109 0)"/>
       <use xlink:href="#DejaVuSans-32" transform="translate(179.199219 0)"/>
       <use xlink:href="#DejaVuSans-35" transform="translate(242.822266 0)"/>
      </g>
     </g>
    </g>
    <g id="xtick_11">
     <g id="line2d_39">
      <path d="M 625.418182 256.32 
L 625.418182 34.56 
" clip-path="url(#p412c97add0)" style="fill: none; stroke: #b0b0b0; stroke-width: 0.8; stroke-linecap: square"/>
     </g>
     <g id="line2d_40">
      <g>
       <use xlink:href="#m4c9de6cd0c" x="625.418182" y="256.32" style="stroke: #000000; stroke-width: 0.8"/>
      </g>
     </g>
     <g id="text_22">
      <!-- 0.00 -->
      <g transform="translate(614.285369 270.918437) scale(0.1 -0.1)">
       <use xlink:href="#DejaVuSans-30"/>
       <use xlink:href="#DejaVuSans-2e" transform="translate(63.623047 0)"/>
       <use xlink:href="#DejaVuSans-30" transform="translate(95.410156 0)"/>
       <use xlink:href="#DejaVuSans-30" transform="translate(159.033203 0)"/>
      </g>
     </g>
    </g>
    <g id="xtick_12">
     <g id="line2d_41">
      <path d="M 660.004959 256.32 
L 660.004959 34.56 
" clip-path="url(#p412c97add0)" style="fill: none; stroke: #b0b0b0; stroke-width: 0.8; stroke-linecap: square"/>
     </g>
     <g id="line2d_42">
      <g>
       <use xlink:href="#m4c9de6cd0c" x="660.004959" y="256.32" style="stroke: #000000; stroke-width: 0.8"/>
      </g>
     </g>
     <g id="text_23">
      <!-- 0.25 -->
      <g transform="translate(648.872146 270.918437) scale(0.1 -0.1)">
       <use xlink:href="#DejaVuSans-30"/>
       <use xlink:href="#DejaVuSans-2e" transform="translate(63.623047 0)"/>
       <use xlink:href="#DejaVuSans-32" transform="translate(95.410156 0)"/>
       <use xlink:href="#DejaVuSans-35" transform="translate(159.033203 0)"/>
      </g>
     </g>
    </g>
    <g id="xtick_13">
     <g id="line2d_43">
      <path d="M 694.591736 256.32 
L 694.591736 34.56 
" clip-path="url(#p412c97add0)" style="fill: none; stroke: #b0b0b0; stroke-width: 0.8; stroke-linecap: square"/>
     </g>
     <g id="line2d_44">
      <g>
       <use xlink:href="#m4c9de6cd0c" x="694.591736" y="256.32" style="stroke: #000000; stroke-width: 0.8"/>
      </g>
     </g>
     <g id="text_24">
      <!-- 0.50 -->
      <g transform="translate(683.458923 270.918437) scale(0.1 -0.1)">
       <use xlink:href="#DejaVuSans-30"/>
       <use xlink:href="#DejaVuSans-2e" transform="translate(63.623047 0)"/>
       <use xlink:href="#DejaVuSans-35" transform="translate(95.410156 0)"/>
       <use xlink:href="#DejaVuSans-30" transform="translate(159.033203 0)"/>
      </g>
     </g>
    </g>
    <g id="xtick_14">
     <g id="line2d_45">
      <path d="M 729.178512 256.32 
L 729.178512 34.56 
" clip-path="url(#p412c97add0)" style="fill: none; stroke: #b0b0b0; stroke-width: 0.8; stroke-linecap: square"/>
     </g>
     <g id="line2d_46">
      <g>
       <use xlink:href="#m4c9de6cd0c" x="729.178512" y="256.32" style="stroke: #000000; stroke-width: 0.8"/>
      </g>
     </g>
     <g id="text_25">
      <!-- 0.75 -->
      <g transform="translate(718.0457 270.918437) scale(0.1 -0.1)">
       <use xlink:href="#DejaVuSans-30"/>
       <use xlink:href="#DejaVuSans-2e" transform="translate(63.623047 0)"/>
       <use xlink:href="#DejaVuSans-37" transform="translate(95.410156 0)"/>
       <use xlink:href="#DejaVuSans-35" transform="translate(159.033203 0)"/>
      </g>
     </g>
    </g>
    <g id="xtick_15">
     <g id="line2d_47">
      <path d="M 763.765289 256.32 
L 763.765289 34.56 
" clip-path="url(#p412c97add0)" style="fill: none; stroke: #b0b0b0; stroke-width: 0.8; stroke-linecap: square"/>
     </g>
     <g id="line2d_48">
      <g>
       <use xlink:href="#m4c9de6cd0c" x="763.765289" y="256.32" style="stroke: #000000; stroke-width: 0.8"/>
      </g>
     </g>
     <g id="text_26">
      <!-- 1.00 -->
      <g transform="translate(752.632477 270.918437) scale(0.1 -0.1)">
       <use xlink:href="#DejaVuSans-31"/>
       <use xlink:href="#DejaVuSans-2e" transform="translate(63.623047 0)"/>
       <use xlink:href="#DejaVuSans-30" transform="translate(95.410156 0)"/>
       <use xlink:href="#DejaVuSans-30" transform="translate(159.033203 0)"/>
      </g>
     </g>
    </g>
    <g id="text_27">
     <!-- $x$ -->
     <g transform="translate(622.418182 284.596563) scale(0.1 -0.1)">
      <defs>
       <path id="DejaVuSans-Oblique-78" d="M 3841 3500 
L 2234 1784 
L 3219 0 
L 2559 0 
L 1819 1388 
L 531 0 
L -166 0 
L 1556 1844 
L 641 3500 
L 1300 3500 
L 1972 2234 
L 3144 3500 
L 3841 3500 
z
" transform="scale(0.015625)"/>
      </defs>
      <use xlink:href="#DejaVuSans-Oblique-78" transform="translate(0 0.3125)"/>
     </g>
    </g>
   </g>
   <g id="matplotlib.axis_4">
    <g id="ytick_7">
     <g id="line2d_49">
      <path d="M 473.236364 233.507691 
L 777.6 233.507691 
" clip-path="url(#p412c97add0)" style="fill: none; stroke: #b0b0b0; stroke-width: 0.8; stroke-linecap: square"/>
     </g>
     <g id="line2d_50">
      <g>
       <use xlink:href="#md548d4c43d" x="473.236364" y="233.507691" style="stroke: #000000; stroke-width: 0.8"/>
      </g>
     </g>
     <g id="text_28">
      <!-- −2 -->
      <g transform="translate(451.494176 237.306909) scale(0.1 -0.1)">
       <use xlink:href="#DejaVuSans-2212"/>
       <use xlink:href="#DejaVuSans-32" transform="translate(83.789062 0)"/>
      </g>
     </g>
    </g>
    <g id="ytick_8">
     <g id="line2d_51">
      <path d="M 473.236364 191.851852 
L 777.6 191.851852 
" clip-path="url(#p412c97add0)" style="fill: none; stroke: #b0b0b0; stroke-width: 0.8; stroke-linecap: square"/>
     </g>
     <g id="line2d_52">
      <g>
       <use xlink:href="#md548d4c43d" x="473.236364" y="191.851852" style="stroke: #000000; stroke-width: 0.8"/>
      </g>
     </g>
     <g id="text_29">
      <!-- −1 -->
      <g transform="translate(451.494176 195.651071) scale(0.1 -0.1)">
       <use xlink:href="#DejaVuSans-2212"/>
       <use xlink:href="#DejaVuSans-31" transform="translate(83.789062 0)"/>
      </g>
     </g>
    </g>
    <g id="ytick_9">
     <g id="line2d_53">
      <path d="M 473.236364 150.196013 
L 777.6 150.196013 
" clip-path="url(#p412c97add0)" style="fill: none; stroke: #b0b0b0; stroke-width: 0.8; stroke-linecap: square"/>
     </g>
     <g id="line2d_54">
      <g>
       <use xlink:href="#md548d4c43d" x="473.236364" y="150.196013" style="stroke: #000000; stroke-width: 0.8"/>
      </g>
     </g>
     <g id="text_30">
      <!-- 0 -->
      <g transform="translate(459.873864 153.995232) scale(0.1 -0.1)">
       <use xlink:href="#DejaVuSans-30"/>
      </g>
     </g>
    </g>
    <g id="ytick_10">
     <g id="line2d_55">
      <path d="M 473.236364 108.540175 
L 777.6 108.540175 
" clip-path="url(#p412c97add0)" style="fill: none; stroke: #b0b0b0; stroke-width: 0.8; stroke-linecap: square"/>
     </g>
     <g id="line2d_56">
      <g>
       <use xlink:href="#md548d4c43d" x="473.236364" y="108.540175" style="stroke: #000000; stroke-width: 0.8"/>
      </g>
     </g>
     <g id="text_31">
      <!-- 1 -->
      <g transform="translate(459.873864 112.339393) scale(0.1 -0.1)">
       <use xlink:href="#DejaVuSans-31"/>
      </g>
     </g>
    </g>
    <g id="ytick_11">
     <g id="line2d_57">
      <path d="M 473.236364 66.884336 
L 777.6 66.884336 
" clip-path="url(#p412c97add0)" style="fill: none; stroke: #b0b0b0; stroke-width: 0.8; stroke-linecap: square"/>
     </g>
     <g id="line2d_58">
      <g>
       <use xlink:href="#md548d4c43d" x="473.236364" y="66.884336" style="stroke: #000000; stroke-width: 0.8"/>
      </g>
     </g>
     <g id="text_32">
      <!-- 2 -->
      <g transform="translate(459.873864 70.683555) scale(0.1 -0.1)">
       <use xlink:href="#DejaVuSans-32"/>
      </g>
     </g>
    </g>
    <g id="text_33">
     <!-- $GP_{\nu}(x)$ -->
     <g transform="translate(445.414489 161.29) rotate(-90) scale(0.1 -0.1)">
      <defs>
       <path id="DejaVuSans-Oblique-47" d="M 3494 697 
L 3738 1919 
L 2700 1919 
L 2797 2438 
L 4453 2438 
L 4050 384 
Q 3634 156 3143 32 
Q 2653 -91 2156 -91 
Q 1278 -91 783 396 
Q 288 884 288 1753 
Q 288 2475 589 3126 
Q 891 3778 1422 4213 
Q 1756 4484 2153 4617 
Q 2550 4750 3034 4750 
Q 3472 4750 3873 4639 
Q 4275 4528 4641 4306 
L 4513 3634 
Q 4231 3928 3853 4083 
Q 3475 4238 3047 4238 
Q 2550 4238 2172 4048 
Q 1794 3859 1497 3463 
Q 1244 3125 1098 2667 
Q 953 2209 953 1734 
Q 953 1081 1287 751 
Q 1622 422 2284 422 
Q 2616 422 2925 492 
Q 3234 563 3494 697 
z
" transform="scale(0.015625)"/>
       <path id="DejaVuSans-Oblique-50" d="M 1081 4666 
L 2541 4666 
Q 3178 4666 3512 4369 
Q 3847 4072 3847 3500 
Q 3847 2731 3353 2303 
Q 2859 1875 1966 1875 
L 1172 1875 
L 806 0 
L 172 0 
L 1081 4666 
z
M 1613 4147 
L 1275 2394 
L 2069 2394 
Q 2606 2394 2893 2669 
Q 3181 2944 3181 3456 
Q 3181 3784 2986 3965 
Q 2791 4147 2438 4147 
L 1613 4147 
z
" transform="scale(0.015625)"/>
       <path id="DejaVuSans-Oblique-3bd" d="M 959 0 
L 572 3500 
L 1191 3500 
L 1522 563 
Q 1972 950 2391 1488 
Q 2706 1891 2788 2241 
Q 2825 2406 2809 2719 
Q 2794 3091 2544 3500 
L 3125 3500 
L 3125 3500 
Q 3288 3222 3353 2834 
Q 3416 2478 3369 2234 
Q 3250 1622 2719 1075 
Q 2025 363 1572 0 
L 959 0 
z
" transform="scale(0.015625)"/>
      </defs>
      <use xlink:href="#DejaVuSans-Oblique-47" transform="translate(0 0.125)"/>
      <use xlink:href="#DejaVuSans-Oblique-50" transform="translate(77.490234 0.125)"/>
      <use xlink:href="#DejaVuSans-Oblique-3bd" transform="translate(137.792969 -16.28125) scale(0.7)"/>
      <use xlink:href="#DejaVuSans-28" transform="translate(179.628906 0.125)"/>
      <use xlink:href="#DejaVuSans-Oblique-78" transform="translate(218.642578 0.125)"/>
      <use xlink:href="#DejaVuSans-29" transform="translate(277.822266 0.125)"/>
     </g>
    </g>
   </g>
   <g id="line2d_59">
    <path d="M 487.071074 124.860863 
L 488.454545 179.099245 
L 489.838017 169.463686 
L 491.221488 119.742123 
L 492.604959 214.028362 
L 493.98843 157.405247 
L 495.371901 172.710625 
L 496.755372 118.054165 
L 498.138843 121.999283 
L 499.522314 116.348606 
L 500.905785 151.035778 
L 502.289256 135.335548 
L 503.672727 214.414858 
L 505.056198 206.089736 
L 506.439669 215.653025 
L 507.82314 185.236369 
L 509.206612 146.438093 
L 510.590083 169.402032 
L 511.973554 183.876015 
L 513.357025 156.565835 
L 514.740496 154.192654 
L 516.123967 146.806647 
L 517.507438 189.651354 
L 518.890909 194.758181 
L 520.27438 159.053617 
L 521.657851 170.608628 
L 523.041322 156.012297 
L 524.424793 106.367847 
L 525.808264 143.34057 
L 527.191736 173.092709 
L 528.575207 180.576493 
L 529.958678 171.7964 
L 531.342149 221.427507 
L 532.72562 168.018141 
L 534.109091 129.012798 
L 535.492562 125.600658 
L 536.876033 125.77598 
L 538.259504 146.054683 
L 539.642975 130.836974 
L 541.026446 134.690787 
L 542.409917 130.481996 
L 543.793388 156.707789 
L 545.17686 160.217921 
L 546.560331 175.926313 
L 547.943802 150.824781 
L 549.327273 92.620499 
L 550.710744 156.980008 
L 552.094215 87.42549 
L 553.477686 127.311846 
L 554.861157 107.932544 
L 556.244628 105.335377 
L 557.628099 148.089994 
L 559.01157 129.597705 
L 560.395041 182.956621 
L 561.778512 129.882818 
L 563.161983 125.180283 
L 564.545455 82.624737 
L 565.928926 152.750378 
L 567.312397 124.246693 
L 568.695868 138.929724 
L 570.079339 83.588755 
L 571.46281 154.052679 
L 572.846281 146.542387 
L 574.229752 100.670031 
L 575.613223 151.863509 
L 576.996694 180.794215 
L 578.380165 147.416516 
L 579.763636 175.405278 
L 581.147107 126.223142 
L 582.530579 133.248599 
L 583.91405 156.563814 
L 585.297521 125.384836 
L 586.680992 85.743035 
L 588.064463 90.762936 
L 590.831405 180.580221 
L 592.214876 74.676611 
L 593.598347 98.085066 
L 594.981818 134.967671 
L 596.365289 147.558176 
L 597.74876 165.218348 
L 599.132231 126.792856 
L 600.515702 111.326589 
L 601.899174 152.991032 
L 603.282645 142.359416 
L 604.666116 108.122524 
L 607.433058 163.221239 
L 608.816529 205.69136 
L 610.2 181.851134 
L 612.966942 123.67224 
L 614.350413 124.388047 
L 615.733884 142.265465 
L 617.117355 168.962481 
L 618.500826 110.501811 
L 619.884298 144.641948 
L 621.267769 99.420517 
L 622.65124 62.106555 
L 624.034711 140.472229 
L 625.418182 174.769621 
L 626.801653 184.100977 
L 628.185124 146.445932 
L 629.568595 246.24 
L 630.952066 176.46536 
L 632.335537 209.37096 
L 633.719008 145.311599 
L 635.102479 187.039648 
L 636.48595 162.20105 
L 637.869421 131.174808 
L 639.252893 142.316578 
L 640.636364 166.070789 
L 642.019835 170.907568 
L 643.403306 149.429877 
L 644.786777 160.62147 
L 646.170248 61.465723 
L 647.553719 97.429734 
L 648.93719 104.669746 
L 650.320661 103.742576 
L 651.704132 170.032187 
L 653.087603 216.198461 
L 654.471074 141.567241 
L 655.854545 172.084054 
L 657.238017 180.460475 
L 658.621488 148.035194 
L 660.004959 169.368746 
L 661.38843 99.818397 
L 662.771901 132.307101 
L 664.155372 85.47821 
L 665.538843 142.48709 
L 666.922314 158.449153 
L 668.305785 159.748413 
L 669.689256 219.575227 
L 671.072727 187.662007 
L 672.456198 179.352911 
L 673.839669 224.855445 
L 675.22314 204.171601 
L 676.606612 181.412556 
L 677.990083 150.251601 
L 679.373554 212.704473 
L 680.757025 190.088596 
L 682.140496 139.23985 
L 683.523967 177.455778 
L 684.907438 228.351664 
L 686.290909 201.731388 
L 687.67438 165.034053 
L 689.057851 175.193436 
L 690.441322 150.891059 
L 691.824793 173.507302 
L 693.208264 153.292251 
L 694.591736 164.207779 
L 695.975207 164.999411 
L 697.358678 160.578581 
L 698.742149 174.61329 
L 700.12562 169.238608 
L 701.509091 162.691748 
L 702.892562 170.524279 
L 704.276033 150.763885 
L 705.659504 155.275875 
L 707.042975 147.07741 
L 708.426446 152.242404 
L 709.809917 158.875451 
L 711.193388 110.161948 
L 712.57686 104.495644 
L 713.960331 117.997136 
L 715.343802 154.625085 
L 716.727273 147.840679 
L 718.110744 191.770216 
L 719.494215 123.19361 
L 720.877686 117.22541 
L 722.261157 149.718436 
L 723.644628 126.616908 
L 726.41157 191.517382 
L 727.795041 176.655524 
L 729.178512 212.111198 
L 730.561983 160.206317 
L 731.945455 159.780616 
L 733.328926 165.769526 
L 734.712397 144.085258 
L 736.095868 175.254567 
L 737.479339 200.769034 
L 738.86281 200.948342 
L 740.246281 182.60537 
L 741.629752 161.772185 
L 743.013223 152.492977 
L 744.396694 210.936258 
L 745.780165 199.149412 
L 747.163636 159.733183 
L 748.547107 215.485534 
L 749.930579 184.635472 
L 751.31405 200.139055 
L 752.697521 194.60147 
L 754.080992 119.036368 
L 755.464463 124.837627 
L 756.847934 198.749104 
L 758.231405 196.46772 
L 759.614876 185.421828 
L 760.998347 163.239348 
L 762.381818 196.797507 
L 763.765289 150.693581 
L 763.765289 150.693581 
" clip-path="url(#p412c97add0)" style="fill: none; stroke: #00ff00; stroke-linecap: square"/>
   </g>
   <g id="line2d_60">
    <path d="M 487.071074 187.959777 
L 488.454545 200.625955 
L 489.838017 175.196871 
L 491.221488 167.46312 
L 492.604959 157.123778 
L 493.98843 148.032728 
L 495.371901 162.226479 
L 496.755372 172.954495 
L 498.138843 173.234929 
L 499.522314 188.272861 
L 500.905785 205.716001 
L 502.289256 175.102996 
L 503.672727 183.182937 
L 505.056198 210.764435 
L 506.439669 190.369101 
L 507.82314 132.843886 
L 509.206612 104.437462 
L 510.590083 138.024437 
L 511.973554 156.855374 
L 513.357025 142.51013 
L 514.740496 152.454586 
L 516.123967 152.863889 
L 517.507438 160.411144 
L 518.890909 164.038374 
L 520.27438 178.246896 
L 521.657851 220.622666 
L 524.424793 209.151259 
L 525.808264 192.913602 
L 527.191736 186.243744 
L 528.575207 196.03252 
L 529.958678 200.921249 
L 531.342149 185.594462 
L 532.72562 190.562121 
L 534.109091 225.243738 
L 535.492562 225.77459 
L 536.876033 213.833715 
L 538.259504 214.304186 
L 539.642975 187.835997 
L 541.026446 184.862901 
L 542.409917 173.386497 
L 543.793388 182.218498 
L 545.17686 207.991967 
L 546.560331 212.123969 
L 547.943802 211.01102 
L 549.327273 204.853363 
L 552.094215 171.328956 
L 553.477686 153.554806 
L 554.861157 126.981542 
L 556.244628 117.467641 
L 557.628099 95.594001 
L 559.01157 90.572339 
L 560.395041 62.668706 
L 561.778512 55.770323 
L 563.161983 80.848181 
L 565.928926 113.367203 
L 567.312397 92.954777 
L 568.695868 138.591616 
L 570.079339 132.189777 
L 572.846281 170.726597 
L 574.229752 166.802819 
L 575.613223 153.203931 
L 576.996694 171.628722 
L 578.380165 169.661785 
L 579.763636 157.827368 
L 581.147107 157.626396 
L 582.530579 155.674171 
L 583.91405 159.325432 
L 585.297521 181.340618 
L 586.680992 196.442687 
L 588.064463 222.392278 
L 589.447934 198.791749 
L 590.831405 203.78544 
L 592.214876 216.405246 
L 593.598347 235.015033 
L 594.981818 192.429493 
L 596.365289 174.584523 
L 597.74876 152.072477 
L 599.132231 139.281509 
L 600.515702 148.361083 
L 604.666116 116.565736 
L 606.049587 111.502881 
L 607.433058 122.41622 
L 608.816529 99.180674 
L 610.2 111.334652 
L 611.583471 105.288353 
L 612.966942 83.842304 
L 614.350413 95.960553 
L 615.733884 125.914889 
L 617.117355 105.149278 
L 618.500826 118.04225 
L 621.267769 134.251314 
L 622.65124 149.792939 
L 624.034711 118.981696 
L 625.418182 105.35299 
L 626.801653 87.005871 
L 628.185124 103.571763 
L 629.568595 108.416706 
L 630.952066 79.522442 
L 632.335537 79.930826 
L 633.719008 109.986346 
L 635.102479 135.006382 
L 636.48595 144.320729 
L 637.869421 159.532797 
L 639.252893 171.92475 
L 640.636364 162.159267 
L 642.019835 172.446028 
L 643.403306 180.258676 
L 644.786777 176.42828 
L 646.170248 174.933623 
L 647.553719 159.144442 
L 648.93719 170.054168 
L 650.320661 156.039768 
L 651.704132 145.001343 
L 653.087603 184.667896 
L 654.471074 195.203801 
L 655.854545 203.390166 
L 657.238017 199.333585 
L 658.621488 184.227396 
L 660.004959 167.88536 
L 661.38843 153.306188 
L 662.771901 173.992851 
L 664.155372 156.596556 
L 665.538843 137.68497 
L 666.922314 137.022798 
L 668.305785 129.133677 
L 669.689256 161.864534 
L 671.072727 154.205706 
L 672.456198 141.992866 
L 673.839669 151.868324 
L 675.22314 160.182279 
L 676.606612 136.838682 
L 677.990083 110.115413 
L 679.373554 80.408945 
L 680.757025 80.128045 
L 682.140496 82.614636 
L 683.523967 84.701641 
L 684.907438 80.795169 
L 686.290909 94.857964 
L 687.67438 90.311954 
L 689.057851 134.918686 
L 690.441322 128.90101 
L 691.824793 117.559394 
L 693.208264 129.753077 
L 694.591736 137.129471 
L 695.975207 159.850905 
L 697.358678 158.622104 
L 698.742149 178.482107 
L 700.12562 174.648365 
L 701.509091 159.594416 
L 702.892562 164.096318 
L 704.276033 169.714677 
L 705.659504 163.277722 
L 707.042975 188.472181 
L 708.426446 165.998084 
L 709.809917 157.844145 
L 711.193388 160.050937 
L 712.57686 152.766181 
L 713.960331 136.823784 
L 715.343802 107.274213 
L 716.727273 124.007484 
L 718.110744 96.235757 
L 719.494215 93.76877 
L 720.877686 104.061759 
L 722.261157 101.157586 
L 723.644628 99.254267 
L 725.028099 100.770369 
L 726.41157 80.065295 
L 727.795041 94.119264 
L 729.178512 101.634776 
L 730.561983 89.398822 
L 731.945455 102.475912 
L 733.328926 124.406344 
L 734.712397 116.854383 
L 736.095868 147.635109 
L 737.479339 136.796244 
L 738.86281 119.307939 
L 740.246281 135.895131 
L 741.629752 109.90175 
L 743.013223 107.089042 
L 744.396694 102.215297 
L 745.780165 99.336567 
L 747.163636 76.132042 
L 748.547107 83.010545 
L 749.930579 96.197056 
L 751.31405 98.432494 
L 752.697521 81.0811 
L 754.080992 87.548224 
L 755.464463 88.685877 
L 756.847934 97.266744 
L 758.231405 109.471626 
L 759.614876 76.240555 
L 760.998347 71.306269 
L 762.381818 85.609929 
L 763.765289 98.056377 
L 763.765289 98.056377 
" clip-path="url(#p412c97add0)" style="fill: none; stroke: #ffa500; stroke-linecap: square"/>
   </g>
   <g id="line2d_61">
    <path d="M 487.071074 204.569208 
L 488.454545 212.913145 
L 489.838017 219.656301 
L 491.221488 224.25169 
L 492.604959 226.342962 
L 493.98843 225.790531 
L 495.371901 222.664396 
L 496.755372 217.20799 
L 498.138843 209.783483 
L 499.522314 200.813745 
L 502.289256 179.930528 
L 507.82314 135.86388 
L 509.206612 125.856863 
L 510.590083 116.680125 
L 511.973554 108.530017 
L 513.357025 101.577597 
L 514.740496 95.944515 
L 516.123967 91.678093 
L 517.507438 88.729049 
L 518.890909 86.940814 
L 520.27438 86.050885 
L 521.657851 85.705582 
L 523.041322 85.488021 
L 524.424793 84.957508 
L 525.808264 83.699182 
L 527.191736 81.382157 
L 528.575207 77.819263 
L 529.958678 73.02022 
L 531.342149 67.225771 
L 534.109091 54.729937 
L 535.492562 49.464575 
L 536.876033 45.883747 
L 538.259504 44.64 
L 539.642975 46.164589 
L 541.026446 50.604519 
L 542.409917 57.807682 
L 543.793388 67.356543 
L 545.17686 78.638456 
L 550.710744 126.879337 
L 552.094215 136.756091 
L 553.477686 145.109034 
L 554.861157 151.943027 
L 556.244628 157.430558 
L 557.628099 161.863428 
L 559.01157 165.583677 
L 561.778512 172.08101 
L 564.545455 178.212841 
L 565.928926 180.972753 
L 567.312397 183.230759 
L 568.695868 184.72163 
L 570.079339 185.219108 
L 571.46281 184.589903 
L 572.846281 182.831719 
L 574.229752 180.093455 
L 578.380165 169.562556 
L 579.763636 166.901333 
L 581.147107 165.486121 
L 582.530579 165.673566 
L 583.91405 167.643413 
L 585.297521 171.365616 
L 586.680992 176.595926 
L 588.064463 182.905678 
L 590.831405 196.490609 
L 592.214876 202.588007 
L 593.598347 207.561966 
L 594.981818 211.094327 
L 596.365289 213.032255 
L 597.74876 213.371066 
L 599.132231 212.21385 
L 600.515702 209.723349 
L 601.899174 206.080121 
L 603.282645 201.46205 
L 604.666116 196.043492 
L 607.433058 183.574571 
L 611.583471 164.329872 
L 612.966942 158.692572 
L 614.350413 153.665792 
L 615.733884 149.244591 
L 617.117355 145.345274 
L 619.884298 138.642851 
L 621.267769 135.682658 
L 622.65124 133.002312 
L 624.034711 130.726558 
L 625.418182 129.04895 
L 626.801653 128.196273 
L 628.185124 128.386394 
L 629.568595 129.786331 
L 630.952066 132.48063 
L 632.335537 136.450122 
L 633.719008 141.566039 
L 635.102479 147.5976 
L 640.636364 174.101718 
L 642.019835 179.555922 
L 643.403306 183.975779 
L 644.786777 187.196334 
L 646.170248 189.120267 
L 647.553719 189.707325 
L 648.93719 188.964125 
L 650.320661 186.937595 
L 651.704132 183.715717 
L 653.087603 179.430092 
L 654.471074 174.258468 
L 657.238017 162.156878 
L 661.38843 143.076325 
L 664.155372 131.447522 
L 666.922314 120.933317 
L 668.305785 116.127874 
L 669.689256 111.745994 
L 671.072727 107.954433 
L 672.456198 104.944607 
L 673.839669 102.88325 
L 675.22314 101.868376 
L 676.606612 101.900638 
L 677.990083 102.884034 
L 679.373554 104.648714 
L 680.757025 106.986777 
L 683.523967 112.558806 
L 686.290909 118.200529 
L 687.67438 120.734033 
L 689.057851 122.962196 
L 690.441322 124.835153 
L 691.824793 126.3369 
L 693.208264 127.486285 
L 694.591736 128.331923 
L 695.975207 128.942241 
L 698.742149 129.761943 
L 701.509091 130.514111 
L 702.892562 131.021174 
L 704.276033 131.696029 
L 705.659504 132.597408 
L 707.042975 133.774997 
L 708.426446 135.257596 
L 709.809917 137.04042 
L 712.57686 141.286005 
L 716.727273 147.883808 
L 722.261157 155.900308 
L 723.644628 158.534122 
L 725.028099 161.727726 
L 726.41157 165.493225 
L 730.561983 178.013221 
L 731.945455 181.22879 
L 733.328926 183.213095 
L 734.712397 183.675705 
L 736.095868 182.550804 
L 737.479339 180.024923 
L 738.86281 176.505887 
L 741.629752 168.683293 
L 743.013223 165.406452 
L 744.396694 162.981819 
L 745.780165 161.457735 
L 747.163636 160.674319 
L 751.31405 159.530075 
L 752.697521 158.502565 
L 754.080992 156.848088 
L 755.464463 154.552829 
L 756.847934 151.686694 
L 758.231405 148.361655 
L 760.998347 140.727336 
L 762.381818 136.477621 
L 763.765289 131.846572 
L 763.765289 131.846572 
" clip-path="url(#p412c97add0)" style="fill: none; stroke: #0000ff; stroke-linecap: square"/>
   </g>
   <g id="patch_10">
    <path d="M 473.236364 256.32 
L 473.236364 34.56 
" style="fill: none; stroke: #000000; stroke-width: 0.8; stroke-linejoin: miter; stroke-linecap: square"/>
   </g>
   <g id="patch_11">
    <path d="M 777.6 256.32 
L 777.6 34.56 
" style="fill: none; stroke: #000000; stroke-width: 0.8; stroke-linejoin: miter; stroke-linecap: square"/>
   </g>
   <g id="patch_12">
    <path d="M 473.236364 256.32 
L 777.6 256.32 
" style="fill: none; stroke: #000000; stroke-width: 0.8; stroke-linejoin: miter; stroke-linecap: square"/>
   </g>
   <g id="patch_13">
    <path d="M 473.236364 34.56 
L 777.6 34.56 
" style="fill: none; stroke: #000000; stroke-width: 0.8; stroke-linejoin: miter; stroke-linecap: square"/>
   </g>
   <g id="legend_2">
    <g id="patch_14">
     <path d="M 700.2 88.655313 
L 772.6 88.655313 
Q 774.6 88.655313 774.6 86.655313 
L 774.6 43.56 
Q 774.6 41.56 772.6 41.56 
L 700.2 41.56 
Q 698.2 41.56 698.2 43.56 
L 698.2 86.655313 
Q 698.2 88.655313 700.2 88.655313 
z
" style="fill: #4d4d4d; opacity: 0.5; stroke: #4d4d4d; stroke-linejoin: miter"/>
    </g>
    <g id="patch_15">
     <path d="M 698.2 86.655313 
L 770.6 86.655313 
Q 772.6 86.655313 772.6 84.655313 
L 772.6 41.56 
Q 772.6 39.56 770.6 39.56 
L 698.2 39.56 
Q 696.2 39.56 696.2 41.56 
L 696.2 84.655313 
Q 696.2 86.655313 698.2 86.655313 
z
" style="fill: #ffffff; stroke: #cccccc; stroke-linejoin: miter"/>
    </g>
    <g id="line2d_62">
     <path d="M 700.2 47.658438 
L 710.2 47.658438 
L 720.2 47.658438 
" style="fill: none; stroke: #00ff00; stroke-linecap: square"/>
    </g>
    <g id="text_34">
     <!-- $p = 0.25$ -->
     <g transform="translate(728.2 51.158438) scale(0.1 -0.1)">
      <use xlink:href="#DejaVuSans-Oblique-70" transform="translate(0 0.78125)"/>
      <use xlink:href="#DejaVuSans-3d" transform="translate(82.958984 0.78125)"/>
      <use xlink:href="#DejaVuSans-30" transform="translate(186.230469 0.78125)"/>
      <use xlink:href="#DejaVuSans-2e" transform="translate(249.853516 0.78125)"/>
      <use xlink:href="#DejaVuSans-32" transform="translate(276.140625 0.78125)"/>
      <use xlink:href="#DejaVuSans-35" transform="translate(339.763672 0.78125)"/>
     </g>
    </g>
    <g id="line2d_63">
     <path d="M 700.2 62.356875 
L 710.2 62.356875 
L 720.2 62.356875 
" style="fill: none; stroke: #ffa500; stroke-linecap: square"/>
    </g>
    <g id="text_35">
     <!-- $p = 1$ -->
     <g transform="translate(728.2 65.856875) scale(0.1 -0.1)">
      <use xlink:href="#DejaVuSans-Oblique-70" transform="translate(0 0.09375)"/>
      <use xlink:href="#DejaVuSans-3d" transform="translate(82.958984 0.09375)"/>
      <use xlink:href="#DejaVuSans-31" transform="translate(186.230469 0.09375)"/>
     </g>
    </g>
    <g id="line2d_64">
     <path d="M 700.2 77.055313 
L 710.2 77.055313 
L 720.2 77.055313 
" style="fill: none; stroke: #0000ff; stroke-linecap: square"/>
    </g>
    <g id="text_36">
     <!-- $p = 2$ -->
     <g transform="translate(728.2 80.555313) scale(0.1 -0.1)">
      <use xlink:href="#DejaVuSans-Oblique-70" transform="translate(0 0.78125)"/>
      <use xlink:href="#DejaVuSans-3d" transform="translate(82.958984 0.78125)"/>
      <use xlink:href="#DejaVuSans-32" transform="translate(186.230469 0.78125)"/>
     </g>
    </g>
   </g>
  </g>
  <g id="text_37">
   <!-- Generalized Exponential Model : influence of the p parameter -->
   <g transform="translate(246.61125 14.878125) scale(0.12 -0.12)">
    <defs>
     <path id="DejaVuSans-47" d="M 3809 666 
L 3809 1919 
L 2778 1919 
L 2778 2438 
L 4434 2438 
L 4434 434 
Q 4069 175 3628 42 
Q 3188 -91 2688 -91 
Q 1594 -91 976 548 
Q 359 1188 359 2328 
Q 359 3472 976 4111 
Q 1594 4750 2688 4750 
Q 3144 4750 3555 4637 
Q 3966 4525 4313 4306 
L 4313 3634 
Q 3963 3931 3569 4081 
Q 3175 4231 2741 4231 
Q 1884 4231 1454 3753 
Q 1025 3275 1025 2328 
Q 1025 1384 1454 906 
Q 1884 428 2741 428 
Q 3075 428 3337 486 
Q 3600 544 3809 666 
z
" transform="scale(0.015625)"/>
     <path id="DejaVuSans-65" d="M 3597 1894 
L 3597 1613 
L 953 1613 
Q 991 1019 1311 708 
Q 1631 397 2203 397 
Q 2534 397 2845 478 
Q 3156 559 3463 722 
L 3463 178 
Q 3153 47 2828 -22 
Q 2503 -91 2169 -91 
Q 1331 -91 842 396 
Q 353 884 353 1716 
Q 353 2575 817 3079 
Q 1281 3584 2069 3584 
Q 2775 3584 3186 3129 
Q 3597 2675 3597 1894 
z
M 3022 2063 
Q 3016 2534 2758 2815 
Q 2500 3097 2075 3097 
Q 1594 3097 1305 2825 
Q 1016 2553 972 2059 
L 3022 2063 
z
" transform="scale(0.015625)"/>
     <path id="DejaVuSans-6e" d="M 3513 2113 
L 3513 0 
L 2938 0 
L 2938 2094 
Q 2938 2591 2744 2837 
Q 2550 3084 2163 3084 
Q 1697 3084 1428 2787 
Q 1159 2491 1159 1978 
L 1159 0 
L 581 0 
L 581 3500 
L 1159 3500 
L 1159 2956 
Q 1366 3272 1645 3428 
Q 1925 3584 2291 3584 
Q 2894 3584 3203 3211 
Q 3513 2838 3513 2113 
z
" transform="scale(0.015625)"/>
     <path id="DejaVuSans-72" d="M 2631 2963 
Q 2534 3019 2420 3045 
Q 2306 3072 2169 3072 
Q 1681 3072 1420 2755 
Q 1159 2438 1159 1844 
L 1159 0 
L 581 0 
L 581 3500 
L 1159 3500 
L 1159 2956 
Q 1341 3275 1631 3429 
Q 1922 3584 2338 3584 
Q 2397 3584 2469 3576 
Q 2541 3569 2628 3553 
L 2631 2963 
z
" transform="scale(0.015625)"/>
     <path id="DejaVuSans-61" d="M 2194 1759 
Q 1497 1759 1228 1600 
Q 959 1441 959 1056 
Q 959 750 1161 570 
Q 1363 391 1709 391 
Q 2188 391 2477 730 
Q 2766 1069 2766 1631 
L 2766 1759 
L 2194 1759 
z
M 3341 1997 
L 3341 0 
L 2766 0 
L 2766 531 
Q 2569 213 2275 61 
Q 1981 -91 1556 -91 
Q 1019 -91 701 211 
Q 384 513 384 1019 
Q 384 1609 779 1909 
Q 1175 2209 1959 2209 
L 2766 2209 
L 2766 2266 
Q 2766 2663 2505 2880 
Q 2244 3097 1772 3097 
Q 1472 3097 1187 3025 
Q 903 2953 641 2809 
L 641 3341 
Q 956 3463 1253 3523 
Q 1550 3584 1831 3584 
Q 2591 3584 2966 3190 
Q 3341 2797 3341 1997 
z
" transform="scale(0.015625)"/>
     <path id="DejaVuSans-6c" d="M 603 4863 
L 1178 4863 
L 1178 0 
L 603 0 
L 603 4863 
z
" transform="scale(0.015625)"/>
     <path id="DejaVuSans-69" d="M 603 3500 
L 1178 3500 
L 1178 0 
L 603 0 
L 603 3500 
z
M 603 4863 
L 1178 4863 
L 1178 4134 
L 603 4134 
L 603 4863 
z
" transform="scale(0.015625)"/>
     <path id="DejaVuSans-7a" d="M 353 3500 
L 3084 3500 
L 3084 2975 
L 922 459 
L 3084 459 
L 3084 0 
L 275 0 
L 275 525 
L 2438 3041 
L 353 3041 
L 353 3500 
z
" transform="scale(0.015625)"/>
     <path id="DejaVuSans-64" d="M 2906 2969 
L 2906 4863 
L 3481 4863 
L 3481 0 
L 2906 0 
L 2906 525 
Q 2725 213 2448 61 
Q 2172 -91 1784 -91 
Q 1150 -91 751 415 
Q 353 922 353 1747 
Q 353 2572 751 3078 
Q 1150 3584 1784 3584 
Q 2172 3584 2448 3432 
Q 2725 3281 2906 2969 
z
M 947 1747 
Q 947 1113 1208 752 
Q 1469 391 1925 391 
Q 2381 391 2643 752 
Q 2906 1113 2906 1747 
Q 2906 2381 2643 2742 
Q 2381 3103 1925 3103 
Q 1469 3103 1208 2742 
Q 947 2381 947 1747 
z
" transform="scale(0.015625)"/>
     <path id="DejaVuSans-20" transform="scale(0.015625)"/>
     <path id="DejaVuSans-45" d="M 628 4666 
L 3578 4666 
L 3578 4134 
L 1259 4134 
L 1259 2753 
L 3481 2753 
L 3481 2222 
L 1259 2222 
L 1259 531 
L 3634 531 
L 3634 0 
L 628 0 
L 628 4666 
z
" transform="scale(0.015625)"/>
     <path id="DejaVuSans-78" d="M 3513 3500 
L 2247 1797 
L 3578 0 
L 2900 0 
L 1881 1375 
L 863 0 
L 184 0 
L 1544 1831 
L 300 3500 
L 978 3500 
L 1906 2253 
L 2834 3500 
L 3513 3500 
z
" transform="scale(0.015625)"/>
     <path id="DejaVuSans-70" d="M 1159 525 
L 1159 -1331 
L 581 -1331 
L 581 3500 
L 1159 3500 
L 1159 2969 
Q 1341 3281 1617 3432 
Q 1894 3584 2278 3584 
Q 2916 3584 3314 3078 
Q 3713 2572 3713 1747 
Q 3713 922 3314 415 
Q 2916 -91 2278 -91 
Q 1894 -91 1617 61 
Q 1341 213 1159 525 
z
M 3116 1747 
Q 3116 2381 2855 2742 
Q 2594 3103 2138 3103 
Q 1681 3103 1420 2742 
Q 1159 2381 1159 1747 
Q 1159 1113 1420 752 
Q 1681 391 2138 391 
Q 2594 391 2855 752 
Q 3116 1113 3116 1747 
z
" transform="scale(0.015625)"/>
     <path id="DejaVuSans-6f" d="M 1959 3097 
Q 1497 3097 1228 2736 
Q 959 2375 959 1747 
Q 959 1119 1226 758 
Q 1494 397 1959 397 
Q 2419 397 2687 759 
Q 2956 1122 2956 1747 
Q 2956 2369 2687 2733 
Q 2419 3097 1959 3097 
z
M 1959 3584 
Q 2709 3584 3137 3096 
Q 3566 2609 3566 1747 
Q 3566 888 3137 398 
Q 2709 -91 1959 -91 
Q 1206 -91 779 398 
Q 353 888 353 1747 
Q 353 2609 779 3096 
Q 1206 3584 1959 3584 
z
" transform="scale(0.015625)"/>
     <path id="DejaVuSans-74" d="M 1172 4494 
L 1172 3500 
L 2356 3500 
L 2356 3053 
L 1172 3053 
L 1172 1153 
Q 1172 725 1289 603 
Q 1406 481 1766 481 
L 2356 481 
L 2356 0 
L 1766 0 
Q 1100 0 847 248 
Q 594 497 594 1153 
L 594 3053 
L 172 3053 
L 172 3500 
L 594 3500 
L 594 4494 
L 1172 4494 
z
" transform="scale(0.015625)"/>
     <path id="DejaVuSans-4d" d="M 628 4666 
L 1569 4666 
L 2759 1491 
L 3956 4666 
L 4897 4666 
L 4897 0 
L 4281 0 
L 4281 4097 
L 3078 897 
L 2444 897 
L 1241 4097 
L 1241 0 
L 628 0 
L 628 4666 
z
" transform="scale(0.015625)"/>
     <path id="DejaVuSans-3a" d="M 750 794 
L 1409 794 
L 1409 0 
L 750 0 
L 750 794 
z
M 750 3309 
L 1409 3309 
L 1409 2516 
L 750 2516 
L 750 3309 
z
" transform="scale(0.015625)"/>
     <path id="DejaVuSans-66" d="M 2375 4863 
L 2375 4384 
L 1825 4384 
Q 1516 4384 1395 4259 
Q 1275 4134 1275 3809 
L 1275 3500 
L 2222 3500 
L 2222 3053 
L 1275 3053 
L 1275 0 
L 697 0 
L 697 3053 
L 147 3053 
L 147 3500 
L 697 3500 
L 697 3744 
Q 697 4328 969 4595 
Q 1241 4863 1831 4863 
L 2375 4863 
z
" transform="scale(0.015625)"/>
     <path id="DejaVuSans-75" d="M 544 1381 
L 544 3500 
L 1119 3500 
L 1119 1403 
Q 1119 906 1312 657 
Q 1506 409 1894 409 
Q 2359 409 2629 706 
Q 2900 1003 2900 1516 
L 2900 3500 
L 3475 3500 
L 3475 0 
L 2900 0 
L 2900 538 
Q 2691 219 2414 64 
Q 2138 -91 1772 -91 
Q 1169 -91 856 284 
Q 544 659 544 1381 
z
M 1991 3584 
L 1991 3584 
z
" transform="scale(0.015625)"/>
     <path id="DejaVuSans-63" d="M 3122 3366 
L 3122 2828 
Q 2878 2963 2633 3030 
Q 2388 3097 2138 3097 
Q 1578 3097 1268 2742 
Q 959 2388 959 1747 
Q 959 1106 1268 751 
Q 1578 397 2138 397 
Q 2388 397 2633 464 
Q 2878 531 3122 666 
L 3122 134 
Q 2881 22 2623 -34 
Q 2366 -91 2075 -91 
Q 1284 -91 818 406 
Q 353 903 353 1747 
Q 353 2603 823 3093 
Q 1294 3584 2113 3584 
Q 2378 3584 2631 3529 
Q 2884 3475 3122 3366 
z
" transform="scale(0.015625)"/>
     <path id="DejaVuSans-68" d="M 3513 2113 
L 3513 0 
L 2938 0 
L 2938 2094 
Q 2938 2591 2744 2837 
Q 2550 3084 2163 3084 
Q 1697 3084 1428 2787 
Q 1159 2491 1159 1978 
L 1159 0 
L 581 0 
L 581 4863 
L 1159 4863 
L 1159 2956 
Q 1366 3272 1645 3428 
Q 1925 3584 2291 3584 
Q 2894 3584 3203 3211 
Q 3513 2838 3513 2113 
z
" transform="scale(0.015625)"/>
     <path id="DejaVuSans-6d" d="M 3328 2828 
Q 3544 3216 3844 3400 
Q 4144 3584 4550 3584 
Q 5097 3584 5394 3201 
Q 5691 2819 5691 2113 
L 5691 0 
L 5113 0 
L 5113 2094 
Q 5113 2597 4934 2840 
Q 4756 3084 4391 3084 
Q 3944 3084 3684 2787 
Q 3425 2491 3425 1978 
L 3425 0 
L 2847 0 
L 2847 2094 
Q 2847 2600 2669 2842 
Q 2491 3084 2119 3084 
Q 1678 3084 1418 2786 
Q 1159 2488 1159 1978 
L 1159 0 
L 581 0 
L 581 3500 
L 1159 3500 
L 1159 2956 
Q 1356 3278 1631 3431 
Q 1906 3584 2284 3584 
Q 2666 3584 2933 3390 
Q 3200 3197 3328 2828 
z
" transform="scale(0.015625)"/>
    </defs>
    <use xlink:href="#DejaVuSans-47"/>
    <use xlink:href="#DejaVuSans-65" transform="translate(77.490234 0)"/>
    <use xlink:href="#DejaVuSans-6e" transform="translate(139.013672 0)"/>
    <use xlink:href="#DejaVuSans-65" transform="translate(202.392578 0)"/>
    <use xlink:href="#DejaVuSans-72" transform="translate(263.916016 0)"/>
    <use xlink:href="#DejaVuSans-61" transform="translate(305.029297 0)"/>
    <use xlink:href="#DejaVuSans-6c" transform="translate(366.308594 0)"/>
    <use xlink:href="#DejaVuSans-69" transform="translate(394.091797 0)"/>
    <use xlink:href="#DejaVuSans-7a" transform="translate(421.875 0)"/>
    <use xlink:href="#DejaVuSans-65" transform="translate(474.365234 0)"/>
    <use xlink:href="#DejaVuSans-64" transform="translate(535.888672 0)"/>
    <use xlink:href="#DejaVuSans-20" transform="translate(599.365234 0)"/>
    <use xlink:href="#DejaVuSans-45" transform="translate(631.152344 0)"/>
    <use xlink:href="#DejaVuSans-78" transform="translate(694.335938 0)"/>
    <use xlink:href="#DejaVuSans-70" transform="translate(753.515625 0)"/>
    <use xlink:href="#DejaVuSans-6f" transform="translate(816.992188 0)"/>
    <use xlink:href="#DejaVuSans-6e" transform="translate(878.173828 0)"/>
    <use xlink:href="#DejaVuSans-65" transform="translate(941.552734 0)"/>
    <use xlink:href="#DejaVuSans-6e" transform="translate(1003.076172 0)"/>
    <use xlink:href="#DejaVuSans-74" transform="translate(1066.455078 0)"/>
    <use xlink:href="#DejaVuSans-69" transform="translate(1105.664062 0)"/>
    <use xlink:href="#DejaVuSans-61" transform="translate(1133.447266 0)"/>
    <use xlink:href="#DejaVuSans-6c" transform="translate(1194.726562 0)"/>
    <use xlink:href="#DejaVuSans-20" transform="translate(1222.509766 0)"/>
    <use xlink:href="#DejaVuSans-4d" transform="translate(1254.296875 0)"/>
    <use xlink:href="#DejaVuSans-6f" transform="translate(1340.576172 0)"/>
    <use xlink:href="#DejaVuSans-64" transform="translate(1401.757812 0)"/>
    <use xlink:href="#DejaVuSans-65" transform="translate(1465.234375 0)"/>
    <use xlink:href="#DejaVuSans-6c" transform="translate(1526.757812 0)"/>
    <use xlink:href="#DejaVuSans-20" transform="translate(1554.541016 0)"/>
    <use xlink:href="#DejaVuSans-3a" transform="translate(1586.328125 0)"/>
    <use xlink:href="#DejaVuSans-20" transform="translate(1620.019531 0)"/>
    <use xlink:href="#DejaVuSans-69" transform="translate(1651.806641 0)"/>
    <use xlink:href="#DejaVuSans-6e" transform="translate(1679.589844 0)"/>
    <use xlink:href="#DejaVuSans-66" transform="translate(1742.96875 0)"/>
    <use xlink:href="#DejaVuSans-6c" transform="translate(1778.173828 0)"/>
    <use xlink:href="#DejaVuSans-75" transform="translate(1805.957031 0)"/>
    <use xlink:href="#DejaVuSans-65" transform="translate(1869.335938 0)"/>
    <use xlink:href="#DejaVuSans-6e" transform="translate(1930.859375 0)"/>
    <use xlink:href="#DejaVuSans-63" transform="translate(1994.238281 0)"/>
    <use xlink:href="#DejaVuSans-65" transform="translate(2049.21875 0)"/>
    <use xlink:href="#DejaVuSans-20" transform="translate(2110.742188 0)"/>
    <use xlink:href="#DejaVuSans-6f" transform="translate(2142.529297 0)"/>
    <use xlink:href="#DejaVuSans-66" transform="translate(2203.710938 0)"/>
    <use xlink:href="#DejaVuSans-20" transform="translate(2238.916016 0)"/>
    <use xlink:href="#DejaVuSans-74" transform="translate(2270.703125 0)"/>
    <use xlink:href="#DejaVuSans-68" transform="translate(2309.912109 0)"/>
    <use xlink:href="#DejaVuSans-65" transform="translate(2373.291016 0)"/>
    <use xlink:href="#DejaVuSans-20" transform="translate(2434.814453 0)"/>
    <use xlink:href="#DejaVuSans-70" transform="translate(2466.601562 0)"/>
    <use xlink:href="#DejaVuSans-20" transform="translate(2530.078125 0)"/>
    <use xlink:href="#DejaVuSans-70" transform="translate(2561.865234 0)"/>
    <use xlink:href="#DejaVuSans-61" transform="translate(2625.341797 0)"/>
    <use xlink:href="#DejaVuSans-72" transform="translate(2686.621094 0)"/>
    <use xlink:href="#DejaVuSans-61" transform="translate(2727.734375 0)"/>
    <use xlink:href="#DejaVuSans-6d" transform="translate(2789.013672 0)"/>
    <use xlink:href="#DejaVuSans-65" transform="translate(2886.425781 0)"/>
    <use xlink:href="#DejaVuSans-74" transform="translate(2947.949219 0)"/>
    <use xlink:href="#DejaVuSans-65" transform="translate(2987.158203 0)"/>
    <use xlink:href="#DejaVuSans-72" transform="translate(3048.681641 0)"/>
   </g>
  </g>
 </g>
 <defs>
  <clipPath id="pcf6cfc6e17">
   <rect x="108" y="34.56" width="304.363636" height="221.76"/>
  </clipPath>
  <clipPath id="p412c97add0">
   <rect x="473.236364" y="34.56" width="304.363636" height="221.76"/>
  </clipPath>
 </defs>
</svg>
