<?xml version="1.0" encoding="utf-8" standalone="no"?>
<!DOCTYPE svg PUBLIC "-//W3C//DTD SVG 1.1//EN"
  "http://www.w3.org/Graphics/SVG/1.1/DTD/svg11.dtd">
<svg xmlns:xlink="http://www.w3.org/1999/xlink" width="360pt" height="216pt" viewBox="0 0 360 216" xmlns="http://www.w3.org/2000/svg" version="1.1">
 <metadata>
  <rdf:RDF xmlns:dc="http://purl.org/dc/elements/1.1/" xmlns:cc="http://creativecommons.org/ns#" xmlns:rdf="http://www.w3.org/1999/02/22-rdf-syntax-ns#">
   <cc:Work>
    <dc:type rdf:resource="http://purl.org/dc/dcmitype/StillImage"/>
    <dc:date>2022-01-01T00:00:00+00:00</dc:date>
    <dc:format>image/svg+xml</dc:format>
    <dc:creator>
     <cc:Agent>
      <dc:title>Matplotlib v3.10.9, https://matplotlib.org/</dc:title>
     </cc:Agent>
    </dc:creator>
   </cc:Work>
  </rdf:RDF>
 </metadata>
 <defs>
  <style type="text/css">*{stroke-linejoin: round; stroke-linecap: butt}</style>
 </defs>
 <g id="figure_1">
  <g id="patch_1">
   <path d="M 0 216 
L 360 216 
L 360 0 
L 0 0 
z
" style="fill: #ffffff"/>
  </g>
  <g id="axes_1">
   <g id="patch_2">
    <path d="M 56.18 174.04 
L 243.04 174.04 
L 243.04 32.4 
L 56.18 32.4 
z
" style="fill: #ffffff"/>
   </g>
   <g id="matplotlib.axis_1">
    <g id="xtick_1">
     <g id="line2d_1">
      <path d="M 64.673636 174.04 
L 64.673636 32.4 
" clip-path="url(#pf7c9eeb636)" style="fill: none; stroke: #b0b0b0; stroke-width: 0.8; stroke-linecap: square"/>
     </g>
     <g id="line2d_2">
      <defs>
       <path id="m4a92d99fee" d="M 0 0 
L 0 3.5 
" style="stroke: #000000; stroke-width: 0.8"/>
      </defs>
      <g>
       <use xlink:href="#m4a92d99fee" x="64.673636" y="174.04" style="stroke: #000000; stroke-width: 0.8"/>
      </g>
     </g>
     <g id="text_1">
      <!-- 0.0 -->
      <g transform="translate(56.722074 188.638438) scale(0.1 -0.1)">
       <defs>
        <path id="DejaVuSans-30" d="M 2034 4250 
Q 1547 4250 1301 3770 
Q 1056 3291 1056 2328 
Q 1056 1369 1301 889 
Q 1547 409 2034 409 
Q 2525 409 2770 889 
Q 3016 1369 3016 2328 
Q 3016 3291 2770 3770 
Q 2525 4250 2034 4250 
z
M 2034 4750 
Q 2819 4750 3233 4129 
Q 3647 3509 3647 2328 
Q 3647 1150 3233 529 
Q 2819 -91 2034 -91 
Q 1250 -91 836 529 
Q 422 1150 422 2328 
Q 422 3509 836 4129 
Q 1250 4750 2034 4750 
z
" transform="scale(0.015625)"/>
        <path id="DejaVuSans-2e" d="M 684 794 
L 1344 794 
L 1344 0 
L 684 0 
L 684 794 
z
" transform="scale(0.015625)"/>
       </defs>
       <use xlink:href="#DejaVuSans-30"/>
       <use xlink:href="#DejaVuSans-2e" transform="translate(63.623047 0)"/>
       <use xlink:href="#DejaVuSans-30" transform="translate(95.410156 0)"/>
      </g>
     </g>
    </g>
    <g id="xtick_2">
     <g id="line2d_3">
      <path d="M 100.063788 174.04 
L 100.063788 32.4 
" clip-path="url(#pf7c9eeb636)" style="fill: none; stroke: #b0b0b0; stroke-width: 0.8; stroke-linecap: square"/>
     </g>
     <g id="line2d_4">
      <g>
       <use xlink:href="#m4a92d99fee" x="100.063788" y="174.04" style="stroke: #000000; stroke-width: 0.8"/>
      </g>
     </g>
     <g id="text_2">
      <!-- 2.5 -->
      <g transform="translate(92.112225 188.638438) scale(0.1 -0.1)">
       <defs>
        <path id="DejaVuSans-32" d="M 1228 531 
L 3431 531 
L 3431 0 
L 469 0 
L 469 531 
Q 828 903 1448 1529 
Q 2069 2156 2228 2338 
Q 2531 2678 2651 2914 
Q 2772 3150 2772 3378 
Q 2772 3750 2511 3984 
Q 2250 4219 1831 4219 
Q 1534 4219 1204 4116 
Q 875 4013 500 3803 
L 500 4441 
Q 881 4594 1212 4672 
Q 1544 4750 1819 4750 
Q 2544 4750 2975 4387 
Q 3406 4025 3406 3419 
Q 3406 3131 3298 2873 
Q 3191 2616 2906 2266 
Q 2828 2175 2409 1742 
Q 1991 1309 1228 531 
z
" transform="scale(0.015625)"/>
        <path id="DejaVuSans-35" d="M 691 4666 
L 3169 4666 
L 3169 4134 
L 1269 4134 
L 1269 2991 
Q 1406 3038 1543 3061 
Q 1681 3084 1819 3084 
Q 2600 3084 3056 2656 
Q 3513 2228 3513 1497 
Q 3513 744 3044 326 
Q 2575 -91 1722 -91 
Q 1428 -91 1123 -41 
Q 819 9 494 109 
L 494 744 
Q 775 591 1075 516 
Q 1375 441 1709 441 
Q 2250 441 2565 725 
Q 2881 1009 2881 1497 
Q 2881 1984 2565 2268 
Q 2250 2553 1709 2553 
Q 1456 2553 1204 2497 
Q 953 2441 691 2322 
L 691 4666 
z
" transform="scale(0.015625)"/>
       </defs>
       <use xlink:href="#DejaVuSans-32"/>
       <use xlink:href="#DejaVuSans-2e" transform="translate(63.623047 0)"/>
       <use xlink:href="#DejaVuSans-35" transform="translate(95.410156 0)"/>
      </g>
     </g>
    </g>
    <g id="xtick_3">
     <g id="line2d_5">
      <path d="M 135.453939 174.04 
L 135.453939 32.4 
" clip-path="url(#pf7c9eeb636)" style="fill: none; stroke: #b0b0b0; stroke-width: 0.8; stroke-linecap: square"/>
     </g>
     <g id="line2d_6">
      <g>
       <use xlink:href="#m4a92d99fee" x="135.453939" y="174.04" style="stroke: #000000; stroke-width: 0.8"/>
      </g>
     </g>
     <g id="text_3">
      <!-- 5.0 -->
      <g transform="translate(127.502377 188.638438) scale(0.1 -0.1)">
       <use xlink:href="#DejaVuSans-35"/>
       <use xlink:href="#DejaVuSans-2e" transform="translate(63.623047 0)"/>
       <use xlink:href="#DejaVuSans-30" transform="translate(95.410156 0)"/>
      </g>
     </g>
    </g>
    <g id="xtick_4">
     <g id="line2d_7">
      <path d="M 170.844091 174.04 
L 170.844091 32.4 
" clip-path="url(#pf7c9eeb636)" style="fill: none; stroke: #b0b0b0; stroke-width: 0.8; stroke-linecap: square"/>
     </g>
     <g id="line2d_8">
      <g>
       <use xlink:href="#m4a92d99fee" x="170.844091" y="174.04" style="stroke: #000000; stroke-width: 0.8"/>
      </g>
     </g>
     <g id="text_4">
      <!-- 7.5 -->
      <g transform="translate(162.892528 188.638438) scale(0.1 -0.1)">
       <defs>
        <path id="DejaVuSans-37" d="M 525 4666 
L 3525 4666 
L 3525 4397 
L 1831 0 
L 1172 0 
L 2766 4134 
L 525 4134 
L 525 4666 
z
" transform="scale(0.015625)"/>
       </defs>
       <use xlink:href="#DejaVuSans-37"/>
       <use xlink:href="#DejaVuSans-2e" transform="translate(63.623047 0)"/>
       <use xlink:href="#DejaVuSans-35" transform="translate(95.410156 0)"/>
      </g>
     </g>
    </g>
    <g id="xtick_5">
     <g id="line2d_9">
      <path d="M 206.234242 174.04 
L 206.234242 32.4 
" clip-path="url(#pf7c9eeb636)" style="fill: none; stroke: #b0b0b0; stroke-width: 0.8; stroke-linecap: square"/>
     </g>
     <g id="line2d_10">
      <g>
       <use xlink:href="#m4a92d99fee" x="206.234242" y="174.04" style="stroke: #000000; stroke-width: 0.8"/>
      </g>
     </g>
     <g id="text_5">
      <!-- 10.0 -->
      <g transform="translate(195.10143 188.638438) scale(0.1 -0.1)">
       <defs>
        <path id="DejaVuSans-31" d="M 794 531 
L 1825 531 
L 1825 4091 
L 703 3866 
L 703 4441 
L 1819 4666 
L 2450 4666 
L 2450 531 
L 3481 531 
L 3481 0 
L 794 0 
L 794 531 
z
" transform="scale(0.015625)"/>
       </defs>
       <use xlink:href="#DejaVuSans-31"/>
       <use xlink:href="#DejaVuSans-30" transform="translate(63.623047 0)"/>
       <use xlink:href="#DejaVuSans-2e" transform="translate(127.246094 0)"/>
       <use xlink:href="#DejaVuSans-30" transform="translate(159.033203 0)"/>
      </g>
     </g>
    </g>
    <g id="xtick_6">
     <g id="line2d_11">
      <path d="M 241.624394 174.04 
L 241.624394 32.4 
" clip-path="url(#pf7c9eeb636)" style="fill: none; stroke: #b0b0b0; stroke-width: 0.8; stroke-linecap: square"/>
     </g>
     <g id="line2d_12">
      <g>
       <use xlink:href="#m4a92d99fee" x="241.624394" y="174.04" style="stroke: #000000; stroke-width: 0.8"/>
      </g>
     </g>
     <g id="text_6">
      <!-- 12.5 -->
      <g transform="translate(230.491581 188.638438) scale(0.1 -0.1)">
       <use xlink:href="#DejaVuSans-31"/>
       <use xlink:href="#DejaVuSans-32" transform="translate(63.623047 0)"/>
       <use xlink:href="#DejaVuSans-2e" transform="translate(127.246094 0)"/>
       <use xlink:href="#DejaVuSans-35" transform="translate(159.033203 0)"/>
      </g>
     </g>
    </g>
    <g id="text_7">
     <!-- X -->
     <g transform="translate(146.185 202.316563) scale(0.1 -0.1)">
      <defs>
       <path id="DejaVuSans-58" d="M 403 4666 
L 1081 4666 
L 2241 2931 
L 3406 4666 
L 4084 4666 
L 2584 2425 
L 4184 0 
L 3506 0 
L 2194 1984 
L 872 0 
L 191 0 
L 1856 2491 
L 403 4666 
z
" transform="scale(0.015625)"/>
      </defs>
      <use xlink:href="#DejaVuSans-58"/>
     </g>
    </g>
   </g>
   <g id="matplotlib.axis_2">
    <g id="ytick_1">
     <g id="line2d_13">
      <path d="M 56.18 142.659469 
L 243.04 142.659469 
" clip-path="url(#pf7c9eeb636)" style="fill: none; stroke: #b0b0b0; stroke-width: 0.8; stroke-linecap: square"/>
     </g>
     <g id="line2d_14">
      <defs>
       <path id="mb3cb5c074b" d="M 0 0 
L -3.5 0 
" style="stroke: #000000; stroke-width: 0.8"/>
      </defs>
      <g>
       <use xlink:href="#mb3cb5c074b" x="56.18" y="142.659469" style="stroke: #000000; stroke-width: 0.8"/>
      </g>
     </g>
     <g id="text_8">
      <!-- −1 -->
      <g transform="translate(34.437812 146.458687) scale(0.1 -0.1)">
       <defs>
        <path id="DejaVuSans-2212" d="M 678 2272 
L 4684 2272 
L 4684 1741 
L 678 1741 
L 678 2272 
z
" transform="scale(0.015625)"/>
       </defs>
       <use xlink:href="#DejaVuSans-2212"/>
       <use xlink:href="#DejaVuSans-31" transform="translate(83.789062 0)"/>
      </g>
     </g>
    </g>
    <g id="ytick_2">
     <g id="line2d_15">
      <path d="M 56.18 105.867482 
L 243.04 105.867482 
" clip-path="url(#pf7c9eeb636)" style="fill: none; stroke: #b0b0b0; stroke-width: 0.8; stroke-linecap: square"/>
     </g>
     <g id="line2d_16">
      <g>
       <use xlink:href="#mb3cb5c074b" x="56.18" y="105.867482" style="stroke: #000000; stroke-width: 0.8"/>
      </g>
     </g>
     <g id="text_9">
      <!-- 0 -->
      <g transform="translate(42.8175 109.6667) scale(0.1 -0.1)">
       <use xlink:href="#DejaVuSans-30"/>
      </g>
     </g>
    </g>
    <g id="ytick_3">
     <g id="line2d_17">
      <path d="M 56.18 69.075495 
L 243.04 69.075495 
" clip-path="url(#pf7c9eeb636)" style="fill: none; stroke: #b0b0b0; stroke-width: 0.8; stroke-linecap: square"/>
     </g>
     <g id="line2d_18">
      <g>
       <use xlink:href="#mb3cb5c074b" x="56.18" y="69.075495" style="stroke: #000000; stroke-width: 0.8"/>
      </g>
     </g>
     <g id="text_10">
      <!-- 1 -->
      <g transform="translate(42.8175 72.874713) scale(0.1 -0.1)">
       <use xlink:href="#DejaVuSans-31"/>
      </g>
     </g>
    </g>
    <g id="text_11">
     <!-- Y -->
     <g transform="translate(28.358125 106.273906) rotate(-90) scale(0.1 -0.1)">
      <defs>
       <path id="DejaVuSans-59" d="M -13 4666 
L 666 4666 
L 1959 2747 
L 3244 4666 
L 3922 4666 
L 2272 2222 
L 2272 0 
L 1638 0 
L 1638 2222 
L -13 4666 
z
" transform="scale(0.015625)"/>
      </defs>
      <use xlink:href="#DejaVuSans-59"/>
     </g>
    </g>
   </g>
   <g id="patch_3">
    <path d="M 64.673636 136.161715 
L 66.389522 131.168769 
L 68.105409 125.547161 
L 69.821295 119.249989 
L 71.537181 112.241504 
L 73.253067 104.5055 
L 74.968953 96.057505 
L 76.684839 86.96252 
L 78.400725 77.361013 
L 80.116612 81.770627 
L 81.832498 90.293981 
L 83.548384 97.938614 
L 85.26427 104.599612 
L 86.980156 110.222563 
L 88.696042 114.784127 
L 90.411928 118.278962 
L 92.127815 120.711262 
L 93.843701 122.089857 
L 95.559587 122.426325 
L 97.275473 121.735952 
L 98.991359 120.041791 
L 100.707245 117.382481 
L 102.423131 113.825178 
L 104.139017 109.485916 
L 105.854904 104.561606 
L 107.57079 103.667145 
L 109.286676 114.806561 
L 111.002562 124.331748 
L 112.718448 131.942403 
L 114.434334 137.401672 
L 116.15022 140.502357 
L 117.866107 141.04766 
L 119.581993 138.844639 
L 121.297879 133.711749 
L 123.013765 143.41931 
L 124.729651 151.284365 
L 126.445537 157.426401 
L 128.161423 161.992788 
L 129.877309 165.129393 
L 131.593196 166.964775 
L 133.309082 167.601818 
L 135.024968 167.113638 
L 136.740854 165.54203 
L 138.45674 162.897568 
L 140.172626 159.160969 
L 141.888512 154.285719 
L 143.604399 148.202303 
L 145.320285 140.824813 
L 147.036171 132.061293 
L 148.752057 121.830136 
L 150.467943 119.473355 
L 152.183829 124.952111 
L 153.899715 128.893559 
L 155.615601 131.359329 
L 157.331488 132.425557 
L 159.047374 132.16935 
L 160.76326 130.66167 
L 162.479146 127.96452 
L 164.195032 124.131279 
L 165.910918 119.209638 
L 167.626804 113.247023 
L 169.342691 106.298763 
L 171.058577 98.43963 
L 172.774463 89.779852 
L 174.490349 80.487312 
L 176.206235 70.818669 
L 177.922121 76.920593 
L 179.638007 86.37833 
L 181.353893 95.557455 
L 183.06978 104.276267 
L 184.785666 112.432121 
L 186.501552 119.9757 
L 188.217438 126.892761 
L 189.933324 133.19101 
L 191.64921 138.890564 
L 193.365096 144.016928 
L 195.080983 148.595762 
L 196.796869 152.64888 
L 198.512755 156.191134 
L 200.228641 159.227889 
L 201.944527 161.752938 
L 203.660413 163.746745 
L 205.376299 165.175027 
L 207.092185 165.987749 
L 208.808072 166.118767 
L 210.523958 165.486548 
L 212.239844 163.996721 
L 213.95573 161.547804 
L 215.671616 158.042542 
L 217.387502 153.409544 
L 219.103388 147.645084 
L 220.819275 144.480131 
L 222.535161 148.984556 
L 224.251047 149.079957 
L 225.966933 144.936184 
L 227.682819 138.75221 
L 229.398705 144.148044 
L 231.114591 149.235319 
L 232.830478 153.788276 
L 234.546364 157.729011 
L 234.546364 100.281218 
L 232.830478 108.635318 
L 231.114591 117.680926 
L 229.398705 127.227003 
L 227.682819 136.891593 
L 225.966933 134.575561 
L 224.251047 133.620374 
L 222.535161 135.859586 
L 220.819275 140.987892 
L 219.103388 136.416029 
L 217.387502 127.423803 
L 215.671616 118.254905 
L 213.95573 109.299401 
L 212.239844 100.781798 
L 210.523958 92.822963 
L 208.808072 85.478124 
L 207.092185 78.76151 
L 205.376299 72.662956 
L 203.660413 67.159402 
L 201.944527 62.223064 
L 200.228641 57.827421 
L 198.512755 53.951759 
L 196.796869 50.584802 
L 195.080983 47.727801 
L 193.365096 45.397329 
L 191.64921 43.627969 
L 189.933324 42.474995 
L 188.217438 42.017094 
L 186.501552 42.359082 
L 184.785666 43.634498 
L 183.06978 46.00777 
L 181.353893 49.675443 
L 179.638007 54.865582 
L 177.922121 61.83377 
L 176.206235 67.514753 
L 174.490349 59.803255 
L 172.774463 54.317578 
L 171.058577 50.789983 
L 169.342691 48.985686 
L 167.626804 48.70827 
L 165.910918 49.800735 
L 164.195032 52.14396 
L 162.479146 55.653538 
L 160.76326 60.275399 
L 159.047374 65.980264 
L 157.331488 72.756672 
L 155.615601 80.60198 
L 153.899715 89.510346 
L 152.183829 99.456085 
L 150.467943 110.369832 
L 148.752057 112.717366 
L 147.036171 106.484401 
L 145.320285 101.221276 
L 143.604399 97.01777 
L 141.888512 93.912731 
L 140.172626 91.915245 
L 138.45674 91.017941 
L 136.740854 91.204854 
L 135.024968 92.455213 
L 133.309082 94.743894 
L 131.593196 98.038756 
L 129.877309 102.29466 
L 128.161423 107.443522 
L 126.445537 113.379124 
L 124.729651 119.934495 
L 123.013765 126.848069 
L 121.297879 133.711749 
L 119.581993 123.430425 
L 117.866107 114.246428 
L 116.15022 106.574823 
L 114.434334 100.719421 
L 112.718448 96.913425 
L 111.002562 95.342896 
L 109.286676 96.155749 
L 107.57079 99.455679 
L 105.854904 91.982479 
L 104.139017 81.645763 
L 102.423131 72.753921 
L 100.707245 65.256619 
L 98.991359 59.074174 
L 97.275473 54.121821 
L 95.559587 50.324425 
L 93.843701 47.625622 
L 92.127815 45.993627 
L 90.411928 45.42497 
L 88.696042 45.946866 
L 86.980156 47.618552 
L 85.26427 50.531574 
L 83.548384 54.808738 
L 81.832498 60.600986 
L 80.116612 68.080907 
L 78.400725 72.619509 
L 76.684839 64.471477 
L 74.968953 57.80048 
L 73.253067 52.418655 
L 71.537181 48.140018 
L 69.821295 44.790539 
L 68.105409 42.213006 
L 66.389522 40.268851 
L 64.673636 38.838182 
z
" clip-path="url(#pf7c9eeb636)" style="fill: #228b22; fill-opacity: 0.101961"/>
   </g>
   <g id="patch_4">
    <path d="M 64.673636 128.33819 
L 66.389522 123.861618 
L 68.105409 118.848197 
L 69.821295 113.264434 
L 71.537181 107.088592 
L 73.253067 100.318407 
L 74.968953 92.982146 
L 76.684839 85.154538 
L 78.400725 76.979859 
L 80.116612 80.670154 
L 81.832498 87.907057 
L 83.548384 94.471542 
L 85.26427 100.253257 
L 86.980156 105.190029 
L 88.696042 109.250521 
L 90.411928 112.422464 
L 92.127815 114.704952 
L 93.843701 116.103918 
L 95.559587 116.630286 
L 97.275473 116.30067 
L 98.991359 115.140801 
L 100.707245 113.192252 
L 102.423131 110.523592 
L 104.139017 107.247935 
L 105.854904 103.550411 
L 107.57079 103.328599 
L 109.286676 113.307282 
L 111.002562 122.001428 
L 112.718448 129.126536 
L 114.434334 134.452904 
L 116.15022 137.775032 
L 117.866107 138.893195 
L 119.581993 137.60554 
L 121.297879 133.711749 
L 123.013765 142.087201 
L 124.729651 148.76425 
L 126.445537 153.885583 
L 128.161423 157.607749 
L 129.877309 160.078312 
L 131.593196 161.424035 
L 133.309082 161.745005 
L 135.024968 161.112088 
L 136.740854 159.566304 
L 138.45674 157.119397 
L 140.172626 153.755303 
L 141.888512 149.43253 
L 143.604399 144.087744 
L 145.320285 137.641212 
L 147.036171 130.005249 
L 148.752057 121.09759 
L 150.467943 118.741552 
L 152.183829 122.902568 
L 153.899715 125.72767 
L 155.615601 127.279109 
L 157.331488 127.628968 
L 159.047374 126.848623 
L 160.76326 125.003545 
L 162.479146 122.151674 
L 164.195032 118.344451 
L 165.910918 113.63008 
L 167.626804 108.058961 
L 169.342691 101.69155 
L 171.058577 94.609229 
L 172.774463 86.929154 
L 174.490349 78.824587 
L 176.206235 70.553078 
L 177.922121 75.707812 
L 179.638007 83.845122 
L 181.353893 91.869148 
L 183.06978 99.592251 
L 184.785666 106.901702 
L 186.501552 113.736351 
L 188.217438 120.06988 
L 189.933324 125.898643 
L 191.64921 131.232711 
L 193.365096 136.089217 
L 195.080983 140.487312 
L 196.796869 144.444278 
L 198.512755 147.97244 
L 200.228641 151.076633 
L 201.944527 153.752053 
L 203.660413 155.982401 
L 205.376299 157.738281 
L 207.092185 158.975913 
L 208.808072 159.636326 
L 210.523958 159.645357 
L 212.239844 158.915077 
L 213.95573 157.347724 
L 215.671616 154.844142 
L 217.387502 151.320634 
L 219.103388 146.742416 
L 220.819275 144.199402 
L 222.535161 147.929482 
L 224.251047 147.837211 
L 225.966933 144.103327 
L 227.682819 138.602641 
L 229.398705 142.787816 
L 231.114591 146.698763 
L 232.830478 150.158575 
L 234.546364 153.110969 
L 234.546364 104.899261 
L 232.830478 112.265018 
L 231.114591 120.217481 
L 229.398705 128.587231 
L 227.682819 137.041162 
L 225.966933 135.408418 
L 224.251047 134.86312 
L 222.535161 136.91466 
L 220.819275 141.268622 
L 219.103388 137.318696 
L 217.387502 129.512713 
L 215.671616 121.453305 
L 213.95573 113.499482 
L 212.239844 105.863441 
L 210.523958 98.664154 
L 208.808072 91.960565 
L 207.092185 85.773346 
L 205.376299 80.099703 
L 203.660413 74.923746 
L 201.944527 70.223949 
L 200.228641 65.978678 
L 198.512755 62.170453 
L 196.796869 58.789404 
L 195.080983 55.836251 
L 193.365096 53.32504 
L 191.64921 51.285821 
L 189.933324 49.767363 
L 188.217438 48.839975 
L 186.501552 48.598431 
L 184.785666 49.164917 
L 183.06978 50.691786 
L 181.353893 53.36375 
L 179.638007 57.39879 
L 177.922121 63.046551 
L 176.206235 67.780344 
L 174.490349 61.46598 
L 172.774463 57.168276 
L 171.058577 54.620385 
L 169.342691 53.592899 
L 167.626804 53.896332 
L 165.910918 55.380293 
L 164.195032 57.930788 
L 162.479146 61.466384 
L 160.76326 65.933524 
L 159.047374 71.300991 
L 157.331488 77.553261 
L 155.615601 84.682199 
L 153.899715 92.676235 
L 152.183829 101.505629 
L 150.467943 111.101635 
L 148.752057 113.449912 
L 147.036171 108.540445 
L 145.320285 104.404876 
L 143.604399 101.132329 
L 141.888512 98.76592 
L 140.172626 97.320911 
L 138.45674 96.796112 
L 136.740854 97.180579 
L 135.024968 98.456763 
L 133.309082 100.600708 
L 131.593196 103.579497 
L 129.877309 107.345741 
L 128.161423 111.828561 
L 126.445537 116.919943 
L 124.729651 122.45461 
L 123.013765 128.180178 
L 121.297879 133.711749 
L 119.581993 124.669523 
L 117.866107 116.400892 
L 116.15022 109.302148 
L 114.434334 103.668189 
L 112.718448 99.729292 
L 111.002562 97.673216 
L 109.286676 97.655028 
L 107.57079 99.794225 
L 105.854904 92.993675 
L 104.139017 83.883743 
L 102.423131 76.055507 
L 100.707245 69.446849 
L 98.991359 63.975164 
L 97.275473 59.557103 
L 95.559587 56.120464 
L 93.843701 53.611561 
L 92.127815 51.999937 
L 90.411928 51.281467 
L 88.696042 51.480472 
L 86.980156 52.651086 
L 85.26427 54.877929 
L 83.548384 58.275809 
L 81.832498 62.98791 
L 80.116612 69.181379 
L 78.400725 73.000663 
L 76.684839 66.279459 
L 74.968953 60.875839 
L 73.253067 56.605748 
L 71.537181 53.29293 
L 69.821295 50.776093 
L 68.105409 48.91197 
L 66.389522 47.576002 
L 64.673636 46.661707 
z
" clip-path="url(#pf7c9eeb636)" style="fill: #228b22; fill-opacity: 0.2"/>
   </g>
   <g id="patch_5">
    <path d="M 64.673636 119.318167 
L 66.389522 115.436941 
L 68.105409 111.124721 
L 69.821295 106.363472 
L 71.537181 101.147615 
L 73.253067 95.490956 
L 74.968953 89.436455 
L 76.684839 83.07005 
L 78.400725 76.540413 
L 80.116612 79.40138 
L 81.832498 85.155087 
L 83.548384 90.474231 
L 85.26427 95.242188 
L 86.980156 99.387839 
L 88.696042 102.870629 
L 90.411928 105.670298 
L 92.127815 107.780062 
L 93.843701 109.202513 
L 95.559587 109.947824 
L 97.275473 110.034138 
L 98.991359 109.490273 
L 100.707245 108.361185 
L 102.423131 106.717075 
L 104.139017 104.667688 
L 105.854904 102.384567 
L 107.57079 102.938277 
L 109.286676 111.57871 
L 111.002562 119.314718 
L 112.718448 125.880022 
L 114.434334 131.053164 
L 116.15022 134.630601 
L 117.866107 136.409235 
L 119.581993 136.176938 
L 121.297879 133.711749 
L 123.013765 140.551365 
L 124.729651 145.858719 
L 126.445537 149.803246 
L 128.161423 152.552079 
L 129.877309 154.254739 
L 131.593196 155.035916 
L 133.309082 154.992474 
L 135.024968 154.192686 
L 136.740854 152.676675 
L 138.45674 150.457535 
L 140.172626 147.522915 
L 141.888512 143.837113 
L 143.604399 139.34392 
L 145.320285 133.970725 
L 147.036171 127.634762 
L 148.752057 120.253011 
L 150.467943 117.89783 
L 152.183829 120.539576 
L 153.899715 122.077602 
L 155.615601 122.574878 
L 157.331488 122.098808 
L 159.047374 120.714166 
L 160.76326 118.480089 
L 162.479146 115.449834 
L 164.195032 111.672608 
L 165.910918 107.197207 
L 167.626804 102.077458 
L 169.342691 96.379728 
L 171.058577 90.193022 
L 172.774463 83.642482 
L 174.490349 76.907572 
L 176.206235 70.246868 
L 177.922121 74.309553 
L 179.638007 80.924496 
L 181.353893 87.616767 
L 183.06978 94.19188 
L 184.785666 100.525484 
L 186.501552 106.54278 
L 188.217438 112.203535 
L 189.933324 117.49101 
L 191.64921 122.403698 
L 193.365096 126.949074 
L 195.080983 131.138789 
L 196.796869 134.984898 
L 198.512755 138.496813 
L 200.228641 141.678756 
L 201.944527 144.527544 
L 203.660413 147.030608 
L 205.376299 149.164188 
L 207.092185 150.891715 
L 208.808072 152.162487 
L 210.523958 152.910838 
L 212.239844 153.056268 
L 213.95573 152.5053 
L 215.671616 151.156592 
L 217.387502 148.912255 
L 219.103388 145.701698 
L 220.819275 143.875738 
L 222.535161 146.713049 
L 224.251047 146.404405 
L 225.966933 143.143096 
L 227.682819 138.430197 
L 229.398705 141.219561 
L 231.114591 143.774277 
L 232.830478 145.973763 
L 234.546364 147.786661 
L 234.546364 110.223568 
L 232.830478 116.449831 
L 231.114591 123.141968 
L 229.398705 130.155487 
L 227.682819 137.213605 
L 225.966933 136.368649 
L 224.251047 136.295927 
L 222.535161 138.131092 
L 220.819275 141.592286 
L 219.103388 138.359414 
L 217.387502 131.921092 
L 215.671616 125.140855 
L 213.95573 118.341906 
L 212.239844 111.722251 
L 210.523958 105.398674 
L 208.808072 99.434404 
L 207.092185 93.857544 
L 205.376299 88.673796 
L 203.660413 83.875539 
L 201.944527 79.448458 
L 200.228641 75.376554 
L 198.512755 71.64608 
L 196.796869 68.248784 
L 195.080983 65.184774 
L 193.365096 62.465183 
L 191.64921 60.114835 
L 189.933324 58.174996 
L 188.217438 56.706319 
L 186.501552 55.792002 
L 184.785666 55.541136 
L 183.06978 56.092157 
L 181.353893 57.616131 
L 179.638007 60.319417 
L 177.922121 64.44481 
L 176.206235 68.086554 
L 174.490349 63.382995 
L 172.774463 60.454948 
L 171.058577 59.036592 
L 169.342691 58.904721 
L 167.626804 59.877835 
L 165.910918 61.813166 
L 164.195032 64.602631 
L 162.479146 68.168224 
L 160.76326 72.45698 
L 159.047374 77.435449 
L 157.331488 83.083421 
L 155.615601 89.386431 
L 153.899715 96.326303 
L 152.183829 103.868621 
L 150.467943 111.945357 
L 148.752057 114.294491 
L 147.036171 110.910931 
L 145.320285 108.075364 
L 143.604399 105.876153 
L 141.888512 104.361337 
L 140.172626 103.553299 
L 138.45674 103.457974 
L 136.740854 104.070208 
L 135.024968 105.376165 
L 133.309082 107.353238 
L 131.593196 109.967615 
L 129.877309 113.169315 
L 128.161423 116.884231 
L 126.445537 121.002279 
L 124.729651 125.360141 
L 123.013765 129.716014 
L 121.297879 133.711749 
L 119.581993 126.098125 
L 117.866107 118.884852 
L 116.15022 112.446579 
L 114.434334 107.067929 
L 112.718448 102.975805 
L 111.002562 100.359926 
L 109.286676 99.3836 
L 107.57079 100.184547 
L 105.854904 94.159518 
L 104.139017 86.46399 
L 102.423131 79.862024 
L 100.707245 74.277915 
L 98.991359 69.625691 
L 97.275473 65.823635 
L 95.559587 62.802926 
L 93.843701 60.512966 
L 92.127815 58.924827 
L 90.411928 58.033633 
L 88.696042 57.860364 
L 86.980156 58.453276 
L 85.26427 59.888998 
L 83.548384 62.273121 
L 81.832498 65.739881 
L 80.116612 70.450154 
L 78.400725 73.44011 
L 76.684839 68.363947 
L 74.968953 64.42153 
L 73.253067 61.433199 
L 71.537181 59.233907 
L 69.821295 57.677055 
L 68.105409 56.635446 
L 66.389522 56.000679 
L 64.673636 55.681729 
z
" clip-path="url(#pf7c9eeb636)" style="fill: #228b22; fill-opacity: 0.4"/>
   </g>
   <g id="line2d_19">
    <path d="M 64.673636 105.867482 
L 66.389522 101.418759 
L 68.105409 97.035319 
L 69.821295 92.781486 
L 71.537181 88.719682 
L 73.253067 84.909511 
L 74.968953 81.406886 
L 76.684839 78.263205 
L 78.400725 75.524601 
L 80.116612 73.23126 
L 81.832498 71.416836 
L 83.548384 70.107955 
L 85.26427 69.323823 
L 86.980156 69.075947 
L 88.696042 69.367965 
L 90.411928 70.195592 
L 92.127815 71.546682 
L 93.843701 73.401409 
L 95.559587 75.732556 
L 97.275473 78.505915 
L 98.991359 81.680788 
L 100.707245 85.210587 
L 102.423131 89.043513 
L 104.139017 93.123321 
L 105.854904 97.390142 
L 107.57079 101.781362 
L 109.286676 106.232544 
L 111.002562 110.678369 
L 112.718448 115.053597 
L 114.434334 119.294024 
L 116.15022 123.337425 
L 117.866107 127.124465 
L 119.581993 130.599571 
L 121.297879 133.711749 
L 123.013765 136.415329 
L 124.729651 138.670638 
L 126.445537 140.44458 
L 128.161423 141.711124 
L 129.877309 142.451684 
L 131.593196 142.655393 
L 133.309082 142.319262 
L 135.024968 141.448223 
L 136.740854 140.055057 
L 138.45674 138.16021 
L 140.172626 135.791486 
L 141.888512 132.983645 
L 143.604399 129.777891 
L 145.320285 126.221267 
L 147.036171 122.365962 
L 148.752057 118.268553 
L 150.467943 113.989165 
L 152.183829 109.590596 
L 153.899715 105.137393 
L 155.615601 100.694903 
L 157.331488 96.328318 
L 159.047374 92.101714 
L 160.76326 88.077115 
L 162.479146 84.313579 
L 164.195032 80.866333 
L 165.910918 77.785964 
L 167.626804 75.117674 
L 169.342691 72.90062 
L 171.058577 71.167334 
L 172.774463 69.943252 
L 174.490349 69.246336 
L 176.206235 69.086814 
L 177.922121 69.467026 
L 179.638007 70.381392 
L 181.353893 71.816496 
L 183.06978 73.751277 
L 184.785666 76.157345 
L 186.501552 78.999391 
L 188.217438 82.235709 
L 189.933324 85.81881 
L 191.64921 89.696113 
L 193.365096 93.810721 
L 195.080983 98.102255 
L 196.796869 102.507739 
L 198.512755 106.962525 
L 200.228641 111.401242 
L 201.944527 115.758754 
L 203.660413 119.971118 
L 205.376299 123.97652 
L 207.092185 127.716182 
L 208.808072 131.135228 
L 210.523958 134.183484 
L 212.239844 136.816221 
L 213.95573 138.994803 
L 215.671616 140.687262 
L 217.387502 141.868761 
L 219.103388 142.521964 
L 220.819275 142.637284 
L 222.535161 142.213029 
L 224.251047 141.255425 
L 225.966933 139.778524 
L 227.682819 137.803999 
L 229.398705 135.360825 
L 231.114591 132.484854 
L 232.830478 129.218289 
L 234.546364 125.609065 
" clip-path="url(#pf7c9eeb636)" style="fill: none; stroke-dasharray: 3.7,1.6; stroke-dashoffset: 0; stroke: #7f7f7f"/>
   </g>
   <g id="patch_6">
    <path d="M 56.18 174.04 
L 56.18 32.4 
" style="fill: none; stroke: #000000; stroke-width: 0.8; stroke-linejoin: miter; stroke-linecap: square"/>
   </g>
   <g id="patch_7">
    <path d="M 243.04 174.04 
L 243.04 32.4 
" style="fill: none; stroke: #000000; stroke-width: 0.8; stroke-linejoin: miter; stroke-linecap: square"/>
   </g>
   <g id="patch_8">
    <path d="M 56.18 174.04 
L 243.04 174.04 
" style="fill: none; stroke: #000000; stroke-width: 0.8; stroke-linejoin: miter; stroke-linecap: square"/>
   </g>
   <g id="patch_9">
    <path d="M 56.18 32.4 
L 243.04 32.4 
" style="fill: none; stroke: #000000; stroke-width: 0.8; stroke-linejoin: miter; stroke-linecap: square"/>
   </g>
   <g id="PathCollection_1">
    <defs>
     <path id="mcd76779f3a" d="M 0 3 
C 0.795609 3 1.55874 2.683901 2.12132 2.12132 
C 2.683901 1.55874 3 0.795609 3 0 
C 3 -0.795609 2.683901 -1.55874 2.12132 -2.12132 
C 1.55874 -2.683901 0.795609 -3 0 -3 
C -0.795609 -3 -1.55874 -2.683901 -2.12132 -2.12132 
C -2.683901 -1.55874 -3 -0.795609 -3 0 
C -3 0.795609 -2.683901 1.55874 -2.12132 2.12132 
C -1.55874 2.683901 -0.795609 3 0 3 
z
" style="stroke: #cd2626"/>
    </defs>
    <g clip-path="url(#pf7c9eeb636)">
     <use xlink:href="#mcd76779f3a" x="78.829697" y="74.908092" style="fill: #cd2626; stroke: #cd2626"/>
     <use xlink:href="#mcd76779f3a" x="107.141818" y="100.675396" style="fill: #cd2626; stroke: #cd2626"/>
     <use xlink:href="#mcd76779f3a" x="121.297879" y="133.711749" style="fill: #cd2626; stroke: #cd2626"/>
     <use xlink:href="#mcd76779f3a" x="149.61" y="116.147733" style="fill: #cd2626; stroke: #cd2626"/>
     <use xlink:href="#mcd76779f3a" x="176.506515" y="69.114445" style="fill: #cd2626; stroke: #cd2626"/>
     <use xlink:href="#mcd76779f3a" x="220.390303" y="142.659108" style="fill: #cd2626; stroke: #cd2626"/>
     <use xlink:href="#mcd76779f3a" x="227.468333" y="138.077107" style="fill: #cd2626; stroke: #cd2626"/>
    </g>
   </g>
   <g id="line2d_20">
    <path d="M 64.673636 87.499948 
L 66.389522 85.71881 
L 68.105409 83.880084 
L 69.821295 82.020264 
L 71.537181 80.190761 
L 73.253067 78.462078 
L 74.968953 76.928992 
L 76.684839 75.716998 
L 78.400725 74.990261 
L 80.116612 74.925767 
L 81.832498 75.447484 
L 83.548384 76.373676 
L 85.26427 77.565593 
L 86.980156 78.920557 
L 88.696042 80.365497 
L 90.411928 81.851966 
L 92.127815 83.352445 
L 93.843701 84.85774 
L 95.559587 86.375375 
L 97.275473 87.928886 
L 98.991359 89.557982 
L 100.707245 91.31955 
L 102.423131 93.28955 
L 104.139017 95.565839 
L 105.854904 98.272043 
L 107.57079 101.561412 
L 109.286676 105.481155 
L 111.002562 109.837322 
L 112.718448 114.427914 
L 114.434334 119.060547 
L 116.15022 123.53859 
L 117.866107 127.647044 
L 119.581993 131.137532 
L 121.297879 133.711749 
L 123.013765 135.13369 
L 124.729651 135.60943 
L 126.445537 135.402763 
L 128.161423 134.718155 
L 129.877309 133.712027 
L 131.593196 132.501766 
L 133.309082 131.172856 
L 135.024968 129.784425 
L 136.740854 128.373442 
L 138.45674 126.957755 
L 140.172626 125.538107 
L 141.888512 124.099225 
L 143.604399 122.610036 
L 145.320285 121.023044 
L 147.036171 119.272847 
L 148.752057 117.273751 
L 150.467943 114.921593 
L 152.183829 112.204098 
L 153.899715 109.201952 
L 155.615601 105.980654 
L 157.331488 102.591114 
L 159.047374 99.074807 
L 160.76326 95.468535 
L 162.479146 91.809029 
L 164.195032 88.137619 
L 165.910918 84.505186 
L 167.626804 80.977647 
L 169.342691 77.642224 
L 171.058577 74.614807 
L 172.774463 72.048715 
L 174.490349 70.145284 
L 176.206235 69.166711 
L 177.922121 69.377182 
L 179.638007 70.621956 
L 181.353893 72.616449 
L 183.06978 75.142018 
L 184.785666 78.03331 
L 186.501552 81.167391 
L 188.217438 84.454927 
L 189.933324 87.833003 
L 191.64921 91.259266 
L 193.365096 94.707128 
L 195.080983 98.161781 
L 196.796869 101.616841 
L 198.512755 105.071446 
L 200.228641 108.527655 
L 201.944527 111.988001 
L 203.660413 115.453074 
L 205.376299 118.918992 
L 207.092185 122.37463 
L 208.808072 125.798446 
L 210.523958 129.154756 
L 212.239844 132.389259 
L 213.95573 135.423603 
L 215.671616 138.148723 
L 217.387502 140.416674 
L 219.103388 142.030556 
L 220.819275 142.734012 
L 222.535161 142.422071 
L 224.251047 141.350166 
L 225.966933 139.755872 
L 227.682819 137.821901 
L 229.398705 135.687524 
L 231.114591 133.458122 
L 232.830478 131.211797 
L 234.546364 129.005115 
" clip-path="url(#pf7c9eeb636)" style="fill: none; stroke: #1874cd; stroke-linecap: square"/>
   </g>
   <g id="legend_1">
    <g id="patch_10">
     <path d="M 252.04 130.46875 
L 349.322813 130.46875 
Q 351.322813 130.46875 351.322813 128.46875 
L 351.322813 41.4 
Q 351.322813 39.4 349.322813 39.4 
L 252.04 39.4 
Q 250.04 39.4 250.04 41.4 
L 250.04 128.46875 
Q 250.04 130.46875 252.04 130.46875 
z
" style="fill: #4d4d4d; opacity: 0.5; stroke: #4d4d4d; stroke-linejoin: miter"/>
    </g>
    <g id="patch_11">
     <path d="M 250.04 128.46875 
L 347.322813 128.46875 
Q 349.322813 128.46875 349.322813 126.46875 
L 349.322813 39.4 
Q 349.322813 37.4 347.322813 37.4 
L 250.04 37.4 
Q 248.04 37.4 248.04 39.4 
L 248.04 126.46875 
Q 248.04 128.46875 250.04 128.46875 
z
" style="fill: #ffffff; stroke: #cccccc; stroke-linejoin: miter"/>
    </g>
    <g id="patch_12">
     <path d="M 252.04 48.998438 
L 272.04 48.998438 
L 272.04 41.998438 
L 252.04 41.998438 
z
" style="fill: #228b22; fill-opacity: 0.101961"/>
    </g>
    <g id="text_12">
     <!--  95% bounds -->
     <g transform="translate(280.04 48.998438) scale(0.1 -0.1)">
      <defs>
       <path id="DejaVuSans-20" transform="scale(0.015625)"/>
       <path id="DejaVuSans-39" d="M 703 97 
L 703 672 
Q 941 559 1184 500 
Q 1428 441 1663 441 
Q 2288 441 2617 861 
Q 2947 1281 2994 2138 
Q 2813 1869 2534 1725 
Q 2256 1581 1919 1581 
Q 1219 1581 811 2004 
Q 403 2428 403 3163 
Q 403 3881 828 4315 
Q 1253 4750 1959 4750 
Q 2769 4750 3195 4129 
Q 3622 3509 3622 2328 
Q 3622 1225 3098 567 
Q 2575 -91 1691 -91 
Q 1453 -91 1209 -44 
Q 966 3 703 97 
z
M 1959 2075 
Q 2384 2075 2632 2365 
Q 2881 2656 2881 3163 
Q 2881 3666 2632 3958 
Q 2384 4250 1959 4250 
Q 1534 4250 1286 3958 
Q 1038 3666 1038 3163 
Q 1038 2656 1286 2365 
Q 1534 2075 1959 2075 
z
" transform="scale(0.015625)"/>
       <path id="DejaVuSans-25" d="M 4653 2053 
Q 4381 2053 4226 1822 
Q 4072 1591 4072 1178 
Q 4072 772 4226 539 
Q 4381 306 4653 306 
Q 4919 306 5073 539 
Q 5228 772 5228 1178 
Q 5228 1588 5073 1820 
Q 4919 2053 4653 2053 
z
M 4653 2450 
Q 5147 2450 5437 2106 
Q 5728 1763 5728 1178 
Q 5728 594 5436 251 
Q 5144 -91 4653 -91 
Q 4153 -91 3862 251 
Q 3572 594 3572 1178 
Q 3572 1766 3864 2108 
Q 4156 2450 4653 2450 
z
M 1428 4353 
Q 1159 4353 1004 4120 
Q 850 3888 850 3481 
Q 850 3069 1003 2837 
Q 1156 2606 1428 2606 
Q 1700 2606 1854 2837 
Q 2009 3069 2009 3481 
Q 2009 3884 1853 4118 
Q 1697 4353 1428 4353 
z
M 4250 4750 
L 4750 4750 
L 1831 -91 
L 1331 -91 
L 4250 4750 
z
M 1428 4750 
Q 1922 4750 2215 4408 
Q 2509 4066 2509 3481 
Q 2509 2891 2217 2550 
Q 1925 2209 1428 2209 
Q 931 2209 642 2551 
Q 353 2894 353 3481 
Q 353 4063 643 4406 
Q 934 4750 1428 4750 
z
" transform="scale(0.015625)"/>
       <path id="DejaVuSans-62" d="M 3116 1747 
Q 3116 2381 2855 2742 
Q 2594 3103 2138 3103 
Q 1681 3103 1420 2742 
Q 1159 2381 1159 1747 
Q 1159 1113 1420 752 
Q 1681 391 2138 391 
Q 2594 391 2855 752 
Q 3116 1113 3116 1747 
z
M 1159 2969 
Q 1341 3281 1617 3432 
Q 1894 3584 2278 3584 
Q 2916 3584 3314 3078 
Q 3713 2572 3713 1747 
Q 3713 922 3314 415 
Q 2916 -91 2278 -91 
Q 1894 -91 1617 61 
Q 1341 213 1159 525 
L 1159 0 
L 581 0 
L 581 4863 
L 1159 4863 
L 1159 2969 
z
" transform="scale(0.015625)"/>
       <path id="DejaVuSans-6f" d="M 1959 3097 
Q 1497 3097 1228 2736 
Q 959 2375 959 1747 
Q 959 1119 1226 758 
Q 1494 397 1959 397 
Q 2419 397 2687 759 
Q 2956 1122 2956 1747 
Q 2956 2369 2687 2733 
Q 2419 3097 1959 3097 
z
M 1959 3584 
Q 2709 3584 3137 3096 
Q 3566 2609 3566 1747 
Q 3566 888 3137 398 
Q 2709 -91 1959 -91 
Q 1206 -91 779 398 
Q 353 888 353 1747 
Q 353 2609 779 3096 
Q 1206 3584 1959 3584 
z
" transform="scale(0.015625)"/>
       <path id="DejaVuSans-75" d="M 544 1381 
L 544 3500 
L 1119 3500 
L 1119 1403 
Q 1119 906 1312 657 
Q 1506 409 1894 409 
Q 2359 409 2629 706 
Q 2900 1003 2900 1516 
L 2900 3500 
L 3475 3500 
L 3475 0 
L 2900 0 
L 2900 538 
Q 2691 219 2414 64 
Q 2138 -91 1772 -91 
Q 1169 -91 856 284 
Q 544 659 544 1381 
z
M 1991 3584 
L 1991 3584 
z
" transform="scale(0.015625)"/>
       <path id="DejaVuSans-6e" d="M 3513 2113 
L 3513 0 
L 2938 0 
L 2938 2094 
Q 2938 2591 2744 2837 
Q 2550 3084 2163 3084 
Q 1697 3084 1428 2787 
Q 1159 2491 1159 1978 
L 1159 0 
L 581 0 
L 581 3500 
L 1159 3500 
L 1159 2956 
Q 1366 3272 1645 3428 
Q 1925 3584 2291 3584 
Q 2894 3584 3203 3211 
Q 3513 2838 3513 2113 
z
" transform="scale(0.015625)"/>
       <path id="DejaVuSans-64" d="M 2906 2969 
L 2906 4863 
L 3481 4863 
L 3481 0 
L 2906 0 
L 2906 525 
Q 2725 213 2448 61 
Q 2172 -91 1784 -91 
Q 1150 -91 751 415 
Q 353 922 353 1747 
Q 353 2572 751 3078 
Q 1150 3584 1784 3584 
Q 2172 3584 2448 3432 
Q 2725 3281 2906 2969 
z
M 947 1747 
Q 947 1113 1208 752 
Q 1469 391 1925 391 
Q 2381 391 2643 752 
Q 2906 1113 2906 1747 
Q 2906 2381 2643 2742 
Q 2381 3103 1925 3103 
Q 1469 3103 1208 2742 
Q 947 2381 947 1747 
z
" transform="scale(0.015625)"/>
       <path id="DejaVuSans-73" d="M 2834 3397 
L 2834 2853 
Q 2591 2978 2328 3040 
Q 2066 3103 1784 3103 
Q 1356 3103 1142 2972 
Q 928 2841 928 2578 
Q 928 2378 1081 2264 
Q 1234 2150 1697 2047 
L 1894 2003 
Q 2506 1872 2764 1633 
Q 3022 1394 3022 966 
Q 3022 478 2636 193 
Q 2250 -91 1575 -91 
Q 1294 -91 989 -36 
Q 684 19 347 128 
L 347 722 
Q 666 556 975 473 
Q 1284 391 1588 391 
Q 1994 391 2212 530 
Q 2431 669 2431 922 
Q 2431 1156 2273 1281 
Q 2116 1406 1581 1522 
L 1381 1569 
Q 847 1681 609 1914 
Q 372 2147 372 2553 
Q 372 3047 722 3315 
Q 1072 3584 1716 3584 
Q 2034 3584 2315 3537 
Q 2597 3491 2834 3397 
z
" transform="scale(0.015625)"/>
      </defs>
      <use xlink:href="#DejaVuSans-20"/>
      <use xlink:href="#DejaVuSans-39" transform="translate(31.787109 0)"/>
      <use xlink:href="#DejaVuSans-35" transform="translate(95.410156 0)"/>
      <use xlink:href="#DejaVuSans-25" transform="translate(159.033203 0)"/>
      <use xlink:href="#DejaVuSans-20" transform="translate(254.052734 0)"/>
      <use xlink:href="#DejaVuSans-62" transform="translate(285.839844 0)"/>
      <use xlink:href="#DejaVuSans-6f" transform="translate(349.316406 0)"/>
      <use xlink:href="#DejaVuSans-75" transform="translate(410.498047 0)"/>
      <use xlink:href="#DejaVuSans-6e" transform="translate(473.876953 0)"/>
      <use xlink:href="#DejaVuSans-64" transform="translate(537.255859 0)"/>
      <use xlink:href="#DejaVuSans-73" transform="translate(600.732422 0)"/>
     </g>
    </g>
    <g id="patch_13">
     <path d="M 252.04 63.676563 
L 272.04 63.676563 
L 272.04 56.676563 
L 252.04 56.676563 
z
" style="fill: #228b22; fill-opacity: 0.2"/>
    </g>
    <g id="text_13">
     <!--  90% bounds -->
     <g transform="translate(280.04 63.676563) scale(0.1 -0.1)">
      <use xlink:href="#DejaVuSans-20"/>
      <use xlink:href="#DejaVuSans-39" transform="translate(31.787109 0)"/>
      <use xlink:href="#DejaVuSans-30" transform="translate(95.410156 0)"/>
      <use xlink:href="#DejaVuSans-25" transform="translate(159.033203 0)"/>
      <use xlink:href="#DejaVuSans-20" transform="translate(254.052734 0)"/>
      <use xlink:href="#DejaVuSans-62" transform="translate(285.839844 0)"/>
      <use xlink:href="#DejaVuSans-6f" transform="translate(349.316406 0)"/>
      <use xlink:href="#DejaVuSans-75" transform="translate(410.498047 0)"/>
      <use xlink:href="#DejaVuSans-6e" transform="translate(473.876953 0)"/>
      <use xlink:href="#DejaVuSans-64" transform="translate(537.255859 0)"/>
      <use xlink:href="#DejaVuSans-73" transform="translate(600.732422 0)"/>
     </g>
    </g>
    <g id="patch_14">
     <path d="M 252.04 78.354688 
L 272.04 78.354688 
L 272.04 71.354688 
L 252.04 71.354688 
z
" style="fill: #228b22; fill-opacity: 0.4"/>
    </g>
    <g id="text_14">
     <!--  80% bounds -->
     <g transform="translate(280.04 78.354688) scale(0.1 -0.1)">
      <defs>
       <path id="DejaVuSans-38" d="M 2034 2216 
Q 1584 2216 1326 1975 
Q 1069 1734 1069 1313 
Q 1069 891 1326 650 
Q 1584 409 2034 409 
Q 2484 409 2743 651 
Q 3003 894 3003 1313 
Q 3003 1734 2745 1975 
Q 2488 2216 2034 2216 
z
M 1403 2484 
Q 997 2584 770 2862 
Q 544 3141 544 3541 
Q 544 4100 942 4425 
Q 1341 4750 2034 4750 
Q 2731 4750 3128 4425 
Q 3525 4100 3525 3541 
Q 3525 3141 3298 2862 
Q 3072 2584 2669 2484 
Q 3125 2378 3379 2068 
Q 3634 1759 3634 1313 
Q 3634 634 3220 271 
Q 2806 -91 2034 -91 
Q 1263 -91 848 271 
Q 434 634 434 1313 
Q 434 1759 690 2068 
Q 947 2378 1403 2484 
z
M 1172 3481 
Q 1172 3119 1398 2916 
Q 1625 2713 2034 2713 
Q 2441 2713 2670 2916 
Q 2900 3119 2900 3481 
Q 2900 3844 2670 4047 
Q 2441 4250 2034 4250 
Q 1625 4250 1398 4047 
Q 1172 3844 1172 3481 
z
" transform="scale(0.015625)"/>
      </defs>
      <use xlink:href="#DejaVuSans-20"/>
      <use xlink:href="#DejaVuSans-38" transform="translate(31.787109 0)"/>
      <use xlink:href="#DejaVuSans-30" transform="translate(95.410156 0)"/>
      <use xlink:href="#DejaVuSans-25" transform="translate(159.033203 0)"/>
      <use xlink:href="#DejaVuSans-20" transform="translate(254.052734 0)"/>
      <use xlink:href="#DejaVuSans-62" transform="translate(285.839844 0)"/>
      <use xlink:href="#DejaVuSans-6f" transform="translate(349.316406 0)"/>
      <use xlink:href="#DejaVuSans-75" transform="translate(410.498047 0)"/>
      <use xlink:href="#DejaVuSans-6e" transform="translate(473.876953 0)"/>
      <use xlink:href="#DejaVuSans-64" transform="translate(537.255859 0)"/>
      <use xlink:href="#DejaVuSans-73" transform="translate(600.732422 0)"/>
     </g>
    </g>
    <g id="line2d_21">
     <path d="M 252.04 89.532813 
L 262.04 89.532813 
L 272.04 89.532813 
" style="fill: none; stroke-dasharray: 3.7,1.6; stroke-dashoffset: 0; stroke: #7f7f7f"/>
    </g>
    <g id="text_15">
     <!-- model -->
     <g transform="translate(280.04 93.032813) scale(0.1 -0.1)">
      <defs>
       <path id="DejaVuSans-6d" d="M 3328 2828 
Q 3544 3216 3844 3400 
Q 4144 3584 4550 3584 
Q 5097 3584 5394 3201 
Q 5691 2819 5691 2113 
L 5691 0 
L 5113 0 
L 5113 2094 
Q 5113 2597 4934 2840 
Q 4756 3084 4391 3084 
Q 3944 3084 3684 2787 
Q 3425 2491 3425 1978 
L 3425 0 
L 2847 0 
L 2847 2094 
Q 2847 2600 2669 2842 
Q 2491 3084 2119 3084 
Q 1678 3084 1418 2786 
Q 1159 2488 1159 1978 
L 1159 0 
L 581 0 
L 581 3500 
L 1159 3500 
L 1159 2956 
Q 1356 3278 1631 3431 
Q 1906 3584 2284 3584 
Q 2666 3584 2933 3390 
Q 3200 3197 3328 2828 
z
" transform="scale(0.015625)"/>
       <path id="DejaVuSans-65" d="M 3597 1894 
L 3597 1613 
L 953 1613 
Q 991 1019 1311 708 
Q 1631 397 2203 397 
Q 2534 397 2845 478 
Q 3156 559 3463 722 
L 3463 178 
Q 3153 47 2828 -22 
Q 2503 -91 2169 -91 
Q 1331 -91 842 396 
Q 353 884 353 1716 
Q 353 2575 817 3079 
Q 1281 3584 2069 3584 
Q 2775 3584 3186 3129 
Q 3597 2675 3597 1894 
z
M 3022 2063 
Q 3016 2534 2758 2815 
Q 2500 3097 2075 3097 
Q 1594 3097 1305 2825 
Q 1016 2553 972 2059 
L 3022 2063 
z
" transform="scale(0.015625)"/>
       <path id="DejaVuSans-6c" d="M 603 4863 
L 1178 4863 
L 1178 0 
L 603 0 
L 603 4863 
z
" transform="scale(0.015625)"/>
      </defs>
      <use xlink:href="#DejaVuSans-6d"/>
      <use xlink:href="#DejaVuSans-6f" transform="translate(97.412109 0)"/>
      <use xlink:href="#DejaVuSans-64" transform="translate(158.59375 0)"/>
      <use xlink:href="#DejaVuSans-65" transform="translate(222.070312 0)"/>
      <use xlink:href="#DejaVuSans-6c" transform="translate(283.59375 0)"/>
     </g>
    </g>
    <g id="PathCollection_2">
     <g>
      <use xlink:href="#mcd76779f3a" x="262.04" y="105.085938" style="fill: #cd2626; stroke: #cd2626"/>
     </g>
    </g>
    <g id="text_16">
     <!-- train sample -->
     <g transform="translate(280.04 107.710938) scale(0.1 -0.1)">
      <defs>
       <path id="DejaVuSans-74" d="M 1172 4494 
L 1172 3500 
L 2356 3500 
L 2356 3053 
L 1172 3053 
L 1172 1153 
Q 1172 725 1289 603 
Q 1406 481 1766 481 
L 2356 481 
L 2356 0 
L 1766 0 
Q 1100 0 847 248 
Q 594 497 594 1153 
L 594 3053 
L 172 3053 
L 172 3500 
L 594 3500 
L 594 4494 
L 1172 4494 
z
" transform="scale(0.015625)"/>
       <path id="DejaVuSans-72" d="M 2631 2963 
Q 2534 3019 2420 3045 
Q 2306 3072 2169 3072 
Q 1681 3072 1420 2755 
Q 1159 2438 1159 1844 
L 1159 0 
L 581 0 
L 581 3500 
L 1159 3500 
L 1159 2956 
Q 1341 3275 1631 3429 
Q 1922 3584 2338 3584 
Q 2397 3584 2469 3576 
Q 2541 3569 2628 3553 
L 2631 2963 
z
" transform="scale(0.015625)"/>
       <path id="DejaVuSans-61" d="M 2194 1759 
Q 1497 1759 1228 1600 
Q 959 1441 959 1056 
Q 959 750 1161 570 
Q 1363 391 1709 391 
Q 2188 391 2477 730 
Q 2766 1069 2766 1631 
L 2766 1759 
L 2194 1759 
z
M 3341 1997 
L 3341 0 
L 2766 0 
L 2766 531 
Q 2569 213 2275 61 
Q 1981 -91 1556 -91 
Q 1019 -91 701 211 
Q 384 513 384 1019 
Q 384 1609 779 1909 
Q 1175 2209 1959 2209 
L 2766 2209 
L 2766 2266 
Q 2766 2663 2505 2880 
Q 2244 3097 1772 3097 
Q 1472 3097 1187 3025 
Q 903 2953 641 2809 
L 641 3341 
Q 956 3463 1253 3523 
Q 1550 3584 1831 3584 
Q 2591 3584 2966 3190 
Q 3341 2797 3341 1997 
z
" transform="scale(0.015625)"/>
       <path id="DejaVuSans-69" d="M 603 3500 
L 1178 3500 
L 1178 0 
L 603 0 
L 603 3500 
z
M 603 4863 
L 1178 4863 
L 1178 4134 
L 603 4134 
L 603 4863 
z
" transform="scale(0.015625)"/>
       <path id="DejaVuSans-70" d="M 1159 525 
L 1159 -1331 
L 581 -1331 
L 581 3500 
L 1159 3500 
L 1159 2969 
Q 1341 3281 1617 3432 
Q 1894 3584 2278 3584 
Q 2916 3584 3314 3078 
Q 3713 2572 3713 1747 
Q 3713 922 3314 415 
Q 2916 -91 2278 -91 
Q 1894 -91 1617 61 
Q 1341 213 1159 525 
z
M 3116 1747 
Q 3116 2381 2855 2742 
Q 2594 3103 2138 3103 
Q 1681 3103 1420 2742 
Q 1159 2381 1159 1747 
Q 1159 1113 1420 752 
Q 1681 391 2138 391 
Q 2594 391 2855 752 
Q 3116 1113 3116 1747 
z
" transform="scale(0.015625)"/>
      </defs>
      <use xlink:href="#DejaVuSans-74"/>
      <use xlink:href="#DejaVuSans-72" transform="translate(39.208984 0)"/>
      <use xlink:href="#DejaVuSans-61" transform="translate(80.322266 0)"/>
      <use xlink:href="#DejaVuSans-69" transform="translate(141.601562 0)"/>
      <use xlink:href="#DejaVuSans-6e" transform="translate(169.384766 0)"/>
      <use xlink:href="#DejaVuSans-20" transform="translate(232.763672 0)"/>
      <use xlink:href="#DejaVuSans-73" transform="translate(264.550781 0)"/>
      <use xlink:href="#DejaVuSans-61" transform="translate(316.650391 0)"/>
      <use xlink:href="#DejaVuSans-6d" transform="translate(377.929688 0)"/>
      <use xlink:href="#DejaVuSans-70" transform="translate(475.341797 0)"/>
      <use xlink:href="#DejaVuSans-6c" transform="translate(538.818359 0)"/>
      <use xlink:href="#DejaVuSans-65" transform="translate(566.601562 0)"/>
     </g>
    </g>
    <g id="line2d_22">
     <path d="M 252.04 118.889063 
L 262.04 118.889063 
L 272.04 118.889063 
" style="fill: none; stroke: #1874cd; stroke-linecap: square"/>
    </g>
    <g id="text_17">
     <!-- GPR -->
     <g transform="translate(280.04 122.389063) scale(0.1 -0.1)">
      <defs>
       <path id="DejaVuSans-47" d="M 3809 666 
L 3809 1919 
L 2778 1919 
L 2778 2438 
L 4434 2438 
L 4434 434 
Q 4069 175 3628 42 
Q 3188 -91 2688 -91 
Q 1594 -91 976 548 
Q 359 1188 359 2328 
Q 359 3472 976 4111 
Q 1594 4750 2688 4750 
Q 3144 4750 3555 4637 
Q 3966 4525 4313 4306 
L 4313 3634 
Q 3963 3931 3569 4081 
Q 3175 4231 2741 4231 
Q 1884 4231 1454 3753 
Q 1025 3275 1025 2328 
Q 1025 1384 1454 906 
Q 1884 428 2741 428 
Q 3075 428 3337 486 
Q 3600 544 3809 666 
z
" transform="scale(0.015625)"/>
       <path id="DejaVuSans-50" d="M 1259 4147 
L 1259 2394 
L 2053 2394 
Q 2494 2394 2734 2622 
Q 2975 2850 2975 3272 
Q 2975 3691 2734 3919 
Q 2494 4147 2053 4147 
L 1259 4147 
z
M 628 4666 
L 2053 4666 
Q 2838 4666 3239 4311 
Q 3641 3956 3641 3272 
Q 3641 2581 3239 2228 
Q 2838 1875 2053 1875 
L 1259 1875 
L 1259 0 
L 628 0 
L 628 4666 
z
" transform="scale(0.015625)"/>
       <path id="DejaVuSans-52" d="M 2841 2188 
Q 3044 2119 3236 1894 
Q 3428 1669 3622 1275 
L 4263 0 
L 3584 0 
L 2988 1197 
Q 2756 1666 2539 1819 
Q 2322 1972 1947 1972 
L 1259 1972 
L 1259 0 
L 628 0 
L 628 4666 
L 2053 4666 
Q 2853 4666 3247 4331 
Q 3641 3997 3641 3322 
Q 3641 2881 3436 2590 
Q 3231 2300 2841 2188 
z
M 1259 4147 
L 1259 2491 
L 2053 2491 
Q 2509 2491 2742 2702 
Q 2975 2913 2975 3322 
Q 2975 3731 2742 3939 
Q 2509 4147 2053 4147 
L 1259 4147 
z
" transform="scale(0.015625)"/>
      </defs>
      <use xlink:href="#DejaVuSans-47"/>
      <use xlink:href="#DejaVuSans-50" transform="translate(77.490234 0)"/>
      <use xlink:href="#DejaVuSans-52" transform="translate(137.792969 0)"/>
     </g>
    </g>
   </g>
  </g>
  <g id="text_18">
   <!-- GPR surrogate model and confidence bounds -->
   <g transform="translate(44.369063 13.438125) scale(0.12 -0.12)">
    <defs>
     <path id="DejaVuSans-67" d="M 2906 1791 
Q 2906 2416 2648 2759 
Q 2391 3103 1925 3103 
Q 1463 3103 1205 2759 
Q 947 2416 947 1791 
Q 947 1169 1205 825 
Q 1463 481 1925 481 
Q 2391 481 2648 825 
Q 2906 1169 2906 1791 
z
M 3481 434 
Q 3481 -459 3084 -895 
Q 2688 -1331 1869 -1331 
Q 1566 -1331 1297 -1286 
Q 1028 -1241 775 -1147 
L 775 -588 
Q 1028 -725 1275 -790 
Q 1522 -856 1778 -856 
Q 2344 -856 2625 -561 
Q 2906 -266 2906 331 
L 2906 616 
Q 2728 306 2450 153 
Q 2172 0 1784 0 
Q 1141 0 747 490 
Q 353 981 353 1791 
Q 353 2603 747 3093 
Q 1141 3584 1784 3584 
Q 2172 3584 2450 3431 
Q 2728 3278 2906 2969 
L 2906 3500 
L 3481 3500 
L 3481 434 
z
" transform="scale(0.015625)"/>
     <path id="DejaVuSans-63" d="M 3122 3366 
L 3122 2828 
Q 2878 2963 2633 3030 
Q 2388 3097 2138 3097 
Q 1578 3097 1268 2742 
Q 959 2388 959 1747 
Q 959 1106 1268 751 
Q 1578 397 2138 397 
Q 2388 397 2633 464 
Q 2878 531 3122 666 
L 3122 134 
Q 2881 22 2623 -34 
Q 2366 -91 2075 -91 
Q 1284 -91 818 406 
Q 353 903 353 1747 
Q 353 2603 823 3093 
Q 1294 3584 2113 3584 
Q 2378 3584 2631 3529 
Q 2884 3475 3122 3366 
z
" transform="scale(0.015625)"/>
     <path id="DejaVuSans-66" d="M 2375 4863 
L 2375 4384 
L 1825 4384 
Q 1516 4384 1395 4259 
Q 1275 4134 1275 3809 
L 1275 3500 
L 2222 3500 
L 2222 3053 
L 1275 3053 
L 1275 0 
L 697 0 
L 697 3053 
L 147 3053 
L 147 3500 
L 697 3500 
L 697 3744 
Q 697 4328 969 4595 
Q 1241 4863 1831 4863 
L 2375 4863 
z
" transform="scale(0.015625)"/>
    </defs>
    <use xlink:href="#DejaVuSans-47"/>
    <use xlink:href="#DejaVuSans-50" transform="translate(77.490234 0)"/>
    <use xlink:href="#DejaVuSans-52" transform="translate(137.792969 0)"/>
    <use xlink:href="#DejaVuSans-20" transform="translate(207.275391 0)"/>
    <use xlink:href="#DejaVuSans-73" transform="translate(239.0625 0)"/>
    <use xlink:href="#DejaVuSans-75" transform="translate(291.162109 0)"/>
    <use xlink:href="#DejaVuSans-72" transform="translate(354.541016 0)"/>
    <use xlink:href="#DejaVuSans-72" transform="translate(393.904297 0)"/>
    <use xlink:href="#DejaVuSans-6f" transform="translate(432.767578 0)"/>
    <use xlink:href="#DejaVuSans-67" transform="translate(493.949219 0)"/>
    <use xlink:href="#DejaVuSans-61" transform="translate(557.425781 0)"/>
    <use xlink:href="#DejaVuSans-74" transform="translate(618.705078 0)"/>
    <use xlink:href="#DejaVuSans-65" transform="translate(657.914062 0)"/>
    <use xlink:href="#DejaVuSans-20" transform="translate(719.4375 0)"/>
    <use xlink:href="#DejaVuSans-6d" transform="translate(751.224609 0)"/>
    <use xlink:href="#DejaVuSans-6f" transform="translate(848.636719 0)"/>
    <use xlink:href="#DejaVuSans-64" transform="translate(909.818359 0)"/>
    <use xlink:href="#DejaVuSans-65" transform="translate(973.294922 0)"/>
    <use xlink:href="#DejaVuSans-6c" transform="translate(1034.818359 0)"/>
    <use xlink:href="#DejaVuSans-20" transform="translate(1062.601562 0)"/>
    <use xlink:href="#DejaVuSans-61" transform="translate(1094.388672 0)"/>
    <use xlink:href="#DejaVuSans-6e" transform="translate(1155.667969 0)"/>
    <use xlink:href="#DejaVuSans-64" transform="translate(1219.046875 0)"/>
    <use xlink:href="#DejaVuSans-20" transform="translate(1282.523438 0)"/>
    <use xlink:href="#DejaVuSans-63" transform="translate(1314.310547 0)"/>
    <use xlink:href="#DejaVuSans-6f" transform="translate(1369.291016 0)"/>
    <use xlink:href="#DejaVuSans-6e" transform="translate(1430.472656 0)"/>
    <use xlink:href="#DejaVuSans-66" transform="translate(1493.851562 0)"/>
    <use xlink:href="#DejaVuSans-69" transform="translate(1529.056641 0)"/>
    <use xlink:href="#DejaVuSans-64" transform="translate(1556.839844 0)"/>
    <use xlink:href="#DejaVuSans-65" transform="translate(1620.316406 0)"/>
    <use xlink:href="#DejaVuSans-6e" transform="translate(1681.839844 0)"/>
    <use xlink:href="#DejaVuSans-63" transform="translate(1745.21875 0)"/>
    <use xlink:href="#DejaVuSans-65" transform="translate(1800.199219 0)"/>
    <use xlink:href="#DejaVuSans-20" transform="translate(1861.722656 0)"/>
    <use xlink:href="#DejaVuSans-62" transform="translate(1893.509766 0)"/>
    <use xlink:href="#DejaVuSans-6f" transform="translate(1956.986328 0)"/>
    <use xlink:href="#DejaVuSans-75" transform="translate(2018.167969 0)"/>
    <use xlink:href="#DejaVuSans-6e" transform="translate(2081.546875 0)"/>
    <use xlink:href="#DejaVuSans-64" transform="translate(2144.925781 0)"/>
    <use xlink:href="#DejaVuSans-73" transform="translate(2208.402344 0)"/>
   </g>
  </g>
 </g>
 <defs>
  <clipPath id="pf7c9eeb636">
   <rect x="56.18" y="32.4" width="186.86" height="141.64"/>
  </clipPath>
 </defs>
</svg>
