<?xml version="1.0" encoding="utf-8" standalone="no"?>
<!DOCTYPE svg PUBLIC "-//W3C//DTD SVG 1.1//EN"
  "http://www.w3.org/Graphics/SVG/1.1/DTD/svg11.dtd">
<svg xmlns:xlink="http://www.w3.org/1999/xlink" width="460.8pt" height="345.6pt" viewBox="0 0 460.8 345.6" xmlns="http://www.w3.org/2000/svg" version="1.1">
 <metadata>
  <rdf:RDF xmlns:dc="http://purl.org/dc/elements/1.1/" xmlns:cc="http://creativecommons.org/ns#" xmlns:rdf="http://www.w3.org/1999/02/22-rdf-syntax-ns#">
   <cc:Work>
    <dc:type rdf:resource="http://purl.org/dc/dcmitype/StillImage"/>
    <dc:date>2022-01-01T00:00:00+00:00</dc:date>
    <dc:format>image/svg+xml</dc:format>
    <dc:creator>
     <cc:Agent>
      <dc:title>Matplotlib v3.10.8, https://matplotlib.org/</dc:title>
     </cc:Agent>
    </dc:creator>
   </cc:Work>
  </rdf:RDF>
 </metadata>
 <defs>
  <style type="text/css">*{stroke-linejoin: round; stroke-linecap: butt}</style>
 </defs>
 <g id="figure_1">
  <g id="patch_1">
   <path d="M 0 345.6 
L 460.8 345.6 
L 460.8 0 
L 0 0 
z
" style="fill: #ffffff"/>
  </g>
  <g id="axes_1">
   <g id="patch_2">
    <path d="M 57.6 307.584 
L 414.72 307.584 
L 414.72 41.472 
L 57.6 41.472 
z
" style="fill: #ffffff"/>
   </g>
   <g id="matplotlib.axis_1">
    <g id="xtick_1">
     <g id="line2d_1">
      <path d="M 73.832727 307.584 
L 73.832727 41.472 
" clip-path="url(#pf94ec7c1c3)" style="fill: none; stroke: #b0b0b0; stroke-width: 0.8; stroke-linecap: square"/>
     </g>
     <g id="line2d_2">
      <defs>
       <path id="m888b89c722" d="M 0 0 
L 0 3.5 
" style="stroke: #000000; stroke-width: 0.8"/>
      </defs>
      <g>
       <use xlink:href="#m888b89c722" x="73.832727" y="307.584" style="stroke: #000000; stroke-width: 0.8"/>
      </g>
     </g>
     <g id="text_1">
      <!-- −1.00 -->
      <g transform="translate(58.510071 322.182437) scale(0.1 -0.1)">
       <defs>
        <path id="DejaVuSans-2212" d="M 678 2272 
L 4684 2272 
L 4684 1741 
L 678 1741 
L 678 2272 
z
" transform="scale(0.015625)"/>
        <path id="DejaVuSans-31" d="M 794 531 
L 1825 531 
L 1825 4091 
L 703 3866 
L 703 4441 
L 1819 4666 
L 2450 4666 
L 2450 531 
L 3481 531 
L 3481 0 
L 794 0 
L 794 531 
z
" transform="scale(0.015625)"/>
        <path id="DejaVuSans-2e" d="M 684 794 
L 1344 794 
L 1344 0 
L 684 0 
L 684 794 
z
" transform="scale(0.015625)"/>
        <path id="DejaVuSans-30" d="M 2034 4250 
Q 1547 4250 1301 3770 
Q 1056 3291 1056 2328 
Q 1056 1369 1301 889 
Q 1547 409 2034 409 
Q 2525 409 2770 889 
Q 3016 1369 3016 2328 
Q 3016 3291 2770 3770 
Q 2525 4250 2034 4250 
z
M 2034 4750 
Q 2819 4750 3233 4129 
Q 3647 3509 3647 2328 
Q 3647 1150 3233 529 
Q 2819 -91 2034 -91 
Q 1250 -91 836 529 
Q 422 1150 422 2328 
Q 422 3509 836 4129 
Q 1250 4750 2034 4750 
z
" transform="scale(0.015625)"/>
       </defs>
       <use xlink:href="#DejaVuSans-2212"/>
       <use xlink:href="#DejaVuSans-31" transform="translate(83.789062 0)"/>
       <use xlink:href="#DejaVuSans-2e" transform="translate(147.412109 0)"/>
       <use xlink:href="#DejaVuSans-30" transform="translate(179.199219 0)"/>
       <use xlink:href="#DejaVuSans-30" transform="translate(242.822266 0)"/>
      </g>
     </g>
    </g>
    <g id="xtick_2">
     <g id="line2d_3">
      <path d="M 114.414545 307.584 
L 114.414545 41.472 
" clip-path="url(#pf94ec7c1c3)" style="fill: none; stroke: #b0b0b0; stroke-width: 0.8; stroke-linecap: square"/>
     </g>
     <g id="line2d_4">
      <g>
       <use xlink:href="#m888b89c722" x="114.414545" y="307.584" style="stroke: #000000; stroke-width: 0.8"/>
      </g>
     </g>
     <g id="text_2">
      <!-- −0.75 -->
      <g transform="translate(99.091889 322.182437) scale(0.1 -0.1)">
       <defs>
        <path id="DejaVuSans-37" d="M 525 4666 
L 3525 4666 
L 3525 4397 
L 1831 0 
L 1172 0 
L 2766 4134 
L 525 4134 
L 525 4666 
z
" transform="scale(0.015625)"/>
        <path id="DejaVuSans-35" d="M 691 4666 
L 3169 4666 
L 3169 4134 
L 1269 4134 
L 1269 2991 
Q 1406 3038 1543 3061 
Q 1681 3084 1819 3084 
Q 2600 3084 3056 2656 
Q 3513 2228 3513 1497 
Q 3513 744 3044 326 
Q 2575 -91 1722 -91 
Q 1428 -91 1123 -41 
Q 819 9 494 109 
L 494 744 
Q 775 591 1075 516 
Q 1375 441 1709 441 
Q 2250 441 2565 725 
Q 2881 1009 2881 1497 
Q 2881 1984 2565 2268 
Q 2250 2553 1709 2553 
Q 1456 2553 1204 2497 
Q 953 2441 691 2322 
L 691 4666 
z
" transform="scale(0.015625)"/>
       </defs>
       <use xlink:href="#DejaVuSans-2212"/>
       <use xlink:href="#DejaVuSans-30" transform="translate(83.789062 0)"/>
       <use xlink:href="#DejaVuSans-2e" transform="translate(147.412109 0)"/>
       <use xlink:href="#DejaVuSans-37" transform="translate(179.199219 0)"/>
       <use xlink:href="#DejaVuSans-35" transform="translate(242.822266 0)"/>
      </g>
     </g>
    </g>
    <g id="xtick_3">
     <g id="line2d_5">
      <path d="M 154.996364 307.584 
L 154.996364 41.472 
" clip-path="url(#pf94ec7c1c3)" style="fill: none; stroke: #b0b0b0; stroke-width: 0.8; stroke-linecap: square"/>
     </g>
     <g id="line2d_6">
      <g>
       <use xlink:href="#m888b89c722" x="154.996364" y="307.584" style="stroke: #000000; stroke-width: 0.8"/>
      </g>
     </g>
     <g id="text_3">
      <!-- −0.50 -->
      <g transform="translate(139.673707 322.182437) scale(0.1 -0.1)">
       <use xlink:href="#DejaVuSans-2212"/>
       <use xlink:href="#DejaVuSans-30" transform="translate(83.789062 0)"/>
       <use xlink:href="#DejaVuSans-2e" transform="translate(147.412109 0)"/>
       <use xlink:href="#DejaVuSans-35" transform="translate(179.199219 0)"/>
       <use xlink:href="#DejaVuSans-30" transform="translate(242.822266 0)"/>
      </g>
     </g>
    </g>
    <g id="xtick_4">
     <g id="line2d_7">
      <path d="M 195.578182 307.584 
L 195.578182 41.472 
" clip-path="url(#pf94ec7c1c3)" style="fill: none; stroke: #b0b0b0; stroke-width: 0.8; stroke-linecap: square"/>
     </g>
     <g id="line2d_8">
      <g>
       <use xlink:href="#m888b89c722" x="195.578182" y="307.584" style="stroke: #000000; stroke-width: 0.8"/>
      </g>
     </g>
     <g id="text_4">
      <!-- −0.25 -->
      <g transform="translate(180.255526 322.182437) scale(0.1 -0.1)">
       <defs>
        <path id="DejaVuSans-32" d="M 1228 531 
L 3431 531 
L 3431 0 
L 469 0 
L 469 531 
Q 828 903 1448 1529 
Q 2069 2156 2228 2338 
Q 2531 2678 2651 2914 
Q 2772 3150 2772 3378 
Q 2772 3750 2511 3984 
Q 2250 4219 1831 4219 
Q 1534 4219 1204 4116 
Q 875 4013 500 3803 
L 500 4441 
Q 881 4594 1212 4672 
Q 1544 4750 1819 4750 
Q 2544 4750 2975 4387 
Q 3406 4025 3406 3419 
Q 3406 3131 3298 2873 
Q 3191 2616 2906 2266 
Q 2828 2175 2409 1742 
Q 1991 1309 1228 531 
z
" transform="scale(0.015625)"/>
       </defs>
       <use xlink:href="#DejaVuSans-2212"/>
       <use xlink:href="#DejaVuSans-30" transform="translate(83.789062 0)"/>
       <use xlink:href="#DejaVuSans-2e" transform="translate(147.412109 0)"/>
       <use xlink:href="#DejaVuSans-32" transform="translate(179.199219 0)"/>
       <use xlink:href="#DejaVuSans-35" transform="translate(242.822266 0)"/>
      </g>
     </g>
    </g>
    <g id="xtick_5">
     <g id="line2d_9">
      <path d="M 236.16 307.584 
L 236.16 41.472 
" clip-path="url(#pf94ec7c1c3)" style="fill: none; stroke: #b0b0b0; stroke-width: 0.8; stroke-linecap: square"/>
     </g>
     <g id="line2d_10">
      <g>
       <use xlink:href="#m888b89c722" x="236.16" y="307.584" style="stroke: #000000; stroke-width: 0.8"/>
      </g>
     </g>
     <g id="text_5">
      <!-- 0.00 -->
      <g transform="translate(225.027187 322.182437) scale(0.1 -0.1)">
       <use xlink:href="#DejaVuSans-30"/>
       <use xlink:href="#DejaVuSans-2e" transform="translate(63.623047 0)"/>
       <use xlink:href="#DejaVuSans-30" transform="translate(95.410156 0)"/>
       <use xlink:href="#DejaVuSans-30" transform="translate(159.033203 0)"/>
      </g>
     </g>
    </g>
    <g id="xtick_6">
     <g id="line2d_11">
      <path d="M 276.741818 307.584 
L 276.741818 41.472 
" clip-path="url(#pf94ec7c1c3)" style="fill: none; stroke: #b0b0b0; stroke-width: 0.8; stroke-linecap: square"/>
     </g>
     <g id="line2d_12">
      <g>
       <use xlink:href="#m888b89c722" x="276.741818" y="307.584" style="stroke: #000000; stroke-width: 0.8"/>
      </g>
     </g>
     <g id="text_6">
      <!-- 0.25 -->
      <g transform="translate(265.609006 322.182437) scale(0.1 -0.1)">
       <use xlink:href="#DejaVuSans-30"/>
       <use xlink:href="#DejaVuSans-2e" transform="translate(63.623047 0)"/>
       <use xlink:href="#DejaVuSans-32" transform="translate(95.410156 0)"/>
       <use xlink:href="#DejaVuSans-35" transform="translate(159.033203 0)"/>
      </g>
     </g>
    </g>
    <g id="xtick_7">
     <g id="line2d_13">
      <path d="M 317.323636 307.584 
L 317.323636 41.472 
" clip-path="url(#pf94ec7c1c3)" style="fill: none; stroke: #b0b0b0; stroke-width: 0.8; stroke-linecap: square"/>
     </g>
     <g id="line2d_14">
      <g>
       <use xlink:href="#m888b89c722" x="317.323636" y="307.584" style="stroke: #000000; stroke-width: 0.8"/>
      </g>
     </g>
     <g id="text_7">
      <!-- 0.50 -->
      <g transform="translate(306.190824 322.182437) scale(0.1 -0.1)">
       <use xlink:href="#DejaVuSans-30"/>
       <use xlink:href="#DejaVuSans-2e" transform="translate(63.623047 0)"/>
       <use xlink:href="#DejaVuSans-35" transform="translate(95.410156 0)"/>
       <use xlink:href="#DejaVuSans-30" transform="translate(159.033203 0)"/>
      </g>
     </g>
    </g>
    <g id="xtick_8">
     <g id="line2d_15">
      <path d="M 357.905455 307.584 
L 357.905455 41.472 
" clip-path="url(#pf94ec7c1c3)" style="fill: none; stroke: #b0b0b0; stroke-width: 0.8; stroke-linecap: square"/>
     </g>
     <g id="line2d_16">
      <g>
       <use xlink:href="#m888b89c722" x="357.905455" y="307.584" style="stroke: #000000; stroke-width: 0.8"/>
      </g>
     </g>
     <g id="text_8">
      <!-- 0.75 -->
      <g transform="translate(346.772642 322.182437) scale(0.1 -0.1)">
       <use xlink:href="#DejaVuSans-30"/>
       <use xlink:href="#DejaVuSans-2e" transform="translate(63.623047 0)"/>
       <use xlink:href="#DejaVuSans-37" transform="translate(95.410156 0)"/>
       <use xlink:href="#DejaVuSans-35" transform="translate(159.033203 0)"/>
      </g>
     </g>
    </g>
    <g id="xtick_9">
     <g id="line2d_17">
      <path d="M 398.487273 307.584 
L 398.487273 41.472 
" clip-path="url(#pf94ec7c1c3)" style="fill: none; stroke: #b0b0b0; stroke-width: 0.8; stroke-linecap: square"/>
     </g>
     <g id="line2d_18">
      <g>
       <use xlink:href="#m888b89c722" x="398.487273" y="307.584" style="stroke: #000000; stroke-width: 0.8"/>
      </g>
     </g>
     <g id="text_9">
      <!-- 1.00 -->
      <g transform="translate(387.35446 322.182437) scale(0.1 -0.1)">
       <use xlink:href="#DejaVuSans-31"/>
       <use xlink:href="#DejaVuSans-2e" transform="translate(63.623047 0)"/>
       <use xlink:href="#DejaVuSans-30" transform="translate(95.410156 0)"/>
       <use xlink:href="#DejaVuSans-30" transform="translate(159.033203 0)"/>
      </g>
     </g>
    </g>
    <g id="text_10">
     <!-- $t$ -->
     <g transform="translate(234.16 335.860562) scale(0.1 -0.1)">
      <defs>
       <path id="DejaVuSans-Oblique-74" d="M 2706 3500 
L 2619 3053 
L 1472 3053 
L 1100 1153 
Q 1081 1047 1072 975 
Q 1063 903 1063 863 
Q 1063 663 1183 572 
Q 1303 481 1569 481 
L 2150 481 
L 2053 0 
L 1503 0 
Q 991 0 739 200 
Q 488 400 488 806 
Q 488 878 497 964 
Q 506 1050 525 1153 
L 897 3053 
L 409 3053 
L 500 3500 
L 978 3500 
L 1172 4494 
L 1747 4494 
L 1556 3500 
L 2706 3500 
z
" transform="scale(0.015625)"/>
      </defs>
      <use xlink:href="#DejaVuSans-Oblique-74" transform="translate(0 0.78125)"/>
     </g>
    </g>
   </g>
   <g id="matplotlib.axis_2">
    <g id="ytick_1">
     <g id="line2d_19">
      <path d="M 57.6 278.905674 
L 414.72 278.905674 
" clip-path="url(#pf94ec7c1c3)" style="fill: none; stroke: #b0b0b0; stroke-width: 0.8; stroke-linecap: square"/>
     </g>
     <g id="line2d_20">
      <defs>
       <path id="m0c1c2ccc73" d="M 0 0 
L -3.5 0 
" style="stroke: #000000; stroke-width: 0.8"/>
      </defs>
      <g>
       <use xlink:href="#m0c1c2ccc73" x="57.6" y="278.905674" style="stroke: #000000; stroke-width: 0.8"/>
      </g>
     </g>
     <g id="text_11">
      <!-- −0.15 -->
      <g transform="translate(19.954687 282.704893) scale(0.1 -0.1)">
       <use xlink:href="#DejaVuSans-2212"/>
       <use xlink:href="#DejaVuSans-30" transform="translate(83.789062 0)"/>
       <use xlink:href="#DejaVuSans-2e" transform="translate(147.412109 0)"/>
       <use xlink:href="#DejaVuSans-31" transform="translate(179.199219 0)"/>
       <use xlink:href="#DejaVuSans-35" transform="translate(242.822266 0)"/>
      </g>
     </g>
    </g>
    <g id="ytick_2">
     <g id="line2d_21">
      <path d="M 57.6 243.54556 
L 414.72 243.54556 
" clip-path="url(#pf94ec7c1c3)" style="fill: none; stroke: #b0b0b0; stroke-width: 0.8; stroke-linecap: square"/>
     </g>
     <g id="line2d_22">
      <g>
       <use xlink:href="#m0c1c2ccc73" x="57.6" y="243.54556" style="stroke: #000000; stroke-width: 0.8"/>
      </g>
     </g>
     <g id="text_12">
      <!-- −0.10 -->
      <g transform="translate(19.954687 247.344779) scale(0.1 -0.1)">
       <use xlink:href="#DejaVuSans-2212"/>
       <use xlink:href="#DejaVuSans-30" transform="translate(83.789062 0)"/>
       <use xlink:href="#DejaVuSans-2e" transform="translate(147.412109 0)"/>
       <use xlink:href="#DejaVuSans-31" transform="translate(179.199219 0)"/>
       <use xlink:href="#DejaVuSans-30" transform="translate(242.822266 0)"/>
      </g>
     </g>
    </g>
    <g id="ytick_3">
     <g id="line2d_23">
      <path d="M 57.6 208.185447 
L 414.72 208.185447 
" clip-path="url(#pf94ec7c1c3)" style="fill: none; stroke: #b0b0b0; stroke-width: 0.8; stroke-linecap: square"/>
     </g>
     <g id="line2d_24">
      <g>
       <use xlink:href="#m0c1c2ccc73" x="57.6" y="208.185447" style="stroke: #000000; stroke-width: 0.8"/>
      </g>
     </g>
     <g id="text_13">
      <!-- −0.05 -->
      <g transform="translate(19.954687 211.984665) scale(0.1 -0.1)">
       <use xlink:href="#DejaVuSans-2212"/>
       <use xlink:href="#DejaVuSans-30" transform="translate(83.789062 0)"/>
       <use xlink:href="#DejaVuSans-2e" transform="translate(147.412109 0)"/>
       <use xlink:href="#DejaVuSans-30" transform="translate(179.199219 0)"/>
       <use xlink:href="#DejaVuSans-35" transform="translate(242.822266 0)"/>
      </g>
     </g>
    </g>
    <g id="ytick_4">
     <g id="line2d_25">
      <path d="M 57.6 172.825333 
L 414.72 172.825333 
" clip-path="url(#pf94ec7c1c3)" style="fill: none; stroke: #b0b0b0; stroke-width: 0.8; stroke-linecap: square"/>
     </g>
     <g id="line2d_26">
      <g>
       <use xlink:href="#m0c1c2ccc73" x="57.6" y="172.825333" style="stroke: #000000; stroke-width: 0.8"/>
      </g>
     </g>
     <g id="text_14">
      <!-- 0.00 -->
      <g transform="translate(28.334375 176.624551) scale(0.1 -0.1)">
       <use xlink:href="#DejaVuSans-30"/>
       <use xlink:href="#DejaVuSans-2e" transform="translate(63.623047 0)"/>
       <use xlink:href="#DejaVuSans-30" transform="translate(95.410156 0)"/>
       <use xlink:href="#DejaVuSans-30" transform="translate(159.033203 0)"/>
      </g>
     </g>
    </g>
    <g id="ytick_5">
     <g id="line2d_27">
      <path d="M 57.6 137.465219 
L 414.72 137.465219 
" clip-path="url(#pf94ec7c1c3)" style="fill: none; stroke: #b0b0b0; stroke-width: 0.8; stroke-linecap: square"/>
     </g>
     <g id="line2d_28">
      <g>
       <use xlink:href="#m0c1c2ccc73" x="57.6" y="137.465219" style="stroke: #000000; stroke-width: 0.8"/>
      </g>
     </g>
     <g id="text_15">
      <!-- 0.05 -->
      <g transform="translate(28.334375 141.264437) scale(0.1 -0.1)">
       <use xlink:href="#DejaVuSans-30"/>
       <use xlink:href="#DejaVuSans-2e" transform="translate(63.623047 0)"/>
       <use xlink:href="#DejaVuSans-30" transform="translate(95.410156 0)"/>
       <use xlink:href="#DejaVuSans-35" transform="translate(159.033203 0)"/>
      </g>
     </g>
    </g>
    <g id="ytick_6">
     <g id="line2d_29">
      <path d="M 57.6 102.105105 
L 414.72 102.105105 
" clip-path="url(#pf94ec7c1c3)" style="fill: none; stroke: #b0b0b0; stroke-width: 0.8; stroke-linecap: square"/>
     </g>
     <g id="line2d_30">
      <g>
       <use xlink:href="#m0c1c2ccc73" x="57.6" y="102.105105" style="stroke: #000000; stroke-width: 0.8"/>
      </g>
     </g>
     <g id="text_16">
      <!-- 0.10 -->
      <g transform="translate(28.334375 105.904323) scale(0.1 -0.1)">
       <use xlink:href="#DejaVuSans-30"/>
       <use xlink:href="#DejaVuSans-2e" transform="translate(63.623047 0)"/>
       <use xlink:href="#DejaVuSans-31" transform="translate(95.410156 0)"/>
       <use xlink:href="#DejaVuSans-30" transform="translate(159.033203 0)"/>
      </g>
     </g>
    </g>
    <g id="ytick_7">
     <g id="line2d_31">
      <path d="M 57.6 66.744991 
L 414.72 66.744991 
" clip-path="url(#pf94ec7c1c3)" style="fill: none; stroke: #b0b0b0; stroke-width: 0.8; stroke-linecap: square"/>
     </g>
     <g id="line2d_32">
      <g>
       <use xlink:href="#m0c1c2ccc73" x="57.6" y="66.744991" style="stroke: #000000; stroke-width: 0.8"/>
      </g>
     </g>
     <g id="text_17">
      <!-- 0.15 -->
      <g transform="translate(28.334375 70.544209) scale(0.1 -0.1)">
       <use xlink:href="#DejaVuSans-30"/>
       <use xlink:href="#DejaVuSans-2e" transform="translate(63.623047 0)"/>
       <use xlink:href="#DejaVuSans-31" transform="translate(95.410156 0)"/>
       <use xlink:href="#DejaVuSans-35" transform="translate(159.033203 0)"/>
      </g>
     </g>
    </g>
    <g id="text_18">
     <!-- $Y$, $\tilde{Y}$ -->
     <g transform="translate(13.875 183.828) rotate(-90) scale(0.1 -0.1)">
      <defs>
       <path id="DejaVuSans-Oblique-59" d="M 403 4666 
L 1081 4666 
L 1953 2747 
L 3616 4666 
L 4325 4666 
L 2209 2222 
L 1778 0 
L 1147 0 
L 1575 2222 
L 403 4666 
z
" transform="scale(0.015625)"/>
       <path id="DejaVuSans-2c" d="M 750 794 
L 1409 794 
L 1409 256 
L 897 -744 
L 494 -744 
L 750 256 
L 750 794 
z
" transform="scale(0.015625)"/>
       <path id="DejaVuSans-20" transform="scale(0.015625)"/>
       <path id="DejaVuSans-303" d="M -1619 4281 
L -1797 4453 
Q -1866 4516 -1917 4545 
Q -1969 4575 -2009 4575 
Q -2128 4575 -2184 4461 
Q -2241 4347 -2247 4091 
L -2638 4091 
Q -2631 4513 -2472 4742 
Q -2313 4972 -2028 4972 
Q -1909 4972 -1809 4928 
Q -1709 4884 -1594 4781 
L -1416 4609 
Q -1347 4547 -1295 4517 
Q -1244 4488 -1203 4488 
Q -1084 4488 -1028 4602 
Q -972 4716 -966 4972 
L -575 4972 
Q -581 4550 -740 4320 
Q -900 4091 -1184 4091 
Q -1303 4091 -1403 4134 
Q -1503 4178 -1619 4281 
z
" transform="scale(0.015625)"/>
      </defs>
      <use xlink:href="#DejaVuSans-Oblique-59" transform="translate(0 0.828125)"/>
      <use xlink:href="#DejaVuSans-2c" transform="translate(61.083984 0.828125)"/>
      <use xlink:href="#DejaVuSans-20" transform="translate(92.871094 0.828125)"/>
      <use xlink:href="#DejaVuSans-303" transform="translate(188.147949 22.3125)"/>
      <use xlink:href="#DejaVuSans-Oblique-59" transform="translate(124.658203 0.828125)"/>
     </g>
    </g>
   </g>
   <g id="line2d_33">
    <path d="M 73.832727 156.560668 
L 80.45833 144.343903 
L 87.083933 130.073535 
L 93.709536 110.978392 
L 100.335139 100.233702 
L 106.960742 107.784814 
L 113.586345 122.209215 
L 120.211948 136.962529 
L 126.837551 147.329046 
L 133.463154 150.543686 
L 140.088757 148.192618 
L 146.71436 137.213193 
L 153.339963 124.645428 
L 159.965566 119.903473 
L 166.591169 113.911942 
L 173.216772 102.262238 
L 179.842375 106.853709 
L 186.467978 130.019035 
L 193.093581 149.835613 
L 199.719184 158.863614 
L 206.344787 162.896871 
L 212.97039 169.169799 
L 219.595993 178.014651 
L 226.221596 186.133928 
L 232.847199 186.019076 
L 239.472801 175.322473 
L 246.098404 171.452798 
L 252.724007 175.985844 
L 259.34961 182.06135 
L 265.975213 188.951809 
L 272.600816 194.819955 
L 279.226419 200.237641 
L 285.852022 208.890287 
L 292.477625 218.645259 
L 299.103228 221.565728 
L 305.728831 217.034013 
L 312.354434 217.957994 
L 318.980037 233.323957 
L 325.60564 247.441987 
L 332.231243 247.51151 
L 338.856846 244.332145 
L 345.482449 240.346666 
L 352.108052 241.231625 
L 358.733655 252.567596 
L 365.359258 261.82777 
L 371.984861 258.043367 
L 378.610464 253.699166 
L 385.236067 261.702057 
L 391.86167 261.41215 
L 398.487273 228.166976 
" clip-path="url(#pf94ec7c1c3)" style="fill: none; stroke: #1f77b4; stroke-linecap: square"/>
   </g>
   <g id="line2d_34">
    <path d="M 73.832727 188.63983 
L 80.45833 197.083018 
L 87.083933 193.437029 
L 93.709536 181.738636 
L 100.335139 170.02925 
L 106.960742 162.404045 
L 113.586345 166.390936 
L 120.211948 168.736683 
L 126.837551 163.701374 
L 133.463154 170.902569 
L 140.088757 186.935072 
L 146.71436 192.022564 
L 153.339963 191.363582 
L 159.965566 190.683405 
L 166.591169 186.42828 
L 173.216772 178.352042 
L 179.842375 171.158833 
L 186.467978 172.280342 
L 193.093581 179.443705 
L 199.719184 177.731494 
L 206.344787 162.929122 
L 212.97039 144.157341 
L 219.595993 135.517391 
L 226.221596 138.497116 
L 232.847199 149.014697 
L 239.472801 162.865156 
L 246.098404 175.431386 
L 252.724007 182.327137 
L 259.34961 189.683593 
L 265.975213 207.557287 
L 272.600816 230.680146 
L 279.226419 247.198057 
L 285.852022 248.958376 
L 292.477625 235.530026 
L 299.103228 224.701609 
L 305.728831 221.116218 
L 312.354434 221.84385 
L 318.980037 228.654508 
L 325.60564 238.15759 
L 332.231243 240.515279 
L 338.856846 236.142531 
L 345.482449 228.736444 
L 352.108052 222.703505 
L 358.733655 221.158819 
L 365.359258 222.770961 
L 371.984861 221.852567 
L 378.610464 222.704112 
L 385.236067 228.675565 
L 391.86167 224.011914 
L 398.487273 201.413342 
" clip-path="url(#pf94ec7c1c3)" style="fill: none; stroke: #ff7f0e; stroke-linecap: square"/>
   </g>
   <g id="line2d_35">
    <path d="M 73.832727 184.192579 
L 80.45833 200.005431 
L 87.083933 214.031975 
L 93.709536 219.321348 
L 100.335139 216.496295 
L 106.960742 203.237171 
L 113.586345 182.598722 
L 120.211948 171.004472 
L 126.837551 162.87624 
L 133.463154 154.497764 
L 140.088757 152.130644 
L 146.71436 154.345926 
L 153.339963 155.277442 
L 159.965566 153.279435 
L 166.591169 158.629682 
L 173.216772 177.010222 
L 179.842375 190.410656 
L 186.467978 191.445583 
L 193.093581 185.395005 
L 199.719184 180.052099 
L 206.344787 172.271247 
L 212.97039 154.981191 
L 219.595993 132.811896 
L 226.221596 118.413663 
L 232.847199 111.474685 
L 239.472801 105.479788 
L 246.098404 91.951554 
L 252.724007 76.069609 
L 259.34961 63.053147 
L 265.975213 53.568212 
L 272.600816 54.109967 
L 279.226419 61.815113 
L 285.852022 75.071053 
L 292.477625 91.089832 
L 299.103228 100.057388 
L 305.728831 103.39571 
L 312.354434 107.204402 
L 318.980037 116.791147 
L 325.60564 137.832187 
L 332.231243 163.388904 
L 338.856846 176.42675 
L 345.482449 183.367685 
L 352.108052 187.835144 
L 358.733655 185.722133 
L 365.359258 190.789033 
L 371.984861 202.823138 
L 378.610464 206.197338 
L 385.236067 201.802775 
L 391.86167 194.086816 
L 398.487273 183.587562 
" clip-path="url(#pf94ec7c1c3)" style="fill: none; stroke: #2ca02c; stroke-linecap: square"/>
   </g>
   <g id="line2d_36">
    <path d="M 73.832727 195.618092 
L 80.45833 210.578554 
L 87.083933 209.744675 
L 93.709536 204.157938 
L 100.335139 207.70507 
L 106.960742 229.414064 
L 113.586345 260.373777 
L 120.211948 282.242083 
L 126.837551 286.19646 
L 133.463154 283.32729 
L 140.088757 282.387871 
L 146.71436 284.01069 
L 153.339963 287.163348 
L 159.965566 277.998781 
L 166.591169 255.081189 
L 173.216772 229.64786 
L 179.842375 214.092735 
L 186.467978 219.654934 
L 193.093581 233.72878 
L 199.719184 234.832479 
L 206.344787 226.392474 
L 212.97039 221.408032 
L 219.595993 224.048713 
L 226.221596 233.290465 
L 232.847199 248.770479 
L 239.472801 264.168317 
L 246.098404 266.477048 
L 252.724007 255.313683 
L 259.34961 241.060268 
L 265.975213 227.184455 
L 272.600816 215.134478 
L 279.226419 204.061997 
L 285.852022 190.158225 
L 292.477625 176.952462 
L 299.103228 168.478186 
L 305.728831 162.700565 
L 312.354434 160.055567 
L 318.980037 159.243406 
L 325.60564 154.279895 
L 332.231243 143.433092 
L 338.856846 143.957897 
L 345.482449 153.781242 
L 352.108052 154.36122 
L 358.733655 140.595381 
L 365.359258 129.157743 
L 371.984861 127.677554 
L 378.610464 121.616848 
L 385.236067 108.473533 
L 391.86167 104.740073 
L 398.487273 128.77509 
" clip-path="url(#pf94ec7c1c3)" style="fill: none; stroke: #d62728; stroke-linecap: square"/>
   </g>
   <g id="line2d_37">
    <path d="M 73.832727 205.158009 
L 80.45833 235.800311 
L 87.083933 248.463351 
L 93.709536 231.400969 
L 100.335139 197.594018 
L 106.960742 170.343155 
L 113.586345 154.7366 
L 120.211948 156.041058 
L 126.837551 169.7726 
L 133.463154 180.818221 
L 140.088757 185.716581 
L 146.71436 183.609745 
L 153.339963 181.8416 
L 159.965566 190.722824 
L 166.591169 211.207786 
L 173.216772 232.615045 
L 179.842375 240.622799 
L 186.467978 232.239027 
L 193.093581 216.811431 
L 199.719184 204.541718 
L 206.344787 197.643445 
L 212.97039 187.057898 
L 219.595993 164.070541 
L 226.221596 131.132708 
L 232.847199 106.302087 
L 239.472801 97.254499 
L 246.098404 103.59592 
L 252.724007 125.783149 
L 259.34961 156.137003 
L 265.975213 183.751459 
L 272.600816 204.566529 
L 279.226419 212.955055 
L 285.852022 207.593337 
L 292.477625 202.592912 
L 299.103228 203.999446 
L 305.728831 206.997591 
L 312.354434 203.6274 
L 318.980037 199.045875 
L 325.60564 198.032601 
L 332.231243 197.33942 
L 338.856846 188.01959 
L 345.482449 160.400874 
L 352.108052 129.92751 
L 358.733655 115.847554 
L 365.359258 117.539658 
L 371.984861 134.439554 
L 378.610464 161.460862 
L 385.236067 184.094654 
L 391.86167 191.883852 
L 398.487273 187.454104 
" clip-path="url(#pf94ec7c1c3)" style="fill: none; stroke: #9467bd; stroke-linecap: square"/>
   </g>
   <g id="line2d_38">
    <path d="M 73.832727 204.867694 
L 80.45833 239.094716 
L 87.083933 267.900904 
L 93.709536 274.360293 
L 100.335139 261.92509 
L 106.960742 238.404494 
L 113.586345 212.546916 
L 120.211948 199.709849 
L 126.837551 199.029806 
L 133.463154 197.984157 
L 140.088757 188.828007 
L 146.71436 174.183373 
L 153.339963 163.973558 
L 159.965566 165.192707 
L 166.591169 164.767807 
L 173.216772 154.543245 
L 179.842375 146.976547 
L 186.467978 154.002868 
L 193.093581 172.562139 
L 199.719184 195.920034 
L 206.344787 220.506088 
L 212.97039 235.486334 
L 219.595993 239.403774 
L 226.221596 229.892967 
L 232.847199 206.211756 
L 239.472801 193.757128 
L 246.098404 197.980459 
L 252.724007 198.16662 
L 259.34961 184.848463 
L 265.975213 174.323507 
L 272.600816 171.68788 
L 279.226419 166.52061 
L 285.852022 155.549743 
L 292.477625 144.866499 
L 299.103228 150.038679 
L 305.728831 157.605893 
L 312.354434 154.508816 
L 318.980037 150.158817 
L 325.60564 147.798416 
L 332.231243 152.018213 
L 338.856846 165.020279 
L 345.482449 186.38177 
L 352.108052 213.935295 
L 358.733655 238.211447 
L 365.359258 245.299554 
L 371.984861 240.268836 
L 378.610464 246.209489 
L 385.236067 259.470027 
L 391.86167 253.204197 
L 398.487273 218.820481 
" clip-path="url(#pf94ec7c1c3)" style="fill: none; stroke: #8c564b; stroke-linecap: square"/>
   </g>
   <g id="line2d_39">
    <path d="M 73.832727 197.174 
L 80.45833 207.846056 
L 87.083933 208.895746 
L 93.709536 207.799571 
L 100.335139 203.608591 
L 106.960742 193.022053 
L 113.586345 188.507209 
L 120.211948 199.24184 
L 126.837551 213.40407 
L 133.463154 216.392648 
L 140.088757 201.728224 
L 146.71436 178.399341 
L 153.339963 155.092144 
L 159.965566 129.320239 
L 166.591169 98.248842 
L 173.216772 78.613006 
L 179.842375 78.48647 
L 186.467978 83.576515 
L 193.093581 83.309281 
L 199.719184 77.112038 
L 206.344787 70.453025 
L 212.97039 64.5211 
L 219.595993 59.616834 
L 226.221596 58.028087 
L 232.847199 61.883628 
L 239.472801 71.374492 
L 246.098404 89.789135 
L 252.724007 103.952015 
L 259.34961 99.405609 
L 265.975213 94.324587 
L 272.600816 99.802907 
L 279.226419 108.301266 
L 285.852022 114.063061 
L 292.477625 116.791602 
L 299.103228 119.477138 
L 305.728831 121.221872 
L 312.354434 113.951239 
L 318.980037 109.949312 
L 325.60564 114.509989 
L 332.231243 109.757134 
L 338.856846 96.65892 
L 345.482449 89.215105 
L 352.108052 96.092169 
L 358.733655 113.288177 
L 365.359258 135.331081 
L 371.984861 147.326898 
L 378.610464 147.932662 
L 385.236067 145.467947 
L 391.86167 145.744182 
L 398.487273 156.773874 
" clip-path="url(#pf94ec7c1c3)" style="fill: none; stroke: #e377c2; stroke-linecap: square"/>
   </g>
   <g id="line2d_40">
    <path d="M 73.832727 179.692322 
L 80.45833 172.786162 
L 87.083933 158.768475 
L 93.709536 149.482579 
L 100.335139 148.030594 
L 106.960742 149.076494 
L 113.586345 150.176757 
L 120.211948 157.143657 
L 126.837551 172.871087 
L 133.463154 189.031163 
L 140.088757 206.321767 
L 146.71436 224.35591 
L 153.339963 236.064382 
L 159.965566 235.130322 
L 166.591169 222.01547 
L 173.216772 204.832469 
L 179.842375 192.170531 
L 186.467978 189.288133 
L 193.093581 204.227563 
L 199.719184 223.844641 
L 206.344787 234.717457 
L 212.97039 244.750888 
L 219.595993 250.58867 
L 226.221596 247.205812 
L 232.847199 241.401311 
L 239.472801 231.935183 
L 246.098404 211.046546 
L 252.724007 188.055506 
L 259.34961 182.445749 
L 265.975213 199.725553 
L 272.600816 214.243814 
L 279.226419 210.579509 
L 285.852022 205.400815 
L 292.477625 203.370572 
L 299.103228 200.922862 
L 305.728831 200.614915 
L 312.354434 203.254301 
L 318.980037 206.865925 
L 325.60564 206.130659 
L 332.231243 200.377626 
L 338.856846 193.227786 
L 345.482449 184.328904 
L 352.108052 177.207025 
L 358.733655 174.069145 
L 365.359258 176.114854 
L 371.984861 178.752059 
L 378.610464 173.769861 
L 385.236067 166.298369 
L 391.86167 165.708047 
L 398.487273 169.147717 
" clip-path="url(#pf94ec7c1c3)" style="fill: none; stroke: #7f7f7f; stroke-linecap: square"/>
   </g>
   <g id="line2d_41">
    <path d="M 73.832727 216.571676 
L 80.45833 244.36265 
L 87.083933 252.001718 
L 93.709536 255.00605 
L 100.335139 261.898749 
L 106.960742 265.371504 
L 113.586345 263.062013 
L 120.211948 251.730719 
L 126.837551 241.801971 
L 133.463154 237.513808 
L 140.088757 235.007164 
L 146.71436 232.191718 
L 153.339963 224.979318 
L 159.965566 218.106439 
L 166.591169 214.923059 
L 173.216772 213.365933 
L 179.842375 213.483299 
L 186.467978 209.842797 
L 193.093581 198.634189 
L 199.719184 182.244937 
L 206.344787 164.501771 
L 212.97039 151.029973 
L 219.595993 151.560023 
L 226.221596 174.407596 
L 232.847199 204.106902 
L 239.472801 230.882572 
L 246.098404 247.026613 
L 252.724007 244.822052 
L 259.34961 237.242926 
L 265.975213 233.274446 
L 272.600816 231.844989 
L 279.226419 233.53735 
L 285.852022 236.239442 
L 292.477625 243.205186 
L 299.103228 257.969859 
L 305.728831 274.951963 
L 312.354434 283.593823 
L 318.980037 277.096137 
L 325.60564 262.315104 
L 332.231243 253.752012 
L 338.856846 257.893835 
L 345.482449 267.713314 
L 352.108052 273.076244 
L 358.733655 270.329132 
L 365.359258 256.62047 
L 371.984861 245.023868 
L 378.610464 243.882664 
L 385.236067 246.045695 
L 391.86167 236.567283 
L 398.487273 208.399831 
" clip-path="url(#pf94ec7c1c3)" style="fill: none; stroke: #bcbd22; stroke-linecap: square"/>
   </g>
   <g id="line2d_42">
    <path d="M 73.832727 190.19507 
L 80.45833 202.547749 
L 87.083933 213.997884 
L 93.709536 222.263268 
L 100.335139 220.983495 
L 106.960742 207.207101 
L 113.586345 192.773803 
L 120.211948 188.822131 
L 126.837551 184.719986 
L 133.463154 185.776893 
L 140.088757 201.611626 
L 146.71436 225.135198 
L 153.339963 251.79258 
L 159.965566 273.313636 
L 166.591169 281.747766 
L 173.216772 273.467391 
L 179.842375 264.166897 
L 186.467978 267.516187 
L 193.093581 264.708652 
L 199.719184 247.055062 
L 206.344787 222.920449 
L 212.97039 207.607221 
L 219.595993 205.727866 
L 226.221596 200.275329 
L 232.847199 183.920912 
L 239.472801 165.300846 
L 246.098404 146.656522 
L 252.724007 132.401994 
L 259.34961 126.836819 
L 265.975213 121.503068 
L 272.600816 108.471201 
L 279.226419 94.584835 
L 285.852022 86.878109 
L 292.477625 85.257418 
L 299.103228 91.897228 
L 305.728831 117.965324 
L 312.354434 156.414519 
L 318.980037 183.34611 
L 325.60564 190.073896 
L 332.231243 188.219257 
L 338.856846 190.292558 
L 345.482449 188.269923 
L 352.108052 171.890736 
L 358.733655 160.462613 
L 365.359258 163.736997 
L 371.984861 172.434616 
L 378.610464 181.36457 
L 385.236067 201.912032 
L 391.86167 223.78518 
L 398.487273 214.20769 
" clip-path="url(#pf94ec7c1c3)" style="fill: none; stroke: #17becf; stroke-linecap: square"/>
   </g>
   <g id="line2d_43">
    <path d="M 73.832727 155.619073 
L 80.45833 140.098097 
L 87.083933 126.516468 
L 93.709536 114.573976 
L 100.335139 107.1947 
L 106.960742 108.492396 
L 113.586345 118.652034 
L 120.211948 132.915945 
L 126.837551 145.897732 
L 133.463154 152.920219 
L 140.088757 151.13923 
L 146.71436 140.568563 
L 153.339963 125.226206 
L 159.965566 112.422734 
L 166.591169 106.583077 
L 173.216772 108.569307 
L 179.842375 117.126529 
L 186.467978 129.635573 
L 193.093581 142.435285 
L 199.719184 153.801218 
L 206.344787 164.366903 
L 212.97039 174.119519 
L 219.595993 181.432373 
L 226.221596 183.79386 
L 232.847199 180.898135 
L 239.472801 176.777004 
L 246.098404 174.991735 
L 252.724007 175.71839 
L 259.34961 179.581494 
L 265.975213 187.295791 
L 272.600816 196.661151 
L 279.226419 204.12927 
L 285.852022 209.313061 
L 292.477625 212.894708 
L 299.103228 216.112706 
L 305.728831 221.187304 
L 312.354434 228.228237 
L 318.980037 234.5709 
L 325.60564 238.654612 
L 332.231243 241.733458 
L 338.856846 244.504993 
L 345.482449 246.814883 
L 352.108052 248.346109 
L 358.733655 249.506589 
L 365.359258 251.914853 
L 371.984861 256.720711 
L 378.610464 262.298815 
L 385.236067 265.715008 
L 391.86167 255.107987 
L 398.487273 221.103411 
" clip-path="url(#pf94ec7c1c3)" style="fill: none; stroke-dasharray: 3.7,1.6; stroke-dashoffset: 0; stroke: #1f77b4"/>
   </g>
   <g id="patch_3">
    <path d="M 57.6 307.584 
L 57.6 41.472 
" style="fill: none; stroke: #000000; stroke-width: 0.8; stroke-linejoin: miter; stroke-linecap: square"/>
   </g>
   <g id="patch_4">
    <path d="M 414.72 307.584 
L 414.72 41.472 
" style="fill: none; stroke: #000000; stroke-width: 0.8; stroke-linejoin: miter; stroke-linecap: square"/>
   </g>
   <g id="patch_5">
    <path d="M 57.6 307.584 
L 414.72 307.584 
" style="fill: none; stroke: #000000; stroke-width: 0.8; stroke-linejoin: miter; stroke-linecap: square"/>
   </g>
   <g id="patch_6">
    <path d="M 57.6 41.472 
L 414.72 41.472 
" style="fill: none; stroke: #000000; stroke-width: 0.8; stroke-linejoin: miter; stroke-linecap: square"/>
   </g>
   <g id="line2d_44">
    <path d="M 73.832727 186.3137 
L 80.45833 194.371048 
L 87.083933 192.697906 
L 93.709536 183.672612 
L 100.335139 173.097593 
L 106.960742 164.838107 
L 113.586345 161.33207 
L 120.211948 163.140987 
L 126.837551 169.308251 
L 133.463154 177.649134 
L 140.088757 185.189106 
L 146.71436 189.72318 
L 153.339963 189.648071 
L 159.965566 186.201885 
L 166.591169 183.326918 
L 173.216772 182.401241 
L 179.842375 181.047664 
L 186.467978 177.474744 
L 193.093581 172.208079 
L 199.719184 165.877129 
L 206.344787 158.608815 
L 212.97039 151.242827 
L 219.595993 145.497839 
L 226.221596 143.302956 
L 232.847199 145.737634 
L 239.472801 153.657248 
L 246.098404 167.050852 
L 252.724007 184.018919 
L 259.34961 201.331529 
L 265.975213 216.683644 
L 272.600816 228.456887 
L 279.226419 235.792946 
L 285.852022 238.785538 
L 292.477625 237.705707 
L 299.103228 233.517923 
L 305.728831 228.636979 
L 312.354434 225.576707 
L 318.980037 225.774445 
L 325.60564 229.677642 
L 332.231243 234.597137 
L 338.856846 237.054808 
L 345.482449 235.194843 
L 352.108052 228.961083 
L 358.733655 221.266561 
L 365.359258 216.636311 
L 371.984861 217.80736 
L 378.610464 223.817051 
L 385.236067 229.395132 
L 391.86167 224.417409 
L 398.487273 203.572176 
" clip-path="url(#pf94ec7c1c3)" style="fill: none; stroke-dasharray: 3.7,1.6; stroke-dashoffset: 0; stroke: #ff7f0e"/>
   </g>
   <g id="line2d_45">
    <path d="M 73.832727 189.859969 
L 80.45833 204.49305 
L 87.083933 213.218647 
L 93.709536 214.896835 
L 100.335139 210.793941 
L 106.960742 201.422115 
L 113.586345 188.521479 
L 120.211948 175.440668 
L 126.837551 164.021978 
L 133.463154 154.735662 
L 140.088757 148.947337 
L 146.71436 147.810524 
L 153.339963 151.517322 
L 159.965566 158.784442 
L 166.591169 167.67607 
L 173.216772 176.369945 
L 179.842375 183.624203 
L 186.467978 188.661514 
L 193.093581 189.259707 
L 199.719184 183.24832 
L 206.344787 170.234679 
L 212.97039 152.190403 
L 219.595993 134.366772 
L 226.221596 120.695359 
L 232.847199 111.315859 
L 239.472801 102.30626 
L 246.098404 90.214924 
L 252.724007 77.051544 
L 259.34961 65.363868 
L 265.975213 56.424911 
L 272.600816 53.568 
L 279.226419 60.293122 
L 285.852022 73.818655 
L 292.477625 88.39586 
L 299.103228 99.76348 
L 305.728831 106.399703 
L 312.354434 110.742824 
L 318.980037 119.033476 
L 325.60564 135.3348 
L 332.231243 156.559347 
L 338.856846 175.2767 
L 345.482449 186.550517 
L 352.108052 190.663522 
L 358.733655 191.056295 
L 365.359258 191.836642 
L 371.984861 194.456518 
L 378.610464 198.849357 
L 385.236067 203.090261 
L 391.86167 201.356813 
L 398.487273 190.128123 
" clip-path="url(#pf94ec7c1c3)" style="fill: none; stroke-dasharray: 3.7,1.6; stroke-dashoffset: 0; stroke: #2ca02c"/>
   </g>
   <g id="line2d_46">
    <path d="M 73.832727 188.378225 
L 80.45833 200.069258 
L 87.083933 206.412539 
L 93.709536 212.215325 
L 100.335139 221.59043 
L 106.960742 234.685344 
L 113.586345 250.702843 
L 120.211948 267.501954 
L 126.837551 282.491853 
L 133.463154 293.16211 
L 140.088757 295.488 
L 146.71436 289.195639 
L 153.339963 278.097575 
L 159.965566 264.332319 
L 166.591169 249.609288 
L 173.216772 237.081765 
L 179.842375 228.812445 
L 186.467978 224.634983 
L 193.093581 223.506771 
L 199.719184 224.15259 
L 206.344787 224.828154 
L 212.97039 226.434648 
L 219.595993 230.455555 
L 226.221596 237.809222 
L 232.847199 247.143021 
L 239.472801 256.41987 
L 246.098404 261.649665 
L 252.724007 258.935205 
L 259.34961 247.258438 
L 265.975213 230.334981 
L 272.600816 213.339383 
L 279.226419 198.548675 
L 285.852022 186.38891 
L 292.477625 177.86051 
L 299.103228 172.287538 
L 305.728831 167.216097 
L 312.354434 161.508001 
L 318.980037 155.189427 
L 325.60564 149.452517 
L 332.231243 146.342578 
L 338.856846 147.334448 
L 345.482449 150.156197 
L 352.108052 150.316297 
L 358.733655 145.567871 
L 365.359258 136.339007 
L 371.984861 124.796579 
L 378.610464 113.22894 
L 385.236067 105.609142 
L 391.86167 111.140912 
L 398.487273 135.983774 
" clip-path="url(#pf94ec7c1c3)" style="fill: none; stroke-dasharray: 3.7,1.6; stroke-dashoffset: 0; stroke: #d62728"/>
   </g>
   <g id="line2d_47">
    <path d="M 73.832727 216.730985 
L 80.45833 244.219696 
L 87.083933 243.565949 
L 93.709536 222.048413 
L 100.335139 195.757191 
L 106.960742 173.980652 
L 113.586345 161.803841 
L 120.211948 160.130811 
L 126.837551 165.467642 
L 133.463154 173.284026 
L 140.088757 180.751021 
L 146.71436 187.010532 
L 153.339963 191.234076 
L 159.965566 196.441218 
L 166.591169 207.7727 
L 173.216772 223.152774 
L 179.842375 233.18941 
L 186.467978 234.138751 
L 193.093581 227.519768 
L 199.719184 213.49033 
L 206.344787 195.270733 
L 212.97039 176.748861 
L 219.595993 156.981905 
L 226.221596 134.574391 
L 232.847199 113.118417 
L 239.472801 99.826084 
L 246.098404 102.74686 
L 252.724007 123.005436 
L 259.34961 153.101888 
L 265.975213 183.387742 
L 272.600816 205.207497 
L 279.226419 214.36348 
L 285.852022 212.518226 
L 292.477625 205.894858 
L 299.103228 199.67475 
L 305.728831 197.521572 
L 312.354434 200.653287 
L 318.980037 205.59608 
L 325.60564 206.234347 
L 332.231243 197.231224 
L 338.856846 179.729054 
L 345.482449 157.666506 
L 352.108052 134.447794 
L 358.733655 118.306749 
L 365.359258 117.752906 
L 371.984861 133.7325 
L 378.610464 159.63797 
L 385.236067 183.974802 
L 391.86167 194.253176 
L 398.487273 187.97839 
" clip-path="url(#pf94ec7c1c3)" style="fill: none; stroke-dasharray: 3.7,1.6; stroke-dashoffset: 0; stroke: #9467bd"/>
   </g>
   <g id="line2d_48">
    <path d="M 73.832727 216.538447 
L 80.45833 249.723144 
L 87.083933 264.779875 
L 93.709536 264.486787 
L 100.335139 254.870183 
L 106.960742 239.790667 
L 113.586345 222.691463 
L 120.211948 206.568129 
L 126.837551 194.407681 
L 133.463154 187.263225 
L 140.088757 183.799453 
L 146.71436 180.538786 
L 153.339963 175.942179 
L 159.965566 168.594883 
L 166.591169 157.555294 
L 173.216772 147.190411 
L 179.842375 145.198493 
L 186.467978 155.609859 
L 193.093581 176.244399 
L 199.719184 200.699484 
L 206.344787 221.338217 
L 212.97039 232.80591 
L 219.595993 233.815239 
L 226.221596 225.67253 
L 232.847199 213.378041 
L 239.472801 202.323215 
L 246.098404 194.219852 
L 252.724007 189.086659 
L 259.34961 185.266177 
L 265.975213 179.964092 
L 272.600816 171.786648 
L 279.226419 162.266167 
L 285.852022 155.226225 
L 292.477625 151.705646 
L 299.103228 151.156133 
L 305.728831 151.985363 
L 312.354434 151.255229 
L 318.980037 148.948878 
L 325.60564 149.077763 
L 332.231243 155.999589 
L 338.856846 169.511641 
L 345.482449 187.608646 
L 352.108052 208.597518 
L 358.733655 228.056286 
L 365.359258 243.127038 
L 371.984861 253.154331 
L 378.610464 256.602041 
L 385.236067 254.845119 
L 391.86167 243.364764 
L 398.487273 214.302914 
" clip-path="url(#pf94ec7c1c3)" style="fill: none; stroke-dasharray: 3.7,1.6; stroke-dashoffset: 0; stroke: #8c564b"/>
   </g>
   <g id="line2d_49">
    <path d="M 73.832727 196.05621 
L 80.45833 211.313987 
L 87.083933 212.458449 
L 93.709536 203.899846 
L 100.335139 195.192142 
L 106.960742 192.350868 
L 113.586345 196.647763 
L 120.211948 204.837281 
L 126.837551 211.978799 
L 133.463154 212.448713 
L 140.088757 201.085618 
L 146.71436 179.032644 
L 153.339963 151.730696 
L 159.965566 124.814515 
L 166.591169 102.253568 
L 173.216772 86.420355 
L 179.842375 78.977097 
L 186.467978 78.66704 
L 193.093581 79.868276 
L 199.719184 78.216095 
L 206.344787 72.458148 
L 212.97039 65.016927 
L 219.595993 59.503776 
L 226.221596 57.922781 
L 232.847199 61.858619 
L 239.472801 72.635092 
L 246.098404 86.698287 
L 252.724007 97.956759 
L 259.34961 103.153838 
L 265.975213 103.175008 
L 272.600816 102.33712 
L 279.226419 103.448008 
L 285.852022 107.631826 
L 292.477625 114.016761 
L 299.103228 120.199473 
L 305.728831 124.034237 
L 312.354434 123.096901 
L 318.980037 116.265386 
L 325.60564 105.974542 
L 332.231243 96.876426 
L 338.856846 93.543817 
L 345.482449 97.451366 
L 352.108052 106.53877 
L 358.733655 117.639983 
L 365.359258 128.962955 
L 371.984861 137.687144 
L 378.610464 143.490908 
L 385.236067 148.079219 
L 391.86167 153.337002 
L 398.487273 161.772554 
" clip-path="url(#pf94ec7c1c3)" style="fill: none; stroke-dasharray: 3.7,1.6; stroke-dashoffset: 0; stroke: #e377c2"/>
   </g>
   <g id="line2d_50">
    <path d="M 73.832727 171.196935 
L 80.45833 167.439902 
L 87.083933 161.216919 
L 93.709536 154.515468 
L 100.335139 149.258005 
L 106.960742 147.07541 
L 113.586345 149.462959 
L 120.211948 157.143958 
L 126.837551 171.282606 
L 133.463154 190.808969 
L 140.088757 210.471249 
L 146.71436 224.772731 
L 153.339963 231.143526 
L 159.965566 229.615578 
L 166.591169 221.394301 
L 173.216772 209.154453 
L 179.842375 198.108968 
L 186.467978 194.000727 
L 193.093581 200.064426 
L 199.719184 214.210654 
L 206.344787 231.838009 
L 212.97039 248.406475 
L 219.595993 257.377061 
L 226.221596 253.934099 
L 232.847199 239.237453 
L 239.472801 220.102652 
L 246.098404 204.010261 
L 252.724007 195.400992 
L 259.34961 195.301919 
L 265.975213 200.252807 
L 272.600816 205.179219 
L 279.226419 207.22513 
L 285.852022 206.182735 
L 292.477625 203.1842 
L 299.103228 201.742335 
L 305.728831 203.415666 
L 312.354434 206.965327 
L 318.980037 208.056408 
L 325.60564 203.344479 
L 332.231243 195.324789 
L 338.856846 188.996031 
L 345.482449 186.043509 
L 352.108052 184.214473 
L 358.733655 180.377369 
L 365.359258 174.371838 
L 371.984861 170.006851 
L 378.610464 168.601426 
L 385.236067 169.134892 
L 391.86167 170.623262 
L 398.487273 171.852986 
" clip-path="url(#pf94ec7c1c3)" style="fill: none; stroke-dasharray: 3.7,1.6; stroke-dashoffset: 0; stroke: #7f7f7f"/>
   </g>
   <g id="line2d_51">
    <path d="M 73.832727 212.784353 
L 80.45833 242.001333 
L 87.083933 255.482035 
L 93.709536 259.621282 
L 100.335139 261.027603 
L 106.960742 260.358615 
L 113.586345 257.546194 
L 120.211948 253.15951 
L 126.837551 247.286864 
L 133.463154 240.654457 
L 140.088757 233.966097 
L 146.71436 228.251757 
L 153.339963 223.591004 
L 159.965566 219.036553 
L 166.591169 216.558952 
L 173.216772 216.522061 
L 179.842375 214.834187 
L 186.467978 207.568259 
L 193.093581 194.392669 
L 199.719184 179.206761 
L 206.344787 165.264718 
L 212.97039 155.899191 
L 219.595993 157.268909 
L 226.221596 173.218478 
L 232.847199 199.55381 
L 239.472801 227.449202 
L 246.098404 245.842979 
L 252.724007 249.979941 
L 259.34961 242.886391 
L 265.975213 232.225576 
L 272.600816 225.441491 
L 279.226419 226.736061 
L 285.852022 236.78024 
L 292.477625 252.251379 
L 299.103228 265.913601 
L 305.728831 273.417661 
L 312.354434 273.728234 
L 318.980037 269.367524 
L 325.60564 265.418603 
L 332.231243 264.582676 
L 338.856846 264.837629 
L 345.482449 264.123877 
L 352.108052 262.993876 
L 358.733655 261.930212 
L 365.359258 260.064655 
L 371.984861 256.140041 
L 378.610464 250.549384 
L 385.236067 242.980867 
L 391.86167 228.199573 
L 398.487273 203.487206 
" clip-path="url(#pf94ec7c1c3)" style="fill: none; stroke-dasharray: 3.7,1.6; stroke-dashoffset: 0; stroke: #bcbd22"/>
   </g>
   <g id="line2d_52">
    <path d="M 73.832727 191.501353 
L 80.45833 206.214163 
L 87.083933 215.403073 
L 93.709536 219.288532 
L 100.335139 217.415318 
L 106.960742 208.096629 
L 113.586345 195.088975 
L 120.211948 186.193811 
L 126.837551 184.113446 
L 133.463154 189.002252 
L 140.088757 203.537276 
L 146.71436 226.036662 
L 153.339963 249.318562 
L 159.965566 267.565 
L 166.591169 279.0801 
L 173.216772 282.059311 
L 179.842375 275.16574 
L 186.467978 262.944941 
L 193.093581 251.285507 
L 199.719184 240.351732 
L 206.344787 229.558784 
L 212.97039 219.622488 
L 219.595993 208.487494 
L 226.221596 194.567107 
L 232.847199 179.026806 
L 239.472801 162.670733 
L 246.098404 148.074511 
L 252.724007 137.75384 
L 259.34961 129.768791 
L 265.975213 119.294443 
L 272.600816 104.818577 
L 279.226419 91.625429 
L 285.852022 84.944377 
L 292.477625 87.90992 
L 299.103228 100.660743 
L 305.728831 121.251123 
L 312.354434 147.405573 
L 318.980037 173.944949 
L 325.60564 192.695026 
L 332.231243 199.106513 
L 338.856846 194.293312 
L 345.482449 182.315992 
L 352.108052 167.908578 
L 358.733655 158.588318 
L 365.359258 160.548389 
L 371.984861 174.181195 
L 378.610464 192.911871 
L 385.236067 208.995974 
L 391.86167 212.487964 
L 398.487273 198.336425 
" clip-path="url(#pf94ec7c1c3)" style="fill: none; stroke-dasharray: 3.7,1.6; stroke-dashoffset: 0; stroke: #17becf"/>
   </g>
  </g>
  <g id="text_19">
   <!-- Comparison $Y_i$ and $\tilde{Y}_i$ -->
   <g transform="translate(167.4 18.912) scale(0.12 -0.12)">
    <defs>
     <path id="DejaVuSans-43" d="M 4122 4306 
L 4122 3641 
Q 3803 3938 3442 4084 
Q 3081 4231 2675 4231 
Q 1875 4231 1450 3742 
Q 1025 3253 1025 2328 
Q 1025 1406 1450 917 
Q 1875 428 2675 428 
Q 3081 428 3442 575 
Q 3803 722 4122 1019 
L 4122 359 
Q 3791 134 3420 21 
Q 3050 -91 2638 -91 
Q 1578 -91 968 557 
Q 359 1206 359 2328 
Q 359 3453 968 4101 
Q 1578 4750 2638 4750 
Q 3056 4750 3426 4639 
Q 3797 4528 4122 4306 
z
" transform="scale(0.015625)"/>
     <path id="DejaVuSans-6f" d="M 1959 3097 
Q 1497 3097 1228 2736 
Q 959 2375 959 1747 
Q 959 1119 1226 758 
Q 1494 397 1959 397 
Q 2419 397 2687 759 
Q 2956 1122 2956 1747 
Q 2956 2369 2687 2733 
Q 2419 3097 1959 3097 
z
M 1959 3584 
Q 2709 3584 3137 3096 
Q 3566 2609 3566 1747 
Q 3566 888 3137 398 
Q 2709 -91 1959 -91 
Q 1206 -91 779 398 
Q 353 888 353 1747 
Q 353 2609 779 3096 
Q 1206 3584 1959 3584 
z
" transform="scale(0.015625)"/>
     <path id="DejaVuSans-6d" d="M 3328 2828 
Q 3544 3216 3844 3400 
Q 4144 3584 4550 3584 
Q 5097 3584 5394 3201 
Q 5691 2819 5691 2113 
L 5691 0 
L 5113 0 
L 5113 2094 
Q 5113 2597 4934 2840 
Q 4756 3084 4391 3084 
Q 3944 3084 3684 2787 
Q 3425 2491 3425 1978 
L 3425 0 
L 2847 0 
L 2847 2094 
Q 2847 2600 2669 2842 
Q 2491 3084 2119 3084 
Q 1678 3084 1418 2786 
Q 1159 2488 1159 1978 
L 1159 0 
L 581 0 
L 581 3500 
L 1159 3500 
L 1159 2956 
Q 1356 3278 1631 3431 
Q 1906 3584 2284 3584 
Q 2666 3584 2933 3390 
Q 3200 3197 3328 2828 
z
" transform="scale(0.015625)"/>
     <path id="DejaVuSans-70" d="M 1159 525 
L 1159 -1331 
L 581 -1331 
L 581 3500 
L 1159 3500 
L 1159 2969 
Q 1341 3281 1617 3432 
Q 1894 3584 2278 3584 
Q 2916 3584 3314 3078 
Q 3713 2572 3713 1747 
Q 3713 922 3314 415 
Q 2916 -91 2278 -91 
Q 1894 -91 1617 61 
Q 1341 213 1159 525 
z
M 3116 1747 
Q 3116 2381 2855 2742 
Q 2594 3103 2138 3103 
Q 1681 3103 1420 2742 
Q 1159 2381 1159 1747 
Q 1159 1113 1420 752 
Q 1681 391 2138 391 
Q 2594 391 2855 752 
Q 3116 1113 3116 1747 
z
" transform="scale(0.015625)"/>
     <path id="DejaVuSans-61" d="M 2194 1759 
Q 1497 1759 1228 1600 
Q 959 1441 959 1056 
Q 959 750 1161 570 
Q 1363 391 1709 391 
Q 2188 391 2477 730 
Q 2766 1069 2766 1631 
L 2766 1759 
L 2194 1759 
z
M 3341 1997 
L 3341 0 
L 2766 0 
L 2766 531 
Q 2569 213 2275 61 
Q 1981 -91 1556 -91 
Q 1019 -91 701 211 
Q 384 513 384 1019 
Q 384 1609 779 1909 
Q 1175 2209 1959 2209 
L 2766 2209 
L 2766 2266 
Q 2766 2663 2505 2880 
Q 2244 3097 1772 3097 
Q 1472 3097 1187 3025 
Q 903 2953 641 2809 
L 641 3341 
Q 956 3463 1253 3523 
Q 1550 3584 1831 3584 
Q 2591 3584 2966 3190 
Q 3341 2797 3341 1997 
z
" transform="scale(0.015625)"/>
     <path id="DejaVuSans-72" d="M 2631 2963 
Q 2534 3019 2420 3045 
Q 2306 3072 2169 3072 
Q 1681 3072 1420 2755 
Q 1159 2438 1159 1844 
L 1159 0 
L 581 0 
L 581 3500 
L 1159 3500 
L 1159 2956 
Q 1341 3275 1631 3429 
Q 1922 3584 2338 3584 
Q 2397 3584 2469 3576 
Q 2541 3569 2628 3553 
L 2631 2963 
z
" transform="scale(0.015625)"/>
     <path id="DejaVuSans-69" d="M 603 3500 
L 1178 3500 
L 1178 0 
L 603 0 
L 603 3500 
z
M 603 4863 
L 1178 4863 
L 1178 4134 
L 603 4134 
L 603 4863 
z
" transform="scale(0.015625)"/>
     <path id="DejaVuSans-73" d="M 2834 3397 
L 2834 2853 
Q 2591 2978 2328 3040 
Q 2066 3103 1784 3103 
Q 1356 3103 1142 2972 
Q 928 2841 928 2578 
Q 928 2378 1081 2264 
Q 1234 2150 1697 2047 
L 1894 2003 
Q 2506 1872 2764 1633 
Q 3022 1394 3022 966 
Q 3022 478 2636 193 
Q 2250 -91 1575 -91 
Q 1294 -91 989 -36 
Q 684 19 347 128 
L 347 722 
Q 666 556 975 473 
Q 1284 391 1588 391 
Q 1994 391 2212 530 
Q 2431 669 2431 922 
Q 2431 1156 2273 1281 
Q 2116 1406 1581 1522 
L 1381 1569 
Q 847 1681 609 1914 
Q 372 2147 372 2553 
Q 372 3047 722 3315 
Q 1072 3584 1716 3584 
Q 2034 3584 2315 3537 
Q 2597 3491 2834 3397 
z
" transform="scale(0.015625)"/>
     <path id="DejaVuSans-6e" d="M 3513 2113 
L 3513 0 
L 2938 0 
L 2938 2094 
Q 2938 2591 2744 2837 
Q 2550 3084 2163 3084 
Q 1697 3084 1428 2787 
Q 1159 2491 1159 1978 
L 1159 0 
L 581 0 
L 581 3500 
L 1159 3500 
L 1159 2956 
Q 1366 3272 1645 3428 
Q 1925 3584 2291 3584 
Q 2894 3584 3203 3211 
Q 3513 2838 3513 2113 
z
" transform="scale(0.015625)"/>
     <path id="DejaVuSans-Oblique-69" d="M 1172 4863 
L 1747 4863 
L 1606 4134 
L 1031 4134 
L 1172 4863 
z
M 909 3500 
L 1484 3500 
L 800 0 
L 225 0 
L 909 3500 
z
" transform="scale(0.015625)"/>
     <path id="DejaVuSans-64" d="M 2906 2969 
L 2906 4863 
L 3481 4863 
L 3481 0 
L 2906 0 
L 2906 525 
Q 2725 213 2448 61 
Q 2172 -91 1784 -91 
Q 1150 -91 751 415 
Q 353 922 353 1747 
Q 353 2572 751 3078 
Q 1150 3584 1784 3584 
Q 2172 3584 2448 3432 
Q 2725 3281 2906 2969 
z
M 947 1747 
Q 947 1113 1208 752 
Q 1469 391 1925 391 
Q 2381 391 2643 752 
Q 2906 1113 2906 1747 
Q 2906 2381 2643 2742 
Q 2381 3103 1925 3103 
Q 1469 3103 1208 2742 
Q 947 2381 947 1747 
z
" transform="scale(0.015625)"/>
    </defs>
    <use xlink:href="#DejaVuSans-43" transform="translate(0 0.828125)"/>
    <use xlink:href="#DejaVuSans-6f" transform="translate(69.824219 0.828125)"/>
    <use xlink:href="#DejaVuSans-6d" transform="translate(131.005859 0.828125)"/>
    <use xlink:href="#DejaVuSans-70" transform="translate(228.417969 0.828125)"/>
    <use xlink:href="#DejaVuSans-61" transform="translate(291.894531 0.828125)"/>
    <use xlink:href="#DejaVuSans-72" transform="translate(353.173828 0.828125)"/>
    <use xlink:href="#DejaVuSans-69" transform="translate(394.287109 0.828125)"/>
    <use xlink:href="#DejaVuSans-73" transform="translate(422.070312 0.828125)"/>
    <use xlink:href="#DejaVuSans-6f" transform="translate(474.169922 0.828125)"/>
    <use xlink:href="#DejaVuSans-6e" transform="translate(535.351562 0.828125)"/>
    <use xlink:href="#DejaVuSans-20" transform="translate(598.730469 0.828125)"/>
    <use xlink:href="#DejaVuSans-Oblique-59" transform="translate(630.517578 0.828125)"/>
    <use xlink:href="#DejaVuSans-Oblique-69" transform="translate(691.601562 -15.578125) scale(0.7)"/>
    <use xlink:href="#DejaVuSans-20" transform="translate(713.78418 0.828125)"/>
    <use xlink:href="#DejaVuSans-61" transform="translate(745.571289 0.828125)"/>
    <use xlink:href="#DejaVuSans-6e" transform="translate(806.850586 0.828125)"/>
    <use xlink:href="#DejaVuSans-64" transform="translate(870.229492 0.828125)"/>
    <use xlink:href="#DejaVuSans-20" transform="translate(933.706055 0.828125)"/>
    <use xlink:href="#DejaVuSans-303" transform="translate(1028.98291 22.3125)"/>
    <use xlink:href="#DejaVuSans-Oblique-59" transform="translate(965.493164 0.828125)"/>
    <use xlink:href="#DejaVuSans-Oblique-69" transform="translate(1027.53418 -15.578125) scale(0.7)"/>
   </g>
  </g>
 </g>
 <defs>
  <clipPath id="pf94ec7c1c3">
   <rect x="57.6" y="41.472" width="357.12" height="266.112"/>
  </clipPath>
 </defs>
</svg>
