<?xml version="1.0" encoding="utf-8" standalone="no"?>
<!DOCTYPE svg PUBLIC "-//W3C//DTD SVG 1.1//EN"
  "http://www.w3.org/Graphics/SVG/1.1/DTD/svg11.dtd">
<svg xmlns:xlink="http://www.w3.org/1999/xlink" width="460.8pt" height="345.6pt" viewBox="0 0 460.8 345.6" xmlns="http://www.w3.org/2000/svg" version="1.1">
 <metadata>
  <rdf:RDF xmlns:dc="http://purl.org/dc/elements/1.1/" xmlns:cc="http://creativecommons.org/ns#" xmlns:rdf="http://www.w3.org/1999/02/22-rdf-syntax-ns#">
   <cc:Work>
    <dc:type rdf:resource="http://purl.org/dc/dcmitype/StillImage"/>
    <dc:date>2022-01-01T00:00:00+00:00</dc:date>
    <dc:format>image/svg+xml</dc:format>
    <dc:creator>
     <cc:Agent>
      <dc:title>Matplotlib v3.10.8, https://matplotlib.org/</dc:title>
     </cc:Agent>
    </dc:creator>
   </cc:Work>
  </rdf:RDF>
 </metadata>
 <defs>
  <style type="text/css">*{stroke-linejoin: round; stroke-linecap: butt}</style>
 </defs>
 <g id="figure_1">
  <g id="patch_1">
   <path d="M 0 345.6 
L 460.8 345.6 
L 460.8 0 
L 0 0 
z
" style="fill: #ffffff"/>
  </g>
  <g id="axes_1">
   <g id="patch_2">
    <path d="M 57.6 307.584 
L 414.72 307.584 
L 414.72 41.472 
L 57.6 41.472 
z
" style="fill: #ffffff"/>
   </g>
   <g id="matplotlib.axis_1">
    <g id="xtick_1">
     <g id="line2d_1">
      <path d="M 73.832727 307.584 
L 73.832727 41.472 
" clip-path="url(#pead76022be)" style="fill: none; stroke: #b0b0b0; stroke-width: 0.8; stroke-linecap: square"/>
     </g>
     <g id="line2d_2">
      <defs>
       <path id="m0be8e7f9e4" d="M 0 0 
L 0 3.5 
" style="stroke: #000000; stroke-width: 0.8"/>
      </defs>
      <g>
       <use xlink:href="#m0be8e7f9e4" x="73.832727" y="307.584" style="stroke: #000000; stroke-width: 0.8"/>
      </g>
     </g>
     <g id="text_1">
      <!-- 0.0 -->
      <g transform="translate(65.881165 322.182437) scale(0.1 -0.1)">
       <defs>
        <path id="DejaVuSans-30" d="M 2034 4250 
Q 1547 4250 1301 3770 
Q 1056 3291 1056 2328 
Q 1056 1369 1301 889 
Q 1547 409 2034 409 
Q 2525 409 2770 889 
Q 3016 1369 3016 2328 
Q 3016 3291 2770 3770 
Q 2525 4250 2034 4250 
z
M 2034 4750 
Q 2819 4750 3233 4129 
Q 3647 3509 3647 2328 
Q 3647 1150 3233 529 
Q 2819 -91 2034 -91 
Q 1250 -91 836 529 
Q 422 1150 422 2328 
Q 422 3509 836 4129 
Q 1250 4750 2034 4750 
z
" transform="scale(0.015625)"/>
        <path id="DejaVuSans-2e" d="M 684 794 
L 1344 794 
L 1344 0 
L 684 0 
L 684 794 
z
" transform="scale(0.015625)"/>
       </defs>
       <use xlink:href="#DejaVuSans-30"/>
       <use xlink:href="#DejaVuSans-2e" transform="translate(63.623047 0)"/>
       <use xlink:href="#DejaVuSans-30" transform="translate(95.410156 0)"/>
      </g>
     </g>
    </g>
    <g id="xtick_2">
     <g id="line2d_3">
      <path d="M 138.763636 307.584 
L 138.763636 41.472 
" clip-path="url(#pead76022be)" style="fill: none; stroke: #b0b0b0; stroke-width: 0.8; stroke-linecap: square"/>
     </g>
     <g id="line2d_4">
      <g>
       <use xlink:href="#m0be8e7f9e4" x="138.763636" y="307.584" style="stroke: #000000; stroke-width: 0.8"/>
      </g>
     </g>
     <g id="text_2">
      <!-- 0.2 -->
      <g transform="translate(130.812074 322.182437) scale(0.1 -0.1)">
       <defs>
        <path id="DejaVuSans-32" d="M 1228 531 
L 3431 531 
L 3431 0 
L 469 0 
L 469 531 
Q 828 903 1448 1529 
Q 2069 2156 2228 2338 
Q 2531 2678 2651 2914 
Q 2772 3150 2772 3378 
Q 2772 3750 2511 3984 
Q 2250 4219 1831 4219 
Q 1534 4219 1204 4116 
Q 875 4013 500 3803 
L 500 4441 
Q 881 4594 1212 4672 
Q 1544 4750 1819 4750 
Q 2544 4750 2975 4387 
Q 3406 4025 3406 3419 
Q 3406 3131 3298 2873 
Q 3191 2616 2906 2266 
Q 2828 2175 2409 1742 
Q 1991 1309 1228 531 
z
" transform="scale(0.015625)"/>
       </defs>
       <use xlink:href="#DejaVuSans-30"/>
       <use xlink:href="#DejaVuSans-2e" transform="translate(63.623047 0)"/>
       <use xlink:href="#DejaVuSans-32" transform="translate(95.410156 0)"/>
      </g>
     </g>
    </g>
    <g id="xtick_3">
     <g id="line2d_5">
      <path d="M 203.694545 307.584 
L 203.694545 41.472 
" clip-path="url(#pead76022be)" style="fill: none; stroke: #b0b0b0; stroke-width: 0.8; stroke-linecap: square"/>
     </g>
     <g id="line2d_6">
      <g>
       <use xlink:href="#m0be8e7f9e4" x="203.694545" y="307.584" style="stroke: #000000; stroke-width: 0.8"/>
      </g>
     </g>
     <g id="text_3">
      <!-- 0.4 -->
      <g transform="translate(195.742983 322.182437) scale(0.1 -0.1)">
       <defs>
        <path id="DejaVuSans-34" d="M 2419 4116 
L 825 1625 
L 2419 1625 
L 2419 4116 
z
M 2253 4666 
L 3047 4666 
L 3047 1625 
L 3713 1625 
L 3713 1100 
L 3047 1100 
L 3047 0 
L 2419 0 
L 2419 1100 
L 313 1100 
L 313 1709 
L 2253 4666 
z
" transform="scale(0.015625)"/>
       </defs>
       <use xlink:href="#DejaVuSans-30"/>
       <use xlink:href="#DejaVuSans-2e" transform="translate(63.623047 0)"/>
       <use xlink:href="#DejaVuSans-34" transform="translate(95.410156 0)"/>
      </g>
     </g>
    </g>
    <g id="xtick_4">
     <g id="line2d_7">
      <path d="M 268.625455 307.584 
L 268.625455 41.472 
" clip-path="url(#pead76022be)" style="fill: none; stroke: #b0b0b0; stroke-width: 0.8; stroke-linecap: square"/>
     </g>
     <g id="line2d_8">
      <g>
       <use xlink:href="#m0be8e7f9e4" x="268.625455" y="307.584" style="stroke: #000000; stroke-width: 0.8"/>
      </g>
     </g>
     <g id="text_4">
      <!-- 0.6 -->
      <g transform="translate(260.673892 322.182437) scale(0.1 -0.1)">
       <defs>
        <path id="DejaVuSans-36" d="M 2113 2584 
Q 1688 2584 1439 2293 
Q 1191 2003 1191 1497 
Q 1191 994 1439 701 
Q 1688 409 2113 409 
Q 2538 409 2786 701 
Q 3034 994 3034 1497 
Q 3034 2003 2786 2293 
Q 2538 2584 2113 2584 
z
M 3366 4563 
L 3366 3988 
Q 3128 4100 2886 4159 
Q 2644 4219 2406 4219 
Q 1781 4219 1451 3797 
Q 1122 3375 1075 2522 
Q 1259 2794 1537 2939 
Q 1816 3084 2150 3084 
Q 2853 3084 3261 2657 
Q 3669 2231 3669 1497 
Q 3669 778 3244 343 
Q 2819 -91 2113 -91 
Q 1303 -91 875 529 
Q 447 1150 447 2328 
Q 447 3434 972 4092 
Q 1497 4750 2381 4750 
Q 2619 4750 2861 4703 
Q 3103 4656 3366 4563 
z
" transform="scale(0.015625)"/>
       </defs>
       <use xlink:href="#DejaVuSans-30"/>
       <use xlink:href="#DejaVuSans-2e" transform="translate(63.623047 0)"/>
       <use xlink:href="#DejaVuSans-36" transform="translate(95.410156 0)"/>
      </g>
     </g>
    </g>
    <g id="xtick_5">
     <g id="line2d_9">
      <path d="M 333.556364 307.584 
L 333.556364 41.472 
" clip-path="url(#pead76022be)" style="fill: none; stroke: #b0b0b0; stroke-width: 0.8; stroke-linecap: square"/>
     </g>
     <g id="line2d_10">
      <g>
       <use xlink:href="#m0be8e7f9e4" x="333.556364" y="307.584" style="stroke: #000000; stroke-width: 0.8"/>
      </g>
     </g>
     <g id="text_5">
      <!-- 0.8 -->
      <g transform="translate(325.604801 322.182437) scale(0.1 -0.1)">
       <defs>
        <path id="DejaVuSans-38" d="M 2034 2216 
Q 1584 2216 1326 1975 
Q 1069 1734 1069 1313 
Q 1069 891 1326 650 
Q 1584 409 2034 409 
Q 2484 409 2743 651 
Q 3003 894 3003 1313 
Q 3003 1734 2745 1975 
Q 2488 2216 2034 2216 
z
M 1403 2484 
Q 997 2584 770 2862 
Q 544 3141 544 3541 
Q 544 4100 942 4425 
Q 1341 4750 2034 4750 
Q 2731 4750 3128 4425 
Q 3525 4100 3525 3541 
Q 3525 3141 3298 2862 
Q 3072 2584 2669 2484 
Q 3125 2378 3379 2068 
Q 3634 1759 3634 1313 
Q 3634 634 3220 271 
Q 2806 -91 2034 -91 
Q 1263 -91 848 271 
Q 434 634 434 1313 
Q 434 1759 690 2068 
Q 947 2378 1403 2484 
z
M 1172 3481 
Q 1172 3119 1398 2916 
Q 1625 2713 2034 2713 
Q 2441 2713 2670 2916 
Q 2900 3119 2900 3481 
Q 2900 3844 2670 4047 
Q 2441 4250 2034 4250 
Q 1625 4250 1398 4047 
Q 1172 3844 1172 3481 
z
" transform="scale(0.015625)"/>
       </defs>
       <use xlink:href="#DejaVuSans-30"/>
       <use xlink:href="#DejaVuSans-2e" transform="translate(63.623047 0)"/>
       <use xlink:href="#DejaVuSans-38" transform="translate(95.410156 0)"/>
      </g>
     </g>
    </g>
    <g id="xtick_6">
     <g id="line2d_11">
      <path d="M 398.487273 307.584 
L 398.487273 41.472 
" clip-path="url(#pead76022be)" style="fill: none; stroke: #b0b0b0; stroke-width: 0.8; stroke-linecap: square"/>
     </g>
     <g id="line2d_12">
      <g>
       <use xlink:href="#m0be8e7f9e4" x="398.487273" y="307.584" style="stroke: #000000; stroke-width: 0.8"/>
      </g>
     </g>
     <g id="text_6">
      <!-- 1.0 -->
      <g transform="translate(390.53571 322.182437) scale(0.1 -0.1)">
       <defs>
        <path id="DejaVuSans-31" d="M 794 531 
L 1825 531 
L 1825 4091 
L 703 3866 
L 703 4441 
L 1819 4666 
L 2450 4666 
L 2450 531 
L 3481 531 
L 3481 0 
L 794 0 
L 794 531 
z
" transform="scale(0.015625)"/>
       </defs>
       <use xlink:href="#DejaVuSans-31"/>
       <use xlink:href="#DejaVuSans-2e" transform="translate(63.623047 0)"/>
       <use xlink:href="#DejaVuSans-30" transform="translate(95.410156 0)"/>
      </g>
     </g>
    </g>
    <g id="text_7">
     <!-- x -->
     <g transform="translate(233.200625 335.860562) scale(0.1 -0.1)">
      <defs>
       <path id="DejaVuSans-78" d="M 3513 3500 
L 2247 1797 
L 3578 0 
L 2900 0 
L 1881 1375 
L 863 0 
L 184 0 
L 1544 1831 
L 300 3500 
L 978 3500 
L 1906 2253 
L 2834 3500 
L 3513 3500 
z
" transform="scale(0.015625)"/>
      </defs>
      <use xlink:href="#DejaVuSans-78"/>
     </g>
    </g>
   </g>
   <g id="matplotlib.axis_2">
    <g id="ytick_1">
     <g id="line2d_13">
      <path d="M 57.6 306.618073 
L 414.72 306.618073 
" clip-path="url(#pead76022be)" style="fill: none; stroke: #b0b0b0; stroke-width: 0.8; stroke-linecap: square"/>
     </g>
     <g id="line2d_14">
      <defs>
       <path id="m56af0f4875" d="M 0 0 
L -3.5 0 
" style="stroke: #000000; stroke-width: 0.8"/>
      </defs>
      <g>
       <use xlink:href="#m56af0f4875" x="57.6" y="306.618073" style="stroke: #000000; stroke-width: 0.8"/>
      </g>
     </g>
     <g id="text_8">
      <!-- −2.0 -->
      <g transform="translate(26.317187 310.417291) scale(0.1 -0.1)">
       <defs>
        <path id="DejaVuSans-2212" d="M 678 2272 
L 4684 2272 
L 4684 1741 
L 678 1741 
L 678 2272 
z
" transform="scale(0.015625)"/>
       </defs>
       <use xlink:href="#DejaVuSans-2212"/>
       <use xlink:href="#DejaVuSans-32" transform="translate(83.789062 0)"/>
       <use xlink:href="#DejaVuSans-2e" transform="translate(147.412109 0)"/>
       <use xlink:href="#DejaVuSans-30" transform="translate(179.199219 0)"/>
      </g>
     </g>
    </g>
    <g id="ytick_2">
     <g id="line2d_15">
      <path d="M 57.6 274.016936 
L 414.72 274.016936 
" clip-path="url(#pead76022be)" style="fill: none; stroke: #b0b0b0; stroke-width: 0.8; stroke-linecap: square"/>
     </g>
     <g id="line2d_16">
      <g>
       <use xlink:href="#m56af0f4875" x="57.6" y="274.016936" style="stroke: #000000; stroke-width: 0.8"/>
      </g>
     </g>
     <g id="text_9">
      <!-- −1.5 -->
      <g transform="translate(26.317187 277.816155) scale(0.1 -0.1)">
       <defs>
        <path id="DejaVuSans-35" d="M 691 4666 
L 3169 4666 
L 3169 4134 
L 1269 4134 
L 1269 2991 
Q 1406 3038 1543 3061 
Q 1681 3084 1819 3084 
Q 2600 3084 3056 2656 
Q 3513 2228 3513 1497 
Q 3513 744 3044 326 
Q 2575 -91 1722 -91 
Q 1428 -91 1123 -41 
Q 819 9 494 109 
L 494 744 
Q 775 591 1075 516 
Q 1375 441 1709 441 
Q 2250 441 2565 725 
Q 2881 1009 2881 1497 
Q 2881 1984 2565 2268 
Q 2250 2553 1709 2553 
Q 1456 2553 1204 2497 
Q 953 2441 691 2322 
L 691 4666 
z
" transform="scale(0.015625)"/>
       </defs>
       <use xlink:href="#DejaVuSans-2212"/>
       <use xlink:href="#DejaVuSans-31" transform="translate(83.789062 0)"/>
       <use xlink:href="#DejaVuSans-2e" transform="translate(147.412109 0)"/>
       <use xlink:href="#DejaVuSans-35" transform="translate(179.199219 0)"/>
      </g>
     </g>
    </g>
    <g id="ytick_3">
     <g id="line2d_17">
      <path d="M 57.6 241.415799 
L 414.72 241.415799 
" clip-path="url(#pead76022be)" style="fill: none; stroke: #b0b0b0; stroke-width: 0.8; stroke-linecap: square"/>
     </g>
     <g id="line2d_18">
      <g>
       <use xlink:href="#m56af0f4875" x="57.6" y="241.415799" style="stroke: #000000; stroke-width: 0.8"/>
      </g>
     </g>
     <g id="text_10">
      <!-- −1.0 -->
      <g transform="translate(26.317187 245.215018) scale(0.1 -0.1)">
       <use xlink:href="#DejaVuSans-2212"/>
       <use xlink:href="#DejaVuSans-31" transform="translate(83.789062 0)"/>
       <use xlink:href="#DejaVuSans-2e" transform="translate(147.412109 0)"/>
       <use xlink:href="#DejaVuSans-30" transform="translate(179.199219 0)"/>
      </g>
     </g>
    </g>
    <g id="ytick_4">
     <g id="line2d_19">
      <path d="M 57.6 208.814663 
L 414.72 208.814663 
" clip-path="url(#pead76022be)" style="fill: none; stroke: #b0b0b0; stroke-width: 0.8; stroke-linecap: square"/>
     </g>
     <g id="line2d_20">
      <g>
       <use xlink:href="#m56af0f4875" x="57.6" y="208.814663" style="stroke: #000000; stroke-width: 0.8"/>
      </g>
     </g>
     <g id="text_11">
      <!-- −0.5 -->
      <g transform="translate(26.317187 212.613881) scale(0.1 -0.1)">
       <use xlink:href="#DejaVuSans-2212"/>
       <use xlink:href="#DejaVuSans-30" transform="translate(83.789062 0)"/>
       <use xlink:href="#DejaVuSans-2e" transform="translate(147.412109 0)"/>
       <use xlink:href="#DejaVuSans-35" transform="translate(179.199219 0)"/>
      </g>
     </g>
    </g>
    <g id="ytick_5">
     <g id="line2d_21">
      <path d="M 57.6 176.213526 
L 414.72 176.213526 
" clip-path="url(#pead76022be)" style="fill: none; stroke: #b0b0b0; stroke-width: 0.8; stroke-linecap: square"/>
     </g>
     <g id="line2d_22">
      <g>
       <use xlink:href="#m56af0f4875" x="57.6" y="176.213526" style="stroke: #000000; stroke-width: 0.8"/>
      </g>
     </g>
     <g id="text_12">
      <!-- 0.0 -->
      <g transform="translate(34.696875 180.012745) scale(0.1 -0.1)">
       <use xlink:href="#DejaVuSans-30"/>
       <use xlink:href="#DejaVuSans-2e" transform="translate(63.623047 0)"/>
       <use xlink:href="#DejaVuSans-30" transform="translate(95.410156 0)"/>
      </g>
     </g>
    </g>
    <g id="ytick_6">
     <g id="line2d_23">
      <path d="M 57.6 143.612389 
L 414.72 143.612389 
" clip-path="url(#pead76022be)" style="fill: none; stroke: #b0b0b0; stroke-width: 0.8; stroke-linecap: square"/>
     </g>
     <g id="line2d_24">
      <g>
       <use xlink:href="#m56af0f4875" x="57.6" y="143.612389" style="stroke: #000000; stroke-width: 0.8"/>
      </g>
     </g>
     <g id="text_13">
      <!-- 0.5 -->
      <g transform="translate(34.696875 147.411608) scale(0.1 -0.1)">
       <use xlink:href="#DejaVuSans-30"/>
       <use xlink:href="#DejaVuSans-2e" transform="translate(63.623047 0)"/>
       <use xlink:href="#DejaVuSans-35" transform="translate(95.410156 0)"/>
      </g>
     </g>
    </g>
    <g id="ytick_7">
     <g id="line2d_25">
      <path d="M 57.6 111.011253 
L 414.72 111.011253 
" clip-path="url(#pead76022be)" style="fill: none; stroke: #b0b0b0; stroke-width: 0.8; stroke-linecap: square"/>
     </g>
     <g id="line2d_26">
      <g>
       <use xlink:href="#m56af0f4875" x="57.6" y="111.011253" style="stroke: #000000; stroke-width: 0.8"/>
      </g>
     </g>
     <g id="text_14">
      <!-- 1.0 -->
      <g transform="translate(34.696875 114.810471) scale(0.1 -0.1)">
       <use xlink:href="#DejaVuSans-31"/>
       <use xlink:href="#DejaVuSans-2e" transform="translate(63.623047 0)"/>
       <use xlink:href="#DejaVuSans-30" transform="translate(95.410156 0)"/>
      </g>
     </g>
    </g>
    <g id="ytick_8">
     <g id="line2d_27">
      <path d="M 57.6 78.410116 
L 414.72 78.410116 
" clip-path="url(#pead76022be)" style="fill: none; stroke: #b0b0b0; stroke-width: 0.8; stroke-linecap: square"/>
     </g>
     <g id="line2d_28">
      <g>
       <use xlink:href="#m56af0f4875" x="57.6" y="78.410116" style="stroke: #000000; stroke-width: 0.8"/>
      </g>
     </g>
     <g id="text_15">
      <!-- 1.5 -->
      <g transform="translate(34.696875 82.209335) scale(0.1 -0.1)">
       <use xlink:href="#DejaVuSans-31"/>
       <use xlink:href="#DejaVuSans-2e" transform="translate(63.623047 0)"/>
       <use xlink:href="#DejaVuSans-35" transform="translate(95.410156 0)"/>
      </g>
     </g>
    </g>
    <g id="ytick_9">
     <g id="line2d_29">
      <path d="M 57.6 45.808979 
L 414.72 45.808979 
" clip-path="url(#pead76022be)" style="fill: none; stroke: #b0b0b0; stroke-width: 0.8; stroke-linecap: square"/>
     </g>
     <g id="line2d_30">
      <g>
       <use xlink:href="#m56af0f4875" x="57.6" y="45.808979" style="stroke: #000000; stroke-width: 0.8"/>
      </g>
     </g>
     <g id="text_16">
      <!-- 2.0 -->
      <g transform="translate(34.696875 49.608198) scale(0.1 -0.1)">
       <use xlink:href="#DejaVuSans-32"/>
       <use xlink:href="#DejaVuSans-2e" transform="translate(63.623047 0)"/>
       <use xlink:href="#DejaVuSans-30" transform="translate(95.410156 0)"/>
      </g>
     </g>
    </g>
    <g id="text_17">
     <!-- y -->
     <g transform="translate(20.2375 177.487375) rotate(-90) scale(0.1 -0.1)">
      <defs>
       <path id="DejaVuSans-79" d="M 2059 -325 
Q 1816 -950 1584 -1140 
Q 1353 -1331 966 -1331 
L 506 -1331 
L 506 -850 
L 844 -850 
Q 1081 -850 1212 -737 
Q 1344 -625 1503 -206 
L 1606 56 
L 191 3500 
L 800 3500 
L 1894 763 
L 2988 3500 
L 3597 3500 
L 2059 -325 
z
" transform="scale(0.015625)"/>
      </defs>
      <use xlink:href="#DejaVuSans-79"/>
     </g>
    </g>
   </g>
   <g id="line2d_31">
    <path d="M 73.832727 176.213526 
L 86.514545 160.370666 
L 94.123636 151.261696 
L 99.196364 145.477387 
L 104.269091 139.989084 
L 109.341818 134.849642 
L 114.414545 130.108556 
L 119.487273 125.811487 
L 124.56 121.999817 
L 127.096364 120.287671 
L 129.632727 118.710255 
L 132.169091 117.271369 
L 134.705455 115.97448 
L 137.241818 114.822712 
L 139.778182 113.818841 
L 142.314545 112.965283 
L 144.850909 112.264096 
L 147.387273 111.716969 
L 149.923636 111.325219 
L 152.46 111.089792 
L 154.996364 111.011253 
L 157.532727 111.089792 
L 160.069091 111.325219 
L 162.605455 111.716969 
L 165.141818 112.264096 
L 167.678182 112.965283 
L 170.214545 113.818841 
L 172.750909 114.822712 
L 175.287273 115.97448 
L 177.823636 117.271369 
L 180.36 118.710255 
L 182.896364 120.287671 
L 187.969091 123.842569 
L 193.041818 127.901828 
L 198.114545 132.426355 
L 203.187273 137.372577 
L 208.26 142.692858 
L 213.332727 148.335962 
L 218.405455 154.247542 
L 226.014545 163.493193 
L 238.696364 179.41285 
L 248.841818 192.056386 
L 256.450909 201.165356 
L 261.523636 206.949665 
L 266.596364 212.437968 
L 271.669091 217.57741 
L 276.741818 222.318496 
L 281.814545 226.615565 
L 286.887273 230.427235 
L 289.423636 232.139381 
L 291.96 233.716797 
L 294.496364 235.155683 
L 297.032727 236.452572 
L 299.569091 237.604339 
L 302.105455 238.608211 
L 304.641818 239.461769 
L 307.178182 240.162956 
L 309.714545 240.710083 
L 312.250909 241.101833 
L 314.787273 241.33726 
L 317.323636 241.415799 
L 319.86 241.33726 
L 322.396364 241.101833 
L 324.932727 240.710083 
L 327.469091 240.162956 
L 330.005455 239.461769 
L 332.541818 238.608211 
L 335.078182 237.604339 
L 337.614545 236.452572 
L 340.150909 235.155683 
L 342.687273 233.716797 
L 345.223636 232.139381 
L 350.296364 228.584483 
L 355.369091 224.525224 
L 360.441818 220.000696 
L 365.514545 215.054475 
L 370.587273 209.734194 
L 375.66 204.09109 
L 380.732727 198.17951 
L 388.341818 188.933858 
L 398.487273 176.213526 
L 398.487273 176.213526 
" clip-path="url(#pead76022be)" style="fill: none; stroke-dasharray: 1,1.65; stroke-dashoffset: 0; stroke: #1f77b4"/>
   </g>
   <g id="PathCollection_1">
    <defs>
     <path id="ma971dbb23c" d="M 0 3 
C 0.795609 3 1.55874 2.683901 2.12132 2.12132 
C 2.683901 1.55874 3 0.795609 3 0 
C 3 -0.795609 2.683901 -1.55874 2.12132 -2.12132 
C 1.55874 -2.683901 0.795609 -3 0 -3 
C -0.795609 -3 -1.55874 -2.683901 -2.12132 -2.12132 
C -2.683901 -1.55874 -3 -0.795609 -3 0 
C -3 0.795609 -2.683901 1.55874 -2.12132 2.12132 
C -1.55874 2.683901 -0.795609 3 0 3 
z
" style="stroke: #ff7f0e"/>
    </defs>
    <g clip-path="url(#pead76022be)">
     <use xlink:href="#ma971dbb23c" x="73.832727" y="156.385461" style="fill: #ff7f0e; stroke: #ff7f0e"/>
     <use xlink:href="#ma971dbb23c" x="77.112066" y="213.356825" style="fill: #ff7f0e; stroke: #ff7f0e"/>
     <use xlink:href="#ma971dbb23c" x="80.391405" y="182.247368" style="fill: #ff7f0e; stroke: #ff7f0e"/>
     <use xlink:href="#ma971dbb23c" x="83.670744" y="124.573955" style="fill: #ff7f0e; stroke: #ff7f0e"/>
     <use xlink:href="#ma971dbb23c" x="86.950083" y="230.953744" style="fill: #ff7f0e; stroke: #ff7f0e"/>
     <use xlink:href="#ma971dbb23c" x="90.229421" y="144.456466" style="fill: #ff7f0e; stroke: #ff7f0e"/>
     <use xlink:href="#ma971dbb23c" x="93.50876" y="163.553922" style="fill: #ff7f0e; stroke: #ff7f0e"/>
     <use xlink:href="#ma971dbb23c" x="96.788099" y="101.333959" style="fill: #ff7f0e; stroke: #ff7f0e"/>
     <use xlink:href="#ma971dbb23c" x="100.067438" y="118.083696" style="fill: #ff7f0e; stroke: #ff7f0e"/>
     <use xlink:href="#ma971dbb23c" x="103.346777" y="115.104728" style="fill: #ff7f0e; stroke: #ff7f0e"/>
     <use xlink:href="#ma971dbb23c" x="106.626116" y="152.89425" style="fill: #ff7f0e; stroke: #ff7f0e"/>
     <use xlink:href="#ma971dbb23c" x="109.905455" y="125.792831" style="fill: #ff7f0e; stroke: #ff7f0e"/>
     <use xlink:href="#ma971dbb23c" x="113.184793" y="205.877429" style="fill: #ff7f0e; stroke: #ff7f0e"/>
     <use xlink:href="#ma971dbb23c" x="116.464132" y="170.139995" style="fill: #ff7f0e; stroke: #ff7f0e"/>
     <use xlink:href="#ma971dbb23c" x="119.743471" y="168.372567" style="fill: #ff7f0e; stroke: #ff7f0e"/>
     <use xlink:href="#ma971dbb23c" x="123.02281" y="126.060978" style="fill: #ff7f0e; stroke: #ff7f0e"/>
     <use xlink:href="#ma971dbb23c" x="126.302149" y="88.345505" style="fill: #ff7f0e; stroke: #ff7f0e"/>
     <use xlink:href="#ma971dbb23c" x="129.581488" y="123.287083" style="fill: #ff7f0e; stroke: #ff7f0e"/>
     <use xlink:href="#ma971dbb23c" x="132.860826" y="135.166791" style="fill: #ff7f0e; stroke: #ff7f0e"/>
     <use xlink:href="#ma971dbb23c" x="136.140165" y="100.781491" style="fill: #ff7f0e; stroke: #ff7f0e"/>
     <use xlink:href="#ma971dbb23c" x="139.419504" y="103.424006" style="fill: #ff7f0e; stroke: #ff7f0e"/>
     <use xlink:href="#ma971dbb23c" x="142.698843" y="98.316095" style="fill: #ff7f0e; stroke: #ff7f0e"/>
     <use xlink:href="#ma971dbb23c" x="145.978182" y="145.844299" style="fill: #ff7f0e; stroke: #ff7f0e"/>
     <use xlink:href="#ma971dbb23c" x="149.257521" y="139.342793" style="fill: #ff7f0e; stroke: #ff7f0e"/>
     <use xlink:href="#ma971dbb23c" x="152.53686" y="95.644655" style="fill: #ff7f0e; stroke: #ff7f0e"/>
     <use xlink:href="#ma971dbb23c" x="155.816198" y="115.110829" style="fill: #ff7f0e; stroke: #ff7f0e"/>
     <use xlink:href="#ma971dbb23c" x="159.095537" y="99.75971" style="fill: #ff7f0e; stroke: #ff7f0e"/>
     <use xlink:href="#ma971dbb23c" x="162.374876" y="53.568" style="fill: #ff7f0e; stroke: #ff7f0e"/>
     <use xlink:href="#ma971dbb23c" x="165.654215" y="110.104542" style="fill: #ff7f0e; stroke: #ff7f0e"/>
     <use xlink:href="#ma971dbb23c" x="168.933554" y="138.842261" style="fill: #ff7f0e; stroke: #ff7f0e"/>
     <use xlink:href="#ma971dbb23c" x="172.212893" y="138.120134" style="fill: #ff7f0e; stroke: #ff7f0e"/>
     <use xlink:href="#ma971dbb23c" x="175.492231" y="123.938089" style="fill: #ff7f0e; stroke: #ff7f0e"/>
     <use xlink:href="#ma971dbb23c" x="178.77157" y="176.08236" style="fill: #ff7f0e; stroke: #ff7f0e"/>
     <use xlink:href="#ma971dbb23c" x="182.050909" y="106.661917" style="fill: #ff7f0e; stroke: #ff7f0e"/>
     <use xlink:href="#ma971dbb23c" x="185.330248" y="77.335412" style="fill: #ff7f0e; stroke: #ff7f0e"/>
     <use xlink:href="#ma971dbb23c" x="188.609587" y="91.585317" style="fill: #ff7f0e; stroke: #ff7f0e"/>
     <use xlink:href="#ma971dbb23c" x="191.888926" y="102.761615" style="fill: #ff7f0e; stroke: #ff7f0e"/>
     <use xlink:href="#ma971dbb23c" x="195.168264" y="131.166057" style="fill: #ff7f0e; stroke: #ff7f0e"/>
     <use xlink:href="#ma971dbb23c" x="198.447603" y="115.155422" style="fill: #ff7f0e; stroke: #ff7f0e"/>
     <use xlink:href="#ma971dbb23c" x="201.726942" y="126.12943" style="fill: #ff7f0e; stroke: #ff7f0e"/>
     <use xlink:href="#ma971dbb23c" x="205.006281" y="125.947891" style="fill: #ff7f0e; stroke: #ff7f0e"/>
     <use xlink:href="#ma971dbb23c" x="208.28562" y="158.535793" style="fill: #ff7f0e; stroke: #ff7f0e"/>
     <use xlink:href="#ma971dbb23c" x="211.564959" y="158.82209" style="fill: #ff7f0e; stroke: #ff7f0e"/>
     <use xlink:href="#ma971dbb23c" x="214.844298" y="174.61462" style="fill: #ff7f0e; stroke: #ff7f0e"/>
     <use xlink:href="#ma971dbb23c" x="218.123636" y="145.50434" style="fill: #ff7f0e; stroke: #ff7f0e"/>
     <use xlink:href="#ma971dbb23c" x="221.402975" y="93.660122" style="fill: #ff7f0e; stroke: #ff7f0e"/>
     <use xlink:href="#ma971dbb23c" x="224.682314" y="183.733613" style="fill: #ff7f0e; stroke: #ff7f0e"/>
     <use xlink:href="#ma971dbb23c" x="227.961653" y="105.410539" style="fill: #ff7f0e; stroke: #ff7f0e"/>
     <use xlink:href="#ma971dbb23c" x="231.240992" y="168.315202" style="fill: #ff7f0e; stroke: #ff7f0e"/>
     <use xlink:href="#ma971dbb23c" x="234.520331" y="148.37536" style="fill: #ff7f0e; stroke: #ff7f0e"/>
     <use xlink:href="#ma971dbb23c" x="237.799669" y="154.928352" style="fill: #ff7f0e; stroke: #ff7f0e"/>
     <use xlink:href="#ma971dbb23c" x="241.079008" y="206.654319" style="fill: #ff7f0e; stroke: #ff7f0e"/>
     <use xlink:href="#ma971dbb23c" x="244.358347" y="180.505361" style="fill: #ff7f0e; stroke: #ff7f0e"/>
     <use xlink:href="#ma971dbb23c" x="247.637686" y="240.481958" style="fill: #ff7f0e; stroke: #ff7f0e"/>
     <use xlink:href="#ma971dbb23c" x="250.917025" y="173.228489" style="fill: #ff7f0e; stroke: #ff7f0e"/>
     <use xlink:href="#ma971dbb23c" x="254.196364" y="180.972274" style="fill: #ff7f0e; stroke: #ff7f0e"/>
     <use xlink:href="#ma971dbb23c" x="257.475702" y="145.687402" style="fill: #ff7f0e; stroke: #ff7f0e"/>
     <use xlink:href="#ma971dbb23c" x="260.755041" y="237.346373" style="fill: #ff7f0e; stroke: #ff7f0e"/>
     <use xlink:href="#ma971dbb23c" x="264.03438" y="197.385769" style="fill: #ff7f0e; stroke: #ff7f0e"/>
     <use xlink:href="#ma971dbb23c" x="267.313719" y="219.088061" style="fill: #ff7f0e; stroke: #ff7f0e"/>
     <use xlink:href="#ma971dbb23c" x="270.593058" y="161.97833" style="fill: #ff7f0e; stroke: #ff7f0e"/>
     <use xlink:href="#ma971dbb23c" x="273.872397" y="253.559607" style="fill: #ff7f0e; stroke: #ff7f0e"/>
     <use xlink:href="#ma971dbb23c" x="277.151736" y="234.209018" style="fill: #ff7f0e; stroke: #ff7f0e"/>
     <use xlink:href="#ma971dbb23c" x="280.431074" y="185.918415" style="fill: #ff7f0e; stroke: #ff7f0e"/>
     <use xlink:href="#ma971dbb23c" x="283.710413" y="253.43117" style="fill: #ff7f0e; stroke: #ff7f0e"/>
     <use xlink:href="#ma971dbb23c" x="286.989752" y="275.114654" style="fill: #ff7f0e; stroke: #ff7f0e"/>
     <use xlink:href="#ma971dbb23c" x="290.269091" y="229.306967" style="fill: #ff7f0e; stroke: #ff7f0e"/>
     <use xlink:href="#ma971dbb23c" x="293.54843" y="263.708688" style="fill: #ff7f0e; stroke: #ff7f0e"/>
     <use xlink:href="#ma971dbb23c" x="296.827769" y="206.829479" style="fill: #ff7f0e; stroke: #ff7f0e"/>
     <use xlink:href="#ma971dbb23c" x="300.107107" y="226.915048" style="fill: #ff7f0e; stroke: #ff7f0e"/>
     <use xlink:href="#ma971dbb23c" x="303.386446" y="254.825492" style="fill: #ff7f0e; stroke: #ff7f0e"/>
     <use xlink:href="#ma971dbb23c" x="306.665785" y="217.93146" style="fill: #ff7f0e; stroke: #ff7f0e"/>
     <use xlink:href="#ma971dbb23c" x="309.945124" y="185.02444" style="fill: #ff7f0e; stroke: #ff7f0e"/>
     <use xlink:href="#ma971dbb23c" x="313.224463" y="206.307284" style="fill: #ff7f0e; stroke: #ff7f0e"/>
     <use xlink:href="#ma971dbb23c" x="316.503802" y="257.933915" style="fill: #ff7f0e; stroke: #ff7f0e"/>
     <use xlink:href="#ma971dbb23c" x="319.78314" y="295.488" style="fill: #ff7f0e; stroke: #ff7f0e"/>
     <use xlink:href="#ma971dbb23c" x="323.062479" y="167.784444" style="fill: #ff7f0e; stroke: #ff7f0e"/>
     <use xlink:href="#ma971dbb23c" x="326.341818" y="215.661356" style="fill: #ff7f0e; stroke: #ff7f0e"/>
     <use xlink:href="#ma971dbb23c" x="329.621157" y="256.229331" style="fill: #ff7f0e; stroke: #ff7f0e"/>
     <use xlink:href="#ma971dbb23c" x="332.900496" y="259.114001" style="fill: #ff7f0e; stroke: #ff7f0e"/>
     <use xlink:href="#ma971dbb23c" x="336.179835" y="268.32373" style="fill: #ff7f0e; stroke: #ff7f0e"/>
     <use xlink:href="#ma971dbb23c" x="339.459174" y="217.787063" style="fill: #ff7f0e; stroke: #ff7f0e"/>
     <use xlink:href="#ma971dbb23c" x="342.738512" y="207.130685" style="fill: #ff7f0e; stroke: #ff7f0e"/>
     <use xlink:href="#ma971dbb23c" x="346.017851" y="255.569884" style="fill: #ff7f0e; stroke: #ff7f0e"/>
     <use xlink:href="#ma971dbb23c" x="349.29719" y="232.959479" style="fill: #ff7f0e; stroke: #ff7f0e"/>
     <use xlink:href="#ma971dbb23c" x="352.576529" y="194.3988" style="fill: #ff7f0e; stroke: #ff7f0e"/>
     <use xlink:href="#ma971dbb23c" x="355.855868" y="229.347143" style="fill: #ff7f0e; stroke: #ff7f0e"/>
     <use xlink:href="#ma971dbb23c" x="359.135207" y="251.813234" style="fill: #ff7f0e; stroke: #ff7f0e"/>
     <use xlink:href="#ma971dbb23c" x="362.414545" y="282.306321" style="fill: #ff7f0e; stroke: #ff7f0e"/>
     <use xlink:href="#ma971dbb23c" x="365.693884" y="236.311091" style="fill: #ff7f0e; stroke: #ff7f0e"/>
     <use xlink:href="#ma971dbb23c" x="368.973223" y="200.420866" style="fill: #ff7f0e; stroke: #ff7f0e"/>
     <use xlink:href="#ma971dbb23c" x="372.252562" y="174.806323" style="fill: #ff7f0e; stroke: #ff7f0e"/>
     <use xlink:href="#ma971dbb23c" x="375.531901" y="183.464755" style="fill: #ff7f0e; stroke: #ff7f0e"/>
     <use xlink:href="#ma971dbb23c" x="378.81124" y="203.377837" style="fill: #ff7f0e; stroke: #ff7f0e"/>
     <use xlink:href="#ma971dbb23c" x="382.090579" y="224.461687" style="fill: #ff7f0e; stroke: #ff7f0e"/>
     <use xlink:href="#ma971dbb23c" x="385.369917" y="151.143677" style="fill: #ff7f0e; stroke: #ff7f0e"/>
     <use xlink:href="#ma971dbb23c" x="388.649256" y="196.320442" style="fill: #ff7f0e; stroke: #ff7f0e"/>
     <use xlink:href="#ma971dbb23c" x="391.928595" y="141.228792" style="fill: #ff7f0e; stroke: #ff7f0e"/>
     <use xlink:href="#ma971dbb23c" x="395.207934" y="111.245076" style="fill: #ff7f0e; stroke: #ff7f0e"/>
     <use xlink:href="#ma971dbb23c" x="398.487273" y="205.606104" style="fill: #ff7f0e; stroke: #ff7f0e"/>
    </g>
   </g>
   <g id="patch_3">
    <path d="M 57.6 307.584 
L 57.6 41.472 
" style="fill: none; stroke: #000000; stroke-width: 0.8; stroke-linejoin: miter; stroke-linecap: square"/>
   </g>
   <g id="patch_4">
    <path d="M 414.72 307.584 
L 414.72 41.472 
" style="fill: none; stroke: #000000; stroke-width: 0.8; stroke-linejoin: miter; stroke-linecap: square"/>
   </g>
   <g id="patch_5">
    <path d="M 57.6 307.584 
L 414.72 307.584 
" style="fill: none; stroke: #000000; stroke-width: 0.8; stroke-linejoin: miter; stroke-linecap: square"/>
   </g>
   <g id="patch_6">
    <path d="M 57.6 41.472 
L 414.72 41.472 
" style="fill: none; stroke: #000000; stroke-width: 0.8; stroke-linejoin: miter; stroke-linecap: square"/>
   </g>
   <g id="legend_1">
    <g id="patch_7">
     <path d="M 311.615313 80.82825 
L 409.72 80.82825 
Q 411.72 80.82825 411.72 78.82825 
L 411.72 50.472 
Q 411.72 48.472 409.72 48.472 
L 311.615313 48.472 
Q 309.615313 48.472 309.615313 50.472 
L 309.615313 78.82825 
Q 309.615313 80.82825 311.615313 80.82825 
z
" style="fill: #4d4d4d; opacity: 0.5; stroke: #4d4d4d; stroke-linejoin: miter"/>
    </g>
    <g id="patch_8">
     <path d="M 309.615313 78.82825 
L 407.72 78.82825 
Q 409.72 78.82825 409.72 76.82825 
L 409.72 48.472 
Q 409.72 46.472 407.72 46.472 
L 309.615313 46.472 
Q 307.615313 46.472 307.615313 48.472 
L 307.615313 76.82825 
Q 307.615313 78.82825 309.615313 78.82825 
z
" style="fill: #ffffff; stroke: #cccccc; stroke-linejoin: miter"/>
    </g>
    <g id="line2d_32">
     <path d="M 311.615313 54.570437 
L 321.615313 54.570437 
L 331.615313 54.570437 
" style="fill: none; stroke-dasharray: 1,1.65; stroke-dashoffset: 0; stroke: #1f77b4"/>
    </g>
    <g id="text_18">
     <!-- True -->
     <g transform="translate(339.615313 58.070437) scale(0.1 -0.1)">
      <defs>
       <path id="DejaVuSans-54" d="M -19 4666 
L 3928 4666 
L 3928 4134 
L 2272 4134 
L 2272 0 
L 1638 0 
L 1638 4134 
L -19 4134 
L -19 4666 
z
" transform="scale(0.015625)"/>
       <path id="DejaVuSans-72" d="M 2631 2963 
Q 2534 3019 2420 3045 
Q 2306 3072 2169 3072 
Q 1681 3072 1420 2755 
Q 1159 2438 1159 1844 
L 1159 0 
L 581 0 
L 581 3500 
L 1159 3500 
L 1159 2956 
Q 1341 3275 1631 3429 
Q 1922 3584 2338 3584 
Q 2397 3584 2469 3576 
Q 2541 3569 2628 3553 
L 2631 2963 
z
" transform="scale(0.015625)"/>
       <path id="DejaVuSans-75" d="M 544 1381 
L 544 3500 
L 1119 3500 
L 1119 1403 
Q 1119 906 1312 657 
Q 1506 409 1894 409 
Q 2359 409 2629 706 
Q 2900 1003 2900 1516 
L 2900 3500 
L 3475 3500 
L 3475 0 
L 2900 0 
L 2900 538 
Q 2691 219 2414 64 
Q 2138 -91 1772 -91 
Q 1169 -91 856 284 
Q 544 659 544 1381 
z
M 1991 3584 
L 1991 3584 
z
" transform="scale(0.015625)"/>
       <path id="DejaVuSans-65" d="M 3597 1894 
L 3597 1613 
L 953 1613 
Q 991 1019 1311 708 
Q 1631 397 2203 397 
Q 2534 397 2845 478 
Q 3156 559 3463 722 
L 3463 178 
Q 3153 47 2828 -22 
Q 2503 -91 2169 -91 
Q 1331 -91 842 396 
Q 353 884 353 1716 
Q 353 2575 817 3079 
Q 1281 3584 2069 3584 
Q 2775 3584 3186 3129 
Q 3597 2675 3597 1894 
z
M 3022 2063 
Q 3016 2534 2758 2815 
Q 2500 3097 2075 3097 
Q 1594 3097 1305 2825 
Q 1016 2553 972 2059 
L 3022 2063 
z
" transform="scale(0.015625)"/>
      </defs>
      <use xlink:href="#DejaVuSans-54"/>
      <use xlink:href="#DejaVuSans-72" transform="translate(46.333984 0)"/>
      <use xlink:href="#DejaVuSans-75" transform="translate(87.447266 0)"/>
      <use xlink:href="#DejaVuSans-65" transform="translate(150.826172 0)"/>
     </g>
    </g>
    <g id="PathCollection_2">
     <g>
      <use xlink:href="#ma971dbb23c" x="321.615313" y="70.123562" style="fill: #ff7f0e; stroke: #ff7f0e"/>
     </g>
    </g>
    <g id="text_19">
     <!-- Observations -->
     <g transform="translate(339.615313 72.748562) scale(0.1 -0.1)">
      <defs>
       <path id="DejaVuSans-4f" d="M 2522 4238 
Q 1834 4238 1429 3725 
Q 1025 3213 1025 2328 
Q 1025 1447 1429 934 
Q 1834 422 2522 422 
Q 3209 422 3611 934 
Q 4013 1447 4013 2328 
Q 4013 3213 3611 3725 
Q 3209 4238 2522 4238 
z
M 2522 4750 
Q 3503 4750 4090 4092 
Q 4678 3434 4678 2328 
Q 4678 1225 4090 567 
Q 3503 -91 2522 -91 
Q 1538 -91 948 565 
Q 359 1222 359 2328 
Q 359 3434 948 4092 
Q 1538 4750 2522 4750 
z
" transform="scale(0.015625)"/>
       <path id="DejaVuSans-62" d="M 3116 1747 
Q 3116 2381 2855 2742 
Q 2594 3103 2138 3103 
Q 1681 3103 1420 2742 
Q 1159 2381 1159 1747 
Q 1159 1113 1420 752 
Q 1681 391 2138 391 
Q 2594 391 2855 752 
Q 3116 1113 3116 1747 
z
M 1159 2969 
Q 1341 3281 1617 3432 
Q 1894 3584 2278 3584 
Q 2916 3584 3314 3078 
Q 3713 2572 3713 1747 
Q 3713 922 3314 415 
Q 2916 -91 2278 -91 
Q 1894 -91 1617 61 
Q 1341 213 1159 525 
L 1159 0 
L 581 0 
L 581 4863 
L 1159 4863 
L 1159 2969 
z
" transform="scale(0.015625)"/>
       <path id="DejaVuSans-73" d="M 2834 3397 
L 2834 2853 
Q 2591 2978 2328 3040 
Q 2066 3103 1784 3103 
Q 1356 3103 1142 2972 
Q 928 2841 928 2578 
Q 928 2378 1081 2264 
Q 1234 2150 1697 2047 
L 1894 2003 
Q 2506 1872 2764 1633 
Q 3022 1394 3022 966 
Q 3022 478 2636 193 
Q 2250 -91 1575 -91 
Q 1294 -91 989 -36 
Q 684 19 347 128 
L 347 722 
Q 666 556 975 473 
Q 1284 391 1588 391 
Q 1994 391 2212 530 
Q 2431 669 2431 922 
Q 2431 1156 2273 1281 
Q 2116 1406 1581 1522 
L 1381 1569 
Q 847 1681 609 1914 
Q 372 2147 372 2553 
Q 372 3047 722 3315 
Q 1072 3584 1716 3584 
Q 2034 3584 2315 3537 
Q 2597 3491 2834 3397 
z
" transform="scale(0.015625)"/>
       <path id="DejaVuSans-76" d="M 191 3500 
L 800 3500 
L 1894 563 
L 2988 3500 
L 3597 3500 
L 2284 0 
L 1503 0 
L 191 3500 
z
" transform="scale(0.015625)"/>
       <path id="DejaVuSans-61" d="M 2194 1759 
Q 1497 1759 1228 1600 
Q 959 1441 959 1056 
Q 959 750 1161 570 
Q 1363 391 1709 391 
Q 2188 391 2477 730 
Q 2766 1069 2766 1631 
L 2766 1759 
L 2194 1759 
z
M 3341 1997 
L 3341 0 
L 2766 0 
L 2766 531 
Q 2569 213 2275 61 
Q 1981 -91 1556 -91 
Q 1019 -91 701 211 
Q 384 513 384 1019 
Q 384 1609 779 1909 
Q 1175 2209 1959 2209 
L 2766 2209 
L 2766 2266 
Q 2766 2663 2505 2880 
Q 2244 3097 1772 3097 
Q 1472 3097 1187 3025 
Q 903 2953 641 2809 
L 641 3341 
Q 956 3463 1253 3523 
Q 1550 3584 1831 3584 
Q 2591 3584 2966 3190 
Q 3341 2797 3341 1997 
z
" transform="scale(0.015625)"/>
       <path id="DejaVuSans-74" d="M 1172 4494 
L 1172 3500 
L 2356 3500 
L 2356 3053 
L 1172 3053 
L 1172 1153 
Q 1172 725 1289 603 
Q 1406 481 1766 481 
L 2356 481 
L 2356 0 
L 1766 0 
Q 1100 0 847 248 
Q 594 497 594 1153 
L 594 3053 
L 172 3053 
L 172 3500 
L 594 3500 
L 594 4494 
L 1172 4494 
z
" transform="scale(0.015625)"/>
       <path id="DejaVuSans-69" d="M 603 3500 
L 1178 3500 
L 1178 0 
L 603 0 
L 603 3500 
z
M 603 4863 
L 1178 4863 
L 1178 4134 
L 603 4134 
L 603 4863 
z
" transform="scale(0.015625)"/>
       <path id="DejaVuSans-6f" d="M 1959 3097 
Q 1497 3097 1228 2736 
Q 959 2375 959 1747 
Q 959 1119 1226 758 
Q 1494 397 1959 397 
Q 2419 397 2687 759 
Q 2956 1122 2956 1747 
Q 2956 2369 2687 2733 
Q 2419 3097 1959 3097 
z
M 1959 3584 
Q 2709 3584 3137 3096 
Q 3566 2609 3566 1747 
Q 3566 888 3137 398 
Q 2709 -91 1959 -91 
Q 1206 -91 779 398 
Q 353 888 353 1747 
Q 353 2609 779 3096 
Q 1206 3584 1959 3584 
z
" transform="scale(0.015625)"/>
       <path id="DejaVuSans-6e" d="M 3513 2113 
L 3513 0 
L 2938 0 
L 2938 2094 
Q 2938 2591 2744 2837 
Q 2550 3084 2163 3084 
Q 1697 3084 1428 2787 
Q 1159 2491 1159 1978 
L 1159 0 
L 581 0 
L 581 3500 
L 1159 3500 
L 1159 2956 
Q 1366 3272 1645 3428 
Q 1925 3584 2291 3584 
Q 2894 3584 3203 3211 
Q 3513 2838 3513 2113 
z
" transform="scale(0.015625)"/>
      </defs>
      <use xlink:href="#DejaVuSans-4f"/>
      <use xlink:href="#DejaVuSans-62" transform="translate(78.710938 0)"/>
      <use xlink:href="#DejaVuSans-73" transform="translate(142.1875 0)"/>
      <use xlink:href="#DejaVuSans-65" transform="translate(194.287109 0)"/>
      <use xlink:href="#DejaVuSans-72" transform="translate(255.810547 0)"/>
      <use xlink:href="#DejaVuSans-76" transform="translate(296.923828 0)"/>
      <use xlink:href="#DejaVuSans-61" transform="translate(356.103516 0)"/>
      <use xlink:href="#DejaVuSans-74" transform="translate(417.382812 0)"/>
      <use xlink:href="#DejaVuSans-69" transform="translate(456.591797 0)"/>
      <use xlink:href="#DejaVuSans-6f" transform="translate(484.375 0)"/>
      <use xlink:href="#DejaVuSans-6e" transform="translate(545.556641 0)"/>
      <use xlink:href="#DejaVuSans-73" transform="translate(608.935547 0)"/>
     </g>
    </g>
   </g>
  </g>
  <g id="text_20">
   <!-- Polynomial curve fitting -->
   <g transform="translate(159.394688 16.030125) scale(0.12 -0.12)">
    <defs>
     <path id="DejaVuSans-50" d="M 1259 4147 
L 1259 2394 
L 2053 2394 
Q 2494 2394 2734 2622 
Q 2975 2850 2975 3272 
Q 2975 3691 2734 3919 
Q 2494 4147 2053 4147 
L 1259 4147 
z
M 628 4666 
L 2053 4666 
Q 2838 4666 3239 4311 
Q 3641 3956 3641 3272 
Q 3641 2581 3239 2228 
Q 2838 1875 2053 1875 
L 1259 1875 
L 1259 0 
L 628 0 
L 628 4666 
z
" transform="scale(0.015625)"/>
     <path id="DejaVuSans-6c" d="M 603 4863 
L 1178 4863 
L 1178 0 
L 603 0 
L 603 4863 
z
" transform="scale(0.015625)"/>
     <path id="DejaVuSans-6d" d="M 3328 2828 
Q 3544 3216 3844 3400 
Q 4144 3584 4550 3584 
Q 5097 3584 5394 3201 
Q 5691 2819 5691 2113 
L 5691 0 
L 5113 0 
L 5113 2094 
Q 5113 2597 4934 2840 
Q 4756 3084 4391 3084 
Q 3944 3084 3684 2787 
Q 3425 2491 3425 1978 
L 3425 0 
L 2847 0 
L 2847 2094 
Q 2847 2600 2669 2842 
Q 2491 3084 2119 3084 
Q 1678 3084 1418 2786 
Q 1159 2488 1159 1978 
L 1159 0 
L 581 0 
L 581 3500 
L 1159 3500 
L 1159 2956 
Q 1356 3278 1631 3431 
Q 1906 3584 2284 3584 
Q 2666 3584 2933 3390 
Q 3200 3197 3328 2828 
z
" transform="scale(0.015625)"/>
     <path id="DejaVuSans-20" transform="scale(0.015625)"/>
     <path id="DejaVuSans-63" d="M 3122 3366 
L 3122 2828 
Q 2878 2963 2633 3030 
Q 2388 3097 2138 3097 
Q 1578 3097 1268 2742 
Q 959 2388 959 1747 
Q 959 1106 1268 751 
Q 1578 397 2138 397 
Q 2388 397 2633 464 
Q 2878 531 3122 666 
L 3122 134 
Q 2881 22 2623 -34 
Q 2366 -91 2075 -91 
Q 1284 -91 818 406 
Q 353 903 353 1747 
Q 353 2603 823 3093 
Q 1294 3584 2113 3584 
Q 2378 3584 2631 3529 
Q 2884 3475 3122 3366 
z
" transform="scale(0.015625)"/>
     <path id="DejaVuSans-66" d="M 2375 4863 
L 2375 4384 
L 1825 4384 
Q 1516 4384 1395 4259 
Q 1275 4134 1275 3809 
L 1275 3500 
L 2222 3500 
L 2222 3053 
L 1275 3053 
L 1275 0 
L 697 0 
L 697 3053 
L 147 3053 
L 147 3500 
L 697 3500 
L 697 3744 
Q 697 4328 969 4595 
Q 1241 4863 1831 4863 
L 2375 4863 
z
" transform="scale(0.015625)"/>
     <path id="DejaVuSans-67" d="M 2906 1791 
Q 2906 2416 2648 2759 
Q 2391 3103 1925 3103 
Q 1463 3103 1205 2759 
Q 947 2416 947 1791 
Q 947 1169 1205 825 
Q 1463 481 1925 481 
Q 2391 481 2648 825 
Q 2906 1169 2906 1791 
z
M 3481 434 
Q 3481 -459 3084 -895 
Q 2688 -1331 1869 -1331 
Q 1566 -1331 1297 -1286 
Q 1028 -1241 775 -1147 
L 775 -588 
Q 1028 -725 1275 -790 
Q 1522 -856 1778 -856 
Q 2344 -856 2625 -561 
Q 2906 -266 2906 331 
L 2906 616 
Q 2728 306 2450 153 
Q 2172 0 1784 0 
Q 1141 0 747 490 
Q 353 981 353 1791 
Q 353 2603 747 3093 
Q 1141 3584 1784 3584 
Q 2172 3584 2450 3431 
Q 2728 3278 2906 2969 
L 2906 3500 
L 3481 3500 
L 3481 434 
z
" transform="scale(0.015625)"/>
    </defs>
    <use xlink:href="#DejaVuSans-50"/>
    <use xlink:href="#DejaVuSans-6f" transform="translate(56.677734 0)"/>
    <use xlink:href="#DejaVuSans-6c" transform="translate(117.859375 0)"/>
    <use xlink:href="#DejaVuSans-79" transform="translate(145.642578 0)"/>
    <use xlink:href="#DejaVuSans-6e" transform="translate(204.822266 0)"/>
    <use xlink:href="#DejaVuSans-6f" transform="translate(268.201172 0)"/>
    <use xlink:href="#DejaVuSans-6d" transform="translate(329.382812 0)"/>
    <use xlink:href="#DejaVuSans-69" transform="translate(426.794922 0)"/>
    <use xlink:href="#DejaVuSans-61" transform="translate(454.578125 0)"/>
    <use xlink:href="#DejaVuSans-6c" transform="translate(515.857422 0)"/>
    <use xlink:href="#DejaVuSans-20" transform="translate(543.640625 0)"/>
    <use xlink:href="#DejaVuSans-63" transform="translate(575.427734 0)"/>
    <use xlink:href="#DejaVuSans-75" transform="translate(630.408203 0)"/>
    <use xlink:href="#DejaVuSans-72" transform="translate(693.787109 0)"/>
    <use xlink:href="#DejaVuSans-76" transform="translate(734.900391 0)"/>
    <use xlink:href="#DejaVuSans-65" transform="translate(794.080078 0)"/>
    <use xlink:href="#DejaVuSans-20" transform="translate(855.603516 0)"/>
    <use xlink:href="#DejaVuSans-66" transform="translate(887.390625 0)"/>
    <use xlink:href="#DejaVuSans-69" transform="translate(922.595703 0)"/>
    <use xlink:href="#DejaVuSans-74" transform="translate(950.378906 0)"/>
    <use xlink:href="#DejaVuSans-74" transform="translate(989.587891 0)"/>
    <use xlink:href="#DejaVuSans-69" transform="translate(1028.796875 0)"/>
    <use xlink:href="#DejaVuSans-6e" transform="translate(1056.580078 0)"/>
    <use xlink:href="#DejaVuSans-67" transform="translate(1119.958984 0)"/>
   </g>
  </g>
 </g>
 <defs>
  <clipPath id="pead76022be">
   <rect x="57.6" y="41.472" width="357.12" height="266.112"/>
  </clipPath>
 </defs>
</svg>
