<?xml version="1.0" encoding="utf-8" standalone="no"?>
<!DOCTYPE svg PUBLIC "-//W3C//DTD SVG 1.1//EN"
  "http://www.w3.org/Graphics/SVG/1.1/DTD/svg11.dtd">
<svg xmlns:xlink="http://www.w3.org/1999/xlink" width="460.8pt" height="345.6pt" viewBox="0 0 460.8 345.6" xmlns="http://www.w3.org/2000/svg" version="1.1">
 <metadata>
  <rdf:RDF xmlns:dc="http://purl.org/dc/elements/1.1/" xmlns:cc="http://creativecommons.org/ns#" xmlns:rdf="http://www.w3.org/1999/02/22-rdf-syntax-ns#">
   <cc:Work>
    <dc:type rdf:resource="http://purl.org/dc/dcmitype/StillImage"/>
    <dc:date>2022-01-01T00:00:00+00:00</dc:date>
    <dc:format>image/svg+xml</dc:format>
    <dc:creator>
     <cc:Agent>
      <dc:title>Matplotlib v3.10.8, https://matplotlib.org/</dc:title>
     </cc:Agent>
    </dc:creator>
   </cc:Work>
  </rdf:RDF>
 </metadata>
 <defs>
  <style type="text/css">*{stroke-linejoin: round; stroke-linecap: butt}</style>
 </defs>
 <g id="figure_1">
  <g id="patch_1">
   <path d="M 0 345.6 
L 460.8 345.6 
L 460.8 0 
L 0 0 
z
" style="fill: #ffffff"/>
  </g>
  <g id="axes_1">
   <g id="patch_2">
    <path d="M 57.6 307.584 
L 414.72 307.584 
L 414.72 41.472 
L 57.6 41.472 
z
" style="fill: #ffffff"/>
   </g>
   <g id="matplotlib.axis_1">
    <g id="xtick_1">
     <g id="line2d_1">
      <path d="M 81.442766 307.584 
L 81.442766 41.472 
" clip-path="url(#p5501f530bd)" style="fill: none; stroke: #b0b0b0; stroke-width: 0.8; stroke-linecap: square"/>
     </g>
     <g id="line2d_2">
      <defs>
       <path id="m92f97cbd74" d="M 0 0 
L 0 3.5 
" style="stroke: #000000; stroke-width: 0.8"/>
      </defs>
      <g>
       <use xlink:href="#m92f97cbd74" x="81.442766" y="307.584" style="stroke: #000000; stroke-width: 0.8"/>
      </g>
     </g>
     <g id="text_1">
      <!-- 0.0 -->
      <g transform="translate(73.491203 322.182437) scale(0.1 -0.1)">
       <defs>
        <path id="DejaVuSans-30" d="M 2034 4250 
Q 1547 4250 1301 3770 
Q 1056 3291 1056 2328 
Q 1056 1369 1301 889 
Q 1547 409 2034 409 
Q 2525 409 2770 889 
Q 3016 1369 3016 2328 
Q 3016 3291 2770 3770 
Q 2525 4250 2034 4250 
z
M 2034 4750 
Q 2819 4750 3233 4129 
Q 3647 3509 3647 2328 
Q 3647 1150 3233 529 
Q 2819 -91 2034 -91 
Q 1250 -91 836 529 
Q 422 1150 422 2328 
Q 422 3509 836 4129 
Q 1250 4750 2034 4750 
z
" transform="scale(0.015625)"/>
        <path id="DejaVuSans-2e" d="M 684 794 
L 1344 794 
L 1344 0 
L 684 0 
L 684 794 
z
" transform="scale(0.015625)"/>
       </defs>
       <use xlink:href="#DejaVuSans-30"/>
       <use xlink:href="#DejaVuSans-2e" transform="translate(63.623047 0)"/>
       <use xlink:href="#DejaVuSans-30" transform="translate(95.410156 0)"/>
      </g>
     </g>
    </g>
    <g id="xtick_2">
     <g id="line2d_3">
      <path d="M 160.151382 307.584 
L 160.151382 41.472 
" clip-path="url(#p5501f530bd)" style="fill: none; stroke: #b0b0b0; stroke-width: 0.8; stroke-linecap: square"/>
     </g>
     <g id="line2d_4">
      <g>
       <use xlink:href="#m92f97cbd74" x="160.151382" y="307.584" style="stroke: #000000; stroke-width: 0.8"/>
      </g>
     </g>
     <g id="text_2">
      <!-- 0.5 -->
      <g transform="translate(152.19982 322.182437) scale(0.1 -0.1)">
       <defs>
        <path id="DejaVuSans-35" d="M 691 4666 
L 3169 4666 
L 3169 4134 
L 1269 4134 
L 1269 2991 
Q 1406 3038 1543 3061 
Q 1681 3084 1819 3084 
Q 2600 3084 3056 2656 
Q 3513 2228 3513 1497 
Q 3513 744 3044 326 
Q 2575 -91 1722 -91 
Q 1428 -91 1123 -41 
Q 819 9 494 109 
L 494 744 
Q 775 591 1075 516 
Q 1375 441 1709 441 
Q 2250 441 2565 725 
Q 2881 1009 2881 1497 
Q 2881 1984 2565 2268 
Q 2250 2553 1709 2553 
Q 1456 2553 1204 2497 
Q 953 2441 691 2322 
L 691 4666 
z
" transform="scale(0.015625)"/>
       </defs>
       <use xlink:href="#DejaVuSans-30"/>
       <use xlink:href="#DejaVuSans-2e" transform="translate(63.623047 0)"/>
       <use xlink:href="#DejaVuSans-35" transform="translate(95.410156 0)"/>
      </g>
     </g>
    </g>
    <g id="xtick_3">
     <g id="line2d_5">
      <path d="M 238.859999 307.584 
L 238.859999 41.472 
" clip-path="url(#p5501f530bd)" style="fill: none; stroke: #b0b0b0; stroke-width: 0.8; stroke-linecap: square"/>
     </g>
     <g id="line2d_6">
      <g>
       <use xlink:href="#m92f97cbd74" x="238.859999" y="307.584" style="stroke: #000000; stroke-width: 0.8"/>
      </g>
     </g>
     <g id="text_3">
      <!-- 1.0 -->
      <g transform="translate(230.908436 322.182437) scale(0.1 -0.1)">
       <defs>
        <path id="DejaVuSans-31" d="M 794 531 
L 1825 531 
L 1825 4091 
L 703 3866 
L 703 4441 
L 1819 4666 
L 2450 4666 
L 2450 531 
L 3481 531 
L 3481 0 
L 794 0 
L 794 531 
z
" transform="scale(0.015625)"/>
       </defs>
       <use xlink:href="#DejaVuSans-31"/>
       <use xlink:href="#DejaVuSans-2e" transform="translate(63.623047 0)"/>
       <use xlink:href="#DejaVuSans-30" transform="translate(95.410156 0)"/>
      </g>
     </g>
    </g>
    <g id="xtick_4">
     <g id="line2d_7">
      <path d="M 317.568615 307.584 
L 317.568615 41.472 
" clip-path="url(#p5501f530bd)" style="fill: none; stroke: #b0b0b0; stroke-width: 0.8; stroke-linecap: square"/>
     </g>
     <g id="line2d_8">
      <g>
       <use xlink:href="#m92f97cbd74" x="317.568615" y="307.584" style="stroke: #000000; stroke-width: 0.8"/>
      </g>
     </g>
     <g id="text_4">
      <!-- 1.5 -->
      <g transform="translate(309.617053 322.182437) scale(0.1 -0.1)">
       <use xlink:href="#DejaVuSans-31"/>
       <use xlink:href="#DejaVuSans-2e" transform="translate(63.623047 0)"/>
       <use xlink:href="#DejaVuSans-35" transform="translate(95.410156 0)"/>
      </g>
     </g>
    </g>
    <g id="xtick_5">
     <g id="line2d_9">
      <path d="M 396.277232 307.584 
L 396.277232 41.472 
" clip-path="url(#p5501f530bd)" style="fill: none; stroke: #b0b0b0; stroke-width: 0.8; stroke-linecap: square"/>
     </g>
     <g id="line2d_10">
      <g>
       <use xlink:href="#m92f97cbd74" x="396.277232" y="307.584" style="stroke: #000000; stroke-width: 0.8"/>
      </g>
     </g>
     <g id="text_5">
      <!-- 2.0 -->
      <g transform="translate(388.325669 322.182437) scale(0.1 -0.1)">
       <defs>
        <path id="DejaVuSans-32" d="M 1228 531 
L 3431 531 
L 3431 0 
L 469 0 
L 469 531 
Q 828 903 1448 1529 
Q 2069 2156 2228 2338 
Q 2531 2678 2651 2914 
Q 2772 3150 2772 3378 
Q 2772 3750 2511 3984 
Q 2250 4219 1831 4219 
Q 1534 4219 1204 4116 
Q 875 4013 500 3803 
L 500 4441 
Q 881 4594 1212 4672 
Q 1544 4750 1819 4750 
Q 2544 4750 2975 4387 
Q 3406 4025 3406 3419 
Q 3406 3131 3298 2873 
Q 3191 2616 2906 2266 
Q 2828 2175 2409 1742 
Q 1991 1309 1228 531 
z
" transform="scale(0.015625)"/>
       </defs>
       <use xlink:href="#DejaVuSans-32"/>
       <use xlink:href="#DejaVuSans-2e" transform="translate(63.623047 0)"/>
       <use xlink:href="#DejaVuSans-30" transform="translate(95.410156 0)"/>
      </g>
     </g>
    </g>
    <g id="text_6">
     <!-- v0 -->
     <g transform="translate(230.019375 335.860562) scale(0.1 -0.1)">
      <defs>
       <path id="DejaVuSans-76" d="M 191 3500 
L 800 3500 
L 1894 563 
L 2988 3500 
L 3597 3500 
L 2284 0 
L 1503 0 
L 191 3500 
z
" transform="scale(0.015625)"/>
      </defs>
      <use xlink:href="#DejaVuSans-76"/>
      <use xlink:href="#DejaVuSans-30" transform="translate(59.179688 0)"/>
     </g>
    </g>
   </g>
   <g id="matplotlib.axis_2">
    <g id="ytick_1">
     <g id="line2d_11">
      <path d="M 57.6 284.555042 
L 414.72 284.555042 
" clip-path="url(#p5501f530bd)" style="fill: none; stroke: #b0b0b0; stroke-width: 0.8; stroke-linecap: square"/>
     </g>
     <g id="line2d_12">
      <defs>
       <path id="m00ced9bad8" d="M 0 0 
L -3.5 0 
" style="stroke: #000000; stroke-width: 0.8"/>
      </defs>
      <g>
       <use xlink:href="#m00ced9bad8" x="57.6" y="284.555042" style="stroke: #000000; stroke-width: 0.8"/>
      </g>
     </g>
     <g id="text_7">
      <!-- 0.0 -->
      <g transform="translate(34.696875 288.354261) scale(0.1 -0.1)">
       <use xlink:href="#DejaVuSans-30"/>
       <use xlink:href="#DejaVuSans-2e" transform="translate(63.623047 0)"/>
       <use xlink:href="#DejaVuSans-30" transform="translate(95.410156 0)"/>
      </g>
     </g>
    </g>
    <g id="ytick_2">
     <g id="line2d_13">
      <path d="M 57.6 240.529833 
L 414.72 240.529833 
" clip-path="url(#p5501f530bd)" style="fill: none; stroke: #b0b0b0; stroke-width: 0.8; stroke-linecap: square"/>
     </g>
     <g id="line2d_14">
      <g>
       <use xlink:href="#m00ced9bad8" x="57.6" y="240.529833" style="stroke: #000000; stroke-width: 0.8"/>
      </g>
     </g>
     <g id="text_8">
      <!-- 0.2 -->
      <g transform="translate(34.696875 244.329052) scale(0.1 -0.1)">
       <use xlink:href="#DejaVuSans-30"/>
       <use xlink:href="#DejaVuSans-2e" transform="translate(63.623047 0)"/>
       <use xlink:href="#DejaVuSans-32" transform="translate(95.410156 0)"/>
      </g>
     </g>
    </g>
    <g id="ytick_3">
     <g id="line2d_15">
      <path d="M 57.6 196.504625 
L 414.72 196.504625 
" clip-path="url(#p5501f530bd)" style="fill: none; stroke: #b0b0b0; stroke-width: 0.8; stroke-linecap: square"/>
     </g>
     <g id="line2d_16">
      <g>
       <use xlink:href="#m00ced9bad8" x="57.6" y="196.504625" style="stroke: #000000; stroke-width: 0.8"/>
      </g>
     </g>
     <g id="text_9">
      <!-- 0.4 -->
      <g transform="translate(34.696875 200.303843) scale(0.1 -0.1)">
       <defs>
        <path id="DejaVuSans-34" d="M 2419 4116 
L 825 1625 
L 2419 1625 
L 2419 4116 
z
M 2253 4666 
L 3047 4666 
L 3047 1625 
L 3713 1625 
L 3713 1100 
L 3047 1100 
L 3047 0 
L 2419 0 
L 2419 1100 
L 313 1100 
L 313 1709 
L 2253 4666 
z
" transform="scale(0.015625)"/>
       </defs>
       <use xlink:href="#DejaVuSans-30"/>
       <use xlink:href="#DejaVuSans-2e" transform="translate(63.623047 0)"/>
       <use xlink:href="#DejaVuSans-34" transform="translate(95.410156 0)"/>
      </g>
     </g>
    </g>
    <g id="ytick_4">
     <g id="line2d_17">
      <path d="M 57.6 152.479416 
L 414.72 152.479416 
" clip-path="url(#p5501f530bd)" style="fill: none; stroke: #b0b0b0; stroke-width: 0.8; stroke-linecap: square"/>
     </g>
     <g id="line2d_18">
      <g>
       <use xlink:href="#m00ced9bad8" x="57.6" y="152.479416" style="stroke: #000000; stroke-width: 0.8"/>
      </g>
     </g>
     <g id="text_10">
      <!-- 0.6 -->
      <g transform="translate(34.696875 156.278635) scale(0.1 -0.1)">
       <defs>
        <path id="DejaVuSans-36" d="M 2113 2584 
Q 1688 2584 1439 2293 
Q 1191 2003 1191 1497 
Q 1191 994 1439 701 
Q 1688 409 2113 409 
Q 2538 409 2786 701 
Q 3034 994 3034 1497 
Q 3034 2003 2786 2293 
Q 2538 2584 2113 2584 
z
M 3366 4563 
L 3366 3988 
Q 3128 4100 2886 4159 
Q 2644 4219 2406 4219 
Q 1781 4219 1451 3797 
Q 1122 3375 1075 2522 
Q 1259 2794 1537 2939 
Q 1816 3084 2150 3084 
Q 2853 3084 3261 2657 
Q 3669 2231 3669 1497 
Q 3669 778 3244 343 
Q 2819 -91 2113 -91 
Q 1303 -91 875 529 
Q 447 1150 447 2328 
Q 447 3434 972 4092 
Q 1497 4750 2381 4750 
Q 2619 4750 2861 4703 
Q 3103 4656 3366 4563 
z
" transform="scale(0.015625)"/>
       </defs>
       <use xlink:href="#DejaVuSans-30"/>
       <use xlink:href="#DejaVuSans-2e" transform="translate(63.623047 0)"/>
       <use xlink:href="#DejaVuSans-36" transform="translate(95.410156 0)"/>
      </g>
     </g>
    </g>
    <g id="ytick_5">
     <g id="line2d_19">
      <path d="M 57.6 108.454207 
L 414.72 108.454207 
" clip-path="url(#p5501f530bd)" style="fill: none; stroke: #b0b0b0; stroke-width: 0.8; stroke-linecap: square"/>
     </g>
     <g id="line2d_20">
      <g>
       <use xlink:href="#m00ced9bad8" x="57.6" y="108.454207" style="stroke: #000000; stroke-width: 0.8"/>
      </g>
     </g>
     <g id="text_11">
      <!-- 0.8 -->
      <g transform="translate(34.696875 112.253426) scale(0.1 -0.1)">
       <defs>
        <path id="DejaVuSans-38" d="M 2034 2216 
Q 1584 2216 1326 1975 
Q 1069 1734 1069 1313 
Q 1069 891 1326 650 
Q 1584 409 2034 409 
Q 2484 409 2743 651 
Q 3003 894 3003 1313 
Q 3003 1734 2745 1975 
Q 2488 2216 2034 2216 
z
M 1403 2484 
Q 997 2584 770 2862 
Q 544 3141 544 3541 
Q 544 4100 942 4425 
Q 1341 4750 2034 4750 
Q 2731 4750 3128 4425 
Q 3525 4100 3525 3541 
Q 3525 3141 3298 2862 
Q 3072 2584 2669 2484 
Q 3125 2378 3379 2068 
Q 3634 1759 3634 1313 
Q 3634 634 3220 271 
Q 2806 -91 2034 -91 
Q 1263 -91 848 271 
Q 434 634 434 1313 
Q 434 1759 690 2068 
Q 947 2378 1403 2484 
z
M 1172 3481 
Q 1172 3119 1398 2916 
Q 1625 2713 2034 2713 
Q 2441 2713 2670 2916 
Q 2900 3119 2900 3481 
Q 2900 3844 2670 4047 
Q 2441 4250 2034 4250 
Q 1625 4250 1398 4047 
Q 1172 3844 1172 3481 
z
" transform="scale(0.015625)"/>
       </defs>
       <use xlink:href="#DejaVuSans-30"/>
       <use xlink:href="#DejaVuSans-2e" transform="translate(63.623047 0)"/>
       <use xlink:href="#DejaVuSans-38" transform="translate(95.410156 0)"/>
      </g>
     </g>
    </g>
    <g id="ytick_6">
     <g id="line2d_21">
      <path d="M 57.6 64.428999 
L 414.72 64.428999 
" clip-path="url(#p5501f530bd)" style="fill: none; stroke: #b0b0b0; stroke-width: 0.8; stroke-linecap: square"/>
     </g>
     <g id="line2d_22">
      <g>
       <use xlink:href="#m00ced9bad8" x="57.6" y="64.428999" style="stroke: #000000; stroke-width: 0.8"/>
      </g>
     </g>
     <g id="text_12">
      <!-- 1.0 -->
      <g transform="translate(34.696875 68.228217) scale(0.1 -0.1)">
       <use xlink:href="#DejaVuSans-31"/>
       <use xlink:href="#DejaVuSans-2e" transform="translate(63.623047 0)"/>
       <use xlink:href="#DejaVuSans-30" transform="translate(95.410156 0)"/>
      </g>
     </g>
    </g>
    <g id="text_13">
     <!-- v1 -->
     <g transform="translate(28.617188 180.668625) rotate(-90) scale(0.1 -0.1)">
      <use xlink:href="#DejaVuSans-76"/>
      <use xlink:href="#DejaVuSans-31" transform="translate(59.179688 0)"/>
     </g>
    </g>
   </g>
   <g id="line2d_23">
    <path d="M 82.349906 295.488 
L 120.308731 280.738547 
L 73.977374 244.016883 
L 82.349906 295.488 
" clip-path="url(#p5501f530bd)" style="fill: none; stroke: #0000ff; stroke-linecap: square"/>
   </g>
   <g id="line2d_24">
    <path d="M 120.308731 280.738547 
L 115.416731 230.089054 
L 73.977374 244.016883 
L 120.308731 280.738547 
" clip-path="url(#p5501f530bd)" style="fill: none; stroke: #0000ff; stroke-linecap: square"/>
   </g>
   <g id="line2d_25">
    <path d="M 120.308731 280.738547 
L 139.838659 275.595007 
L 115.416731 230.089054 
L 120.308731 280.738547 
" clip-path="url(#p5501f530bd)" style="fill: none; stroke: #0000ff; stroke-linecap: square"/>
   </g>
   <g id="line2d_26">
    <path d="M 139.838659 275.595007 
L 152.203315 242.067638 
L 115.416731 230.089054 
L 139.838659 275.595007 
" clip-path="url(#p5501f530bd)" style="fill: none; stroke: #0000ff; stroke-linecap: square"/>
   </g>
   <g id="line2d_27">
    <path d="M 139.838659 275.595007 
L 182.563619 278.712854 
L 152.203315 242.067638 
L 139.838659 275.595007 
" clip-path="url(#p5501f530bd)" style="fill: none; stroke: #0000ff; stroke-linecap: square"/>
   </g>
   <g id="line2d_28">
    <path d="M 182.563619 278.712854 
L 171.497442 231.399856 
L 152.203315 242.067638 
L 182.563619 278.712854 
" clip-path="url(#p5501f530bd)" style="fill: none; stroke: #0000ff; stroke-linecap: square"/>
   </g>
   <g id="line2d_29">
    <path d="M 182.563619 278.712854 
L 205.078868 295.08193 
L 171.497442 231.399856 
L 182.563619 278.712854 
" clip-path="url(#p5501f530bd)" style="fill: none; stroke: #0000ff; stroke-linecap: square"/>
   </g>
   <g id="line2d_30">
    <path d="M 205.078868 295.08193 
L 205.984928 229.69693 
L 171.497442 231.399856 
L 205.078868 295.08193 
" clip-path="url(#p5501f530bd)" style="fill: none; stroke: #0000ff; stroke-linecap: square"/>
   </g>
   <g id="line2d_31">
    <path d="M 205.078868 295.08193 
L 246.31607 281.029214 
L 205.984928 229.69693 
L 205.078868 295.08193 
" clip-path="url(#p5501f530bd)" style="fill: none; stroke: #0000ff; stroke-linecap: square"/>
   </g>
   <g id="line2d_32">
    <path d="M 246.31607 281.029214 
L 246.102911 244.837756 
L 205.984928 229.69693 
L 246.31607 281.029214 
" clip-path="url(#p5501f530bd)" style="fill: none; stroke: #0000ff; stroke-linecap: square"/>
   </g>
   <g id="line2d_33">
    <path d="M 246.31607 281.029214 
L 265.401164 293.120993 
L 246.102911 244.837756 
L 246.31607 281.029214 
" clip-path="url(#p5501f530bd)" style="fill: none; stroke: #0000ff; stroke-linecap: square"/>
   </g>
   <g id="line2d_34">
    <path d="M 265.401164 293.120993 
L 264.365736 247.689857 
L 246.102911 244.837756 
L 265.401164 293.120993 
" clip-path="url(#p5501f530bd)" style="fill: none; stroke: #0000ff; stroke-linecap: square"/>
   </g>
   <g id="line2d_35">
    <path d="M 265.401164 293.120993 
L 294.984305 279.115894 
L 264.365736 247.689857 
L 265.401164 293.120993 
" clip-path="url(#p5501f530bd)" style="fill: none; stroke: #0000ff; stroke-linecap: square"/>
   </g>
   <g id="line2d_36">
    <path d="M 294.984305 279.115894 
L 302.410688 251.505818 
L 264.365736 247.689857 
L 294.984305 279.115894 
" clip-path="url(#p5501f530bd)" style="fill: none; stroke: #0000ff; stroke-linecap: square"/>
   </g>
   <g id="line2d_37">
    <path d="M 294.984305 279.115894 
L 339.154979 291.926756 
L 302.410688 251.505818 
L 294.984305 279.115894 
" clip-path="url(#p5501f530bd)" style="fill: none; stroke: #0000ff; stroke-linecap: square"/>
   </g>
   <g id="line2d_38">
    <path d="M 339.154979 291.926756 
L 333.393147 251.535526 
L 302.410688 251.505818 
L 339.154979 291.926756 
" clip-path="url(#p5501f530bd)" style="fill: none; stroke: #0000ff; stroke-linecap: square"/>
   </g>
   <g id="line2d_39">
    <path d="M 339.154979 291.926756 
L 363.917114 273.617225 
L 333.393147 251.535526 
L 339.154979 291.926756 
" clip-path="url(#p5501f530bd)" style="fill: none; stroke: #0000ff; stroke-linecap: square"/>
   </g>
   <g id="line2d_40">
    <path d="M 363.917114 273.617225 
L 371.103386 247.109472 
L 333.393147 251.535526 
L 363.917114 273.617225 
" clip-path="url(#p5501f530bd)" style="fill: none; stroke: #0000ff; stroke-linecap: square"/>
   </g>
   <g id="line2d_41">
    <path d="M 363.917114 273.617225 
L 394.949804 295.403688 
L 371.103386 247.109472 
L 363.917114 273.617225 
" clip-path="url(#p5501f530bd)" style="fill: none; stroke: #0000ff; stroke-linecap: square"/>
   </g>
   <g id="line2d_42">
    <path d="M 394.949804 295.403688 
L 397.880651 229.754333 
L 371.103386 247.109472 
L 394.949804 295.403688 
" clip-path="url(#p5501f530bd)" style="fill: none; stroke: #0000ff; stroke-linecap: square"/>
   </g>
   <g id="line2d_43">
    <path d="M 73.977374 244.016883 
L 115.416731 230.089054 
L 85.864886 205.609585 
L 73.977374 244.016883 
" clip-path="url(#p5501f530bd)" style="fill: none; stroke: #0000ff; stroke-linecap: square"/>
   </g>
   <g id="line2d_44">
    <path d="M 115.416731 230.089054 
L 106.518804 190.112483 
L 85.864886 205.609585 
L 115.416731 230.089054 
" clip-path="url(#p5501f530bd)" style="fill: none; stroke: #0000ff; stroke-linecap: square"/>
   </g>
   <g id="line2d_45">
    <path d="M 115.416731 230.089054 
L 152.203315 242.067638 
L 106.518804 190.112483 
L 115.416731 230.089054 
" clip-path="url(#p5501f530bd)" style="fill: none; stroke: #0000ff; stroke-linecap: square"/>
   </g>
   <g id="line2d_46">
    <path d="M 152.203315 242.067638 
L 143.972132 185.515341 
L 106.518804 190.112483 
L 152.203315 242.067638 
" clip-path="url(#p5501f530bd)" style="fill: none; stroke: #0000ff; stroke-linecap: square"/>
   </g>
   <g id="line2d_47">
    <path d="M 152.203315 242.067638 
L 171.497442 231.399856 
L 143.972132 185.515341 
L 152.203315 242.067638 
" clip-path="url(#p5501f530bd)" style="fill: none; stroke: #0000ff; stroke-linecap: square"/>
   </g>
   <g id="line2d_48">
    <path d="M 171.497442 231.399856 
L 182.493775 190.509323 
L 143.972132 185.515341 
L 171.497442 231.399856 
" clip-path="url(#p5501f530bd)" style="fill: none; stroke: #0000ff; stroke-linecap: square"/>
   </g>
   <g id="line2d_49">
    <path d="M 171.497442 231.399856 
L 205.984928 229.69693 
L 182.493775 190.509323 
L 171.497442 231.399856 
" clip-path="url(#p5501f530bd)" style="fill: none; stroke: #0000ff; stroke-linecap: square"/>
   </g>
   <g id="line2d_50">
    <path d="M 205.984928 229.69693 
L 210.286247 206.731234 
L 182.493775 190.509323 
L 205.984928 229.69693 
" clip-path="url(#p5501f530bd)" style="fill: none; stroke: #0000ff; stroke-linecap: square"/>
   </g>
   <g id="line2d_51">
    <path d="M 205.984928 229.69693 
L 246.102911 244.837756 
L 210.286247 206.731234 
L 205.984928 229.69693 
" clip-path="url(#p5501f530bd)" style="fill: none; stroke: #0000ff; stroke-linecap: square"/>
   </g>
   <g id="line2d_52">
    <path d="M 246.102911 244.837756 
L 231.271753 193.581752 
L 210.286247 206.731234 
L 246.102911 244.837756 
" clip-path="url(#p5501f530bd)" style="fill: none; stroke: #0000ff; stroke-linecap: square"/>
   </g>
   <g id="line2d_53">
    <path d="M 246.102911 244.837756 
L 264.365736 247.689857 
L 231.271753 193.581752 
L 246.102911 244.837756 
" clip-path="url(#p5501f530bd)" style="fill: none; stroke: #0000ff; stroke-linecap: square"/>
   </g>
   <g id="line2d_54">
    <path d="M 264.365736 247.689857 
L 265.167151 204.795905 
L 231.271753 193.581752 
L 264.365736 247.689857 
" clip-path="url(#p5501f530bd)" style="fill: none; stroke: #0000ff; stroke-linecap: square"/>
   </g>
   <g id="line2d_55">
    <path d="M 264.365736 247.689857 
L 302.410688 251.505818 
L 265.167151 204.795905 
L 264.365736 247.689857 
" clip-path="url(#p5501f530bd)" style="fill: none; stroke: #0000ff; stroke-linecap: square"/>
   </g>
   <g id="line2d_56">
    <path d="M 302.410688 251.505818 
L 307.284554 204.435239 
L 265.167151 204.795905 
L 302.410688 251.505818 
" clip-path="url(#p5501f530bd)" style="fill: none; stroke: #0000ff; stroke-linecap: square"/>
   </g>
   <g id="line2d_57">
    <path d="M 302.410688 251.505818 
L 333.393147 251.535526 
L 307.284554 204.435239 
L 302.410688 251.505818 
" clip-path="url(#p5501f530bd)" style="fill: none; stroke: #0000ff; stroke-linecap: square"/>
   </g>
   <g id="line2d_58">
    <path d="M 333.393147 251.535526 
L 341.126873 195.21369 
L 307.284554 204.435239 
L 333.393147 251.535526 
" clip-path="url(#p5501f530bd)" style="fill: none; stroke: #0000ff; stroke-linecap: square"/>
   </g>
   <g id="line2d_59">
    <path d="M 333.393147 251.535526 
L 371.103386 247.109472 
L 341.126873 195.21369 
L 333.393147 251.535526 
" clip-path="url(#p5501f530bd)" style="fill: none; stroke: #0000ff; stroke-linecap: square"/>
   </g>
   <g id="line2d_60">
    <path d="M 371.103386 247.109472 
L 372.301146 199.810792 
L 341.126873 195.21369 
L 371.103386 247.109472 
" clip-path="url(#p5501f530bd)" style="fill: none; stroke: #0000ff; stroke-linecap: square"/>
   </g>
   <g id="line2d_61">
    <path d="M 371.103386 247.109472 
L 397.880651 229.754333 
L 372.301146 199.810792 
L 371.103386 247.109472 
" clip-path="url(#p5501f530bd)" style="fill: none; stroke: #0000ff; stroke-linecap: square"/>
   </g>
   <g id="line2d_62">
    <path d="M 397.880651 229.754333 
L 389.798265 202.75413 
L 372.301146 199.810792 
L 397.880651 229.754333 
" clip-path="url(#p5501f530bd)" style="fill: none; stroke: #0000ff; stroke-linecap: square"/>
   </g>
   <g id="line2d_63">
    <path d="M 85.864886 205.609585 
L 106.518804 190.112483 
L 73.832727 155.289313 
L 85.864886 205.609585 
" clip-path="url(#p5501f530bd)" style="fill: none; stroke: #0000ff; stroke-linecap: square"/>
   </g>
   <g id="line2d_64">
    <path d="M 106.518804 190.112483 
L 111.558038 163.318159 
L 73.832727 155.289313 
L 106.518804 190.112483 
" clip-path="url(#p5501f530bd)" style="fill: none; stroke: #0000ff; stroke-linecap: square"/>
   </g>
   <g id="line2d_65">
    <path d="M 106.518804 190.112483 
L 143.972132 185.515341 
L 111.558038 163.318159 
L 106.518804 190.112483 
" clip-path="url(#p5501f530bd)" style="fill: none; stroke: #0000ff; stroke-linecap: square"/>
   </g>
   <g id="line2d_66">
    <path d="M 143.972132 185.515341 
L 136.569962 151.500941 
L 111.558038 163.318159 
L 143.972132 185.515341 
" clip-path="url(#p5501f530bd)" style="fill: none; stroke: #0000ff; stroke-linecap: square"/>
   </g>
   <g id="line2d_67">
    <path d="M 143.972132 185.515341 
L 182.493775 190.509323 
L 136.569962 151.500941 
L 143.972132 185.515341 
" clip-path="url(#p5501f530bd)" style="fill: none; stroke: #0000ff; stroke-linecap: square"/>
   </g>
   <g id="line2d_68">
    <path d="M 182.493775 190.509323 
L 179.928859 161.92877 
L 136.569962 151.500941 
L 182.493775 190.509323 
" clip-path="url(#p5501f530bd)" style="fill: none; stroke: #0000ff; stroke-linecap: square"/>
   </g>
   <g id="line2d_69">
    <path d="M 182.493775 190.509323 
L 210.286247 206.731234 
L 179.928859 161.92877 
L 182.493775 190.509323 
" clip-path="url(#p5501f530bd)" style="fill: none; stroke: #0000ff; stroke-linecap: square"/>
   </g>
   <g id="line2d_70">
    <path d="M 210.286247 206.731234 
L 205.450533 141.807725 
L 179.928859 161.92877 
L 210.286247 206.731234 
" clip-path="url(#p5501f530bd)" style="fill: none; stroke: #0000ff; stroke-linecap: square"/>
   </g>
   <g id="line2d_71">
    <path d="M 210.286247 206.731234 
L 231.271753 193.581752 
L 205.450533 141.807725 
L 210.286247 206.731234 
" clip-path="url(#p5501f530bd)" style="fill: none; stroke: #0000ff; stroke-linecap: square"/>
   </g>
   <g id="line2d_72">
    <path d="M 231.271753 193.581752 
L 237.128586 163.216118 
L 205.450533 141.807725 
L 231.271753 193.581752 
" clip-path="url(#p5501f530bd)" style="fill: none; stroke: #0000ff; stroke-linecap: square"/>
   </g>
   <g id="line2d_73">
    <path d="M 231.271753 193.581752 
L 265.167151 204.795905 
L 237.128586 163.216118 
L 231.271753 193.581752 
" clip-path="url(#p5501f530bd)" style="fill: none; stroke: #0000ff; stroke-linecap: square"/>
   </g>
   <g id="line2d_74">
    <path d="M 265.167151 204.795905 
L 265.446279 143.862948 
L 237.128586 163.216118 
L 265.167151 204.795905 
" clip-path="url(#p5501f530bd)" style="fill: none; stroke: #0000ff; stroke-linecap: square"/>
   </g>
   <g id="patch_3">
    <path d="M 57.6 307.584 
L 57.6 41.472 
" style="fill: none; stroke: #000000; stroke-width: 0.8; stroke-linejoin: miter; stroke-linecap: square"/>
   </g>
   <g id="patch_4">
    <path d="M 414.72 307.584 
L 414.72 41.472 
" style="fill: none; stroke: #000000; stroke-width: 0.8; stroke-linejoin: miter; stroke-linecap: square"/>
   </g>
   <g id="patch_5">
    <path d="M 57.6 307.584 
L 414.72 307.584 
" style="fill: none; stroke: #000000; stroke-width: 0.8; stroke-linejoin: miter; stroke-linecap: square"/>
   </g>
   <g id="patch_6">
    <path d="M 57.6 41.472 
L 414.72 41.472 
" style="fill: none; stroke: #000000; stroke-width: 0.8; stroke-linejoin: miter; stroke-linecap: square"/>
   </g>
   <g id="line2d_75">
    <path d="M 265.167151 204.795905 
L 307.284554 204.435239 
L 265.446279 143.862948 
L 265.167151 204.795905 
" clip-path="url(#p5501f530bd)" style="fill: none; stroke: #0000ff; stroke-linecap: square"/>
   </g>
   <g id="line2d_76">
    <path d="M 307.284554 204.435239 
L 301.866829 141.473255 
L 265.446279 143.862948 
L 307.284554 204.435239 
" clip-path="url(#p5501f530bd)" style="fill: none; stroke: #0000ff; stroke-linecap: square"/>
   </g>
   <g id="line2d_77">
    <path d="M 307.284554 204.435239 
L 341.126873 195.21369 
L 301.866829 141.473255 
L 307.284554 204.435239 
" clip-path="url(#p5501f530bd)" style="fill: none; stroke: #0000ff; stroke-linecap: square"/>
   </g>
   <g id="line2d_78">
    <path d="M 341.126873 195.21369 
L 329.701468 142.698235 
L 301.866829 141.473255 
L 341.126873 195.21369 
" clip-path="url(#p5501f530bd)" style="fill: none; stroke: #0000ff; stroke-linecap: square"/>
   </g>
   <g id="line2d_79">
    <path d="M 341.126873 195.21369 
L 372.301146 199.810792 
L 329.701468 142.698235 
L 341.126873 195.21369 
" clip-path="url(#p5501f530bd)" style="fill: none; stroke: #0000ff; stroke-linecap: square"/>
   </g>
   <g id="line2d_80">
    <path d="M 372.301146 199.810792 
L 359.480119 160.598993 
L 329.701468 142.698235 
L 372.301146 199.810792 
" clip-path="url(#p5501f530bd)" style="fill: none; stroke: #0000ff; stroke-linecap: square"/>
   </g>
   <g id="line2d_81">
    <path d="M 372.301146 199.810792 
L 389.798265 202.75413 
L 359.480119 160.598993 
L 372.301146 199.810792 
" clip-path="url(#p5501f530bd)" style="fill: none; stroke: #0000ff; stroke-linecap: square"/>
   </g>
   <g id="line2d_82">
    <path d="M 389.798265 202.75413 
L 398.487273 163.042934 
L 359.480119 160.598993 
L 389.798265 202.75413 
" clip-path="url(#p5501f530bd)" style="fill: none; stroke: #0000ff; stroke-linecap: square"/>
   </g>
   <g id="line2d_83">
    <path d="M 73.832727 155.289313 
L 111.558038 163.318159 
L 76.256471 100.175156 
L 73.832727 155.289313 
" clip-path="url(#p5501f530bd)" style="fill: none; stroke: #0000ff; stroke-linecap: square"/>
   </g>
   <g id="line2d_84">
    <path d="M 111.558038 163.318159 
L 109.880522 98.305324 
L 76.256471 100.175156 
L 111.558038 163.318159 
" clip-path="url(#p5501f530bd)" style="fill: none; stroke: #0000ff; stroke-linecap: square"/>
   </g>
   <g id="line2d_85">
    <path d="M 111.558038 163.318159 
L 136.569962 151.500941 
L 109.880522 98.305324 
L 111.558038 163.318159 
" clip-path="url(#p5501f530bd)" style="fill: none; stroke: #0000ff; stroke-linecap: square"/>
   </g>
   <g id="line2d_86">
    <path d="M 136.569962 151.500941 
L 147.45999 98.308049 
L 109.880522 98.305324 
L 136.569962 151.500941 
" clip-path="url(#p5501f530bd)" style="fill: none; stroke: #0000ff; stroke-linecap: square"/>
   </g>
   <g id="line2d_87">
    <path d="M 136.569962 151.500941 
L 179.928859 161.92877 
L 147.45999 98.308049 
L 136.569962 151.500941 
" clip-path="url(#p5501f530bd)" style="fill: none; stroke: #0000ff; stroke-linecap: square"/>
   </g>
   <g id="line2d_88">
    <path d="M 179.928859 161.92877 
L 181.862746 115.627381 
L 147.45999 98.308049 
L 179.928859 161.92877 
" clip-path="url(#p5501f530bd)" style="fill: none; stroke: #0000ff; stroke-linecap: square"/>
   </g>
   <g id="line2d_89">
    <path d="M 179.928859 161.92877 
L 205.450533 141.807725 
L 181.862746 115.627381 
L 179.928859 161.92877 
" clip-path="url(#p5501f530bd)" style="fill: none; stroke: #0000ff; stroke-linecap: square"/>
   </g>
   <g id="line2d_90">
    <path d="M 205.450533 141.807725 
L 213.462991 101.475599 
L 181.862746 115.627381 
L 205.450533 141.807725 
" clip-path="url(#p5501f530bd)" style="fill: none; stroke: #0000ff; stroke-linecap: square"/>
   </g>
   <g id="line2d_91">
    <path d="M 205.450533 141.807725 
L 237.128586 163.216118 
L 213.462991 101.475599 
L 205.450533 141.807725 
" clip-path="url(#p5501f530bd)" style="fill: none; stroke: #0000ff; stroke-linecap: square"/>
   </g>
   <g id="line2d_92">
    <path d="M 237.128586 163.216118 
L 243.783198 117.041618 
L 213.462991 101.475599 
L 237.128586 163.216118 
" clip-path="url(#p5501f530bd)" style="fill: none; stroke: #0000ff; stroke-linecap: square"/>
   </g>
   <g id="line2d_93">
    <path d="M 237.128586 163.216118 
L 265.446279 143.862948 
L 243.783198 117.041618 
L 237.128586 163.216118 
" clip-path="url(#p5501f530bd)" style="fill: none; stroke: #0000ff; stroke-linecap: square"/>
   </g>
   <g id="line2d_94">
    <path d="M 265.446279 143.862948 
L 269.635695 119.415922 
L 243.783198 117.041618 
L 265.446279 143.862948 
" clip-path="url(#p5501f530bd)" style="fill: none; stroke: #0000ff; stroke-linecap: square"/>
   </g>
   <g id="line2d_95">
    <path d="M 265.446279 143.862948 
L 301.866829 141.473255 
L 269.635695 119.415922 
L 265.446279 143.862948 
" clip-path="url(#p5501f530bd)" style="fill: none; stroke: #0000ff; stroke-linecap: square"/>
   </g>
   <g id="line2d_96">
    <path d="M 301.866829 141.473255 
L 307.998358 101.62318 
L 269.635695 119.415922 
L 301.866829 141.473255 
" clip-path="url(#p5501f530bd)" style="fill: none; stroke: #0000ff; stroke-linecap: square"/>
   </g>
   <g id="line2d_97">
    <path d="M 301.866829 141.473255 
L 329.701468 142.698235 
L 307.998358 101.62318 
L 301.866829 141.473255 
" clip-path="url(#p5501f530bd)" style="fill: none; stroke: #0000ff; stroke-linecap: square"/>
   </g>
   <g id="line2d_98">
    <path d="M 329.701468 142.698235 
L 329.348427 98.943945 
L 307.998358 101.62318 
L 329.701468 142.698235 
" clip-path="url(#p5501f530bd)" style="fill: none; stroke: #0000ff; stroke-linecap: square"/>
   </g>
   <g id="line2d_99">
    <path d="M 329.701468 142.698235 
L 359.480119 160.598993 
L 329.348427 98.943945 
L 329.701468 142.698235 
" clip-path="url(#p5501f530bd)" style="fill: none; stroke: #0000ff; stroke-linecap: square"/>
   </g>
   <g id="line2d_100">
    <path d="M 359.480119 160.598993 
L 361.749765 118.60407 
L 329.348427 98.943945 
L 359.480119 160.598993 
" clip-path="url(#p5501f530bd)" style="fill: none; stroke: #0000ff; stroke-linecap: square"/>
   </g>
   <g id="line2d_101">
    <path d="M 359.480119 160.598993 
L 398.487273 163.042934 
L 361.749765 118.60407 
L 359.480119 160.598993 
" clip-path="url(#p5501f530bd)" style="fill: none; stroke: #0000ff; stroke-linecap: square"/>
   </g>
   <g id="line2d_102">
    <path d="M 398.487273 163.042934 
L 393.869217 118.932764 
L 361.749765 118.60407 
L 398.487273 163.042934 
" clip-path="url(#p5501f530bd)" style="fill: none; stroke: #0000ff; stroke-linecap: square"/>
   </g>
   <g id="line2d_103">
    <path d="M 76.256471 100.175156 
L 109.880522 98.305324 
L 88.688215 60.129424 
L 76.256471 100.175156 
" clip-path="url(#p5501f530bd)" style="fill: none; stroke: #0000ff; stroke-linecap: square"/>
   </g>
   <g id="line2d_104">
    <path d="M 109.880522 98.305324 
L 111.651487 53.568 
L 88.688215 60.129424 
L 109.880522 98.305324 
" clip-path="url(#p5501f530bd)" style="fill: none; stroke: #0000ff; stroke-linecap: square"/>
   </g>
   <g id="line2d_105">
    <path d="M 109.880522 98.305324 
L 147.45999 98.308049 
L 111.651487 53.568 
L 109.880522 98.305324 
" clip-path="url(#p5501f530bd)" style="fill: none; stroke: #0000ff; stroke-linecap: square"/>
   </g>
   <g id="line2d_106">
    <path d="M 147.45999 98.308049 
L 140.903679 74.283083 
L 111.651487 53.568 
L 147.45999 98.308049 
" clip-path="url(#p5501f530bd)" style="fill: none; stroke: #0000ff; stroke-linecap: square"/>
   </g>
   <g id="line2d_107">
    <path d="M 147.45999 98.308049 
L 181.862746 115.627381 
L 140.903679 74.283083 
L 147.45999 98.308049 
" clip-path="url(#p5501f530bd)" style="fill: none; stroke: #0000ff; stroke-linecap: square"/>
   </g>
   <g id="line2d_108">
    <path d="M 181.862746 115.627381 
L 168.120063 66.15883 
L 140.903679 74.283083 
L 181.862746 115.627381 
" clip-path="url(#p5501f530bd)" style="fill: none; stroke: #0000ff; stroke-linecap: square"/>
   </g>
   <g id="line2d_109">
    <path d="M 181.862746 115.627381 
L 213.462991 101.475599 
L 168.120063 66.15883 
L 181.862746 115.627381 
" clip-path="url(#p5501f530bd)" style="fill: none; stroke: #0000ff; stroke-linecap: square"/>
   </g>
   <g id="line2d_110">
    <path d="M 213.462991 101.475599 
L 212.478764 56.048409 
L 168.120063 66.15883 
L 213.462991 101.475599 
" clip-path="url(#p5501f530bd)" style="fill: none; stroke: #0000ff; stroke-linecap: square"/>
   </g>
   <g id="line2d_111">
    <path d="M 213.462991 101.475599 
L 243.783198 117.041618 
L 212.478764 56.048409 
L 213.462991 101.475599 
" clip-path="url(#p5501f530bd)" style="fill: none; stroke: #0000ff; stroke-linecap: square"/>
   </g>
   <g id="line2d_112">
    <path d="M 243.783198 117.041618 
L 231.674192 68.920033 
L 212.478764 56.048409 
L 243.783198 117.041618 
" clip-path="url(#p5501f530bd)" style="fill: none; stroke: #0000ff; stroke-linecap: square"/>
   </g>
   <g id="line2d_113">
    <path d="M 243.783198 117.041618 
L 269.635695 119.415922 
L 231.674192 68.920033 
L 243.783198 117.041618 
" clip-path="url(#p5501f530bd)" style="fill: none; stroke: #0000ff; stroke-linecap: square"/>
   </g>
   <g id="line2d_114">
    <path d="M 269.635695 119.415922 
L 273.720084 74.371015 
L 231.674192 68.920033 
L 269.635695 119.415922 
" clip-path="url(#p5501f530bd)" style="fill: none; stroke: #0000ff; stroke-linecap: square"/>
   </g>
   <g id="line2d_115">
    <path d="M 269.635695 119.415922 
L 307.998358 101.62318 
L 273.720084 74.371015 
L 269.635695 119.415922 
" clip-path="url(#p5501f530bd)" style="fill: none; stroke: #0000ff; stroke-linecap: square"/>
   </g>
   <g id="line2d_116">
    <path d="M 307.998358 101.62318 
L 301.459387 75.423297 
L 273.720084 74.371015 
L 307.998358 101.62318 
" clip-path="url(#p5501f530bd)" style="fill: none; stroke: #0000ff; stroke-linecap: square"/>
   </g>
   <g id="line2d_117">
    <path d="M 307.998358 101.62318 
L 329.348427 98.943945 
L 301.459387 75.423297 
L 307.998358 101.62318 
" clip-path="url(#p5501f530bd)" style="fill: none; stroke: #0000ff; stroke-linecap: square"/>
   </g>
   <g id="line2d_118">
    <path d="M 329.348427 98.943945 
L 332.016649 53.572385 
L 301.459387 75.423297 
L 329.348427 98.943945 
" clip-path="url(#p5501f530bd)" style="fill: none; stroke: #0000ff; stroke-linecap: square"/>
   </g>
   <g id="line2d_119">
    <path d="M 329.348427 98.943945 
L 361.749765 118.60407 
L 332.016649 53.572385 
L 329.348427 98.943945 
" clip-path="url(#p5501f530bd)" style="fill: none; stroke: #0000ff; stroke-linecap: square"/>
   </g>
   <g id="line2d_120">
    <path d="M 361.749765 118.60407 
L 369.692521 73.043722 
L 332.016649 53.572385 
L 361.749765 118.60407 
" clip-path="url(#p5501f530bd)" style="fill: none; stroke: #0000ff; stroke-linecap: square"/>
   </g>
   <g id="line2d_121">
    <path d="M 361.749765 118.60407 
L 393.869217 118.932764 
L 369.692521 73.043722 
L 361.749765 118.60407 
" clip-path="url(#p5501f530bd)" style="fill: none; stroke: #0000ff; stroke-linecap: square"/>
   </g>
   <g id="line2d_122">
    <path d="M 393.869217 118.932764 
L 388.829425 67.98882 
L 369.692521 73.043722 
L 393.869217 118.932764 
" clip-path="url(#p5501f530bd)" style="fill: none; stroke: #0000ff; stroke-linecap: square"/>
   </g>
   <g id="PathCollection_1">
    <defs>
     <path id="m474621e9b3" d="M -3 0 
L 3 0 
M 0 3 
L 0 -3 
" style="stroke: #ff0000; stroke-width: 1.5"/>
    </defs>
    <g clip-path="url(#p5501f530bd)">
     <use xlink:href="#m474621e9b3" x="82.349906" y="295.488" style="fill: #ff0000; stroke: #ff0000; stroke-width: 1.5"/>
     <use xlink:href="#m474621e9b3" x="120.308731" y="280.738547" style="fill: #ff0000; stroke: #ff0000; stroke-width: 1.5"/>
     <use xlink:href="#m474621e9b3" x="139.838659" y="275.595007" style="fill: #ff0000; stroke: #ff0000; stroke-width: 1.5"/>
     <use xlink:href="#m474621e9b3" x="182.563619" y="278.712854" style="fill: #ff0000; stroke: #ff0000; stroke-width: 1.5"/>
     <use xlink:href="#m474621e9b3" x="205.078868" y="295.08193" style="fill: #ff0000; stroke: #ff0000; stroke-width: 1.5"/>
     <use xlink:href="#m474621e9b3" x="246.31607" y="281.029214" style="fill: #ff0000; stroke: #ff0000; stroke-width: 1.5"/>
     <use xlink:href="#m474621e9b3" x="265.401164" y="293.120993" style="fill: #ff0000; stroke: #ff0000; stroke-width: 1.5"/>
     <use xlink:href="#m474621e9b3" x="294.984305" y="279.115894" style="fill: #ff0000; stroke: #ff0000; stroke-width: 1.5"/>
     <use xlink:href="#m474621e9b3" x="339.154979" y="291.926756" style="fill: #ff0000; stroke: #ff0000; stroke-width: 1.5"/>
     <use xlink:href="#m474621e9b3" x="363.917114" y="273.617225" style="fill: #ff0000; stroke: #ff0000; stroke-width: 1.5"/>
     <use xlink:href="#m474621e9b3" x="394.949804" y="295.403688" style="fill: #ff0000; stroke: #ff0000; stroke-width: 1.5"/>
     <use xlink:href="#m474621e9b3" x="73.977374" y="244.016883" style="fill: #ff0000; stroke: #ff0000; stroke-width: 1.5"/>
     <use xlink:href="#m474621e9b3" x="115.416731" y="230.089054" style="fill: #ff0000; stroke: #ff0000; stroke-width: 1.5"/>
     <use xlink:href="#m474621e9b3" x="152.203315" y="242.067638" style="fill: #ff0000; stroke: #ff0000; stroke-width: 1.5"/>
     <use xlink:href="#m474621e9b3" x="171.497442" y="231.399856" style="fill: #ff0000; stroke: #ff0000; stroke-width: 1.5"/>
     <use xlink:href="#m474621e9b3" x="205.984928" y="229.69693" style="fill: #ff0000; stroke: #ff0000; stroke-width: 1.5"/>
     <use xlink:href="#m474621e9b3" x="246.102911" y="244.837756" style="fill: #ff0000; stroke: #ff0000; stroke-width: 1.5"/>
     <use xlink:href="#m474621e9b3" x="264.365736" y="247.689857" style="fill: #ff0000; stroke: #ff0000; stroke-width: 1.5"/>
     <use xlink:href="#m474621e9b3" x="302.410688" y="251.505818" style="fill: #ff0000; stroke: #ff0000; stroke-width: 1.5"/>
     <use xlink:href="#m474621e9b3" x="333.393147" y="251.535526" style="fill: #ff0000; stroke: #ff0000; stroke-width: 1.5"/>
     <use xlink:href="#m474621e9b3" x="371.103386" y="247.109472" style="fill: #ff0000; stroke: #ff0000; stroke-width: 1.5"/>
     <use xlink:href="#m474621e9b3" x="397.880651" y="229.754333" style="fill: #ff0000; stroke: #ff0000; stroke-width: 1.5"/>
     <use xlink:href="#m474621e9b3" x="85.864886" y="205.609585" style="fill: #ff0000; stroke: #ff0000; stroke-width: 1.5"/>
     <use xlink:href="#m474621e9b3" x="106.518804" y="190.112483" style="fill: #ff0000; stroke: #ff0000; stroke-width: 1.5"/>
     <use xlink:href="#m474621e9b3" x="143.972132" y="185.515341" style="fill: #ff0000; stroke: #ff0000; stroke-width: 1.5"/>
     <use xlink:href="#m474621e9b3" x="182.493775" y="190.509323" style="fill: #ff0000; stroke: #ff0000; stroke-width: 1.5"/>
     <use xlink:href="#m474621e9b3" x="210.286247" y="206.731234" style="fill: #ff0000; stroke: #ff0000; stroke-width: 1.5"/>
     <use xlink:href="#m474621e9b3" x="231.271753" y="193.581752" style="fill: #ff0000; stroke: #ff0000; stroke-width: 1.5"/>
     <use xlink:href="#m474621e9b3" x="265.167151" y="204.795905" style="fill: #ff0000; stroke: #ff0000; stroke-width: 1.5"/>
     <use xlink:href="#m474621e9b3" x="307.284554" y="204.435239" style="fill: #ff0000; stroke: #ff0000; stroke-width: 1.5"/>
     <use xlink:href="#m474621e9b3" x="341.126873" y="195.21369" style="fill: #ff0000; stroke: #ff0000; stroke-width: 1.5"/>
     <use xlink:href="#m474621e9b3" x="372.301146" y="199.810792" style="fill: #ff0000; stroke: #ff0000; stroke-width: 1.5"/>
     <use xlink:href="#m474621e9b3" x="389.798265" y="202.75413" style="fill: #ff0000; stroke: #ff0000; stroke-width: 1.5"/>
     <use xlink:href="#m474621e9b3" x="73.832727" y="155.289313" style="fill: #ff0000; stroke: #ff0000; stroke-width: 1.5"/>
     <use xlink:href="#m474621e9b3" x="111.558038" y="163.318159" style="fill: #ff0000; stroke: #ff0000; stroke-width: 1.5"/>
     <use xlink:href="#m474621e9b3" x="136.569962" y="151.500941" style="fill: #ff0000; stroke: #ff0000; stroke-width: 1.5"/>
     <use xlink:href="#m474621e9b3" x="179.928859" y="161.92877" style="fill: #ff0000; stroke: #ff0000; stroke-width: 1.5"/>
     <use xlink:href="#m474621e9b3" x="205.450533" y="141.807725" style="fill: #ff0000; stroke: #ff0000; stroke-width: 1.5"/>
     <use xlink:href="#m474621e9b3" x="237.128586" y="163.216118" style="fill: #ff0000; stroke: #ff0000; stroke-width: 1.5"/>
     <use xlink:href="#m474621e9b3" x="265.446279" y="143.862948" style="fill: #ff0000; stroke: #ff0000; stroke-width: 1.5"/>
     <use xlink:href="#m474621e9b3" x="301.866829" y="141.473255" style="fill: #ff0000; stroke: #ff0000; stroke-width: 1.5"/>
     <use xlink:href="#m474621e9b3" x="329.701468" y="142.698235" style="fill: #ff0000; stroke: #ff0000; stroke-width: 1.5"/>
     <use xlink:href="#m474621e9b3" x="359.480119" y="160.598993" style="fill: #ff0000; stroke: #ff0000; stroke-width: 1.5"/>
     <use xlink:href="#m474621e9b3" x="398.487273" y="163.042934" style="fill: #ff0000; stroke: #ff0000; stroke-width: 1.5"/>
     <use xlink:href="#m474621e9b3" x="76.256471" y="100.175156" style="fill: #ff0000; stroke: #ff0000; stroke-width: 1.5"/>
     <use xlink:href="#m474621e9b3" x="109.880522" y="98.305324" style="fill: #ff0000; stroke: #ff0000; stroke-width: 1.5"/>
     <use xlink:href="#m474621e9b3" x="147.45999" y="98.308049" style="fill: #ff0000; stroke: #ff0000; stroke-width: 1.5"/>
     <use xlink:href="#m474621e9b3" x="181.862746" y="115.627381" style="fill: #ff0000; stroke: #ff0000; stroke-width: 1.5"/>
     <use xlink:href="#m474621e9b3" x="213.462991" y="101.475599" style="fill: #ff0000; stroke: #ff0000; stroke-width: 1.5"/>
     <use xlink:href="#m474621e9b3" x="243.783198" y="117.041618" style="fill: #ff0000; stroke: #ff0000; stroke-width: 1.5"/>
     <use xlink:href="#m474621e9b3" x="269.635695" y="119.415922" style="fill: #ff0000; stroke: #ff0000; stroke-width: 1.5"/>
     <use xlink:href="#m474621e9b3" x="307.998358" y="101.62318" style="fill: #ff0000; stroke: #ff0000; stroke-width: 1.5"/>
     <use xlink:href="#m474621e9b3" x="329.348427" y="98.943945" style="fill: #ff0000; stroke: #ff0000; stroke-width: 1.5"/>
     <use xlink:href="#m474621e9b3" x="361.749765" y="118.60407" style="fill: #ff0000; stroke: #ff0000; stroke-width: 1.5"/>
     <use xlink:href="#m474621e9b3" x="393.869217" y="118.932764" style="fill: #ff0000; stroke: #ff0000; stroke-width: 1.5"/>
     <use xlink:href="#m474621e9b3" x="88.688215" y="60.129424" style="fill: #ff0000; stroke: #ff0000; stroke-width: 1.5"/>
     <use xlink:href="#m474621e9b3" x="111.651487" y="53.568" style="fill: #ff0000; stroke: #ff0000; stroke-width: 1.5"/>
     <use xlink:href="#m474621e9b3" x="140.903679" y="74.283083" style="fill: #ff0000; stroke: #ff0000; stroke-width: 1.5"/>
     <use xlink:href="#m474621e9b3" x="168.120063" y="66.15883" style="fill: #ff0000; stroke: #ff0000; stroke-width: 1.5"/>
     <use xlink:href="#m474621e9b3" x="212.478764" y="56.048409" style="fill: #ff0000; stroke: #ff0000; stroke-width: 1.5"/>
     <use xlink:href="#m474621e9b3" x="231.674192" y="68.920033" style="fill: #ff0000; stroke: #ff0000; stroke-width: 1.5"/>
     <use xlink:href="#m474621e9b3" x="273.720084" y="74.371015" style="fill: #ff0000; stroke: #ff0000; stroke-width: 1.5"/>
     <use xlink:href="#m474621e9b3" x="301.459387" y="75.423297" style="fill: #ff0000; stroke: #ff0000; stroke-width: 1.5"/>
     <use xlink:href="#m474621e9b3" x="332.016649" y="53.572385" style="fill: #ff0000; stroke: #ff0000; stroke-width: 1.5"/>
     <use xlink:href="#m474621e9b3" x="369.692521" y="73.043722" style="fill: #ff0000; stroke: #ff0000; stroke-width: 1.5"/>
     <use xlink:href="#m474621e9b3" x="388.829425" y="67.98882" style="fill: #ff0000; stroke: #ff0000; stroke-width: 1.5"/>
    </g>
   </g>
   <g id="legend_1">
    <g id="patch_7">
     <path d="M 309.009063 80.82825 
L 409.72 80.82825 
Q 411.72 80.82825 411.72 78.82825 
L 411.72 50.472 
Q 411.72 48.472 409.72 48.472 
L 309.009063 48.472 
Q 307.009063 48.472 307.009063 50.472 
L 307.009063 78.82825 
Q 307.009063 80.82825 309.009063 80.82825 
z
" style="fill: #4d4d4d; opacity: 0.5; stroke: #4d4d4d; stroke-linejoin: miter"/>
    </g>
    <g id="patch_8">
     <path d="M 307.009063 78.82825 
L 407.72 78.82825 
Q 409.72 78.82825 409.72 76.82825 
L 409.72 48.472 
Q 409.72 46.472 407.72 46.472 
L 307.009063 46.472 
Q 305.009063 46.472 305.009063 48.472 
L 305.009063 76.82825 
Q 305.009063 78.82825 307.009063 78.82825 
z
" style="fill: #ffffff; stroke: #cccccc; stroke-linejoin: miter"/>
    </g>
    <g id="line2d_123">
     <path d="M 309.009063 54.570437 
L 319.009063 54.570437 
L 329.009063 54.570437 
" style="fill: none; stroke: #0000ff; stroke-linecap: square"/>
    </g>
    <g id="text_14">
     <!-- 100 elements -->
     <g transform="translate(337.009063 58.070437) scale(0.1 -0.1)">
      <defs>
       <path id="DejaVuSans-20" transform="scale(0.015625)"/>
       <path id="DejaVuSans-65" d="M 3597 1894 
L 3597 1613 
L 953 1613 
Q 991 1019 1311 708 
Q 1631 397 2203 397 
Q 2534 397 2845 478 
Q 3156 559 3463 722 
L 3463 178 
Q 3153 47 2828 -22 
Q 2503 -91 2169 -91 
Q 1331 -91 842 396 
Q 353 884 353 1716 
Q 353 2575 817 3079 
Q 1281 3584 2069 3584 
Q 2775 3584 3186 3129 
Q 3597 2675 3597 1894 
z
M 3022 2063 
Q 3016 2534 2758 2815 
Q 2500 3097 2075 3097 
Q 1594 3097 1305 2825 
Q 1016 2553 972 2059 
L 3022 2063 
z
" transform="scale(0.015625)"/>
       <path id="DejaVuSans-6c" d="M 603 4863 
L 1178 4863 
L 1178 0 
L 603 0 
L 603 4863 
z
" transform="scale(0.015625)"/>
       <path id="DejaVuSans-6d" d="M 3328 2828 
Q 3544 3216 3844 3400 
Q 4144 3584 4550 3584 
Q 5097 3584 5394 3201 
Q 5691 2819 5691 2113 
L 5691 0 
L 5113 0 
L 5113 2094 
Q 5113 2597 4934 2840 
Q 4756 3084 4391 3084 
Q 3944 3084 3684 2787 
Q 3425 2491 3425 1978 
L 3425 0 
L 2847 0 
L 2847 2094 
Q 2847 2600 2669 2842 
Q 2491 3084 2119 3084 
Q 1678 3084 1418 2786 
Q 1159 2488 1159 1978 
L 1159 0 
L 581 0 
L 581 3500 
L 1159 3500 
L 1159 2956 
Q 1356 3278 1631 3431 
Q 1906 3584 2284 3584 
Q 2666 3584 2933 3390 
Q 3200 3197 3328 2828 
z
" transform="scale(0.015625)"/>
       <path id="DejaVuSans-6e" d="M 3513 2113 
L 3513 0 
L 2938 0 
L 2938 2094 
Q 2938 2591 2744 2837 
Q 2550 3084 2163 3084 
Q 1697 3084 1428 2787 
Q 1159 2491 1159 1978 
L 1159 0 
L 581 0 
L 581 3500 
L 1159 3500 
L 1159 2956 
Q 1366 3272 1645 3428 
Q 1925 3584 2291 3584 
Q 2894 3584 3203 3211 
Q 3513 2838 3513 2113 
z
" transform="scale(0.015625)"/>
       <path id="DejaVuSans-74" d="M 1172 4494 
L 1172 3500 
L 2356 3500 
L 2356 3053 
L 1172 3053 
L 1172 1153 
Q 1172 725 1289 603 
Q 1406 481 1766 481 
L 2356 481 
L 2356 0 
L 1766 0 
Q 1100 0 847 248 
Q 594 497 594 1153 
L 594 3053 
L 172 3053 
L 172 3500 
L 594 3500 
L 594 4494 
L 1172 4494 
z
" transform="scale(0.015625)"/>
       <path id="DejaVuSans-73" d="M 2834 3397 
L 2834 2853 
Q 2591 2978 2328 3040 
Q 2066 3103 1784 3103 
Q 1356 3103 1142 2972 
Q 928 2841 928 2578 
Q 928 2378 1081 2264 
Q 1234 2150 1697 2047 
L 1894 2003 
Q 2506 1872 2764 1633 
Q 3022 1394 3022 966 
Q 3022 478 2636 193 
Q 2250 -91 1575 -91 
Q 1294 -91 989 -36 
Q 684 19 347 128 
L 347 722 
Q 666 556 975 473 
Q 1284 391 1588 391 
Q 1994 391 2212 530 
Q 2431 669 2431 922 
Q 2431 1156 2273 1281 
Q 2116 1406 1581 1522 
L 1381 1569 
Q 847 1681 609 1914 
Q 372 2147 372 2553 
Q 372 3047 722 3315 
Q 1072 3584 1716 3584 
Q 2034 3584 2315 3537 
Q 2597 3491 2834 3397 
z
" transform="scale(0.015625)"/>
      </defs>
      <use xlink:href="#DejaVuSans-31"/>
      <use xlink:href="#DejaVuSans-30" transform="translate(63.623047 0)"/>
      <use xlink:href="#DejaVuSans-30" transform="translate(127.246094 0)"/>
      <use xlink:href="#DejaVuSans-20" transform="translate(190.869141 0)"/>
      <use xlink:href="#DejaVuSans-65" transform="translate(222.65625 0)"/>
      <use xlink:href="#DejaVuSans-6c" transform="translate(284.179688 0)"/>
      <use xlink:href="#DejaVuSans-65" transform="translate(311.962891 0)"/>
      <use xlink:href="#DejaVuSans-6d" transform="translate(373.486328 0)"/>
      <use xlink:href="#DejaVuSans-65" transform="translate(470.898438 0)"/>
      <use xlink:href="#DejaVuSans-6e" transform="translate(532.421875 0)"/>
      <use xlink:href="#DejaVuSans-74" transform="translate(595.800781 0)"/>
      <use xlink:href="#DejaVuSans-73" transform="translate(635.009766 0)"/>
     </g>
    </g>
    <g id="PathCollection_2">
     <g>
      <use xlink:href="#m474621e9b3" x="319.009063" y="70.123562" style="fill: #ff0000; stroke: #ff0000; stroke-width: 1.5"/>
     </g>
    </g>
    <g id="text_15">
     <!-- 66 nodes -->
     <g transform="translate(337.009063 72.748562) scale(0.1 -0.1)">
      <defs>
       <path id="DejaVuSans-6f" d="M 1959 3097 
Q 1497 3097 1228 2736 
Q 959 2375 959 1747 
Q 959 1119 1226 758 
Q 1494 397 1959 397 
Q 2419 397 2687 759 
Q 2956 1122 2956 1747 
Q 2956 2369 2687 2733 
Q 2419 3097 1959 3097 
z
M 1959 3584 
Q 2709 3584 3137 3096 
Q 3566 2609 3566 1747 
Q 3566 888 3137 398 
Q 2709 -91 1959 -91 
Q 1206 -91 779 398 
Q 353 888 353 1747 
Q 353 2609 779 3096 
Q 1206 3584 1959 3584 
z
" transform="scale(0.015625)"/>
       <path id="DejaVuSans-64" d="M 2906 2969 
L 2906 4863 
L 3481 4863 
L 3481 0 
L 2906 0 
L 2906 525 
Q 2725 213 2448 61 
Q 2172 -91 1784 -91 
Q 1150 -91 751 415 
Q 353 922 353 1747 
Q 353 2572 751 3078 
Q 1150 3584 1784 3584 
Q 2172 3584 2448 3432 
Q 2725 3281 2906 2969 
z
M 947 1747 
Q 947 1113 1208 752 
Q 1469 391 1925 391 
Q 2381 391 2643 752 
Q 2906 1113 2906 1747 
Q 2906 2381 2643 2742 
Q 2381 3103 1925 3103 
Q 1469 3103 1208 2742 
Q 947 2381 947 1747 
z
" transform="scale(0.015625)"/>
      </defs>
      <use xlink:href="#DejaVuSans-36"/>
      <use xlink:href="#DejaVuSans-36" transform="translate(63.623047 0)"/>
      <use xlink:href="#DejaVuSans-20" transform="translate(127.246094 0)"/>
      <use xlink:href="#DejaVuSans-6e" transform="translate(159.033203 0)"/>
      <use xlink:href="#DejaVuSans-6f" transform="translate(222.412109 0)"/>
      <use xlink:href="#DejaVuSans-64" transform="translate(283.59375 0)"/>
      <use xlink:href="#DejaVuSans-65" transform="translate(347.070312 0)"/>
      <use xlink:href="#DejaVuSans-73" transform="translate(408.59375 0)"/>
     </g>
    </g>
   </g>
  </g>
  <g id="text_16">
   <!-- Deformed 2-d mesh -->
   <g transform="translate(170.528437 16.030125) scale(0.12 -0.12)">
    <defs>
     <path id="DejaVuSans-44" d="M 1259 4147 
L 1259 519 
L 2022 519 
Q 2988 519 3436 956 
Q 3884 1394 3884 2338 
Q 3884 3275 3436 3711 
Q 2988 4147 2022 4147 
L 1259 4147 
z
M 628 4666 
L 1925 4666 
Q 3281 4666 3915 4102 
Q 4550 3538 4550 2338 
Q 4550 1131 3912 565 
Q 3275 0 1925 0 
L 628 0 
L 628 4666 
z
" transform="scale(0.015625)"/>
     <path id="DejaVuSans-66" d="M 2375 4863 
L 2375 4384 
L 1825 4384 
Q 1516 4384 1395 4259 
Q 1275 4134 1275 3809 
L 1275 3500 
L 2222 3500 
L 2222 3053 
L 1275 3053 
L 1275 0 
L 697 0 
L 697 3053 
L 147 3053 
L 147 3500 
L 697 3500 
L 697 3744 
Q 697 4328 969 4595 
Q 1241 4863 1831 4863 
L 2375 4863 
z
" transform="scale(0.015625)"/>
     <path id="DejaVuSans-72" d="M 2631 2963 
Q 2534 3019 2420 3045 
Q 2306 3072 2169 3072 
Q 1681 3072 1420 2755 
Q 1159 2438 1159 1844 
L 1159 0 
L 581 0 
L 581 3500 
L 1159 3500 
L 1159 2956 
Q 1341 3275 1631 3429 
Q 1922 3584 2338 3584 
Q 2397 3584 2469 3576 
Q 2541 3569 2628 3553 
L 2631 2963 
z
" transform="scale(0.015625)"/>
     <path id="DejaVuSans-2d" d="M 313 2009 
L 1997 2009 
L 1997 1497 
L 313 1497 
L 313 2009 
z
" transform="scale(0.015625)"/>
     <path id="DejaVuSans-68" d="M 3513 2113 
L 3513 0 
L 2938 0 
L 2938 2094 
Q 2938 2591 2744 2837 
Q 2550 3084 2163 3084 
Q 1697 3084 1428 2787 
Q 1159 2491 1159 1978 
L 1159 0 
L 581 0 
L 581 4863 
L 1159 4863 
L 1159 2956 
Q 1366 3272 1645 3428 
Q 1925 3584 2291 3584 
Q 2894 3584 3203 3211 
Q 3513 2838 3513 2113 
z
" transform="scale(0.015625)"/>
    </defs>
    <use xlink:href="#DejaVuSans-44"/>
    <use xlink:href="#DejaVuSans-65" transform="translate(77.001953 0)"/>
    <use xlink:href="#DejaVuSans-66" transform="translate(138.525391 0)"/>
    <use xlink:href="#DejaVuSans-6f" transform="translate(173.730469 0)"/>
    <use xlink:href="#DejaVuSans-72" transform="translate(234.912109 0)"/>
    <use xlink:href="#DejaVuSans-6d" transform="translate(274.275391 0)"/>
    <use xlink:href="#DejaVuSans-65" transform="translate(371.6875 0)"/>
    <use xlink:href="#DejaVuSans-64" transform="translate(433.210938 0)"/>
    <use xlink:href="#DejaVuSans-20" transform="translate(496.6875 0)"/>
    <use xlink:href="#DejaVuSans-32" transform="translate(528.474609 0)"/>
    <use xlink:href="#DejaVuSans-2d" transform="translate(592.097656 0)"/>
    <use xlink:href="#DejaVuSans-64" transform="translate(628.181641 0)"/>
    <use xlink:href="#DejaVuSans-20" transform="translate(691.658203 0)"/>
    <use xlink:href="#DejaVuSans-6d" transform="translate(723.445312 0)"/>
    <use xlink:href="#DejaVuSans-65" transform="translate(820.857422 0)"/>
    <use xlink:href="#DejaVuSans-73" transform="translate(882.380859 0)"/>
    <use xlink:href="#DejaVuSans-68" transform="translate(934.480469 0)"/>
   </g>
  </g>
 </g>
 <defs>
  <clipPath id="p5501f530bd">
   <rect x="57.6" y="41.472" width="357.12" height="266.112"/>
  </clipPath>
 </defs>
</svg>
