<?xml version="1.0" encoding="utf-8" standalone="no"?>
<!DOCTYPE svg PUBLIC "-//W3C//DTD SVG 1.1//EN"
  "http://www.w3.org/Graphics/SVG/1.1/DTD/svg11.dtd">
<svg xmlns:xlink="http://www.w3.org/1999/xlink" width="864pt" height="432pt" viewBox="0 0 864 432" xmlns="http://www.w3.org/2000/svg" version="1.1">
 <metadata>
  <rdf:RDF xmlns:dc="http://purl.org/dc/elements/1.1/" xmlns:cc="http://creativecommons.org/ns#" xmlns:rdf="http://www.w3.org/1999/02/22-rdf-syntax-ns#">
   <cc:Work>
    <dc:type rdf:resource="http://purl.org/dc/dcmitype/StillImage"/>
    <dc:date>2022-01-01T00:00:00+00:00</dc:date>
    <dc:format>image/svg+xml</dc:format>
    <dc:creator>
     <cc:Agent>
      <dc:title>Matplotlib v3.10.8, https://matplotlib.org/</dc:title>
     </cc:Agent>
    </dc:creator>
   </cc:Work>
  </rdf:RDF>
 </metadata>
 <defs>
  <style type="text/css">*{stroke-linejoin: round; stroke-linecap: butt}</style>
 </defs>
 <g id="figure_1">
  <g id="patch_1">
   <path d="M 0 432 
L 864 432 
L 864 0 
L 0 0 
z
" style="fill: #ffffff"/>
  </g>
  <g id="axes_1">
   <g id="patch_2">
    <path d="M 108 384.48 
L 412.363636 384.48 
L 412.363636 51.84 
L 108 51.84 
z
" style="fill: #ffffff"/>
   </g>
   <g id="matplotlib.axis_1">
    <g id="xtick_1">
     <g id="line2d_1">
      <path d="M 122.272212 384.48 
L 122.272212 51.84 
" clip-path="url(#p0019475d5e)" style="fill: none; stroke: #b0b0b0; stroke-width: 0.8; stroke-linecap: square"/>
     </g>
     <g id="line2d_2">
      <defs>
       <path id="m9a6465764e" d="M 0 0 
L 0 3.5 
" style="stroke: #000000; stroke-width: 0.8"/>
      </defs>
      <g>
       <use xlink:href="#m9a6465764e" x="122.272212" y="384.48" style="stroke: #000000; stroke-width: 0.8"/>
      </g>
     </g>
     <g id="text_1">
      <!-- 0 -->
      <g transform="translate(119.090962 399.078438) scale(0.1 -0.1)">
       <defs>
        <path id="DejaVuSans-30" d="M 2034 4250 
Q 1547 4250 1301 3770 
Q 1056 3291 1056 2328 
Q 1056 1369 1301 889 
Q 1547 409 2034 409 
Q 2525 409 2770 889 
Q 3016 1369 3016 2328 
Q 3016 3291 2770 3770 
Q 2525 4250 2034 4250 
z
M 2034 4750 
Q 2819 4750 3233 4129 
Q 3647 3509 3647 2328 
Q 3647 1150 3233 529 
Q 2819 -91 2034 -91 
Q 1250 -91 836 529 
Q 422 1150 422 2328 
Q 422 3509 836 4129 
Q 1250 4750 2034 4750 
z
" transform="scale(0.015625)"/>
       </defs>
       <use xlink:href="#DejaVuSans-30"/>
      </g>
     </g>
    </g>
    <g id="xtick_2">
     <g id="line2d_3">
      <path d="M 168.254422 384.48 
L 168.254422 51.84 
" clip-path="url(#p0019475d5e)" style="fill: none; stroke: #b0b0b0; stroke-width: 0.8; stroke-linecap: square"/>
     </g>
     <g id="line2d_4">
      <g>
       <use xlink:href="#m9a6465764e" x="168.254422" y="384.48" style="stroke: #000000; stroke-width: 0.8"/>
      </g>
     </g>
     <g id="text_2">
      <!-- 2 -->
      <g transform="translate(165.073172 399.078438) scale(0.1 -0.1)">
       <defs>
        <path id="DejaVuSans-32" d="M 1228 531 
L 3431 531 
L 3431 0 
L 469 0 
L 469 531 
Q 828 903 1448 1529 
Q 2069 2156 2228 2338 
Q 2531 2678 2651 2914 
Q 2772 3150 2772 3378 
Q 2772 3750 2511 3984 
Q 2250 4219 1831 4219 
Q 1534 4219 1204 4116 
Q 875 4013 500 3803 
L 500 4441 
Q 881 4594 1212 4672 
Q 1544 4750 1819 4750 
Q 2544 4750 2975 4387 
Q 3406 4025 3406 3419 
Q 3406 3131 3298 2873 
Q 3191 2616 2906 2266 
Q 2828 2175 2409 1742 
Q 1991 1309 1228 531 
z
" transform="scale(0.015625)"/>
       </defs>
       <use xlink:href="#DejaVuSans-32"/>
      </g>
     </g>
    </g>
    <g id="xtick_3">
     <g id="line2d_5">
      <path d="M 214.236632 384.48 
L 214.236632 51.84 
" clip-path="url(#p0019475d5e)" style="fill: none; stroke: #b0b0b0; stroke-width: 0.8; stroke-linecap: square"/>
     </g>
     <g id="line2d_6">
      <g>
       <use xlink:href="#m9a6465764e" x="214.236632" y="384.48" style="stroke: #000000; stroke-width: 0.8"/>
      </g>
     </g>
     <g id="text_3">
      <!-- 4 -->
      <g transform="translate(211.055382 399.078438) scale(0.1 -0.1)">
       <defs>
        <path id="DejaVuSans-34" d="M 2419 4116 
L 825 1625 
L 2419 1625 
L 2419 4116 
z
M 2253 4666 
L 3047 4666 
L 3047 1625 
L 3713 1625 
L 3713 1100 
L 3047 1100 
L 3047 0 
L 2419 0 
L 2419 1100 
L 313 1100 
L 313 1709 
L 2253 4666 
z
" transform="scale(0.015625)"/>
       </defs>
       <use xlink:href="#DejaVuSans-34"/>
      </g>
     </g>
    </g>
    <g id="xtick_4">
     <g id="line2d_7">
      <path d="M 260.218843 384.48 
L 260.218843 51.84 
" clip-path="url(#p0019475d5e)" style="fill: none; stroke: #b0b0b0; stroke-width: 0.8; stroke-linecap: square"/>
     </g>
     <g id="line2d_8">
      <g>
       <use xlink:href="#m9a6465764e" x="260.218843" y="384.48" style="stroke: #000000; stroke-width: 0.8"/>
      </g>
     </g>
     <g id="text_4">
      <!-- 6 -->
      <g transform="translate(257.037593 399.078438) scale(0.1 -0.1)">
       <defs>
        <path id="DejaVuSans-36" d="M 2113 2584 
Q 1688 2584 1439 2293 
Q 1191 2003 1191 1497 
Q 1191 994 1439 701 
Q 1688 409 2113 409 
Q 2538 409 2786 701 
Q 3034 994 3034 1497 
Q 3034 2003 2786 2293 
Q 2538 2584 2113 2584 
z
M 3366 4563 
L 3366 3988 
Q 3128 4100 2886 4159 
Q 2644 4219 2406 4219 
Q 1781 4219 1451 3797 
Q 1122 3375 1075 2522 
Q 1259 2794 1537 2939 
Q 1816 3084 2150 3084 
Q 2853 3084 3261 2657 
Q 3669 2231 3669 1497 
Q 3669 778 3244 343 
Q 2819 -91 2113 -91 
Q 1303 -91 875 529 
Q 447 1150 447 2328 
Q 447 3434 972 4092 
Q 1497 4750 2381 4750 
Q 2619 4750 2861 4703 
Q 3103 4656 3366 4563 
z
" transform="scale(0.015625)"/>
       </defs>
       <use xlink:href="#DejaVuSans-36"/>
      </g>
     </g>
    </g>
    <g id="xtick_5">
     <g id="line2d_9">
      <path d="M 306.201053 384.48 
L 306.201053 51.84 
" clip-path="url(#p0019475d5e)" style="fill: none; stroke: #b0b0b0; stroke-width: 0.8; stroke-linecap: square"/>
     </g>
     <g id="line2d_10">
      <g>
       <use xlink:href="#m9a6465764e" x="306.201053" y="384.48" style="stroke: #000000; stroke-width: 0.8"/>
      </g>
     </g>
     <g id="text_5">
      <!-- 8 -->
      <g transform="translate(303.019803 399.078438) scale(0.1 -0.1)">
       <defs>
        <path id="DejaVuSans-38" d="M 2034 2216 
Q 1584 2216 1326 1975 
Q 1069 1734 1069 1313 
Q 1069 891 1326 650 
Q 1584 409 2034 409 
Q 2484 409 2743 651 
Q 3003 894 3003 1313 
Q 3003 1734 2745 1975 
Q 2488 2216 2034 2216 
z
M 1403 2484 
Q 997 2584 770 2862 
Q 544 3141 544 3541 
Q 544 4100 942 4425 
Q 1341 4750 2034 4750 
Q 2731 4750 3128 4425 
Q 3525 4100 3525 3541 
Q 3525 3141 3298 2862 
Q 3072 2584 2669 2484 
Q 3125 2378 3379 2068 
Q 3634 1759 3634 1313 
Q 3634 634 3220 271 
Q 2806 -91 2034 -91 
Q 1263 -91 848 271 
Q 434 634 434 1313 
Q 434 1759 690 2068 
Q 947 2378 1403 2484 
z
M 1172 3481 
Q 1172 3119 1398 2916 
Q 1625 2713 2034 2713 
Q 2441 2713 2670 2916 
Q 2900 3119 2900 3481 
Q 2900 3844 2670 4047 
Q 2441 4250 2034 4250 
Q 1625 4250 1398 4047 
Q 1172 3844 1172 3481 
z
" transform="scale(0.015625)"/>
       </defs>
       <use xlink:href="#DejaVuSans-38"/>
      </g>
     </g>
    </g>
    <g id="xtick_6">
     <g id="line2d_11">
      <path d="M 352.183264 384.48 
L 352.183264 51.84 
" clip-path="url(#p0019475d5e)" style="fill: none; stroke: #b0b0b0; stroke-width: 0.8; stroke-linecap: square"/>
     </g>
     <g id="line2d_12">
      <g>
       <use xlink:href="#m9a6465764e" x="352.183264" y="384.48" style="stroke: #000000; stroke-width: 0.8"/>
      </g>
     </g>
     <g id="text_6">
      <!-- 10 -->
      <g transform="translate(345.820764 399.078438) scale(0.1 -0.1)">
       <defs>
        <path id="DejaVuSans-31" d="M 794 531 
L 1825 531 
L 1825 4091 
L 703 3866 
L 703 4441 
L 1819 4666 
L 2450 4666 
L 2450 531 
L 3481 531 
L 3481 0 
L 794 0 
L 794 531 
z
" transform="scale(0.015625)"/>
       </defs>
       <use xlink:href="#DejaVuSans-31"/>
       <use xlink:href="#DejaVuSans-30" transform="translate(63.623047 0)"/>
      </g>
     </g>
    </g>
    <g id="xtick_7">
     <g id="line2d_13">
      <path d="M 398.165474 384.48 
L 398.165474 51.84 
" clip-path="url(#p0019475d5e)" style="fill: none; stroke: #b0b0b0; stroke-width: 0.8; stroke-linecap: square"/>
     </g>
     <g id="line2d_14">
      <g>
       <use xlink:href="#m9a6465764e" x="398.165474" y="384.48" style="stroke: #000000; stroke-width: 0.8"/>
      </g>
     </g>
     <g id="text_7">
      <!-- 12 -->
      <g transform="translate(391.802974 399.078438) scale(0.1 -0.1)">
       <use xlink:href="#DejaVuSans-31"/>
       <use xlink:href="#DejaVuSans-32" transform="translate(63.623047 0)"/>
      </g>
     </g>
    </g>
    <g id="text_8">
     <!-- $x_0$ -->
     <g transform="translate(254.831818 412.756563) scale(0.1 -0.1)">
      <defs>
       <path id="DejaVuSans-Oblique-78" d="M 3841 3500 
L 2234 1784 
L 3219 0 
L 2559 0 
L 1819 1388 
L 531 0 
L -166 0 
L 1556 1844 
L 641 3500 
L 1300 3500 
L 1972 2234 
L 3144 3500 
L 3841 3500 
z
" transform="scale(0.015625)"/>
      </defs>
      <use xlink:href="#DejaVuSans-Oblique-78" transform="translate(0 0.3125)"/>
      <use xlink:href="#DejaVuSans-30" transform="translate(59.179688 -16.09375) scale(0.7)"/>
     </g>
    </g>
   </g>
   <g id="matplotlib.axis_2">
    <g id="ytick_1">
     <g id="line2d_15">
      <path d="M 108 353.256549 
L 412.363636 353.256549 
" clip-path="url(#p0019475d5e)" style="fill: none; stroke: #b0b0b0; stroke-width: 0.8; stroke-linecap: square"/>
     </g>
     <g id="line2d_16">
      <defs>
       <path id="m9e93750fd4" d="M 0 0 
L -3.5 0 
" style="stroke: #000000; stroke-width: 0.8"/>
      </defs>
      <g>
       <use xlink:href="#m9e93750fd4" x="108" y="353.256549" style="stroke: #000000; stroke-width: 0.8"/>
      </g>
     </g>
     <g id="text_9">
      <!-- 0 -->
      <g transform="translate(94.6375 357.055768) scale(0.1 -0.1)">
       <use xlink:href="#DejaVuSans-30"/>
      </g>
     </g>
    </g>
    <g id="ytick_2">
     <g id="line2d_17">
      <path d="M 108 283.089384 
L 412.363636 283.089384 
" clip-path="url(#p0019475d5e)" style="fill: none; stroke: #b0b0b0; stroke-width: 0.8; stroke-linecap: square"/>
     </g>
     <g id="line2d_18">
      <g>
       <use xlink:href="#m9e93750fd4" x="108" y="283.089384" style="stroke: #000000; stroke-width: 0.8"/>
      </g>
     </g>
     <g id="text_10">
      <!-- 1 -->
      <g transform="translate(94.6375 286.888603) scale(0.1 -0.1)">
       <use xlink:href="#DejaVuSans-31"/>
      </g>
     </g>
    </g>
    <g id="ytick_3">
     <g id="line2d_19">
      <path d="M 108 212.922219 
L 412.363636 212.922219 
" clip-path="url(#p0019475d5e)" style="fill: none; stroke: #b0b0b0; stroke-width: 0.8; stroke-linecap: square"/>
     </g>
     <g id="line2d_20">
      <g>
       <use xlink:href="#m9e93750fd4" x="108" y="212.922219" style="stroke: #000000; stroke-width: 0.8"/>
      </g>
     </g>
     <g id="text_11">
      <!-- 2 -->
      <g transform="translate(94.6375 216.721438) scale(0.1 -0.1)">
       <use xlink:href="#DejaVuSans-32"/>
      </g>
     </g>
    </g>
    <g id="ytick_4">
     <g id="line2d_21">
      <path d="M 108 142.755054 
L 412.363636 142.755054 
" clip-path="url(#p0019475d5e)" style="fill: none; stroke: #b0b0b0; stroke-width: 0.8; stroke-linecap: square"/>
     </g>
     <g id="line2d_22">
      <g>
       <use xlink:href="#m9e93750fd4" x="108" y="142.755054" style="stroke: #000000; stroke-width: 0.8"/>
      </g>
     </g>
     <g id="text_12">
      <!-- 3 -->
      <g transform="translate(94.6375 146.554273) scale(0.1 -0.1)">
       <defs>
        <path id="DejaVuSans-33" d="M 2597 2516 
Q 3050 2419 3304 2112 
Q 3559 1806 3559 1356 
Q 3559 666 3084 287 
Q 2609 -91 1734 -91 
Q 1441 -91 1130 -33 
Q 819 25 488 141 
L 488 750 
Q 750 597 1062 519 
Q 1375 441 1716 441 
Q 2309 441 2620 675 
Q 2931 909 2931 1356 
Q 2931 1769 2642 2001 
Q 2353 2234 1838 2234 
L 1294 2234 
L 1294 2753 
L 1863 2753 
Q 2328 2753 2575 2939 
Q 2822 3125 2822 3475 
Q 2822 3834 2567 4026 
Q 2313 4219 1838 4219 
Q 1578 4219 1281 4162 
Q 984 4106 628 3988 
L 628 4550 
Q 988 4650 1302 4700 
Q 1616 4750 1894 4750 
Q 2613 4750 3031 4423 
Q 3450 4097 3450 3541 
Q 3450 3153 3228 2886 
Q 3006 2619 2597 2516 
z
" transform="scale(0.015625)"/>
       </defs>
       <use xlink:href="#DejaVuSans-33"/>
      </g>
     </g>
    </g>
    <g id="ytick_5">
     <g id="line2d_23">
      <path d="M 108 72.587889 
L 412.363636 72.587889 
" clip-path="url(#p0019475d5e)" style="fill: none; stroke: #b0b0b0; stroke-width: 0.8; stroke-linecap: square"/>
     </g>
     <g id="line2d_24">
      <g>
       <use xlink:href="#m9e93750fd4" x="108" y="72.587889" style="stroke: #000000; stroke-width: 0.8"/>
      </g>
     </g>
     <g id="text_13">
      <!-- 4 -->
      <g transform="translate(94.6375 76.387108) scale(0.1 -0.1)">
       <use xlink:href="#DejaVuSans-34"/>
      </g>
     </g>
    </g>
    <g id="text_14">
     <!-- $x_1$ -->
     <g transform="translate(88.557812 223.51) rotate(-90) scale(0.1 -0.1)">
      <use xlink:href="#DejaVuSans-Oblique-78" transform="translate(0 0.3125)"/>
      <use xlink:href="#DejaVuSans-31" transform="translate(59.179688 -16.09375) scale(0.7)"/>
     </g>
    </g>
   </g>
   <g id="PathCollection_1">
    <defs>
     <path id="m6908e2bae1" d="M -0.49999 0.49999 
L 0.50001 0.49999 
L 0.50001 -0.50001 
L -0.49999 -0.50001 
z
"/>
    </defs>
    <g clip-path="url(#p0019475d5e)">
     <use xlink:href="#m6908e2bae1" x="122.272212" y="353.256549" style="fill: #1f77b4"/>
     <use xlink:href="#m6908e2bae1" x="145.263317" y="353.256549" style="fill: #1f77b4"/>
     <use xlink:href="#m6908e2bae1" x="168.254422" y="353.256549" style="fill: #1f77b4"/>
     <use xlink:href="#m6908e2bae1" x="191.245527" y="353.256549" style="fill: #1f77b4"/>
     <use xlink:href="#m6908e2bae1" x="214.236632" y="353.256549" style="fill: #1f77b4"/>
     <use xlink:href="#m6908e2bae1" x="237.227738" y="353.256549" style="fill: #1f77b4"/>
     <use xlink:href="#m6908e2bae1" x="260.218843" y="353.256549" style="fill: #1f77b4"/>
     <use xlink:href="#m6908e2bae1" x="283.209948" y="353.256549" style="fill: #1f77b4"/>
     <use xlink:href="#m6908e2bae1" x="306.201053" y="353.256549" style="fill: #1f77b4"/>
     <use xlink:href="#m6908e2bae1" x="329.192159" y="353.256549" style="fill: #1f77b4"/>
     <use xlink:href="#m6908e2bae1" x="352.183264" y="353.256549" style="fill: #1f77b4"/>
     <use xlink:href="#m6908e2bae1" x="375.174369" y="353.256549" style="fill: #1f77b4"/>
     <use xlink:href="#m6908e2bae1" x="398.165474" y="353.256549" style="fill: #1f77b4"/>
     <use xlink:href="#m6908e2bae1" x="122.272212" y="283.089384" style="fill: #1f77b4"/>
     <use xlink:href="#m6908e2bae1" x="145.263317" y="283.089384" style="fill: #1f77b4"/>
     <use xlink:href="#m6908e2bae1" x="168.254422" y="283.089384" style="fill: #1f77b4"/>
     <use xlink:href="#m6908e2bae1" x="191.245527" y="283.089384" style="fill: #1f77b4"/>
     <use xlink:href="#m6908e2bae1" x="214.236632" y="283.089384" style="fill: #1f77b4"/>
     <use xlink:href="#m6908e2bae1" x="237.227738" y="283.089384" style="fill: #1f77b4"/>
     <use xlink:href="#m6908e2bae1" x="260.218843" y="283.089384" style="fill: #1f77b4"/>
     <use xlink:href="#m6908e2bae1" x="283.209948" y="283.089384" style="fill: #1f77b4"/>
     <use xlink:href="#m6908e2bae1" x="306.201053" y="283.089384" style="fill: #1f77b4"/>
     <use xlink:href="#m6908e2bae1" x="329.192159" y="283.089384" style="fill: #1f77b4"/>
     <use xlink:href="#m6908e2bae1" x="352.183264" y="283.089384" style="fill: #1f77b4"/>
     <use xlink:href="#m6908e2bae1" x="375.174369" y="283.089384" style="fill: #1f77b4"/>
     <use xlink:href="#m6908e2bae1" x="398.165474" y="283.089384" style="fill: #1f77b4"/>
     <use xlink:href="#m6908e2bae1" x="122.272212" y="212.922219" style="fill: #1f77b4"/>
     <use xlink:href="#m6908e2bae1" x="145.263317" y="212.922219" style="fill: #1f77b4"/>
     <use xlink:href="#m6908e2bae1" x="168.254422" y="212.922219" style="fill: #1f77b4"/>
     <use xlink:href="#m6908e2bae1" x="191.245527" y="212.922219" style="fill: #1f77b4"/>
     <use xlink:href="#m6908e2bae1" x="214.236632" y="212.922219" style="fill: #1f77b4"/>
     <use xlink:href="#m6908e2bae1" x="237.227738" y="212.922219" style="fill: #1f77b4"/>
     <use xlink:href="#m6908e2bae1" x="260.218843" y="212.922219" style="fill: #1f77b4"/>
     <use xlink:href="#m6908e2bae1" x="283.209948" y="212.922219" style="fill: #1f77b4"/>
     <use xlink:href="#m6908e2bae1" x="306.201053" y="212.922219" style="fill: #1f77b4"/>
     <use xlink:href="#m6908e2bae1" x="329.192159" y="212.922219" style="fill: #1f77b4"/>
     <use xlink:href="#m6908e2bae1" x="352.183264" y="212.922219" style="fill: #1f77b4"/>
     <use xlink:href="#m6908e2bae1" x="375.174369" y="212.922219" style="fill: #1f77b4"/>
     <use xlink:href="#m6908e2bae1" x="398.165474" y="212.922219" style="fill: #1f77b4"/>
     <use xlink:href="#m6908e2bae1" x="122.272212" y="142.755054" style="fill: #1f77b4"/>
     <use xlink:href="#m6908e2bae1" x="145.263317" y="142.755054" style="fill: #1f77b4"/>
     <use xlink:href="#m6908e2bae1" x="168.254422" y="142.755054" style="fill: #1f77b4"/>
     <use xlink:href="#m6908e2bae1" x="191.245527" y="142.755054" style="fill: #1f77b4"/>
     <use xlink:href="#m6908e2bae1" x="214.236632" y="142.755054" style="fill: #1f77b4"/>
     <use xlink:href="#m6908e2bae1" x="237.227738" y="142.755054" style="fill: #1f77b4"/>
     <use xlink:href="#m6908e2bae1" x="260.218843" y="142.755054" style="fill: #1f77b4"/>
     <use xlink:href="#m6908e2bae1" x="283.209948" y="142.755054" style="fill: #1f77b4"/>
     <use xlink:href="#m6908e2bae1" x="306.201053" y="142.755054" style="fill: #1f77b4"/>
     <use xlink:href="#m6908e2bae1" x="329.192159" y="142.755054" style="fill: #1f77b4"/>
     <use xlink:href="#m6908e2bae1" x="352.183264" y="142.755054" style="fill: #1f77b4"/>
     <use xlink:href="#m6908e2bae1" x="375.174369" y="142.755054" style="fill: #1f77b4"/>
     <use xlink:href="#m6908e2bae1" x="398.165474" y="142.755054" style="fill: #1f77b4"/>
     <use xlink:href="#m6908e2bae1" x="122.272212" y="72.587889" style="fill: #1f77b4"/>
     <use xlink:href="#m6908e2bae1" x="145.263317" y="72.587889" style="fill: #1f77b4"/>
     <use xlink:href="#m6908e2bae1" x="168.254422" y="72.587889" style="fill: #1f77b4"/>
     <use xlink:href="#m6908e2bae1" x="191.245527" y="72.587889" style="fill: #1f77b4"/>
     <use xlink:href="#m6908e2bae1" x="214.236632" y="72.587889" style="fill: #1f77b4"/>
     <use xlink:href="#m6908e2bae1" x="237.227738" y="72.587889" style="fill: #1f77b4"/>
     <use xlink:href="#m6908e2bae1" x="260.218843" y="72.587889" style="fill: #1f77b4"/>
     <use xlink:href="#m6908e2bae1" x="283.209948" y="72.587889" style="fill: #1f77b4"/>
     <use xlink:href="#m6908e2bae1" x="306.201053" y="72.587889" style="fill: #1f77b4"/>
     <use xlink:href="#m6908e2bae1" x="329.192159" y="72.587889" style="fill: #1f77b4"/>
     <use xlink:href="#m6908e2bae1" x="352.183264" y="72.587889" style="fill: #1f77b4"/>
     <use xlink:href="#m6908e2bae1" x="375.174369" y="72.587889" style="fill: #1f77b4"/>
     <use xlink:href="#m6908e2bae1" x="398.165474" y="72.587889" style="fill: #1f77b4"/>
    </g>
   </g>
   <g id="patch_3">
    <path d="M 122.268717 72.598553 
L 122.268717 72.577225 
L 122.275706 72.577225 
L 122.275706 72.598553 
z
" clip-path="url(#p0019475d5e)" style="fill: #ff0000; stroke: #e60000; stroke-linejoin: miter"/>
   </g>
   <g id="patch_4">
    <path d="M 398.156188 353.284889 
L 398.156188 353.22821 
L 398.17476 353.22821 
L 398.17476 353.284889 
z
" clip-path="url(#p0019475d5e)" style="fill: #ff0000; stroke: #e60000; stroke-linejoin: miter"/>
   </g>
   <g id="patch_5">
    <path d="M 145.251993 72.622449 
L 145.251993 72.55333 
L 145.274641 72.55333 
L 145.274641 72.622449 
z
" clip-path="url(#p0019475d5e)" style="fill: #ff0000; stroke: #e60000; stroke-linejoin: miter"/>
   </g>
   <g id="patch_6">
    <path d="M 122.256108 142.804201 
L 122.256108 142.705907 
L 122.288315 142.705907 
L 122.288315 142.804201 
z
" clip-path="url(#p0019475d5e)" style="fill: #ff0000; stroke: #e60000; stroke-linejoin: miter"/>
   </g>
   <g id="patch_7">
    <path d="M 398.141013 283.164039 
L 398.141013 283.014729 
L 398.189936 283.014729 
L 398.189936 283.164039 
z
" clip-path="url(#p0019475d5e)" style="fill: #ff0000; stroke: #e60000; stroke-linejoin: miter"/>
   </g>
   <g id="patch_8">
    <path d="M 168.22858 72.666757 
L 168.22858 72.509022 
L 168.280264 72.509022 
L 168.280264 72.666757 
z
" clip-path="url(#p0019475d5e)" style="fill: #ff0000; stroke: #e60000; stroke-linejoin: miter"/>
   </g>
   <g id="patch_9">
    <path d="M 375.139215 353.363838 
L 375.139215 353.149261 
L 375.209523 353.149261 
L 375.209523 353.363838 
z
" clip-path="url(#p0019475d5e)" style="fill: #ff0000; stroke: #e60000; stroke-linejoin: miter"/>
   </g>
   <g id="patch_10">
    <path d="M 191.196406 72.737805 
L 191.196406 72.437974 
L 191.294649 72.437974 
L 191.294649 72.737805 
z
" clip-path="url(#p0019475d5e)" style="fill: #ff0000; stroke: #e60000; stroke-linejoin: miter"/>
   </g>
   <g id="patch_11">
    <path d="M 145.211129 142.914327 
L 145.211129 142.595782 
L 145.315504 142.595782 
L 145.315504 142.914327 
z
" clip-path="url(#p0019475d5e)" style="fill: #ff0000; stroke: #e60000; stroke-linejoin: miter"/>
   </g>
   <g id="patch_12">
    <path d="M 398.107736 213.098432 
L 398.107736 212.746007 
L 398.223212 212.746007 
L 398.223212 213.098432 
z
" clip-path="url(#p0019475d5e)" style="fill: #ff0000; stroke: #e60000; stroke-linejoin: miter"/>
   </g>
   <g id="patch_13">
    <path d="M 122.212041 213.105857 
L 122.212041 212.738582 
L 122.332383 212.738582 
L 122.332383 213.105857 
z
" clip-path="url(#p0019475d5e)" style="fill: #ff0000; stroke: #e60000; stroke-linejoin: miter"/>
   </g>
   <g id="patch_14">
    <path d="M 214.152357 72.845092 
L 214.152357 72.330687 
L 214.320908 72.330687 
L 214.320908 72.845092 
z
" clip-path="url(#p0019475d5e)" style="fill: #ff0000; stroke: #e60000; stroke-linejoin: miter"/>
   </g>
   <g id="patch_15">
    <path d="M 375.081763 283.372012 
L 375.081763 282.806757 
L 375.266975 282.806757 
L 375.266975 283.372012 
z
" clip-path="url(#p0019475d5e)" style="fill: #ff0000; stroke: #e60000; stroke-linejoin: miter"/>
   </g>
   <g id="patch_16">
    <path d="M 352.068572 353.60658 
L 352.068572 352.906518 
L 352.297956 352.906518 
L 352.297956 353.60658 
z
" clip-path="url(#p0019475d5e)" style="fill: #ff0100; stroke: #e60100; stroke-linejoin: miter"/>
   </g>
   <g id="patch_17">
    <path d="M 168.135331 143.118511 
L 168.135331 142.391597 
L 168.373513 142.391597 
L 168.373513 143.118511 
z
" clip-path="url(#p0019475d5e)" style="fill: #ff0100; stroke: #e60100; stroke-linejoin: miter"/>
   </g>
   <g id="patch_18">
    <path d="M 237.089815 73.008819 
L 237.089815 72.16696 
L 237.36566 72.16696 
L 237.36566 73.008819 
z
" clip-path="url(#p0019475d5e)" style="fill: #ff0100; stroke: #e60100; stroke-linejoin: miter"/>
   </g>
   <g id="patch_19">
    <path d="M 398.024354 143.185742 
L 398.024354 142.324366 
L 398.306594 142.324366 
L 398.306594 143.185742 
z
" clip-path="url(#p0019475d5e)" style="fill: #ff0100; stroke: #e60100; stroke-linejoin: miter"/>
   </g>
   <g id="patch_20">
    <path d="M 122.091041 283.642303 
L 122.091041 282.536466 
L 122.453382 282.536466 
L 122.453382 283.642303 
z
" clip-path="url(#p0019475d5e)" style="fill: #ff0100; stroke: #e60100; stroke-linejoin: miter"/>
   </g>
   <g id="patch_21">
    <path d="M 145.068384 213.517141 
L 145.068384 212.327298 
L 145.45825 212.327298 
L 145.45825 213.517141 
z
" clip-path="url(#p0019475d5e)" style="fill: #ff0200; stroke: #e60200; stroke-linejoin: miter"/>
   </g>
   <g id="patch_22">
    <path d="M 374.955833 213.589174 
L 374.955833 212.255264 
L 375.392905 212.255264 
L 375.392905 213.589174 
z
" clip-path="url(#p0019475d5e)" style="fill: #ff0200; stroke: #e60200; stroke-linejoin: miter"/>
   </g>
   <g id="patch_23">
    <path d="M 259.994112 73.27375 
L 259.994112 71.902029 
L 260.443573 71.902029 
L 260.443573 73.27375 
z
" clip-path="url(#p0019475d5e)" style="fill: #ff0200; stroke: #e60200; stroke-linejoin: miter"/>
   </g>
   <g id="patch_24">
    <path d="M 191.019173 143.445871 
L 191.019173 142.064238 
L 191.471881 142.064238 
L 191.471881 143.445871 
z
" clip-path="url(#p0019475d5e)" style="fill: #ff0200; stroke: #e60200; stroke-linejoin: miter"/>
   </g>
   <g id="patch_25">
    <path d="M 351.881197 284.011269 
L 351.881197 282.167499 
L 352.48533 282.167499 
L 352.48533 284.011269 
z
" clip-path="url(#p0019475d5e)" style="fill: #ff0400; stroke: #e60400; stroke-linejoin: miter"/>
   </g>
   <g id="patch_26">
    <path d="M 328.869041 354.242679 
L 328.869041 352.27042 
L 329.515276 352.27042 
L 329.515276 354.242679 
z
" clip-path="url(#p0019475d5e)" style="fill: #ff0500; stroke: #e60400; stroke-linejoin: miter"/>
   </g>
   <g id="patch_27">
    <path d="M 397.802023 73.697117 
L 397.802023 71.478662 
L 398.528926 71.478662 
L 398.528926 73.697117 
z
" clip-path="url(#p0019475d5e)" style="fill: #ff0600; stroke: #e60500; stroke-linejoin: miter"/>
   </g>
   <g id="patch_28">
    <path d="M 282.833953 73.735398 
L 282.833953 71.440381 
L 283.585943 71.440381 
L 283.585943 73.735398 
z
" clip-path="url(#p0019475d5e)" style="fill: #ff0600; stroke: #e60600; stroke-linejoin: miter"/>
   </g>
   <g id="patch_29">
    <path d="M 213.848381 143.939971 
L 213.848381 141.570138 
L 214.624884 141.570138 
L 214.624884 143.939971 
z
" clip-path="url(#p0019475d5e)" style="fill: #ff0700; stroke: #e60600; stroke-linejoin: miter"/>
   </g>
   <g id="patch_30">
    <path d="M 121.834711 354.59177 
L 121.834711 351.921329 
L 122.709713 351.921329 
L 122.709713 354.59177 
z
" clip-path="url(#p0019475d5e)" style="fill: #ff0900; stroke: #e60800; stroke-linejoin: miter"/>
   </g>
   <g id="patch_31">
    <path d="M 167.80989 214.278898 
L 167.80989 211.565541 
L 168.698954 211.565541 
L 168.698954 214.278898 
z
" clip-path="url(#p0019475d5e)" style="fill: #ff0900; stroke: #e60800; stroke-linejoin: miter"/>
   </g>
   <g id="patch_32">
    <path d="M 374.642536 144.378169 
L 374.642536 141.131939 
L 375.706202 141.131939 
L 375.706202 144.378169 
z
" clip-path="url(#p0019475d5e)" style="fill: #ff0d00; stroke: #e60c00; stroke-linejoin: miter"/>
   </g>
   <g id="patch_33">
    <path d="M 144.678938 284.872864 
L 144.678938 281.305904 
L 145.847695 281.305904 
L 145.847695 284.872864 
z
" clip-path="url(#p0019475d5e)" style="fill: #ff1000; stroke: #e60e00; stroke-linejoin: miter"/>
   </g>
   <g id="patch_34">
    <path d="M 236.592841 144.692711 
L 236.592841 140.817398 
L 237.862634 140.817398 
L 237.862634 144.692711 
z
" clip-path="url(#p0019475d5e)" style="fill: #ff1200; stroke: #e61100; stroke-linejoin: miter"/>
   </g>
   <g id="patch_35">
    <path d="M 305.544179 74.592622 
L 305.544179 70.583157 
L 306.857928 70.583157 
L 306.857928 74.592622 
z
" clip-path="url(#p0019475d5e)" style="fill: #ff1400; stroke: #e61200; stroke-linejoin: miter"/>
   </g>
   <g id="patch_36">
    <path d="M 108 384.48 
L 108 51.84 
" style="fill: none; stroke: #000000; stroke-width: 0.8; stroke-linejoin: miter; stroke-linecap: square"/>
   </g>
   <g id="patch_37">
    <path d="M 108 384.48 
L 412.363636 384.48 
" style="fill: none; stroke: #000000; stroke-width: 0.8; stroke-linejoin: miter; stroke-linecap: square"/>
   </g>
   <g id="patch_38">
    <path d="M 351.472452 215.091566 
L 351.472452 210.752873 
L 352.894076 210.752873 
L 352.894076 215.091566 
z
" clip-path="url(#p0019475d5e)" style="fill: #ff1700; stroke: #e61500; stroke-linejoin: miter"/>
   </g>
   <g id="patch_39">
    <path d="M 305.412188 355.664107 
L 305.412188 350.848991 
L 306.989918 350.848991 
L 306.989918 355.664107 
z
" clip-path="url(#p0019475d5e)" style="fill: #ff1c00; stroke: #e61a00; stroke-linejoin: miter"/>
   </g>
   <g id="patch_40">
    <path d="M 190.401972 215.496689 
L 190.401972 210.34775 
L 192.089083 210.34775 
L 192.089083 215.496689 
z
" clip-path="url(#p0019475d5e)" style="fill: #ff2000; stroke: #e61d00; stroke-linejoin: miter"/>
   </g>
   <g id="patch_41">
    <path d="M 328.342855 285.681398 
L 328.342855 280.497371 
L 330.041462 280.497371 
L 330.041462 285.681398 
z
" clip-path="url(#p0019475d5e)" style="fill: #ff2100; stroke: #e61e00; stroke-linejoin: miter"/>
   </g>
   <g id="patch_42">
    <path d="M 259.187615 145.902287 
L 259.187615 139.607822 
L 261.250071 139.607822 
L 261.250071 145.902287 
z
" clip-path="url(#p0019475d5e)" style="fill: #ff3000; stroke: #e62c00; stroke-linejoin: miter"/>
   </g>
   <g id="patch_43">
    <path d="M 328.007009 76.20488 
L 328.007009 68.970899 
L 330.377309 68.970899 
L 330.377309 76.20488 
z
" clip-path="url(#p0019475d5e)" style="fill: #ff4000; stroke: #e63a00; stroke-linejoin: miter"/>
   </g>
   <g id="patch_44">
    <path d="M 373.947219 76.33306 
L 373.947219 68.842719 
L 376.401518 68.842719 
L 376.401518 76.33306 
z
" clip-path="url(#p0019475d5e)" style="fill: #ff4500; stroke: #e63e00; stroke-linejoin: miter"/>
   </g>
   <g id="patch_45">
    <path d="M 166.933468 287.12084 
L 166.933468 279.057928 
L 169.575376 279.057928 
L 169.575376 287.12084 
z
" clip-path="url(#p0019475d5e)" style="fill: #ff5000; stroke: #e64800; stroke-linejoin: miter"/>
   </g>
   <g id="patch_46">
    <path d="M 143.911822 357.381211 
L 143.911822 349.131887 
L 146.614811 349.131887 
L 146.614811 357.381211 
z
" clip-path="url(#p0019475d5e)" style="fill: #ff5300; stroke: #e64b00; stroke-linejoin: miter"/>
   </g>
   <g id="patch_47">
    <path d="M 212.796178 217.318381 
L 212.796178 208.526058 
L 215.677087 208.526058 
L 215.677087 217.318381 
z
" clip-path="url(#p0019475d5e)" style="fill: #ff5f00; stroke: #e65500; stroke-linejoin: miter"/>
   </g>
   <g id="patch_48">
    <path d="M 350.542547 147.762403 
L 350.542547 137.747706 
L 353.823981 137.747706 
L 353.823981 147.762403 
z
" clip-path="url(#p0019475d5e)" style="fill: #ff7b00; stroke: #e66e00; stroke-linejoin: miter"/>
   </g>
   <g id="patch_49">
    <path d="M 281.536329 358.364312 
L 281.536329 348.148786 
L 284.883567 348.148786 
L 284.883567 358.364312 
z
" clip-path="url(#p0019475d5e)" style="fill: #ff8000; stroke: #e67300; stroke-linejoin: miter"/>
   </g>
   <g id="patch_50">
    <path d="M 281.510854 147.940564 
L 281.510854 137.569545 
L 284.909042 137.569545 
L 284.909042 147.940564 
z
" clip-path="url(#p0019475d5e)" style="fill: #ff8400; stroke: #e67600; stroke-linejoin: miter"/>
   </g>
   <g id="patch_51">
    <path d="M 350.339219 78.215779 
L 350.339219 66.96 
L 354.027309 66.96 
L 354.027309 78.215779 
z
" clip-path="url(#p0019475d5e)" style="fill: #ff9b00; stroke: #e68c00; stroke-linejoin: miter"/>
   </g>
   <g id="patch_52">
    <path d="M 327.245946 218.861917 
L 327.245946 206.982522 
L 331.138371 206.982522 
L 331.138371 218.861917 
z
" clip-path="url(#p0019475d5e)" style="fill: #ffad00; stroke: #e69b00; stroke-linejoin: miter"/>
   </g>
   <g id="patch_53">
    <path d="M 304.156922 289.327922 
L 304.156922 276.850847 
L 308.245184 276.850847 
L 308.245184 289.327922 
z
" clip-path="url(#p0019475d5e)" style="fill: #ffbf00; stroke: #e6ab00; stroke-linejoin: miter"/>
   </g>
   <g id="patch_54">
    <path d="M 234.906349 220.006929 
L 234.906349 205.83751 
L 239.549127 205.83751 
L 239.549127 220.006929 
z
" clip-path="url(#p0019475d5e)" style="fill: #fff600; stroke: #e6dd00; stroke-linejoin: miter"/>
   </g>
   <g id="patch_55">
    <path d="M 188.789755 290.58422 
L 188.789755 275.594548 
L 193.701299 275.594548 
L 193.701299 290.58422 
z
" clip-path="url(#p0019475d5e)" style="fill: #ebff00; stroke: #d3e600; stroke-linejoin: miter"/>
   </g>
   <g id="patch_56">
    <path d="M 303.481186 151.055891 
L 303.481186 134.454218 
L 308.920921 134.454218 
L 308.920921 151.055891 
z
" clip-path="url(#p0019475d5e)" style="fill: #adff00; stroke: #9be600; stroke-linejoin: miter"/>
   </g>
   <g id="patch_57">
    <path d="M 165.439539 361.847366 
L 165.439539 344.665733 
L 171.069305 344.665733 
L 171.069305 361.847366 
z
" clip-path="url(#p0019475d5e)" style="fill: #95ff00; stroke: #86e600; stroke-linejoin: miter"/>
   </g>
   <g id="patch_58">
    <path d="M 257.162991 362.582786 
L 257.162991 343.930312 
L 263.274695 343.930312 
L 263.274695 362.582786 
z
" clip-path="url(#p0019475d5e)" style="fill: #54ff00; stroke: #4ce600; stroke-linejoin: miter"/>
   </g>
   <g id="patch_59">
    <path d="M 326.071925 152.277777 
L 326.071925 133.232331 
L 332.312392 133.232331 
L 332.312392 152.277777 
z
" clip-path="url(#p0019475d5e)" style="fill: #42ff00; stroke: #3be600; stroke-linejoin: miter"/>
   </g>
   <g id="patch_60">
    <path d="M 256.651666 223.80898 
L 256.651666 202.035458 
L 263.78602 202.035458 
L 263.78602 223.80898 
z
" clip-path="url(#p0019475d5e)" style="fill: #00ff46; stroke: #00e63f; stroke-linejoin: miter"/>
   </g>
   <g id="patch_61">
    <path d="M 302.228894 225.044957 
L 302.228894 200.799481 
L 310.173213 200.799481 
L 310.173213 225.044957 
z
" clip-path="url(#p0019475d5e)" style="fill: #00ffd1; stroke: #00e6bd; stroke-linejoin: miter"/>
   </g>
   <g id="patch_62">
    <path d="M 210.26426 295.212775 
L 210.26426 270.965994 
L 218.209005 270.965994 
L 218.209005 295.212775 
z
" clip-path="url(#p0019475d5e)" style="fill: #00ffd2; stroke: #00e6bd; stroke-linejoin: miter"/>
   </g>
   <g id="patch_63">
    <path d="M 279.18207 295.382173 
L 279.18207 270.796596 
L 287.237826 270.796596 
L 287.237826 295.382173 
z
" clip-path="url(#p0019475d5e)" style="fill: #00ffe6; stroke: #00e6cf; stroke-linejoin: miter"/>
   </g>
   <g id="patch_64">
    <path d="M 186.803053 366.814655 
L 186.803053 339.698443 
L 195.688002 339.698443 
L 195.688002 366.814655 
z
" clip-path="url(#p0019475d5e)" style="fill: #0078ff; stroke: #006ce6; stroke-linejoin: miter"/>
   </g>
   <g id="patch_65">
    <path d="M 232.631564 367.283735 
L 232.631564 339.229363 
L 241.823912 339.229363 
L 241.823912 367.283735 
z
" clip-path="url(#p0019475d5e)" style="fill: #0039ff; stroke: #0033e6; stroke-linejoin: miter"/>
   </g>
   <g id="patch_66">
    <path d="M 278.493111 227.317659 
L 278.493111 198.52678 
L 287.926785 198.52678 
L 287.926785 227.317659 
z
" clip-path="url(#p0019475d5e)" style="fill: #0005ff; stroke: #0005e6; stroke-linejoin: miter"/>
   </g>
   <g id="patch_67">
    <path d="M 208.960146 369.36 
L 208.960146 337.153098 
L 219.513119 337.153098 
L 219.513119 369.36 
z
" clip-path="url(#p0019475d5e)" style="fill: #fa00ff; stroke: #e100e6; stroke-linejoin: miter"/>
   </g>
   <g id="patch_68">
    <path d="M 231.732831 299.859438 
L 231.732831 266.319331 
L 242.722645 266.319331 
L 242.722645 299.859438 
z
" clip-path="url(#p0019475d5e)" style="fill: #ff0099; stroke: #e6008a; stroke-linejoin: miter"/>
   </g>
   <g id="patch_69">
    <path d="M 254.471067 300.631175 
L 254.471067 265.547593 
L 265.966619 265.547593 
L 265.966619 300.631175 
z
" clip-path="url(#p0019475d5e)" style="fill: #ff0018; stroke: #e60015; stroke-linejoin: miter"/>
   </g>
   <g id="text_15">
    <!-- $(X_0, X_1)$: iso-lines PDF -->
    <g transform="translate(196.401818 45.84) scale(0.12 -0.12)">
     <defs>
      <path id="DejaVuSans-28" d="M 1984 4856 
Q 1566 4138 1362 3434 
Q 1159 2731 1159 2009 
Q 1159 1288 1364 580 
Q 1569 -128 1984 -844 
L 1484 -844 
Q 1016 -109 783 600 
Q 550 1309 550 2009 
Q 550 2706 781 3412 
Q 1013 4119 1484 4856 
L 1984 4856 
z
" transform="scale(0.015625)"/>
      <path id="DejaVuSans-Oblique-58" d="M 878 4666 
L 1516 4666 
L 2316 2981 
L 3763 4666 
L 4500 4666 
L 2578 2438 
L 3738 0 
L 3103 0 
L 2163 1966 
L 459 0 
L -275 0 
L 1906 2509 
L 878 4666 
z
" transform="scale(0.015625)"/>
      <path id="DejaVuSans-2c" d="M 750 794 
L 1409 794 
L 1409 256 
L 897 -744 
L 494 -744 
L 750 256 
L 750 794 
z
" transform="scale(0.015625)"/>
      <path id="DejaVuSans-29" d="M 513 4856 
L 1013 4856 
Q 1481 4119 1714 3412 
Q 1947 2706 1947 2009 
Q 1947 1309 1714 600 
Q 1481 -109 1013 -844 
L 513 -844 
Q 928 -128 1133 580 
Q 1338 1288 1338 2009 
Q 1338 2731 1133 3434 
Q 928 4138 513 4856 
z
" transform="scale(0.015625)"/>
      <path id="DejaVuSans-3a" d="M 750 794 
L 1409 794 
L 1409 0 
L 750 0 
L 750 794 
z
M 750 3309 
L 1409 3309 
L 1409 2516 
L 750 2516 
L 750 3309 
z
" transform="scale(0.015625)"/>
      <path id="DejaVuSans-20" transform="scale(0.015625)"/>
      <path id="DejaVuSans-69" d="M 603 3500 
L 1178 3500 
L 1178 0 
L 603 0 
L 603 3500 
z
M 603 4863 
L 1178 4863 
L 1178 4134 
L 603 4134 
L 603 4863 
z
" transform="scale(0.015625)"/>
      <path id="DejaVuSans-73" d="M 2834 3397 
L 2834 2853 
Q 2591 2978 2328 3040 
Q 2066 3103 1784 3103 
Q 1356 3103 1142 2972 
Q 928 2841 928 2578 
Q 928 2378 1081 2264 
Q 1234 2150 1697 2047 
L 1894 2003 
Q 2506 1872 2764 1633 
Q 3022 1394 3022 966 
Q 3022 478 2636 193 
Q 2250 -91 1575 -91 
Q 1294 -91 989 -36 
Q 684 19 347 128 
L 347 722 
Q 666 556 975 473 
Q 1284 391 1588 391 
Q 1994 391 2212 530 
Q 2431 669 2431 922 
Q 2431 1156 2273 1281 
Q 2116 1406 1581 1522 
L 1381 1569 
Q 847 1681 609 1914 
Q 372 2147 372 2553 
Q 372 3047 722 3315 
Q 1072 3584 1716 3584 
Q 2034 3584 2315 3537 
Q 2597 3491 2834 3397 
z
" transform="scale(0.015625)"/>
      <path id="DejaVuSans-6f" d="M 1959 3097 
Q 1497 3097 1228 2736 
Q 959 2375 959 1747 
Q 959 1119 1226 758 
Q 1494 397 1959 397 
Q 2419 397 2687 759 
Q 2956 1122 2956 1747 
Q 2956 2369 2687 2733 
Q 2419 3097 1959 3097 
z
M 1959 3584 
Q 2709 3584 3137 3096 
Q 3566 2609 3566 1747 
Q 3566 888 3137 398 
Q 2709 -91 1959 -91 
Q 1206 -91 779 398 
Q 353 888 353 1747 
Q 353 2609 779 3096 
Q 1206 3584 1959 3584 
z
" transform="scale(0.015625)"/>
      <path id="DejaVuSans-2d" d="M 313 2009 
L 1997 2009 
L 1997 1497 
L 313 1497 
L 313 2009 
z
" transform="scale(0.015625)"/>
      <path id="DejaVuSans-6c" d="M 603 4863 
L 1178 4863 
L 1178 0 
L 603 0 
L 603 4863 
z
" transform="scale(0.015625)"/>
      <path id="DejaVuSans-6e" d="M 3513 2113 
L 3513 0 
L 2938 0 
L 2938 2094 
Q 2938 2591 2744 2837 
Q 2550 3084 2163 3084 
Q 1697 3084 1428 2787 
Q 1159 2491 1159 1978 
L 1159 0 
L 581 0 
L 581 3500 
L 1159 3500 
L 1159 2956 
Q 1366 3272 1645 3428 
Q 1925 3584 2291 3584 
Q 2894 3584 3203 3211 
Q 3513 2838 3513 2113 
z
" transform="scale(0.015625)"/>
      <path id="DejaVuSans-65" d="M 3597 1894 
L 3597 1613 
L 953 1613 
Q 991 1019 1311 708 
Q 1631 397 2203 397 
Q 2534 397 2845 478 
Q 3156 559 3463 722 
L 3463 178 
Q 3153 47 2828 -22 
Q 2503 -91 2169 -91 
Q 1331 -91 842 396 
Q 353 884 353 1716 
Q 353 2575 817 3079 
Q 1281 3584 2069 3584 
Q 2775 3584 3186 3129 
Q 3597 2675 3597 1894 
z
M 3022 2063 
Q 3016 2534 2758 2815 
Q 2500 3097 2075 3097 
Q 1594 3097 1305 2825 
Q 1016 2553 972 2059 
L 3022 2063 
z
" transform="scale(0.015625)"/>
      <path id="DejaVuSans-50" d="M 1259 4147 
L 1259 2394 
L 2053 2394 
Q 2494 2394 2734 2622 
Q 2975 2850 2975 3272 
Q 2975 3691 2734 3919 
Q 2494 4147 2053 4147 
L 1259 4147 
z
M 628 4666 
L 2053 4666 
Q 2838 4666 3239 4311 
Q 3641 3956 3641 3272 
Q 3641 2581 3239 2228 
Q 2838 1875 2053 1875 
L 1259 1875 
L 1259 0 
L 628 0 
L 628 4666 
z
" transform="scale(0.015625)"/>
      <path id="DejaVuSans-44" d="M 1259 4147 
L 1259 519 
L 2022 519 
Q 2988 519 3436 956 
Q 3884 1394 3884 2338 
Q 3884 3275 3436 3711 
Q 2988 4147 2022 4147 
L 1259 4147 
z
M 628 4666 
L 1925 4666 
Q 3281 4666 3915 4102 
Q 4550 3538 4550 2338 
Q 4550 1131 3912 565 
Q 3275 0 1925 0 
L 628 0 
L 628 4666 
z
" transform="scale(0.015625)"/>
      <path id="DejaVuSans-46" d="M 628 4666 
L 3309 4666 
L 3309 4134 
L 1259 4134 
L 1259 2759 
L 3109 2759 
L 3109 2228 
L 1259 2228 
L 1259 0 
L 628 0 
L 628 4666 
z
" transform="scale(0.015625)"/>
     </defs>
     <use xlink:href="#DejaVuSans-28" transform="translate(0 0.015625)"/>
     <use xlink:href="#DejaVuSans-Oblique-58" transform="translate(39.013672 0.015625)"/>
     <use xlink:href="#DejaVuSans-30" transform="translate(107.519531 -16.390625) scale(0.7)"/>
     <use xlink:href="#DejaVuSans-2c" transform="translate(154.790039 0.015625)"/>
     <use xlink:href="#DejaVuSans-Oblique-58" transform="translate(206.05957 0.015625)"/>
     <use xlink:href="#DejaVuSans-31" transform="translate(274.56543 -16.390625) scale(0.7)"/>
     <use xlink:href="#DejaVuSans-29" transform="translate(321.835938 0.015625)"/>
     <use xlink:href="#DejaVuSans-3a" transform="translate(360.849609 0.015625)"/>
     <use xlink:href="#DejaVuSans-20" transform="translate(394.541016 0.015625)"/>
     <use xlink:href="#DejaVuSans-69" transform="translate(426.328125 0.015625)"/>
     <use xlink:href="#DejaVuSans-73" transform="translate(454.111328 0.015625)"/>
     <use xlink:href="#DejaVuSans-6f" transform="translate(506.210938 0.015625)"/>
     <use xlink:href="#DejaVuSans-2d" transform="translate(567.392578 0.015625)"/>
     <use xlink:href="#DejaVuSans-6c" transform="translate(603.476562 0.015625)"/>
     <use xlink:href="#DejaVuSans-69" transform="translate(631.259766 0.015625)"/>
     <use xlink:href="#DejaVuSans-6e" transform="translate(659.042969 0.015625)"/>
     <use xlink:href="#DejaVuSans-65" transform="translate(722.421875 0.015625)"/>
     <use xlink:href="#DejaVuSans-73" transform="translate(783.945312 0.015625)"/>
     <use xlink:href="#DejaVuSans-20" transform="translate(836.044922 0.015625)"/>
     <use xlink:href="#DejaVuSans-50" transform="translate(867.832031 0.015625)"/>
     <use xlink:href="#DejaVuSans-44" transform="translate(928.134766 0.015625)"/>
     <use xlink:href="#DejaVuSans-46" transform="translate(1005.136719 0.015625)"/>
    </g>
   </g>
  </g>
  <g id="axes_2">
   <g id="patch_70">
    <path d="M 473.236364 384.48 
L 777.6 384.48 
L 777.6 51.84 
L 473.236364 51.84 
z
" style="fill: #ffffff"/>
   </g>
   <g id="matplotlib.axis_3">
    <g id="xtick_8">
     <g id="line2d_25">
      <path d="M 508.032757 384.48 
L 508.032757 51.84 
" clip-path="url(#p1ee75f855e)" style="fill: none; stroke: #b0b0b0; stroke-width: 0.8; stroke-linecap: square"/>
     </g>
     <g id="line2d_26">
      <g>
       <use xlink:href="#m9a6465764e" x="508.032757" y="384.48" style="stroke: #000000; stroke-width: 0.8"/>
      </g>
     </g>
     <g id="text_16">
      <!-- 0 -->
      <g transform="translate(504.851507 399.078438) scale(0.1 -0.1)">
       <use xlink:href="#DejaVuSans-30"/>
      </g>
     </g>
    </g>
    <g id="xtick_9">
     <g id="line2d_27">
      <path d="M 549.956123 384.48 
L 549.956123 51.84 
" clip-path="url(#p1ee75f855e)" style="fill: none; stroke: #b0b0b0; stroke-width: 0.8; stroke-linecap: square"/>
     </g>
     <g id="line2d_28">
      <g>
       <use xlink:href="#m9a6465764e" x="549.956123" y="384.48" style="stroke: #000000; stroke-width: 0.8"/>
      </g>
     </g>
     <g id="text_17">
      <!-- 2 -->
      <g transform="translate(546.774873 399.078438) scale(0.1 -0.1)">
       <use xlink:href="#DejaVuSans-32"/>
      </g>
     </g>
    </g>
    <g id="xtick_10">
     <g id="line2d_29">
      <path d="M 591.879489 384.48 
L 591.879489 51.84 
" clip-path="url(#p1ee75f855e)" style="fill: none; stroke: #b0b0b0; stroke-width: 0.8; stroke-linecap: square"/>
     </g>
     <g id="line2d_30">
      <g>
       <use xlink:href="#m9a6465764e" x="591.879489" y="384.48" style="stroke: #000000; stroke-width: 0.8"/>
      </g>
     </g>
     <g id="text_18">
      <!-- 4 -->
      <g transform="translate(588.698239 399.078438) scale(0.1 -0.1)">
       <use xlink:href="#DejaVuSans-34"/>
      </g>
     </g>
    </g>
    <g id="xtick_11">
     <g id="line2d_31">
      <path d="M 633.802855 384.48 
L 633.802855 51.84 
" clip-path="url(#p1ee75f855e)" style="fill: none; stroke: #b0b0b0; stroke-width: 0.8; stroke-linecap: square"/>
     </g>
     <g id="line2d_32">
      <g>
       <use xlink:href="#m9a6465764e" x="633.802855" y="384.48" style="stroke: #000000; stroke-width: 0.8"/>
      </g>
     </g>
     <g id="text_19">
      <!-- 6 -->
      <g transform="translate(630.621605 399.078438) scale(0.1 -0.1)">
       <use xlink:href="#DejaVuSans-36"/>
      </g>
     </g>
    </g>
    <g id="xtick_12">
     <g id="line2d_33">
      <path d="M 675.726221 384.48 
L 675.726221 51.84 
" clip-path="url(#p1ee75f855e)" style="fill: none; stroke: #b0b0b0; stroke-width: 0.8; stroke-linecap: square"/>
     </g>
     <g id="line2d_34">
      <g>
       <use xlink:href="#m9a6465764e" x="675.726221" y="384.48" style="stroke: #000000; stroke-width: 0.8"/>
      </g>
     </g>
     <g id="text_20">
      <!-- 8 -->
      <g transform="translate(672.544971 399.078438) scale(0.1 -0.1)">
       <use xlink:href="#DejaVuSans-38"/>
      </g>
     </g>
    </g>
    <g id="xtick_13">
     <g id="line2d_35">
      <path d="M 717.649587 384.48 
L 717.649587 51.84 
" clip-path="url(#p1ee75f855e)" style="fill: none; stroke: #b0b0b0; stroke-width: 0.8; stroke-linecap: square"/>
     </g>
     <g id="line2d_36">
      <g>
       <use xlink:href="#m9a6465764e" x="717.649587" y="384.48" style="stroke: #000000; stroke-width: 0.8"/>
      </g>
     </g>
     <g id="text_21">
      <!-- 10 -->
      <g transform="translate(711.287087 399.078438) scale(0.1 -0.1)">
       <use xlink:href="#DejaVuSans-31"/>
       <use xlink:href="#DejaVuSans-30" transform="translate(63.623047 0)"/>
      </g>
     </g>
    </g>
    <g id="xtick_14">
     <g id="line2d_37">
      <path d="M 759.572953 384.48 
L 759.572953 51.84 
" clip-path="url(#p1ee75f855e)" style="fill: none; stroke: #b0b0b0; stroke-width: 0.8; stroke-linecap: square"/>
     </g>
     <g id="line2d_38">
      <g>
       <use xlink:href="#m9a6465764e" x="759.572953" y="384.48" style="stroke: #000000; stroke-width: 0.8"/>
      </g>
     </g>
     <g id="text_22">
      <!-- 12 -->
      <g transform="translate(753.210453 399.078438) scale(0.1 -0.1)">
       <use xlink:href="#DejaVuSans-31"/>
       <use xlink:href="#DejaVuSans-32" transform="translate(63.623047 0)"/>
      </g>
     </g>
    </g>
    <g id="text_23">
     <!-- X0 -->
     <g transform="translate(618.811932 412.756563) scale(0.1 -0.1)">
      <defs>
       <path id="DejaVuSans-58" d="M 403 4666 
L 1081 4666 
L 2241 2931 
L 3406 4666 
L 4084 4666 
L 2584 2425 
L 4184 0 
L 3506 0 
L 2194 1984 
L 872 0 
L 191 0 
L 1856 2491 
L 403 4666 
z
" transform="scale(0.015625)"/>
      </defs>
      <use xlink:href="#DejaVuSans-58"/>
      <use xlink:href="#DejaVuSans-30" transform="translate(68.505859 0)"/>
     </g>
    </g>
   </g>
   <g id="matplotlib.axis_4">
    <g id="ytick_6">
     <g id="line2d_39">
      <path d="M 473.236364 369.36 
L 777.6 369.36 
" clip-path="url(#p1ee75f855e)" style="fill: none; stroke: #b0b0b0; stroke-width: 0.8; stroke-linecap: square"/>
     </g>
     <g id="line2d_40">
      <g>
       <use xlink:href="#m9e93750fd4" x="473.236364" y="369.36" style="stroke: #000000; stroke-width: 0.8"/>
      </g>
     </g>
     <g id="text_24">
      <!-- 0.00 -->
      <g transform="translate(443.970739 373.159219) scale(0.1 -0.1)">
       <defs>
        <path id="DejaVuSans-2e" d="M 684 794 
L 1344 794 
L 1344 0 
L 684 0 
L 684 794 
z
" transform="scale(0.015625)"/>
       </defs>
       <use xlink:href="#DejaVuSans-30"/>
       <use xlink:href="#DejaVuSans-2e" transform="translate(63.623047 0)"/>
       <use xlink:href="#DejaVuSans-30" transform="translate(95.410156 0)"/>
       <use xlink:href="#DejaVuSans-30" transform="translate(159.033203 0)"/>
      </g>
     </g>
    </g>
    <g id="ytick_7">
     <g id="line2d_41">
      <path d="M 473.236364 323.72776 
L 777.6 323.72776 
" clip-path="url(#p1ee75f855e)" style="fill: none; stroke: #b0b0b0; stroke-width: 0.8; stroke-linecap: square"/>
     </g>
     <g id="line2d_42">
      <g>
       <use xlink:href="#m9e93750fd4" x="473.236364" y="323.72776" style="stroke: #000000; stroke-width: 0.8"/>
      </g>
     </g>
     <g id="text_25">
      <!-- 0.05 -->
      <g transform="translate(443.970739 327.526979) scale(0.1 -0.1)">
       <defs>
        <path id="DejaVuSans-35" d="M 691 4666 
L 3169 4666 
L 3169 4134 
L 1269 4134 
L 1269 2991 
Q 1406 3038 1543 3061 
Q 1681 3084 1819 3084 
Q 2600 3084 3056 2656 
Q 3513 2228 3513 1497 
Q 3513 744 3044 326 
Q 2575 -91 1722 -91 
Q 1428 -91 1123 -41 
Q 819 9 494 109 
L 494 744 
Q 775 591 1075 516 
Q 1375 441 1709 441 
Q 2250 441 2565 725 
Q 2881 1009 2881 1497 
Q 2881 1984 2565 2268 
Q 2250 2553 1709 2553 
Q 1456 2553 1204 2497 
Q 953 2441 691 2322 
L 691 4666 
z
" transform="scale(0.015625)"/>
       </defs>
       <use xlink:href="#DejaVuSans-30"/>
       <use xlink:href="#DejaVuSans-2e" transform="translate(63.623047 0)"/>
       <use xlink:href="#DejaVuSans-30" transform="translate(95.410156 0)"/>
       <use xlink:href="#DejaVuSans-35" transform="translate(159.033203 0)"/>
      </g>
     </g>
    </g>
    <g id="ytick_8">
     <g id="line2d_43">
      <path d="M 473.236364 278.09552 
L 777.6 278.09552 
" clip-path="url(#p1ee75f855e)" style="fill: none; stroke: #b0b0b0; stroke-width: 0.8; stroke-linecap: square"/>
     </g>
     <g id="line2d_44">
      <g>
       <use xlink:href="#m9e93750fd4" x="473.236364" y="278.09552" style="stroke: #000000; stroke-width: 0.8"/>
      </g>
     </g>
     <g id="text_26">
      <!-- 0.10 -->
      <g transform="translate(443.970739 281.894739) scale(0.1 -0.1)">
       <use xlink:href="#DejaVuSans-30"/>
       <use xlink:href="#DejaVuSans-2e" transform="translate(63.623047 0)"/>
       <use xlink:href="#DejaVuSans-31" transform="translate(95.410156 0)"/>
       <use xlink:href="#DejaVuSans-30" transform="translate(159.033203 0)"/>
      </g>
     </g>
    </g>
    <g id="ytick_9">
     <g id="line2d_45">
      <path d="M 473.236364 232.46328 
L 777.6 232.46328 
" clip-path="url(#p1ee75f855e)" style="fill: none; stroke: #b0b0b0; stroke-width: 0.8; stroke-linecap: square"/>
     </g>
     <g id="line2d_46">
      <g>
       <use xlink:href="#m9e93750fd4" x="473.236364" y="232.46328" style="stroke: #000000; stroke-width: 0.8"/>
      </g>
     </g>
     <g id="text_27">
      <!-- 0.15 -->
      <g transform="translate(443.970739 236.262499) scale(0.1 -0.1)">
       <use xlink:href="#DejaVuSans-30"/>
       <use xlink:href="#DejaVuSans-2e" transform="translate(63.623047 0)"/>
       <use xlink:href="#DejaVuSans-31" transform="translate(95.410156 0)"/>
       <use xlink:href="#DejaVuSans-35" transform="translate(159.033203 0)"/>
      </g>
     </g>
    </g>
    <g id="ytick_10">
     <g id="line2d_47">
      <path d="M 473.236364 186.83104 
L 777.6 186.83104 
" clip-path="url(#p1ee75f855e)" style="fill: none; stroke: #b0b0b0; stroke-width: 0.8; stroke-linecap: square"/>
     </g>
     <g id="line2d_48">
      <g>
       <use xlink:href="#m9e93750fd4" x="473.236364" y="186.83104" style="stroke: #000000; stroke-width: 0.8"/>
      </g>
     </g>
     <g id="text_28">
      <!-- 0.20 -->
      <g transform="translate(443.970739 190.630259) scale(0.1 -0.1)">
       <use xlink:href="#DejaVuSans-30"/>
       <use xlink:href="#DejaVuSans-2e" transform="translate(63.623047 0)"/>
       <use xlink:href="#DejaVuSans-32" transform="translate(95.410156 0)"/>
       <use xlink:href="#DejaVuSans-30" transform="translate(159.033203 0)"/>
      </g>
     </g>
    </g>
    <g id="ytick_11">
     <g id="line2d_49">
      <path d="M 473.236364 141.1988 
L 777.6 141.1988 
" clip-path="url(#p1ee75f855e)" style="fill: none; stroke: #b0b0b0; stroke-width: 0.8; stroke-linecap: square"/>
     </g>
     <g id="line2d_50">
      <g>
       <use xlink:href="#m9e93750fd4" x="473.236364" y="141.1988" style="stroke: #000000; stroke-width: 0.8"/>
      </g>
     </g>
     <g id="text_29">
      <!-- 0.25 -->
      <g transform="translate(443.970739 144.998019) scale(0.1 -0.1)">
       <use xlink:href="#DejaVuSans-30"/>
       <use xlink:href="#DejaVuSans-2e" transform="translate(63.623047 0)"/>
       <use xlink:href="#DejaVuSans-32" transform="translate(95.410156 0)"/>
       <use xlink:href="#DejaVuSans-35" transform="translate(159.033203 0)"/>
      </g>
     </g>
    </g>
    <g id="ytick_12">
     <g id="line2d_51">
      <path d="M 473.236364 95.56656 
L 777.6 95.56656 
" clip-path="url(#p1ee75f855e)" style="fill: none; stroke: #b0b0b0; stroke-width: 0.8; stroke-linecap: square"/>
     </g>
     <g id="line2d_52">
      <g>
       <use xlink:href="#m9e93750fd4" x="473.236364" y="95.56656" style="stroke: #000000; stroke-width: 0.8"/>
      </g>
     </g>
     <g id="text_30">
      <!-- 0.30 -->
      <g transform="translate(443.970739 99.365779) scale(0.1 -0.1)">
       <use xlink:href="#DejaVuSans-30"/>
       <use xlink:href="#DejaVuSans-2e" transform="translate(63.623047 0)"/>
       <use xlink:href="#DejaVuSans-33" transform="translate(95.410156 0)"/>
       <use xlink:href="#DejaVuSans-30" transform="translate(159.033203 0)"/>
      </g>
     </g>
    </g>
    <g id="text_31">
     <!-- PDF -->
     <g transform="translate(437.891051 227.900625) rotate(-90) scale(0.1 -0.1)">
      <use xlink:href="#DejaVuSans-50"/>
      <use xlink:href="#DejaVuSans-44" transform="translate(60.302734 0)"/>
      <use xlink:href="#DejaVuSans-46" transform="translate(137.304688 0)"/>
     </g>
    </g>
   </g>
   <g id="line2d_53">
    <path d="M 487.071074 369.36 
L 508.032757 369.36 
L 508.032757 365.912125 
L 508.032757 369.36 
L 528.99444 369.36 
L 528.99444 347.810784 
L 528.99444 369.36 
L 549.956123 369.36 
L 549.956123 304.712352 
L 549.956123 369.36 
L 570.917806 369.36 
L 570.917806 245.452008 
L 570.917806 369.36 
L 591.879489 369.36 
L 591.879489 198.986511 
L 591.879489 369.36 
L 612.841172 369.36 
L 612.841172 190.467836 
L 612.841172 369.36 
L 633.802855 369.36 
L 633.802855 220.283197 
L 633.802855 369.36 
L 654.764538 369.36 
L 654.764538 268.200741 
L 654.764538 369.36 
L 675.726221 369.36 
L 675.726221 312.457917 
L 675.726221 369.36 
L 696.687904 369.36 
L 696.687904 342.489572 
L 696.687904 369.36 
L 717.649587 369.36 
L 717.649587 358.611829 
L 717.649587 369.36 
L 738.61127 369.36 
L 738.61127 365.695851 
L 738.61127 369.36 
L 759.572953 369.36 
L 759.572953 368.29129 
L 759.572953 369.36 
L 763.765289 369.36 
" clip-path="url(#p1ee75f855e)" style="fill: none; stroke: #1f77b4; stroke-width: 2; stroke-linecap: square"/>
   </g>
   <g id="line2d_54">
    <path d="M 495.455748 369.36 
L 508.032757 369.36 
L 508.032757 367.607976 
L 508.032757 369.36 
L 528.99444 369.36 
L 528.99444 352.640989 
L 528.99444 369.36 
L 549.956123 369.36 
L 549.956123 296.832484 
L 549.956123 369.36 
L 570.917806 369.36 
L 570.917806 188.712495 
L 570.917806 369.36 
L 591.879489 369.36 
L 591.879489 114.517527 
L 591.879489 369.36 
L 612.841172 369.36 
L 612.841172 175.996267 
L 612.841172 369.36 
L 633.802855 369.36 
L 633.802855 283.883488 
L 633.802855 369.36 
L 646.379865 369.36 
" clip-path="url(#p1ee75f855e)" style="fill: none; stroke: #ff7f0e; stroke-width: 2; stroke-linecap: square"/>
   </g>
   <g id="line2d_55">
    <path d="M 518.513599 369.36 
L 531.090609 369.36 
L 531.090609 366.234134 
L 531.090609 369.36 
L 552.052292 369.36 
L 552.052292 353.388058 
L 552.052292 369.36 
L 573.013974 369.36 
L 573.013974 314.157571 
L 573.013974 369.36 
L 593.975657 369.36 
L 593.975657 293.45666 
L 593.975657 369.36 
L 614.93734 369.36 
L 614.93734 92.98243 
L 614.93734 369.36 
L 635.899023 369.36 
L 635.899023 66.96 
L 635.899023 369.36 
L 656.860706 369.36 
L 656.860706 220.857165 
L 656.860706 369.36 
L 669.437716 369.36 
" clip-path="url(#p1ee75f855e)" style="fill: none; stroke: #2ca02c; stroke-width: 2; stroke-linecap: square"/>
   </g>
   <g id="patch_71">
    <path d="M 473.236364 384.48 
L 473.236364 51.84 
" style="fill: none; stroke: #000000; stroke-width: 0.8; stroke-linejoin: miter; stroke-linecap: square"/>
   </g>
   <g id="patch_72">
    <path d="M 473.236364 384.48 
L 777.6 384.48 
" style="fill: none; stroke: #000000; stroke-width: 0.8; stroke-linejoin: miter; stroke-linecap: square"/>
   </g>
   <g id="line2d_56">
    <path d="M 541.57145 369.36 
L 554.14846 369.36 
L 554.14846 368.581083 
L 554.14846 369.36 
L 575.110143 369.36 
L 575.110143 366.546089 
L 575.110143 369.36 
L 596.071826 369.36 
L 596.071826 361.081332 
L 596.071826 369.36 
L 617.033509 369.36 
L 617.033509 347.221975 
L 617.033509 369.36 
L 637.995192 369.36 
L 637.995192 310.955974 
L 637.995192 369.36 
L 658.956875 369.36 
L 658.956875 210.809337 
L 658.956875 369.36 
L 679.918557 369.36 
L 679.918557 280.175252 
L 679.918557 369.36 
L 692.495567 369.36 
" clip-path="url(#p1ee75f855e)" style="fill: none; stroke: #d62728; stroke-width: 2; stroke-linecap: square"/>
   </g>
   <g id="text_32">
    <!-- PDF of $X_0|X_1 = x_1$ -->
    <g transform="translate(574.418182 45.84) scale(0.12 -0.12)">
     <defs>
      <path id="DejaVuSans-66" d="M 2375 4863 
L 2375 4384 
L 1825 4384 
Q 1516 4384 1395 4259 
Q 1275 4134 1275 3809 
L 1275 3500 
L 2222 3500 
L 2222 3053 
L 1275 3053 
L 1275 0 
L 697 0 
L 697 3053 
L 147 3053 
L 147 3500 
L 697 3500 
L 697 3744 
Q 697 4328 969 4595 
Q 1241 4863 1831 4863 
L 2375 4863 
z
" transform="scale(0.015625)"/>
      <path id="DejaVuSans-7c" d="M 1344 4891 
L 1344 -1509 
L 813 -1509 
L 813 4891 
L 1344 4891 
z
" transform="scale(0.015625)"/>
      <path id="DejaVuSans-3d" d="M 678 2906 
L 4684 2906 
L 4684 2381 
L 678 2381 
L 678 2906 
z
M 678 1631 
L 4684 1631 
L 4684 1100 
L 678 1100 
L 678 1631 
z
" transform="scale(0.015625)"/>
     </defs>
     <use xlink:href="#DejaVuSans-50" transform="translate(0 0.578125)"/>
     <use xlink:href="#DejaVuSans-44" transform="translate(60.302734 0.578125)"/>
     <use xlink:href="#DejaVuSans-46" transform="translate(137.304688 0.578125)"/>
     <use xlink:href="#DejaVuSans-20" transform="translate(194.824219 0.578125)"/>
     <use xlink:href="#DejaVuSans-6f" transform="translate(226.611328 0.578125)"/>
     <use xlink:href="#DejaVuSans-66" transform="translate(287.792969 0.578125)"/>
     <use xlink:href="#DejaVuSans-20" transform="translate(322.998047 0.578125)"/>
     <use xlink:href="#DejaVuSans-Oblique-58" transform="translate(354.785156 0.578125)"/>
     <use xlink:href="#DejaVuSans-30" transform="translate(423.291016 -15.828125) scale(0.7)"/>
     <use xlink:href="#DejaVuSans-7c" transform="translate(470.561523 0.578125)"/>
     <use xlink:href="#DejaVuSans-Oblique-58" transform="translate(504.25293 0.578125)"/>
     <use xlink:href="#DejaVuSans-31" transform="translate(572.758789 -15.828125) scale(0.7)"/>
     <use xlink:href="#DejaVuSans-3d" transform="translate(639.511719 0.578125)"/>
     <use xlink:href="#DejaVuSans-Oblique-78" transform="translate(742.783203 0.578125)"/>
     <use xlink:href="#DejaVuSans-31" transform="translate(801.962891 -15.828125) scale(0.7)"/>
    </g>
   </g>
   <g id="legend_1">
    <g id="patch_73">
     <path d="M 482.236364 120.618125 
L 573.636364 120.618125 
Q 575.636364 120.618125 575.636364 118.618125 
L 575.636364 60.84 
Q 575.636364 58.84 573.636364 58.84 
L 482.236364 58.84 
Q 480.236364 58.84 480.236364 60.84 
L 480.236364 118.618125 
Q 480.236364 120.618125 482.236364 120.618125 
z
" style="fill: #4d4d4d; opacity: 0.5; stroke: #4d4d4d; stroke-linejoin: miter"/>
    </g>
    <g id="patch_74">
     <path d="M 480.236364 118.618125 
L 571.636364 118.618125 
Q 573.636364 118.618125 573.636364 116.618125 
L 573.636364 58.84 
Q 573.636364 56.84 571.636364 56.84 
L 480.236364 56.84 
Q 478.236364 56.84 478.236364 58.84 
L 478.236364 116.618125 
Q 478.236364 118.618125 480.236364 118.618125 
z
" style="fill: #ffffff; stroke: #cccccc; stroke-linejoin: miter"/>
    </g>
    <g id="line2d_57">
     <path d="M 482.236364 64.938437 
L 492.236364 64.938437 
L 502.236364 64.938437 
" style="fill: none; stroke: #1f77b4; stroke-width: 2; stroke-linecap: square"/>
    </g>
    <g id="text_33">
     <!-- dist of $X_0$ -->
     <g transform="translate(510.236364 68.438437) scale(0.1 -0.1)">
      <defs>
       <path id="DejaVuSans-64" d="M 2906 2969 
L 2906 4863 
L 3481 4863 
L 3481 0 
L 2906 0 
L 2906 525 
Q 2725 213 2448 61 
Q 2172 -91 1784 -91 
Q 1150 -91 751 415 
Q 353 922 353 1747 
Q 353 2572 751 3078 
Q 1150 3584 1784 3584 
Q 2172 3584 2448 3432 
Q 2725 3281 2906 2969 
z
M 947 1747 
Q 947 1113 1208 752 
Q 1469 391 1925 391 
Q 2381 391 2643 752 
Q 2906 1113 2906 1747 
Q 2906 2381 2643 2742 
Q 2381 3103 1925 3103 
Q 1469 3103 1208 2742 
Q 947 2381 947 1747 
z
" transform="scale(0.015625)"/>
       <path id="DejaVuSans-74" d="M 1172 4494 
L 1172 3500 
L 2356 3500 
L 2356 3053 
L 1172 3053 
L 1172 1153 
Q 1172 725 1289 603 
Q 1406 481 1766 481 
L 2356 481 
L 2356 0 
L 1766 0 
Q 1100 0 847 248 
Q 594 497 594 1153 
L 594 3053 
L 172 3053 
L 172 3500 
L 594 3500 
L 594 4494 
L 1172 4494 
z
" transform="scale(0.015625)"/>
      </defs>
      <use xlink:href="#DejaVuSans-64" transform="translate(0 0.015625)"/>
      <use xlink:href="#DejaVuSans-69" transform="translate(63.476562 0.015625)"/>
      <use xlink:href="#DejaVuSans-73" transform="translate(91.259766 0.015625)"/>
      <use xlink:href="#DejaVuSans-74" transform="translate(143.359375 0.015625)"/>
      <use xlink:href="#DejaVuSans-20" transform="translate(182.568359 0.015625)"/>
      <use xlink:href="#DejaVuSans-6f" transform="translate(214.355469 0.015625)"/>
      <use xlink:href="#DejaVuSans-66" transform="translate(275.537109 0.015625)"/>
      <use xlink:href="#DejaVuSans-20" transform="translate(310.742188 0.015625)"/>
      <use xlink:href="#DejaVuSans-Oblique-58" transform="translate(342.529297 0.015625)"/>
      <use xlink:href="#DejaVuSans-30" transform="translate(411.035156 -16.390625) scale(0.7)"/>
     </g>
    </g>
    <g id="line2d_58">
     <path d="M 482.236364 79.618125 
L 492.236364 79.618125 
L 502.236364 79.618125 
" style="fill: none; stroke: #ff7f0e; stroke-width: 2; stroke-linecap: square"/>
    </g>
    <g id="text_34">
     <!-- $x_1 = q($0.05) -->
     <g transform="translate(510.236364 83.118125) scale(0.1 -0.1)">
      <defs>
       <path id="DejaVuSans-Oblique-71" d="M 2669 525 
Q 2438 222 2123 65 
Q 1809 -91 1428 -91 
Q 897 -91 595 267 
Q 294 625 294 1253 
Q 294 1759 480 2231 
Q 666 2703 1013 3078 
Q 1238 3322 1530 3453 
Q 1822 3584 2144 3584 
Q 2531 3584 2781 3431 
Q 3031 3278 3144 2969 
L 3244 3494 
L 3822 3494 
L 2888 -1319 
L 2309 -1319 
L 2669 525 
z
M 891 1338 
Q 891 875 1084 633 
Q 1278 391 1644 391 
Q 2188 391 2572 911 
Q 2956 1431 2956 2175 
Q 2956 2625 2757 2864 
Q 2559 3103 2188 3103 
Q 1916 3103 1684 2976 
Q 1453 2850 1281 2606 
Q 1100 2350 995 2006 
Q 891 1663 891 1338 
z
" transform="scale(0.015625)"/>
      </defs>
      <use xlink:href="#DejaVuSans-Oblique-78" transform="translate(0 0.125)"/>
      <use xlink:href="#DejaVuSans-31" transform="translate(59.179688 -16.28125) scale(0.7)"/>
      <use xlink:href="#DejaVuSans-3d" transform="translate(125.932617 0.125)"/>
      <use xlink:href="#DejaVuSans-Oblique-71" transform="translate(229.204102 0.125)"/>
      <use xlink:href="#DejaVuSans-28" transform="translate(292.680664 0.125)"/>
      <use xlink:href="#DejaVuSans-30" transform="translate(331.694336 0.125)"/>
      <use xlink:href="#DejaVuSans-2e" transform="translate(395.317383 0.125)"/>
      <use xlink:href="#DejaVuSans-30" transform="translate(427.104492 0.125)"/>
      <use xlink:href="#DejaVuSans-35" transform="translate(490.727539 0.125)"/>
      <use xlink:href="#DejaVuSans-29" transform="translate(554.350586 0.125)"/>
     </g>
    </g>
    <g id="line2d_59">
     <path d="M 482.236364 94.318125 
L 492.236364 94.318125 
L 502.236364 94.318125 
" style="fill: none; stroke: #2ca02c; stroke-width: 2; stroke-linecap: square"/>
    </g>
    <g id="text_35">
     <!-- $x_1 = q($0.5) -->
     <g transform="translate(510.236364 97.818125) scale(0.1 -0.1)">
      <use xlink:href="#DejaVuSans-Oblique-78" transform="translate(0 0.125)"/>
      <use xlink:href="#DejaVuSans-31" transform="translate(59.179688 -16.28125) scale(0.7)"/>
      <use xlink:href="#DejaVuSans-3d" transform="translate(125.932617 0.125)"/>
      <use xlink:href="#DejaVuSans-Oblique-71" transform="translate(229.204102 0.125)"/>
      <use xlink:href="#DejaVuSans-28" transform="translate(292.680664 0.125)"/>
      <use xlink:href="#DejaVuSans-30" transform="translate(331.694336 0.125)"/>
      <use xlink:href="#DejaVuSans-2e" transform="translate(395.317383 0.125)"/>
      <use xlink:href="#DejaVuSans-35" transform="translate(427.104492 0.125)"/>
      <use xlink:href="#DejaVuSans-29" transform="translate(490.727539 0.125)"/>
     </g>
    </g>
    <g id="line2d_60">
     <path d="M 482.236364 109.018125 
L 492.236364 109.018125 
L 502.236364 109.018125 
" style="fill: none; stroke: #d62728; stroke-width: 2; stroke-linecap: square"/>
    </g>
    <g id="text_36">
     <!-- $x_1 = q($0.95) -->
     <g transform="translate(510.236364 112.518125) scale(0.1 -0.1)">
      <defs>
       <path id="DejaVuSans-39" d="M 703 97 
L 703 672 
Q 941 559 1184 500 
Q 1428 441 1663 441 
Q 2288 441 2617 861 
Q 2947 1281 2994 2138 
Q 2813 1869 2534 1725 
Q 2256 1581 1919 1581 
Q 1219 1581 811 2004 
Q 403 2428 403 3163 
Q 403 3881 828 4315 
Q 1253 4750 1959 4750 
Q 2769 4750 3195 4129 
Q 3622 3509 3622 2328 
Q 3622 1225 3098 567 
Q 2575 -91 1691 -91 
Q 1453 -91 1209 -44 
Q 966 3 703 97 
z
M 1959 2075 
Q 2384 2075 2632 2365 
Q 2881 2656 2881 3163 
Q 2881 3666 2632 3958 
Q 2384 4250 1959 4250 
Q 1534 4250 1286 3958 
Q 1038 3666 1038 3163 
Q 1038 2656 1286 2365 
Q 1534 2075 1959 2075 
z
" transform="scale(0.015625)"/>
      </defs>
      <use xlink:href="#DejaVuSans-Oblique-78" transform="translate(0 0.125)"/>
      <use xlink:href="#DejaVuSans-31" transform="translate(59.179688 -16.28125) scale(0.7)"/>
      <use xlink:href="#DejaVuSans-3d" transform="translate(125.932617 0.125)"/>
      <use xlink:href="#DejaVuSans-Oblique-71" transform="translate(229.204102 0.125)"/>
      <use xlink:href="#DejaVuSans-28" transform="translate(292.680664 0.125)"/>
      <use xlink:href="#DejaVuSans-30" transform="translate(331.694336 0.125)"/>
      <use xlink:href="#DejaVuSans-2e" transform="translate(395.317383 0.125)"/>
      <use xlink:href="#DejaVuSans-39" transform="translate(427.104492 0.125)"/>
      <use xlink:href="#DejaVuSans-35" transform="translate(490.727539 0.125)"/>
      <use xlink:href="#DejaVuSans-29" transform="translate(554.350586 0.125)"/>
     </g>
    </g>
   </g>
  </g>
 </g>
 <defs>
  <clipPath id="p0019475d5e">
   <rect x="108" y="51.84" width="304.363636" height="332.64"/>
  </clipPath>
  <clipPath id="p1ee75f855e">
   <rect x="473.236364" y="51.84" width="304.363636" height="332.64"/>
  </clipPath>
 </defs>
</svg>
