<?xml version="1.0" encoding="utf-8" standalone="no"?>
<!DOCTYPE svg PUBLIC "-//W3C//DTD SVG 1.1//EN"
  "http://www.w3.org/Graphics/SVG/1.1/DTD/svg11.dtd">
<svg xmlns:xlink="http://www.w3.org/1999/xlink" width="460.8pt" height="345.6pt" viewBox="0 0 460.8 345.6" xmlns="http://www.w3.org/2000/svg" version="1.1">
 <metadata>
  <rdf:RDF xmlns:dc="http://purl.org/dc/elements/1.1/" xmlns:cc="http://creativecommons.org/ns#" xmlns:rdf="http://www.w3.org/1999/02/22-rdf-syntax-ns#">
   <cc:Work>
    <dc:type rdf:resource="http://purl.org/dc/dcmitype/StillImage"/>
    <dc:date>2022-01-01T00:00:00+00:00</dc:date>
    <dc:format>image/svg+xml</dc:format>
    <dc:creator>
     <cc:Agent>
      <dc:title>Matplotlib v3.10.8, https://matplotlib.org/</dc:title>
     </cc:Agent>
    </dc:creator>
   </cc:Work>
  </rdf:RDF>
 </metadata>
 <defs>
  <style type="text/css">*{stroke-linejoin: round; stroke-linecap: butt}</style>
 </defs>
 <g id="figure_1">
  <g id="patch_1">
   <path d="M 0 345.6 
L 460.8 345.6 
L 460.8 0 
L 0 0 
z
" style="fill: #ffffff"/>
  </g>
  <g id="axes_1">
   <g id="patch_2">
    <path d="M 57.6 307.584 
L 414.72 307.584 
L 414.72 41.472 
L 57.6 41.472 
z
" style="fill: #ffffff"/>
   </g>
   <g id="matplotlib.axis_1">
    <g id="xtick_1">
     <g id="line2d_1">
      <path d="M 62.435768 307.584 
L 62.435768 41.472 
" clip-path="url(#pc61038b96e)" style="fill: none; stroke: #b0b0b0; stroke-width: 0.8; stroke-linecap: square"/>
     </g>
     <g id="line2d_2">
      <defs>
       <path id="m8fa5969282" d="M 0 0 
L 0 3.5 
" style="stroke: #000000; stroke-width: 0.8"/>
      </defs>
      <g>
       <use xlink:href="#m8fa5969282" x="62.435768" y="307.584" style="stroke: #000000; stroke-width: 0.8"/>
      </g>
     </g>
     <g id="text_1">
      <!-- −0.50 -->
      <g transform="translate(47.113112 322.182437) scale(0.1 -0.1)">
       <defs>
        <path id="DejaVuSans-2212" d="M 678 2272 
L 4684 2272 
L 4684 1741 
L 678 1741 
L 678 2272 
z
" transform="scale(0.015625)"/>
        <path id="DejaVuSans-30" d="M 2034 4250 
Q 1547 4250 1301 3770 
Q 1056 3291 1056 2328 
Q 1056 1369 1301 889 
Q 1547 409 2034 409 
Q 2525 409 2770 889 
Q 3016 1369 3016 2328 
Q 3016 3291 2770 3770 
Q 2525 4250 2034 4250 
z
M 2034 4750 
Q 2819 4750 3233 4129 
Q 3647 3509 3647 2328 
Q 3647 1150 3233 529 
Q 2819 -91 2034 -91 
Q 1250 -91 836 529 
Q 422 1150 422 2328 
Q 422 3509 836 4129 
Q 1250 4750 2034 4750 
z
" transform="scale(0.015625)"/>
        <path id="DejaVuSans-2e" d="M 684 794 
L 1344 794 
L 1344 0 
L 684 0 
L 684 794 
z
" transform="scale(0.015625)"/>
        <path id="DejaVuSans-35" d="M 691 4666 
L 3169 4666 
L 3169 4134 
L 1269 4134 
L 1269 2991 
Q 1406 3038 1543 3061 
Q 1681 3084 1819 3084 
Q 2600 3084 3056 2656 
Q 3513 2228 3513 1497 
Q 3513 744 3044 326 
Q 2575 -91 1722 -91 
Q 1428 -91 1123 -41 
Q 819 9 494 109 
L 494 744 
Q 775 591 1075 516 
Q 1375 441 1709 441 
Q 2250 441 2565 725 
Q 2881 1009 2881 1497 
Q 2881 1984 2565 2268 
Q 2250 2553 1709 2553 
Q 1456 2553 1204 2497 
Q 953 2441 691 2322 
L 691 4666 
z
" transform="scale(0.015625)"/>
       </defs>
       <use xlink:href="#DejaVuSans-2212"/>
       <use xlink:href="#DejaVuSans-30" transform="translate(83.789062 0)"/>
       <use xlink:href="#DejaVuSans-2e" transform="translate(147.412109 0)"/>
       <use xlink:href="#DejaVuSans-35" transform="translate(179.199219 0)"/>
       <use xlink:href="#DejaVuSans-30" transform="translate(242.822266 0)"/>
      </g>
     </g>
    </g>
    <g id="xtick_2">
     <g id="line2d_3">
      <path d="M 105.255983 307.584 
L 105.255983 41.472 
" clip-path="url(#pc61038b96e)" style="fill: none; stroke: #b0b0b0; stroke-width: 0.8; stroke-linecap: square"/>
     </g>
     <g id="line2d_4">
      <g>
       <use xlink:href="#m8fa5969282" x="105.255983" y="307.584" style="stroke: #000000; stroke-width: 0.8"/>
      </g>
     </g>
     <g id="text_2">
      <!-- −0.25 -->
      <g transform="translate(89.933327 322.182437) scale(0.1 -0.1)">
       <defs>
        <path id="DejaVuSans-32" d="M 1228 531 
L 3431 531 
L 3431 0 
L 469 0 
L 469 531 
Q 828 903 1448 1529 
Q 2069 2156 2228 2338 
Q 2531 2678 2651 2914 
Q 2772 3150 2772 3378 
Q 2772 3750 2511 3984 
Q 2250 4219 1831 4219 
Q 1534 4219 1204 4116 
Q 875 4013 500 3803 
L 500 4441 
Q 881 4594 1212 4672 
Q 1544 4750 1819 4750 
Q 2544 4750 2975 4387 
Q 3406 4025 3406 3419 
Q 3406 3131 3298 2873 
Q 3191 2616 2906 2266 
Q 2828 2175 2409 1742 
Q 1991 1309 1228 531 
z
" transform="scale(0.015625)"/>
       </defs>
       <use xlink:href="#DejaVuSans-2212"/>
       <use xlink:href="#DejaVuSans-30" transform="translate(83.789062 0)"/>
       <use xlink:href="#DejaVuSans-2e" transform="translate(147.412109 0)"/>
       <use xlink:href="#DejaVuSans-32" transform="translate(179.199219 0)"/>
       <use xlink:href="#DejaVuSans-35" transform="translate(242.822266 0)"/>
      </g>
     </g>
    </g>
    <g id="xtick_3">
     <g id="line2d_5">
      <path d="M 148.076198 307.584 
L 148.076198 41.472 
" clip-path="url(#pc61038b96e)" style="fill: none; stroke: #b0b0b0; stroke-width: 0.8; stroke-linecap: square"/>
     </g>
     <g id="line2d_6">
      <g>
       <use xlink:href="#m8fa5969282" x="148.076198" y="307.584" style="stroke: #000000; stroke-width: 0.8"/>
      </g>
     </g>
     <g id="text_3">
      <!-- 0.00 -->
      <g transform="translate(136.943386 322.182437) scale(0.1 -0.1)">
       <use xlink:href="#DejaVuSans-30"/>
       <use xlink:href="#DejaVuSans-2e" transform="translate(63.623047 0)"/>
       <use xlink:href="#DejaVuSans-30" transform="translate(95.410156 0)"/>
       <use xlink:href="#DejaVuSans-30" transform="translate(159.033203 0)"/>
      </g>
     </g>
    </g>
    <g id="xtick_4">
     <g id="line2d_7">
      <path d="M 190.896413 307.584 
L 190.896413 41.472 
" clip-path="url(#pc61038b96e)" style="fill: none; stroke: #b0b0b0; stroke-width: 0.8; stroke-linecap: square"/>
     </g>
     <g id="line2d_8">
      <g>
       <use xlink:href="#m8fa5969282" x="190.896413" y="307.584" style="stroke: #000000; stroke-width: 0.8"/>
      </g>
     </g>
     <g id="text_4">
      <!-- 0.25 -->
      <g transform="translate(179.763601 322.182437) scale(0.1 -0.1)">
       <use xlink:href="#DejaVuSans-30"/>
       <use xlink:href="#DejaVuSans-2e" transform="translate(63.623047 0)"/>
       <use xlink:href="#DejaVuSans-32" transform="translate(95.410156 0)"/>
       <use xlink:href="#DejaVuSans-35" transform="translate(159.033203 0)"/>
      </g>
     </g>
    </g>
    <g id="xtick_5">
     <g id="line2d_9">
      <path d="M 233.716628 307.584 
L 233.716628 41.472 
" clip-path="url(#pc61038b96e)" style="fill: none; stroke: #b0b0b0; stroke-width: 0.8; stroke-linecap: square"/>
     </g>
     <g id="line2d_10">
      <g>
       <use xlink:href="#m8fa5969282" x="233.716628" y="307.584" style="stroke: #000000; stroke-width: 0.8"/>
      </g>
     </g>
     <g id="text_5">
      <!-- 0.50 -->
      <g transform="translate(222.583816 322.182437) scale(0.1 -0.1)">
       <use xlink:href="#DejaVuSans-30"/>
       <use xlink:href="#DejaVuSans-2e" transform="translate(63.623047 0)"/>
       <use xlink:href="#DejaVuSans-35" transform="translate(95.410156 0)"/>
       <use xlink:href="#DejaVuSans-30" transform="translate(159.033203 0)"/>
      </g>
     </g>
    </g>
    <g id="xtick_6">
     <g id="line2d_11">
      <path d="M 276.536844 307.584 
L 276.536844 41.472 
" clip-path="url(#pc61038b96e)" style="fill: none; stroke: #b0b0b0; stroke-width: 0.8; stroke-linecap: square"/>
     </g>
     <g id="line2d_12">
      <g>
       <use xlink:href="#m8fa5969282" x="276.536844" y="307.584" style="stroke: #000000; stroke-width: 0.8"/>
      </g>
     </g>
     <g id="text_6">
      <!-- 0.75 -->
      <g transform="translate(265.404031 322.182437) scale(0.1 -0.1)">
       <defs>
        <path id="DejaVuSans-37" d="M 525 4666 
L 3525 4666 
L 3525 4397 
L 1831 0 
L 1172 0 
L 2766 4134 
L 525 4134 
L 525 4666 
z
" transform="scale(0.015625)"/>
       </defs>
       <use xlink:href="#DejaVuSans-30"/>
       <use xlink:href="#DejaVuSans-2e" transform="translate(63.623047 0)"/>
       <use xlink:href="#DejaVuSans-37" transform="translate(95.410156 0)"/>
       <use xlink:href="#DejaVuSans-35" transform="translate(159.033203 0)"/>
      </g>
     </g>
    </g>
    <g id="xtick_7">
     <g id="line2d_13">
      <path d="M 319.357059 307.584 
L 319.357059 41.472 
" clip-path="url(#pc61038b96e)" style="fill: none; stroke: #b0b0b0; stroke-width: 0.8; stroke-linecap: square"/>
     </g>
     <g id="line2d_14">
      <g>
       <use xlink:href="#m8fa5969282" x="319.357059" y="307.584" style="stroke: #000000; stroke-width: 0.8"/>
      </g>
     </g>
     <g id="text_7">
      <!-- 1.00 -->
      <g transform="translate(308.224246 322.182437) scale(0.1 -0.1)">
       <defs>
        <path id="DejaVuSans-31" d="M 794 531 
L 1825 531 
L 1825 4091 
L 703 3866 
L 703 4441 
L 1819 4666 
L 2450 4666 
L 2450 531 
L 3481 531 
L 3481 0 
L 794 0 
L 794 531 
z
" transform="scale(0.015625)"/>
       </defs>
       <use xlink:href="#DejaVuSans-31"/>
       <use xlink:href="#DejaVuSans-2e" transform="translate(63.623047 0)"/>
       <use xlink:href="#DejaVuSans-30" transform="translate(95.410156 0)"/>
       <use xlink:href="#DejaVuSans-30" transform="translate(159.033203 0)"/>
      </g>
     </g>
    </g>
    <g id="xtick_8">
     <g id="line2d_15">
      <path d="M 362.177274 307.584 
L 362.177274 41.472 
" clip-path="url(#pc61038b96e)" style="fill: none; stroke: #b0b0b0; stroke-width: 0.8; stroke-linecap: square"/>
     </g>
     <g id="line2d_16">
      <g>
       <use xlink:href="#m8fa5969282" x="362.177274" y="307.584" style="stroke: #000000; stroke-width: 0.8"/>
      </g>
     </g>
     <g id="text_8">
      <!-- 1.25 -->
      <g transform="translate(351.044461 322.182437) scale(0.1 -0.1)">
       <use xlink:href="#DejaVuSans-31"/>
       <use xlink:href="#DejaVuSans-2e" transform="translate(63.623047 0)"/>
       <use xlink:href="#DejaVuSans-32" transform="translate(95.410156 0)"/>
       <use xlink:href="#DejaVuSans-35" transform="translate(159.033203 0)"/>
      </g>
     </g>
    </g>
    <g id="xtick_9">
     <g id="line2d_17">
      <path d="M 404.997489 307.584 
L 404.997489 41.472 
" clip-path="url(#pc61038b96e)" style="fill: none; stroke: #b0b0b0; stroke-width: 0.8; stroke-linecap: square"/>
     </g>
     <g id="line2d_18">
      <g>
       <use xlink:href="#m8fa5969282" x="404.997489" y="307.584" style="stroke: #000000; stroke-width: 0.8"/>
      </g>
     </g>
     <g id="text_9">
      <!-- 1.50 -->
      <g transform="translate(393.864676 322.182437) scale(0.1 -0.1)">
       <use xlink:href="#DejaVuSans-31"/>
       <use xlink:href="#DejaVuSans-2e" transform="translate(63.623047 0)"/>
       <use xlink:href="#DejaVuSans-35" transform="translate(95.410156 0)"/>
       <use xlink:href="#DejaVuSans-30" transform="translate(159.033203 0)"/>
      </g>
     </g>
    </g>
    <g id="text_10">
     <!-- X0 -->
     <g transform="translate(229.55375 335.860562) scale(0.1 -0.1)">
      <defs>
       <path id="DejaVuSans-58" d="M 403 4666 
L 1081 4666 
L 2241 2931 
L 3406 4666 
L 4084 4666 
L 2584 2425 
L 4184 0 
L 3506 0 
L 2194 1984 
L 872 0 
L 191 0 
L 1856 2491 
L 403 4666 
z
" transform="scale(0.015625)"/>
      </defs>
      <use xlink:href="#DejaVuSans-58"/>
      <use xlink:href="#DejaVuSans-30" transform="translate(68.505859 0)"/>
     </g>
    </g>
   </g>
   <g id="matplotlib.axis_2">
    <g id="ytick_1">
     <g id="line2d_19">
      <path d="M 57.6 295.488 
L 414.72 295.488 
" clip-path="url(#pc61038b96e)" style="fill: none; stroke: #b0b0b0; stroke-width: 0.8; stroke-linecap: square"/>
     </g>
     <g id="line2d_20">
      <defs>
       <path id="m443eb9dcc5" d="M 0 0 
L -3.5 0 
" style="stroke: #000000; stroke-width: 0.8"/>
      </defs>
      <g>
       <use xlink:href="#m443eb9dcc5" x="57.6" y="295.488" style="stroke: #000000; stroke-width: 0.8"/>
      </g>
     </g>
     <g id="text_11">
      <!-- 0.0 -->
      <g transform="translate(34.696875 299.287219) scale(0.1 -0.1)">
       <use xlink:href="#DejaVuSans-30"/>
       <use xlink:href="#DejaVuSans-2e" transform="translate(63.623047 0)"/>
       <use xlink:href="#DejaVuSans-30" transform="translate(95.410156 0)"/>
      </g>
     </g>
    </g>
    <g id="ytick_2">
     <g id="line2d_21">
      <path d="M 57.6 247.104 
L 414.72 247.104 
" clip-path="url(#pc61038b96e)" style="fill: none; stroke: #b0b0b0; stroke-width: 0.8; stroke-linecap: square"/>
     </g>
     <g id="line2d_22">
      <g>
       <use xlink:href="#m443eb9dcc5" x="57.6" y="247.104" style="stroke: #000000; stroke-width: 0.8"/>
      </g>
     </g>
     <g id="text_12">
      <!-- 0.2 -->
      <g transform="translate(34.696875 250.903219) scale(0.1 -0.1)">
       <use xlink:href="#DejaVuSans-30"/>
       <use xlink:href="#DejaVuSans-2e" transform="translate(63.623047 0)"/>
       <use xlink:href="#DejaVuSans-32" transform="translate(95.410156 0)"/>
      </g>
     </g>
    </g>
    <g id="ytick_3">
     <g id="line2d_23">
      <path d="M 57.6 198.72 
L 414.72 198.72 
" clip-path="url(#pc61038b96e)" style="fill: none; stroke: #b0b0b0; stroke-width: 0.8; stroke-linecap: square"/>
     </g>
     <g id="line2d_24">
      <g>
       <use xlink:href="#m443eb9dcc5" x="57.6" y="198.72" style="stroke: #000000; stroke-width: 0.8"/>
      </g>
     </g>
     <g id="text_13">
      <!-- 0.4 -->
      <g transform="translate(34.696875 202.519219) scale(0.1 -0.1)">
       <defs>
        <path id="DejaVuSans-34" d="M 2419 4116 
L 825 1625 
L 2419 1625 
L 2419 4116 
z
M 2253 4666 
L 3047 4666 
L 3047 1625 
L 3713 1625 
L 3713 1100 
L 3047 1100 
L 3047 0 
L 2419 0 
L 2419 1100 
L 313 1100 
L 313 1709 
L 2253 4666 
z
" transform="scale(0.015625)"/>
       </defs>
       <use xlink:href="#DejaVuSans-30"/>
       <use xlink:href="#DejaVuSans-2e" transform="translate(63.623047 0)"/>
       <use xlink:href="#DejaVuSans-34" transform="translate(95.410156 0)"/>
      </g>
     </g>
    </g>
    <g id="ytick_4">
     <g id="line2d_25">
      <path d="M 57.6 150.336 
L 414.72 150.336 
" clip-path="url(#pc61038b96e)" style="fill: none; stroke: #b0b0b0; stroke-width: 0.8; stroke-linecap: square"/>
     </g>
     <g id="line2d_26">
      <g>
       <use xlink:href="#m443eb9dcc5" x="57.6" y="150.336" style="stroke: #000000; stroke-width: 0.8"/>
      </g>
     </g>
     <g id="text_14">
      <!-- 0.6 -->
      <g transform="translate(34.696875 154.135219) scale(0.1 -0.1)">
       <defs>
        <path id="DejaVuSans-36" d="M 2113 2584 
Q 1688 2584 1439 2293 
Q 1191 2003 1191 1497 
Q 1191 994 1439 701 
Q 1688 409 2113 409 
Q 2538 409 2786 701 
Q 3034 994 3034 1497 
Q 3034 2003 2786 2293 
Q 2538 2584 2113 2584 
z
M 3366 4563 
L 3366 3988 
Q 3128 4100 2886 4159 
Q 2644 4219 2406 4219 
Q 1781 4219 1451 3797 
Q 1122 3375 1075 2522 
Q 1259 2794 1537 2939 
Q 1816 3084 2150 3084 
Q 2853 3084 3261 2657 
Q 3669 2231 3669 1497 
Q 3669 778 3244 343 
Q 2819 -91 2113 -91 
Q 1303 -91 875 529 
Q 447 1150 447 2328 
Q 447 3434 972 4092 
Q 1497 4750 2381 4750 
Q 2619 4750 2861 4703 
Q 3103 4656 3366 4563 
z
" transform="scale(0.015625)"/>
       </defs>
       <use xlink:href="#DejaVuSans-30"/>
       <use xlink:href="#DejaVuSans-2e" transform="translate(63.623047 0)"/>
       <use xlink:href="#DejaVuSans-36" transform="translate(95.410156 0)"/>
      </g>
     </g>
    </g>
    <g id="ytick_5">
     <g id="line2d_27">
      <path d="M 57.6 101.952 
L 414.72 101.952 
" clip-path="url(#pc61038b96e)" style="fill: none; stroke: #b0b0b0; stroke-width: 0.8; stroke-linecap: square"/>
     </g>
     <g id="line2d_28">
      <g>
       <use xlink:href="#m443eb9dcc5" x="57.6" y="101.952" style="stroke: #000000; stroke-width: 0.8"/>
      </g>
     </g>
     <g id="text_15">
      <!-- 0.8 -->
      <g transform="translate(34.696875 105.751219) scale(0.1 -0.1)">
       <defs>
        <path id="DejaVuSans-38" d="M 2034 2216 
Q 1584 2216 1326 1975 
Q 1069 1734 1069 1313 
Q 1069 891 1326 650 
Q 1584 409 2034 409 
Q 2484 409 2743 651 
Q 3003 894 3003 1313 
Q 3003 1734 2745 1975 
Q 2488 2216 2034 2216 
z
M 1403 2484 
Q 997 2584 770 2862 
Q 544 3141 544 3541 
Q 544 4100 942 4425 
Q 1341 4750 2034 4750 
Q 2731 4750 3128 4425 
Q 3525 4100 3525 3541 
Q 3525 3141 3298 2862 
Q 3072 2584 2669 2484 
Q 3125 2378 3379 2068 
Q 3634 1759 3634 1313 
Q 3634 634 3220 271 
Q 2806 -91 2034 -91 
Q 1263 -91 848 271 
Q 434 634 434 1313 
Q 434 1759 690 2068 
Q 947 2378 1403 2484 
z
M 1172 3481 
Q 1172 3119 1398 2916 
Q 1625 2713 2034 2713 
Q 2441 2713 2670 2916 
Q 2900 3119 2900 3481 
Q 2900 3844 2670 4047 
Q 2441 4250 2034 4250 
Q 1625 4250 1398 4047 
Q 1172 3844 1172 3481 
z
" transform="scale(0.015625)"/>
       </defs>
       <use xlink:href="#DejaVuSans-30"/>
       <use xlink:href="#DejaVuSans-2e" transform="translate(63.623047 0)"/>
       <use xlink:href="#DejaVuSans-38" transform="translate(95.410156 0)"/>
      </g>
     </g>
    </g>
    <g id="ytick_6">
     <g id="line2d_29">
      <path d="M 57.6 53.568 
L 414.72 53.568 
" clip-path="url(#pc61038b96e)" style="fill: none; stroke: #b0b0b0; stroke-width: 0.8; stroke-linecap: square"/>
     </g>
     <g id="line2d_30">
      <g>
       <use xlink:href="#m443eb9dcc5" x="57.6" y="53.568" style="stroke: #000000; stroke-width: 0.8"/>
      </g>
     </g>
     <g id="text_16">
      <!-- 1.0 -->
      <g transform="translate(34.696875 57.367219) scale(0.1 -0.1)">
       <use xlink:href="#DejaVuSans-31"/>
       <use xlink:href="#DejaVuSans-2e" transform="translate(63.623047 0)"/>
       <use xlink:href="#DejaVuSans-30" transform="translate(95.410156 0)"/>
      </g>
     </g>
    </g>
    <g id="text_17">
     <!-- CDF -->
     <g transform="translate(28.617188 184.745187) rotate(-90) scale(0.1 -0.1)">
      <defs>
       <path id="DejaVuSans-43" d="M 4122 4306 
L 4122 3641 
Q 3803 3938 3442 4084 
Q 3081 4231 2675 4231 
Q 1875 4231 1450 3742 
Q 1025 3253 1025 2328 
Q 1025 1406 1450 917 
Q 1875 428 2675 428 
Q 3081 428 3442 575 
Q 3803 722 4122 1019 
L 4122 359 
Q 3791 134 3420 21 
Q 3050 -91 2638 -91 
Q 1578 -91 968 557 
Q 359 1206 359 2328 
Q 359 3453 968 4101 
Q 1578 4750 2638 4750 
Q 3056 4750 3426 4639 
Q 3797 4528 4122 4306 
z
" transform="scale(0.015625)"/>
       <path id="DejaVuSans-44" d="M 1259 4147 
L 1259 519 
L 2022 519 
Q 2988 519 3436 956 
Q 3884 1394 3884 2338 
Q 3884 3275 3436 3711 
Q 2988 4147 2022 4147 
L 1259 4147 
z
M 628 4666 
L 1925 4666 
Q 3281 4666 3915 4102 
Q 4550 3538 4550 2338 
Q 4550 1131 3912 565 
Q 3275 0 1925 0 
L 628 0 
L 628 4666 
z
" transform="scale(0.015625)"/>
       <path id="DejaVuSans-46" d="M 628 4666 
L 3309 4666 
L 3309 4134 
L 1259 4134 
L 1259 2759 
L 3109 2759 
L 3109 2228 
L 1259 2228 
L 1259 0 
L 628 0 
L 628 4666 
z
" transform="scale(0.015625)"/>
      </defs>
      <use xlink:href="#DejaVuSans-43"/>
      <use xlink:href="#DejaVuSans-44" transform="translate(69.824219 0)"/>
      <use xlink:href="#DejaVuSans-46" transform="translate(146.826172 0)"/>
     </g>
    </g>
   </g>
   <g id="line2d_31">
    <path d="M 73.832727 295.488 
L 150.246171 295.488 
L 150.246171 295.24608 
L 151.610634 295.24608 
L 151.610634 295.00416 
L 151.793885 295.00416 
L 151.793885 294.76224 
L 152.097498 294.76224 
L 152.097498 294.52032 
L 153.211511 294.52032 
L 153.211511 294.2784 
L 153.331797 294.2784 
L 153.331797 294.03648 
L 153.481346 294.03648 
L 153.515073 293.55264 
L 154.270504 293.55264 
L 154.270504 293.31072 
L 155.804002 293.31072 
L 155.816506 292.82688 
L 157.800696 292.82688 
L 157.800696 292.58496 
L 157.923164 292.58496 
L 157.923164 292.34304 
L 158.499757 292.34304 
L 158.499757 292.10112 
L 158.806874 292.10112 
L 158.806874 291.8592 
L 159.880643 291.8592 
L 159.880643 291.61728 
L 160.569585 291.61728 
L 160.569585 291.37536 
L 161.184586 291.37536 
L 161.184586 291.13344 
L 161.517262 291.13344 
L 161.517262 290.89152 
L 162.028229 290.89152 
L 162.028229 290.6496 
L 162.774796 290.6496 
L 162.774796 290.40768 
L 163.207293 290.40768 
L 163.207293 290.16576 
L 163.434845 290.16576 
L 163.476449 289.68192 
L 164.184003 289.68192 
L 164.184003 289.44 
L 164.425007 289.44 
L 164.480428 288.95616 
L 164.896365 288.95616 
L 164.896365 288.71424 
L 166.061244 288.71424 
L 166.061244 288.47232 
L 166.446585 288.47232 
L 166.446585 288.2304 
L 166.940291 288.2304 
L 166.940291 287.98848 
L 167.439352 287.98848 
L 167.439352 287.74656 
L 167.588363 287.74656 
L 167.588363 287.50464 
L 167.88057 287.50464 
L 167.88057 287.26272 
L 168.532838 287.26272 
L 168.532838 287.0208 
L 168.813603 287.0208 
L 168.813603 286.77888 
L 168.955225 286.77888 
L 168.955225 286.53696 
L 169.619611 286.53696 
L 169.619611 286.29504 
L 169.743239 286.29504 
L 169.743239 286.05312 
L 170.237431 286.05312 
L 170.338737 285.56928 
L 170.420961 285.56928 
L 170.468586 285.08544 
L 170.572219 285.08544 
L 170.572219 284.84352 
L 170.77538 284.84352 
L 170.77538 284.6016 
L 171.30307 284.6016 
L 171.30307 284.35968 
L 171.491453 284.35968 
L 171.491453 284.11776 
L 171.620221 284.11776 
L 171.620221 283.87584 
L 172.015142 283.87584 
L 172.015142 283.63392 
L 172.160356 283.63392 
L 172.160356 283.392 
L 172.461069 283.392 
L 172.461069 283.15008 
L 172.628028 283.15008 
L 172.628028 282.90816 
L 172.877186 282.90816 
L 172.92717 282.42432 
L 173.273761 282.42432 
L 173.273761 282.1824 
L 173.751459 282.1824 
L 173.811181 281.69856 
L 173.902559 281.69856 
L 173.990552 281.21472 
L 174.212937 281.21472 
L 174.212937 280.9728 
L 174.571227 280.9728 
L 174.598199 280.48896 
L 175.000198 280.48896 
L 175.000198 280.24704 
L 175.138879 280.24704 
L 175.138879 280.00512 
L 175.409685 280.00512 
L 175.409685 279.7632 
L 175.615196 279.7632 
L 175.615196 279.52128 
L 176.979749 279.52128 
L 176.979749 279.27936 
L 177.346086 279.27936 
L 177.346086 279.03744 
L 177.865195 279.03744 
L 177.865195 278.79552 
L 178.237988 278.79552 
L 178.265139 278.06976 
L 178.41022 278.06976 
L 178.502397 277.58592 
L 178.589761 277.58592 
L 178.670224 277.10208 
L 179.156379 277.10208 
L 179.156379 276.86016 
L 179.928347 276.86016 
L 179.928347 276.61824 
L 180.079599 276.61824 
L 180.120177 276.1344 
L 180.242343 276.1344 
L 180.242343 275.89248 
L 180.568973 275.89248 
L 180.568973 275.65056 
L 180.992488 275.65056 
L 181.027412 275.16672 
L 181.226791 275.16672 
L 181.312911 274.19904 
L 181.611879 274.19904 
L 181.611879 273.95712 
L 181.886345 273.95712 
L 181.993935 273.47328 
L 182.02434 273.47328 
L 182.120851 272.98944 
L 182.173449 272.98944 
L 182.173449 272.74752 
L 182.825293 272.74752 
L 182.825293 272.5056 
L 183.327709 272.5056 
L 183.327709 272.26368 
L 183.571689 272.26368 
L 183.660807 271.53792 
L 183.938597 271.53792 
L 183.938597 271.296 
L 184.228363 271.296 
L 184.310841 270.81216 
L 184.421084 270.81216 
L 184.501594 270.32832 
L 184.596425 270.32832 
L 184.610114 269.84448 
L 184.78399 269.84448 
L 184.808115 269.11872 
L 185.125037 269.11872 
L 185.232376 268.63488 
L 185.453883 268.63488 
L 185.453883 268.39296 
L 185.641407 268.39296 
L 185.641407 268.15104 
L 186.027344 268.15104 
L 186.087532 267.6672 
L 186.206958 267.6672 
L 186.206958 267.42528 
L 186.540203 267.42528 
L 186.567126 266.69952 
L 186.768736 266.69952 
L 186.768736 266.4576 
L 187.025772 266.4576 
L 187.025772 266.21568 
L 187.149187 266.21568 
L 187.149994 265.73184 
L 187.531258 265.73184 
L 187.607195 265.248 
L 187.934421 265.248 
L 187.934421 265.00608 
L 188.093135 265.00608 
L 188.147783 264.0384 
L 188.289965 264.0384 
L 188.365898 263.55456 
L 188.444047 263.55456 
L 188.466225 263.07072 
L 188.592447 263.07072 
L 188.592447 262.8288 
L 188.726329 262.8288 
L 188.820183 262.34496 
L 189.250637 262.34496 
L 189.250637 262.10304 
L 189.395725 262.10304 
L 189.395725 261.86112 
L 189.666879 261.86112 
L 189.773346 260.89344 
L 189.779601 260.89344 
L 189.887437 260.4096 
L 190.042442 260.4096 
L 190.042442 260.16768 
L 190.337885 260.16768 
L 190.431148 259.68384 
L 190.666466 259.68384 
L 190.666466 259.44192 
L 191.069091 259.44192 
L 191.093475 258.95808 
L 192.012608 258.95808 
L 192.012608 258.71616 
L 192.349112 258.71616 
L 192.361875 258.23232 
L 192.790217 258.23232 
L 192.790217 257.9904 
L 192.994468 257.9904 
L 192.994468 257.74848 
L 193.217875 257.74848 
L 193.217875 257.50656 
L 193.739642 257.50656 
L 193.739642 257.26464 
L 193.964595 257.26464 
L 194.068244 256.7808 
L 194.092649 256.7808 
L 194.195392 256.29696 
L 194.35584 256.29696 
L 194.405401 255.81312 
L 194.531852 255.81312 
L 194.599584 255.08736 
L 194.737844 255.08736 
L 194.737844 254.84544 
L 195.032237 254.84544 
L 195.098507 254.3616 
L 195.355396 254.3616 
L 195.355396 254.11968 
L 195.484645 254.11968 
L 195.484645 253.87776 
L 195.789387 253.87776 
L 195.789387 253.63584 
L 196.06965 253.63584 
L 196.170101 252.91008 
L 196.264603 252.91008 
L 196.362884 252.42624 
L 196.425569 252.42624 
L 196.425569 252.18432 
L 196.699149 252.18432 
L 196.787333 251.21664 
L 196.836859 251.21664 
L 196.836859 250.97472 
L 197.062117 250.97472 
L 197.146517 250.49088 
L 197.190851 250.49088 
L 197.278172 250.00704 
L 197.356284 250.00704 
L 197.399124 249.28128 
L 197.505567 249.28128 
L 197.505567 249.03936 
L 197.717647 249.03936 
L 197.717647 248.79744 
L 197.857226 248.79744 
L 197.857226 248.55552 
L 198.237995 248.55552 
L 198.237995 248.3136 
L 198.467386 248.3136 
L 198.467386 248.07168 
L 198.587637 248.07168 
L 198.587637 247.82976 
L 198.709028 247.82976 
L 198.709028 247.58784 
L 199.067645 247.58784 
L 199.167476 247.104 
L 199.231158 247.104 
L 199.299407 246.62016 
L 199.372413 246.62016 
L 199.400432 246.13632 
L 199.652361 246.13632 
L 199.749648 245.41056 
L 199.826731 245.41056 
L 199.826731 245.16864 
L 200.206339 245.16864 
L 200.206339 244.92672 
L 200.474446 244.92672 
L 200.474446 244.6848 
L 200.62563 244.6848 
L 200.657794 243.95904 
L 200.905639 243.95904 
L 200.985464 243.23328 
L 201.257294 243.23328 
L 201.308026 242.50752 
L 201.411776 242.50752 
L 201.519661 242.02368 
L 201.7307 242.02368 
L 201.7307 241.78176 
L 201.983169 241.78176 
L 202.057521 241.29792 
L 202.20268 241.29792 
L 202.20268 241.056 
L 202.557732 241.056 
L 202.631605 240.57216 
L 202.729008 240.57216 
L 202.746393 239.8464 
L 202.899743 239.8464 
L 202.968929 239.36256 
L 203.29404 239.36256 
L 203.396043 238.87872 
L 203.462688 238.87872 
L 203.462688 238.6368 
L 203.58835 238.6368 
L 203.58835 238.39488 
L 203.86917 238.39488 
L 203.86917 238.15296 
L 204.128425 238.15296 
L 204.14523 237.66912 
L 204.339578 237.66912 
L 204.386829 236.94336 
L 204.776049 236.94336 
L 204.776049 236.70144 
L 205.006069 236.70144 
L 205.084022 235.97568 
L 205.123983 235.97568 
L 205.123983 235.73376 
L 205.374483 235.73376 
L 205.481886 235.24992 
L 205.621763 235.24992 
L 205.621763 235.008 
L 205.849729 235.008 
L 205.849729 234.76608 
L 206.081977 234.76608 
L 206.164269 234.28224 
L 206.347494 234.28224 
L 206.347494 234.04032 
L 206.725756 234.04032 
L 206.73153 233.55648 
L 206.9341 233.55648 
L 206.9341 233.31456 
L 207.061185 233.31456 
L 207.061185 233.07264 
L 207.217074 233.07264 
L 207.217074 232.83072 
L 207.359547 232.83072 
L 207.359547 232.5888 
L 208.194723 232.5888 
L 208.203676 232.10496 
L 208.328705 232.10496 
L 208.331112 231.62112 
L 208.574047 231.62112 
L 208.574047 231.3792 
L 208.882783 231.3792 
L 208.92369 230.89536 
L 209.018298 230.89536 
L 209.018298 230.65344 
L 209.130138 230.65344 
L 209.17379 230.1696 
L 209.359805 230.1696 
L 209.359805 229.92768 
L 209.528235 229.92768 
L 209.617595 229.44384 
L 209.692725 229.44384 
L 209.692725 229.20192 
L 210.107665 229.20192 
L 210.162021 228.47616 
L 210.355736 228.47616 
L 210.355736 228.23424 
L 210.538785 228.23424 
L 210.621316 227.50848 
L 210.811754 227.50848 
L 210.811754 227.26656 
L 210.923864 227.26656 
L 210.923864 227.02464 
L 211.199361 227.02464 
L 211.199361 226.78272 
L 211.326284 226.78272 
L 211.326284 226.5408 
L 211.539184 226.5408 
L 211.580987 226.05696 
L 211.768945 226.05696 
L 211.848876 225.57312 
L 211.922464 225.57312 
L 211.922464 225.3312 
L 212.124396 225.3312 
L 212.124396 225.08928 
L 212.411024 225.08928 
L 212.411024 224.84736 
L 212.546043 224.84736 
L 212.609601 224.1216 
L 212.756232 224.1216 
L 212.763251 223.63776 
L 213.030035 223.63776 
L 213.125122 222.42816 
L 213.384565 222.42816 
L 213.48386 221.7024 
L 213.505157 221.7024 
L 213.586936 221.21856 
L 213.666005 221.21856 
L 213.759888 220.73472 
L 213.909323 220.73472 
L 213.909323 220.4928 
L 214.027959 220.4928 
L 214.103169 220.00896 
L 214.450041 220.00896 
L 214.530546 218.79936 
L 214.583233 218.79936 
L 214.628371 218.31552 
L 214.726468 218.31552 
L 214.83736 217.83168 
L 214.892861 217.83168 
L 214.99508 217.34784 
L 215.064819 217.34784 
L 215.064819 217.10592 
L 215.418331 217.10592 
L 215.508764 216.62208 
L 215.764118 216.62208 
L 215.824188 216.13824 
L 216.024647 216.13824 
L 216.09727 215.41248 
L 216.246194 215.41248 
L 216.301154 214.92864 
L 216.50692 214.92864 
L 216.600995 214.20288 
L 216.685017 214.20288 
L 216.685017 213.96096 
L 216.847646 213.96096 
L 216.946303 213.2352 
L 217.00302 213.2352 
L 217.00302 212.99328 
L 217.125295 212.99328 
L 217.125295 212.75136 
L 217.558868 212.75136 
L 217.558868 212.50944 
L 217.747494 212.50944 
L 217.747494 212.26752 
L 217.941714 212.26752 
L 217.941714 212.0256 
L 218.186221 212.0256 
L 218.261421 211.29984 
L 218.742729 211.29984 
L 218.742729 211.05792 
L 218.877523 211.05792 
L 218.987062 210.33216 
L 219.141622 210.33216 
L 219.141622 210.09024 
L 219.423594 210.09024 
L 219.430923 209.6064 
L 219.556994 209.6064 
L 219.658073 208.63872 
L 219.890726 208.63872 
L 219.975114 207.91296 
L 220.201222 207.91296 
L 220.300332 207.42912 
L 220.341321 207.42912 
L 220.44643 206.70336 
L 220.634525 206.70336 
L 220.679004 206.21952 
L 220.923425 206.21952 
L 220.949554 205.73568 
L 221.069611 205.73568 
L 221.069611 205.49376 
L 221.312952 205.49376 
L 221.396259 205.00992 
L 221.469192 205.00992 
L 221.579205 203.80032 
L 221.684345 203.80032 
L 221.684345 203.5584 
L 221.846337 203.5584 
L 221.946842 203.07456 
L 222.007217 203.07456 
L 222.007217 202.83264 
L 222.18354 202.83264 
L 222.18354 202.59072 
L 222.344072 202.59072 
L 222.344072 202.3488 
L 222.508941 202.3488 
L 222.604812 201.86496 
L 222.69841 201.86496 
L 222.795726 201.1392 
L 222.938478 201.1392 
L 223.01304 200.65536 
L 223.109502 200.65536 
L 223.134933 200.17152 
L 223.288314 200.17152 
L 223.34598 199.68768 
L 223.493067 199.68768 
L 223.497422 199.20384 
L 223.608978 199.20384 
L 223.608978 198.96192 
L 223.740097 198.96192 
L 223.740097 198.72 
L 224.001601 198.72 
L 224.001601 198.47808 
L 224.131455 198.47808 
L 224.131455 198.23616 
L 224.364606 198.23616 
L 224.435878 197.5104 
L 224.694667 197.5104 
L 224.694667 197.26848 
L 225.012524 197.26848 
L 225.012524 197.02656 
L 225.23538 197.02656 
L 225.331679 196.3008 
L 225.383652 196.3008 
L 225.436698 195.81696 
L 225.530983 195.81696 
L 225.561542 195.0912 
L 225.676548 195.0912 
L 225.676548 194.84928 
L 225.831472 194.84928 
L 225.865452 194.36544 
L 225.954784 194.36544 
L 225.956394 193.8816 
L 226.419452 193.8816 
L 226.520302 193.39776 
L 226.671613 193.39776 
L 226.772984 192.91392 
L 226.783283 192.91392 
L 226.784245 192.43008 
L 226.895842 192.43008 
L 226.899408 191.94624 
L 227.538222 191.94624 
L 227.538222 191.70432 
L 227.685418 191.70432 
L 227.685418 191.4624 
L 227.814256 191.4624 
L 227.814256 191.22048 
L 228.296206 191.22048 
L 228.296206 190.97856 
L 228.535119 190.97856 
L 228.600762 190.2528 
L 228.652253 190.2528 
L 228.761577 189.52704 
L 229.060868 189.52704 
L 229.16772 189.0432 
L 229.235804 189.0432 
L 229.324413 188.31744 
L 229.352682 188.31744 
L 229.462673 186.86592 
L 229.475567 186.86592 
L 229.558433 186.14016 
L 229.811021 186.14016 
L 229.874633 185.65632 
L 229.975811 185.65632 
L 229.975811 185.4144 
L 230.109253 185.4144 
L 230.18663 184.93056 
L 230.235895 184.93056 
L 230.235895 184.68864 
L 230.485845 184.68864 
L 230.485845 184.44672 
L 230.701603 184.44672 
L 230.701603 184.2048 
L 230.976273 184.2048 
L 230.976273 183.96288 
L 231.449573 183.96288 
L 231.477694 183.47904 
L 231.617103 183.47904 
L 231.656268 182.9952 
L 231.81324 182.9952 
L 231.88576 182.26944 
L 232.013053 182.26944 
L 232.013053 182.02752 
L 232.416495 182.02752 
L 232.478097 181.54368 
L 232.536718 181.54368 
L 232.536718 181.30176 
L 232.737192 181.30176 
L 232.737192 181.05984 
L 232.866235 181.05984 
L 232.9082 180.33408 
L 233.0248 180.33408 
L 233.083583 179.85024 
L 233.404517 179.85024 
L 233.505161 179.3664 
L 233.535049 179.3664 
L 233.58992 178.88256 
L 233.874918 178.88256 
L 233.905668 178.39872 
L 234.015135 178.39872 
L 234.015135 178.1568 
L 234.158552 178.1568 
L 234.196101 177.43104 
L 234.346397 177.43104 
L 234.346397 177.18912 
L 234.943576 177.18912 
L 234.982292 176.70528 
L 235.252132 176.70528 
L 235.252132 176.46336 
L 235.553917 176.46336 
L 235.652133 175.7376 
L 235.698784 175.7376 
L 235.791719 175.25376 
L 235.845795 175.25376 
L 235.852014 174.76992 
L 236.068137 174.76992 
L 236.110337 174.28608 
L 236.257453 174.28608 
L 236.257453 174.04416 
L 236.387122 174.04416 
L 236.472136 173.56032 
L 236.651038 173.56032 
L 236.742642 172.83456 
L 237.088187 172.83456 
L 237.140048 172.35072 
L 237.236272 172.35072 
L 237.236272 172.1088 
L 237.390077 172.1088 
L 237.390077 171.86688 
L 237.56043 171.86688 
L 237.56043 171.62496 
L 237.757955 171.62496 
L 237.784675 170.8992 
L 237.901952 170.8992 
L 237.901952 170.65728 
L 238.15363 170.65728 
L 238.219258 170.17344 
L 238.392971 170.17344 
L 238.48375 169.44768 
L 238.622267 169.44768 
L 238.622267 169.20576 
L 238.859401 169.20576 
L 238.900037 168.72192 
L 238.973594 168.72192 
L 238.991315 168.23808 
L 239.175827 168.23808 
L 239.189184 167.75424 
L 239.604955 167.75424 
L 239.604955 167.51232 
L 239.717354 167.51232 
L 239.717354 167.2704 
L 239.908973 167.2704 
L 239.908973 167.02848 
L 240.170849 167.02848 
L 240.170849 166.78656 
L 240.475106 166.78656 
L 240.563459 166.30272 
L 240.701291 166.30272 
L 240.799502 165.81888 
L 240.859408 165.81888 
L 240.859408 165.57696 
L 241.188403 165.57696 
L 241.271157 165.09312 
L 241.45533 165.09312 
L 241.45533 164.8512 
L 241.571579 164.8512 
L 241.571579 164.60928 
L 241.694813 164.60928 
L 241.737863 163.88352 
L 241.870607 163.88352 
L 241.870607 163.6416 
L 242.212131 163.6416 
L 242.309898 163.15776 
L 242.426722 163.15776 
L 242.426722 162.91584 
L 242.630203 162.91584 
L 242.694278 162.432 
L 242.827034 162.432 
L 242.827034 162.19008 
L 243.114016 162.19008 
L 243.114016 161.94816 
L 243.425067 161.94816 
L 243.466311 161.46432 
L 243.645843 161.46432 
L 243.645843 161.2224 
L 244.063014 161.2224 
L 244.063014 160.98048 
L 244.226273 160.98048 
L 244.307519 160.25472 
L 244.465035 160.25472 
L 244.506092 159.52896 
L 244.880734 159.52896 
L 244.958827 158.56128 
L 245.033526 158.56128 
L 245.119615 158.07744 
L 245.208415 158.07744 
L 245.208415 157.83552 
L 245.477399 157.83552 
L 245.583649 157.35168 
L 245.813746 157.35168 
L 245.813746 157.10976 
L 245.949731 157.10976 
L 245.949731 156.86784 
L 246.177435 156.86784 
L 246.224438 156.384 
L 246.338459 156.384 
L 246.338459 156.14208 
L 246.577795 156.14208 
L 246.673546 155.65824 
L 246.789209 155.65824 
L 246.789209 155.41632 
L 247.222655 155.41632 
L 247.22823 154.93248 
L 247.385217 154.93248 
L 247.432906 154.20672 
L 247.508485 154.20672 
L 247.508485 153.9648 
L 247.785363 153.9648 
L 247.785363 153.72288 
L 247.912421 153.72288 
L 247.953251 153.23904 
L 248.032218 153.23904 
L 248.131694 152.7552 
L 248.377632 152.7552 
L 248.377632 152.51328 
L 248.61824 152.51328 
L 248.61824 152.27136 
L 248.878291 152.27136 
L 248.878291 152.02944 
L 249.053368 152.02944 
L 249.113441 151.30368 
L 249.18514 151.30368 
L 249.18514 151.06176 
L 249.319691 151.06176 
L 249.377574 150.57792 
L 249.517833 150.57792 
L 249.628322 149.85216 
L 249.814904 149.85216 
L 249.814904 149.61024 
L 249.958212 149.61024 
L 249.958212 149.36832 
L 250.285523 149.36832 
L 250.313324 148.88448 
L 250.433891 148.88448 
L 250.539128 148.40064 
L 250.668279 148.40064 
L 250.700026 147.9168 
L 250.946766 147.9168 
L 250.946766 147.67488 
L 251.801428 147.67488 
L 251.801428 147.43296 
L 251.953603 147.43296 
L 252.057454 146.22336 
L 252.217074 146.22336 
L 252.325969 145.4976 
L 252.424356 145.4976 
L 252.424356 145.25568 
L 252.599322 145.25568 
L 252.599322 145.01376 
L 252.801405 145.01376 
L 252.840683 144.52992 
L 252.926601 144.52992 
L 252.926601 144.288 
L 253.09035 144.288 
L 253.187028 143.80416 
L 253.23919 143.80416 
L 253.23919 143.56224 
L 253.367774 143.56224 
L 253.427094 142.83648 
L 253.63363 142.83648 
L 253.63363 142.59456 
L 253.768556 142.59456 
L 253.768556 142.35264 
L 253.91468 142.35264 
L 253.91468 142.11072 
L 254.034991 142.11072 
L 254.096406 141.62688 
L 254.162195 141.62688 
L 254.162195 141.38496 
L 254.359801 141.38496 
L 254.426542 140.90112 
L 254.633376 140.90112 
L 254.74329 140.41728 
L 254.875227 140.41728 
L 254.93161 139.93344 
L 255.393058 139.93344 
L 255.393058 139.69152 
L 255.622477 139.69152 
L 255.622477 139.4496 
L 255.848463 139.4496 
L 255.848463 139.20768 
L 256.087025 139.20768 
L 256.087025 138.96576 
L 256.253189 138.96576 
L 256.358272 138.48192 
L 256.452859 138.48192 
L 256.452859 138.24 
L 256.608833 138.24 
L 256.704955 137.51424 
L 256.728432 137.51424 
L 256.791916 136.54656 
L 257.100076 136.54656 
L 257.100076 136.30464 
L 257.309494 136.30464 
L 257.309494 136.06272 
L 257.50142 136.06272 
L 257.561512 135.33696 
L 257.667089 135.33696 
L 257.667089 135.09504 
L 258.10294 135.09504 
L 258.178856 134.36928 
L 258.229757 134.36928 
L 258.323194 133.64352 
L 258.408741 133.64352 
L 258.516106 133.15968 
L 258.545858 133.15968 
L 258.545858 132.91776 
L 258.979236 132.91776 
L 259.025075 132.43392 
L 259.265378 132.43392 
L 259.355236 131.46624 
L 259.382379 131.46624 
L 259.382379 131.22432 
L 259.538615 131.22432 
L 259.636465 130.49856 
L 259.738987 130.49856 
L 259.80354 130.01472 
L 259.906492 130.01472 
L 259.921224 129.53088 
L 260.043356 129.53088 
L 260.127544 129.04704 
L 260.24364 129.04704 
L 260.24364 128.80512 
L 260.483893 128.80512 
L 260.541913 128.32128 
L 260.644854 128.32128 
L 260.674657 127.83744 
L 260.812041 127.83744 
L 260.829171 126.86976 
L 261.086117 126.86976 
L 261.196502 126.38592 
L 261.21975 126.38592 
L 261.268292 125.90208 
L 261.449256 125.90208 
L 261.527222 125.17632 
L 261.640638 125.17632 
L 261.739018 124.69248 
L 261.781302 124.69248 
L 261.836199 124.20864 
L 261.985009 124.20864 
L 262.074893 123.7248 
L 262.12234 123.7248 
L 262.187654 123.24096 
L 262.289909 123.24096 
L 262.368148 122.75712 
L 262.43632 122.75712 
L 262.500953 122.27328 
L 262.986532 122.27328 
L 262.986532 122.03136 
L 263.151956 122.03136 
L 263.220926 121.54752 
L 263.429332 121.54752 
L 263.530268 120.82176 
L 263.584117 120.82176 
L 263.684071 119.37024 
L 263.698659 119.37024 
L 263.80193 118.40256 
L 263.962649 118.40256 
L 263.962649 118.16064 
L 264.209918 118.16064 
L 264.234845 117.6768 
L 264.490242 117.6768 
L 264.58292 117.19296 
L 264.677766 117.19296 
L 264.677766 116.95104 
L 264.792125 116.95104 
L 264.800507 116.4672 
L 264.956766 116.4672 
L 264.956766 116.22528 
L 265.110302 116.22528 
L 265.119275 115.74144 
L 265.285583 115.74144 
L 265.367289 115.01568 
L 265.678432 115.01568 
L 265.678432 114.77376 
L 265.840161 114.77376 
L 265.867086 114.28992 
L 266.298894 114.28992 
L 266.298894 114.048 
L 266.427509 114.048 
L 266.427509 113.80608 
L 266.557812 113.80608 
L 266.591409 113.32224 
L 266.686041 113.32224 
L 266.755411 112.8384 
L 267.244501 112.8384 
L 267.244501 112.59648 
L 267.494698 112.59648 
L 267.494698 112.35456 
L 267.659686 112.35456 
L 267.755807 111.6288 
L 267.816963 111.6288 
L 267.900728 111.14496 
L 267.982373 111.14496 
L 267.982373 110.90304 
L 268.303296 110.90304 
L 268.303296 110.66112 
L 268.686736 110.66112 
L 268.686736 110.4192 
L 268.935921 110.4192 
L 268.935921 110.17728 
L 269.178174 110.17728 
L 269.178174 109.93536 
L 269.316376 109.93536 
L 269.316376 109.69344 
L 269.71959 109.69344 
L 269.724961 109.2096 
L 269.883148 109.2096 
L 269.942227 108.24192 
L 270.175934 108.24192 
L 270.175934 108 
L 270.526482 108 
L 270.526482 107.75808 
L 270.814456 107.75808 
L 270.814456 107.51616 
L 270.946634 107.51616 
L 271.029902 107.03232 
L 271.166206 107.03232 
L 271.166206 106.7904 
L 271.318839 106.7904 
L 271.318839 106.54848 
L 271.524218 106.54848 
L 271.524218 106.30656 
L 272.014545 106.30656 
L 272.014545 106.06464 
L 272.156441 106.06464 
L 272.260753 105.33888 
L 272.410063 105.33888 
L 272.462986 104.61312 
L 272.737566 104.61312 
L 272.799046 103.88736 
L 272.930929 103.88736 
L 273.011024 103.1616 
L 273.103365 103.1616 
L 273.110085 102.67776 
L 273.478188 102.67776 
L 273.478188 102.43584 
L 273.679611 102.43584 
L 273.752566 101.952 
L 273.981419 101.952 
L 273.981419 101.71008 
L 274.172447 101.71008 
L 274.172447 101.46816 
L 274.364428 101.46816 
L 274.460111 100.7424 
L 274.504672 100.7424 
L 274.504672 100.50048 
L 274.907729 100.50048 
L 275.017462 100.01664 
L 275.711484 100.01664 
L 275.711484 99.77472 
L 275.849787 99.77472 
L 275.850807 99.29088 
L 276.040467 99.29088 
L 276.113156 98.80704 
L 276.181602 98.80704 
L 276.181602 98.56512 
L 276.318663 98.56512 
L 276.375499 98.08128 
L 276.592423 98.08128 
L 276.592423 97.83936 
L 276.885886 97.83936 
L 276.885886 97.59744 
L 277.093768 97.59744 
L 277.093768 97.35552 
L 277.304758 97.35552 
L 277.307447 96.87168 
L 277.588981 96.87168 
L 277.588981 96.62976 
L 278.049819 96.62976 
L 278.049819 96.38784 
L 278.305202 96.38784 
L 278.405515 95.66208 
L 278.476852 95.66208 
L 278.554469 94.93632 
L 279.190664 94.93632 
L 279.281518 94.21056 
L 279.545981 94.21056 
L 279.648742 93.4848 
L 279.729555 93.4848 
L 279.814698 93.00096 
L 279.886175 93.00096 
L 279.886175 92.75904 
L 280.055423 92.75904 
L 280.055423 92.51712 
L 280.177106 92.51712 
L 280.177106 92.2752 
L 280.327617 92.2752 
L 280.417177 91.54944 
L 280.56454 91.54944 
L 280.633215 90.58176 
L 280.723845 90.58176 
L 280.723845 90.33984 
L 281.051925 90.33984 
L 281.051925 90.09792 
L 281.250909 90.09792 
L 281.250909 89.856 
L 281.490402 89.856 
L 281.490402 89.61408 
L 281.646206 89.61408 
L 281.646206 89.37216 
L 281.768745 89.37216 
L 281.768745 89.13024 
L 282.067085 89.13024 
L 282.074831 88.6464 
L 282.222855 88.6464 
L 282.222855 88.40448 
L 282.368063 88.40448 
L 282.410868 87.92064 
L 282.530661 87.92064 
L 282.530661 87.67872 
L 282.680806 87.67872 
L 282.761317 87.19488 
L 282.839562 87.19488 
L 282.900529 86.71104 
L 282.951529 86.71104 
L 282.951529 86.46912 
L 283.240712 86.46912 
L 283.33191 85.98528 
L 283.661518 85.98528 
L 283.661518 85.74336 
L 284.025229 85.74336 
L 284.117585 84.77568 
L 284.17849 84.77568 
L 284.17849 84.53376 
L 284.311152 84.53376 
L 284.311152 84.29184 
L 284.425592 84.29184 
L 284.459714 83.808 
L 284.659285 83.808 
L 284.677722 83.32416 
L 285.568028 83.32416 
L 285.631025 82.84032 
L 285.688203 82.84032 
L 285.688203 82.5984 
L 285.820829 82.5984 
L 285.820829 82.35648 
L 286.005904 82.35648 
L 286.103477 81.87264 
L 286.155898 81.87264 
L 286.183225 81.3888 
L 286.300179 81.3888 
L 286.35287 80.90496 
L 286.595985 80.90496 
L 286.703963 80.42112 
L 286.743738 80.42112 
L 286.743738 80.1792 
L 287.319302 80.1792 
L 287.414555 79.69536 
L 287.695137 79.69536 
L 287.695137 79.45344 
L 288.305042 79.45344 
L 288.305042 79.21152 
L 288.560508 79.21152 
L 288.610496 78.72768 
L 288.87068 78.72768 
L 288.87068 78.48576 
L 289.328639 78.48576 
L 289.328639 78.24384 
L 289.505685 78.24384 
L 289.505685 78.00192 
L 289.668723 78.00192 
L 289.668723 77.76 
L 290.089095 77.76 
L 290.089095 77.51808 
L 290.305865 77.51808 
L 290.305865 77.27616 
L 290.992152 77.27616 
L 290.992152 77.03424 
L 291.14447 77.03424 
L 291.177786 76.5504 
L 291.294058 76.5504 
L 291.325619 76.06656 
L 291.529974 76.06656 
L 291.546972 75.58272 
L 291.784644 75.58272 
L 291.797911 75.09888 
L 291.996686 75.09888 
L 292.042786 74.37312 
L 292.287062 74.37312 
L 292.287062 74.1312 
L 292.605062 74.1312 
L 292.671942 73.64736 
L 292.854777 73.64736 
L 292.926804 73.16352 
L 293.124155 73.16352 
L 293.124155 72.9216 
L 293.519704 72.9216 
L 293.519704 72.67968 
L 293.642072 72.67968 
L 293.642072 72.43776 
L 294.256885 72.43776 
L 294.256885 72.19584 
L 294.39726 72.19584 
L 294.481368 71.712 
L 294.680805 71.712 
L 294.744327 70.98624 
L 294.973186 70.98624 
L 294.973186 70.74432 
L 295.121981 70.74432 
L 295.173271 70.26048 
L 295.310392 70.26048 
L 295.405885 69.53472 
L 295.439309 69.53472 
L 295.439309 69.2928 
L 295.589826 69.2928 
L 295.649793 68.56704 
L 295.719377 68.56704 
L 295.719377 68.32512 
L 295.959046 68.32512 
L 295.959046 68.0832 
L 296.198453 68.0832 
L 296.198453 67.84128 
L 296.323663 67.84128 
L 296.323663 67.59936 
L 296.564236 67.59936 
L 296.564236 67.35744 
L 297.068817 67.35744 
L 297.068817 67.11552 
L 297.286444 67.11552 
L 297.286444 66.8736 
L 297.464582 66.8736 
L 297.52953 66.38976 
L 297.674683 66.38976 
L 297.674683 66.14784 
L 297.841802 66.14784 
L 297.841802 65.90592 
L 298.102552 65.90592 
L 298.142805 65.42208 
L 298.557772 65.42208 
L 298.557772 65.18016 
L 299.000365 65.18016 
L 299.000365 64.93824 
L 299.183854 64.93824 
L 299.183854 64.69632 
L 299.724699 64.69632 
L 299.824552 64.21248 
L 300.037678 64.21248 
L 300.037678 63.97056 
L 300.190531 63.97056 
L 300.190531 63.72864 
L 300.936441 63.72864 
L 300.936441 63.48672 
L 301.227147 63.48672 
L 301.320027 63.00288 
L 301.656417 63.00288 
L 301.656417 62.76096 
L 301.808364 62.76096 
L 301.808364 62.51904 
L 302.03429 62.51904 
L 302.03429 62.27712 
L 302.173458 62.27712 
L 302.173458 62.0352 
L 302.359465 62.0352 
L 302.428991 61.55136 
L 302.595355 61.55136 
L 302.595355 61.30944 
L 303.061083 61.30944 
L 303.171346 60.8256 
L 303.353131 60.8256 
L 303.353131 60.58368 
L 303.494619 60.58368 
L 303.494619 60.34176 
L 303.904201 60.34176 
L 303.904201 60.09984 
L 304.035329 60.09984 
L 304.035329 59.85792 
L 305.503339 59.85792 
L 305.503339 59.616 
L 305.976166 59.616 
L 305.976166 59.37408 
L 306.535771 59.37408 
L 306.5674 58.89024 
L 306.670963 58.89024 
L 306.745377 58.4064 
L 307.009609 58.4064 
L 307.009609 58.16448 
L 307.322342 58.16448 
L 307.322342 57.92256 
L 307.470886 57.92256 
L 307.470886 57.68064 
L 307.948425 57.68064 
L 307.948425 57.43872 
L 308.464043 57.43872 
L 308.464043 57.1968 
L 308.731777 57.1968 
L 308.731777 56.95488 
L 309.17031 56.95488 
L 309.17031 56.71296 
L 310.418275 56.71296 
L 310.418275 56.47104 
L 311.897798 56.47104 
L 311.909798 55.9872 
L 312.420333 55.9872 
L 312.422016 55.50336 
L 313.014742 55.50336 
L 313.014742 55.26144 
L 313.436221 55.26144 
L 313.436221 55.01952 
L 314.418224 55.01952 
L 314.418224 54.7776 
L 314.651462 54.7776 
L 314.651462 54.53568 
L 314.964174 54.53568 
L 314.995862 54.05184 
L 316.189767 54.05184 
L 316.189767 53.80992 
L 316.415482 53.80992 
L 316.415482 53.568 
L 398.487273 53.568 
L 398.487273 53.568 
" clip-path="url(#pc61038b96e)" style="fill: none; stroke: #1f77b4; stroke-width: 2; stroke-linecap: square"/>
   </g>
   <g id="patch_3">
    <path d="M 57.6 307.584 
L 57.6 41.472 
" style="fill: none; stroke: #000000; stroke-width: 0.8; stroke-linejoin: miter; stroke-linecap: square"/>
   </g>
   <g id="patch_4">
    <path d="M 414.72 307.584 
L 414.72 41.472 
" style="fill: none; stroke: #000000; stroke-width: 0.8; stroke-linejoin: miter; stroke-linecap: square"/>
   </g>
   <g id="patch_5">
    <path d="M 57.6 307.584 
L 414.72 307.584 
" style="fill: none; stroke: #000000; stroke-width: 0.8; stroke-linejoin: miter; stroke-linecap: square"/>
   </g>
   <g id="patch_6">
    <path d="M 57.6 41.472 
L 414.72 41.472 
" style="fill: none; stroke: #000000; stroke-width: 0.8; stroke-linejoin: miter; stroke-linecap: square"/>
   </g>
   <g id="legend_1">
    <g id="patch_7">
     <path d="M 66.6 66.150125 
L 135.425 66.150125 
Q 137.425 66.150125 137.425 64.150125 
L 137.425 50.472 
Q 137.425 48.472 135.425 48.472 
L 66.6 48.472 
Q 64.6 48.472 64.6 50.472 
L 64.6 64.150125 
Q 64.6 66.150125 66.6 66.150125 
z
" style="fill: #4d4d4d; opacity: 0.5; stroke: #4d4d4d; stroke-linejoin: miter"/>
    </g>
    <g id="patch_8">
     <path d="M 64.6 64.150125 
L 133.425 64.150125 
Q 135.425 64.150125 135.425 62.150125 
L 135.425 48.472 
Q 135.425 46.472 133.425 46.472 
L 64.6 46.472 
Q 62.6 46.472 62.6 48.472 
L 62.6 62.150125 
Q 62.6 64.150125 64.6 64.150125 
z
" style="fill: #ffffff; stroke: #cccccc; stroke-linejoin: miter"/>
    </g>
    <g id="line2d_32">
     <path d="M 66.6 54.570438 
L 76.6 54.570438 
L 76.6 54.570438 
L 86.6 54.570438 
L 86.6 54.570438 
" style="fill: none; stroke: #1f77b4; stroke-width: 2; stroke-linecap: square"/>
    </g>
    <g id="text_18">
     <!-- X0 CDF -->
     <g transform="translate(94.6 58.070438) scale(0.1 -0.1)">
      <defs>
       <path id="DejaVuSans-20" transform="scale(0.015625)"/>
      </defs>
      <use xlink:href="#DejaVuSans-58"/>
      <use xlink:href="#DejaVuSans-30" transform="translate(68.505859 0)"/>
      <use xlink:href="#DejaVuSans-20" transform="translate(132.128906 0)"/>
      <use xlink:href="#DejaVuSans-43" transform="translate(163.916016 0)"/>
      <use xlink:href="#DejaVuSans-44" transform="translate(233.740234 0)"/>
      <use xlink:href="#DejaVuSans-46" transform="translate(310.742188 0)"/>
     </g>
    </g>
   </g>
  </g>
  <g id="text_19">
   <!-- X0 CDF -->
   <g transform="translate(208.305 16.030125) scale(0.12 -0.12)">
    <use xlink:href="#DejaVuSans-58"/>
    <use xlink:href="#DejaVuSans-30" transform="translate(68.505859 0)"/>
    <use xlink:href="#DejaVuSans-20" transform="translate(132.128906 0)"/>
    <use xlink:href="#DejaVuSans-43" transform="translate(163.916016 0)"/>
    <use xlink:href="#DejaVuSans-44" transform="translate(233.740234 0)"/>
    <use xlink:href="#DejaVuSans-46" transform="translate(310.742188 0)"/>
   </g>
  </g>
 </g>
 <defs>
  <clipPath id="pc61038b96e">
   <rect x="57.6" y="41.472" width="357.12" height="266.112"/>
  </clipPath>
 </defs>
</svg>
