<?xml version="1.0" encoding="utf-8" standalone="no"?>
<!DOCTYPE svg PUBLIC "-//W3C//DTD SVG 1.1//EN"
  "http://www.w3.org/Graphics/SVG/1.1/DTD/svg11.dtd">
<svg xmlns:xlink="http://www.w3.org/1999/xlink" width="460.8pt" height="345.6pt" viewBox="0 0 460.8 345.6" xmlns="http://www.w3.org/2000/svg" version="1.1">
 <metadata>
  <rdf:RDF xmlns:dc="http://purl.org/dc/elements/1.1/" xmlns:cc="http://creativecommons.org/ns#" xmlns:rdf="http://www.w3.org/1999/02/22-rdf-syntax-ns#">
   <cc:Work>
    <dc:type rdf:resource="http://purl.org/dc/dcmitype/StillImage"/>
    <dc:date>2022-01-01T00:00:00+00:00</dc:date>
    <dc:format>image/svg+xml</dc:format>
    <dc:creator>
     <cc:Agent>
      <dc:title>Matplotlib v3.10.8, https://matplotlib.org/</dc:title>
     </cc:Agent>
    </dc:creator>
   </cc:Work>
  </rdf:RDF>
 </metadata>
 <defs>
  <style type="text/css">*{stroke-linejoin: round; stroke-linecap: butt}</style>
 </defs>
 <g id="figure_1">
  <g id="patch_1">
   <path d="M 0 345.6 
L 460.8 345.6 
L 460.8 0 
L 0 0 
z
" style="fill: #ffffff"/>
  </g>
  <g id="axes_1">
   <g id="patch_2">
    <path d="M 57.6 307.584 
L 343.296 307.584 
L 343.296 41.472 
L 57.6 41.472 
z
" style="fill: #ffffff"/>
   </g>
   <g id="matplotlib.axis_1">
    <g id="xtick_1">
     <g id="line2d_1">
      <path d="M 79.150984 307.584 
L 79.150984 41.472 
" clip-path="url(#p76928d1be8)" style="fill: none; stroke: #b0b0b0; stroke-width: 0.8; stroke-linecap: square"/>
     </g>
     <g id="line2d_2">
      <defs>
       <path id="m37febb85df" d="M 0 0 
L 0 3.5 
" style="stroke: #000000; stroke-width: 0.8"/>
      </defs>
      <g>
       <use xlink:href="#m37febb85df" x="79.150984" y="307.584" style="stroke: #000000; stroke-width: 0.8"/>
      </g>
     </g>
     <g id="text_1">
      <!-- −4 -->
      <g transform="translate(71.779891 322.182437) scale(0.1 -0.1)">
       <defs>
        <path id="DejaVuSans-2212" d="M 678 2272 
L 4684 2272 
L 4684 1741 
L 678 1741 
L 678 2272 
z
" transform="scale(0.015625)"/>
        <path id="DejaVuSans-34" d="M 2419 4116 
L 825 1625 
L 2419 1625 
L 2419 4116 
z
M 2253 4666 
L 3047 4666 
L 3047 1625 
L 3713 1625 
L 3713 1100 
L 3047 1100 
L 3047 0 
L 2419 0 
L 2419 1100 
L 313 1100 
L 313 1709 
L 2253 4666 
z
" transform="scale(0.015625)"/>
       </defs>
       <use xlink:href="#DejaVuSans-2212"/>
       <use xlink:href="#DejaVuSans-34" transform="translate(83.789062 0)"/>
      </g>
     </g>
    </g>
    <g id="xtick_2">
     <g id="line2d_3">
      <path d="M 139.799492 307.584 
L 139.799492 41.472 
" clip-path="url(#p76928d1be8)" style="fill: none; stroke: #b0b0b0; stroke-width: 0.8; stroke-linecap: square"/>
     </g>
     <g id="line2d_4">
      <g>
       <use xlink:href="#m37febb85df" x="139.799492" y="307.584" style="stroke: #000000; stroke-width: 0.8"/>
      </g>
     </g>
     <g id="text_2">
      <!-- −2 -->
      <g transform="translate(132.428398 322.182437) scale(0.1 -0.1)">
       <defs>
        <path id="DejaVuSans-32" d="M 1228 531 
L 3431 531 
L 3431 0 
L 469 0 
L 469 531 
Q 828 903 1448 1529 
Q 2069 2156 2228 2338 
Q 2531 2678 2651 2914 
Q 2772 3150 2772 3378 
Q 2772 3750 2511 3984 
Q 2250 4219 1831 4219 
Q 1534 4219 1204 4116 
Q 875 4013 500 3803 
L 500 4441 
Q 881 4594 1212 4672 
Q 1544 4750 1819 4750 
Q 2544 4750 2975 4387 
Q 3406 4025 3406 3419 
Q 3406 3131 3298 2873 
Q 3191 2616 2906 2266 
Q 2828 2175 2409 1742 
Q 1991 1309 1228 531 
z
" transform="scale(0.015625)"/>
       </defs>
       <use xlink:href="#DejaVuSans-2212"/>
       <use xlink:href="#DejaVuSans-32" transform="translate(83.789062 0)"/>
      </g>
     </g>
    </g>
    <g id="xtick_3">
     <g id="line2d_5">
      <path d="M 200.448 307.584 
L 200.448 41.472 
" clip-path="url(#p76928d1be8)" style="fill: none; stroke: #b0b0b0; stroke-width: 0.8; stroke-linecap: square"/>
     </g>
     <g id="line2d_6">
      <g>
       <use xlink:href="#m37febb85df" x="200.448" y="307.584" style="stroke: #000000; stroke-width: 0.8"/>
      </g>
     </g>
     <g id="text_3">
      <!-- 0 -->
      <g transform="translate(197.26675 322.182437) scale(0.1 -0.1)">
       <defs>
        <path id="DejaVuSans-30" d="M 2034 4250 
Q 1547 4250 1301 3770 
Q 1056 3291 1056 2328 
Q 1056 1369 1301 889 
Q 1547 409 2034 409 
Q 2525 409 2770 889 
Q 3016 1369 3016 2328 
Q 3016 3291 2770 3770 
Q 2525 4250 2034 4250 
z
M 2034 4750 
Q 2819 4750 3233 4129 
Q 3647 3509 3647 2328 
Q 3647 1150 3233 529 
Q 2819 -91 2034 -91 
Q 1250 -91 836 529 
Q 422 1150 422 2328 
Q 422 3509 836 4129 
Q 1250 4750 2034 4750 
z
" transform="scale(0.015625)"/>
       </defs>
       <use xlink:href="#DejaVuSans-30"/>
      </g>
     </g>
    </g>
    <g id="xtick_4">
     <g id="line2d_7">
      <path d="M 261.096508 307.584 
L 261.096508 41.472 
" clip-path="url(#p76928d1be8)" style="fill: none; stroke: #b0b0b0; stroke-width: 0.8; stroke-linecap: square"/>
     </g>
     <g id="line2d_8">
      <g>
       <use xlink:href="#m37febb85df" x="261.096508" y="307.584" style="stroke: #000000; stroke-width: 0.8"/>
      </g>
     </g>
     <g id="text_4">
      <!-- 2 -->
      <g transform="translate(257.915258 322.182437) scale(0.1 -0.1)">
       <use xlink:href="#DejaVuSans-32"/>
      </g>
     </g>
    </g>
    <g id="xtick_5">
     <g id="line2d_9">
      <path d="M 321.745016 307.584 
L 321.745016 41.472 
" clip-path="url(#p76928d1be8)" style="fill: none; stroke: #b0b0b0; stroke-width: 0.8; stroke-linecap: square"/>
     </g>
     <g id="line2d_10">
      <g>
       <use xlink:href="#m37febb85df" x="321.745016" y="307.584" style="stroke: #000000; stroke-width: 0.8"/>
      </g>
     </g>
     <g id="text_5">
      <!-- 4 -->
      <g transform="translate(318.563766 322.182437) scale(0.1 -0.1)">
       <use xlink:href="#DejaVuSans-34"/>
      </g>
     </g>
    </g>
    <g id="text_6">
     <!-- X0 -->
     <g transform="translate(193.84175 335.860562) scale(0.1 -0.1)">
      <defs>
       <path id="DejaVuSans-58" d="M 403 4666 
L 1081 4666 
L 2241 2931 
L 3406 4666 
L 4084 4666 
L 2584 2425 
L 4184 0 
L 3506 0 
L 2194 1984 
L 872 0 
L 191 0 
L 1856 2491 
L 403 4666 
z
" transform="scale(0.015625)"/>
      </defs>
      <use xlink:href="#DejaVuSans-58"/>
      <use xlink:href="#DejaVuSans-30" transform="translate(68.505859 0)"/>
     </g>
    </g>
   </g>
   <g id="matplotlib.axis_2">
    <g id="ytick_1">
     <g id="line2d_11">
      <path d="M 57.6 259.264726 
L 343.296 259.264726 
" clip-path="url(#p76928d1be8)" style="fill: none; stroke: #b0b0b0; stroke-width: 0.8; stroke-linecap: square"/>
     </g>
     <g id="line2d_12">
      <defs>
       <path id="m71b93e372b" d="M 0 0 
L -3.5 0 
" style="stroke: #000000; stroke-width: 0.8"/>
      </defs>
      <g>
       <use xlink:href="#m71b93e372b" x="57.6" y="259.264726" style="stroke: #000000; stroke-width: 0.8"/>
      </g>
     </g>
     <g id="text_7">
      <!-- −2 -->
      <g transform="translate(35.857813 263.063944) scale(0.1 -0.1)">
       <use xlink:href="#DejaVuSans-2212"/>
       <use xlink:href="#DejaVuSans-32" transform="translate(83.789062 0)"/>
      </g>
     </g>
    </g>
    <g id="ytick_2">
     <g id="line2d_13">
      <path d="M 57.6 202.773575 
L 343.296 202.773575 
" clip-path="url(#p76928d1be8)" style="fill: none; stroke: #b0b0b0; stroke-width: 0.8; stroke-linecap: square"/>
     </g>
     <g id="line2d_14">
      <g>
       <use xlink:href="#m71b93e372b" x="57.6" y="202.773575" style="stroke: #000000; stroke-width: 0.8"/>
      </g>
     </g>
     <g id="text_8">
      <!-- 0 -->
      <g transform="translate(44.2375 206.572794) scale(0.1 -0.1)">
       <use xlink:href="#DejaVuSans-30"/>
      </g>
     </g>
    </g>
    <g id="ytick_3">
     <g id="line2d_15">
      <path d="M 57.6 146.282425 
L 343.296 146.282425 
" clip-path="url(#p76928d1be8)" style="fill: none; stroke: #b0b0b0; stroke-width: 0.8; stroke-linecap: square"/>
     </g>
     <g id="line2d_16">
      <g>
       <use xlink:href="#m71b93e372b" x="57.6" y="146.282425" style="stroke: #000000; stroke-width: 0.8"/>
      </g>
     </g>
     <g id="text_9">
      <!-- 2 -->
      <g transform="translate(44.2375 150.081644) scale(0.1 -0.1)">
       <use xlink:href="#DejaVuSans-32"/>
      </g>
     </g>
    </g>
    <g id="ytick_4">
     <g id="line2d_17">
      <path d="M 57.6 89.791274 
L 343.296 89.791274 
" clip-path="url(#p76928d1be8)" style="fill: none; stroke: #b0b0b0; stroke-width: 0.8; stroke-linecap: square"/>
     </g>
     <g id="line2d_18">
      <g>
       <use xlink:href="#m71b93e372b" x="57.6" y="89.791274" style="stroke: #000000; stroke-width: 0.8"/>
      </g>
     </g>
     <g id="text_10">
      <!-- 4 -->
      <g transform="translate(44.2375 93.590493) scale(0.1 -0.1)">
       <use xlink:href="#DejaVuSans-34"/>
      </g>
     </g>
    </g>
    <g id="text_11">
     <!-- X1 -->
     <g transform="translate(29.778125 181.13425) rotate(-90) scale(0.1 -0.1)">
      <defs>
       <path id="DejaVuSans-31" d="M 794 531 
L 1825 531 
L 1825 4091 
L 703 3866 
L 703 4441 
L 1819 4666 
L 2450 4666 
L 2450 531 
L 3481 531 
L 3481 0 
L 794 0 
L 794 531 
z
" transform="scale(0.015625)"/>
      </defs>
      <use xlink:href="#DejaVuSans-58"/>
      <use xlink:href="#DejaVuSans-31" transform="translate(68.505859 0)"/>
     </g>
    </g>
   </g>
   <g id="QuadContourSet_1">
    <path d="M 322.389603 295.488 
L 326.637068 291.708 
L 330.309818 288.110703 
M 70.586182 239.731735 
L 74.070884 244.458 
L 78.702545 250.294445 
L 83.382805 255.798 
L 88.848 261.738395 
L 94.189115 267.138 
L 98.993455 271.671325 
L 104.566986 276.588 
L 109.138909 280.368 
L 109.138909 280.368 
L 115.226182 285.106756 
L 121.794986 289.818 
L 127.400727 293.556285 
L 130.445722 295.488 
M 330.309818 109.324265 
L 326.825116 104.598 
L 322.193455 98.761555 
L 317.513195 93.258 
L 312.048 87.317605 
L 306.706885 81.918 
L 301.902545 77.384675 
L 296.329014 72.468 
L 291.757091 68.688 
L 291.757091 68.688 
L 285.669818 63.949244 
L 279.101014 59.238 
L 273.495273 55.499715 
L 270.450278 53.568 
M 78.506397 53.568 
L 74.258932 57.348 
L 70.586182 60.945297 
L 70.586182 60.945297 
" clip-path="url(#p76928d1be8)" style="fill: none; stroke: #440154; stroke-opacity: 0.996094"/>
    <path d="M 279.326259 295.488 
L 281.611636 294.485439 
L 287.698909 291.455843 
L 291.757091 289.173569 
L 296.714974 286.038 
L 299.873455 283.836315 
L 304.379829 280.368 
L 307.989818 277.28657 
L 310.768889 274.698 
L 314.468888 270.918 
L 318.135273 266.731838 
L 320.812153 263.358 
L 324.222545 258.535768 
L 326.251636 255.347256 
L 328.280727 251.858443 
L 330.309818 247.999281 
M 70.586182 199.615403 
L 71.984203 202.878 
L 75.617607 210.438 
L 79.770994 217.998 
L 83.248252 223.668 
L 87.051059 229.338 
L 91.190386 235.008 
L 95.695182 240.678 
L 100.614774 246.348 
L 105.080727 251.111062 
L 109.809119 255.798 
L 115.226182 260.770171 
L 120.506795 265.248 
L 125.371636 269.078997 
L 131.458909 273.541227 
L 137.546182 277.627006 
L 143.633455 281.375495 
L 149.720727 284.807623 
L 155.808 287.928 
L 155.808 287.928 
L 159.866182 289.863323 
L 164.004095 291.708 
L 168.558901 293.598 
L 173.514338 295.488 
M 330.309818 149.440597 
L 328.911797 146.178 
L 325.278393 138.618 
L 321.125006 131.058 
L 317.647748 125.388 
L 313.844941 119.718 
L 309.705614 114.048 
L 305.200818 108.378 
L 300.281226 102.708 
L 295.815273 97.944938 
L 291.086881 93.258 
L 285.669818 88.285829 
L 280.389205 83.808 
L 275.524364 79.977003 
L 269.437091 75.514773 
L 263.349818 71.428994 
L 257.262545 67.680505 
L 251.175273 64.248377 
L 245.088 61.128 
L 245.088 61.128 
L 241.029818 59.192677 
L 236.891905 57.348 
L 232.337099 55.458 
L 227.381662 53.568 
M 121.569741 53.568 
L 119.284364 54.570561 
L 113.197091 57.600157 
L 109.138909 59.882431 
L 104.181026 63.018 
L 101.022545 65.219685 
L 96.516171 68.688 
L 92.906182 71.76943 
L 90.127111 74.358 
L 86.427112 78.138 
L 82.760727 82.324162 
L 80.083847 85.698 
L 76.673455 90.520232 
L 74.644364 93.708744 
L 72.615273 97.197557 
L 70.586182 101.056719 
L 70.586182 101.056719 
" clip-path="url(#p76928d1be8)" style="fill: none; stroke: #440256; stroke-opacity: 0.996094"/>
    <path d="M 208.564364 293.749793 
L 210.593455 294.004466 
L 212.622545 294.226412 
L 214.651636 294.416452 
L 216.680727 294.575249 
L 218.709818 294.703311 
L 220.738909 294.800994 
L 222.768 294.868497 
L 224.797091 294.905864 
L 226.826182 294.912987 
L 228.855273 294.889596 
L 230.884364 294.835264 
L 232.913455 294.7494 
L 234.942545 294.631246 
L 236.971636 294.479871 
L 239.000727 294.29417 
L 241.029818 294.072851 
L 243.058909 293.814434 
L 244.543822 293.598 
L 245.088 293.523561 
L 247.117091 293.211837 
L 249.146182 292.860103 
L 251.175273 292.466071 
L 253.204364 292.027215 
L 254.548105 291.708 
L 255.233455 291.553226 
L 257.262545 291.055516 
L 259.291636 290.506759 
L 261.320727 289.903409 
L 261.590406 289.818 
L 263.349818 289.282407 
L 265.378909 288.607886 
L 267.252146 287.928 
L 267.408 287.873287 
L 269.437091 287.120179 
L 271.466182 286.295987 
L 272.065296 286.038 
L 273.495273 285.436983 
L 275.524364 284.515528 
L 276.286789 284.148 
L 277.553455 283.548044 
L 279.582545 282.514218 
L 280.060461 282.258 
L 281.611636 281.435314 
L 283.478273 280.368 
L 283.640727 280.275704 
L 285.669818 279.071781 
L 286.61076 278.478 
L 287.698909 277.790925 
L 289.491845 276.588 
L 289.728 276.428735 
L 291.757091 275.000372 
L 292.167742 274.698 
L 293.786182 273.491598 
L 294.661226 272.808 
L 295.815273 271.890965 
L 296.989571 270.918 
L 297.844364 270.194114 
L 299.171685 269.028 
L 299.873455 268.394744 
L 301.222687 267.138 
L 301.902545 266.484336 
L 303.154477 265.248 
L 303.931636 264.451802 
L 304.976205 263.358 
L 305.960727 262.283061 
L 306.694633 261.468 
L 307.989818 259.960501 
L 308.314442 259.578 
L 309.847923 257.688 
L 310.018909 257.468033 
L 311.310361 255.798 
L 312.048 254.784442 
L 312.685479 253.908 
L 313.978003 252.018 
L 314.077091 251.866681 
L 315.222952 250.128 
L 316.106182 248.683155 
L 316.381256 248.238 
L 317.491165 246.348 
L 318.135273 245.168162 
L 318.529848 244.458 
L 319.519116 242.568 
L 320.164364 241.236046 
L 320.441336 240.678 
L 321.326183 238.788 
L 322.134715 236.898 
L 322.193455 236.752829 
L 322.923375 235.008 
L 323.647536 233.118 
L 324.222545 231.479193 
L 324.31424 231.228 
L 324.961992 229.338 
L 325.551134 227.448 
L 326.085472 225.558 
L 326.251636 224.91963 
L 326.594344 223.668 
L 327.065496 221.778 
L 327.488526 219.888 
L 327.866145 217.998 
L 328.20081 216.108 
L 328.280727 215.601124 
L 328.51309 214.218 
L 328.790524 212.328 
L 329.02813 210.438 
L 329.227498 208.548 
L 329.390013 206.658 
L 329.516862 204.768 
L 329.609045 202.878 
L 329.667376 200.988 
L 329.692488 199.098 
L 329.684842 197.208 
L 329.644724 195.318 
L 329.572253 193.428 
L 329.467382 191.538 
L 329.329895 189.648 
L 329.159411 187.758 
L 328.955386 185.868 
L 328.717107 183.978 
L 328.443691 182.088 
L 328.280727 181.087468 
L 328.146556 180.198 
L 327.829017 178.308 
L 327.475886 176.418 
L 327.085657 174.528 
L 326.656642 172.638 
L 326.251636 171.003739 
L 326.192474 170.748 
L 325.723551 168.858 
L 325.213155 166.968 
L 324.658925 165.078 
L 324.222545 163.694983 
L 324.072196 163.188 
L 323.477059 161.298 
L 322.833536 159.408 
L 322.193455 157.663171 
L 322.143133 157.518 
L 321.45589 155.628 
L 320.714242 153.738 
L 320.164364 152.424129 
L 319.935244 151.848 
L 319.14434 149.958 
L 318.291401 148.068 
L 318.135273 147.736198 
L 317.4345 146.178 
L 316.523849 144.288 
L 316.106182 143.46421 
L 315.587445 142.398 
L 314.613208 140.508 
L 314.077091 139.522562 
L 313.602903 138.618 
L 312.557797 136.728 
L 312.048 135.851558 
L 311.477529 134.838 
L 310.352744 132.948 
L 310.018909 132.409476 
L 309.204755 131.058 
L 307.989818 129.168 
L 307.989818 129.168 
L 306.774587 127.278 
L 305.960727 126.085339 
L 305.495105 125.388 
L 304.173325 123.498 
L 303.931636 123.16355 
L 302.826831 121.608 
L 301.902545 120.371664 
L 301.420976 119.718 
L 299.965149 117.828 
L 299.873455 117.711835 
L 298.487498 115.938 
L 297.844364 115.149626 
L 296.952355 114.048 
L 295.815273 112.69903 
L 295.361335 112.158 
L 293.786182 110.349226 
L 293.715573 110.268 
L 292.034064 108.378 
L 291.757091 108.075628 
L 290.298961 106.488 
L 289.728 105.884234 
L 288.504893 104.598 
L 287.698909 103.772377 
L 286.651027 102.708 
L 285.669818 101.734275 
L 284.735922 100.818 
L 283.640727 99.765058 
L 282.757497 98.928 
L 281.611636 97.860686 
L 280.712977 97.038 
L 279.582545 96.017879 
L 278.598839 95.148 
L 277.553455 94.234052 
L 276.410747 93.258 
L 275.524364 92.507265 
L 274.143471 91.368 
L 273.495273 90.836177 
L 271.790806 89.478 
L 271.466182 89.220013 
L 269.437091 87.653768 
L 269.349888 87.588 
L 267.408 86.120821 
L 266.827154 85.698 
L 265.378909 84.638863 
L 264.196212 83.808 
L 263.349818 83.208951 
L 261.445441 81.918 
L 261.320727 81.832591 
L 259.291636 80.476559 
L 258.589867 80.028 
L 257.262545 79.167072 
L 255.592518 78.138 
L 255.233455 77.912879 
L 253.204364 76.681704 
L 252.455705 76.248 
L 251.175273 75.489929 
L 249.146182 74.358 
L 249.146182 74.358 
L 247.117091 73.226345 
L 245.666156 72.468 
L 245.088 72.157049 
L 243.058909 71.109366 
L 241.97076 70.578 
L 241.029818 70.103149 
L 239.000727 69.129683 
L 238.029595 68.688 
L 236.971636 68.188633 
L 234.942545 67.281179 
L 233.79787 66.798 
L 232.913455 66.408964 
L 230.884364 65.560736 
L 229.211493 64.908 
L 228.855273 64.762574 
L 226.826182 63.968103 
L 224.797091 63.231414 
L 224.178563 63.018 
L 222.768 62.505815 
L 220.738909 61.815006 
L 218.709818 61.174872 
L 218.553964 61.128 
L 216.680727 60.531795 
L 214.651636 59.932384 
L 212.622545 59.378043 
L 212.078252 59.238 
L 210.593455 58.831534 
L 208.564364 58.315295 
L 206.535273 57.839886 
L 204.506182 57.403107 
L 204.231622 57.348 
L 202.477091 56.970757 
L 200.448 56.571151 
L 198.418909 56.207671 
L 196.389818 55.878747 
L 194.360727 55.582974 
L 193.4058 55.458 
L 192.331636 55.306207 
L 190.302545 55.051534 
L 188.273455 54.829588 
L 186.244364 54.639548 
L 184.215273 54.480751 
L 182.186182 54.352689 
L 180.157091 54.255006 
L 178.128 54.187503 
L 176.098909 54.150136 
L 174.069818 54.143013 
L 172.040727 54.166404 
L 170.011636 54.220736 
L 167.982545 54.3066 
L 165.953455 54.424754 
L 163.924364 54.576129 
L 161.895273 54.76183 
L 159.866182 54.983149 
L 157.837091 55.241566 
L 156.352178 55.458 
L 155.808 55.532439 
L 153.778909 55.844163 
L 151.749818 56.195897 
L 149.720727 56.589929 
L 147.691636 57.028785 
L 146.347895 57.348 
L 145.662545 57.502774 
L 143.633455 58.000484 
L 141.604364 58.549241 
L 139.575273 59.152591 
L 139.305594 59.238 
L 137.546182 59.773593 
L 135.517091 60.448114 
L 133.643854 61.128 
L 133.488 61.182713 
L 131.458909 61.935821 
L 129.429818 62.760013 
L 128.830704 63.018 
L 127.400727 63.619017 
L 125.371636 64.540472 
L 124.609211 64.908 
L 123.342545 65.507956 
L 121.313455 66.541782 
L 120.835539 66.798 
L 119.284364 67.620686 
L 117.417727 68.688 
L 117.255273 68.780296 
L 115.226182 69.984219 
L 114.28524 70.578 
L 113.197091 71.265075 
L 111.404155 72.468 
L 111.168 72.627265 
L 109.138909 74.055628 
L 108.728258 74.358 
L 107.109818 75.564402 
L 106.234774 76.248 
L 105.080727 77.165035 
L 103.906429 78.138 
L 103.051636 78.861886 
L 101.724315 80.028 
L 101.022545 80.661256 
L 99.673313 81.918 
L 98.993455 82.571664 
L 97.741523 83.808 
L 96.964364 84.604198 
L 95.919795 85.698 
L 94.935273 86.772939 
L 94.201367 87.588 
L 92.906182 89.095499 
L 92.581558 89.478 
L 91.048077 91.368 
L 90.877091 91.587967 
L 89.585639 93.258 
L 88.848 94.271558 
L 88.210521 95.148 
L 86.917997 97.038 
L 86.818909 97.189319 
L 85.673048 98.928 
L 84.789818 100.372845 
L 84.514744 100.818 
L 83.404835 102.708 
L 82.760727 103.887838 
L 82.366152 104.598 
L 81.376884 106.488 
L 80.731636 107.819954 
L 80.454664 108.378 
L 79.569817 110.268 
L 78.761285 112.158 
L 78.702545 112.303171 
L 77.972625 114.048 
L 77.248464 115.938 
L 76.673455 117.576807 
L 76.58176 117.828 
L 75.934008 119.718 
L 75.344866 121.608 
L 74.810528 123.498 
L 74.644364 124.13637 
L 74.301656 125.388 
L 73.830504 127.278 
L 73.407474 129.168 
L 73.029855 131.058 
L 72.69519 132.948 
L 72.615273 133.454876 
L 72.38291 134.838 
L 72.105476 136.728 
L 71.86787 138.618 
L 71.668502 140.508 
L 71.505987 142.398 
L 71.379138 144.288 
L 71.286955 146.178 
L 71.228624 148.068 
L 71.203512 149.958 
L 71.211158 151.848 
L 71.251276 153.738 
L 71.323747 155.628 
L 71.428618 157.518 
L 71.566105 159.408 
L 71.736589 161.298 
L 71.940614 163.188 
L 72.178893 165.078 
L 72.452309 166.968 
L 72.615273 167.968532 
L 72.749444 168.858 
L 73.066983 170.748 
L 73.420114 172.638 
L 73.810343 174.528 
L 74.239358 176.418 
L 74.644364 178.052261 
L 74.703526 178.308 
L 75.172449 180.198 
L 75.682845 182.088 
L 76.237075 183.978 
L 76.673455 185.361017 
L 76.823804 185.868 
L 77.418941 187.758 
L 78.062464 189.648 
L 78.702545 191.392829 
L 78.752867 191.538 
L 79.44011 193.428 
L 80.181758 195.318 
L 80.731636 196.631871 
L 80.960756 197.208 
L 81.75166 199.098 
L 82.604599 200.988 
L 82.760727 201.319802 
L 83.4615 202.878 
L 84.372151 204.768 
L 84.789818 205.59179 
L 85.308555 206.658 
L 86.282792 208.548 
L 86.818909 209.533438 
L 87.293097 210.438 
L 88.338203 212.328 
L 88.848 213.204442 
L 89.418471 214.218 
L 90.543256 216.108 
L 90.877091 216.646524 
L 91.691245 217.998 
L 92.906182 219.888 
L 92.906182 219.888 
L 94.121413 221.778 
L 94.935273 222.970661 
L 95.400895 223.668 
L 96.722675 225.558 
L 96.964364 225.89245 
L 98.069169 227.448 
L 98.993455 228.684336 
L 99.475024 229.338 
L 100.930851 231.228 
L 101.022545 231.344165 
L 102.408502 233.118 
L 103.051636 233.906374 
L 103.943645 235.008 
L 105.080727 236.35697 
L 105.534665 236.898 
L 107.109818 238.706774 
L 107.180427 238.788 
L 108.861936 240.678 
L 109.138909 240.980372 
L 110.597039 242.568 
L 111.168 243.171766 
L 112.391107 244.458 
L 113.197091 245.283623 
L 114.244973 246.348 
L 115.226182 247.321725 
L 116.160078 248.238 
L 117.255273 249.290942 
L 118.138503 250.128 
L 119.284364 251.195314 
L 120.183023 252.018 
L 121.313455 253.038121 
L 122.297161 253.908 
L 123.342545 254.821948 
L 124.485253 255.798 
L 125.371636 256.548735 
L 126.752529 257.688 
L 127.400727 258.219823 
L 129.105194 259.578 
L 129.429818 259.835987 
L 131.458909 261.402232 
L 131.546112 261.468 
L 133.488 262.935179 
L 134.068846 263.358 
L 135.517091 264.417137 
L 136.699788 265.248 
L 137.546182 265.847049 
L 139.450559 267.138 
L 139.575273 267.223409 
L 141.604364 268.579441 
L 142.306133 269.028 
L 143.633455 269.888928 
L 145.303482 270.918 
L 145.662545 271.143121 
L 147.691636 272.374296 
L 148.440295 272.808 
L 149.720727 273.566071 
L 151.749818 274.698 
L 151.749818 274.698 
L 153.778909 275.829655 
L 155.229844 276.588 
L 155.808 276.898951 
L 157.837091 277.946634 
L 158.92524 278.478 
L 159.866182 278.952851 
L 161.895273 279.926317 
L 162.866405 280.368 
L 163.924364 280.867367 
L 165.953455 281.774821 
L 167.09813 282.258 
L 167.982545 282.647036 
L 170.011636 283.495264 
L 171.684507 284.148 
L 172.040727 284.293426 
L 174.069818 285.087897 
L 176.098909 285.824586 
L 176.717437 286.038 
L 178.128 286.550185 
L 180.157091 287.240994 
L 182.186182 287.881128 
L 182.342036 287.928 
L 184.215273 288.524205 
L 186.244364 289.123616 
L 188.273455 289.677957 
L 188.817748 289.818 
L 190.302545 290.224466 
L 192.331636 290.740705 
L 194.360727 291.216114 
L 196.389818 291.652893 
L 196.664378 291.708 
L 198.418909 292.085243 
L 200.448 292.484849 
L 202.477091 292.848329 
L 204.506182 293.177253 
L 206.535273 293.473026 
L 207.4902 293.598 
L 208.564364 293.749793 
z
" clip-path="url(#p76928d1be8)" style="fill: none; stroke: #450457; stroke-opacity: 0.996094"/>
    <path d="M 214.651636 286.191859 
L 216.680727 286.338669 
L 218.709818 286.451516 
L 220.738909 286.53069 
L 222.768 286.576298 
L 224.797091 286.588251 
L 226.826182 286.566272 
L 228.855273 286.509887 
L 230.884364 286.41842 
L 232.913455 286.290996 
L 234.942545 286.126526 
L 235.83519 286.038 
L 236.971636 285.933178 
L 239.000727 285.710339 
L 241.029818 285.448874 
L 243.058909 285.146805 
L 245.088 284.801906 
L 247.117091 284.411681 
L 248.350228 284.148 
L 249.146182 283.987037 
L 251.175273 283.535244 
L 253.204364 283.032081 
L 255.233455 282.473902 
L 255.958896 282.258 
L 257.262545 281.886544 
L 259.291636 281.255347 
L 261.320727 280.559341 
L 261.842908 280.368 
L 263.349818 279.834103 
L 265.378909 279.050536 
L 266.747039 278.478 
L 267.408 278.2086 
L 269.437091 277.325271 
L 270.994921 276.588 
L 271.466182 276.369138 
L 273.495273 275.36988 
L 274.760484 274.698 
L 275.524364 274.296871 
L 277.553455 273.160871 
L 278.149431 272.808 
L 279.582545 271.962377 
L 281.232487 270.918 
L 281.611636 270.677608 
L 283.640727 269.323706 
L 284.062797 269.028 
L 285.669818 267.891248 
L 286.67832 267.138 
L 287.698909 266.364277 
L 289.101567 265.248 
L 289.728 264.739235 
L 291.357475 263.358 
L 291.757091 263.010405 
L 293.465825 261.468 
L 293.786182 261.169603 
L 295.442097 259.578 
L 295.815273 259.205778 
L 297.298157 257.688 
L 297.844364 257.104508 
L 299.042791 255.798 
L 299.873455 254.84737 
L 300.682136 253.908 
L 301.902545 252.411138 
L 302.220014 252.018 
L 303.673553 250.128 
L 303.931636 249.774841 
L 305.052873 248.238 
L 305.960727 246.903123 
L 306.339567 246.348 
L 307.559168 244.458 
L 307.989818 243.746483 
L 308.711143 242.568 
L 309.78394 240.678 
L 310.018909 240.239044 
L 310.810438 238.788 
L 311.758774 236.898 
L 312.048 236.282347 
L 312.66267 235.008 
L 313.503903 233.118 
L 314.077091 231.714386 
L 314.282513 231.228 
L 315.029741 229.338 
L 315.707389 227.448 
L 316.106182 226.233714 
L 316.337973 225.558 
L 316.93723 223.668 
L 317.477422 221.778 
L 317.962464 219.888 
L 318.135273 219.146608 
L 318.418359 217.998 
L 318.837301 216.108 
L 319.207583 214.218 
L 319.531882 212.328 
L 319.812589 210.438 
L 320.051828 208.548 
L 320.164364 207.489455 
L 320.259404 206.658 
L 320.435979 204.768 
L 320.57278 202.878 
L 320.670978 200.988 
L 320.731513 199.098 
L 320.75511 197.208 
L 320.742277 195.318 
L 320.693313 193.428 
L 320.608311 191.538 
L 320.48716 189.648 
L 320.329546 187.758 
L 320.164364 186.15207 
L 320.137534 185.868 
L 319.925669 183.978 
L 319.6786 182.088 
L 319.395262 180.198 
L 319.074387 178.308 
L 318.714498 176.418 
L 318.313907 174.528 
L 318.135273 173.757417 
L 317.894079 172.638 
L 317.449077 170.748 
L 316.96084 168.858 
L 316.426881 166.968 
L 316.106182 165.914944 
L 315.867487 165.078 
L 315.289034 163.188 
L 314.660103 161.298 
L 314.077091 159.676769 
L 313.986038 159.408 
L 313.309982 157.518 
L 312.576949 155.628 
L 312.048 154.353653 
L 311.805748 153.738 
L 311.019691 151.848 
L 310.168241 149.958 
L 310.018909 149.640904 
L 309.312116 148.068 
L 308.398235 146.178 
L 307.989818 145.377341 
L 307.45721 144.288 
L 306.474214 142.398 
L 305.960727 141.464255 
L 305.454344 140.508 
L 304.393832 138.618 
L 303.931636 137.835179 
L 303.299155 136.728 
L 302.150863 134.838 
L 301.902545 134.444862 
L 300.98335 132.948 
L 299.873455 131.257246 
L 299.745935 131.058 
L 298.494425 129.168 
L 297.844364 128.238267 
L 297.186513 127.278 
L 295.815273 125.388 
L 295.815273 125.388 
L 294.433013 123.498 
L 293.786182 122.657887 
L 292.987803 121.608 
L 291.757091 120.065595 
L 291.482307 119.718 
L 289.933422 117.828 
L 289.728 117.584653 
L 288.34393 115.938 
L 287.698909 115.199948 
L 286.693285 114.048 
L 285.669818 112.916668 
L 284.982032 112.158 
L 283.640727 110.725467 
L 283.21008 110.268 
L 281.611636 108.618392 
L 281.376667 108.378 
L 279.582545 106.588732 
L 279.480318 106.488 
L 277.553455 104.630892 
L 277.518798 104.598 
L 275.524364 102.740281 
L 275.489051 102.708 
L 273.495273 100.91322 
L 273.387127 100.818 
L 271.466182 99.146862 
L 271.208099 98.928 
L 269.437091 97.439127 
L 268.945957 97.038 
L 267.408 95.78864 
L 266.593499 95.148 
L 265.378909 94.194691 
L 264.142186 93.258 
L 263.349818 92.657194 
L 261.581983 91.368 
L 261.320727 91.176659 
L 259.291636 89.733948 
L 258.918461 89.478 
L 257.262545 88.331651 
L 256.135394 87.588 
L 255.233455 86.985508 
L 253.204364 85.698 
L 253.204364 85.698 
L 251.175273 84.420756 
L 250.144337 83.808 
L 249.146182 83.2025 
L 247.117091 82.036778 
L 246.903182 81.918 
L 245.088 80.884186 
L 243.480979 80.028 
L 243.058909 79.796705 
L 241.029818 78.727126 
L 239.841159 78.138 
L 239.000727 77.707487 
L 236.971636 76.719672 
L 235.945008 76.248 
L 234.942545 75.769712 
L 232.913455 74.854099 
L 231.743946 74.358 
L 230.884364 73.97758 
L 228.855273 73.126344 
L 227.166614 72.468 
L 226.826182 72.328904 
L 224.797091 71.53582 
L 222.768 70.803646 
L 222.107039 70.578 
L 220.738909 70.08531 
L 218.709818 69.402524 
L 216.680727 68.772812 
L 216.392179 68.688 
L 214.651636 68.144952 
L 212.622545 67.559134 
L 210.593455 67.020333 
L 209.694918 66.798 
L 208.564364 66.499284 
L 206.535273 66.001927 
L 204.506182 65.547158 
L 202.477091 65.13266 
L 201.275293 64.908 
L 200.448 64.741611 
L 198.418909 64.36848 
L 196.389818 64.033261 
L 194.360727 63.734381 
L 192.331636 63.470465 
L 190.302545 63.240333 
L 188.273455 63.042991 
L 187.968479 63.018 
L 186.244364 62.864141 
L 184.215273 62.717331 
L 182.186182 62.604484 
L 180.157091 62.52531 
L 178.128 62.479702 
L 176.098909 62.467749 
L 174.069818 62.489728 
L 172.040727 62.546113 
L 170.011636 62.63758 
L 167.982545 62.765004 
L 165.953455 62.929474 
L 165.06081 63.018 
L 163.924364 63.122822 
L 161.895273 63.345661 
L 159.866182 63.607126 
L 157.837091 63.909195 
L 155.808 64.254094 
L 153.778909 64.644319 
L 152.545772 64.908 
L 151.749818 65.068963 
L 149.720727 65.520756 
L 147.691636 66.023919 
L 145.662545 66.582098 
L 144.937104 66.798 
L 143.633455 67.169456 
L 141.604364 67.800653 
L 139.575273 68.496659 
L 139.053092 68.688 
L 137.546182 69.221897 
L 135.517091 70.005464 
L 134.148961 70.578 
L 133.488 70.8474 
L 131.458909 71.730729 
L 129.901079 72.468 
L 129.429818 72.686862 
L 127.400727 73.68612 
L 126.135516 74.358 
L 125.371636 74.759129 
L 123.342545 75.895129 
L 122.746569 76.248 
L 121.313455 77.093623 
L 119.663513 78.138 
L 119.284364 78.378392 
L 117.255273 79.732294 
L 116.833203 80.028 
L 115.226182 81.164752 
L 114.21768 81.918 
L 113.197091 82.691723 
L 111.794433 83.808 
L 111.168 84.316765 
L 109.538525 85.698 
L 109.138909 86.045595 
L 107.430175 87.588 
L 107.109818 87.886397 
L 105.453903 89.478 
L 105.080727 89.850222 
L 103.597843 91.368 
L 103.051636 91.951492 
L 101.853209 93.258 
L 101.022545 94.20863 
L 100.213864 95.148 
L 98.993455 96.644862 
L 98.675986 97.038 
L 97.222447 98.928 
L 96.964364 99.281159 
L 95.843127 100.818 
L 94.935273 102.152877 
L 94.556433 102.708 
L 93.336832 104.598 
L 92.906182 105.309517 
L 92.184857 106.488 
L 91.11206 108.378 
L 90.877091 108.816956 
L 90.085562 110.268 
L 89.137226 112.158 
L 88.848 112.773653 
L 88.23333 114.048 
L 87.392097 115.938 
L 86.818909 117.341614 
L 86.613487 117.828 
L 85.866259 119.718 
L 85.188611 121.608 
L 84.789818 122.822286 
L 84.558027 123.498 
L 83.95877 125.388 
L 83.418578 127.278 
L 82.933536 129.168 
L 82.760727 129.909392 
L 82.477641 131.058 
L 82.058699 132.948 
L 81.688417 134.838 
L 81.364118 136.728 
L 81.083411 138.618 
L 80.844172 140.508 
L 80.731636 141.566545 
L 80.636596 142.398 
L 80.460021 144.288 
L 80.32322 146.178 
L 80.225022 148.068 
L 80.164487 149.958 
L 80.14089 151.848 
L 80.153723 153.738 
L 80.202687 155.628 
L 80.287689 157.518 
L 80.40884 159.408 
L 80.566454 161.298 
L 80.731636 162.90393 
L 80.758466 163.188 
L 80.970331 165.078 
L 81.2174 166.968 
L 81.500738 168.858 
L 81.821613 170.748 
L 82.181502 172.638 
L 82.582093 174.528 
L 82.760727 175.298583 
L 83.001921 176.418 
L 83.446923 178.308 
L 83.93516 180.198 
L 84.469119 182.088 
L 84.789818 183.141056 
L 85.028513 183.978 
L 85.606966 185.868 
L 86.235897 187.758 
L 86.818909 189.379231 
L 86.909962 189.648 
L 87.586018 191.538 
L 88.319051 193.428 
L 88.848 194.702347 
L 89.090252 195.318 
L 89.876309 197.208 
L 90.727759 199.098 
L 90.877091 199.415096 
L 91.583884 200.988 
L 92.497765 202.878 
L 92.906182 203.678659 
L 93.43879 204.768 
L 94.421786 206.658 
L 94.935273 207.591745 
L 95.441656 208.548 
L 96.502168 210.438 
L 96.964364 211.220821 
L 97.596845 212.328 
L 98.745137 214.218 
L 98.993455 214.611138 
L 99.91265 216.108 
L 101.022545 217.798754 
L 101.150065 217.998 
L 102.401575 219.888 
L 103.051636 220.817733 
L 103.709487 221.778 
L 105.080727 223.668 
L 105.080727 223.668 
L 106.462987 225.558 
L 107.109818 226.398113 
L 107.908197 227.448 
L 109.138909 228.990405 
L 109.413693 229.338 
L 110.962578 231.228 
L 111.168 231.471347 
L 112.55207 233.118 
L 113.197091 233.856052 
L 114.202715 235.008 
L 115.226182 236.139332 
L 115.913968 236.898 
L 117.255273 238.330533 
L 117.68592 238.788 
L 119.284364 240.437608 
L 119.519333 240.678 
L 121.313455 242.467268 
L 121.415682 242.568 
L 123.342545 244.425108 
L 123.377202 244.458 
L 125.371636 246.315719 
L 125.406949 246.348 
L 127.400727 248.14278 
L 127.508873 248.238 
L 129.429818 249.909138 
L 129.687901 250.128 
L 131.458909 251.616873 
L 131.950043 252.018 
L 133.488 253.26736 
L 134.302501 253.908 
L 135.517091 254.861309 
L 136.753814 255.798 
L 137.546182 256.398806 
L 139.314017 257.688 
L 139.575273 257.879341 
L 141.604364 259.322052 
L 141.977539 259.578 
L 143.633455 260.724349 
L 144.760606 261.468 
L 145.662545 262.070492 
L 147.691636 263.358 
L 147.691636 263.358 
L 149.720727 264.635244 
L 150.751663 265.248 
L 151.749818 265.8535 
L 153.778909 267.019222 
L 153.992818 267.138 
L 155.808 268.171814 
L 157.415021 269.028 
L 157.837091 269.259295 
L 159.866182 270.328874 
L 161.054841 270.918 
L 161.895273 271.348513 
L 163.924364 272.336328 
L 164.950992 272.808 
L 165.953455 273.286288 
L 167.982545 274.201901 
L 169.152054 274.698 
L 170.011636 275.07842 
L 172.040727 275.929656 
L 173.729386 276.588 
L 174.069818 276.727096 
L 176.098909 277.52018 
L 178.128 278.252354 
L 178.788961 278.478 
L 180.157091 278.97069 
L 182.186182 279.653476 
L 184.215273 280.283188 
L 184.503821 280.368 
L 186.244364 280.911048 
L 188.273455 281.496866 
L 190.302545 282.035667 
L 191.201082 282.258 
L 192.331636 282.556716 
L 194.360727 283.054073 
L 196.389818 283.508842 
L 198.418909 283.92334 
L 199.620707 284.148 
L 200.448 284.314389 
L 202.477091 284.68752 
L 204.506182 285.022739 
L 206.535273 285.321619 
L 208.564364 285.585535 
L 210.593455 285.815667 
L 212.622545 286.013009 
L 212.927521 286.038 
L 214.651636 286.191859 
z
" clip-path="url(#p76928d1be8)" style="fill: none; stroke: #450559; stroke-opacity: 0.996094"/>
    <path d="M 208.564364 276.721603 
L 210.593455 276.954274 
L 212.622545 277.149212 
L 214.651636 277.307268 
L 216.680727 277.429056 
L 218.709818 277.514962 
L 220.738909 277.565135 
L 222.768 277.579494 
L 224.797091 277.557721 
L 226.826182 277.499254 
L 228.855273 277.40329 
L 230.884364 277.268771 
L 232.913455 277.094377 
L 234.942545 276.878518 
L 236.971636 276.619324 
L 237.184021 276.588 
L 239.000727 276.337633 
L 241.029818 276.014057 
L 243.058909 275.643178 
L 245.088 275.221904 
L 247.117091 274.746785 
L 247.308229 274.698 
L 249.146182 274.252326 
L 251.175273 273.703451 
L 253.204364 273.091646 
L 254.069967 272.808 
L 255.233455 272.44177 
L 257.262545 271.743818 
L 259.291636 270.970027 
L 259.420267 270.918 
L 261.320727 270.171102 
L 263.349818 269.290196 
L 263.916019 269.028 
L 265.378909 268.364151 
L 267.408 267.358205 
L 267.827349 267.138 
L 269.437091 266.302419 
L 271.299244 265.248 
L 271.466182 265.15403 
L 273.495273 263.952308 
L 274.430925 263.358 
L 275.524364 262.661311 
L 277.274143 261.468 
L 277.553455 261.275778 
L 279.582545 259.806543 
L 279.883535 259.578 
L 281.611636 258.241714 
L 282.292647 257.688 
L 283.640727 256.564808 
L 284.521777 255.798 
L 285.669818 254.767639 
L 286.59272 253.908 
L 287.698909 252.838655 
L 288.522149 252.018 
L 289.728 250.762328 
L 290.322464 250.128 
L 291.757091 248.518357 
L 292.002453 248.238 
L 293.579813 246.348 
L 293.786182 246.087834 
L 295.067312 244.458 
L 295.815273 243.439515 
L 296.453318 242.568 
L 297.743478 240.678 
L 297.844364 240.522506 
L 298.976381 238.788 
L 299.873455 237.288604 
L 300.109865 236.898 
L 301.189842 235.008 
L 301.902545 233.645388 
L 302.184037 233.118 
L 303.129772 231.228 
L 303.931636 229.457813 
L 303.987492 229.338 
L 304.818229 227.448 
L 305.567545 225.558 
L 305.960727 224.474268 
L 306.265248 223.668 
L 306.922077 221.778 
L 307.511345 219.888 
L 307.989818 218.176036 
L 308.042193 217.998 
L 308.552278 216.108 
L 309.004555 214.218 
L 309.402728 212.328 
L 309.750117 210.438 
L 310.018909 208.745826 
L 310.052538 208.548 
L 310.330808 206.658 
L 310.562552 204.768 
L 310.74978 202.878 
L 310.894199 200.988 
L 310.997225 199.098 
L 311.059994 197.208 
L 311.083371 195.318 
L 311.067955 193.428 
L 311.014089 191.538 
L 310.921861 189.648 
L 310.79111 187.758 
L 310.621423 185.868 
L 310.412138 183.978 
L 310.162345 182.088 
L 310.018909 181.152227 
L 309.884453 180.198 
L 309.580565 178.308 
L 309.235948 176.418 
L 308.848758 174.528 
L 308.416882 172.638 
L 307.989818 170.948698 
L 307.942702 170.748 
L 307.462409 168.858 
L 306.933866 166.968 
L 306.353956 165.078 
L 305.960727 163.893601 
L 305.741255 163.188 
L 305.110716 161.298 
L 304.422427 159.408 
L 303.931636 158.156277 
L 303.695532 157.518 
L 302.951591 155.628 
L 302.141255 153.738 
L 301.902545 153.210612 
L 301.31642 151.848 
L 300.441188 149.958 
L 299.873455 148.811002 
L 299.522163 148.068 
L 298.575234 146.178 
L 297.844364 144.81971 
L 297.569632 144.288 
L 296.542138 142.398 
L 295.815273 141.149041 
L 295.455086 140.508 
L 294.335914 138.618 
L 293.786182 137.740803 
L 293.17 136.728 
L 291.945565 134.838 
L 291.757091 134.557643 
L 290.700711 132.948 
L 289.728 131.558676 
L 289.384649 131.058 
L 288.027925 129.168 
L 287.698909 128.727896 
L 286.631168 127.278 
L 285.669818 126.041261 
L 285.167847 125.388 
L 283.640727 123.498 
L 283.640727 123.498 
L 282.087087 121.608 
L 281.611636 121.054286 
L 280.466782 119.718 
L 279.582545 118.726154 
L 278.780681 117.828 
L 277.553455 116.501921 
L 277.028867 115.938 
L 275.524364 114.371732 
L 275.210605 114.048 
L 273.495273 112.32735 
L 273.32428 112.158 
L 271.466182 110.36197 
L 271.367338 110.268 
L 269.437091 108.470068 
L 269.336205 108.378 
L 267.408 106.647272 
L 267.226187 106.488 
L 265.378909 104.890251 
L 265.031352 104.598 
L 263.349818 103.196628 
L 262.744397 102.708 
L 261.320727 101.564898 
L 260.356476 100.818 
L 259.291636 99.994376 
L 257.857009 98.928 
L 257.262545 98.48514 
L 255.233455 97.038 
L 255.233455 97.038 
L 253.204364 95.615562 
L 252.503028 95.148 
L 251.175273 94.252549 
L 249.618675 93.258 
L 249.146182 92.951538 
L 247.117091 91.687815 
L 246.579568 91.368 
L 245.088 90.461967 
L 243.359898 89.478 
L 243.058909 89.302446 
L 241.029818 88.161943 
L 239.94248 87.588 
L 239.000727 87.075951 
L 236.971636 86.033497 
L 236.283419 85.698 
L 234.942545 85.02096 
L 232.913455 84.0639 
L 232.342614 83.808 
L 230.884364 83.127229 
L 228.855273 82.245211 
L 228.057591 81.918 
L 226.826182 81.389184 
L 224.797091 80.573948 
L 223.334201 80.028 
L 222.768 79.805654 
L 220.738909 79.050865 
L 218.709818 78.35792 
L 218.024568 78.138 
L 216.680727 77.680852 
L 214.651636 77.039744 
L 212.622545 76.452428 
L 211.865017 76.248 
L 210.593455 75.881726 
L 208.564364 75.341568 
L 206.535273 74.849256 
L 204.506182 74.401886 
L 204.290714 74.358 
L 202.477091 73.96021 
L 200.448 73.557939 
L 198.418909 73.19729 
L 196.389818 72.876296 
L 194.360727 72.59324 
L 193.336275 72.468 
L 192.331636 72.334397 
L 190.302545 72.101726 
L 188.273455 71.906788 
L 186.244364 71.748732 
L 184.215273 71.626944 
L 182.186182 71.541038 
L 180.157091 71.490865 
L 178.128 71.476506 
L 176.098909 71.498279 
L 174.069818 71.556746 
L 172.040727 71.65271 
L 170.011636 71.787229 
L 167.982545 71.961623 
L 165.953455 72.177482 
L 163.924364 72.436676 
L 163.711979 72.468 
L 161.895273 72.718367 
L 159.866182 73.041943 
L 157.837091 73.412822 
L 155.808 73.834096 
L 153.778909 74.309215 
L 153.587771 74.358 
L 151.749818 74.803674 
L 149.720727 75.352549 
L 147.691636 75.964354 
L 146.826033 76.248 
L 145.662545 76.61423 
L 143.633455 77.312182 
L 141.604364 78.085973 
L 141.475733 78.138 
L 139.575273 78.884898 
L 137.546182 79.765804 
L 136.979981 80.028 
L 135.517091 80.691849 
L 133.488 81.697795 
L 133.068651 81.918 
L 131.458909 82.753581 
L 129.596756 83.808 
L 129.429818 83.90197 
L 127.400727 85.103692 
L 126.465075 85.698 
L 125.371636 86.394689 
L 123.621857 87.588 
L 123.342545 87.780222 
L 121.313455 89.249457 
L 121.012465 89.478 
L 119.284364 90.814286 
L 118.603353 91.368 
L 117.255273 92.491192 
L 116.374223 93.258 
L 115.226182 94.288361 
L 114.30328 95.148 
L 113.197091 96.217345 
L 112.373851 97.038 
L 111.168 98.293672 
L 110.573536 98.928 
L 109.138909 100.537643 
L 108.893547 100.818 
L 107.316187 102.708 
L 107.109818 102.968166 
L 105.828688 104.598 
L 105.080727 105.616485 
L 104.442682 106.488 
L 103.152522 108.378 
L 103.051636 108.533494 
L 101.919619 110.268 
L 101.022545 111.767396 
L 100.786135 112.158 
L 99.706158 114.048 
L 98.993455 115.410612 
L 98.711963 115.938 
L 97.766228 117.828 
L 96.964364 119.598187 
L 96.908508 119.718 
L 96.077771 121.608 
L 95.328455 123.498 
L 94.935273 124.581732 
L 94.630752 125.388 
L 93.973923 127.278 
L 93.384655 129.168 
L 92.906182 130.879964 
L 92.853807 131.058 
L 92.343722 132.948 
L 91.891445 134.838 
L 91.493272 136.728 
L 91.145883 138.618 
L 90.877091 140.310174 
L 90.843462 140.508 
L 90.565192 142.398 
L 90.333448 144.288 
L 90.14622 146.178 
L 90.001801 148.068 
L 89.898775 149.958 
L 89.836006 151.848 
L 89.812629 153.738 
L 89.828045 155.628 
L 89.881911 157.518 
L 89.974139 159.408 
L 90.10489 161.298 
L 90.274577 163.188 
L 90.483862 165.078 
L 90.733655 166.968 
L 90.877091 167.903773 
L 91.011547 168.858 
L 91.315435 170.748 
L 91.660052 172.638 
L 92.047242 174.528 
L 92.479118 176.418 
L 92.906182 178.107302 
L 92.953298 178.308 
L 93.433591 180.198 
L 93.962134 182.088 
L 94.542044 183.978 
L 94.935273 185.162399 
L 95.154745 185.868 
L 95.785284 187.758 
L 96.473573 189.648 
L 96.964364 190.899723 
L 97.200468 191.538 
L 97.944409 193.428 
L 98.754745 195.318 
L 98.993455 195.845388 
L 99.57958 197.208 
L 100.454812 199.098 
L 101.022545 200.244998 
L 101.373837 200.988 
L 102.320766 202.878 
L 103.051636 204.23629 
L 103.326368 204.768 
L 104.353862 206.658 
L 105.080727 207.906959 
L 105.440914 208.548 
L 106.560086 210.438 
L 107.109818 211.315197 
L 107.726 212.328 
L 108.950435 214.218 
L 109.138909 214.498357 
L 110.195289 216.108 
L 111.168 217.497324 
L 111.511351 217.998 
L 112.868075 219.888 
L 113.197091 220.328104 
L 114.264832 221.778 
L 115.226182 223.014739 
L 115.728153 223.668 
L 117.255273 225.558 
L 117.255273 225.558 
L 118.808913 227.448 
L 119.284364 228.001714 
L 120.429218 229.338 
L 121.313455 230.329846 
L 122.115319 231.228 
L 123.342545 232.554079 
L 123.867133 233.118 
L 125.371636 234.684268 
L 125.685395 235.008 
L 127.400727 236.72865 
L 127.57172 236.898 
L 129.429818 238.69403 
L 129.528662 238.788 
L 131.458909 240.585932 
L 131.559795 240.678 
L 133.488 242.408728 
L 133.669813 242.568 
L 135.517091 244.165749 
L 135.864648 244.458 
L 137.546182 245.859372 
L 138.151603 246.348 
L 139.575273 247.491102 
L 140.539524 248.238 
L 141.604364 249.061624 
L 143.038991 250.128 
L 143.633455 250.57086 
L 145.662545 252.018 
L 145.662545 252.018 
L 147.691636 253.440438 
L 148.392972 253.908 
L 149.720727 254.803451 
L 151.277325 255.798 
L 151.749818 256.104462 
L 153.778909 257.368185 
L 154.316432 257.688 
L 155.808 258.594033 
L 157.536102 259.578 
L 157.837091 259.753554 
L 159.866182 260.894057 
L 160.95352 261.468 
L 161.895273 261.980049 
L 163.924364 263.022503 
L 164.612581 263.358 
L 165.953455 264.03504 
L 167.982545 264.9921 
L 168.553386 265.248 
L 170.011636 265.928771 
L 172.040727 266.810789 
L 172.838409 267.138 
L 174.069818 267.666816 
L 176.098909 268.482052 
L 177.561799 269.028 
L 178.128 269.250346 
L 180.157091 270.005135 
L 182.186182 270.69808 
L 182.871432 270.918 
L 184.215273 271.375148 
L 186.244364 272.016256 
L 188.273455 272.603572 
L 189.030983 272.808 
L 190.302545 273.174274 
L 192.331636 273.714432 
L 194.360727 274.206744 
L 196.389818 274.654114 
L 196.605286 274.698 
L 198.418909 275.09579 
L 200.448 275.498061 
L 202.477091 275.85871 
L 204.506182 276.179704 
L 206.535273 276.46276 
L 207.559725 276.588 
L 208.564364 276.721603 
z
" clip-path="url(#p76928d1be8)" style="fill: none; stroke: #46085c; stroke-opacity: 0.996094"/>
    <path d="M 210.593455 267.220525 
L 212.622545 267.397601 
L 214.651636 267.533533 
L 216.680727 267.628842 
L 218.709818 267.683744 
L 220.738909 267.698155 
L 222.768 267.671684 
L 224.797091 267.603624 
L 226.826182 267.492951 
L 228.855273 267.338309 
L 230.884364 267.138 
L 230.884364 267.138 
L 232.913455 266.91191 
L 234.942545 266.63957 
L 236.971636 266.318203 
L 239.000727 265.944624 
L 241.029818 265.515217 
L 242.153611 265.248 
L 243.058909 265.044346 
L 245.088 264.535541 
L 247.117091 263.96127 
L 249.018804 263.358 
L 249.146182 263.319278 
L 251.175273 262.652578 
L 253.204364 261.906044 
L 254.294376 261.468 
L 255.233455 261.101471 
L 257.262545 260.238699 
L 258.677854 259.578 
L 259.291636 259.296925 
L 261.320727 258.296725 
L 262.456447 257.688 
L 263.349818 257.213445 
L 265.378909 256.047218 
L 265.787572 255.798 
L 267.408 254.80837 
L 268.772229 253.908 
L 269.437091 253.46551 
L 271.466182 252.018 
L 271.466182 252.018 
L 273.495273 250.48025 
L 273.934544 250.128 
L 275.524364 248.819224 
L 276.196799 248.238 
L 277.553455 247.025265 
L 278.280561 246.348 
L 279.582545 245.084341 
L 280.206544 244.458 
L 281.611636 242.97716 
L 281.98981 242.568 
L 283.640727 240.678 
L 283.640727 240.678 
L 285.194764 238.788 
L 285.669818 238.168713 
L 286.636449 236.898 
L 287.698909 235.388649 
L 287.966468 235.008 
L 289.218521 233.118 
L 289.728 232.285868 
L 290.381523 231.228 
L 291.45533 229.338 
L 291.757091 228.766291 
L 292.466413 227.448 
L 293.392679 225.558 
L 293.786182 224.683294 
L 294.256463 223.668 
L 295.057936 221.778 
L 295.773701 219.888 
L 295.815273 219.769354 
L 296.462939 217.998 
L 297.079472 216.108 
L 297.625722 214.218 
L 297.844364 213.374758 
L 298.131246 212.328 
L 298.592255 210.438 
L 298.993326 208.548 
L 299.338344 206.658 
L 299.630726 204.768 
L 299.873455 202.878 
L 299.873455 202.878 
L 300.088505 200.988 
L 300.254528 199.098 
L 300.373345 197.208 
L 300.446413 195.318 
L 300.474833 193.428 
L 300.459361 191.538 
L 300.400419 189.648 
L 300.298096 187.758 
L 300.15216 185.868 
L 299.962052 183.978 
L 299.873455 183.26184 
L 299.740825 182.088 
L 299.486201 180.198 
L 299.188336 178.308 
L 298.845474 176.418 
L 298.455526 174.528 
L 298.016063 172.638 
L 297.844364 171.967946 
L 297.55482 170.748 
L 297.059537 168.858 
L 296.510463 166.968 
L 295.903871 165.078 
L 295.815273 164.820195 
L 295.290359 163.188 
L 294.624552 161.298 
L 293.893279 159.408 
L 293.786182 159.146799 
L 293.15608 157.518 
L 292.35847 155.628 
L 291.757091 154.309709 
L 291.509601 153.738 
L 290.639952 151.848 
L 289.728 150.035825 
L 289.690611 149.958 
L 288.740712 148.068 
L 287.698909 146.178 
L 287.698909 146.178 
L 286.657859 144.288 
L 285.669818 142.641723 
L 285.528403 142.398 
L 284.382347 140.508 
L 283.640727 139.367268 
L 283.166731 138.618 
L 281.898519 136.728 
L 281.611636 136.31884 
L 280.594688 134.838 
L 279.582545 133.456639 
L 279.216054 132.948 
L 277.785453 131.058 
L 277.553455 130.762874 
L 276.312374 129.168 
L 275.524364 128.207062 
L 274.767027 127.278 
L 273.495273 125.790891 
L 273.151313 125.388 
L 271.466182 123.498 
L 271.466182 123.498 
L 269.732788 121.608 
L 269.437091 121.296947 
L 267.922192 119.718 
L 267.408 119.198636 
L 266.032432 117.828 
L 265.378909 117.194124 
L 264.060305 115.938 
L 263.349818 115.276216 
L 262.001253 114.048 
L 261.320727 113.439275 
L 259.849222 112.158 
L 259.291636 111.679055 
L 257.596489 110.268 
L 257.262545 109.992573 
L 255.233455 108.378 
L 255.233455 108.378 
L 253.204364 106.808382 
L 252.771823 106.488 
L 251.175273 105.303422 
L 250.177839 104.598 
L 249.146182 103.864006 
L 247.433936 102.708 
L 247.117091 102.491904 
L 245.088 101.159369 
L 244.541928 100.818 
L 243.058909 99.875238 
L 241.469089 98.928 
L 241.029818 98.660783 
L 239.000727 97.479505 
L 238.196318 97.038 
L 236.971636 96.347217 
L 234.942545 95.279721 
L 234.680886 95.148 
L 232.913455 94.227688 
L 230.884364 93.258 
L 230.884364 93.258 
L 228.855273 92.287611 
L 226.826182 91.402826 
L 226.74263 91.368 
L 224.797091 90.51856 
L 222.768 89.708525 
L 222.154217 89.478 
L 220.738909 88.917845 
L 218.709818 88.17491 
L 216.961151 87.588 
L 216.680727 87.488244 
L 214.651636 86.807098 
L 212.622545 86.186932 
L 210.870232 85.698 
L 210.593455 85.615475 
L 208.564364 85.050464 
L 206.535273 84.539028 
L 204.506182 84.077696 
L 203.196456 83.808 
L 202.477091 83.64807 
L 200.448 83.238732 
L 198.418909 82.875514 
L 196.389818 82.556154 
L 194.360727 82.278708 
L 192.331636 82.041538 
L 191.07141 81.918 
L 190.302545 81.835475 
L 188.273455 81.658399 
L 186.244364 81.522467 
L 184.215273 81.427158 
L 182.186182 81.372256 
L 180.157091 81.357845 
L 178.128 81.384316 
L 176.098909 81.452376 
L 174.069818 81.563049 
L 172.040727 81.717691 
L 170.011636 81.918 
L 170.011636 81.918 
L 167.982545 82.14409 
L 165.953455 82.41643 
L 163.924364 82.737797 
L 161.895273 83.111376 
L 159.866182 83.540783 
L 158.742389 83.808 
L 157.837091 84.011654 
L 155.808 84.520459 
L 153.778909 85.09473 
L 151.877196 85.698 
L 151.749818 85.736722 
L 149.720727 86.403422 
L 147.691636 87.149956 
L 146.601624 87.588 
L 145.662545 87.954529 
L 143.633455 88.817301 
L 142.218146 89.478 
L 141.604364 89.759075 
L 139.575273 90.759275 
L 138.439553 91.368 
L 137.546182 91.842555 
L 135.517091 93.008782 
L 135.108428 93.258 
L 133.488 94.24763 
L 132.123771 95.148 
L 131.458909 95.59049 
L 129.429818 97.038 
L 129.429818 97.038 
L 127.400727 98.57575 
L 126.961456 98.928 
L 125.371636 100.236776 
L 124.699201 100.818 
L 123.342545 102.030735 
L 122.615439 102.708 
L 121.313455 103.971659 
L 120.689456 104.598 
L 119.284364 106.07884 
L 118.90619 106.488 
L 117.255273 108.378 
L 117.255273 108.378 
L 115.701236 110.268 
L 115.226182 110.887287 
L 114.259551 112.158 
L 113.197091 113.667351 
L 112.929532 114.048 
L 111.677479 115.938 
L 111.168 116.770132 
L 110.514477 117.828 
L 109.44067 119.718 
L 109.138909 120.289709 
L 108.429587 121.608 
L 107.503321 123.498 
L 107.109818 124.372706 
L 106.639537 125.388 
L 105.838064 127.278 
L 105.122299 129.168 
L 105.080727 129.286646 
L 104.433061 131.058 
L 103.816528 132.948 
L 103.270278 134.838 
L 103.051636 135.681242 
L 102.764754 136.728 
L 102.303745 138.618 
L 101.902674 140.508 
L 101.557656 142.398 
L 101.265274 144.288 
L 101.022545 146.178 
L 101.022545 146.178 
L 100.807495 148.068 
L 100.641472 149.958 
L 100.522655 151.848 
L 100.449587 153.738 
L 100.421167 155.628 
L 100.436639 157.518 
L 100.495581 159.408 
L 100.597904 161.298 
L 100.74384 163.188 
L 100.933948 165.078 
L 101.022545 165.79416 
L 101.155175 166.968 
L 101.409799 168.858 
L 101.707664 170.748 
L 102.050526 172.638 
L 102.440474 174.528 
L 102.879937 176.418 
L 103.051636 177.088054 
L 103.34118 178.308 
L 103.836463 180.198 
L 104.385537 182.088 
L 104.992129 183.978 
L 105.080727 184.235805 
L 105.605641 185.868 
L 106.271448 187.758 
L 107.002721 189.648 
L 107.109818 189.909201 
L 107.73992 191.538 
L 108.53753 193.428 
L 109.138909 194.746291 
L 109.386399 195.318 
L 110.256048 197.208 
L 111.168 199.020175 
L 111.205389 199.098 
L 112.155288 200.988 
L 113.197091 202.878 
L 113.197091 202.878 
L 114.238141 204.768 
L 115.226182 206.414277 
L 115.367597 206.658 
L 116.513653 208.548 
L 117.255273 209.688732 
L 117.729269 210.438 
L 118.997481 212.328 
L 119.284364 212.73716 
L 120.301312 214.218 
L 121.313455 215.599361 
L 121.679946 216.108 
L 123.110547 217.998 
L 123.342545 218.293126 
L 124.583626 219.888 
L 125.371636 220.848938 
L 126.128973 221.778 
L 127.400727 223.265109 
L 127.744687 223.668 
L 129.429818 225.558 
L 129.429818 225.558 
L 131.163212 227.448 
L 131.458909 227.759053 
L 132.973808 229.338 
L 133.488 229.857364 
L 134.863568 231.228 
L 135.517091 231.861876 
L 136.835695 233.118 
L 137.546182 233.779784 
L 138.894747 235.008 
L 139.575273 235.616725 
L 141.046778 236.898 
L 141.604364 237.376945 
L 143.299511 238.788 
L 143.633455 239.063427 
L 145.662545 240.678 
L 145.662545 240.678 
L 147.691636 242.247618 
L 148.124177 242.568 
L 149.720727 243.752578 
L 150.718161 244.458 
L 151.749818 245.191994 
L 153.462064 246.348 
L 153.778909 246.564096 
L 155.808 247.896631 
L 156.354072 248.238 
L 157.837091 249.180762 
L 159.426911 250.128 
L 159.866182 250.395217 
L 161.895273 251.576495 
L 162.699682 252.018 
L 163.924364 252.708783 
L 165.953455 253.776279 
L 166.215114 253.908 
L 167.982545 254.828312 
L 170.011636 255.798 
L 170.011636 255.798 
L 172.040727 256.768389 
L 174.069818 257.653174 
L 174.15337 257.688 
L 176.098909 258.53744 
L 178.128 259.347475 
L 178.741783 259.578 
L 180.157091 260.138155 
L 182.186182 260.88109 
L 183.934849 261.468 
L 184.215273 261.567756 
L 186.244364 262.248902 
L 188.273455 262.869068 
L 190.025768 263.358 
L 190.302545 263.440525 
L 192.331636 264.005536 
L 194.360727 264.516972 
L 196.389818 264.978304 
L 197.699544 265.248 
L 198.418909 265.40793 
L 200.448 265.817268 
L 202.477091 266.180486 
L 204.506182 266.499846 
L 206.535273 266.777292 
L 208.564364 267.014462 
L 209.82459 267.138 
L 210.593455 267.220525 
z
" clip-path="url(#p76928d1be8)" style="fill: none; stroke: #470e61; stroke-opacity: 0.996094"/>
    <path d="M 206.535273 256.007738 
L 208.564364 256.244084 
L 210.593455 256.433597 
L 212.622545 256.577338 
L 214.651636 256.675962 
L 216.680727 256.729721 
L 218.709818 256.738458 
L 220.738909 256.701606 
L 222.768 256.61817 
L 224.797091 256.486723 
L 226.826182 256.305386 
L 228.855273 256.071806 
L 230.782053 255.798 
L 230.884364 255.784479 
L 232.913455 255.468267 
L 234.942545 255.094253 
L 236.971636 254.657987 
L 239.000727 254.154395 
L 239.886447 253.908 
L 241.029818 253.60521 
L 243.058909 253.002029 
L 245.088 252.316815 
L 245.892962 252.018 
L 247.117091 251.578532 
L 249.146182 250.769722 
L 250.595308 250.128 
L 251.175273 249.876656 
L 253.204364 248.921343 
L 254.519491 248.238 
L 255.233455 247.870469 
L 257.262545 246.736227 
L 257.907227 246.348 
L 259.291636 245.511659 
L 260.891393 244.458 
L 261.320727 244.171936 
L 263.349818 242.723992 
L 263.556821 242.568 
L 265.378909 241.161009 
L 265.96756 240.678 
L 267.408 239.456168 
L 268.156263 238.788 
L 269.437091 237.594971 
L 270.154432 236.898 
L 271.466182 235.5563 
L 271.984736 235.008 
L 273.495273 233.310813 
L 273.662745 233.118 
L 275.217247 231.228 
L 275.524364 230.828096 
L 276.655564 229.338 
L 277.553455 228.04849 
L 277.970253 227.448 
L 279.187967 225.558 
L 279.582545 224.892978 
L 280.316178 223.668 
L 281.341795 221.778 
L 281.611636 221.237791 
L 282.300585 219.888 
L 283.168917 217.998 
L 283.640727 216.857783 
L 283.961533 216.108 
L 284.697173 214.218 
L 285.344745 212.328 
L 285.669818 211.263005 
L 285.934346 210.438 
L 286.474999 208.548 
L 286.943371 206.658 
L 287.34491 204.768 
L 287.684393 202.878 
L 287.698909 202.782703 
L 287.992866 200.988 
L 288.243635 199.098 
L 288.438318 197.208 
L 288.579438 195.318 
L 288.669014 193.428 
L 288.708579 191.538 
L 288.699198 189.648 
L 288.641483 187.758 
L 288.535601 185.868 
L 288.381282 183.978 
L 288.177822 182.088 
L 287.924082 180.198 
L 287.698909 178.800402 
L 287.626421 178.308 
L 287.302427 176.418 
L 286.927593 174.528 
L 286.499154 172.638 
L 286.013881 170.748 
L 285.669818 169.544422 
L 285.487926 168.858 
L 284.937156 166.968 
L 284.3231 165.078 
L 283.640727 163.188 
L 283.640727 163.188 
L 282.95773 161.298 
L 282.201308 159.408 
L 281.611636 158.058209 
L 281.388586 157.518 
L 280.55265 155.628 
L 279.629039 153.738 
L 279.582545 153.647428 
L 278.7004 151.848 
L 277.678864 149.958 
L 277.553455 149.736984 
L 276.642321 148.068 
L 275.524364 146.203058 
L 275.509848 146.178 
L 274.367919 144.288 
L 273.495273 142.958034 
L 273.137412 142.398 
L 271.857768 140.508 
L 271.466182 139.9597 
L 270.525667 138.618 
L 269.437091 137.167235 
L 269.112018 136.728 
L 267.639846 134.838 
L 267.408 134.552283 
L 266.113809 132.948 
L 265.378909 132.084154 
L 264.506607 131.058 
L 263.349818 129.760584 
L 262.819131 129.168 
L 261.320727 127.564064 
L 261.050886 127.278 
L 259.291636 125.48035 
L 259.199892 125.388 
L 257.262545 123.498 
L 257.262545 123.498 
L 255.233455 121.608 
L 255.233455 121.608 
L 253.204364 119.803456 
L 253.105217 119.718 
L 251.175273 118.079344 
L 250.868156 117.828 
L 249.146182 116.432309 
L 248.509988 115.938 
L 247.117091 114.860507 
L 246.015419 114.048 
L 245.088 113.363477 
L 243.365653 112.158 
L 243.058909 111.942047 
L 241.029818 110.57079 
L 240.558258 110.268 
L 239.000727 109.254044 
L 237.560288 108.378 
L 236.971636 108.013256 
L 234.942545 106.82133 
L 234.341297 106.488 
L 232.913455 105.675172 
L 230.884364 104.611521 
L 230.857461 104.598 
L 228.855273 103.556676 
L 227.063463 102.708 
L 226.826182 102.591187 
L 224.797091 101.639676 
L 222.865237 100.818 
L 222.768 100.774694 
L 220.738909 99.914394 
L 218.709818 99.13576 
L 218.129854 98.928 
L 216.680727 98.37875 
L 214.651636 97.674179 
L 212.622545 97.038 
L 212.622545 97.038 
L 210.593455 96.402403 
L 208.564364 95.830439 
L 206.535273 95.317423 
L 205.798335 95.148 
L 204.506182 94.827522 
L 202.477091 94.375514 
L 200.448 93.976443 
L 198.418909 93.627304 
L 196.389818 93.325519 
L 195.861179 93.258 
L 194.360727 93.048262 
L 192.331636 92.811916 
L 190.302545 92.622403 
L 188.273455 92.478662 
L 186.244364 92.380038 
L 184.215273 92.326279 
L 182.186182 92.317542 
L 180.157091 92.354394 
L 178.128 92.43783 
L 176.098909 92.569277 
L 174.069818 92.750614 
L 172.040727 92.984194 
L 170.113947 93.258 
L 170.011636 93.271521 
L 167.982545 93.587733 
L 165.953455 93.961747 
L 163.924364 94.398013 
L 161.895273 94.901605 
L 161.009553 95.148 
L 159.866182 95.45079 
L 157.837091 96.053971 
L 155.808 96.739185 
L 155.003038 97.038 
L 153.778909 97.477468 
L 151.749818 98.286278 
L 150.300692 98.928 
L 149.720727 99.179344 
L 147.691636 100.134657 
L 146.376509 100.818 
L 145.662545 101.185531 
L 143.633455 102.319773 
L 142.988773 102.708 
L 141.604364 103.544341 
L 140.004607 104.598 
L 139.575273 104.884064 
L 137.546182 106.332008 
L 137.339179 106.488 
L 135.517091 107.894991 
L 134.92844 108.378 
L 133.488 109.599832 
L 132.739737 110.268 
L 131.458909 111.461029 
L 130.741568 112.158 
L 129.429818 113.4997 
L 128.911264 114.048 
L 127.400727 115.745187 
L 127.233255 115.938 
L 125.678753 117.828 
L 125.371636 118.227904 
L 124.240436 119.718 
L 123.342545 121.00751 
L 122.925747 121.608 
L 121.708033 123.498 
L 121.313455 124.163022 
L 120.579822 125.388 
L 119.554205 127.278 
L 119.284364 127.818209 
L 118.595415 129.168 
L 117.727083 131.058 
L 117.255273 132.198217 
L 116.934467 132.948 
L 116.198827 134.838 
L 115.551255 136.728 
L 115.226182 137.792995 
L 114.961654 138.618 
L 114.421001 140.508 
L 113.952629 142.398 
L 113.55109 144.288 
L 113.211607 146.178 
L 113.197091 146.273297 
L 112.903134 148.068 
L 112.652365 149.958 
L 112.457682 151.848 
L 112.316562 153.738 
L 112.226986 155.628 
L 112.187421 157.518 
L 112.196802 159.408 
L 112.254517 161.298 
L 112.360399 163.188 
L 112.514718 165.078 
L 112.718178 166.968 
L 112.971918 168.858 
L 113.197091 170.255598 
L 113.269579 170.748 
L 113.593573 172.638 
L 113.968407 174.528 
L 114.396846 176.418 
L 114.882119 178.308 
L 115.226182 179.511578 
L 115.408074 180.198 
L 115.958844 182.088 
L 116.5729 183.978 
L 117.255273 185.868 
L 117.255273 185.868 
L 117.93827 187.758 
L 118.694692 189.648 
L 119.284364 190.997791 
L 119.507414 191.538 
L 120.34335 193.428 
L 121.266961 195.318 
L 121.313455 195.408572 
L 122.1956 197.208 
L 123.217136 199.098 
L 123.342545 199.319016 
L 124.253679 200.988 
L 125.371636 202.852942 
L 125.386152 202.878 
L 126.528081 204.768 
L 127.400727 206.097966 
L 127.758588 206.658 
L 129.038232 208.548 
L 129.429818 209.0963 
L 130.370333 210.438 
L 131.458909 211.888765 
L 131.783982 212.328 
L 133.256154 214.218 
L 133.488 214.503717 
L 134.782191 216.108 
L 135.517091 216.971846 
L 136.389393 217.998 
L 137.546182 219.295416 
L 138.076869 219.888 
L 139.575273 221.491936 
L 139.845114 221.778 
L 141.604364 223.57565 
L 141.696108 223.668 
L 143.633455 225.558 
L 143.633455 225.558 
L 145.662545 227.448 
L 145.662545 227.448 
L 147.691636 229.252544 
L 147.790783 229.338 
L 149.720727 230.976656 
L 150.027844 231.228 
L 151.749818 232.623691 
L 152.386012 233.118 
L 153.778909 234.195493 
L 154.880581 235.008 
L 155.808 235.692523 
L 157.530347 236.898 
L 157.837091 237.113953 
L 159.866182 238.48521 
L 160.337742 238.788 
L 161.895273 239.801956 
L 163.335712 240.678 
L 163.924364 241.042744 
L 165.953455 242.23467 
L 166.554703 242.568 
L 167.982545 243.380828 
L 170.011636 244.444479 
L 170.038539 244.458 
L 172.040727 245.499324 
L 173.832537 246.348 
L 174.069818 246.464813 
L 176.098909 247.416324 
L 178.030763 248.238 
L 178.128 248.281306 
L 180.157091 249.141606 
L 182.186182 249.92024 
L 182.766146 250.128 
L 184.215273 250.67725 
L 186.244364 251.381821 
L 188.273455 252.018 
L 188.273455 252.018 
L 190.302545 252.653597 
L 192.331636 253.225561 
L 194.360727 253.738577 
L 195.097665 253.908 
L 196.389818 254.228478 
L 198.418909 254.680486 
L 200.448 255.079557 
L 202.477091 255.428696 
L 204.506182 255.730481 
L 205.034821 255.798 
L 206.535273 256.007738 
z
" clip-path="url(#p76928d1be8)" style="fill: none; stroke: #481a6c; stroke-opacity: 0.996094"/>
    <path d="M 200.448 242.595639 
L 202.477091 242.963261 
L 204.506182 243.272548 
L 206.535273 243.526052 
L 208.564364 243.725721 
L 210.593455 243.872914 
L 212.622545 243.968401 
L 214.651636 244.012367 
L 216.680727 244.004401 
L 218.709818 243.943484 
L 220.738909 243.827973 
L 222.768 243.655572 
L 224.797091 243.423305 
L 226.826182 243.127471 
L 228.855273 242.763605 
L 229.779346 242.568 
L 230.884364 242.347597 
L 232.913455 241.874933 
L 234.942545 241.321095 
L 236.971636 240.678 
L 236.971636 240.678 
L 239.000727 239.99519 
L 241.029818 239.208827 
L 242.005396 238.788 
L 243.058909 238.342527 
L 245.088 237.384725 
L 246.02168 236.898 
L 247.117091 236.329581 
L 249.146182 235.158144 
L 249.388624 235.008 
L 251.175273 233.889147 
L 252.297206 233.118 
L 253.204364 232.480695 
L 254.849614 231.228 
L 255.233455 230.925953 
L 257.118485 229.338 
L 257.262545 229.211137 
L 259.155437 227.448 
L 259.291636 227.313815 
L 260.996452 225.558 
L 261.320727 225.200471 
L 262.665612 223.668 
L 263.349818 222.823026 
L 264.177716 221.778 
L 265.378909 220.113823 
L 265.540102 219.888 
L 266.797749 217.998 
L 267.408 216.977678 
L 267.930544 216.108 
L 268.958834 214.218 
L 269.437091 213.236703 
L 269.888888 212.328 
L 270.733122 210.438 
L 271.466182 208.548 
L 271.466182 208.548 
L 272.156605 206.658 
L 272.7512 204.768 
L 273.258649 202.878 
L 273.495273 201.848729 
L 273.705273 200.988 
L 274.095917 199.098 
L 274.413522 197.208 
L 274.662883 195.318 
L 274.847971 193.428 
L 274.971983 191.538 
L 275.037383 189.648 
L 275.045936 187.758 
L 274.998734 185.868 
L 274.896219 183.978 
L 274.738194 182.088 
L 274.523831 180.198 
L 274.251671 178.308 
L 273.919622 176.418 
L 273.524946 174.528 
L 273.495273 174.403629 
L 273.107549 172.638 
L 272.629912 170.748 
L 272.084534 168.858 
L 271.466182 166.968 
L 271.466182 166.968 
L 270.838037 165.078 
L 270.131822 163.188 
L 269.437091 161.520445 
L 269.34976 161.298 
L 268.550652 159.408 
L 267.657436 157.518 
L 267.408 157.025948 
L 266.731607 155.628 
L 265.724186 153.738 
L 265.378909 153.133186 
L 264.672121 151.848 
L 263.532461 149.958 
L 263.349818 149.671063 
L 262.357486 148.068 
L 261.320727 146.535529 
L 261.084104 146.178 
L 259.759675 144.288 
L 259.291636 143.660629 
L 258.361092 142.398 
L 257.262545 141.007432 
L 256.870321 140.508 
L 255.295121 138.618 
L 255.233455 138.546622 
L 253.656161 136.728 
L 253.204364 136.232881 
L 251.918262 134.838 
L 251.175273 134.066853 
L 250.078825 132.948 
L 249.146182 132.031041 
L 248.132811 131.058 
L 247.117091 130.111906 
L 246.072441 129.168 
L 245.088 128.299288 
L 243.886807 127.278 
L 243.058909 126.585941 
L 241.561374 125.388 
L 241.029818 124.967173 
L 239.077359 123.498 
L 239.000727 123.44056 
L 236.971636 121.973339 
L 236.43545 121.608 
L 234.942545 120.584757 
L 233.586995 119.718 
L 232.913455 119.282045 
L 230.884364 118.048403 
L 230.500523 117.828 
L 228.855273 116.862309 
L 227.134236 115.938 
L 226.826182 115.767877 
L 224.797091 114.706339 
L 223.417324 114.048 
L 222.768 113.726391 
L 220.738909 112.788027 
L 219.238082 112.158 
L 218.709818 111.925663 
L 216.680727 111.093675 
L 214.651636 110.349345 
L 214.41282 110.268 
L 212.622545 109.620892 
L 210.593455 108.963086 
L 208.564364 108.378 
L 208.564364 108.378 
L 206.535273 107.802035 
L 204.506182 107.294042 
L 202.477091 106.849146 
L 200.581524 106.488 
L 200.448 106.460361 
L 198.418909 106.092739 
L 196.389818 105.783452 
L 194.360727 105.529948 
L 192.331636 105.330279 
L 190.302545 105.183086 
L 188.273455 105.087599 
L 186.244364 105.043633 
L 184.215273 105.051599 
L 182.186182 105.112516 
L 180.157091 105.228027 
L 178.128 105.400428 
L 176.098909 105.632695 
L 174.069818 105.928529 
L 172.040727 106.292395 
L 171.116654 106.488 
L 170.011636 106.708403 
L 167.982545 107.181067 
L 165.953455 107.734905 
L 163.924364 108.378 
L 163.924364 108.378 
L 161.895273 109.06081 
L 159.866182 109.847173 
L 158.890604 110.268 
L 157.837091 110.713473 
L 155.808 111.671275 
L 154.87432 112.158 
L 153.778909 112.726419 
L 151.749818 113.897856 
L 151.507376 114.048 
L 149.720727 115.166853 
L 148.598794 115.938 
L 147.691636 116.575305 
L 146.046386 117.828 
L 145.662545 118.130047 
L 143.777515 119.718 
L 143.633455 119.844863 
L 141.740563 121.608 
L 141.604364 121.742185 
L 139.899548 123.498 
L 139.575273 123.855529 
L 138.230388 125.388 
L 137.546182 126.232974 
L 136.718284 127.278 
L 135.517091 128.942177 
L 135.355898 129.168 
L 134.098251 131.058 
L 133.488 132.078322 
L 132.965456 132.948 
L 131.937166 134.838 
L 131.458909 135.819297 
L 131.007112 136.728 
L 130.162878 138.618 
L 129.429818 140.508 
L 129.429818 140.508 
L 128.739395 142.398 
L 128.1448 144.288 
L 127.637351 146.178 
L 127.400727 147.207271 
L 127.190727 148.068 
L 126.800083 149.958 
L 126.482478 151.848 
L 126.233117 153.738 
L 126.048029 155.628 
L 125.924017 157.518 
L 125.858617 159.408 
L 125.850064 161.298 
L 125.897266 163.188 
L 125.999781 165.078 
L 126.157806 166.968 
L 126.372169 168.858 
L 126.644329 170.748 
L 126.976378 172.638 
L 127.371054 174.528 
L 127.400727 174.652371 
L 127.788451 176.418 
L 128.266088 178.308 
L 128.811466 180.198 
L 129.429818 182.088 
L 129.429818 182.088 
L 130.057963 183.978 
L 130.764178 185.868 
L 131.458909 187.535555 
L 131.54624 187.758 
L 132.345348 189.648 
L 133.238564 191.538 
L 133.488 192.030052 
L 134.164393 193.428 
L 135.171814 195.318 
L 135.517091 195.922814 
L 136.223879 197.208 
L 137.363539 199.098 
L 137.546182 199.384937 
L 138.538514 200.988 
L 139.575273 202.520471 
L 139.811896 202.878 
L 141.136325 204.768 
L 141.604364 205.395371 
L 142.534908 206.658 
L 143.633455 208.048568 
L 144.025679 208.548 
L 145.600879 210.438 
L 145.662545 210.509378 
L 147.239839 212.328 
L 147.691636 212.823119 
L 148.977738 214.218 
L 149.720727 214.989147 
L 150.817175 216.108 
L 151.749818 217.024959 
L 152.763189 217.998 
L 153.778909 218.944094 
L 154.823559 219.888 
L 155.808 220.756712 
L 157.009193 221.778 
L 157.837091 222.470059 
L 159.334626 223.668 
L 159.866182 224.088827 
L 161.818641 225.558 
L 161.895273 225.61544 
L 163.924364 227.082661 
L 164.46055 227.448 
L 165.953455 228.471243 
L 167.309005 229.338 
L 167.982545 229.773955 
L 170.011636 231.007597 
L 170.395477 231.228 
L 172.040727 232.193691 
L 173.761764 233.118 
L 174.069818 233.288123 
L 176.098909 234.349661 
L 177.478676 235.008 
L 178.128 235.329609 
L 180.157091 236.267973 
L 181.657918 236.898 
L 182.186182 237.130337 
L 184.215273 237.962325 
L 186.244364 238.706655 
L 186.48318 238.788 
L 188.273455 239.435108 
L 190.302545 240.092914 
L 192.331636 240.678 
L 192.331636 240.678 
L 194.360727 241.253965 
L 196.389818 241.761958 
L 198.418909 242.206854 
L 200.314476 242.568 
L 200.448 242.595639 
z
" clip-path="url(#p76928d1be8)" style="fill: none; stroke: #472f7d; stroke-opacity: 0.996094"/>
    <path d="M 202.477091 227.554813 
L 204.506182 227.845533 
L 206.535273 228.06516 
L 208.564364 228.215442 
L 210.593455 228.297118 
L 212.622545 228.309911 
L 214.651636 228.252499 
L 216.680727 228.122485 
L 218.709818 227.916343 
L 220.738909 227.629353 
L 221.73883 227.448 
L 222.768 227.271574 
L 224.797091 226.841248 
L 226.826182 226.314017 
L 228.855273 225.679351 
L 229.195975 225.558 
L 230.884364 224.970466 
L 232.913455 224.14202 
L 233.933049 223.668 
L 234.942545 223.200011 
L 236.971636 222.129485 
L 237.571621 221.778 
L 239.000727 220.925271 
L 240.546355 219.888 
L 241.029818 219.552585 
L 243.058909 217.998 
L 243.058909 217.998 
L 245.088 216.238519 
L 245.228124 216.108 
L 247.117091 214.218 
L 247.117091 214.218 
L 248.786082 212.328 
L 249.146182 211.877677 
L 250.259789 210.438 
L 251.175273 209.106857 
L 251.552625 208.548 
L 252.701933 206.658 
L 253.204364 205.717703 
L 253.713268 204.768 
L 254.602682 202.878 
L 255.233455 201.305347 
L 255.363736 200.988 
L 256.04511 199.098 
L 256.611141 197.208 
L 257.073136 195.318 
L 257.262545 194.359378 
L 257.457245 193.428 
L 257.765355 191.538 
L 257.986668 189.648 
L 258.12625 187.758 
L 258.187887 185.868 
L 258.174153 183.978 
L 258.086465 182.088 
L 257.925124 180.198 
L 257.689335 178.308 
L 257.37722 176.418 
L 257.262545 175.857216 
L 257.012324 174.528 
L 256.583185 172.638 
L 256.073987 170.748 
L 255.478728 168.858 
L 255.233455 168.16896 
L 254.832043 166.968 
L 254.115971 165.078 
L 253.298025 163.188 
L 253.204364 162.989154 
L 252.444044 161.298 
L 251.483989 159.408 
L 251.175273 158.849143 
L 250.464793 157.518 
L 249.340881 155.628 
L 249.146182 155.32213 
L 248.159588 153.738 
L 247.117091 152.223304 
L 246.862282 151.848 
L 245.487036 149.958 
L 245.088 149.445658 
L 244.01574 148.068 
L 243.058909 146.925294 
L 242.428137 146.178 
L 241.029818 144.623415 
L 240.722969 144.288 
L 239.000727 142.50454 
L 238.895131 142.398 
L 236.971636 140.54203 
L 236.935102 140.508 
L 234.942545 138.716358 
L 234.828164 138.618 
L 232.913455 137.013816 
L 232.553355 136.728 
L 230.884364 135.425534 
L 230.082074 134.838 
L 228.855273 133.946758 
L 227.376229 132.948 
L 226.826182 132.576317 
L 224.797091 131.295342 
L 224.394167 131.058 
L 222.768 130.086964 
L 221.067289 129.168 
L 220.738909 128.986647 
L 218.709818 127.939778 
L 217.280712 127.278 
L 216.680727 126.990446 
L 214.651636 126.096201 
L 212.836025 125.388 
L 212.622545 125.300759 
L 210.593455 124.538882 
L 208.564364 123.871895 
L 207.275021 123.498 
L 206.535273 123.26954 
L 204.506182 122.715084 
L 202.477091 122.240792 
L 200.448 121.841069 
L 199.020963 121.608 
L 198.418909 121.501187 
L 196.389818 121.210467 
L 194.360727 120.99084 
L 192.331636 120.840558 
L 190.302545 120.758882 
L 188.273455 120.746089 
L 186.244364 120.803501 
L 184.215273 120.933515 
L 182.186182 121.139657 
L 180.157091 121.426647 
L 179.15717 121.608 
L 178.128 121.784426 
L 176.098909 122.214752 
L 174.069818 122.741983 
L 172.040727 123.376649 
L 171.700025 123.498 
L 170.011636 124.085534 
L 167.982545 124.91398 
L 166.962951 125.388 
L 165.953455 125.855989 
L 163.924364 126.926515 
L 163.324379 127.278 
L 161.895273 128.130729 
L 160.349645 129.168 
L 159.866182 129.503415 
L 157.837091 131.058 
L 157.837091 131.058 
L 155.808 132.817481 
L 155.667876 132.948 
L 153.778909 134.838 
L 153.778909 134.838 
L 152.109918 136.728 
L 151.749818 137.178323 
L 150.636211 138.618 
L 149.720727 139.949143 
L 149.343375 140.508 
L 148.194067 142.398 
L 147.691636 143.338297 
L 147.182732 144.288 
L 146.293318 146.178 
L 145.662545 147.750653 
L 145.532264 148.068 
L 144.85089 149.958 
L 144.284859 151.848 
L 143.822864 153.738 
L 143.633455 154.696622 
L 143.438755 155.628 
L 143.130645 157.518 
L 142.909332 159.408 
L 142.76975 161.298 
L 142.708113 163.188 
L 142.721847 165.078 
L 142.809535 166.968 
L 142.970876 168.858 
L 143.206665 170.748 
L 143.51878 172.638 
L 143.633455 173.198784 
L 143.883676 174.528 
L 144.312815 176.418 
L 144.822013 178.308 
L 145.417272 180.198 
L 145.662545 180.88704 
L 146.063957 182.088 
L 146.780029 183.978 
L 147.597975 185.868 
L 147.691636 186.066846 
L 148.451956 187.758 
L 149.412011 189.648 
L 149.720727 190.206857 
L 150.431207 191.538 
L 151.555119 193.428 
L 151.749818 193.73387 
L 152.736412 195.318 
L 153.778909 196.832696 
L 154.033718 197.208 
L 155.408964 199.098 
L 155.808 199.610342 
L 156.88026 200.988 
L 157.837091 202.130706 
L 158.467863 202.878 
L 159.866182 204.432585 
L 160.173031 204.768 
L 161.895273 206.55146 
L 162.000869 206.658 
L 163.924364 208.51397 
L 163.960898 208.548 
L 165.953455 210.339642 
L 166.067836 210.438 
L 167.982545 212.042184 
L 168.342645 212.328 
L 170.011636 213.630466 
L 170.813926 214.218 
L 172.040727 215.109242 
L 173.519771 216.108 
L 174.069818 216.479683 
L 176.098909 217.760658 
L 176.501833 217.998 
L 178.128 218.969036 
L 179.828711 219.888 
L 180.157091 220.069353 
L 182.186182 221.116222 
L 183.615288 221.778 
L 184.215273 222.065554 
L 186.244364 222.959799 
L 188.059975 223.668 
L 188.273455 223.755241 
L 190.302545 224.517118 
L 192.331636 225.184105 
L 193.620979 225.558 
L 194.360727 225.78646 
L 196.389818 226.340916 
L 198.418909 226.815208 
L 200.448 227.214931 
L 201.875037 227.448 
L 202.477091 227.554813 
z
" clip-path="url(#p76928d1be8)" style="fill: none; stroke: #33638d; stroke-opacity: 0.996094"/>
    <path d="M 202.477091 205.096458 
L 204.506182 205.306319 
L 206.535273 205.397819 
L 208.564364 205.368536 
L 210.593455 205.21326 
L 212.622545 204.9238 
L 213.365965 204.768 
L 214.651636 204.49857 
L 216.680727 203.921208 
L 218.709818 203.165573 
L 219.34426 202.878 
L 220.738909 202.217108 
L 222.768 201.036098 
L 222.84009 200.988 
L 224.797091 199.571647 
L 225.364828 199.098 
L 226.826182 197.73682 
L 227.334685 197.208 
L 228.855273 195.385148 
L 228.906911 195.318 
L 230.174834 193.428 
L 230.884364 192.128952 
L 231.1931 191.538 
L 232.004345 189.648 
L 232.624196 187.758 
L 232.913455 186.560459 
L 233.08072 185.868 
L 233.391482 183.978 
L 233.558186 182.088 
L 233.589624 180.198 
L 233.49139 178.308 
L 233.266084 176.418 
L 232.913455 174.528 
L 232.913455 174.528 
L 232.455766 172.638 
L 231.87037 170.748 
L 231.149281 168.858 
L 230.884364 168.267048 
L 230.310632 166.968 
L 229.3333 165.078 
L 228.855273 164.267261 
L 228.216197 163.188 
L 226.940687 161.298 
L 226.826182 161.143271 
L 225.510978 159.408 
L 224.797091 158.557458 
L 223.890504 157.518 
L 222.768 156.336156 
L 222.058471 155.628 
L 220.738909 154.398892 
L 219.978637 153.738 
L 218.709818 152.692442 
L 217.593863 151.848 
L 216.680727 151.183049 
L 214.817752 149.958 
L 214.651636 149.851344 
L 212.622545 148.663268 
L 211.463858 148.068 
L 210.593455 147.62274 
L 208.564364 146.712403 
L 207.169714 146.178 
L 206.535273 145.931243 
L 204.506182 145.259583 
L 202.477091 144.714314 
L 200.448 144.288 
L 200.448 144.288 
L 198.418909 143.959542 
L 196.389818 143.749681 
L 194.360727 143.658181 
L 192.331636 143.687464 
L 190.302545 143.84274 
L 188.273455 144.1322 
L 187.530035 144.288 
L 186.244364 144.55743 
L 184.215273 145.134792 
L 182.186182 145.890427 
L 181.55174 146.178 
L 180.157091 146.838892 
L 178.128 148.019902 
L 178.05591 148.068 
L 176.098909 149.484353 
L 175.531172 149.958 
L 174.069818 151.31918 
L 173.561315 151.848 
L 172.040727 153.670852 
L 171.989089 153.738 
L 170.721166 155.628 
L 170.011636 156.927048 
L 169.7029 157.518 
L 168.891655 159.408 
L 168.271804 161.298 
L 167.982545 162.495541 
L 167.81528 163.188 
L 167.504518 165.078 
L 167.337814 166.968 
L 167.306376 168.858 
L 167.40461 170.748 
L 167.629916 172.638 
L 167.982545 174.528 
L 167.982545 174.528 
L 168.440234 176.418 
L 169.02563 178.308 
L 169.746719 180.198 
L 170.011636 180.788952 
L 170.585368 182.088 
L 171.5627 183.978 
L 172.040727 184.788739 
L 172.679803 185.868 
L 173.955313 187.758 
L 174.069818 187.912729 
L 175.385022 189.648 
L 176.098909 190.498542 
L 177.005496 191.538 
L 178.128 192.719844 
L 178.837529 193.428 
L 180.157091 194.657108 
L 180.917363 195.318 
L 182.186182 196.363558 
L 183.302137 197.208 
L 184.215273 197.872951 
L 186.078248 199.098 
L 186.244364 199.204656 
L 188.273455 200.392732 
L 189.432142 200.988 
L 190.302545 201.43326 
L 192.331636 202.343597 
L 193.726286 202.878 
L 194.360727 203.124757 
L 196.389818 203.796417 
L 198.418909 204.341686 
L 200.448 204.768 
L 200.448 204.768 
L 202.477091 205.096458 
z
" clip-path="url(#p76928d1be8)" style="fill: none; stroke: #fde725; stroke-opacity: 0.996094"/>
   </g>
   <g id="patch_3">
    <path d="M 57.6 307.584 
L 57.6 41.472 
" style="fill: none; stroke: #000000; stroke-width: 0.8; stroke-linejoin: miter; stroke-linecap: square"/>
   </g>
   <g id="patch_4">
    <path d="M 343.296 307.584 
L 343.296 41.472 
" style="fill: none; stroke: #000000; stroke-width: 0.8; stroke-linejoin: miter; stroke-linecap: square"/>
   </g>
   <g id="patch_5">
    <path d="M 57.6 307.584 
L 343.296 307.584 
" style="fill: none; stroke: #000000; stroke-width: 0.8; stroke-linejoin: miter; stroke-linecap: square"/>
   </g>
   <g id="patch_6">
    <path d="M 57.6 41.472 
L 343.296 41.472 
" style="fill: none; stroke: #000000; stroke-width: 0.8; stroke-linejoin: miter; stroke-linecap: square"/>
   </g>
  </g>
  <g id="axes_2">
   <g id="patch_7">
    <path d="M 361.152 295.488 
L 374.4576 295.488 
L 374.4576 53.568 
L 361.152 53.568 
z
" style="fill: #ffffff"/>
   </g>
   <g id="matplotlib.axis_3"/>
   <g id="matplotlib.axis_4">
    <g id="ytick_5">
     <g id="line2d_19">
      <defs>
       <path id="mfe6d64dbe6" d="M 0 0 
L 3.5 0 
" style="stroke: #000000; stroke-width: 0.8"/>
      </defs>
      <g>
       <use xlink:href="#mfe6d64dbe6" x="374.4576" y="295.488" style="stroke: #000000; stroke-width: 0.8"/>
      </g>
     </g>
     <g id="text_12">
      <!-- 0.000295 -->
      <g transform="translate(381.4576 299.287219) scale(0.1 -0.1)">
       <defs>
        <path id="DejaVuSans-2e" d="M 684 794 
L 1344 794 
L 1344 0 
L 684 0 
L 684 794 
z
" transform="scale(0.015625)"/>
        <path id="DejaVuSans-39" d="M 703 97 
L 703 672 
Q 941 559 1184 500 
Q 1428 441 1663 441 
Q 2288 441 2617 861 
Q 2947 1281 2994 2138 
Q 2813 1869 2534 1725 
Q 2256 1581 1919 1581 
Q 1219 1581 811 2004 
Q 403 2428 403 3163 
Q 403 3881 828 4315 
Q 1253 4750 1959 4750 
Q 2769 4750 3195 4129 
Q 3622 3509 3622 2328 
Q 3622 1225 3098 567 
Q 2575 -91 1691 -91 
Q 1453 -91 1209 -44 
Q 966 3 703 97 
z
M 1959 2075 
Q 2384 2075 2632 2365 
Q 2881 2656 2881 3163 
Q 2881 3666 2632 3958 
Q 2384 4250 1959 4250 
Q 1534 4250 1286 3958 
Q 1038 3666 1038 3163 
Q 1038 2656 1286 2365 
Q 1534 2075 1959 2075 
z
" transform="scale(0.015625)"/>
        <path id="DejaVuSans-35" d="M 691 4666 
L 3169 4666 
L 3169 4134 
L 1269 4134 
L 1269 2991 
Q 1406 3038 1543 3061 
Q 1681 3084 1819 3084 
Q 2600 3084 3056 2656 
Q 3513 2228 3513 1497 
Q 3513 744 3044 326 
Q 2575 -91 1722 -91 
Q 1428 -91 1123 -41 
Q 819 9 494 109 
L 494 744 
Q 775 591 1075 516 
Q 1375 441 1709 441 
Q 2250 441 2565 725 
Q 2881 1009 2881 1497 
Q 2881 1984 2565 2268 
Q 2250 2553 1709 2553 
Q 1456 2553 1204 2497 
Q 953 2441 691 2322 
L 691 4666 
z
" transform="scale(0.015625)"/>
       </defs>
       <use xlink:href="#DejaVuSans-30"/>
       <use xlink:href="#DejaVuSans-2e" transform="translate(63.623047 0)"/>
       <use xlink:href="#DejaVuSans-30" transform="translate(95.410156 0)"/>
       <use xlink:href="#DejaVuSans-30" transform="translate(159.033203 0)"/>
       <use xlink:href="#DejaVuSans-30" transform="translate(222.65625 0)"/>
       <use xlink:href="#DejaVuSans-32" transform="translate(286.279297 0)"/>
       <use xlink:href="#DejaVuSans-39" transform="translate(349.902344 0)"/>
       <use xlink:href="#DejaVuSans-35" transform="translate(413.525391 0)"/>
      </g>
     </g>
    </g>
    <g id="ytick_6">
     <g id="line2d_20">
      <g>
       <use xlink:href="#mfe6d64dbe6" x="374.4576" y="268.608" style="stroke: #000000; stroke-width: 0.8"/>
      </g>
     </g>
     <g id="text_13">
      <!-- 0.000626 -->
      <g transform="translate(381.4576 272.407219) scale(0.1 -0.1)">
       <defs>
        <path id="DejaVuSans-36" d="M 2113 2584 
Q 1688 2584 1439 2293 
Q 1191 2003 1191 1497 
Q 1191 994 1439 701 
Q 1688 409 2113 409 
Q 2538 409 2786 701 
Q 3034 994 3034 1497 
Q 3034 2003 2786 2293 
Q 2538 2584 2113 2584 
z
M 3366 4563 
L 3366 3988 
Q 3128 4100 2886 4159 
Q 2644 4219 2406 4219 
Q 1781 4219 1451 3797 
Q 1122 3375 1075 2522 
Q 1259 2794 1537 2939 
Q 1816 3084 2150 3084 
Q 2853 3084 3261 2657 
Q 3669 2231 3669 1497 
Q 3669 778 3244 343 
Q 2819 -91 2113 -91 
Q 1303 -91 875 529 
Q 447 1150 447 2328 
Q 447 3434 972 4092 
Q 1497 4750 2381 4750 
Q 2619 4750 2861 4703 
Q 3103 4656 3366 4563 
z
" transform="scale(0.015625)"/>
       </defs>
       <use xlink:href="#DejaVuSans-30"/>
       <use xlink:href="#DejaVuSans-2e" transform="translate(63.623047 0)"/>
       <use xlink:href="#DejaVuSans-30" transform="translate(95.410156 0)"/>
       <use xlink:href="#DejaVuSans-30" transform="translate(159.033203 0)"/>
       <use xlink:href="#DejaVuSans-30" transform="translate(222.65625 0)"/>
       <use xlink:href="#DejaVuSans-36" transform="translate(286.279297 0)"/>
       <use xlink:href="#DejaVuSans-32" transform="translate(349.902344 0)"/>
       <use xlink:href="#DejaVuSans-36" transform="translate(413.525391 0)"/>
      </g>
     </g>
    </g>
    <g id="ytick_7">
     <g id="line2d_21">
      <g>
       <use xlink:href="#mfe6d64dbe6" x="374.4576" y="241.728" style="stroke: #000000; stroke-width: 0.8"/>
      </g>
     </g>
     <g id="text_14">
      <!-- 0.000955 -->
      <g transform="translate(381.4576 245.527219) scale(0.1 -0.1)">
       <use xlink:href="#DejaVuSans-30"/>
       <use xlink:href="#DejaVuSans-2e" transform="translate(63.623047 0)"/>
       <use xlink:href="#DejaVuSans-30" transform="translate(95.410156 0)"/>
       <use xlink:href="#DejaVuSans-30" transform="translate(159.033203 0)"/>
       <use xlink:href="#DejaVuSans-30" transform="translate(222.65625 0)"/>
       <use xlink:href="#DejaVuSans-39" transform="translate(286.279297 0)"/>
       <use xlink:href="#DejaVuSans-35" transform="translate(349.902344 0)"/>
       <use xlink:href="#DejaVuSans-35" transform="translate(413.525391 0)"/>
      </g>
     </g>
    </g>
    <g id="ytick_8">
     <g id="line2d_22">
      <g>
       <use xlink:href="#mfe6d64dbe6" x="374.4576" y="214.848" style="stroke: #000000; stroke-width: 0.8"/>
      </g>
     </g>
     <g id="text_15">
      <!-- 0.00135 -->
      <g transform="translate(381.4576 218.647219) scale(0.1 -0.1)">
       <defs>
        <path id="DejaVuSans-33" d="M 2597 2516 
Q 3050 2419 3304 2112 
Q 3559 1806 3559 1356 
Q 3559 666 3084 287 
Q 2609 -91 1734 -91 
Q 1441 -91 1130 -33 
Q 819 25 488 141 
L 488 750 
Q 750 597 1062 519 
Q 1375 441 1716 441 
Q 2309 441 2620 675 
Q 2931 909 2931 1356 
Q 2931 1769 2642 2001 
Q 2353 2234 1838 2234 
L 1294 2234 
L 1294 2753 
L 1863 2753 
Q 2328 2753 2575 2939 
Q 2822 3125 2822 3475 
Q 2822 3834 2567 4026 
Q 2313 4219 1838 4219 
Q 1578 4219 1281 4162 
Q 984 4106 628 3988 
L 628 4550 
Q 988 4650 1302 4700 
Q 1616 4750 1894 4750 
Q 2613 4750 3031 4423 
Q 3450 4097 3450 3541 
Q 3450 3153 3228 2886 
Q 3006 2619 2597 2516 
z
" transform="scale(0.015625)"/>
       </defs>
       <use xlink:href="#DejaVuSans-30"/>
       <use xlink:href="#DejaVuSans-2e" transform="translate(63.623047 0)"/>
       <use xlink:href="#DejaVuSans-30" transform="translate(95.410156 0)"/>
       <use xlink:href="#DejaVuSans-30" transform="translate(159.033203 0)"/>
       <use xlink:href="#DejaVuSans-31" transform="translate(222.65625 0)"/>
       <use xlink:href="#DejaVuSans-33" transform="translate(286.279297 0)"/>
       <use xlink:href="#DejaVuSans-35" transform="translate(349.902344 0)"/>
      </g>
     </g>
    </g>
    <g id="ytick_9">
     <g id="line2d_23">
      <g>
       <use xlink:href="#mfe6d64dbe6" x="374.4576" y="187.968" style="stroke: #000000; stroke-width: 0.8"/>
      </g>
     </g>
     <g id="text_16">
      <!-- 0.00201 -->
      <g transform="translate(381.4576 191.767219) scale(0.1 -0.1)">
       <use xlink:href="#DejaVuSans-30"/>
       <use xlink:href="#DejaVuSans-2e" transform="translate(63.623047 0)"/>
       <use xlink:href="#DejaVuSans-30" transform="translate(95.410156 0)"/>
       <use xlink:href="#DejaVuSans-30" transform="translate(159.033203 0)"/>
       <use xlink:href="#DejaVuSans-32" transform="translate(222.65625 0)"/>
       <use xlink:href="#DejaVuSans-30" transform="translate(286.279297 0)"/>
       <use xlink:href="#DejaVuSans-31" transform="translate(349.902344 0)"/>
      </g>
     </g>
    </g>
    <g id="ytick_10">
     <g id="line2d_24">
      <g>
       <use xlink:href="#mfe6d64dbe6" x="374.4576" y="161.088" style="stroke: #000000; stroke-width: 0.8"/>
      </g>
     </g>
     <g id="text_17">
      <!-- 0.00316 -->
      <g transform="translate(381.4576 164.887219) scale(0.1 -0.1)">
       <use xlink:href="#DejaVuSans-30"/>
       <use xlink:href="#DejaVuSans-2e" transform="translate(63.623047 0)"/>
       <use xlink:href="#DejaVuSans-30" transform="translate(95.410156 0)"/>
       <use xlink:href="#DejaVuSans-30" transform="translate(159.033203 0)"/>
       <use xlink:href="#DejaVuSans-33" transform="translate(222.65625 0)"/>
       <use xlink:href="#DejaVuSans-31" transform="translate(286.279297 0)"/>
       <use xlink:href="#DejaVuSans-36" transform="translate(349.902344 0)"/>
      </g>
     </g>
    </g>
    <g id="ytick_11">
     <g id="line2d_25">
      <g>
       <use xlink:href="#mfe6d64dbe6" x="374.4576" y="134.208" style="stroke: #000000; stroke-width: 0.8"/>
      </g>
     </g>
     <g id="text_18">
      <!-- 0.00537 -->
      <g transform="translate(381.4576 138.007219) scale(0.1 -0.1)">
       <defs>
        <path id="DejaVuSans-37" d="M 525 4666 
L 3525 4666 
L 3525 4397 
L 1831 0 
L 1172 0 
L 2766 4134 
L 525 4134 
L 525 4666 
z
" transform="scale(0.015625)"/>
       </defs>
       <use xlink:href="#DejaVuSans-30"/>
       <use xlink:href="#DejaVuSans-2e" transform="translate(63.623047 0)"/>
       <use xlink:href="#DejaVuSans-30" transform="translate(95.410156 0)"/>
       <use xlink:href="#DejaVuSans-30" transform="translate(159.033203 0)"/>
       <use xlink:href="#DejaVuSans-35" transform="translate(222.65625 0)"/>
       <use xlink:href="#DejaVuSans-33" transform="translate(286.279297 0)"/>
       <use xlink:href="#DejaVuSans-37" transform="translate(349.902344 0)"/>
      </g>
     </g>
    </g>
    <g id="ytick_12">
     <g id="line2d_26">
      <g>
       <use xlink:href="#mfe6d64dbe6" x="374.4576" y="107.328" style="stroke: #000000; stroke-width: 0.8"/>
      </g>
     </g>
     <g id="text_19">
      <!-- 0.0102 -->
      <g transform="translate(381.4576 111.127219) scale(0.1 -0.1)">
       <use xlink:href="#DejaVuSans-30"/>
       <use xlink:href="#DejaVuSans-2e" transform="translate(63.623047 0)"/>
       <use xlink:href="#DejaVuSans-30" transform="translate(95.410156 0)"/>
       <use xlink:href="#DejaVuSans-31" transform="translate(159.033203 0)"/>
       <use xlink:href="#DejaVuSans-30" transform="translate(222.65625 0)"/>
       <use xlink:href="#DejaVuSans-32" transform="translate(286.279297 0)"/>
      </g>
     </g>
    </g>
    <g id="ytick_13">
     <g id="line2d_27">
      <g>
       <use xlink:href="#mfe6d64dbe6" x="374.4576" y="80.448" style="stroke: #000000; stroke-width: 0.8"/>
      </g>
     </g>
     <g id="text_20">
      <!-- 0.0235 -->
      <g transform="translate(381.4576 84.247219) scale(0.1 -0.1)">
       <use xlink:href="#DejaVuSans-30"/>
       <use xlink:href="#DejaVuSans-2e" transform="translate(63.623047 0)"/>
       <use xlink:href="#DejaVuSans-30" transform="translate(95.410156 0)"/>
       <use xlink:href="#DejaVuSans-32" transform="translate(159.033203 0)"/>
       <use xlink:href="#DejaVuSans-33" transform="translate(222.65625 0)"/>
       <use xlink:href="#DejaVuSans-35" transform="translate(286.279297 0)"/>
      </g>
     </g>
    </g>
    <g id="ytick_14">
     <g id="line2d_28">
      <g>
       <use xlink:href="#mfe6d64dbe6" x="374.4576" y="53.568" style="stroke: #000000; stroke-width: 0.8"/>
      </g>
     </g>
     <g id="text_21">
      <!-- 0.0742 -->
      <g transform="translate(381.4576 57.367219) scale(0.1 -0.1)">
       <use xlink:href="#DejaVuSans-30"/>
       <use xlink:href="#DejaVuSans-2e" transform="translate(63.623047 0)"/>
       <use xlink:href="#DejaVuSans-30" transform="translate(95.410156 0)"/>
       <use xlink:href="#DejaVuSans-37" transform="translate(159.033203 0)"/>
       <use xlink:href="#DejaVuSans-34" transform="translate(222.65625 0)"/>
       <use xlink:href="#DejaVuSans-32" transform="translate(286.279297 0)"/>
      </g>
     </g>
    </g>
   </g>
   <g id="LineCollection_1"/>
   <g id="LineCollection_2">
    <path d="M 361.152 295.488 
L 374.4576 295.488 
" clip-path="url(#pff8140ca2c)" style="fill: none; stroke: #440154; stroke-opacity: 0.996094"/>
    <path d="M 361.152 268.608 
L 374.4576 268.608 
" clip-path="url(#pff8140ca2c)" style="fill: none; stroke: #440256; stroke-opacity: 0.996094"/>
    <path d="M 361.152 241.728 
L 374.4576 241.728 
" clip-path="url(#pff8140ca2c)" style="fill: none; stroke: #450457; stroke-opacity: 0.996094"/>
    <path d="M 361.152 214.848 
L 374.4576 214.848 
" clip-path="url(#pff8140ca2c)" style="fill: none; stroke: #450559; stroke-opacity: 0.996094"/>
    <path d="M 361.152 187.968 
L 374.4576 187.968 
" clip-path="url(#pff8140ca2c)" style="fill: none; stroke: #46085c; stroke-opacity: 0.996094"/>
    <path d="M 361.152 161.088 
L 374.4576 161.088 
" clip-path="url(#pff8140ca2c)" style="fill: none; stroke: #470e61; stroke-opacity: 0.996094"/>
    <path d="M 361.152 134.208 
L 374.4576 134.208 
" clip-path="url(#pff8140ca2c)" style="fill: none; stroke: #481a6c; stroke-opacity: 0.996094"/>
    <path d="M 361.152 107.328 
L 374.4576 107.328 
" clip-path="url(#pff8140ca2c)" style="fill: none; stroke: #472f7d; stroke-opacity: 0.996094"/>
    <path d="M 361.152 80.448 
L 374.4576 80.448 
" clip-path="url(#pff8140ca2c)" style="fill: none; stroke: #33638d; stroke-opacity: 0.996094"/>
    <path d="M 361.152 53.568 
L 374.4576 53.568 
" clip-path="url(#pff8140ca2c)" style="fill: none; stroke: #fde725; stroke-opacity: 0.996094"/>
   </g>
   <g id="patch_8">
    <path d="M 361.152 295.488 
L 367.8048 307.584 
L 374.4576 295.488 
L 374.4576 53.568 
L 367.8048 41.472 
L 361.152 53.568 
L 361.152 295.488 
z
" style="fill: none; stroke: #000000; stroke-width: 0.8; stroke-linejoin: miter; stroke-linecap: square"/>
   </g>
  </g>
  <g id="text_22">
   <!-- Bivariate Student PDF -->
   <g transform="translate(164.412188 16.030125) scale(0.12 -0.12)">
    <defs>
     <path id="DejaVuSans-42" d="M 1259 2228 
L 1259 519 
L 2272 519 
Q 2781 519 3026 730 
Q 3272 941 3272 1375 
Q 3272 1813 3026 2020 
Q 2781 2228 2272 2228 
L 1259 2228 
z
M 1259 4147 
L 1259 2741 
L 2194 2741 
Q 2656 2741 2882 2914 
Q 3109 3088 3109 3444 
Q 3109 3797 2882 3972 
Q 2656 4147 2194 4147 
L 1259 4147 
z
M 628 4666 
L 2241 4666 
Q 2963 4666 3353 4366 
Q 3744 4066 3744 3513 
Q 3744 3084 3544 2831 
Q 3344 2578 2956 2516 
Q 3422 2416 3680 2098 
Q 3938 1781 3938 1306 
Q 3938 681 3513 340 
Q 3088 0 2303 0 
L 628 0 
L 628 4666 
z
" transform="scale(0.015625)"/>
     <path id="DejaVuSans-69" d="M 603 3500 
L 1178 3500 
L 1178 0 
L 603 0 
L 603 3500 
z
M 603 4863 
L 1178 4863 
L 1178 4134 
L 603 4134 
L 603 4863 
z
" transform="scale(0.015625)"/>
     <path id="DejaVuSans-76" d="M 191 3500 
L 800 3500 
L 1894 563 
L 2988 3500 
L 3597 3500 
L 2284 0 
L 1503 0 
L 191 3500 
z
" transform="scale(0.015625)"/>
     <path id="DejaVuSans-61" d="M 2194 1759 
Q 1497 1759 1228 1600 
Q 959 1441 959 1056 
Q 959 750 1161 570 
Q 1363 391 1709 391 
Q 2188 391 2477 730 
Q 2766 1069 2766 1631 
L 2766 1759 
L 2194 1759 
z
M 3341 1997 
L 3341 0 
L 2766 0 
L 2766 531 
Q 2569 213 2275 61 
Q 1981 -91 1556 -91 
Q 1019 -91 701 211 
Q 384 513 384 1019 
Q 384 1609 779 1909 
Q 1175 2209 1959 2209 
L 2766 2209 
L 2766 2266 
Q 2766 2663 2505 2880 
Q 2244 3097 1772 3097 
Q 1472 3097 1187 3025 
Q 903 2953 641 2809 
L 641 3341 
Q 956 3463 1253 3523 
Q 1550 3584 1831 3584 
Q 2591 3584 2966 3190 
Q 3341 2797 3341 1997 
z
" transform="scale(0.015625)"/>
     <path id="DejaVuSans-72" d="M 2631 2963 
Q 2534 3019 2420 3045 
Q 2306 3072 2169 3072 
Q 1681 3072 1420 2755 
Q 1159 2438 1159 1844 
L 1159 0 
L 581 0 
L 581 3500 
L 1159 3500 
L 1159 2956 
Q 1341 3275 1631 3429 
Q 1922 3584 2338 3584 
Q 2397 3584 2469 3576 
Q 2541 3569 2628 3553 
L 2631 2963 
z
" transform="scale(0.015625)"/>
     <path id="DejaVuSans-74" d="M 1172 4494 
L 1172 3500 
L 2356 3500 
L 2356 3053 
L 1172 3053 
L 1172 1153 
Q 1172 725 1289 603 
Q 1406 481 1766 481 
L 2356 481 
L 2356 0 
L 1766 0 
Q 1100 0 847 248 
Q 594 497 594 1153 
L 594 3053 
L 172 3053 
L 172 3500 
L 594 3500 
L 594 4494 
L 1172 4494 
z
" transform="scale(0.015625)"/>
     <path id="DejaVuSans-65" d="M 3597 1894 
L 3597 1613 
L 953 1613 
Q 991 1019 1311 708 
Q 1631 397 2203 397 
Q 2534 397 2845 478 
Q 3156 559 3463 722 
L 3463 178 
Q 3153 47 2828 -22 
Q 2503 -91 2169 -91 
Q 1331 -91 842 396 
Q 353 884 353 1716 
Q 353 2575 817 3079 
Q 1281 3584 2069 3584 
Q 2775 3584 3186 3129 
Q 3597 2675 3597 1894 
z
M 3022 2063 
Q 3016 2534 2758 2815 
Q 2500 3097 2075 3097 
Q 1594 3097 1305 2825 
Q 1016 2553 972 2059 
L 3022 2063 
z
" transform="scale(0.015625)"/>
     <path id="DejaVuSans-20" transform="scale(0.015625)"/>
     <path id="DejaVuSans-53" d="M 3425 4513 
L 3425 3897 
Q 3066 4069 2747 4153 
Q 2428 4238 2131 4238 
Q 1616 4238 1336 4038 
Q 1056 3838 1056 3469 
Q 1056 3159 1242 3001 
Q 1428 2844 1947 2747 
L 2328 2669 
Q 3034 2534 3370 2195 
Q 3706 1856 3706 1288 
Q 3706 609 3251 259 
Q 2797 -91 1919 -91 
Q 1588 -91 1214 -16 
Q 841 59 441 206 
L 441 856 
Q 825 641 1194 531 
Q 1563 422 1919 422 
Q 2459 422 2753 634 
Q 3047 847 3047 1241 
Q 3047 1584 2836 1778 
Q 2625 1972 2144 2069 
L 1759 2144 
Q 1053 2284 737 2584 
Q 422 2884 422 3419 
Q 422 4038 858 4394 
Q 1294 4750 2059 4750 
Q 2388 4750 2728 4690 
Q 3069 4631 3425 4513 
z
" transform="scale(0.015625)"/>
     <path id="DejaVuSans-75" d="M 544 1381 
L 544 3500 
L 1119 3500 
L 1119 1403 
Q 1119 906 1312 657 
Q 1506 409 1894 409 
Q 2359 409 2629 706 
Q 2900 1003 2900 1516 
L 2900 3500 
L 3475 3500 
L 3475 0 
L 2900 0 
L 2900 538 
Q 2691 219 2414 64 
Q 2138 -91 1772 -91 
Q 1169 -91 856 284 
Q 544 659 544 1381 
z
M 1991 3584 
L 1991 3584 
z
" transform="scale(0.015625)"/>
     <path id="DejaVuSans-64" d="M 2906 2969 
L 2906 4863 
L 3481 4863 
L 3481 0 
L 2906 0 
L 2906 525 
Q 2725 213 2448 61 
Q 2172 -91 1784 -91 
Q 1150 -91 751 415 
Q 353 922 353 1747 
Q 353 2572 751 3078 
Q 1150 3584 1784 3584 
Q 2172 3584 2448 3432 
Q 2725 3281 2906 2969 
z
M 947 1747 
Q 947 1113 1208 752 
Q 1469 391 1925 391 
Q 2381 391 2643 752 
Q 2906 1113 2906 1747 
Q 2906 2381 2643 2742 
Q 2381 3103 1925 3103 
Q 1469 3103 1208 2742 
Q 947 2381 947 1747 
z
" transform="scale(0.015625)"/>
     <path id="DejaVuSans-6e" d="M 3513 2113 
L 3513 0 
L 2938 0 
L 2938 2094 
Q 2938 2591 2744 2837 
Q 2550 3084 2163 3084 
Q 1697 3084 1428 2787 
Q 1159 2491 1159 1978 
L 1159 0 
L 581 0 
L 581 3500 
L 1159 3500 
L 1159 2956 
Q 1366 3272 1645 3428 
Q 1925 3584 2291 3584 
Q 2894 3584 3203 3211 
Q 3513 2838 3513 2113 
z
" transform="scale(0.015625)"/>
     <path id="DejaVuSans-50" d="M 1259 4147 
L 1259 2394 
L 2053 2394 
Q 2494 2394 2734 2622 
Q 2975 2850 2975 3272 
Q 2975 3691 2734 3919 
Q 2494 4147 2053 4147 
L 1259 4147 
z
M 628 4666 
L 2053 4666 
Q 2838 4666 3239 4311 
Q 3641 3956 3641 3272 
Q 3641 2581 3239 2228 
Q 2838 1875 2053 1875 
L 1259 1875 
L 1259 0 
L 628 0 
L 628 4666 
z
" transform="scale(0.015625)"/>
     <path id="DejaVuSans-44" d="M 1259 4147 
L 1259 519 
L 2022 519 
Q 2988 519 3436 956 
Q 3884 1394 3884 2338 
Q 3884 3275 3436 3711 
Q 2988 4147 2022 4147 
L 1259 4147 
z
M 628 4666 
L 1925 4666 
Q 3281 4666 3915 4102 
Q 4550 3538 4550 2338 
Q 4550 1131 3912 565 
Q 3275 0 1925 0 
L 628 0 
L 628 4666 
z
" transform="scale(0.015625)"/>
     <path id="DejaVuSans-46" d="M 628 4666 
L 3309 4666 
L 3309 4134 
L 1259 4134 
L 1259 2759 
L 3109 2759 
L 3109 2228 
L 1259 2228 
L 1259 0 
L 628 0 
L 628 4666 
z
" transform="scale(0.015625)"/>
    </defs>
    <use xlink:href="#DejaVuSans-42"/>
    <use xlink:href="#DejaVuSans-69" transform="translate(68.603516 0)"/>
    <use xlink:href="#DejaVuSans-76" transform="translate(96.386719 0)"/>
    <use xlink:href="#DejaVuSans-61" transform="translate(155.566406 0)"/>
    <use xlink:href="#DejaVuSans-72" transform="translate(216.845703 0)"/>
    <use xlink:href="#DejaVuSans-69" transform="translate(257.958984 0)"/>
    <use xlink:href="#DejaVuSans-61" transform="translate(285.742188 0)"/>
    <use xlink:href="#DejaVuSans-74" transform="translate(347.021484 0)"/>
    <use xlink:href="#DejaVuSans-65" transform="translate(386.230469 0)"/>
    <use xlink:href="#DejaVuSans-20" transform="translate(447.753906 0)"/>
    <use xlink:href="#DejaVuSans-53" transform="translate(479.541016 0)"/>
    <use xlink:href="#DejaVuSans-74" transform="translate(543.017578 0)"/>
    <use xlink:href="#DejaVuSans-75" transform="translate(582.226562 0)"/>
    <use xlink:href="#DejaVuSans-64" transform="translate(645.605469 0)"/>
    <use xlink:href="#DejaVuSans-65" transform="translate(709.082031 0)"/>
    <use xlink:href="#DejaVuSans-6e" transform="translate(770.605469 0)"/>
    <use xlink:href="#DejaVuSans-74" transform="translate(833.984375 0)"/>
    <use xlink:href="#DejaVuSans-20" transform="translate(873.193359 0)"/>
    <use xlink:href="#DejaVuSans-50" transform="translate(904.980469 0)"/>
    <use xlink:href="#DejaVuSans-44" transform="translate(965.283203 0)"/>
    <use xlink:href="#DejaVuSans-46" transform="translate(1042.285156 0)"/>
   </g>
  </g>
 </g>
 <defs>
  <clipPath id="p76928d1be8">
   <rect x="57.6" y="41.472" width="285.696" height="266.112"/>
  </clipPath>
  <clipPath id="pff8140ca2c">
   <path d="M 361.152 296.397091 
L 374.4576 296.397091 
L 374.4576 52.658909 
L 361.152 52.658909 
z
"/>
  </clipPath>
 </defs>
</svg>
