<?xml version="1.0" encoding="utf-8" standalone="no"?>
<!DOCTYPE svg PUBLIC "-//W3C//DTD SVG 1.1//EN"
  "http://www.w3.org/Graphics/SVG/1.1/DTD/svg11.dtd">
<svg xmlns:xlink="http://www.w3.org/1999/xlink" width="460.8pt" height="345.6pt" viewBox="0 0 460.8 345.6" xmlns="http://www.w3.org/2000/svg" version="1.1">
 <metadata>
  <rdf:RDF xmlns:dc="http://purl.org/dc/elements/1.1/" xmlns:cc="http://creativecommons.org/ns#" xmlns:rdf="http://www.w3.org/1999/02/22-rdf-syntax-ns#">
   <cc:Work>
    <dc:type rdf:resource="http://purl.org/dc/dcmitype/StillImage"/>
    <dc:date>2022-01-01T00:00:00+00:00</dc:date>
    <dc:format>image/svg+xml</dc:format>
    <dc:creator>
     <cc:Agent>
      <dc:title>Matplotlib v3.10.8, https://matplotlib.org/</dc:title>
     </cc:Agent>
    </dc:creator>
   </cc:Work>
  </rdf:RDF>
 </metadata>
 <defs>
  <style type="text/css">*{stroke-linejoin: round; stroke-linecap: butt}</style>
 </defs>
 <g id="figure_1">
  <g id="patch_1">
   <path d="M 0 345.6 
L 460.8 345.6 
L 460.8 0 
L 0 0 
z
" style="fill: #ffffff"/>
  </g>
  <g id="axes_1">
   <g id="patch_2">
    <path d="M 57.6 307.584 
L 414.72 307.584 
L 414.72 41.472 
L 57.6 41.472 
z
" style="fill: #ffffff"/>
   </g>
   <g id="matplotlib.axis_1">
    <g id="xtick_1">
     <g id="line2d_1">
      <path d="M 73.832727 307.584 
L 73.832727 41.472 
" clip-path="url(#p8bd65bb4be)" style="fill: none; stroke: #b0b0b0; stroke-width: 0.8; stroke-linecap: square"/>
     </g>
     <g id="line2d_2">
      <defs>
       <path id="mcace3e56b2" d="M 0 0 
L 0 3.5 
" style="stroke: #000000; stroke-width: 0.8"/>
      </defs>
      <g>
       <use xlink:href="#mcace3e56b2" x="73.832727" y="307.584" style="stroke: #000000; stroke-width: 0.8"/>
      </g>
     </g>
     <g id="text_1">
      <!-- 0 -->
      <g transform="translate(70.651477 322.182437) scale(0.1 -0.1)">
       <defs>
        <path id="DejaVuSans-30" d="M 2034 4250 
Q 1547 4250 1301 3770 
Q 1056 3291 1056 2328 
Q 1056 1369 1301 889 
Q 1547 409 2034 409 
Q 2525 409 2770 889 
Q 3016 1369 3016 2328 
Q 3016 3291 2770 3770 
Q 2525 4250 2034 4250 
z
M 2034 4750 
Q 2819 4750 3233 4129 
Q 3647 3509 3647 2328 
Q 3647 1150 3233 529 
Q 2819 -91 2034 -91 
Q 1250 -91 836 529 
Q 422 1150 422 2328 
Q 422 3509 836 4129 
Q 1250 4750 2034 4750 
z
" transform="scale(0.015625)"/>
       </defs>
       <use xlink:href="#DejaVuSans-30"/>
      </g>
     </g>
    </g>
    <g id="xtick_2">
     <g id="line2d_3">
      <path d="M 138.763636 307.584 
L 138.763636 41.472 
" clip-path="url(#p8bd65bb4be)" style="fill: none; stroke: #b0b0b0; stroke-width: 0.8; stroke-linecap: square"/>
     </g>
     <g id="line2d_4">
      <g>
       <use xlink:href="#mcace3e56b2" x="138.763636" y="307.584" style="stroke: #000000; stroke-width: 0.8"/>
      </g>
     </g>
     <g id="text_2">
      <!-- 2 -->
      <g transform="translate(135.582386 322.182437) scale(0.1 -0.1)">
       <defs>
        <path id="DejaVuSans-32" d="M 1228 531 
L 3431 531 
L 3431 0 
L 469 0 
L 469 531 
Q 828 903 1448 1529 
Q 2069 2156 2228 2338 
Q 2531 2678 2651 2914 
Q 2772 3150 2772 3378 
Q 2772 3750 2511 3984 
Q 2250 4219 1831 4219 
Q 1534 4219 1204 4116 
Q 875 4013 500 3803 
L 500 4441 
Q 881 4594 1212 4672 
Q 1544 4750 1819 4750 
Q 2544 4750 2975 4387 
Q 3406 4025 3406 3419 
Q 3406 3131 3298 2873 
Q 3191 2616 2906 2266 
Q 2828 2175 2409 1742 
Q 1991 1309 1228 531 
z
" transform="scale(0.015625)"/>
       </defs>
       <use xlink:href="#DejaVuSans-32"/>
      </g>
     </g>
    </g>
    <g id="xtick_3">
     <g id="line2d_5">
      <path d="M 203.694545 307.584 
L 203.694545 41.472 
" clip-path="url(#p8bd65bb4be)" style="fill: none; stroke: #b0b0b0; stroke-width: 0.8; stroke-linecap: square"/>
     </g>
     <g id="line2d_6">
      <g>
       <use xlink:href="#mcace3e56b2" x="203.694545" y="307.584" style="stroke: #000000; stroke-width: 0.8"/>
      </g>
     </g>
     <g id="text_3">
      <!-- 4 -->
      <g transform="translate(200.513295 322.182437) scale(0.1 -0.1)">
       <defs>
        <path id="DejaVuSans-34" d="M 2419 4116 
L 825 1625 
L 2419 1625 
L 2419 4116 
z
M 2253 4666 
L 3047 4666 
L 3047 1625 
L 3713 1625 
L 3713 1100 
L 3047 1100 
L 3047 0 
L 2419 0 
L 2419 1100 
L 313 1100 
L 313 1709 
L 2253 4666 
z
" transform="scale(0.015625)"/>
       </defs>
       <use xlink:href="#DejaVuSans-34"/>
      </g>
     </g>
    </g>
    <g id="xtick_4">
     <g id="line2d_7">
      <path d="M 268.625455 307.584 
L 268.625455 41.472 
" clip-path="url(#p8bd65bb4be)" style="fill: none; stroke: #b0b0b0; stroke-width: 0.8; stroke-linecap: square"/>
     </g>
     <g id="line2d_8">
      <g>
       <use xlink:href="#mcace3e56b2" x="268.625455" y="307.584" style="stroke: #000000; stroke-width: 0.8"/>
      </g>
     </g>
     <g id="text_4">
      <!-- 6 -->
      <g transform="translate(265.444205 322.182437) scale(0.1 -0.1)">
       <defs>
        <path id="DejaVuSans-36" d="M 2113 2584 
Q 1688 2584 1439 2293 
Q 1191 2003 1191 1497 
Q 1191 994 1439 701 
Q 1688 409 2113 409 
Q 2538 409 2786 701 
Q 3034 994 3034 1497 
Q 3034 2003 2786 2293 
Q 2538 2584 2113 2584 
z
M 3366 4563 
L 3366 3988 
Q 3128 4100 2886 4159 
Q 2644 4219 2406 4219 
Q 1781 4219 1451 3797 
Q 1122 3375 1075 2522 
Q 1259 2794 1537 2939 
Q 1816 3084 2150 3084 
Q 2853 3084 3261 2657 
Q 3669 2231 3669 1497 
Q 3669 778 3244 343 
Q 2819 -91 2113 -91 
Q 1303 -91 875 529 
Q 447 1150 447 2328 
Q 447 3434 972 4092 
Q 1497 4750 2381 4750 
Q 2619 4750 2861 4703 
Q 3103 4656 3366 4563 
z
" transform="scale(0.015625)"/>
       </defs>
       <use xlink:href="#DejaVuSans-36"/>
      </g>
     </g>
    </g>
    <g id="xtick_5">
     <g id="line2d_9">
      <path d="M 333.556364 307.584 
L 333.556364 41.472 
" clip-path="url(#p8bd65bb4be)" style="fill: none; stroke: #b0b0b0; stroke-width: 0.8; stroke-linecap: square"/>
     </g>
     <g id="line2d_10">
      <g>
       <use xlink:href="#mcace3e56b2" x="333.556364" y="307.584" style="stroke: #000000; stroke-width: 0.8"/>
      </g>
     </g>
     <g id="text_5">
      <!-- 8 -->
      <g transform="translate(330.375114 322.182437) scale(0.1 -0.1)">
       <defs>
        <path id="DejaVuSans-38" d="M 2034 2216 
Q 1584 2216 1326 1975 
Q 1069 1734 1069 1313 
Q 1069 891 1326 650 
Q 1584 409 2034 409 
Q 2484 409 2743 651 
Q 3003 894 3003 1313 
Q 3003 1734 2745 1975 
Q 2488 2216 2034 2216 
z
M 1403 2484 
Q 997 2584 770 2862 
Q 544 3141 544 3541 
Q 544 4100 942 4425 
Q 1341 4750 2034 4750 
Q 2731 4750 3128 4425 
Q 3525 4100 3525 3541 
Q 3525 3141 3298 2862 
Q 3072 2584 2669 2484 
Q 3125 2378 3379 2068 
Q 3634 1759 3634 1313 
Q 3634 634 3220 271 
Q 2806 -91 2034 -91 
Q 1263 -91 848 271 
Q 434 634 434 1313 
Q 434 1759 690 2068 
Q 947 2378 1403 2484 
z
M 1172 3481 
Q 1172 3119 1398 2916 
Q 1625 2713 2034 2713 
Q 2441 2713 2670 2916 
Q 2900 3119 2900 3481 
Q 2900 3844 2670 4047 
Q 2441 4250 2034 4250 
Q 1625 4250 1398 4047 
Q 1172 3844 1172 3481 
z
" transform="scale(0.015625)"/>
       </defs>
       <use xlink:href="#DejaVuSans-38"/>
      </g>
     </g>
    </g>
    <g id="xtick_6">
     <g id="line2d_11">
      <path d="M 398.487273 307.584 
L 398.487273 41.472 
" clip-path="url(#p8bd65bb4be)" style="fill: none; stroke: #b0b0b0; stroke-width: 0.8; stroke-linecap: square"/>
     </g>
     <g id="line2d_12">
      <g>
       <use xlink:href="#mcace3e56b2" x="398.487273" y="307.584" style="stroke: #000000; stroke-width: 0.8"/>
      </g>
     </g>
     <g id="text_6">
      <!-- 10 -->
      <g transform="translate(392.124773 322.182437) scale(0.1 -0.1)">
       <defs>
        <path id="DejaVuSans-31" d="M 794 531 
L 1825 531 
L 1825 4091 
L 703 3866 
L 703 4441 
L 1819 4666 
L 2450 4666 
L 2450 531 
L 3481 531 
L 3481 0 
L 794 0 
L 794 531 
z
" transform="scale(0.015625)"/>
       </defs>
       <use xlink:href="#DejaVuSans-31"/>
       <use xlink:href="#DejaVuSans-30" transform="translate(63.623047 0)"/>
      </g>
     </g>
    </g>
    <g id="text_7">
     <!-- Time -->
     <g transform="translate(223.926406 335.860562) scale(0.1 -0.1)">
      <defs>
       <path id="DejaVuSans-54" d="M -19 4666 
L 3928 4666 
L 3928 4134 
L 2272 4134 
L 2272 0 
L 1638 0 
L 1638 4134 
L -19 4134 
L -19 4666 
z
" transform="scale(0.015625)"/>
       <path id="DejaVuSans-69" d="M 603 3500 
L 1178 3500 
L 1178 0 
L 603 0 
L 603 3500 
z
M 603 4863 
L 1178 4863 
L 1178 4134 
L 603 4134 
L 603 4863 
z
" transform="scale(0.015625)"/>
       <path id="DejaVuSans-6d" d="M 3328 2828 
Q 3544 3216 3844 3400 
Q 4144 3584 4550 3584 
Q 5097 3584 5394 3201 
Q 5691 2819 5691 2113 
L 5691 0 
L 5113 0 
L 5113 2094 
Q 5113 2597 4934 2840 
Q 4756 3084 4391 3084 
Q 3944 3084 3684 2787 
Q 3425 2491 3425 1978 
L 3425 0 
L 2847 0 
L 2847 2094 
Q 2847 2600 2669 2842 
Q 2491 3084 2119 3084 
Q 1678 3084 1418 2786 
Q 1159 2488 1159 1978 
L 1159 0 
L 581 0 
L 581 3500 
L 1159 3500 
L 1159 2956 
Q 1356 3278 1631 3431 
Q 1906 3584 2284 3584 
Q 2666 3584 2933 3390 
Q 3200 3197 3328 2828 
z
" transform="scale(0.015625)"/>
       <path id="DejaVuSans-65" d="M 3597 1894 
L 3597 1613 
L 953 1613 
Q 991 1019 1311 708 
Q 1631 397 2203 397 
Q 2534 397 2845 478 
Q 3156 559 3463 722 
L 3463 178 
Q 3153 47 2828 -22 
Q 2503 -91 2169 -91 
Q 1331 -91 842 396 
Q 353 884 353 1716 
Q 353 2575 817 3079 
Q 1281 3584 2069 3584 
Q 2775 3584 3186 3129 
Q 3597 2675 3597 1894 
z
M 3022 2063 
Q 3016 2534 2758 2815 
Q 2500 3097 2075 3097 
Q 1594 3097 1305 2825 
Q 1016 2553 972 2059 
L 3022 2063 
z
" transform="scale(0.015625)"/>
      </defs>
      <use xlink:href="#DejaVuSans-54"/>
      <use xlink:href="#DejaVuSans-69" transform="translate(57.958984 0)"/>
      <use xlink:href="#DejaVuSans-6d" transform="translate(85.742188 0)"/>
      <use xlink:href="#DejaVuSans-65" transform="translate(183.154297 0)"/>
     </g>
    </g>
   </g>
   <g id="matplotlib.axis_2">
    <g id="ytick_1">
     <g id="line2d_13">
      <path d="M 57.6 281.952847 
L 414.72 281.952847 
" clip-path="url(#p8bd65bb4be)" style="fill: none; stroke: #b0b0b0; stroke-width: 0.8; stroke-linecap: square"/>
     </g>
     <g id="line2d_14">
      <defs>
       <path id="m44750f4eb5" d="M 0 0 
L -3.5 0 
" style="stroke: #000000; stroke-width: 0.8"/>
      </defs>
      <g>
       <use xlink:href="#m44750f4eb5" x="57.6" y="281.952847" style="stroke: #000000; stroke-width: 0.8"/>
      </g>
     </g>
     <g id="text_8">
      <!-- −7.5 -->
      <g transform="translate(26.317187 285.752066) scale(0.1 -0.1)">
       <defs>
        <path id="DejaVuSans-2212" d="M 678 2272 
L 4684 2272 
L 4684 1741 
L 678 1741 
L 678 2272 
z
" transform="scale(0.015625)"/>
        <path id="DejaVuSans-37" d="M 525 4666 
L 3525 4666 
L 3525 4397 
L 1831 0 
L 1172 0 
L 2766 4134 
L 525 4134 
L 525 4666 
z
" transform="scale(0.015625)"/>
        <path id="DejaVuSans-2e" d="M 684 794 
L 1344 794 
L 1344 0 
L 684 0 
L 684 794 
z
" transform="scale(0.015625)"/>
        <path id="DejaVuSans-35" d="M 691 4666 
L 3169 4666 
L 3169 4134 
L 1269 4134 
L 1269 2991 
Q 1406 3038 1543 3061 
Q 1681 3084 1819 3084 
Q 2600 3084 3056 2656 
Q 3513 2228 3513 1497 
Q 3513 744 3044 326 
Q 2575 -91 1722 -91 
Q 1428 -91 1123 -41 
Q 819 9 494 109 
L 494 744 
Q 775 591 1075 516 
Q 1375 441 1709 441 
Q 2250 441 2565 725 
Q 2881 1009 2881 1497 
Q 2881 1984 2565 2268 
Q 2250 2553 1709 2553 
Q 1456 2553 1204 2497 
Q 953 2441 691 2322 
L 691 4666 
z
" transform="scale(0.015625)"/>
       </defs>
       <use xlink:href="#DejaVuSans-2212"/>
       <use xlink:href="#DejaVuSans-37" transform="translate(83.789062 0)"/>
       <use xlink:href="#DejaVuSans-2e" transform="translate(147.412109 0)"/>
       <use xlink:href="#DejaVuSans-35" transform="translate(179.199219 0)"/>
      </g>
     </g>
    </g>
    <g id="ytick_2">
     <g id="line2d_15">
      <path d="M 57.6 251.031892 
L 414.72 251.031892 
" clip-path="url(#p8bd65bb4be)" style="fill: none; stroke: #b0b0b0; stroke-width: 0.8; stroke-linecap: square"/>
     </g>
     <g id="line2d_16">
      <g>
       <use xlink:href="#m44750f4eb5" x="57.6" y="251.031892" style="stroke: #000000; stroke-width: 0.8"/>
      </g>
     </g>
     <g id="text_9">
      <!-- −5.0 -->
      <g transform="translate(26.317187 254.831111) scale(0.1 -0.1)">
       <use xlink:href="#DejaVuSans-2212"/>
       <use xlink:href="#DejaVuSans-35" transform="translate(83.789062 0)"/>
       <use xlink:href="#DejaVuSans-2e" transform="translate(147.412109 0)"/>
       <use xlink:href="#DejaVuSans-30" transform="translate(179.199219 0)"/>
      </g>
     </g>
    </g>
    <g id="ytick_3">
     <g id="line2d_17">
      <path d="M 57.6 220.110937 
L 414.72 220.110937 
" clip-path="url(#p8bd65bb4be)" style="fill: none; stroke: #b0b0b0; stroke-width: 0.8; stroke-linecap: square"/>
     </g>
     <g id="line2d_18">
      <g>
       <use xlink:href="#m44750f4eb5" x="57.6" y="220.110937" style="stroke: #000000; stroke-width: 0.8"/>
      </g>
     </g>
     <g id="text_10">
      <!-- −2.5 -->
      <g transform="translate(26.317187 223.910156) scale(0.1 -0.1)">
       <use xlink:href="#DejaVuSans-2212"/>
       <use xlink:href="#DejaVuSans-32" transform="translate(83.789062 0)"/>
       <use xlink:href="#DejaVuSans-2e" transform="translate(147.412109 0)"/>
       <use xlink:href="#DejaVuSans-35" transform="translate(179.199219 0)"/>
      </g>
     </g>
    </g>
    <g id="ytick_4">
     <g id="line2d_19">
      <path d="M 57.6 189.189982 
L 414.72 189.189982 
" clip-path="url(#p8bd65bb4be)" style="fill: none; stroke: #b0b0b0; stroke-width: 0.8; stroke-linecap: square"/>
     </g>
     <g id="line2d_20">
      <g>
       <use xlink:href="#m44750f4eb5" x="57.6" y="189.189982" style="stroke: #000000; stroke-width: 0.8"/>
      </g>
     </g>
     <g id="text_11">
      <!-- 0.0 -->
      <g transform="translate(34.696875 192.989201) scale(0.1 -0.1)">
       <use xlink:href="#DejaVuSans-30"/>
       <use xlink:href="#DejaVuSans-2e" transform="translate(63.623047 0)"/>
       <use xlink:href="#DejaVuSans-30" transform="translate(95.410156 0)"/>
      </g>
     </g>
    </g>
    <g id="ytick_5">
     <g id="line2d_21">
      <path d="M 57.6 158.269027 
L 414.72 158.269027 
" clip-path="url(#p8bd65bb4be)" style="fill: none; stroke: #b0b0b0; stroke-width: 0.8; stroke-linecap: square"/>
     </g>
     <g id="line2d_22">
      <g>
       <use xlink:href="#m44750f4eb5" x="57.6" y="158.269027" style="stroke: #000000; stroke-width: 0.8"/>
      </g>
     </g>
     <g id="text_12">
      <!-- 2.5 -->
      <g transform="translate(34.696875 162.068245) scale(0.1 -0.1)">
       <use xlink:href="#DejaVuSans-32"/>
       <use xlink:href="#DejaVuSans-2e" transform="translate(63.623047 0)"/>
       <use xlink:href="#DejaVuSans-35" transform="translate(95.410156 0)"/>
      </g>
     </g>
    </g>
    <g id="ytick_6">
     <g id="line2d_23">
      <path d="M 57.6 127.348072 
L 414.72 127.348072 
" clip-path="url(#p8bd65bb4be)" style="fill: none; stroke: #b0b0b0; stroke-width: 0.8; stroke-linecap: square"/>
     </g>
     <g id="line2d_24">
      <g>
       <use xlink:href="#m44750f4eb5" x="57.6" y="127.348072" style="stroke: #000000; stroke-width: 0.8"/>
      </g>
     </g>
     <g id="text_13">
      <!-- 5.0 -->
      <g transform="translate(34.696875 131.14729) scale(0.1 -0.1)">
       <use xlink:href="#DejaVuSans-35"/>
       <use xlink:href="#DejaVuSans-2e" transform="translate(63.623047 0)"/>
       <use xlink:href="#DejaVuSans-30" transform="translate(95.410156 0)"/>
      </g>
     </g>
    </g>
    <g id="ytick_7">
     <g id="line2d_25">
      <path d="M 57.6 96.427116 
L 414.72 96.427116 
" clip-path="url(#p8bd65bb4be)" style="fill: none; stroke: #b0b0b0; stroke-width: 0.8; stroke-linecap: square"/>
     </g>
     <g id="line2d_26">
      <g>
       <use xlink:href="#m44750f4eb5" x="57.6" y="96.427116" style="stroke: #000000; stroke-width: 0.8"/>
      </g>
     </g>
     <g id="text_14">
      <!-- 7.5 -->
      <g transform="translate(34.696875 100.226335) scale(0.1 -0.1)">
       <use xlink:href="#DejaVuSans-37"/>
       <use xlink:href="#DejaVuSans-2e" transform="translate(63.623047 0)"/>
       <use xlink:href="#DejaVuSans-35" transform="translate(95.410156 0)"/>
      </g>
     </g>
    </g>
    <g id="ytick_8">
     <g id="line2d_27">
      <path d="M 57.6 65.506161 
L 414.72 65.506161 
" clip-path="url(#p8bd65bb4be)" style="fill: none; stroke: #b0b0b0; stroke-width: 0.8; stroke-linecap: square"/>
     </g>
     <g id="line2d_28">
      <g>
       <use xlink:href="#m44750f4eb5" x="57.6" y="65.506161" style="stroke: #000000; stroke-width: 0.8"/>
      </g>
     </g>
     <g id="text_15">
      <!-- 10.0 -->
      <g transform="translate(28.334375 69.30538) scale(0.1 -0.1)">
       <use xlink:href="#DejaVuSans-31"/>
       <use xlink:href="#DejaVuSans-30" transform="translate(63.623047 0)"/>
       <use xlink:href="#DejaVuSans-2e" transform="translate(127.246094 0)"/>
       <use xlink:href="#DejaVuSans-30" transform="translate(159.033203 0)"/>
      </g>
     </g>
    </g>
    <g id="text_16">
     <!-- Values -->
     <g transform="translate(20.2375 190.863937) rotate(-90) scale(0.1 -0.1)">
      <defs>
       <path id="DejaVuSans-56" d="M 1831 0 
L 50 4666 
L 709 4666 
L 2188 738 
L 3669 4666 
L 4325 4666 
L 2547 0 
L 1831 0 
z
" transform="scale(0.015625)"/>
       <path id="DejaVuSans-61" d="M 2194 1759 
Q 1497 1759 1228 1600 
Q 959 1441 959 1056 
Q 959 750 1161 570 
Q 1363 391 1709 391 
Q 2188 391 2477 730 
Q 2766 1069 2766 1631 
L 2766 1759 
L 2194 1759 
z
M 3341 1997 
L 3341 0 
L 2766 0 
L 2766 531 
Q 2569 213 2275 61 
Q 1981 -91 1556 -91 
Q 1019 -91 701 211 
Q 384 513 384 1019 
Q 384 1609 779 1909 
Q 1175 2209 1959 2209 
L 2766 2209 
L 2766 2266 
Q 2766 2663 2505 2880 
Q 2244 3097 1772 3097 
Q 1472 3097 1187 3025 
Q 903 2953 641 2809 
L 641 3341 
Q 956 3463 1253 3523 
Q 1550 3584 1831 3584 
Q 2591 3584 2966 3190 
Q 3341 2797 3341 1997 
z
" transform="scale(0.015625)"/>
       <path id="DejaVuSans-6c" d="M 603 4863 
L 1178 4863 
L 1178 0 
L 603 0 
L 603 4863 
z
" transform="scale(0.015625)"/>
       <path id="DejaVuSans-75" d="M 544 1381 
L 544 3500 
L 1119 3500 
L 1119 1403 
Q 1119 906 1312 657 
Q 1506 409 1894 409 
Q 2359 409 2629 706 
Q 2900 1003 2900 1516 
L 2900 3500 
L 3475 3500 
L 3475 0 
L 2900 0 
L 2900 538 
Q 2691 219 2414 64 
Q 2138 -91 1772 -91 
Q 1169 -91 856 284 
Q 544 659 544 1381 
z
M 1991 3584 
L 1991 3584 
z
" transform="scale(0.015625)"/>
       <path id="DejaVuSans-73" d="M 2834 3397 
L 2834 2853 
Q 2591 2978 2328 3040 
Q 2066 3103 1784 3103 
Q 1356 3103 1142 2972 
Q 928 2841 928 2578 
Q 928 2378 1081 2264 
Q 1234 2150 1697 2047 
L 1894 2003 
Q 2506 1872 2764 1633 
Q 3022 1394 3022 966 
Q 3022 478 2636 193 
Q 2250 -91 1575 -91 
Q 1294 -91 989 -36 
Q 684 19 347 128 
L 347 722 
Q 666 556 975 473 
Q 1284 391 1588 391 
Q 1994 391 2212 530 
Q 2431 669 2431 922 
Q 2431 1156 2273 1281 
Q 2116 1406 1581 1522 
L 1381 1569 
Q 847 1681 609 1914 
Q 372 2147 372 2553 
Q 372 3047 722 3315 
Q 1072 3584 1716 3584 
Q 2034 3584 2315 3537 
Q 2597 3491 2834 3397 
z
" transform="scale(0.015625)"/>
      </defs>
      <use xlink:href="#DejaVuSans-56"/>
      <use xlink:href="#DejaVuSans-61" transform="translate(60.658203 0)"/>
      <use xlink:href="#DejaVuSans-6c" transform="translate(121.9375 0)"/>
      <use xlink:href="#DejaVuSans-75" transform="translate(149.720703 0)"/>
      <use xlink:href="#DejaVuSans-65" transform="translate(213.099609 0)"/>
      <use xlink:href="#DejaVuSans-73" transform="translate(274.623047 0)"/>
     </g>
    </g>
   </g>
   <g id="line2d_29">
    <path d="M 73.832727 142.304271 
L 77.079273 141.93714 
L 80.325818 145.922302 
L 83.572364 152.867047 
L 86.818909 161.123884 
L 90.065455 169.081402 
L 93.312 175.490752 
L 96.558545 179.780302 
L 99.805091 182.201343 
L 103.051636 183.673408 
L 106.298182 185.352779 
L 109.544727 188.127486 
L 112.791273 192.284458 
L 116.037818 197.472623 
L 119.284364 202.904914 
L 122.530909 207.651507 
L 125.777455 210.898912 
L 129.024 212.14587 
L 132.270545 211.34345 
L 135.517091 208.953558 
L 138.763636 205.856619 
L 142.010182 203.077007 
L 145.256727 201.409967 
L 148.503273 201.135153 
L 151.749818 201.996729 
L 154.996364 203.473037 
L 158.242909 205.173877 
L 161.489455 207.099496 
L 164.736 209.57657 
L 167.982545 212.905707 
L 171.229091 216.95438 
L 174.475636 220.98541 
L 177.722182 223.868342 
L 180.968727 224.577238 
L 184.215273 222.702268 
L 187.461818 218.693208 
L 190.708364 213.724218 
L 193.954909 209.286885 
L 197.201455 206.747698 
L 200.448 207.062463 
L 203.694545 210.682042 
L 206.941091 217.543212 
L 210.187636 227.027006 
L 213.434182 237.883836 
L 216.680727 248.253442 
L 219.927273 255.932583 
L 223.173818 258.916789 
L 226.420364 256.07428 
L 229.666909 247.686282 
L 232.913455 235.609835 
L 236.16 222.939106 
L 239.406545 213.227718 
L 242.653091 209.498036 
L 245.899636 213.367844 
L 249.146182 224.594516 
L 252.392727 241.179725 
L 255.639273 259.948236 
L 258.885818 277.326728 
L 262.132364 290.029537 
L 265.378909 295.488 
L 268.625455 292.060618 
L 271.872 279.162799 
L 275.118545 257.417438 
L 278.365091 228.782968 
L 281.611636 196.503239 
L 284.858182 164.731165 
L 288.104727 137.808173 
L 291.351273 119.355035 
L 294.597818 111.434878 
L 297.844364 114.056806 
L 301.090909 125.183736 
L 304.337455 141.26344 
L 307.584 158.141725 
L 310.830545 172.09466 
L 314.077091 180.655967 
L 317.323636 182.974397 
L 320.570182 179.614866 
L 323.816727 171.955562 
L 327.063273 161.522748 
L 330.309818 149.600625 
L 333.556364 137.259558 
L 336.802909 125.663493 
L 340.049455 116.323294 
L 343.296 111.010875 
L 346.542545 111.280521 
L 349.789091 117.833544 
L 353.035636 130.085847 
L 356.282182 146.207155 
L 359.528727 163.633573 
L 362.775273 179.812227 
L 366.021818 192.842359 
L 369.268364 201.770474 
L 372.514909 206.504262 
L 375.761455 207.486444 
L 379.008 205.341745 
L 382.254545 200.661879 
L 385.501091 193.972213 
L 388.747636 185.820366 
L 391.994182 176.881987 
L 395.240727 168.008881 
L 398.487273 160.209168 
" clip-path="url(#p8bd65bb4be)" style="fill: none; stroke: #1f77b4; stroke-linecap: square"/>
   </g>
   <g id="line2d_30">
    <path d="M 73.832727 170.892985 
L 77.079273 173.236366 
L 80.325818 176.684268 
L 83.572364 181.658927 
L 86.818909 188.15601 
L 90.065455 195.605453 
L 93.312 202.991361 
L 96.558545 209.190908 
L 99.805091 213.36943 
L 103.051636 215.25731 
L 106.298182 215.217915 
L 109.544727 214.138502 
L 112.791273 213.234193 
L 116.037818 213.82157 
L 119.284364 217.046276 
L 122.530909 223.537434 
L 125.777455 233.04781 
L 129.024 244.254479 
L 132.270545 254.912076 
L 135.517091 262.407176 
L 138.763636 264.534173 
L 142.010182 260.160341 
L 145.256727 249.489551 
L 148.503273 233.855907 
L 151.749818 215.218819 
L 154.996364 195.641301 
L 158.242909 176.95996 
L 161.489455 160.676222 
L 164.736 147.972513 
L 167.982545 139.734498 
L 171.229091 136.533621 
L 174.475636 138.589938 
L 177.722182 145.746098 
L 180.968727 157.455214 
L 184.215273 172.776797 
L 187.461818 190.400846 
L 190.708364 208.747245 
L 193.954909 226.159209 
L 197.201455 241.153576 
L 200.448 252.6293 
L 203.694545 259.953952 
L 206.941091 262.911337 
L 210.187636 261.577548 
L 213.434182 256.236514 
L 216.680727 247.406368 
L 219.927273 235.963679 
L 223.173818 223.242951 
L 226.420364 210.955381 
L 229.666909 200.851123 
L 232.913455 194.213245 
L 236.16 191.423728 
L 239.406545 191.854231 
L 242.653091 194.176003 
L 245.899636 196.953022 
L 249.146182 199.21725 
L 252.392727 200.73938 
L 255.639273 201.892947 
L 258.885818 203.249856 
L 262.132364 205.167171 
L 265.378909 207.587305 
L 268.625455 210.08884 
L 271.872 212.07239 
L 275.118545 212.924649 
L 278.365091 212.093803 
L 281.611636 209.114445 
L 284.858182 203.649247 
L 288.104727 195.56676 
L 291.351273 185.01173 
L 294.597818 172.439261 
L 297.844364 158.628959 
L 301.090909 144.718997 
L 304.337455 132.237642 
L 307.584 123.027109 
L 310.830545 118.95285 
L 314.077091 121.407756 
L 317.323636 130.77192 
L 320.570182 146.074734 
L 323.816727 165.036027 
L 327.063273 184.511779 
L 330.309818 201.223456 
L 333.556364 212.558276 
L 336.802909 217.210138 
L 340.049455 215.458613 
L 343.296 208.977627 
L 346.542545 200.209659 
L 349.789091 191.513942 
L 353.035636 184.410678 
L 356.282182 179.228487 
L 359.528727 175.30103 
L 362.775273 171.60424 
L 366.021818 167.504363 
L 369.268364 163.224008 
L 372.514909 159.784813 
L 375.761455 158.482206 
L 379.008 160.208638 
L 382.254545 165.01779 
L 385.501091 172.155905 
L 388.747636 180.489364 
L 391.994182 189.027136 
L 395.240727 197.205038 
L 398.487273 204.798963 
" clip-path="url(#p8bd65bb4be)" style="fill: none; stroke: #ff7f0e; stroke-linecap: square"/>
   </g>
   <g id="line2d_31">
    <path d="M 73.832727 194.352256 
L 77.079273 188.213508 
L 80.325818 178.83138 
L 83.572364 167.577995 
L 86.818909 156.171245 
L 90.065455 146.179151 
L 93.312 138.654769 
L 96.558545 134.011362 
L 99.805091 132.121207 
L 103.051636 132.517561 
L 106.298182 134.565849 
L 109.544727 137.532256 
L 112.791273 140.58369 
L 116.037818 142.820051 
L 119.284364 143.419603 
L 122.530909 141.889348 
L 125.777455 138.316903 
L 129.024 133.479061 
L 132.270545 128.718107 
L 135.517091 125.604847 
L 138.763636 125.513491 
L 142.010182 129.266596 
L 145.256727 136.958235 
L 148.503273 147.971857 
L 151.749818 161.131862 
L 154.996364 174.913814 
L 158.242909 187.674945 
L 161.489455 197.898877 
L 164.736 204.437786 
L 167.982545 206.691164 
L 171.229091 204.64392 
L 174.475636 198.728994 
L 177.722182 189.578208 
L 180.968727 177.803332 
L 184.215273 163.935603 
L 187.461818 148.559614 
L 190.708364 132.535861 
L 193.954909 117.137568 
L 197.201455 103.964687 
L 200.448 94.628495 
L 203.694545 90.333615 
L 206.941091 91.542948 
L 210.187636 97.863605 
L 213.434182 108.187479 
L 216.680727 121.008055 
L 219.927273 134.781368 
L 223.173818 148.198388 
L 226.420364 160.301716 
L 229.666909 170.454776 
L 232.913455 178.242867 
L 236.16 183.395286 
L 239.406545 185.77719 
L 242.653091 185.442187 
L 245.899636 182.685602 
L 249.146182 178.054857 
L 252.392727 172.296867 
L 255.639273 166.27446 
L 258.885818 160.891096 
L 262.132364 157.047528 
L 265.378909 155.610406 
L 268.625455 157.338656 
L 271.872 162.723033 
L 275.118545 171.756017 
L 278.365091 183.73676 
L 281.611636 197.25275 
L 284.858182 210.427442 
L 288.104727 221.37778 
L 291.351273 228.69267 
L 294.597818 231.707123 
L 297.844364 230.451589 
L 301.090909 225.335233 
L 304.337455 216.759185 
L 307.584 204.88173 
L 310.830545 189.651793 
L 314.077091 171.085591 
L 317.323636 149.634048 
L 320.570182 126.450368 
L 323.816727 103.399438 
L 327.063273 82.763366 
L 330.309818 66.721616 
L 333.556364 56.808646 
L 336.802909 53.568 
L 340.049455 56.536307 
L 343.296 64.52621 
L 346.542545 76.033817 
L 349.789091 89.579742 
L 353.035636 103.893313 
L 356.282182 117.974877 
L 359.528727 131.117674 
L 362.775273 142.918335 
L 366.021818 153.230896 
L 369.268364 162.017635 
L 372.514909 169.1463 
L 375.761455 174.272534 
L 379.008 176.936569 
L 382.254545 176.866442 
L 385.501091 174.31282 
L 388.747636 170.184967 
L 391.994182 165.859994 
L 395.240727 162.735549 
L 398.487273 161.744976 
" clip-path="url(#p8bd65bb4be)" style="fill: none; stroke: #2ca02c; stroke-linecap: square"/>
   </g>
   <g id="line2d_32">
    <path d="M 73.832727 220.074388 
L 77.079273 213.145431 
L 80.325818 201.115442 
L 83.572364 185.342925 
L 86.818909 168.142883 
L 90.065455 152.091013 
L 93.312 139.352616 
L 96.558545 131.278479 
L 99.805091 128.324596 
L 103.051636 130.166358 
L 106.298182 135.848618 
L 109.544727 143.909587 
L 112.791273 152.554277 
L 116.037818 159.976667 
L 119.284364 164.816178 
L 122.530909 166.582717 
L 125.777455 165.810806 
L 129.024 163.808193 
L 132.270545 162.076887 
L 135.517091 161.685415 
L 138.763636 162.912276 
L 142.010182 165.334443 
L 145.256727 168.273385 
L 148.503273 171.307712 
L 151.749818 174.542311 
L 154.996364 178.500384 
L 158.242909 183.744091 
L 161.489455 190.480483 
L 164.736 198.369398 
L 167.982545 206.590243 
L 171.229091 214.056646 
L 174.475636 219.626283 
L 177.722182 222.223968 
L 180.968727 220.918837 
L 184.215273 215.047186 
L 187.461818 204.41218 
L 190.708364 189.489421 
L 193.954909 171.497623 
L 197.201455 152.240064 
L 200.448 133.735413 
L 203.694545 117.777929 
L 206.941091 105.597447 
L 210.187636 97.73231 
L 213.434182 94.125012 
L 216.680727 94.365254 
L 219.927273 97.973214 
L 223.173818 104.62815 
L 226.420364 114.268319 
L 229.666909 127.019503 
L 232.913455 142.969321 
L 236.16 161.882019 
L 239.406545 183.004743 
L 242.653091 205.088994 
L 245.899636 226.618228 
L 249.146182 246.104937 
L 252.392727 262.288173 
L 255.639273 274.169653 
L 258.885818 280.977607 
L 262.132364 282.206333 
L 265.378909 277.791971 
L 268.625455 268.335169 
L 271.872 255.18907 
L 275.118545 240.284335 
L 278.365091 225.700819 
L 281.611636 213.134896 
L 284.858182 203.459504 
L 288.104727 196.540888 
L 291.351273 191.378636 
L 294.597818 186.514042 
L 297.844364 180.549787 
L 301.090909 172.582613 
L 304.337455 162.405381 
L 307.584 150.458658 
L 310.830545 137.637174 
L 314.077091 125.093718 
L 317.323636 114.119832 
L 320.570182 106.067738 
L 323.816727 102.213684 
L 327.063273 103.511925 
L 330.309818 110.306672 
L 333.556364 122.156994 
L 336.802909 137.902244 
L 340.049455 155.953691 
L 343.296 174.656615 
L 346.542545 192.540664 
L 349.789091 208.371504 
L 353.035636 221.069315 
L 356.282182 229.637667 
L 359.528727 233.204244 
L 362.775273 231.170852 
L 366.021818 223.388652 
L 369.268364 210.276081 
L 372.514909 192.858804 
L 375.761455 172.745589 
L 379.008 152.03654 
L 382.254545 133.120041 
L 385.501091 118.314548 
L 388.747636 109.389053 
L 391.994182 107.104129 
L 395.240727 110.968958 
L 398.487273 119.35193 
" clip-path="url(#p8bd65bb4be)" style="fill: none; stroke: #d62728; stroke-linecap: square"/>
   </g>
   <g id="line2d_33">
    <path d="M 73.832727 224.237629 
L 77.079273 212.315392 
L 80.325818 196.286423 
L 83.572364 179.335718 
L 86.818909 164.57211 
L 90.065455 154.314875 
L 93.312 149.669961 
L 96.558545 150.397735 
L 99.805091 155.033398 
L 103.051636 161.27144 
L 106.298182 166.604561 
L 109.544727 169.104609 
L 112.791273 168.088769 
L 116.037818 164.379607 
L 119.284364 160.010909 
L 122.530909 157.479613 
L 125.777455 158.849171 
L 129.024 165.063459 
L 132.270545 175.707787 
L 135.517091 189.251491 
L 138.763636 203.619971 
L 142.010182 216.856681 
L 145.256727 227.643708 
L 148.503273 235.54128 
L 151.749818 240.918872 
L 154.996364 244.643161 
L 158.242909 247.654126 
L 161.489455 250.587139 
L 164.736 253.583776 
L 167.982545 256.355071 
L 171.229091 258.438745 
L 174.475636 259.48146 
L 177.722182 259.365049 
L 180.968727 258.114823 
L 184.215273 255.683174 
L 187.461818 251.800926 
L 190.708364 246.030035 
L 193.954909 237.999028 
L 197.201455 227.662778 
L 200.448 215.416659 
L 203.694545 201.991045 
L 206.941091 188.206092 
L 210.187636 174.740585 
L 213.434182 162.055053 
L 216.680727 150.499505 
L 219.927273 140.509837 
L 223.173818 132.730343 
L 226.420364 127.925127 
L 229.666909 126.668809 
L 232.913455 128.962197 
L 236.16 134.019213 
L 239.406545 140.412373 
L 242.653091 146.585588 
L 245.899636 151.518366 
L 249.146182 155.214693 
L 252.392727 158.751671 
L 255.639273 163.823159 
L 258.885818 171.950122 
L 262.132364 183.686872 
L 265.378909 198.174943 
L 268.625455 213.266814 
L 271.872 226.20856 
L 275.118545 234.609678 
L 278.365091 237.28762 
L 281.611636 234.625865 
L 284.858182 228.314241 
L 288.104727 220.618342 
L 291.351273 213.514777 
L 294.597818 208.03916 
L 297.844364 204.074403 
L 301.090909 200.606736 
L 304.337455 196.311488 
L 307.584 190.218898 
L 310.830545 182.200421 
L 314.077091 173.094451 
L 317.323636 164.426161 
L 320.570182 157.841041 
L 323.816727 154.484833 
L 327.063273 154.596805 
L 330.309818 157.489081 
L 333.556364 161.900634 
L 336.802909 166.528689 
L 340.049455 170.466113 
L 343.296 173.363549 
L 346.542545 175.316294 
L 349.789091 176.62644 
L 353.035636 177.593808 
L 356.282182 178.407034 
L 359.528727 179.105196 
L 362.775273 179.572588 
L 366.021818 179.577307 
L 369.268364 178.880995 
L 372.514909 177.403255 
L 375.761455 175.338792 
L 379.008 173.12292 
L 382.254545 171.225416 
L 385.501091 169.893626 
L 388.747636 169.030467 
L 391.994182 168.319359 
L 395.240727 167.541103 
L 398.487273 166.883302 
" clip-path="url(#p8bd65bb4be)" style="fill: none; stroke: #9467bd; stroke-linecap: square"/>
   </g>
   <g id="line2d_34">
    <path d="M 73.832727 171.739469 
L 77.079273 161.730104 
L 80.325818 155.326979 
L 83.572364 152.003262 
L 86.818909 150.447004 
L 90.065455 149.190083 
L 93.312 147.267173 
L 96.558545 144.671512 
L 99.805091 142.44475 
L 103.051636 142.339497 
L 106.298182 146.131952 
L 109.544727 154.799754 
L 112.791273 167.881501 
L 116.037818 183.301518 
L 119.284364 197.778147 
L 122.530909 207.698248 
L 125.777455 210.157333 
L 129.024 203.827706 
L 132.270545 189.408384 
L 135.517091 169.555035 
L 138.763636 148.319786 
L 142.010182 130.213264 
L 145.256727 119.100263 
L 148.503273 117.229377 
L 151.749818 124.727183 
L 154.996364 139.763419 
L 158.242909 159.32186 
L 161.489455 180.224695 
L 164.736 199.951934 
L 167.982545 216.954653 
L 171.229091 230.476183 
L 174.475636 240.152464 
L 177.722182 245.71145 
L 180.968727 246.926791 
L 184.215273 243.77695 
L 187.461818 236.6411 
L 190.708364 226.37896 
L 193.954909 214.234088 
L 197.201455 201.587855 
L 200.448 189.654042 
L 203.694545 179.236354 
L 206.941091 170.66195 
L 210.187636 163.937234 
L 213.434182 159.050717 
L 216.680727 156.249337 
L 219.927273 156.10715 
L 223.173818 159.319911 
L 226.420364 166.324885 
L 229.666909 176.945583 
L 232.913455 190.240493 
L 236.16 204.611119 
L 239.406545 218.108333 
L 242.653091 228.823459 
L 245.899636 235.267024 
L 249.146182 236.669165 
L 252.392727 233.137454 
L 255.639273 225.608565 
L 258.885818 215.569092 
L 262.132364 204.613941 
L 265.378909 193.995112 
L 268.625455 184.335323 
L 271.872 175.600592 
L 275.118545 167.304915 
L 278.365091 158.829972 
L 281.611636 149.720763 
L 284.858182 139.867958 
L 288.104727 129.556158 
L 291.351273 119.414772 
L 294.597818 110.329029 
L 297.844364 103.348651 
L 301.090909 99.59698 
L 304.337455 100.141295 
L 307.584 105.800355 
L 310.830545 116.908591 
L 314.077091 133.110088 
L 317.323636 153.279263 
L 320.570182 175.615051 
L 323.816727 197.892231 
L 327.063273 217.801451 
L 330.309818 233.303496 
L 333.556364 242.933049 
L 336.802909 246.011598 
L 340.049455 242.731398 
L 343.296 234.089033 
L 346.542545 221.674701 
L 349.789091 207.356235 
L 353.035636 192.93829 
L 356.282182 179.895947 
L 359.528727 169.272286 
L 362.775273 161.762443 
L 366.021818 157.901907 
L 369.268364 158.194127 
L 372.514909 163.023455 
L 375.761455 172.338917 
L 379.008 185.274291 
L 382.254545 199.979854 
L 385.501091 213.87926 
L 388.747636 224.343693 
L 391.994182 229.530197 
L 395.240727 228.999483 
L 398.487273 223.820915 
" clip-path="url(#p8bd65bb4be)" style="fill: none; stroke: #8c564b; stroke-linecap: square"/>
   </g>
   <g id="patch_3">
    <path d="M 57.6 307.584 
L 57.6 41.472 
" style="fill: none; stroke: #000000; stroke-width: 0.8; stroke-linejoin: miter; stroke-linecap: square"/>
   </g>
   <g id="patch_4">
    <path d="M 414.72 307.584 
L 414.72 41.472 
" style="fill: none; stroke: #000000; stroke-width: 0.8; stroke-linejoin: miter; stroke-linecap: square"/>
   </g>
   <g id="patch_5">
    <path d="M 57.6 307.584 
L 414.72 307.584 
" style="fill: none; stroke: #000000; stroke-width: 0.8; stroke-linejoin: miter; stroke-linecap: square"/>
   </g>
   <g id="patch_6">
    <path d="M 57.6 41.472 
L 414.72 41.472 
" style="fill: none; stroke: #000000; stroke-width: 0.8; stroke-linejoin: miter; stroke-linecap: square"/>
   </g>
   <g id="line2d_35">
    <path d="M 73.832727 173.147752 
L 77.079273 167.569953 
L 80.325818 160.449819 
L 83.572364 154.242101 
L 86.818909 151.361929 
L 90.065455 153.184255 
L 93.312 159.451818 
L 96.558545 168.407079 
L 99.805091 177.59207 
L 103.051636 184.916728 
L 106.298182 189.460227 
L 109.544727 191.648645 
L 112.791273 192.807183 
L 116.037818 194.41553 
L 119.284364 197.482448 
L 122.530909 202.304858 
L 125.777455 208.599913 
L 129.024 215.80645 
L 132.270545 223.318555 
L 135.517091 230.542176 
L 138.763636 236.811615 
L 142.010182 241.297769 
L 145.256727 243.028008 
L 148.503273 241.058551 
L 151.749818 234.747941 
L 154.996364 224.014611 
L 158.242909 209.453648 
L 161.489455 192.250173 
L 164.736 173.909493 
L 167.982545 155.910074 
L 171.229091 139.406359 
L 174.475636 125.074127 
L 177.722182 113.122834 
L 180.968727 103.442275 
L 184.215273 95.815391 
L 187.461818 90.114704 
L 190.708364 86.402364 
L 193.954909 84.891235 
L 197.201455 85.790002 
L 200.448 89.126781 
L 203.694545 94.672432 
L 206.941091 102.022997 
L 210.187636 110.796264 
L 213.434182 120.798433 
L 216.680727 132.030248 
L 219.927273 144.50706 
L 223.173818 158.005466 
L 226.420364 171.9035 
L 229.666909 185.227781 
L 232.913455 196.868672 
L 236.16 205.835649 
L 239.406545 211.422838 
L 242.653091 213.262053 
L 245.899636 211.325277 
L 249.146182 205.936632 
L 252.392727 197.780021 
L 255.639273 187.825377 
L 258.885818 177.122386 
L 262.132364 166.509081 
L 265.378909 156.370423 
L 268.625455 146.582167 
L 271.872 136.680376 
L 275.118545 126.182924 
L 278.365091 114.92123 
L 281.611636 103.250749 
L 284.858182 92.077759 
L 288.104727 82.713868 
L 291.351273 76.611998 
L 294.597818 75.046315 
L 297.844364 78.79665 
L 301.090909 87.901192 
L 304.337455 101.554798 
L 307.584 118.210105 
L 310.830545 135.885243 
L 314.077091 152.598257 
L 317.323636 166.792313 
L 320.570182 177.610747 
L 323.816727 184.955964 
L 327.063273 189.338555 
L 330.309818 191.598544 
L 333.556364 192.588421 
L 336.802909 192.8993 
L 340.049455 192.696559 
L 343.296 191.725691 
L 346.542545 189.525992 
L 349.789091 185.822041 
L 353.035636 180.948236 
L 356.282182 176.08039 
L 359.528727 173.083718 
L 362.775273 173.953438 
L 366.021818 180.048714 
L 369.268364 191.457992 
L 372.514909 206.792112 
L 375.761455 223.50552 
L 379.008 238.597903 
L 382.254545 249.404031 
L 385.501091 254.176926 
L 388.747636 252.309188 
L 391.994182 244.208066 
L 395.240727 230.965348 
L 398.487273 213.991703 
" clip-path="url(#p8bd65bb4be)" style="fill: none; stroke: #e377c2; stroke-linecap: square"/>
   </g>
   <g id="line2d_36">
    <path d="M 73.832727 168.264481 
L 77.079273 158.511932 
L 80.325818 156.64839 
L 83.572364 162.91538 
L 86.818909 175.539325 
L 90.065455 191.136733 
L 93.312 205.653206 
L 96.558545 215.556486 
L 99.805091 218.878423 
L 103.051636 215.733421 
L 106.298182 208.141557 
L 109.544727 199.26088 
L 112.791273 192.347295 
L 116.037818 189.818397 
L 119.284364 192.706026 
L 122.530909 200.596955 
L 125.777455 211.994322 
L 129.024 224.919576 
L 132.270545 237.547657 
L 135.517091 248.684558 
L 138.763636 257.961171 
L 142.010182 265.695993 
L 145.256727 272.497466 
L 148.503273 278.778022 
L 151.749818 284.402179 
L 154.996364 288.635533 
L 158.242909 290.426885 
L 161.489455 288.900674 
L 164.736 283.843968 
L 167.982545 275.972179 
L 171.229091 266.843284 
L 174.475636 258.433345 
L 177.722182 252.516418 
L 180.968727 250.072218 
L 184.215273 250.933261 
L 187.461818 253.793182 
L 190.708364 256.569302 
L 193.954909 256.998111 
L 197.201455 253.27149 
L 200.448 244.517437 
L 203.694545 230.98364 
L 206.941091 213.886485 
L 210.187636 195.003123 
L 213.434182 176.166227 
L 216.680727 158.84257 
L 219.927273 143.919008 
L 223.173818 131.730222 
L 226.420364 122.255299 
L 229.666909 115.368535 
L 232.913455 111.036145 
L 236.16 109.407409 
L 239.406545 110.802445 
L 242.653091 115.609425 
L 245.899636 124.105158 
L 249.146182 136.216756 
L 252.392727 151.28513 
L 255.639273 167.93809 
L 258.885818 184.187591 
L 262.132364 197.786694 
L 265.378909 206.759223 
L 268.625455 209.903259 
L 271.872 207.065444 
L 275.118545 199.087592 
L 278.365091 187.482214 
L 281.611636 174.005086 
L 284.858182 160.287956 
L 288.104727 147.61638 
L 291.351273 136.842324 
L 294.597818 128.37626 
L 297.844364 122.225667 
L 301.090909 118.07983 
L 304.337455 115.45262 
L 307.584 113.867035 
L 310.830545 113.017171 
L 314.077091 112.831176 
L 317.323636 113.393074 
L 320.570182 114.768246 
L 323.816727 116.844887 
L 327.063273 119.30269 
L 330.309818 121.73283 
L 333.556364 123.830547 
L 336.802909 125.536286 
L 340.049455 127.047357 
L 343.296 128.715429 
L 346.542545 130.894849 
L 349.789091 133.794025 
L 353.035636 137.357597 
L 356.282182 141.203888 
L 359.528727 144.667638 
L 362.775273 146.98724 
L 366.021818 147.598964 
L 369.268364 146.410961 
L 372.514909 143.898747 
L 375.761455 140.953535 
L 379.008 138.539656 
L 382.254545 137.336937 
L 385.501091 137.534835 
L 388.747636 138.860952 
L 391.994182 140.78107 
L 395.240727 142.723534 
L 398.487273 144.195353 
" clip-path="url(#p8bd65bb4be)" style="fill: none; stroke: #7f7f7f; stroke-linecap: square"/>
   </g>
   <g id="line2d_37">
    <path d="M 73.832727 164.701549 
L 77.079273 162.930699 
L 80.325818 158.023372 
L 83.572364 150.20432 
L 86.818909 140.333763 
L 90.065455 129.561888 
L 93.312 119.040891 
L 96.558545 109.772917 
L 99.805091 102.550145 
L 103.051636 97.91112 
L 106.298182 96.093988 
L 109.544727 97.046217 
L 112.791273 100.537174 
L 116.037818 106.33916 
L 119.284364 114.359557 
L 122.530909 124.615821 
L 125.777455 137.057666 
L 129.024 151.353706 
L 132.270545 166.808343 
L 135.517091 182.486792 
L 138.763636 197.489926 
L 142.010182 211.22006 
L 145.256727 223.501734 
L 148.503273 234.523714 
L 151.749818 244.672722 
L 154.996364 254.34383 
L 158.242909 263.762446 
L 161.489455 272.804289 
L 164.736 280.831112 
L 167.982545 286.64017 
L 171.229091 288.659832 
L 174.475636 285.433795 
L 177.722182 276.245188 
L 180.968727 261.56809 
L 184.215273 243.063514 
L 187.461818 223.06623 
L 190.708364 203.807669 
L 193.954909 186.78355 
L 197.201455 172.569864 
L 200.448 161.107183 
L 203.694545 152.188689 
L 206.941091 145.815061 
L 210.187636 142.222088 
L 213.434182 141.640977 
L 216.680727 144.026493 
L 219.927273 148.965856 
L 223.173818 155.811033 
L 226.420364 163.89405 
L 229.666909 172.629644 
L 232.913455 181.422304 
L 236.16 189.469781 
L 239.406545 195.653831 
L 242.653091 198.663813 
L 245.899636 197.356337 
L 249.146182 191.208159 
L 252.392727 180.652807 
L 255.639273 167.130317 
L 258.885818 152.77463 
L 262.132364 139.811878 
L 265.378909 129.875213 
L 268.625455 123.513478 
L 271.872 120.118603 
L 275.118545 118.326803 
L 278.365091 116.733131 
L 281.611636 114.614494 
L 284.858182 112.352763 
L 288.104727 111.384224 
L 291.351273 113.693804 
L 294.597818 121.049516 
L 297.844364 134.25661 
L 301.090909 152.702595 
L 304.337455 174.355379 
L 307.584 196.220466 
L 310.830545 215.099446 
L 314.077091 228.396358 
L 317.323636 234.72359 
L 320.570182 234.158589 
L 323.816727 228.119719 
L 327.063273 218.934234 
L 330.309818 209.213964 
L 333.556364 201.194782 
L 336.802909 196.222915 
L 340.049455 194.562355 
L 343.296 195.595116 
L 346.542545 198.317842 
L 349.789091 201.877502 
L 353.035636 205.869978 
L 356.282182 210.270872 
L 359.528727 215.102577 
L 362.775273 220.095888 
L 366.021818 224.596516 
L 369.268364 227.792358 
L 372.514909 229.130718 
L 375.761455 228.674295 
L 379.008 227.175966 
L 382.254545 225.806553 
L 385.501091 225.648178 
L 388.747636 227.18498 
L 391.994182 230.019982 
L 395.240727 232.941781 
L 398.487273 234.310963 
" clip-path="url(#p8bd65bb4be)" style="fill: none; stroke: #bcbd22; stroke-linecap: square"/>
   </g>
   <g id="line2d_38">
    <path d="M 73.832727 205.320614 
L 77.079273 195.908771 
L 80.325818 192.170229 
L 83.572364 193.734858 
L 86.818909 198.561917 
L 90.065455 203.632811 
L 93.312 206.06572 
L 96.558545 204.190316 
L 99.805091 198.107316 
L 103.051636 189.479029 
L 106.298182 180.66092 
L 109.544727 173.591626 
L 112.791273 168.969983 
L 116.037818 166.096665 
L 119.284364 163.426206 
L 122.530909 159.530659 
L 125.777455 153.973563 
L 129.024 147.655182 
L 132.270545 142.462784 
L 135.517091 140.420257 
L 138.763636 142.777664 
L 142.010182 149.4758 
L 145.256727 159.191092 
L 148.503273 169.862937 
L 151.749818 179.398158 
L 154.996364 186.242477 
L 158.242909 189.64437 
L 161.489455 189.62147 
L 164.736 186.748547 
L 167.982545 181.908764 
L 171.229091 176.107779 
L 174.475636 170.381339 
L 177.722182 165.761147 
L 180.968727 163.226735 
L 184.215273 163.579786 
L 187.461818 167.240367 
L 190.708364 174.039498 
L 193.954909 183.127545 
L 197.201455 193.087701 
L 200.448 202.262986 
L 203.694545 209.209889 
L 206.941091 213.138055 
L 210.187636 214.19069 
L 213.434182 213.462412 
L 216.680727 212.7173 
L 219.927273 213.856533 
L 223.173818 218.271113 
L 226.420364 226.28601 
L 229.666909 236.916981 
L 232.913455 248.077232 
L 236.16 257.203453 
L 239.406545 262.078984 
L 242.653091 261.536616 
L 245.899636 255.775374 
L 249.146182 246.206143 
L 252.392727 234.938199 
L 255.639273 224.130648 
L 258.885818 215.427797 
L 262.132364 209.622078 
L 265.378909 206.585964 
L 268.625455 205.436588 
L 271.872 204.855275 
L 275.118545 203.475939 
L 278.365091 200.265259 
L 281.611636 194.835363 
L 284.858182 187.617919 
L 288.104727 179.826331 
L 291.351273 173.15499 
L 294.597818 169.256523 
L 297.844364 169.157673 
L 301.090909 172.852283 
L 304.337455 179.270033 
L 307.584 186.657216 
L 310.830545 193.216357 
L 314.077091 197.727809 
L 317.323636 199.899208 
L 320.570182 200.318037 
L 323.816727 200.052793 
L 327.063273 200.086306 
L 330.309818 200.816906 
L 333.556364 201.826122 
L 336.802909 202.000898 
L 340.049455 199.946016 
L 343.296 194.500317 
L 346.542545 185.141202 
L 349.789091 172.12957 
L 353.035636 156.391013 
L 356.282182 139.245485 
L 359.528727 122.138095 
L 362.775273 106.470692 
L 366.021818 93.533204 
L 369.268364 84.461354 
L 372.514909 80.135884 
L 375.761455 81.000855 
L 379.008 86.875827 
L 382.254545 96.893379 
L 385.501091 109.669167 
L 388.747636 123.684656 
L 391.994182 137.735002 
L 395.240727 151.232548 
L 398.487273 164.225908 
" clip-path="url(#p8bd65bb4be)" style="fill: none; stroke: #17becf; stroke-linecap: square"/>
   </g>
  </g>
  <g id="text_17">
   <!-- amplitude=3.500, scale=0.500 -->
   <g transform="translate(136.396875 16.030125) scale(0.12 -0.12)">
    <defs>
     <path id="DejaVuSans-70" d="M 1159 525 
L 1159 -1331 
L 581 -1331 
L 581 3500 
L 1159 3500 
L 1159 2969 
Q 1341 3281 1617 3432 
Q 1894 3584 2278 3584 
Q 2916 3584 3314 3078 
Q 3713 2572 3713 1747 
Q 3713 922 3314 415 
Q 2916 -91 2278 -91 
Q 1894 -91 1617 61 
Q 1341 213 1159 525 
z
M 3116 1747 
Q 3116 2381 2855 2742 
Q 2594 3103 2138 3103 
Q 1681 3103 1420 2742 
Q 1159 2381 1159 1747 
Q 1159 1113 1420 752 
Q 1681 391 2138 391 
Q 2594 391 2855 752 
Q 3116 1113 3116 1747 
z
" transform="scale(0.015625)"/>
     <path id="DejaVuSans-74" d="M 1172 4494 
L 1172 3500 
L 2356 3500 
L 2356 3053 
L 1172 3053 
L 1172 1153 
Q 1172 725 1289 603 
Q 1406 481 1766 481 
L 2356 481 
L 2356 0 
L 1766 0 
Q 1100 0 847 248 
Q 594 497 594 1153 
L 594 3053 
L 172 3053 
L 172 3500 
L 594 3500 
L 594 4494 
L 1172 4494 
z
" transform="scale(0.015625)"/>
     <path id="DejaVuSans-64" d="M 2906 2969 
L 2906 4863 
L 3481 4863 
L 3481 0 
L 2906 0 
L 2906 525 
Q 2725 213 2448 61 
Q 2172 -91 1784 -91 
Q 1150 -91 751 415 
Q 353 922 353 1747 
Q 353 2572 751 3078 
Q 1150 3584 1784 3584 
Q 2172 3584 2448 3432 
Q 2725 3281 2906 2969 
z
M 947 1747 
Q 947 1113 1208 752 
Q 1469 391 1925 391 
Q 2381 391 2643 752 
Q 2906 1113 2906 1747 
Q 2906 2381 2643 2742 
Q 2381 3103 1925 3103 
Q 1469 3103 1208 2742 
Q 947 2381 947 1747 
z
" transform="scale(0.015625)"/>
     <path id="DejaVuSans-3d" d="M 678 2906 
L 4684 2906 
L 4684 2381 
L 678 2381 
L 678 2906 
z
M 678 1631 
L 4684 1631 
L 4684 1100 
L 678 1100 
L 678 1631 
z
" transform="scale(0.015625)"/>
     <path id="DejaVuSans-33" d="M 2597 2516 
Q 3050 2419 3304 2112 
Q 3559 1806 3559 1356 
Q 3559 666 3084 287 
Q 2609 -91 1734 -91 
Q 1441 -91 1130 -33 
Q 819 25 488 141 
L 488 750 
Q 750 597 1062 519 
Q 1375 441 1716 441 
Q 2309 441 2620 675 
Q 2931 909 2931 1356 
Q 2931 1769 2642 2001 
Q 2353 2234 1838 2234 
L 1294 2234 
L 1294 2753 
L 1863 2753 
Q 2328 2753 2575 2939 
Q 2822 3125 2822 3475 
Q 2822 3834 2567 4026 
Q 2313 4219 1838 4219 
Q 1578 4219 1281 4162 
Q 984 4106 628 3988 
L 628 4550 
Q 988 4650 1302 4700 
Q 1616 4750 1894 4750 
Q 2613 4750 3031 4423 
Q 3450 4097 3450 3541 
Q 3450 3153 3228 2886 
Q 3006 2619 2597 2516 
z
" transform="scale(0.015625)"/>
     <path id="DejaVuSans-2c" d="M 750 794 
L 1409 794 
L 1409 256 
L 897 -744 
L 494 -744 
L 750 256 
L 750 794 
z
" transform="scale(0.015625)"/>
     <path id="DejaVuSans-20" transform="scale(0.015625)"/>
     <path id="DejaVuSans-63" d="M 3122 3366 
L 3122 2828 
Q 2878 2963 2633 3030 
Q 2388 3097 2138 3097 
Q 1578 3097 1268 2742 
Q 959 2388 959 1747 
Q 959 1106 1268 751 
Q 1578 397 2138 397 
Q 2388 397 2633 464 
Q 2878 531 3122 666 
L 3122 134 
Q 2881 22 2623 -34 
Q 2366 -91 2075 -91 
Q 1284 -91 818 406 
Q 353 903 353 1747 
Q 353 2603 823 3093 
Q 1294 3584 2113 3584 
Q 2378 3584 2631 3529 
Q 2884 3475 3122 3366 
z
" transform="scale(0.015625)"/>
    </defs>
    <use xlink:href="#DejaVuSans-61"/>
    <use xlink:href="#DejaVuSans-6d" transform="translate(61.279297 0)"/>
    <use xlink:href="#DejaVuSans-70" transform="translate(158.691406 0)"/>
    <use xlink:href="#DejaVuSans-6c" transform="translate(222.167969 0)"/>
    <use xlink:href="#DejaVuSans-69" transform="translate(249.951172 0)"/>
    <use xlink:href="#DejaVuSans-74" transform="translate(277.734375 0)"/>
    <use xlink:href="#DejaVuSans-75" transform="translate(316.943359 0)"/>
    <use xlink:href="#DejaVuSans-64" transform="translate(380.322266 0)"/>
    <use xlink:href="#DejaVuSans-65" transform="translate(443.798828 0)"/>
    <use xlink:href="#DejaVuSans-3d" transform="translate(505.322266 0)"/>
    <use xlink:href="#DejaVuSans-33" transform="translate(589.111328 0)"/>
    <use xlink:href="#DejaVuSans-2e" transform="translate(652.734375 0)"/>
    <use xlink:href="#DejaVuSans-35" transform="translate(684.521484 0)"/>
    <use xlink:href="#DejaVuSans-30" transform="translate(748.144531 0)"/>
    <use xlink:href="#DejaVuSans-30" transform="translate(811.767578 0)"/>
    <use xlink:href="#DejaVuSans-2c" transform="translate(875.390625 0)"/>
    <use xlink:href="#DejaVuSans-20" transform="translate(907.177734 0)"/>
    <use xlink:href="#DejaVuSans-73" transform="translate(938.964844 0)"/>
    <use xlink:href="#DejaVuSans-63" transform="translate(991.064453 0)"/>
    <use xlink:href="#DejaVuSans-61" transform="translate(1046.044922 0)"/>
    <use xlink:href="#DejaVuSans-6c" transform="translate(1107.324219 0)"/>
    <use xlink:href="#DejaVuSans-65" transform="translate(1135.107422 0)"/>
    <use xlink:href="#DejaVuSans-3d" transform="translate(1196.630859 0)"/>
    <use xlink:href="#DejaVuSans-30" transform="translate(1280.419922 0)"/>
    <use xlink:href="#DejaVuSans-2e" transform="translate(1344.042969 0)"/>
    <use xlink:href="#DejaVuSans-35" transform="translate(1375.830078 0)"/>
    <use xlink:href="#DejaVuSans-30" transform="translate(1439.453125 0)"/>
    <use xlink:href="#DejaVuSans-30" transform="translate(1503.076172 0)"/>
   </g>
  </g>
 </g>
 <defs>
  <clipPath id="p8bd65bb4be">
   <rect x="57.6" y="41.472" width="357.12" height="266.112"/>
  </clipPath>
 </defs>
</svg>
