<?xml version="1.0" encoding="utf-8" standalone="no"?>
<!DOCTYPE svg PUBLIC "-//W3C//DTD SVG 1.1//EN"
  "http://www.w3.org/Graphics/SVG/1.1/DTD/svg11.dtd">
<svg xmlns:xlink="http://www.w3.org/1999/xlink" width="864pt" height="432pt" viewBox="0 0 864 432" xmlns="http://www.w3.org/2000/svg" version="1.1">
 <metadata>
  <rdf:RDF xmlns:dc="http://purl.org/dc/elements/1.1/" xmlns:cc="http://creativecommons.org/ns#" xmlns:rdf="http://www.w3.org/1999/02/22-rdf-syntax-ns#">
   <cc:Work>
    <dc:type rdf:resource="http://purl.org/dc/dcmitype/StillImage"/>
    <dc:date>2022-01-01T00:00:00+00:00</dc:date>
    <dc:format>image/svg+xml</dc:format>
    <dc:creator>
     <cc:Agent>
      <dc:title>Matplotlib v3.10.8, https://matplotlib.org/</dc:title>
     </cc:Agent>
    </dc:creator>
   </cc:Work>
  </rdf:RDF>
 </metadata>
 <defs>
  <style type="text/css">*{stroke-linejoin: round; stroke-linecap: butt}</style>
 </defs>
 <g id="figure_1">
  <g id="patch_1">
   <path d="M 0 432 
L 864 432 
L 864 0 
L 0 0 
z
" style="fill: #ffffff"/>
  </g>
  <g id="axes_1">
   <g id="patch_2">
    <path d="M 108 384.48 
L 412.363636 384.48 
L 412.363636 51.84 
L 108 51.84 
z
" style="fill: #ffffff"/>
   </g>
   <g id="matplotlib.axis_1">
    <g id="xtick_1">
     <g id="line2d_1">
      <path d="M 119.673037 384.48 
L 119.673037 51.84 
" clip-path="url(#pf214125af4)" style="fill: none; stroke: #b0b0b0; stroke-width: 0.8; stroke-linecap: square"/>
     </g>
     <g id="line2d_2">
      <defs>
       <path id="ma317334dc8" d="M 0 0 
L 0 3.5 
" style="stroke: #000000; stroke-width: 0.8"/>
      </defs>
      <g>
       <use xlink:href="#ma317334dc8" x="119.673037" y="384.48" style="stroke: #000000; stroke-width: 0.8"/>
      </g>
     </g>
     <g id="text_1">
      <!-- 0.0 -->
      <g transform="translate(111.721475 399.078438) scale(0.1 -0.1)">
       <defs>
        <path id="DejaVuSans-30" d="M 2034 4250 
Q 1547 4250 1301 3770 
Q 1056 3291 1056 2328 
Q 1056 1369 1301 889 
Q 1547 409 2034 409 
Q 2525 409 2770 889 
Q 3016 1369 3016 2328 
Q 3016 3291 2770 3770 
Q 2525 4250 2034 4250 
z
M 2034 4750 
Q 2819 4750 3233 4129 
Q 3647 3509 3647 2328 
Q 3647 1150 3233 529 
Q 2819 -91 2034 -91 
Q 1250 -91 836 529 
Q 422 1150 422 2328 
Q 422 3509 836 4129 
Q 1250 4750 2034 4750 
z
" transform="scale(0.015625)"/>
        <path id="DejaVuSans-2e" d="M 684 794 
L 1344 794 
L 1344 0 
L 684 0 
L 684 794 
z
" transform="scale(0.015625)"/>
       </defs>
       <use xlink:href="#DejaVuSans-30"/>
       <use xlink:href="#DejaVuSans-2e" transform="translate(63.623047 0)"/>
       <use xlink:href="#DejaVuSans-30" transform="translate(95.410156 0)"/>
      </g>
     </g>
    </g>
    <g id="xtick_2">
     <g id="line2d_3">
      <path d="M 175.87655 384.48 
L 175.87655 51.84 
" clip-path="url(#pf214125af4)" style="fill: none; stroke: #b0b0b0; stroke-width: 0.8; stroke-linecap: square"/>
     </g>
     <g id="line2d_4">
      <g>
       <use xlink:href="#ma317334dc8" x="175.87655" y="384.48" style="stroke: #000000; stroke-width: 0.8"/>
      </g>
     </g>
     <g id="text_2">
      <!-- 0.2 -->
      <g transform="translate(167.924987 399.078438) scale(0.1 -0.1)">
       <defs>
        <path id="DejaVuSans-32" d="M 1228 531 
L 3431 531 
L 3431 0 
L 469 0 
L 469 531 
Q 828 903 1448 1529 
Q 2069 2156 2228 2338 
Q 2531 2678 2651 2914 
Q 2772 3150 2772 3378 
Q 2772 3750 2511 3984 
Q 2250 4219 1831 4219 
Q 1534 4219 1204 4116 
Q 875 4013 500 3803 
L 500 4441 
Q 881 4594 1212 4672 
Q 1544 4750 1819 4750 
Q 2544 4750 2975 4387 
Q 3406 4025 3406 3419 
Q 3406 3131 3298 2873 
Q 3191 2616 2906 2266 
Q 2828 2175 2409 1742 
Q 1991 1309 1228 531 
z
" transform="scale(0.015625)"/>
       </defs>
       <use xlink:href="#DejaVuSans-30"/>
       <use xlink:href="#DejaVuSans-2e" transform="translate(63.623047 0)"/>
       <use xlink:href="#DejaVuSans-32" transform="translate(95.410156 0)"/>
      </g>
     </g>
    </g>
    <g id="xtick_3">
     <g id="line2d_5">
      <path d="M 232.080062 384.48 
L 232.080062 51.84 
" clip-path="url(#pf214125af4)" style="fill: none; stroke: #b0b0b0; stroke-width: 0.8; stroke-linecap: square"/>
     </g>
     <g id="line2d_6">
      <g>
       <use xlink:href="#ma317334dc8" x="232.080062" y="384.48" style="stroke: #000000; stroke-width: 0.8"/>
      </g>
     </g>
     <g id="text_3">
      <!-- 0.4 -->
      <g transform="translate(224.128499 399.078438) scale(0.1 -0.1)">
       <defs>
        <path id="DejaVuSans-34" d="M 2419 4116 
L 825 1625 
L 2419 1625 
L 2419 4116 
z
M 2253 4666 
L 3047 4666 
L 3047 1625 
L 3713 1625 
L 3713 1100 
L 3047 1100 
L 3047 0 
L 2419 0 
L 2419 1100 
L 313 1100 
L 313 1709 
L 2253 4666 
z
" transform="scale(0.015625)"/>
       </defs>
       <use xlink:href="#DejaVuSans-30"/>
       <use xlink:href="#DejaVuSans-2e" transform="translate(63.623047 0)"/>
       <use xlink:href="#DejaVuSans-34" transform="translate(95.410156 0)"/>
      </g>
     </g>
    </g>
    <g id="xtick_4">
     <g id="line2d_7">
      <path d="M 288.283574 384.48 
L 288.283574 51.84 
" clip-path="url(#pf214125af4)" style="fill: none; stroke: #b0b0b0; stroke-width: 0.8; stroke-linecap: square"/>
     </g>
     <g id="line2d_8">
      <g>
       <use xlink:href="#ma317334dc8" x="288.283574" y="384.48" style="stroke: #000000; stroke-width: 0.8"/>
      </g>
     </g>
     <g id="text_4">
      <!-- 0.6 -->
      <g transform="translate(280.332012 399.078438) scale(0.1 -0.1)">
       <defs>
        <path id="DejaVuSans-36" d="M 2113 2584 
Q 1688 2584 1439 2293 
Q 1191 2003 1191 1497 
Q 1191 994 1439 701 
Q 1688 409 2113 409 
Q 2538 409 2786 701 
Q 3034 994 3034 1497 
Q 3034 2003 2786 2293 
Q 2538 2584 2113 2584 
z
M 3366 4563 
L 3366 3988 
Q 3128 4100 2886 4159 
Q 2644 4219 2406 4219 
Q 1781 4219 1451 3797 
Q 1122 3375 1075 2522 
Q 1259 2794 1537 2939 
Q 1816 3084 2150 3084 
Q 2853 3084 3261 2657 
Q 3669 2231 3669 1497 
Q 3669 778 3244 343 
Q 2819 -91 2113 -91 
Q 1303 -91 875 529 
Q 447 1150 447 2328 
Q 447 3434 972 4092 
Q 1497 4750 2381 4750 
Q 2619 4750 2861 4703 
Q 3103 4656 3366 4563 
z
" transform="scale(0.015625)"/>
       </defs>
       <use xlink:href="#DejaVuSans-30"/>
       <use xlink:href="#DejaVuSans-2e" transform="translate(63.623047 0)"/>
       <use xlink:href="#DejaVuSans-36" transform="translate(95.410156 0)"/>
      </g>
     </g>
    </g>
    <g id="xtick_5">
     <g id="line2d_9">
      <path d="M 344.487087 384.48 
L 344.487087 51.84 
" clip-path="url(#pf214125af4)" style="fill: none; stroke: #b0b0b0; stroke-width: 0.8; stroke-linecap: square"/>
     </g>
     <g id="line2d_10">
      <g>
       <use xlink:href="#ma317334dc8" x="344.487087" y="384.48" style="stroke: #000000; stroke-width: 0.8"/>
      </g>
     </g>
     <g id="text_5">
      <!-- 0.8 -->
      <g transform="translate(336.535524 399.078438) scale(0.1 -0.1)">
       <defs>
        <path id="DejaVuSans-38" d="M 2034 2216 
Q 1584 2216 1326 1975 
Q 1069 1734 1069 1313 
Q 1069 891 1326 650 
Q 1584 409 2034 409 
Q 2484 409 2743 651 
Q 3003 894 3003 1313 
Q 3003 1734 2745 1975 
Q 2488 2216 2034 2216 
z
M 1403 2484 
Q 997 2584 770 2862 
Q 544 3141 544 3541 
Q 544 4100 942 4425 
Q 1341 4750 2034 4750 
Q 2731 4750 3128 4425 
Q 3525 4100 3525 3541 
Q 3525 3141 3298 2862 
Q 3072 2584 2669 2484 
Q 3125 2378 3379 2068 
Q 3634 1759 3634 1313 
Q 3634 634 3220 271 
Q 2806 -91 2034 -91 
Q 1263 -91 848 271 
Q 434 634 434 1313 
Q 434 1759 690 2068 
Q 947 2378 1403 2484 
z
M 1172 3481 
Q 1172 3119 1398 2916 
Q 1625 2713 2034 2713 
Q 2441 2713 2670 2916 
Q 2900 3119 2900 3481 
Q 2900 3844 2670 4047 
Q 2441 4250 2034 4250 
Q 1625 4250 1398 4047 
Q 1172 3844 1172 3481 
z
" transform="scale(0.015625)"/>
       </defs>
       <use xlink:href="#DejaVuSans-30"/>
       <use xlink:href="#DejaVuSans-2e" transform="translate(63.623047 0)"/>
       <use xlink:href="#DejaVuSans-38" transform="translate(95.410156 0)"/>
      </g>
     </g>
    </g>
    <g id="xtick_6">
     <g id="line2d_11">
      <path d="M 400.690599 384.48 
L 400.690599 51.84 
" clip-path="url(#pf214125af4)" style="fill: none; stroke: #b0b0b0; stroke-width: 0.8; stroke-linecap: square"/>
     </g>
     <g id="line2d_12">
      <g>
       <use xlink:href="#ma317334dc8" x="400.690599" y="384.48" style="stroke: #000000; stroke-width: 0.8"/>
      </g>
     </g>
     <g id="text_6">
      <!-- 1.0 -->
      <g transform="translate(392.739037 399.078438) scale(0.1 -0.1)">
       <defs>
        <path id="DejaVuSans-31" d="M 794 531 
L 1825 531 
L 1825 4091 
L 703 3866 
L 703 4441 
L 1819 4666 
L 2450 4666 
L 2450 531 
L 3481 531 
L 3481 0 
L 794 0 
L 794 531 
z
" transform="scale(0.015625)"/>
       </defs>
       <use xlink:href="#DejaVuSans-31"/>
       <use xlink:href="#DejaVuSans-2e" transform="translate(63.623047 0)"/>
       <use xlink:href="#DejaVuSans-30" transform="translate(95.410156 0)"/>
      </g>
     </g>
    </g>
    <g id="text_7">
     <!-- u -->
     <g transform="translate(257.013068 412.756563) scale(0.1 -0.1)">
      <defs>
       <path id="DejaVuSans-75" d="M 544 1381 
L 544 3500 
L 1119 3500 
L 1119 1403 
Q 1119 906 1312 657 
Q 1506 409 1894 409 
Q 2359 409 2629 706 
Q 2900 1003 2900 1516 
L 2900 3500 
L 3475 3500 
L 3475 0 
L 2900 0 
L 2900 538 
Q 2691 219 2414 64 
Q 2138 -91 1772 -91 
Q 1169 -91 856 284 
Q 544 659 544 1381 
z
M 1991 3584 
L 1991 3584 
z
" transform="scale(0.015625)"/>
      </defs>
      <use xlink:href="#DejaVuSans-75"/>
     </g>
    </g>
   </g>
   <g id="matplotlib.axis_2">
    <g id="ytick_1">
     <g id="line2d_13">
      <path d="M 108 328.96519 
L 412.363636 328.96519 
" clip-path="url(#pf214125af4)" style="fill: none; stroke: #b0b0b0; stroke-width: 0.8; stroke-linecap: square"/>
     </g>
     <g id="line2d_14">
      <defs>
       <path id="m9f3a5b954a" d="M 0 0 
L -3.5 0 
" style="stroke: #000000; stroke-width: 0.8"/>
      </defs>
      <g>
       <use xlink:href="#m9f3a5b954a" x="108" y="328.96519" style="stroke: #000000; stroke-width: 0.8"/>
      </g>
     </g>
     <g id="text_8">
      <!-- −1.0 -->
      <g transform="translate(76.717187 332.764409) scale(0.1 -0.1)">
       <defs>
        <path id="DejaVuSans-2212" d="M 678 2272 
L 4684 2272 
L 4684 1741 
L 678 1741 
L 678 2272 
z
" transform="scale(0.015625)"/>
       </defs>
       <use xlink:href="#DejaVuSans-2212"/>
       <use xlink:href="#DejaVuSans-31" transform="translate(83.789062 0)"/>
       <use xlink:href="#DejaVuSans-2e" transform="translate(147.412109 0)"/>
       <use xlink:href="#DejaVuSans-30" transform="translate(179.199219 0)"/>
      </g>
     </g>
    </g>
    <g id="ytick_2">
     <g id="line2d_15">
      <path d="M 108 263.463893 
L 412.363636 263.463893 
" clip-path="url(#pf214125af4)" style="fill: none; stroke: #b0b0b0; stroke-width: 0.8; stroke-linecap: square"/>
     </g>
     <g id="line2d_16">
      <g>
       <use xlink:href="#m9f3a5b954a" x="108" y="263.463893" style="stroke: #000000; stroke-width: 0.8"/>
      </g>
     </g>
     <g id="text_9">
      <!-- −0.5 -->
      <g transform="translate(76.717187 267.263112) scale(0.1 -0.1)">
       <defs>
        <path id="DejaVuSans-35" d="M 691 4666 
L 3169 4666 
L 3169 4134 
L 1269 4134 
L 1269 2991 
Q 1406 3038 1543 3061 
Q 1681 3084 1819 3084 
Q 2600 3084 3056 2656 
Q 3513 2228 3513 1497 
Q 3513 744 3044 326 
Q 2575 -91 1722 -91 
Q 1428 -91 1123 -41 
Q 819 9 494 109 
L 494 744 
Q 775 591 1075 516 
Q 1375 441 1709 441 
Q 2250 441 2565 725 
Q 2881 1009 2881 1497 
Q 2881 1984 2565 2268 
Q 2250 2553 1709 2553 
Q 1456 2553 1204 2497 
Q 953 2441 691 2322 
L 691 4666 
z
" transform="scale(0.015625)"/>
       </defs>
       <use xlink:href="#DejaVuSans-2212"/>
       <use xlink:href="#DejaVuSans-30" transform="translate(83.789062 0)"/>
       <use xlink:href="#DejaVuSans-2e" transform="translate(147.412109 0)"/>
       <use xlink:href="#DejaVuSans-35" transform="translate(179.199219 0)"/>
      </g>
     </g>
    </g>
    <g id="ytick_3">
     <g id="line2d_17">
      <path d="M 108 197.962595 
L 412.363636 197.962595 
" clip-path="url(#pf214125af4)" style="fill: none; stroke: #b0b0b0; stroke-width: 0.8; stroke-linecap: square"/>
     </g>
     <g id="line2d_18">
      <g>
       <use xlink:href="#m9f3a5b954a" x="108" y="197.962595" style="stroke: #000000; stroke-width: 0.8"/>
      </g>
     </g>
     <g id="text_10">
      <!-- 0.0 -->
      <g transform="translate(85.096875 201.761814) scale(0.1 -0.1)">
       <use xlink:href="#DejaVuSans-30"/>
       <use xlink:href="#DejaVuSans-2e" transform="translate(63.623047 0)"/>
       <use xlink:href="#DejaVuSans-30" transform="translate(95.410156 0)"/>
      </g>
     </g>
    </g>
    <g id="ytick_4">
     <g id="line2d_19">
      <path d="M 108 132.461298 
L 412.363636 132.461298 
" clip-path="url(#pf214125af4)" style="fill: none; stroke: #b0b0b0; stroke-width: 0.8; stroke-linecap: square"/>
     </g>
     <g id="line2d_20">
      <g>
       <use xlink:href="#m9f3a5b954a" x="108" y="132.461298" style="stroke: #000000; stroke-width: 0.8"/>
      </g>
     </g>
     <g id="text_11">
      <!-- 0.5 -->
      <g transform="translate(85.096875 136.260516) scale(0.1 -0.1)">
       <use xlink:href="#DejaVuSans-30"/>
       <use xlink:href="#DejaVuSans-2e" transform="translate(63.623047 0)"/>
       <use xlink:href="#DejaVuSans-35" transform="translate(95.410156 0)"/>
      </g>
     </g>
    </g>
    <g id="ytick_5">
     <g id="line2d_21">
      <path d="M 108 66.96 
L 412.363636 66.96 
" clip-path="url(#pf214125af4)" style="fill: none; stroke: #b0b0b0; stroke-width: 0.8; stroke-linecap: square"/>
     </g>
     <g id="line2d_22">
      <g>
       <use xlink:href="#m9f3a5b954a" x="108" y="66.96" style="stroke: #000000; stroke-width: 0.8"/>
      </g>
     </g>
     <g id="text_12">
      <!-- 1.0 -->
      <g transform="translate(85.096875 70.759219) scale(0.1 -0.1)">
       <use xlink:href="#DejaVuSans-31"/>
       <use xlink:href="#DejaVuSans-2e" transform="translate(63.623047 0)"/>
       <use xlink:href="#DejaVuSans-30" transform="translate(95.410156 0)"/>
      </g>
     </g>
    </g>
    <g id="text_13">
     <!-- $\chi(u)$ -->
     <g transform="translate(70.617188 228.21) rotate(-90) scale(0.1 -0.1)">
      <defs>
       <path id="DejaVuSans-Oblique-3c7" d="M 1922 -781 
L 1691 416 
L 394 -1334 
L -284 -1334 
L 1553 1141 
L 1269 2613 
Q 1194 3006 713 3006 
L 559 3006 
L 653 3500 
L 872 3494 
Q 1675 3472 1775 2950 
L 2006 1753 
L 3303 3503 
L 3981 3503 
L 2144 1028 
L 2428 -444 
Q 2503 -838 2984 -838 
L 3138 -838 
L 3044 -1331 
L 2825 -1325 
Q 2022 -1303 1922 -781 
z
" transform="scale(0.015625)"/>
       <path id="DejaVuSans-28" d="M 1984 4856 
Q 1566 4138 1362 3434 
Q 1159 2731 1159 2009 
Q 1159 1288 1364 580 
Q 1569 -128 1984 -844 
L 1484 -844 
Q 1016 -109 783 600 
Q 550 1309 550 2009 
Q 550 2706 781 3412 
Q 1013 4119 1484 4856 
L 1984 4856 
z
" transform="scale(0.015625)"/>
       <path id="DejaVuSans-Oblique-75" d="M 428 1388 
L 838 3500 
L 1416 3500 
L 1006 1409 
Q 975 1256 961 1147 
Q 947 1038 947 966 
Q 947 700 1109 554 
Q 1272 409 1569 409 
Q 2031 409 2368 721 
Q 2706 1034 2809 1563 
L 3194 3500 
L 3769 3500 
L 3091 0 
L 2516 0 
L 2631 550 
Q 2388 244 2052 76 
Q 1716 -91 1338 -91 
Q 878 -91 622 161 
Q 366 413 366 863 
Q 366 956 381 1097 
Q 397 1238 428 1388 
z
" transform="scale(0.015625)"/>
       <path id="DejaVuSans-29" d="M 513 4856 
L 1013 4856 
Q 1481 4119 1714 3412 
Q 1947 2706 1947 2009 
Q 1947 1309 1714 600 
Q 1481 -109 1013 -844 
L 513 -844 
Q 928 -128 1133 580 
Q 1338 1288 1338 2009 
Q 1338 2731 1133 3434 
Q 928 4138 513 4856 
z
" transform="scale(0.015625)"/>
      </defs>
      <use xlink:href="#DejaVuSans-Oblique-3c7" transform="translate(0 0.125)"/>
      <use xlink:href="#DejaVuSans-28" transform="translate(59.179688 0.125)"/>
      <use xlink:href="#DejaVuSans-Oblique-75" transform="translate(98.193359 0.125)"/>
      <use xlink:href="#DejaVuSans-29" transform="translate(161.572266 0.125)"/>
     </g>
    </g>
   </g>
   <g id="line2d_23">
    <path d="M 121.834711 197.962595 
L 126.158058 197.962595 
L 128.319731 74.77368 
L 130.481405 84.281058 
L 132.643079 93.073184 
L 136.966426 109.284764 
L 141.289773 124.363769 
L 147.774793 145.831421 
L 158.583161 180.374712 
L 160.744835 187.246428 
L 162.906508 145.620962 
L 171.553202 168.24696 
L 180.199897 191.569369 
L 186.684917 209.717969 
L 193.169938 228.573221 
L 199.654959 248.26326 
L 203.978306 261.918839 
L 206.139979 223.854815 
L 208.301653 172.024232 
L 212.625 182.186985 
L 216.948347 192.738853 
L 221.271694 203.714196 
L 223.433368 209.372135 
L 225.595041 190.670981 
L 229.918388 201.561016 
L 234.241736 212.947885 
L 238.565083 224.875419 
L 242.88843 237.391863 
L 245.050103 243.887373 
L 247.211777 165.842021 
L 249.37345 170.83911 
L 251.535124 117.715812 
L 255.858471 125.810352 
L 260.181818 134.370421 
L 264.505165 143.44193 
L 266.666839 148.185409 
L 268.828512 138.807908 
L 273.15186 148.39058 
L 277.475207 158.616809 
L 279.63688 148.988446 
L 283.960227 159.571815 
L 288.283574 170.94261 
L 290.445248 161.00759 
L 292.606921 136.826744 
L 296.930269 147.590254 
L 301.253616 159.267898 
L 305.576963 171.985154 
L 307.738636 178.779218 
L 309.90031 121.747619 
L 314.223657 133.101862 
L 318.547004 145.634245 
L 320.708678 152.402123 
L 322.870351 159.541714 
L 325.032025 167.084952 
L 327.193698 175.067523 
L 329.355372 183.529438 
L 331.517045 172.784384 
L 333.678719 181.610473 
L 335.840393 191.020656 
L 338.002066 139.94614 
L 340.16374 148.231694 
L 342.325413 157.127469 
L 344.487087 166.70393 
L 346.64876 154.73554 
L 348.810434 164.896192 
L 350.972107 175.936838 
L 353.133781 163.182631 
L 355.295455 175.069215 
L 357.457128 188.140938 
L 359.618802 147.290621 
L 361.780475 160.008241 
L 363.942149 174.218901 
L 366.103822 158.534489 
L 368.265496 174.389955 
L 370.427169 192.50727 
L 372.588843 213.408442 
L 374.750517 237.789484 
L 376.91219 176.769202 
L 379.073864 201.945427 
L 381.235537 128.3431 
L 383.397211 153.273747 
L 385.558884 185.324655 
L 387.720558 152.095833 
L 389.882231 196.359714 
L 392.043905 262.752063 
L 394.205579 223.765257 
L 396.367252 369.36 
L 398.528926 365.467733 
L 398.528926 365.467733 
" clip-path="url(#pf214125af4)" style="fill: none; stroke: #1f77b4; stroke-linecap: square"/>
   </g>
   <g id="line2d_24">
    <path d="M 121.834711 197.962595 
L 126.158058 197.962595 
L 128.319731 328.96519 
L 245.050103 328.96519 
L 247.211777 293.446695 
L 249.37345 301.217574 
L 251.535124 212.719488 
L 255.858471 225.04498 
L 260.181818 238.079329 
L 264.505165 251.892444 
L 266.666839 259.115301 
L 268.828512 244.480655 
L 273.15186 259.055315 
L 277.475207 274.608786 
L 279.63688 259.957941 
L 283.960227 276.054268 
L 288.283574 293.348196 
L 290.445248 278.575582 
L 292.606921 243.199766 
L 296.930269 259.663234 
L 301.253616 277.52493 
L 305.576963 296.976778 
L 307.738636 307.368729 
L 309.90031 225.767567 
L 314.223657 243.478807 
L 318.547004 263.027802 
L 320.708678 273.584868 
L 322.870351 284.721764 
L 325.032025 296.488299 
L 327.193698 308.94014 
L 329.355372 322.139698 
L 331.517045 308.035388 
L 333.678719 321.902023 
L 335.840393 328.96519 
L 338.002066 265.60378 
L 340.16374 278.993259 
L 342.325413 293.368857 
L 344.487087 308.844445 
L 346.64876 293.816602 
L 348.810434 310.436557 
L 350.972107 328.495933 
L 353.133781 312.825132 
L 355.295455 328.96519 
L 357.457128 328.96519 
L 359.618802 298.764417 
L 361.780475 320.597434 
L 363.942149 328.96519 
L 366.103822 326.46511 
L 368.265496 328.96519 
L 379.073864 328.96519 
L 381.235537 327.434656 
L 383.397211 328.96519 
L 398.528926 328.96519 
L 398.528926 328.96519 
" clip-path="url(#pf214125af4)" style="fill: none; stroke-dasharray: 3.7,1.6; stroke-dashoffset: 0; stroke: #0000ff"/>
   </g>
   <g id="line2d_25">
    <path d="M 121.834711 197.962595 
L 126.158058 197.962595 
L 128.319731 66.96 
L 139.128099 66.96 
L 141.289773 69.366473 
L 147.774793 84.567549 
L 158.583161 109.027383 
L 160.744835 113.89319 
L 162.906508 85.798464 
L 173.714876 106.079234 
L 180.199897 118.636589 
L 186.684917 131.606919 
L 193.169938 145.082274 
L 199.654959 159.15423 
L 203.978306 168.913515 
L 206.139979 142.011247 
L 208.301653 104.047333 
L 214.786674 115.004234 
L 219.110021 122.665222 
L 223.433368 130.640677 
L 225.595041 116.481852 
L 229.918388 124.200002 
L 234.241736 132.270276 
L 238.565083 140.723737 
L 242.88843 149.59458 
L 245.050103 154.198176 
L 247.211777 94.590408 
L 249.37345 98.038673 
L 251.535124 66.96 
L 258.020145 66.96 
L 260.181818 67.788981 
L 264.505165 73.816364 
L 266.666839 76.968074 
L 268.828512 69.209076 
L 273.15186 75.503895 
L 277.475207 82.221463 
L 279.63688 74.182938 
L 283.960227 81.049974 
L 288.283574 88.427932 
L 290.445248 80.0465 
L 292.606921 66.96 
L 294.768595 66.96 
L 296.930269 67.417499 
L 301.253616 74.671308 
L 305.576963 82.570893 
L 307.738636 86.791165 
L 309.90031 66.96 
L 322.870351 66.96 
L 325.032025 68.433481 
L 327.193698 73.008876 
L 329.355372 77.859017 
L 331.517045 68.2089 
L 333.678719 73.137661 
L 335.840393 78.392598 
L 338.002066 66.96 
L 398.528926 66.96 
L 398.528926 66.96 
" clip-path="url(#pf214125af4)" style="fill: none; stroke-dasharray: 3.7,1.6; stroke-dashoffset: 0; stroke: #0000ff"/>
   </g>
   <g id="patch_3">
    <path d="M 108 384.48 
L 108 51.84 
" style="fill: none; stroke: #000000; stroke-width: 0.8; stroke-linejoin: miter; stroke-linecap: square"/>
   </g>
   <g id="patch_4">
    <path d="M 108 384.48 
L 412.363636 384.48 
" style="fill: none; stroke: #000000; stroke-width: 0.8; stroke-linejoin: miter; stroke-linecap: square"/>
   </g>
   <g id="text_14">
    <!-- Upper tail dependence function -->
    <g transform="translate(165.322756 45.84) scale(0.12 -0.12)">
     <defs>
      <path id="DejaVuSans-55" d="M 556 4666 
L 1191 4666 
L 1191 1831 
Q 1191 1081 1462 751 
Q 1734 422 2344 422 
Q 2950 422 3222 751 
Q 3494 1081 3494 1831 
L 3494 4666 
L 4128 4666 
L 4128 1753 
Q 4128 841 3676 375 
Q 3225 -91 2344 -91 
Q 1459 -91 1007 375 
Q 556 841 556 1753 
L 556 4666 
z
" transform="scale(0.015625)"/>
      <path id="DejaVuSans-70" d="M 1159 525 
L 1159 -1331 
L 581 -1331 
L 581 3500 
L 1159 3500 
L 1159 2969 
Q 1341 3281 1617 3432 
Q 1894 3584 2278 3584 
Q 2916 3584 3314 3078 
Q 3713 2572 3713 1747 
Q 3713 922 3314 415 
Q 2916 -91 2278 -91 
Q 1894 -91 1617 61 
Q 1341 213 1159 525 
z
M 3116 1747 
Q 3116 2381 2855 2742 
Q 2594 3103 2138 3103 
Q 1681 3103 1420 2742 
Q 1159 2381 1159 1747 
Q 1159 1113 1420 752 
Q 1681 391 2138 391 
Q 2594 391 2855 752 
Q 3116 1113 3116 1747 
z
" transform="scale(0.015625)"/>
      <path id="DejaVuSans-65" d="M 3597 1894 
L 3597 1613 
L 953 1613 
Q 991 1019 1311 708 
Q 1631 397 2203 397 
Q 2534 397 2845 478 
Q 3156 559 3463 722 
L 3463 178 
Q 3153 47 2828 -22 
Q 2503 -91 2169 -91 
Q 1331 -91 842 396 
Q 353 884 353 1716 
Q 353 2575 817 3079 
Q 1281 3584 2069 3584 
Q 2775 3584 3186 3129 
Q 3597 2675 3597 1894 
z
M 3022 2063 
Q 3016 2534 2758 2815 
Q 2500 3097 2075 3097 
Q 1594 3097 1305 2825 
Q 1016 2553 972 2059 
L 3022 2063 
z
" transform="scale(0.015625)"/>
      <path id="DejaVuSans-72" d="M 2631 2963 
Q 2534 3019 2420 3045 
Q 2306 3072 2169 3072 
Q 1681 3072 1420 2755 
Q 1159 2438 1159 1844 
L 1159 0 
L 581 0 
L 581 3500 
L 1159 3500 
L 1159 2956 
Q 1341 3275 1631 3429 
Q 1922 3584 2338 3584 
Q 2397 3584 2469 3576 
Q 2541 3569 2628 3553 
L 2631 2963 
z
" transform="scale(0.015625)"/>
      <path id="DejaVuSans-20" transform="scale(0.015625)"/>
      <path id="DejaVuSans-74" d="M 1172 4494 
L 1172 3500 
L 2356 3500 
L 2356 3053 
L 1172 3053 
L 1172 1153 
Q 1172 725 1289 603 
Q 1406 481 1766 481 
L 2356 481 
L 2356 0 
L 1766 0 
Q 1100 0 847 248 
Q 594 497 594 1153 
L 594 3053 
L 172 3053 
L 172 3500 
L 594 3500 
L 594 4494 
L 1172 4494 
z
" transform="scale(0.015625)"/>
      <path id="DejaVuSans-61" d="M 2194 1759 
Q 1497 1759 1228 1600 
Q 959 1441 959 1056 
Q 959 750 1161 570 
Q 1363 391 1709 391 
Q 2188 391 2477 730 
Q 2766 1069 2766 1631 
L 2766 1759 
L 2194 1759 
z
M 3341 1997 
L 3341 0 
L 2766 0 
L 2766 531 
Q 2569 213 2275 61 
Q 1981 -91 1556 -91 
Q 1019 -91 701 211 
Q 384 513 384 1019 
Q 384 1609 779 1909 
Q 1175 2209 1959 2209 
L 2766 2209 
L 2766 2266 
Q 2766 2663 2505 2880 
Q 2244 3097 1772 3097 
Q 1472 3097 1187 3025 
Q 903 2953 641 2809 
L 641 3341 
Q 956 3463 1253 3523 
Q 1550 3584 1831 3584 
Q 2591 3584 2966 3190 
Q 3341 2797 3341 1997 
z
" transform="scale(0.015625)"/>
      <path id="DejaVuSans-69" d="M 603 3500 
L 1178 3500 
L 1178 0 
L 603 0 
L 603 3500 
z
M 603 4863 
L 1178 4863 
L 1178 4134 
L 603 4134 
L 603 4863 
z
" transform="scale(0.015625)"/>
      <path id="DejaVuSans-6c" d="M 603 4863 
L 1178 4863 
L 1178 0 
L 603 0 
L 603 4863 
z
" transform="scale(0.015625)"/>
      <path id="DejaVuSans-64" d="M 2906 2969 
L 2906 4863 
L 3481 4863 
L 3481 0 
L 2906 0 
L 2906 525 
Q 2725 213 2448 61 
Q 2172 -91 1784 -91 
Q 1150 -91 751 415 
Q 353 922 353 1747 
Q 353 2572 751 3078 
Q 1150 3584 1784 3584 
Q 2172 3584 2448 3432 
Q 2725 3281 2906 2969 
z
M 947 1747 
Q 947 1113 1208 752 
Q 1469 391 1925 391 
Q 2381 391 2643 752 
Q 2906 1113 2906 1747 
Q 2906 2381 2643 2742 
Q 2381 3103 1925 3103 
Q 1469 3103 1208 2742 
Q 947 2381 947 1747 
z
" transform="scale(0.015625)"/>
      <path id="DejaVuSans-6e" d="M 3513 2113 
L 3513 0 
L 2938 0 
L 2938 2094 
Q 2938 2591 2744 2837 
Q 2550 3084 2163 3084 
Q 1697 3084 1428 2787 
Q 1159 2491 1159 1978 
L 1159 0 
L 581 0 
L 581 3500 
L 1159 3500 
L 1159 2956 
Q 1366 3272 1645 3428 
Q 1925 3584 2291 3584 
Q 2894 3584 3203 3211 
Q 3513 2838 3513 2113 
z
" transform="scale(0.015625)"/>
      <path id="DejaVuSans-63" d="M 3122 3366 
L 3122 2828 
Q 2878 2963 2633 3030 
Q 2388 3097 2138 3097 
Q 1578 3097 1268 2742 
Q 959 2388 959 1747 
Q 959 1106 1268 751 
Q 1578 397 2138 397 
Q 2388 397 2633 464 
Q 2878 531 3122 666 
L 3122 134 
Q 2881 22 2623 -34 
Q 2366 -91 2075 -91 
Q 1284 -91 818 406 
Q 353 903 353 1747 
Q 353 2603 823 3093 
Q 1294 3584 2113 3584 
Q 2378 3584 2631 3529 
Q 2884 3475 3122 3366 
z
" transform="scale(0.015625)"/>
      <path id="DejaVuSans-66" d="M 2375 4863 
L 2375 4384 
L 1825 4384 
Q 1516 4384 1395 4259 
Q 1275 4134 1275 3809 
L 1275 3500 
L 2222 3500 
L 2222 3053 
L 1275 3053 
L 1275 0 
L 697 0 
L 697 3053 
L 147 3053 
L 147 3500 
L 697 3500 
L 697 3744 
Q 697 4328 969 4595 
Q 1241 4863 1831 4863 
L 2375 4863 
z
" transform="scale(0.015625)"/>
      <path id="DejaVuSans-6f" d="M 1959 3097 
Q 1497 3097 1228 2736 
Q 959 2375 959 1747 
Q 959 1119 1226 758 
Q 1494 397 1959 397 
Q 2419 397 2687 759 
Q 2956 1122 2956 1747 
Q 2956 2369 2687 2733 
Q 2419 3097 1959 3097 
z
M 1959 3584 
Q 2709 3584 3137 3096 
Q 3566 2609 3566 1747 
Q 3566 888 3137 398 
Q 2709 -91 1959 -91 
Q 1206 -91 779 398 
Q 353 888 353 1747 
Q 353 2609 779 3096 
Q 1206 3584 1959 3584 
z
" transform="scale(0.015625)"/>
     </defs>
     <use xlink:href="#DejaVuSans-55"/>
     <use xlink:href="#DejaVuSans-70" transform="translate(73.193359 0)"/>
     <use xlink:href="#DejaVuSans-70" transform="translate(136.669922 0)"/>
     <use xlink:href="#DejaVuSans-65" transform="translate(200.146484 0)"/>
     <use xlink:href="#DejaVuSans-72" transform="translate(261.669922 0)"/>
     <use xlink:href="#DejaVuSans-20" transform="translate(302.783203 0)"/>
     <use xlink:href="#DejaVuSans-74" transform="translate(334.570312 0)"/>
     <use xlink:href="#DejaVuSans-61" transform="translate(373.779297 0)"/>
     <use xlink:href="#DejaVuSans-69" transform="translate(435.058594 0)"/>
     <use xlink:href="#DejaVuSans-6c" transform="translate(462.841797 0)"/>
     <use xlink:href="#DejaVuSans-20" transform="translate(490.625 0)"/>
     <use xlink:href="#DejaVuSans-64" transform="translate(522.412109 0)"/>
     <use xlink:href="#DejaVuSans-65" transform="translate(585.888672 0)"/>
     <use xlink:href="#DejaVuSans-70" transform="translate(647.412109 0)"/>
     <use xlink:href="#DejaVuSans-65" transform="translate(710.888672 0)"/>
     <use xlink:href="#DejaVuSans-6e" transform="translate(772.412109 0)"/>
     <use xlink:href="#DejaVuSans-64" transform="translate(835.791016 0)"/>
     <use xlink:href="#DejaVuSans-65" transform="translate(899.267578 0)"/>
     <use xlink:href="#DejaVuSans-6e" transform="translate(960.791016 0)"/>
     <use xlink:href="#DejaVuSans-63" transform="translate(1024.169922 0)"/>
     <use xlink:href="#DejaVuSans-65" transform="translate(1079.150391 0)"/>
     <use xlink:href="#DejaVuSans-20" transform="translate(1140.673828 0)"/>
     <use xlink:href="#DejaVuSans-66" transform="translate(1172.460938 0)"/>
     <use xlink:href="#DejaVuSans-75" transform="translate(1207.666016 0)"/>
     <use xlink:href="#DejaVuSans-6e" transform="translate(1271.044922 0)"/>
     <use xlink:href="#DejaVuSans-63" transform="translate(1334.423828 0)"/>
     <use xlink:href="#DejaVuSans-74" transform="translate(1389.404297 0)"/>
     <use xlink:href="#DejaVuSans-69" transform="translate(1428.613281 0)"/>
     <use xlink:href="#DejaVuSans-6f" transform="translate(1456.396484 0)"/>
     <use xlink:href="#DejaVuSans-6e" transform="translate(1517.578125 0)"/>
    </g>
   </g>
   <g id="legend_1">
    <g id="patch_5">
     <path d="M 231.088849 381.48 
L 293.274787 381.48 
Q 295.274787 381.48 295.274787 379.48 
L 295.274787 336.42375 
Q 295.274787 334.42375 293.274787 334.42375 
L 231.088849 334.42375 
Q 229.088849 334.42375 229.088849 336.42375 
L 229.088849 379.48 
Q 229.088849 381.48 231.088849 381.48 
z
" style="fill: #4d4d4d; opacity: 0.5; stroke: #4d4d4d; stroke-linejoin: miter"/>
    </g>
    <g id="patch_6">
     <path d="M 229.088849 379.48 
L 291.274787 379.48 
Q 293.274787 379.48 293.274787 377.48 
L 293.274787 334.42375 
Q 293.274787 332.42375 291.274787 332.42375 
L 229.088849 332.42375 
Q 227.088849 332.42375 227.088849 334.42375 
L 227.088849 377.48 
Q 227.088849 379.48 229.088849 379.48 
z
" style="fill: #ffffff; stroke: #cccccc; stroke-linejoin: miter"/>
    </g>
    <g id="line2d_26">
     <path d="M 231.088849 340.52375 
L 241.088849 340.52375 
L 251.088849 340.52375 
" style="fill: none; stroke: #1f77b4; stroke-linecap: square"/>
    </g>
    <g id="text_15">
     <!-- $\chi(u)$ -->
     <g transform="translate(259.088849 344.02375) scale(0.1 -0.1)">
      <use xlink:href="#DejaVuSans-Oblique-3c7" transform="translate(0 0.125)"/>
      <use xlink:href="#DejaVuSans-28" transform="translate(59.179688 0.125)"/>
      <use xlink:href="#DejaVuSans-Oblique-75" transform="translate(98.193359 0.125)"/>
      <use xlink:href="#DejaVuSans-29" transform="translate(161.572266 0.125)"/>
     </g>
    </g>
    <g id="line2d_27">
     <path d="M 231.088849 355.222188 
L 241.088849 355.222188 
L 251.088849 355.222188 
" style="fill: none; stroke-dasharray: 3.7,1.6; stroke-dashoffset: 0; stroke: #0000ff"/>
    </g>
    <g id="text_16">
     <!-- CI low -->
     <g transform="translate(259.088849 358.722188) scale(0.1 -0.1)">
      <defs>
       <path id="DejaVuSans-43" d="M 4122 4306 
L 4122 3641 
Q 3803 3938 3442 4084 
Q 3081 4231 2675 4231 
Q 1875 4231 1450 3742 
Q 1025 3253 1025 2328 
Q 1025 1406 1450 917 
Q 1875 428 2675 428 
Q 3081 428 3442 575 
Q 3803 722 4122 1019 
L 4122 359 
Q 3791 134 3420 21 
Q 3050 -91 2638 -91 
Q 1578 -91 968 557 
Q 359 1206 359 2328 
Q 359 3453 968 4101 
Q 1578 4750 2638 4750 
Q 3056 4750 3426 4639 
Q 3797 4528 4122 4306 
z
" transform="scale(0.015625)"/>
       <path id="DejaVuSans-49" d="M 628 4666 
L 1259 4666 
L 1259 0 
L 628 0 
L 628 4666 
z
" transform="scale(0.015625)"/>
       <path id="DejaVuSans-77" d="M 269 3500 
L 844 3500 
L 1563 769 
L 2278 3500 
L 2956 3500 
L 3675 769 
L 4391 3500 
L 4966 3500 
L 4050 0 
L 3372 0 
L 2619 2869 
L 1863 0 
L 1184 0 
L 269 3500 
z
" transform="scale(0.015625)"/>
      </defs>
      <use xlink:href="#DejaVuSans-43"/>
      <use xlink:href="#DejaVuSans-49" transform="translate(69.824219 0)"/>
      <use xlink:href="#DejaVuSans-20" transform="translate(99.316406 0)"/>
      <use xlink:href="#DejaVuSans-6c" transform="translate(131.103516 0)"/>
      <use xlink:href="#DejaVuSans-6f" transform="translate(158.886719 0)"/>
      <use xlink:href="#DejaVuSans-77" transform="translate(220.068359 0)"/>
     </g>
    </g>
    <g id="line2d_28">
     <path d="M 231.088849 369.900313 
L 241.088849 369.900313 
L 251.088849 369.900313 
" style="fill: none; stroke-dasharray: 3.7,1.6; stroke-dashoffset: 0; stroke: #0000ff"/>
    </g>
    <g id="text_17">
     <!-- CI up -->
     <g transform="translate(259.088849 373.400313) scale(0.1 -0.1)">
      <use xlink:href="#DejaVuSans-43"/>
      <use xlink:href="#DejaVuSans-49" transform="translate(69.824219 0)"/>
      <use xlink:href="#DejaVuSans-20" transform="translate(99.316406 0)"/>
      <use xlink:href="#DejaVuSans-75" transform="translate(131.103516 0)"/>
      <use xlink:href="#DejaVuSans-70" transform="translate(194.482422 0)"/>
     </g>
    </g>
   </g>
  </g>
  <g id="axes_2">
   <g id="patch_7">
    <path d="M 473.236364 384.48 
L 777.6 384.48 
L 777.6 51.84 
L 473.236364 51.84 
z
" style="fill: #ffffff"/>
   </g>
   <g id="matplotlib.axis_3">
    <g id="xtick_7">
     <g id="line2d_29">
      <path d="M 484.909401 384.48 
L 484.909401 51.84 
" clip-path="url(#p2d76dd59db)" style="fill: none; stroke: #b0b0b0; stroke-width: 0.8; stroke-linecap: square"/>
     </g>
     <g id="line2d_30">
      <g>
       <use xlink:href="#ma317334dc8" x="484.909401" y="384.48" style="stroke: #000000; stroke-width: 0.8"/>
      </g>
     </g>
     <g id="text_18">
      <!-- 0.0 -->
      <g transform="translate(476.957838 399.078438) scale(0.1 -0.1)">
       <use xlink:href="#DejaVuSans-30"/>
       <use xlink:href="#DejaVuSans-2e" transform="translate(63.623047 0)"/>
       <use xlink:href="#DejaVuSans-30" transform="translate(95.410156 0)"/>
      </g>
     </g>
    </g>
    <g id="xtick_8">
     <g id="line2d_31">
      <path d="M 541.112913 384.48 
L 541.112913 51.84 
" clip-path="url(#p2d76dd59db)" style="fill: none; stroke: #b0b0b0; stroke-width: 0.8; stroke-linecap: square"/>
     </g>
     <g id="line2d_32">
      <g>
       <use xlink:href="#ma317334dc8" x="541.112913" y="384.48" style="stroke: #000000; stroke-width: 0.8"/>
      </g>
     </g>
     <g id="text_19">
      <!-- 0.2 -->
      <g transform="translate(533.161351 399.078438) scale(0.1 -0.1)">
       <use xlink:href="#DejaVuSans-30"/>
       <use xlink:href="#DejaVuSans-2e" transform="translate(63.623047 0)"/>
       <use xlink:href="#DejaVuSans-32" transform="translate(95.410156 0)"/>
      </g>
     </g>
    </g>
    <g id="xtick_9">
     <g id="line2d_33">
      <path d="M 597.316426 384.48 
L 597.316426 51.84 
" clip-path="url(#p2d76dd59db)" style="fill: none; stroke: #b0b0b0; stroke-width: 0.8; stroke-linecap: square"/>
     </g>
     <g id="line2d_34">
      <g>
       <use xlink:href="#ma317334dc8" x="597.316426" y="384.48" style="stroke: #000000; stroke-width: 0.8"/>
      </g>
     </g>
     <g id="text_20">
      <!-- 0.4 -->
      <g transform="translate(589.364863 399.078438) scale(0.1 -0.1)">
       <use xlink:href="#DejaVuSans-30"/>
       <use xlink:href="#DejaVuSans-2e" transform="translate(63.623047 0)"/>
       <use xlink:href="#DejaVuSans-34" transform="translate(95.410156 0)"/>
      </g>
     </g>
    </g>
    <g id="xtick_10">
     <g id="line2d_35">
      <path d="M 653.519938 384.48 
L 653.519938 51.84 
" clip-path="url(#p2d76dd59db)" style="fill: none; stroke: #b0b0b0; stroke-width: 0.8; stroke-linecap: square"/>
     </g>
     <g id="line2d_36">
      <g>
       <use xlink:href="#ma317334dc8" x="653.519938" y="384.48" style="stroke: #000000; stroke-width: 0.8"/>
      </g>
     </g>
     <g id="text_21">
      <!-- 0.6 -->
      <g transform="translate(645.568376 399.078438) scale(0.1 -0.1)">
       <use xlink:href="#DejaVuSans-30"/>
       <use xlink:href="#DejaVuSans-2e" transform="translate(63.623047 0)"/>
       <use xlink:href="#DejaVuSans-36" transform="translate(95.410156 0)"/>
      </g>
     </g>
    </g>
    <g id="xtick_11">
     <g id="line2d_37">
      <path d="M 709.72345 384.48 
L 709.72345 51.84 
" clip-path="url(#p2d76dd59db)" style="fill: none; stroke: #b0b0b0; stroke-width: 0.8; stroke-linecap: square"/>
     </g>
     <g id="line2d_38">
      <g>
       <use xlink:href="#ma317334dc8" x="709.72345" y="384.48" style="stroke: #000000; stroke-width: 0.8"/>
      </g>
     </g>
     <g id="text_22">
      <!-- 0.8 -->
      <g transform="translate(701.771888 399.078438) scale(0.1 -0.1)">
       <use xlink:href="#DejaVuSans-30"/>
       <use xlink:href="#DejaVuSans-2e" transform="translate(63.623047 0)"/>
       <use xlink:href="#DejaVuSans-38" transform="translate(95.410156 0)"/>
      </g>
     </g>
    </g>
    <g id="xtick_12">
     <g id="line2d_39">
      <path d="M 765.926963 384.48 
L 765.926963 51.84 
" clip-path="url(#p2d76dd59db)" style="fill: none; stroke: #b0b0b0; stroke-width: 0.8; stroke-linecap: square"/>
     </g>
     <g id="line2d_40">
      <g>
       <use xlink:href="#ma317334dc8" x="765.926963" y="384.48" style="stroke: #000000; stroke-width: 0.8"/>
      </g>
     </g>
     <g id="text_23">
      <!-- 1.0 -->
      <g transform="translate(757.9754 399.078438) scale(0.1 -0.1)">
       <use xlink:href="#DejaVuSans-31"/>
       <use xlink:href="#DejaVuSans-2e" transform="translate(63.623047 0)"/>
       <use xlink:href="#DejaVuSans-30" transform="translate(95.410156 0)"/>
      </g>
     </g>
    </g>
    <g id="text_24">
     <!-- u -->
     <g transform="translate(622.249432 412.756563) scale(0.1 -0.1)">
      <use xlink:href="#DejaVuSans-75"/>
     </g>
    </g>
   </g>
   <g id="matplotlib.axis_4">
    <g id="ytick_6">
     <g id="line2d_41">
      <path d="M 473.236364 374.446991 
L 777.6 374.446991 
" clip-path="url(#p2d76dd59db)" style="fill: none; stroke: #b0b0b0; stroke-width: 0.8; stroke-linecap: square"/>
     </g>
     <g id="line2d_42">
      <g>
       <use xlink:href="#m9f3a5b954a" x="473.236364" y="374.446991" style="stroke: #000000; stroke-width: 0.8"/>
      </g>
     </g>
     <g id="text_25">
      <!-- −1 -->
      <g transform="translate(451.494176 378.246209) scale(0.1 -0.1)">
       <use xlink:href="#DejaVuSans-2212"/>
       <use xlink:href="#DejaVuSans-31" transform="translate(83.789062 0)"/>
      </g>
     </g>
    </g>
    <g id="ytick_7">
     <g id="line2d_43">
      <path d="M 473.236364 313.161531 
L 777.6 313.161531 
" clip-path="url(#p2d76dd59db)" style="fill: none; stroke: #b0b0b0; stroke-width: 0.8; stroke-linecap: square"/>
     </g>
     <g id="line2d_44">
      <g>
       <use xlink:href="#m9f3a5b954a" x="473.236364" y="313.161531" style="stroke: #000000; stroke-width: 0.8"/>
      </g>
     </g>
     <g id="text_26">
      <!-- 0 -->
      <g transform="translate(459.873864 316.960749) scale(0.1 -0.1)">
       <use xlink:href="#DejaVuSans-30"/>
      </g>
     </g>
    </g>
    <g id="ytick_8">
     <g id="line2d_45">
      <path d="M 473.236364 251.87607 
L 777.6 251.87607 
" clip-path="url(#p2d76dd59db)" style="fill: none; stroke: #b0b0b0; stroke-width: 0.8; stroke-linecap: square"/>
     </g>
     <g id="line2d_46">
      <g>
       <use xlink:href="#m9f3a5b954a" x="473.236364" y="251.87607" style="stroke: #000000; stroke-width: 0.8"/>
      </g>
     </g>
     <g id="text_27">
      <!-- 1 -->
      <g transform="translate(459.873864 255.675289) scale(0.1 -0.1)">
       <use xlink:href="#DejaVuSans-31"/>
      </g>
     </g>
    </g>
    <g id="ytick_9">
     <g id="line2d_47">
      <path d="M 473.236364 190.59061 
L 777.6 190.59061 
" clip-path="url(#p2d76dd59db)" style="fill: none; stroke: #b0b0b0; stroke-width: 0.8; stroke-linecap: square"/>
     </g>
     <g id="line2d_48">
      <g>
       <use xlink:href="#m9f3a5b954a" x="473.236364" y="190.59061" style="stroke: #000000; stroke-width: 0.8"/>
      </g>
     </g>
     <g id="text_28">
      <!-- 2 -->
      <g transform="translate(459.873864 194.389829) scale(0.1 -0.1)">
       <use xlink:href="#DejaVuSans-32"/>
      </g>
     </g>
    </g>
    <g id="ytick_10">
     <g id="line2d_49">
      <path d="M 473.236364 129.30515 
L 777.6 129.30515 
" clip-path="url(#p2d76dd59db)" style="fill: none; stroke: #b0b0b0; stroke-width: 0.8; stroke-linecap: square"/>
     </g>
     <g id="line2d_50">
      <g>
       <use xlink:href="#m9f3a5b954a" x="473.236364" y="129.30515" style="stroke: #000000; stroke-width: 0.8"/>
      </g>
     </g>
     <g id="text_29">
      <!-- 3 -->
      <g transform="translate(459.873864 133.104369) scale(0.1 -0.1)">
       <defs>
        <path id="DejaVuSans-33" d="M 2597 2516 
Q 3050 2419 3304 2112 
Q 3559 1806 3559 1356 
Q 3559 666 3084 287 
Q 2609 -91 1734 -91 
Q 1441 -91 1130 -33 
Q 819 25 488 141 
L 488 750 
Q 750 597 1062 519 
Q 1375 441 1716 441 
Q 2309 441 2620 675 
Q 2931 909 2931 1356 
Q 2931 1769 2642 2001 
Q 2353 2234 1838 2234 
L 1294 2234 
L 1294 2753 
L 1863 2753 
Q 2328 2753 2575 2939 
Q 2822 3125 2822 3475 
Q 2822 3834 2567 4026 
Q 2313 4219 1838 4219 
Q 1578 4219 1281 4162 
Q 984 4106 628 3988 
L 628 4550 
Q 988 4650 1302 4700 
Q 1616 4750 1894 4750 
Q 2613 4750 3031 4423 
Q 3450 4097 3450 3541 
Q 3450 3153 3228 2886 
Q 3006 2619 2597 2516 
z
" transform="scale(0.015625)"/>
       </defs>
       <use xlink:href="#DejaVuSans-33"/>
      </g>
     </g>
    </g>
    <g id="ytick_11">
     <g id="line2d_51">
      <path d="M 473.236364 68.01969 
L 777.6 68.01969 
" clip-path="url(#p2d76dd59db)" style="fill: none; stroke: #b0b0b0; stroke-width: 0.8; stroke-linecap: square"/>
     </g>
     <g id="line2d_52">
      <g>
       <use xlink:href="#m9f3a5b954a" x="473.236364" y="68.01969" style="stroke: #000000; stroke-width: 0.8"/>
      </g>
     </g>
     <g id="text_30">
      <!-- 4 -->
      <g transform="translate(459.873864 71.818909) scale(0.1 -0.1)">
       <use xlink:href="#DejaVuSans-34"/>
      </g>
     </g>
    </g>
    <g id="text_31">
     <!-- $\bar{\chi}(u)$ -->
     <g transform="translate(445.394176 228.21) rotate(-90) scale(0.1 -0.1)">
      <defs>
       <path id="DejaVuSans-304" d="M -2522 4769 
L -653 4769 
L -653 4306 
L -2522 4306 
L -2522 4769 
z
" transform="scale(0.015625)"/>
      </defs>
      <use xlink:href="#DejaVuSans-304" transform="translate(62.201172 0.078125)"/>
      <use xlink:href="#DejaVuSans-Oblique-3c7" transform="translate(0 0.125)"/>
      <use xlink:href="#DejaVuSans-28" transform="translate(59.179688 0.125)"/>
      <use xlink:href="#DejaVuSans-Oblique-75" transform="translate(98.193359 0.125)"/>
      <use xlink:href="#DejaVuSans-29" transform="translate(161.572266 0.125)"/>
     </g>
    </g>
   </g>
   <g id="line2d_53">
    <path d="M 487.071074 313.161531 
L 491.394421 313.161531 
L 493.556095 223.144278 
L 502.202789 66.96 
L 504.364463 261.651422 
L 508.68781 235.447528 
L 510.849483 312.738536 
L 519.496178 290.765459 
L 521.657851 314.735583 
L 530.304545 299.38027 
L 532.466219 295.453387 
L 534.627893 300.235356 
L 536.789566 296.656476 
L 538.95124 307.843587 
L 543.274587 301.846258 
L 545.43626 311.190026 
L 549.759607 306.025754 
L 551.921281 314.109081 
L 560.567975 304.974058 
L 569.214669 295.446011 
L 571.376343 313.9017 
L 573.538017 320.17128 
L 582.184711 313.584087 
L 590.831405 306.679319 
L 599.478099 299.424797 
L 605.96312 293.732145 
L 610.286467 289.807346 
L 612.44814 293.536447 
L 614.609814 291.638988 
L 616.771488 309.960612 
L 625.418182 303.880872 
L 631.903202 299.070274 
L 638.388223 294.021038 
L 642.71157 290.510159 
L 644.873244 294.486975 
L 651.358264 289.259391 
L 653.519938 287.450883 
L 655.681612 297.558769 
L 662.166632 292.577177 
L 668.651653 287.273976 
L 672.975 283.538283 
L 675.136674 294.991448 
L 681.621694 289.779949 
L 685.945041 286.077881 
L 690.268388 282.17004 
L 694.591736 278.032196 
L 696.753409 291.819163 
L 701.076756 288.014994 
L 703.23843 303.456001 
L 707.561777 300.074578 
L 711.885124 296.432797 
L 716.208471 292.487196 
L 720.531818 288.18243 
L 724.855165 283.446501 
L 729.178512 278.183326 
L 731.340186 288.731913 
L 733.50186 286.091307 
L 735.663533 283.268452 
L 737.825207 280.236311 
L 739.98688 276.961349 
L 742.148554 273.401263 
L 744.310227 269.50163 
L 746.471901 285.720226 
L 748.633574 281.806633 
L 750.795248 277.369766 
L 752.956921 272.24778 
L 755.118595 266.189755 
L 757.280269 258.775333 
L 759.441942 249.21648 
L 761.603616 235.744033 
L 763.765289 313.161531 
L 763.765289 313.161531 
" clip-path="url(#p2d76dd59db)" style="fill: none; stroke: #1f77b4; stroke-linecap: square"/>
   </g>
   <g id="line2d_54">
    <path d="M 487.071074 313.161531 
L 491.394421 313.161531 
L 493.556095 324.185632 
L 502.202789 272.302662 
L 504.364463 322.823338 
L 508.68781 310.830484 
L 510.849483 340.174698 
L 519.496178 327.971059 
L 521.657851 339.015201 
L 530.304545 329.903606 
L 532.466219 327.573456 
L 534.627893 329.702497 
L 536.789566 327.54468 
L 538.95124 333.232086 
L 543.274587 329.520874 
L 545.43626 334.512827 
L 549.759607 331.252619 
L 551.921281 335.765831 
L 560.567975 329.909591 
L 569.214669 323.801393 
L 571.376343 334.863606 
L 573.538017 338.795763 
L 582.184711 334.468937 
L 590.831405 329.933512 
L 599.478099 325.168348 
L 608.124793 320.148925 
L 610.286467 318.851086 
L 612.44814 321.248136 
L 614.609814 320.000553 
L 616.771488 332.371287 
L 625.418182 328.404413 
L 634.064876 324.18551 
L 642.71157 319.680367 
L 644.873244 322.587243 
L 651.358264 319.196784 
L 653.519938 318.023839 
L 655.681612 325.593864 
L 662.166632 322.428668 
L 668.651653 319.059127 
L 672.975 316.685548 
L 675.136674 326.030214 
L 681.621694 322.854552 
L 688.106715 319.424575 
L 694.591736 315.695979 
L 696.753409 329.156778 
L 701.076756 327.071626 
L 703.23843 369.36 
L 718.370145 368.423283 
L 729.178512 367.54904 
L 737.825207 366.639413 
L 744.310227 365.749792 
L 748.633574 364.99316 
L 752.956921 364.017691 
L 755.118595 363.399477 
L 757.280269 362.642845 
L 759.441942 361.667376 
L 761.603616 360.29253 
L 763.765289 313.161531 
L 763.765289 313.161531 
" clip-path="url(#p2d76dd59db)" style="fill: none; stroke-dasharray: 3.7,1.6; stroke-dashoffset: 0; stroke: #0000ff"/>
   </g>
   <g id="line2d_55">
    <path d="M 487.071074 313.161531 
L 491.394421 313.161531 
L 493.556095 251.87607 
L 543.274587 251.87607 
L 545.43626 257.78871 
L 547.597934 253.050319 
L 549.759607 251.87607 
L 551.921281 269.177018 
L 558.406302 257.285836 
L 560.567975 253.23938 
L 562.729649 251.87607 
L 569.214669 251.87607 
L 571.376343 276.977318 
L 573.538017 289.674727 
L 580.023037 282.003106 
L 586.508058 274.059064 
L 592.993079 265.822538 
L 599.478099 257.271165 
L 601.639773 254.3465 
L 603.801446 251.87607 
L 614.609814 251.87607 
L 616.771488 279.348631 
L 623.256508 272.67496 
L 629.741529 265.690776 
L 636.22655 258.365769 
L 640.549897 253.276031 
L 642.71157 251.87607 
L 644.873244 257.595365 
L 649.196591 252.549408 
L 651.358264 251.87607 
L 653.519938 251.87607 
L 655.681612 263.881206 
L 662.166632 256.717643 
L 666.489979 251.87607 
L 672.975 251.87607 
L 675.136674 261.711062 
L 679.460021 256.842865 
L 683.783368 251.87607 
L 694.591736 251.87607 
L 696.753409 258.403814 
L 701.076756 253.06121 
L 703.23843 275.258731 
L 707.561777 270.534223 
L 711.885124 265.445944 
L 716.208471 259.93317 
L 720.531818 253.918572 
L 722.693492 251.87607 
L 729.178512 251.87607 
L 731.340186 254.511052 
L 733.50186 251.87607 
L 761.603616 251.87607 
L 763.765289 313.161531 
L 763.765289 313.161531 
" clip-path="url(#p2d76dd59db)" style="fill: none; stroke-dasharray: 3.7,1.6; stroke-dashoffset: 0; stroke: #0000ff"/>
   </g>
   <g id="patch_8">
    <path d="M 473.236364 384.48 
L 473.236364 51.84 
" style="fill: none; stroke: #000000; stroke-width: 0.8; stroke-linejoin: miter; stroke-linecap: square"/>
   </g>
   <g id="patch_9">
    <path d="M 473.236364 384.48 
L 777.6 384.48 
" style="fill: none; stroke: #000000; stroke-width: 0.8; stroke-linejoin: miter; stroke-linecap: square"/>
   </g>
   <g id="text_32">
    <!-- Upper extremal dependence function -->
    <g transform="translate(513.220057 45.84) scale(0.12 -0.12)">
     <defs>
      <path id="DejaVuSans-78" d="M 3513 3500 
L 2247 1797 
L 3578 0 
L 2900 0 
L 1881 1375 
L 863 0 
L 184 0 
L 1544 1831 
L 300 3500 
L 978 3500 
L 1906 2253 
L 2834 3500 
L 3513 3500 
z
" transform="scale(0.015625)"/>
      <path id="DejaVuSans-6d" d="M 3328 2828 
Q 3544 3216 3844 3400 
Q 4144 3584 4550 3584 
Q 5097 3584 5394 3201 
Q 5691 2819 5691 2113 
L 5691 0 
L 5113 0 
L 5113 2094 
Q 5113 2597 4934 2840 
Q 4756 3084 4391 3084 
Q 3944 3084 3684 2787 
Q 3425 2491 3425 1978 
L 3425 0 
L 2847 0 
L 2847 2094 
Q 2847 2600 2669 2842 
Q 2491 3084 2119 3084 
Q 1678 3084 1418 2786 
Q 1159 2488 1159 1978 
L 1159 0 
L 581 0 
L 581 3500 
L 1159 3500 
L 1159 2956 
Q 1356 3278 1631 3431 
Q 1906 3584 2284 3584 
Q 2666 3584 2933 3390 
Q 3200 3197 3328 2828 
z
" transform="scale(0.015625)"/>
     </defs>
     <use xlink:href="#DejaVuSans-55"/>
     <use xlink:href="#DejaVuSans-70" transform="translate(73.193359 0)"/>
     <use xlink:href="#DejaVuSans-70" transform="translate(136.669922 0)"/>
     <use xlink:href="#DejaVuSans-65" transform="translate(200.146484 0)"/>
     <use xlink:href="#DejaVuSans-72" transform="translate(261.669922 0)"/>
     <use xlink:href="#DejaVuSans-20" transform="translate(302.783203 0)"/>
     <use xlink:href="#DejaVuSans-65" transform="translate(334.570312 0)"/>
     <use xlink:href="#DejaVuSans-78" transform="translate(394.34375 0)"/>
     <use xlink:href="#DejaVuSans-74" transform="translate(453.523438 0)"/>
     <use xlink:href="#DejaVuSans-72" transform="translate(492.732422 0)"/>
     <use xlink:href="#DejaVuSans-65" transform="translate(531.595703 0)"/>
     <use xlink:href="#DejaVuSans-6d" transform="translate(593.119141 0)"/>
     <use xlink:href="#DejaVuSans-61" transform="translate(690.53125 0)"/>
     <use xlink:href="#DejaVuSans-6c" transform="translate(751.810547 0)"/>
     <use xlink:href="#DejaVuSans-20" transform="translate(779.59375 0)"/>
     <use xlink:href="#DejaVuSans-64" transform="translate(811.380859 0)"/>
     <use xlink:href="#DejaVuSans-65" transform="translate(874.857422 0)"/>
     <use xlink:href="#DejaVuSans-70" transform="translate(936.380859 0)"/>
     <use xlink:href="#DejaVuSans-65" transform="translate(999.857422 0)"/>
     <use xlink:href="#DejaVuSans-6e" transform="translate(1061.380859 0)"/>
     <use xlink:href="#DejaVuSans-64" transform="translate(1124.759766 0)"/>
     <use xlink:href="#DejaVuSans-65" transform="translate(1188.236328 0)"/>
     <use xlink:href="#DejaVuSans-6e" transform="translate(1249.759766 0)"/>
     <use xlink:href="#DejaVuSans-63" transform="translate(1313.138672 0)"/>
     <use xlink:href="#DejaVuSans-65" transform="translate(1368.119141 0)"/>
     <use xlink:href="#DejaVuSans-20" transform="translate(1429.642578 0)"/>
     <use xlink:href="#DejaVuSans-66" transform="translate(1461.429688 0)"/>
     <use xlink:href="#DejaVuSans-75" transform="translate(1496.634766 0)"/>
     <use xlink:href="#DejaVuSans-6e" transform="translate(1560.013672 0)"/>
     <use xlink:href="#DejaVuSans-63" transform="translate(1623.392578 0)"/>
     <use xlink:href="#DejaVuSans-74" transform="translate(1678.373047 0)"/>
     <use xlink:href="#DejaVuSans-69" transform="translate(1717.582031 0)"/>
     <use xlink:href="#DejaVuSans-6f" transform="translate(1745.365234 0)"/>
     <use xlink:href="#DejaVuSans-6e" transform="translate(1806.546875 0)"/>
    </g>
   </g>
   <g id="legend_2">
    <g id="patch_10">
     <path d="M 596.325213 381.48 
L 658.511151 381.48 
Q 660.511151 381.48 660.511151 379.48 
L 660.511151 336.42375 
Q 660.511151 334.42375 658.511151 334.42375 
L 596.325213 334.42375 
Q 594.325213 334.42375 594.325213 336.42375 
L 594.325213 379.48 
Q 594.325213 381.48 596.325213 381.48 
z
" style="fill: #4d4d4d; opacity: 0.5; stroke: #4d4d4d; stroke-linejoin: miter"/>
    </g>
    <g id="patch_11">
     <path d="M 594.325213 379.48 
L 656.511151 379.48 
Q 658.511151 379.48 658.511151 377.48 
L 658.511151 334.42375 
Q 658.511151 332.42375 656.511151 332.42375 
L 594.325213 332.42375 
Q 592.325213 332.42375 592.325213 334.42375 
L 592.325213 377.48 
Q 592.325213 379.48 594.325213 379.48 
z
" style="fill: #ffffff; stroke: #cccccc; stroke-linejoin: miter"/>
    </g>
    <g id="line2d_56">
     <path d="M 596.325213 340.52375 
L 606.325213 340.52375 
L 616.325213 340.52375 
" style="fill: none; stroke: #1f77b4; stroke-linecap: square"/>
    </g>
    <g id="text_33">
     <!-- $\bar{\chi}(u)$ -->
     <g transform="translate(624.325213 344.02375) scale(0.1 -0.1)">
      <use xlink:href="#DejaVuSans-304" transform="translate(62.201172 0.078125)"/>
      <use xlink:href="#DejaVuSans-Oblique-3c7" transform="translate(0 0.125)"/>
      <use xlink:href="#DejaVuSans-28" transform="translate(59.179688 0.125)"/>
      <use xlink:href="#DejaVuSans-Oblique-75" transform="translate(98.193359 0.125)"/>
      <use xlink:href="#DejaVuSans-29" transform="translate(161.572266 0.125)"/>
     </g>
    </g>
    <g id="line2d_57">
     <path d="M 596.325213 355.222188 
L 606.325213 355.222188 
L 616.325213 355.222188 
" style="fill: none; stroke-dasharray: 3.7,1.6; stroke-dashoffset: 0; stroke: #0000ff"/>
    </g>
    <g id="text_34">
     <!-- CI low -->
     <g transform="translate(624.325213 358.722188) scale(0.1 -0.1)">
      <use xlink:href="#DejaVuSans-43"/>
      <use xlink:href="#DejaVuSans-49" transform="translate(69.824219 0)"/>
      <use xlink:href="#DejaVuSans-20" transform="translate(99.316406 0)"/>
      <use xlink:href="#DejaVuSans-6c" transform="translate(131.103516 0)"/>
      <use xlink:href="#DejaVuSans-6f" transform="translate(158.886719 0)"/>
      <use xlink:href="#DejaVuSans-77" transform="translate(220.068359 0)"/>
     </g>
    </g>
    <g id="line2d_58">
     <path d="M 596.325213 369.900313 
L 606.325213 369.900313 
L 616.325213 369.900313 
" style="fill: none; stroke-dasharray: 3.7,1.6; stroke-dashoffset: 0; stroke: #0000ff"/>
    </g>
    <g id="text_35">
     <!-- CI up -->
     <g transform="translate(624.325213 373.400313) scale(0.1 -0.1)">
      <use xlink:href="#DejaVuSans-43"/>
      <use xlink:href="#DejaVuSans-49" transform="translate(69.824219 0)"/>
      <use xlink:href="#DejaVuSans-20" transform="translate(99.316406 0)"/>
      <use xlink:href="#DejaVuSans-75" transform="translate(131.103516 0)"/>
      <use xlink:href="#DejaVuSans-70" transform="translate(194.482422 0)"/>
     </g>
    </g>
   </g>
  </g>
 </g>
 <defs>
  <clipPath id="pf214125af4">
   <rect x="108" y="51.84" width="304.363636" height="332.64"/>
  </clipPath>
  <clipPath id="p2d76dd59db">
   <rect x="473.236364" y="51.84" width="304.363636" height="332.64"/>
  </clipPath>
 </defs>
</svg>
