<?xml version="1.0" encoding="utf-8" standalone="no"?>
<!DOCTYPE svg PUBLIC "-//W3C//DTD SVG 1.1//EN"
  "http://www.w3.org/Graphics/SVG/1.1/DTD/svg11.dtd">
<svg xmlns:xlink="http://www.w3.org/1999/xlink" width="460.8pt" height="345.6pt" viewBox="0 0 460.8 345.6" xmlns="http://www.w3.org/2000/svg" version="1.1">
 <metadata>
  <rdf:RDF xmlns:dc="http://purl.org/dc/elements/1.1/" xmlns:cc="http://creativecommons.org/ns#" xmlns:rdf="http://www.w3.org/1999/02/22-rdf-syntax-ns#">
   <cc:Work>
    <dc:type rdf:resource="http://purl.org/dc/dcmitype/StillImage"/>
    <dc:date>2022-01-01T00:00:00+00:00</dc:date>
    <dc:format>image/svg+xml</dc:format>
    <dc:creator>
     <cc:Agent>
      <dc:title>Matplotlib v3.10.8, https://matplotlib.org/</dc:title>
     </cc:Agent>
    </dc:creator>
   </cc:Work>
  </rdf:RDF>
 </metadata>
 <defs>
  <style type="text/css">*{stroke-linejoin: round; stroke-linecap: butt}</style>
 </defs>
 <g id="figure_1">
  <g id="patch_1">
   <path d="M 0 345.6 
L 460.8 345.6 
L 460.8 0 
L 0 0 
z
" style="fill: #ffffff"/>
  </g>
  <g id="axes_1">
   <g id="patch_2">
    <path d="M 57.6 307.584 
L 414.72 307.584 
L 414.72 41.472 
L 57.6 41.472 
z
" style="fill: #ffffff"/>
   </g>
   <g id="matplotlib.axis_1">
    <g id="xtick_1">
     <g id="line2d_1">
      <path d="M 73.832727 307.584 
L 73.832727 41.472 
" clip-path="url(#pf97ae2f1c0)" style="fill: none; stroke: #b0b0b0; stroke-width: 0.8; stroke-linecap: square"/>
     </g>
     <g id="line2d_2">
      <defs>
       <path id="m73c3c44a91" d="M 0 0 
L 0 3.5 
" style="stroke: #000000; stroke-width: 0.8"/>
      </defs>
      <g>
       <use xlink:href="#m73c3c44a91" x="73.832727" y="307.584" style="stroke: #000000; stroke-width: 0.8"/>
      </g>
     </g>
     <g id="text_1">
      <!-- −3 -->
      <g transform="translate(66.461634 322.182437) scale(0.1 -0.1)">
       <defs>
        <path id="DejaVuSans-2212" d="M 678 2272 
L 4684 2272 
L 4684 1741 
L 678 1741 
L 678 2272 
z
" transform="scale(0.015625)"/>
        <path id="DejaVuSans-33" d="M 2597 2516 
Q 3050 2419 3304 2112 
Q 3559 1806 3559 1356 
Q 3559 666 3084 287 
Q 2609 -91 1734 -91 
Q 1441 -91 1130 -33 
Q 819 25 488 141 
L 488 750 
Q 750 597 1062 519 
Q 1375 441 1716 441 
Q 2309 441 2620 675 
Q 2931 909 2931 1356 
Q 2931 1769 2642 2001 
Q 2353 2234 1838 2234 
L 1294 2234 
L 1294 2753 
L 1863 2753 
Q 2328 2753 2575 2939 
Q 2822 3125 2822 3475 
Q 2822 3834 2567 4026 
Q 2313 4219 1838 4219 
Q 1578 4219 1281 4162 
Q 984 4106 628 3988 
L 628 4550 
Q 988 4650 1302 4700 
Q 1616 4750 1894 4750 
Q 2613 4750 3031 4423 
Q 3450 4097 3450 3541 
Q 3450 3153 3228 2886 
Q 3006 2619 2597 2516 
z
" transform="scale(0.015625)"/>
       </defs>
       <use xlink:href="#DejaVuSans-2212"/>
       <use xlink:href="#DejaVuSans-33" transform="translate(83.789062 0)"/>
      </g>
     </g>
    </g>
    <g id="xtick_2">
     <g id="line2d_3">
      <path d="M 114.414545 307.584 
L 114.414545 41.472 
" clip-path="url(#pf97ae2f1c0)" style="fill: none; stroke: #b0b0b0; stroke-width: 0.8; stroke-linecap: square"/>
     </g>
     <g id="line2d_4">
      <g>
       <use xlink:href="#m73c3c44a91" x="114.414545" y="307.584" style="stroke: #000000; stroke-width: 0.8"/>
      </g>
     </g>
     <g id="text_2">
      <!-- −2 -->
      <g transform="translate(107.043452 322.182437) scale(0.1 -0.1)">
       <defs>
        <path id="DejaVuSans-32" d="M 1228 531 
L 3431 531 
L 3431 0 
L 469 0 
L 469 531 
Q 828 903 1448 1529 
Q 2069 2156 2228 2338 
Q 2531 2678 2651 2914 
Q 2772 3150 2772 3378 
Q 2772 3750 2511 3984 
Q 2250 4219 1831 4219 
Q 1534 4219 1204 4116 
Q 875 4013 500 3803 
L 500 4441 
Q 881 4594 1212 4672 
Q 1544 4750 1819 4750 
Q 2544 4750 2975 4387 
Q 3406 4025 3406 3419 
Q 3406 3131 3298 2873 
Q 3191 2616 2906 2266 
Q 2828 2175 2409 1742 
Q 1991 1309 1228 531 
z
" transform="scale(0.015625)"/>
       </defs>
       <use xlink:href="#DejaVuSans-2212"/>
       <use xlink:href="#DejaVuSans-32" transform="translate(83.789062 0)"/>
      </g>
     </g>
    </g>
    <g id="xtick_3">
     <g id="line2d_5">
      <path d="M 154.996364 307.584 
L 154.996364 41.472 
" clip-path="url(#pf97ae2f1c0)" style="fill: none; stroke: #b0b0b0; stroke-width: 0.8; stroke-linecap: square"/>
     </g>
     <g id="line2d_6">
      <g>
       <use xlink:href="#m73c3c44a91" x="154.996364" y="307.584" style="stroke: #000000; stroke-width: 0.8"/>
      </g>
     </g>
     <g id="text_3">
      <!-- −1 -->
      <g transform="translate(147.62527 322.182437) scale(0.1 -0.1)">
       <defs>
        <path id="DejaVuSans-31" d="M 794 531 
L 1825 531 
L 1825 4091 
L 703 3866 
L 703 4441 
L 1819 4666 
L 2450 4666 
L 2450 531 
L 3481 531 
L 3481 0 
L 794 0 
L 794 531 
z
" transform="scale(0.015625)"/>
       </defs>
       <use xlink:href="#DejaVuSans-2212"/>
       <use xlink:href="#DejaVuSans-31" transform="translate(83.789062 0)"/>
      </g>
     </g>
    </g>
    <g id="xtick_4">
     <g id="line2d_7">
      <path d="M 195.578182 307.584 
L 195.578182 41.472 
" clip-path="url(#pf97ae2f1c0)" style="fill: none; stroke: #b0b0b0; stroke-width: 0.8; stroke-linecap: square"/>
     </g>
     <g id="line2d_8">
      <g>
       <use xlink:href="#m73c3c44a91" x="195.578182" y="307.584" style="stroke: #000000; stroke-width: 0.8"/>
      </g>
     </g>
     <g id="text_4">
      <!-- 0 -->
      <g transform="translate(192.396932 322.182437) scale(0.1 -0.1)">
       <defs>
        <path id="DejaVuSans-30" d="M 2034 4250 
Q 1547 4250 1301 3770 
Q 1056 3291 1056 2328 
Q 1056 1369 1301 889 
Q 1547 409 2034 409 
Q 2525 409 2770 889 
Q 3016 1369 3016 2328 
Q 3016 3291 2770 3770 
Q 2525 4250 2034 4250 
z
M 2034 4750 
Q 2819 4750 3233 4129 
Q 3647 3509 3647 2328 
Q 3647 1150 3233 529 
Q 2819 -91 2034 -91 
Q 1250 -91 836 529 
Q 422 1150 422 2328 
Q 422 3509 836 4129 
Q 1250 4750 2034 4750 
z
" transform="scale(0.015625)"/>
       </defs>
       <use xlink:href="#DejaVuSans-30"/>
      </g>
     </g>
    </g>
    <g id="xtick_5">
     <g id="line2d_9">
      <path d="M 236.16 307.584 
L 236.16 41.472 
" clip-path="url(#pf97ae2f1c0)" style="fill: none; stroke: #b0b0b0; stroke-width: 0.8; stroke-linecap: square"/>
     </g>
     <g id="line2d_10">
      <g>
       <use xlink:href="#m73c3c44a91" x="236.16" y="307.584" style="stroke: #000000; stroke-width: 0.8"/>
      </g>
     </g>
     <g id="text_5">
      <!-- 1 -->
      <g transform="translate(232.97875 322.182437) scale(0.1 -0.1)">
       <use xlink:href="#DejaVuSans-31"/>
      </g>
     </g>
    </g>
    <g id="xtick_6">
     <g id="line2d_11">
      <path d="M 276.741818 307.584 
L 276.741818 41.472 
" clip-path="url(#pf97ae2f1c0)" style="fill: none; stroke: #b0b0b0; stroke-width: 0.8; stroke-linecap: square"/>
     </g>
     <g id="line2d_12">
      <g>
       <use xlink:href="#m73c3c44a91" x="276.741818" y="307.584" style="stroke: #000000; stroke-width: 0.8"/>
      </g>
     </g>
     <g id="text_6">
      <!-- 2 -->
      <g transform="translate(273.560568 322.182437) scale(0.1 -0.1)">
       <use xlink:href="#DejaVuSans-32"/>
      </g>
     </g>
    </g>
    <g id="xtick_7">
     <g id="line2d_13">
      <path d="M 317.323636 307.584 
L 317.323636 41.472 
" clip-path="url(#pf97ae2f1c0)" style="fill: none; stroke: #b0b0b0; stroke-width: 0.8; stroke-linecap: square"/>
     </g>
     <g id="line2d_14">
      <g>
       <use xlink:href="#m73c3c44a91" x="317.323636" y="307.584" style="stroke: #000000; stroke-width: 0.8"/>
      </g>
     </g>
     <g id="text_7">
      <!-- 3 -->
      <g transform="translate(314.142386 322.182437) scale(0.1 -0.1)">
       <use xlink:href="#DejaVuSans-33"/>
      </g>
     </g>
    </g>
    <g id="xtick_8">
     <g id="line2d_15">
      <path d="M 357.905455 307.584 
L 357.905455 41.472 
" clip-path="url(#pf97ae2f1c0)" style="fill: none; stroke: #b0b0b0; stroke-width: 0.8; stroke-linecap: square"/>
     </g>
     <g id="line2d_16">
      <g>
       <use xlink:href="#m73c3c44a91" x="357.905455" y="307.584" style="stroke: #000000; stroke-width: 0.8"/>
      </g>
     </g>
     <g id="text_8">
      <!-- 4 -->
      <g transform="translate(354.724205 322.182437) scale(0.1 -0.1)">
       <defs>
        <path id="DejaVuSans-34" d="M 2419 4116 
L 825 1625 
L 2419 1625 
L 2419 4116 
z
M 2253 4666 
L 3047 4666 
L 3047 1625 
L 3713 1625 
L 3713 1100 
L 3047 1100 
L 3047 0 
L 2419 0 
L 2419 1100 
L 313 1100 
L 313 1709 
L 2253 4666 
z
" transform="scale(0.015625)"/>
       </defs>
       <use xlink:href="#DejaVuSans-34"/>
      </g>
     </g>
    </g>
    <g id="xtick_9">
     <g id="line2d_17">
      <path d="M 398.487273 307.584 
L 398.487273 41.472 
" clip-path="url(#pf97ae2f1c0)" style="fill: none; stroke: #b0b0b0; stroke-width: 0.8; stroke-linecap: square"/>
     </g>
     <g id="line2d_18">
      <g>
       <use xlink:href="#m73c3c44a91" x="398.487273" y="307.584" style="stroke: #000000; stroke-width: 0.8"/>
      </g>
     </g>
     <g id="text_9">
      <!-- 5 -->
      <g transform="translate(395.306023 322.182437) scale(0.1 -0.1)">
       <defs>
        <path id="DejaVuSans-35" d="M 691 4666 
L 3169 4666 
L 3169 4134 
L 1269 4134 
L 1269 2991 
Q 1406 3038 1543 3061 
Q 1681 3084 1819 3084 
Q 2600 3084 3056 2656 
Q 3513 2228 3513 1497 
Q 3513 744 3044 326 
Q 2575 -91 1722 -91 
Q 1428 -91 1123 -41 
Q 819 9 494 109 
L 494 744 
Q 775 591 1075 516 
Q 1375 441 1709 441 
Q 2250 441 2565 725 
Q 2881 1009 2881 1497 
Q 2881 1984 2565 2268 
Q 2250 2553 1709 2553 
Q 1456 2553 1204 2497 
Q 953 2441 691 2322 
L 691 4666 
z
" transform="scale(0.015625)"/>
       </defs>
       <use xlink:href="#DejaVuSans-35"/>
      </g>
     </g>
    </g>
    <g id="text_10">
     <!-- $\mu$ -->
     <g transform="translate(232.96 335.84025) scale(0.1 -0.1)">
      <defs>
       <path id="DejaVuSans-Oblique-3bc" d="M -84 -1331 
L 856 3500 
L 1434 3500 
L 1009 1322 
Q 997 1256 987 1175 
Q 978 1094 978 1013 
Q 978 722 1161 565 
Q 1344 409 1684 409 
Q 2147 409 2431 671 
Q 2716 934 2816 1459 
L 3213 3500 
L 3788 3500 
L 3266 809 
Q 3253 750 3248 706 
Q 3244 663 3244 628 
Q 3244 531 3283 486 
Q 3322 441 3406 441 
Q 3438 441 3492 456 
Q 3547 472 3647 513 
L 3559 50 
Q 3422 -19 3297 -55 
Q 3172 -91 3053 -91 
Q 2847 -91 2730 40 
Q 2613 172 2613 403 
Q 2438 153 2195 31 
Q 1953 -91 1625 -91 
Q 1334 -91 1117 43 
Q 900 178 831 397 
L 494 -1331 
L -84 -1331 
z
" transform="scale(0.015625)"/>
      </defs>
      <use xlink:href="#DejaVuSans-Oblique-3bc" transform="translate(0 0.3125)"/>
     </g>
    </g>
   </g>
   <g id="matplotlib.axis_2">
    <g id="ytick_1">
     <g id="line2d_19">
      <path d="M 57.6 298.994087 
L 414.72 298.994087 
" clip-path="url(#pf97ae2f1c0)" style="fill: none; stroke: #b0b0b0; stroke-width: 0.8; stroke-linecap: square"/>
     </g>
     <g id="line2d_20">
      <defs>
       <path id="m68a3fc9daf" d="M 0 0 
L -3.5 0 
" style="stroke: #000000; stroke-width: 0.8"/>
      </defs>
      <g>
       <use xlink:href="#m68a3fc9daf" x="57.6" y="298.994087" style="stroke: #000000; stroke-width: 0.8"/>
      </g>
     </g>
     <g id="text_11">
      <!-- 0 -->
      <g transform="translate(44.2375 302.793306) scale(0.1 -0.1)">
       <use xlink:href="#DejaVuSans-30"/>
      </g>
     </g>
    </g>
    <g id="ytick_2">
     <g id="line2d_21">
      <path d="M 57.6 263.933217 
L 414.72 263.933217 
" clip-path="url(#pf97ae2f1c0)" style="fill: none; stroke: #b0b0b0; stroke-width: 0.8; stroke-linecap: square"/>
     </g>
     <g id="line2d_22">
      <g>
       <use xlink:href="#m68a3fc9daf" x="57.6" y="263.933217" style="stroke: #000000; stroke-width: 0.8"/>
      </g>
     </g>
     <g id="text_12">
      <!-- 1 -->
      <g transform="translate(44.2375 267.732436) scale(0.1 -0.1)">
       <use xlink:href="#DejaVuSans-31"/>
      </g>
     </g>
    </g>
    <g id="ytick_3">
     <g id="line2d_23">
      <path d="M 57.6 228.872348 
L 414.72 228.872348 
" clip-path="url(#pf97ae2f1c0)" style="fill: none; stroke: #b0b0b0; stroke-width: 0.8; stroke-linecap: square"/>
     </g>
     <g id="line2d_24">
      <g>
       <use xlink:href="#m68a3fc9daf" x="57.6" y="228.872348" style="stroke: #000000; stroke-width: 0.8"/>
      </g>
     </g>
     <g id="text_13">
      <!-- 2 -->
      <g transform="translate(44.2375 232.671567) scale(0.1 -0.1)">
       <use xlink:href="#DejaVuSans-32"/>
      </g>
     </g>
    </g>
    <g id="ytick_4">
     <g id="line2d_25">
      <path d="M 57.6 193.811478 
L 414.72 193.811478 
" clip-path="url(#pf97ae2f1c0)" style="fill: none; stroke: #b0b0b0; stroke-width: 0.8; stroke-linecap: square"/>
     </g>
     <g id="line2d_26">
      <g>
       <use xlink:href="#m68a3fc9daf" x="57.6" y="193.811478" style="stroke: #000000; stroke-width: 0.8"/>
      </g>
     </g>
     <g id="text_14">
      <!-- 3 -->
      <g transform="translate(44.2375 197.610697) scale(0.1 -0.1)">
       <use xlink:href="#DejaVuSans-33"/>
      </g>
     </g>
    </g>
    <g id="ytick_5">
     <g id="line2d_27">
      <path d="M 57.6 158.750609 
L 414.72 158.750609 
" clip-path="url(#pf97ae2f1c0)" style="fill: none; stroke: #b0b0b0; stroke-width: 0.8; stroke-linecap: square"/>
     </g>
     <g id="line2d_28">
      <g>
       <use xlink:href="#m68a3fc9daf" x="57.6" y="158.750609" style="stroke: #000000; stroke-width: 0.8"/>
      </g>
     </g>
     <g id="text_15">
      <!-- 4 -->
      <g transform="translate(44.2375 162.549827) scale(0.1 -0.1)">
       <use xlink:href="#DejaVuSans-34"/>
      </g>
     </g>
    </g>
    <g id="ytick_6">
     <g id="line2d_29">
      <path d="M 57.6 123.689739 
L 414.72 123.689739 
" clip-path="url(#pf97ae2f1c0)" style="fill: none; stroke: #b0b0b0; stroke-width: 0.8; stroke-linecap: square"/>
     </g>
     <g id="line2d_30">
      <g>
       <use xlink:href="#m68a3fc9daf" x="57.6" y="123.689739" style="stroke: #000000; stroke-width: 0.8"/>
      </g>
     </g>
     <g id="text_16">
      <!-- 5 -->
      <g transform="translate(44.2375 127.488958) scale(0.1 -0.1)">
       <use xlink:href="#DejaVuSans-35"/>
      </g>
     </g>
    </g>
    <g id="ytick_7">
     <g id="line2d_31">
      <path d="M 57.6 88.62887 
L 414.72 88.62887 
" clip-path="url(#pf97ae2f1c0)" style="fill: none; stroke: #b0b0b0; stroke-width: 0.8; stroke-linecap: square"/>
     </g>
     <g id="line2d_32">
      <g>
       <use xlink:href="#m68a3fc9daf" x="57.6" y="88.62887" style="stroke: #000000; stroke-width: 0.8"/>
      </g>
     </g>
     <g id="text_17">
      <!-- 6 -->
      <g transform="translate(44.2375 92.428088) scale(0.1 -0.1)">
       <defs>
        <path id="DejaVuSans-36" d="M 2113 2584 
Q 1688 2584 1439 2293 
Q 1191 2003 1191 1497 
Q 1191 994 1439 701 
Q 1688 409 2113 409 
Q 2538 409 2786 701 
Q 3034 994 3034 1497 
Q 3034 2003 2786 2293 
Q 2538 2584 2113 2584 
z
M 3366 4563 
L 3366 3988 
Q 3128 4100 2886 4159 
Q 2644 4219 2406 4219 
Q 1781 4219 1451 3797 
Q 1122 3375 1075 2522 
Q 1259 2794 1537 2939 
Q 1816 3084 2150 3084 
Q 2853 3084 3261 2657 
Q 3669 2231 3669 1497 
Q 3669 778 3244 343 
Q 2819 -91 2113 -91 
Q 1303 -91 875 529 
Q 447 1150 447 2328 
Q 447 3434 972 4092 
Q 1497 4750 2381 4750 
Q 2619 4750 2861 4703 
Q 3103 4656 3366 4563 
z
" transform="scale(0.015625)"/>
       </defs>
       <use xlink:href="#DejaVuSans-36"/>
      </g>
     </g>
    </g>
    <g id="ytick_8">
     <g id="line2d_33">
      <path d="M 57.6 53.568 
L 414.72 53.568 
" clip-path="url(#pf97ae2f1c0)" style="fill: none; stroke: #b0b0b0; stroke-width: 0.8; stroke-linecap: square"/>
     </g>
     <g id="line2d_34">
      <g>
       <use xlink:href="#m68a3fc9daf" x="57.6" y="53.568" style="stroke: #000000; stroke-width: 0.8"/>
      </g>
     </g>
     <g id="text_18">
      <!-- 7 -->
      <g transform="translate(44.2375 57.367219) scale(0.1 -0.1)">
       <defs>
        <path id="DejaVuSans-37" d="M 525 4666 
L 3525 4666 
L 3525 4397 
L 1831 0 
L 1172 0 
L 2766 4134 
L 525 4134 
L 525 4666 
z
" transform="scale(0.015625)"/>
       </defs>
       <use xlink:href="#DejaVuSans-37"/>
      </g>
     </g>
    </g>
    <g id="text_19">
     <!-- $\sigma$ -->
     <g transform="translate(38.157812 177.728) rotate(-90) scale(0.1 -0.1)">
      <defs>
       <path id="DejaVuSans-Oblique-3c3" d="M 2219 3044 
Q 1744 3044 1422 2700 
Q 1081 2341 969 1747 
Q 844 1119 1044 756 
Q 1241 397 1706 397 
Q 2166 397 2503 759 
Q 2844 1122 2966 1747 
Q 3075 2319 2881 2700 
Q 2700 3044 2219 3044 
z
M 2309 3503 
L 4219 3500 
L 4106 2925 
L 3463 2925 
Q 3706 2438 3575 1747 
Q 3406 888 2884 400 
Q 2359 -91 1609 -91 
Q 856 -91 525 400 
Q 194 888 363 1747 
Q 528 2609 1050 3097 
Q 1484 3503 2309 3503 
z
" transform="scale(0.015625)"/>
      </defs>
      <use xlink:href="#DejaVuSans-Oblique-3c3" transform="translate(0 0.265625)"/>
     </g>
    </g>
   </g>
   <g id="QuadContourSet_1">
    <path d="M 133.463154 295.488 
L 126.837551 290.550857 
L 122.025139 290.550857 
M 80.282344 285.613714 
L 73.832727 285.613714 
M 73.832727 259.67623 
L 80.45833 260.769009 
L 81.370754 260.928 
L 87.083933 261.602376 
L 93.709536 262.471262 
L 100.335139 263.451821 
L 106.960742 264.567134 
L 113.586345 265.846874 
L 113.675455 265.865143 
L 120.211948 266.73491 
L 126.837551 267.759233 
L 133.463154 268.964932 
L 140.088757 270.403345 
L 141.748998 270.802286 
L 146.71436 271.53666 
L 153.339963 272.702247 
L 159.965566 274.154656 
L 165.764628 275.739429 
L 166.591169 275.86836 
L 173.216772 277.040134 
L 179.842375 278.588986 
L 185.231587 280.287011 
M 227.939794 286.665314 
L 232.847199 286.582795 
L 239.472801 286.194703 
L 246.098404 285.664515 
L 246.623641 285.613714 
L 252.724007 283.861498 
L 259.34961 282.229295 
L 265.975213 280.953847 
L 267.617199 280.676571 
L 272.600816 279.01573 
L 279.226419 277.294024 
L 285.852022 276.006613 
L 287.449915 275.739429 
L 292.477625 274.28382 
L 299.103228 272.730889 
L 305.728831 271.498219 
L 310.174791 270.802286 
L 312.354434 270.252523 
L 318.980037 268.762769 
L 325.60564 267.52305 
L 332.231243 266.47651 
L 336.629539 265.865143 
L 338.856846 265.390743 
L 345.482449 264.101084 
L 352.108052 262.981795 
L 358.733655 262.001376 
L 365.359258 261.135474 
L 367.058971 260.928 
L 371.984861 260.04388 
L 378.610464 258.964982 
L 385.236067 257.997515 
L 391.86167 257.12495 
L 398.487273 256.333828 
" clip-path="url(#pf97ae2f1c0)" style="fill: none; stroke: #ff0000; stroke-opacity: 0.996094"/>
    <path d="M 133.463154 295.488 
L 126.837551 290.550857 
L 122.025139 290.550857 
M 80.282344 285.613714 
L 73.832727 285.613714 
M 73.832727 195.581955 
L 76.859393 196.745143 
L 80.45833 197.932937 
L 87.083933 200.353159 
L 90.382787 201.682286 
L 93.709536 202.829794 
L 100.335139 205.375187 
L 103.260315 206.619429 
L 106.960742 207.963541 
L 113.586345 210.694725 
L 115.488957 211.556571 
L 120.211948 213.380707 
L 126.837551 216.390097 
L 127.049987 216.493714 
L 133.463154 219.161186 
L 138.062354 221.430857 
L 140.088757 222.277321 
L 146.71436 225.449407 
L 148.407814 226.368 
L 153.339963 228.641364 
L 156.970201 230.650285 
M 194.234198 252.754531 
L 198.790515 255.990857 
L 199.719184 256.536289 
L 205.913743 260.928 
L 206.344787 261.171046 
L 212.97039 265.33235 
L 213.853789 265.865143 
L 219.595993 268.131778 
L 226.221596 269.618864 
L 232.847199 268.473673 
L 239.198809 265.865143 
L 239.472801 265.685354 
L 246.098404 260.928 
L 246.098404 260.928 
L 252.039044 255.990857 
L 252.724007 255.353567 
L 257.958782 251.053714 
L 259.34961 249.803516 
L 264.10288 246.116571 
L 265.975213 244.525256 
L 270.574457 241.179429 
L 272.600816 239.554731 
L 277.433152 236.242286 
L 279.226419 234.880647 
L 284.721836 231.305143 
L 285.852022 230.488004 
L 292.475803 226.368 
L 292.477625 226.366739 
L 299.103228 222.232354 
L 300.601619 221.430857 
L 305.728831 218.326463 
L 309.237153 216.493714 
L 312.354434 214.656458 
L 318.412452 211.556571 
L 318.980037 211.230021 
L 325.60564 207.736137 
L 328.012048 206.619429 
L 332.231243 204.405686 
L 338.164078 201.682286 
L 338.856846 201.324347 
L 345.482449 198.144821 
L 348.767763 196.745143 
L 352.108052 195.140179 
L 358.733655 192.281626 
L 359.91732 191.808 
L 365.359258 189.351326 
L 371.569535 186.870857 
L 371.984861 186.684598 
L 378.610464 183.866992 
L 383.704388 181.933714 
L 385.236067 181.281447 
L 391.86167 178.630049 
L 396.361209 176.996571 
L 398.487273 176.131618 
" clip-path="url(#pf97ae2f1c0)" style="fill: none; stroke: #ff0000; stroke-opacity: 0.996094"/>
    <path d="M 133.463154 295.488 
L 126.837551 290.550857 
L 122.025139 290.550857 
M 80.282344 285.613714 
L 73.832727 285.613714 
M 73.832727 143.570951 
L 80.330882 147.373714 
L 80.45833 147.442695 
L 87.083933 151.257613 
L 88.760311 152.310857 
L 93.709536 155.199255 
L 96.913325 157.248 
L 100.335139 159.279724 
L 104.792136 162.185143 
L 106.960742 163.497427 
L 112.40599 167.122286 
L 113.586345 167.851679 
L 119.763639 172.059429 
L 120.211948 172.342979 
L 126.837551 176.967153 
L 126.876317 176.996571 
L 133.463154 181.694485 
L 133.76786 181.933714 
L 140.088757 186.612008 
L 140.406147 186.870857 
L 146.71436 191.741205 
L 146.792825 191.808 
L 152.969219 196.745143 
L 153.339963 197.022644 
L 158.932175 201.682286 
L 159.965566 202.495225 
L 164.674102 206.619429 
L 166.591169 208.217914 
L 170.190791 211.556571 
L 173.216772 214.259716 
L 175.471247 216.493714 
L 179.842375 220.7351 
L 180.492508 221.430857 
L 185.428109 226.368 
L 186.467978 227.345104 
L 190.257629 231.305143 
L 193.093581 234.246904 
L 194.851324 236.242286 
L 199.275824 241.179429 
L 199.719184 241.610254 
L 203.967608 246.116571 
L 206.344787 248.588575 
L 208.645321 251.053714 
L 212.97039 255.4587 
L 213.555234 255.990857 
L 219.595993 260.419011 
L 220.93921 260.928 
L 226.221596 262.050151 
L 230.890192 260.928 
L 232.847199 260.001555 
L 237.088547 255.990857 
L 239.472801 253.189173 
L 241.069371 251.053714 
L 244.309397 246.116571 
L 246.098404 243.194835 
L 247.329458 241.179429 
L 250.096502 236.242286 
L 252.724007 231.787988 
L 253.020579 231.305143 
L 255.652998 226.368 
L 258.520185 221.430857 
L 259.34961 219.905509 
L 261.291908 216.493714 
L 264.176255 211.556571 
L 265.975213 208.501141 
L 267.144249 206.619429 
L 270.128503 201.682286 
L 272.600816 197.768383 
L 273.284809 196.745143 
L 276.424064 191.808 
L 277.753609 189.826025 
M 303.531923 154.961826 
L 305.728831 152.310857 
L 305.728831 152.310857 
L 309.841937 147.373714 
L 312.354434 144.416867 
L 314.127792 142.436571 
L 318.548707 137.499429 
L 318.980037 137.002983 
L 323.037252 132.562286 
L 325.60564 129.76978 
L 327.681016 127.625143 
L 332.231243 122.92259 
L 332.470138 122.688 
L 337.334906 117.750857 
L 338.856846 116.196578 
L 342.334929 112.813714 
L 345.482449 109.733424 
L 347.474715 107.876571 
L 352.108052 103.514592 
L 352.749475 102.939429 
L 358.135011 98.002286 
L 358.733655 97.442126 
L 363.633895 93.065143 
L 365.359258 91.504002 
L 369.267043 88.128 
L 371.984861 85.74386 
L 375.032082 83.190857 
L 378.610464 80.140547 
L 380.927278 78.253714 
L 385.236067 74.677355 
L 386.95141 73.316571 
L 391.86167 69.340946 
L 393.103671 68.379429 
L 398.487273 64.120567 
" clip-path="url(#pf97ae2f1c0)" style="fill: none; stroke: #ff0000; stroke-opacity: 0.996094"/>
    <path d="M 133.463154 295.488 
L 126.837551 290.550857 
L 122.025139 290.550857 
M 80.282344 285.613714 
L 73.832727 285.613714 
M 73.832727 88.994851 
L 78.176894 93.065143 
L 80.45833 95.155649 
L 83.401169 98.002286 
L 87.083933 101.498262 
L 88.522552 102.939429 
L 93.546967 107.876571 
L 93.709536 108.027568 
L 98.578769 112.813714 
L 100.335139 114.511312 
L 103.50385 117.750857 
L 106.960742 121.244265 
L 108.312386 122.688 
L 113.043513 127.625143 
L 113.586345 128.163066 
L 117.773183 132.562286 
L 120.211948 135.106899 
L 122.376888 137.499429 
L 126.837551 142.436571 
L 126.837551 142.436571 
L 130.006357 145.889416 
M 158.145624 178.893599 
L 159.965566 181.182913 
L 160.528026 181.933714 
L 164.494032 186.870857 
L 166.591169 189.498741 
L 168.322426 191.808 
L 172.074508 196.745143 
L 173.216772 198.172053 
L 175.848643 201.682286 
L 179.411363 206.619429 
L 179.842375 207.155864 
L 183.145578 211.556571 
L 186.467978 216.347619 
L 186.564117 216.493714 
L 190.268486 221.430857 
L 193.093581 225.508694 
L 193.661859 226.368 
L 197.310792 231.305143 
L 199.719184 234.712055 
L 200.767592 236.242286 
L 204.465148 241.179429 
L 206.344787 243.62993 
L 208.264919 246.116571 
L 212.237519 251.053714 
L 212.97039 251.800127 
L 217.576035 255.990857 
L 219.595993 257.471579 
L 226.221596 259.695451 
L 232.847199 256.74719 
L 233.647027 255.990857 
L 237.215269 251.053714 
L 239.472801 247.392863 
L 240.156163 246.116571 
L 242.200599 241.179429 
L 244.174027 236.242286 
L 246.067374 231.305143 
L 246.098404 231.199451 
L 247.464074 226.368 
L 248.805465 221.430857 
L 250.090695 216.493714 
L 251.312398 211.556571 
L 252.46427 206.619429 
L 252.724007 205.274549 
L 253.410654 201.682286 
L 254.25856 196.745143 
L 255.046752 191.808 
L 255.771853 186.870857 
L 256.431156 181.933714 
L 257.022567 176.996571 
L 257.544546 172.059429 
L 257.996051 167.122286 
L 258.376469 162.185143 
L 258.685561 157.248 
L 258.923407 152.310857 
L 259.090353 147.373714 
L 259.186969 142.436571 
L 259.214004 137.499429 
L 259.17235 132.562286 
L 259.063014 127.625143 
L 258.887088 122.688 
L 258.645725 117.750857 
L 258.340122 112.813714 
L 257.971497 107.876571 
L 257.541083 102.939429 
L 257.050112 98.002286 
L 256.499803 93.065143 
L 255.891359 88.128 
L 255.225961 83.190857 
L 254.504757 78.253714 
L 253.728867 73.316571 
L 252.899372 68.379429 
L 252.724007 67.355372 
L 251.970856 63.442286 
L 250.97936 58.505143 
L 249.937901 53.568 
" clip-path="url(#pf97ae2f1c0)" style="fill: none; stroke: #ff0000; stroke-opacity: 0.996094"/>
    <path d="M 133.463154 295.488 
L 126.837551 290.550857 
L 122.025139 290.550857 
M 80.282344 285.613714 
L 73.832727 285.613714 
M 229.295319 146.9826 
L 226.221596 142.549714 
L 226.119256 142.436571 
L 221.80089 137.499429 
L 219.595993 134.961699 
L 216.882899 132.562286 
L 212.97039 128.966056 
L 211.03764 127.625143 
L 206.344787 124.161004 
L 203.631607 122.688 
L 199.719184 120.387676 
L 193.375895 117.750857 
L 193.093581 117.621959 
L 186.467978 115.791767 
L 179.842375 115.121778 
L 173.216772 115.93766 
L 169.170926 117.750857 
L 166.591169 119.232242 
L 163.624486 122.688 
L 161.074304 127.625143 
L 159.965566 132.094763 
L 159.891526 132.562286 
L 159.666088 137.499429 
L 159.965566 142.436571 
L 159.965566 142.436571 
L 160.800468 147.373714 
L 161.968462 152.310857 
L 163.375508 157.248 
L 164.952089 162.185143 
L 166.591169 166.93053 
L 166.656549 167.122286 
L 168.758444 172.059429 
L 170.881764 176.996571 
L 173.002297 181.933714 
L 173.216772 182.350722 
L 175.470509 186.870857 
L 177.902629 191.808 
L 179.842375 195.719491 
L 180.337396 196.745143 
L 183.059597 201.682286 
L 185.629282 206.619429 
L 186.467978 208.059835 
L 188.432146 211.556571 
L 191.220854 216.493714 
L 193.093581 219.785813 
L 194.005394 221.430857 
L 197.036842 226.368 
L 199.719184 231.125267 
L 199.820119 231.305143 
L 203.17409 236.242286 
L 206.165104 241.179429 
L 206.344787 241.413682 
L 209.976259 246.116571 
L 212.97039 250.210767 
L 213.698458 251.053714 
L 218.858213 255.990857 
L 219.595993 256.531684 
L 226.221596 258.470553 
L 232.064471 255.990857 
L 232.847199 255.363672 
L 235.689908 251.053714 
L 238.479724 246.116571 
L 239.472801 243.788668 
L 240.432197 241.179429 
L 241.871015 236.242286 
L 243.133327 231.305143 
L 244.2046 226.368 
L 245.072179 221.430857 
L 245.725903 216.493714 
L 246.098404 212.141996 
L 246.145921 211.556571 
L 246.311484 206.619429 
L 246.294423 201.682286 
L 246.098404 196.94644 
L 246.086514 196.745143 
L 245.602638 191.808 
L 244.916664 187.05165 
" clip-path="url(#pf97ae2f1c0)" style="fill: none; stroke: #ff0000; stroke-opacity: 0.996094"/>
   </g>
   <g id="text_20">
    <g clip-path="url(#pf97ae2f1c0)">
     <!-- -37.5422 -->
     <g style="fill: #ff0000; opacity: 0.996094" transform="translate(82.230451 291.279601) rotate(-355.307216) scale(0.08 -0.08)">
      <defs>
       <path id="DejaVuSans-2d" d="M 313 2009 
L 1997 2009 
L 1997 1497 
L 313 1497 
L 313 2009 
z
" transform="scale(0.015625)"/>
       <path id="DejaVuSans-2e" d="M 684 794 
L 1344 794 
L 1344 0 
L 684 0 
L 684 794 
z
" transform="scale(0.015625)"/>
      </defs>
      <use xlink:href="#DejaVuSans-2d"/>
      <use xlink:href="#DejaVuSans-33" transform="translate(36.083984 0)"/>
      <use xlink:href="#DejaVuSans-37" transform="translate(99.707031 0)"/>
      <use xlink:href="#DejaVuSans-2e" transform="translate(163.330078 0)"/>
      <use xlink:href="#DejaVuSans-35" transform="translate(195.117188 0)"/>
      <use xlink:href="#DejaVuSans-34" transform="translate(258.740234 0)"/>
      <use xlink:href="#DejaVuSans-32" transform="translate(322.363281 0)"/>
      <use xlink:href="#DejaVuSans-32" transform="translate(385.986328 0)"/>
     </g>
    </g>
   </g>
   <g id="text_21">
    <g clip-path="url(#pf97ae2f1c0)">
     <!-- -37.5422 -->
     <g style="fill: #ff0000; opacity: 0.996094" transform="translate(188.235243 284.567368) rotate(-351.117173) scale(0.08 -0.08)">
      <use xlink:href="#DejaVuSans-2d"/>
      <use xlink:href="#DejaVuSans-33" transform="translate(36.083984 0)"/>
      <use xlink:href="#DejaVuSans-37" transform="translate(99.707031 0)"/>
      <use xlink:href="#DejaVuSans-2e" transform="translate(163.330078 0)"/>
      <use xlink:href="#DejaVuSans-35" transform="translate(195.117188 0)"/>
      <use xlink:href="#DejaVuSans-34" transform="translate(258.740234 0)"/>
      <use xlink:href="#DejaVuSans-32" transform="translate(322.363281 0)"/>
      <use xlink:href="#DejaVuSans-32" transform="translate(385.986328 0)"/>
     </g>
    </g>
   </g>
   <g id="text_22">
    <g clip-path="url(#pf97ae2f1c0)">
     <!-- -13.7386 -->
     <g style="fill: #ff0000; opacity: 0.996094" transform="translate(82.230451 291.279601) rotate(-355.307216) scale(0.08 -0.08)">
      <defs>
       <path id="DejaVuSans-38" d="M 2034 2216 
Q 1584 2216 1326 1975 
Q 1069 1734 1069 1313 
Q 1069 891 1326 650 
Q 1584 409 2034 409 
Q 2484 409 2743 651 
Q 3003 894 3003 1313 
Q 3003 1734 2745 1975 
Q 2488 2216 2034 2216 
z
M 1403 2484 
Q 997 2584 770 2862 
Q 544 3141 544 3541 
Q 544 4100 942 4425 
Q 1341 4750 2034 4750 
Q 2731 4750 3128 4425 
Q 3525 4100 3525 3541 
Q 3525 3141 3298 2862 
Q 3072 2584 2669 2484 
Q 3125 2378 3379 2068 
Q 3634 1759 3634 1313 
Q 3634 634 3220 271 
Q 2806 -91 2034 -91 
Q 1263 -91 848 271 
Q 434 634 434 1313 
Q 434 1759 690 2068 
Q 947 2378 1403 2484 
z
M 1172 3481 
Q 1172 3119 1398 2916 
Q 1625 2713 2034 2713 
Q 2441 2713 2670 2916 
Q 2900 3119 2900 3481 
Q 2900 3844 2670 4047 
Q 2441 4250 2034 4250 
Q 1625 4250 1398 4047 
Q 1172 3844 1172 3481 
z
" transform="scale(0.015625)"/>
      </defs>
      <use xlink:href="#DejaVuSans-2d"/>
      <use xlink:href="#DejaVuSans-31" transform="translate(36.083984 0)"/>
      <use xlink:href="#DejaVuSans-33" transform="translate(99.707031 0)"/>
      <use xlink:href="#DejaVuSans-2e" transform="translate(163.330078 0)"/>
      <use xlink:href="#DejaVuSans-37" transform="translate(195.117188 0)"/>
      <use xlink:href="#DejaVuSans-33" transform="translate(258.740234 0)"/>
      <use xlink:href="#DejaVuSans-38" transform="translate(322.363281 0)"/>
      <use xlink:href="#DejaVuSans-36" transform="translate(385.986328 0)"/>
     </g>
    </g>
   </g>
   <g id="text_23">
    <g clip-path="url(#pf97ae2f1c0)">
     <!-- -13.7386 -->
     <g style="fill: #ff0000; opacity: 0.996094" transform="translate(159.34606 233.85016) rotate(-329.142437) scale(0.08 -0.08)">
      <use xlink:href="#DejaVuSans-2d"/>
      <use xlink:href="#DejaVuSans-31" transform="translate(36.083984 0)"/>
      <use xlink:href="#DejaVuSans-33" transform="translate(99.707031 0)"/>
      <use xlink:href="#DejaVuSans-2e" transform="translate(163.330078 0)"/>
      <use xlink:href="#DejaVuSans-37" transform="translate(195.117188 0)"/>
      <use xlink:href="#DejaVuSans-33" transform="translate(258.740234 0)"/>
      <use xlink:href="#DejaVuSans-38" transform="translate(322.363281 0)"/>
      <use xlink:href="#DejaVuSans-36" transform="translate(385.986328 0)"/>
     </g>
    </g>
   </g>
   <g id="text_24">
    <g clip-path="url(#pf97ae2f1c0)">
     <!-- -13.1559 -->
     <g style="fill: #ff0000; opacity: 0.996094" transform="translate(82.230451 291.279601) rotate(-355.307216) scale(0.08 -0.08)">
      <defs>
       <path id="DejaVuSans-39" d="M 703 97 
L 703 672 
Q 941 559 1184 500 
Q 1428 441 1663 441 
Q 2288 441 2617 861 
Q 2947 1281 2994 2138 
Q 2813 1869 2534 1725 
Q 2256 1581 1919 1581 
Q 1219 1581 811 2004 
Q 403 2428 403 3163 
Q 403 3881 828 4315 
Q 1253 4750 1959 4750 
Q 2769 4750 3195 4129 
Q 3622 3509 3622 2328 
Q 3622 1225 3098 567 
Q 2575 -91 1691 -91 
Q 1453 -91 1209 -44 
Q 966 3 703 97 
z
M 1959 2075 
Q 2384 2075 2632 2365 
Q 2881 2656 2881 3163 
Q 2881 3666 2632 3958 
Q 2384 4250 1959 4250 
Q 1534 4250 1286 3958 
Q 1038 3666 1038 3163 
Q 1038 2656 1286 2365 
Q 1534 2075 1959 2075 
z
" transform="scale(0.015625)"/>
      </defs>
      <use xlink:href="#DejaVuSans-2d"/>
      <use xlink:href="#DejaVuSans-31" transform="translate(36.083984 0)"/>
      <use xlink:href="#DejaVuSans-33" transform="translate(99.707031 0)"/>
      <use xlink:href="#DejaVuSans-2e" transform="translate(163.330078 0)"/>
      <use xlink:href="#DejaVuSans-31" transform="translate(195.117188 0)"/>
      <use xlink:href="#DejaVuSans-35" transform="translate(258.740234 0)"/>
      <use xlink:href="#DejaVuSans-35" transform="translate(322.363281 0)"/>
      <use xlink:href="#DejaVuSans-39" transform="translate(385.986328 0)"/>
     </g>
    </g>
   </g>
   <g id="text_25">
    <g clip-path="url(#pf97ae2f1c0)">
     <!-- -13.1559 -->
     <g style="fill: #ff0000; opacity: 0.996094" transform="translate(281.296179 187.845259) rotate(-53.602231) scale(0.08 -0.08)">
      <use xlink:href="#DejaVuSans-2d"/>
      <use xlink:href="#DejaVuSans-31" transform="translate(36.083984 0)"/>
      <use xlink:href="#DejaVuSans-33" transform="translate(99.707031 0)"/>
      <use xlink:href="#DejaVuSans-2e" transform="translate(163.330078 0)"/>
      <use xlink:href="#DejaVuSans-31" transform="translate(195.117188 0)"/>
      <use xlink:href="#DejaVuSans-35" transform="translate(258.740234 0)"/>
      <use xlink:href="#DejaVuSans-35" transform="translate(322.363281 0)"/>
      <use xlink:href="#DejaVuSans-39" transform="translate(385.986328 0)"/>
     </g>
    </g>
   </g>
   <g id="text_26">
    <g clip-path="url(#pf97ae2f1c0)">
     <!-- -13.0795 -->
     <g style="fill: #ff0000; opacity: 0.996094" transform="translate(82.230451 291.279601) rotate(-355.307216) scale(0.08 -0.08)">
      <use xlink:href="#DejaVuSans-2d"/>
      <use xlink:href="#DejaVuSans-31" transform="translate(36.083984 0)"/>
      <use xlink:href="#DejaVuSans-33" transform="translate(99.707031 0)"/>
      <use xlink:href="#DejaVuSans-2e" transform="translate(163.330078 0)"/>
      <use xlink:href="#DejaVuSans-30" transform="translate(195.117188 0)"/>
      <use xlink:href="#DejaVuSans-37" transform="translate(258.740234 0)"/>
      <use xlink:href="#DejaVuSans-39" transform="translate(322.363281 0)"/>
      <use xlink:href="#DejaVuSans-35" transform="translate(385.986328 0)"/>
     </g>
    </g>
   </g>
   <g id="text_27">
    <g clip-path="url(#pf97ae2f1c0)">
     <!-- -13.0795 -->
     <g style="fill: #ff0000; opacity: 0.996094" transform="translate(130.978668 149.922592) rotate(-310.410805) scale(0.08 -0.08)">
      <use xlink:href="#DejaVuSans-2d"/>
      <use xlink:href="#DejaVuSans-31" transform="translate(36.083984 0)"/>
      <use xlink:href="#DejaVuSans-33" transform="translate(99.707031 0)"/>
      <use xlink:href="#DejaVuSans-2e" transform="translate(163.330078 0)"/>
      <use xlink:href="#DejaVuSans-30" transform="translate(195.117188 0)"/>
      <use xlink:href="#DejaVuSans-37" transform="translate(258.740234 0)"/>
      <use xlink:href="#DejaVuSans-39" transform="translate(322.363281 0)"/>
      <use xlink:href="#DejaVuSans-35" transform="translate(385.986328 0)"/>
     </g>
    </g>
   </g>
   <g id="text_28">
    <g clip-path="url(#pf97ae2f1c0)">
     <!-- -13.0552 -->
     <g style="fill: #ff0000; opacity: 0.996094" transform="translate(82.230451 291.279601) rotate(-355.307216) scale(0.08 -0.08)">
      <use xlink:href="#DejaVuSans-2d"/>
      <use xlink:href="#DejaVuSans-31" transform="translate(36.083984 0)"/>
      <use xlink:href="#DejaVuSans-33" transform="translate(99.707031 0)"/>
      <use xlink:href="#DejaVuSans-2e" transform="translate(163.330078 0)"/>
      <use xlink:href="#DejaVuSans-30" transform="translate(195.117188 0)"/>
      <use xlink:href="#DejaVuSans-35" transform="translate(258.740234 0)"/>
      <use xlink:href="#DejaVuSans-35" transform="translate(322.363281 0)"/>
      <use xlink:href="#DejaVuSans-32" transform="translate(385.986328 0)"/>
     </g>
    </g>
   </g>
   <g id="text_29">
    <g clip-path="url(#pf97ae2f1c0)">
     <!-- -13.0552 -->
     <g style="fill: #ff0000; opacity: 0.996094" transform="translate(230.930713 150.103198) rotate(-291.129668) scale(0.08 -0.08)">
      <use xlink:href="#DejaVuSans-2d"/>
      <use xlink:href="#DejaVuSans-31" transform="translate(36.083984 0)"/>
      <use xlink:href="#DejaVuSans-33" transform="translate(99.707031 0)"/>
      <use xlink:href="#DejaVuSans-2e" transform="translate(163.330078 0)"/>
      <use xlink:href="#DejaVuSans-30" transform="translate(195.117188 0)"/>
      <use xlink:href="#DejaVuSans-35" transform="translate(258.740234 0)"/>
      <use xlink:href="#DejaVuSans-35" transform="translate(322.363281 0)"/>
      <use xlink:href="#DejaVuSans-32" transform="translate(385.986328 0)"/>
     </g>
    </g>
   </g>
   <g id="patch_3">
    <path d="M 57.6 307.584 
L 57.6 41.472 
" style="fill: none; stroke: #000000; stroke-width: 0.8; stroke-linejoin: miter; stroke-linecap: square"/>
   </g>
   <g id="patch_4">
    <path d="M 414.72 307.584 
L 414.72 41.472 
" style="fill: none; stroke: #000000; stroke-width: 0.8; stroke-linejoin: miter; stroke-linecap: square"/>
   </g>
   <g id="patch_5">
    <path d="M 57.6 307.584 
L 414.72 307.584 
" style="fill: none; stroke: #000000; stroke-width: 0.8; stroke-linejoin: miter; stroke-linecap: square"/>
   </g>
   <g id="patch_6">
    <path d="M 57.6 41.472 
L 414.72 41.472 
" style="fill: none; stroke: #000000; stroke-width: 0.8; stroke-linejoin: miter; stroke-linecap: square"/>
   </g>
  </g>
  <g id="text_30">
   <!-- Log-Likelihood -->
   <g transform="translate(187.270313 16.030125) scale(0.12 -0.12)">
    <defs>
     <path id="DejaVuSans-4c" d="M 628 4666 
L 1259 4666 
L 1259 531 
L 3531 531 
L 3531 0 
L 628 0 
L 628 4666 
z
" transform="scale(0.015625)"/>
     <path id="DejaVuSans-6f" d="M 1959 3097 
Q 1497 3097 1228 2736 
Q 959 2375 959 1747 
Q 959 1119 1226 758 
Q 1494 397 1959 397 
Q 2419 397 2687 759 
Q 2956 1122 2956 1747 
Q 2956 2369 2687 2733 
Q 2419 3097 1959 3097 
z
M 1959 3584 
Q 2709 3584 3137 3096 
Q 3566 2609 3566 1747 
Q 3566 888 3137 398 
Q 2709 -91 1959 -91 
Q 1206 -91 779 398 
Q 353 888 353 1747 
Q 353 2609 779 3096 
Q 1206 3584 1959 3584 
z
" transform="scale(0.015625)"/>
     <path id="DejaVuSans-67" d="M 2906 1791 
Q 2906 2416 2648 2759 
Q 2391 3103 1925 3103 
Q 1463 3103 1205 2759 
Q 947 2416 947 1791 
Q 947 1169 1205 825 
Q 1463 481 1925 481 
Q 2391 481 2648 825 
Q 2906 1169 2906 1791 
z
M 3481 434 
Q 3481 -459 3084 -895 
Q 2688 -1331 1869 -1331 
Q 1566 -1331 1297 -1286 
Q 1028 -1241 775 -1147 
L 775 -588 
Q 1028 -725 1275 -790 
Q 1522 -856 1778 -856 
Q 2344 -856 2625 -561 
Q 2906 -266 2906 331 
L 2906 616 
Q 2728 306 2450 153 
Q 2172 0 1784 0 
Q 1141 0 747 490 
Q 353 981 353 1791 
Q 353 2603 747 3093 
Q 1141 3584 1784 3584 
Q 2172 3584 2450 3431 
Q 2728 3278 2906 2969 
L 2906 3500 
L 3481 3500 
L 3481 434 
z
" transform="scale(0.015625)"/>
     <path id="DejaVuSans-69" d="M 603 3500 
L 1178 3500 
L 1178 0 
L 603 0 
L 603 3500 
z
M 603 4863 
L 1178 4863 
L 1178 4134 
L 603 4134 
L 603 4863 
z
" transform="scale(0.015625)"/>
     <path id="DejaVuSans-6b" d="M 581 4863 
L 1159 4863 
L 1159 1991 
L 2875 3500 
L 3609 3500 
L 1753 1863 
L 3688 0 
L 2938 0 
L 1159 1709 
L 1159 0 
L 581 0 
L 581 4863 
z
" transform="scale(0.015625)"/>
     <path id="DejaVuSans-65" d="M 3597 1894 
L 3597 1613 
L 953 1613 
Q 991 1019 1311 708 
Q 1631 397 2203 397 
Q 2534 397 2845 478 
Q 3156 559 3463 722 
L 3463 178 
Q 3153 47 2828 -22 
Q 2503 -91 2169 -91 
Q 1331 -91 842 396 
Q 353 884 353 1716 
Q 353 2575 817 3079 
Q 1281 3584 2069 3584 
Q 2775 3584 3186 3129 
Q 3597 2675 3597 1894 
z
M 3022 2063 
Q 3016 2534 2758 2815 
Q 2500 3097 2075 3097 
Q 1594 3097 1305 2825 
Q 1016 2553 972 2059 
L 3022 2063 
z
" transform="scale(0.015625)"/>
     <path id="DejaVuSans-6c" d="M 603 4863 
L 1178 4863 
L 1178 0 
L 603 0 
L 603 4863 
z
" transform="scale(0.015625)"/>
     <path id="DejaVuSans-68" d="M 3513 2113 
L 3513 0 
L 2938 0 
L 2938 2094 
Q 2938 2591 2744 2837 
Q 2550 3084 2163 3084 
Q 1697 3084 1428 2787 
Q 1159 2491 1159 1978 
L 1159 0 
L 581 0 
L 581 4863 
L 1159 4863 
L 1159 2956 
Q 1366 3272 1645 3428 
Q 1925 3584 2291 3584 
Q 2894 3584 3203 3211 
Q 3513 2838 3513 2113 
z
" transform="scale(0.015625)"/>
     <path id="DejaVuSans-64" d="M 2906 2969 
L 2906 4863 
L 3481 4863 
L 3481 0 
L 2906 0 
L 2906 525 
Q 2725 213 2448 61 
Q 2172 -91 1784 -91 
Q 1150 -91 751 415 
Q 353 922 353 1747 
Q 353 2572 751 3078 
Q 1150 3584 1784 3584 
Q 2172 3584 2448 3432 
Q 2725 3281 2906 2969 
z
M 947 1747 
Q 947 1113 1208 752 
Q 1469 391 1925 391 
Q 2381 391 2643 752 
Q 2906 1113 2906 1747 
Q 2906 2381 2643 2742 
Q 2381 3103 1925 3103 
Q 1469 3103 1208 2742 
Q 947 2381 947 1747 
z
" transform="scale(0.015625)"/>
    </defs>
    <use xlink:href="#DejaVuSans-4c"/>
    <use xlink:href="#DejaVuSans-6f" transform="translate(53.962891 0)"/>
    <use xlink:href="#DejaVuSans-67" transform="translate(115.144531 0)"/>
    <use xlink:href="#DejaVuSans-2d" transform="translate(178.621094 0)"/>
    <use xlink:href="#DejaVuSans-4c" transform="translate(214.705078 0)"/>
    <use xlink:href="#DejaVuSans-69" transform="translate(270.417969 0)"/>
    <use xlink:href="#DejaVuSans-6b" transform="translate(298.201172 0)"/>
    <use xlink:href="#DejaVuSans-65" transform="translate(352.486328 0)"/>
    <use xlink:href="#DejaVuSans-6c" transform="translate(414.009766 0)"/>
    <use xlink:href="#DejaVuSans-69" transform="translate(441.792969 0)"/>
    <use xlink:href="#DejaVuSans-68" transform="translate(469.576172 0)"/>
    <use xlink:href="#DejaVuSans-6f" transform="translate(532.955078 0)"/>
    <use xlink:href="#DejaVuSans-6f" transform="translate(594.136719 0)"/>
    <use xlink:href="#DejaVuSans-64" transform="translate(655.318359 0)"/>
   </g>
  </g>
 </g>
 <defs>
  <clipPath id="pf97ae2f1c0">
   <rect x="57.6" y="41.472" width="357.12" height="266.112"/>
  </clipPath>
 </defs>
</svg>
