<?xml version="1.0" encoding="utf-8" standalone="no"?>
<!DOCTYPE svg PUBLIC "-//W3C//DTD SVG 1.1//EN"
  "http://www.w3.org/Graphics/SVG/1.1/DTD/svg11.dtd">
<svg xmlns:xlink="http://www.w3.org/1999/xlink" width="720pt" height="288pt" viewBox="0 0 720 288" xmlns="http://www.w3.org/2000/svg" version="1.1">
 <metadata>
  <rdf:RDF xmlns:dc="http://purl.org/dc/elements/1.1/" xmlns:cc="http://creativecommons.org/ns#" xmlns:rdf="http://www.w3.org/1999/02/22-rdf-syntax-ns#">
   <cc:Work>
    <dc:type rdf:resource="http://purl.org/dc/dcmitype/StillImage"/>
    <dc:date>2022-01-01T00:00:00+00:00</dc:date>
    <dc:format>image/svg+xml</dc:format>
    <dc:creator>
     <cc:Agent>
      <dc:title>Matplotlib v3.10.9, https://matplotlib.org/</dc:title>
     </cc:Agent>
    </dc:creator>
   </cc:Work>
  </rdf:RDF>
 </metadata>
 <defs>
  <style type="text/css">*{stroke-linejoin: round; stroke-linecap: butt}</style>
 </defs>
 <g id="figure_1">
  <g id="patch_1">
   <path d="M 0 288 
L 720 288 
L 720 0 
L 0 0 
z
" style="fill: #ffffff"/>
  </g>
  <g id="axes_1">
   <g id="patch_2">
    <path d="M 90 256.32 
L 254.117647 256.32 
L 254.117647 34.56 
L 90 34.56 
z
" style="fill: #ffffff"/>
   </g>
   <g id="matplotlib.axis_1">
    <g id="xtick_1">
     <g id="line2d_1">
      <path d="M 96.93345 256.32 
L 96.93345 34.56 
" clip-path="url(#pf054c2f544)" style="fill: none; stroke: #b0b0b0; stroke-width: 0.8; stroke-linecap: square"/>
     </g>
     <g id="line2d_2">
      <defs>
       <path id="m4a92d99fee" d="M 0 0 
L 0 3.5 
" style="stroke: #000000; stroke-width: 0.8"/>
      </defs>
      <g>
       <use xlink:href="#m4a92d99fee" x="96.93345" y="256.32" style="stroke: #000000; stroke-width: 0.8"/>
      </g>
     </g>
     <g id="text_1">
      <!-- −4 -->
      <g transform="translate(89.562356 270.918437) scale(0.1 -0.1)">
       <defs>
        <path id="DejaVuSans-2212" d="M 678 2272 
L 4684 2272 
L 4684 1741 
L 678 1741 
L 678 2272 
z
" transform="scale(0.015625)"/>
        <path id="DejaVuSans-34" d="M 2419 4116 
L 825 1625 
L 2419 1625 
L 2419 4116 
z
M 2253 4666 
L 3047 4666 
L 3047 1625 
L 3713 1625 
L 3713 1100 
L 3047 1100 
L 3047 0 
L 2419 0 
L 2419 1100 
L 313 1100 
L 313 1709 
L 2253 4666 
z
" transform="scale(0.015625)"/>
       </defs>
       <use xlink:href="#DejaVuSans-2212"/>
       <use xlink:href="#DejaVuSans-34" transform="translate(83.789062 0)"/>
      </g>
     </g>
    </g>
    <g id="xtick_2">
     <g id="line2d_3">
      <path d="M 131.383687 256.32 
L 131.383687 34.56 
" clip-path="url(#pf054c2f544)" style="fill: none; stroke: #b0b0b0; stroke-width: 0.8; stroke-linecap: square"/>
     </g>
     <g id="line2d_4">
      <g>
       <use xlink:href="#m4a92d99fee" x="131.383687" y="256.32" style="stroke: #000000; stroke-width: 0.8"/>
      </g>
     </g>
     <g id="text_2">
      <!-- −2 -->
      <g transform="translate(124.012593 270.918437) scale(0.1 -0.1)">
       <defs>
        <path id="DejaVuSans-32" d="M 1228 531 
L 3431 531 
L 3431 0 
L 469 0 
L 469 531 
Q 828 903 1448 1529 
Q 2069 2156 2228 2338 
Q 2531 2678 2651 2914 
Q 2772 3150 2772 3378 
Q 2772 3750 2511 3984 
Q 2250 4219 1831 4219 
Q 1534 4219 1204 4116 
Q 875 4013 500 3803 
L 500 4441 
Q 881 4594 1212 4672 
Q 1544 4750 1819 4750 
Q 2544 4750 2975 4387 
Q 3406 4025 3406 3419 
Q 3406 3131 3298 2873 
Q 3191 2616 2906 2266 
Q 2828 2175 2409 1742 
Q 1991 1309 1228 531 
z
" transform="scale(0.015625)"/>
       </defs>
       <use xlink:href="#DejaVuSans-2212"/>
       <use xlink:href="#DejaVuSans-32" transform="translate(83.789062 0)"/>
      </g>
     </g>
    </g>
    <g id="xtick_3">
     <g id="line2d_5">
      <path d="M 165.833924 256.32 
L 165.833924 34.56 
" clip-path="url(#pf054c2f544)" style="fill: none; stroke: #b0b0b0; stroke-width: 0.8; stroke-linecap: square"/>
     </g>
     <g id="line2d_6">
      <g>
       <use xlink:href="#m4a92d99fee" x="165.833924" y="256.32" style="stroke: #000000; stroke-width: 0.8"/>
      </g>
     </g>
     <g id="text_3">
      <!-- 0 -->
      <g transform="translate(162.652674 270.918437) scale(0.1 -0.1)">
       <defs>
        <path id="DejaVuSans-30" d="M 2034 4250 
Q 1547 4250 1301 3770 
Q 1056 3291 1056 2328 
Q 1056 1369 1301 889 
Q 1547 409 2034 409 
Q 2525 409 2770 889 
Q 3016 1369 3016 2328 
Q 3016 3291 2770 3770 
Q 2525 4250 2034 4250 
z
M 2034 4750 
Q 2819 4750 3233 4129 
Q 3647 3509 3647 2328 
Q 3647 1150 3233 529 
Q 2819 -91 2034 -91 
Q 1250 -91 836 529 
Q 422 1150 422 2328 
Q 422 3509 836 4129 
Q 1250 4750 2034 4750 
z
" transform="scale(0.015625)"/>
       </defs>
       <use xlink:href="#DejaVuSans-30"/>
      </g>
     </g>
    </g>
    <g id="xtick_4">
     <g id="line2d_7">
      <path d="M 200.284161 256.32 
L 200.284161 34.56 
" clip-path="url(#pf054c2f544)" style="fill: none; stroke: #b0b0b0; stroke-width: 0.8; stroke-linecap: square"/>
     </g>
     <g id="line2d_8">
      <g>
       <use xlink:href="#m4a92d99fee" x="200.284161" y="256.32" style="stroke: #000000; stroke-width: 0.8"/>
      </g>
     </g>
     <g id="text_4">
      <!-- 2 -->
      <g transform="translate(197.102911 270.918437) scale(0.1 -0.1)">
       <use xlink:href="#DejaVuSans-32"/>
      </g>
     </g>
    </g>
    <g id="xtick_5">
     <g id="line2d_9">
      <path d="M 234.734398 256.32 
L 234.734398 34.56 
" clip-path="url(#pf054c2f544)" style="fill: none; stroke: #b0b0b0; stroke-width: 0.8; stroke-linecap: square"/>
     </g>
     <g id="line2d_10">
      <g>
       <use xlink:href="#m4a92d99fee" x="234.734398" y="256.32" style="stroke: #000000; stroke-width: 0.8"/>
      </g>
     </g>
     <g id="text_5">
      <!-- 4 -->
      <g transform="translate(231.553148 270.918437) scale(0.1 -0.1)">
       <use xlink:href="#DejaVuSans-34"/>
      </g>
     </g>
    </g>
    <g id="text_6">
     <!-- X -->
     <g transform="translate(168.633824 284.596563) scale(0.1 -0.1)">
      <defs>
       <path id="DejaVuSans-58" d="M 403 4666 
L 1081 4666 
L 2241 2931 
L 3406 4666 
L 4084 4666 
L 2584 2425 
L 4184 0 
L 3506 0 
L 2194 1984 
L 872 0 
L 191 0 
L 1856 2491 
L 403 4666 
z
" transform="scale(0.015625)"/>
      </defs>
      <use xlink:href="#DejaVuSans-58"/>
     </g>
    </g>
   </g>
   <g id="matplotlib.axis_2">
    <g id="ytick_1">
     <g id="line2d_11">
      <path d="M 90 246.24 
L 254.117647 246.24 
" clip-path="url(#pf054c2f544)" style="fill: none; stroke: #b0b0b0; stroke-width: 0.8; stroke-linecap: square"/>
     </g>
     <g id="line2d_12">
      <defs>
       <path id="mb3cb5c074b" d="M 0 0 
L -3.5 0 
" style="stroke: #000000; stroke-width: 0.8"/>
      </defs>
      <g>
       <use xlink:href="#mb3cb5c074b" x="90" y="246.24" style="stroke: #000000; stroke-width: 0.8"/>
      </g>
     </g>
     <g id="text_7">
      <!-- 0.0 -->
      <g transform="translate(67.096875 250.039219) scale(0.1 -0.1)">
       <defs>
        <path id="DejaVuSans-2e" d="M 684 794 
L 1344 794 
L 1344 0 
L 684 0 
L 684 794 
z
" transform="scale(0.015625)"/>
       </defs>
       <use xlink:href="#DejaVuSans-30"/>
       <use xlink:href="#DejaVuSans-2e" transform="translate(63.623047 0)"/>
       <use xlink:href="#DejaVuSans-30" transform="translate(95.410156 0)"/>
      </g>
     </g>
    </g>
    <g id="ytick_2">
     <g id="line2d_13">
      <path d="M 90 202.033585 
L 254.117647 202.033585 
" clip-path="url(#pf054c2f544)" style="fill: none; stroke: #b0b0b0; stroke-width: 0.8; stroke-linecap: square"/>
     </g>
     <g id="line2d_14">
      <g>
       <use xlink:href="#mb3cb5c074b" x="90" y="202.033585" style="stroke: #000000; stroke-width: 0.8"/>
      </g>
     </g>
     <g id="text_8">
      <!-- 0.1 -->
      <g transform="translate(67.096875 205.832804) scale(0.1 -0.1)">
       <defs>
        <path id="DejaVuSans-31" d="M 794 531 
L 1825 531 
L 1825 4091 
L 703 3866 
L 703 4441 
L 1819 4666 
L 2450 4666 
L 2450 531 
L 3481 531 
L 3481 0 
L 794 0 
L 794 531 
z
" transform="scale(0.015625)"/>
       </defs>
       <use xlink:href="#DejaVuSans-30"/>
       <use xlink:href="#DejaVuSans-2e" transform="translate(63.623047 0)"/>
       <use xlink:href="#DejaVuSans-31" transform="translate(95.410156 0)"/>
      </g>
     </g>
    </g>
    <g id="ytick_3">
     <g id="line2d_15">
      <path d="M 90 157.82717 
L 254.117647 157.82717 
" clip-path="url(#pf054c2f544)" style="fill: none; stroke: #b0b0b0; stroke-width: 0.8; stroke-linecap: square"/>
     </g>
     <g id="line2d_16">
      <g>
       <use xlink:href="#mb3cb5c074b" x="90" y="157.82717" style="stroke: #000000; stroke-width: 0.8"/>
      </g>
     </g>
     <g id="text_9">
      <!-- 0.2 -->
      <g transform="translate(67.096875 161.626389) scale(0.1 -0.1)">
       <use xlink:href="#DejaVuSans-30"/>
       <use xlink:href="#DejaVuSans-2e" transform="translate(63.623047 0)"/>
       <use xlink:href="#DejaVuSans-32" transform="translate(95.410156 0)"/>
      </g>
     </g>
    </g>
    <g id="ytick_4">
     <g id="line2d_17">
      <path d="M 90 113.620755 
L 254.117647 113.620755 
" clip-path="url(#pf054c2f544)" style="fill: none; stroke: #b0b0b0; stroke-width: 0.8; stroke-linecap: square"/>
     </g>
     <g id="line2d_18">
      <g>
       <use xlink:href="#mb3cb5c074b" x="90" y="113.620755" style="stroke: #000000; stroke-width: 0.8"/>
      </g>
     </g>
     <g id="text_10">
      <!-- 0.3 -->
      <g transform="translate(67.096875 117.419974) scale(0.1 -0.1)">
       <defs>
        <path id="DejaVuSans-33" d="M 2597 2516 
Q 3050 2419 3304 2112 
Q 3559 1806 3559 1356 
Q 3559 666 3084 287 
Q 2609 -91 1734 -91 
Q 1441 -91 1130 -33 
Q 819 25 488 141 
L 488 750 
Q 750 597 1062 519 
Q 1375 441 1716 441 
Q 2309 441 2620 675 
Q 2931 909 2931 1356 
Q 2931 1769 2642 2001 
Q 2353 2234 1838 2234 
L 1294 2234 
L 1294 2753 
L 1863 2753 
Q 2328 2753 2575 2939 
Q 2822 3125 2822 3475 
Q 2822 3834 2567 4026 
Q 2313 4219 1838 4219 
Q 1578 4219 1281 4162 
Q 984 4106 628 3988 
L 628 4550 
Q 988 4650 1302 4700 
Q 1616 4750 1894 4750 
Q 2613 4750 3031 4423 
Q 3450 4097 3450 3541 
Q 3450 3153 3228 2886 
Q 3006 2619 2597 2516 
z
" transform="scale(0.015625)"/>
       </defs>
       <use xlink:href="#DejaVuSans-30"/>
       <use xlink:href="#DejaVuSans-2e" transform="translate(63.623047 0)"/>
       <use xlink:href="#DejaVuSans-33" transform="translate(95.410156 0)"/>
      </g>
     </g>
    </g>
    <g id="ytick_5">
     <g id="line2d_19">
      <path d="M 90 69.41434 
L 254.117647 69.41434 
" clip-path="url(#pf054c2f544)" style="fill: none; stroke: #b0b0b0; stroke-width: 0.8; stroke-linecap: square"/>
     </g>
     <g id="line2d_20">
      <g>
       <use xlink:href="#mb3cb5c074b" x="90" y="69.41434" style="stroke: #000000; stroke-width: 0.8"/>
      </g>
     </g>
     <g id="text_11">
      <!-- 0.4 -->
      <g transform="translate(67.096875 73.213559) scale(0.1 -0.1)">
       <use xlink:href="#DejaVuSans-30"/>
       <use xlink:href="#DejaVuSans-2e" transform="translate(63.623047 0)"/>
       <use xlink:href="#DejaVuSans-34" transform="translate(95.410156 0)"/>
      </g>
     </g>
    </g>
    <g id="text_12">
     <!-- PDF -->
     <g transform="translate(61.017187 155.180625) rotate(-90) scale(0.1 -0.1)">
      <defs>
       <path id="DejaVuSans-50" d="M 1259 4147 
L 1259 2394 
L 2053 2394 
Q 2494 2394 2734 2622 
Q 2975 2850 2975 3272 
Q 2975 3691 2734 3919 
Q 2494 4147 2053 4147 
L 1259 4147 
z
M 628 4666 
L 2053 4666 
Q 2838 4666 3239 4311 
Q 3641 3956 3641 3272 
Q 3641 2581 3239 2228 
Q 2838 1875 2053 1875 
L 1259 1875 
L 1259 0 
L 628 0 
L 628 4666 
z
" transform="scale(0.015625)"/>
       <path id="DejaVuSans-44" d="M 1259 4147 
L 1259 519 
L 2022 519 
Q 2988 519 3436 956 
Q 3884 1394 3884 2338 
Q 3884 3275 3436 3711 
Q 2988 4147 2022 4147 
L 1259 4147 
z
M 628 4666 
L 1925 4666 
Q 3281 4666 3915 4102 
Q 4550 3538 4550 2338 
Q 4550 1131 3912 565 
Q 3275 0 1925 0 
L 628 0 
L 628 4666 
z
" transform="scale(0.015625)"/>
       <path id="DejaVuSans-46" d="M 628 4666 
L 3309 4666 
L 3309 4134 
L 1259 4134 
L 1259 2759 
L 3109 2759 
L 3109 2228 
L 1259 2228 
L 1259 0 
L 628 0 
L 628 4666 
z
" transform="scale(0.015625)"/>
      </defs>
      <use xlink:href="#DejaVuSans-50"/>
      <use xlink:href="#DejaVuSans-44" transform="translate(60.302734 0)"/>
      <use xlink:href="#DejaVuSans-46" transform="translate(137.304688 0)"/>
     </g>
    </g>
   </g>
   <g id="line2d_21">
    <path d="M 99.493795 246.24 
L 109.736574 246.217965 
L 110.87466 245.609524 
L 112.012747 242.78097 
L 113.150833 240.960322 
L 114.28892 242.860612 
L 115.427006 245.495494 
L 116.565093 244.311521 
L 118.841266 234.794426 
L 121.117439 245.223631 
L 122.255525 243.559073 
L 123.393612 242.555326 
L 124.531698 242.356769 
L 125.669785 241.145265 
L 126.807871 238.012079 
L 127.945958 235.446606 
L 129.084044 232.582262 
L 130.222131 233.735312 
L 131.360217 231.510039 
L 133.63639 218.160109 
L 134.774477 222.803758 
L 135.912564 225.335296 
L 137.05065 226.083444 
L 138.188737 222.702289 
L 139.326823 217.288754 
L 140.46491 209.994304 
L 141.602996 203.828638 
L 142.741083 193.284789 
L 143.879169 175.118682 
L 145.017256 172.561939 
L 146.155342 182.281521 
L 147.293429 184.68272 
L 148.431515 181.987986 
L 149.569602 163.073144 
L 150.707688 149.986717 
L 151.845775 139.483408 
L 152.983861 133.030824 
L 154.121948 142.628047 
L 155.260034 141.594193 
L 157.536207 103.783791 
L 158.674294 108.305693 
L 159.81238 127.125195 
L 160.950467 127.801171 
L 162.088553 123.336395 
L 163.22664 105.67365 
L 164.364726 109.271743 
L 165.502813 108.684261 
L 166.640899 115.617476 
L 167.778986 135.493236 
L 168.917072 129.687034 
L 170.055159 99.886709 
L 171.193246 95.30085 
L 172.331332 87.373208 
L 173.469419 104.819785 
L 174.607505 128.065758 
L 175.745592 126.337635 
L 176.883678 129.036034 
L 178.021765 126.145896 
L 179.159851 144.766579 
L 180.297938 146.72749 
L 181.436024 134.642094 
L 182.574111 141.711854 
L 183.712197 129.628497 
L 184.850284 129.599016 
L 185.98837 116.939675 
L 187.126457 92.74121 
L 188.264543 73.646866 
L 189.40263 57.758066 
L 190.540716 44.64 
L 191.678803 62.158083 
L 192.816889 104.941911 
L 193.954976 101.290687 
L 195.093062 80.40787 
L 196.231149 120.570698 
L 197.369235 169.299946 
L 198.507322 174.549954 
L 199.645408 183.55193 
L 200.783495 196.60182 
L 201.921581 198.976774 
L 203.059668 208.154998 
L 205.335841 230.251246 
L 206.473928 230.184878 
L 207.612014 227.820861 
L 208.750101 230.388715 
L 209.888187 236.018893 
L 211.026274 238.377191 
L 212.16436 243.468437 
L 213.302447 245.995304 
L 214.440533 246.233281 
L 215.57862 246.082758 
L 217.854793 242.751588 
L 218.992879 245.042846 
L 220.130966 246.168333 
L 222.407139 246.239999 
L 245.168869 246.24 
L 245.168869 246.24 
" clip-path="url(#pf054c2f544)" style="fill: none; stroke: #1f77b4; stroke-width: 2; stroke-linecap: square"/>
   </g>
   <g id="line2d_22">
    <path d="M 97.459893 246.189882 
L 104.453543 246.008727 
L 109.115976 245.655065 
L 112.612801 245.121945 
L 114.944017 244.556976 
L 117.275234 243.752503 
L 119.606451 242.630224 
L 121.937667 241.096684 
L 123.103275 240.142643 
L 124.268884 239.044659 
L 125.434492 237.787748 
L 126.6001 236.356634 
L 127.765709 234.736008 
L 128.931317 232.910814 
L 130.096925 230.866598 
L 131.262533 228.58988 
L 133.59375 223.292415 
L 135.924967 216.946479 
L 138.256183 209.524331 
L 140.5874 201.056842 
L 142.918616 191.645738 
L 146.415441 176.177195 
L 153.409091 144.269588 
L 155.740307 134.83784 
L 158.071524 126.742632 
L 159.237132 123.3242 
L 160.402741 120.385579 
L 161.568349 117.965372 
L 162.733957 116.09577 
L 163.899566 114.801736 
L 165.065174 114.100225 
L 166.230782 113.999325 
L 167.39639 114.497102 
L 168.561999 115.579802 
L 169.727607 117.218854 
L 170.893215 119.365953 
L 172.058824 121.945495 
L 176.721257 133.461756 
L 177.886865 135.282801 
L 179.052473 135.889268 
L 180.218082 134.820142 
L 181.38369 131.672634 
L 182.549298 126.202218 
L 183.714906 118.432769 
L 184.880515 108.750022 
L 187.211731 87.183311 
L 188.37734 77.872395 
L 189.542948 71.46233 
L 190.708556 69.194016 
L 191.874164 71.866156 
L 193.039773 79.675652 
L 194.205381 92.174953 
L 195.370989 108.358042 
L 200.033422 182.007909 
L 201.199031 196.780167 
L 202.364639 208.931353 
L 203.530247 218.502739 
L 204.695856 225.765209 
L 205.861464 231.110633 
L 207.027072 234.960283 
L 208.19268 237.701867 
L 209.358289 239.65626 
L 210.523897 241.068192 
L 211.689505 242.11237 
L 212.855114 242.907054 
L 215.18633 244.027684 
L 217.517547 244.767478 
L 219.848763 245.270562 
L 223.345588 245.737911 
L 228.008021 246.043956 
L 235.001671 246.198304 
L 246.657754 246.237809 
L 246.657754 246.237809 
" clip-path="url(#pf054c2f544)" style="fill: none; stroke-dasharray: 7.4,3.2; stroke-dashoffset: 0; stroke: #ff7f0e; stroke-width: 2"/>
   </g>
   <g id="patch_3">
    <path d="M 90 256.32 
L 90 34.56 
" style="fill: none; stroke: #000000; stroke-width: 0.8; stroke-linejoin: miter; stroke-linecap: square"/>
   </g>
   <g id="patch_4">
    <path d="M 90 256.32 
L 254.117647 256.32 
" style="fill: none; stroke: #000000; stroke-width: 0.8; stroke-linejoin: miter; stroke-linecap: square"/>
   </g>
   <g id="text_13">
    <!-- h=0.0500 -->
    <g transform="translate(142.234136 28.56) scale(0.12 -0.12)">
     <defs>
      <path id="DejaVuSans-68" d="M 3513 2113 
L 3513 0 
L 2938 0 
L 2938 2094 
Q 2938 2591 2744 2837 
Q 2550 3084 2163 3084 
Q 1697 3084 1428 2787 
Q 1159 2491 1159 1978 
L 1159 0 
L 581 0 
L 581 4863 
L 1159 4863 
L 1159 2956 
Q 1366 3272 1645 3428 
Q 1925 3584 2291 3584 
Q 2894 3584 3203 3211 
Q 3513 2838 3513 2113 
z
" transform="scale(0.015625)"/>
      <path id="DejaVuSans-3d" d="M 678 2906 
L 4684 2906 
L 4684 2381 
L 678 2381 
L 678 2906 
z
M 678 1631 
L 4684 1631 
L 4684 1100 
L 678 1100 
L 678 1631 
z
" transform="scale(0.015625)"/>
      <path id="DejaVuSans-35" d="M 691 4666 
L 3169 4666 
L 3169 4134 
L 1269 4134 
L 1269 2991 
Q 1406 3038 1543 3061 
Q 1681 3084 1819 3084 
Q 2600 3084 3056 2656 
Q 3513 2228 3513 1497 
Q 3513 744 3044 326 
Q 2575 -91 1722 -91 
Q 1428 -91 1123 -41 
Q 819 9 494 109 
L 494 744 
Q 775 591 1075 516 
Q 1375 441 1709 441 
Q 2250 441 2565 725 
Q 2881 1009 2881 1497 
Q 2881 1984 2565 2268 
Q 2250 2553 1709 2553 
Q 1456 2553 1204 2497 
Q 953 2441 691 2322 
L 691 4666 
z
" transform="scale(0.015625)"/>
     </defs>
     <use xlink:href="#DejaVuSans-68"/>
     <use xlink:href="#DejaVuSans-3d" transform="translate(63.378906 0)"/>
     <use xlink:href="#DejaVuSans-30" transform="translate(147.167969 0)"/>
     <use xlink:href="#DejaVuSans-2e" transform="translate(210.791016 0)"/>
     <use xlink:href="#DejaVuSans-30" transform="translate(242.578125 0)"/>
     <use xlink:href="#DejaVuSans-35" transform="translate(306.201172 0)"/>
     <use xlink:href="#DejaVuSans-30" transform="translate(369.824219 0)"/>
     <use xlink:href="#DejaVuSans-30" transform="translate(433.447266 0)"/>
    </g>
   </g>
  </g>
  <g id="axes_2">
   <g id="patch_5">
    <path d="M 286.941176 256.32 
L 451.058824 256.32 
L 451.058824 34.56 
L 286.941176 34.56 
z
" style="fill: #ffffff"/>
   </g>
   <g id="matplotlib.axis_3">
    <g id="xtick_6">
     <g id="line2d_23">
      <path d="M 323.068075 256.32 
L 323.068075 34.56 
" clip-path="url(#p01c13a3051)" style="fill: none; stroke: #b0b0b0; stroke-width: 0.8; stroke-linecap: square"/>
     </g>
     <g id="line2d_24">
      <g>
       <use xlink:href="#m4a92d99fee" x="323.068075" y="256.32" style="stroke: #000000; stroke-width: 0.8"/>
      </g>
     </g>
     <g id="text_14">
      <!-- −2.5 -->
      <g transform="translate(310.926669 270.918437) scale(0.1 -0.1)">
       <use xlink:href="#DejaVuSans-2212"/>
       <use xlink:href="#DejaVuSans-32" transform="translate(83.789062 0)"/>
       <use xlink:href="#DejaVuSans-2e" transform="translate(147.412109 0)"/>
       <use xlink:href="#DejaVuSans-35" transform="translate(179.199219 0)"/>
      </g>
     </g>
    </g>
    <g id="xtick_7">
     <g id="line2d_25">
      <path d="M 363.008786 256.32 
L 363.008786 34.56 
" clip-path="url(#p01c13a3051)" style="fill: none; stroke: #b0b0b0; stroke-width: 0.8; stroke-linecap: square"/>
     </g>
     <g id="line2d_26">
      <g>
       <use xlink:href="#m4a92d99fee" x="363.008786" y="256.32" style="stroke: #000000; stroke-width: 0.8"/>
      </g>
     </g>
     <g id="text_15">
      <!-- 0.0 -->
      <g transform="translate(355.057224 270.918437) scale(0.1 -0.1)">
       <use xlink:href="#DejaVuSans-30"/>
       <use xlink:href="#DejaVuSans-2e" transform="translate(63.623047 0)"/>
       <use xlink:href="#DejaVuSans-30" transform="translate(95.410156 0)"/>
      </g>
     </g>
    </g>
    <g id="xtick_8">
     <g id="line2d_27">
      <path d="M 402.949497 256.32 
L 402.949497 34.56 
" clip-path="url(#p01c13a3051)" style="fill: none; stroke: #b0b0b0; stroke-width: 0.8; stroke-linecap: square"/>
     </g>
     <g id="line2d_28">
      <g>
       <use xlink:href="#m4a92d99fee" x="402.949497" y="256.32" style="stroke: #000000; stroke-width: 0.8"/>
      </g>
     </g>
     <g id="text_16">
      <!-- 2.5 -->
      <g transform="translate(394.997934 270.918437) scale(0.1 -0.1)">
       <use xlink:href="#DejaVuSans-32"/>
       <use xlink:href="#DejaVuSans-2e" transform="translate(63.623047 0)"/>
       <use xlink:href="#DejaVuSans-35" transform="translate(95.410156 0)"/>
      </g>
     </g>
    </g>
    <g id="xtick_9">
     <g id="line2d_29">
      <path d="M 442.890207 256.32 
L 442.890207 34.56 
" clip-path="url(#p01c13a3051)" style="fill: none; stroke: #b0b0b0; stroke-width: 0.8; stroke-linecap: square"/>
     </g>
     <g id="line2d_30">
      <g>
       <use xlink:href="#m4a92d99fee" x="442.890207" y="256.32" style="stroke: #000000; stroke-width: 0.8"/>
      </g>
     </g>
     <g id="text_17">
      <!-- 5.0 -->
      <g transform="translate(434.938645 270.918437) scale(0.1 -0.1)">
       <use xlink:href="#DejaVuSans-35"/>
       <use xlink:href="#DejaVuSans-2e" transform="translate(63.623047 0)"/>
       <use xlink:href="#DejaVuSans-30" transform="translate(95.410156 0)"/>
      </g>
     </g>
    </g>
    <g id="text_18">
     <!-- X -->
     <g transform="translate(365.575 284.596563) scale(0.1 -0.1)">
      <use xlink:href="#DejaVuSans-58"/>
     </g>
    </g>
   </g>
   <g id="matplotlib.axis_4">
    <g id="ytick_6">
     <g id="line2d_31">
      <path d="M 286.941176 246.240385 
L 451.058824 246.240385 
" clip-path="url(#p01c13a3051)" style="fill: none; stroke: #b0b0b0; stroke-width: 0.8; stroke-linecap: square"/>
     </g>
     <g id="line2d_32">
      <g>
       <use xlink:href="#mb3cb5c074b" x="286.941176" y="246.240385" style="stroke: #000000; stroke-width: 0.8"/>
      </g>
     </g>
     <g id="text_19">
      <!-- 0.00 -->
      <g transform="translate(257.675551 250.039603) scale(0.1 -0.1)">
       <use xlink:href="#DejaVuSans-30"/>
       <use xlink:href="#DejaVuSans-2e" transform="translate(63.623047 0)"/>
       <use xlink:href="#DejaVuSans-30" transform="translate(95.410156 0)"/>
       <use xlink:href="#DejaVuSans-30" transform="translate(159.033203 0)"/>
      </g>
     </g>
    </g>
    <g id="ytick_7">
     <g id="line2d_33">
      <path d="M 286.941176 221.071697 
L 451.058824 221.071697 
" clip-path="url(#p01c13a3051)" style="fill: none; stroke: #b0b0b0; stroke-width: 0.8; stroke-linecap: square"/>
     </g>
     <g id="line2d_34">
      <g>
       <use xlink:href="#mb3cb5c074b" x="286.941176" y="221.071697" style="stroke: #000000; stroke-width: 0.8"/>
      </g>
     </g>
     <g id="text_20">
      <!-- 0.05 -->
      <g transform="translate(257.675551 224.870915) scale(0.1 -0.1)">
       <use xlink:href="#DejaVuSans-30"/>
       <use xlink:href="#DejaVuSans-2e" transform="translate(63.623047 0)"/>
       <use xlink:href="#DejaVuSans-30" transform="translate(95.410156 0)"/>
       <use xlink:href="#DejaVuSans-35" transform="translate(159.033203 0)"/>
      </g>
     </g>
    </g>
    <g id="ytick_8">
     <g id="line2d_35">
      <path d="M 286.941176 195.903009 
L 451.058824 195.903009 
" clip-path="url(#p01c13a3051)" style="fill: none; stroke: #b0b0b0; stroke-width: 0.8; stroke-linecap: square"/>
     </g>
     <g id="line2d_36">
      <g>
       <use xlink:href="#mb3cb5c074b" x="286.941176" y="195.903009" style="stroke: #000000; stroke-width: 0.8"/>
      </g>
     </g>
     <g id="text_21">
      <!-- 0.10 -->
      <g transform="translate(257.675551 199.702227) scale(0.1 -0.1)">
       <use xlink:href="#DejaVuSans-30"/>
       <use xlink:href="#DejaVuSans-2e" transform="translate(63.623047 0)"/>
       <use xlink:href="#DejaVuSans-31" transform="translate(95.410156 0)"/>
       <use xlink:href="#DejaVuSans-30" transform="translate(159.033203 0)"/>
      </g>
     </g>
    </g>
    <g id="ytick_9">
     <g id="line2d_37">
      <path d="M 286.941176 170.734321 
L 451.058824 170.734321 
" clip-path="url(#p01c13a3051)" style="fill: none; stroke: #b0b0b0; stroke-width: 0.8; stroke-linecap: square"/>
     </g>
     <g id="line2d_38">
      <g>
       <use xlink:href="#mb3cb5c074b" x="286.941176" y="170.734321" style="stroke: #000000; stroke-width: 0.8"/>
      </g>
     </g>
     <g id="text_22">
      <!-- 0.15 -->
      <g transform="translate(257.675551 174.53354) scale(0.1 -0.1)">
       <use xlink:href="#DejaVuSans-30"/>
       <use xlink:href="#DejaVuSans-2e" transform="translate(63.623047 0)"/>
       <use xlink:href="#DejaVuSans-31" transform="translate(95.410156 0)"/>
       <use xlink:href="#DejaVuSans-35" transform="translate(159.033203 0)"/>
      </g>
     </g>
    </g>
    <g id="ytick_10">
     <g id="line2d_39">
      <path d="M 286.941176 145.565633 
L 451.058824 145.565633 
" clip-path="url(#p01c13a3051)" style="fill: none; stroke: #b0b0b0; stroke-width: 0.8; stroke-linecap: square"/>
     </g>
     <g id="line2d_40">
      <g>
       <use xlink:href="#mb3cb5c074b" x="286.941176" y="145.565633" style="stroke: #000000; stroke-width: 0.8"/>
      </g>
     </g>
     <g id="text_23">
      <!-- 0.20 -->
      <g transform="translate(257.675551 149.364852) scale(0.1 -0.1)">
       <use xlink:href="#DejaVuSans-30"/>
       <use xlink:href="#DejaVuSans-2e" transform="translate(63.623047 0)"/>
       <use xlink:href="#DejaVuSans-32" transform="translate(95.410156 0)"/>
       <use xlink:href="#DejaVuSans-30" transform="translate(159.033203 0)"/>
      </g>
     </g>
    </g>
    <g id="ytick_11">
     <g id="line2d_41">
      <path d="M 286.941176 120.396945 
L 451.058824 120.396945 
" clip-path="url(#p01c13a3051)" style="fill: none; stroke: #b0b0b0; stroke-width: 0.8; stroke-linecap: square"/>
     </g>
     <g id="line2d_42">
      <g>
       <use xlink:href="#mb3cb5c074b" x="286.941176" y="120.396945" style="stroke: #000000; stroke-width: 0.8"/>
      </g>
     </g>
     <g id="text_24">
      <!-- 0.25 -->
      <g transform="translate(257.675551 124.196164) scale(0.1 -0.1)">
       <use xlink:href="#DejaVuSans-30"/>
       <use xlink:href="#DejaVuSans-2e" transform="translate(63.623047 0)"/>
       <use xlink:href="#DejaVuSans-32" transform="translate(95.410156 0)"/>
       <use xlink:href="#DejaVuSans-35" transform="translate(159.033203 0)"/>
      </g>
     </g>
    </g>
    <g id="ytick_12">
     <g id="line2d_43">
      <path d="M 286.941176 95.228257 
L 451.058824 95.228257 
" clip-path="url(#p01c13a3051)" style="fill: none; stroke: #b0b0b0; stroke-width: 0.8; stroke-linecap: square"/>
     </g>
     <g id="line2d_44">
      <g>
       <use xlink:href="#mb3cb5c074b" x="286.941176" y="95.228257" style="stroke: #000000; stroke-width: 0.8"/>
      </g>
     </g>
     <g id="text_25">
      <!-- 0.30 -->
      <g transform="translate(257.675551 99.027476) scale(0.1 -0.1)">
       <use xlink:href="#DejaVuSans-30"/>
       <use xlink:href="#DejaVuSans-2e" transform="translate(63.623047 0)"/>
       <use xlink:href="#DejaVuSans-33" transform="translate(95.410156 0)"/>
       <use xlink:href="#DejaVuSans-30" transform="translate(159.033203 0)"/>
      </g>
     </g>
    </g>
    <g id="ytick_13">
     <g id="line2d_45">
      <path d="M 286.941176 70.059569 
L 451.058824 70.059569 
" clip-path="url(#p01c13a3051)" style="fill: none; stroke: #b0b0b0; stroke-width: 0.8; stroke-linecap: square"/>
     </g>
     <g id="line2d_46">
      <g>
       <use xlink:href="#mb3cb5c074b" x="286.941176" y="70.059569" style="stroke: #000000; stroke-width: 0.8"/>
      </g>
     </g>
     <g id="text_26">
      <!-- 0.35 -->
      <g transform="translate(257.675551 73.858788) scale(0.1 -0.1)">
       <use xlink:href="#DejaVuSans-30"/>
       <use xlink:href="#DejaVuSans-2e" transform="translate(63.623047 0)"/>
       <use xlink:href="#DejaVuSans-33" transform="translate(95.410156 0)"/>
       <use xlink:href="#DejaVuSans-35" transform="translate(159.033203 0)"/>
      </g>
     </g>
    </g>
    <g id="ytick_14">
     <g id="line2d_47">
      <path d="M 286.941176 44.890881 
L 451.058824 44.890881 
" clip-path="url(#p01c13a3051)" style="fill: none; stroke: #b0b0b0; stroke-width: 0.8; stroke-linecap: square"/>
     </g>
     <g id="line2d_48">
      <g>
       <use xlink:href="#mb3cb5c074b" x="286.941176" y="44.890881" style="stroke: #000000; stroke-width: 0.8"/>
      </g>
     </g>
     <g id="text_27">
      <!-- 0.40 -->
      <g transform="translate(257.675551 48.6901) scale(0.1 -0.1)">
       <use xlink:href="#DejaVuSans-30"/>
       <use xlink:href="#DejaVuSans-2e" transform="translate(63.623047 0)"/>
       <use xlink:href="#DejaVuSans-34" transform="translate(95.410156 0)"/>
       <use xlink:href="#DejaVuSans-30" transform="translate(159.033203 0)"/>
      </g>
     </g>
    </g>
   </g>
   <g id="line2d_49">
    <path d="M 294.40107 246.158107 
L 299.063503 245.958201 
L 302.560328 245.630007 
L 306.057152 245.066335 
L 309.553977 244.195768 
L 311.885194 243.407271 
L 314.21641 242.414042 
L 316.547627 241.163184 
L 318.878844 239.576473 
L 321.21006 237.548397 
L 323.541277 234.949752 
L 324.706885 233.391556 
L 325.872493 231.635808 
L 327.038102 229.66381 
L 328.20371 227.457404 
L 329.369318 224.999459 
L 331.700535 219.268966 
L 334.031751 212.378744 
L 336.362968 204.294279 
L 338.694184 195.064367 
L 341.025401 184.840306 
L 344.522226 168.238246 
L 349.184659 145.798896 
L 351.515876 135.446347 
L 353.847092 126.21143 
L 356.178309 118.386676 
L 357.343917 115.059906 
L 358.509525 112.136275 
L 359.675134 109.61402 
L 360.840742 107.482376 
L 362.00635 105.721793 
L 363.171959 104.304343 
L 364.337567 103.194362 
L 365.503175 102.349464 
L 366.668783 101.722046 
L 369 100.916613 
L 375.99365 99.366094 
L 377.159258 99.198929 
L 378.324866 99.18455 
L 379.490475 99.417533 
L 380.656083 100.005986 
L 381.821691 101.064173 
L 382.987299 102.703814 
L 384.152908 105.024854 
L 385.318516 108.106568 
L 386.484124 111.999914 
L 387.649733 116.721904 
L 388.815341 122.252582 
L 389.980949 128.534905 
L 392.312166 142.960056 
L 395.808991 167.17106 
L 399.305816 190.816769 
L 401.637032 204.594758 
L 402.80264 210.657484 
L 403.968249 216.123779 
L 405.133857 220.986916 
L 406.299465 225.258469 
L 407.465074 228.964671 
L 408.630682 232.142684 
L 409.79629 234.83705 
L 410.961898 237.096502 
L 412.127507 238.971271 
L 413.293115 240.510929 
L 414.458723 241.76277 
L 415.624332 242.770679 
L 416.78994 243.57443 
L 417.955548 244.209349 
L 420.286765 245.091531 
L 422.617981 245.612895 
L 424.949198 245.909881 
L 428.446023 246.122876 
L 435.439672 246.229336 
L 443.59893 246.24 
L 443.59893 246.24 
" clip-path="url(#p01c13a3051)" style="fill: none; stroke: #1f77b4; stroke-width: 2; stroke-linecap: square"/>
   </g>
   <g id="line2d_50">
    <path d="M 299.591925 246.183316 
L 306.078529 245.977037 
L 309.321832 245.708583 
L 312.565134 245.209828 
L 314.727336 244.674801 
L 316.889537 243.905174 
L 319.051739 242.820425 
L 321.213941 241.322693 
L 322.295041 240.383746 
L 323.376142 239.297389 
L 324.457243 238.047126 
L 325.538344 236.615894 
L 326.619445 234.986301 
L 327.700545 233.14091 
L 328.781646 231.062582 
L 329.862747 228.734855 
L 332.024949 223.271392 
L 334.18715 216.649776 
L 336.349352 208.811135 
L 338.511553 199.7553 
L 340.673755 189.556265 
L 342.835957 178.374039 
L 346.079259 160.333308 
L 350.403662 135.91214 
L 352.565864 124.598397 
L 354.728065 114.558635 
L 355.809166 110.169999 
L 356.890267 106.277467 
L 357.971368 102.931291 
L 359.052469 100.175427 
L 360.133569 98.04653 
L 361.21467 96.573027 
L 362.295771 95.774225 
L 363.376872 95.659331 
L 364.457973 96.226144 
L 365.539073 97.459003 
L 366.620174 99.325374 
L 367.701275 101.770253 
L 368.782376 104.70755 
L 373.106779 117.820995 
L 374.18788 119.894599 
L 375.268981 120.585177 
L 376.350081 119.367774 
L 377.431182 115.78374 
L 378.512283 109.554636 
L 379.593384 100.707646 
L 380.674485 89.682005 
L 382.836686 65.12422 
L 383.917787 54.521978 
L 384.998888 47.222906 
L 386.079989 44.64 
L 387.161089 47.682738 
L 388.24219 56.575328 
L 389.323291 70.808149 
L 390.404392 89.235661 
L 394.728795 173.099984 
L 395.809896 189.920998 
L 396.890996 203.757424 
L 397.972097 214.65626 
L 399.053198 222.925957 
L 400.134299 229.012735 
L 401.2154 233.396291 
L 402.2965 236.518103 
L 403.377601 238.74355 
L 404.458702 240.351301 
L 405.539803 241.540296 
L 406.620904 242.445194 
L 407.702004 243.153602 
L 409.864206 244.183548 
L 412.026408 244.877406 
L 414.188609 245.349992 
L 417.431912 245.785342 
L 421.756315 246.065928 
L 428.24292 246.204286 
L 437.972827 246.23789 
L 437.972827 246.23789 
" clip-path="url(#p01c13a3051)" style="fill: none; stroke-dasharray: 7.4,3.2; stroke-dashoffset: 0; stroke: #ff7f0e; stroke-width: 2"/>
   </g>
   <g id="patch_6">
    <path d="M 286.941176 256.32 
L 286.941176 34.56 
" style="fill: none; stroke: #000000; stroke-width: 0.8; stroke-linejoin: miter; stroke-linecap: square"/>
   </g>
   <g id="patch_7">
    <path d="M 286.941176 256.32 
L 451.058824 256.32 
" style="fill: none; stroke: #000000; stroke-width: 0.8; stroke-linejoin: miter; stroke-linecap: square"/>
   </g>
   <g id="text_28">
    <!-- h=0.5400 -->
    <g transform="translate(339.175313 28.56) scale(0.12 -0.12)">
     <use xlink:href="#DejaVuSans-68"/>
     <use xlink:href="#DejaVuSans-3d" transform="translate(63.378906 0)"/>
     <use xlink:href="#DejaVuSans-30" transform="translate(147.167969 0)"/>
     <use xlink:href="#DejaVuSans-2e" transform="translate(210.791016 0)"/>
     <use xlink:href="#DejaVuSans-35" transform="translate(242.578125 0)"/>
     <use xlink:href="#DejaVuSans-34" transform="translate(306.201172 0)"/>
     <use xlink:href="#DejaVuSans-30" transform="translate(369.824219 0)"/>
     <use xlink:href="#DejaVuSans-30" transform="translate(433.447266 0)"/>
    </g>
   </g>
  </g>
  <g id="axes_3">
   <g id="patch_8">
    <path d="M 483.882353 256.32 
L 648 256.32 
L 648 34.56 
L 483.882353 34.56 
z
" style="fill: #ffffff"/>
   </g>
   <g id="matplotlib.axis_5">
    <g id="xtick_10">
     <g id="line2d_51">
      <path d="M 490.815803 256.32 
L 490.815803 34.56 
" clip-path="url(#p9c0c4fe255)" style="fill: none; stroke: #b0b0b0; stroke-width: 0.8; stroke-linecap: square"/>
     </g>
     <g id="line2d_52">
      <g>
       <use xlink:href="#m4a92d99fee" x="490.815803" y="256.32" style="stroke: #000000; stroke-width: 0.8"/>
      </g>
     </g>
     <g id="text_29">
      <!-- −4 -->
      <g transform="translate(483.444709 270.918437) scale(0.1 -0.1)">
       <use xlink:href="#DejaVuSans-2212"/>
       <use xlink:href="#DejaVuSans-34" transform="translate(83.789062 0)"/>
      </g>
     </g>
    </g>
    <g id="xtick_11">
     <g id="line2d_53">
      <path d="M 525.26604 256.32 
L 525.26604 34.56 
" clip-path="url(#p9c0c4fe255)" style="fill: none; stroke: #b0b0b0; stroke-width: 0.8; stroke-linecap: square"/>
     </g>
     <g id="line2d_54">
      <g>
       <use xlink:href="#m4a92d99fee" x="525.26604" y="256.32" style="stroke: #000000; stroke-width: 0.8"/>
      </g>
     </g>
     <g id="text_30">
      <!-- −2 -->
      <g transform="translate(517.894946 270.918437) scale(0.1 -0.1)">
       <use xlink:href="#DejaVuSans-2212"/>
       <use xlink:href="#DejaVuSans-32" transform="translate(83.789062 0)"/>
      </g>
     </g>
    </g>
    <g id="xtick_12">
     <g id="line2d_55">
      <path d="M 559.716277 256.32 
L 559.716277 34.56 
" clip-path="url(#p9c0c4fe255)" style="fill: none; stroke: #b0b0b0; stroke-width: 0.8; stroke-linecap: square"/>
     </g>
     <g id="line2d_56">
      <g>
       <use xlink:href="#m4a92d99fee" x="559.716277" y="256.32" style="stroke: #000000; stroke-width: 0.8"/>
      </g>
     </g>
     <g id="text_31">
      <!-- 0 -->
      <g transform="translate(556.535027 270.918437) scale(0.1 -0.1)">
       <use xlink:href="#DejaVuSans-30"/>
      </g>
     </g>
    </g>
    <g id="xtick_13">
     <g id="line2d_57">
      <path d="M 594.166514 256.32 
L 594.166514 34.56 
" clip-path="url(#p9c0c4fe255)" style="fill: none; stroke: #b0b0b0; stroke-width: 0.8; stroke-linecap: square"/>
     </g>
     <g id="line2d_58">
      <g>
       <use xlink:href="#m4a92d99fee" x="594.166514" y="256.32" style="stroke: #000000; stroke-width: 0.8"/>
      </g>
     </g>
     <g id="text_32">
      <!-- 2 -->
      <g transform="translate(590.985264 270.918437) scale(0.1 -0.1)">
       <use xlink:href="#DejaVuSans-32"/>
      </g>
     </g>
    </g>
    <g id="xtick_14">
     <g id="line2d_59">
      <path d="M 628.616751 256.32 
L 628.616751 34.56 
" clip-path="url(#p9c0c4fe255)" style="fill: none; stroke: #b0b0b0; stroke-width: 0.8; stroke-linecap: square"/>
     </g>
     <g id="line2d_60">
      <g>
       <use xlink:href="#m4a92d99fee" x="628.616751" y="256.32" style="stroke: #000000; stroke-width: 0.8"/>
      </g>
     </g>
     <g id="text_33">
      <!-- 4 -->
      <g transform="translate(625.435501 270.918437) scale(0.1 -0.1)">
       <use xlink:href="#DejaVuSans-34"/>
      </g>
     </g>
    </g>
    <g id="text_34">
     <!-- X -->
     <g transform="translate(562.516176 284.596563) scale(0.1 -0.1)">
      <use xlink:href="#DejaVuSans-58"/>
     </g>
    </g>
   </g>
   <g id="matplotlib.axis_6">
    <g id="ytick_15">
     <g id="line2d_61">
      <path d="M 483.882353 246.24 
L 648 246.24 
" clip-path="url(#p9c0c4fe255)" style="fill: none; stroke: #b0b0b0; stroke-width: 0.8; stroke-linecap: square"/>
     </g>
     <g id="line2d_62">
      <g>
       <use xlink:href="#mb3cb5c074b" x="483.882353" y="246.24" style="stroke: #000000; stroke-width: 0.8"/>
      </g>
     </g>
     <g id="text_35">
      <!-- 0.00 -->
      <g transform="translate(454.616728 250.039219) scale(0.1 -0.1)">
       <use xlink:href="#DejaVuSans-30"/>
       <use xlink:href="#DejaVuSans-2e" transform="translate(63.623047 0)"/>
       <use xlink:href="#DejaVuSans-30" transform="translate(95.410156 0)"/>
       <use xlink:href="#DejaVuSans-30" transform="translate(159.033203 0)"/>
      </g>
     </g>
    </g>
    <g id="ytick_16">
     <g id="line2d_63">
      <path d="M 483.882353 221.07136 
L 648 221.07136 
" clip-path="url(#p9c0c4fe255)" style="fill: none; stroke: #b0b0b0; stroke-width: 0.8; stroke-linecap: square"/>
     </g>
     <g id="line2d_64">
      <g>
       <use xlink:href="#mb3cb5c074b" x="483.882353" y="221.07136" style="stroke: #000000; stroke-width: 0.8"/>
      </g>
     </g>
     <g id="text_36">
      <!-- 0.05 -->
      <g transform="translate(454.616728 224.870579) scale(0.1 -0.1)">
       <use xlink:href="#DejaVuSans-30"/>
       <use xlink:href="#DejaVuSans-2e" transform="translate(63.623047 0)"/>
       <use xlink:href="#DejaVuSans-30" transform="translate(95.410156 0)"/>
       <use xlink:href="#DejaVuSans-35" transform="translate(159.033203 0)"/>
      </g>
     </g>
    </g>
    <g id="ytick_17">
     <g id="line2d_65">
      <path d="M 483.882353 195.90272 
L 648 195.90272 
" clip-path="url(#p9c0c4fe255)" style="fill: none; stroke: #b0b0b0; stroke-width: 0.8; stroke-linecap: square"/>
     </g>
     <g id="line2d_66">
      <g>
       <use xlink:href="#mb3cb5c074b" x="483.882353" y="195.90272" style="stroke: #000000; stroke-width: 0.8"/>
      </g>
     </g>
     <g id="text_37">
      <!-- 0.10 -->
      <g transform="translate(454.616728 199.701939) scale(0.1 -0.1)">
       <use xlink:href="#DejaVuSans-30"/>
       <use xlink:href="#DejaVuSans-2e" transform="translate(63.623047 0)"/>
       <use xlink:href="#DejaVuSans-31" transform="translate(95.410156 0)"/>
       <use xlink:href="#DejaVuSans-30" transform="translate(159.033203 0)"/>
      </g>
     </g>
    </g>
    <g id="ytick_18">
     <g id="line2d_67">
      <path d="M 483.882353 170.73408 
L 648 170.73408 
" clip-path="url(#p9c0c4fe255)" style="fill: none; stroke: #b0b0b0; stroke-width: 0.8; stroke-linecap: square"/>
     </g>
     <g id="line2d_68">
      <g>
       <use xlink:href="#mb3cb5c074b" x="483.882353" y="170.73408" style="stroke: #000000; stroke-width: 0.8"/>
      </g>
     </g>
     <g id="text_38">
      <!-- 0.15 -->
      <g transform="translate(454.616728 174.533299) scale(0.1 -0.1)">
       <use xlink:href="#DejaVuSans-30"/>
       <use xlink:href="#DejaVuSans-2e" transform="translate(63.623047 0)"/>
       <use xlink:href="#DejaVuSans-31" transform="translate(95.410156 0)"/>
       <use xlink:href="#DejaVuSans-35" transform="translate(159.033203 0)"/>
      </g>
     </g>
    </g>
    <g id="ytick_19">
     <g id="line2d_69">
      <path d="M 483.882353 145.56544 
L 648 145.56544 
" clip-path="url(#p9c0c4fe255)" style="fill: none; stroke: #b0b0b0; stroke-width: 0.8; stroke-linecap: square"/>
     </g>
     <g id="line2d_70">
      <g>
       <use xlink:href="#mb3cb5c074b" x="483.882353" y="145.56544" style="stroke: #000000; stroke-width: 0.8"/>
      </g>
     </g>
     <g id="text_39">
      <!-- 0.20 -->
      <g transform="translate(454.616728 149.364659) scale(0.1 -0.1)">
       <use xlink:href="#DejaVuSans-30"/>
       <use xlink:href="#DejaVuSans-2e" transform="translate(63.623047 0)"/>
       <use xlink:href="#DejaVuSans-32" transform="translate(95.410156 0)"/>
       <use xlink:href="#DejaVuSans-30" transform="translate(159.033203 0)"/>
      </g>
     </g>
    </g>
    <g id="ytick_20">
     <g id="line2d_71">
      <path d="M 483.882353 120.3968 
L 648 120.3968 
" clip-path="url(#p9c0c4fe255)" style="fill: none; stroke: #b0b0b0; stroke-width: 0.8; stroke-linecap: square"/>
     </g>
     <g id="line2d_72">
      <g>
       <use xlink:href="#mb3cb5c074b" x="483.882353" y="120.3968" style="stroke: #000000; stroke-width: 0.8"/>
      </g>
     </g>
     <g id="text_40">
      <!-- 0.25 -->
      <g transform="translate(454.616728 124.196019) scale(0.1 -0.1)">
       <use xlink:href="#DejaVuSans-30"/>
       <use xlink:href="#DejaVuSans-2e" transform="translate(63.623047 0)"/>
       <use xlink:href="#DejaVuSans-32" transform="translate(95.410156 0)"/>
       <use xlink:href="#DejaVuSans-35" transform="translate(159.033203 0)"/>
      </g>
     </g>
    </g>
    <g id="ytick_21">
     <g id="line2d_73">
      <path d="M 483.882353 95.22816 
L 648 95.22816 
" clip-path="url(#p9c0c4fe255)" style="fill: none; stroke: #b0b0b0; stroke-width: 0.8; stroke-linecap: square"/>
     </g>
     <g id="line2d_74">
      <g>
       <use xlink:href="#mb3cb5c074b" x="483.882353" y="95.22816" style="stroke: #000000; stroke-width: 0.8"/>
      </g>
     </g>
     <g id="text_41">
      <!-- 0.30 -->
      <g transform="translate(454.616728 99.027379) scale(0.1 -0.1)">
       <use xlink:href="#DejaVuSans-30"/>
       <use xlink:href="#DejaVuSans-2e" transform="translate(63.623047 0)"/>
       <use xlink:href="#DejaVuSans-33" transform="translate(95.410156 0)"/>
       <use xlink:href="#DejaVuSans-30" transform="translate(159.033203 0)"/>
      </g>
     </g>
    </g>
    <g id="ytick_22">
     <g id="line2d_75">
      <path d="M 483.882353 70.05952 
L 648 70.05952 
" clip-path="url(#p9c0c4fe255)" style="fill: none; stroke: #b0b0b0; stroke-width: 0.8; stroke-linecap: square"/>
     </g>
     <g id="line2d_76">
      <g>
       <use xlink:href="#mb3cb5c074b" x="483.882353" y="70.05952" style="stroke: #000000; stroke-width: 0.8"/>
      </g>
     </g>
     <g id="text_42">
      <!-- 0.35 -->
      <g transform="translate(454.616728 73.858739) scale(0.1 -0.1)">
       <use xlink:href="#DejaVuSans-30"/>
       <use xlink:href="#DejaVuSans-2e" transform="translate(63.623047 0)"/>
       <use xlink:href="#DejaVuSans-33" transform="translate(95.410156 0)"/>
       <use xlink:href="#DejaVuSans-35" transform="translate(159.033203 0)"/>
      </g>
     </g>
    </g>
    <g id="ytick_23">
     <g id="line2d_77">
      <path d="M 483.882353 44.890881 
L 648 44.890881 
" clip-path="url(#p9c0c4fe255)" style="fill: none; stroke: #b0b0b0; stroke-width: 0.8; stroke-linecap: square"/>
     </g>
     <g id="line2d_78">
      <g>
       <use xlink:href="#mb3cb5c074b" x="483.882353" y="44.890881" style="stroke: #000000; stroke-width: 0.8"/>
      </g>
     </g>
     <g id="text_43">
      <!-- 0.40 -->
      <g transform="translate(454.616728 48.690099) scale(0.1 -0.1)">
       <use xlink:href="#DejaVuSans-30"/>
       <use xlink:href="#DejaVuSans-2e" transform="translate(63.623047 0)"/>
       <use xlink:href="#DejaVuSans-34" transform="translate(95.410156 0)"/>
       <use xlink:href="#DejaVuSans-30" transform="translate(159.033203 0)"/>
      </g>
     </g>
    </g>
   </g>
   <g id="line2d_79">
    <path d="M 492.368971 246.239952 
L 498.14076 246.196856 
L 500.449476 245.982229 
L 501.603834 245.721267 
L 502.758191 245.318297 
L 505.066907 244.167025 
L 509.684338 241.728453 
L 510.838696 241.193678 
L 511.993054 240.82113 
L 513.147412 240.690171 
L 515.456127 240.834872 
L 516.610485 240.671791 
L 517.764843 240.067296 
L 518.919201 238.941002 
L 520.073558 237.327548 
L 521.227916 235.323915 
L 523.536632 230.571594 
L 525.845347 225.625257 
L 526.999705 223.441378 
L 529.308421 219.580018 
L 530.462778 217.225565 
L 531.617136 213.928839 
L 532.771494 209.334532 
L 533.925852 203.417099 
L 538.543283 176.438203 
L 540.851999 165.408765 
L 542.006356 159.216586 
L 544.315072 144.332213 
L 546.623787 129.111879 
L 547.778145 122.362505 
L 548.932503 116.300726 
L 550.086861 111.0487 
L 551.241219 106.850942 
L 552.395576 103.852421 
L 553.549934 101.87739 
L 554.704292 100.500696 
L 555.85865 99.371899 
L 557.013008 98.447556 
L 558.167365 97.867577 
L 560.476081 97.224931 
L 561.630439 96.208685 
L 562.784797 94.390096 
L 563.939154 92.345953 
L 565.093512 91.195446 
L 566.24787 91.964481 
L 567.402228 94.987086 
L 568.556585 99.772577 
L 570.865301 110.705238 
L 572.019659 115.071143 
L 573.174017 117.871746 
L 574.328374 118.644613 
L 575.482732 116.990121 
L 576.63709 112.605297 
L 577.791448 105.390579 
L 578.945806 95.63804 
L 581.254521 72.82757 
L 582.408879 63.418129 
L 583.563237 57.959735 
L 584.717595 57.663612 
L 585.871952 62.743733 
L 587.02631 72.626113 
L 588.180668 86.372887 
L 590.489384 121.067122 
L 592.798099 156.691595 
L 593.952457 171.998249 
L 595.106815 185.080237 
L 596.261172 196.106815 
L 597.41553 205.363543 
L 598.569888 213.057501 
L 599.724246 219.339598 
L 600.878604 224.422409 
L 602.032961 228.619801 
L 603.187319 232.253112 
L 604.341677 235.512881 
L 605.496035 238.399802 
L 606.650393 240.788718 
L 607.80475 242.5605 
L 608.959108 243.709515 
L 610.113466 244.3662 
L 612.422182 245.00408 
L 617.039613 245.998172 
L 619.348328 246.190455 
L 625.120117 246.239916 
L 640.126768 246.24 
L 640.126768 246.24 
" clip-path="url(#p9c0c4fe255)" style="fill: none; stroke: #1f77b4; stroke-width: 2; stroke-linecap: square"/>
   </g>
   <g id="line2d_80">
    <path d="M 491.342246 246.182932 
L 498.335896 245.976653 
L 501.832721 245.708199 
L 505.329545 245.209446 
L 507.660762 244.674419 
L 509.991979 243.904794 
L 512.323195 242.820047 
L 514.654412 241.322318 
L 515.82002 240.383372 
L 516.985628 239.297018 
L 518.151237 238.046757 
L 519.316845 236.615528 
L 520.482453 234.985938 
L 521.648061 233.140551 
L 522.81367 231.062226 
L 523.979278 228.734503 
L 525.144886 226.142034 
L 527.476103 220.109878 
L 529.80732 212.883842 
L 532.138536 204.432337 
L 534.469753 194.790515 
L 536.800969 184.074211 
L 540.297794 166.460379 
L 547.291444 130.127595 
L 549.62266 119.387784 
L 551.953877 110.169874 
L 553.119485 106.27735 
L 554.285094 102.93118 
L 555.450702 100.175321 
L 556.61631 98.046428 
L 557.781918 96.572928 
L 558.947527 95.774127 
L 560.113135 95.659233 
L 561.278743 96.226045 
L 562.444352 97.458902 
L 563.60996 99.325269 
L 564.775568 101.770144 
L 565.941176 104.707436 
L 570.60361 117.820855 
L 571.769218 119.894455 
L 572.934826 120.585032 
L 574.100434 119.367632 
L 575.266043 115.783604 
L 576.431651 109.554512 
L 577.597259 100.707539 
L 578.762868 89.681919 
L 581.094084 65.124181 
L 582.259693 54.52196 
L 583.425301 47.222901 
L 584.590909 44.64 
L 585.756517 47.682732 
L 586.922126 56.575305 
L 588.087734 70.808099 
L 589.253342 89.235576 
L 593.915775 173.099739 
L 595.081384 189.92072 
L 596.246992 203.75712 
L 597.4126 214.655936 
L 598.578209 222.925617 
L 599.743817 229.012383 
L 600.909425 233.395931 
L 602.075033 236.517737 
L 603.240642 238.74318 
L 604.40625 240.350928 
L 605.571858 241.539921 
L 606.737467 242.444816 
L 607.903075 243.153224 
L 610.234291 244.183168 
L 612.565508 244.877024 
L 614.896725 245.349609 
L 618.393549 245.784958 
L 623.055983 246.065544 
L 630.049632 246.203901 
L 640.540107 246.237506 
L 640.540107 246.237506 
" clip-path="url(#p9c0c4fe255)" style="fill: none; stroke-dasharray: 7.4,3.2; stroke-dashoffset: 0; stroke: #ff7f0e; stroke-width: 2"/>
   </g>
   <g id="patch_9">
    <path d="M 483.882353 256.32 
L 483.882353 34.56 
" style="fill: none; stroke: #000000; stroke-width: 0.8; stroke-linejoin: miter; stroke-linecap: square"/>
   </g>
   <g id="patch_10">
    <path d="M 483.882353 256.32 
L 648 256.32 
" style="fill: none; stroke: #000000; stroke-width: 0.8; stroke-linejoin: miter; stroke-linecap: square"/>
   </g>
   <g id="text_44">
    <!-- h=0.1800 -->
    <g transform="translate(536.116489 28.56) scale(0.12 -0.12)">
     <defs>
      <path id="DejaVuSans-38" d="M 2034 2216 
Q 1584 2216 1326 1975 
Q 1069 1734 1069 1313 
Q 1069 891 1326 650 
Q 1584 409 2034 409 
Q 2484 409 2743 651 
Q 3003 894 3003 1313 
Q 3003 1734 2745 1975 
Q 2488 2216 2034 2216 
z
M 1403 2484 
Q 997 2584 770 2862 
Q 544 3141 544 3541 
Q 544 4100 942 4425 
Q 1341 4750 2034 4750 
Q 2731 4750 3128 4425 
Q 3525 4100 3525 3541 
Q 3525 3141 3298 2862 
Q 3072 2584 2669 2484 
Q 3125 2378 3379 2068 
Q 3634 1759 3634 1313 
Q 3634 634 3220 271 
Q 2806 -91 2034 -91 
Q 1263 -91 848 271 
Q 434 634 434 1313 
Q 434 1759 690 2068 
Q 947 2378 1403 2484 
z
M 1172 3481 
Q 1172 3119 1398 2916 
Q 1625 2713 2034 2713 
Q 2441 2713 2670 2916 
Q 2900 3119 2900 3481 
Q 2900 3844 2670 4047 
Q 2441 4250 2034 4250 
Q 1625 4250 1398 4047 
Q 1172 3844 1172 3481 
z
" transform="scale(0.015625)"/>
     </defs>
     <use xlink:href="#DejaVuSans-68"/>
     <use xlink:href="#DejaVuSans-3d" transform="translate(63.378906 0)"/>
     <use xlink:href="#DejaVuSans-30" transform="translate(147.167969 0)"/>
     <use xlink:href="#DejaVuSans-2e" transform="translate(210.791016 0)"/>
     <use xlink:href="#DejaVuSans-31" transform="translate(242.578125 0)"/>
     <use xlink:href="#DejaVuSans-38" transform="translate(306.201172 0)"/>
     <use xlink:href="#DejaVuSans-30" transform="translate(369.824219 0)"/>
     <use xlink:href="#DejaVuSans-30" transform="translate(433.447266 0)"/>
    </g>
   </g>
  </g>
 </g>
 <defs>
  <clipPath id="pf054c2f544">
   <rect x="90" y="34.56" width="164.117647" height="221.76"/>
  </clipPath>
  <clipPath id="p01c13a3051">
   <rect x="286.941176" y="34.56" width="164.117647" height="221.76"/>
  </clipPath>
  <clipPath id="p9c0c4fe255">
   <rect x="483.882353" y="34.56" width="164.117647" height="221.76"/>
  </clipPath>
 </defs>
</svg>
