<?xml version="1.0" encoding="utf-8" standalone="no"?>
<!DOCTYPE svg PUBLIC "-//W3C//DTD SVG 1.1//EN"
  "http://www.w3.org/Graphics/SVG/1.1/DTD/svg11.dtd">
<svg xmlns:xlink="http://www.w3.org/1999/xlink" width="460.8pt" height="345.6pt" viewBox="0 0 460.8 345.6" xmlns="http://www.w3.org/2000/svg" version="1.1">
 <metadata>
  <rdf:RDF xmlns:dc="http://purl.org/dc/elements/1.1/" xmlns:cc="http://creativecommons.org/ns#" xmlns:rdf="http://www.w3.org/1999/02/22-rdf-syntax-ns#">
   <cc:Work>
    <dc:type rdf:resource="http://purl.org/dc/dcmitype/StillImage"/>
    <dc:date>2022-01-01T00:00:00+00:00</dc:date>
    <dc:format>image/svg+xml</dc:format>
    <dc:creator>
     <cc:Agent>
      <dc:title>Matplotlib v3.11.2, https://matplotlib.org/</dc:title>
     </cc:Agent>
    </dc:creator>
   </cc:Work>
  </rdf:RDF>
 </metadata>
 <defs>
  <style type="text/css">*{stroke-linejoin: round; stroke-linecap: butt}</style>
 </defs>
 <g id="figure_1">
  <g id="patch_1">
   <path d="M 0 345.6 
L 460.8 345.6 
L 460.8 0 
L 0 0 
z
" style="fill: #ffffff"/>
  </g>
  <g id="axes_1">
   <g id="patch_2">
    <path d="M 57.6 307.584 
L 414.72 307.584 
L 414.72 41.472 
L 57.6 41.472 
z
" style="fill: #ffffff"/>
   </g>
   <g id="matplotlib.axis_1">
    <g id="xtick_1">
     <g id="line2d_1">
      <path d="M 70.707061 307.584 
L 70.707061 41.472 
" clip-path="url(#pece686282c)" style="fill: none; stroke: #b0b0b0; stroke-width: 0.8; stroke-linecap: square"/>
     </g>
     <g id="line2d_2">
      <defs>
       <path id="m4a92d99fee" d="M 0 0 
L 0 3.5 
" style="stroke: #000000; stroke-width: 0.8"/>
      </defs>
      <g>
       <use xlink:href="#m4a92d99fee" x="70.707061" y="307.584" style="stroke: #000000; stroke-width: 0.8"/>
      </g>
     </g>
     <g id="text_1">
      <!-- 0 -->
      <g transform="translate(67.525811 322.181656) scale(0.1 -0.1)">
       <defs>
        <path id="DejaVuSans-13" d="M 2034 4250 
Q 1547 4250 1301 3770 
Q 1056 3291 1056 2328 
Q 1056 1369 1301 889 
Q 1547 409 2034 409 
Q 2525 409 2770 889 
Q 3016 1369 3016 2328 
Q 3016 3291 2770 3770 
Q 2525 4250 2034 4250 
z
M 2034 4750 
Q 2819 4750 3233 4129 
Q 3647 3509 3647 2328 
Q 3647 1150 3233 529 
Q 2819 -91 2034 -91 
Q 1250 -91 836 529 
Q 422 1150 422 2328 
Q 422 3509 836 4129 
Q 1250 4750 2034 4750 
z
" transform="scale(0.015625)"/>
       </defs>
       <use xlink:href="#DejaVuSans-13"/>
      </g>
     </g>
    </g>
    <g id="xtick_2">
     <g id="line2d_3">
      <path d="M 134.723672 307.584 
L 134.723672 41.472 
" clip-path="url(#pece686282c)" style="fill: none; stroke: #b0b0b0; stroke-width: 0.8; stroke-linecap: square"/>
     </g>
     <g id="line2d_4">
      <g>
       <use xlink:href="#m4a92d99fee" x="134.723672" y="307.584" style="stroke: #000000; stroke-width: 0.8"/>
      </g>
     </g>
     <g id="text_2">
      <!-- 2 -->
      <g transform="translate(131.542422 322.181656) scale(0.1 -0.1)">
       <defs>
        <path id="DejaVuSans-15" d="M 1228 531 
L 3431 531 
L 3431 0 
L 469 0 
L 469 531 
Q 828 903 1448 1529 
Q 2069 2156 2228 2338 
Q 2531 2678 2651 2914 
Q 2772 3150 2772 3378 
Q 2772 3750 2511 3984 
Q 2250 4219 1831 4219 
Q 1534 4219 1204 4116 
Q 875 4013 500 3803 
L 500 4441 
Q 881 4594 1212 4672 
Q 1544 4750 1819 4750 
Q 2544 4750 2975 4387 
Q 3406 4025 3406 3419 
Q 3406 3131 3298 2873 
Q 3191 2616 2906 2266 
Q 2828 2175 2409 1742 
Q 1991 1309 1228 531 
z
" transform="scale(0.015625)"/>
       </defs>
       <use xlink:href="#DejaVuSans-15"/>
      </g>
     </g>
    </g>
    <g id="xtick_3">
     <g id="line2d_5">
      <path d="M 198.740284 307.584 
L 198.740284 41.472 
" clip-path="url(#pece686282c)" style="fill: none; stroke: #b0b0b0; stroke-width: 0.8; stroke-linecap: square"/>
     </g>
     <g id="line2d_6">
      <g>
       <use xlink:href="#m4a92d99fee" x="198.740284" y="307.584" style="stroke: #000000; stroke-width: 0.8"/>
      </g>
     </g>
     <g id="text_3">
      <!-- 4 -->
      <g transform="translate(195.559034 322.181656) scale(0.1 -0.1)">
       <defs>
        <path id="DejaVuSans-17" d="M 2419 4116 
L 825 1625 
L 2419 1625 
L 2419 4116 
z
M 2253 4666 
L 3047 4666 
L 3047 1625 
L 3713 1625 
L 3713 1100 
L 3047 1100 
L 3047 0 
L 2419 0 
L 2419 1100 
L 313 1100 
L 313 1709 
L 2253 4666 
z
" transform="scale(0.015625)"/>
       </defs>
       <use xlink:href="#DejaVuSans-17"/>
      </g>
     </g>
    </g>
    <g id="xtick_4">
     <g id="line2d_7">
      <path d="M 262.756895 307.584 
L 262.756895 41.472 
" clip-path="url(#pece686282c)" style="fill: none; stroke: #b0b0b0; stroke-width: 0.8; stroke-linecap: square"/>
     </g>
     <g id="line2d_8">
      <g>
       <use xlink:href="#m4a92d99fee" x="262.756895" y="307.584" style="stroke: #000000; stroke-width: 0.8"/>
      </g>
     </g>
     <g id="text_4">
      <!-- 6 -->
      <g transform="translate(259.575645 322.181656) scale(0.1 -0.1)">
       <defs>
        <path id="DejaVuSans-19" d="M 2113 2584 
Q 1688 2584 1439 2293 
Q 1191 2003 1191 1497 
Q 1191 994 1439 701 
Q 1688 409 2113 409 
Q 2538 409 2786 701 
Q 3034 994 3034 1497 
Q 3034 2003 2786 2293 
Q 2538 2584 2113 2584 
z
M 3366 4563 
L 3366 3988 
Q 3128 4100 2886 4159 
Q 2644 4219 2406 4219 
Q 1781 4219 1451 3797 
Q 1122 3375 1075 2522 
Q 1259 2794 1537 2939 
Q 1816 3084 2150 3084 
Q 2853 3084 3261 2657 
Q 3669 2231 3669 1497 
Q 3669 778 3244 343 
Q 2819 -91 2113 -91 
Q 1303 -91 875 529 
Q 447 1150 447 2328 
Q 447 3434 972 4092 
Q 1497 4750 2381 4750 
Q 2619 4750 2861 4703 
Q 3103 4656 3366 4563 
z
" transform="scale(0.015625)"/>
       </defs>
       <use xlink:href="#DejaVuSans-19"/>
      </g>
     </g>
    </g>
    <g id="xtick_5">
     <g id="line2d_9">
      <path d="M 326.773507 307.584 
L 326.773507 41.472 
" clip-path="url(#pece686282c)" style="fill: none; stroke: #b0b0b0; stroke-width: 0.8; stroke-linecap: square"/>
     </g>
     <g id="line2d_10">
      <g>
       <use xlink:href="#m4a92d99fee" x="326.773507" y="307.584" style="stroke: #000000; stroke-width: 0.8"/>
      </g>
     </g>
     <g id="text_5">
      <!-- 8 -->
      <g transform="translate(323.592257 322.181656) scale(0.1 -0.1)">
       <defs>
        <path id="DejaVuSans-1b" d="M 2034 2216 
Q 1584 2216 1326 1975 
Q 1069 1734 1069 1313 
Q 1069 891 1326 650 
Q 1584 409 2034 409 
Q 2484 409 2743 651 
Q 3003 894 3003 1313 
Q 3003 1734 2745 1975 
Q 2488 2216 2034 2216 
z
M 1403 2484 
Q 997 2584 770 2862 
Q 544 3141 544 3541 
Q 544 4100 942 4425 
Q 1341 4750 2034 4750 
Q 2731 4750 3128 4425 
Q 3525 4100 3525 3541 
Q 3525 3141 3298 2862 
Q 3072 2584 2669 2484 
Q 3125 2378 3379 2068 
Q 3634 1759 3634 1313 
Q 3634 634 3220 271 
Q 2806 -91 2034 -91 
Q 1263 -91 848 271 
Q 434 634 434 1313 
Q 434 1759 690 2068 
Q 947 2378 1403 2484 
z
M 1172 3481 
Q 1172 3119 1398 2916 
Q 1625 2713 2034 2713 
Q 2441 2713 2670 2916 
Q 2900 3119 2900 3481 
Q 2900 3844 2670 4047 
Q 2441 4250 2034 4250 
Q 1625 4250 1398 4047 
Q 1172 3844 1172 3481 
z
" transform="scale(0.015625)"/>
       </defs>
       <use xlink:href="#DejaVuSans-1b"/>
      </g>
     </g>
    </g>
    <g id="xtick_6">
     <g id="line2d_11">
      <path d="M 390.790118 307.584 
L 390.790118 41.472 
" clip-path="url(#pece686282c)" style="fill: none; stroke: #b0b0b0; stroke-width: 0.8; stroke-linecap: square"/>
     </g>
     <g id="line2d_12">
      <g>
       <use xlink:href="#m4a92d99fee" x="390.790118" y="307.584" style="stroke: #000000; stroke-width: 0.8"/>
      </g>
     </g>
     <g id="text_6">
      <!-- 10 -->
      <g transform="translate(384.427618 322.181656) scale(0.1 -0.1)">
       <defs>
        <path id="DejaVuSans-14" d="M 794 531 
L 1825 531 
L 1825 4091 
L 703 3866 
L 703 4441 
L 1819 4666 
L 2450 4666 
L 2450 531 
L 3481 531 
L 3481 0 
L 794 0 
L 794 531 
z
" transform="scale(0.015625)"/>
       </defs>
       <use xlink:href="#DejaVuSans-14"/>
       <use xlink:href="#DejaVuSans-13" transform="translate(63.625 0)"/>
      </g>
     </g>
    </g>
    <g id="text_7">
     <!-- x -->
     <g transform="translate(233.200625 336.181656) scale(0.1 -0.1)">
      <defs>
       <path id="DejaVuSans-5b" d="M 3513 3500 
L 2247 1797 
L 3578 0 
L 2900 0 
L 1881 1375 
L 863 0 
L 184 0 
L 1544 1831 
L 300 3500 
L 978 3500 
L 1906 2253 
L 2834 3500 
L 3513 3500 
z
" transform="scale(0.015625)"/>
      </defs>
      <use xlink:href="#DejaVuSans-5b"/>
     </g>
    </g>
   </g>
   <g id="matplotlib.axis_2">
    <g id="ytick_1">
     <g id="line2d_13">
      <path d="M 57.6 279.889443 
L 414.72 279.889443 
" clip-path="url(#pece686282c)" style="fill: none; stroke: #b0b0b0; stroke-width: 0.8; stroke-linecap: square"/>
     </g>
     <g id="line2d_14">
      <defs>
       <path id="mb3cb5c074b" d="M 0 0 
L -3.5 0 
" style="stroke: #000000; stroke-width: 0.8"/>
      </defs>
      <g>
       <use xlink:href="#mb3cb5c074b" x="57.6" y="279.889443" style="stroke: #000000; stroke-width: 0.8"/>
      </g>
     </g>
     <g id="text_8">
      <!-- 0 -->
      <g transform="translate(44.2375 283.688271) scale(0.1 -0.1)">
       <use xlink:href="#DejaVuSans-13"/>
      </g>
     </g>
    </g>
    <g id="ytick_2">
     <g id="line2d_15">
      <path d="M 57.6 235.688081 
L 414.72 235.688081 
" clip-path="url(#pece686282c)" style="fill: none; stroke: #b0b0b0; stroke-width: 0.8; stroke-linecap: square"/>
     </g>
     <g id="line2d_16">
      <g>
       <use xlink:href="#mb3cb5c074b" x="57.6" y="235.688081" style="stroke: #000000; stroke-width: 0.8"/>
      </g>
     </g>
     <g id="text_9">
      <!-- 2 -->
      <g transform="translate(44.2375 239.486909) scale(0.1 -0.1)">
       <use xlink:href="#DejaVuSans-15"/>
      </g>
     </g>
    </g>
    <g id="ytick_3">
     <g id="line2d_17">
      <path d="M 57.6 191.486719 
L 414.72 191.486719 
" clip-path="url(#pece686282c)" style="fill: none; stroke: #b0b0b0; stroke-width: 0.8; stroke-linecap: square"/>
     </g>
     <g id="line2d_18">
      <g>
       <use xlink:href="#mb3cb5c074b" x="57.6" y="191.486719" style="stroke: #000000; stroke-width: 0.8"/>
      </g>
     </g>
     <g id="text_10">
      <!-- 4 -->
      <g transform="translate(44.2375 195.285547) scale(0.1 -0.1)">
       <use xlink:href="#DejaVuSans-17"/>
      </g>
     </g>
    </g>
    <g id="ytick_4">
     <g id="line2d_19">
      <path d="M 57.6 147.285356 
L 414.72 147.285356 
" clip-path="url(#pece686282c)" style="fill: none; stroke: #b0b0b0; stroke-width: 0.8; stroke-linecap: square"/>
     </g>
     <g id="line2d_20">
      <g>
       <use xlink:href="#mb3cb5c074b" x="57.6" y="147.285356" style="stroke: #000000; stroke-width: 0.8"/>
      </g>
     </g>
     <g id="text_11">
      <!-- 6 -->
      <g transform="translate(44.2375 151.084184) scale(0.1 -0.1)">
       <use xlink:href="#DejaVuSans-19"/>
      </g>
     </g>
    </g>
    <g id="ytick_5">
     <g id="line2d_21">
      <path d="M 57.6 103.083994 
L 414.72 103.083994 
" clip-path="url(#pece686282c)" style="fill: none; stroke: #b0b0b0; stroke-width: 0.8; stroke-linecap: square"/>
     </g>
     <g id="line2d_22">
      <g>
       <use xlink:href="#mb3cb5c074b" x="57.6" y="103.083994" style="stroke: #000000; stroke-width: 0.8"/>
      </g>
     </g>
     <g id="text_12">
      <!-- 8 -->
      <g transform="translate(44.2375 106.882822) scale(0.1 -0.1)">
       <use xlink:href="#DejaVuSans-1b"/>
      </g>
     </g>
    </g>
    <g id="ytick_6">
     <g id="line2d_23">
      <path d="M 57.6 58.882632 
L 414.72 58.882632 
" clip-path="url(#pece686282c)" style="fill: none; stroke: #b0b0b0; stroke-width: 0.8; stroke-linecap: square"/>
     </g>
     <g id="line2d_24">
      <g>
       <use xlink:href="#mb3cb5c074b" x="57.6" y="58.882632" style="stroke: #000000; stroke-width: 0.8"/>
      </g>
     </g>
     <g id="text_13">
      <!-- 10 -->
      <g transform="translate(37.875 62.68146) scale(0.1 -0.1)">
       <use xlink:href="#DejaVuSans-14"/>
       <use xlink:href="#DejaVuSans-13" transform="translate(63.625 0)"/>
      </g>
     </g>
    </g>
    <g id="text_14">
     <!-- y -->
     <g transform="translate(31.472656 177.487375) rotate(-90) scale(0.1 -0.1)">
      <defs>
       <path id="DejaVuSans-5c" d="M 2059 -325 
Q 1816 -950 1584 -1140 
Q 1353 -1331 966 -1331 
L 506 -1331 
L 506 -850 
L 844 -850 
Q 1081 -850 1212 -737 
Q 1344 -625 1503 -206 
L 1606 56 
L 191 3500 
L 800 3500 
L 1894 763 
L 2988 3500 
L 3597 3500 
L 2059 -325 
z
" transform="scale(0.015625)"/>
      </defs>
      <use xlink:href="#DejaVuSans-5c"/>
     </g>
    </g>
   </g>
   <g id="line2d_25">
    <path d="M 73.832727 53.568 
L 75.131345 119.997979 
L 76.429964 156.279909 
L 77.728582 179.141279 
L 79.0272 194.866184 
L 80.325818 206.345083 
L 81.624436 215.09316 
L 82.923055 221.981313 
L 84.221673 227.545702 
L 85.520291 232.134473 
L 86.818909 235.983534 
L 88.117527 239.258403 
L 89.416145 242.078649 
L 90.714764 244.532793 
L 92.013382 246.687777 
L 93.312 248.595161 
L 95.909236 251.820225 
L 98.506473 254.442669 
L 101.103709 256.616964 
L 103.700945 258.448944 
L 106.298182 260.013549 
L 108.895418 261.365333 
L 112.791273 263.080162 
L 116.687127 264.504399 
L 120.582982 265.706139 
L 125.777455 267.043968 
L 130.971927 268.151172 
L 137.465018 269.292873 
L 145.256727 270.400395 
L 154.347055 271.431703 
L 164.736 272.366171 
L 176.423564 273.197911 
L 190.708364 273.994463 
L 208.889018 274.770068 
L 230.965527 275.475291 
L 258.236509 276.117207 
L 293.2992 276.711409 
L 338.750836 277.250302 
L 398.487273 277.731274 
L 398.487273 277.731274 
" clip-path="url(#pece686282c)" style="fill: none; stroke: #1f77b4; stroke-linecap: square"/>
   </g>
   <g id="line2d_26">
    <path d="M 73.832727 180.456365 
L 77.728582 192.350378 
L 81.624436 203.330222 
L 85.520291 213.437314 
L 89.416145 222.712036 
L 93.312 231.193747 
L 97.207855 238.920795 
L 101.103709 245.930525 
L 103.700945 250.223163 
L 106.298182 254.223702 
L 108.895418 257.942481 
L 111.492655 261.389649 
L 114.089891 264.575165 
L 116.687127 267.508801 
L 119.284364 270.200144 
L 121.8816 272.658597 
L 124.478836 274.893378 
L 127.076073 276.913527 
L 129.673309 278.7279 
L 132.270545 280.345179 
L 134.867782 281.773866 
L 137.465018 283.02229 
L 140.062255 284.098602 
L 142.659491 285.010786 
L 146.555345 286.088359 
L 150.4512 286.839822 
L 154.347055 287.289976 
L 158.242909 287.462785 
L 162.138764 287.381391 
L 166.034618 287.068122 
L 169.930473 286.544506 
L 173.826327 285.831278 
L 179.0208 284.61974 
L 184.215273 283.151699 
L 189.409745 281.469965 
L 195.902836 279.128746 
L 203.694545 276.065706 
L 215.382109 271.193828 
L 230.965527 264.713372 
L 240.055855 261.191159 
L 247.847564 258.433462 
L 254.340655 256.36661 
L 260.833745 254.54264 
L 267.326836 252.987846 
L 272.521309 251.952944 
L 277.715782 251.114325 
L 282.910255 250.480119 
L 288.104727 250.056979 
L 293.2992 249.850136 
L 298.493673 249.863435 
L 303.688145 250.099392 
L 308.882618 250.559236 
L 314.077091 251.242962 
L 319.271564 252.149371 
L 324.466036 253.276124 
L 329.660509 254.619787 
L 334.854982 256.175878 
L 340.049455 257.938915 
L 345.243927 259.902466 
L 351.737018 262.627616 
L 358.230109 265.638336 
L 364.7232 268.916478 
L 371.216291 272.442089 
L 377.709382 276.19356 
L 385.501091 280.960806 
L 393.2928 285.977398 
L 398.487273 289.438187 
L 398.487273 289.438187 
" clip-path="url(#pece686282c)" style="fill: none; stroke: #ff7f0e; stroke-linecap: square"/>
   </g>
   <g id="line2d_27">
    <path d="M 73.832727 136.282565 
L 76.389062 158.027469 
L 78.945397 177.393555 
L 81.501732 194.162636 
L 84.058067 208.859272 
L 86.614402 221.577719 
L 89.170737 232.447473 
L 91.727072 241.769849 
L 94.283407 249.549652 
L 96.839742 255.997736 
L 99.396077 261.309482 
L 101.952412 265.543126 
L 104.508747 268.815286 
L 107.065082 271.350473 
L 109.621417 273.161249 
L 112.177752 274.323721 
L 114.734087 274.981993 
L 117.290422 275.212153 
L 119.846757 275.043791 
L 122.403092 274.578583 
L 124.959427 273.906147 
L 130.072097 271.964716 
L 135.184767 269.658739 
L 142.853772 266.07618 
L 145.410107 265.155881 
L 147.966442 264.057187 
L 153.079112 262.394307 
L 158.191782 261.205236 
L 163.304452 260.562139 
L 168.417122 260.589117 
L 173.529792 261.086868 
L 176.086127 261.507056 
L 178.642462 262.193318 
L 181.198797 263.06708 
L 183.755132 263.617776 
L 186.311467 264.765706 
L 188.867802 265.687355 
L 199.093142 270.740066 
L 206.762147 275.076502 
L 209.318482 276.536369 
L 211.874817 278.183399 
L 214.431152 279.261859 
L 216.987487 280.906191 
L 219.543822 282.149556 
L 224.656492 285.245999 
L 227.212827 286.181137 
L 229.769162 287.322659 
L 234.881832 289.798599 
L 237.438168 290.989357 
L 242.550838 292.502506 
L 245.107173 293.335126 
L 247.663508 293.784316 
L 250.219843 294.473613 
L 252.776178 294.722152 
L 255.332513 295.096139 
L 257.888848 295.213832 
L 260.445183 295.488 
L 270.670523 294.564328 
L 275.783193 293.56107 
L 280.895863 291.856711 
L 283.452198 291.315626 
L 286.008533 290.133468 
L 288.564868 289.155502 
L 291.121203 287.817543 
L 293.677538 286.972446 
L 296.233873 285.484252 
L 298.790208 284.223687 
L 301.346543 282.663832 
L 303.902878 280.957618 
L 306.459213 279.829079 
L 309.015548 278.332707 
L 314.128218 275.054414 
L 316.684553 273.566725 
L 321.797223 270.142053 
L 324.353558 268.884381 
L 329.466228 265.31421 
L 334.578898 262.73904 
L 337.135233 261.19925 
L 339.691568 259.902855 
L 342.247903 258.277071 
L 344.804238 257.262515 
L 347.360573 256.050006 
L 357.585913 252.130723 
L 360.142248 251.63331 
L 362.698583 250.933895 
L 370.367588 249.985268 
L 372.923923 249.78664 
L 380.592928 250.056424 
L 383.149263 250.580142 
L 385.705598 250.986166 
L 388.261933 251.832612 
L 390.818268 252.326991 
L 395.930938 254.475144 
L 398.487273 255.482786 
L 398.487273 255.482786 
" clip-path="url(#pece686282c)" style="fill: none; stroke: #2ca02c; stroke-linecap: square"/>
   </g>
   <g id="patch_3">
    <path d="M 57.6 307.584 
L 57.6 41.472 
" style="fill: none; stroke: #000000; stroke-width: 0.8; stroke-linejoin: miter; stroke-linecap: square"/>
   </g>
   <g id="patch_4">
    <path d="M 414.72 307.584 
L 414.72 41.472 
" style="fill: none; stroke: #000000; stroke-width: 0.8; stroke-linejoin: miter; stroke-linecap: square"/>
   </g>
   <g id="patch_5">
    <path d="M 57.6 307.584 
L 414.72 307.584 
" style="fill: none; stroke: #000000; stroke-width: 0.8; stroke-linejoin: miter; stroke-linecap: square"/>
   </g>
   <g id="patch_6">
    <path d="M 57.6 41.472 
L 414.72 41.472 
" style="fill: none; stroke: #000000; stroke-width: 0.8; stroke-linejoin: miter; stroke-linecap: square"/>
   </g>
   <g id="line2d_28">
    <path d="M 73.832727 136.780316 
L 76.389062 158.881672 
L 78.945397 177.937338 
L 81.501732 195.039264 
L 84.058067 209.597973 
L 86.614402 222.161126 
L 89.170737 233.047151 
L 91.727072 242.158 
L 94.283407 249.887978 
L 96.839742 256.372187 
L 99.396077 261.533128 
L 101.952412 265.738724 
L 104.508747 269.068408 
L 107.065082 271.452211 
L 109.621417 273.14582 
L 112.177752 274.292443 
L 114.734087 274.885883 
L 117.290422 274.975502 
L 119.846757 274.743741 
L 122.403092 274.234271 
L 127.515762 272.540535 
L 130.072097 271.395978 
L 135.184767 268.968599 
L 142.853772 265.510815 
L 145.410107 264.046901 
L 147.966442 263.352714 
L 150.522777 262.227716 
L 153.079112 261.462205 
L 158.191782 260.332148 
L 160.748117 259.851259 
L 163.304452 259.855305 
L 168.417122 259.603395 
L 170.973457 259.757846 
L 176.086127 260.78235 
L 178.642462 261.206247 
L 181.198797 261.508742 
L 183.755132 263.051568 
L 186.311467 263.55033 
L 188.867802 264.940391 
L 191.424137 265.696123 
L 196.536807 268.236473 
L 199.093142 269.67813 
L 201.649477 270.691505 
L 204.205812 272.089996 
L 206.762147 273.691163 
L 209.318482 275.082572 
L 211.874817 276.226118 
L 214.431152 278.292661 
L 216.987487 279.351225 
L 219.543822 281.155403 
L 222.100157 282.426085 
L 224.656492 283.080985 
L 227.212827 285.087501 
L 229.769162 286.41686 
L 234.881832 288.107055 
L 237.438168 288.673601 
L 239.994503 289.951701 
L 242.550838 290.764762 
L 245.107173 291.213952 
L 247.663508 292.106598 
L 250.219843 292.263747 
L 252.776178 293.098391 
L 257.888848 293.530551 
L 260.445183 293.214904 
L 263.001518 293.58535 
L 268.114188 293.185565 
L 270.670523 292.465074 
L 273.226858 291.990591 
L 275.783193 291.154431 
L 278.339528 291.060849 
L 280.895863 290.267854 
L 283.452198 288.629087 
L 286.008533 288.112619 
L 288.564868 286.952971 
L 291.121203 286.10703 
L 293.677538 284.385136 
L 296.233873 283.412355 
L 298.790208 281.768403 
L 303.902878 279.606908 
L 306.459213 277.531604 
L 309.015548 275.874893 
L 311.571883 274.601324 
L 314.128218 273.169806 
L 316.684553 271.23356 
L 319.240888 270.033233 
L 321.797223 268.58441 
L 324.353558 266.286612 
L 326.909893 265.083545 
L 329.466228 264.120249 
L 332.022563 262.148467 
L 334.578898 260.344794 
L 339.691568 257.861941 
L 342.247903 257.046857 
L 344.804238 255.486833 
L 349.916908 253.099584 
L 352.473243 252.329352 
L 355.029578 251.259322 
L 357.585913 250.861391 
L 360.142248 249.966384 
L 362.698583 249.556312 
L 365.254918 248.813396 
L 367.811253 248.710878 
L 370.367588 248.401975 
L 372.923923 248.550694 
L 375.480258 248.33689 
L 378.036593 248.712564 
L 380.592928 249.326322 
L 383.149263 249.519217 
L 385.705598 250.41962 
L 388.261933 250.729197 
L 390.818268 252.062603 
L 393.374603 252.63994 
L 395.930938 253.772357 
L 398.487273 255.322265 
L 398.487273 255.322265 
" clip-path="url(#pece686282c)" style="fill: none; stroke: #d62728; stroke-linecap: square"/>
   </g>
   <g id="legend_1">
    <g id="patch_7">
     <path d="M 346.580938 111.479813 
L 409.72 111.479813 
Q 411.72 111.479813 411.72 109.479813 
L 411.72 50.472 
Q 411.72 48.472 409.72 48.472 
L 346.580938 48.472 
Q 344.580938 48.472 344.580938 50.472 
L 344.580938 109.479813 
Q 344.580938 111.479813 346.580938 111.479813 
z
" style="fill: #4d4d4d; opacity: 0.5; stroke: #4d4d4d; stroke-linejoin: miter"/>
    </g>
    <g id="patch_8">
     <path d="M 344.580938 109.479813 
L 407.72 109.479813 
Q 409.72 109.479813 409.72 107.479813 
L 409.72 48.472 
Q 409.72 46.472 407.72 46.472 
L 344.580938 46.472 
Q 342.580938 46.472 342.580938 48.472 
L 342.580938 107.479813 
Q 342.580938 109.479813 344.580938 109.479813 
z
" style="fill: #ffffff; stroke: #cccccc; stroke-linejoin: miter"/>
    </g>
    <g id="line2d_29">
     <path d="M 346.580938 54.570438 
L 356.580938 54.570438 
L 366.580938 54.570438 
" style="fill: none; stroke: #1f77b4; stroke-linecap: square"/>
    </g>
    <g id="text_15">
     <!-- model -->
     <g transform="translate(374.580938 58.070438) scale(0.1 -0.1)">
      <defs>
       <path id="DejaVuSans-50" d="M 3328 2828 
Q 3544 3216 3844 3400 
Q 4144 3584 4550 3584 
Q 5097 3584 5394 3201 
Q 5691 2819 5691 2113 
L 5691 0 
L 5113 0 
L 5113 2094 
Q 5113 2597 4934 2840 
Q 4756 3084 4391 3084 
Q 3944 3084 3684 2787 
Q 3425 2491 3425 1978 
L 3425 0 
L 2847 0 
L 2847 2094 
Q 2847 2600 2669 2842 
Q 2491 3084 2119 3084 
Q 1678 3084 1418 2786 
Q 1159 2488 1159 1978 
L 1159 0 
L 581 0 
L 581 3500 
L 1159 3500 
L 1159 2956 
Q 1356 3278 1631 3431 
Q 1906 3584 2284 3584 
Q 2666 3584 2933 3390 
Q 3200 3197 3328 2828 
z
" transform="scale(0.015625)"/>
       <path id="DejaVuSans-52" d="M 1959 3097 
Q 1497 3097 1228 2736 
Q 959 2375 959 1747 
Q 959 1119 1226 758 
Q 1494 397 1959 397 
Q 2419 397 2687 759 
Q 2956 1122 2956 1747 
Q 2956 2369 2687 2733 
Q 2419 3097 1959 3097 
z
M 1959 3584 
Q 2709 3584 3137 3096 
Q 3566 2609 3566 1747 
Q 3566 888 3137 398 
Q 2709 -91 1959 -91 
Q 1206 -91 779 398 
Q 353 888 353 1747 
Q 353 2609 779 3096 
Q 1206 3584 1959 3584 
z
" transform="scale(0.015625)"/>
       <path id="DejaVuSans-47" d="M 2906 2969 
L 2906 4863 
L 3481 4863 
L 3481 0 
L 2906 0 
L 2906 525 
Q 2725 213 2448 61 
Q 2172 -91 1784 -91 
Q 1150 -91 751 415 
Q 353 922 353 1747 
Q 353 2572 751 3078 
Q 1150 3584 1784 3584 
Q 2172 3584 2448 3432 
Q 2725 3281 2906 2969 
z
M 947 1747 
Q 947 1113 1208 752 
Q 1469 391 1925 391 
Q 2381 391 2643 752 
Q 2906 1113 2906 1747 
Q 2906 2381 2643 2742 
Q 2381 3103 1925 3103 
Q 1469 3103 1208 2742 
Q 947 2381 947 1747 
z
" transform="scale(0.015625)"/>
       <path id="DejaVuSans-48" d="M 3597 1894 
L 3597 1613 
L 953 1613 
Q 991 1019 1311 708 
Q 1631 397 2203 397 
Q 2534 397 2845 478 
Q 3156 559 3463 722 
L 3463 178 
Q 3153 47 2828 -22 
Q 2503 -91 2169 -91 
Q 1331 -91 842 396 
Q 353 884 353 1716 
Q 353 2575 817 3079 
Q 1281 3584 2069 3584 
Q 2775 3584 3186 3129 
Q 3597 2675 3597 1894 
z
M 3022 2063 
Q 3016 2534 2758 2815 
Q 2500 3097 2075 3097 
Q 1594 3097 1305 2825 
Q 1016 2553 972 2059 
L 3022 2063 
z
" transform="scale(0.015625)"/>
       <path id="DejaVuSans-4f" d="M 603 4863 
L 1178 4863 
L 1178 0 
L 603 0 
L 603 4863 
z
" transform="scale(0.015625)"/>
      </defs>
      <use xlink:href="#DejaVuSans-50"/>
      <use xlink:href="#DejaVuSans-52" transform="translate(97.40625 0)"/>
      <use xlink:href="#DejaVuSans-47" transform="translate(158.59375 0)"/>
      <use xlink:href="#DejaVuSans-48" transform="translate(222.078125 0)"/>
      <use xlink:href="#DejaVuSans-4f" transform="translate(283.609375 0)"/>
     </g>
    </g>
    <g id="line2d_30">
     <path d="M 346.580938 69.572781 
L 356.580938 69.572781 
L 366.580938 69.572781 
" style="fill: none; stroke: #ff7f0e; stroke-linecap: square"/>
    </g>
    <g id="text_16">
     <!-- $d = $5 -->
     <g transform="translate(374.580938 73.072781) scale(0.1 -0.1)">
      <defs>
       <path id="DejaVuSans-Oblique-47" d="M 2675 525 
Q 2444 222 2128 65 
Q 1813 -91 1428 -91 
Q 903 -91 598 267 
Q 294 625 294 1247 
Q 294 1766 478 2236 
Q 663 2706 1013 3078 
Q 1244 3325 1534 3454 
Q 1825 3584 2144 3584 
Q 2481 3584 2739 3421 
Q 2997 3259 3138 2956 
L 3513 4863 
L 4091 4863 
L 3144 0 
L 2566 0 
L 2675 525 
z
M 891 1350 
Q 891 897 1095 644 
Q 1300 391 1663 391 
Q 1931 391 2161 520 
Q 2391 650 2566 903 
Q 2750 1166 2856 1509 
Q 2963 1853 2963 2188 
Q 2963 2622 2758 2865 
Q 2553 3109 2194 3109 
Q 1922 3109 1687 2981 
Q 1453 2853 1288 2613 
Q 1106 2353 998 2009 
Q 891 1666 891 1350 
z
" transform="scale(0.015625)"/>
       <path id="DejaVuSans-20" d="M 678 2906 
L 4684 2906 
L 4684 2381 
L 678 2381 
L 678 2906 
z
M 678 1631 
L 4684 1631 
L 4684 1100 
L 678 1100 
L 678 1631 
z
" transform="scale(0.015625)"/>
       <path id="DejaVuSans-18" d="M 691 4666 
L 3169 4666 
L 3169 4134 
L 1269 4134 
L 1269 2991 
Q 1406 3038 1543 3061 
Q 1681 3084 1819 3084 
Q 2600 3084 3056 2656 
Q 3513 2228 3513 1497 
Q 3513 744 3044 326 
Q 2575 -91 1722 -91 
Q 1428 -91 1123 -41 
Q 819 9 494 109 
L 494 744 
Q 775 591 1075 516 
Q 1375 441 1709 441 
Q 2250 441 2565 725 
Q 2881 1009 2881 1497 
Q 2881 1984 2565 2268 
Q 2250 2553 1709 2553 
Q 1456 2553 1204 2497 
Q 953 2441 691 2322 
L 691 4666 
z
" transform="scale(0.015625)"/>
      </defs>
      <use xlink:href="#DejaVuSans-Oblique-47" transform="translate(0 0.015625)"/>
      <use xlink:href="#DejaVuSans-20" transform="translate(82.958984 0.015625)"/>
      <use xlink:href="#DejaVuSans-18" transform="translate(186.230469 0.015625)"/>
     </g>
    </g>
    <g id="line2d_31">
     <path d="M 346.580938 84.575125 
L 356.580938 84.575125 
L 366.580938 84.575125 
" style="fill: none; stroke: #2ca02c; stroke-linecap: square"/>
    </g>
    <g id="text_17">
     <!-- $d = $8 -->
     <g transform="translate(374.580938 88.075125) scale(0.1 -0.1)">
      <use xlink:href="#DejaVuSans-Oblique-47" transform="translate(0 0.015625)"/>
      <use xlink:href="#DejaVuSans-20" transform="translate(82.958984 0.015625)"/>
      <use xlink:href="#DejaVuSans-1b" transform="translate(186.230469 0.015625)"/>
     </g>
    </g>
    <g id="line2d_32">
     <path d="M 346.580938 99.577469 
L 356.580938 99.577469 
L 366.580938 99.577469 
" style="fill: none; stroke: #d62728; stroke-linecap: square"/>
    </g>
    <g id="text_18">
     <!-- $d = $9 -->
     <g transform="translate(374.580938 103.077469) scale(0.1 -0.1)">
      <defs>
       <path id="DejaVuSans-1c" d="M 703 97 
L 703 672 
Q 941 559 1184 500 
Q 1428 441 1663 441 
Q 2288 441 2617 861 
Q 2947 1281 2994 2138 
Q 2813 1869 2534 1725 
Q 2256 1581 1919 1581 
Q 1219 1581 811 2004 
Q 403 2428 403 3163 
Q 403 3881 828 4315 
Q 1253 4750 1959 4750 
Q 2769 4750 3195 4129 
Q 3622 3509 3622 2328 
Q 3622 1225 3098 567 
Q 2575 -91 1691 -91 
Q 1453 -91 1209 -44 
Q 966 3 703 97 
z
M 1959 2075 
Q 2384 2075 2632 2365 
Q 2881 2656 2881 3163 
Q 2881 3666 2632 3958 
Q 2384 4250 1959 4250 
Q 1534 4250 1286 3958 
Q 1038 3666 1038 3163 
Q 1038 2656 1286 2365 
Q 1534 2075 1959 2075 
z
" transform="scale(0.015625)"/>
      </defs>
      <use xlink:href="#DejaVuSans-Oblique-47" transform="translate(0 0.015625)"/>
      <use xlink:href="#DejaVuSans-20" transform="translate(82.958984 0.015625)"/>
      <use xlink:href="#DejaVuSans-1c" transform="translate(186.230469 0.015625)"/>
     </g>
    </g>
   </g>
  </g>
  <g id="text_19">
   <!-- Polynomial surrogate model of degree $d$ -->
   <g transform="translate(110.1 16.032) scale(0.12 -0.12)">
    <defs>
     <path id="DejaVuSans-33" d="M 1259 4147 
L 1259 2394 
L 2053 2394 
Q 2494 2394 2734 2622 
Q 2975 2850 2975 3272 
Q 2975 3691 2734 3919 
Q 2494 4147 2053 4147 
L 1259 4147 
z
M 628 4666 
L 2053 4666 
Q 2838 4666 3239 4311 
Q 3641 3956 3641 3272 
Q 3641 2581 3239 2228 
Q 2838 1875 2053 1875 
L 1259 1875 
L 1259 0 
L 628 0 
L 628 4666 
z
" transform="scale(0.015625)"/>
     <path id="DejaVuSans-51" d="M 3513 2113 
L 3513 0 
L 2938 0 
L 2938 2094 
Q 2938 2591 2744 2837 
Q 2550 3084 2163 3084 
Q 1697 3084 1428 2787 
Q 1159 2491 1159 1978 
L 1159 0 
L 581 0 
L 581 3500 
L 1159 3500 
L 1159 2956 
Q 1366 3272 1645 3428 
Q 1925 3584 2291 3584 
Q 2894 3584 3203 3211 
Q 3513 2838 3513 2113 
z
" transform="scale(0.015625)"/>
     <path id="DejaVuSans-4c" d="M 603 3500 
L 1178 3500 
L 1178 0 
L 603 0 
L 603 3500 
z
M 603 4863 
L 1178 4863 
L 1178 4134 
L 603 4134 
L 603 4863 
z
" transform="scale(0.015625)"/>
     <path id="DejaVuSans-44" d="M 2194 1759 
Q 1497 1759 1228 1600 
Q 959 1441 959 1056 
Q 959 750 1161 570 
Q 1363 391 1709 391 
Q 2188 391 2477 730 
Q 2766 1069 2766 1631 
L 2766 1759 
L 2194 1759 
z
M 3341 1997 
L 3341 0 
L 2766 0 
L 2766 531 
Q 2569 213 2275 61 
Q 1981 -91 1556 -91 
Q 1019 -91 701 211 
Q 384 513 384 1019 
Q 384 1609 779 1909 
Q 1175 2209 1959 2209 
L 2766 2209 
L 2766 2266 
Q 2766 2663 2505 2880 
Q 2244 3097 1772 3097 
Q 1472 3097 1187 3025 
Q 903 2953 641 2809 
L 641 3341 
Q 956 3463 1253 3523 
Q 1550 3584 1831 3584 
Q 2591 3584 2966 3190 
Q 3341 2797 3341 1997 
z
" transform="scale(0.015625)"/>
     <path id="DejaVuSans-3" transform="scale(0.015625)"/>
     <path id="DejaVuSans-56" d="M 2834 3397 
L 2834 2853 
Q 2591 2978 2328 3040 
Q 2066 3103 1784 3103 
Q 1356 3103 1142 2972 
Q 928 2841 928 2578 
Q 928 2378 1081 2264 
Q 1234 2150 1697 2047 
L 1894 2003 
Q 2506 1872 2764 1633 
Q 3022 1394 3022 966 
Q 3022 478 2636 193 
Q 2250 -91 1575 -91 
Q 1294 -91 989 -36 
Q 684 19 347 128 
L 347 722 
Q 666 556 975 473 
Q 1284 391 1588 391 
Q 1994 391 2212 530 
Q 2431 669 2431 922 
Q 2431 1156 2273 1281 
Q 2116 1406 1581 1522 
L 1381 1569 
Q 847 1681 609 1914 
Q 372 2147 372 2553 
Q 372 3047 722 3315 
Q 1072 3584 1716 3584 
Q 2034 3584 2315 3537 
Q 2597 3491 2834 3397 
z
" transform="scale(0.015625)"/>
     <path id="DejaVuSans-58" d="M 544 1381 
L 544 3500 
L 1119 3500 
L 1119 1403 
Q 1119 906 1312 657 
Q 1506 409 1894 409 
Q 2359 409 2629 706 
Q 2900 1003 2900 1516 
L 2900 3500 
L 3475 3500 
L 3475 0 
L 2900 0 
L 2900 538 
Q 2691 219 2414 64 
Q 2138 -91 1772 -91 
Q 1169 -91 856 284 
Q 544 659 544 1381 
z
M 1991 3584 
L 1991 3584 
z
" transform="scale(0.015625)"/>
     <path id="DejaVuSans-55" d="M 2631 2963 
Q 2534 3019 2420 3045 
Q 2306 3072 2169 3072 
Q 1681 3072 1420 2755 
Q 1159 2438 1159 1844 
L 1159 0 
L 581 0 
L 581 3500 
L 1159 3500 
L 1159 2956 
Q 1341 3275 1631 3429 
Q 1922 3584 2338 3584 
Q 2397 3584 2469 3576 
Q 2541 3569 2628 3553 
L 2631 2963 
z
" transform="scale(0.015625)"/>
     <path id="DejaVuSans-4a" d="M 2906 1791 
Q 2906 2416 2648 2759 
Q 2391 3103 1925 3103 
Q 1463 3103 1205 2759 
Q 947 2416 947 1791 
Q 947 1169 1205 825 
Q 1463 481 1925 481 
Q 2391 481 2648 825 
Q 2906 1169 2906 1791 
z
M 3481 434 
Q 3481 -459 3084 -895 
Q 2688 -1331 1869 -1331 
Q 1566 -1331 1297 -1286 
Q 1028 -1241 775 -1147 
L 775 -588 
Q 1028 -725 1275 -790 
Q 1522 -856 1778 -856 
Q 2344 -856 2625 -561 
Q 2906 -266 2906 331 
L 2906 616 
Q 2728 306 2450 153 
Q 2172 0 1784 0 
Q 1141 0 747 490 
Q 353 981 353 1791 
Q 353 2603 747 3093 
Q 1141 3584 1784 3584 
Q 2172 3584 2450 3431 
Q 2728 3278 2906 2969 
L 2906 3500 
L 3481 3500 
L 3481 434 
z
" transform="scale(0.015625)"/>
     <path id="DejaVuSans-57" d="M 1172 4494 
L 1172 3500 
L 2356 3500 
L 2356 3053 
L 1172 3053 
L 1172 1153 
Q 1172 725 1289 603 
Q 1406 481 1766 481 
L 2356 481 
L 2356 0 
L 1766 0 
Q 1100 0 847 248 
Q 594 497 594 1153 
L 594 3053 
L 172 3053 
L 172 3500 
L 594 3500 
L 594 4494 
L 1172 4494 
z
" transform="scale(0.015625)"/>
     <path id="DejaVuSans-49" d="M 2375 4863 
L 2375 4384 
L 1825 4384 
Q 1516 4384 1395 4259 
Q 1275 4134 1275 3809 
L 1275 3500 
L 2222 3500 
L 2222 3053 
L 1275 3053 
L 1275 0 
L 697 0 
L 697 3053 
L 147 3053 
L 147 3500 
L 697 3500 
L 697 3744 
Q 697 4328 969 4595 
Q 1241 4863 1831 4863 
L 2375 4863 
z
" transform="scale(0.015625)"/>
    </defs>
    <use xlink:href="#DejaVuSans-33" transform="translate(0 0.015625)"/>
    <use xlink:href="#DejaVuSans-52" transform="translate(56.302734 0.015625)"/>
    <use xlink:href="#DejaVuSans-4f" transform="translate(117.484375 0.015625)"/>
    <use xlink:href="#DejaVuSans-5c" transform="translate(145.267578 0.015625)"/>
    <use xlink:href="#DejaVuSans-51" transform="translate(204.447266 0.015625)"/>
    <use xlink:href="#DejaVuSans-52" transform="translate(267.826172 0.015625)"/>
    <use xlink:href="#DejaVuSans-50" transform="translate(329.007812 0.015625)"/>
    <use xlink:href="#DejaVuSans-4c" transform="translate(426.419922 0.015625)"/>
    <use xlink:href="#DejaVuSans-44" transform="translate(454.203125 0.015625)"/>
    <use xlink:href="#DejaVuSans-4f" transform="translate(515.482422 0.015625)"/>
    <use xlink:href="#DejaVuSans-3" transform="translate(543.265625 0.015625)"/>
    <use xlink:href="#DejaVuSans-56" transform="translate(575.052734 0.015625)"/>
    <use xlink:href="#DejaVuSans-58" transform="translate(627.152344 0.015625)"/>
    <use xlink:href="#DejaVuSans-55" transform="translate(690.53125 0.015625)"/>
    <use xlink:href="#DejaVuSans-55" transform="translate(729.644531 0.015625)"/>
    <use xlink:href="#DejaVuSans-52" transform="translate(768.757812 0.015625)"/>
    <use xlink:href="#DejaVuSans-4a" transform="translate(829.939453 0.015625)"/>
    <use xlink:href="#DejaVuSans-44" transform="translate(893.416016 0.015625)"/>
    <use xlink:href="#DejaVuSans-57" transform="translate(954.695312 0.015625)"/>
    <use xlink:href="#DejaVuSans-48" transform="translate(993.904297 0.015625)"/>
    <use xlink:href="#DejaVuSans-3" transform="translate(1055.427734 0.015625)"/>
    <use xlink:href="#DejaVuSans-50" transform="translate(1087.214844 0.015625)"/>
    <use xlink:href="#DejaVuSans-52" transform="translate(1184.626953 0.015625)"/>
    <use xlink:href="#DejaVuSans-47" transform="translate(1245.808594 0.015625)"/>
    <use xlink:href="#DejaVuSans-48" transform="translate(1309.285156 0.015625)"/>
    <use xlink:href="#DejaVuSans-4f" transform="translate(1370.808594 0.015625)"/>
    <use xlink:href="#DejaVuSans-3" transform="translate(1398.591797 0.015625)"/>
    <use xlink:href="#DejaVuSans-52" transform="translate(1430.378906 0.015625)"/>
    <use xlink:href="#DejaVuSans-49" transform="translate(1491.560547 0.015625)"/>
    <use xlink:href="#DejaVuSans-3" transform="translate(1526.765625 0.015625)"/>
    <use xlink:href="#DejaVuSans-47" transform="translate(1558.552734 0.015625)"/>
    <use xlink:href="#DejaVuSans-48" transform="translate(1622.029297 0.015625)"/>
    <use xlink:href="#DejaVuSans-4a" transform="translate(1683.552734 0.015625)"/>
    <use xlink:href="#DejaVuSans-55" transform="translate(1747.029297 0.015625)"/>
    <use xlink:href="#DejaVuSans-48" transform="translate(1786.142578 0.015625)"/>
    <use xlink:href="#DejaVuSans-48" transform="translate(1847.666016 0.015625)"/>
    <use xlink:href="#DejaVuSans-3" transform="translate(1909.189453 0.015625)"/>
    <use xlink:href="#DejaVuSans-Oblique-47" transform="translate(1940.976562 0.015625)"/>
   </g>
  </g>
 </g>
 <defs>
  <clipPath id="pece686282c">
   <rect x="57.6" y="41.472" width="357.12" height="266.112"/>
  </clipPath>
 </defs>
</svg>
