<?xml version="1.0" encoding="utf-8" standalone="no"?>
<!DOCTYPE svg PUBLIC "-//W3C//DTD SVG 1.1//EN"
  "http://www.w3.org/Graphics/SVG/1.1/DTD/svg11.dtd">
<svg xmlns:xlink="http://www.w3.org/1999/xlink" width="720pt" height="288pt" viewBox="0 0 720 288" xmlns="http://www.w3.org/2000/svg" version="1.1">
 <metadata>
  <rdf:RDF xmlns:dc="http://purl.org/dc/elements/1.1/" xmlns:cc="http://creativecommons.org/ns#" xmlns:rdf="http://www.w3.org/1999/02/22-rdf-syntax-ns#">
   <cc:Work>
    <dc:type rdf:resource="http://purl.org/dc/dcmitype/StillImage"/>
    <dc:date>2022-01-01T00:00:00+00:00</dc:date>
    <dc:format>image/svg+xml</dc:format>
    <dc:creator>
     <cc:Agent>
      <dc:title>Matplotlib v3.10.9, https://matplotlib.org/</dc:title>
     </cc:Agent>
    </dc:creator>
   </cc:Work>
  </rdf:RDF>
 </metadata>
 <defs>
  <style type="text/css">*{stroke-linejoin: round; stroke-linecap: butt}</style>
 </defs>
 <g id="figure_1">
  <g id="patch_1">
   <path d="M 0 288 
L 720 288 
L 720 0 
L 0 0 
z
" style="fill: #ffffff"/>
  </g>
  <g id="axes_1">
   <g id="patch_2">
    <path d="M 90 256.32 
L 254.117647 256.32 
L 254.117647 34.56 
L 90 34.56 
z
" style="fill: #ffffff"/>
   </g>
   <g id="matplotlib.axis_1">
    <g id="xtick_1">
     <g id="line2d_1">
      <path d="M 97.912595 256.32 
L 97.912595 34.56 
" clip-path="url(#pf054c2f544)" style="fill: none; stroke: #b0b0b0; stroke-width: 0.8; stroke-linecap: square"/>
     </g>
     <g id="line2d_2">
      <defs>
       <path id="m4a92d99fee" d="M 0 0 
L 0 3.5 
" style="stroke: #000000; stroke-width: 0.8"/>
      </defs>
      <g>
       <use xlink:href="#m4a92d99fee" x="97.912595" y="256.32" style="stroke: #000000; stroke-width: 0.8"/>
      </g>
     </g>
     <g id="text_1">
      <!-- −4 -->
      <g transform="translate(90.541501 270.918437) scale(0.1 -0.1)">
       <defs>
        <path id="DejaVuSans-2212" d="M 678 2272 
L 4684 2272 
L 4684 1741 
L 678 1741 
L 678 2272 
z
" transform="scale(0.015625)"/>
        <path id="DejaVuSans-34" d="M 2419 4116 
L 825 1625 
L 2419 1625 
L 2419 4116 
z
M 2253 4666 
L 3047 4666 
L 3047 1625 
L 3713 1625 
L 3713 1100 
L 3047 1100 
L 3047 0 
L 2419 0 
L 2419 1100 
L 313 1100 
L 313 1709 
L 2253 4666 
z
" transform="scale(0.015625)"/>
       </defs>
       <use xlink:href="#DejaVuSans-2212"/>
       <use xlink:href="#DejaVuSans-34" transform="translate(83.789062 0)"/>
      </g>
     </g>
    </g>
    <g id="xtick_2">
     <g id="line2d_3">
      <path d="M 131.786051 256.32 
L 131.786051 34.56 
" clip-path="url(#pf054c2f544)" style="fill: none; stroke: #b0b0b0; stroke-width: 0.8; stroke-linecap: square"/>
     </g>
     <g id="line2d_4">
      <g>
       <use xlink:href="#m4a92d99fee" x="131.786051" y="256.32" style="stroke: #000000; stroke-width: 0.8"/>
      </g>
     </g>
     <g id="text_2">
      <!-- −2 -->
      <g transform="translate(124.414957 270.918437) scale(0.1 -0.1)">
       <defs>
        <path id="DejaVuSans-32" d="M 1228 531 
L 3431 531 
L 3431 0 
L 469 0 
L 469 531 
Q 828 903 1448 1529 
Q 2069 2156 2228 2338 
Q 2531 2678 2651 2914 
Q 2772 3150 2772 3378 
Q 2772 3750 2511 3984 
Q 2250 4219 1831 4219 
Q 1534 4219 1204 4116 
Q 875 4013 500 3803 
L 500 4441 
Q 881 4594 1212 4672 
Q 1544 4750 1819 4750 
Q 2544 4750 2975 4387 
Q 3406 4025 3406 3419 
Q 3406 3131 3298 2873 
Q 3191 2616 2906 2266 
Q 2828 2175 2409 1742 
Q 1991 1309 1228 531 
z
" transform="scale(0.015625)"/>
       </defs>
       <use xlink:href="#DejaVuSans-2212"/>
       <use xlink:href="#DejaVuSans-32" transform="translate(83.789062 0)"/>
      </g>
     </g>
    </g>
    <g id="xtick_3">
     <g id="line2d_5">
      <path d="M 165.659506 256.32 
L 165.659506 34.56 
" clip-path="url(#pf054c2f544)" style="fill: none; stroke: #b0b0b0; stroke-width: 0.8; stroke-linecap: square"/>
     </g>
     <g id="line2d_6">
      <g>
       <use xlink:href="#m4a92d99fee" x="165.659506" y="256.32" style="stroke: #000000; stroke-width: 0.8"/>
      </g>
     </g>
     <g id="text_3">
      <!-- 0 -->
      <g transform="translate(162.478256 270.918437) scale(0.1 -0.1)">
       <defs>
        <path id="DejaVuSans-30" d="M 2034 4250 
Q 1547 4250 1301 3770 
Q 1056 3291 1056 2328 
Q 1056 1369 1301 889 
Q 1547 409 2034 409 
Q 2525 409 2770 889 
Q 3016 1369 3016 2328 
Q 3016 3291 2770 3770 
Q 2525 4250 2034 4250 
z
M 2034 4750 
Q 2819 4750 3233 4129 
Q 3647 3509 3647 2328 
Q 3647 1150 3233 529 
Q 2819 -91 2034 -91 
Q 1250 -91 836 529 
Q 422 1150 422 2328 
Q 422 3509 836 4129 
Q 1250 4750 2034 4750 
z
" transform="scale(0.015625)"/>
       </defs>
       <use xlink:href="#DejaVuSans-30"/>
      </g>
     </g>
    </g>
    <g id="xtick_4">
     <g id="line2d_7">
      <path d="M 199.532962 256.32 
L 199.532962 34.56 
" clip-path="url(#pf054c2f544)" style="fill: none; stroke: #b0b0b0; stroke-width: 0.8; stroke-linecap: square"/>
     </g>
     <g id="line2d_8">
      <g>
       <use xlink:href="#m4a92d99fee" x="199.532962" y="256.32" style="stroke: #000000; stroke-width: 0.8"/>
      </g>
     </g>
     <g id="text_4">
      <!-- 2 -->
      <g transform="translate(196.351712 270.918437) scale(0.1 -0.1)">
       <use xlink:href="#DejaVuSans-32"/>
      </g>
     </g>
    </g>
    <g id="xtick_5">
     <g id="line2d_9">
      <path d="M 233.406417 256.32 
L 233.406417 34.56 
" clip-path="url(#pf054c2f544)" style="fill: none; stroke: #b0b0b0; stroke-width: 0.8; stroke-linecap: square"/>
     </g>
     <g id="line2d_10">
      <g>
       <use xlink:href="#m4a92d99fee" x="233.406417" y="256.32" style="stroke: #000000; stroke-width: 0.8"/>
      </g>
     </g>
     <g id="text_5">
      <!-- 4 -->
      <g transform="translate(230.225167 270.918437) scale(0.1 -0.1)">
       <use xlink:href="#DejaVuSans-34"/>
      </g>
     </g>
    </g>
    <g id="text_6">
     <!-- X -->
     <g transform="translate(168.633824 284.596563) scale(0.1 -0.1)">
      <defs>
       <path id="DejaVuSans-58" d="M 403 4666 
L 1081 4666 
L 2241 2931 
L 3406 4666 
L 4084 4666 
L 2584 2425 
L 4184 0 
L 3506 0 
L 2194 1984 
L 872 0 
L 191 0 
L 1856 2491 
L 403 4666 
z
" transform="scale(0.015625)"/>
      </defs>
      <use xlink:href="#DejaVuSans-58"/>
     </g>
    </g>
   </g>
   <g id="matplotlib.axis_2">
    <g id="ytick_1">
     <g id="line2d_11">
      <path d="M 90 246.24 
L 254.117647 246.24 
" clip-path="url(#pf054c2f544)" style="fill: none; stroke: #b0b0b0; stroke-width: 0.8; stroke-linecap: square"/>
     </g>
     <g id="line2d_12">
      <defs>
       <path id="mb3cb5c074b" d="M 0 0 
L -3.5 0 
" style="stroke: #000000; stroke-width: 0.8"/>
      </defs>
      <g>
       <use xlink:href="#mb3cb5c074b" x="90" y="246.24" style="stroke: #000000; stroke-width: 0.8"/>
      </g>
     </g>
     <g id="text_7">
      <!-- 0.00 -->
      <g transform="translate(60.734375 250.039219) scale(0.1 -0.1)">
       <defs>
        <path id="DejaVuSans-2e" d="M 684 794 
L 1344 794 
L 1344 0 
L 684 0 
L 684 794 
z
" transform="scale(0.015625)"/>
       </defs>
       <use xlink:href="#DejaVuSans-30"/>
       <use xlink:href="#DejaVuSans-2e" transform="translate(63.623047 0)"/>
       <use xlink:href="#DejaVuSans-30" transform="translate(95.410156 0)"/>
       <use xlink:href="#DejaVuSans-30" transform="translate(159.033203 0)"/>
      </g>
     </g>
    </g>
    <g id="ytick_2">
     <g id="line2d_13">
      <path d="M 90 221.07136 
L 254.117647 221.07136 
" clip-path="url(#pf054c2f544)" style="fill: none; stroke: #b0b0b0; stroke-width: 0.8; stroke-linecap: square"/>
     </g>
     <g id="line2d_14">
      <g>
       <use xlink:href="#mb3cb5c074b" x="90" y="221.07136" style="stroke: #000000; stroke-width: 0.8"/>
      </g>
     </g>
     <g id="text_8">
      <!-- 0.05 -->
      <g transform="translate(60.734375 224.870579) scale(0.1 -0.1)">
       <defs>
        <path id="DejaVuSans-35" d="M 691 4666 
L 3169 4666 
L 3169 4134 
L 1269 4134 
L 1269 2991 
Q 1406 3038 1543 3061 
Q 1681 3084 1819 3084 
Q 2600 3084 3056 2656 
Q 3513 2228 3513 1497 
Q 3513 744 3044 326 
Q 2575 -91 1722 -91 
Q 1428 -91 1123 -41 
Q 819 9 494 109 
L 494 744 
Q 775 591 1075 516 
Q 1375 441 1709 441 
Q 2250 441 2565 725 
Q 2881 1009 2881 1497 
Q 2881 1984 2565 2268 
Q 2250 2553 1709 2553 
Q 1456 2553 1204 2497 
Q 953 2441 691 2322 
L 691 4666 
z
" transform="scale(0.015625)"/>
       </defs>
       <use xlink:href="#DejaVuSans-30"/>
       <use xlink:href="#DejaVuSans-2e" transform="translate(63.623047 0)"/>
       <use xlink:href="#DejaVuSans-30" transform="translate(95.410156 0)"/>
       <use xlink:href="#DejaVuSans-35" transform="translate(159.033203 0)"/>
      </g>
     </g>
    </g>
    <g id="ytick_3">
     <g id="line2d_15">
      <path d="M 90 195.90272 
L 254.117647 195.90272 
" clip-path="url(#pf054c2f544)" style="fill: none; stroke: #b0b0b0; stroke-width: 0.8; stroke-linecap: square"/>
     </g>
     <g id="line2d_16">
      <g>
       <use xlink:href="#mb3cb5c074b" x="90" y="195.90272" style="stroke: #000000; stroke-width: 0.8"/>
      </g>
     </g>
     <g id="text_9">
      <!-- 0.10 -->
      <g transform="translate(60.734375 199.701939) scale(0.1 -0.1)">
       <defs>
        <path id="DejaVuSans-31" d="M 794 531 
L 1825 531 
L 1825 4091 
L 703 3866 
L 703 4441 
L 1819 4666 
L 2450 4666 
L 2450 531 
L 3481 531 
L 3481 0 
L 794 0 
L 794 531 
z
" transform="scale(0.015625)"/>
       </defs>
       <use xlink:href="#DejaVuSans-30"/>
       <use xlink:href="#DejaVuSans-2e" transform="translate(63.623047 0)"/>
       <use xlink:href="#DejaVuSans-31" transform="translate(95.410156 0)"/>
       <use xlink:href="#DejaVuSans-30" transform="translate(159.033203 0)"/>
      </g>
     </g>
    </g>
    <g id="ytick_4">
     <g id="line2d_17">
      <path d="M 90 170.73408 
L 254.117647 170.73408 
" clip-path="url(#pf054c2f544)" style="fill: none; stroke: #b0b0b0; stroke-width: 0.8; stroke-linecap: square"/>
     </g>
     <g id="line2d_18">
      <g>
       <use xlink:href="#mb3cb5c074b" x="90" y="170.73408" style="stroke: #000000; stroke-width: 0.8"/>
      </g>
     </g>
     <g id="text_10">
      <!-- 0.15 -->
      <g transform="translate(60.734375 174.533299) scale(0.1 -0.1)">
       <use xlink:href="#DejaVuSans-30"/>
       <use xlink:href="#DejaVuSans-2e" transform="translate(63.623047 0)"/>
       <use xlink:href="#DejaVuSans-31" transform="translate(95.410156 0)"/>
       <use xlink:href="#DejaVuSans-35" transform="translate(159.033203 0)"/>
      </g>
     </g>
    </g>
    <g id="ytick_5">
     <g id="line2d_19">
      <path d="M 90 145.56544 
L 254.117647 145.56544 
" clip-path="url(#pf054c2f544)" style="fill: none; stroke: #b0b0b0; stroke-width: 0.8; stroke-linecap: square"/>
     </g>
     <g id="line2d_20">
      <g>
       <use xlink:href="#mb3cb5c074b" x="90" y="145.56544" style="stroke: #000000; stroke-width: 0.8"/>
      </g>
     </g>
     <g id="text_11">
      <!-- 0.20 -->
      <g transform="translate(60.734375 149.364659) scale(0.1 -0.1)">
       <use xlink:href="#DejaVuSans-30"/>
       <use xlink:href="#DejaVuSans-2e" transform="translate(63.623047 0)"/>
       <use xlink:href="#DejaVuSans-32" transform="translate(95.410156 0)"/>
       <use xlink:href="#DejaVuSans-30" transform="translate(159.033203 0)"/>
      </g>
     </g>
    </g>
    <g id="ytick_6">
     <g id="line2d_21">
      <path d="M 90 120.3968 
L 254.117647 120.3968 
" clip-path="url(#pf054c2f544)" style="fill: none; stroke: #b0b0b0; stroke-width: 0.8; stroke-linecap: square"/>
     </g>
     <g id="line2d_22">
      <g>
       <use xlink:href="#mb3cb5c074b" x="90" y="120.3968" style="stroke: #000000; stroke-width: 0.8"/>
      </g>
     </g>
     <g id="text_12">
      <!-- 0.25 -->
      <g transform="translate(60.734375 124.196019) scale(0.1 -0.1)">
       <use xlink:href="#DejaVuSans-30"/>
       <use xlink:href="#DejaVuSans-2e" transform="translate(63.623047 0)"/>
       <use xlink:href="#DejaVuSans-32" transform="translate(95.410156 0)"/>
       <use xlink:href="#DejaVuSans-35" transform="translate(159.033203 0)"/>
      </g>
     </g>
    </g>
    <g id="ytick_7">
     <g id="line2d_23">
      <path d="M 90 95.22816 
L 254.117647 95.22816 
" clip-path="url(#pf054c2f544)" style="fill: none; stroke: #b0b0b0; stroke-width: 0.8; stroke-linecap: square"/>
     </g>
     <g id="line2d_24">
      <g>
       <use xlink:href="#mb3cb5c074b" x="90" y="95.22816" style="stroke: #000000; stroke-width: 0.8"/>
      </g>
     </g>
     <g id="text_13">
      <!-- 0.30 -->
      <g transform="translate(60.734375 99.027379) scale(0.1 -0.1)">
       <defs>
        <path id="DejaVuSans-33" d="M 2597 2516 
Q 3050 2419 3304 2112 
Q 3559 1806 3559 1356 
Q 3559 666 3084 287 
Q 2609 -91 1734 -91 
Q 1441 -91 1130 -33 
Q 819 25 488 141 
L 488 750 
Q 750 597 1062 519 
Q 1375 441 1716 441 
Q 2309 441 2620 675 
Q 2931 909 2931 1356 
Q 2931 1769 2642 2001 
Q 2353 2234 1838 2234 
L 1294 2234 
L 1294 2753 
L 1863 2753 
Q 2328 2753 2575 2939 
Q 2822 3125 2822 3475 
Q 2822 3834 2567 4026 
Q 2313 4219 1838 4219 
Q 1578 4219 1281 4162 
Q 984 4106 628 3988 
L 628 4550 
Q 988 4650 1302 4700 
Q 1616 4750 1894 4750 
Q 2613 4750 3031 4423 
Q 3450 4097 3450 3541 
Q 3450 3153 3228 2886 
Q 3006 2619 2597 2516 
z
" transform="scale(0.015625)"/>
       </defs>
       <use xlink:href="#DejaVuSans-30"/>
       <use xlink:href="#DejaVuSans-2e" transform="translate(63.623047 0)"/>
       <use xlink:href="#DejaVuSans-33" transform="translate(95.410156 0)"/>
       <use xlink:href="#DejaVuSans-30" transform="translate(159.033203 0)"/>
      </g>
     </g>
    </g>
    <g id="ytick_8">
     <g id="line2d_25">
      <path d="M 90 70.05952 
L 254.117647 70.05952 
" clip-path="url(#pf054c2f544)" style="fill: none; stroke: #b0b0b0; stroke-width: 0.8; stroke-linecap: square"/>
     </g>
     <g id="line2d_26">
      <g>
       <use xlink:href="#mb3cb5c074b" x="90" y="70.05952" style="stroke: #000000; stroke-width: 0.8"/>
      </g>
     </g>
     <g id="text_14">
      <!-- 0.35 -->
      <g transform="translate(60.734375 73.858739) scale(0.1 -0.1)">
       <use xlink:href="#DejaVuSans-30"/>
       <use xlink:href="#DejaVuSans-2e" transform="translate(63.623047 0)"/>
       <use xlink:href="#DejaVuSans-33" transform="translate(95.410156 0)"/>
       <use xlink:href="#DejaVuSans-35" transform="translate(159.033203 0)"/>
      </g>
     </g>
    </g>
    <g id="ytick_9">
     <g id="line2d_27">
      <path d="M 90 44.890881 
L 254.117647 44.890881 
" clip-path="url(#pf054c2f544)" style="fill: none; stroke: #b0b0b0; stroke-width: 0.8; stroke-linecap: square"/>
     </g>
     <g id="line2d_28">
      <g>
       <use xlink:href="#mb3cb5c074b" x="90" y="44.890881" style="stroke: #000000; stroke-width: 0.8"/>
      </g>
     </g>
     <g id="text_15">
      <!-- 0.40 -->
      <g transform="translate(60.734375 48.690099) scale(0.1 -0.1)">
       <use xlink:href="#DejaVuSans-30"/>
       <use xlink:href="#DejaVuSans-2e" transform="translate(63.623047 0)"/>
       <use xlink:href="#DejaVuSans-34" transform="translate(95.410156 0)"/>
       <use xlink:href="#DejaVuSans-30" transform="translate(159.033203 0)"/>
      </g>
     </g>
    </g>
    <g id="text_16">
     <!-- PDF -->
     <g transform="translate(54.654688 155.180625) rotate(-90) scale(0.1 -0.1)">
      <defs>
       <path id="DejaVuSans-50" d="M 1259 4147 
L 1259 2394 
L 2053 2394 
Q 2494 2394 2734 2622 
Q 2975 2850 2975 3272 
Q 2975 3691 2734 3919 
Q 2494 4147 2053 4147 
L 1259 4147 
z
M 628 4666 
L 2053 4666 
Q 2838 4666 3239 4311 
Q 3641 3956 3641 3272 
Q 3641 2581 3239 2228 
Q 2838 1875 2053 1875 
L 1259 1875 
L 1259 0 
L 628 0 
L 628 4666 
z
" transform="scale(0.015625)"/>
       <path id="DejaVuSans-44" d="M 1259 4147 
L 1259 519 
L 2022 519 
Q 2988 519 3436 956 
Q 3884 1394 3884 2338 
Q 3884 3275 3436 3711 
Q 2988 4147 2022 4147 
L 1259 4147 
z
M 628 4666 
L 1925 4666 
Q 3281 4666 3915 4102 
Q 4550 3538 4550 2338 
Q 4550 1131 3912 565 
Q 3275 0 1925 0 
L 628 0 
L 628 4666 
z
" transform="scale(0.015625)"/>
       <path id="DejaVuSans-46" d="M 628 4666 
L 3309 4666 
L 3309 4134 
L 1259 4134 
L 1259 2759 
L 3109 2759 
L 3109 2228 
L 1259 2228 
L 1259 0 
L 628 0 
L 628 4666 
z
" transform="scale(0.015625)"/>
      </defs>
      <use xlink:href="#DejaVuSans-50"/>
      <use xlink:href="#DejaVuSans-44" transform="translate(60.302734 0)"/>
      <use xlink:href="#DejaVuSans-46" transform="translate(137.304688 0)"/>
     </g>
    </g>
   </g>
   <g id="line2d_29">
    <path d="M 97.459893 246.223737 
L 102.122326 246.089761 
L 104.453543 245.879949 
L 106.784759 245.495758 
L 109.115976 244.899205 
L 112.612801 243.661759 
L 119.606451 240.811369 
L 121.937667 239.563312 
L 123.103275 238.74668 
L 124.268884 237.753026 
L 125.434492 236.556003 
L 126.6001 235.141079 
L 127.765709 233.505096 
L 128.931317 231.652441 
L 131.262533 227.312469 
L 133.59375 222.053176 
L 134.759358 218.997464 
L 135.924967 215.59321 
L 137.090575 211.793587 
L 138.256183 207.565979 
L 140.5874 197.812047 
L 142.918616 186.536428 
L 146.415441 167.73225 
L 152.243483 135.353826 
L 154.574699 123.95077 
L 155.740307 118.969105 
L 156.905916 114.555297 
L 158.071524 110.735662 
L 159.237132 107.502385 
L 160.402741 104.81789 
L 161.568349 102.624043 
L 162.733957 100.854771 
L 163.899566 99.450061 
L 165.065174 98.368743 
L 166.230782 97.597101 
L 167.39639 97.150423 
L 168.561999 97.065522 
L 169.727607 97.384113 
L 170.893215 98.129516 
L 172.058824 99.281606 
L 174.39004 102.397187 
L 175.555648 103.979488 
L 176.721257 105.234323 
L 177.886865 105.884072 
L 179.052473 105.687746 
L 180.218082 104.487956 
L 181.38369 102.251984 
L 182.549298 99.099511 
L 186.046123 87.636107 
L 187.211731 84.863927 
L 188.37734 83.55417 
L 189.542948 84.171283 
L 190.708556 87.025023 
L 191.874164 92.231305 
L 193.039773 99.700739 
L 194.205381 109.155748 
L 196.536598 132.234534 
L 200.033422 169.472612 
L 202.364639 191.124074 
L 203.530247 200.320647 
L 204.695856 208.362899 
L 205.861464 215.288778 
L 207.027072 221.179241 
L 208.19268 226.137258 
L 209.358289 230.271858 
L 210.523897 233.688045 
L 211.689505 236.48204 
L 212.855114 238.740451 
L 214.020722 240.541551 
L 215.18633 241.956979 
L 216.351939 243.052764 
L 217.517547 243.889277 
L 218.683155 244.520367 
L 219.848763 244.992312 
L 222.17998 245.602894 
L 224.511197 245.934065 
L 228.008021 246.155511 
L 233.836063 246.23513 
L 246.657754 246.24 
L 246.657754 246.24 
" clip-path="url(#pf054c2f544)" style="fill: none; stroke: #1f77b4; stroke-width: 2; stroke-linecap: square"/>
   </g>
   <g id="line2d_30">
    <path d="M 98.430224 246.182932 
L 105.306783 245.976653 
L 108.745063 245.708199 
L 112.183342 245.209446 
L 114.475528 244.67442 
L 116.767715 243.904794 
L 119.059901 242.820047 
L 121.352087 241.322318 
L 122.49818 240.383373 
L 123.644274 239.297018 
L 124.790367 238.046757 
L 125.93646 236.615528 
L 127.082553 234.985938 
L 128.228646 233.140551 
L 129.374739 231.062226 
L 130.520832 228.734504 
L 131.666926 226.142034 
L 133.959112 220.109879 
L 136.251298 212.883842 
L 138.543484 204.432338 
L 140.835671 194.790515 
L 143.127857 184.074211 
L 146.566136 166.460379 
L 153.442695 130.127595 
L 155.734882 119.387784 
L 158.027068 110.169874 
L 159.173161 106.27735 
L 160.319254 102.93118 
L 161.465347 100.175321 
L 162.611441 98.046428 
L 163.757534 96.572928 
L 164.903627 95.774127 
L 166.04972 95.659233 
L 167.195813 96.226045 
L 168.341906 97.458902 
L 169.487999 99.325269 
L 170.634093 101.770144 
L 171.780186 104.707436 
L 176.364558 117.820855 
L 177.510651 119.894456 
L 178.656745 120.585032 
L 179.802838 119.367632 
L 180.948931 115.783604 
L 182.095024 109.554512 
L 183.241117 100.707539 
L 184.38721 89.681919 
L 186.679397 65.124181 
L 187.82549 54.52196 
L 188.971583 47.222901 
L 190.117676 44.64 
L 191.263769 47.682732 
L 192.409862 56.575305 
L 193.555956 70.808099 
L 194.702049 89.235576 
L 199.286421 173.099739 
L 200.432514 189.920721 
L 201.578608 203.75712 
L 202.724701 214.655936 
L 203.870794 222.925617 
L 205.016887 229.012383 
L 206.16298 233.395931 
L 207.309073 236.517737 
L 208.455166 238.74318 
L 209.60126 240.350928 
L 210.747353 241.539921 
L 211.893446 242.444817 
L 213.039539 243.153224 
L 215.331725 244.183168 
L 217.623912 244.877024 
L 219.916098 245.349609 
L 223.354377 245.784958 
L 227.93875 246.065544 
L 234.815309 246.203901 
L 245.130147 246.237506 
L 245.130147 246.237506 
" clip-path="url(#pf054c2f544)" style="fill: none; stroke-dasharray: 7.4,3.2; stroke-dashoffset: 0; stroke: #ff7f0e; stroke-width: 2"/>
   </g>
   <g id="patch_3">
    <path d="M 90 256.32 
L 90 34.56 
" style="fill: none; stroke: #000000; stroke-width: 0.8; stroke-linejoin: miter; stroke-linecap: square"/>
   </g>
   <g id="patch_4">
    <path d="M 90 256.32 
L 254.117647 256.32 
" style="fill: none; stroke: #000000; stroke-width: 0.8; stroke-linejoin: miter; stroke-linecap: square"/>
   </g>
   <g id="text_17">
    <!-- h=0.3242, Silverman -->
    <g transform="translate(108.349136 28.56) scale(0.12 -0.12)">
     <defs>
      <path id="DejaVuSans-68" d="M 3513 2113 
L 3513 0 
L 2938 0 
L 2938 2094 
Q 2938 2591 2744 2837 
Q 2550 3084 2163 3084 
Q 1697 3084 1428 2787 
Q 1159 2491 1159 1978 
L 1159 0 
L 581 0 
L 581 4863 
L 1159 4863 
L 1159 2956 
Q 1366 3272 1645 3428 
Q 1925 3584 2291 3584 
Q 2894 3584 3203 3211 
Q 3513 2838 3513 2113 
z
" transform="scale(0.015625)"/>
      <path id="DejaVuSans-3d" d="M 678 2906 
L 4684 2906 
L 4684 2381 
L 678 2381 
L 678 2906 
z
M 678 1631 
L 4684 1631 
L 4684 1100 
L 678 1100 
L 678 1631 
z
" transform="scale(0.015625)"/>
      <path id="DejaVuSans-2c" d="M 750 794 
L 1409 794 
L 1409 256 
L 897 -744 
L 494 -744 
L 750 256 
L 750 794 
z
" transform="scale(0.015625)"/>
      <path id="DejaVuSans-20" transform="scale(0.015625)"/>
      <path id="DejaVuSans-53" d="M 3425 4513 
L 3425 3897 
Q 3066 4069 2747 4153 
Q 2428 4238 2131 4238 
Q 1616 4238 1336 4038 
Q 1056 3838 1056 3469 
Q 1056 3159 1242 3001 
Q 1428 2844 1947 2747 
L 2328 2669 
Q 3034 2534 3370 2195 
Q 3706 1856 3706 1288 
Q 3706 609 3251 259 
Q 2797 -91 1919 -91 
Q 1588 -91 1214 -16 
Q 841 59 441 206 
L 441 856 
Q 825 641 1194 531 
Q 1563 422 1919 422 
Q 2459 422 2753 634 
Q 3047 847 3047 1241 
Q 3047 1584 2836 1778 
Q 2625 1972 2144 2069 
L 1759 2144 
Q 1053 2284 737 2584 
Q 422 2884 422 3419 
Q 422 4038 858 4394 
Q 1294 4750 2059 4750 
Q 2388 4750 2728 4690 
Q 3069 4631 3425 4513 
z
" transform="scale(0.015625)"/>
      <path id="DejaVuSans-69" d="M 603 3500 
L 1178 3500 
L 1178 0 
L 603 0 
L 603 3500 
z
M 603 4863 
L 1178 4863 
L 1178 4134 
L 603 4134 
L 603 4863 
z
" transform="scale(0.015625)"/>
      <path id="DejaVuSans-6c" d="M 603 4863 
L 1178 4863 
L 1178 0 
L 603 0 
L 603 4863 
z
" transform="scale(0.015625)"/>
      <path id="DejaVuSans-76" d="M 191 3500 
L 800 3500 
L 1894 563 
L 2988 3500 
L 3597 3500 
L 2284 0 
L 1503 0 
L 191 3500 
z
" transform="scale(0.015625)"/>
      <path id="DejaVuSans-65" d="M 3597 1894 
L 3597 1613 
L 953 1613 
Q 991 1019 1311 708 
Q 1631 397 2203 397 
Q 2534 397 2845 478 
Q 3156 559 3463 722 
L 3463 178 
Q 3153 47 2828 -22 
Q 2503 -91 2169 -91 
Q 1331 -91 842 396 
Q 353 884 353 1716 
Q 353 2575 817 3079 
Q 1281 3584 2069 3584 
Q 2775 3584 3186 3129 
Q 3597 2675 3597 1894 
z
M 3022 2063 
Q 3016 2534 2758 2815 
Q 2500 3097 2075 3097 
Q 1594 3097 1305 2825 
Q 1016 2553 972 2059 
L 3022 2063 
z
" transform="scale(0.015625)"/>
      <path id="DejaVuSans-72" d="M 2631 2963 
Q 2534 3019 2420 3045 
Q 2306 3072 2169 3072 
Q 1681 3072 1420 2755 
Q 1159 2438 1159 1844 
L 1159 0 
L 581 0 
L 581 3500 
L 1159 3500 
L 1159 2956 
Q 1341 3275 1631 3429 
Q 1922 3584 2338 3584 
Q 2397 3584 2469 3576 
Q 2541 3569 2628 3553 
L 2631 2963 
z
" transform="scale(0.015625)"/>
      <path id="DejaVuSans-6d" d="M 3328 2828 
Q 3544 3216 3844 3400 
Q 4144 3584 4550 3584 
Q 5097 3584 5394 3201 
Q 5691 2819 5691 2113 
L 5691 0 
L 5113 0 
L 5113 2094 
Q 5113 2597 4934 2840 
Q 4756 3084 4391 3084 
Q 3944 3084 3684 2787 
Q 3425 2491 3425 1978 
L 3425 0 
L 2847 0 
L 2847 2094 
Q 2847 2600 2669 2842 
Q 2491 3084 2119 3084 
Q 1678 3084 1418 2786 
Q 1159 2488 1159 1978 
L 1159 0 
L 581 0 
L 581 3500 
L 1159 3500 
L 1159 2956 
Q 1356 3278 1631 3431 
Q 1906 3584 2284 3584 
Q 2666 3584 2933 3390 
Q 3200 3197 3328 2828 
z
" transform="scale(0.015625)"/>
      <path id="DejaVuSans-61" d="M 2194 1759 
Q 1497 1759 1228 1600 
Q 959 1441 959 1056 
Q 959 750 1161 570 
Q 1363 391 1709 391 
Q 2188 391 2477 730 
Q 2766 1069 2766 1631 
L 2766 1759 
L 2194 1759 
z
M 3341 1997 
L 3341 0 
L 2766 0 
L 2766 531 
Q 2569 213 2275 61 
Q 1981 -91 1556 -91 
Q 1019 -91 701 211 
Q 384 513 384 1019 
Q 384 1609 779 1909 
Q 1175 2209 1959 2209 
L 2766 2209 
L 2766 2266 
Q 2766 2663 2505 2880 
Q 2244 3097 1772 3097 
Q 1472 3097 1187 3025 
Q 903 2953 641 2809 
L 641 3341 
Q 956 3463 1253 3523 
Q 1550 3584 1831 3584 
Q 2591 3584 2966 3190 
Q 3341 2797 3341 1997 
z
" transform="scale(0.015625)"/>
      <path id="DejaVuSans-6e" d="M 3513 2113 
L 3513 0 
L 2938 0 
L 2938 2094 
Q 2938 2591 2744 2837 
Q 2550 3084 2163 3084 
Q 1697 3084 1428 2787 
Q 1159 2491 1159 1978 
L 1159 0 
L 581 0 
L 581 3500 
L 1159 3500 
L 1159 2956 
Q 1366 3272 1645 3428 
Q 1925 3584 2291 3584 
Q 2894 3584 3203 3211 
Q 3513 2838 3513 2113 
z
" transform="scale(0.015625)"/>
     </defs>
     <use xlink:href="#DejaVuSans-68"/>
     <use xlink:href="#DejaVuSans-3d" transform="translate(63.378906 0)"/>
     <use xlink:href="#DejaVuSans-30" transform="translate(147.167969 0)"/>
     <use xlink:href="#DejaVuSans-2e" transform="translate(210.791016 0)"/>
     <use xlink:href="#DejaVuSans-33" transform="translate(242.578125 0)"/>
     <use xlink:href="#DejaVuSans-32" transform="translate(306.201172 0)"/>
     <use xlink:href="#DejaVuSans-34" transform="translate(369.824219 0)"/>
     <use xlink:href="#DejaVuSans-32" transform="translate(433.447266 0)"/>
     <use xlink:href="#DejaVuSans-2c" transform="translate(497.070312 0)"/>
     <use xlink:href="#DejaVuSans-20" transform="translate(528.857422 0)"/>
     <use xlink:href="#DejaVuSans-53" transform="translate(560.644531 0)"/>
     <use xlink:href="#DejaVuSans-69" transform="translate(624.121094 0)"/>
     <use xlink:href="#DejaVuSans-6c" transform="translate(651.904297 0)"/>
     <use xlink:href="#DejaVuSans-76" transform="translate(679.6875 0)"/>
     <use xlink:href="#DejaVuSans-65" transform="translate(738.867188 0)"/>
     <use xlink:href="#DejaVuSans-72" transform="translate(800.390625 0)"/>
     <use xlink:href="#DejaVuSans-6d" transform="translate(839.753906 0)"/>
     <use xlink:href="#DejaVuSans-61" transform="translate(937.166016 0)"/>
     <use xlink:href="#DejaVuSans-6e" transform="translate(998.445312 0)"/>
    </g>
   </g>
  </g>
  <g id="axes_2">
   <g id="patch_5">
    <path d="M 286.941176 256.32 
L 451.058824 256.32 
L 451.058824 34.56 
L 286.941176 34.56 
z
" style="fill: #ffffff"/>
   </g>
   <g id="matplotlib.axis_3">
    <g id="xtick_6">
     <g id="line2d_31">
      <path d="M 293.874626 256.32 
L 293.874626 34.56 
" clip-path="url(#p01c13a3051)" style="fill: none; stroke: #b0b0b0; stroke-width: 0.8; stroke-linecap: square"/>
     </g>
     <g id="line2d_32">
      <g>
       <use xlink:href="#m4a92d99fee" x="293.874626" y="256.32" style="stroke: #000000; stroke-width: 0.8"/>
      </g>
     </g>
     <g id="text_18">
      <!-- −4 -->
      <g transform="translate(286.503533 270.918437) scale(0.1 -0.1)">
       <use xlink:href="#DejaVuSans-2212"/>
       <use xlink:href="#DejaVuSans-34" transform="translate(83.789062 0)"/>
      </g>
     </g>
    </g>
    <g id="xtick_7">
     <g id="line2d_33">
      <path d="M 328.324863 256.32 
L 328.324863 34.56 
" clip-path="url(#p01c13a3051)" style="fill: none; stroke: #b0b0b0; stroke-width: 0.8; stroke-linecap: square"/>
     </g>
     <g id="line2d_34">
      <g>
       <use xlink:href="#m4a92d99fee" x="328.324863" y="256.32" style="stroke: #000000; stroke-width: 0.8"/>
      </g>
     </g>
     <g id="text_19">
      <!-- −2 -->
      <g transform="translate(320.95377 270.918437) scale(0.1 -0.1)">
       <use xlink:href="#DejaVuSans-2212"/>
       <use xlink:href="#DejaVuSans-32" transform="translate(83.789062 0)"/>
      </g>
     </g>
    </g>
    <g id="xtick_8">
     <g id="line2d_35">
      <path d="M 362.7751 256.32 
L 362.7751 34.56 
" clip-path="url(#p01c13a3051)" style="fill: none; stroke: #b0b0b0; stroke-width: 0.8; stroke-linecap: square"/>
     </g>
     <g id="line2d_36">
      <g>
       <use xlink:href="#m4a92d99fee" x="362.7751" y="256.32" style="stroke: #000000; stroke-width: 0.8"/>
      </g>
     </g>
     <g id="text_20">
      <!-- 0 -->
      <g transform="translate(359.59385 270.918437) scale(0.1 -0.1)">
       <use xlink:href="#DejaVuSans-30"/>
      </g>
     </g>
    </g>
    <g id="xtick_9">
     <g id="line2d_37">
      <path d="M 397.225337 256.32 
L 397.225337 34.56 
" clip-path="url(#p01c13a3051)" style="fill: none; stroke: #b0b0b0; stroke-width: 0.8; stroke-linecap: square"/>
     </g>
     <g id="line2d_38">
      <g>
       <use xlink:href="#m4a92d99fee" x="397.225337" y="256.32" style="stroke: #000000; stroke-width: 0.8"/>
      </g>
     </g>
     <g id="text_21">
      <!-- 2 -->
      <g transform="translate(394.044087 270.918437) scale(0.1 -0.1)">
       <use xlink:href="#DejaVuSans-32"/>
      </g>
     </g>
    </g>
    <g id="xtick_10">
     <g id="line2d_39">
      <path d="M 431.675574 256.32 
L 431.675574 34.56 
" clip-path="url(#p01c13a3051)" style="fill: none; stroke: #b0b0b0; stroke-width: 0.8; stroke-linecap: square"/>
     </g>
     <g id="line2d_40">
      <g>
       <use xlink:href="#m4a92d99fee" x="431.675574" y="256.32" style="stroke: #000000; stroke-width: 0.8"/>
      </g>
     </g>
     <g id="text_22">
      <!-- 4 -->
      <g transform="translate(428.494324 270.918437) scale(0.1 -0.1)">
       <use xlink:href="#DejaVuSans-34"/>
      </g>
     </g>
    </g>
    <g id="text_23">
     <!-- X -->
     <g transform="translate(365.575 284.596563) scale(0.1 -0.1)">
      <use xlink:href="#DejaVuSans-58"/>
     </g>
    </g>
   </g>
   <g id="matplotlib.axis_4">
    <g id="ytick_10">
     <g id="line2d_41">
      <path d="M 286.941176 246.24 
L 451.058824 246.24 
" clip-path="url(#p01c13a3051)" style="fill: none; stroke: #b0b0b0; stroke-width: 0.8; stroke-linecap: square"/>
     </g>
     <g id="line2d_42">
      <g>
       <use xlink:href="#mb3cb5c074b" x="286.941176" y="246.24" style="stroke: #000000; stroke-width: 0.8"/>
      </g>
     </g>
     <g id="text_24">
      <!-- 0.00 -->
      <g transform="translate(257.675551 250.039219) scale(0.1 -0.1)">
       <use xlink:href="#DejaVuSans-30"/>
       <use xlink:href="#DejaVuSans-2e" transform="translate(63.623047 0)"/>
       <use xlink:href="#DejaVuSans-30" transform="translate(95.410156 0)"/>
       <use xlink:href="#DejaVuSans-30" transform="translate(159.033203 0)"/>
      </g>
     </g>
    </g>
    <g id="ytick_11">
     <g id="line2d_43">
      <path d="M 286.941176 221.07136 
L 451.058824 221.07136 
" clip-path="url(#p01c13a3051)" style="fill: none; stroke: #b0b0b0; stroke-width: 0.8; stroke-linecap: square"/>
     </g>
     <g id="line2d_44">
      <g>
       <use xlink:href="#mb3cb5c074b" x="286.941176" y="221.07136" style="stroke: #000000; stroke-width: 0.8"/>
      </g>
     </g>
     <g id="text_25">
      <!-- 0.05 -->
      <g transform="translate(257.675551 224.870579) scale(0.1 -0.1)">
       <use xlink:href="#DejaVuSans-30"/>
       <use xlink:href="#DejaVuSans-2e" transform="translate(63.623047 0)"/>
       <use xlink:href="#DejaVuSans-30" transform="translate(95.410156 0)"/>
       <use xlink:href="#DejaVuSans-35" transform="translate(159.033203 0)"/>
      </g>
     </g>
    </g>
    <g id="ytick_12">
     <g id="line2d_45">
      <path d="M 286.941176 195.90272 
L 451.058824 195.90272 
" clip-path="url(#p01c13a3051)" style="fill: none; stroke: #b0b0b0; stroke-width: 0.8; stroke-linecap: square"/>
     </g>
     <g id="line2d_46">
      <g>
       <use xlink:href="#mb3cb5c074b" x="286.941176" y="195.90272" style="stroke: #000000; stroke-width: 0.8"/>
      </g>
     </g>
     <g id="text_26">
      <!-- 0.10 -->
      <g transform="translate(257.675551 199.701939) scale(0.1 -0.1)">
       <use xlink:href="#DejaVuSans-30"/>
       <use xlink:href="#DejaVuSans-2e" transform="translate(63.623047 0)"/>
       <use xlink:href="#DejaVuSans-31" transform="translate(95.410156 0)"/>
       <use xlink:href="#DejaVuSans-30" transform="translate(159.033203 0)"/>
      </g>
     </g>
    </g>
    <g id="ytick_13">
     <g id="line2d_47">
      <path d="M 286.941176 170.73408 
L 451.058824 170.73408 
" clip-path="url(#p01c13a3051)" style="fill: none; stroke: #b0b0b0; stroke-width: 0.8; stroke-linecap: square"/>
     </g>
     <g id="line2d_48">
      <g>
       <use xlink:href="#mb3cb5c074b" x="286.941176" y="170.73408" style="stroke: #000000; stroke-width: 0.8"/>
      </g>
     </g>
     <g id="text_27">
      <!-- 0.15 -->
      <g transform="translate(257.675551 174.533299) scale(0.1 -0.1)">
       <use xlink:href="#DejaVuSans-30"/>
       <use xlink:href="#DejaVuSans-2e" transform="translate(63.623047 0)"/>
       <use xlink:href="#DejaVuSans-31" transform="translate(95.410156 0)"/>
       <use xlink:href="#DejaVuSans-35" transform="translate(159.033203 0)"/>
      </g>
     </g>
    </g>
    <g id="ytick_14">
     <g id="line2d_49">
      <path d="M 286.941176 145.56544 
L 451.058824 145.56544 
" clip-path="url(#p01c13a3051)" style="fill: none; stroke: #b0b0b0; stroke-width: 0.8; stroke-linecap: square"/>
     </g>
     <g id="line2d_50">
      <g>
       <use xlink:href="#mb3cb5c074b" x="286.941176" y="145.56544" style="stroke: #000000; stroke-width: 0.8"/>
      </g>
     </g>
     <g id="text_28">
      <!-- 0.20 -->
      <g transform="translate(257.675551 149.364659) scale(0.1 -0.1)">
       <use xlink:href="#DejaVuSans-30"/>
       <use xlink:href="#DejaVuSans-2e" transform="translate(63.623047 0)"/>
       <use xlink:href="#DejaVuSans-32" transform="translate(95.410156 0)"/>
       <use xlink:href="#DejaVuSans-30" transform="translate(159.033203 0)"/>
      </g>
     </g>
    </g>
    <g id="ytick_15">
     <g id="line2d_51">
      <path d="M 286.941176 120.3968 
L 451.058824 120.3968 
" clip-path="url(#p01c13a3051)" style="fill: none; stroke: #b0b0b0; stroke-width: 0.8; stroke-linecap: square"/>
     </g>
     <g id="line2d_52">
      <g>
       <use xlink:href="#mb3cb5c074b" x="286.941176" y="120.3968" style="stroke: #000000; stroke-width: 0.8"/>
      </g>
     </g>
     <g id="text_29">
      <!-- 0.25 -->
      <g transform="translate(257.675551 124.196019) scale(0.1 -0.1)">
       <use xlink:href="#DejaVuSans-30"/>
       <use xlink:href="#DejaVuSans-2e" transform="translate(63.623047 0)"/>
       <use xlink:href="#DejaVuSans-32" transform="translate(95.410156 0)"/>
       <use xlink:href="#DejaVuSans-35" transform="translate(159.033203 0)"/>
      </g>
     </g>
    </g>
    <g id="ytick_16">
     <g id="line2d_53">
      <path d="M 286.941176 95.22816 
L 451.058824 95.22816 
" clip-path="url(#p01c13a3051)" style="fill: none; stroke: #b0b0b0; stroke-width: 0.8; stroke-linecap: square"/>
     </g>
     <g id="line2d_54">
      <g>
       <use xlink:href="#mb3cb5c074b" x="286.941176" y="95.22816" style="stroke: #000000; stroke-width: 0.8"/>
      </g>
     </g>
     <g id="text_30">
      <!-- 0.30 -->
      <g transform="translate(257.675551 99.027379) scale(0.1 -0.1)">
       <use xlink:href="#DejaVuSans-30"/>
       <use xlink:href="#DejaVuSans-2e" transform="translate(63.623047 0)"/>
       <use xlink:href="#DejaVuSans-33" transform="translate(95.410156 0)"/>
       <use xlink:href="#DejaVuSans-30" transform="translate(159.033203 0)"/>
      </g>
     </g>
    </g>
    <g id="ytick_17">
     <g id="line2d_55">
      <path d="M 286.941176 70.05952 
L 451.058824 70.05952 
" clip-path="url(#p01c13a3051)" style="fill: none; stroke: #b0b0b0; stroke-width: 0.8; stroke-linecap: square"/>
     </g>
     <g id="line2d_56">
      <g>
       <use xlink:href="#mb3cb5c074b" x="286.941176" y="70.05952" style="stroke: #000000; stroke-width: 0.8"/>
      </g>
     </g>
     <g id="text_31">
      <!-- 0.35 -->
      <g transform="translate(257.675551 73.858739) scale(0.1 -0.1)">
       <use xlink:href="#DejaVuSans-30"/>
       <use xlink:href="#DejaVuSans-2e" transform="translate(63.623047 0)"/>
       <use xlink:href="#DejaVuSans-33" transform="translate(95.410156 0)"/>
       <use xlink:href="#DejaVuSans-35" transform="translate(159.033203 0)"/>
      </g>
     </g>
    </g>
    <g id="ytick_18">
     <g id="line2d_57">
      <path d="M 286.941176 44.890881 
L 451.058824 44.890881 
" clip-path="url(#p01c13a3051)" style="fill: none; stroke: #b0b0b0; stroke-width: 0.8; stroke-linecap: square"/>
     </g>
     <g id="line2d_58">
      <g>
       <use xlink:href="#mb3cb5c074b" x="286.941176" y="44.890881" style="stroke: #000000; stroke-width: 0.8"/>
      </g>
     </g>
     <g id="text_32">
      <!-- 0.40 -->
      <g transform="translate(257.675551 48.690099) scale(0.1 -0.1)">
       <use xlink:href="#DejaVuSans-30"/>
       <use xlink:href="#DejaVuSans-2e" transform="translate(63.623047 0)"/>
       <use xlink:href="#DejaVuSans-34" transform="translate(95.410156 0)"/>
       <use xlink:href="#DejaVuSans-30" transform="translate(159.033203 0)"/>
      </g>
     </g>
    </g>
   </g>
   <g id="line2d_59">
    <path d="M 295.491883 246.239973 
L 302.412081 246.139951 
L 303.565447 246.000355 
L 304.718814 245.740088 
L 305.87218 245.328051 
L 308.178913 244.139376 
L 312.792378 241.693148 
L 313.945744 241.134045 
L 315.09911 240.747609 
L 316.252477 240.637273 
L 318.559209 240.895917 
L 319.712575 240.768363 
L 320.865942 240.162561 
L 322.019308 239.006649 
L 323.172674 237.353423 
L 324.326041 235.314471 
L 326.632773 230.504685 
L 328.939506 225.491426 
L 330.092872 223.31208 
L 332.399605 219.622876 
L 333.552971 217.380706 
L 334.706337 214.145202 
L 335.859704 209.525719 
L 337.01307 203.492582 
L 340.473169 182.180666 
L 341.626535 176.160711 
L 343.933268 165.475563 
L 345.086634 159.337392 
L 346.24 152.127894 
L 349.700099 128.84591 
L 352.006832 116.044229 
L 353.160198 110.738129 
L 354.313564 106.511447 
L 355.466931 103.574424 
L 356.620297 101.728012 
L 358.92703 99.326687 
L 360.080396 98.351455 
L 361.233762 97.771314 
L 363.540495 97.39243 
L 364.693861 96.429471 
L 365.847227 94.465437 
L 367.000594 92.128491 
L 368.15396 90.710831 
L 369.307326 91.397896 
L 370.460692 94.552205 
L 371.614059 99.584336 
L 373.920791 110.931991 
L 375.074158 115.425337 
L 376.227524 118.336508 
L 377.38089 119.214706 
L 378.534257 117.652211 
L 379.687623 113.322789 
L 380.840989 106.080285 
L 381.994355 96.15229 
L 384.301088 72.47455 
L 385.454454 62.555282 
L 386.607821 56.746712 
L 387.761187 56.341465 
L 388.914553 61.502664 
L 390.06792 71.543157 
L 391.221286 85.467961 
L 392.374652 102.245122 
L 395.834751 156.861764 
L 396.988117 172.252503 
L 398.141484 185.312157 
L 399.29485 196.293364 
L 400.448216 205.532452 
L 401.601582 213.226529 
L 402.754949 219.488684 
L 403.908315 224.515535 
L 405.061681 228.644785 
L 407.368414 235.506422 
L 408.52178 238.438541 
L 409.675147 240.875768 
L 410.828513 242.66874 
L 411.981879 243.801832 
L 413.135245 244.417989 
L 415.441978 244.991174 
L 420.055443 246.009543 
L 422.362176 246.197065 
L 428.129007 246.239951 
L 443.122769 246.24 
L 443.122769 246.24 
" clip-path="url(#p01c13a3051)" style="fill: none; stroke: #1f77b4; stroke-width: 2; stroke-linecap: square"/>
   </g>
   <g id="line2d_60">
    <path d="M 294.40107 246.182932 
L 301.394719 245.976653 
L 304.891544 245.708199 
L 308.388369 245.209446 
L 310.719586 244.674419 
L 313.050802 243.904794 
L 315.382019 242.820047 
L 317.713235 241.322318 
L 318.878844 240.383372 
L 320.044452 239.297018 
L 321.21006 238.046757 
L 322.375668 236.615528 
L 323.541277 234.985938 
L 324.706885 233.140551 
L 325.872493 231.062226 
L 327.038102 228.734503 
L 328.20371 226.142034 
L 330.534926 220.109878 
L 332.866143 212.883842 
L 335.19736 204.432337 
L 337.528576 194.790515 
L 339.859793 184.074211 
L 343.356618 166.460379 
L 350.350267 130.127595 
L 352.681484 119.387784 
L 355.012701 110.169874 
L 356.178309 106.27735 
L 357.343917 102.93118 
L 358.509525 100.175321 
L 359.675134 98.046428 
L 360.840742 96.572928 
L 362.00635 95.774127 
L 363.171959 95.659233 
L 364.337567 96.226045 
L 365.503175 97.458902 
L 366.668783 99.325269 
L 367.834392 101.770144 
L 369 104.707436 
L 373.662433 117.820855 
L 374.828041 119.894455 
L 375.99365 120.585032 
L 377.159258 119.367632 
L 378.324866 115.783604 
L 379.490475 109.554512 
L 380.656083 100.707539 
L 381.821691 89.681919 
L 384.152908 65.124181 
L 385.318516 54.52196 
L 386.484124 47.222901 
L 387.649733 44.64 
L 388.815341 47.682732 
L 389.980949 56.575305 
L 391.146557 70.808099 
L 392.312166 89.235576 
L 396.974599 173.099739 
L 398.140207 189.92072 
L 399.305816 203.75712 
L 400.471424 214.655936 
L 401.637032 222.925617 
L 402.80264 229.012383 
L 403.968249 233.395931 
L 405.133857 236.517737 
L 406.299465 238.74318 
L 407.465074 240.350928 
L 408.630682 241.539921 
L 409.79629 242.444816 
L 410.961898 243.153224 
L 413.293115 244.183168 
L 415.624332 244.877024 
L 417.955548 245.349609 
L 421.452373 245.784958 
L 426.114806 246.065544 
L 433.108456 246.203901 
L 443.59893 246.237506 
L 443.59893 246.237506 
" clip-path="url(#p01c13a3051)" style="fill: none; stroke-dasharray: 7.4,3.2; stroke-dashoffset: 0; stroke: #ff7f0e; stroke-width: 2"/>
   </g>
   <g id="patch_6">
    <path d="M 286.941176 256.32 
L 286.941176 34.56 
" style="fill: none; stroke: #000000; stroke-width: 0.8; stroke-linejoin: miter; stroke-linecap: square"/>
   </g>
   <g id="patch_7">
    <path d="M 286.941176 256.32 
L 451.058824 256.32 
" style="fill: none; stroke: #000000; stroke-width: 0.8; stroke-linejoin: miter; stroke-linecap: square"/>
   </g>
   <g id="text_33">
    <!-- h=0.1741, Plugin -->
    <g transform="translate(316.995938 28.56) scale(0.12 -0.12)">
     <defs>
      <path id="DejaVuSans-37" d="M 525 4666 
L 3525 4666 
L 3525 4397 
L 1831 0 
L 1172 0 
L 2766 4134 
L 525 4134 
L 525 4666 
z
" transform="scale(0.015625)"/>
      <path id="DejaVuSans-75" d="M 544 1381 
L 544 3500 
L 1119 3500 
L 1119 1403 
Q 1119 906 1312 657 
Q 1506 409 1894 409 
Q 2359 409 2629 706 
Q 2900 1003 2900 1516 
L 2900 3500 
L 3475 3500 
L 3475 0 
L 2900 0 
L 2900 538 
Q 2691 219 2414 64 
Q 2138 -91 1772 -91 
Q 1169 -91 856 284 
Q 544 659 544 1381 
z
M 1991 3584 
L 1991 3584 
z
" transform="scale(0.015625)"/>
      <path id="DejaVuSans-67" d="M 2906 1791 
Q 2906 2416 2648 2759 
Q 2391 3103 1925 3103 
Q 1463 3103 1205 2759 
Q 947 2416 947 1791 
Q 947 1169 1205 825 
Q 1463 481 1925 481 
Q 2391 481 2648 825 
Q 2906 1169 2906 1791 
z
M 3481 434 
Q 3481 -459 3084 -895 
Q 2688 -1331 1869 -1331 
Q 1566 -1331 1297 -1286 
Q 1028 -1241 775 -1147 
L 775 -588 
Q 1028 -725 1275 -790 
Q 1522 -856 1778 -856 
Q 2344 -856 2625 -561 
Q 2906 -266 2906 331 
L 2906 616 
Q 2728 306 2450 153 
Q 2172 0 1784 0 
Q 1141 0 747 490 
Q 353 981 353 1791 
Q 353 2603 747 3093 
Q 1141 3584 1784 3584 
Q 2172 3584 2450 3431 
Q 2728 3278 2906 2969 
L 2906 3500 
L 3481 3500 
L 3481 434 
z
" transform="scale(0.015625)"/>
     </defs>
     <use xlink:href="#DejaVuSans-68"/>
     <use xlink:href="#DejaVuSans-3d" transform="translate(63.378906 0)"/>
     <use xlink:href="#DejaVuSans-30" transform="translate(147.167969 0)"/>
     <use xlink:href="#DejaVuSans-2e" transform="translate(210.791016 0)"/>
     <use xlink:href="#DejaVuSans-31" transform="translate(242.578125 0)"/>
     <use xlink:href="#DejaVuSans-37" transform="translate(306.201172 0)"/>
     <use xlink:href="#DejaVuSans-34" transform="translate(369.824219 0)"/>
     <use xlink:href="#DejaVuSans-31" transform="translate(433.447266 0)"/>
     <use xlink:href="#DejaVuSans-2c" transform="translate(497.070312 0)"/>
     <use xlink:href="#DejaVuSans-20" transform="translate(528.857422 0)"/>
     <use xlink:href="#DejaVuSans-50" transform="translate(560.644531 0)"/>
     <use xlink:href="#DejaVuSans-6c" transform="translate(620.947266 0)"/>
     <use xlink:href="#DejaVuSans-75" transform="translate(648.730469 0)"/>
     <use xlink:href="#DejaVuSans-67" transform="translate(712.109375 0)"/>
     <use xlink:href="#DejaVuSans-69" transform="translate(775.585938 0)"/>
     <use xlink:href="#DejaVuSans-6e" transform="translate(803.369141 0)"/>
    </g>
   </g>
  </g>
  <g id="axes_3">
   <g id="patch_8">
    <path d="M 483.882353 256.32 
L 648 256.32 
L 648 34.56 
L 483.882353 34.56 
z
" style="fill: #ffffff"/>
   </g>
   <g id="matplotlib.axis_5">
    <g id="xtick_11">
     <g id="line2d_61">
      <path d="M 490.815803 256.32 
L 490.815803 34.56 
" clip-path="url(#p9c0c4fe255)" style="fill: none; stroke: #b0b0b0; stroke-width: 0.8; stroke-linecap: square"/>
     </g>
     <g id="line2d_62">
      <g>
       <use xlink:href="#m4a92d99fee" x="490.815803" y="256.32" style="stroke: #000000; stroke-width: 0.8"/>
      </g>
     </g>
     <g id="text_34">
      <!-- −4 -->
      <g transform="translate(483.444709 270.918437) scale(0.1 -0.1)">
       <use xlink:href="#DejaVuSans-2212"/>
       <use xlink:href="#DejaVuSans-34" transform="translate(83.789062 0)"/>
      </g>
     </g>
    </g>
    <g id="xtick_12">
     <g id="line2d_63">
      <path d="M 525.26604 256.32 
L 525.26604 34.56 
" clip-path="url(#p9c0c4fe255)" style="fill: none; stroke: #b0b0b0; stroke-width: 0.8; stroke-linecap: square"/>
     </g>
     <g id="line2d_64">
      <g>
       <use xlink:href="#m4a92d99fee" x="525.26604" y="256.32" style="stroke: #000000; stroke-width: 0.8"/>
      </g>
     </g>
     <g id="text_35">
      <!-- −2 -->
      <g transform="translate(517.894946 270.918437) scale(0.1 -0.1)">
       <use xlink:href="#DejaVuSans-2212"/>
       <use xlink:href="#DejaVuSans-32" transform="translate(83.789062 0)"/>
      </g>
     </g>
    </g>
    <g id="xtick_13">
     <g id="line2d_65">
      <path d="M 559.716277 256.32 
L 559.716277 34.56 
" clip-path="url(#p9c0c4fe255)" style="fill: none; stroke: #b0b0b0; stroke-width: 0.8; stroke-linecap: square"/>
     </g>
     <g id="line2d_66">
      <g>
       <use xlink:href="#m4a92d99fee" x="559.716277" y="256.32" style="stroke: #000000; stroke-width: 0.8"/>
      </g>
     </g>
     <g id="text_36">
      <!-- 0 -->
      <g transform="translate(556.535027 270.918437) scale(0.1 -0.1)">
       <use xlink:href="#DejaVuSans-30"/>
      </g>
     </g>
    </g>
    <g id="xtick_14">
     <g id="line2d_67">
      <path d="M 594.166514 256.32 
L 594.166514 34.56 
" clip-path="url(#p9c0c4fe255)" style="fill: none; stroke: #b0b0b0; stroke-width: 0.8; stroke-linecap: square"/>
     </g>
     <g id="line2d_68">
      <g>
       <use xlink:href="#m4a92d99fee" x="594.166514" y="256.32" style="stroke: #000000; stroke-width: 0.8"/>
      </g>
     </g>
     <g id="text_37">
      <!-- 2 -->
      <g transform="translate(590.985264 270.918437) scale(0.1 -0.1)">
       <use xlink:href="#DejaVuSans-32"/>
      </g>
     </g>
    </g>
    <g id="xtick_15">
     <g id="line2d_69">
      <path d="M 628.616751 256.32 
L 628.616751 34.56 
" clip-path="url(#p9c0c4fe255)" style="fill: none; stroke: #b0b0b0; stroke-width: 0.8; stroke-linecap: square"/>
     </g>
     <g id="line2d_70">
      <g>
       <use xlink:href="#m4a92d99fee" x="628.616751" y="256.32" style="stroke: #000000; stroke-width: 0.8"/>
      </g>
     </g>
     <g id="text_38">
      <!-- 4 -->
      <g transform="translate(625.435501 270.918437) scale(0.1 -0.1)">
       <use xlink:href="#DejaVuSans-34"/>
      </g>
     </g>
    </g>
    <g id="text_39">
     <!-- X -->
     <g transform="translate(562.516176 284.596563) scale(0.1 -0.1)">
      <use xlink:href="#DejaVuSans-58"/>
     </g>
    </g>
   </g>
   <g id="matplotlib.axis_6">
    <g id="ytick_19">
     <g id="line2d_71">
      <path d="M 483.882353 246.24 
L 648 246.24 
" clip-path="url(#p9c0c4fe255)" style="fill: none; stroke: #b0b0b0; stroke-width: 0.8; stroke-linecap: square"/>
     </g>
     <g id="line2d_72">
      <g>
       <use xlink:href="#mb3cb5c074b" x="483.882353" y="246.24" style="stroke: #000000; stroke-width: 0.8"/>
      </g>
     </g>
     <g id="text_40">
      <!-- 0.00 -->
      <g transform="translate(454.616728 250.039219) scale(0.1 -0.1)">
       <use xlink:href="#DejaVuSans-30"/>
       <use xlink:href="#DejaVuSans-2e" transform="translate(63.623047 0)"/>
       <use xlink:href="#DejaVuSans-30" transform="translate(95.410156 0)"/>
       <use xlink:href="#DejaVuSans-30" transform="translate(159.033203 0)"/>
      </g>
     </g>
    </g>
    <g id="ytick_20">
     <g id="line2d_73">
      <path d="M 483.882353 221.07136 
L 648 221.07136 
" clip-path="url(#p9c0c4fe255)" style="fill: none; stroke: #b0b0b0; stroke-width: 0.8; stroke-linecap: square"/>
     </g>
     <g id="line2d_74">
      <g>
       <use xlink:href="#mb3cb5c074b" x="483.882353" y="221.07136" style="stroke: #000000; stroke-width: 0.8"/>
      </g>
     </g>
     <g id="text_41">
      <!-- 0.05 -->
      <g transform="translate(454.616728 224.870579) scale(0.1 -0.1)">
       <use xlink:href="#DejaVuSans-30"/>
       <use xlink:href="#DejaVuSans-2e" transform="translate(63.623047 0)"/>
       <use xlink:href="#DejaVuSans-30" transform="translate(95.410156 0)"/>
       <use xlink:href="#DejaVuSans-35" transform="translate(159.033203 0)"/>
      </g>
     </g>
    </g>
    <g id="ytick_21">
     <g id="line2d_75">
      <path d="M 483.882353 195.90272 
L 648 195.90272 
" clip-path="url(#p9c0c4fe255)" style="fill: none; stroke: #b0b0b0; stroke-width: 0.8; stroke-linecap: square"/>
     </g>
     <g id="line2d_76">
      <g>
       <use xlink:href="#mb3cb5c074b" x="483.882353" y="195.90272" style="stroke: #000000; stroke-width: 0.8"/>
      </g>
     </g>
     <g id="text_42">
      <!-- 0.10 -->
      <g transform="translate(454.616728 199.701939) scale(0.1 -0.1)">
       <use xlink:href="#DejaVuSans-30"/>
       <use xlink:href="#DejaVuSans-2e" transform="translate(63.623047 0)"/>
       <use xlink:href="#DejaVuSans-31" transform="translate(95.410156 0)"/>
       <use xlink:href="#DejaVuSans-30" transform="translate(159.033203 0)"/>
      </g>
     </g>
    </g>
    <g id="ytick_22">
     <g id="line2d_77">
      <path d="M 483.882353 170.73408 
L 648 170.73408 
" clip-path="url(#p9c0c4fe255)" style="fill: none; stroke: #b0b0b0; stroke-width: 0.8; stroke-linecap: square"/>
     </g>
     <g id="line2d_78">
      <g>
       <use xlink:href="#mb3cb5c074b" x="483.882353" y="170.73408" style="stroke: #000000; stroke-width: 0.8"/>
      </g>
     </g>
     <g id="text_43">
      <!-- 0.15 -->
      <g transform="translate(454.616728 174.533299) scale(0.1 -0.1)">
       <use xlink:href="#DejaVuSans-30"/>
       <use xlink:href="#DejaVuSans-2e" transform="translate(63.623047 0)"/>
       <use xlink:href="#DejaVuSans-31" transform="translate(95.410156 0)"/>
       <use xlink:href="#DejaVuSans-35" transform="translate(159.033203 0)"/>
      </g>
     </g>
    </g>
    <g id="ytick_23">
     <g id="line2d_79">
      <path d="M 483.882353 145.56544 
L 648 145.56544 
" clip-path="url(#p9c0c4fe255)" style="fill: none; stroke: #b0b0b0; stroke-width: 0.8; stroke-linecap: square"/>
     </g>
     <g id="line2d_80">
      <g>
       <use xlink:href="#mb3cb5c074b" x="483.882353" y="145.56544" style="stroke: #000000; stroke-width: 0.8"/>
      </g>
     </g>
     <g id="text_44">
      <!-- 0.20 -->
      <g transform="translate(454.616728 149.364659) scale(0.1 -0.1)">
       <use xlink:href="#DejaVuSans-30"/>
       <use xlink:href="#DejaVuSans-2e" transform="translate(63.623047 0)"/>
       <use xlink:href="#DejaVuSans-32" transform="translate(95.410156 0)"/>
       <use xlink:href="#DejaVuSans-30" transform="translate(159.033203 0)"/>
      </g>
     </g>
    </g>
    <g id="ytick_24">
     <g id="line2d_81">
      <path d="M 483.882353 120.3968 
L 648 120.3968 
" clip-path="url(#p9c0c4fe255)" style="fill: none; stroke: #b0b0b0; stroke-width: 0.8; stroke-linecap: square"/>
     </g>
     <g id="line2d_82">
      <g>
       <use xlink:href="#mb3cb5c074b" x="483.882353" y="120.3968" style="stroke: #000000; stroke-width: 0.8"/>
      </g>
     </g>
     <g id="text_45">
      <!-- 0.25 -->
      <g transform="translate(454.616728 124.196019) scale(0.1 -0.1)">
       <use xlink:href="#DejaVuSans-30"/>
       <use xlink:href="#DejaVuSans-2e" transform="translate(63.623047 0)"/>
       <use xlink:href="#DejaVuSans-32" transform="translate(95.410156 0)"/>
       <use xlink:href="#DejaVuSans-35" transform="translate(159.033203 0)"/>
      </g>
     </g>
    </g>
    <g id="ytick_25">
     <g id="line2d_83">
      <path d="M 483.882353 95.22816 
L 648 95.22816 
" clip-path="url(#p9c0c4fe255)" style="fill: none; stroke: #b0b0b0; stroke-width: 0.8; stroke-linecap: square"/>
     </g>
     <g id="line2d_84">
      <g>
       <use xlink:href="#mb3cb5c074b" x="483.882353" y="95.22816" style="stroke: #000000; stroke-width: 0.8"/>
      </g>
     </g>
     <g id="text_46">
      <!-- 0.30 -->
      <g transform="translate(454.616728 99.027379) scale(0.1 -0.1)">
       <use xlink:href="#DejaVuSans-30"/>
       <use xlink:href="#DejaVuSans-2e" transform="translate(63.623047 0)"/>
       <use xlink:href="#DejaVuSans-33" transform="translate(95.410156 0)"/>
       <use xlink:href="#DejaVuSans-30" transform="translate(159.033203 0)"/>
      </g>
     </g>
    </g>
    <g id="ytick_26">
     <g id="line2d_85">
      <path d="M 483.882353 70.05952 
L 648 70.05952 
" clip-path="url(#p9c0c4fe255)" style="fill: none; stroke: #b0b0b0; stroke-width: 0.8; stroke-linecap: square"/>
     </g>
     <g id="line2d_86">
      <g>
       <use xlink:href="#mb3cb5c074b" x="483.882353" y="70.05952" style="stroke: #000000; stroke-width: 0.8"/>
      </g>
     </g>
     <g id="text_47">
      <!-- 0.35 -->
      <g transform="translate(454.616728 73.858739) scale(0.1 -0.1)">
       <use xlink:href="#DejaVuSans-30"/>
       <use xlink:href="#DejaVuSans-2e" transform="translate(63.623047 0)"/>
       <use xlink:href="#DejaVuSans-33" transform="translate(95.410156 0)"/>
       <use xlink:href="#DejaVuSans-35" transform="translate(159.033203 0)"/>
      </g>
     </g>
    </g>
    <g id="ytick_27">
     <g id="line2d_87">
      <path d="M 483.882353 44.890881 
L 648 44.890881 
" clip-path="url(#p9c0c4fe255)" style="fill: none; stroke: #b0b0b0; stroke-width: 0.8; stroke-linecap: square"/>
     </g>
     <g id="line2d_88">
      <g>
       <use xlink:href="#mb3cb5c074b" x="483.882353" y="44.890881" style="stroke: #000000; stroke-width: 0.8"/>
      </g>
     </g>
     <g id="text_48">
      <!-- 0.40 -->
      <g transform="translate(454.616728 48.690099) scale(0.1 -0.1)">
       <use xlink:href="#DejaVuSans-30"/>
       <use xlink:href="#DejaVuSans-2e" transform="translate(63.623047 0)"/>
       <use xlink:href="#DejaVuSans-34" transform="translate(95.410156 0)"/>
       <use xlink:href="#DejaVuSans-30" transform="translate(159.033203 0)"/>
      </g>
     </g>
    </g>
   </g>
   <g id="line2d_89">
    <path d="M 492.140275 246.239763 
L 497.929737 246.170905 
L 500.245523 245.926244 
L 501.403415 245.667406 
L 503.7192 244.807763 
L 510.666556 241.384521 
L 511.824448 241.031441 
L 512.982341 240.836986 
L 515.298126 240.667028 
L 516.456019 240.390377 
L 517.613911 239.769627 
L 518.771804 238.71451 
L 519.929696 237.21758 
L 521.087589 235.335824 
L 523.403374 230.807356 
L 526.877052 223.81491 
L 529.192837 219.442038 
L 530.350729 216.768583 
L 531.508622 213.299117 
L 532.666515 208.784813 
L 533.824407 203.212441 
L 543.087548 152.087197 
L 547.719118 123.280557 
L 548.87701 117.274598 
L 550.034903 112.119044 
L 551.192796 107.936885 
L 552.350688 104.759961 
L 553.508581 102.46757 
L 554.666473 100.826801 
L 555.824366 99.616986 
L 556.982258 98.715741 
L 560.455936 96.798129 
L 561.613829 95.734774 
L 563.929614 93.082871 
L 565.087506 92.637539 
L 566.245399 93.648157 
L 567.403292 96.345121 
L 568.561184 100.438497 
L 570.876969 109.96643 
L 572.034862 113.826257 
L 573.192754 116.2069 
L 574.350647 116.614881 
L 575.50854 114.678047 
L 576.666432 110.185113 
L 577.824325 103.187006 
L 578.982217 94.134371 
L 581.298002 74.148591 
L 582.455895 66.300493 
L 583.613788 61.951276 
L 584.77168 62.098191 
L 585.929573 67.039506 
L 587.087465 76.435734 
L 588.245358 89.50585 
L 590.561143 122.355755 
L 592.876928 156.277613 
L 594.034821 171.241236 
L 595.192713 184.284801 
L 596.350606 195.393295 
L 597.508498 204.721627 
L 598.666391 212.471317 
L 599.824283 218.853995 
L 600.982176 224.105957 
L 602.140069 228.485331 
L 603.297961 232.223807 
L 604.455854 235.464786 
L 605.613746 238.240287 
L 606.771639 240.508732 
L 607.929531 242.229012 
L 609.087424 243.422824 
L 610.245317 244.190083 
L 611.403209 244.675955 
L 613.718994 245.301277 
L 617.192672 245.965988 
L 619.508457 246.167348 
L 624.140027 246.238659 
L 640.350523 246.24 
L 640.350523 246.24 
" clip-path="url(#p9c0c4fe255)" style="fill: none; stroke: #1f77b4; stroke-width: 2; stroke-linecap: square"/>
   </g>
   <g id="line2d_90">
    <path d="M 491.342246 246.182932 
L 498.335896 245.976653 
L 501.832721 245.708199 
L 505.329545 245.209446 
L 507.660762 244.674419 
L 509.991979 243.904794 
L 512.323195 242.820047 
L 514.654412 241.322318 
L 515.82002 240.383372 
L 516.985628 239.297018 
L 518.151237 238.046757 
L 519.316845 236.615528 
L 520.482453 234.985938 
L 521.648061 233.140551 
L 522.81367 231.062226 
L 523.979278 228.734503 
L 525.144886 226.142034 
L 527.476103 220.109878 
L 529.80732 212.883842 
L 532.138536 204.432337 
L 534.469753 194.790515 
L 536.800969 184.074211 
L 540.297794 166.460379 
L 547.291444 130.127595 
L 549.62266 119.387784 
L 551.953877 110.169874 
L 553.119485 106.27735 
L 554.285094 102.93118 
L 555.450702 100.175321 
L 556.61631 98.046428 
L 557.781918 96.572928 
L 558.947527 95.774127 
L 560.113135 95.659233 
L 561.278743 96.226045 
L 562.444352 97.458902 
L 563.60996 99.325269 
L 564.775568 101.770144 
L 565.941176 104.707436 
L 570.60361 117.820855 
L 571.769218 119.894455 
L 572.934826 120.585032 
L 574.100434 119.367632 
L 575.266043 115.783604 
L 576.431651 109.554512 
L 577.597259 100.707539 
L 578.762868 89.681919 
L 581.094084 65.124181 
L 582.259693 54.52196 
L 583.425301 47.222901 
L 584.590909 44.64 
L 585.756517 47.682732 
L 586.922126 56.575305 
L 588.087734 70.808099 
L 589.253342 89.235576 
L 593.915775 173.099739 
L 595.081384 189.92072 
L 596.246992 203.75712 
L 597.4126 214.655936 
L 598.578209 222.925617 
L 599.743817 229.012383 
L 600.909425 233.395931 
L 602.075033 236.517737 
L 603.240642 238.74318 
L 604.40625 240.350928 
L 605.571858 241.539921 
L 606.737467 242.444816 
L 607.903075 243.153224 
L 610.234291 244.183168 
L 612.565508 244.877024 
L 614.896725 245.349609 
L 618.393549 245.784958 
L 623.055983 246.065544 
L 630.049632 246.203901 
L 640.540107 246.237506 
L 640.540107 246.237506 
" clip-path="url(#p9c0c4fe255)" style="fill: none; stroke-dasharray: 7.4,3.2; stroke-dashoffset: 0; stroke: #ff7f0e; stroke-width: 2"/>
   </g>
   <g id="patch_9">
    <path d="M 483.882353 256.32 
L 483.882353 34.56 
" style="fill: none; stroke: #000000; stroke-width: 0.8; stroke-linejoin: miter; stroke-linecap: square"/>
   </g>
   <g id="patch_10">
    <path d="M 483.882353 256.32 
L 648 256.32 
" style="fill: none; stroke: #000000; stroke-width: 0.8; stroke-linejoin: miter; stroke-linecap: square"/>
   </g>
   <g id="text_49">
    <!-- h=0.1999, Mixed -->
    <g transform="translate(514.594301 28.56) scale(0.12 -0.12)">
     <defs>
      <path id="DejaVuSans-39" d="M 703 97 
L 703 672 
Q 941 559 1184 500 
Q 1428 441 1663 441 
Q 2288 441 2617 861 
Q 2947 1281 2994 2138 
Q 2813 1869 2534 1725 
Q 2256 1581 1919 1581 
Q 1219 1581 811 2004 
Q 403 2428 403 3163 
Q 403 3881 828 4315 
Q 1253 4750 1959 4750 
Q 2769 4750 3195 4129 
Q 3622 3509 3622 2328 
Q 3622 1225 3098 567 
Q 2575 -91 1691 -91 
Q 1453 -91 1209 -44 
Q 966 3 703 97 
z
M 1959 2075 
Q 2384 2075 2632 2365 
Q 2881 2656 2881 3163 
Q 2881 3666 2632 3958 
Q 2384 4250 1959 4250 
Q 1534 4250 1286 3958 
Q 1038 3666 1038 3163 
Q 1038 2656 1286 2365 
Q 1534 2075 1959 2075 
z
" transform="scale(0.015625)"/>
      <path id="DejaVuSans-4d" d="M 628 4666 
L 1569 4666 
L 2759 1491 
L 3956 4666 
L 4897 4666 
L 4897 0 
L 4281 0 
L 4281 4097 
L 3078 897 
L 2444 897 
L 1241 4097 
L 1241 0 
L 628 0 
L 628 4666 
z
" transform="scale(0.015625)"/>
      <path id="DejaVuSans-78" d="M 3513 3500 
L 2247 1797 
L 3578 0 
L 2900 0 
L 1881 1375 
L 863 0 
L 184 0 
L 1544 1831 
L 300 3500 
L 978 3500 
L 1906 2253 
L 2834 3500 
L 3513 3500 
z
" transform="scale(0.015625)"/>
      <path id="DejaVuSans-64" d="M 2906 2969 
L 2906 4863 
L 3481 4863 
L 3481 0 
L 2906 0 
L 2906 525 
Q 2725 213 2448 61 
Q 2172 -91 1784 -91 
Q 1150 -91 751 415 
Q 353 922 353 1747 
Q 353 2572 751 3078 
Q 1150 3584 1784 3584 
Q 2172 3584 2448 3432 
Q 2725 3281 2906 2969 
z
M 947 1747 
Q 947 1113 1208 752 
Q 1469 391 1925 391 
Q 2381 391 2643 752 
Q 2906 1113 2906 1747 
Q 2906 2381 2643 2742 
Q 2381 3103 1925 3103 
Q 1469 3103 1208 2742 
Q 947 2381 947 1747 
z
" transform="scale(0.015625)"/>
     </defs>
     <use xlink:href="#DejaVuSans-68"/>
     <use xlink:href="#DejaVuSans-3d" transform="translate(63.378906 0)"/>
     <use xlink:href="#DejaVuSans-30" transform="translate(147.167969 0)"/>
     <use xlink:href="#DejaVuSans-2e" transform="translate(210.791016 0)"/>
     <use xlink:href="#DejaVuSans-31" transform="translate(242.578125 0)"/>
     <use xlink:href="#DejaVuSans-39" transform="translate(306.201172 0)"/>
     <use xlink:href="#DejaVuSans-39" transform="translate(369.824219 0)"/>
     <use xlink:href="#DejaVuSans-39" transform="translate(433.447266 0)"/>
     <use xlink:href="#DejaVuSans-2c" transform="translate(497.070312 0)"/>
     <use xlink:href="#DejaVuSans-20" transform="translate(528.857422 0)"/>
     <use xlink:href="#DejaVuSans-4d" transform="translate(560.644531 0)"/>
     <use xlink:href="#DejaVuSans-69" transform="translate(646.923828 0)"/>
     <use xlink:href="#DejaVuSans-78" transform="translate(674.707031 0)"/>
     <use xlink:href="#DejaVuSans-65" transform="translate(730.761719 0)"/>
     <use xlink:href="#DejaVuSans-64" transform="translate(792.285156 0)"/>
    </g>
   </g>
  </g>
 </g>
 <defs>
  <clipPath id="pf054c2f544">
   <rect x="90" y="34.56" width="164.117647" height="221.76"/>
  </clipPath>
  <clipPath id="p01c13a3051">
   <rect x="286.941176" y="34.56" width="164.117647" height="221.76"/>
  </clipPath>
  <clipPath id="p9c0c4fe255">
   <rect x="483.882353" y="34.56" width="164.117647" height="221.76"/>
  </clipPath>
 </defs>
</svg>
