<?xml version="1.0" encoding="utf-8" standalone="no"?>
<!DOCTYPE svg PUBLIC "-//W3C//DTD SVG 1.1//EN"
  "http://www.w3.org/Graphics/SVG/1.1/DTD/svg11.dtd">
<svg xmlns:xlink="http://www.w3.org/1999/xlink" width="460.8pt" height="345.6pt" viewBox="0 0 460.8 345.6" xmlns="http://www.w3.org/2000/svg" version="1.1">
 <metadata>
  <rdf:RDF xmlns:dc="http://purl.org/dc/elements/1.1/" xmlns:cc="http://creativecommons.org/ns#" xmlns:rdf="http://www.w3.org/1999/02/22-rdf-syntax-ns#">
   <cc:Work>
    <dc:type rdf:resource="http://purl.org/dc/dcmitype/StillImage"/>
    <dc:date>2022-01-01T00:00:00+00:00</dc:date>
    <dc:format>image/svg+xml</dc:format>
    <dc:creator>
     <cc:Agent>
      <dc:title>Matplotlib v3.10.8, https://matplotlib.org/</dc:title>
     </cc:Agent>
    </dc:creator>
   </cc:Work>
  </rdf:RDF>
 </metadata>
 <defs>
  <style type="text/css">*{stroke-linejoin: round; stroke-linecap: butt}</style>
 </defs>
 <g id="figure_1">
  <g id="patch_1">
   <path d="M 0 345.6 
L 460.8 345.6 
L 460.8 0 
L 0 0 
z
" style="fill: #ffffff"/>
  </g>
  <g id="axes_1">
   <g id="patch_2">
    <path d="M 57.6 307.584 
L 414.72 307.584 
L 414.72 41.472 
L 57.6 41.472 
z
" style="fill: #ffffff"/>
   </g>
   <g id="matplotlib.axis_1">
    <g id="xtick_1">
     <g id="line2d_1">
      <path d="M 62.850174 307.584 
L 62.850174 41.472 
" clip-path="url(#p0dc54fabf3)" style="fill: none; stroke: #b0b0b0; stroke-width: 0.8; stroke-linecap: square"/>
     </g>
     <g id="line2d_2">
      <defs>
       <path id="mc3e2f49110" d="M 0 0 
L 0 3.5 
" style="stroke: #000000; stroke-width: 0.8"/>
      </defs>
      <g>
       <use xlink:href="#mc3e2f49110" x="62.850174" y="307.584" style="stroke: #000000; stroke-width: 0.8"/>
      </g>
     </g>
     <g id="text_1">
      <!-- $\mathdefault{10^{0}}$ -->
      <g transform="translate(54.050174 322.182437) scale(0.1 -0.1)">
       <defs>
        <path id="DejaVuSans-31" d="M 794 531 
L 1825 531 
L 1825 4091 
L 703 3866 
L 703 4441 
L 1819 4666 
L 2450 4666 
L 2450 531 
L 3481 531 
L 3481 0 
L 794 0 
L 794 531 
z
" transform="scale(0.015625)"/>
        <path id="DejaVuSans-30" d="M 2034 4250 
Q 1547 4250 1301 3770 
Q 1056 3291 1056 2328 
Q 1056 1369 1301 889 
Q 1547 409 2034 409 
Q 2525 409 2770 889 
Q 3016 1369 3016 2328 
Q 3016 3291 2770 3770 
Q 2525 4250 2034 4250 
z
M 2034 4750 
Q 2819 4750 3233 4129 
Q 3647 3509 3647 2328 
Q 3647 1150 3233 529 
Q 2819 -91 2034 -91 
Q 1250 -91 836 529 
Q 422 1150 422 2328 
Q 422 3509 836 4129 
Q 1250 4750 2034 4750 
z
" transform="scale(0.015625)"/>
       </defs>
       <use xlink:href="#DejaVuSans-31" transform="translate(0 0.765625)"/>
       <use xlink:href="#DejaVuSans-30" transform="translate(63.623047 0.765625)"/>
       <use xlink:href="#DejaVuSans-30" transform="translate(128.203125 39.046875) scale(0.7)"/>
      </g>
     </g>
    </g>
    <g id="xtick_2">
     <g id="line2d_3">
      <path d="M 167.853659 307.584 
L 167.853659 41.472 
" clip-path="url(#p0dc54fabf3)" style="fill: none; stroke: #b0b0b0; stroke-width: 0.8; stroke-linecap: square"/>
     </g>
     <g id="line2d_4">
      <g>
       <use xlink:href="#mc3e2f49110" x="167.853659" y="307.584" style="stroke: #000000; stroke-width: 0.8"/>
      </g>
     </g>
     <g id="text_2">
      <!-- $\mathdefault{10^{1}}$ -->
      <g transform="translate(159.053659 322.182437) scale(0.1 -0.1)">
       <use xlink:href="#DejaVuSans-31" transform="translate(0 0.684375)"/>
       <use xlink:href="#DejaVuSans-30" transform="translate(63.623047 0.684375)"/>
       <use xlink:href="#DejaVuSans-31" transform="translate(128.203125 38.965625) scale(0.7)"/>
      </g>
     </g>
    </g>
    <g id="xtick_3">
     <g id="line2d_5">
      <path d="M 272.857143 307.584 
L 272.857143 41.472 
" clip-path="url(#p0dc54fabf3)" style="fill: none; stroke: #b0b0b0; stroke-width: 0.8; stroke-linecap: square"/>
     </g>
     <g id="line2d_6">
      <g>
       <use xlink:href="#mc3e2f49110" x="272.857143" y="307.584" style="stroke: #000000; stroke-width: 0.8"/>
      </g>
     </g>
     <g id="text_3">
      <!-- $\mathdefault{10^{2}}$ -->
      <g transform="translate(264.057143 322.182437) scale(0.1 -0.1)">
       <defs>
        <path id="DejaVuSans-32" d="M 1228 531 
L 3431 531 
L 3431 0 
L 469 0 
L 469 531 
Q 828 903 1448 1529 
Q 2069 2156 2228 2338 
Q 2531 2678 2651 2914 
Q 2772 3150 2772 3378 
Q 2772 3750 2511 3984 
Q 2250 4219 1831 4219 
Q 1534 4219 1204 4116 
Q 875 4013 500 3803 
L 500 4441 
Q 881 4594 1212 4672 
Q 1544 4750 1819 4750 
Q 2544 4750 2975 4387 
Q 3406 4025 3406 3419 
Q 3406 3131 3298 2873 
Q 3191 2616 2906 2266 
Q 2828 2175 2409 1742 
Q 1991 1309 1228 531 
z
" transform="scale(0.015625)"/>
       </defs>
       <use xlink:href="#DejaVuSans-31" transform="translate(0 0.765625)"/>
       <use xlink:href="#DejaVuSans-30" transform="translate(63.623047 0.765625)"/>
       <use xlink:href="#DejaVuSans-32" transform="translate(128.203125 39.046875) scale(0.7)"/>
      </g>
     </g>
    </g>
    <g id="xtick_4">
     <g id="line2d_7">
      <path d="M 377.860627 307.584 
L 377.860627 41.472 
" clip-path="url(#p0dc54fabf3)" style="fill: none; stroke: #b0b0b0; stroke-width: 0.8; stroke-linecap: square"/>
     </g>
     <g id="line2d_8">
      <g>
       <use xlink:href="#mc3e2f49110" x="377.860627" y="307.584" style="stroke: #000000; stroke-width: 0.8"/>
      </g>
     </g>
     <g id="text_4">
      <!-- $\mathdefault{10^{3}}$ -->
      <g transform="translate(369.060627 322.182437) scale(0.1 -0.1)">
       <defs>
        <path id="DejaVuSans-33" d="M 2597 2516 
Q 3050 2419 3304 2112 
Q 3559 1806 3559 1356 
Q 3559 666 3084 287 
Q 2609 -91 1734 -91 
Q 1441 -91 1130 -33 
Q 819 25 488 141 
L 488 750 
Q 750 597 1062 519 
Q 1375 441 1716 441 
Q 2309 441 2620 675 
Q 2931 909 2931 1356 
Q 2931 1769 2642 2001 
Q 2353 2234 1838 2234 
L 1294 2234 
L 1294 2753 
L 1863 2753 
Q 2328 2753 2575 2939 
Q 2822 3125 2822 3475 
Q 2822 3834 2567 4026 
Q 2313 4219 1838 4219 
Q 1578 4219 1281 4162 
Q 984 4106 628 3988 
L 628 4550 
Q 988 4650 1302 4700 
Q 1616 4750 1894 4750 
Q 2613 4750 3031 4423 
Q 3450 4097 3450 3541 
Q 3450 3153 3228 2886 
Q 3006 2619 2597 2516 
z
" transform="scale(0.015625)"/>
       </defs>
       <use xlink:href="#DejaVuSans-31" transform="translate(0 0.765625)"/>
       <use xlink:href="#DejaVuSans-30" transform="translate(63.623047 0.765625)"/>
       <use xlink:href="#DejaVuSans-33" transform="translate(128.203125 39.046875) scale(0.7)"/>
      </g>
     </g>
    </g>
    <g id="xtick_5">
     <g id="line2d_9">
      <defs>
       <path id="m489f1eafa1" d="M 0 0 
L 0 2 
" style="stroke: #000000; stroke-width: 0.6"/>
      </defs>
      <g>
       <use xlink:href="#m489f1eafa1" x="58.045478" y="307.584" style="stroke: #000000; stroke-width: 0.6"/>
      </g>
     </g>
    </g>
    <g id="xtick_6">
     <g id="line2d_10">
      <g>
       <use xlink:href="#m489f1eafa1" x="94.459373" y="307.584" style="stroke: #000000; stroke-width: 0.6"/>
      </g>
     </g>
    </g>
    <g id="xtick_7">
     <g id="line2d_11">
      <g>
       <use xlink:href="#m489f1eafa1" x="112.949568" y="307.584" style="stroke: #000000; stroke-width: 0.6"/>
      </g>
     </g>
    </g>
    <g id="xtick_8">
     <g id="line2d_12">
      <g>
       <use xlink:href="#m489f1eafa1" x="126.068571" y="307.584" style="stroke: #000000; stroke-width: 0.6"/>
      </g>
     </g>
    </g>
    <g id="xtick_9">
     <g id="line2d_13">
      <g>
       <use xlink:href="#m489f1eafa1" x="136.24446" y="307.584" style="stroke: #000000; stroke-width: 0.6"/>
      </g>
     </g>
    </g>
    <g id="xtick_10">
     <g id="line2d_14">
      <g>
       <use xlink:href="#m489f1eafa1" x="144.558767" y="307.584" style="stroke: #000000; stroke-width: 0.6"/>
      </g>
     </g>
    </g>
    <g id="xtick_11">
     <g id="line2d_15">
      <g>
       <use xlink:href="#m489f1eafa1" x="151.588413" y="307.584" style="stroke: #000000; stroke-width: 0.6"/>
      </g>
     </g>
    </g>
    <g id="xtick_12">
     <g id="line2d_16">
      <g>
       <use xlink:href="#m489f1eafa1" x="157.67777" y="307.584" style="stroke: #000000; stroke-width: 0.6"/>
      </g>
     </g>
    </g>
    <g id="xtick_13">
     <g id="line2d_17">
      <g>
       <use xlink:href="#m489f1eafa1" x="163.048963" y="307.584" style="stroke: #000000; stroke-width: 0.6"/>
      </g>
     </g>
    </g>
    <g id="xtick_14">
     <g id="line2d_18">
      <g>
       <use xlink:href="#m489f1eafa1" x="199.462857" y="307.584" style="stroke: #000000; stroke-width: 0.6"/>
      </g>
     </g>
    </g>
    <g id="xtick_15">
     <g id="line2d_19">
      <g>
       <use xlink:href="#m489f1eafa1" x="217.953053" y="307.584" style="stroke: #000000; stroke-width: 0.6"/>
      </g>
     </g>
    </g>
    <g id="xtick_16">
     <g id="line2d_20">
      <g>
       <use xlink:href="#m489f1eafa1" x="231.072055" y="307.584" style="stroke: #000000; stroke-width: 0.6"/>
      </g>
     </g>
    </g>
    <g id="xtick_17">
     <g id="line2d_21">
      <g>
       <use xlink:href="#m489f1eafa1" x="241.247945" y="307.584" style="stroke: #000000; stroke-width: 0.6"/>
      </g>
     </g>
    </g>
    <g id="xtick_18">
     <g id="line2d_22">
      <g>
       <use xlink:href="#m489f1eafa1" x="249.562251" y="307.584" style="stroke: #000000; stroke-width: 0.6"/>
      </g>
     </g>
    </g>
    <g id="xtick_19">
     <g id="line2d_23">
      <g>
       <use xlink:href="#m489f1eafa1" x="256.591897" y="307.584" style="stroke: #000000; stroke-width: 0.6"/>
      </g>
     </g>
    </g>
    <g id="xtick_20">
     <g id="line2d_24">
      <g>
       <use xlink:href="#m489f1eafa1" x="262.681254" y="307.584" style="stroke: #000000; stroke-width: 0.6"/>
      </g>
     </g>
    </g>
    <g id="xtick_21">
     <g id="line2d_25">
      <g>
       <use xlink:href="#m489f1eafa1" x="268.052447" y="307.584" style="stroke: #000000; stroke-width: 0.6"/>
      </g>
     </g>
    </g>
    <g id="xtick_22">
     <g id="line2d_26">
      <g>
       <use xlink:href="#m489f1eafa1" x="304.466341" y="307.584" style="stroke: #000000; stroke-width: 0.6"/>
      </g>
     </g>
    </g>
    <g id="xtick_23">
     <g id="line2d_27">
      <g>
       <use xlink:href="#m489f1eafa1" x="322.956537" y="307.584" style="stroke: #000000; stroke-width: 0.6"/>
      </g>
     </g>
    </g>
    <g id="xtick_24">
     <g id="line2d_28">
      <g>
       <use xlink:href="#m489f1eafa1" x="336.07554" y="307.584" style="stroke: #000000; stroke-width: 0.6"/>
      </g>
     </g>
    </g>
    <g id="xtick_25">
     <g id="line2d_29">
      <g>
       <use xlink:href="#m489f1eafa1" x="346.251429" y="307.584" style="stroke: #000000; stroke-width: 0.6"/>
      </g>
     </g>
    </g>
    <g id="xtick_26">
     <g id="line2d_30">
      <g>
       <use xlink:href="#m489f1eafa1" x="354.565736" y="307.584" style="stroke: #000000; stroke-width: 0.6"/>
      </g>
     </g>
    </g>
    <g id="xtick_27">
     <g id="line2d_31">
      <g>
       <use xlink:href="#m489f1eafa1" x="361.595382" y="307.584" style="stroke: #000000; stroke-width: 0.6"/>
      </g>
     </g>
    </g>
    <g id="xtick_28">
     <g id="line2d_32">
      <g>
       <use xlink:href="#m489f1eafa1" x="367.684738" y="307.584" style="stroke: #000000; stroke-width: 0.6"/>
      </g>
     </g>
    </g>
    <g id="xtick_29">
     <g id="line2d_33">
      <g>
       <use xlink:href="#m489f1eafa1" x="373.055931" y="307.584" style="stroke: #000000; stroke-width: 0.6"/>
      </g>
     </g>
    </g>
    <g id="xtick_30">
     <g id="line2d_34">
      <g>
       <use xlink:href="#m489f1eafa1" x="409.469826" y="307.584" style="stroke: #000000; stroke-width: 0.6"/>
      </g>
     </g>
    </g>
    <g id="text_5">
     <!-- iteration nb -->
     <g transform="translate(207.105312 335.860562) scale(0.1 -0.1)">
      <defs>
       <path id="DejaVuSans-69" d="M 603 3500 
L 1178 3500 
L 1178 0 
L 603 0 
L 603 3500 
z
M 603 4863 
L 1178 4863 
L 1178 4134 
L 603 4134 
L 603 4863 
z
" transform="scale(0.015625)"/>
       <path id="DejaVuSans-74" d="M 1172 4494 
L 1172 3500 
L 2356 3500 
L 2356 3053 
L 1172 3053 
L 1172 1153 
Q 1172 725 1289 603 
Q 1406 481 1766 481 
L 2356 481 
L 2356 0 
L 1766 0 
Q 1100 0 847 248 
Q 594 497 594 1153 
L 594 3053 
L 172 3053 
L 172 3500 
L 594 3500 
L 594 4494 
L 1172 4494 
z
" transform="scale(0.015625)"/>
       <path id="DejaVuSans-65" d="M 3597 1894 
L 3597 1613 
L 953 1613 
Q 991 1019 1311 708 
Q 1631 397 2203 397 
Q 2534 397 2845 478 
Q 3156 559 3463 722 
L 3463 178 
Q 3153 47 2828 -22 
Q 2503 -91 2169 -91 
Q 1331 -91 842 396 
Q 353 884 353 1716 
Q 353 2575 817 3079 
Q 1281 3584 2069 3584 
Q 2775 3584 3186 3129 
Q 3597 2675 3597 1894 
z
M 3022 2063 
Q 3016 2534 2758 2815 
Q 2500 3097 2075 3097 
Q 1594 3097 1305 2825 
Q 1016 2553 972 2059 
L 3022 2063 
z
" transform="scale(0.015625)"/>
       <path id="DejaVuSans-72" d="M 2631 2963 
Q 2534 3019 2420 3045 
Q 2306 3072 2169 3072 
Q 1681 3072 1420 2755 
Q 1159 2438 1159 1844 
L 1159 0 
L 581 0 
L 581 3500 
L 1159 3500 
L 1159 2956 
Q 1341 3275 1631 3429 
Q 1922 3584 2338 3584 
Q 2397 3584 2469 3576 
Q 2541 3569 2628 3553 
L 2631 2963 
z
" transform="scale(0.015625)"/>
       <path id="DejaVuSans-61" d="M 2194 1759 
Q 1497 1759 1228 1600 
Q 959 1441 959 1056 
Q 959 750 1161 570 
Q 1363 391 1709 391 
Q 2188 391 2477 730 
Q 2766 1069 2766 1631 
L 2766 1759 
L 2194 1759 
z
M 3341 1997 
L 3341 0 
L 2766 0 
L 2766 531 
Q 2569 213 2275 61 
Q 1981 -91 1556 -91 
Q 1019 -91 701 211 
Q 384 513 384 1019 
Q 384 1609 779 1909 
Q 1175 2209 1959 2209 
L 2766 2209 
L 2766 2266 
Q 2766 2663 2505 2880 
Q 2244 3097 1772 3097 
Q 1472 3097 1187 3025 
Q 903 2953 641 2809 
L 641 3341 
Q 956 3463 1253 3523 
Q 1550 3584 1831 3584 
Q 2591 3584 2966 3190 
Q 3341 2797 3341 1997 
z
" transform="scale(0.015625)"/>
       <path id="DejaVuSans-6f" d="M 1959 3097 
Q 1497 3097 1228 2736 
Q 959 2375 959 1747 
Q 959 1119 1226 758 
Q 1494 397 1959 397 
Q 2419 397 2687 759 
Q 2956 1122 2956 1747 
Q 2956 2369 2687 2733 
Q 2419 3097 1959 3097 
z
M 1959 3584 
Q 2709 3584 3137 3096 
Q 3566 2609 3566 1747 
Q 3566 888 3137 398 
Q 2709 -91 1959 -91 
Q 1206 -91 779 398 
Q 353 888 353 1747 
Q 353 2609 779 3096 
Q 1206 3584 1959 3584 
z
" transform="scale(0.015625)"/>
       <path id="DejaVuSans-6e" d="M 3513 2113 
L 3513 0 
L 2938 0 
L 2938 2094 
Q 2938 2591 2744 2837 
Q 2550 3084 2163 3084 
Q 1697 3084 1428 2787 
Q 1159 2491 1159 1978 
L 1159 0 
L 581 0 
L 581 3500 
L 1159 3500 
L 1159 2956 
Q 1366 3272 1645 3428 
Q 1925 3584 2291 3584 
Q 2894 3584 3203 3211 
Q 3513 2838 3513 2113 
z
" transform="scale(0.015625)"/>
       <path id="DejaVuSans-20" transform="scale(0.015625)"/>
       <path id="DejaVuSans-62" d="M 3116 1747 
Q 3116 2381 2855 2742 
Q 2594 3103 2138 3103 
Q 1681 3103 1420 2742 
Q 1159 2381 1159 1747 
Q 1159 1113 1420 752 
Q 1681 391 2138 391 
Q 2594 391 2855 752 
Q 3116 1113 3116 1747 
z
M 1159 2969 
Q 1341 3281 1617 3432 
Q 1894 3584 2278 3584 
Q 2916 3584 3314 3078 
Q 3713 2572 3713 1747 
Q 3713 922 3314 415 
Q 2916 -91 2278 -91 
Q 1894 -91 1617 61 
Q 1341 213 1159 525 
L 1159 0 
L 581 0 
L 581 4863 
L 1159 4863 
L 1159 2969 
z
" transform="scale(0.015625)"/>
      </defs>
      <use xlink:href="#DejaVuSans-69"/>
      <use xlink:href="#DejaVuSans-74" transform="translate(27.783203 0)"/>
      <use xlink:href="#DejaVuSans-65" transform="translate(66.992188 0)"/>
      <use xlink:href="#DejaVuSans-72" transform="translate(128.515625 0)"/>
      <use xlink:href="#DejaVuSans-61" transform="translate(169.628906 0)"/>
      <use xlink:href="#DejaVuSans-74" transform="translate(230.908203 0)"/>
      <use xlink:href="#DejaVuSans-69" transform="translate(270.117188 0)"/>
      <use xlink:href="#DejaVuSans-6f" transform="translate(297.900391 0)"/>
      <use xlink:href="#DejaVuSans-6e" transform="translate(359.082031 0)"/>
      <use xlink:href="#DejaVuSans-20" transform="translate(422.460938 0)"/>
      <use xlink:href="#DejaVuSans-6e" transform="translate(454.248047 0)"/>
      <use xlink:href="#DejaVuSans-62" transform="translate(517.626953 0)"/>
     </g>
    </g>
   </g>
   <g id="matplotlib.axis_2">
    <g id="ytick_1">
     <g id="line2d_35">
      <path d="M 57.6 292.074626 
L 414.72 292.074626 
" clip-path="url(#p0dc54fabf3)" style="fill: none; stroke: #b0b0b0; stroke-width: 0.8; stroke-linecap: square"/>
     </g>
     <g id="line2d_36">
      <defs>
       <path id="mf28cfd6003" d="M 0 0 
L -3.5 0 
" style="stroke: #000000; stroke-width: 0.8"/>
      </defs>
      <g>
       <use xlink:href="#mf28cfd6003" x="57.6" y="292.074626" style="stroke: #000000; stroke-width: 0.8"/>
      </g>
     </g>
     <g id="text_6">
      <!-- −0.4 -->
      <g transform="translate(26.317187 295.873845) scale(0.1 -0.1)">
       <defs>
        <path id="DejaVuSans-2212" d="M 678 2272 
L 4684 2272 
L 4684 1741 
L 678 1741 
L 678 2272 
z
" transform="scale(0.015625)"/>
        <path id="DejaVuSans-2e" d="M 684 794 
L 1344 794 
L 1344 0 
L 684 0 
L 684 794 
z
" transform="scale(0.015625)"/>
        <path id="DejaVuSans-34" d="M 2419 4116 
L 825 1625 
L 2419 1625 
L 2419 4116 
z
M 2253 4666 
L 3047 4666 
L 3047 1625 
L 3713 1625 
L 3713 1100 
L 3047 1100 
L 3047 0 
L 2419 0 
L 2419 1100 
L 313 1100 
L 313 1709 
L 2253 4666 
z
" transform="scale(0.015625)"/>
       </defs>
       <use xlink:href="#DejaVuSans-2212"/>
       <use xlink:href="#DejaVuSans-30" transform="translate(83.789062 0)"/>
       <use xlink:href="#DejaVuSans-2e" transform="translate(147.412109 0)"/>
       <use xlink:href="#DejaVuSans-34" transform="translate(179.199219 0)"/>
      </g>
     </g>
    </g>
    <g id="ytick_2">
     <g id="line2d_37">
      <path d="M 57.6 244.761348 
L 414.72 244.761348 
" clip-path="url(#p0dc54fabf3)" style="fill: none; stroke: #b0b0b0; stroke-width: 0.8; stroke-linecap: square"/>
     </g>
     <g id="line2d_38">
      <g>
       <use xlink:href="#mf28cfd6003" x="57.6" y="244.761348" style="stroke: #000000; stroke-width: 0.8"/>
      </g>
     </g>
     <g id="text_7">
      <!-- −0.2 -->
      <g transform="translate(26.317187 248.560566) scale(0.1 -0.1)">
       <use xlink:href="#DejaVuSans-2212"/>
       <use xlink:href="#DejaVuSans-30" transform="translate(83.789062 0)"/>
       <use xlink:href="#DejaVuSans-2e" transform="translate(147.412109 0)"/>
       <use xlink:href="#DejaVuSans-32" transform="translate(179.199219 0)"/>
      </g>
     </g>
    </g>
    <g id="ytick_3">
     <g id="line2d_39">
      <path d="M 57.6 197.44807 
L 414.72 197.44807 
" clip-path="url(#p0dc54fabf3)" style="fill: none; stroke: #b0b0b0; stroke-width: 0.8; stroke-linecap: square"/>
     </g>
     <g id="line2d_40">
      <g>
       <use xlink:href="#mf28cfd6003" x="57.6" y="197.44807" style="stroke: #000000; stroke-width: 0.8"/>
      </g>
     </g>
     <g id="text_8">
      <!-- 0.0 -->
      <g transform="translate(34.696875 201.247288) scale(0.1 -0.1)">
       <use xlink:href="#DejaVuSans-30"/>
       <use xlink:href="#DejaVuSans-2e" transform="translate(63.623047 0)"/>
       <use xlink:href="#DejaVuSans-30" transform="translate(95.410156 0)"/>
      </g>
     </g>
    </g>
    <g id="ytick_4">
     <g id="line2d_41">
      <path d="M 57.6 150.134791 
L 414.72 150.134791 
" clip-path="url(#p0dc54fabf3)" style="fill: none; stroke: #b0b0b0; stroke-width: 0.8; stroke-linecap: square"/>
     </g>
     <g id="line2d_42">
      <g>
       <use xlink:href="#mf28cfd6003" x="57.6" y="150.134791" style="stroke: #000000; stroke-width: 0.8"/>
      </g>
     </g>
     <g id="text_9">
      <!-- 0.2 -->
      <g transform="translate(34.696875 153.93401) scale(0.1 -0.1)">
       <use xlink:href="#DejaVuSans-30"/>
       <use xlink:href="#DejaVuSans-2e" transform="translate(63.623047 0)"/>
       <use xlink:href="#DejaVuSans-32" transform="translate(95.410156 0)"/>
      </g>
     </g>
    </g>
    <g id="ytick_5">
     <g id="line2d_43">
      <path d="M 57.6 102.821513 
L 414.72 102.821513 
" clip-path="url(#p0dc54fabf3)" style="fill: none; stroke: #b0b0b0; stroke-width: 0.8; stroke-linecap: square"/>
     </g>
     <g id="line2d_44">
      <g>
       <use xlink:href="#mf28cfd6003" x="57.6" y="102.821513" style="stroke: #000000; stroke-width: 0.8"/>
      </g>
     </g>
     <g id="text_10">
      <!-- 0.4 -->
      <g transform="translate(34.696875 106.620732) scale(0.1 -0.1)">
       <use xlink:href="#DejaVuSans-30"/>
       <use xlink:href="#DejaVuSans-2e" transform="translate(63.623047 0)"/>
       <use xlink:href="#DejaVuSans-34" transform="translate(95.410156 0)"/>
      </g>
     </g>
    </g>
    <g id="ytick_6">
     <g id="line2d_45">
      <path d="M 57.6 55.508235 
L 414.72 55.508235 
" clip-path="url(#p0dc54fabf3)" style="fill: none; stroke: #b0b0b0; stroke-width: 0.8; stroke-linecap: square"/>
     </g>
     <g id="line2d_46">
      <g>
       <use xlink:href="#mf28cfd6003" x="57.6" y="55.508235" style="stroke: #000000; stroke-width: 0.8"/>
      </g>
     </g>
     <g id="text_11">
      <!-- 0.6 -->
      <g transform="translate(34.696875 59.307454) scale(0.1 -0.1)">
       <defs>
        <path id="DejaVuSans-36" d="M 2113 2584 
Q 1688 2584 1439 2293 
Q 1191 2003 1191 1497 
Q 1191 994 1439 701 
Q 1688 409 2113 409 
Q 2538 409 2786 701 
Q 3034 994 3034 1497 
Q 3034 2003 2786 2293 
Q 2538 2584 2113 2584 
z
M 3366 4563 
L 3366 3988 
Q 3128 4100 2886 4159 
Q 2644 4219 2406 4219 
Q 1781 4219 1451 3797 
Q 1122 3375 1075 2522 
Q 1259 2794 1537 2939 
Q 1816 3084 2150 3084 
Q 2853 3084 3261 2657 
Q 3669 2231 3669 1497 
Q 3669 778 3244 343 
Q 2819 -91 2113 -91 
Q 1303 -91 875 529 
Q 447 1150 447 2328 
Q 447 3434 972 4092 
Q 1497 4750 2381 4750 
Q 2619 4750 2861 4703 
Q 3103 4656 3366 4563 
z
" transform="scale(0.015625)"/>
       </defs>
       <use xlink:href="#DejaVuSans-30"/>
       <use xlink:href="#DejaVuSans-2e" transform="translate(63.623047 0)"/>
       <use xlink:href="#DejaVuSans-36" transform="translate(95.410156 0)"/>
      </g>
     </g>
    </g>
    <g id="text_12">
     <!-- mean -->
     <g transform="translate(20.2375 188.707687) rotate(-90) scale(0.1 -0.1)">
      <defs>
       <path id="DejaVuSans-6d" d="M 3328 2828 
Q 3544 3216 3844 3400 
Q 4144 3584 4550 3584 
Q 5097 3584 5394 3201 
Q 5691 2819 5691 2113 
L 5691 0 
L 5113 0 
L 5113 2094 
Q 5113 2597 4934 2840 
Q 4756 3084 4391 3084 
Q 3944 3084 3684 2787 
Q 3425 2491 3425 1978 
L 3425 0 
L 2847 0 
L 2847 2094 
Q 2847 2600 2669 2842 
Q 2491 3084 2119 3084 
Q 1678 3084 1418 2786 
Q 1159 2488 1159 1978 
L 1159 0 
L 581 0 
L 581 3500 
L 1159 3500 
L 1159 2956 
Q 1356 3278 1631 3431 
Q 1906 3584 2284 3584 
Q 2666 3584 2933 3390 
Q 3200 3197 3328 2828 
z
" transform="scale(0.015625)"/>
      </defs>
      <use xlink:href="#DejaVuSans-6d"/>
      <use xlink:href="#DejaVuSans-65" transform="translate(97.412109 0)"/>
      <use xlink:href="#DejaVuSans-61" transform="translate(158.935547 0)"/>
      <use xlink:href="#DejaVuSans-6e" transform="translate(220.214844 0)"/>
     </g>
    </g>
   </g>
   <g id="line2d_47">
    <path d="M 62.850174 53.568 
L 94.459373 275.275035 
L 112.949568 283.892352 
L 126.068571 190.987375 
L 136.24446 295.488 
L 144.558767 265.346646 
L 151.588413 267.644383 
L 157.67777 216.369234 
L 163.048963 192.958349 
L 167.853659 174.643916 
L 172.200035 186.836161 
L 176.167965 182.574814 
L 179.818108 225.392118 
L 183.197612 245.073796 
L 186.343854 262.586969 
L 189.286968 259.858063 
L 192.051598 242.329757 
L 194.658161 241.6691 
L 197.123758 246.31672 
L 199.462857 238.603893 
L 201.687807 233.00632 
L 203.809233 226.596499 
L 205.836342 236.006307 
L 207.777164 242.84427 
L 209.638746 236.546748 
L 211.427306 236.18482 
L 213.148357 231.671102 
L 214.80681 215.39006 
L 216.40706 214.198657 
L 217.953053 219.801805 
L 219.448349 224.586864 
L 220.896166 225.522069 
L 222.299429 237.488683 
L 223.660797 233.518423 
L 224.982699 223.242654 
L 226.26736 215.926309 
L 227.516819 210.68567 
L 228.732956 210.608817 
L 229.917502 206.999803 
L 231.072055 204.987055 
L 232.198099 202.450685 
L 233.297006 205.063984 
L 234.370054 206.993917 
L 235.418432 210.824491 
L 236.443249 209.17131 
L 237.44554 198.791624 
L 238.426276 202.141862 
L 239.386362 192.897865 
L 240.326652 192.738907 
L 242.150993 185.934211 
L 243.036504 189.538631 
L 243.905149 188.864989 
L 244.757555 195.729867 
L 245.594321 192.943698 
L 246.416008 190.751104 
L 247.223152 183.654513 
L 248.016258 187.802703 
L 248.795806 186.450867 
L 249.562251 187.347813 
L 250.316028 181.025401 
L 251.057547 185.254519 
L 251.787201 186.775665 
L 252.505365 182.455742 
L 253.212394 185.514392 
L 253.908627 190.600486 
L 254.594391 190.337337 
L 255.269995 193.544473 
L 255.935736 190.496193 
L 256.591897 189.464061 
L 257.238751 191.187968 
L 257.876558 189.047384 
L 258.505567 183.622988 
L 259.126018 180.387208 
L 259.73814 182.213638 
L 260.342155 187.583888 
L 260.938274 180.810926 
L 261.5267 178.720426 
L 262.681254 182.571013 
L 263.247751 185.54988 
L 263.807297 184.125429 
L 264.360061 181.964284 
L 264.906204 184.217749 
L 265.445884 184.683611 
L 265.979252 182.096442 
L 266.506454 182.709662 
L 267.02763 185.400798 
L 267.542917 190.76904 
L 268.052447 192.571772 
L 268.556346 191.74473 
L 269.054739 189.195345 
L 269.547743 187.663306 
L 270.035474 187.993665 
L 270.518044 190.22449 
L 270.995561 187.166998 
L 271.468129 187.854045 
L 271.93585 184.750334 
L 272.398823 179.813503 
L 272.857143 182.122687 
L 273.760191 188.955072 
L 274.205096 188.508417 
L 274.645703 195.639901 
L 275.082093 195.627314 
L 275.514347 198.45077 
L 275.942542 196.169123 
L 276.366754 197.859777 
L 276.787056 197.383926 
L 277.203519 195.136412 
L 277.616214 194.450589 
L 278.430564 196.500193 
L 278.832351 195.819385 
L 279.230628 196.178577 
L 279.625456 190.045674 
L 280.016896 188.204197 
L 280.789837 185.927087 
L 281.17145 189.054097 
L 281.549895 193.828797 
L 281.925226 192.572984 
L 282.666745 195.337352 
L 283.033032 194.524975 
L 283.3964 195.403069 
L 283.756895 191.953795 
L 284.114563 191.590636 
L 284.469448 188.471805 
L 285.517826 191.880857 
L 285.861997 195.940204 
L 286.20359 197.004353 
L 286.542643 197.559068 
L 286.879194 200.659251 
L 287.213279 201.818184 
L 287.544934 201.681749 
L 287.874195 200.164293 
L 288.201096 202.616931 
L 288.52567 203.115124 
L 288.84795 200.97087 
L 289.167968 201.652172 
L 289.485756 204.731759 
L 289.801345 205.520751 
L 290.114765 204.416742 
L 290.426046 204.363377 
L 290.735216 203.150304 
L 291.042305 203.504565 
L 291.347339 202.708452 
L 291.951353 202.748706 
L 292.250387 202.543585 
L 292.547472 203.089425 
L 292.842634 203.198921 
L 293.135899 202.996577 
L 293.427289 203.260718 
L 293.716829 202.514799 
L 294.004543 202.242443 
L 294.290452 201.644005 
L 294.574581 201.44681 
L 294.85695 201.568273 
L 295.416496 197.60232 
L 295.693715 196.846313 
L 295.969259 197.786119 
L 296.243148 197.969988 
L 296.515403 200.013562 
L 297.055083 197.056163 
L 297.322546 197.524828 
L 297.588451 196.728462 
L 297.852813 197.529097 
L 298.115652 199.416894 
L 298.376985 200.081208 
L 298.636829 202.156577 
L 298.8952 201.484318 
L 299.152116 201.189187 
L 299.407592 201.296816 
L 299.661645 200.496654 
L 299.914291 201.266681 
L 300.415422 203.935486 
L 300.663937 204.081656 
L 301.156941 202.787883 
L 301.401459 204.675327 
L 301.644672 205.488671 
L 301.886596 204.610413 
L 302.127242 206.323116 
L 302.366626 206.313229 
L 302.841655 207.415208 
L 303.311788 203.4162 
L 303.777123 206.119398 
L 304.008022 206.420429 
L 304.237757 205.876923 
L 304.466341 206.823702 
L 304.693785 205.76692 
L 305.145298 207.809835 
L 305.369389 206.410126 
L 305.814295 205.413312 
L 306.03513 204.831501 
L 306.473619 206.411326 
L 306.691292 206.52402 
L 307.123545 208.847993 
L 307.338146 207.208252 
L 307.55174 207.814008 
L 307.76434 209.671723 
L 307.975952 208.711587 
L 308.396254 203.483239 
L 308.812718 206.272264 
L 309.019532 205.404758 
L 309.225412 205.922478 
L 309.430367 205.921815 
L 309.837535 206.581634 
L 310.039763 207.457568 
L 310.241098 210.060372 
L 310.641122 210.03121 
L 310.839826 209.360174 
L 311.037668 209.1582 
L 311.430795 210.344032 
L 311.626094 209.690408 
L 311.820561 210.111485 
L 312.014203 212.235149 
L 312.207025 212.604582 
L 312.399036 212.274762 
L 312.590241 212.576968 
L 312.780648 211.381944 
L 312.970264 211.357824 
L 313.159094 210.849617 
L 313.347145 211.400411 
L 313.534425 212.918777 
L 313.906691 213.57447 
L 314.091691 213.489181 
L 314.64223 211.139402 
L 315.186202 207.657401 
L 315.366094 207.080625 
L 315.723762 204.462397 
L 316.078646 205.73284 
L 316.255058 206.283987 
L 316.43079 205.022984 
L 316.605848 207.047905 
L 316.780236 206.629117 
L 317.127024 208.426689 
L 317.299434 208.286099 
L 317.471195 207.642676 
L 317.642312 208.539257 
L 317.812788 208.501488 
L 317.98263 207.965426 
L 318.488392 208.018744 
L 318.988607 211.36182 
L 319.154133 210.50286 
L 319.31906 210.918888 
L 319.647137 212.860423 
L 319.97287 210.456089 
L 320.296293 208.818016 
L 320.457148 209.155642 
L 321.094955 206.967189 
L 321.253022 207.268006 
L 321.410544 206.043815 
L 321.567523 206.348855 
L 321.723964 205.873241 
L 321.87987 204.673609 
L 322.035245 204.912353 
L 322.190092 206.008099 
L 322.344415 204.939287 
L 322.651503 205.490481 
L 322.804275 205.731657 
L 322.956537 206.3276 
L 323.410296 203.155341 
L 323.560552 203.599586 
L 323.710314 203.597263 
L 323.859585 202.144338 
L 324.00837 201.854571 
L 324.304491 203.7497 
L 324.451833 204.067955 
L 324.745097 205.219741 
L 324.891025 204.866867 
L 325.181487 205.724056 
L 325.470111 205.673193 
L 325.613741 205.083783 
L 325.75692 205.551636 
L 326.041936 204.561742 
L 326.325182 206.705933 
L 326.466148 207.190713 
L 326.606679 207.202004 
L 327.025694 205.631318 
L 327.164514 206.45715 
L 327.578458 204.958019 
L 327.715608 204.569244 
L 327.852347 205.775028 
L 328.124601 204.995814 
L 328.395239 205.644449 
L 329.064891 201.830112 
L 329.197649 201.648925 
L 329.330022 201.24474 
L 329.462012 201.5213 
L 329.593621 201.132381 
L 329.724851 202.613128 
L 329.986183 201.789401 
L 330.246027 202.314916 
L 330.375396 203.112714 
L 330.504398 203.08503 
L 330.633037 203.845499 
L 330.761314 203.784741 
L 330.889231 203.291467 
L 331.143994 203.717313 
L 331.270844 203.530219 
L 331.397342 204.49029 
L 331.64929 203.515138 
L 331.774743 203.606009 
L 331.899853 203.357192 
L 332.02462 202.768946 
L 332.149047 201.634207 
L 332.273136 202.081304 
L 332.520304 200.691169 
L 332.643387 200.859435 
L 333.010657 200.218774 
L 333.132426 199.307603 
L 333.374993 199.635957 
L 333.495794 199.035318 
L 333.616276 199.287751 
L 333.736441 199.893307 
L 333.85629 199.536574 
L 333.975824 200.495123 
L 334.213958 199.442512 
L 334.33256 199.910175 
L 334.568842 198.725519 
L 334.803907 198.155891 
L 334.920986 197.194902 
L 335.037766 197.189763 
L 335.154247 197.421569 
L 335.270432 197.323098 
L 335.386321 196.569223 
L 335.501917 196.567732 
L 335.61722 196.407463 
L 335.732233 196.501722 
L 335.846956 196.744331 
L 336.07554 195.111232 
L 336.302984 195.557415 
L 336.529299 197.218677 
L 336.642037 197.118684 
L 336.754497 196.782895 
L 336.86668 196.885113 
L 337.312673 195.377433 
L 337.423493 195.640519 
L 337.644329 194.479355 
L 337.754347 194.413554 
L 337.8641 194.846194 
L 337.97359 194.561468 
L 338.082817 193.95368 
L 338.191783 194.27365 
L 338.30049 193.391884 
L 338.408938 193.526485 
L 338.517129 193.420576 
L 339.160939 189.593181 
L 339.585151 190.291467 
L 339.69059 190.106444 
L 339.795786 190.241234 
L 339.90074 190.782323 
L 340.109926 190.047102 
L 340.318156 191.089757 
L 340.421916 191.531032 
L 340.731787 190.170561 
L 340.834611 190.399398 
L 340.937203 191.550251 
L 341.039566 191.340343 
L 341.141699 191.441307 
L 341.345281 192.535629 
L 341.446733 192.311226 
L 341.547959 191.479949 
L 341.850297 193.026034 
L 341.950632 191.707171 
L 342.050748 192.45107 
L 342.150643 192.378271 
L 342.250321 191.835875 
L 342.349781 191.887074 
L 342.745466 192.603351 
L 343.039993 194.190093 
L 343.137748 194.356254 
L 343.235293 193.92304 
L 343.526683 195.005768 
L 343.623401 195.164746 
L 343.719914 194.048772 
L 343.91233 195.541521 
L 344.008234 195.716038 
L 344.103937 195.046637 
L 344.199439 195.616572 
L 344.579462 194.490758 
L 344.673975 194.510051 
L 344.862415 195.690734 
L 344.956344 195.043409 
L 345.050079 195.248523 
L 345.236975 194.171434 
L 345.330136 194.261076 
L 345.423108 194.562498 
L 345.51589 194.360074 
L 345.608484 193.76178 
L 345.70089 194.79948 
L 345.97699 193.666891 
L 346.160133 195.188529 
L 346.342543 194.713946 
L 346.433475 195.454491 
L 346.524226 195.391808 
L 346.614797 195.542745 
L 346.705188 196.060262 
L 346.795401 195.452288 
L 347.154477 196.388587 
L 347.243806 196.305329 
L 347.421941 195.782099 
L 347.510748 195.970694 
L 347.687845 195.540838 
L 347.776136 195.79729 
L 347.952207 195.179145 
L 348.039989 195.31867 
L 348.127602 195.191923 
L 348.215046 195.578513 
L 348.476379 194.108155 
L 348.649773 193.842698 
L 348.736223 193.979776 
L 348.822509 194.450381 
L 348.994594 194.297924 
L 349.080394 194.323409 
L 349.25151 192.995632 
L 349.506986 194.21592 
L 349.591828 193.77237 
L 349.676512 194.304936 
L 349.845411 193.115848 
L 350.097591 193.641455 
L 350.264939 193.282143 
L 350.348384 193.529915 
L 350.597805 192.823939 
L 350.763331 193.519321 
L 350.84587 193.01366 
L 350.928259 193.102716 
L 351.0105 193.579335 
L 351.174537 193.043787 
L 351.337987 193.774998 
L 351.500853 193.100359 
L 351.582068 193.154208 
L 351.98599 194.225429 
L 352.066347 193.899778 
L 352.226637 195.166872 
L 352.46602 193.925646 
L 352.545536 193.983251 
L 352.624914 193.964423 
L 352.704153 194.155155 
L 352.783256 194.095637 
L 352.862221 194.937675 
L 352.94105 194.50833 
L 353.019742 195.10243 
L 353.176722 194.462104 
L 353.255009 194.970011 
L 353.489068 194.072262 
L 353.566822 194.95955 
L 353.644443 194.868185 
L 353.876517 193.836323 
L 353.953613 193.985894 
L 354.030579 194.457097 
L 354.260701 193.598504 
L 354.337152 193.462327 
L 354.641676 191.210461 
L 354.717491 191.439061 
L 354.868743 191.389831 
L 355.094684 190.940787 
L 355.16975 191.048097 
L 355.319512 190.355665 
L 355.394209 191.397915 
L 355.468784 190.95607 
L 355.543237 190.921509 
L 355.765869 189.800023 
L 355.98742 190.872421 
L 356.061031 190.665196 
L 356.134524 190.626966 
L 356.281156 191.330542 
L 356.427318 191.3176 
L 356.573013 191.900899 
L 356.645686 191.670654 
L 356.790686 192.472239 
L 356.863013 192.438991 
L 356.935226 192.129836 
L 357.07931 192.916057 
L 357.294585 191.892526 
L 357.43754 192.240158 
L 357.508849 192.476511 
L 357.792977 191.226708 
L 357.863734 191.883971 
L 358.004918 191.321735 
L 358.075346 191.829515 
L 358.145666 191.736867 
L 358.285982 191.146189 
L 358.355978 191.324882 
L 358.634892 192.938234 
L 358.912112 193.749065 
L 359.050092 193.312443 
L 359.187656 193.718552 
L 359.256283 193.609259 
L 359.324806 193.01457 
L 359.393227 193.086369 
L 359.461545 193.04186 
L 359.733799 193.828833 
L 359.869319 194.437409 
L 359.936929 194.284545 
L 360.139157 192.745802 
L 360.206368 193.302897 
L 360.27348 193.101526 
L 360.740517 190.679231 
L 360.806847 190.748055 
L 360.873082 190.50854 
L 361.005263 191.519583 
L 361.07121 191.434015 
L 361.202819 191.350261 
L 361.399523 190.240845 
L 361.464903 190.274522 
L 361.530189 190.514679 
L 361.595382 190.226678 
L 361.855225 191.67599 
L 361.984594 191.054427 
L 362.113597 191.081246 
L 362.177962 190.661374 
L 362.242236 190.74128 
L 362.562254 190.818746 
L 362.816662 192.028901 
L 362.880042 191.987119 
L 363.132688 191.297309 
L 363.195631 191.380266 
L 363.383942 192.007206 
L 363.44654 192.073203 
L 363.882334 194.320894 
L 364.006086 193.497789 
L 364.129502 193.846466 
L 364.314003 195.072633 
L 364.680781 196.292161 
L 365.044632 197.450953 
L 365.225475 196.48928 
L 365.345639 196.823789 
L 365.405603 196.589664 
L 365.465488 196.245403 
L 365.525294 196.273328 
L 365.585023 196.256388 
L 365.823156 197.363122 
L 365.882496 196.979727 
L 365.941758 196.709844 
L 366.119085 197.362244 
L 366.295724 197.09044 
L 366.471682 197.931259 
L 366.530185 197.546943 
L 366.588612 197.884415 
L 366.763446 198.567468 
L 366.87963 198.040843 
L 367.053354 198.625677 
L 367.513408 196.833238 
L 367.741706 196.459849 
L 367.855428 195.519181 
L 367.912182 195.722906 
L 367.968867 195.851579 
L 368.082024 195.596459 
L 368.138498 195.943001 
L 368.194901 195.674251 
L 368.251235 195.759745 
L 368.3075 195.657043 
L 368.475878 195.235059 
L 368.531867 195.726167 
L 368.587786 195.59189 
L 368.643637 195.515418 
L 368.755135 195.792606 
L 368.86636 194.510457 
L 368.921872 194.530614 
L 369.032692 194.606086 
L 369.088001 194.553108 
L 369.143243 194.730885 
L 369.253527 194.022748 
L 369.308569 194.06329 
L 369.528076 194.925131 
L 369.582788 194.886218 
L 369.692015 194.291097 
L 369.746531 194.307902 
L 369.963945 195.419582 
L 370.018137 195.451802 
L 370.234262 196.237994 
L 370.341942 195.828566 
L 370.395687 195.883519 
L 370.502987 196.197772 
L 370.610035 196.008788 
L 370.663465 196.463026 
L 370.716832 196.36201 
L 370.876561 195.862521 
L 370.982736 195.940815 
L 371.247099 195.336213 
L 371.457491 196.053942 
L 371.509938 195.877945 
L 371.719124 196.93604 
L 371.979264 196.101108 
L 372.031114 196.385667 
L 372.082906 196.674043 
L 372.134639 196.23173 
L 372.186313 196.281778 
L 372.237929 196.335746 
L 372.443809 197.500213 
L 372.495134 197.264195 
L 372.648764 196.79247 
L 372.699859 196.414182 
L 372.750897 196.56061 
L 372.801878 196.979444 
L 372.852802 196.433118 
L 372.903669 196.840059 
L 372.95448 196.661574 
L 373.055931 197.101029 
L 373.106573 196.492977 
L 373.157158 196.61727 
L 373.509691 197.833439 
L 373.609916 197.264397 
L 373.759842 196.794654 
L 373.809708 196.804812 
L 373.859519 197.067311 
L 373.909276 196.800492 
L 374.008628 196.879071 
L 374.256065 195.479648 
L 374.305391 195.906037 
L 374.354665 195.41948 
L 374.649192 196.183835 
L 374.795745 195.801422 
L 374.844491 196.279166 
L 374.893186 195.985173 
L 374.941829 196.004683 
L 374.990419 196.404081 
L 375.038958 196.133491 
L 375.087446 195.929165 
L 375.135882 196.123958 
L 375.2326 197.162135 
L 375.280882 197.064103 
L 375.425422 196.236356 
L 375.569506 196.715084 
L 375.617432 196.470512 
L 375.665309 196.557462 
L 375.713135 196.891929 
L 375.760912 196.627429 
L 375.808638 196.398826 
L 375.856314 196.438275 
L 375.903941 196.553319 
L 376.046523 195.737098 
L 376.093951 195.857843 
L 376.14133 195.902351 
L 376.18866 195.741498 
L 376.235941 195.914566 
L 376.283173 195.922752 
L 376.330356 196.237918 
L 376.377491 196.144609 
L 376.424576 196.108605 
L 376.518602 196.350581 
L 376.565542 196.258139 
L 376.612434 196.195872 
L 376.706074 196.662028 
L 376.752821 196.453178 
L 376.892778 196.139089 
L 377.032306 196.053234 
L 377.078721 196.146931 
L 377.171409 195.958378 
L 377.217682 196.030775 
L 377.263909 195.998691 
L 377.310088 196.206988 
L 377.356221 195.912455 
L 377.540288 195.174252 
L 377.723614 195.828073 
L 377.769331 195.354411 
L 377.815002 195.607896 
L 377.860627 195.840025 
L 377.906207 195.798609 
L 377.951741 195.690227 
L 378.088071 196.522253 
L 378.314387 195.968228 
L 378.359515 195.989228 
L 378.494634 196.742758 
L 378.539584 196.298552 
L 378.629353 196.330739 
L 378.718945 196.316165 
L 379.031139 197.021873 
L 379.164285 197.490571 
L 379.252833 197.148591 
L 379.34121 197.184966 
L 379.517452 197.632726 
L 379.649187 197.221252 
L 379.693015 197.299533 
L 379.7368 196.905767 
L 379.780543 197.257634 
L 380.042126 197.727329 
L 380.085578 197.794552 
L 380.128988 197.692747 
L 380.258971 197.58375 
L 380.345421 197.464197 
L 380.732431 198.727572 
L 380.775231 198.747458 
L 381.031185 197.752096 
L 381.073705 197.784962 
L 381.158626 198.161293 
L 381.201027 198.567671 
L 381.285711 198.383054 
L 381.327994 198.412001 
L 381.370238 198.622751 
L 381.412443 197.947899 
L 381.496736 198.14953 
L 381.580873 198.191965 
L 381.748684 197.903297 
L 381.915879 198.110047 
L 381.999247 197.960555 
L 382.040874 198.016113 
L 382.082463 198.014509 
L 382.248441 198.963428 
L 382.331204 199.03041 
L 382.455068 198.666261 
L 382.496281 198.791939 
L 382.537457 198.586783 
L 382.578596 198.276972 
L 382.619698 198.365782 
L 382.824653 199.09516 
L 382.865534 199.082616 
L 382.906378 198.960882 
L 382.947185 199.129675 
L 383.028691 199.339294 
L 383.353265 197.624782 
L 383.434049 197.492379 
L 383.554957 198.133852 
L 383.595188 197.825226 
L 383.635384 197.723327 
L 383.675545 197.85149 
L 383.71567 197.907413 
L 383.87582 196.940865 
L 383.955684 197.210321 
L 383.995563 197.161659 
L 384.035408 196.980077 
L 384.075218 197.109113 
L 384.234112 197.496259 
L 384.273749 197.450928 
L 384.431954 196.20649 
L 384.471419 196.430231 
L 384.510851 196.496777 
L 384.550248 195.958641 
L 384.628941 196.227961 
L 384.668236 196.318734 
L 384.864208 195.712212 
L 384.903301 195.997277 
L 384.981387 195.871753 
L 385.13716 195.908833 
L 385.331131 196.523156 
L 385.408489 196.498196 
L 385.485715 196.968675 
L 385.562812 196.863513 
L 385.601311 196.856368 
L 385.716614 196.668626 
L 385.793322 196.954936 
L 385.831627 196.861586 
L 385.908141 196.55729 
L 385.94635 196.730557 
L 386.022672 196.753118 
L 386.098867 196.542079 
L 386.136916 196.709649 
L 386.402378 197.112478 
L 386.440175 196.932461 
L 386.477941 197.014634 
L 386.515676 197.134701 
L 386.55338 196.739455 
L 386.591052 197.20246 
L 386.703883 196.780597 
L 386.778949 196.54561 
L 386.816435 196.659428 
L 387.04071 197.546134 
L 387.077982 197.407994 
L 387.300977 196.426509 
L 387.412067 196.966211 
L 387.559768 196.453161 
L 387.817098 197.667762 
L 387.963494 197.568013 
L 388.145831 197.319426 
L 388.254884 197.107548 
L 388.363678 197.514459 
L 388.436062 197.190122 
L 388.472212 197.369002 
L 388.508332 197.306564 
L 388.544425 197.349695 
L 388.688508 197.766632 
L 388.832138 197.273249 
L 388.867975 197.315542 
L 388.939564 197.107783 
L 389.046738 197.648304 
L 389.082407 197.565464 
L 389.118048 197.54746 
L 389.153661 197.084997 
L 389.224803 197.458583 
L 389.402176 198.425774 
L 389.578861 197.743813 
L 389.684545 198.057994 
L 389.754865 197.970812 
L 389.825076 197.694516 
L 389.860142 197.988344 
L 389.89518 198.027053 
L 389.930191 197.955 
L 390.069969 197.683646 
L 390.20932 198.498899 
L 390.244091 198.526952 
L 390.313554 198.379875 
L 390.555844 199.293085 
L 390.590353 199.060335 
L 390.65929 199.220165 
L 390.69372 199.361957 
L 390.728124 199.136803 
L 390.899756 198.316755 
L 390.934005 198.526196 
L 390.968228 198.417331 
L 391.036597 198.057138 
L 391.104865 198.197847 
L 391.17303 198.167752 
L 391.275087 197.817485 
L 391.309055 197.856145 
L 391.342998 197.797356 
L 391.376916 197.861982 
L 391.410808 198.065983 
L 391.478518 197.904397 
L 391.613636 197.302065 
L 391.681046 197.500871 
L 391.815566 197.913556 
L 391.882678 197.490514 
L 391.949691 197.587495 
L 392.016606 197.550582 
L 392.050027 197.658708 
L 392.150142 197.139825 
L 392.250038 197.924942 
L 392.316513 197.739354 
L 392.515362 198.705832 
L 392.581452 198.787997 
L 392.680409 199.521642 
L 392.74626 199.452887 
L 392.84486 199.258858 
L 392.812017 199.504597 
L 392.87768 199.285292 
L 392.910475 199.322673 
L 392.975996 199.134016 
L 393.041423 199.731966 
L 393.106756 199.590767 
L 393.302195 198.718654 
L 393.334687 198.901768 
L 393.399602 198.707025 
L 393.432024 198.731894 
L 393.464424 198.655098 
L 393.561485 198.155641 
L 393.626077 198.337401 
L 393.690579 198.471122 
L 393.722795 198.31485 
L 393.883537 198.19037 
L 393.947676 197.789071 
L 394.011724 197.885924 
L 394.043715 198.105972 
L 394.075683 197.911205 
L 394.203331 197.569548 
L 394.267022 197.646482 
L 394.298834 197.380674 
L 394.489241 198.18859 
L 394.520898 198.044422 
L 394.552534 198.232759 
L 394.584147 198.144118 
L 394.647308 198.412495 
L 394.678856 198.169484 
L 394.710382 198.160355 
L 394.741887 197.787202 
L 394.836269 197.91483 
L 394.867686 197.64871 
L 394.930456 197.820483 
L 395.055738 197.994215 
L 395.11825 198.113976 
L 395.149474 197.761744 
L 395.211857 197.858599 
L 395.367444 198.41521 
L 395.42953 198.421314 
L 395.677034 197.189224 
L 395.707878 197.252851 
L 395.738701 197.007718 
L 395.769503 197.191739 
L 395.861784 197.721241 
L 395.892503 197.661208 
L 396.045789 197.474099 
L 396.076384 197.511734 
L 396.106959 197.514783 
L 396.198561 198.163603 
L 396.229054 197.926436 
L 396.259527 197.863784 
L 396.289979 198.175194 
L 396.320411 197.873235 
L 396.502578 197.039139 
L 396.563139 197.614821 
L 396.62362 197.383312 
L 396.65383 197.277586 
L 396.684021 197.558015 
L 396.774472 197.414554 
L 396.804582 197.5338 
L 396.894795 197.478337 
L 396.954838 197.643015 
L 397.044754 198.029824 
L 397.1046 197.742278 
L 397.194221 197.51339 
L 397.253871 197.244518 
L 397.313443 197.32966 
L 397.3432 197.294166 
L 397.462034 197.655099 
L 397.491694 197.616297 
L 397.550956 197.537062 
L 397.610142 197.121781 
L 397.669251 197.340525 
L 397.698776 197.431114 
L 397.87553 196.796614 
L 397.963651 196.455998 
L 398.110141 195.833613 
L 398.139383 195.627686 
L 398.226996 195.724185 
L 398.372644 196.108249 
L 398.430773 195.82346 
L 398.488829 196.074962 
L 398.575773 195.837565 
L 398.633644 195.612834 
L 398.691442 195.752055 
L 398.749167 196.039597 
L 398.806818 195.867309 
L 398.864397 195.584963 
L 398.893159 195.716569 
L 399.065353 196.219043 
L 399.265426 195.665257 
L 399.293937 195.731344 
L 399.493012 196.722844 
L 399.521381 196.59948 
L 399.606381 196.670717 
L 399.832276 195.821049 
L 399.860434 195.941599 
L 399.944805 195.820045 
L 400.000965 195.6914 
L 400.057057 195.506339 
L 400.085077 195.721846 
L 400.196985 196.133942 
L 400.224919 195.890599 
L 400.308619 196.074351 
L 400.475559 195.528267 
L 400.669553 196.076092 
L 400.807617 195.565479 
L 400.862726 195.873876 
L 401.000207 196.33272 
L 401.109894 195.804992 
L 401.137274 195.926377 
L 401.191986 196.263846 
L 401.273932 196.223826 
L 401.301214 196.168265 
L 401.32848 196.23861 
L 401.437381 196.407647 
L 401.518887 195.694398 
L 401.573143 195.798616 
L 401.816501 196.549563 
L 401.843461 196.434258 
L 402.058567 196.464713 
L 402.085384 196.490085 
L 402.245956 197.089978 
L 402.432579 196.67436 
L 402.485759 196.728933 
L 402.591935 196.717786 
L 402.750736 197.476405 
L 402.77715 197.479799 
L 402.803548 197.360911 
L 402.856298 197.526528 
L 402.961615 198.04432 
L 402.987906 197.952103 
L 403.092921 198.157447 
L 403.119137 198.035715 
L 403.171523 198.001707 
L 403.223849 197.796608 
L 403.24999 197.923256 
L 403.380469 198.345425 
L 403.484584 197.989236 
L 403.536553 197.998276 
L 403.562515 198.052681 
L 403.692104 198.613444 
L 403.795511 198.584669 
L 403.924441 199.070195 
L 403.950183 198.932643 
L 404.078677 198.341819 
L 404.104333 198.433225 
L 404.129974 198.355852 
L 404.181212 198.46014 
L 404.20681 198.433907 
L 404.232393 198.525734 
L 404.283517 198.509136 
L 404.334584 198.031571 
L 404.411077 198.131213 
L 404.487441 197.936549 
L 404.53828 197.966318 
L 404.715771 198.476352 
L 404.791628 198.317294 
L 404.816885 198.357664 
L 404.892574 198.567924 
L 404.917776 198.27716 
L 404.993297 198.448775 
L 405.018443 198.452158 
L 405.043575 198.610864 
L 405.118889 198.520992 
L 405.169029 198.567885 
L 405.269144 198.423769 
L 405.344087 198.343444 
L 405.418906 198.75642 
L 405.468718 198.798174 
L 405.493603 198.975846 
L 405.543333 198.648594 
L 405.642631 198.341242 
L 405.667421 198.581433 
L 405.716962 198.857231 
L 405.791173 198.798645 
L 405.84058 198.839477 
L 405.889933 199.061547 
L 405.939233 199.012417 
L 406.013083 198.537895 
L 406.06225 198.848644 
L 406.086814 198.844052 
L 406.111364 198.531844 
L 406.160426 199.112912 
L 406.209434 199.076599 
L 406.331725 199.395203 
L 406.404943 199.420606 
L 406.478044 198.844382 
L 406.623894 199.118803 
L 406.769279 198.581841 
L 406.865945 198.720216 
L 406.89008 198.681789 
L 407.106719 198.250331 
L 407.226631 198.425255 
L 407.298427 198.27573 
L 407.322334 198.393452 
L 407.37011 198.506123 
L 407.465513 199.006817 
L 407.489332 198.876305 
L 407.536934 198.731434 
L 407.584486 198.932642 
L 407.679442 199.219268 
L 407.726845 199.09201 
L 407.797859 199.114125 
L 407.821505 199.027002 
L 407.892372 198.8302 
L 407.963128 198.538546 
L 408.033775 198.677693 
L 408.080812 198.925141 
L 408.1278 198.572646 
L 408.151277 198.577383 
L 408.174741 198.704726 
L 408.268476 198.603962 
L 408.29188 198.585494 
L 408.315272 198.685695 
L 408.40872 199.041867 
L 408.455372 198.993953 
L 408.47868 198.9311 
L 408.501976 199.015405 
L 408.525261 199.215307 
L 408.618279 199.135116 
L 408.711109 199.086685 
L 408.873107 199.560065 
L 408.942359 199.978102 
L 408.96542 200.191935 
L 409.057546 200.116552 
L 409.080548 200.163403 
L 409.103539 199.852643 
L 409.172442 200.040854 
L 409.309937 200.348223 
L 409.401371 200.260165 
L 409.424201 200.32885 
L 409.447019 200.418891 
L 409.469826 200.333246 
" clip-path="url(#p0dc54fabf3)" style="fill: none; stroke: #1f77b4; stroke-linecap: square"/>
   </g>
   <g id="patch_3">
    <path d="M 57.6 307.584 
L 57.6 41.472 
" style="fill: none; stroke: #000000; stroke-width: 0.8; stroke-linejoin: miter; stroke-linecap: square"/>
   </g>
   <g id="patch_4">
    <path d="M 414.72 307.584 
L 414.72 41.472 
" style="fill: none; stroke: #000000; stroke-width: 0.8; stroke-linejoin: miter; stroke-linecap: square"/>
   </g>
   <g id="patch_5">
    <path d="M 57.6 307.584 
L 414.72 307.584 
" style="fill: none; stroke: #000000; stroke-width: 0.8; stroke-linejoin: miter; stroke-linecap: square"/>
   </g>
   <g id="patch_6">
    <path d="M 57.6 41.472 
L 414.72 41.472 
" style="fill: none; stroke: #000000; stroke-width: 0.8; stroke-linejoin: miter; stroke-linecap: square"/>
   </g>
  </g>
  <g id="text_13">
   <!-- Evolution of the mean -->
   <g transform="translate(164.057813 16.030125) scale(0.12 -0.12)">
    <defs>
     <path id="DejaVuSans-45" d="M 628 4666 
L 3578 4666 
L 3578 4134 
L 1259 4134 
L 1259 2753 
L 3481 2753 
L 3481 2222 
L 1259 2222 
L 1259 531 
L 3634 531 
L 3634 0 
L 628 0 
L 628 4666 
z
" transform="scale(0.015625)"/>
     <path id="DejaVuSans-76" d="M 191 3500 
L 800 3500 
L 1894 563 
L 2988 3500 
L 3597 3500 
L 2284 0 
L 1503 0 
L 191 3500 
z
" transform="scale(0.015625)"/>
     <path id="DejaVuSans-6c" d="M 603 4863 
L 1178 4863 
L 1178 0 
L 603 0 
L 603 4863 
z
" transform="scale(0.015625)"/>
     <path id="DejaVuSans-75" d="M 544 1381 
L 544 3500 
L 1119 3500 
L 1119 1403 
Q 1119 906 1312 657 
Q 1506 409 1894 409 
Q 2359 409 2629 706 
Q 2900 1003 2900 1516 
L 2900 3500 
L 3475 3500 
L 3475 0 
L 2900 0 
L 2900 538 
Q 2691 219 2414 64 
Q 2138 -91 1772 -91 
Q 1169 -91 856 284 
Q 544 659 544 1381 
z
M 1991 3584 
L 1991 3584 
z
" transform="scale(0.015625)"/>
     <path id="DejaVuSans-66" d="M 2375 4863 
L 2375 4384 
L 1825 4384 
Q 1516 4384 1395 4259 
Q 1275 4134 1275 3809 
L 1275 3500 
L 2222 3500 
L 2222 3053 
L 1275 3053 
L 1275 0 
L 697 0 
L 697 3053 
L 147 3053 
L 147 3500 
L 697 3500 
L 697 3744 
Q 697 4328 969 4595 
Q 1241 4863 1831 4863 
L 2375 4863 
z
" transform="scale(0.015625)"/>
     <path id="DejaVuSans-68" d="M 3513 2113 
L 3513 0 
L 2938 0 
L 2938 2094 
Q 2938 2591 2744 2837 
Q 2550 3084 2163 3084 
Q 1697 3084 1428 2787 
Q 1159 2491 1159 1978 
L 1159 0 
L 581 0 
L 581 4863 
L 1159 4863 
L 1159 2956 
Q 1366 3272 1645 3428 
Q 1925 3584 2291 3584 
Q 2894 3584 3203 3211 
Q 3513 2838 3513 2113 
z
" transform="scale(0.015625)"/>
    </defs>
    <use xlink:href="#DejaVuSans-45"/>
    <use xlink:href="#DejaVuSans-76" transform="translate(63.183594 0)"/>
    <use xlink:href="#DejaVuSans-6f" transform="translate(122.363281 0)"/>
    <use xlink:href="#DejaVuSans-6c" transform="translate(183.544922 0)"/>
    <use xlink:href="#DejaVuSans-75" transform="translate(211.328125 0)"/>
    <use xlink:href="#DejaVuSans-74" transform="translate(274.707031 0)"/>
    <use xlink:href="#DejaVuSans-69" transform="translate(313.916016 0)"/>
    <use xlink:href="#DejaVuSans-6f" transform="translate(341.699219 0)"/>
    <use xlink:href="#DejaVuSans-6e" transform="translate(402.880859 0)"/>
    <use xlink:href="#DejaVuSans-20" transform="translate(466.259766 0)"/>
    <use xlink:href="#DejaVuSans-6f" transform="translate(498.046875 0)"/>
    <use xlink:href="#DejaVuSans-66" transform="translate(559.228516 0)"/>
    <use xlink:href="#DejaVuSans-20" transform="translate(594.433594 0)"/>
    <use xlink:href="#DejaVuSans-74" transform="translate(626.220703 0)"/>
    <use xlink:href="#DejaVuSans-68" transform="translate(665.429688 0)"/>
    <use xlink:href="#DejaVuSans-65" transform="translate(728.808594 0)"/>
    <use xlink:href="#DejaVuSans-20" transform="translate(790.332031 0)"/>
    <use xlink:href="#DejaVuSans-6d" transform="translate(822.119141 0)"/>
    <use xlink:href="#DejaVuSans-65" transform="translate(919.53125 0)"/>
    <use xlink:href="#DejaVuSans-61" transform="translate(981.054688 0)"/>
    <use xlink:href="#DejaVuSans-6e" transform="translate(1042.333984 0)"/>
   </g>
  </g>
 </g>
 <defs>
  <clipPath id="p0dc54fabf3">
   <rect x="57.6" y="41.472" width="357.12" height="266.112"/>
  </clipPath>
 </defs>
</svg>
