<?xml version="1.0" encoding="utf-8" standalone="no"?>
<!DOCTYPE svg PUBLIC "-//W3C//DTD SVG 1.1//EN"
  "http://www.w3.org/Graphics/SVG/1.1/DTD/svg11.dtd">
<svg xmlns:xlink="http://www.w3.org/1999/xlink" width="460.8pt" height="345.6pt" viewBox="0 0 460.8 345.6" xmlns="http://www.w3.org/2000/svg" version="1.1">
 <metadata>
  <rdf:RDF xmlns:dc="http://purl.org/dc/elements/1.1/" xmlns:cc="http://creativecommons.org/ns#" xmlns:rdf="http://www.w3.org/1999/02/22-rdf-syntax-ns#">
   <cc:Work>
    <dc:type rdf:resource="http://purl.org/dc/dcmitype/StillImage"/>
    <dc:date>2022-01-01T00:00:00+00:00</dc:date>
    <dc:format>image/svg+xml</dc:format>
    <dc:creator>
     <cc:Agent>
      <dc:title>Matplotlib v3.10.8, https://matplotlib.org/</dc:title>
     </cc:Agent>
    </dc:creator>
   </cc:Work>
  </rdf:RDF>
 </metadata>
 <defs>
  <style type="text/css">*{stroke-linejoin: round; stroke-linecap: butt}</style>
 </defs>
 <g id="figure_1">
  <g id="patch_1">
   <path d="M 0 345.6 
L 460.8 345.6 
L 460.8 0 
L 0 0 
z
" style="fill: #ffffff"/>
  </g>
  <g id="axes_1">
   <g id="patch_2">
    <path d="M 57.6 307.584 
L 414.72 307.584 
L 414.72 41.472 
L 57.6 41.472 
z
" style="fill: #ffffff"/>
   </g>
   <g id="matplotlib.axis_1">
    <g id="xtick_1">
     <g id="line2d_1">
      <path d="M 89.292468 307.584 
L 89.292468 41.472 
" clip-path="url(#p055a319e6e)" style="fill: none; stroke: #b0b0b0; stroke-width: 0.8; stroke-linecap: square"/>
     </g>
     <g id="line2d_2">
      <defs>
       <path id="mb93d820796" d="M 0 0 
L 0 3.5 
" style="stroke: #000000; stroke-width: 0.8"/>
      </defs>
      <g>
       <use xlink:href="#mb93d820796" x="89.292468" y="307.584" style="stroke: #000000; stroke-width: 0.8"/>
      </g>
     </g>
     <g id="text_1">
      <!-- 1800 -->
      <g transform="translate(76.567468 322.182437) scale(0.1 -0.1)">
       <defs>
        <path id="DejaVuSans-31" d="M 794 531 
L 1825 531 
L 1825 4091 
L 703 3866 
L 703 4441 
L 1819 4666 
L 2450 4666 
L 2450 531 
L 3481 531 
L 3481 0 
L 794 0 
L 794 531 
z
" transform="scale(0.015625)"/>
        <path id="DejaVuSans-38" d="M 2034 2216 
Q 1584 2216 1326 1975 
Q 1069 1734 1069 1313 
Q 1069 891 1326 650 
Q 1584 409 2034 409 
Q 2484 409 2743 651 
Q 3003 894 3003 1313 
Q 3003 1734 2745 1975 
Q 2488 2216 2034 2216 
z
M 1403 2484 
Q 997 2584 770 2862 
Q 544 3141 544 3541 
Q 544 4100 942 4425 
Q 1341 4750 2034 4750 
Q 2731 4750 3128 4425 
Q 3525 4100 3525 3541 
Q 3525 3141 3298 2862 
Q 3072 2584 2669 2484 
Q 3125 2378 3379 2068 
Q 3634 1759 3634 1313 
Q 3634 634 3220 271 
Q 2806 -91 2034 -91 
Q 1263 -91 848 271 
Q 434 634 434 1313 
Q 434 1759 690 2068 
Q 947 2378 1403 2484 
z
M 1172 3481 
Q 1172 3119 1398 2916 
Q 1625 2713 2034 2713 
Q 2441 2713 2670 2916 
Q 2900 3119 2900 3481 
Q 2900 3844 2670 4047 
Q 2441 4250 2034 4250 
Q 1625 4250 1398 4047 
Q 1172 3844 1172 3481 
z
" transform="scale(0.015625)"/>
        <path id="DejaVuSans-30" d="M 2034 4250 
Q 1547 4250 1301 3770 
Q 1056 3291 1056 2328 
Q 1056 1369 1301 889 
Q 1547 409 2034 409 
Q 2525 409 2770 889 
Q 3016 1369 3016 2328 
Q 3016 3291 2770 3770 
Q 2525 4250 2034 4250 
z
M 2034 4750 
Q 2819 4750 3233 4129 
Q 3647 3509 3647 2328 
Q 3647 1150 3233 529 
Q 2819 -91 2034 -91 
Q 1250 -91 836 529 
Q 422 1150 422 2328 
Q 422 3509 836 4129 
Q 1250 4750 2034 4750 
z
" transform="scale(0.015625)"/>
       </defs>
       <use xlink:href="#DejaVuSans-31"/>
       <use xlink:href="#DejaVuSans-38" transform="translate(63.623047 0)"/>
       <use xlink:href="#DejaVuSans-30" transform="translate(127.246094 0)"/>
       <use xlink:href="#DejaVuSans-30" transform="translate(190.869141 0)"/>
      </g>
     </g>
    </g>
    <g id="xtick_2">
     <g id="line2d_3">
      <path d="M 166.591169 307.584 
L 166.591169 41.472 
" clip-path="url(#p055a319e6e)" style="fill: none; stroke: #b0b0b0; stroke-width: 0.8; stroke-linecap: square"/>
     </g>
     <g id="line2d_4">
      <g>
       <use xlink:href="#mb93d820796" x="166.591169" y="307.584" style="stroke: #000000; stroke-width: 0.8"/>
      </g>
     </g>
     <g id="text_2">
      <!-- 1850 -->
      <g transform="translate(153.866169 322.182437) scale(0.1 -0.1)">
       <defs>
        <path id="DejaVuSans-35" d="M 691 4666 
L 3169 4666 
L 3169 4134 
L 1269 4134 
L 1269 2991 
Q 1406 3038 1543 3061 
Q 1681 3084 1819 3084 
Q 2600 3084 3056 2656 
Q 3513 2228 3513 1497 
Q 3513 744 3044 326 
Q 2575 -91 1722 -91 
Q 1428 -91 1123 -41 
Q 819 9 494 109 
L 494 744 
Q 775 591 1075 516 
Q 1375 441 1709 441 
Q 2250 441 2565 725 
Q 2881 1009 2881 1497 
Q 2881 1984 2565 2268 
Q 2250 2553 1709 2553 
Q 1456 2553 1204 2497 
Q 953 2441 691 2322 
L 691 4666 
z
" transform="scale(0.015625)"/>
       </defs>
       <use xlink:href="#DejaVuSans-31"/>
       <use xlink:href="#DejaVuSans-38" transform="translate(63.623047 0)"/>
       <use xlink:href="#DejaVuSans-35" transform="translate(127.246094 0)"/>
       <use xlink:href="#DejaVuSans-30" transform="translate(190.869141 0)"/>
      </g>
     </g>
    </g>
    <g id="xtick_3">
     <g id="line2d_5">
      <path d="M 243.88987 307.584 
L 243.88987 41.472 
" clip-path="url(#p055a319e6e)" style="fill: none; stroke: #b0b0b0; stroke-width: 0.8; stroke-linecap: square"/>
     </g>
     <g id="line2d_6">
      <g>
       <use xlink:href="#mb93d820796" x="243.88987" y="307.584" style="stroke: #000000; stroke-width: 0.8"/>
      </g>
     </g>
     <g id="text_3">
      <!-- 1900 -->
      <g transform="translate(231.16487 322.182437) scale(0.1 -0.1)">
       <defs>
        <path id="DejaVuSans-39" d="M 703 97 
L 703 672 
Q 941 559 1184 500 
Q 1428 441 1663 441 
Q 2288 441 2617 861 
Q 2947 1281 2994 2138 
Q 2813 1869 2534 1725 
Q 2256 1581 1919 1581 
Q 1219 1581 811 2004 
Q 403 2428 403 3163 
Q 403 3881 828 4315 
Q 1253 4750 1959 4750 
Q 2769 4750 3195 4129 
Q 3622 3509 3622 2328 
Q 3622 1225 3098 567 
Q 2575 -91 1691 -91 
Q 1453 -91 1209 -44 
Q 966 3 703 97 
z
M 1959 2075 
Q 2384 2075 2632 2365 
Q 2881 2656 2881 3163 
Q 2881 3666 2632 3958 
Q 2384 4250 1959 4250 
Q 1534 4250 1286 3958 
Q 1038 3666 1038 3163 
Q 1038 2656 1286 2365 
Q 1534 2075 1959 2075 
z
" transform="scale(0.015625)"/>
       </defs>
       <use xlink:href="#DejaVuSans-31"/>
       <use xlink:href="#DejaVuSans-39" transform="translate(63.623047 0)"/>
       <use xlink:href="#DejaVuSans-30" transform="translate(127.246094 0)"/>
       <use xlink:href="#DejaVuSans-30" transform="translate(190.869141 0)"/>
      </g>
     </g>
    </g>
    <g id="xtick_4">
     <g id="line2d_7">
      <path d="M 321.188571 307.584 
L 321.188571 41.472 
" clip-path="url(#p055a319e6e)" style="fill: none; stroke: #b0b0b0; stroke-width: 0.8; stroke-linecap: square"/>
     </g>
     <g id="line2d_8">
      <g>
       <use xlink:href="#mb93d820796" x="321.188571" y="307.584" style="stroke: #000000; stroke-width: 0.8"/>
      </g>
     </g>
     <g id="text_4">
      <!-- 1950 -->
      <g transform="translate(308.463571 322.182437) scale(0.1 -0.1)">
       <use xlink:href="#DejaVuSans-31"/>
       <use xlink:href="#DejaVuSans-39" transform="translate(63.623047 0)"/>
       <use xlink:href="#DejaVuSans-35" transform="translate(127.246094 0)"/>
       <use xlink:href="#DejaVuSans-30" transform="translate(190.869141 0)"/>
      </g>
     </g>
    </g>
    <g id="xtick_5">
     <g id="line2d_9">
      <path d="M 398.487273 307.584 
L 398.487273 41.472 
" clip-path="url(#p055a319e6e)" style="fill: none; stroke: #b0b0b0; stroke-width: 0.8; stroke-linecap: square"/>
     </g>
     <g id="line2d_10">
      <g>
       <use xlink:href="#mb93d820796" x="398.487273" y="307.584" style="stroke: #000000; stroke-width: 0.8"/>
      </g>
     </g>
     <g id="text_5">
      <!-- 2000 -->
      <g transform="translate(385.762273 322.182437) scale(0.1 -0.1)">
       <defs>
        <path id="DejaVuSans-32" d="M 1228 531 
L 3431 531 
L 3431 0 
L 469 0 
L 469 531 
Q 828 903 1448 1529 
Q 2069 2156 2228 2338 
Q 2531 2678 2651 2914 
Q 2772 3150 2772 3378 
Q 2772 3750 2511 3984 
Q 2250 4219 1831 4219 
Q 1534 4219 1204 4116 
Q 875 4013 500 3803 
L 500 4441 
Q 881 4594 1212 4672 
Q 1544 4750 1819 4750 
Q 2544 4750 2975 4387 
Q 3406 4025 3406 3419 
Q 3406 3131 3298 2873 
Q 3191 2616 2906 2266 
Q 2828 2175 2409 1742 
Q 1991 1309 1228 531 
z
" transform="scale(0.015625)"/>
       </defs>
       <use xlink:href="#DejaVuSans-32"/>
       <use xlink:href="#DejaVuSans-30" transform="translate(63.623047 0)"/>
       <use xlink:href="#DejaVuSans-30" transform="translate(127.246094 0)"/>
       <use xlink:href="#DejaVuSans-30" transform="translate(190.869141 0)"/>
      </g>
     </g>
    </g>
    <g id="text_6">
     <!-- $t$ (years) -->
     <g transform="translate(214.91 335.862125) scale(0.1 -0.1)">
      <defs>
       <path id="DejaVuSans-Oblique-74" d="M 2706 3500 
L 2619 3053 
L 1472 3053 
L 1100 1153 
Q 1081 1047 1072 975 
Q 1063 903 1063 863 
Q 1063 663 1183 572 
Q 1303 481 1569 481 
L 2150 481 
L 2053 0 
L 1503 0 
Q 991 0 739 200 
Q 488 400 488 806 
Q 488 878 497 964 
Q 506 1050 525 1153 
L 897 3053 
L 409 3053 
L 500 3500 
L 978 3500 
L 1172 4494 
L 1747 4494 
L 1556 3500 
L 2706 3500 
z
" transform="scale(0.015625)"/>
       <path id="DejaVuSans-20" transform="scale(0.015625)"/>
       <path id="DejaVuSans-28" d="M 1984 4856 
Q 1566 4138 1362 3434 
Q 1159 2731 1159 2009 
Q 1159 1288 1364 580 
Q 1569 -128 1984 -844 
L 1484 -844 
Q 1016 -109 783 600 
Q 550 1309 550 2009 
Q 550 2706 781 3412 
Q 1013 4119 1484 4856 
L 1984 4856 
z
" transform="scale(0.015625)"/>
       <path id="DejaVuSans-79" d="M 2059 -325 
Q 1816 -950 1584 -1140 
Q 1353 -1331 966 -1331 
L 506 -1331 
L 506 -850 
L 844 -850 
Q 1081 -850 1212 -737 
Q 1344 -625 1503 -206 
L 1606 56 
L 191 3500 
L 800 3500 
L 1894 763 
L 2988 3500 
L 3597 3500 
L 2059 -325 
z
" transform="scale(0.015625)"/>
       <path id="DejaVuSans-65" d="M 3597 1894 
L 3597 1613 
L 953 1613 
Q 991 1019 1311 708 
Q 1631 397 2203 397 
Q 2534 397 2845 478 
Q 3156 559 3463 722 
L 3463 178 
Q 3153 47 2828 -22 
Q 2503 -91 2169 -91 
Q 1331 -91 842 396 
Q 353 884 353 1716 
Q 353 2575 817 3079 
Q 1281 3584 2069 3584 
Q 2775 3584 3186 3129 
Q 3597 2675 3597 1894 
z
M 3022 2063 
Q 3016 2534 2758 2815 
Q 2500 3097 2075 3097 
Q 1594 3097 1305 2825 
Q 1016 2553 972 2059 
L 3022 2063 
z
" transform="scale(0.015625)"/>
       <path id="DejaVuSans-61" d="M 2194 1759 
Q 1497 1759 1228 1600 
Q 959 1441 959 1056 
Q 959 750 1161 570 
Q 1363 391 1709 391 
Q 2188 391 2477 730 
Q 2766 1069 2766 1631 
L 2766 1759 
L 2194 1759 
z
M 3341 1997 
L 3341 0 
L 2766 0 
L 2766 531 
Q 2569 213 2275 61 
Q 1981 -91 1556 -91 
Q 1019 -91 701 211 
Q 384 513 384 1019 
Q 384 1609 779 1909 
Q 1175 2209 1959 2209 
L 2766 2209 
L 2766 2266 
Q 2766 2663 2505 2880 
Q 2244 3097 1772 3097 
Q 1472 3097 1187 3025 
Q 903 2953 641 2809 
L 641 3341 
Q 956 3463 1253 3523 
Q 1550 3584 1831 3584 
Q 2591 3584 2966 3190 
Q 3341 2797 3341 1997 
z
" transform="scale(0.015625)"/>
       <path id="DejaVuSans-72" d="M 2631 2963 
Q 2534 3019 2420 3045 
Q 2306 3072 2169 3072 
Q 1681 3072 1420 2755 
Q 1159 2438 1159 1844 
L 1159 0 
L 581 0 
L 581 3500 
L 1159 3500 
L 1159 2956 
Q 1341 3275 1631 3429 
Q 1922 3584 2338 3584 
Q 2397 3584 2469 3576 
Q 2541 3569 2628 3553 
L 2631 2963 
z
" transform="scale(0.015625)"/>
       <path id="DejaVuSans-73" d="M 2834 3397 
L 2834 2853 
Q 2591 2978 2328 3040 
Q 2066 3103 1784 3103 
Q 1356 3103 1142 2972 
Q 928 2841 928 2578 
Q 928 2378 1081 2264 
Q 1234 2150 1697 2047 
L 1894 2003 
Q 2506 1872 2764 1633 
Q 3022 1394 3022 966 
Q 3022 478 2636 193 
Q 2250 -91 1575 -91 
Q 1294 -91 989 -36 
Q 684 19 347 128 
L 347 722 
Q 666 556 975 473 
Q 1284 391 1588 391 
Q 1994 391 2212 530 
Q 2431 669 2431 922 
Q 2431 1156 2273 1281 
Q 2116 1406 1581 1522 
L 1381 1569 
Q 847 1681 609 1914 
Q 372 2147 372 2553 
Q 372 3047 722 3315 
Q 1072 3584 1716 3584 
Q 2034 3584 2315 3537 
Q 2597 3491 2834 3397 
z
" transform="scale(0.015625)"/>
       <path id="DejaVuSans-29" d="M 513 4856 
L 1013 4856 
Q 1481 4119 1714 3412 
Q 1947 2706 1947 2009 
Q 1947 1309 1714 600 
Q 1481 -109 1013 -844 
L 513 -844 
Q 928 -128 1133 580 
Q 1338 1288 1338 2009 
Q 1338 2731 1133 3434 
Q 928 4138 513 4856 
z
" transform="scale(0.015625)"/>
      </defs>
      <use xlink:href="#DejaVuSans-Oblique-74" transform="translate(0 0.125)"/>
      <use xlink:href="#DejaVuSans-20" transform="translate(39.208984 0.125)"/>
      <use xlink:href="#DejaVuSans-28" transform="translate(70.996094 0.125)"/>
      <use xlink:href="#DejaVuSans-79" transform="translate(110.009766 0.125)"/>
      <use xlink:href="#DejaVuSans-65" transform="translate(169.189453 0.125)"/>
      <use xlink:href="#DejaVuSans-61" transform="translate(230.712891 0.125)"/>
      <use xlink:href="#DejaVuSans-72" transform="translate(291.992188 0.125)"/>
      <use xlink:href="#DejaVuSans-73" transform="translate(333.105469 0.125)"/>
      <use xlink:href="#DejaVuSans-29" transform="translate(385.205078 0.125)"/>
     </g>
    </g>
   </g>
   <g id="matplotlib.axis_2">
    <g id="ytick_1">
     <g id="line2d_11">
      <path d="M 57.6 298.141505 
L 414.72 298.141505 
" clip-path="url(#p055a319e6e)" style="fill: none; stroke: #b0b0b0; stroke-width: 0.8; stroke-linecap: square"/>
     </g>
     <g id="line2d_12">
      <defs>
       <path id="md902917692" d="M 0 0 
L -3.5 0 
" style="stroke: #000000; stroke-width: 0.8"/>
      </defs>
      <g>
       <use xlink:href="#md902917692" x="57.6" y="298.141505" style="stroke: #000000; stroke-width: 0.8"/>
      </g>
     </g>
     <g id="text_7">
      <!-- 0 -->
      <g transform="translate(44.2375 301.940724) scale(0.1 -0.1)">
       <use xlink:href="#DejaVuSans-30"/>
      </g>
     </g>
    </g>
    <g id="ytick_2">
     <g id="line2d_13">
      <path d="M 57.6 254.630859 
L 414.72 254.630859 
" clip-path="url(#p055a319e6e)" style="fill: none; stroke: #b0b0b0; stroke-width: 0.8; stroke-linecap: square"/>
     </g>
     <g id="line2d_14">
      <g>
       <use xlink:href="#md902917692" x="57.6" y="254.630859" style="stroke: #000000; stroke-width: 0.8"/>
      </g>
     </g>
     <g id="text_8">
      <!-- 50 -->
      <g transform="translate(37.875 258.430078) scale(0.1 -0.1)">
       <use xlink:href="#DejaVuSans-35"/>
       <use xlink:href="#DejaVuSans-30" transform="translate(63.623047 0)"/>
      </g>
     </g>
    </g>
    <g id="ytick_3">
     <g id="line2d_15">
      <path d="M 57.6 211.120213 
L 414.72 211.120213 
" clip-path="url(#p055a319e6e)" style="fill: none; stroke: #b0b0b0; stroke-width: 0.8; stroke-linecap: square"/>
     </g>
     <g id="line2d_16">
      <g>
       <use xlink:href="#md902917692" x="57.6" y="211.120213" style="stroke: #000000; stroke-width: 0.8"/>
      </g>
     </g>
     <g id="text_9">
      <!-- 100 -->
      <g transform="translate(31.5125 214.919432) scale(0.1 -0.1)">
       <use xlink:href="#DejaVuSans-31"/>
       <use xlink:href="#DejaVuSans-30" transform="translate(63.623047 0)"/>
       <use xlink:href="#DejaVuSans-30" transform="translate(127.246094 0)"/>
      </g>
     </g>
    </g>
    <g id="ytick_4">
     <g id="line2d_17">
      <path d="M 57.6 167.609567 
L 414.72 167.609567 
" clip-path="url(#p055a319e6e)" style="fill: none; stroke: #b0b0b0; stroke-width: 0.8; stroke-linecap: square"/>
     </g>
     <g id="line2d_18">
      <g>
       <use xlink:href="#md902917692" x="57.6" y="167.609567" style="stroke: #000000; stroke-width: 0.8"/>
      </g>
     </g>
     <g id="text_10">
      <!-- 150 -->
      <g transform="translate(31.5125 171.408786) scale(0.1 -0.1)">
       <use xlink:href="#DejaVuSans-31"/>
       <use xlink:href="#DejaVuSans-35" transform="translate(63.623047 0)"/>
       <use xlink:href="#DejaVuSans-30" transform="translate(127.246094 0)"/>
      </g>
     </g>
    </g>
    <g id="ytick_5">
     <g id="line2d_19">
      <path d="M 57.6 124.098921 
L 414.72 124.098921 
" clip-path="url(#p055a319e6e)" style="fill: none; stroke: #b0b0b0; stroke-width: 0.8; stroke-linecap: square"/>
     </g>
     <g id="line2d_20">
      <g>
       <use xlink:href="#md902917692" x="57.6" y="124.098921" style="stroke: #000000; stroke-width: 0.8"/>
      </g>
     </g>
     <g id="text_11">
      <!-- 200 -->
      <g transform="translate(31.5125 127.89814) scale(0.1 -0.1)">
       <use xlink:href="#DejaVuSans-32"/>
       <use xlink:href="#DejaVuSans-30" transform="translate(63.623047 0)"/>
       <use xlink:href="#DejaVuSans-30" transform="translate(127.246094 0)"/>
      </g>
     </g>
    </g>
    <g id="ytick_6">
     <g id="line2d_21">
      <path d="M 57.6 80.588275 
L 414.72 80.588275 
" clip-path="url(#p055a319e6e)" style="fill: none; stroke: #b0b0b0; stroke-width: 0.8; stroke-linecap: square"/>
     </g>
     <g id="line2d_22">
      <g>
       <use xlink:href="#md902917692" x="57.6" y="80.588275" style="stroke: #000000; stroke-width: 0.8"/>
      </g>
     </g>
     <g id="text_12">
      <!-- 250 -->
      <g transform="translate(31.5125 84.387494) scale(0.1 -0.1)">
       <use xlink:href="#DejaVuSans-32"/>
       <use xlink:href="#DejaVuSans-35" transform="translate(63.623047 0)"/>
       <use xlink:href="#DejaVuSans-30" transform="translate(127.246094 0)"/>
      </g>
     </g>
    </g>
    <g id="text_13">
     <!-- $N$ (millions) -->
     <g transform="translate(25.432812 203.028) rotate(-90) scale(0.1 -0.1)">
      <defs>
       <path id="DejaVuSans-Oblique-4e" d="M 1081 4666 
L 1931 4666 
L 3219 666 
L 4000 4666 
L 4616 4666 
L 3706 0 
L 2853 0 
L 1569 4025 
L 788 0 
L 172 0 
L 1081 4666 
z
" transform="scale(0.015625)"/>
       <path id="DejaVuSans-6d" d="M 3328 2828 
Q 3544 3216 3844 3400 
Q 4144 3584 4550 3584 
Q 5097 3584 5394 3201 
Q 5691 2819 5691 2113 
L 5691 0 
L 5113 0 
L 5113 2094 
Q 5113 2597 4934 2840 
Q 4756 3084 4391 3084 
Q 3944 3084 3684 2787 
Q 3425 2491 3425 1978 
L 3425 0 
L 2847 0 
L 2847 2094 
Q 2847 2600 2669 2842 
Q 2491 3084 2119 3084 
Q 1678 3084 1418 2786 
Q 1159 2488 1159 1978 
L 1159 0 
L 581 0 
L 581 3500 
L 1159 3500 
L 1159 2956 
Q 1356 3278 1631 3431 
Q 1906 3584 2284 3584 
Q 2666 3584 2933 3390 
Q 3200 3197 3328 2828 
z
" transform="scale(0.015625)"/>
       <path id="DejaVuSans-69" d="M 603 3500 
L 1178 3500 
L 1178 0 
L 603 0 
L 603 3500 
z
M 603 4863 
L 1178 4863 
L 1178 4134 
L 603 4134 
L 603 4863 
z
" transform="scale(0.015625)"/>
       <path id="DejaVuSans-6c" d="M 603 4863 
L 1178 4863 
L 1178 0 
L 603 0 
L 603 4863 
z
" transform="scale(0.015625)"/>
       <path id="DejaVuSans-6f" d="M 1959 3097 
Q 1497 3097 1228 2736 
Q 959 2375 959 1747 
Q 959 1119 1226 758 
Q 1494 397 1959 397 
Q 2419 397 2687 759 
Q 2956 1122 2956 1747 
Q 2956 2369 2687 2733 
Q 2419 3097 1959 3097 
z
M 1959 3584 
Q 2709 3584 3137 3096 
Q 3566 2609 3566 1747 
Q 3566 888 3137 398 
Q 2709 -91 1959 -91 
Q 1206 -91 779 398 
Q 353 888 353 1747 
Q 353 2609 779 3096 
Q 1206 3584 1959 3584 
z
" transform="scale(0.015625)"/>
       <path id="DejaVuSans-6e" d="M 3513 2113 
L 3513 0 
L 2938 0 
L 2938 2094 
Q 2938 2591 2744 2837 
Q 2550 3084 2163 3084 
Q 1697 3084 1428 2787 
Q 1159 2491 1159 1978 
L 1159 0 
L 581 0 
L 581 3500 
L 1159 3500 
L 1159 2956 
Q 1366 3272 1645 3428 
Q 1925 3584 2291 3584 
Q 2894 3584 3203 3211 
Q 3513 2838 3513 2113 
z
" transform="scale(0.015625)"/>
      </defs>
      <use xlink:href="#DejaVuSans-Oblique-4e" transform="translate(0 0.015625)"/>
      <use xlink:href="#DejaVuSans-20" transform="translate(74.804688 0.015625)"/>
      <use xlink:href="#DejaVuSans-28" transform="translate(106.591797 0.015625)"/>
      <use xlink:href="#DejaVuSans-6d" transform="translate(145.605469 0.015625)"/>
      <use xlink:href="#DejaVuSans-69" transform="translate(243.017578 0.015625)"/>
      <use xlink:href="#DejaVuSans-6c" transform="translate(270.800781 0.015625)"/>
      <use xlink:href="#DejaVuSans-6c" transform="translate(298.583984 0.015625)"/>
      <use xlink:href="#DejaVuSans-69" transform="translate(326.367188 0.015625)"/>
      <use xlink:href="#DejaVuSans-6f" transform="translate(354.150391 0.015625)"/>
      <use xlink:href="#DejaVuSans-6e" transform="translate(415.332031 0.015625)"/>
      <use xlink:href="#DejaVuSans-73" transform="translate(478.710938 0.015625)"/>
      <use xlink:href="#DejaVuSans-29" transform="translate(530.810547 0.015625)"/>
     </g>
    </g>
   </g>
   <g id="line2d_23">
    <path d="M 73.832727 294.541262 
L 88.131826 293.558237 
L 101.131007 292.44353 
L 112.83027 291.222521 
L 123.879574 289.845432 
L 133.953939 288.370515 
L 143.703325 286.716545 
L 152.802752 284.947802 
L 161.577199 283.015201 
L 170.026667 280.925033 
L 178.151155 278.687703 
L 186.275643 276.214025 
L 194.075152 273.606928 
L 201.87466 270.765296 
L 209.674169 267.685769 
L 217.473677 264.36913 
L 225.598165 260.668251 
L 234.047633 256.566405 
L 242.82208 252.057029 
L 252.571466 246.788711 
L 263.945749 240.375697 
L 280.519705 230.742045 
L 300.668436 219.079502 
L 311.71774 212.93947 
L 321.467125 207.774415 
L 330.241572 203.375035 
L 338.69104 199.390437 
L 346.815528 195.809315 
L 354.615037 192.611196 
L 362.414545 189.651144 
L 370.214054 186.927776 
L 378.013563 184.435921 
L 386.138051 182.077527 
L 394.262539 179.949431 
L 398.487273 178.929276 
L 398.487273 178.929276 
" clip-path="url(#p055a319e6e)" style="fill: none; stroke: #1f77b4; stroke-linecap: square"/>
   </g>
   <g id="line2d_24">
    <path d="M 73.832727 295.177393 
L 86.181949 294.280551 
L 97.231253 293.257303 
L 106.980639 292.139812 
L 116.080066 290.87778 
L 124.529533 289.482422 
L 132.329042 287.97304 
L 139.803571 286.299102 
L 146.95312 284.463668 
L 153.77769 282.474291 
L 160.277281 280.34318 
L 166.451892 278.087119 
L 172.626503 275.589419 
L 178.476134 272.987141 
L 184.325766 270.144328 
L 190.175397 267.052553 
L 196.025029 263.706261 
L 201.87466 260.103436 
L 207.724292 256.246238 
L 213.898903 251.906499 
L 220.398493 247.056479 
L 227.223063 241.679892 
L 234.697592 235.503007 
L 243.472039 227.952529 
L 256.47122 216.42981 
L 272.395217 202.365473 
L 281.169664 194.917794 
L 288.644193 188.859282 
L 295.468763 183.610647 
L 301.968354 178.895807 
L 308.142965 174.69282 
L 313.992596 170.969623 
L 319.842228 167.502499 
L 325.691859 164.291323 
L 331.541491 161.332124 
L 337.391122 158.617746 
L 343.240753 156.138503 
L 349.415364 153.763796 
L 355.589975 151.622941 
L 362.089566 149.604233 
L 368.914136 147.72291 
L 376.063686 145.98984 
L 383.538215 144.411491 
L 391.337723 142.990122 
L 398.487273 141.865493 
L 398.487273 141.865493 
" clip-path="url(#p055a319e6e)" style="fill: none; stroke: #ff7f0e; stroke-linecap: square"/>
   </g>
   <g id="line2d_25">
    <path d="M 73.832727 294.896415 
L 116.080066 293.952394 
L 154.427649 292.87633 
L 189.525438 291.671929 
L 222.34837 290.324125 
L 253.221425 288.834341 
L 282.469582 287.202597 
L 310.742801 285.40414 
L 338.366061 283.424387 
L 365.664341 281.244002 
L 392.962621 278.839074 
L 398.487273 278.325354 
L 398.487273 278.325354 
" clip-path="url(#p055a319e6e)" style="fill: none; stroke: #2ca02c; stroke-linecap: square"/>
   </g>
   <g id="line2d_26">
    <path d="M 73.832727 294.338556 
L 93.331499 293.327216 
L 110.880393 292.19876 
L 127.129369 290.931656 
L 142.078428 289.543578 
L 156.052547 288.02338 
L 169.051728 286.390039 
L 181.40095 284.619732 
L 193.425192 282.670457 
L 204.799476 280.603757 
L 215.84878 278.373287 
L 226.573104 275.985657 
L 237.297428 273.368036 
L 247.696773 270.602465 
L 258.096118 267.608488 
L 268.495463 264.384904 
L 279.219787 260.823042 
L 289.944111 257.027933 
L 301.318395 252.763067 
L 313.342637 248.01152 
L 326.666798 242.497906 
L 342.265815 235.791347 
L 367.614218 224.60512 
L 390.687764 214.514216 
L 398.487273 211.197602 
L 398.487273 211.197602 
" clip-path="url(#p055a319e6e)" style="fill: none; stroke: #d62728; stroke-linecap: square"/>
   </g>
   <g id="line2d_27">
    <path d="M 73.832727 295.488 
L 97.556233 294.624059 
L 118.354922 293.649677 
L 137.203735 292.550137 
L 154.752629 291.30475 
L 171.001605 289.929192 
L 186.275643 288.413791 
L 200.899722 286.737439 
L 214.873841 284.910106 
L 228.198002 282.94757 
L 241.522162 280.758874 
L 254.521343 278.39896 
L 267.520524 275.815614 
L 280.844685 272.940388 
L 294.493825 269.769074 
L 309.117903 266.142332 
L 325.691859 261.793913 
L 346.490549 256.088938 
L 397.187355 242.082683 
L 398.487273 241.738371 
L 398.487273 241.738371 
" clip-path="url(#p055a319e6e)" style="fill: none; stroke: #9467bd; stroke-linecap: square"/>
   </g>
   <g id="line2d_28">
    <path d="M 73.832727 294.628877 
L 86.506929 293.657273 
L 97.881212 292.56596 
L 108.280557 291.346573 
L 117.704963 290.023703 
L 126.47941 288.574768 
L 134.928878 286.952087 
L 142.728387 285.230117 
L 150.202916 283.354348 
L 157.352465 281.332292 
L 164.177035 279.17549 
L 171.001605 276.77967 
L 177.501196 274.260515 
L 184.000786 271.496303 
L 190.175397 268.632845 
L 196.350008 265.529988 
L 202.524619 262.182329 
L 208.69923 258.587486 
L 215.198821 254.537748 
L 221.698411 250.221688 
L 228.522981 245.416087 
L 235.672531 240.103023 
L 243.472039 234.019188 
L 252.246486 226.880694 
L 263.29579 217.585948 
L 291.569009 193.662474 
L 300.343456 186.611425 
L 308.142965 180.626192 
L 315.292514 175.417257 
L 322.117084 170.72024 
L 328.616675 166.51331 
L 335.116265 162.575917 
L 341.290876 159.088842 
L 347.465487 155.84832 
L 353.640098 152.850584 
L 359.814709 150.089092 
L 366.3143 147.427809 
L 372.81389 145.006298 
L 379.63846 142.706731 
L 386.46303 140.6394 
L 393.61258 138.703647 
L 398.487273 137.508601 
L 398.487273 137.508601 
" clip-path="url(#p055a319e6e)" style="fill: none; stroke: #8c564b; stroke-linecap: square"/>
   </g>
   <g id="patch_3">
    <path d="M 57.6 307.584 
L 57.6 41.472 
" style="fill: none; stroke: #000000; stroke-width: 0.8; stroke-linejoin: miter; stroke-linecap: square"/>
   </g>
   <g id="patch_4">
    <path d="M 414.72 307.584 
L 414.72 41.472 
" style="fill: none; stroke: #000000; stroke-width: 0.8; stroke-linejoin: miter; stroke-linecap: square"/>
   </g>
   <g id="patch_5">
    <path d="M 57.6 307.584 
L 414.72 307.584 
" style="fill: none; stroke: #000000; stroke-width: 0.8; stroke-linejoin: miter; stroke-linecap: square"/>
   </g>
   <g id="patch_6">
    <path d="M 57.6 41.472 
L 414.72 41.472 
" style="fill: none; stroke: #000000; stroke-width: 0.8; stroke-linejoin: miter; stroke-linecap: square"/>
   </g>
   <g id="line2d_29">
    <path d="M 73.832727 294.868158 
L 83.582113 293.930266 
L 92.35656 292.864498 
L 100.156069 291.700025 
L 107.305618 290.416992 
L 114.130188 288.965738 
L 120.304799 287.431993 
L 126.154431 285.758324 
L 131.679083 283.955932 
L 137.203735 281.913686 
L 142.403407 279.750002 
L 147.2781 277.48935 
L 152.152793 274.985927 
L 157.027486 272.22249 
L 161.577199 269.394304 
L 166.126912 266.313399 
L 170.676626 262.96946 
L 175.226339 259.354422 
L 179.776052 255.463058 
L 184.325766 251.293566 
L 189.200459 246.520192 
L 194.075152 241.438566 
L 199.274824 235.695376 
L 204.799476 229.257754 
L 210.974087 221.706349 
L 218.123636 212.590597 
L 228.198002 199.3355 
L 243.14706 179.673793 
L 250.296609 170.647823 
L 256.47122 163.199944 
L 261.995872 156.871323 
L 267.195545 151.241417 
L 272.070238 146.272588 
L 276.94493 141.615873 
L 281.819623 137.277449 
L 286.369337 133.515939 
L 290.91905 130.028697 
L 295.468763 126.809093 
L 300.018477 123.847939 
L 304.89317 120.949343 
L 309.767862 118.318999 
L 314.642555 115.940067 
L 319.842228 113.659908 
L 325.0419 111.624374 
L 330.566552 109.705929 
L 336.416183 107.922205 
L 342.590794 106.285666 
L 349.090385 104.803633 
L 355.914955 103.478576 
L 363.389484 102.260185 
L 371.513972 101.168571 
L 380.288419 100.214611 
L 390.362785 99.351507 
L 398.487273 98.800389 
L 398.487273 98.800389 
" clip-path="url(#p055a319e6e)" style="fill: none; stroke: #e377c2; stroke-linecap: square"/>
   </g>
   <g id="line2d_30">
    <path d="M 73.832727 294.259897 
L 86.506929 293.226103 
L 97.881212 292.079557 
L 108.280557 290.815386 
L 118.029943 289.41237 
L 127.129369 287.886259 
L 135.903817 286.193081 
L 144.353284 284.336488 
L 152.477772 282.324879 
L 160.277281 280.17147 
L 168.07679 277.790188 
L 175.876298 275.174595 
L 183.675807 272.322805 
L 191.475315 269.238448 
L 199.599803 265.78911 
L 208.374251 261.815028 
L 217.798657 257.298521 
L 229.17294 251.586844 
L 248.346732 241.651616 
L 263.945749 233.683258 
L 274.345094 228.614754 
L 283.444521 224.419169 
L 291.893989 220.76341 
L 300.018477 217.48989 
L 307.817985 214.582792 
L 315.617494 211.911568 
L 323.417002 209.475546 
L 331.216511 207.269269 
L 339.340999 205.205378 
L 347.465487 203.367102 
L 355.914955 201.677615 
L 365.014382 200.089938 
L 374.438788 198.67339 
L 384.513153 197.38557 
L 395.237477 196.237734 
L 398.487273 195.930166 
L 398.487273 195.930166 
" clip-path="url(#p055a319e6e)" style="fill: none; stroke: #7f7f7f; stroke-linecap: square"/>
   </g>
   <g id="line2d_31">
    <path d="M 73.832727 294.472548 
L 88.456806 293.480491 
L 101.780966 292.354677 
L 113.805209 291.11903 
L 124.854513 289.766674 
L 135.253857 288.274432 
L 145.003243 286.655853 
L 154.427649 284.865019 
L 163.202097 282.977107 
L 171.651564 280.940241 
L 180.101032 278.672498 
L 188.22552 276.260716 
L 196.350008 273.611038 
L 204.149517 270.835722 
L 211.949025 267.828935 
L 219.748534 264.589744 
L 227.873022 260.971988 
L 236.32249 256.955592 
L 245.096937 252.528934 
L 254.521343 247.515336 
L 264.920688 241.7247 
L 277.919869 234.216128 
L 314.967535 212.64768 
L 325.36688 206.944378 
L 334.791286 202.029422 
L 343.565733 197.707507 
L 351.690221 193.945839 
L 359.814709 190.428111 
L 367.614218 187.286923 
L 375.413726 184.378218 
L 383.213235 181.699487 
L 391.337723 179.147428 
L 398.487273 177.095314 
L 398.487273 177.095314 
" clip-path="url(#p055a319e6e)" style="fill: none; stroke: #bcbd22; stroke-linecap: square"/>
   </g>
   <g id="line2d_32">
    <path d="M 73.832727 294.478491 
L 84.232072 293.507628 
L 93.656478 292.41228 
L 102.430925 291.167389 
L 110.230434 289.842988 
L 117.704963 288.347684 
L 124.529533 286.759108 
L 131.029124 285.020045 
L 137.203735 283.137602 
L 143.053366 281.123271 
L 148.578018 278.992965 
L 154.10267 276.620189 
L 159.302342 274.146395 
L 164.502015 271.420902 
L 169.376708 268.621223 
L 174.2514 265.570206 
L 179.126093 262.254226 
L 184.000786 258.660796 
L 188.875479 254.779022 
L 193.750172 250.600096 
L 198.624865 246.117815 
L 203.499558 241.329117 
L 208.374251 236.234603 
L 213.573923 230.468813 
L 218.773595 224.372036 
L 224.298247 217.551605 
L 230.147879 209.977641 
L 236.647469 201.191502 
L 244.121998 190.701757 
L 254.196364 176.145198 
L 273.045176 148.850512 
L 280.844685 138.00601 
L 287.344275 129.33964 
L 293.193907 121.892035 
L 298.718559 115.203627 
L 303.918231 109.239436 
L 309.117903 103.611644 
L 313.992596 98.649229 
L 318.867289 93.993373 
L 323.741982 89.643027 
L 328.616675 85.593705 
L 333.491368 81.838009 
L 338.366061 78.366166 
L 343.240753 75.166534 
L 348.115446 72.22608 
L 353.315119 69.359488 
L 358.514791 66.754154 
L 363.714464 64.392067 
L 369.239115 62.128798 
L 374.763767 60.098776 
L 380.613399 58.180978 
L 386.78801 56.390248 
L 393.2876 54.737198 
L 398.487273 53.568 
L 398.487273 53.568 
" clip-path="url(#p055a319e6e)" style="fill: none; stroke: #17becf; stroke-linecap: square"/>
   </g>
   <g id="PathCollection_1">
    <defs>
     <path id="m77b72adc96" d="M 0 3 
C 0.795609 3 1.55874 2.683901 2.12132 2.12132 
C 2.683901 1.55874 3 0.795609 3 0 
C 3 -0.795609 2.683901 -1.55874 2.12132 -2.12132 
C 1.55874 -2.683901 0.795609 -3 0 -3 
C -0.795609 -3 -1.55874 -2.683901 -2.12132 -2.12132 
C -2.683901 -1.55874 -3 -0.795609 -3 0 
C -3 0.795609 -2.683901 1.55874 -2.12132 2.12132 
C -1.55874 2.683901 -0.795609 3 0 3 
z
" style="stroke: #1c6da5"/>
    </defs>
    <g clip-path="url(#p055a319e6e)">
     <use xlink:href="#m77b72adc96" x="73.832727" y="294.747675" style="fill: #1c6da5; stroke: #1c6da5"/>
     <use xlink:href="#m77b72adc96" x="89.292468" y="293.529377" style="fill: #1c6da5; stroke: #1c6da5"/>
     <use xlink:href="#m77b72adc96" x="104.752208" y="291.875972" style="fill: #1c6da5; stroke: #1c6da5"/>
     <use xlink:href="#m77b72adc96" x="120.211948" y="289.787461" style="fill: #1c6da5; stroke: #1c6da5"/>
     <use xlink:href="#m77b72adc96" x="135.671688" y="286.828737" style="fill: #1c6da5; stroke: #1c6da5"/>
     <use xlink:href="#m77b72adc96" x="151.131429" y="283.347886" style="fill: #1c6da5; stroke: #1c6da5"/>
     <use xlink:href="#m77b72adc96" x="166.591169" y="278.126608" style="fill: #1c6da5; stroke: #1c6da5"/>
     <use xlink:href="#m77b72adc96" x="182.050909" y="271.164905" style="fill: #1c6da5; stroke: #1c6da5"/>
     <use xlink:href="#m77b72adc96" x="197.510649" y="264.203201" style="fill: #1c6da5; stroke: #1c6da5"/>
     <use xlink:href="#m77b72adc96" x="212.97039" y="254.630859" style="fill: #1c6da5; stroke: #1c6da5"/>
     <use xlink:href="#m77b72adc96" x="228.43013" y="244.188304" style="fill: #1c6da5; stroke: #1c6da5"/>
     <use xlink:href="#m77b72adc96" x="243.88987" y="232.005323" style="fill: #1c6da5; stroke: #1c6da5"/>
     <use xlink:href="#m77b72adc96" x="259.34961" y="218.081916" style="fill: #1c6da5; stroke: #1c6da5"/>
     <use xlink:href="#m77b72adc96" x="274.809351" y="205.898936" style="fill: #1c6da5; stroke: #1c6da5"/>
     <use xlink:href="#m77b72adc96" x="290.269091" y="191.105316" style="fill: #1c6da5; stroke: #1c6da5"/>
     <use xlink:href="#m77b72adc96" x="305.728831" y="183.2734" style="fill: #1c6da5; stroke: #1c6da5"/>
     <use xlink:href="#m77b72adc96" x="321.188571" y="166.739354" style="fill: #1c6da5; stroke: #1c6da5"/>
     <use xlink:href="#m77b72adc96" x="336.648312" y="142.373392" style="fill: #1c6da5; stroke: #1c6da5"/>
     <use xlink:href="#m77b72adc96" x="352.108052" y="121.488282" style="fill: #1c6da5; stroke: #1c6da5"/>
     <use xlink:href="#m77b72adc96" x="367.567792" y="105.82445" style="fill: #1c6da5; stroke: #1c6da5"/>
     <use xlink:href="#m77b72adc96" x="383.027532" y="80.588275" style="fill: #1c6da5; stroke: #1c6da5"/>
     <use xlink:href="#m77b72adc96" x="398.487273" y="53.611674" style="fill: #1c6da5; stroke: #1c6da5"/>
    </g>
   </g>
   <g id="legend_1">
    <g id="patch_7">
     <path d="M 66.6 66.150125 
L 122.476562 66.150125 
Q 124.476562 66.150125 124.476562 64.150125 
L 124.476562 50.472 
Q 124.476562 48.472 122.476562 48.472 
L 66.6 48.472 
Q 64.6 48.472 64.6 50.472 
L 64.6 64.150125 
Q 64.6 66.150125 66.6 66.150125 
z
" style="fill: #4d4d4d; opacity: 0.5; stroke: #4d4d4d; stroke-linejoin: miter"/>
    </g>
    <g id="patch_8">
     <path d="M 64.6 64.150125 
L 120.476562 64.150125 
Q 122.476562 64.150125 122.476562 62.150125 
L 122.476562 48.472 
Q 122.476562 46.472 120.476562 46.472 
L 64.6 46.472 
Q 62.6 46.472 62.6 48.472 
L 62.6 62.150125 
Q 62.6 64.150125 64.6 64.150125 
z
" style="fill: #ffffff; stroke: #cccccc; stroke-linejoin: miter"/>
    </g>
    <g id="PathCollection_2">
     <g>
      <use xlink:href="#m77b72adc96" x="76.6" y="55.445438" style="fill: #1c6da5; stroke: #1c6da5"/>
     </g>
    </g>
    <g id="text_14">
     <!-- Data -->
     <g transform="translate(94.6 58.070438) scale(0.1 -0.1)">
      <defs>
       <path id="DejaVuSans-44" d="M 1259 4147 
L 1259 519 
L 2022 519 
Q 2988 519 3436 956 
Q 3884 1394 3884 2338 
Q 3884 3275 3436 3711 
Q 2988 4147 2022 4147 
L 1259 4147 
z
M 628 4666 
L 1925 4666 
Q 3281 4666 3915 4102 
Q 4550 3538 4550 2338 
Q 4550 1131 3912 565 
Q 3275 0 1925 0 
L 628 0 
L 628 4666 
z
" transform="scale(0.015625)"/>
       <path id="DejaVuSans-74" d="M 1172 4494 
L 1172 3500 
L 2356 3500 
L 2356 3053 
L 1172 3053 
L 1172 1153 
Q 1172 725 1289 603 
Q 1406 481 1766 481 
L 2356 481 
L 2356 0 
L 1766 0 
Q 1100 0 847 248 
Q 594 497 594 1153 
L 594 3053 
L 172 3053 
L 172 3500 
L 594 3500 
L 594 4494 
L 1172 4494 
z
" transform="scale(0.015625)"/>
      </defs>
      <use xlink:href="#DejaVuSans-44"/>
      <use xlink:href="#DejaVuSans-61" transform="translate(77.001953 0)"/>
      <use xlink:href="#DejaVuSans-74" transform="translate(138.28125 0)"/>
      <use xlink:href="#DejaVuSans-61" transform="translate(177.490234 0)"/>
     </g>
    </g>
   </g>
  </g>
  <g id="text_15">
   <!-- US population -->
   <g transform="translate(188.364375 16.030125) scale(0.12 -0.12)">
    <defs>
     <path id="DejaVuSans-55" d="M 556 4666 
L 1191 4666 
L 1191 1831 
Q 1191 1081 1462 751 
Q 1734 422 2344 422 
Q 2950 422 3222 751 
Q 3494 1081 3494 1831 
L 3494 4666 
L 4128 4666 
L 4128 1753 
Q 4128 841 3676 375 
Q 3225 -91 2344 -91 
Q 1459 -91 1007 375 
Q 556 841 556 1753 
L 556 4666 
z
" transform="scale(0.015625)"/>
     <path id="DejaVuSans-53" d="M 3425 4513 
L 3425 3897 
Q 3066 4069 2747 4153 
Q 2428 4238 2131 4238 
Q 1616 4238 1336 4038 
Q 1056 3838 1056 3469 
Q 1056 3159 1242 3001 
Q 1428 2844 1947 2747 
L 2328 2669 
Q 3034 2534 3370 2195 
Q 3706 1856 3706 1288 
Q 3706 609 3251 259 
Q 2797 -91 1919 -91 
Q 1588 -91 1214 -16 
Q 841 59 441 206 
L 441 856 
Q 825 641 1194 531 
Q 1563 422 1919 422 
Q 2459 422 2753 634 
Q 3047 847 3047 1241 
Q 3047 1584 2836 1778 
Q 2625 1972 2144 2069 
L 1759 2144 
Q 1053 2284 737 2584 
Q 422 2884 422 3419 
Q 422 4038 858 4394 
Q 1294 4750 2059 4750 
Q 2388 4750 2728 4690 
Q 3069 4631 3425 4513 
z
" transform="scale(0.015625)"/>
     <path id="DejaVuSans-70" d="M 1159 525 
L 1159 -1331 
L 581 -1331 
L 581 3500 
L 1159 3500 
L 1159 2969 
Q 1341 3281 1617 3432 
Q 1894 3584 2278 3584 
Q 2916 3584 3314 3078 
Q 3713 2572 3713 1747 
Q 3713 922 3314 415 
Q 2916 -91 2278 -91 
Q 1894 -91 1617 61 
Q 1341 213 1159 525 
z
M 3116 1747 
Q 3116 2381 2855 2742 
Q 2594 3103 2138 3103 
Q 1681 3103 1420 2742 
Q 1159 2381 1159 1747 
Q 1159 1113 1420 752 
Q 1681 391 2138 391 
Q 2594 391 2855 752 
Q 3116 1113 3116 1747 
z
" transform="scale(0.015625)"/>
     <path id="DejaVuSans-75" d="M 544 1381 
L 544 3500 
L 1119 3500 
L 1119 1403 
Q 1119 906 1312 657 
Q 1506 409 1894 409 
Q 2359 409 2629 706 
Q 2900 1003 2900 1516 
L 2900 3500 
L 3475 3500 
L 3475 0 
L 2900 0 
L 2900 538 
Q 2691 219 2414 64 
Q 2138 -91 1772 -91 
Q 1169 -91 856 284 
Q 544 659 544 1381 
z
M 1991 3584 
L 1991 3584 
z
" transform="scale(0.015625)"/>
    </defs>
    <use xlink:href="#DejaVuSans-55"/>
    <use xlink:href="#DejaVuSans-53" transform="translate(73.193359 0)"/>
    <use xlink:href="#DejaVuSans-20" transform="translate(136.669922 0)"/>
    <use xlink:href="#DejaVuSans-70" transform="translate(168.457031 0)"/>
    <use xlink:href="#DejaVuSans-6f" transform="translate(231.933594 0)"/>
    <use xlink:href="#DejaVuSans-70" transform="translate(293.115234 0)"/>
    <use xlink:href="#DejaVuSans-75" transform="translate(356.591797 0)"/>
    <use xlink:href="#DejaVuSans-6c" transform="translate(419.970703 0)"/>
    <use xlink:href="#DejaVuSans-61" transform="translate(447.753906 0)"/>
    <use xlink:href="#DejaVuSans-74" transform="translate(509.033203 0)"/>
    <use xlink:href="#DejaVuSans-69" transform="translate(548.242188 0)"/>
    <use xlink:href="#DejaVuSans-6f" transform="translate(576.025391 0)"/>
    <use xlink:href="#DejaVuSans-6e" transform="translate(637.207031 0)"/>
   </g>
  </g>
 </g>
 <defs>
  <clipPath id="p055a319e6e">
   <rect x="57.6" y="41.472" width="357.12" height="266.112"/>
  </clipPath>
 </defs>
</svg>
