<?xml version="1.0" encoding="utf-8" standalone="no"?>
<!DOCTYPE svg PUBLIC "-//W3C//DTD SVG 1.1//EN"
  "http://www.w3.org/Graphics/SVG/1.1/DTD/svg11.dtd">
<svg xmlns:xlink="http://www.w3.org/1999/xlink" width="864pt" height="288pt" viewBox="0 0 864 288" xmlns="http://www.w3.org/2000/svg" version="1.1">
 <metadata>
  <rdf:RDF xmlns:dc="http://purl.org/dc/elements/1.1/" xmlns:cc="http://creativecommons.org/ns#" xmlns:rdf="http://www.w3.org/1999/02/22-rdf-syntax-ns#">
   <cc:Work>
    <dc:type rdf:resource="http://purl.org/dc/dcmitype/StillImage"/>
    <dc:date>2022-01-01T00:00:00+00:00</dc:date>
    <dc:format>image/svg+xml</dc:format>
    <dc:creator>
     <cc:Agent>
      <dc:title>Matplotlib v3.10.8, https://matplotlib.org/</dc:title>
     </cc:Agent>
    </dc:creator>
   </cc:Work>
  </rdf:RDF>
 </metadata>
 <defs>
  <style type="text/css">*{stroke-linejoin: round; stroke-linecap: butt}</style>
 </defs>
 <g id="figure_1">
  <g id="patch_1">
   <path d="M 0 288 
L 864 288 
L 864 0 
L 0 0 
z
" style="fill: #ffffff"/>
  </g>
  <g id="axes_1">
   <g id="patch_2">
    <path d="M 108 256.32 
L 412.363636 256.32 
L 412.363636 34.56 
L 108 34.56 
z
" style="fill: #ffffff"/>
   </g>
   <g id="matplotlib.axis_1">
    <g id="xtick_1">
     <g id="line2d_1">
      <path d="M 121.834711 256.32 
L 121.834711 34.56 
" clip-path="url(#p5e6852f426)" style="fill: none; stroke: #b0b0b0; stroke-width: 0.8; stroke-linecap: square"/>
     </g>
     <g id="line2d_2">
      <defs>
       <path id="mc3d714ecb3" d="M 0 0 
L 0 3.5 
" style="stroke: #000000; stroke-width: 0.8"/>
      </defs>
      <g>
       <use xlink:href="#mc3d714ecb3" x="121.834711" y="256.32" style="stroke: #000000; stroke-width: 0.8"/>
      </g>
     </g>
     <g id="text_1">
      <!-- 0 -->
      <g transform="translate(118.653461 270.918437) scale(0.1 -0.1)">
       <defs>
        <path id="DejaVuSans-30" d="M 2034 4250 
Q 1547 4250 1301 3770 
Q 1056 3291 1056 2328 
Q 1056 1369 1301 889 
Q 1547 409 2034 409 
Q 2525 409 2770 889 
Q 3016 1369 3016 2328 
Q 3016 3291 2770 3770 
Q 2525 4250 2034 4250 
z
M 2034 4750 
Q 2819 4750 3233 4129 
Q 3647 3509 3647 2328 
Q 3647 1150 3233 529 
Q 2819 -91 2034 -91 
Q 1250 -91 836 529 
Q 422 1150 422 2328 
Q 422 3509 836 4129 
Q 1250 4750 2034 4750 
z
" transform="scale(0.015625)"/>
       </defs>
       <use xlink:href="#DejaVuSans-30"/>
      </g>
     </g>
    </g>
    <g id="xtick_2">
     <g id="line2d_3">
      <path d="M 177.173554 256.32 
L 177.173554 34.56 
" clip-path="url(#p5e6852f426)" style="fill: none; stroke: #b0b0b0; stroke-width: 0.8; stroke-linecap: square"/>
     </g>
     <g id="line2d_4">
      <g>
       <use xlink:href="#mc3d714ecb3" x="177.173554" y="256.32" style="stroke: #000000; stroke-width: 0.8"/>
      </g>
     </g>
     <g id="text_2">
      <!-- 1 -->
      <g transform="translate(173.992304 270.918437) scale(0.1 -0.1)">
       <defs>
        <path id="DejaVuSans-31" d="M 794 531 
L 1825 531 
L 1825 4091 
L 703 3866 
L 703 4441 
L 1819 4666 
L 2450 4666 
L 2450 531 
L 3481 531 
L 3481 0 
L 794 0 
L 794 531 
z
" transform="scale(0.015625)"/>
       </defs>
       <use xlink:href="#DejaVuSans-31"/>
      </g>
     </g>
    </g>
    <g id="xtick_3">
     <g id="line2d_5">
      <path d="M 232.512397 256.32 
L 232.512397 34.56 
" clip-path="url(#p5e6852f426)" style="fill: none; stroke: #b0b0b0; stroke-width: 0.8; stroke-linecap: square"/>
     </g>
     <g id="line2d_6">
      <g>
       <use xlink:href="#mc3d714ecb3" x="232.512397" y="256.32" style="stroke: #000000; stroke-width: 0.8"/>
      </g>
     </g>
     <g id="text_3">
      <!-- 2 -->
      <g transform="translate(229.331147 270.918437) scale(0.1 -0.1)">
       <defs>
        <path id="DejaVuSans-32" d="M 1228 531 
L 3431 531 
L 3431 0 
L 469 0 
L 469 531 
Q 828 903 1448 1529 
Q 2069 2156 2228 2338 
Q 2531 2678 2651 2914 
Q 2772 3150 2772 3378 
Q 2772 3750 2511 3984 
Q 2250 4219 1831 4219 
Q 1534 4219 1204 4116 
Q 875 4013 500 3803 
L 500 4441 
Q 881 4594 1212 4672 
Q 1544 4750 1819 4750 
Q 2544 4750 2975 4387 
Q 3406 4025 3406 3419 
Q 3406 3131 3298 2873 
Q 3191 2616 2906 2266 
Q 2828 2175 2409 1742 
Q 1991 1309 1228 531 
z
" transform="scale(0.015625)"/>
       </defs>
       <use xlink:href="#DejaVuSans-32"/>
      </g>
     </g>
    </g>
    <g id="xtick_4">
     <g id="line2d_7">
      <path d="M 287.85124 256.32 
L 287.85124 34.56 
" clip-path="url(#p5e6852f426)" style="fill: none; stroke: #b0b0b0; stroke-width: 0.8; stroke-linecap: square"/>
     </g>
     <g id="line2d_8">
      <g>
       <use xlink:href="#mc3d714ecb3" x="287.85124" y="256.32" style="stroke: #000000; stroke-width: 0.8"/>
      </g>
     </g>
     <g id="text_4">
      <!-- 3 -->
      <g transform="translate(284.66999 270.918437) scale(0.1 -0.1)">
       <defs>
        <path id="DejaVuSans-33" d="M 2597 2516 
Q 3050 2419 3304 2112 
Q 3559 1806 3559 1356 
Q 3559 666 3084 287 
Q 2609 -91 1734 -91 
Q 1441 -91 1130 -33 
Q 819 25 488 141 
L 488 750 
Q 750 597 1062 519 
Q 1375 441 1716 441 
Q 2309 441 2620 675 
Q 2931 909 2931 1356 
Q 2931 1769 2642 2001 
Q 2353 2234 1838 2234 
L 1294 2234 
L 1294 2753 
L 1863 2753 
Q 2328 2753 2575 2939 
Q 2822 3125 2822 3475 
Q 2822 3834 2567 4026 
Q 2313 4219 1838 4219 
Q 1578 4219 1281 4162 
Q 984 4106 628 3988 
L 628 4550 
Q 988 4650 1302 4700 
Q 1616 4750 1894 4750 
Q 2613 4750 3031 4423 
Q 3450 4097 3450 3541 
Q 3450 3153 3228 2886 
Q 3006 2619 2597 2516 
z
" transform="scale(0.015625)"/>
       </defs>
       <use xlink:href="#DejaVuSans-33"/>
      </g>
     </g>
    </g>
    <g id="xtick_5">
     <g id="line2d_9">
      <path d="M 343.190083 256.32 
L 343.190083 34.56 
" clip-path="url(#p5e6852f426)" style="fill: none; stroke: #b0b0b0; stroke-width: 0.8; stroke-linecap: square"/>
     </g>
     <g id="line2d_10">
      <g>
       <use xlink:href="#mc3d714ecb3" x="343.190083" y="256.32" style="stroke: #000000; stroke-width: 0.8"/>
      </g>
     </g>
     <g id="text_5">
      <!-- 4 -->
      <g transform="translate(340.008833 270.918437) scale(0.1 -0.1)">
       <defs>
        <path id="DejaVuSans-34" d="M 2419 4116 
L 825 1625 
L 2419 1625 
L 2419 4116 
z
M 2253 4666 
L 3047 4666 
L 3047 1625 
L 3713 1625 
L 3713 1100 
L 3047 1100 
L 3047 0 
L 2419 0 
L 2419 1100 
L 313 1100 
L 313 1709 
L 2253 4666 
z
" transform="scale(0.015625)"/>
       </defs>
       <use xlink:href="#DejaVuSans-34"/>
      </g>
     </g>
    </g>
    <g id="xtick_6">
     <g id="line2d_11">
      <path d="M 398.528926 256.32 
L 398.528926 34.56 
" clip-path="url(#p5e6852f426)" style="fill: none; stroke: #b0b0b0; stroke-width: 0.8; stroke-linecap: square"/>
     </g>
     <g id="line2d_12">
      <g>
       <use xlink:href="#mc3d714ecb3" x="398.528926" y="256.32" style="stroke: #000000; stroke-width: 0.8"/>
      </g>
     </g>
     <g id="text_6">
      <!-- 5 -->
      <g transform="translate(395.347676 270.918437) scale(0.1 -0.1)">
       <defs>
        <path id="DejaVuSans-35" d="M 691 4666 
L 3169 4666 
L 3169 4134 
L 1269 4134 
L 1269 2991 
Q 1406 3038 1543 3061 
Q 1681 3084 1819 3084 
Q 2600 3084 3056 2656 
Q 3513 2228 3513 1497 
Q 3513 744 3044 326 
Q 2575 -91 1722 -91 
Q 1428 -91 1123 -41 
Q 819 9 494 109 
L 494 744 
Q 775 591 1075 516 
Q 1375 441 1709 441 
Q 2250 441 2565 725 
Q 2881 1009 2881 1497 
Q 2881 1984 2565 2268 
Q 2250 2553 1709 2553 
Q 1456 2553 1204 2497 
Q 953 2441 691 2322 
L 691 4666 
z
" transform="scale(0.015625)"/>
       </defs>
       <use xlink:href="#DejaVuSans-35"/>
      </g>
     </g>
    </g>
    <g id="text_7">
     <!-- $\tau = \|s-t\|$ -->
     <g transform="translate(235.281818 284.698125) scale(0.1 -0.1)">
      <defs>
       <path id="DejaVuSans-Oblique-3c4" d="M 2103 638 
Q 2188 488 2525 488 
L 2800 488 
L 2706 0 
L 2363 0 
Q 1800 0 1600 300 
Q 1403 606 1534 1269 
L 1856 2925 
L 541 2925 
L 653 3500 
L 3881 3500 
L 3769 2925 
L 2444 2925 
L 2113 1234 
Q 2025 781 2103 638 
z
" transform="scale(0.015625)"/>
       <path id="DejaVuSans-3d" d="M 678 2906 
L 4684 2906 
L 4684 2381 
L 678 2381 
L 678 2906 
z
M 678 1631 
L 4684 1631 
L 4684 1100 
L 678 1100 
L 678 1631 
z
" transform="scale(0.015625)"/>
       <path id="DejaVuSans-2016" d="M 1344 4891 
L 1344 -1509 
L 813 -1509 
L 813 4891 
L 1344 4891 
z
M 2375 4891 
L 2375 -1509 
L 1844 -1509 
L 1844 4891 
L 2375 4891 
z
" transform="scale(0.015625)"/>
       <path id="DejaVuSans-Oblique-73" d="M 3200 3397 
L 3091 2853 
Q 2863 2978 2609 3040 
Q 2356 3103 2088 3103 
Q 1634 3103 1373 2948 
Q 1113 2794 1113 2528 
Q 1113 2219 1719 2053 
Q 1766 2041 1788 2034 
L 1972 1978 
Q 2547 1819 2739 1644 
Q 2931 1469 2931 1166 
Q 2931 609 2489 259 
Q 2047 -91 1331 -91 
Q 1053 -91 747 -37 
Q 441 16 72 128 
L 184 722 
Q 500 559 806 475 
Q 1113 391 1394 391 
Q 1816 391 2080 572 
Q 2344 753 2344 1031 
Q 2344 1331 1650 1516 
L 1591 1531 
L 1394 1581 
Q 956 1697 753 1886 
Q 550 2075 550 2369 
Q 550 2928 970 3256 
Q 1391 3584 2113 3584 
Q 2397 3584 2667 3537 
Q 2938 3491 3200 3397 
z
" transform="scale(0.015625)"/>
       <path id="DejaVuSans-2212" d="M 678 2272 
L 4684 2272 
L 4684 1741 
L 678 1741 
L 678 2272 
z
" transform="scale(0.015625)"/>
       <path id="DejaVuSans-Oblique-74" d="M 2706 3500 
L 2619 3053 
L 1472 3053 
L 1100 1153 
Q 1081 1047 1072 975 
Q 1063 903 1063 863 
Q 1063 663 1183 572 
Q 1303 481 1569 481 
L 2150 481 
L 2053 0 
L 1503 0 
Q 991 0 739 200 
Q 488 400 488 806 
Q 488 878 497 964 
Q 506 1050 525 1153 
L 897 3053 
L 409 3053 
L 500 3500 
L 978 3500 
L 1172 4494 
L 1747 4494 
L 1556 3500 
L 2706 3500 
z
" transform="scale(0.015625)"/>
      </defs>
      <use xlink:href="#DejaVuSans-Oblique-3c4" transform="translate(0 0.578125)"/>
      <use xlink:href="#DejaVuSans-3d" transform="translate(79.6875 0.578125)"/>
      <use xlink:href="#DejaVuSans-2016" transform="translate(182.958984 0.578125)"/>
      <use xlink:href="#DejaVuSans-Oblique-73" transform="translate(232.958984 0.578125)"/>
      <use xlink:href="#DejaVuSans-2212" transform="translate(304.541016 0.578125)"/>
      <use xlink:href="#DejaVuSans-Oblique-74" transform="translate(407.8125 0.578125)"/>
      <use xlink:href="#DejaVuSans-2016" transform="translate(447.021484 0.578125)"/>
     </g>
    </g>
   </g>
   <g id="matplotlib.axis_2">
    <g id="ytick_1">
     <g id="line2d_13">
      <path d="M 108 246.391502 
L 412.363636 246.391502 
" clip-path="url(#p5e6852f426)" style="fill: none; stroke: #b0b0b0; stroke-width: 0.8; stroke-linecap: square"/>
     </g>
     <g id="line2d_14">
      <defs>
       <path id="m5c82c86185" d="M 0 0 
L -3.5 0 
" style="stroke: #000000; stroke-width: 0.8"/>
      </defs>
      <g>
       <use xlink:href="#m5c82c86185" x="108" y="246.391502" style="stroke: #000000; stroke-width: 0.8"/>
      </g>
     </g>
     <g id="text_8">
      <!-- 0.0 -->
      <g transform="translate(85.096875 250.190721) scale(0.1 -0.1)">
       <defs>
        <path id="DejaVuSans-2e" d="M 684 794 
L 1344 794 
L 1344 0 
L 684 0 
L 684 794 
z
" transform="scale(0.015625)"/>
       </defs>
       <use xlink:href="#DejaVuSans-30"/>
       <use xlink:href="#DejaVuSans-2e" transform="translate(63.623047 0)"/>
       <use xlink:href="#DejaVuSans-30" transform="translate(95.410156 0)"/>
      </g>
     </g>
    </g>
    <g id="ytick_2">
     <g id="line2d_15">
      <path d="M 108 206.041202 
L 412.363636 206.041202 
" clip-path="url(#p5e6852f426)" style="fill: none; stroke: #b0b0b0; stroke-width: 0.8; stroke-linecap: square"/>
     </g>
     <g id="line2d_16">
      <g>
       <use xlink:href="#m5c82c86185" x="108" y="206.041202" style="stroke: #000000; stroke-width: 0.8"/>
      </g>
     </g>
     <g id="text_9">
      <!-- 0.2 -->
      <g transform="translate(85.096875 209.84042) scale(0.1 -0.1)">
       <use xlink:href="#DejaVuSans-30"/>
       <use xlink:href="#DejaVuSans-2e" transform="translate(63.623047 0)"/>
       <use xlink:href="#DejaVuSans-32" transform="translate(95.410156 0)"/>
      </g>
     </g>
    </g>
    <g id="ytick_3">
     <g id="line2d_17">
      <path d="M 108 165.690901 
L 412.363636 165.690901 
" clip-path="url(#p5e6852f426)" style="fill: none; stroke: #b0b0b0; stroke-width: 0.8; stroke-linecap: square"/>
     </g>
     <g id="line2d_18">
      <g>
       <use xlink:href="#m5c82c86185" x="108" y="165.690901" style="stroke: #000000; stroke-width: 0.8"/>
      </g>
     </g>
     <g id="text_10">
      <!-- 0.4 -->
      <g transform="translate(85.096875 169.49012) scale(0.1 -0.1)">
       <use xlink:href="#DejaVuSans-30"/>
       <use xlink:href="#DejaVuSans-2e" transform="translate(63.623047 0)"/>
       <use xlink:href="#DejaVuSans-34" transform="translate(95.410156 0)"/>
      </g>
     </g>
    </g>
    <g id="ytick_4">
     <g id="line2d_19">
      <path d="M 108 125.340601 
L 412.363636 125.340601 
" clip-path="url(#p5e6852f426)" style="fill: none; stroke: #b0b0b0; stroke-width: 0.8; stroke-linecap: square"/>
     </g>
     <g id="line2d_20">
      <g>
       <use xlink:href="#m5c82c86185" x="108" y="125.340601" style="stroke: #000000; stroke-width: 0.8"/>
      </g>
     </g>
     <g id="text_11">
      <!-- 0.6 -->
      <g transform="translate(85.096875 129.13982) scale(0.1 -0.1)">
       <defs>
        <path id="DejaVuSans-36" d="M 2113 2584 
Q 1688 2584 1439 2293 
Q 1191 2003 1191 1497 
Q 1191 994 1439 701 
Q 1688 409 2113 409 
Q 2538 409 2786 701 
Q 3034 994 3034 1497 
Q 3034 2003 2786 2293 
Q 2538 2584 2113 2584 
z
M 3366 4563 
L 3366 3988 
Q 3128 4100 2886 4159 
Q 2644 4219 2406 4219 
Q 1781 4219 1451 3797 
Q 1122 3375 1075 2522 
Q 1259 2794 1537 2939 
Q 1816 3084 2150 3084 
Q 2853 3084 3261 2657 
Q 3669 2231 3669 1497 
Q 3669 778 3244 343 
Q 2819 -91 2113 -91 
Q 1303 -91 875 529 
Q 447 1150 447 2328 
Q 447 3434 972 4092 
Q 1497 4750 2381 4750 
Q 2619 4750 2861 4703 
Q 3103 4656 3366 4563 
z
" transform="scale(0.015625)"/>
       </defs>
       <use xlink:href="#DejaVuSans-30"/>
       <use xlink:href="#DejaVuSans-2e" transform="translate(63.623047 0)"/>
       <use xlink:href="#DejaVuSans-36" transform="translate(95.410156 0)"/>
      </g>
     </g>
    </g>
    <g id="ytick_5">
     <g id="line2d_21">
      <path d="M 108 84.9903 
L 412.363636 84.9903 
" clip-path="url(#p5e6852f426)" style="fill: none; stroke: #b0b0b0; stroke-width: 0.8; stroke-linecap: square"/>
     </g>
     <g id="line2d_22">
      <g>
       <use xlink:href="#m5c82c86185" x="108" y="84.9903" style="stroke: #000000; stroke-width: 0.8"/>
      </g>
     </g>
     <g id="text_12">
      <!-- 0.8 -->
      <g transform="translate(85.096875 88.789519) scale(0.1 -0.1)">
       <defs>
        <path id="DejaVuSans-38" d="M 2034 2216 
Q 1584 2216 1326 1975 
Q 1069 1734 1069 1313 
Q 1069 891 1326 650 
Q 1584 409 2034 409 
Q 2484 409 2743 651 
Q 3003 894 3003 1313 
Q 3003 1734 2745 1975 
Q 2488 2216 2034 2216 
z
M 1403 2484 
Q 997 2584 770 2862 
Q 544 3141 544 3541 
Q 544 4100 942 4425 
Q 1341 4750 2034 4750 
Q 2731 4750 3128 4425 
Q 3525 4100 3525 3541 
Q 3525 3141 3298 2862 
Q 3072 2584 2669 2484 
Q 3125 2378 3379 2068 
Q 3634 1759 3634 1313 
Q 3634 634 3220 271 
Q 2806 -91 2034 -91 
Q 1263 -91 848 271 
Q 434 634 434 1313 
Q 434 1759 690 2068 
Q 947 2378 1403 2484 
z
M 1172 3481 
Q 1172 3119 1398 2916 
Q 1625 2713 2034 2713 
Q 2441 2713 2670 2916 
Q 2900 3119 2900 3481 
Q 2900 3844 2670 4047 
Q 2441 4250 2034 4250 
Q 1625 4250 1398 4047 
Q 1172 3844 1172 3481 
z
" transform="scale(0.015625)"/>
       </defs>
       <use xlink:href="#DejaVuSans-30"/>
       <use xlink:href="#DejaVuSans-2e" transform="translate(63.623047 0)"/>
       <use xlink:href="#DejaVuSans-38" transform="translate(95.410156 0)"/>
      </g>
     </g>
    </g>
    <g id="ytick_6">
     <g id="line2d_23">
      <path d="M 108 44.64 
L 412.363636 44.64 
" clip-path="url(#p5e6852f426)" style="fill: none; stroke: #b0b0b0; stroke-width: 0.8; stroke-linecap: square"/>
     </g>
     <g id="line2d_24">
      <g>
       <use xlink:href="#m5c82c86185" x="108" y="44.64" style="stroke: #000000; stroke-width: 0.8"/>
      </g>
     </g>
     <g id="text_13">
      <!-- 1.0 -->
      <g transform="translate(85.096875 48.439219) scale(0.1 -0.1)">
       <use xlink:href="#DejaVuSans-31"/>
       <use xlink:href="#DejaVuSans-2e" transform="translate(63.623047 0)"/>
       <use xlink:href="#DejaVuSans-30" transform="translate(95.410156 0)"/>
      </g>
     </g>
    </g>
    <g id="text_14">
     <!-- $C(\tau)$ -->
     <g transform="translate(79.017187 155.89) rotate(-90) scale(0.1 -0.1)">
      <defs>
       <path id="DejaVuSans-Oblique-43" d="M 4447 4306 
L 4319 3641 
Q 4019 3944 3683 4091 
Q 3347 4238 2956 4238 
Q 2422 4238 2017 3981 
Q 1613 3725 1319 3200 
Q 1131 2863 1032 2486 
Q 934 2109 934 1728 
Q 934 1091 1264 756 
Q 1594 422 2222 422 
Q 2656 422 3056 561 
Q 3456 700 3834 978 
L 3688 231 
Q 3316 72 2936 -9 
Q 2556 -91 2175 -91 
Q 1278 -91 773 396 
Q 269 884 269 1753 
Q 269 2309 461 2846 
Q 653 3384 1013 3828 
Q 1394 4300 1883 4525 
Q 2372 4750 3022 4750 
Q 3422 4750 3780 4639 
Q 4138 4528 4447 4306 
z
" transform="scale(0.015625)"/>
       <path id="DejaVuSans-28" d="M 1984 4856 
Q 1566 4138 1362 3434 
Q 1159 2731 1159 2009 
Q 1159 1288 1364 580 
Q 1569 -128 1984 -844 
L 1484 -844 
Q 1016 -109 783 600 
Q 550 1309 550 2009 
Q 550 2706 781 3412 
Q 1013 4119 1484 4856 
L 1984 4856 
z
" transform="scale(0.015625)"/>
       <path id="DejaVuSans-29" d="M 513 4856 
L 1013 4856 
Q 1481 4119 1714 3412 
Q 1947 2706 1947 2009 
Q 1947 1309 1714 600 
Q 1481 -109 1013 -844 
L 513 -844 
Q 928 -128 1133 580 
Q 1338 1288 1338 2009 
Q 1338 2731 1133 3434 
Q 928 4138 513 4856 
z
" transform="scale(0.015625)"/>
      </defs>
      <use xlink:href="#DejaVuSans-Oblique-43" transform="translate(0 0.125)"/>
      <use xlink:href="#DejaVuSans-28" transform="translate(69.824219 0.125)"/>
      <use xlink:href="#DejaVuSans-Oblique-3c4" transform="translate(108.837891 0.125)"/>
      <use xlink:href="#DejaVuSans-29" transform="translate(169.042969 0.125)"/>
     </g>
    </g>
   </g>
   <g id="line2d_25">
    <path d="M 398.528926 245.032111 
L 376.91219 244.382452 
L 359.618802 243.645457 
L 344.487087 242.781894 
L 331.517045 241.82853 
L 320.708678 240.844338 
L 309.90031 239.647866 
L 299.091942 238.193326 
L 290.445248 236.806863 
L 281.798554 235.185923 
L 273.15186 233.290853 
L 266.666839 231.662047 
L 260.181818 229.83073 
L 253.696798 227.771726 
L 247.211777 225.456725 
L 240.726756 222.853899 
L 234.241736 219.927464 
L 229.918388 217.777054 
L 225.595041 215.451907 
L 221.271694 212.937823 
L 216.948347 210.219451 
L 212.625 207.280189 
L 208.301653 204.10209 
L 203.978306 200.665745 
L 199.654959 196.95017 
L 195.331612 192.932676 
L 191.008264 188.588729 
L 186.684917 183.891802 
L 182.36157 178.813214 
L 178.038223 173.32195 
L 173.714876 167.384479 
L 169.391529 160.964541 
L 165.068182 154.022934 
L 160.744835 146.517266 
L 156.421488 138.401705 
L 152.09814 129.626691 
L 147.774793 120.138638 
L 143.451446 109.879607 
L 139.128099 98.78695 
L 134.804752 86.792928 
L 130.481405 73.824297 
L 126.158058 59.801865 
L 121.834711 44.64 
L 121.834711 44.64 
" clip-path="url(#p5e6852f426)" style="fill: none; stroke: #00ff00; stroke-width: 2; stroke-linecap: square"/>
   </g>
   <g id="line2d_26">
    <path d="M 398.528926 246.053667 
L 372.588843 245.694584 
L 353.133781 245.198424 
L 338.002066 244.585807 
L 325.032025 243.823301 
L 314.223657 242.95504 
L 305.576963 242.060625 
L 296.930269 240.942191 
L 290.445248 239.924962 
L 283.960227 238.725869 
L 277.475207 237.314575 
L 270.990186 235.656296 
L 264.505165 233.711342 
L 260.181818 232.233432 
L 255.858471 230.593454 
L 251.535124 228.775474 
L 247.211777 226.762338 
L 242.88843 224.53566 
L 238.565083 222.075825 
L 234.241736 219.362012 
L 229.918388 216.372268 
L 225.595041 213.083606 
L 221.271694 209.472171 
L 216.948347 205.513473 
L 212.625 201.182701 
L 208.301653 196.455143 
L 203.978306 191.30674 
L 199.654959 185.71479 
L 195.331612 179.658849 
L 191.008264 173.12186 
L 186.684917 166.091564 
L 182.36157 158.562253 
L 178.038223 150.536917 
L 173.714876 142.029894 
L 169.391529 133.07009 
L 165.068182 123.704899 
L 158.583161 109.05928 
L 145.61312 79.204086 
L 141.289773 69.828398 
L 136.966426 61.245876 
L 134.804752 57.381459 
L 132.643079 53.883228 
L 130.481405 50.821386 
L 128.319731 48.274167 
L 126.158058 46.328621 
L 123.996384 45.081463 
L 121.834711 44.64 
L 121.834711 44.64 
" clip-path="url(#p5e6852f426)" style="fill: none; stroke: #ffa500; stroke-width: 2; stroke-linecap: square"/>
   </g>
   <g id="line2d_27">
    <path d="M 398.528926 246.24 
L 368.265496 245.970906 
L 348.810434 245.589989 
L 333.678719 245.077622 
L 320.708678 244.396011 
L 309.90031 243.577341 
L 301.253616 242.69838 
L 292.606921 241.559885 
L 286.121901 240.494011 
L 279.63688 239.207422 
L 273.15186 237.658826 
L 266.666839 235.800589 
L 262.343492 234.363128 
L 258.020145 232.746057 
L 253.696798 230.929988 
L 249.37345 228.894069 
L 245.050103 226.61601 
L 240.726756 224.072158 
L 236.403409 221.237624 
L 232.080062 218.086476 
L 227.756715 214.592011 
L 223.433368 210.727133 
L 219.110021 206.464837 
L 214.786674 201.778843 
L 210.463326 196.644377 
L 206.139979 191.039154 
L 201.816632 184.944554 
L 197.493285 178.347043 
L 193.169938 171.239847 
L 188.846591 163.624894 
L 184.523244 155.515048 
L 180.199897 146.936607 
L 175.87655 137.932066 
L 169.391529 123.767158 
L 158.583161 99.236886 
L 152.09814 84.763396 
L 147.774793 75.621547 
L 143.451446 67.164966 
L 141.289773 63.276545 
L 139.128099 59.661239 
L 136.966426 56.354732 
L 134.804752 53.392694 
L 132.643079 50.810097 
L 130.481405 48.640365 
L 128.319731 46.91434 
L 126.158058 45.659023 
L 123.996384 44.896073 
L 121.834711 44.64 
L 121.834711 44.64 
" clip-path="url(#p5e6852f426)" style="fill: none; stroke: #0000ff; stroke-width: 2; stroke-linecap: square"/>
   </g>
   <g id="patch_3">
    <path d="M 108 256.32 
L 108 34.56 
" style="fill: none; stroke: #000000; stroke-width: 0.8; stroke-linejoin: miter; stroke-linecap: square"/>
   </g>
   <g id="patch_4">
    <path d="M 412.363636 256.32 
L 412.363636 34.56 
" style="fill: none; stroke: #000000; stroke-width: 0.8; stroke-linejoin: miter; stroke-linecap: square"/>
   </g>
   <g id="patch_5">
    <path d="M 108 256.32 
L 412.363636 256.32 
" style="fill: none; stroke: #000000; stroke-width: 0.8; stroke-linejoin: miter; stroke-linecap: square"/>
   </g>
   <g id="patch_6">
    <path d="M 108 34.56 
L 412.363636 34.56 
" style="fill: none; stroke: #000000; stroke-width: 0.8; stroke-linejoin: miter; stroke-linecap: square"/>
   </g>
   <g id="legend_1">
    <g id="patch_7">
     <path d="M 341.763636 88.594375 
L 407.363636 88.594375 
Q 409.363636 88.594375 409.363636 86.594375 
L 409.363636 43.56 
Q 409.363636 41.56 407.363636 41.56 
L 341.763636 41.56 
Q 339.763636 41.56 339.763636 43.56 
L 339.763636 86.594375 
Q 339.763636 88.594375 341.763636 88.594375 
z
" style="fill: #4d4d4d; opacity: 0.5; stroke: #4d4d4d; stroke-linejoin: miter"/>
    </g>
    <g id="patch_8">
     <path d="M 339.763636 86.594375 
L 405.363636 86.594375 
Q 407.363636 86.594375 407.363636 84.594375 
L 407.363636 41.56 
Q 407.363636 39.56 405.363636 39.56 
L 339.763636 39.56 
Q 337.763636 39.56 337.763636 41.56 
L 337.763636 84.594375 
Q 337.763636 86.594375 339.763636 86.594375 
z
" style="fill: #ffffff; stroke: #cccccc; stroke-linejoin: miter"/>
    </g>
    <g id="line2d_28">
     <path d="M 341.763636 47.658438 
L 351.763636 47.658438 
L 361.763636 47.658438 
" style="fill: none; stroke: #00ff00; stroke-width: 2; stroke-linecap: square"/>
    </g>
    <g id="text_15">
     <!-- $\nu = 1/2$ -->
     <g transform="translate(369.763636 51.158438) scale(0.1 -0.1)">
      <defs>
       <path id="DejaVuSans-Oblique-3bd" d="M 959 0 
L 572 3500 
L 1191 3500 
L 1522 563 
Q 1972 950 2391 1488 
Q 2706 1891 2788 2241 
Q 2825 2406 2809 2719 
Q 2794 3091 2544 3500 
L 3125 3500 
L 3125 3500 
Q 3288 3222 3353 2834 
Q 3416 2478 3369 2234 
Q 3250 1622 2719 1075 
Q 2025 363 1572 0 
L 959 0 
z
" transform="scale(0.015625)"/>
       <path id="DejaVuSans-2f" d="M 1625 4666 
L 2156 4666 
L 531 -594 
L 0 -594 
L 1625 4666 
z
" transform="scale(0.015625)"/>
      </defs>
      <use xlink:href="#DejaVuSans-Oblique-3bd" transform="translate(0 0.78125)"/>
      <use xlink:href="#DejaVuSans-3d" transform="translate(75.341797 0.78125)"/>
      <use xlink:href="#DejaVuSans-31" transform="translate(178.613281 0.78125)"/>
      <use xlink:href="#DejaVuSans-2f" transform="translate(242.236328 0.78125)"/>
      <use xlink:href="#DejaVuSans-32" transform="translate(272.302734 0.78125)"/>
     </g>
    </g>
    <g id="line2d_29">
     <path d="M 341.763636 62.336563 
L 351.763636 62.336563 
L 361.763636 62.336563 
" style="fill: none; stroke: #ffa500; stroke-width: 2; stroke-linecap: square"/>
    </g>
    <g id="text_16">
     <!-- $\nu = 3/2$ -->
     <g transform="translate(369.763636 65.836563) scale(0.1 -0.1)">
      <use xlink:href="#DejaVuSans-Oblique-3bd" transform="translate(0 0.78125)"/>
      <use xlink:href="#DejaVuSans-3d" transform="translate(75.341797 0.78125)"/>
      <use xlink:href="#DejaVuSans-33" transform="translate(178.613281 0.78125)"/>
      <use xlink:href="#DejaVuSans-2f" transform="translate(242.236328 0.78125)"/>
      <use xlink:href="#DejaVuSans-32" transform="translate(272.302734 0.78125)"/>
     </g>
    </g>
    <g id="line2d_30">
     <path d="M 341.763636 77.014688 
L 351.763636 77.014688 
L 361.763636 77.014688 
" style="fill: none; stroke: #0000ff; stroke-width: 2; stroke-linecap: square"/>
    </g>
    <g id="text_17">
     <!-- $\nu = 5/2$ -->
     <g transform="translate(369.763636 80.514688) scale(0.1 -0.1)">
      <use xlink:href="#DejaVuSans-Oblique-3bd" transform="translate(0 0.78125)"/>
      <use xlink:href="#DejaVuSans-3d" transform="translate(75.341797 0.78125)"/>
      <use xlink:href="#DejaVuSans-35" transform="translate(178.613281 0.78125)"/>
      <use xlink:href="#DejaVuSans-2f" transform="translate(242.236328 0.78125)"/>
      <use xlink:href="#DejaVuSans-32" transform="translate(272.302734 0.78125)"/>
     </g>
    </g>
   </g>
  </g>
  <g id="axes_2">
   <g id="patch_9">
    <path d="M 473.236364 256.32 
L 777.6 256.32 
L 777.6 34.56 
L 473.236364 34.56 
z
" style="fill: #ffffff"/>
   </g>
   <g id="matplotlib.axis_3">
    <g id="xtick_7">
     <g id="line2d_31">
      <path d="M 514.740496 256.32 
L 514.740496 34.56 
" clip-path="url(#p12ddbb6ca8)" style="fill: none; stroke: #b0b0b0; stroke-width: 0.8; stroke-linecap: square"/>
     </g>
     <g id="line2d_32">
      <g>
       <use xlink:href="#mc3d714ecb3" x="514.740496" y="256.32" style="stroke: #000000; stroke-width: 0.8"/>
      </g>
     </g>
     <g id="text_18">
      <!-- −4 -->
      <g transform="translate(507.369402 270.918437) scale(0.1 -0.1)">
       <use xlink:href="#DejaVuSans-2212"/>
       <use xlink:href="#DejaVuSans-34" transform="translate(83.789062 0)"/>
      </g>
     </g>
    </g>
    <g id="xtick_8">
     <g id="line2d_33">
      <path d="M 570.079339 256.32 
L 570.079339 34.56 
" clip-path="url(#p12ddbb6ca8)" style="fill: none; stroke: #b0b0b0; stroke-width: 0.8; stroke-linecap: square"/>
     </g>
     <g id="line2d_34">
      <g>
       <use xlink:href="#mc3d714ecb3" x="570.079339" y="256.32" style="stroke: #000000; stroke-width: 0.8"/>
      </g>
     </g>
     <g id="text_19">
      <!-- −2 -->
      <g transform="translate(562.708245 270.918437) scale(0.1 -0.1)">
       <use xlink:href="#DejaVuSans-2212"/>
       <use xlink:href="#DejaVuSans-32" transform="translate(83.789062 0)"/>
      </g>
     </g>
    </g>
    <g id="xtick_9">
     <g id="line2d_35">
      <path d="M 625.418182 256.32 
L 625.418182 34.56 
" clip-path="url(#p12ddbb6ca8)" style="fill: none; stroke: #b0b0b0; stroke-width: 0.8; stroke-linecap: square"/>
     </g>
     <g id="line2d_36">
      <g>
       <use xlink:href="#mc3d714ecb3" x="625.418182" y="256.32" style="stroke: #000000; stroke-width: 0.8"/>
      </g>
     </g>
     <g id="text_20">
      <!-- 0 -->
      <g transform="translate(622.236932 270.918437) scale(0.1 -0.1)">
       <use xlink:href="#DejaVuSans-30"/>
      </g>
     </g>
    </g>
    <g id="xtick_10">
     <g id="line2d_37">
      <path d="M 680.757025 256.32 
L 680.757025 34.56 
" clip-path="url(#p12ddbb6ca8)" style="fill: none; stroke: #b0b0b0; stroke-width: 0.8; stroke-linecap: square"/>
     </g>
     <g id="line2d_38">
      <g>
       <use xlink:href="#mc3d714ecb3" x="680.757025" y="256.32" style="stroke: #000000; stroke-width: 0.8"/>
      </g>
     </g>
     <g id="text_21">
      <!-- 2 -->
      <g transform="translate(677.575775 270.918437) scale(0.1 -0.1)">
       <use xlink:href="#DejaVuSans-32"/>
      </g>
     </g>
    </g>
    <g id="xtick_11">
     <g id="line2d_39">
      <path d="M 736.095868 256.32 
L 736.095868 34.56 
" clip-path="url(#p12ddbb6ca8)" style="fill: none; stroke: #b0b0b0; stroke-width: 0.8; stroke-linecap: square"/>
     </g>
     <g id="line2d_40">
      <g>
       <use xlink:href="#mc3d714ecb3" x="736.095868" y="256.32" style="stroke: #000000; stroke-width: 0.8"/>
      </g>
     </g>
     <g id="text_22">
      <!-- 4 -->
      <g transform="translate(732.914618 270.918437) scale(0.1 -0.1)">
       <use xlink:href="#DejaVuSans-34"/>
      </g>
     </g>
    </g>
    <g id="text_23">
     <!-- $x$ -->
     <g transform="translate(622.418182 284.596563) scale(0.1 -0.1)">
      <defs>
       <path id="DejaVuSans-Oblique-78" d="M 3841 3500 
L 2234 1784 
L 3219 0 
L 2559 0 
L 1819 1388 
L 531 0 
L -166 0 
L 1556 1844 
L 641 3500 
L 1300 3500 
L 1972 2234 
L 3144 3500 
L 3841 3500 
z
" transform="scale(0.015625)"/>
      </defs>
      <use xlink:href="#DejaVuSans-Oblique-78" transform="translate(0 0.3125)"/>
     </g>
    </g>
   </g>
   <g id="matplotlib.axis_4">
    <g id="ytick_7">
     <g id="line2d_41">
      <path d="M 473.236364 242.126946 
L 777.6 242.126946 
" clip-path="url(#p12ddbb6ca8)" style="fill: none; stroke: #b0b0b0; stroke-width: 0.8; stroke-linecap: square"/>
     </g>
     <g id="line2d_42">
      <g>
       <use xlink:href="#m5c82c86185" x="473.236364" y="242.126946" style="stroke: #000000; stroke-width: 0.8"/>
      </g>
     </g>
     <g id="text_24">
      <!-- −3 -->
      <g transform="translate(451.494176 245.926165) scale(0.1 -0.1)">
       <use xlink:href="#DejaVuSans-2212"/>
       <use xlink:href="#DejaVuSans-33" transform="translate(83.789062 0)"/>
      </g>
     </g>
    </g>
    <g id="ytick_8">
     <g id="line2d_43">
      <path d="M 473.236364 205.92438 
L 777.6 205.92438 
" clip-path="url(#p12ddbb6ca8)" style="fill: none; stroke: #b0b0b0; stroke-width: 0.8; stroke-linecap: square"/>
     </g>
     <g id="line2d_44">
      <g>
       <use xlink:href="#m5c82c86185" x="473.236364" y="205.92438" style="stroke: #000000; stroke-width: 0.8"/>
      </g>
     </g>
     <g id="text_25">
      <!-- −2 -->
      <g transform="translate(451.494176 209.723599) scale(0.1 -0.1)">
       <use xlink:href="#DejaVuSans-2212"/>
       <use xlink:href="#DejaVuSans-32" transform="translate(83.789062 0)"/>
      </g>
     </g>
    </g>
    <g id="ytick_9">
     <g id="line2d_45">
      <path d="M 473.236364 169.721815 
L 777.6 169.721815 
" clip-path="url(#p12ddbb6ca8)" style="fill: none; stroke: #b0b0b0; stroke-width: 0.8; stroke-linecap: square"/>
     </g>
     <g id="line2d_46">
      <g>
       <use xlink:href="#m5c82c86185" x="473.236364" y="169.721815" style="stroke: #000000; stroke-width: 0.8"/>
      </g>
     </g>
     <g id="text_26">
      <!-- −1 -->
      <g transform="translate(451.494176 173.521034) scale(0.1 -0.1)">
       <use xlink:href="#DejaVuSans-2212"/>
       <use xlink:href="#DejaVuSans-31" transform="translate(83.789062 0)"/>
      </g>
     </g>
    </g>
    <g id="ytick_10">
     <g id="line2d_47">
      <path d="M 473.236364 133.51925 
L 777.6 133.51925 
" clip-path="url(#p12ddbb6ca8)" style="fill: none; stroke: #b0b0b0; stroke-width: 0.8; stroke-linecap: square"/>
     </g>
     <g id="line2d_48">
      <g>
       <use xlink:href="#m5c82c86185" x="473.236364" y="133.51925" style="stroke: #000000; stroke-width: 0.8"/>
      </g>
     </g>
     <g id="text_27">
      <!-- 0 -->
      <g transform="translate(459.873864 137.318468) scale(0.1 -0.1)">
       <use xlink:href="#DejaVuSans-30"/>
      </g>
     </g>
    </g>
    <g id="ytick_11">
     <g id="line2d_49">
      <path d="M 473.236364 97.316684 
L 777.6 97.316684 
" clip-path="url(#p12ddbb6ca8)" style="fill: none; stroke: #b0b0b0; stroke-width: 0.8; stroke-linecap: square"/>
     </g>
     <g id="line2d_50">
      <g>
       <use xlink:href="#m5c82c86185" x="473.236364" y="97.316684" style="stroke: #000000; stroke-width: 0.8"/>
      </g>
     </g>
     <g id="text_28">
      <!-- 1 -->
      <g transform="translate(459.873864 101.115903) scale(0.1 -0.1)">
       <use xlink:href="#DejaVuSans-31"/>
      </g>
     </g>
    </g>
    <g id="ytick_12">
     <g id="line2d_51">
      <path d="M 473.236364 61.114119 
L 777.6 61.114119 
" clip-path="url(#p12ddbb6ca8)" style="fill: none; stroke: #b0b0b0; stroke-width: 0.8; stroke-linecap: square"/>
     </g>
     <g id="line2d_52">
      <g>
       <use xlink:href="#m5c82c86185" x="473.236364" y="61.114119" style="stroke: #000000; stroke-width: 0.8"/>
      </g>
     </g>
     <g id="text_29">
      <!-- 2 -->
      <g transform="translate(459.873864 64.913338) scale(0.1 -0.1)">
       <use xlink:href="#DejaVuSans-32"/>
      </g>
     </g>
    </g>
    <g id="text_30">
     <!-- $GP_{\nu}(x)$ -->
     <g transform="translate(445.414489 161.29) rotate(-90) scale(0.1 -0.1)">
      <defs>
       <path id="DejaVuSans-Oblique-47" d="M 3494 697 
L 3738 1919 
L 2700 1919 
L 2797 2438 
L 4453 2438 
L 4050 384 
Q 3634 156 3143 32 
Q 2653 -91 2156 -91 
Q 1278 -91 783 396 
Q 288 884 288 1753 
Q 288 2475 589 3126 
Q 891 3778 1422 4213 
Q 1756 4484 2153 4617 
Q 2550 4750 3034 4750 
Q 3472 4750 3873 4639 
Q 4275 4528 4641 4306 
L 4513 3634 
Q 4231 3928 3853 4083 
Q 3475 4238 3047 4238 
Q 2550 4238 2172 4048 
Q 1794 3859 1497 3463 
Q 1244 3125 1098 2667 
Q 953 2209 953 1734 
Q 953 1081 1287 751 
Q 1622 422 2284 422 
Q 2616 422 2925 492 
Q 3234 563 3494 697 
z
" transform="scale(0.015625)"/>
       <path id="DejaVuSans-Oblique-50" d="M 1081 4666 
L 2541 4666 
Q 3178 4666 3512 4369 
Q 3847 4072 3847 3500 
Q 3847 2731 3353 2303 
Q 2859 1875 1966 1875 
L 1172 1875 
L 806 0 
L 172 0 
L 1081 4666 
z
M 1613 4147 
L 1275 2394 
L 2069 2394 
Q 2606 2394 2893 2669 
Q 3181 2944 3181 3456 
Q 3181 3784 2986 3965 
Q 2791 4147 2438 4147 
L 1613 4147 
z
" transform="scale(0.015625)"/>
      </defs>
      <use xlink:href="#DejaVuSans-Oblique-47" transform="translate(0 0.125)"/>
      <use xlink:href="#DejaVuSans-Oblique-50" transform="translate(77.490234 0.125)"/>
      <use xlink:href="#DejaVuSans-Oblique-3bd" transform="translate(137.792969 -16.28125) scale(0.7)"/>
      <use xlink:href="#DejaVuSans-28" transform="translate(179.628906 0.125)"/>
      <use xlink:href="#DejaVuSans-Oblique-78" transform="translate(218.642578 0.125)"/>
      <use xlink:href="#DejaVuSans-29" transform="translate(277.822266 0.125)"/>
     </g>
    </g>
   </g>
   <g id="line2d_53">
    <path d="M 487.071074 53.151809 
L 487.347769 54.377694 
L 487.624463 62.475471 
L 487.901157 62.199591 
L 488.177851 63.062916 
L 488.454545 69.988634 
L 488.73124 70.268203 
L 489.007934 67.116753 
L 489.284628 68.467522 
L 489.561322 67.392678 
L 489.838017 71.656832 
L 490.114711 67.9157 
L 490.391405 69.721012 
L 490.668099 69.896903 
L 490.944793 68.628737 
L 491.221488 74.786132 
L 491.498182 68.62495 
L 491.774876 67.407284 
L 492.328264 84.854527 
L 492.604959 85.459454 
L 492.881653 85.541235 
L 493.158347 88.118649 
L 493.435041 95.612619 
L 494.541818 74.364096 
L 494.818512 75.609404 
L 495.095207 73.679928 
L 495.648595 94.10455 
L 495.925289 95.687254 
L 496.201983 86.863793 
L 496.478678 89.633422 
L 496.755372 94.727938 
L 497.032066 95.485499 
L 497.30876 97.174593 
L 497.585455 104.843801 
L 497.862149 106.723669 
L 498.415537 105.374126 
L 498.692231 94.163999 
L 498.968926 93.326149 
L 499.24562 87.601542 
L 499.522314 91.197995 
L 499.799008 100.94645 
L 500.075702 101.117096 
L 500.352397 88.977829 
L 500.629091 96.492711 
L 500.905785 113.110241 
L 501.182479 114.787003 
L 501.459174 112.115345 
L 501.735868 111.865122 
L 502.012562 117.799735 
L 502.289256 116.769587 
L 502.56595 119.356321 
L 502.842645 125.992516 
L 503.119339 117.489789 
L 503.396033 117.174962 
L 503.672727 127.538295 
L 503.949421 114.941191 
L 504.226116 108.229887 
L 504.50281 104.920327 
L 504.779504 109.268654 
L 505.056198 110.061129 
L 505.332893 109.432783 
L 505.609587 116.198207 
L 505.886281 112.767605 
L 506.162975 117.582475 
L 506.439669 108.907501 
L 506.716364 106.773802 
L 506.993058 98.759463 
L 507.269752 110.565687 
L 507.546446 101.487941 
L 507.82314 97.564325 
L 508.099835 101.661167 
L 508.376529 100.946699 
L 508.653223 103.441248 
L 508.929917 104.589003 
L 509.206612 103.340265 
L 509.483306 101.202515 
L 509.76 104.042004 
L 510.036694 103.145354 
L 510.313388 97.733421 
L 510.590083 101.335939 
L 510.866777 96.758584 
L 511.143471 97.055025 
L 511.420165 95.127785 
L 511.69686 88.93965 
L 511.973554 94.933509 
L 512.250248 91.468672 
L 512.526942 90.85842 
L 512.803636 91.324805 
L 513.080331 98.288424 
L 513.357025 96.23214 
L 513.633719 95.997215 
L 513.910413 93.306079 
L 514.187107 98.560949 
L 514.463802 100.620459 
L 514.740496 103.911074 
L 515.01719 118.197772 
L 515.847273 125.317299 
L 516.400661 115.838551 
L 516.677355 114.441333 
L 517.507438 127.650962 
L 517.784132 125.193169 
L 518.060826 128.712088 
L 518.337521 135.437496 
L 518.614215 130.729046 
L 518.890909 130.247153 
L 519.167603 130.853514 
L 519.444298 129.443551 
L 519.720992 131.37116 
L 519.997686 127.809332 
L 520.27438 126.642356 
L 520.551074 119.804279 
L 520.827769 119.985191 
L 521.104463 115.162172 
L 521.381157 118.859543 
L 521.657851 108.384693 
L 521.934545 113.056431 
L 522.21124 114.456834 
L 522.487934 114.905658 
L 523.041322 125.606218 
L 523.318017 112.355094 
L 523.594711 111.217874 
L 523.871405 111.662207 
L 524.148099 117.23496 
L 524.424793 116.580863 
L 524.978182 112.068737 
L 525.254876 113.851305 
L 525.53157 113.296775 
L 526.084959 123.007277 
L 526.361653 123.67246 
L 526.915041 133.225034 
L 527.191736 129.032548 
L 527.46843 131.323022 
L 527.745124 128.729373 
L 528.021818 132.363648 
L 528.298512 140.841932 
L 528.575207 138.009948 
L 528.851901 139.81818 
L 529.128595 135.599546 
L 529.405289 137.403408 
L 529.681983 136.072665 
L 529.958678 133.961986 
L 530.235372 134.950545 
L 530.512066 135.414562 
L 530.78876 144.016324 
L 531.065455 145.92828 
L 531.342149 141.955139 
L 531.618843 143.593074 
L 531.895537 151.969303 
L 532.172231 150.058944 
L 532.448926 155.005349 
L 532.72562 157.569388 
L 533.002314 169.048086 
L 533.279008 172.132514 
L 533.555702 180.91105 
L 533.832397 173.772315 
L 534.109091 172.051299 
L 534.385785 171.280657 
L 534.662479 176.298751 
L 534.939174 177.931183 
L 535.215868 164.270744 
L 535.492562 173.221418 
L 535.769256 169.382444 
L 536.04595 171.421602 
L 536.322645 178.408551 
L 536.599339 172.695927 
L 536.876033 182.739796 
L 537.152727 183.227078 
L 537.429421 181.935331 
L 537.706116 182.268569 
L 537.98281 179.135704 
L 538.259504 181.539508 
L 538.812893 176.865832 
L 539.366281 182.93136 
L 539.642975 178.815029 
L 539.919669 178.53952 
L 540.473058 183.727665 
L 540.749752 181.25473 
L 541.579835 195.094289 
L 541.856529 193.275357 
L 542.133223 192.325598 
L 542.409917 187.417778 
L 542.686612 180.229522 
L 542.963306 186.793943 
L 543.24 196.530934 
L 543.516694 200.610399 
L 543.793388 203.010692 
L 544.070083 210.295838 
L 544.346777 214.193269 
L 544.623471 206.522767 
L 544.900165 208.434918 
L 545.17686 213.848377 
L 545.453554 207.531542 
L 545.730248 206.025177 
L 546.006942 210.668992 
L 546.283636 204.879179 
L 546.560331 206.770325 
L 546.837025 199.990072 
L 547.390413 211.624185 
L 547.667107 201.151902 
L 547.943802 209.259102 
L 548.220496 210.265799 
L 548.49719 209.50836 
L 549.050579 200.105816 
L 549.327273 200.867571 
L 549.603967 208.402056 
L 549.880661 202.616835 
L 550.157355 209.199657 
L 550.43405 208.746082 
L 550.710744 200.628448 
L 550.987438 198.509404 
L 551.264132 205.570481 
L 551.540826 207.78328 
L 551.817521 205.431648 
L 552.094215 215.779794 
L 552.370909 211.973685 
L 552.647603 209.845005 
L 552.924298 203.058669 
L 553.200992 201.416344 
L 553.477686 209.272219 
L 553.75438 203.771026 
L 554.031074 203.897766 
L 554.307769 208.96367 
L 554.584463 206.476831 
L 554.861157 208.382411 
L 555.137851 208.454104 
L 555.69124 224.657049 
L 555.967934 227.065609 
L 556.521322 216.82876 
L 556.798017 215.76347 
L 557.628099 207.216214 
L 557.904793 212.549466 
L 558.181488 213.761158 
L 558.458182 228.629556 
L 558.734876 231.131621 
L 559.01157 234.870108 
L 559.288264 232.529121 
L 559.564959 238.4906 
L 559.841653 241.386833 
L 560.118347 246.24 
L 560.671736 230.422519 
L 560.94843 227.033362 
L 561.225124 212.401452 
L 561.778512 202.633814 
L 562.055207 205.258407 
L 562.331901 201.227687 
L 563.161983 210.603948 
L 563.438678 210.882074 
L 563.715372 207.887217 
L 563.992066 206.235607 
L 564.26876 196.931727 
L 564.545455 198.125846 
L 564.822149 194.23048 
L 565.098843 195.390302 
L 565.375537 192.980715 
L 565.652231 187.472905 
L 565.928926 174.537019 
L 566.20562 169.77712 
L 566.482314 170.686377 
L 566.759008 166.974497 
L 567.035702 176.143836 
L 567.589091 177.707828 
L 567.865785 181.289114 
L 568.142479 173.024385 
L 568.419174 179.276589 
L 568.695868 176.918013 
L 568.972562 179.756093 
L 569.249256 175.57815 
L 569.52595 180.16864 
L 569.802645 174.782935 
L 570.079339 173.613088 
L 570.356033 173.008846 
L 570.632727 165.904565 
L 570.909421 167.084719 
L 571.46281 160.715296 
L 571.739504 163.18024 
L 572.016198 157.956624 
L 572.292893 159.021361 
L 572.846281 169.870271 
L 573.122975 177.815403 
L 573.399669 175.221444 
L 573.953058 176.797989 
L 574.229752 181.765093 
L 574.78314 177.760334 
L 575.059835 179.90241 
L 575.336529 181.141357 
L 575.613223 179.111534 
L 575.889917 187.330779 
L 576.166612 191.239349 
L 576.443306 200.226622 
L 576.72 203.652221 
L 576.996694 199.184694 
L 577.273388 192.387151 
L 577.550083 190.834206 
L 577.826777 192.250446 
L 578.103471 191.721983 
L 578.933554 177.92972 
L 579.210248 175.015882 
L 579.486942 170.0136 
L 579.763636 173.502154 
L 580.040331 173.512896 
L 580.317025 171.663854 
L 580.593719 173.179693 
L 580.870413 171.550199 
L 581.147107 183.358181 
L 581.423802 185.96716 
L 581.700496 186.404639 
L 582.253884 189.653894 
L 582.530579 190.610195 
L 582.807273 195.215847 
L 583.083967 197.273627 
L 583.360661 195.937685 
L 583.637355 188.276122 
L 583.91405 195.303398 
L 584.190744 188.733257 
L 584.467438 185.597957 
L 584.744132 180.610822 
L 585.020826 183.555634 
L 585.297521 195.735611 
L 585.574215 190.923319 
L 585.850909 191.739397 
L 586.127603 185.886375 
L 586.404298 183.560911 
L 586.680992 188.21448 
L 586.957686 185.711956 
L 587.23438 187.446895 
L 587.511074 191.468909 
L 587.787769 189.678599 
L 588.064463 192.702431 
L 588.341157 189.826284 
L 588.617851 184.333353 
L 588.894545 189.446919 
L 589.17124 200.508085 
L 589.447934 185.992429 
L 589.724628 183.032612 
L 590.001322 178.474817 
L 590.278017 181.5114 
L 590.831405 171.014586 
L 591.384793 158.494857 
L 591.661488 158.166088 
L 591.938182 154.664275 
L 592.214876 167.313481 
L 592.49157 171.009867 
L 592.768264 171.345942 
L 593.044959 169.482794 
L 593.321653 171.648357 
L 593.598347 178.544145 
L 593.875041 176.868168 
L 594.151736 160.905077 
L 594.42843 164.19146 
L 594.981818 163.218274 
L 595.258512 170.430007 
L 595.535207 165.681203 
L 596.088595 162.37556 
L 596.365289 161.575709 
L 596.641983 150.917175 
L 596.918678 147.556777 
L 597.472066 158.671847 
L 597.74876 161.394316 
L 598.302149 154.765768 
L 598.578843 155.4385 
L 598.855537 157.582237 
L 599.132231 161.278042 
L 599.408926 159.976461 
L 599.962314 171.751421 
L 600.239008 163.392914 
L 600.792397 155.909425 
L 601.069091 164.96948 
L 601.345785 165.264046 
L 601.622479 161.360686 
L 601.899174 153.534891 
L 602.175868 153.988597 
L 602.452562 152.10408 
L 602.729256 147.856077 
L 603.00595 148.625988 
L 603.282645 147.513231 
L 603.559339 145.813638 
L 603.836033 138.655799 
L 604.112727 136.498599 
L 604.389421 130.1396 
L 604.666116 130.521721 
L 604.94281 131.89711 
L 605.219504 128.159958 
L 605.496198 129.945753 
L 605.772893 135.48148 
L 606.049587 131.569279 
L 606.879669 141.566842 
L 607.156364 139.614518 
L 607.433058 136.141461 
L 607.709752 137.148402 
L 607.986446 133.956374 
L 608.26314 132.336298 
L 608.539835 135.370543 
L 608.816529 130.935134 
L 609.369917 115.37304 
L 609.646612 115.293961 
L 609.923306 106.467004 
L 610.2 102.460836 
L 610.476694 106.681065 
L 610.753388 102.957599 
L 611.030083 107.692439 
L 611.306777 100.832635 
L 611.583471 101.753823 
L 611.860165 107.761735 
L 612.13686 107.478281 
L 612.413554 102.45173 
L 612.690248 104.964003 
L 613.243636 112.24207 
L 613.520331 105.48321 
L 613.797025 105.634652 
L 614.073719 103.375954 
L 614.350413 106.909382 
L 614.627107 101.064816 
L 614.903802 101.392229 
L 615.180496 99.627233 
L 615.45719 96.465162 
L 615.733884 101.334087 
L 616.010579 93.572506 
L 616.287273 101.969959 
L 616.563967 98.122016 
L 616.840661 107.7315 
L 617.117355 112.700049 
L 617.39405 114.791045 
L 617.670744 115.1364 
L 617.947438 113.223506 
L 618.224132 113.431051 
L 618.500826 114.432835 
L 618.777521 118.453407 
L 619.054215 116.661597 
L 619.330909 117.178966 
L 619.607603 110.250011 
L 619.884298 107.079601 
L 620.160992 101.653182 
L 620.991074 78.239048 
L 621.267769 78.886973 
L 621.544463 72.768657 
L 621.821157 76.276053 
L 622.097851 72.829726 
L 622.374545 71.701918 
L 622.65124 65.322032 
L 622.927934 69.625307 
L 623.204628 65.264953 
L 623.481322 75.815061 
L 624.034711 66.746104 
L 624.311405 70.068072 
L 624.588099 67.584509 
L 625.141488 80.290485 
L 625.694876 69.198509 
L 625.97157 69.666845 
L 626.248264 67.936793 
L 626.524959 62.55375 
L 626.801653 70.35103 
L 627.078347 72.925066 
L 627.355041 70.935927 
L 627.631736 70.858693 
L 627.90843 70.213268 
L 628.185124 74.01513 
L 628.461818 73.240805 
L 629.015207 68.769164 
L 629.291901 73.04794 
L 629.568595 69.89522 
L 629.845289 61.006332 
L 630.121983 60.023466 
L 630.398678 63.358402 
L 630.675372 58.202145 
L 630.952066 63.900441 
L 631.22876 66.611364 
L 631.505455 64.113766 
L 631.782149 52.690765 
L 632.058843 58.593791 
L 632.335537 58.50665 
L 632.612231 62.528261 
L 632.888926 63.375543 
L 633.16562 62.046912 
L 633.442314 67.098606 
L 633.719008 57.805405 
L 633.995702 57.518109 
L 634.272397 61.855512 
L 634.549091 68.124404 
L 634.825785 69.722573 
L 635.102479 73.669796 
L 635.379174 72.555795 
L 635.655868 73.225224 
L 636.209256 82.819163 
L 636.48595 79.754223 
L 636.762645 81.952504 
L 637.039339 77.385081 
L 637.316033 74.72624 
L 637.592727 65.493507 
L 637.869421 64.343652 
L 638.146116 60.335439 
L 638.42281 62.023057 
L 638.699504 59.777315 
L 638.976198 48.827345 
L 639.252893 54.004286 
L 639.529587 53.07138 
L 639.806281 50.529117 
L 640.082975 44.64 
L 640.359669 51.505782 
L 640.636364 51.786589 
L 640.913058 49.477781 
L 642.019835 75.548929 
L 642.296529 73.908192 
L 642.573223 75.746925 
L 642.849917 88.77149 
L 643.126612 94.194475 
L 643.403306 93.75302 
L 643.68 96.371131 
L 643.956694 85.959527 
L 644.233388 87.345809 
L 644.510083 92.278406 
L 644.786777 91.621931 
L 645.063471 90.607161 
L 645.61686 92.371504 
L 645.893554 97.353489 
L 646.170248 93.875558 
L 646.446942 92.917398 
L 646.723636 86.866889 
L 647.000331 84.551721 
L 647.277025 80.139103 
L 647.553719 82.268534 
L 647.830413 80.383709 
L 648.107107 69.125732 
L 648.383802 65.044777 
L 648.660496 67.052587 
L 648.93719 68.120309 
L 649.213884 66.057197 
L 649.767273 76.315114 
L 650.043967 78.155134 
L 650.320661 74.868562 
L 650.597355 75.228984 
L 650.87405 87.462433 
L 651.150744 92.956978 
L 651.427438 89.577509 
L 651.704132 91.731452 
L 651.980826 90.423269 
L 652.257521 87.541256 
L 652.534215 90.559698 
L 652.810909 82.259329 
L 653.087603 79.039312 
L 653.364298 77.237509 
L 653.640992 67.05202 
L 653.917686 64.454567 
L 654.471074 67.376872 
L 654.747769 74.213048 
L 655.301157 67.239375 
L 655.577851 72.976055 
L 655.854545 70.509439 
L 656.13124 65.170696 
L 656.407934 66.384933 
L 656.684628 68.242886 
L 656.961322 65.401406 
L 657.238017 70.203624 
L 657.791405 56.971264 
L 658.068099 65.097004 
L 658.344793 63.269795 
L 658.621488 66.466408 
L 658.898182 66.357547 
L 659.174876 54.179885 
L 659.45157 53.269472 
L 659.728264 67.270525 
L 660.004959 60.756111 
L 661.111736 77.999361 
L 661.38843 77.861376 
L 661.665124 75.573739 
L 661.941818 83.691696 
L 662.495207 86.64868 
L 662.771901 89.642122 
L 663.048595 98.172128 
L 663.325289 97.966324 
L 663.878678 104.613006 
L 664.155372 98.808822 
L 664.432066 104.046333 
L 664.70876 113.798734 
L 664.985455 117.165749 
L 665.262149 111.773412 
L 666.092231 106.644924 
L 666.368926 112.056523 
L 666.64562 103.364975 
L 666.922314 104.837524 
L 667.199008 103.543115 
L 667.475702 99.407527 
L 667.752397 93.466368 
L 668.029091 95.501817 
L 668.305785 86.823058 
L 668.582479 92.086878 
L 668.859174 90.35428 
L 669.135868 96.641731 
L 669.412562 98.341968 
L 669.689256 90.888061 
L 669.96595 90.611148 
L 670.242645 85.824222 
L 670.519339 83.959245 
L 670.796033 86.599976 
L 671.072727 97.756547 
L 671.349421 93.545343 
L 671.90281 109.545924 
L 672.179504 113.692635 
L 672.456198 110.724078 
L 672.732893 101.988075 
L 673.009587 102.132688 
L 673.562975 109.046348 
L 673.839669 108.703426 
L 674.116364 112.008933 
L 674.393058 107.807123 
L 674.946446 116.404755 
L 675.499835 98.757084 
L 675.776529 103.049091 
L 676.053223 100.391616 
L 676.329917 102.707365 
L 676.606612 97.004434 
L 676.883306 104.39744 
L 677.16 105.976274 
L 677.436694 104.447977 
L 677.713388 103.886984 
L 677.990083 96.139309 
L 678.266777 100.789239 
L 678.543471 102.041139 
L 678.820165 106.520629 
L 679.09686 104.527128 
L 679.373554 98.528234 
L 679.650248 98.594682 
L 680.203636 107.423599 
L 680.480331 102.921593 
L 680.757025 102.61702 
L 681.033719 93.488224 
L 681.310413 100.689057 
L 681.587107 98.876167 
L 681.863802 99.210151 
L 682.140496 105.571789 
L 682.41719 99.019691 
L 682.693884 97.579256 
L 682.970579 91.457272 
L 683.247273 97.382357 
L 683.523967 94.458712 
L 683.800661 97.280193 
L 684.077355 104.870446 
L 684.35405 105.265567 
L 684.630744 106.375202 
L 684.907438 109.745601 
L 685.184132 107.928562 
L 685.460826 102.029296 
L 685.737521 106.945626 
L 686.290909 94.956034 
L 686.844298 100.193721 
L 687.120992 110.506297 
L 687.397686 114.377722 
L 687.67438 107.198287 
L 687.951074 105.194277 
L 688.227769 98.693732 
L 688.504463 97.603445 
L 688.781157 86.64551 
L 689.057851 80.717293 
L 689.61124 85.137293 
L 690.164628 98.633916 
L 690.441322 98.162172 
L 690.718017 101.326659 
L 690.994711 92.261942 
L 691.548099 112.21965 
L 691.824793 115.295694 
L 692.101488 113.633189 
L 692.378182 112.993163 
L 692.654876 111.150197 
L 692.93157 112.546885 
L 693.208264 114.844775 
L 693.484959 111.004466 
L 693.761653 105.540292 
L 694.038347 109.976744 
L 694.315041 105.530458 
L 694.591736 108.542638 
L 694.86843 109.271728 
L 695.145124 102.919557 
L 695.698512 97.349709 
L 695.975207 100.921043 
L 696.251901 108.402041 
L 697.081983 113.369824 
L 697.358678 119.889461 
L 697.635372 120.886626 
L 697.912066 120.77963 
L 698.18876 124.47122 
L 699.018843 113.149788 
L 699.295537 118.644092 
L 699.572231 120.663005 
L 699.848926 116.728011 
L 700.12562 116.296899 
L 700.679008 110.313385 
L 701.232397 107.304668 
L 701.509091 98.898559 
L 701.785785 97.52324 
L 702.339174 90.033825 
L 702.615868 90.150681 
L 702.892562 83.833789 
L 703.169256 84.256731 
L 703.722645 92.62851 
L 703.999339 97.111716 
L 704.276033 98.535205 
L 704.552727 106.326108 
L 704.829421 103.016887 
L 705.106116 112.510349 
L 705.38281 115.663707 
L 705.659504 108.338531 
L 705.936198 113.807603 
L 706.212893 107.132759 
L 706.489587 106.550331 
L 706.766281 109.157122 
L 707.042975 107.154636 
L 707.319669 97.438008 
L 707.596364 105.470577 
L 707.873058 104.538123 
L 708.149752 99.496247 
L 708.426446 99.435763 
L 708.70314 96.471218 
L 709.533223 118.818112 
L 709.809917 120.141948 
L 710.086612 118.05051 
L 710.363306 117.242037 
L 710.64 113.075866 
L 710.916694 114.268254 
L 711.193388 110.513444 
L 711.470083 113.227306 
L 711.746777 121.334719 
L 712.023471 118.308593 
L 712.300165 117.656983 
L 712.57686 115.280824 
L 712.853554 123.558969 
L 713.130248 121.770213 
L 713.406942 118.383462 
L 713.683636 112.960432 
L 713.960331 122.709604 
L 714.237025 125.606704 
L 714.513719 116.878845 
L 714.790413 115.874819 
L 715.067107 123.374985 
L 715.343802 124.508023 
L 715.620496 128.118868 
L 715.89719 121.946677 
L 716.173884 128.551534 
L 716.450579 131.809484 
L 716.727273 138.424779 
L 717.003967 134.721297 
L 717.280661 139.675576 
L 717.557355 140.048835 
L 717.83405 141.606836 
L 718.110744 132.415439 
L 718.387438 134.566626 
L 718.664132 128.125976 
L 719.770909 118.648962 
L 720.324298 105.326187 
L 720.600992 110.322104 
L 720.877686 101.134993 
L 721.431074 94.114132 
L 721.707769 91.718913 
L 721.984463 91.911822 
L 722.261157 94.606414 
L 722.537851 91.26896 
L 722.814545 86.077055 
L 723.09124 84.940877 
L 723.367934 90.106689 
L 723.644628 89.775447 
L 723.921322 90.400887 
L 724.198017 99.800658 
L 724.474711 98.86659 
L 724.751405 100.437035 
L 725.028099 94.276133 
L 725.581488 106.1523 
L 725.858182 103.436821 
L 726.134876 97.122913 
L 726.41157 104.535688 
L 726.688264 90.028905 
L 726.964959 93.930327 
L 727.241653 95.100348 
L 727.518347 98.117922 
L 727.795041 92.104211 
L 728.071736 83.004301 
L 728.34843 84.617572 
L 728.625124 82.269388 
L 729.178512 67.261304 
L 729.455207 66.417562 
L 729.731901 64.036964 
L 730.008595 57.116345 
L 730.561983 62.881772 
L 730.838678 60.824664 
L 731.392066 70.804224 
L 731.945455 64.941808 
L 732.222149 68.982023 
L 732.498843 69.823798 
L 732.775537 72.074773 
L 733.052231 67.733272 
L 733.882314 75.364675 
L 734.159008 69.855991 
L 734.435702 80.641514 
L 734.712397 71.665177 
L 734.989091 72.742666 
L 735.265785 66.510527 
L 735.542479 63.4054 
L 736.095868 76.5068 
L 736.649256 90.537294 
L 736.92595 89.894381 
L 737.202645 91.294987 
L 737.479339 99.151507 
L 737.756033 97.454238 
L 738.032727 94.472024 
L 738.309421 95.973614 
L 738.586116 95.988262 
L 738.86281 95.680105 
L 739.139504 86.271739 
L 739.416198 87.979576 
L 739.692893 82.456218 
L 739.969587 79.593395 
L 740.522975 70.99047 
L 740.799669 67.752628 
L 741.076364 65.944488 
L 741.353058 60.574702 
L 741.629752 74.83663 
L 741.906446 78.080551 
L 742.459835 68.110312 
L 742.736529 68.99314 
L 743.013223 74.723245 
L 743.566612 80.610953 
L 744.12 91.846202 
L 744.396694 91.189402 
L 744.673388 91.751882 
L 744.950083 100.916618 
L 745.226777 101.097058 
L 746.05686 122.575534 
L 746.333554 121.113594 
L 746.610248 123.09511 
L 746.886942 118.182823 
L 747.163636 124.09557 
L 747.440331 124.934383 
L 747.717025 123.183439 
L 747.993719 123.267534 
L 748.547107 140.148067 
L 748.823802 142.093709 
L 749.100496 140.537165 
L 749.37719 140.592907 
L 749.653884 149.031762 
L 749.930579 142.94354 
L 750.207273 133.805195 
L 750.483967 132.560453 
L 750.760661 134.670195 
L 751.037355 131.810518 
L 751.590744 122.237228 
L 751.867438 122.891708 
L 752.144132 120.157554 
L 752.697521 110.668033 
L 752.974215 108.716069 
L 753.250909 111.871342 
L 753.527603 106.685683 
L 753.804298 109.522568 
L 754.080992 104.167183 
L 754.357686 114.556016 
L 754.63438 120.017737 
L 754.911074 120.009203 
L 755.187769 123.826313 
L 755.464463 118.541688 
L 755.741157 121.173436 
L 756.017851 117.747436 
L 756.294545 112.48838 
L 756.57124 111.907521 
L 756.847934 115.421485 
L 757.124628 107.784214 
L 757.401322 104.81367 
L 757.678017 99.731251 
L 757.954711 101.092746 
L 758.231405 101.744007 
L 758.508099 96.43185 
L 758.784793 95.550734 
L 759.061488 89.522325 
L 759.338182 91.278696 
L 759.614876 89.543516 
L 759.89157 80.512469 
L 760.168264 85.040235 
L 760.444959 86.718013 
L 760.721653 83.064099 
L 760.998347 82.045099 
L 761.275041 76.718868 
L 761.551736 76.522975 
L 761.82843 72.915782 
L 762.105124 76.630007 
L 762.381818 77.540383 
L 762.935207 68.054956 
L 763.488595 77.589097 
L 763.765289 74.081282 
L 763.765289 74.081282 
" clip-path="url(#p12ddbb6ca8)" style="fill: none; stroke: #00ff00; stroke-linecap: square"/>
   </g>
   <g id="line2d_54">
    <path d="M 487.071074 122.974778 
L 490.944793 109.347753 
L 492.604959 101.355996 
L 493.98843 93.128163 
L 494.818512 88.267654 
L 495.925289 83.708364 
L 496.478678 82.07936 
L 496.755372 81.422438 
L 497.585455 80.602834 
L 497.862149 80.53874 
L 498.415537 81.377013 
L 498.968926 82.105425 
L 499.24562 82.344303 
L 500.075702 82.597537 
L 500.629091 83.018295 
L 500.905785 83.044585 
L 501.459174 82.524248 
L 501.735868 82.459979 
L 502.289256 82.15144 
L 503.672727 81.809394 
L 503.949421 81.91641 
L 504.50281 82.510238 
L 505.056198 82.63319 
L 505.609587 82.451148 
L 505.886281 82.190134 
L 506.439669 81.284511 
L 506.993058 80.866072 
L 507.82314 79.29967 
L 509.206612 75.581595 
L 509.483306 75.220784 
L 510.036694 75.047281 
L 511.973554 75.251322 
L 512.526942 75.182199 
L 512.803636 75.384653 
L 513.080331 75.793119 
L 514.187107 76.529252 
L 515.01719 78.125754 
L 515.847273 79.882007 
L 516.400661 81.075713 
L 516.95405 82.455723 
L 518.890909 88.562777 
L 519.997686 90.62255 
L 520.27438 91.012896 
L 521.104463 92.722443 
L 521.381157 92.991892 
L 522.21124 94.284822 
L 522.487934 94.442159 
L 522.764628 94.466663 
L 523.318017 94.246005 
L 523.871405 94.490428 
L 524.424793 94.919532 
L 525.808264 95.83714 
L 526.084959 95.80145 
L 526.638347 95.98652 
L 528.021818 95.769967 
L 529.128595 96.877233 
L 529.958678 97.789102 
L 530.512066 98.279306 
L 531.065455 99.2989 
L 531.618843 101.00643 
L 532.448926 103.868809 
L 536.322645 114.550528 
L 536.876033 115.193403 
L 541.026446 123.417568 
L 541.579835 123.933186 
L 541.856529 124.057899 
L 542.409917 123.833021 
L 542.686612 123.523447 
L 543.516694 121.673426 
L 544.623471 119.020627 
L 546.006942 116.027112 
L 546.837025 115.27229 
L 547.113719 115.28535 
L 547.943802 115.971419 
L 549.050579 116.825881 
L 549.327273 116.774877 
L 549.603967 116.541339 
L 550.157355 115.670923 
L 550.43405 115.570127 
L 550.987438 115.622568 
L 551.264132 115.66091 
L 552.647603 116.919628 
L 553.477686 117.812805 
L 554.307769 118.99748 
L 554.861157 119.447427 
L 555.414545 119.218556 
L 556.798017 118.41661 
L 557.628099 118.176766 
L 558.458182 118.64732 
L 559.841653 119.853282 
L 560.118347 119.945918 
L 560.671736 120.371821 
L 561.225124 120.461215 
L 561.501818 120.384803 
L 562.331901 119.546425 
L 562.885289 118.891994 
L 563.161983 118.836968 
L 563.992066 119.45533 
L 564.26876 119.531598 
L 564.822149 119.311544 
L 565.375537 118.764129 
L 565.928926 118.028788 
L 566.759008 117.96487 
L 567.312397 117.195733 
L 568.142479 115.277653 
L 568.695868 113.393845 
L 569.249256 111.369742 
L 569.802645 110.464787 
L 572.016198 107.996086 
L 572.569587 106.829088 
L 575.336529 98.927873 
L 575.889917 98.044611 
L 576.72 97.153879 
L 576.996694 97.24852 
L 578.380165 98.347023 
L 578.65686 98.294423 
L 579.210248 97.971373 
L 579.763636 98.241469 
L 580.870413 98.135774 
L 581.147107 98.411259 
L 581.700496 99.635847 
L 582.530579 101.776418 
L 583.91405 104.170802 
L 589.447934 119.536643 
L 591.938182 125.502542 
L 592.49157 126.75413 
L 594.705124 134.050114 
L 596.641983 141.514253 
L 597.472066 143.753977 
L 598.025455 145.253744 
L 598.855537 148.291078 
L 599.962314 153.277984 
L 601.622479 160.994162 
L 602.452562 163.315734 
L 603.282645 165.27949 
L 604.112727 167.051129 
L 605.496198 172.565148 
L 606.049587 175.174732 
L 607.986446 182.576164 
L 609.646612 190.012762 
L 610.753388 193.620061 
L 611.860165 195.9499 
L 612.690248 197.508681 
L 613.797025 199.092722 
L 614.903802 202.001474 
L 615.733884 204.889159 
L 616.287273 206.146536 
L 618.224132 210.2209 
L 619.607603 212.028652 
L 620.71438 212.787427 
L 620.991074 213.20624 
L 623.758017 220.129962 
L 624.588099 221.479653 
L 625.694876 223.409706 
L 626.248264 224.100528 
L 626.801653 224.310965 
L 627.355041 224.38428 
L 628.185124 224.401747 
L 628.461818 224.133648 
L 629.291901 222.492987 
L 629.845289 221.808579 
L 630.398678 220.494362 
L 631.505455 217.015325 
L 632.335537 213.286272 
L 633.995702 204.637566 
L 635.102479 200.101703 
L 635.932562 197.546879 
L 637.039339 195.588044 
L 637.316033 195.185458 
L 637.592727 195.007856 
L 638.42281 194.907174 
L 638.699504 194.529663 
L 639.252893 193.282875 
L 639.806281 191.24582 
L 640.359669 188.568205 
L 642.296529 178.657573 
L 642.849917 176.678458 
L 644.786777 171.798338 
L 645.340165 169.713782 
L 646.170248 166.631634 
L 647.000331 163.672572 
L 647.830413 159.729024 
L 648.93719 153.643403 
L 650.043967 147.878478 
L 650.597355 145.786826 
L 651.427438 143.269878 
L 652.810909 139.977506 
L 653.917686 136.628239 
L 655.024463 134.130565 
L 655.854545 133.771114 
L 656.407934 133.7383 
L 656.684628 133.785758 
L 656.961322 133.963137 
L 657.238017 134.325396 
L 658.068099 136.181739 
L 659.174876 137.026121 
L 659.728264 137.303269 
L 661.111736 137.122156 
L 661.38843 136.851871 
L 662.495207 134.645359 
L 664.155372 129.932549 
L 664.70876 128.510737 
L 665.262149 126.859458 
L 665.815537 125.969478 
L 666.368926 125.55099 
L 667.199008 125.860728 
L 667.475702 126.101544 
L 668.029091 126.881016 
L 668.305785 126.80045 
L 669.412562 124.907304 
L 669.96595 124.062477 
L 670.519339 123.312648 
L 673.009587 118.798248 
L 673.839669 117.557639 
L 675.776529 115.744222 
L 676.329917 115.740044 
L 676.883306 115.91434 
L 677.436694 116.3769 
L 677.713388 116.464403 
L 678.543471 116.145529 
L 679.09686 115.538671 
L 679.650248 114.657197 
L 680.480331 114.240368 
L 680.757025 114.20763 
L 681.310413 114.578848 
L 682.140496 114.444323 
L 682.693884 114.474742 
L 683.523967 114.26638 
L 684.077355 114.883935 
L 684.630744 114.902298 
L 685.184132 114.90176 
L 687.120992 115.887472 
L 687.397686 116.104151 
L 688.227769 116.19774 
L 688.781157 116.411826 
L 689.057851 116.378784 
L 690.164628 114.826392 
L 690.718017 113.939986 
L 691.271405 113.451405 
L 692.101488 113.162776 
L 692.93157 113.312803 
L 693.208264 113.572497 
L 693.761653 114.421219 
L 694.591736 116.266433 
L 695.698512 117.889073 
L 696.805289 119.657569 
L 698.742149 123.381982 
L 700.402314 129.638089 
L 701.232397 133.347363 
L 704.276033 145.575699 
L 705.38281 151.171633 
L 706.212893 154.124779 
L 707.042975 156.04691 
L 708.426446 159.958555 
L 710.64 164.939695 
L 710.916694 165.021199 
L 711.470083 165.663189 
L 712.023471 166.627392 
L 713.960331 172.944012 
L 715.620496 179.795735 
L 717.557355 188.327447 
L 718.110744 189.921822 
L 718.664132 191.046452 
L 718.940826 190.993944 
L 719.494215 190.637731 
L 719.770909 190.613834 
L 720.047603 190.427278 
L 720.877686 189.513575 
L 721.431074 188.795757 
L 721.984463 187.713799 
L 722.537851 186.241956 
L 725.028099 177.869113 
L 725.304793 177.508419 
L 725.858182 177.152189 
L 726.688264 176.429918 
L 727.795041 176.726412 
L 728.625124 177.315225 
L 729.178512 178.020745 
L 729.731901 178.765996 
L 730.561983 179.816677 
L 731.115372 181.026549 
L 732.498843 185.468317 
L 733.60562 189.004764 
L 734.435702 190.750078 
L 735.819174 194.747364 
L 737.202645 197.032048 
L 737.756033 198.40769 
L 738.86281 201.951452 
L 740.246281 205.486112 
L 743.843306 218.348932 
L 744.396694 219.54043 
L 746.610248 223.154605 
L 747.163636 223.426631 
L 747.440331 223.4474 
L 747.993719 223.002678 
L 749.100496 223.070513 
L 749.37719 223.372875 
L 750.207273 225.257804 
L 752.144132 230.804765 
L 753.804298 234.430175 
L 754.357686 234.840722 
L 754.63438 234.915923 
L 755.464463 235.616716 
L 756.294545 236.089787 
L 756.847934 236.416677 
L 757.124628 236.632998 
L 757.678017 237.543385 
L 758.508099 238.519256 
L 759.614876 240.264374 
L 759.89157 240.417312 
L 760.444959 240.321043 
L 761.275041 240.106932 
L 761.551736 239.786677 
L 762.658512 237.764653 
L 763.211901 237.143415 
L 763.488595 237.003712 
L 763.765289 236.738739 
L 763.765289 236.738739 
" clip-path="url(#p12ddbb6ca8)" style="fill: none; stroke: #ffa500; stroke-linecap: square"/>
   </g>
   <g id="line2d_55">
    <path d="M 487.071074 174.33416 
L 488.454545 172.819368 
L 489.284628 172.11593 
L 490.391405 171.531062 
L 492.881653 170.54478 
L 494.265124 169.638721 
L 496.478678 168.01362 
L 498.968926 165.766459 
L 499.799008 165.353683 
L 500.629091 165.182401 
L 501.459174 165.241319 
L 502.56595 165.602623 
L 507.546446 167.662752 
L 508.929917 168.542297 
L 511.973554 170.89343 
L 513.080331 171.686831 
L 513.910413 172.033845 
L 515.293884 172.290242 
L 516.400661 172.337794 
L 517.507438 172.168745 
L 518.337521 171.784358 
L 519.167603 171.150841 
L 520.27438 169.990151 
L 521.381157 168.450508 
L 522.487934 166.49721 
L 523.594711 164.122484 
L 528.575207 152.748655 
L 529.681983 151.146565 
L 530.78876 149.906508 
L 531.618843 149.221573 
L 532.448926 148.851868 
L 533.279008 148.788772 
L 534.109091 148.984405 
L 535.215868 149.538452 
L 536.322645 150.361752 
L 537.429421 151.422917 
L 539.642975 153.983816 
L 545.453554 160.567139 
L 546.560331 161.217385 
L 547.390413 161.453878 
L 549.603967 161.707592 
L 550.43405 161.533555 
L 551.540826 161.016936 
L 552.370909 160.432733 
L 553.477686 159.375442 
L 555.137851 157.444817 
L 556.521322 155.459404 
L 557.904793 152.981044 
L 560.395041 148.404564 
L 561.778512 146.33661 
L 562.885289 145.073266 
L 563.992066 144.187458 
L 564.822149 143.800465 
L 566.482314 143.446994 
L 568.695868 142.877387 
L 571.186116 141.753761 
L 572.569587 140.927391 
L 575.059835 139.487867 
L 576.443306 138.978527 
L 577.550083 138.753486 
L 578.380165 138.784397 
L 579.763636 139.182049 
L 580.870413 139.651084 
L 581.700496 140.258055 
L 582.530579 141.151414 
L 584.190744 143.399917 
L 587.787769 148.281504 
L 589.724628 150.57599 
L 593.321653 154.679139 
L 594.42843 156.342302 
L 595.811901 158.787562 
L 596.918678 161.132353 
L 598.302149 164.676623 
L 602.175868 175.193511 
L 603.559339 178.163155 
L 604.666116 180.074686 
L 606.049587 181.959422 
L 611.306777 189.107799 
L 617.117355 197.374911 
L 622.65124 204.142815 
L 623.481322 204.806135 
L 624.311405 205.151022 
L 624.864793 205.203644 
L 625.418182 205.097425 
L 625.97157 204.798713 
L 626.524959 204.301931 
L 627.355041 203.193715 
L 628.185124 201.597954 
L 629.291901 198.7576 
L 630.675372 194.468156 
L 633.995702 183.145006 
L 637.592727 170.466978 
L 639.529587 164.669876 
L 640.913058 161.229405 
L 642.019835 158.992219 
L 643.126612 157.220959 
L 645.893554 152.994926 
L 647.830413 149.472644 
L 649.213884 146.486897 
L 651.427438 140.955133 
L 655.024463 131.368349 
L 656.961322 126.508433 
L 658.344793 123.462459 
L 659.728264 120.895061 
L 666.092231 109.925703 
L 667.475702 108.109684 
L 670.796033 104.160235 
L 672.732893 101.041735 
L 675.499835 96.565433 
L 676.883306 94.802085 
L 678.543471 93.035744 
L 681.033719 90.74769 
L 682.140496 90.046095 
L 682.970579 89.77687 
L 684.077355 89.666428 
L 685.460826 89.76158 
L 686.290909 89.96751 
L 687.120992 90.425411 
L 687.951074 91.154431 
L 688.781157 92.112381 
L 689.61124 93.346766 
L 690.718017 95.499446 
L 692.101488 98.796489 
L 695.975207 108.549551 
L 700.402314 117.735073 
L 703.169256 123.008241 
L 704.552727 126.192124 
L 706.212893 130.69652 
L 708.426446 137.564477 
L 713.130248 152.665193 
L 716.450579 164.003688 
L 724.751405 193.859817 
L 726.688264 200.950393 
L 728.071736 205.270408 
L 729.178512 208.107271 
L 730.285289 210.211994 
L 731.392066 211.805998 
L 732.775537 213.420271 
L 733.882314 214.429599 
L 735.542479 215.591985 
L 737.202645 216.466307 
L 738.309421 216.829326 
L 739.692893 217.302489 
L 741.629752 218.186556 
L 742.459835 218.287215 
L 743.289917 218.15025 
L 744.12 217.756495 
L 745.503471 216.747494 
L 746.610248 215.710772 
L 747.717025 214.375407 
L 749.653884 211.57394 
L 751.037355 209.258426 
L 752.144132 207.018188 
L 753.527603 203.679835 
L 755.187769 199.044622 
L 757.124628 192.915179 
L 758.784793 186.912388 
L 763.765289 166.810667 
L 763.765289 166.810667 
" clip-path="url(#p12ddbb6ca8)" style="fill: none; stroke: #0000ff; stroke-linecap: square"/>
   </g>
   <g id="patch_10">
    <path d="M 473.236364 256.32 
L 473.236364 34.56 
" style="fill: none; stroke: #000000; stroke-width: 0.8; stroke-linejoin: miter; stroke-linecap: square"/>
   </g>
   <g id="patch_11">
    <path d="M 777.6 256.32 
L 777.6 34.56 
" style="fill: none; stroke: #000000; stroke-width: 0.8; stroke-linejoin: miter; stroke-linecap: square"/>
   </g>
   <g id="patch_12">
    <path d="M 473.236364 256.32 
L 777.6 256.32 
" style="fill: none; stroke: #000000; stroke-width: 0.8; stroke-linejoin: miter; stroke-linecap: square"/>
   </g>
   <g id="patch_13">
    <path d="M 473.236364 34.56 
L 777.6 34.56 
" style="fill: none; stroke: #000000; stroke-width: 0.8; stroke-linejoin: miter; stroke-linecap: square"/>
   </g>
   <g id="legend_2">
    <g id="patch_14">
     <path d="M 707 88.594375 
L 772.6 88.594375 
Q 774.6 88.594375 774.6 86.594375 
L 774.6 43.56 
Q 774.6 41.56 772.6 41.56 
L 707 41.56 
Q 705 41.56 705 43.56 
L 705 86.594375 
Q 705 88.594375 707 88.594375 
z
" style="fill: #4d4d4d; opacity: 0.5; stroke: #4d4d4d; stroke-linejoin: miter"/>
    </g>
    <g id="patch_15">
     <path d="M 705 86.594375 
L 770.6 86.594375 
Q 772.6 86.594375 772.6 84.594375 
L 772.6 41.56 
Q 772.6 39.56 770.6 39.56 
L 705 39.56 
Q 703 39.56 703 41.56 
L 703 84.594375 
Q 703 86.594375 705 86.594375 
z
" style="fill: #ffffff; stroke: #cccccc; stroke-linejoin: miter"/>
    </g>
    <g id="line2d_56">
     <path d="M 707 47.658438 
L 717 47.658438 
L 727 47.658438 
" style="fill: none; stroke: #00ff00; stroke-linecap: square"/>
    </g>
    <g id="text_31">
     <!-- $\nu = 1/2$ -->
     <g transform="translate(735 51.158438) scale(0.1 -0.1)">
      <use xlink:href="#DejaVuSans-Oblique-3bd" transform="translate(0 0.78125)"/>
      <use xlink:href="#DejaVuSans-3d" transform="translate(75.341797 0.78125)"/>
      <use xlink:href="#DejaVuSans-31" transform="translate(178.613281 0.78125)"/>
      <use xlink:href="#DejaVuSans-2f" transform="translate(242.236328 0.78125)"/>
      <use xlink:href="#DejaVuSans-32" transform="translate(272.302734 0.78125)"/>
     </g>
    </g>
    <g id="line2d_57">
     <path d="M 707 62.336563 
L 717 62.336563 
L 727 62.336563 
" style="fill: none; stroke: #ffa500; stroke-linecap: square"/>
    </g>
    <g id="text_32">
     <!-- $\nu = 3/2$ -->
     <g transform="translate(735 65.836563) scale(0.1 -0.1)">
      <use xlink:href="#DejaVuSans-Oblique-3bd" transform="translate(0 0.78125)"/>
      <use xlink:href="#DejaVuSans-3d" transform="translate(75.341797 0.78125)"/>
      <use xlink:href="#DejaVuSans-33" transform="translate(178.613281 0.78125)"/>
      <use xlink:href="#DejaVuSans-2f" transform="translate(242.236328 0.78125)"/>
      <use xlink:href="#DejaVuSans-32" transform="translate(272.302734 0.78125)"/>
     </g>
    </g>
    <g id="line2d_58">
     <path d="M 707 77.014688 
L 717 77.014688 
L 727 77.014688 
" style="fill: none; stroke: #0000ff; stroke-linecap: square"/>
    </g>
    <g id="text_33">
     <!-- $\nu = 5/2$ -->
     <g transform="translate(735 80.514688) scale(0.1 -0.1)">
      <use xlink:href="#DejaVuSans-Oblique-3bd" transform="translate(0 0.78125)"/>
      <use xlink:href="#DejaVuSans-3d" transform="translate(75.341797 0.78125)"/>
      <use xlink:href="#DejaVuSans-35" transform="translate(178.613281 0.78125)"/>
      <use xlink:href="#DejaVuSans-2f" transform="translate(242.236328 0.78125)"/>
      <use xlink:href="#DejaVuSans-32" transform="translate(272.302734 0.78125)"/>
     </g>
    </g>
   </g>
  </g>
  <g id="text_34">
   <!-- Matern model : influence of the regularity $\nu$ parameter -->
   <g transform="translate(267.48 14.88) scale(0.12 -0.12)">
    <defs>
     <path id="DejaVuSans-4d" d="M 628 4666 
L 1569 4666 
L 2759 1491 
L 3956 4666 
L 4897 4666 
L 4897 0 
L 4281 0 
L 4281 4097 
L 3078 897 
L 2444 897 
L 1241 4097 
L 1241 0 
L 628 0 
L 628 4666 
z
" transform="scale(0.015625)"/>
     <path id="DejaVuSans-61" d="M 2194 1759 
Q 1497 1759 1228 1600 
Q 959 1441 959 1056 
Q 959 750 1161 570 
Q 1363 391 1709 391 
Q 2188 391 2477 730 
Q 2766 1069 2766 1631 
L 2766 1759 
L 2194 1759 
z
M 3341 1997 
L 3341 0 
L 2766 0 
L 2766 531 
Q 2569 213 2275 61 
Q 1981 -91 1556 -91 
Q 1019 -91 701 211 
Q 384 513 384 1019 
Q 384 1609 779 1909 
Q 1175 2209 1959 2209 
L 2766 2209 
L 2766 2266 
Q 2766 2663 2505 2880 
Q 2244 3097 1772 3097 
Q 1472 3097 1187 3025 
Q 903 2953 641 2809 
L 641 3341 
Q 956 3463 1253 3523 
Q 1550 3584 1831 3584 
Q 2591 3584 2966 3190 
Q 3341 2797 3341 1997 
z
" transform="scale(0.015625)"/>
     <path id="DejaVuSans-74" d="M 1172 4494 
L 1172 3500 
L 2356 3500 
L 2356 3053 
L 1172 3053 
L 1172 1153 
Q 1172 725 1289 603 
Q 1406 481 1766 481 
L 2356 481 
L 2356 0 
L 1766 0 
Q 1100 0 847 248 
Q 594 497 594 1153 
L 594 3053 
L 172 3053 
L 172 3500 
L 594 3500 
L 594 4494 
L 1172 4494 
z
" transform="scale(0.015625)"/>
     <path id="DejaVuSans-65" d="M 3597 1894 
L 3597 1613 
L 953 1613 
Q 991 1019 1311 708 
Q 1631 397 2203 397 
Q 2534 397 2845 478 
Q 3156 559 3463 722 
L 3463 178 
Q 3153 47 2828 -22 
Q 2503 -91 2169 -91 
Q 1331 -91 842 396 
Q 353 884 353 1716 
Q 353 2575 817 3079 
Q 1281 3584 2069 3584 
Q 2775 3584 3186 3129 
Q 3597 2675 3597 1894 
z
M 3022 2063 
Q 3016 2534 2758 2815 
Q 2500 3097 2075 3097 
Q 1594 3097 1305 2825 
Q 1016 2553 972 2059 
L 3022 2063 
z
" transform="scale(0.015625)"/>
     <path id="DejaVuSans-72" d="M 2631 2963 
Q 2534 3019 2420 3045 
Q 2306 3072 2169 3072 
Q 1681 3072 1420 2755 
Q 1159 2438 1159 1844 
L 1159 0 
L 581 0 
L 581 3500 
L 1159 3500 
L 1159 2956 
Q 1341 3275 1631 3429 
Q 1922 3584 2338 3584 
Q 2397 3584 2469 3576 
Q 2541 3569 2628 3553 
L 2631 2963 
z
" transform="scale(0.015625)"/>
     <path id="DejaVuSans-6e" d="M 3513 2113 
L 3513 0 
L 2938 0 
L 2938 2094 
Q 2938 2591 2744 2837 
Q 2550 3084 2163 3084 
Q 1697 3084 1428 2787 
Q 1159 2491 1159 1978 
L 1159 0 
L 581 0 
L 581 3500 
L 1159 3500 
L 1159 2956 
Q 1366 3272 1645 3428 
Q 1925 3584 2291 3584 
Q 2894 3584 3203 3211 
Q 3513 2838 3513 2113 
z
" transform="scale(0.015625)"/>
     <path id="DejaVuSans-20" transform="scale(0.015625)"/>
     <path id="DejaVuSans-6d" d="M 3328 2828 
Q 3544 3216 3844 3400 
Q 4144 3584 4550 3584 
Q 5097 3584 5394 3201 
Q 5691 2819 5691 2113 
L 5691 0 
L 5113 0 
L 5113 2094 
Q 5113 2597 4934 2840 
Q 4756 3084 4391 3084 
Q 3944 3084 3684 2787 
Q 3425 2491 3425 1978 
L 3425 0 
L 2847 0 
L 2847 2094 
Q 2847 2600 2669 2842 
Q 2491 3084 2119 3084 
Q 1678 3084 1418 2786 
Q 1159 2488 1159 1978 
L 1159 0 
L 581 0 
L 581 3500 
L 1159 3500 
L 1159 2956 
Q 1356 3278 1631 3431 
Q 1906 3584 2284 3584 
Q 2666 3584 2933 3390 
Q 3200 3197 3328 2828 
z
" transform="scale(0.015625)"/>
     <path id="DejaVuSans-6f" d="M 1959 3097 
Q 1497 3097 1228 2736 
Q 959 2375 959 1747 
Q 959 1119 1226 758 
Q 1494 397 1959 397 
Q 2419 397 2687 759 
Q 2956 1122 2956 1747 
Q 2956 2369 2687 2733 
Q 2419 3097 1959 3097 
z
M 1959 3584 
Q 2709 3584 3137 3096 
Q 3566 2609 3566 1747 
Q 3566 888 3137 398 
Q 2709 -91 1959 -91 
Q 1206 -91 779 398 
Q 353 888 353 1747 
Q 353 2609 779 3096 
Q 1206 3584 1959 3584 
z
" transform="scale(0.015625)"/>
     <path id="DejaVuSans-64" d="M 2906 2969 
L 2906 4863 
L 3481 4863 
L 3481 0 
L 2906 0 
L 2906 525 
Q 2725 213 2448 61 
Q 2172 -91 1784 -91 
Q 1150 -91 751 415 
Q 353 922 353 1747 
Q 353 2572 751 3078 
Q 1150 3584 1784 3584 
Q 2172 3584 2448 3432 
Q 2725 3281 2906 2969 
z
M 947 1747 
Q 947 1113 1208 752 
Q 1469 391 1925 391 
Q 2381 391 2643 752 
Q 2906 1113 2906 1747 
Q 2906 2381 2643 2742 
Q 2381 3103 1925 3103 
Q 1469 3103 1208 2742 
Q 947 2381 947 1747 
z
" transform="scale(0.015625)"/>
     <path id="DejaVuSans-6c" d="M 603 4863 
L 1178 4863 
L 1178 0 
L 603 0 
L 603 4863 
z
" transform="scale(0.015625)"/>
     <path id="DejaVuSans-3a" d="M 750 794 
L 1409 794 
L 1409 0 
L 750 0 
L 750 794 
z
M 750 3309 
L 1409 3309 
L 1409 2516 
L 750 2516 
L 750 3309 
z
" transform="scale(0.015625)"/>
     <path id="DejaVuSans-69" d="M 603 3500 
L 1178 3500 
L 1178 0 
L 603 0 
L 603 3500 
z
M 603 4863 
L 1178 4863 
L 1178 4134 
L 603 4134 
L 603 4863 
z
" transform="scale(0.015625)"/>
     <path id="DejaVuSans-66" d="M 2375 4863 
L 2375 4384 
L 1825 4384 
Q 1516 4384 1395 4259 
Q 1275 4134 1275 3809 
L 1275 3500 
L 2222 3500 
L 2222 3053 
L 1275 3053 
L 1275 0 
L 697 0 
L 697 3053 
L 147 3053 
L 147 3500 
L 697 3500 
L 697 3744 
Q 697 4328 969 4595 
Q 1241 4863 1831 4863 
L 2375 4863 
z
" transform="scale(0.015625)"/>
     <path id="DejaVuSans-75" d="M 544 1381 
L 544 3500 
L 1119 3500 
L 1119 1403 
Q 1119 906 1312 657 
Q 1506 409 1894 409 
Q 2359 409 2629 706 
Q 2900 1003 2900 1516 
L 2900 3500 
L 3475 3500 
L 3475 0 
L 2900 0 
L 2900 538 
Q 2691 219 2414 64 
Q 2138 -91 1772 -91 
Q 1169 -91 856 284 
Q 544 659 544 1381 
z
M 1991 3584 
L 1991 3584 
z
" transform="scale(0.015625)"/>
     <path id="DejaVuSans-63" d="M 3122 3366 
L 3122 2828 
Q 2878 2963 2633 3030 
Q 2388 3097 2138 3097 
Q 1578 3097 1268 2742 
Q 959 2388 959 1747 
Q 959 1106 1268 751 
Q 1578 397 2138 397 
Q 2388 397 2633 464 
Q 2878 531 3122 666 
L 3122 134 
Q 2881 22 2623 -34 
Q 2366 -91 2075 -91 
Q 1284 -91 818 406 
Q 353 903 353 1747 
Q 353 2603 823 3093 
Q 1294 3584 2113 3584 
Q 2378 3584 2631 3529 
Q 2884 3475 3122 3366 
z
" transform="scale(0.015625)"/>
     <path id="DejaVuSans-68" d="M 3513 2113 
L 3513 0 
L 2938 0 
L 2938 2094 
Q 2938 2591 2744 2837 
Q 2550 3084 2163 3084 
Q 1697 3084 1428 2787 
Q 1159 2491 1159 1978 
L 1159 0 
L 581 0 
L 581 4863 
L 1159 4863 
L 1159 2956 
Q 1366 3272 1645 3428 
Q 1925 3584 2291 3584 
Q 2894 3584 3203 3211 
Q 3513 2838 3513 2113 
z
" transform="scale(0.015625)"/>
     <path id="DejaVuSans-67" d="M 2906 1791 
Q 2906 2416 2648 2759 
Q 2391 3103 1925 3103 
Q 1463 3103 1205 2759 
Q 947 2416 947 1791 
Q 947 1169 1205 825 
Q 1463 481 1925 481 
Q 2391 481 2648 825 
Q 2906 1169 2906 1791 
z
M 3481 434 
Q 3481 -459 3084 -895 
Q 2688 -1331 1869 -1331 
Q 1566 -1331 1297 -1286 
Q 1028 -1241 775 -1147 
L 775 -588 
Q 1028 -725 1275 -790 
Q 1522 -856 1778 -856 
Q 2344 -856 2625 -561 
Q 2906 -266 2906 331 
L 2906 616 
Q 2728 306 2450 153 
Q 2172 0 1784 0 
Q 1141 0 747 490 
Q 353 981 353 1791 
Q 353 2603 747 3093 
Q 1141 3584 1784 3584 
Q 2172 3584 2450 3431 
Q 2728 3278 2906 2969 
L 2906 3500 
L 3481 3500 
L 3481 434 
z
" transform="scale(0.015625)"/>
     <path id="DejaVuSans-79" d="M 2059 -325 
Q 1816 -950 1584 -1140 
Q 1353 -1331 966 -1331 
L 506 -1331 
L 506 -850 
L 844 -850 
Q 1081 -850 1212 -737 
Q 1344 -625 1503 -206 
L 1606 56 
L 191 3500 
L 800 3500 
L 1894 763 
L 2988 3500 
L 3597 3500 
L 2059 -325 
z
" transform="scale(0.015625)"/>
     <path id="DejaVuSans-70" d="M 1159 525 
L 1159 -1331 
L 581 -1331 
L 581 3500 
L 1159 3500 
L 1159 2969 
Q 1341 3281 1617 3432 
Q 1894 3584 2278 3584 
Q 2916 3584 3314 3078 
Q 3713 2572 3713 1747 
Q 3713 922 3314 415 
Q 2916 -91 2278 -91 
Q 1894 -91 1617 61 
Q 1341 213 1159 525 
z
M 3116 1747 
Q 3116 2381 2855 2742 
Q 2594 3103 2138 3103 
Q 1681 3103 1420 2742 
Q 1159 2381 1159 1747 
Q 1159 1113 1420 752 
Q 1681 391 2138 391 
Q 2594 391 2855 752 
Q 3116 1113 3116 1747 
z
" transform="scale(0.015625)"/>
    </defs>
    <use xlink:href="#DejaVuSans-4d" transform="translate(0 0.015625)"/>
    <use xlink:href="#DejaVuSans-61" transform="translate(86.279297 0.015625)"/>
    <use xlink:href="#DejaVuSans-74" transform="translate(147.558594 0.015625)"/>
    <use xlink:href="#DejaVuSans-65" transform="translate(186.767578 0.015625)"/>
    <use xlink:href="#DejaVuSans-72" transform="translate(248.291016 0.015625)"/>
    <use xlink:href="#DejaVuSans-6e" transform="translate(289.404297 0.015625)"/>
    <use xlink:href="#DejaVuSans-20" transform="translate(352.783203 0.015625)"/>
    <use xlink:href="#DejaVuSans-6d" transform="translate(384.570312 0.015625)"/>
    <use xlink:href="#DejaVuSans-6f" transform="translate(481.982422 0.015625)"/>
    <use xlink:href="#DejaVuSans-64" transform="translate(543.164062 0.015625)"/>
    <use xlink:href="#DejaVuSans-65" transform="translate(606.640625 0.015625)"/>
    <use xlink:href="#DejaVuSans-6c" transform="translate(668.164062 0.015625)"/>
    <use xlink:href="#DejaVuSans-20" transform="translate(695.947266 0.015625)"/>
    <use xlink:href="#DejaVuSans-3a" transform="translate(727.734375 0.015625)"/>
    <use xlink:href="#DejaVuSans-20" transform="translate(761.425781 0.015625)"/>
    <use xlink:href="#DejaVuSans-69" transform="translate(793.212891 0.015625)"/>
    <use xlink:href="#DejaVuSans-6e" transform="translate(820.996094 0.015625)"/>
    <use xlink:href="#DejaVuSans-66" transform="translate(884.375 0.015625)"/>
    <use xlink:href="#DejaVuSans-6c" transform="translate(919.580078 0.015625)"/>
    <use xlink:href="#DejaVuSans-75" transform="translate(947.363281 0.015625)"/>
    <use xlink:href="#DejaVuSans-65" transform="translate(1010.742188 0.015625)"/>
    <use xlink:href="#DejaVuSans-6e" transform="translate(1072.265625 0.015625)"/>
    <use xlink:href="#DejaVuSans-63" transform="translate(1135.644531 0.015625)"/>
    <use xlink:href="#DejaVuSans-65" transform="translate(1190.625 0.015625)"/>
    <use xlink:href="#DejaVuSans-20" transform="translate(1252.148438 0.015625)"/>
    <use xlink:href="#DejaVuSans-6f" transform="translate(1283.935547 0.015625)"/>
    <use xlink:href="#DejaVuSans-66" transform="translate(1345.117188 0.015625)"/>
    <use xlink:href="#DejaVuSans-20" transform="translate(1380.322266 0.015625)"/>
    <use xlink:href="#DejaVuSans-74" transform="translate(1412.109375 0.015625)"/>
    <use xlink:href="#DejaVuSans-68" transform="translate(1451.318359 0.015625)"/>
    <use xlink:href="#DejaVuSans-65" transform="translate(1514.697266 0.015625)"/>
    <use xlink:href="#DejaVuSans-20" transform="translate(1576.220703 0.015625)"/>
    <use xlink:href="#DejaVuSans-72" transform="translate(1608.007812 0.015625)"/>
    <use xlink:href="#DejaVuSans-65" transform="translate(1649.121094 0.015625)"/>
    <use xlink:href="#DejaVuSans-67" transform="translate(1710.644531 0.015625)"/>
    <use xlink:href="#DejaVuSans-75" transform="translate(1774.121094 0.015625)"/>
    <use xlink:href="#DejaVuSans-6c" transform="translate(1837.5 0.015625)"/>
    <use xlink:href="#DejaVuSans-61" transform="translate(1865.283203 0.015625)"/>
    <use xlink:href="#DejaVuSans-72" transform="translate(1926.5625 0.015625)"/>
    <use xlink:href="#DejaVuSans-69" transform="translate(1967.675781 0.015625)"/>
    <use xlink:href="#DejaVuSans-74" transform="translate(1995.458984 0.015625)"/>
    <use xlink:href="#DejaVuSans-79" transform="translate(2034.667969 0.015625)"/>
    <use xlink:href="#DejaVuSans-20" transform="translate(2093.847656 0.015625)"/>
    <use xlink:href="#DejaVuSans-Oblique-3bd" transform="translate(2125.634766 0.015625)"/>
    <use xlink:href="#DejaVuSans-20" transform="translate(2181.494141 0.015625)"/>
    <use xlink:href="#DejaVuSans-70" transform="translate(2213.28125 0.015625)"/>
    <use xlink:href="#DejaVuSans-61" transform="translate(2276.757812 0.015625)"/>
    <use xlink:href="#DejaVuSans-72" transform="translate(2338.037109 0.015625)"/>
    <use xlink:href="#DejaVuSans-61" transform="translate(2379.150391 0.015625)"/>
    <use xlink:href="#DejaVuSans-6d" transform="translate(2440.429688 0.015625)"/>
    <use xlink:href="#DejaVuSans-65" transform="translate(2537.841797 0.015625)"/>
    <use xlink:href="#DejaVuSans-74" transform="translate(2599.365234 0.015625)"/>
    <use xlink:href="#DejaVuSans-65" transform="translate(2638.574219 0.015625)"/>
    <use xlink:href="#DejaVuSans-72" transform="translate(2700.097656 0.015625)"/>
   </g>
  </g>
 </g>
 <defs>
  <clipPath id="p5e6852f426">
   <rect x="108" y="34.56" width="304.363636" height="221.76"/>
  </clipPath>
  <clipPath id="p12ddbb6ca8">
   <rect x="473.236364" y="34.56" width="304.363636" height="221.76"/>
  </clipPath>
 </defs>
</svg>
