<?xml version="1.0" encoding="utf-8" standalone="no"?>
<!DOCTYPE svg PUBLIC "-//W3C//DTD SVG 1.1//EN"
  "http://www.w3.org/Graphics/SVG/1.1/DTD/svg11.dtd">
<svg xmlns:xlink="http://www.w3.org/1999/xlink" width="460.8pt" height="345.6pt" viewBox="0 0 460.8 345.6" xmlns="http://www.w3.org/2000/svg" version="1.1">
 <metadata>
  <rdf:RDF xmlns:dc="http://purl.org/dc/elements/1.1/" xmlns:cc="http://creativecommons.org/ns#" xmlns:rdf="http://www.w3.org/1999/02/22-rdf-syntax-ns#">
   <cc:Work>
    <dc:type rdf:resource="http://purl.org/dc/dcmitype/StillImage"/>
    <dc:date>2022-01-01T00:00:00+00:00</dc:date>
    <dc:format>image/svg+xml</dc:format>
    <dc:creator>
     <cc:Agent>
      <dc:title>Matplotlib v3.10.8, https://matplotlib.org/</dc:title>
     </cc:Agent>
    </dc:creator>
   </cc:Work>
  </rdf:RDF>
 </metadata>
 <defs>
  <style type="text/css">*{stroke-linejoin: round; stroke-linecap: butt}</style>
 </defs>
 <g id="figure_1">
  <g id="patch_1">
   <path d="M 0 345.6 
L 460.8 345.6 
L 460.8 0 
L 0 0 
z
" style="fill: #ffffff"/>
  </g>
  <g id="axes_1">
   <g id="patch_2">
    <path d="M 57.6 307.584 
L 414.72 307.584 
L 414.72 41.472 
L 57.6 41.472 
z
" style="fill: #ffffff"/>
   </g>
   <g id="matplotlib.axis_1">
    <g id="xtick_1">
     <g id="line2d_1">
      <path d="M 157.389842 307.584 
L 157.389842 41.472 
" clip-path="url(#p37e236a44f)" style="fill: none; stroke: #b0b0b0; stroke-width: 0.8; stroke-linecap: square"/>
     </g>
     <g id="line2d_2">
      <defs>
       <path id="mfdeab535d1" d="M 0 0 
L 0 3.5 
" style="stroke: #000000; stroke-width: 0.8"/>
      </defs>
      <g>
       <use xlink:href="#mfdeab535d1" x="157.389842" y="307.584" style="stroke: #000000; stroke-width: 0.8"/>
      </g>
     </g>
     <g id="text_1">
      <!-- $\mathdefault{10^{1}}$ -->
      <g transform="translate(148.589842 322.182437) scale(0.1 -0.1)">
       <defs>
        <path id="DejaVuSans-31" d="M 794 531 
L 1825 531 
L 1825 4091 
L 703 3866 
L 703 4441 
L 1819 4666 
L 2450 4666 
L 2450 531 
L 3481 531 
L 3481 0 
L 794 0 
L 794 531 
z
" transform="scale(0.015625)"/>
        <path id="DejaVuSans-30" d="M 2034 4250 
Q 1547 4250 1301 3770 
Q 1056 3291 1056 2328 
Q 1056 1369 1301 889 
Q 1547 409 2034 409 
Q 2525 409 2770 889 
Q 3016 1369 3016 2328 
Q 3016 3291 2770 3770 
Q 2525 4250 2034 4250 
z
M 2034 4750 
Q 2819 4750 3233 4129 
Q 3647 3509 3647 2328 
Q 3647 1150 3233 529 
Q 2819 -91 2034 -91 
Q 1250 -91 836 529 
Q 422 1150 422 2328 
Q 422 3509 836 4129 
Q 1250 4750 2034 4750 
z
" transform="scale(0.015625)"/>
       </defs>
       <use xlink:href="#DejaVuSans-31" transform="translate(0 0.684375)"/>
       <use xlink:href="#DejaVuSans-30" transform="translate(63.623047 0.684375)"/>
       <use xlink:href="#DejaVuSans-31" transform="translate(128.203125 38.965625) scale(0.7)"/>
      </g>
     </g>
    </g>
    <g id="xtick_2">
     <g id="line2d_3">
      <path d="M 290.625941 307.584 
L 290.625941 41.472 
" clip-path="url(#p37e236a44f)" style="fill: none; stroke: #b0b0b0; stroke-width: 0.8; stroke-linecap: square"/>
     </g>
     <g id="line2d_4">
      <g>
       <use xlink:href="#mfdeab535d1" x="290.625941" y="307.584" style="stroke: #000000; stroke-width: 0.8"/>
      </g>
     </g>
     <g id="text_2">
      <!-- $\mathdefault{10^{2}}$ -->
      <g transform="translate(281.825941 322.182437) scale(0.1 -0.1)">
       <defs>
        <path id="DejaVuSans-32" d="M 1228 531 
L 3431 531 
L 3431 0 
L 469 0 
L 469 531 
Q 828 903 1448 1529 
Q 2069 2156 2228 2338 
Q 2531 2678 2651 2914 
Q 2772 3150 2772 3378 
Q 2772 3750 2511 3984 
Q 2250 4219 1831 4219 
Q 1534 4219 1204 4116 
Q 875 4013 500 3803 
L 500 4441 
Q 881 4594 1212 4672 
Q 1544 4750 1819 4750 
Q 2544 4750 2975 4387 
Q 3406 4025 3406 3419 
Q 3406 3131 3298 2873 
Q 3191 2616 2906 2266 
Q 2828 2175 2409 1742 
Q 1991 1309 1228 531 
z
" transform="scale(0.015625)"/>
       </defs>
       <use xlink:href="#DejaVuSans-31" transform="translate(0 0.765625)"/>
       <use xlink:href="#DejaVuSans-30" transform="translate(63.623047 0.765625)"/>
       <use xlink:href="#DejaVuSans-32" transform="translate(128.203125 39.046875) scale(0.7)"/>
      </g>
     </g>
    </g>
    <g id="xtick_3">
     <g id="line2d_5">
      <defs>
       <path id="m829b927633" d="M 0 0 
L 0 2 
" style="stroke: #000000; stroke-width: 0.6"/>
      </defs>
      <g>
       <use xlink:href="#m829b927633" x="64.261805" y="307.584" style="stroke: #000000; stroke-width: 0.6"/>
      </g>
     </g>
    </g>
    <g id="xtick_4">
     <g id="line2d_6">
      <g>
       <use xlink:href="#m829b927633" x="87.723517" y="307.584" style="stroke: #000000; stroke-width: 0.6"/>
      </g>
     </g>
    </g>
    <g id="xtick_5">
     <g id="line2d_7">
      <g>
       <use xlink:href="#m829b927633" x="104.369867" y="307.584" style="stroke: #000000; stroke-width: 0.6"/>
      </g>
     </g>
    </g>
    <g id="xtick_6">
     <g id="line2d_8">
      <g>
       <use xlink:href="#m829b927633" x="117.28178" y="307.584" style="stroke: #000000; stroke-width: 0.6"/>
      </g>
     </g>
    </g>
    <g id="xtick_7">
     <g id="line2d_9">
      <g>
       <use xlink:href="#m829b927633" x="127.83158" y="307.584" style="stroke: #000000; stroke-width: 0.6"/>
      </g>
     </g>
    </g>
    <g id="xtick_8">
     <g id="line2d_10">
      <g>
       <use xlink:href="#m829b927633" x="136.751309" y="307.584" style="stroke: #000000; stroke-width: 0.6"/>
      </g>
     </g>
    </g>
    <g id="xtick_9">
     <g id="line2d_11">
      <g>
       <use xlink:href="#m829b927633" x="144.47793" y="307.584" style="stroke: #000000; stroke-width: 0.6"/>
      </g>
     </g>
    </g>
    <g id="xtick_10">
     <g id="line2d_12">
      <g>
       <use xlink:href="#m829b927633" x="151.293292" y="307.584" style="stroke: #000000; stroke-width: 0.6"/>
      </g>
     </g>
    </g>
    <g id="xtick_11">
     <g id="line2d_13">
      <g>
       <use xlink:href="#m829b927633" x="197.497904" y="307.584" style="stroke: #000000; stroke-width: 0.6"/>
      </g>
     </g>
    </g>
    <g id="xtick_12">
     <g id="line2d_14">
      <g>
       <use xlink:href="#m829b927633" x="220.959617" y="307.584" style="stroke: #000000; stroke-width: 0.6"/>
      </g>
     </g>
    </g>
    <g id="xtick_13">
     <g id="line2d_15">
      <g>
       <use xlink:href="#m829b927633" x="237.605967" y="307.584" style="stroke: #000000; stroke-width: 0.6"/>
      </g>
     </g>
    </g>
    <g id="xtick_14">
     <g id="line2d_16">
      <g>
       <use xlink:href="#m829b927633" x="250.517879" y="307.584" style="stroke: #000000; stroke-width: 0.6"/>
      </g>
     </g>
    </g>
    <g id="xtick_15">
     <g id="line2d_17">
      <g>
       <use xlink:href="#m829b927633" x="261.067679" y="307.584" style="stroke: #000000; stroke-width: 0.6"/>
      </g>
     </g>
    </g>
    <g id="xtick_16">
     <g id="line2d_18">
      <g>
       <use xlink:href="#m829b927633" x="269.987408" y="307.584" style="stroke: #000000; stroke-width: 0.6"/>
      </g>
     </g>
    </g>
    <g id="xtick_17">
     <g id="line2d_19">
      <g>
       <use xlink:href="#m829b927633" x="277.714029" y="307.584" style="stroke: #000000; stroke-width: 0.6"/>
      </g>
     </g>
    </g>
    <g id="xtick_18">
     <g id="line2d_20">
      <g>
       <use xlink:href="#m829b927633" x="284.529392" y="307.584" style="stroke: #000000; stroke-width: 0.6"/>
      </g>
     </g>
    </g>
    <g id="xtick_19">
     <g id="line2d_21">
      <g>
       <use xlink:href="#m829b927633" x="330.734004" y="307.584" style="stroke: #000000; stroke-width: 0.6"/>
      </g>
     </g>
    </g>
    <g id="xtick_20">
     <g id="line2d_22">
      <g>
       <use xlink:href="#m829b927633" x="354.195716" y="307.584" style="stroke: #000000; stroke-width: 0.6"/>
      </g>
     </g>
    </g>
    <g id="xtick_21">
     <g id="line2d_23">
      <g>
       <use xlink:href="#m829b927633" x="370.842066" y="307.584" style="stroke: #000000; stroke-width: 0.6"/>
      </g>
     </g>
    </g>
    <g id="xtick_22">
     <g id="line2d_24">
      <g>
       <use xlink:href="#m829b927633" x="383.753978" y="307.584" style="stroke: #000000; stroke-width: 0.6"/>
      </g>
     </g>
    </g>
    <g id="xtick_23">
     <g id="line2d_25">
      <g>
       <use xlink:href="#m829b927633" x="394.303779" y="307.584" style="stroke: #000000; stroke-width: 0.6"/>
      </g>
     </g>
    </g>
    <g id="xtick_24">
     <g id="line2d_26">
      <g>
       <use xlink:href="#m829b927633" x="403.223508" y="307.584" style="stroke: #000000; stroke-width: 0.6"/>
      </g>
     </g>
    </g>
    <g id="xtick_25">
     <g id="line2d_27">
      <g>
       <use xlink:href="#m829b927633" x="410.950129" y="307.584" style="stroke: #000000; stroke-width: 0.6"/>
      </g>
     </g>
    </g>
    <g id="text_3">
     <!-- outer iteration -->
     <g transform="translate(200.127969 335.860562) scale(0.1 -0.1)">
      <defs>
       <path id="DejaVuSans-6f" d="M 1959 3097 
Q 1497 3097 1228 2736 
Q 959 2375 959 1747 
Q 959 1119 1226 758 
Q 1494 397 1959 397 
Q 2419 397 2687 759 
Q 2956 1122 2956 1747 
Q 2956 2369 2687 2733 
Q 2419 3097 1959 3097 
z
M 1959 3584 
Q 2709 3584 3137 3096 
Q 3566 2609 3566 1747 
Q 3566 888 3137 398 
Q 2709 -91 1959 -91 
Q 1206 -91 779 398 
Q 353 888 353 1747 
Q 353 2609 779 3096 
Q 1206 3584 1959 3584 
z
" transform="scale(0.015625)"/>
       <path id="DejaVuSans-75" d="M 544 1381 
L 544 3500 
L 1119 3500 
L 1119 1403 
Q 1119 906 1312 657 
Q 1506 409 1894 409 
Q 2359 409 2629 706 
Q 2900 1003 2900 1516 
L 2900 3500 
L 3475 3500 
L 3475 0 
L 2900 0 
L 2900 538 
Q 2691 219 2414 64 
Q 2138 -91 1772 -91 
Q 1169 -91 856 284 
Q 544 659 544 1381 
z
M 1991 3584 
L 1991 3584 
z
" transform="scale(0.015625)"/>
       <path id="DejaVuSans-74" d="M 1172 4494 
L 1172 3500 
L 2356 3500 
L 2356 3053 
L 1172 3053 
L 1172 1153 
Q 1172 725 1289 603 
Q 1406 481 1766 481 
L 2356 481 
L 2356 0 
L 1766 0 
Q 1100 0 847 248 
Q 594 497 594 1153 
L 594 3053 
L 172 3053 
L 172 3500 
L 594 3500 
L 594 4494 
L 1172 4494 
z
" transform="scale(0.015625)"/>
       <path id="DejaVuSans-65" d="M 3597 1894 
L 3597 1613 
L 953 1613 
Q 991 1019 1311 708 
Q 1631 397 2203 397 
Q 2534 397 2845 478 
Q 3156 559 3463 722 
L 3463 178 
Q 3153 47 2828 -22 
Q 2503 -91 2169 -91 
Q 1331 -91 842 396 
Q 353 884 353 1716 
Q 353 2575 817 3079 
Q 1281 3584 2069 3584 
Q 2775 3584 3186 3129 
Q 3597 2675 3597 1894 
z
M 3022 2063 
Q 3016 2534 2758 2815 
Q 2500 3097 2075 3097 
Q 1594 3097 1305 2825 
Q 1016 2553 972 2059 
L 3022 2063 
z
" transform="scale(0.015625)"/>
       <path id="DejaVuSans-72" d="M 2631 2963 
Q 2534 3019 2420 3045 
Q 2306 3072 2169 3072 
Q 1681 3072 1420 2755 
Q 1159 2438 1159 1844 
L 1159 0 
L 581 0 
L 581 3500 
L 1159 3500 
L 1159 2956 
Q 1341 3275 1631 3429 
Q 1922 3584 2338 3584 
Q 2397 3584 2469 3576 
Q 2541 3569 2628 3553 
L 2631 2963 
z
" transform="scale(0.015625)"/>
       <path id="DejaVuSans-20" transform="scale(0.015625)"/>
       <path id="DejaVuSans-69" d="M 603 3500 
L 1178 3500 
L 1178 0 
L 603 0 
L 603 3500 
z
M 603 4863 
L 1178 4863 
L 1178 4134 
L 603 4134 
L 603 4863 
z
" transform="scale(0.015625)"/>
       <path id="DejaVuSans-61" d="M 2194 1759 
Q 1497 1759 1228 1600 
Q 959 1441 959 1056 
Q 959 750 1161 570 
Q 1363 391 1709 391 
Q 2188 391 2477 730 
Q 2766 1069 2766 1631 
L 2766 1759 
L 2194 1759 
z
M 3341 1997 
L 3341 0 
L 2766 0 
L 2766 531 
Q 2569 213 2275 61 
Q 1981 -91 1556 -91 
Q 1019 -91 701 211 
Q 384 513 384 1019 
Q 384 1609 779 1909 
Q 1175 2209 1959 2209 
L 2766 2209 
L 2766 2266 
Q 2766 2663 2505 2880 
Q 2244 3097 1772 3097 
Q 1472 3097 1187 3025 
Q 903 2953 641 2809 
L 641 3341 
Q 956 3463 1253 3523 
Q 1550 3584 1831 3584 
Q 2591 3584 2966 3190 
Q 3341 2797 3341 1997 
z
" transform="scale(0.015625)"/>
       <path id="DejaVuSans-6e" d="M 3513 2113 
L 3513 0 
L 2938 0 
L 2938 2094 
Q 2938 2591 2744 2837 
Q 2550 3084 2163 3084 
Q 1697 3084 1428 2787 
Q 1159 2491 1159 1978 
L 1159 0 
L 581 0 
L 581 3500 
L 1159 3500 
L 1159 2956 
Q 1366 3272 1645 3428 
Q 1925 3584 2291 3584 
Q 2894 3584 3203 3211 
Q 3513 2838 3513 2113 
z
" transform="scale(0.015625)"/>
      </defs>
      <use xlink:href="#DejaVuSans-6f"/>
      <use xlink:href="#DejaVuSans-75" transform="translate(61.181641 0)"/>
      <use xlink:href="#DejaVuSans-74" transform="translate(124.560547 0)"/>
      <use xlink:href="#DejaVuSans-65" transform="translate(163.769531 0)"/>
      <use xlink:href="#DejaVuSans-72" transform="translate(225.292969 0)"/>
      <use xlink:href="#DejaVuSans-20" transform="translate(266.40625 0)"/>
      <use xlink:href="#DejaVuSans-69" transform="translate(298.193359 0)"/>
      <use xlink:href="#DejaVuSans-74" transform="translate(325.976562 0)"/>
      <use xlink:href="#DejaVuSans-65" transform="translate(365.185547 0)"/>
      <use xlink:href="#DejaVuSans-72" transform="translate(426.708984 0)"/>
      <use xlink:href="#DejaVuSans-61" transform="translate(467.822266 0)"/>
      <use xlink:href="#DejaVuSans-74" transform="translate(529.101562 0)"/>
      <use xlink:href="#DejaVuSans-69" transform="translate(568.310547 0)"/>
      <use xlink:href="#DejaVuSans-6f" transform="translate(596.09375 0)"/>
      <use xlink:href="#DejaVuSans-6e" transform="translate(657.275391 0)"/>
     </g>
    </g>
   </g>
   <g id="matplotlib.axis_2">
    <g id="ytick_1">
     <g id="line2d_28">
      <path d="M 57.6 307.358121 
L 414.72 307.358121 
" clip-path="url(#p37e236a44f)" style="fill: none; stroke: #b0b0b0; stroke-width: 0.8; stroke-linecap: square"/>
     </g>
     <g id="line2d_29">
      <defs>
       <path id="m986ac2cb81" d="M 0 0 
L -3.5 0 
" style="stroke: #000000; stroke-width: 0.8"/>
      </defs>
      <g>
       <use xlink:href="#m986ac2cb81" x="57.6" y="307.358121" style="stroke: #000000; stroke-width: 0.8"/>
      </g>
     </g>
     <g id="text_4">
      <!-- −1 -->
      <g transform="translate(35.857813 311.15734) scale(0.1 -0.1)">
       <defs>
        <path id="DejaVuSans-2212" d="M 678 2272 
L 4684 2272 
L 4684 1741 
L 678 1741 
L 678 2272 
z
" transform="scale(0.015625)"/>
       </defs>
       <use xlink:href="#DejaVuSans-2212"/>
       <use xlink:href="#DejaVuSans-31" transform="translate(83.789062 0)"/>
      </g>
     </g>
    </g>
    <g id="ytick_2">
     <g id="line2d_30">
      <path d="M 57.6 261.806784 
L 414.72 261.806784 
" clip-path="url(#p37e236a44f)" style="fill: none; stroke: #b0b0b0; stroke-width: 0.8; stroke-linecap: square"/>
     </g>
     <g id="line2d_31">
      <g>
       <use xlink:href="#m986ac2cb81" x="57.6" y="261.806784" style="stroke: #000000; stroke-width: 0.8"/>
      </g>
     </g>
     <g id="text_5">
      <!-- 0 -->
      <g transform="translate(44.2375 265.606002) scale(0.1 -0.1)">
       <use xlink:href="#DejaVuSans-30"/>
      </g>
     </g>
    </g>
    <g id="ytick_3">
     <g id="line2d_32">
      <path d="M 57.6 216.255446 
L 414.72 216.255446 
" clip-path="url(#p37e236a44f)" style="fill: none; stroke: #b0b0b0; stroke-width: 0.8; stroke-linecap: square"/>
     </g>
     <g id="line2d_33">
      <g>
       <use xlink:href="#m986ac2cb81" x="57.6" y="216.255446" style="stroke: #000000; stroke-width: 0.8"/>
      </g>
     </g>
     <g id="text_6">
      <!-- 1 -->
      <g transform="translate(44.2375 220.054665) scale(0.1 -0.1)">
       <use xlink:href="#DejaVuSans-31"/>
      </g>
     </g>
    </g>
    <g id="ytick_4">
     <g id="line2d_34">
      <path d="M 57.6 170.704108 
L 414.72 170.704108 
" clip-path="url(#p37e236a44f)" style="fill: none; stroke: #b0b0b0; stroke-width: 0.8; stroke-linecap: square"/>
     </g>
     <g id="line2d_35">
      <g>
       <use xlink:href="#m986ac2cb81" x="57.6" y="170.704108" style="stroke: #000000; stroke-width: 0.8"/>
      </g>
     </g>
     <g id="text_7">
      <!-- 2 -->
      <g transform="translate(44.2375 174.503327) scale(0.1 -0.1)">
       <use xlink:href="#DejaVuSans-32"/>
      </g>
     </g>
    </g>
    <g id="ytick_5">
     <g id="line2d_36">
      <path d="M 57.6 125.15277 
L 414.72 125.15277 
" clip-path="url(#p37e236a44f)" style="fill: none; stroke: #b0b0b0; stroke-width: 0.8; stroke-linecap: square"/>
     </g>
     <g id="line2d_37">
      <g>
       <use xlink:href="#m986ac2cb81" x="57.6" y="125.15277" style="stroke: #000000; stroke-width: 0.8"/>
      </g>
     </g>
     <g id="text_8">
      <!-- 3 -->
      <g transform="translate(44.2375 128.951989) scale(0.1 -0.1)">
       <defs>
        <path id="DejaVuSans-33" d="M 2597 2516 
Q 3050 2419 3304 2112 
Q 3559 1806 3559 1356 
Q 3559 666 3084 287 
Q 2609 -91 1734 -91 
Q 1441 -91 1130 -33 
Q 819 25 488 141 
L 488 750 
Q 750 597 1062 519 
Q 1375 441 1716 441 
Q 2309 441 2620 675 
Q 2931 909 2931 1356 
Q 2931 1769 2642 2001 
Q 2353 2234 1838 2234 
L 1294 2234 
L 1294 2753 
L 1863 2753 
Q 2328 2753 2575 2939 
Q 2822 3125 2822 3475 
Q 2822 3834 2567 4026 
Q 2313 4219 1838 4219 
Q 1578 4219 1281 4162 
Q 984 4106 628 3988 
L 628 4550 
Q 988 4650 1302 4700 
Q 1616 4750 1894 4750 
Q 2613 4750 3031 4423 
Q 3450 4097 3450 3541 
Q 3450 3153 3228 2886 
Q 3006 2619 2597 2516 
z
" transform="scale(0.015625)"/>
       </defs>
       <use xlink:href="#DejaVuSans-33"/>
      </g>
     </g>
    </g>
    <g id="ytick_6">
     <g id="line2d_38">
      <path d="M 57.6 79.601432 
L 414.72 79.601432 
" clip-path="url(#p37e236a44f)" style="fill: none; stroke: #b0b0b0; stroke-width: 0.8; stroke-linecap: square"/>
     </g>
     <g id="line2d_39">
      <g>
       <use xlink:href="#m986ac2cb81" x="57.6" y="79.601432" style="stroke: #000000; stroke-width: 0.8"/>
      </g>
     </g>
     <g id="text_9">
      <!-- 4 -->
      <g transform="translate(44.2375 83.400651) scale(0.1 -0.1)">
       <defs>
        <path id="DejaVuSans-34" d="M 2419 4116 
L 825 1625 
L 2419 1625 
L 2419 4116 
z
M 2253 4666 
L 3047 4666 
L 3047 1625 
L 3713 1625 
L 3713 1100 
L 3047 1100 
L 3047 0 
L 2419 0 
L 2419 1100 
L 313 1100 
L 313 1709 
L 2253 4666 
z
" transform="scale(0.015625)"/>
       </defs>
       <use xlink:href="#DejaVuSans-34"/>
      </g>
     </g>
    </g>
    <g id="text_10">
     <!-- estimate -->
     <g transform="translate(29.778125 196.529562) rotate(-90) scale(0.1 -0.1)">
      <defs>
       <path id="DejaVuSans-73" d="M 2834 3397 
L 2834 2853 
Q 2591 2978 2328 3040 
Q 2066 3103 1784 3103 
Q 1356 3103 1142 2972 
Q 928 2841 928 2578 
Q 928 2378 1081 2264 
Q 1234 2150 1697 2047 
L 1894 2003 
Q 2506 1872 2764 1633 
Q 3022 1394 3022 966 
Q 3022 478 2636 193 
Q 2250 -91 1575 -91 
Q 1294 -91 989 -36 
Q 684 19 347 128 
L 347 722 
Q 666 556 975 473 
Q 1284 391 1588 391 
Q 1994 391 2212 530 
Q 2431 669 2431 922 
Q 2431 1156 2273 1281 
Q 2116 1406 1581 1522 
L 1381 1569 
Q 847 1681 609 1914 
Q 372 2147 372 2553 
Q 372 3047 722 3315 
Q 1072 3584 1716 3584 
Q 2034 3584 2315 3537 
Q 2597 3491 2834 3397 
z
" transform="scale(0.015625)"/>
       <path id="DejaVuSans-6d" d="M 3328 2828 
Q 3544 3216 3844 3400 
Q 4144 3584 4550 3584 
Q 5097 3584 5394 3201 
Q 5691 2819 5691 2113 
L 5691 0 
L 5113 0 
L 5113 2094 
Q 5113 2597 4934 2840 
Q 4756 3084 4391 3084 
Q 3944 3084 3684 2787 
Q 3425 2491 3425 1978 
L 3425 0 
L 2847 0 
L 2847 2094 
Q 2847 2600 2669 2842 
Q 2491 3084 2119 3084 
Q 1678 3084 1418 2786 
Q 1159 2488 1159 1978 
L 1159 0 
L 581 0 
L 581 3500 
L 1159 3500 
L 1159 2956 
Q 1356 3278 1631 3431 
Q 1906 3584 2284 3584 
Q 2666 3584 2933 3390 
Q 3200 3197 3328 2828 
z
" transform="scale(0.015625)"/>
      </defs>
      <use xlink:href="#DejaVuSans-65"/>
      <use xlink:href="#DejaVuSans-73" transform="translate(61.523438 0)"/>
      <use xlink:href="#DejaVuSans-74" transform="translate(113.623047 0)"/>
      <use xlink:href="#DejaVuSans-69" transform="translate(152.832031 0)"/>
      <use xlink:href="#DejaVuSans-6d" transform="translate(180.615234 0)"/>
      <use xlink:href="#DejaVuSans-61" transform="translate(278.027344 0)"/>
      <use xlink:href="#DejaVuSans-74" transform="translate(339.306641 0)"/>
      <use xlink:href="#DejaVuSans-65" transform="translate(378.515625 0)"/>
     </g>
    </g>
    <g id="text_11">
     <!-- 1e−6 -->
     <g transform="translate(57.6 38.472) scale(0.1 -0.1)">
      <defs>
       <path id="DejaVuSans-36" d="M 2113 2584 
Q 1688 2584 1439 2293 
Q 1191 2003 1191 1497 
Q 1191 994 1439 701 
Q 1688 409 2113 409 
Q 2538 409 2786 701 
Q 3034 994 3034 1497 
Q 3034 2003 2786 2293 
Q 2538 2584 2113 2584 
z
M 3366 4563 
L 3366 3988 
Q 3128 4100 2886 4159 
Q 2644 4219 2406 4219 
Q 1781 4219 1451 3797 
Q 1122 3375 1075 2522 
Q 1259 2794 1537 2939 
Q 1816 3084 2150 3084 
Q 2853 3084 3261 2657 
Q 3669 2231 3669 1497 
Q 3669 778 3244 343 
Q 2819 -91 2113 -91 
Q 1303 -91 875 529 
Q 447 1150 447 2328 
Q 447 3434 972 4092 
Q 1497 4750 2381 4750 
Q 2619 4750 2861 4703 
Q 3103 4656 3366 4563 
z
" transform="scale(0.015625)"/>
      </defs>
      <use xlink:href="#DejaVuSans-31"/>
      <use xlink:href="#DejaVuSans-65" transform="translate(63.623047 0)"/>
      <use xlink:href="#DejaVuSans-2212" transform="translate(125.146484 0)"/>
      <use xlink:href="#DejaVuSans-36" transform="translate(208.935547 0)"/>
     </g>
    </g>
   </g>
   <g id="line2d_40">
    <path d="M 64.261805 261.806784 
L 87.723517 174.528 
L 104.369867 200.381313 
L 117.28178 215.737681 
L 127.83158 197.622681 
L 136.751309 200.865847 
L 144.47793 203.186709 
L 151.293292 210.514219 
L 157.389842 216.213392 
L 162.904842 220.772732 
L 167.939642 223.418448 
L 180.851554 231.178759 
L 184.585992 232.930361 
L 188.093957 223.879748 
L 194.529884 228.093863 
L 200.321084 231.465155 
L 203.012904 232.782352 
L 205.585048 233.662304 
L 210.409816 236.007678 
L 214.863067 237.992224 
L 224.694055 241.564537 
L 226.474617 236.490859 
L 228.20202 235.648842 
L 233.094823 237.781159 
L 234.637947 231.00398 
L 240.429146 234.009132 
L 245.69311 236.480034 
L 248.155767 237.557768 
L 250.517879 238.244585 
L 251.663732 238.47795 
L 252.787335 238.935378 
L 253.889534 237.282169 
L 259.10601 239.411617 
L 263.890859 241.215426 
L 264.802117 241.4275 
L 265.699247 240.722827 
L 266.582679 241.047196 
L 267.452826 239.933446 
L 269.987408 240.872973 
L 271.61748 241.231788 
L 272.415612 239.779379 
L 276.986174 241.473795 
L 277.714029 238.485272 
L 281.221994 239.873457 
L 281.89877 238.853817 
L 285.168776 240.116407 
L 286.426732 240.478318 
L 287.657921 238.669364 
L 289.456938 239.384954 
L 290.044392 239.45274 
L 290.625941 239.678539 
L 291.201704 235.577791 
L 292.895397 236.290392 
L 293.449121 236.263379 
L 295.612502 237.209431 
L 296.140941 235.850407 
L 298.713085 236.988845 
L 299.214072 236.947095 
L 302.604548 238.369361 
L 303.073082 237.953199 
L 303.537853 238.145567 
L 303.998921 237.886277 
L 304.910179 238.262978 
L 305.360483 238.229308 
L 305.807309 236.544957 
L 306.250711 236.739279 
L 306.690742 236.523352 
L 307.127451 236.714608 
L 307.560889 235.412488 
L 308.842056 235.994715 
L 309.262885 235.788813 
L 312.125984 237.053576 
L 312.523675 235.018417 
L 314.854072 236.075615 
L 315.610471 236.288415 
L 315.984994 236.175088 
L 316.357109 233.965413 
L 317.822092 234.64584 
L 318.182614 234.642457 
L 318.540905 234.805922 
L 318.89699 234.728516 
L 322.006833 236.089397 
L 323.664932 236.55029 
L 325.276839 237.247984 
L 325.593901 237.090569 
L 325.909235 235.870668 
L 329.859473 237.583279 
L 330.152454 237.243285 
L 331.879857 237.958911 
L 332.16281 237.24204 
L 333.003459 237.59805 
L 333.280984 237.499525 
L 334.105659 237.823468 
L 334.377959 237.6437 
L 334.648984 236.383364 
L 337.032723 237.403979 
L 337.291621 236.882045 
L 340.311282 238.113004 
L 340.555949 237.937295 
L 340.799586 238.03801 
L 341.042202 237.694156 
L 343.645916 238.661182 
L 344.106984 238.841958 
L 344.336147 237.999801 
L 344.791769 238.170594 
L 345.018242 238.105909 
L 347.668951 239.124206 
L 347.884459 238.856359 
L 348.099167 238.941676 
L 348.313081 238.829988 
L 348.738551 238.998936 
L 348.950119 238.099989 
L 349.996507 238.52637 
L 350.203533 237.810194 
L 351.227696 238.232669 
L 351.430371 237.928896 
L 351.833604 238.093215 
L 352.034172 237.99812 
L 352.631737 238.11854 
L 352.829562 237.739188 
L 354.195716 238.190286 
L 354.580194 238.257237 
L 355.34157 238.566083 
L 355.530358 238.378985 
L 356.093057 238.60446 
L 356.279413 237.809233 
L 356.650336 237.960361 
L 357.202299 237.533777 
L 358.110696 237.912415 
L 358.290677 237.676592 
L 358.648967 237.826005 
L 358.827284 237.612771 
L 359.710716 237.980045 
L 359.885796 237.329561 
L 360.753334 237.694893 
L 360.925291 237.206365 
L 363.115445 238.077073 
L 363.445154 238.13806 
L 364.423155 238.535596 
L 364.58456 238.290467 
L 365.066092 238.408152 
L 365.225716 238.229417 
L 366.798196 238.83804 
L 367.721573 238.589321 
L 368.177793 238.772136 
L 368.329071 237.644073 
L 368.479954 237.537862 
L 369.525263 237.892063 
L 369.673063 237.872895 
L 369.820486 237.406404 
L 370.697226 237.761028 
L 370.842066 237.258668 
L 372.552448 237.949688 
L 373.111522 237.835575 
L 375.161218 238.595209 
L 375.562586 238.600754 
L 375.96119 238.760428 
L 376.09345 238.305252 
L 377.140785 238.625636 
L 377.270379 238.231645 
L 380.296622 239.305679 
L 380.419344 238.651865 
L 380.785958 238.787579 
L 381.029083 238.757272 
L 381.391867 238.865889 
L 381.51229 238.602319 
L 382.348313 238.849397 
L 382.466765 238.693398 
L 383.289207 238.973228 
L 383.522059 238.050692 
L 386.906866 239.336816 
L 387.992521 239.649817 
L 388.846614 239.924626 
L 389.058181 239.829144 
L 389.792635 239.999321 
L 390.000778 239.960125 
L 390.620752 240.193363 
L 390.825943 240.0377 
L 391.030409 240.02765 
L 393.527073 240.882812 
L 393.722229 240.871013 
L 394.110577 240.997234 
L 394.207259 240.605923 
L 394.303779 240.641317 
L 394.400138 240.676593 
L 394.592376 240.564136 
L 394.783978 240.516436 
L 395.070197 240.620609 
L 395.260225 240.535369 
L 396.201119 240.789735 
L 396.387476 240.592716 
L 396.48043 240.626796 
L 396.66589 240.546377 
L 397.218733 240.695271 
L 397.493185 240.448148 
L 398.398739 240.741308 
L 398.578162 240.710482 
L 398.667665 240.743139 
L 398.846256 240.514268 
L 400.168409 240.883276 
L 400.342436 240.88016 
L 400.947439 241.029178 
L 401.119141 240.902179 
L 401.546182 241.035343 
L 401.716119 240.930872 
L 401.970093 241.015671 
L 402.138792 240.866571 
L 402.390922 240.917855 
L 403.306111 241.178369 
L 403.553216 241.212028 
L 404.369361 241.396086 
L 404.531218 241.116394 
L 405.094177 241.31223 
L 405.254021 241.145829 
L 405.413426 241.202746 
L 405.810026 240.593852 
L 406.828641 240.961753 
L 406.983772 240.848863 
L 407.982109 241.130383 
L 408.058195 241.061668 
L 408.058195 241.061668 
" clip-path="url(#p37e236a44f)" style="fill: none; stroke: #1f77b4; stroke-width: 2; stroke-linecap: square"/>
   </g>
   <g id="line2d_41">
    <path d="M 87.723517 295.488 
L 104.369867 291.015456 
L 117.28178 288.539446 
L 127.83158 263.959185 
L 136.751309 256.449978 
L 144.47793 251.016017 
L 151.293292 254.468188 
L 157.389842 256.67806 
L 162.904842 258.164636 
L 167.939642 257.768769 
L 172.57121 258.10284 
L 180.851554 259.273292 
L 184.585992 259.360849 
L 188.093957 254.029029 
L 194.529884 255.453058 
L 200.321084 256.484206 
L 203.012904 256.742848 
L 205.585048 256.595673 
L 212.679272 257.536972 
L 214.863067 257.786043 
L 218.997948 258.110183 
L 220.959617 258.298386 
L 222.856957 258.249742 
L 224.694055 258.414782 
L 226.474617 255.523982 
L 228.20202 254.176614 
L 233.094823 254.921516 
L 234.637947 252.212375 
L 241.790708 253.596561 
L 248.155767 254.638304 
L 250.517879 254.654601 
L 251.663732 254.566139 
L 252.787335 254.733073 
L 253.889534 253.104871 
L 261.067679 254.260215 
L 263.890859 254.672617 
L 264.802117 254.677503 
L 265.699247 253.837584 
L 266.582679 253.975587 
L 267.452826 252.848926 
L 269.987408 253.270604 
L 271.61748 253.290314 
L 272.415612 252.001816 
L 276.986174 252.830992 
L 277.714029 251.119192 
L 281.221994 251.813808 
L 281.89877 250.819766 
L 285.168776 251.468665 
L 285.801173 251.474198 
L 286.426732 251.5959 
L 287.657921 249.831554 
L 289.456938 250.231254 
L 290.044392 250.189177 
L 290.625941 250.315644 
L 291.201704 248.800834 
L 292.895397 249.153102 
L 293.449121 249.002519 
L 295.612502 249.510441 
L 296.140941 248.32362 
L 298.713085 248.954835 
L 299.214072 248.809313 
L 302.604548 249.597655 
L 303.073082 249.119793 
L 303.537853 249.22847 
L 303.998921 248.892163 
L 304.910179 249.107918 
L 305.360483 248.989723 
L 305.807309 247.716897 
L 306.250711 247.83177 
L 306.690742 247.539238 
L 307.127451 247.653417 
L 307.560889 246.56279 
L 308.842056 246.918501 
L 309.262885 246.640316 
L 312.125984 247.417944 
L 312.523675 246.052214 
L 314.854072 246.703367 
L 315.610471 246.781704 
L 315.984994 246.602589 
L 316.357109 245.189041 
L 317.822092 245.606956 
L 318.182614 245.535068 
L 318.540905 245.635588 
L 318.89699 245.492394 
L 322.006833 246.324098 
L 323.664932 246.507887 
L 325.276839 246.949269 
L 325.593901 246.743456 
L 325.909235 245.762489 
L 329.859473 246.862724 
L 330.152454 246.499523 
L 331.879857 246.959278 
L 332.16281 246.307294 
L 333.003459 246.540871 
L 333.280984 246.401436 
L 334.105659 246.606424 
L 334.377959 246.392292 
L 334.648984 245.432904 
L 337.032723 246.111197 
L 337.291621 245.610103 
L 340.311282 246.423258 
L 340.555949 246.219468 
L 340.799586 246.287589 
L 341.042202 245.936556 
L 343.413997 246.496389 
L 344.106984 246.681797 
L 344.336147 245.980396 
L 344.791769 246.091894 
L 345.018242 245.997159 
L 347.668951 246.68218 
L 347.884459 246.404342 
L 348.099167 246.463452 
L 348.313081 246.327091 
L 348.738551 246.444567 
L 348.950119 245.723962 
L 349.996507 246.022377 
L 350.203533 245.409621 
L 351.227696 245.70732 
L 351.430371 245.400995 
L 351.833604 245.516713 
L 352.034172 245.398182 
L 352.631737 245.443863 
L 352.829562 245.07706 
L 353.808667 245.258699 
L 355.34157 245.608454 
L 355.530358 245.407883 
L 356.093057 245.569746 
L 356.279413 244.924299 
L 356.650336 245.0329 
L 357.202299 244.558652 
L 358.110696 244.835362 
L 358.290677 244.593384 
L 358.648967 244.703067 
L 358.827284 244.481296 
L 359.710716 244.751725 
L 359.885796 244.19969 
L 360.753334 244.469941 
L 360.925291 244.028574 
L 363.115445 244.662119 
L 363.445154 244.686935 
L 364.423155 244.982125 
L 364.58456 244.736868 
L 365.066092 244.803468 
L 365.225716 244.616653 
L 366.798196 245.064855 
L 367.721573 244.730792 
L 368.177793 244.868732 
L 368.329071 244.113207 
L 368.479954 243.993454 
L 369.525263 244.238834 
L 369.673063 244.203545 
L 369.820486 243.786588 
L 370.697226 244.051352 
L 370.842066 243.609818 
L 372.552448 244.127503 
L 373.111522 243.967272 
L 375.161218 244.525912 
L 375.562586 244.491689 
L 375.96119 244.6136 
L 376.09345 244.212627 
L 377.140785 244.431924 
L 377.270379 244.076039 
L 380.296622 244.868982 
L 380.419344 244.34903 
L 380.785958 244.450782 
L 381.029083 244.399583 
L 381.391867 244.474466 
L 381.51229 244.222952 
L 383.289207 244.440361 
L 383.522059 243.676211 
L 386.906866 244.66173 
L 387.992521 244.880144 
L 388.846614 245.082321 
L 389.058181 244.975428 
L 389.792635 245.085464 
L 390.000778 245.030884 
L 390.620752 245.21342 
L 390.825943 245.054929 
L 391.030409 245.028432 
L 393.527073 245.683861 
L 393.819561 245.684102 
L 394.110577 245.752214 
L 394.207259 245.414407 
L 394.303779 245.442273 
L 394.400138 245.470045 
L 394.592376 245.350735 
L 394.783978 245.290446 
L 395.070197 245.372479 
L 395.260225 245.276636 
L 396.201119 245.459934 
L 396.387476 245.270258 
L 396.48043 245.297295 
L 396.66589 245.207769 
L 397.218733 245.313969 
L 397.493185 245.055629 
L 398.398739 245.280827 
L 398.578162 245.238087 
L 398.667665 245.264188 
L 398.846256 245.04609 
L 399.906384 245.246508 
L 400.947439 245.409352 
L 401.119141 245.273722 
L 401.546182 245.376314 
L 401.716119 245.267577 
L 401.970093 245.334431 
L 402.138792 245.187461 
L 402.390922 245.220794 
L 403.306111 245.417995 
L 403.553216 245.434629 
L 404.369361 245.563176 
L 404.531218 245.299198 
L 405.094177 245.457 
L 405.254021 245.297082 
L 405.413426 245.343313 
L 405.810026 244.784341 
L 406.828641 245.083792 
L 406.983772 244.969265 
L 407.982109 245.184233 
L 408.058195 245.112421 
L 408.058195 245.112421 
" clip-path="url(#p37e236a44f)" style="fill: none; stroke: #ff7f0e; stroke-linecap: square"/>
   </g>
   <g id="line2d_42">
    <path d="M 87.723517 53.568 
L 104.369867 109.747171 
L 117.28178 142.935915 
L 127.83158 131.286177 
L 136.751309 145.281716 
L 144.47793 155.357401 
L 151.293292 166.560249 
L 157.389842 175.748725 
L 162.904842 183.380828 
L 172.57121 194.274736 
L 176.859371 198.949003 
L 180.851554 203.084227 
L 184.585992 206.499873 
L 188.093957 193.730467 
L 191.401355 197.419613 
L 197.497904 203.728895 
L 200.321084 206.446103 
L 203.012904 208.821857 
L 205.585048 210.728935 
L 210.409816 214.756319 
L 214.863067 218.198405 
L 220.959617 222.441147 
L 222.856957 223.52985 
L 224.694055 224.714292 
L 226.474617 217.457736 
L 228.20202 217.121071 
L 233.094823 220.640802 
L 234.637947 209.795586 
L 239.034773 213.535966 
L 244.421329 217.762062 
L 248.155767 220.477233 
L 250.517879 221.834569 
L 251.663732 222.389762 
L 252.787335 223.137683 
L 253.889534 221.459467 
L 258.099659 224.228646 
L 262.96502 227.218405 
L 264.802117 228.177496 
L 265.699247 227.608071 
L 266.582679 228.118805 
L 267.452826 227.017966 
L 269.987408 228.475342 
L 271.61748 229.173262 
L 272.415612 227.556942 
L 276.986174 230.116598 
L 277.714029 225.851351 
L 281.221994 227.933105 
L 281.89877 226.887868 
L 285.168776 228.76415 
L 286.426732 229.360736 
L 287.045601 228.524224 
L 287.657921 227.507173 
L 289.456938 228.538654 
L 290.044392 228.716303 
L 290.625941 229.041433 
L 291.201704 222.354748 
L 292.895397 223.427681 
L 293.449121 223.524239 
L 295.612502 224.908421 
L 296.140941 223.377194 
L 298.713085 225.022854 
L 299.214072 225.084877 
L 302.604548 227.141067 
L 303.073082 226.786605 
L 303.537853 227.062663 
L 303.998921 226.880391 
L 304.910179 227.418037 
L 305.360483 227.468893 
L 305.807309 225.373018 
L 306.250711 225.646788 
L 306.690742 225.507466 
L 307.127451 225.7758 
L 307.560889 224.262187 
L 308.842056 225.070929 
L 309.262885 224.937311 
L 312.125984 226.689208 
L 312.523675 223.98462 
L 315.233507 225.591854 
L 315.610471 225.795127 
L 315.984994 225.747587 
L 316.357109 222.741784 
L 317.822092 223.684725 
L 318.182614 223.749847 
L 318.540905 223.976257 
L 318.89699 223.964637 
L 322.006833 225.854695 
L 323.664932 226.592694 
L 325.276839 227.546698 
L 325.593901 227.437682 
L 325.909235 225.978847 
L 329.859473 228.303833 
L 330.152454 227.987048 
L 331.879857 228.958544 
L 332.16281 228.176785 
L 333.003459 228.655229 
L 333.280984 228.597614 
L 334.105659 229.040511 
L 334.377959 228.895108 
L 334.648984 227.333823 
L 337.032723 228.696761 
L 337.291621 228.153988 
L 340.311282 229.802751 
L 340.555949 229.655122 
L 340.799586 229.78843 
L 341.042202 229.451756 
L 343.645916 230.762379 
L 344.106984 231.002119 
L 344.336147 230.019205 
L 344.791769 230.249295 
L 345.018242 230.214659 
L 347.668951 231.566231 
L 347.884459 231.308376 
L 348.099167 231.419901 
L 348.313081 231.332886 
L 348.738551 231.553304 
L 348.950119 230.476016 
L 349.996507 231.030364 
L 350.203533 230.210767 
L 351.227696 230.758018 
L 351.430371 230.456797 
L 351.833604 230.669716 
L 352.034172 230.598058 
L 352.631737 230.793217 
L 352.829562 230.401315 
L 354.195716 231.014849 
L 354.580194 231.127786 
L 355.34157 231.523712 
L 355.530358 231.350088 
L 356.093057 231.639174 
L 356.279413 230.694167 
L 356.650336 230.887821 
L 357.202299 230.508902 
L 358.110696 230.989468 
L 358.290677 230.759799 
L 358.648967 230.948942 
L 358.827284 230.744246 
L 359.710716 231.208366 
L 359.885796 230.459432 
L 360.753334 230.919845 
L 360.925291 230.384155 
L 363.115445 231.492027 
L 363.445154 231.589185 
L 364.423155 232.089066 
L 364.58456 231.844066 
L 365.066092 232.012836 
L 365.225716 231.84218 
L 366.798196 232.611225 
L 367.721573 232.447851 
L 368.177793 232.67554 
L 368.329071 231.17494 
L 368.479954 231.082271 
L 369.525263 231.545292 
L 369.673063 231.542246 
L 369.820486 231.026221 
L 370.697226 231.470704 
L 370.842066 230.907517 
L 372.552448 231.771874 
L 373.111522 231.703878 
L 375.161218 232.664507 
L 375.562586 232.709818 
L 375.96119 232.907256 
L 376.09345 232.397876 
L 377.140785 232.819347 
L 377.270379 232.387251 
L 380.296622 233.742376 
L 380.419344 232.9547 
L 380.785958 233.124376 
L 380.907649 233.055359 
L 381.391867 233.257312 
L 381.51229 232.981687 
L 382.348313 233.305321 
L 382.466765 233.152258 
L 383.289207 233.506095 
L 383.522059 232.425173 
L 386.906866 234.011902 
L 387.992521 234.41949 
L 388.846614 234.766932 
L 388.952494 234.633787 
L 389.792635 234.913178 
L 390.000778 234.889366 
L 390.620752 235.173307 
L 390.723439 234.973466 
L 391.941667 235.430098 
L 392.640633 235.68861 
L 394.110577 236.242255 
L 394.207259 235.79744 
L 394.303779 235.840361 
L 394.400138 235.88314 
L 394.592376 235.777537 
L 394.783978 235.742426 
L 395.070197 235.868738 
L 395.260225 235.794102 
L 396.201119 236.119535 
L 396.294373 235.873893 
L 396.387476 235.915173 
L 396.48043 235.956296 
L 396.66589 235.884984 
L 397.218733 236.076573 
L 397.493185 235.840666 
L 398.398739 236.201789 
L 398.578162 236.182877 
L 398.667665 236.22209 
L 398.846256 235.982445 
L 400.168409 236.447704 
L 400.342436 236.456979 
L 400.947439 236.649005 
L 401.119141 236.530635 
L 401.546182 236.694371 
L 401.716119 236.594167 
L 401.970093 236.696912 
L 402.138792 236.545682 
L 402.390922 236.614916 
L 403.306111 236.938743 
L 403.553216 236.989426 
L 404.369361 237.228995 
L 404.531218 236.93359 
L 405.094177 237.16746 
L 405.174154 236.960635 
L 405.254021 236.994575 
L 405.413426 237.062179 
L 405.88902 236.437683 
L 406.828641 236.839713 
L 406.983772 236.728461 
L 407.982109 237.076532 
L 408.058195 237.010915 
L 408.058195 237.010915 
" clip-path="url(#p37e236a44f)" style="fill: none; stroke: #ff7f0e; stroke-linecap: square"/>
   </g>
   <g id="patch_3">
    <path d="M 57.6 307.584 
L 57.6 41.472 
" style="fill: none; stroke: #000000; stroke-width: 0.8; stroke-linejoin: miter; stroke-linecap: square"/>
   </g>
   <g id="patch_4">
    <path d="M 414.72 307.584 
L 414.72 41.472 
" style="fill: none; stroke: #000000; stroke-width: 0.8; stroke-linejoin: miter; stroke-linecap: square"/>
   </g>
   <g id="patch_5">
    <path d="M 57.6 307.584 
L 414.72 307.584 
" style="fill: none; stroke: #000000; stroke-width: 0.8; stroke-linejoin: miter; stroke-linecap: square"/>
   </g>
   <g id="patch_6">
    <path d="M 57.6 41.472 
L 414.72 41.472 
" style="fill: none; stroke: #000000; stroke-width: 0.8; stroke-linejoin: miter; stroke-linecap: square"/>
   </g>
   <g id="legend_1">
    <g id="patch_7">
     <path d="M 277.187187 80.82825 
L 409.72 80.82825 
Q 411.72 80.82825 411.72 78.82825 
L 411.72 50.472 
Q 411.72 48.472 409.72 48.472 
L 277.187187 48.472 
Q 275.187187 48.472 275.187187 50.472 
L 275.187187 78.82825 
Q 275.187187 80.82825 277.187187 80.82825 
z
" style="fill: #4d4d4d; opacity: 0.5; stroke: #4d4d4d; stroke-linejoin: miter"/>
    </g>
    <g id="patch_8">
     <path d="M 275.187187 78.82825 
L 407.72 78.82825 
Q 409.72 78.82825 409.72 76.82825 
L 409.72 48.472 
Q 409.72 46.472 407.72 46.472 
L 275.187187 46.472 
Q 273.187187 46.472 273.187187 48.472 
L 273.187187 76.82825 
Q 273.187187 78.82825 275.187187 78.82825 
z
" style="fill: #ffffff; stroke: #cccccc; stroke-linejoin: miter"/>
    </g>
    <g id="line2d_43">
     <path d="M 277.187187 54.570437 
L 287.187187 54.570437 
L 297.187187 54.570437 
" style="fill: none; stroke: #1f77b4; stroke-width: 2; stroke-linecap: square"/>
    </g>
    <g id="text_12">
     <!-- probability estimate -->
     <g transform="translate(305.187187 58.070437) scale(0.1 -0.1)">
      <defs>
       <path id="DejaVuSans-70" d="M 1159 525 
L 1159 -1331 
L 581 -1331 
L 581 3500 
L 1159 3500 
L 1159 2969 
Q 1341 3281 1617 3432 
Q 1894 3584 2278 3584 
Q 2916 3584 3314 3078 
Q 3713 2572 3713 1747 
Q 3713 922 3314 415 
Q 2916 -91 2278 -91 
Q 1894 -91 1617 61 
Q 1341 213 1159 525 
z
M 3116 1747 
Q 3116 2381 2855 2742 
Q 2594 3103 2138 3103 
Q 1681 3103 1420 2742 
Q 1159 2381 1159 1747 
Q 1159 1113 1420 752 
Q 1681 391 2138 391 
Q 2594 391 2855 752 
Q 3116 1113 3116 1747 
z
" transform="scale(0.015625)"/>
       <path id="DejaVuSans-62" d="M 3116 1747 
Q 3116 2381 2855 2742 
Q 2594 3103 2138 3103 
Q 1681 3103 1420 2742 
Q 1159 2381 1159 1747 
Q 1159 1113 1420 752 
Q 1681 391 2138 391 
Q 2594 391 2855 752 
Q 3116 1113 3116 1747 
z
M 1159 2969 
Q 1341 3281 1617 3432 
Q 1894 3584 2278 3584 
Q 2916 3584 3314 3078 
Q 3713 2572 3713 1747 
Q 3713 922 3314 415 
Q 2916 -91 2278 -91 
Q 1894 -91 1617 61 
Q 1341 213 1159 525 
L 1159 0 
L 581 0 
L 581 4863 
L 1159 4863 
L 1159 2969 
z
" transform="scale(0.015625)"/>
       <path id="DejaVuSans-6c" d="M 603 4863 
L 1178 4863 
L 1178 0 
L 603 0 
L 603 4863 
z
" transform="scale(0.015625)"/>
       <path id="DejaVuSans-79" d="M 2059 -325 
Q 1816 -950 1584 -1140 
Q 1353 -1331 966 -1331 
L 506 -1331 
L 506 -850 
L 844 -850 
Q 1081 -850 1212 -737 
Q 1344 -625 1503 -206 
L 1606 56 
L 191 3500 
L 800 3500 
L 1894 763 
L 2988 3500 
L 3597 3500 
L 2059 -325 
z
" transform="scale(0.015625)"/>
      </defs>
      <use xlink:href="#DejaVuSans-70"/>
      <use xlink:href="#DejaVuSans-72" transform="translate(63.476562 0)"/>
      <use xlink:href="#DejaVuSans-6f" transform="translate(102.339844 0)"/>
      <use xlink:href="#DejaVuSans-62" transform="translate(163.521484 0)"/>
      <use xlink:href="#DejaVuSans-61" transform="translate(226.998047 0)"/>
      <use xlink:href="#DejaVuSans-62" transform="translate(288.277344 0)"/>
      <use xlink:href="#DejaVuSans-69" transform="translate(351.753906 0)"/>
      <use xlink:href="#DejaVuSans-6c" transform="translate(379.537109 0)"/>
      <use xlink:href="#DejaVuSans-69" transform="translate(407.320312 0)"/>
      <use xlink:href="#DejaVuSans-74" transform="translate(435.103516 0)"/>
      <use xlink:href="#DejaVuSans-79" transform="translate(474.3125 0)"/>
      <use xlink:href="#DejaVuSans-20" transform="translate(533.492188 0)"/>
      <use xlink:href="#DejaVuSans-65" transform="translate(565.279297 0)"/>
      <use xlink:href="#DejaVuSans-73" transform="translate(626.802734 0)"/>
      <use xlink:href="#DejaVuSans-74" transform="translate(678.902344 0)"/>
      <use xlink:href="#DejaVuSans-69" transform="translate(718.111328 0)"/>
      <use xlink:href="#DejaVuSans-6d" transform="translate(745.894531 0)"/>
      <use xlink:href="#DejaVuSans-61" transform="translate(843.306641 0)"/>
      <use xlink:href="#DejaVuSans-74" transform="translate(904.585938 0)"/>
      <use xlink:href="#DejaVuSans-65" transform="translate(943.794922 0)"/>
     </g>
    </g>
    <g id="line2d_44">
     <path d="M 277.187187 69.248562 
L 287.187187 69.248562 
L 297.187187 69.248562 
" style="fill: none; stroke: #ff7f0e; stroke-linecap: square"/>
    </g>
    <g id="text_13">
     <!-- bounds -->
     <g transform="translate(305.187187 72.748562) scale(0.1 -0.1)">
      <defs>
       <path id="DejaVuSans-64" d="M 2906 2969 
L 2906 4863 
L 3481 4863 
L 3481 0 
L 2906 0 
L 2906 525 
Q 2725 213 2448 61 
Q 2172 -91 1784 -91 
Q 1150 -91 751 415 
Q 353 922 353 1747 
Q 353 2572 751 3078 
Q 1150 3584 1784 3584 
Q 2172 3584 2448 3432 
Q 2725 3281 2906 2969 
z
M 947 1747 
Q 947 1113 1208 752 
Q 1469 391 1925 391 
Q 2381 391 2643 752 
Q 2906 1113 2906 1747 
Q 2906 2381 2643 2742 
Q 2381 3103 1925 3103 
Q 1469 3103 1208 2742 
Q 947 2381 947 1747 
z
" transform="scale(0.015625)"/>
      </defs>
      <use xlink:href="#DejaVuSans-62"/>
      <use xlink:href="#DejaVuSans-6f" transform="translate(63.476562 0)"/>
      <use xlink:href="#DejaVuSans-75" transform="translate(124.658203 0)"/>
      <use xlink:href="#DejaVuSans-6e" transform="translate(188.037109 0)"/>
      <use xlink:href="#DejaVuSans-64" transform="translate(251.416016 0)"/>
      <use xlink:href="#DejaVuSans-73" transform="translate(314.892578 0)"/>
     </g>
    </g>
   </g>
  </g>
  <g id="text_14">
   <!-- ProbabilitySimulationAlgorithm convergence graph at level 0.95 -->
   <g transform="translate(37.914375 16.030125) scale(0.12 -0.12)">
    <defs>
     <path id="DejaVuSans-50" d="M 1259 4147 
L 1259 2394 
L 2053 2394 
Q 2494 2394 2734 2622 
Q 2975 2850 2975 3272 
Q 2975 3691 2734 3919 
Q 2494 4147 2053 4147 
L 1259 4147 
z
M 628 4666 
L 2053 4666 
Q 2838 4666 3239 4311 
Q 3641 3956 3641 3272 
Q 3641 2581 3239 2228 
Q 2838 1875 2053 1875 
L 1259 1875 
L 1259 0 
L 628 0 
L 628 4666 
z
" transform="scale(0.015625)"/>
     <path id="DejaVuSans-53" d="M 3425 4513 
L 3425 3897 
Q 3066 4069 2747 4153 
Q 2428 4238 2131 4238 
Q 1616 4238 1336 4038 
Q 1056 3838 1056 3469 
Q 1056 3159 1242 3001 
Q 1428 2844 1947 2747 
L 2328 2669 
Q 3034 2534 3370 2195 
Q 3706 1856 3706 1288 
Q 3706 609 3251 259 
Q 2797 -91 1919 -91 
Q 1588 -91 1214 -16 
Q 841 59 441 206 
L 441 856 
Q 825 641 1194 531 
Q 1563 422 1919 422 
Q 2459 422 2753 634 
Q 3047 847 3047 1241 
Q 3047 1584 2836 1778 
Q 2625 1972 2144 2069 
L 1759 2144 
Q 1053 2284 737 2584 
Q 422 2884 422 3419 
Q 422 4038 858 4394 
Q 1294 4750 2059 4750 
Q 2388 4750 2728 4690 
Q 3069 4631 3425 4513 
z
" transform="scale(0.015625)"/>
     <path id="DejaVuSans-41" d="M 2188 4044 
L 1331 1722 
L 3047 1722 
L 2188 4044 
z
M 1831 4666 
L 2547 4666 
L 4325 0 
L 3669 0 
L 3244 1197 
L 1141 1197 
L 716 0 
L 50 0 
L 1831 4666 
z
" transform="scale(0.015625)"/>
     <path id="DejaVuSans-67" d="M 2906 1791 
Q 2906 2416 2648 2759 
Q 2391 3103 1925 3103 
Q 1463 3103 1205 2759 
Q 947 2416 947 1791 
Q 947 1169 1205 825 
Q 1463 481 1925 481 
Q 2391 481 2648 825 
Q 2906 1169 2906 1791 
z
M 3481 434 
Q 3481 -459 3084 -895 
Q 2688 -1331 1869 -1331 
Q 1566 -1331 1297 -1286 
Q 1028 -1241 775 -1147 
L 775 -588 
Q 1028 -725 1275 -790 
Q 1522 -856 1778 -856 
Q 2344 -856 2625 -561 
Q 2906 -266 2906 331 
L 2906 616 
Q 2728 306 2450 153 
Q 2172 0 1784 0 
Q 1141 0 747 490 
Q 353 981 353 1791 
Q 353 2603 747 3093 
Q 1141 3584 1784 3584 
Q 2172 3584 2450 3431 
Q 2728 3278 2906 2969 
L 2906 3500 
L 3481 3500 
L 3481 434 
z
" transform="scale(0.015625)"/>
     <path id="DejaVuSans-68" d="M 3513 2113 
L 3513 0 
L 2938 0 
L 2938 2094 
Q 2938 2591 2744 2837 
Q 2550 3084 2163 3084 
Q 1697 3084 1428 2787 
Q 1159 2491 1159 1978 
L 1159 0 
L 581 0 
L 581 4863 
L 1159 4863 
L 1159 2956 
Q 1366 3272 1645 3428 
Q 1925 3584 2291 3584 
Q 2894 3584 3203 3211 
Q 3513 2838 3513 2113 
z
" transform="scale(0.015625)"/>
     <path id="DejaVuSans-63" d="M 3122 3366 
L 3122 2828 
Q 2878 2963 2633 3030 
Q 2388 3097 2138 3097 
Q 1578 3097 1268 2742 
Q 959 2388 959 1747 
Q 959 1106 1268 751 
Q 1578 397 2138 397 
Q 2388 397 2633 464 
Q 2878 531 3122 666 
L 3122 134 
Q 2881 22 2623 -34 
Q 2366 -91 2075 -91 
Q 1284 -91 818 406 
Q 353 903 353 1747 
Q 353 2603 823 3093 
Q 1294 3584 2113 3584 
Q 2378 3584 2631 3529 
Q 2884 3475 3122 3366 
z
" transform="scale(0.015625)"/>
     <path id="DejaVuSans-76" d="M 191 3500 
L 800 3500 
L 1894 563 
L 2988 3500 
L 3597 3500 
L 2284 0 
L 1503 0 
L 191 3500 
z
" transform="scale(0.015625)"/>
     <path id="DejaVuSans-2e" d="M 684 794 
L 1344 794 
L 1344 0 
L 684 0 
L 684 794 
z
" transform="scale(0.015625)"/>
     <path id="DejaVuSans-39" d="M 703 97 
L 703 672 
Q 941 559 1184 500 
Q 1428 441 1663 441 
Q 2288 441 2617 861 
Q 2947 1281 2994 2138 
Q 2813 1869 2534 1725 
Q 2256 1581 1919 1581 
Q 1219 1581 811 2004 
Q 403 2428 403 3163 
Q 403 3881 828 4315 
Q 1253 4750 1959 4750 
Q 2769 4750 3195 4129 
Q 3622 3509 3622 2328 
Q 3622 1225 3098 567 
Q 2575 -91 1691 -91 
Q 1453 -91 1209 -44 
Q 966 3 703 97 
z
M 1959 2075 
Q 2384 2075 2632 2365 
Q 2881 2656 2881 3163 
Q 2881 3666 2632 3958 
Q 2384 4250 1959 4250 
Q 1534 4250 1286 3958 
Q 1038 3666 1038 3163 
Q 1038 2656 1286 2365 
Q 1534 2075 1959 2075 
z
" transform="scale(0.015625)"/>
     <path id="DejaVuSans-35" d="M 691 4666 
L 3169 4666 
L 3169 4134 
L 1269 4134 
L 1269 2991 
Q 1406 3038 1543 3061 
Q 1681 3084 1819 3084 
Q 2600 3084 3056 2656 
Q 3513 2228 3513 1497 
Q 3513 744 3044 326 
Q 2575 -91 1722 -91 
Q 1428 -91 1123 -41 
Q 819 9 494 109 
L 494 744 
Q 775 591 1075 516 
Q 1375 441 1709 441 
Q 2250 441 2565 725 
Q 2881 1009 2881 1497 
Q 2881 1984 2565 2268 
Q 2250 2553 1709 2553 
Q 1456 2553 1204 2497 
Q 953 2441 691 2322 
L 691 4666 
z
" transform="scale(0.015625)"/>
    </defs>
    <use xlink:href="#DejaVuSans-50"/>
    <use xlink:href="#DejaVuSans-72" transform="translate(58.552734 0)"/>
    <use xlink:href="#DejaVuSans-6f" transform="translate(97.416016 0)"/>
    <use xlink:href="#DejaVuSans-62" transform="translate(158.597656 0)"/>
    <use xlink:href="#DejaVuSans-61" transform="translate(222.074219 0)"/>
    <use xlink:href="#DejaVuSans-62" transform="translate(283.353516 0)"/>
    <use xlink:href="#DejaVuSans-69" transform="translate(346.830078 0)"/>
    <use xlink:href="#DejaVuSans-6c" transform="translate(374.613281 0)"/>
    <use xlink:href="#DejaVuSans-69" transform="translate(402.396484 0)"/>
    <use xlink:href="#DejaVuSans-74" transform="translate(430.179688 0)"/>
    <use xlink:href="#DejaVuSans-79" transform="translate(469.388672 0)"/>
    <use xlink:href="#DejaVuSans-53" transform="translate(528.568359 0)"/>
    <use xlink:href="#DejaVuSans-69" transform="translate(592.044922 0)"/>
    <use xlink:href="#DejaVuSans-6d" transform="translate(619.828125 0)"/>
    <use xlink:href="#DejaVuSans-75" transform="translate(717.240234 0)"/>
    <use xlink:href="#DejaVuSans-6c" transform="translate(780.619141 0)"/>
    <use xlink:href="#DejaVuSans-61" transform="translate(808.402344 0)"/>
    <use xlink:href="#DejaVuSans-74" transform="translate(869.681641 0)"/>
    <use xlink:href="#DejaVuSans-69" transform="translate(908.890625 0)"/>
    <use xlink:href="#DejaVuSans-6f" transform="translate(936.673828 0)"/>
    <use xlink:href="#DejaVuSans-6e" transform="translate(997.855469 0)"/>
    <use xlink:href="#DejaVuSans-41" transform="translate(1061.234375 0)"/>
    <use xlink:href="#DejaVuSans-6c" transform="translate(1129.642578 0)"/>
    <use xlink:href="#DejaVuSans-67" transform="translate(1157.425781 0)"/>
    <use xlink:href="#DejaVuSans-6f" transform="translate(1220.902344 0)"/>
    <use xlink:href="#DejaVuSans-72" transform="translate(1282.083984 0)"/>
    <use xlink:href="#DejaVuSans-69" transform="translate(1323.197266 0)"/>
    <use xlink:href="#DejaVuSans-74" transform="translate(1350.980469 0)"/>
    <use xlink:href="#DejaVuSans-68" transform="translate(1390.189453 0)"/>
    <use xlink:href="#DejaVuSans-6d" transform="translate(1453.568359 0)"/>
    <use xlink:href="#DejaVuSans-20" transform="translate(1550.980469 0)"/>
    <use xlink:href="#DejaVuSans-63" transform="translate(1582.767578 0)"/>
    <use xlink:href="#DejaVuSans-6f" transform="translate(1637.748047 0)"/>
    <use xlink:href="#DejaVuSans-6e" transform="translate(1698.929688 0)"/>
    <use xlink:href="#DejaVuSans-76" transform="translate(1762.308594 0)"/>
    <use xlink:href="#DejaVuSans-65" transform="translate(1821.488281 0)"/>
    <use xlink:href="#DejaVuSans-72" transform="translate(1883.011719 0)"/>
    <use xlink:href="#DejaVuSans-67" transform="translate(1922.375 0)"/>
    <use xlink:href="#DejaVuSans-65" transform="translate(1985.851562 0)"/>
    <use xlink:href="#DejaVuSans-6e" transform="translate(2047.375 0)"/>
    <use xlink:href="#DejaVuSans-63" transform="translate(2110.753906 0)"/>
    <use xlink:href="#DejaVuSans-65" transform="translate(2165.734375 0)"/>
    <use xlink:href="#DejaVuSans-20" transform="translate(2227.257812 0)"/>
    <use xlink:href="#DejaVuSans-67" transform="translate(2259.044922 0)"/>
    <use xlink:href="#DejaVuSans-72" transform="translate(2322.521484 0)"/>
    <use xlink:href="#DejaVuSans-61" transform="translate(2363.634766 0)"/>
    <use xlink:href="#DejaVuSans-70" transform="translate(2424.914062 0)"/>
    <use xlink:href="#DejaVuSans-68" transform="translate(2488.390625 0)"/>
    <use xlink:href="#DejaVuSans-20" transform="translate(2551.769531 0)"/>
    <use xlink:href="#DejaVuSans-61" transform="translate(2583.556641 0)"/>
    <use xlink:href="#DejaVuSans-74" transform="translate(2644.835938 0)"/>
    <use xlink:href="#DejaVuSans-20" transform="translate(2684.044922 0)"/>
    <use xlink:href="#DejaVuSans-6c" transform="translate(2715.832031 0)"/>
    <use xlink:href="#DejaVuSans-65" transform="translate(2743.615234 0)"/>
    <use xlink:href="#DejaVuSans-76" transform="translate(2805.138672 0)"/>
    <use xlink:href="#DejaVuSans-65" transform="translate(2864.318359 0)"/>
    <use xlink:href="#DejaVuSans-6c" transform="translate(2925.841797 0)"/>
    <use xlink:href="#DejaVuSans-20" transform="translate(2953.625 0)"/>
    <use xlink:href="#DejaVuSans-30" transform="translate(2985.412109 0)"/>
    <use xlink:href="#DejaVuSans-2e" transform="translate(3049.035156 0)"/>
    <use xlink:href="#DejaVuSans-39" transform="translate(3080.822266 0)"/>
    <use xlink:href="#DejaVuSans-35" transform="translate(3144.445312 0)"/>
   </g>
  </g>
 </g>
 <defs>
  <clipPath id="p37e236a44f">
   <rect x="57.6" y="41.472" width="357.12" height="266.112"/>
  </clipPath>
 </defs>
</svg>
