<?xml version="1.0" encoding="utf-8" standalone="no"?>
<!DOCTYPE svg PUBLIC "-//W3C//DTD SVG 1.1//EN"
  "http://www.w3.org/Graphics/SVG/1.1/DTD/svg11.dtd">
<svg xmlns:xlink="http://www.w3.org/1999/xlink" width="460.8pt" height="345.6pt" viewBox="0 0 460.8 345.6" xmlns="http://www.w3.org/2000/svg" version="1.1">
 <metadata>
  <rdf:RDF xmlns:dc="http://purl.org/dc/elements/1.1/" xmlns:cc="http://creativecommons.org/ns#" xmlns:rdf="http://www.w3.org/1999/02/22-rdf-syntax-ns#">
   <cc:Work>
    <dc:type rdf:resource="http://purl.org/dc/dcmitype/StillImage"/>
    <dc:date>2022-01-01T00:00:00+00:00</dc:date>
    <dc:format>image/svg+xml</dc:format>
    <dc:creator>
     <cc:Agent>
      <dc:title>Matplotlib v3.10.6, https://matplotlib.org/</dc:title>
     </cc:Agent>
    </dc:creator>
   </cc:Work>
  </rdf:RDF>
 </metadata>
 <defs>
  <style type="text/css">*{stroke-linejoin: round; stroke-linecap: butt}</style>
 </defs>
 <g id="figure_1">
  <g id="patch_1">
   <path d="M 0 345.6 
L 460.8 345.6 
L 460.8 0 
L 0 0 
z
" style="fill: #ffffff"/>
  </g>
  <g id="axes_1">
   <g id="patch_2">
    <path d="M 57.6 307.584 
L 414.72 307.584 
L 414.72 41.472 
L 57.6 41.472 
z
" style="fill: #ffffff"/>
   </g>
   <g id="matplotlib.axis_1">
    <g id="xtick_1">
     <g id="line2d_1">
      <path d="M 63.590311 307.584 
L 63.590311 41.472 
" clip-path="url(#pddad22f68d)" style="fill: none; stroke: #b0b0b0; stroke-width: 0.8; stroke-linecap: square"/>
     </g>
     <g id="line2d_2">
      <defs>
       <path id="m6dfe85ec32" d="M 0 0 
L 0 3.5 
" style="stroke: #000000; stroke-width: 0.8"/>
      </defs>
      <g>
       <use xlink:href="#m6dfe85ec32" x="63.590311" y="307.584" style="stroke: #000000; stroke-width: 0.8"/>
      </g>
     </g>
     <g id="text_1">
      <!-- $\mathdefault{10^{0}}$ -->
      <g transform="translate(54.790311 322.182437) scale(0.1 -0.1)">
       <defs>
        <path id="DejaVuSans-31" d="M 794 531 
L 1825 531 
L 1825 4091 
L 703 3866 
L 703 4441 
L 1819 4666 
L 2450 4666 
L 2450 531 
L 3481 531 
L 3481 0 
L 794 0 
L 794 531 
z
" transform="scale(0.015625)"/>
        <path id="DejaVuSans-30" d="M 2034 4250 
Q 1547 4250 1301 3770 
Q 1056 3291 1056 2328 
Q 1056 1369 1301 889 
Q 1547 409 2034 409 
Q 2525 409 2770 889 
Q 3016 1369 3016 2328 
Q 3016 3291 2770 3770 
Q 2525 4250 2034 4250 
z
M 2034 4750 
Q 2819 4750 3233 4129 
Q 3647 3509 3647 2328 
Q 3647 1150 3233 529 
Q 2819 -91 2034 -91 
Q 1250 -91 836 529 
Q 422 1150 422 2328 
Q 422 3509 836 4129 
Q 1250 4750 2034 4750 
z
" transform="scale(0.015625)"/>
       </defs>
       <use xlink:href="#DejaVuSans-31" transform="translate(0 0.765625)"/>
       <use xlink:href="#DejaVuSans-30" transform="translate(63.623047 0.765625)"/>
       <use xlink:href="#DejaVuSans-30" transform="translate(128.203125 39.046875) scale(0.7)"/>
      </g>
     </g>
    </g>
    <g id="xtick_2">
     <g id="line2d_3">
      <path d="M 183.396528 307.584 
L 183.396528 41.472 
" clip-path="url(#pddad22f68d)" style="fill: none; stroke: #b0b0b0; stroke-width: 0.8; stroke-linecap: square"/>
     </g>
     <g id="line2d_4">
      <g>
       <use xlink:href="#m6dfe85ec32" x="183.396528" y="307.584" style="stroke: #000000; stroke-width: 0.8"/>
      </g>
     </g>
     <g id="text_2">
      <!-- $\mathdefault{10^{1}}$ -->
      <g transform="translate(174.596528 322.182437) scale(0.1 -0.1)">
       <use xlink:href="#DejaVuSans-31" transform="translate(0 0.684375)"/>
       <use xlink:href="#DejaVuSans-30" transform="translate(63.623047 0.684375)"/>
       <use xlink:href="#DejaVuSans-31" transform="translate(128.203125 38.965625) scale(0.7)"/>
      </g>
     </g>
    </g>
    <g id="xtick_3">
     <g id="line2d_5">
      <path d="M 303.202745 307.584 
L 303.202745 41.472 
" clip-path="url(#pddad22f68d)" style="fill: none; stroke: #b0b0b0; stroke-width: 0.8; stroke-linecap: square"/>
     </g>
     <g id="line2d_6">
      <g>
       <use xlink:href="#m6dfe85ec32" x="303.202745" y="307.584" style="stroke: #000000; stroke-width: 0.8"/>
      </g>
     </g>
     <g id="text_3">
      <!-- $\mathdefault{10^{2}}$ -->
      <g transform="translate(294.402745 322.182437) scale(0.1 -0.1)">
       <defs>
        <path id="DejaVuSans-32" d="M 1228 531 
L 3431 531 
L 3431 0 
L 469 0 
L 469 531 
Q 828 903 1448 1529 
Q 2069 2156 2228 2338 
Q 2531 2678 2651 2914 
Q 2772 3150 2772 3378 
Q 2772 3750 2511 3984 
Q 2250 4219 1831 4219 
Q 1534 4219 1204 4116 
Q 875 4013 500 3803 
L 500 4441 
Q 881 4594 1212 4672 
Q 1544 4750 1819 4750 
Q 2544 4750 2975 4387 
Q 3406 4025 3406 3419 
Q 3406 3131 3298 2873 
Q 3191 2616 2906 2266 
Q 2828 2175 2409 1742 
Q 1991 1309 1228 531 
z
" transform="scale(0.015625)"/>
       </defs>
       <use xlink:href="#DejaVuSans-31" transform="translate(0 0.765625)"/>
       <use xlink:href="#DejaVuSans-30" transform="translate(63.623047 0.765625)"/>
       <use xlink:href="#DejaVuSans-32" transform="translate(128.203125 39.046875) scale(0.7)"/>
      </g>
     </g>
    </g>
    <g id="xtick_4">
     <g id="line2d_7">
      <defs>
       <path id="mb98554eb72" d="M 0 0 
L 0 2 
" style="stroke: #000000; stroke-width: 0.6"/>
      </defs>
      <g>
       <use xlink:href="#mb98554eb72" x="58.108279" y="307.584" style="stroke: #000000; stroke-width: 0.6"/>
      </g>
     </g>
    </g>
    <g id="xtick_5">
     <g id="line2d_8">
      <g>
       <use xlink:href="#mb98554eb72" x="99.655576" y="307.584" style="stroke: #000000; stroke-width: 0.6"/>
      </g>
     </g>
    </g>
    <g id="xtick_6">
     <g id="line2d_9">
      <g>
       <use xlink:href="#mb98554eb72" x="120.752403" y="307.584" style="stroke: #000000; stroke-width: 0.6"/>
      </g>
     </g>
    </g>
    <g id="xtick_7">
     <g id="line2d_10">
      <g>
       <use xlink:href="#mb98554eb72" x="135.720841" y="307.584" style="stroke: #000000; stroke-width: 0.6"/>
      </g>
     </g>
    </g>
    <g id="xtick_8">
     <g id="line2d_11">
      <g>
       <use xlink:href="#mb98554eb72" x="147.331263" y="307.584" style="stroke: #000000; stroke-width: 0.6"/>
      </g>
     </g>
    </g>
    <g id="xtick_9">
     <g id="line2d_12">
      <g>
       <use xlink:href="#mb98554eb72" x="156.817668" y="307.584" style="stroke: #000000; stroke-width: 0.6"/>
      </g>
     </g>
    </g>
    <g id="xtick_10">
     <g id="line2d_13">
      <g>
       <use xlink:href="#mb98554eb72" x="164.83831" y="307.584" style="stroke: #000000; stroke-width: 0.6"/>
      </g>
     </g>
    </g>
    <g id="xtick_11">
     <g id="line2d_14">
      <g>
       <use xlink:href="#mb98554eb72" x="171.786106" y="307.584" style="stroke: #000000; stroke-width: 0.6"/>
      </g>
     </g>
    </g>
    <g id="xtick_12">
     <g id="line2d_15">
      <g>
       <use xlink:href="#mb98554eb72" x="177.914496" y="307.584" style="stroke: #000000; stroke-width: 0.6"/>
      </g>
     </g>
    </g>
    <g id="xtick_13">
     <g id="line2d_16">
      <g>
       <use xlink:href="#mb98554eb72" x="219.461793" y="307.584" style="stroke: #000000; stroke-width: 0.6"/>
      </g>
     </g>
    </g>
    <g id="xtick_14">
     <g id="line2d_17">
      <g>
       <use xlink:href="#mb98554eb72" x="240.55862" y="307.584" style="stroke: #000000; stroke-width: 0.6"/>
      </g>
     </g>
    </g>
    <g id="xtick_15">
     <g id="line2d_18">
      <g>
       <use xlink:href="#mb98554eb72" x="255.527058" y="307.584" style="stroke: #000000; stroke-width: 0.6"/>
      </g>
     </g>
    </g>
    <g id="xtick_16">
     <g id="line2d_19">
      <g>
       <use xlink:href="#mb98554eb72" x="267.13748" y="307.584" style="stroke: #000000; stroke-width: 0.6"/>
      </g>
     </g>
    </g>
    <g id="xtick_17">
     <g id="line2d_20">
      <g>
       <use xlink:href="#mb98554eb72" x="276.623885" y="307.584" style="stroke: #000000; stroke-width: 0.6"/>
      </g>
     </g>
    </g>
    <g id="xtick_18">
     <g id="line2d_21">
      <g>
       <use xlink:href="#mb98554eb72" x="284.644527" y="307.584" style="stroke: #000000; stroke-width: 0.6"/>
      </g>
     </g>
    </g>
    <g id="xtick_19">
     <g id="line2d_22">
      <g>
       <use xlink:href="#mb98554eb72" x="291.592323" y="307.584" style="stroke: #000000; stroke-width: 0.6"/>
      </g>
     </g>
    </g>
    <g id="xtick_20">
     <g id="line2d_23">
      <g>
       <use xlink:href="#mb98554eb72" x="297.720713" y="307.584" style="stroke: #000000; stroke-width: 0.6"/>
      </g>
     </g>
    </g>
    <g id="xtick_21">
     <g id="line2d_24">
      <g>
       <use xlink:href="#mb98554eb72" x="339.26801" y="307.584" style="stroke: #000000; stroke-width: 0.6"/>
      </g>
     </g>
    </g>
    <g id="xtick_22">
     <g id="line2d_25">
      <g>
       <use xlink:href="#mb98554eb72" x="360.364837" y="307.584" style="stroke: #000000; stroke-width: 0.6"/>
      </g>
     </g>
    </g>
    <g id="xtick_23">
     <g id="line2d_26">
      <g>
       <use xlink:href="#mb98554eb72" x="375.333275" y="307.584" style="stroke: #000000; stroke-width: 0.6"/>
      </g>
     </g>
    </g>
    <g id="xtick_24">
     <g id="line2d_27">
      <g>
       <use xlink:href="#mb98554eb72" x="386.943697" y="307.584" style="stroke: #000000; stroke-width: 0.6"/>
      </g>
     </g>
    </g>
    <g id="xtick_25">
     <g id="line2d_28">
      <g>
       <use xlink:href="#mb98554eb72" x="396.430102" y="307.584" style="stroke: #000000; stroke-width: 0.6"/>
      </g>
     </g>
    </g>
    <g id="xtick_26">
     <g id="line2d_29">
      <g>
       <use xlink:href="#mb98554eb72" x="404.450744" y="307.584" style="stroke: #000000; stroke-width: 0.6"/>
      </g>
     </g>
    </g>
    <g id="xtick_27">
     <g id="line2d_30">
      <g>
       <use xlink:href="#mb98554eb72" x="411.39854" y="307.584" style="stroke: #000000; stroke-width: 0.6"/>
      </g>
     </g>
    </g>
    <g id="text_4">
     <!-- outer iteration -->
     <g transform="translate(200.127969 335.860562) scale(0.1 -0.1)">
      <defs>
       <path id="DejaVuSans-6f" d="M 1959 3097 
Q 1497 3097 1228 2736 
Q 959 2375 959 1747 
Q 959 1119 1226 758 
Q 1494 397 1959 397 
Q 2419 397 2687 759 
Q 2956 1122 2956 1747 
Q 2956 2369 2687 2733 
Q 2419 3097 1959 3097 
z
M 1959 3584 
Q 2709 3584 3137 3096 
Q 3566 2609 3566 1747 
Q 3566 888 3137 398 
Q 2709 -91 1959 -91 
Q 1206 -91 779 398 
Q 353 888 353 1747 
Q 353 2609 779 3096 
Q 1206 3584 1959 3584 
z
" transform="scale(0.015625)"/>
       <path id="DejaVuSans-75" d="M 544 1381 
L 544 3500 
L 1119 3500 
L 1119 1403 
Q 1119 906 1312 657 
Q 1506 409 1894 409 
Q 2359 409 2629 706 
Q 2900 1003 2900 1516 
L 2900 3500 
L 3475 3500 
L 3475 0 
L 2900 0 
L 2900 538 
Q 2691 219 2414 64 
Q 2138 -91 1772 -91 
Q 1169 -91 856 284 
Q 544 659 544 1381 
z
M 1991 3584 
L 1991 3584 
z
" transform="scale(0.015625)"/>
       <path id="DejaVuSans-74" d="M 1172 4494 
L 1172 3500 
L 2356 3500 
L 2356 3053 
L 1172 3053 
L 1172 1153 
Q 1172 725 1289 603 
Q 1406 481 1766 481 
L 2356 481 
L 2356 0 
L 1766 0 
Q 1100 0 847 248 
Q 594 497 594 1153 
L 594 3053 
L 172 3053 
L 172 3500 
L 594 3500 
L 594 4494 
L 1172 4494 
z
" transform="scale(0.015625)"/>
       <path id="DejaVuSans-65" d="M 3597 1894 
L 3597 1613 
L 953 1613 
Q 991 1019 1311 708 
Q 1631 397 2203 397 
Q 2534 397 2845 478 
Q 3156 559 3463 722 
L 3463 178 
Q 3153 47 2828 -22 
Q 2503 -91 2169 -91 
Q 1331 -91 842 396 
Q 353 884 353 1716 
Q 353 2575 817 3079 
Q 1281 3584 2069 3584 
Q 2775 3584 3186 3129 
Q 3597 2675 3597 1894 
z
M 3022 2063 
Q 3016 2534 2758 2815 
Q 2500 3097 2075 3097 
Q 1594 3097 1305 2825 
Q 1016 2553 972 2059 
L 3022 2063 
z
" transform="scale(0.015625)"/>
       <path id="DejaVuSans-72" d="M 2631 2963 
Q 2534 3019 2420 3045 
Q 2306 3072 2169 3072 
Q 1681 3072 1420 2755 
Q 1159 2438 1159 1844 
L 1159 0 
L 581 0 
L 581 3500 
L 1159 3500 
L 1159 2956 
Q 1341 3275 1631 3429 
Q 1922 3584 2338 3584 
Q 2397 3584 2469 3576 
Q 2541 3569 2628 3553 
L 2631 2963 
z
" transform="scale(0.015625)"/>
       <path id="DejaVuSans-20" transform="scale(0.015625)"/>
       <path id="DejaVuSans-69" d="M 603 3500 
L 1178 3500 
L 1178 0 
L 603 0 
L 603 3500 
z
M 603 4863 
L 1178 4863 
L 1178 4134 
L 603 4134 
L 603 4863 
z
" transform="scale(0.015625)"/>
       <path id="DejaVuSans-61" d="M 2194 1759 
Q 1497 1759 1228 1600 
Q 959 1441 959 1056 
Q 959 750 1161 570 
Q 1363 391 1709 391 
Q 2188 391 2477 730 
Q 2766 1069 2766 1631 
L 2766 1759 
L 2194 1759 
z
M 3341 1997 
L 3341 0 
L 2766 0 
L 2766 531 
Q 2569 213 2275 61 
Q 1981 -91 1556 -91 
Q 1019 -91 701 211 
Q 384 513 384 1019 
Q 384 1609 779 1909 
Q 1175 2209 1959 2209 
L 2766 2209 
L 2766 2266 
Q 2766 2663 2505 2880 
Q 2244 3097 1772 3097 
Q 1472 3097 1187 3025 
Q 903 2953 641 2809 
L 641 3341 
Q 956 3463 1253 3523 
Q 1550 3584 1831 3584 
Q 2591 3584 2966 3190 
Q 3341 2797 3341 1997 
z
" transform="scale(0.015625)"/>
       <path id="DejaVuSans-6e" d="M 3513 2113 
L 3513 0 
L 2938 0 
L 2938 2094 
Q 2938 2591 2744 2837 
Q 2550 3084 2163 3084 
Q 1697 3084 1428 2787 
Q 1159 2491 1159 1978 
L 1159 0 
L 581 0 
L 581 3500 
L 1159 3500 
L 1159 2956 
Q 1366 3272 1645 3428 
Q 1925 3584 2291 3584 
Q 2894 3584 3203 3211 
Q 3513 2838 3513 2113 
z
" transform="scale(0.015625)"/>
      </defs>
      <use xlink:href="#DejaVuSans-6f"/>
      <use xlink:href="#DejaVuSans-75" transform="translate(61.181641 0)"/>
      <use xlink:href="#DejaVuSans-74" transform="translate(124.560547 0)"/>
      <use xlink:href="#DejaVuSans-65" transform="translate(163.769531 0)"/>
      <use xlink:href="#DejaVuSans-72" transform="translate(225.292969 0)"/>
      <use xlink:href="#DejaVuSans-20" transform="translate(266.40625 0)"/>
      <use xlink:href="#DejaVuSans-69" transform="translate(298.193359 0)"/>
      <use xlink:href="#DejaVuSans-74" transform="translate(325.976562 0)"/>
      <use xlink:href="#DejaVuSans-65" transform="translate(365.185547 0)"/>
      <use xlink:href="#DejaVuSans-72" transform="translate(426.708984 0)"/>
      <use xlink:href="#DejaVuSans-61" transform="translate(467.822266 0)"/>
      <use xlink:href="#DejaVuSans-74" transform="translate(529.101562 0)"/>
      <use xlink:href="#DejaVuSans-69" transform="translate(568.310547 0)"/>
      <use xlink:href="#DejaVuSans-6f" transform="translate(596.09375 0)"/>
      <use xlink:href="#DejaVuSans-6e" transform="translate(657.275391 0)"/>
     </g>
    </g>
   </g>
   <g id="matplotlib.axis_2">
    <g id="ytick_1">
     <g id="line2d_31">
      <path d="M 57.6 307.358121 
L 414.72 307.358121 
" clip-path="url(#pddad22f68d)" style="fill: none; stroke: #b0b0b0; stroke-width: 0.8; stroke-linecap: square"/>
     </g>
     <g id="line2d_32">
      <defs>
       <path id="me2dbda57b0" d="M 0 0 
L -3.5 0 
" style="stroke: #000000; stroke-width: 0.8"/>
      </defs>
      <g>
       <use xlink:href="#me2dbda57b0" x="57.6" y="307.358121" style="stroke: #000000; stroke-width: 0.8"/>
      </g>
     </g>
     <g id="text_5">
      <!-- −1 -->
      <g transform="translate(35.857813 311.15734) scale(0.1 -0.1)">
       <defs>
        <path id="DejaVuSans-2212" d="M 678 2272 
L 4684 2272 
L 4684 1741 
L 678 1741 
L 678 2272 
z
" transform="scale(0.015625)"/>
       </defs>
       <use xlink:href="#DejaVuSans-2212"/>
       <use xlink:href="#DejaVuSans-31" transform="translate(83.789062 0)"/>
      </g>
     </g>
    </g>
    <g id="ytick_2">
     <g id="line2d_33">
      <path d="M 57.6 261.806784 
L 414.72 261.806784 
" clip-path="url(#pddad22f68d)" style="fill: none; stroke: #b0b0b0; stroke-width: 0.8; stroke-linecap: square"/>
     </g>
     <g id="line2d_34">
      <g>
       <use xlink:href="#me2dbda57b0" x="57.6" y="261.806784" style="stroke: #000000; stroke-width: 0.8"/>
      </g>
     </g>
     <g id="text_6">
      <!-- 0 -->
      <g transform="translate(44.2375 265.606002) scale(0.1 -0.1)">
       <use xlink:href="#DejaVuSans-30"/>
      </g>
     </g>
    </g>
    <g id="ytick_3">
     <g id="line2d_35">
      <path d="M 57.6 216.255446 
L 414.72 216.255446 
" clip-path="url(#pddad22f68d)" style="fill: none; stroke: #b0b0b0; stroke-width: 0.8; stroke-linecap: square"/>
     </g>
     <g id="line2d_36">
      <g>
       <use xlink:href="#me2dbda57b0" x="57.6" y="216.255446" style="stroke: #000000; stroke-width: 0.8"/>
      </g>
     </g>
     <g id="text_7">
      <!-- 1 -->
      <g transform="translate(44.2375 220.054665) scale(0.1 -0.1)">
       <use xlink:href="#DejaVuSans-31"/>
      </g>
     </g>
    </g>
    <g id="ytick_4">
     <g id="line2d_37">
      <path d="M 57.6 170.704108 
L 414.72 170.704108 
" clip-path="url(#pddad22f68d)" style="fill: none; stroke: #b0b0b0; stroke-width: 0.8; stroke-linecap: square"/>
     </g>
     <g id="line2d_38">
      <g>
       <use xlink:href="#me2dbda57b0" x="57.6" y="170.704108" style="stroke: #000000; stroke-width: 0.8"/>
      </g>
     </g>
     <g id="text_8">
      <!-- 2 -->
      <g transform="translate(44.2375 174.503327) scale(0.1 -0.1)">
       <use xlink:href="#DejaVuSans-32"/>
      </g>
     </g>
    </g>
    <g id="ytick_5">
     <g id="line2d_39">
      <path d="M 57.6 125.15277 
L 414.72 125.15277 
" clip-path="url(#pddad22f68d)" style="fill: none; stroke: #b0b0b0; stroke-width: 0.8; stroke-linecap: square"/>
     </g>
     <g id="line2d_40">
      <g>
       <use xlink:href="#me2dbda57b0" x="57.6" y="125.15277" style="stroke: #000000; stroke-width: 0.8"/>
      </g>
     </g>
     <g id="text_9">
      <!-- 3 -->
      <g transform="translate(44.2375 128.951989) scale(0.1 -0.1)">
       <defs>
        <path id="DejaVuSans-33" d="M 2597 2516 
Q 3050 2419 3304 2112 
Q 3559 1806 3559 1356 
Q 3559 666 3084 287 
Q 2609 -91 1734 -91 
Q 1441 -91 1130 -33 
Q 819 25 488 141 
L 488 750 
Q 750 597 1062 519 
Q 1375 441 1716 441 
Q 2309 441 2620 675 
Q 2931 909 2931 1356 
Q 2931 1769 2642 2001 
Q 2353 2234 1838 2234 
L 1294 2234 
L 1294 2753 
L 1863 2753 
Q 2328 2753 2575 2939 
Q 2822 3125 2822 3475 
Q 2822 3834 2567 4026 
Q 2313 4219 1838 4219 
Q 1578 4219 1281 4162 
Q 984 4106 628 3988 
L 628 4550 
Q 988 4650 1302 4700 
Q 1616 4750 1894 4750 
Q 2613 4750 3031 4423 
Q 3450 4097 3450 3541 
Q 3450 3153 3228 2886 
Q 3006 2619 2597 2516 
z
" transform="scale(0.015625)"/>
       </defs>
       <use xlink:href="#DejaVuSans-33"/>
      </g>
     </g>
    </g>
    <g id="ytick_6">
     <g id="line2d_41">
      <path d="M 57.6 79.601432 
L 414.72 79.601432 
" clip-path="url(#pddad22f68d)" style="fill: none; stroke: #b0b0b0; stroke-width: 0.8; stroke-linecap: square"/>
     </g>
     <g id="line2d_42">
      <g>
       <use xlink:href="#me2dbda57b0" x="57.6" y="79.601432" style="stroke: #000000; stroke-width: 0.8"/>
      </g>
     </g>
     <g id="text_10">
      <!-- 4 -->
      <g transform="translate(44.2375 83.400651) scale(0.1 -0.1)">
       <defs>
        <path id="DejaVuSans-34" d="M 2419 4116 
L 825 1625 
L 2419 1625 
L 2419 4116 
z
M 2253 4666 
L 3047 4666 
L 3047 1625 
L 3713 1625 
L 3713 1100 
L 3047 1100 
L 3047 0 
L 2419 0 
L 2419 1100 
L 313 1100 
L 313 1709 
L 2253 4666 
z
" transform="scale(0.015625)"/>
       </defs>
       <use xlink:href="#DejaVuSans-34"/>
      </g>
     </g>
    </g>
    <g id="text_11">
     <!-- estimate -->
     <g transform="translate(29.778125 196.529562) rotate(-90) scale(0.1 -0.1)">
      <defs>
       <path id="DejaVuSans-73" d="M 2834 3397 
L 2834 2853 
Q 2591 2978 2328 3040 
Q 2066 3103 1784 3103 
Q 1356 3103 1142 2972 
Q 928 2841 928 2578 
Q 928 2378 1081 2264 
Q 1234 2150 1697 2047 
L 1894 2003 
Q 2506 1872 2764 1633 
Q 3022 1394 3022 966 
Q 3022 478 2636 193 
Q 2250 -91 1575 -91 
Q 1294 -91 989 -36 
Q 684 19 347 128 
L 347 722 
Q 666 556 975 473 
Q 1284 391 1588 391 
Q 1994 391 2212 530 
Q 2431 669 2431 922 
Q 2431 1156 2273 1281 
Q 2116 1406 1581 1522 
L 1381 1569 
Q 847 1681 609 1914 
Q 372 2147 372 2553 
Q 372 3047 722 3315 
Q 1072 3584 1716 3584 
Q 2034 3584 2315 3537 
Q 2597 3491 2834 3397 
z
" transform="scale(0.015625)"/>
       <path id="DejaVuSans-6d" d="M 3328 2828 
Q 3544 3216 3844 3400 
Q 4144 3584 4550 3584 
Q 5097 3584 5394 3201 
Q 5691 2819 5691 2113 
L 5691 0 
L 5113 0 
L 5113 2094 
Q 5113 2597 4934 2840 
Q 4756 3084 4391 3084 
Q 3944 3084 3684 2787 
Q 3425 2491 3425 1978 
L 3425 0 
L 2847 0 
L 2847 2094 
Q 2847 2600 2669 2842 
Q 2491 3084 2119 3084 
Q 1678 3084 1418 2786 
Q 1159 2488 1159 1978 
L 1159 0 
L 581 0 
L 581 3500 
L 1159 3500 
L 1159 2956 
Q 1356 3278 1631 3431 
Q 1906 3584 2284 3584 
Q 2666 3584 2933 3390 
Q 3200 3197 3328 2828 
z
" transform="scale(0.015625)"/>
      </defs>
      <use xlink:href="#DejaVuSans-65"/>
      <use xlink:href="#DejaVuSans-73" transform="translate(61.523438 0)"/>
      <use xlink:href="#DejaVuSans-74" transform="translate(113.623047 0)"/>
      <use xlink:href="#DejaVuSans-69" transform="translate(152.832031 0)"/>
      <use xlink:href="#DejaVuSans-6d" transform="translate(180.615234 0)"/>
      <use xlink:href="#DejaVuSans-61" transform="translate(278.027344 0)"/>
      <use xlink:href="#DejaVuSans-74" transform="translate(339.306641 0)"/>
      <use xlink:href="#DejaVuSans-65" transform="translate(378.515625 0)"/>
     </g>
    </g>
    <g id="text_12">
     <!-- 1e−6 -->
     <g transform="translate(57.6 38.472) scale(0.1 -0.1)">
      <defs>
       <path id="DejaVuSans-36" d="M 2113 2584 
Q 1688 2584 1439 2293 
Q 1191 2003 1191 1497 
Q 1191 994 1439 701 
Q 1688 409 2113 409 
Q 2538 409 2786 701 
Q 3034 994 3034 1497 
Q 3034 2003 2786 2293 
Q 2538 2584 2113 2584 
z
M 3366 4563 
L 3366 3988 
Q 3128 4100 2886 4159 
Q 2644 4219 2406 4219 
Q 1781 4219 1451 3797 
Q 1122 3375 1075 2522 
Q 1259 2794 1537 2939 
Q 1816 3084 2150 3084 
Q 2853 3084 3261 2657 
Q 3669 2231 3669 1497 
Q 3669 778 3244 343 
Q 2819 -91 2113 -91 
Q 1303 -91 875 529 
Q 447 1150 447 2328 
Q 447 3434 972 4092 
Q 1497 4750 2381 4750 
Q 2619 4750 2861 4703 
Q 3103 4656 3366 4563 
z
" transform="scale(0.015625)"/>
      </defs>
      <use xlink:href="#DejaVuSans-31"/>
      <use xlink:href="#DejaVuSans-65" transform="translate(63.623047 0)"/>
      <use xlink:href="#DejaVuSans-2212" transform="translate(125.146484 0)"/>
      <use xlink:href="#DejaVuSans-36" transform="translate(208.935547 0)"/>
     </g>
    </g>
   </g>
   <g id="line2d_43">
    <path d="M 63.590311 261.806784 
L 99.655576 174.528 
L 120.752403 200.381313 
L 135.720841 215.737681 
L 147.331263 197.622681 
L 156.817668 200.865847 
L 164.83831 203.186709 
L 171.786106 210.514219 
L 177.914496 216.213392 
L 183.396528 220.772732 
L 188.355629 223.418448 
L 200.903575 231.178759 
L 204.493355 232.930361 
L 207.851371 223.879748 
L 213.979761 228.093863 
L 219.461793 231.465155 
L 222.000403 232.782352 
L 224.420894 233.662304 
L 228.948198 236.007678 
L 233.112915 237.992224 
L 242.264714 241.564537 
L 243.916636 236.490859 
L 245.517721 235.648842 
L 250.045026 237.781159 
L 251.470627 231.00398 
L 256.811844 234.009132 
L 261.655448 236.480034 
L 263.91803 237.557768 
L 266.086309 238.244585 
L 267.13748 238.47795 
L 268.167834 238.935378 
L 269.17818 237.282169 
L 273.955035 239.411617 
L 278.329979 241.215426 
L 279.162495 241.4275 
L 279.981901 240.722827 
L 280.788602 241.047196 
L 281.582986 239.933446 
L 283.895864 240.872973 
L 285.38257 241.231788 
L 286.110291 239.779379 
L 290.275007 241.473795 
L 290.937834 238.485272 
L 294.130933 239.873457 
L 294.746693 238.853817 
L 297.720713 240.116407 
L 298.864301 240.478318 
L 299.983295 238.669364 
L 301.617916 239.384954 
L 302.151574 239.45274 
L 302.679814 239.678539 
L 303.202745 235.577791 
L 304.740724 236.290392 
L 305.243445 236.263379 
L 307.207119 237.209431 
L 307.686672 235.850407 
L 310.0203 236.988845 
L 310.474723 236.947095 
L 313.549189 238.369361 
L 313.973936 237.953199 
L 314.395243 238.145567 
L 314.813167 237.886277 
L 315.639076 238.262978 
L 316.047166 238.229308 
L 316.45208 236.544957 
L 316.853867 236.739279 
L 317.252575 236.523352 
L 317.648251 236.714608 
L 318.040941 235.412488 
L 319.201536 235.994715 
L 319.582719 235.788813 
L 322.175556 237.053576 
L 322.535635 235.018417 
L 324.645296 236.075615 
L 325.329926 236.288415 
L 325.668893 236.175088 
L 326.005666 233.965413 
L 327.331372 234.64584 
L 327.657588 234.642457 
L 327.981771 234.805922 
L 328.303946 234.728516 
L 331.117127 236.089397 
L 332.616689 236.55029 
L 334.07424 237.247984 
L 334.360914 237.090569 
L 334.646017 235.870668 
L 338.216839 237.583279 
L 338.481629 237.243285 
L 340.042682 237.958911 
L 340.298364 237.24204 
L 341.057957 237.59805 
L 341.30871 237.499525 
L 342.053799 237.823468 
L 342.29981 237.6437 
L 342.544663 236.383364 
L 344.697984 237.403979 
L 344.931833 236.882045 
L 347.658982 238.113004 
L 347.879921 237.937295 
L 348.099926 238.03801 
L 348.319005 237.694156 
L 350.66989 238.661182 
L 351.086141 238.841958 
L 351.293025 237.999801 
L 351.704341 238.170594 
L 351.908786 238.105909 
L 354.301446 239.124206 
L 354.495955 238.856359 
L 354.68974 238.941676 
L 354.882806 238.829988 
L 355.266801 238.998936 
L 355.457742 238.099989 
L 356.402072 238.52637 
L 356.588899 237.810194 
L 357.5131 238.232669 
L 357.695987 237.928896 
L 358.059843 238.093215 
L 358.240821 237.99812 
L 358.780009 238.11854 
L 358.958504 237.739188 
L 360.19111 238.190286 
L 360.537986 238.257237 
L 361.224876 238.566083 
L 361.395191 238.378985 
L 361.902817 238.60446 
L 362.070931 237.809233 
L 362.405537 237.960361 
L 362.903447 237.533777 
L 363.722853 237.912415 
L 363.885197 237.676592 
L 364.208373 237.826005 
L 364.369211 237.612771 
L 365.166029 237.980045 
L 365.323938 237.329561 
L 366.106377 237.694893 
L 366.261462 237.206365 
L 368.236606 238.077073 
L 368.533928 238.13806 
L 369.415833 238.535596 
L 369.561375 238.290467 
L 369.995574 238.408152 
L 370.139505 238.229417 
L 371.557336 238.83804 
L 372.389853 238.589321 
L 372.801168 238.772136 
L 372.937554 237.644073 
L 373.073584 237.537862 
L 374.015959 237.892063 
L 374.149202 237.872895 
L 374.282104 237.406404 
L 375.072466 237.761028 
L 375.203034 237.258668 
L 376.744811 237.949688 
L 377.248749 237.835575 
L 379.096204 238.595209 
L 379.457952 238.600754 
L 379.817202 238.760428 
L 379.936403 238.305252 
L 380.880305 238.625636 
L 380.997098 238.231645 
L 383.724247 239.305679 
L 383.834834 238.651865 
L 384.165191 238.787579 
L 384.38427 238.757272 
L 384.711169 238.865889 
L 384.927966 238.629158 
L 385.572989 238.849397 
L 385.679719 238.693398 
L 386.420766 238.973228 
L 386.630569 238.050692 
L 389.680144 239.336816 
L 390.658202 239.649817 
L 391.427624 239.924626 
L 391.618215 239.829144 
L 392.279837 239.999321 
L 392.467337 239.960125 
L 393.025816 240.193363 
L 393.210652 240.0377 
L 393.394833 240.02765 
L 395.643722 240.882812 
L 395.907172 240.906258 
L 396.169294 240.997234 
L 396.256375 240.605923 
L 396.343311 240.641317 
L 396.430102 240.676593 
L 396.603251 240.564136 
L 396.775826 240.516436 
L 397.033619 240.620609 
L 397.204774 240.535369 
L 398.052206 240.789735 
L 398.136195 240.558499 
L 398.220049 240.592716 
L 398.303768 240.626796 
L 398.470802 240.546377 
L 398.968712 240.695271 
L 399.215892 240.448148 
L 400.031444 240.741308 
L 400.193032 240.710482 
L 400.273638 240.743139 
L 400.434476 240.514268 
L 401.625173 240.883276 
L 401.781893 240.88016 
L 402.326727 241.029178 
L 402.481352 240.902179 
L 402.865915 241.035343 
L 403.018948 240.930872 
L 403.247657 241.015671 
L 403.399573 240.866571 
L 403.626619 240.917855 
L 404.450744 241.178369 
L 404.673258 241.212028 
L 405.408174 241.396086 
L 405.55392 241.116394 
L 406.060839 241.31223 
L 406.132854 241.117252 
L 406.20477 241.145829 
L 406.348304 241.202746 
L 406.776547 240.622832 
L 407.622601 240.961753 
L 407.762282 240.848863 
L 408.661182 241.130383 
L 408.729689 241.061668 
L 408.729689 241.061668 
" clip-path="url(#pddad22f68d)" style="fill: none; stroke: #1f77b4; stroke-width: 2; stroke-linecap: square"/>
   </g>
   <g id="line2d_44">
    <path d="M 99.655576 295.488 
L 120.752403 291.015456 
L 135.720841 288.539446 
L 147.331263 263.959185 
L 156.817668 256.449978 
L 164.83831 251.016017 
L 171.786106 254.468188 
L 177.914496 256.67806 
L 183.396528 258.164636 
L 188.355629 257.768769 
L 192.882933 258.10284 
L 200.903575 259.273292 
L 204.493355 259.360849 
L 207.851371 254.029029 
L 213.979761 255.453058 
L 219.461793 256.484206 
L 222.000403 256.742848 
L 224.420894 256.595673 
L 231.072215 257.536972 
L 233.112915 257.786043 
L 236.96884 258.110183 
L 238.794683 258.298386 
L 240.55862 258.249742 
L 242.264714 258.414782 
L 243.916636 255.523982 
L 245.517721 254.176614 
L 250.045026 254.921516 
L 251.470627 252.212375 
L 258.065668 253.596561 
L 263.91803 254.638304 
L 266.086309 254.654601 
L 267.13748 254.566139 
L 268.167834 254.733073 
L 269.17818 253.104871 
L 275.749391 254.260215 
L 278.329979 254.672617 
L 279.162495 254.677503 
L 279.981901 253.837584 
L 280.788602 253.975587 
L 281.582986 252.848926 
L 283.895864 253.270604 
L 285.38257 253.290314 
L 286.110291 252.001816 
L 290.275007 252.830992 
L 290.937834 251.119192 
L 294.130933 251.813808 
L 294.746693 250.819766 
L 297.720713 251.468665 
L 298.295649 251.474198 
L 298.864301 251.5959 
L 299.983295 249.831554 
L 301.617916 250.231254 
L 302.151574 250.189177 
L 302.679814 250.315644 
L 303.202745 248.800834 
L 304.740724 249.153102 
L 305.243445 249.002519 
L 307.207119 249.510441 
L 307.686672 248.32362 
L 310.0203 248.954835 
L 310.474723 248.809313 
L 313.549189 249.597655 
L 313.973936 249.119793 
L 314.395243 249.22847 
L 314.813167 248.892163 
L 315.639076 249.107918 
L 316.047166 248.989723 
L 316.45208 247.716897 
L 316.853867 247.83177 
L 317.252575 247.539238 
L 317.648251 247.653417 
L 318.040941 246.56279 
L 319.201536 246.918501 
L 319.582719 246.640316 
L 322.175556 247.417944 
L 322.535635 246.052214 
L 324.645296 246.703367 
L 325.329926 246.781704 
L 325.668893 246.602589 
L 326.005666 245.189041 
L 327.331372 245.606956 
L 327.657588 245.535068 
L 327.981771 245.635588 
L 328.303946 245.492394 
L 331.117127 246.324098 
L 332.616689 246.507887 
L 334.07424 246.949269 
L 334.360914 246.743456 
L 334.646017 245.762489 
L 338.216839 246.862724 
L 338.481629 246.499523 
L 340.042682 246.959278 
L 340.298364 246.307294 
L 341.057957 246.540871 
L 341.30871 246.401436 
L 342.053799 246.606424 
L 342.29981 246.392292 
L 342.544663 245.432904 
L 344.697984 246.111197 
L 344.931833 245.610103 
L 347.658982 246.423258 
L 347.879921 246.219468 
L 348.099926 246.287589 
L 348.319005 245.936556 
L 350.460508 246.496389 
L 351.086141 246.681797 
L 351.293025 245.980396 
L 351.704341 246.091894 
L 351.908786 245.997159 
L 354.301446 246.68218 
L 354.495955 246.404342 
L 354.68974 246.463452 
L 354.882806 246.327091 
L 355.266801 246.444567 
L 355.457742 245.723962 
L 356.402072 246.022377 
L 356.588899 245.409621 
L 357.5131 245.70732 
L 357.695987 245.400995 
L 358.059843 245.516713 
L 358.240821 245.398182 
L 358.780009 245.443863 
L 358.958504 245.07706 
L 359.841907 245.258699 
L 361.224876 245.608454 
L 361.395191 245.407883 
L 361.902817 245.569746 
L 362.070931 244.924299 
L 362.405537 245.0329 
L 362.903447 244.558652 
L 363.722853 244.835362 
L 363.885197 244.593384 
L 364.208373 244.703067 
L 364.369211 244.481296 
L 365.166029 244.751725 
L 365.323938 244.19969 
L 366.106377 244.469941 
L 366.261462 244.028574 
L 368.236606 244.662119 
L 368.533928 244.686935 
L 369.415833 244.982125 
L 369.561375 244.736868 
L 369.995574 244.803468 
L 370.139505 244.616653 
L 371.557336 245.064855 
L 372.389853 244.730792 
L 372.801168 244.868732 
L 372.937554 244.113207 
L 373.073584 243.993454 
L 374.015959 244.238834 
L 374.149202 244.203545 
L 374.282104 243.786588 
L 375.072466 244.051352 
L 375.203034 243.609818 
L 376.744811 244.127503 
L 377.248749 243.967272 
L 379.096204 244.525912 
L 379.457952 244.491689 
L 379.817202 244.6136 
L 379.936403 244.212627 
L 380.880305 244.431924 
L 380.997098 244.076039 
L 383.724247 244.868982 
L 383.834834 244.34903 
L 384.165191 244.450782 
L 384.38427 244.399583 
L 384.711169 244.474466 
L 384.927966 244.238351 
L 385.572989 244.393473 
L 385.786232 244.270145 
L 386.420766 244.440361 
L 386.630569 243.676211 
L 389.680144 244.66173 
L 390.658202 244.880144 
L 391.427624 245.082321 
L 391.618215 244.975428 
L 392.279837 245.085464 
L 392.467337 245.030884 
L 393.025816 245.21342 
L 393.210652 245.054929 
L 393.394833 245.028432 
L 395.643722 245.683861 
L 395.907172 245.684102 
L 396.169294 245.752214 
L 396.256375 245.414407 
L 396.343311 245.442273 
L 396.430102 245.470045 
L 396.603251 245.350735 
L 396.775826 245.290446 
L 397.033619 245.372479 
L 397.204774 245.276636 
L 398.052206 245.459934 
L 398.220049 245.270258 
L 398.303768 245.297295 
L 398.470802 245.207769 
L 398.968712 245.313969 
L 399.215892 245.055629 
L 400.031444 245.280827 
L 400.193032 245.238087 
L 400.273638 245.264188 
L 400.434476 245.04609 
L 401.546635 245.293509 
L 401.938143 245.353682 
L 402.093925 245.334552 
L 402.326727 245.409352 
L 402.481352 245.273722 
L 402.865915 245.376314 
L 403.018948 245.267577 
L 403.247657 245.334431 
L 403.399573 245.187461 
L 403.626619 245.220794 
L 404.450744 245.417995 
L 404.673258 245.434629 
L 405.408174 245.563176 
L 405.55392 245.299198 
L 406.060839 245.457 
L 406.20477 245.297082 
L 406.348304 245.343313 
L 406.705418 244.784341 
L 407.622601 245.083792 
L 407.762282 244.969265 
L 408.661182 245.184233 
L 408.729689 245.112421 
L 408.729689 245.112421 
" clip-path="url(#pddad22f68d)" style="fill: none; stroke: #ff7f0e; stroke-linecap: square"/>
   </g>
   <g id="line2d_45">
    <path d="M 99.655576 53.568 
L 120.752403 109.747171 
L 135.720841 142.935915 
L 147.331263 131.286177 
L 156.817668 145.281716 
L 164.83831 155.357401 
L 171.786106 166.560249 
L 177.914496 175.748725 
L 183.396528 183.380828 
L 197.04765 198.949003 
L 200.903575 203.084227 
L 204.493355 206.499873 
L 207.851371 193.730467 
L 213.979761 200.734668 
L 219.461793 206.446103 
L 222.000403 208.821857 
L 224.420894 210.728935 
L 228.948198 214.756319 
L 233.112915 218.198405 
L 238.794683 222.441147 
L 240.55862 223.52985 
L 242.264714 224.714292 
L 243.916636 217.457736 
L 245.517721 217.121071 
L 250.045026 220.640802 
L 251.470627 209.795586 
L 255.527058 213.535966 
L 260.486159 217.762062 
L 263.91803 220.477233 
L 266.086309 221.834569 
L 267.13748 222.389762 
L 268.167834 223.137683 
L 269.17818 221.459467 
L 273.955035 224.867147 
L 278.329979 227.758234 
L 279.162495 228.177496 
L 279.981901 227.608071 
L 280.788602 228.118805 
L 281.582986 227.017966 
L 283.895864 228.475342 
L 285.38257 229.173262 
L 286.110291 227.556942 
L 290.275007 230.116598 
L 290.937834 225.851351 
L 294.130933 227.933105 
L 294.746693 226.887868 
L 297.720713 228.76415 
L 298.864301 229.360736 
L 299.983295 227.507173 
L 301.617916 228.538654 
L 302.151574 228.716303 
L 302.679814 229.041433 
L 303.202745 222.354748 
L 304.740724 223.427681 
L 305.243445 223.524239 
L 307.207119 224.908421 
L 307.686672 223.377194 
L 310.0203 225.022854 
L 310.474723 225.084877 
L 313.549189 227.141067 
L 313.973936 226.786605 
L 314.395243 227.062663 
L 314.813167 226.880391 
L 315.639076 227.418037 
L 316.047166 227.468893 
L 316.45208 225.373018 
L 316.853867 225.646788 
L 317.252575 225.507466 
L 317.648251 225.7758 
L 318.040941 224.262187 
L 319.201536 225.070929 
L 319.582719 224.937311 
L 322.175556 226.689208 
L 322.535635 223.98462 
L 324.988737 225.591854 
L 325.329926 225.795127 
L 325.668893 225.747587 
L 326.005666 222.741784 
L 327.331372 223.684725 
L 327.657588 223.749847 
L 327.981771 223.976257 
L 328.303946 223.964637 
L 331.117127 225.854695 
L 332.616689 226.592694 
L 334.07424 227.546698 
L 334.360914 227.437682 
L 334.646017 225.978847 
L 338.216839 228.303833 
L 338.481629 227.987048 
L 340.042682 228.958544 
L 340.298364 228.176785 
L 341.057957 228.655229 
L 341.30871 228.597614 
L 342.053799 229.040511 
L 342.29981 228.895108 
L 342.544663 227.333823 
L 344.697984 228.696761 
L 344.931833 228.153988 
L 347.658982 229.802751 
L 347.879921 229.655122 
L 348.099926 229.78843 
L 348.319005 229.451756 
L 350.66989 230.762379 
L 351.086141 231.002119 
L 351.293025 230.019205 
L 351.704341 230.249295 
L 351.908786 230.214659 
L 354.301446 231.566231 
L 354.495955 231.308376 
L 354.68974 231.419901 
L 354.882806 231.332886 
L 355.266801 231.553304 
L 355.457742 230.476016 
L 356.402072 231.030364 
L 356.588899 230.210767 
L 357.5131 230.758018 
L 357.695987 230.456797 
L 358.059843 230.669716 
L 358.240821 230.598058 
L 358.780009 230.793217 
L 358.958504 230.401315 
L 360.19111 231.014849 
L 360.537986 231.127786 
L 361.224876 231.523712 
L 361.395191 231.350088 
L 361.902817 231.639174 
L 362.070931 230.694167 
L 362.405537 230.887821 
L 362.903447 230.508902 
L 363.722853 230.989468 
L 363.885197 230.759799 
L 364.208373 230.948942 
L 364.369211 230.744246 
L 365.166029 231.208366 
L 365.323938 230.459432 
L 366.106377 230.919845 
L 366.261462 230.384155 
L 368.236606 231.492027 
L 368.533928 231.589185 
L 369.415833 232.089066 
L 369.561375 231.844066 
L 369.995574 232.012836 
L 370.139505 231.84218 
L 371.557336 232.611225 
L 372.389853 232.447851 
L 372.801168 232.67554 
L 372.937554 231.17494 
L 373.073584 231.082271 
L 374.015959 231.545292 
L 374.149202 231.542246 
L 374.282104 231.026221 
L 375.072466 231.470704 
L 375.203034 230.907517 
L 376.744811 231.771874 
L 377.248749 231.703878 
L 379.096204 232.664507 
L 379.457952 232.709818 
L 379.817202 232.907256 
L 379.936403 232.397876 
L 380.880305 232.819347 
L 380.997098 232.387251 
L 383.724247 233.742376 
L 383.834834 232.9547 
L 384.165191 233.124376 
L 384.38427 233.114961 
L 384.711169 233.257312 
L 384.81968 232.981687 
L 385.572989 233.305321 
L 385.679719 233.152258 
L 386.420766 233.506095 
L 386.630569 232.425173 
L 389.680144 234.011902 
L 390.658202 234.41949 
L 391.427624 234.766932 
L 391.618215 234.68286 
L 392.279837 234.913178 
L 392.467337 234.889366 
L 393.025816 235.173307 
L 393.118316 234.973466 
L 393.210652 235.020471 
L 393.394833 235.026868 
L 395.643722 236.081764 
L 395.819503 236.085611 
L 396.169294 236.242255 
L 396.256375 235.79744 
L 396.343311 235.840361 
L 396.430102 235.88314 
L 396.603251 235.777537 
L 396.775826 235.742426 
L 397.033619 235.868738 
L 397.204774 235.794102 
L 398.052206 236.119535 
L 398.136195 235.873893 
L 398.220049 235.915173 
L 398.303768 235.956296 
L 398.470802 235.884984 
L 398.968712 236.076573 
L 399.215892 235.840666 
L 400.031444 236.201789 
L 400.193032 236.182877 
L 400.273638 236.22209 
L 400.434476 235.982445 
L 401.625173 236.447704 
L 401.781893 236.456979 
L 402.326727 236.649005 
L 402.481352 236.530635 
L 402.865915 236.694371 
L 403.018948 236.594167 
L 403.247657 236.696912 
L 403.323671 236.509247 
L 403.399573 236.545682 
L 403.626619 236.614916 
L 404.450744 236.938743 
L 404.673258 236.989426 
L 405.408174 237.228995 
L 405.55392 236.93359 
L 406.060839 237.16746 
L 406.132854 236.960635 
L 406.20477 236.994575 
L 406.348304 237.062179 
L 406.776547 236.437683 
L 407.622601 236.839713 
L 407.762282 236.728461 
L 408.661182 237.076532 
L 408.729689 237.010915 
L 408.729689 237.010915 
" clip-path="url(#pddad22f68d)" style="fill: none; stroke: #ff7f0e; stroke-linecap: square"/>
   </g>
   <g id="patch_3">
    <path d="M 57.6 307.584 
L 57.6 41.472 
" style="fill: none; stroke: #000000; stroke-width: 0.8; stroke-linejoin: miter; stroke-linecap: square"/>
   </g>
   <g id="patch_4">
    <path d="M 414.72 307.584 
L 414.72 41.472 
" style="fill: none; stroke: #000000; stroke-width: 0.8; stroke-linejoin: miter; stroke-linecap: square"/>
   </g>
   <g id="patch_5">
    <path d="M 57.6 307.584 
L 414.72 307.584 
" style="fill: none; stroke: #000000; stroke-width: 0.8; stroke-linejoin: miter; stroke-linecap: square"/>
   </g>
   <g id="patch_6">
    <path d="M 57.6 41.472 
L 414.72 41.472 
" style="fill: none; stroke: #000000; stroke-width: 0.8; stroke-linejoin: miter; stroke-linecap: square"/>
   </g>
   <g id="legend_1">
    <g id="patch_7">
     <path d="M 277.187187 80.82825 
L 409.72 80.82825 
Q 411.72 80.82825 411.72 78.82825 
L 411.72 50.472 
Q 411.72 48.472 409.72 48.472 
L 277.187187 48.472 
Q 275.187187 48.472 275.187187 50.472 
L 275.187187 78.82825 
Q 275.187187 80.82825 277.187187 80.82825 
z
" style="fill: #4d4d4d; opacity: 0.5; stroke: #4d4d4d; stroke-linejoin: miter"/>
    </g>
    <g id="patch_8">
     <path d="M 275.187187 78.82825 
L 407.72 78.82825 
Q 409.72 78.82825 409.72 76.82825 
L 409.72 48.472 
Q 409.72 46.472 407.72 46.472 
L 275.187187 46.472 
Q 273.187187 46.472 273.187187 48.472 
L 273.187187 76.82825 
Q 273.187187 78.82825 275.187187 78.82825 
z
" style="fill: #ffffff; stroke: #cccccc; stroke-linejoin: miter"/>
    </g>
    <g id="line2d_46">
     <path d="M 277.187187 54.570437 
L 287.187187 54.570437 
L 297.187187 54.570437 
" style="fill: none; stroke: #1f77b4; stroke-width: 2; stroke-linecap: square"/>
    </g>
    <g id="text_13">
     <!-- probability estimate -->
     <g transform="translate(305.187187 58.070437) scale(0.1 -0.1)">
      <defs>
       <path id="DejaVuSans-70" d="M 1159 525 
L 1159 -1331 
L 581 -1331 
L 581 3500 
L 1159 3500 
L 1159 2969 
Q 1341 3281 1617 3432 
Q 1894 3584 2278 3584 
Q 2916 3584 3314 3078 
Q 3713 2572 3713 1747 
Q 3713 922 3314 415 
Q 2916 -91 2278 -91 
Q 1894 -91 1617 61 
Q 1341 213 1159 525 
z
M 3116 1747 
Q 3116 2381 2855 2742 
Q 2594 3103 2138 3103 
Q 1681 3103 1420 2742 
Q 1159 2381 1159 1747 
Q 1159 1113 1420 752 
Q 1681 391 2138 391 
Q 2594 391 2855 752 
Q 3116 1113 3116 1747 
z
" transform="scale(0.015625)"/>
       <path id="DejaVuSans-62" d="M 3116 1747 
Q 3116 2381 2855 2742 
Q 2594 3103 2138 3103 
Q 1681 3103 1420 2742 
Q 1159 2381 1159 1747 
Q 1159 1113 1420 752 
Q 1681 391 2138 391 
Q 2594 391 2855 752 
Q 3116 1113 3116 1747 
z
M 1159 2969 
Q 1341 3281 1617 3432 
Q 1894 3584 2278 3584 
Q 2916 3584 3314 3078 
Q 3713 2572 3713 1747 
Q 3713 922 3314 415 
Q 2916 -91 2278 -91 
Q 1894 -91 1617 61 
Q 1341 213 1159 525 
L 1159 0 
L 581 0 
L 581 4863 
L 1159 4863 
L 1159 2969 
z
" transform="scale(0.015625)"/>
       <path id="DejaVuSans-6c" d="M 603 4863 
L 1178 4863 
L 1178 0 
L 603 0 
L 603 4863 
z
" transform="scale(0.015625)"/>
       <path id="DejaVuSans-79" d="M 2059 -325 
Q 1816 -950 1584 -1140 
Q 1353 -1331 966 -1331 
L 506 -1331 
L 506 -850 
L 844 -850 
Q 1081 -850 1212 -737 
Q 1344 -625 1503 -206 
L 1606 56 
L 191 3500 
L 800 3500 
L 1894 763 
L 2988 3500 
L 3597 3500 
L 2059 -325 
z
" transform="scale(0.015625)"/>
      </defs>
      <use xlink:href="#DejaVuSans-70"/>
      <use xlink:href="#DejaVuSans-72" transform="translate(63.476562 0)"/>
      <use xlink:href="#DejaVuSans-6f" transform="translate(102.339844 0)"/>
      <use xlink:href="#DejaVuSans-62" transform="translate(163.521484 0)"/>
      <use xlink:href="#DejaVuSans-61" transform="translate(226.998047 0)"/>
      <use xlink:href="#DejaVuSans-62" transform="translate(288.277344 0)"/>
      <use xlink:href="#DejaVuSans-69" transform="translate(351.753906 0)"/>
      <use xlink:href="#DejaVuSans-6c" transform="translate(379.537109 0)"/>
      <use xlink:href="#DejaVuSans-69" transform="translate(407.320312 0)"/>
      <use xlink:href="#DejaVuSans-74" transform="translate(435.103516 0)"/>
      <use xlink:href="#DejaVuSans-79" transform="translate(474.3125 0)"/>
      <use xlink:href="#DejaVuSans-20" transform="translate(533.492188 0)"/>
      <use xlink:href="#DejaVuSans-65" transform="translate(565.279297 0)"/>
      <use xlink:href="#DejaVuSans-73" transform="translate(626.802734 0)"/>
      <use xlink:href="#DejaVuSans-74" transform="translate(678.902344 0)"/>
      <use xlink:href="#DejaVuSans-69" transform="translate(718.111328 0)"/>
      <use xlink:href="#DejaVuSans-6d" transform="translate(745.894531 0)"/>
      <use xlink:href="#DejaVuSans-61" transform="translate(843.306641 0)"/>
      <use xlink:href="#DejaVuSans-74" transform="translate(904.585938 0)"/>
      <use xlink:href="#DejaVuSans-65" transform="translate(943.794922 0)"/>
     </g>
    </g>
    <g id="line2d_47">
     <path d="M 277.187187 69.248562 
L 287.187187 69.248562 
L 297.187187 69.248562 
" style="fill: none; stroke: #ff7f0e; stroke-linecap: square"/>
    </g>
    <g id="text_14">
     <!-- bounds -->
     <g transform="translate(305.187187 72.748562) scale(0.1 -0.1)">
      <defs>
       <path id="DejaVuSans-64" d="M 2906 2969 
L 2906 4863 
L 3481 4863 
L 3481 0 
L 2906 0 
L 2906 525 
Q 2725 213 2448 61 
Q 2172 -91 1784 -91 
Q 1150 -91 751 415 
Q 353 922 353 1747 
Q 353 2572 751 3078 
Q 1150 3584 1784 3584 
Q 2172 3584 2448 3432 
Q 2725 3281 2906 2969 
z
M 947 1747 
Q 947 1113 1208 752 
Q 1469 391 1925 391 
Q 2381 391 2643 752 
Q 2906 1113 2906 1747 
Q 2906 2381 2643 2742 
Q 2381 3103 1925 3103 
Q 1469 3103 1208 2742 
Q 947 2381 947 1747 
z
" transform="scale(0.015625)"/>
      </defs>
      <use xlink:href="#DejaVuSans-62"/>
      <use xlink:href="#DejaVuSans-6f" transform="translate(63.476562 0)"/>
      <use xlink:href="#DejaVuSans-75" transform="translate(124.658203 0)"/>
      <use xlink:href="#DejaVuSans-6e" transform="translate(188.037109 0)"/>
      <use xlink:href="#DejaVuSans-64" transform="translate(251.416016 0)"/>
      <use xlink:href="#DejaVuSans-73" transform="translate(314.892578 0)"/>
     </g>
    </g>
   </g>
  </g>
  <g id="text_15">
   <!-- ProbabilitySimulationAlgorithm convergence graph at level 0.95 -->
   <g transform="translate(37.914375 16.030125) scale(0.12 -0.12)">
    <defs>
     <path id="DejaVuSans-50" d="M 1259 4147 
L 1259 2394 
L 2053 2394 
Q 2494 2394 2734 2622 
Q 2975 2850 2975 3272 
Q 2975 3691 2734 3919 
Q 2494 4147 2053 4147 
L 1259 4147 
z
M 628 4666 
L 2053 4666 
Q 2838 4666 3239 4311 
Q 3641 3956 3641 3272 
Q 3641 2581 3239 2228 
Q 2838 1875 2053 1875 
L 1259 1875 
L 1259 0 
L 628 0 
L 628 4666 
z
" transform="scale(0.015625)"/>
     <path id="DejaVuSans-53" d="M 3425 4513 
L 3425 3897 
Q 3066 4069 2747 4153 
Q 2428 4238 2131 4238 
Q 1616 4238 1336 4038 
Q 1056 3838 1056 3469 
Q 1056 3159 1242 3001 
Q 1428 2844 1947 2747 
L 2328 2669 
Q 3034 2534 3370 2195 
Q 3706 1856 3706 1288 
Q 3706 609 3251 259 
Q 2797 -91 1919 -91 
Q 1588 -91 1214 -16 
Q 841 59 441 206 
L 441 856 
Q 825 641 1194 531 
Q 1563 422 1919 422 
Q 2459 422 2753 634 
Q 3047 847 3047 1241 
Q 3047 1584 2836 1778 
Q 2625 1972 2144 2069 
L 1759 2144 
Q 1053 2284 737 2584 
Q 422 2884 422 3419 
Q 422 4038 858 4394 
Q 1294 4750 2059 4750 
Q 2388 4750 2728 4690 
Q 3069 4631 3425 4513 
z
" transform="scale(0.015625)"/>
     <path id="DejaVuSans-41" d="M 2188 4044 
L 1331 1722 
L 3047 1722 
L 2188 4044 
z
M 1831 4666 
L 2547 4666 
L 4325 0 
L 3669 0 
L 3244 1197 
L 1141 1197 
L 716 0 
L 50 0 
L 1831 4666 
z
" transform="scale(0.015625)"/>
     <path id="DejaVuSans-67" d="M 2906 1791 
Q 2906 2416 2648 2759 
Q 2391 3103 1925 3103 
Q 1463 3103 1205 2759 
Q 947 2416 947 1791 
Q 947 1169 1205 825 
Q 1463 481 1925 481 
Q 2391 481 2648 825 
Q 2906 1169 2906 1791 
z
M 3481 434 
Q 3481 -459 3084 -895 
Q 2688 -1331 1869 -1331 
Q 1566 -1331 1297 -1286 
Q 1028 -1241 775 -1147 
L 775 -588 
Q 1028 -725 1275 -790 
Q 1522 -856 1778 -856 
Q 2344 -856 2625 -561 
Q 2906 -266 2906 331 
L 2906 616 
Q 2728 306 2450 153 
Q 2172 0 1784 0 
Q 1141 0 747 490 
Q 353 981 353 1791 
Q 353 2603 747 3093 
Q 1141 3584 1784 3584 
Q 2172 3584 2450 3431 
Q 2728 3278 2906 2969 
L 2906 3500 
L 3481 3500 
L 3481 434 
z
" transform="scale(0.015625)"/>
     <path id="DejaVuSans-68" d="M 3513 2113 
L 3513 0 
L 2938 0 
L 2938 2094 
Q 2938 2591 2744 2837 
Q 2550 3084 2163 3084 
Q 1697 3084 1428 2787 
Q 1159 2491 1159 1978 
L 1159 0 
L 581 0 
L 581 4863 
L 1159 4863 
L 1159 2956 
Q 1366 3272 1645 3428 
Q 1925 3584 2291 3584 
Q 2894 3584 3203 3211 
Q 3513 2838 3513 2113 
z
" transform="scale(0.015625)"/>
     <path id="DejaVuSans-63" d="M 3122 3366 
L 3122 2828 
Q 2878 2963 2633 3030 
Q 2388 3097 2138 3097 
Q 1578 3097 1268 2742 
Q 959 2388 959 1747 
Q 959 1106 1268 751 
Q 1578 397 2138 397 
Q 2388 397 2633 464 
Q 2878 531 3122 666 
L 3122 134 
Q 2881 22 2623 -34 
Q 2366 -91 2075 -91 
Q 1284 -91 818 406 
Q 353 903 353 1747 
Q 353 2603 823 3093 
Q 1294 3584 2113 3584 
Q 2378 3584 2631 3529 
Q 2884 3475 3122 3366 
z
" transform="scale(0.015625)"/>
     <path id="DejaVuSans-76" d="M 191 3500 
L 800 3500 
L 1894 563 
L 2988 3500 
L 3597 3500 
L 2284 0 
L 1503 0 
L 191 3500 
z
" transform="scale(0.015625)"/>
     <path id="DejaVuSans-2e" d="M 684 794 
L 1344 794 
L 1344 0 
L 684 0 
L 684 794 
z
" transform="scale(0.015625)"/>
     <path id="DejaVuSans-39" d="M 703 97 
L 703 672 
Q 941 559 1184 500 
Q 1428 441 1663 441 
Q 2288 441 2617 861 
Q 2947 1281 2994 2138 
Q 2813 1869 2534 1725 
Q 2256 1581 1919 1581 
Q 1219 1581 811 2004 
Q 403 2428 403 3163 
Q 403 3881 828 4315 
Q 1253 4750 1959 4750 
Q 2769 4750 3195 4129 
Q 3622 3509 3622 2328 
Q 3622 1225 3098 567 
Q 2575 -91 1691 -91 
Q 1453 -91 1209 -44 
Q 966 3 703 97 
z
M 1959 2075 
Q 2384 2075 2632 2365 
Q 2881 2656 2881 3163 
Q 2881 3666 2632 3958 
Q 2384 4250 1959 4250 
Q 1534 4250 1286 3958 
Q 1038 3666 1038 3163 
Q 1038 2656 1286 2365 
Q 1534 2075 1959 2075 
z
" transform="scale(0.015625)"/>
     <path id="DejaVuSans-35" d="M 691 4666 
L 3169 4666 
L 3169 4134 
L 1269 4134 
L 1269 2991 
Q 1406 3038 1543 3061 
Q 1681 3084 1819 3084 
Q 2600 3084 3056 2656 
Q 3513 2228 3513 1497 
Q 3513 744 3044 326 
Q 2575 -91 1722 -91 
Q 1428 -91 1123 -41 
Q 819 9 494 109 
L 494 744 
Q 775 591 1075 516 
Q 1375 441 1709 441 
Q 2250 441 2565 725 
Q 2881 1009 2881 1497 
Q 2881 1984 2565 2268 
Q 2250 2553 1709 2553 
Q 1456 2553 1204 2497 
Q 953 2441 691 2322 
L 691 4666 
z
" transform="scale(0.015625)"/>
    </defs>
    <use xlink:href="#DejaVuSans-50"/>
    <use xlink:href="#DejaVuSans-72" transform="translate(58.552734 0)"/>
    <use xlink:href="#DejaVuSans-6f" transform="translate(97.416016 0)"/>
    <use xlink:href="#DejaVuSans-62" transform="translate(158.597656 0)"/>
    <use xlink:href="#DejaVuSans-61" transform="translate(222.074219 0)"/>
    <use xlink:href="#DejaVuSans-62" transform="translate(283.353516 0)"/>
    <use xlink:href="#DejaVuSans-69" transform="translate(346.830078 0)"/>
    <use xlink:href="#DejaVuSans-6c" transform="translate(374.613281 0)"/>
    <use xlink:href="#DejaVuSans-69" transform="translate(402.396484 0)"/>
    <use xlink:href="#DejaVuSans-74" transform="translate(430.179688 0)"/>
    <use xlink:href="#DejaVuSans-79" transform="translate(469.388672 0)"/>
    <use xlink:href="#DejaVuSans-53" transform="translate(528.568359 0)"/>
    <use xlink:href="#DejaVuSans-69" transform="translate(592.044922 0)"/>
    <use xlink:href="#DejaVuSans-6d" transform="translate(619.828125 0)"/>
    <use xlink:href="#DejaVuSans-75" transform="translate(717.240234 0)"/>
    <use xlink:href="#DejaVuSans-6c" transform="translate(780.619141 0)"/>
    <use xlink:href="#DejaVuSans-61" transform="translate(808.402344 0)"/>
    <use xlink:href="#DejaVuSans-74" transform="translate(869.681641 0)"/>
    <use xlink:href="#DejaVuSans-69" transform="translate(908.890625 0)"/>
    <use xlink:href="#DejaVuSans-6f" transform="translate(936.673828 0)"/>
    <use xlink:href="#DejaVuSans-6e" transform="translate(997.855469 0)"/>
    <use xlink:href="#DejaVuSans-41" transform="translate(1061.234375 0)"/>
    <use xlink:href="#DejaVuSans-6c" transform="translate(1129.642578 0)"/>
    <use xlink:href="#DejaVuSans-67" transform="translate(1157.425781 0)"/>
    <use xlink:href="#DejaVuSans-6f" transform="translate(1220.902344 0)"/>
    <use xlink:href="#DejaVuSans-72" transform="translate(1282.083984 0)"/>
    <use xlink:href="#DejaVuSans-69" transform="translate(1323.197266 0)"/>
    <use xlink:href="#DejaVuSans-74" transform="translate(1350.980469 0)"/>
    <use xlink:href="#DejaVuSans-68" transform="translate(1390.189453 0)"/>
    <use xlink:href="#DejaVuSans-6d" transform="translate(1453.568359 0)"/>
    <use xlink:href="#DejaVuSans-20" transform="translate(1550.980469 0)"/>
    <use xlink:href="#DejaVuSans-63" transform="translate(1582.767578 0)"/>
    <use xlink:href="#DejaVuSans-6f" transform="translate(1637.748047 0)"/>
    <use xlink:href="#DejaVuSans-6e" transform="translate(1698.929688 0)"/>
    <use xlink:href="#DejaVuSans-76" transform="translate(1762.308594 0)"/>
    <use xlink:href="#DejaVuSans-65" transform="translate(1821.488281 0)"/>
    <use xlink:href="#DejaVuSans-72" transform="translate(1883.011719 0)"/>
    <use xlink:href="#DejaVuSans-67" transform="translate(1922.375 0)"/>
    <use xlink:href="#DejaVuSans-65" transform="translate(1985.851562 0)"/>
    <use xlink:href="#DejaVuSans-6e" transform="translate(2047.375 0)"/>
    <use xlink:href="#DejaVuSans-63" transform="translate(2110.753906 0)"/>
    <use xlink:href="#DejaVuSans-65" transform="translate(2165.734375 0)"/>
    <use xlink:href="#DejaVuSans-20" transform="translate(2227.257812 0)"/>
    <use xlink:href="#DejaVuSans-67" transform="translate(2259.044922 0)"/>
    <use xlink:href="#DejaVuSans-72" transform="translate(2322.521484 0)"/>
    <use xlink:href="#DejaVuSans-61" transform="translate(2363.634766 0)"/>
    <use xlink:href="#DejaVuSans-70" transform="translate(2424.914062 0)"/>
    <use xlink:href="#DejaVuSans-68" transform="translate(2488.390625 0)"/>
    <use xlink:href="#DejaVuSans-20" transform="translate(2551.769531 0)"/>
    <use xlink:href="#DejaVuSans-61" transform="translate(2583.556641 0)"/>
    <use xlink:href="#DejaVuSans-74" transform="translate(2644.835938 0)"/>
    <use xlink:href="#DejaVuSans-20" transform="translate(2684.044922 0)"/>
    <use xlink:href="#DejaVuSans-6c" transform="translate(2715.832031 0)"/>
    <use xlink:href="#DejaVuSans-65" transform="translate(2743.615234 0)"/>
    <use xlink:href="#DejaVuSans-76" transform="translate(2805.138672 0)"/>
    <use xlink:href="#DejaVuSans-65" transform="translate(2864.318359 0)"/>
    <use xlink:href="#DejaVuSans-6c" transform="translate(2925.841797 0)"/>
    <use xlink:href="#DejaVuSans-20" transform="translate(2953.625 0)"/>
    <use xlink:href="#DejaVuSans-30" transform="translate(2985.412109 0)"/>
    <use xlink:href="#DejaVuSans-2e" transform="translate(3049.035156 0)"/>
    <use xlink:href="#DejaVuSans-39" transform="translate(3080.822266 0)"/>
    <use xlink:href="#DejaVuSans-35" transform="translate(3144.445312 0)"/>
   </g>
  </g>
 </g>
 <defs>
  <clipPath id="pddad22f68d">
   <rect x="57.6" y="41.472" width="357.12" height="266.112"/>
  </clipPath>
 </defs>
</svg>
