<?xml version="1.0" encoding="utf-8" standalone="no"?>
<!DOCTYPE svg PUBLIC "-//W3C//DTD SVG 1.1//EN"
  "http://www.w3.org/Graphics/SVG/1.1/DTD/svg11.dtd">
<svg xmlns:xlink="http://www.w3.org/1999/xlink" width="460.8pt" height="345.6pt" viewBox="0 0 460.8 345.6" xmlns="http://www.w3.org/2000/svg" version="1.1">
 <metadata>
  <rdf:RDF xmlns:dc="http://purl.org/dc/elements/1.1/" xmlns:cc="http://creativecommons.org/ns#" xmlns:rdf="http://www.w3.org/1999/02/22-rdf-syntax-ns#">
   <cc:Work>
    <dc:type rdf:resource="http://purl.org/dc/dcmitype/StillImage"/>
    <dc:date>2022-01-01T00:00:00+00:00</dc:date>
    <dc:format>image/svg+xml</dc:format>
    <dc:creator>
     <cc:Agent>
      <dc:title>Matplotlib v3.10.8, https://matplotlib.org/</dc:title>
     </cc:Agent>
    </dc:creator>
   </cc:Work>
  </rdf:RDF>
 </metadata>
 <defs>
  <style type="text/css">*{stroke-linejoin: round; stroke-linecap: butt}</style>
 </defs>
 <g id="figure_1">
  <g id="patch_1">
   <path d="M 0 345.6 
L 460.8 345.6 
L 460.8 0 
L 0 0 
z
" style="fill: #ffffff"/>
  </g>
  <g id="axes_1">
   <g id="patch_2">
    <path d="M 57.6 307.584 
L 414.72 307.584 
L 414.72 41.472 
L 57.6 41.472 
z
" style="fill: #ffffff"/>
   </g>
   <g id="matplotlib.axis_1">
    <g id="xtick_1">
     <g id="line2d_1">
      <path d="M 61.850661 307.584 
L 61.850661 41.472 
" clip-path="url(#p25dcc5c28f)" style="fill: none; stroke: #b0b0b0; stroke-width: 0.8; stroke-linecap: square"/>
     </g>
     <g id="line2d_2">
      <defs>
       <path id="mfa7cfece26" d="M 0 0 
L 0 3.5 
" style="stroke: #000000; stroke-width: 0.8"/>
      </defs>
      <g>
       <use xlink:href="#mfa7cfece26" x="61.850661" y="307.584" style="stroke: #000000; stroke-width: 0.8"/>
      </g>
     </g>
     <g id="text_1">
      <!-- $\mathdefault{10^{-1}}$ -->
      <g transform="translate(50.100661 322.182437) scale(0.1 -0.1)">
       <defs>
        <path id="DejaVuSans-31" d="M 794 531 
L 1825 531 
L 1825 4091 
L 703 3866 
L 703 4441 
L 1819 4666 
L 2450 4666 
L 2450 531 
L 3481 531 
L 3481 0 
L 794 0 
L 794 531 
z
" transform="scale(0.015625)"/>
        <path id="DejaVuSans-30" d="M 2034 4250 
Q 1547 4250 1301 3770 
Q 1056 3291 1056 2328 
Q 1056 1369 1301 889 
Q 1547 409 2034 409 
Q 2525 409 2770 889 
Q 3016 1369 3016 2328 
Q 3016 3291 2770 3770 
Q 2525 4250 2034 4250 
z
M 2034 4750 
Q 2819 4750 3233 4129 
Q 3647 3509 3647 2328 
Q 3647 1150 3233 529 
Q 2819 -91 2034 -91 
Q 1250 -91 836 529 
Q 422 1150 422 2328 
Q 422 3509 836 4129 
Q 1250 4750 2034 4750 
z
" transform="scale(0.015625)"/>
        <path id="DejaVuSans-2212" d="M 678 2272 
L 4684 2272 
L 4684 1741 
L 678 1741 
L 678 2272 
z
" transform="scale(0.015625)"/>
       </defs>
       <use xlink:href="#DejaVuSans-31" transform="translate(0 0.684375)"/>
       <use xlink:href="#DejaVuSans-30" transform="translate(63.623047 0.684375)"/>
       <use xlink:href="#DejaVuSans-2212" transform="translate(128.203125 38.965625) scale(0.7)"/>
       <use xlink:href="#DejaVuSans-31" transform="translate(186.855469 38.965625) scale(0.7)"/>
      </g>
     </g>
    </g>
    <g id="xtick_2">
     <g id="line2d_3">
      <path d="M 166.141752 307.584 
L 166.141752 41.472 
" clip-path="url(#p25dcc5c28f)" style="fill: none; stroke: #b0b0b0; stroke-width: 0.8; stroke-linecap: square"/>
     </g>
     <g id="line2d_4">
      <g>
       <use xlink:href="#mfa7cfece26" x="166.141752" y="307.584" style="stroke: #000000; stroke-width: 0.8"/>
      </g>
     </g>
     <g id="text_2">
      <!-- $\mathdefault{10^{0}}$ -->
      <g transform="translate(157.341752 322.182437) scale(0.1 -0.1)">
       <use xlink:href="#DejaVuSans-31" transform="translate(0 0.765625)"/>
       <use xlink:href="#DejaVuSans-30" transform="translate(63.623047 0.765625)"/>
       <use xlink:href="#DejaVuSans-30" transform="translate(128.203125 39.046875) scale(0.7)"/>
      </g>
     </g>
    </g>
    <g id="xtick_3">
     <g id="line2d_5">
      <path d="M 270.432842 307.584 
L 270.432842 41.472 
" clip-path="url(#p25dcc5c28f)" style="fill: none; stroke: #b0b0b0; stroke-width: 0.8; stroke-linecap: square"/>
     </g>
     <g id="line2d_6">
      <g>
       <use xlink:href="#mfa7cfece26" x="270.432842" y="307.584" style="stroke: #000000; stroke-width: 0.8"/>
      </g>
     </g>
     <g id="text_3">
      <!-- $\mathdefault{10^{1}}$ -->
      <g transform="translate(261.632842 322.182437) scale(0.1 -0.1)">
       <use xlink:href="#DejaVuSans-31" transform="translate(0 0.684375)"/>
       <use xlink:href="#DejaVuSans-30" transform="translate(63.623047 0.684375)"/>
       <use xlink:href="#DejaVuSans-31" transform="translate(128.203125 38.965625) scale(0.7)"/>
      </g>
     </g>
    </g>
    <g id="xtick_4">
     <g id="line2d_7">
      <path d="M 374.723933 307.584 
L 374.723933 41.472 
" clip-path="url(#p25dcc5c28f)" style="fill: none; stroke: #b0b0b0; stroke-width: 0.8; stroke-linecap: square"/>
     </g>
     <g id="line2d_8">
      <g>
       <use xlink:href="#mfa7cfece26" x="374.723933" y="307.584" style="stroke: #000000; stroke-width: 0.8"/>
      </g>
     </g>
     <g id="text_4">
      <!-- $\mathdefault{10^{2}}$ -->
      <g transform="translate(365.923933 322.182437) scale(0.1 -0.1)">
       <defs>
        <path id="DejaVuSans-32" d="M 1228 531 
L 3431 531 
L 3431 0 
L 469 0 
L 469 531 
Q 828 903 1448 1529 
Q 2069 2156 2228 2338 
Q 2531 2678 2651 2914 
Q 2772 3150 2772 3378 
Q 2772 3750 2511 3984 
Q 2250 4219 1831 4219 
Q 1534 4219 1204 4116 
Q 875 4013 500 3803 
L 500 4441 
Q 881 4594 1212 4672 
Q 1544 4750 1819 4750 
Q 2544 4750 2975 4387 
Q 3406 4025 3406 3419 
Q 3406 3131 3298 2873 
Q 3191 2616 2906 2266 
Q 2828 2175 2409 1742 
Q 1991 1309 1228 531 
z
" transform="scale(0.015625)"/>
       </defs>
       <use xlink:href="#DejaVuSans-31" transform="translate(0 0.765625)"/>
       <use xlink:href="#DejaVuSans-30" transform="translate(63.623047 0.765625)"/>
       <use xlink:href="#DejaVuSans-32" transform="translate(128.203125 39.046875) scale(0.7)"/>
      </g>
     </g>
    </g>
    <g id="xtick_5">
     <g id="line2d_9">
      <defs>
       <path id="mb800906034" d="M 0 0 
L 0 2 
" style="stroke: #000000; stroke-width: 0.6"/>
      </defs>
      <g>
       <use xlink:href="#mb800906034" x="93.245407" y="307.584" style="stroke: #000000; stroke-width: 0.6"/>
      </g>
     </g>
    </g>
    <g id="xtick_6">
     <g id="line2d_10">
      <g>
       <use xlink:href="#mb800906034" x="111.610157" y="307.584" style="stroke: #000000; stroke-width: 0.6"/>
      </g>
     </g>
    </g>
    <g id="xtick_7">
     <g id="line2d_11">
      <g>
       <use xlink:href="#mb800906034" x="124.640154" y="307.584" style="stroke: #000000; stroke-width: 0.6"/>
      </g>
     </g>
    </g>
    <g id="xtick_8">
     <g id="line2d_12">
      <g>
       <use xlink:href="#mb800906034" x="134.747005" y="307.584" style="stroke: #000000; stroke-width: 0.6"/>
      </g>
     </g>
    </g>
    <g id="xtick_9">
     <g id="line2d_13">
      <g>
       <use xlink:href="#mb800906034" x="143.004903" y="307.584" style="stroke: #000000; stroke-width: 0.6"/>
      </g>
     </g>
    </g>
    <g id="xtick_10">
     <g id="line2d_14">
      <g>
       <use xlink:href="#mb800906034" x="149.986857" y="307.584" style="stroke: #000000; stroke-width: 0.6"/>
      </g>
     </g>
    </g>
    <g id="xtick_11">
     <g id="line2d_15">
      <g>
       <use xlink:href="#mb800906034" x="156.034901" y="307.584" style="stroke: #000000; stroke-width: 0.6"/>
      </g>
     </g>
    </g>
    <g id="xtick_12">
     <g id="line2d_16">
      <g>
       <use xlink:href="#mb800906034" x="161.369653" y="307.584" style="stroke: #000000; stroke-width: 0.6"/>
      </g>
     </g>
    </g>
    <g id="xtick_13">
     <g id="line2d_17">
      <g>
       <use xlink:href="#mb800906034" x="197.536498" y="307.584" style="stroke: #000000; stroke-width: 0.6"/>
      </g>
     </g>
    </g>
    <g id="xtick_14">
     <g id="line2d_18">
      <g>
       <use xlink:href="#mb800906034" x="215.901248" y="307.584" style="stroke: #000000; stroke-width: 0.6"/>
      </g>
     </g>
    </g>
    <g id="xtick_15">
     <g id="line2d_19">
      <g>
       <use xlink:href="#mb800906034" x="228.931245" y="307.584" style="stroke: #000000; stroke-width: 0.6"/>
      </g>
     </g>
    </g>
    <g id="xtick_16">
     <g id="line2d_20">
      <g>
       <use xlink:href="#mb800906034" x="239.038096" y="307.584" style="stroke: #000000; stroke-width: 0.6"/>
      </g>
     </g>
    </g>
    <g id="xtick_17">
     <g id="line2d_21">
      <g>
       <use xlink:href="#mb800906034" x="247.295994" y="307.584" style="stroke: #000000; stroke-width: 0.6"/>
      </g>
     </g>
    </g>
    <g id="xtick_18">
     <g id="line2d_22">
      <g>
       <use xlink:href="#mb800906034" x="254.277948" y="307.584" style="stroke: #000000; stroke-width: 0.6"/>
      </g>
     </g>
    </g>
    <g id="xtick_19">
     <g id="line2d_23">
      <g>
       <use xlink:href="#mb800906034" x="260.325991" y="307.584" style="stroke: #000000; stroke-width: 0.6"/>
      </g>
     </g>
    </g>
    <g id="xtick_20">
     <g id="line2d_24">
      <g>
       <use xlink:href="#mb800906034" x="265.660744" y="307.584" style="stroke: #000000; stroke-width: 0.6"/>
      </g>
     </g>
    </g>
    <g id="xtick_21">
     <g id="line2d_25">
      <g>
       <use xlink:href="#mb800906034" x="301.827589" y="307.584" style="stroke: #000000; stroke-width: 0.6"/>
      </g>
     </g>
    </g>
    <g id="xtick_22">
     <g id="line2d_26">
      <g>
       <use xlink:href="#mb800906034" x="320.192338" y="307.584" style="stroke: #000000; stroke-width: 0.6"/>
      </g>
     </g>
    </g>
    <g id="xtick_23">
     <g id="line2d_27">
      <g>
       <use xlink:href="#mb800906034" x="333.222335" y="307.584" style="stroke: #000000; stroke-width: 0.6"/>
      </g>
     </g>
    </g>
    <g id="xtick_24">
     <g id="line2d_28">
      <g>
       <use xlink:href="#mb800906034" x="343.329186" y="307.584" style="stroke: #000000; stroke-width: 0.6"/>
      </g>
     </g>
    </g>
    <g id="xtick_25">
     <g id="line2d_29">
      <g>
       <use xlink:href="#mb800906034" x="351.587085" y="307.584" style="stroke: #000000; stroke-width: 0.6"/>
      </g>
     </g>
    </g>
    <g id="xtick_26">
     <g id="line2d_30">
      <g>
       <use xlink:href="#mb800906034" x="358.569039" y="307.584" style="stroke: #000000; stroke-width: 0.6"/>
      </g>
     </g>
    </g>
    <g id="xtick_27">
     <g id="line2d_31">
      <g>
       <use xlink:href="#mb800906034" x="364.617082" y="307.584" style="stroke: #000000; stroke-width: 0.6"/>
      </g>
     </g>
    </g>
    <g id="xtick_28">
     <g id="line2d_32">
      <g>
       <use xlink:href="#mb800906034" x="369.951834" y="307.584" style="stroke: #000000; stroke-width: 0.6"/>
      </g>
     </g>
    </g>
    <g id="xtick_29">
     <g id="line2d_33">
      <g>
       <use xlink:href="#mb800906034" x="406.118679" y="307.584" style="stroke: #000000; stroke-width: 0.6"/>
      </g>
     </g>
    </g>
    <g id="text_5">
     <!-- X0 -->
     <g transform="translate(229.55375 335.860562) scale(0.1 -0.1)">
      <defs>
       <path id="DejaVuSans-58" d="M 403 4666 
L 1081 4666 
L 2241 2931 
L 3406 4666 
L 4084 4666 
L 2584 2425 
L 4184 0 
L 3506 0 
L 2194 1984 
L 872 0 
L 191 0 
L 1856 2491 
L 403 4666 
z
" transform="scale(0.015625)"/>
      </defs>
      <use xlink:href="#DejaVuSans-58"/>
      <use xlink:href="#DejaVuSans-30" transform="translate(68.505859 0)"/>
     </g>
    </g>
   </g>
   <g id="matplotlib.axis_2">
    <g id="ytick_1">
     <g id="line2d_34">
      <path d="M 57.6 250.462748 
L 414.72 250.462748 
" clip-path="url(#p25dcc5c28f)" style="fill: none; stroke: #b0b0b0; stroke-width: 0.8; stroke-linecap: square"/>
     </g>
     <g id="line2d_35">
      <defs>
       <path id="mf124b3f0b8" d="M 0 0 
L -3.5 0 
" style="stroke: #000000; stroke-width: 0.8"/>
      </defs>
      <g>
       <use xlink:href="#mf124b3f0b8" x="57.6" y="250.462748" style="stroke: #000000; stroke-width: 0.8"/>
      </g>
     </g>
     <g id="text_6">
      <!-- $\mathdefault{10^{-3}}$ -->
      <g transform="translate(27.1 254.261967) scale(0.1 -0.1)">
       <defs>
        <path id="DejaVuSans-33" d="M 2597 2516 
Q 3050 2419 3304 2112 
Q 3559 1806 3559 1356 
Q 3559 666 3084 287 
Q 2609 -91 1734 -91 
Q 1441 -91 1130 -33 
Q 819 25 488 141 
L 488 750 
Q 750 597 1062 519 
Q 1375 441 1716 441 
Q 2309 441 2620 675 
Q 2931 909 2931 1356 
Q 2931 1769 2642 2001 
Q 2353 2234 1838 2234 
L 1294 2234 
L 1294 2753 
L 1863 2753 
Q 2328 2753 2575 2939 
Q 2822 3125 2822 3475 
Q 2822 3834 2567 4026 
Q 2313 4219 1838 4219 
Q 1578 4219 1281 4162 
Q 984 4106 628 3988 
L 628 4550 
Q 988 4650 1302 4700 
Q 1616 4750 1894 4750 
Q 2613 4750 3031 4423 
Q 3450 4097 3450 3541 
Q 3450 3153 3228 2886 
Q 3006 2619 2597 2516 
z
" transform="scale(0.015625)"/>
       </defs>
       <use xlink:href="#DejaVuSans-31" transform="translate(0 0.765625)"/>
       <use xlink:href="#DejaVuSans-30" transform="translate(63.623047 0.765625)"/>
       <use xlink:href="#DejaVuSans-2212" transform="translate(128.203125 39.046875) scale(0.7)"/>
       <use xlink:href="#DejaVuSans-33" transform="translate(186.855469 39.046875) scale(0.7)"/>
      </g>
     </g>
    </g>
    <g id="ytick_2">
     <g id="line2d_36">
      <path d="M 57.6 181.931428 
L 414.72 181.931428 
" clip-path="url(#p25dcc5c28f)" style="fill: none; stroke: #b0b0b0; stroke-width: 0.8; stroke-linecap: square"/>
     </g>
     <g id="line2d_37">
      <g>
       <use xlink:href="#mf124b3f0b8" x="57.6" y="181.931428" style="stroke: #000000; stroke-width: 0.8"/>
      </g>
     </g>
     <g id="text_7">
      <!-- $\mathdefault{10^{-2}}$ -->
      <g transform="translate(27.1 185.730647) scale(0.1 -0.1)">
       <use xlink:href="#DejaVuSans-31" transform="translate(0 0.765625)"/>
       <use xlink:href="#DejaVuSans-30" transform="translate(63.623047 0.765625)"/>
       <use xlink:href="#DejaVuSans-2212" transform="translate(128.203125 39.046875) scale(0.7)"/>
       <use xlink:href="#DejaVuSans-32" transform="translate(186.855469 39.046875) scale(0.7)"/>
      </g>
     </g>
    </g>
    <g id="ytick_3">
     <g id="line2d_38">
      <path d="M 57.6 113.400108 
L 414.72 113.400108 
" clip-path="url(#p25dcc5c28f)" style="fill: none; stroke: #b0b0b0; stroke-width: 0.8; stroke-linecap: square"/>
     </g>
     <g id="line2d_39">
      <g>
       <use xlink:href="#mf124b3f0b8" x="57.6" y="113.400108" style="stroke: #000000; stroke-width: 0.8"/>
      </g>
     </g>
     <g id="text_8">
      <!-- $\mathdefault{10^{-1}}$ -->
      <g transform="translate(27.1 117.199327) scale(0.1 -0.1)">
       <use xlink:href="#DejaVuSans-31" transform="translate(0 0.684375)"/>
       <use xlink:href="#DejaVuSans-30" transform="translate(63.623047 0.684375)"/>
       <use xlink:href="#DejaVuSans-2212" transform="translate(128.203125 38.965625) scale(0.7)"/>
       <use xlink:href="#DejaVuSans-31" transform="translate(186.855469 38.965625) scale(0.7)"/>
      </g>
     </g>
    </g>
    <g id="ytick_4">
     <g id="line2d_40">
      <path d="M 57.6 44.868788 
L 414.72 44.868788 
" clip-path="url(#p25dcc5c28f)" style="fill: none; stroke: #b0b0b0; stroke-width: 0.8; stroke-linecap: square"/>
     </g>
     <g id="line2d_41">
      <g>
       <use xlink:href="#mf124b3f0b8" x="57.6" y="44.868788" style="stroke: #000000; stroke-width: 0.8"/>
      </g>
     </g>
     <g id="text_9">
      <!-- $\mathdefault{10^{0}}$ -->
      <g transform="translate(33 48.668007) scale(0.1 -0.1)">
       <use xlink:href="#DejaVuSans-31" transform="translate(0 0.765625)"/>
       <use xlink:href="#DejaVuSans-30" transform="translate(63.623047 0.765625)"/>
       <use xlink:href="#DejaVuSans-30" transform="translate(128.203125 39.046875) scale(0.7)"/>
      </g>
     </g>
    </g>
    <g id="ytick_5">
     <g id="line2d_42">
      <defs>
       <path id="m480497b056" d="M 0 0 
L -2 0 
" style="stroke: #000000; stroke-width: 0.6"/>
      </defs>
      <g>
       <use xlink:href="#m480497b056" x="57.6" y="298.364085" style="stroke: #000000; stroke-width: 0.6"/>
      </g>
     </g>
    </g>
    <g id="ytick_6">
     <g id="line2d_43">
      <g>
       <use xlink:href="#m480497b056" x="57.6" y="286.296318" style="stroke: #000000; stroke-width: 0.6"/>
      </g>
     </g>
    </g>
    <g id="ytick_7">
     <g id="line2d_44">
      <g>
       <use xlink:href="#m480497b056" x="57.6" y="277.734102" style="stroke: #000000; stroke-width: 0.6"/>
      </g>
     </g>
    </g>
    <g id="ytick_8">
     <g id="line2d_45">
      <g>
       <use xlink:href="#m480497b056" x="57.6" y="271.092731" style="stroke: #000000; stroke-width: 0.6"/>
      </g>
     </g>
    </g>
    <g id="ytick_9">
     <g id="line2d_46">
      <g>
       <use xlink:href="#m480497b056" x="57.6" y="265.666335" style="stroke: #000000; stroke-width: 0.6"/>
      </g>
     </g>
    </g>
    <g id="ytick_10">
     <g id="line2d_47">
      <g>
       <use xlink:href="#m480497b056" x="57.6" y="261.078384" style="stroke: #000000; stroke-width: 0.6"/>
      </g>
     </g>
    </g>
    <g id="ytick_11">
     <g id="line2d_48">
      <g>
       <use xlink:href="#m480497b056" x="57.6" y="257.104119" style="stroke: #000000; stroke-width: 0.6"/>
      </g>
     </g>
    </g>
    <g id="ytick_12">
     <g id="line2d_49">
      <g>
       <use xlink:href="#m480497b056" x="57.6" y="253.598569" style="stroke: #000000; stroke-width: 0.6"/>
      </g>
     </g>
    </g>
    <g id="ytick_13">
     <g id="line2d_50">
      <g>
       <use xlink:href="#m480497b056" x="57.6" y="229.832765" style="stroke: #000000; stroke-width: 0.6"/>
      </g>
     </g>
    </g>
    <g id="ytick_14">
     <g id="line2d_51">
      <g>
       <use xlink:href="#m480497b056" x="57.6" y="217.764999" style="stroke: #000000; stroke-width: 0.6"/>
      </g>
     </g>
    </g>
    <g id="ytick_15">
     <g id="line2d_52">
      <g>
       <use xlink:href="#m480497b056" x="57.6" y="209.202782" style="stroke: #000000; stroke-width: 0.6"/>
      </g>
     </g>
    </g>
    <g id="ytick_16">
     <g id="line2d_53">
      <g>
       <use xlink:href="#m480497b056" x="57.6" y="202.561411" style="stroke: #000000; stroke-width: 0.6"/>
      </g>
     </g>
    </g>
    <g id="ytick_17">
     <g id="line2d_54">
      <g>
       <use xlink:href="#m480497b056" x="57.6" y="197.135016" style="stroke: #000000; stroke-width: 0.6"/>
      </g>
     </g>
    </g>
    <g id="ytick_18">
     <g id="line2d_55">
      <g>
       <use xlink:href="#m480497b056" x="57.6" y="192.547064" style="stroke: #000000; stroke-width: 0.6"/>
      </g>
     </g>
    </g>
    <g id="ytick_19">
     <g id="line2d_56">
      <g>
       <use xlink:href="#m480497b056" x="57.6" y="188.572799" style="stroke: #000000; stroke-width: 0.6"/>
      </g>
     </g>
    </g>
    <g id="ytick_20">
     <g id="line2d_57">
      <g>
       <use xlink:href="#m480497b056" x="57.6" y="185.067249" style="stroke: #000000; stroke-width: 0.6"/>
      </g>
     </g>
    </g>
    <g id="ytick_21">
     <g id="line2d_58">
      <g>
       <use xlink:href="#m480497b056" x="57.6" y="161.301445" style="stroke: #000000; stroke-width: 0.6"/>
      </g>
     </g>
    </g>
    <g id="ytick_22">
     <g id="line2d_59">
      <g>
       <use xlink:href="#m480497b056" x="57.6" y="149.233679" style="stroke: #000000; stroke-width: 0.6"/>
      </g>
     </g>
    </g>
    <g id="ytick_23">
     <g id="line2d_60">
      <g>
       <use xlink:href="#m480497b056" x="57.6" y="140.671462" style="stroke: #000000; stroke-width: 0.6"/>
      </g>
     </g>
    </g>
    <g id="ytick_24">
     <g id="line2d_61">
      <g>
       <use xlink:href="#m480497b056" x="57.6" y="134.030091" style="stroke: #000000; stroke-width: 0.6"/>
      </g>
     </g>
    </g>
    <g id="ytick_25">
     <g id="line2d_62">
      <g>
       <use xlink:href="#m480497b056" x="57.6" y="128.603696" style="stroke: #000000; stroke-width: 0.6"/>
      </g>
     </g>
    </g>
    <g id="ytick_26">
     <g id="line2d_63">
      <g>
       <use xlink:href="#m480497b056" x="57.6" y="124.015744" style="stroke: #000000; stroke-width: 0.6"/>
      </g>
     </g>
    </g>
    <g id="ytick_27">
     <g id="line2d_64">
      <g>
       <use xlink:href="#m480497b056" x="57.6" y="120.041479" style="stroke: #000000; stroke-width: 0.6"/>
      </g>
     </g>
    </g>
    <g id="ytick_28">
     <g id="line2d_65">
      <g>
       <use xlink:href="#m480497b056" x="57.6" y="116.535929" style="stroke: #000000; stroke-width: 0.6"/>
      </g>
     </g>
    </g>
    <g id="ytick_29">
     <g id="line2d_66">
      <g>
       <use xlink:href="#m480497b056" x="57.6" y="92.770125" style="stroke: #000000; stroke-width: 0.6"/>
      </g>
     </g>
    </g>
    <g id="ytick_30">
     <g id="line2d_67">
      <g>
       <use xlink:href="#m480497b056" x="57.6" y="80.702359" style="stroke: #000000; stroke-width: 0.6"/>
      </g>
     </g>
    </g>
    <g id="ytick_31">
     <g id="line2d_68">
      <g>
       <use xlink:href="#m480497b056" x="57.6" y="72.140142" style="stroke: #000000; stroke-width: 0.6"/>
      </g>
     </g>
    </g>
    <g id="ytick_32">
     <g id="line2d_69">
      <g>
       <use xlink:href="#m480497b056" x="57.6" y="65.498771" style="stroke: #000000; stroke-width: 0.6"/>
      </g>
     </g>
    </g>
    <g id="ytick_33">
     <g id="line2d_70">
      <g>
       <use xlink:href="#m480497b056" x="57.6" y="60.072376" style="stroke: #000000; stroke-width: 0.6"/>
      </g>
     </g>
    </g>
    <g id="ytick_34">
     <g id="line2d_71">
      <g>
       <use xlink:href="#m480497b056" x="57.6" y="55.484424" style="stroke: #000000; stroke-width: 0.6"/>
      </g>
     </g>
    </g>
    <g id="ytick_35">
     <g id="line2d_72">
      <g>
       <use xlink:href="#m480497b056" x="57.6" y="51.510159" style="stroke: #000000; stroke-width: 0.6"/>
      </g>
     </g>
    </g>
    <g id="ytick_36">
     <g id="line2d_73">
      <g>
       <use xlink:href="#m480497b056" x="57.6" y="48.00461" style="stroke: #000000; stroke-width: 0.6"/>
      </g>
     </g>
    </g>
    <g id="text_10">
     <!-- SurvivalFunction -->
     <g transform="translate(21.020312 215.952219) rotate(-90) scale(0.1 -0.1)">
      <defs>
       <path id="DejaVuSans-53" d="M 3425 4513 
L 3425 3897 
Q 3066 4069 2747 4153 
Q 2428 4238 2131 4238 
Q 1616 4238 1336 4038 
Q 1056 3838 1056 3469 
Q 1056 3159 1242 3001 
Q 1428 2844 1947 2747 
L 2328 2669 
Q 3034 2534 3370 2195 
Q 3706 1856 3706 1288 
Q 3706 609 3251 259 
Q 2797 -91 1919 -91 
Q 1588 -91 1214 -16 
Q 841 59 441 206 
L 441 856 
Q 825 641 1194 531 
Q 1563 422 1919 422 
Q 2459 422 2753 634 
Q 3047 847 3047 1241 
Q 3047 1584 2836 1778 
Q 2625 1972 2144 2069 
L 1759 2144 
Q 1053 2284 737 2584 
Q 422 2884 422 3419 
Q 422 4038 858 4394 
Q 1294 4750 2059 4750 
Q 2388 4750 2728 4690 
Q 3069 4631 3425 4513 
z
" transform="scale(0.015625)"/>
       <path id="DejaVuSans-75" d="M 544 1381 
L 544 3500 
L 1119 3500 
L 1119 1403 
Q 1119 906 1312 657 
Q 1506 409 1894 409 
Q 2359 409 2629 706 
Q 2900 1003 2900 1516 
L 2900 3500 
L 3475 3500 
L 3475 0 
L 2900 0 
L 2900 538 
Q 2691 219 2414 64 
Q 2138 -91 1772 -91 
Q 1169 -91 856 284 
Q 544 659 544 1381 
z
M 1991 3584 
L 1991 3584 
z
" transform="scale(0.015625)"/>
       <path id="DejaVuSans-72" d="M 2631 2963 
Q 2534 3019 2420 3045 
Q 2306 3072 2169 3072 
Q 1681 3072 1420 2755 
Q 1159 2438 1159 1844 
L 1159 0 
L 581 0 
L 581 3500 
L 1159 3500 
L 1159 2956 
Q 1341 3275 1631 3429 
Q 1922 3584 2338 3584 
Q 2397 3584 2469 3576 
Q 2541 3569 2628 3553 
L 2631 2963 
z
" transform="scale(0.015625)"/>
       <path id="DejaVuSans-76" d="M 191 3500 
L 800 3500 
L 1894 563 
L 2988 3500 
L 3597 3500 
L 2284 0 
L 1503 0 
L 191 3500 
z
" transform="scale(0.015625)"/>
       <path id="DejaVuSans-69" d="M 603 3500 
L 1178 3500 
L 1178 0 
L 603 0 
L 603 3500 
z
M 603 4863 
L 1178 4863 
L 1178 4134 
L 603 4134 
L 603 4863 
z
" transform="scale(0.015625)"/>
       <path id="DejaVuSans-61" d="M 2194 1759 
Q 1497 1759 1228 1600 
Q 959 1441 959 1056 
Q 959 750 1161 570 
Q 1363 391 1709 391 
Q 2188 391 2477 730 
Q 2766 1069 2766 1631 
L 2766 1759 
L 2194 1759 
z
M 3341 1997 
L 3341 0 
L 2766 0 
L 2766 531 
Q 2569 213 2275 61 
Q 1981 -91 1556 -91 
Q 1019 -91 701 211 
Q 384 513 384 1019 
Q 384 1609 779 1909 
Q 1175 2209 1959 2209 
L 2766 2209 
L 2766 2266 
Q 2766 2663 2505 2880 
Q 2244 3097 1772 3097 
Q 1472 3097 1187 3025 
Q 903 2953 641 2809 
L 641 3341 
Q 956 3463 1253 3523 
Q 1550 3584 1831 3584 
Q 2591 3584 2966 3190 
Q 3341 2797 3341 1997 
z
" transform="scale(0.015625)"/>
       <path id="DejaVuSans-6c" d="M 603 4863 
L 1178 4863 
L 1178 0 
L 603 0 
L 603 4863 
z
" transform="scale(0.015625)"/>
       <path id="DejaVuSans-46" d="M 628 4666 
L 3309 4666 
L 3309 4134 
L 1259 4134 
L 1259 2759 
L 3109 2759 
L 3109 2228 
L 1259 2228 
L 1259 0 
L 628 0 
L 628 4666 
z
" transform="scale(0.015625)"/>
       <path id="DejaVuSans-6e" d="M 3513 2113 
L 3513 0 
L 2938 0 
L 2938 2094 
Q 2938 2591 2744 2837 
Q 2550 3084 2163 3084 
Q 1697 3084 1428 2787 
Q 1159 2491 1159 1978 
L 1159 0 
L 581 0 
L 581 3500 
L 1159 3500 
L 1159 2956 
Q 1366 3272 1645 3428 
Q 1925 3584 2291 3584 
Q 2894 3584 3203 3211 
Q 3513 2838 3513 2113 
z
" transform="scale(0.015625)"/>
       <path id="DejaVuSans-63" d="M 3122 3366 
L 3122 2828 
Q 2878 2963 2633 3030 
Q 2388 3097 2138 3097 
Q 1578 3097 1268 2742 
Q 959 2388 959 1747 
Q 959 1106 1268 751 
Q 1578 397 2138 397 
Q 2388 397 2633 464 
Q 2878 531 3122 666 
L 3122 134 
Q 2881 22 2623 -34 
Q 2366 -91 2075 -91 
Q 1284 -91 818 406 
Q 353 903 353 1747 
Q 353 2603 823 3093 
Q 1294 3584 2113 3584 
Q 2378 3584 2631 3529 
Q 2884 3475 3122 3366 
z
" transform="scale(0.015625)"/>
       <path id="DejaVuSans-74" d="M 1172 4494 
L 1172 3500 
L 2356 3500 
L 2356 3053 
L 1172 3053 
L 1172 1153 
Q 1172 725 1289 603 
Q 1406 481 1766 481 
L 2356 481 
L 2356 0 
L 1766 0 
Q 1100 0 847 248 
Q 594 497 594 1153 
L 594 3053 
L 172 3053 
L 172 3500 
L 594 3500 
L 594 4494 
L 1172 4494 
z
" transform="scale(0.015625)"/>
       <path id="DejaVuSans-6f" d="M 1959 3097 
Q 1497 3097 1228 2736 
Q 959 2375 959 1747 
Q 959 1119 1226 758 
Q 1494 397 1959 397 
Q 2419 397 2687 759 
Q 2956 1122 2956 1747 
Q 2956 2369 2687 2733 
Q 2419 3097 1959 3097 
z
M 1959 3584 
Q 2709 3584 3137 3096 
Q 3566 2609 3566 1747 
Q 3566 888 3137 398 
Q 2709 -91 1959 -91 
Q 1206 -91 779 398 
Q 353 888 353 1747 
Q 353 2609 779 3096 
Q 1206 3584 1959 3584 
z
" transform="scale(0.015625)"/>
      </defs>
      <use xlink:href="#DejaVuSans-53"/>
      <use xlink:href="#DejaVuSans-75" transform="translate(63.476562 0)"/>
      <use xlink:href="#DejaVuSans-72" transform="translate(126.855469 0)"/>
      <use xlink:href="#DejaVuSans-76" transform="translate(167.96875 0)"/>
      <use xlink:href="#DejaVuSans-69" transform="translate(227.148438 0)"/>
      <use xlink:href="#DejaVuSans-76" transform="translate(254.931641 0)"/>
      <use xlink:href="#DejaVuSans-61" transform="translate(314.111328 0)"/>
      <use xlink:href="#DejaVuSans-6c" transform="translate(375.390625 0)"/>
      <use xlink:href="#DejaVuSans-46" transform="translate(403.173828 0)"/>
      <use xlink:href="#DejaVuSans-75" transform="translate(455.193359 0)"/>
      <use xlink:href="#DejaVuSans-6e" transform="translate(518.572266 0)"/>
      <use xlink:href="#DejaVuSans-63" transform="translate(581.951172 0)"/>
      <use xlink:href="#DejaVuSans-74" transform="translate(636.931641 0)"/>
      <use xlink:href="#DejaVuSans-69" transform="translate(676.140625 0)"/>
      <use xlink:href="#DejaVuSans-6f" transform="translate(703.923828 0)"/>
      <use xlink:href="#DejaVuSans-6e" transform="translate(765.105469 0)"/>
     </g>
    </g>
   </g>
   <g id="line2d_74">
    <path d="M 62.814555 44.898566 
L 65.884845 44.988078 
L 65.884845 45.017975 
L 68.524963 45.107848 
L 68.524963 45.137866 
L 69.206024 45.228102 
L 69.206024 45.258241 
L 71.264113 45.348843 
L 71.264113 45.379106 
L 73.841411 45.470077 
L 73.841411 45.500463 
L 75.995716 45.591806 
L 76.069958 45.652858 
L 77.25412 45.744671 
L 77.25412 45.775339 
L 78.574805 45.867531 
L 78.574805 45.898326 
L 81.547233 45.9909 
L 81.561721 46.052777 
L 83.365277 46.145835 
L 83.474504 46.208035 
L 84.54045 46.301579 
L 84.580298 46.364106 
L 86.891022 46.458144 
L 86.891022 46.489555 
L 88.768789 46.583991 
L 88.789273 46.647114 
L 90.595305 46.742051 
L 90.595305 46.773765 
L 91.603252 46.869107 
L 91.603252 46.900956 
L 93.319961 46.996708 
L 93.319961 47.028693 
L 95.066361 47.124858 
L 95.098886 47.18914 
L 96.577388 47.285825 
L 96.649828 47.350456 
L 98.667814 47.447667 
L 98.667814 47.480142 
L 99.522035 47.577778 
L 99.608882 47.643047 
L 100.75803 47.74122 
L 100.806581 47.80685 
L 101.377032 47.905565 
L 101.377032 47.938543 
L 103.16183 48.037698 
L 103.16183 48.070823 
L 103.814146 48.170419 
L 103.814146 48.203692 
L 105.196694 48.303735 
L 105.196694 48.337158 
L 105.881204 48.437651 
L 105.881204 48.471225 
L 107.317859 48.572173 
L 107.317859 48.605898 
L 108.336728 48.707305 
L 108.336728 48.741184 
L 109.382009 48.843053 
L 109.382009 48.877087 
L 110.824647 48.979423 
L 110.824647 49.013614 
L 111.522507 49.116421 
L 111.535191 49.219585 
L 113.959253 49.323108 
L 113.959253 49.357696 
L 114.51735 49.461701 
L 114.61885 49.53124 
L 115.102199 49.635855 
L 115.102199 49.670808 
L 115.475451 49.775915 
L 115.475451 49.811033 
L 117.148251 49.916638 
L 117.148251 49.951923 
L 117.847086 50.058029 
L 117.885435 50.128977 
L 118.569965 50.235718 
L 118.649155 50.307091 
L 120.403399 50.414473 
L 120.403399 50.450354 
L 121.530294 50.558255 
L 121.530294 50.59431 
L 122.71026 50.702735 
L 122.722086 50.775239 
L 123.500994 50.884327 
L 123.557868 50.957275 
L 124.747395 51.067033 
L 124.816182 51.140431 
L 125.570299 51.250868 
L 125.654419 51.324721 
L 126.416502 51.398758 
L 126.416502 51.435845 
L 127.469135 51.510159 
L 127.469135 51.547386 
L 128.189445 51.62198 
L 128.262449 51.77173 
L 128.608812 51.846888 
L 128.608812 51.884539 
L 129.438322 51.959983 
L 129.438322 51.997777 
L 129.875438 52.07351 
L 129.875438 52.111448 
L 131.614798 52.18747 
L 131.694454 52.3401 
L 133.301594 52.41671 
L 133.335454 52.493517 
L 134.351312 52.570523 
L 134.351312 52.609101 
L 135.368702 52.686407 
L 135.368702 52.725135 
L 135.87239 52.802744 
L 135.9642 52.95857 
L 136.218535 53.03679 
L 136.306046 53.115216 
L 137.010221 53.19385 
L 137.080825 53.312191 
L 137.702305 53.391348 
L 137.80454 53.510478 
L 138.241362 53.590164 
L 138.241362 53.630088 
L 138.607594 53.710095 
L 138.656634 53.790318 
L 139.270818 53.870758 
L 139.270818 53.91106 
L 139.903496 53.991827 
L 139.957893 54.154023 
L 140.165856 54.235453 
L 140.275099 54.317107 
L 140.822809 54.398985 
L 140.822809 54.440009 
L 141.539263 54.522227 
L 141.539263 54.563421 
L 141.988975 54.645981 
L 141.988975 54.687347 
L 142.36758 54.770251 
L 142.36758 54.81179 
L 142.779128 54.895043 
L 142.779128 54.936757 
L 143.2618 55.02036 
L 143.2618 55.06225 
L 143.827767 55.146207 
L 143.827767 55.188275 
L 144.341282 55.272589 
L 144.424709 55.357142 
L 144.597244 55.441936 
L 144.597244 55.484424 
L 144.910479 55.569582 
L 144.985743 55.654985 
L 145.440184 55.740633 
L 145.474741 55.826529 
L 146.143266 55.912673 
L 146.243405 55.999067 
L 146.540855 56.085713 
L 146.540855 56.12913 
L 146.869475 56.216156 
L 146.96813 56.303437 
L 147.409877 56.390975 
L 147.409877 56.43484 
L 148.330362 56.522766 
L 148.330362 56.566826 
L 148.792456 56.655143 
L 148.827612 56.743723 
L 149.492799 56.832567 
L 149.492799 56.877089 
L 150.185367 56.966332 
L 150.185367 57.011055 
L 151.118877 57.100702 
L 151.174712 57.19062 
L 151.710018 57.28081 
L 151.761033 57.371274 
L 152.314473 57.462015 
L 152.314473 57.507489 
L 152.691232 57.598646 
L 152.788378 57.690083 
L 153.213262 57.781802 
L 153.213262 57.827768 
L 153.88639 57.919912 
L 153.94399 58.012343 
L 154.637872 58.105062 
L 154.671592 58.198071 
L 155.300625 58.291372 
L 155.301443 58.384965 
L 155.837274 58.478854 
L 155.837274 58.52591 
L 156.339259 58.620245 
L 156.339259 58.667525 
L 157.004067 58.762311 
L 157.027839 58.8574 
L 157.593816 58.952794 
L 157.69005 59.09646 
L 157.903826 59.192624 
L 157.903826 59.240823 
L 158.295516 59.337455 
L 158.295516 59.385889 
L 159.410537 59.482995 
L 159.410537 59.531667 
L 159.683826 59.62925 
L 159.683826 59.678161 
L 160.513794 59.776226 
L 160.522355 59.874616 
L 161.075671 59.973332 
L 161.075671 60.022813 
L 161.590391 60.122022 
L 161.590391 60.171751 
L 162.059793 60.271459 
L 162.059793 60.321438 
L 162.362821 60.42165 
L 162.415826 60.5222 
L 162.75992 60.623091 
L 162.75992 60.673665 
L 163.366158 60.775071 
L 163.366158 60.825904 
L 163.847552 60.927832 
L 163.847552 60.978926 
L 164.330308 61.08138 
L 164.330308 61.13274 
L 164.830682 61.235725 
L 164.830682 61.287352 
L 165.375415 61.390875 
L 165.375415 61.442771 
L 166.17912 61.546837 
L 166.289729 61.651268 
L 167.177462 61.756067 
L 167.177462 61.808605 
L 167.695898 61.91396 
L 167.772587 62.072695 
L 168.158872 62.178991 
L 168.158872 62.232281 
L 168.938953 62.339149 
L 168.977845 62.446403 
L 169.538786 62.554044 
L 169.538786 62.608011 
L 170.159134 62.716239 
L 170.242166 62.824863 
L 170.815262 62.933884 
L 170.815262 62.988545 
L 171.742897 63.098168 
L 171.838297 63.374007 
L 172.254385 63.485062 
L 172.273233 63.596533 
L 172.658126 63.652426 
L 172.658126 63.708424 
L 173.098084 63.764527 
L 173.146134 63.877052 
L 173.610567 63.933474 
L 173.715503 64.046641 
L 173.833857 64.103386 
L 173.90617 64.217201 
L 174.324283 64.274273 
L 174.369466 64.388745 
L 174.549331 64.446147 
L 174.549331 64.50366 
L 174.936363 64.561284 
L 174.936363 64.619019 
L 175.113319 64.676867 
L 175.113319 64.734828 
L 175.542913 64.792902 
L 175.564063 64.90939 
L 176.061182 64.967806 
L 176.169332 65.143744 
L 176.251295 65.202622 
L 176.251295 65.261616 
L 176.416161 65.320728 
L 176.416161 65.379958 
L 176.81566 65.439305 
L 176.81566 65.498771 
L 177.377892 65.558356 
L 177.377892 65.618061 
L 177.554701 65.677886 
L 177.618041 65.858085 
L 177.777483 65.918394 
L 177.804535 66.039381 
L 177.988273 66.10006 
L 178.057091 66.221789 
L 178.54227 66.282841 
L 178.549367 66.405322 
L 178.754164 66.466752 
L 178.754164 66.528309 
L 179.129117 66.589993 
L 179.230921 66.900348 
L 180.393786 66.962809 
L 180.4488 67.088126 
L 181.019519 67.150983 
L 181.077984 67.277097 
L 181.555795 67.340355 
L 181.647639 67.594739 
L 181.985023 67.658676 
L 181.985023 67.722751 
L 182.538581 67.786964 
L 182.538581 67.851316 
L 183.165089 67.915808 
L 183.165089 67.980439 
L 183.846145 68.045211 
L 183.922998 68.17518 
L 184.412486 68.240378 
L 184.465567 68.371203 
L 184.729974 68.436832 
L 184.806878 68.700806 
L 185.037855 68.767166 
L 185.037855 68.833675 
L 185.269246 68.900333 
L 185.269246 68.967141 
L 185.844335 69.034099 
L 185.844335 69.101208 
L 186.184006 69.168468 
L 186.184006 69.235881 
L 186.669501 69.303447 
L 186.669501 69.371167 
L 186.852339 69.439041 
L 186.852339 69.50707 
L 187.329217 69.575255 
L 187.329217 69.643597 
L 187.545503 69.712096 
L 187.545503 69.780753 
L 187.987532 69.849568 
L 188.084144 69.987679 
L 188.211792 70.056975 
L 188.211792 70.126433 
L 188.58348 70.196054 
L 188.58348 70.265838 
L 189.057728 70.335785 
L 189.146206 70.476176 
L 189.240192 70.546621 
L 189.240192 70.617232 
L 189.515151 70.688012 
L 189.624926 70.830078 
L 190.073875 70.901366 
L 190.073875 70.972825 
L 190.704971 71.044456 
L 190.704971 71.11626 
L 191.043204 71.188238 
L 191.043204 71.26039 
L 191.610286 71.332718 
L 191.610286 71.405222 
L 192.330924 71.477902 
L 192.330924 71.550761 
L 192.713402 71.623799 
L 192.713402 71.697016 
L 193.100199 71.770414 
L 193.205395 71.917754 
L 193.320567 71.991699 
L 193.326644 72.140142 
L 193.903659 72.214642 
L 194.005573 72.439268 
L 194.253533 72.514522 
L 194.338375 72.665602 
L 194.731887 72.741431 
L 194.731887 72.817453 
L 194.961473 72.893671 
L 195.05484 73.046693 
L 195.40498 73.1235 
L 195.442561 73.277712 
L 195.655615 73.355118 
L 195.655615 73.432726 
L 196.073369 73.510538 
L 196.130819 73.666773 
L 196.401656 73.745199 
L 196.488276 73.981726 
L 196.594034 74.060988 
L 196.693451 74.220147 
L 196.804785 74.300047 
L 196.804785 74.380163 
L 197.010545 74.460494 
L 197.048378 74.62181 
L 197.375893 74.702798 
L 197.375893 74.784006 
L 197.613459 74.865436 
L 197.613459 74.94709 
L 197.987497 75.028968 
L 198.094785 75.358753 
L 198.297104 75.441773 
L 198.407257 75.608512 
L 198.574099 75.692233 
L 198.574099 75.77619 
L 198.916397 75.860385 
L 198.981492 76.029492 
L 199.149324 76.114407 
L 199.202392 76.284968 
L 199.877571 76.370616 
L 199.877571 76.456512 
L 200.178614 76.542656 
L 200.178614 76.62905 
L 200.394776 76.715696 
L 200.443046 76.889747 
L 200.899955 76.977157 
L 200.899955 77.064823 
L 201.515783 77.152749 
L 201.515783 77.240935 
L 201.970729 77.329383 
L 202.020392 77.596315 
L 202.506082 77.685827 
L 202.506082 77.77561 
L 202.721889 77.865664 
L 202.801964 78.046593 
L 203.129869 78.137472 
L 203.129869 78.228629 
L 203.3923 78.320066 
L 203.424726 78.503787 
L 203.602335 78.596075 
L 203.602335 78.68865 
L 203.851636 78.781513 
L 203.924319 78.968115 
L 204.148465 79.061856 
L 204.217731 79.250228 
L 204.435665 79.344864 
L 204.435665 79.439801 
L 204.759855 79.535042 
L 204.759855 79.630588 
L 205.143401 79.726443 
L 205.143401 79.822607 
L 205.603477 79.919083 
L 205.603477 80.015872 
L 205.87498 80.112978 
L 205.924547 80.308144 
L 206.387735 80.406209 
L 206.387735 80.504599 
L 206.596753 80.603315 
L 206.680397 80.901442 
L 206.750057 81.001485 
L 206.825621 81.303647 
L 206.962953 81.405054 
L 207.060898 81.608909 
L 207.23405 81.711363 
L 207.23405 81.814171 
L 207.475292 81.917335 
L 207.475292 82.020857 
L 207.849687 82.124742 
L 207.950217 82.438587 
L 208.197476 82.543943 
L 208.29583 82.755778 
L 208.886196 82.862264 
L 208.886196 82.969132 
L 209.204232 83.076386 
L 209.2384 83.400484 
L 209.904757 83.509306 
L 209.931888 83.728151 
L 210.517782 83.83818 
L 210.517782 83.948617 
L 211.400992 84.059466 
L 211.459756 84.282409 
L 212.575492 84.282409 
L 212.658437 84.507035 
L 212.747451 84.507035 
L 212.785449 84.733369 
L 213.217765 84.733369 
L 213.289917 85.07613 
L 213.468665 85.07613 
L 213.472594 85.30685 
L 213.611316 85.30685 
L 213.704544 85.539373 
L 213.727133 85.539373 
L 213.727133 85.656319 
L 213.958671 85.656319 
L 214.00622 85.891599 
L 214.075955 85.891599 
L 214.156332 86.128754 
L 214.240227 86.128754 
L 214.240227 86.248044 
L 214.40005 86.248044 
L 214.424575 86.488068 
L 214.741775 86.488068 
L 214.741775 86.608809 
L 215.007312 86.608809 
L 215.007312 86.730043 
L 215.143195 86.730043 
L 215.143195 86.851772 
L 215.337934 86.851772 
L 215.337934 86.974001 
L 215.681072 86.974001 
L 215.692639 87.219976 
L 215.834148 87.219976 
L 215.939764 87.592792 
L 216.095519 87.592792 
L 216.109641 87.843956 
L 216.235667 87.843956 
L 216.235667 87.970338 
L 216.373159 87.970338 
L 216.373159 88.097258 
L 216.496925 88.097258 
L 216.496925 88.224722 
L 216.668028 88.224722 
L 216.668028 88.352734 
L 216.780682 88.352734 
L 216.780682 88.481299 
L 217.146926 88.481299 
L 217.150799 88.740108 
L 217.414181 88.740108 
L 217.414181 88.870361 
L 217.694486 88.870361 
L 217.694486 89.001186 
L 217.823571 89.001186 
L 217.910831 89.264575 
L 217.992289 89.264575 
L 217.992289 89.397149 
L 218.528547 89.397149 
L 218.579835 89.664082 
L 218.650571 89.664082 
L 218.735743 89.93343 
L 218.890326 89.93343 
L 218.890326 90.069024 
L 219.185599 90.069024 
L 219.185599 90.205238 
L 219.493569 90.205238 
L 219.493569 90.342079 
L 219.67687 90.342079 
L 219.67687 90.479551 
L 220.131876 90.479551 
L 220.180555 90.756416 
L 220.325412 90.756416 
L 220.426771 91.035881 
L 220.540156 91.035881 
L 220.626157 91.460061 
L 220.70746 91.460061 
L 220.763214 91.746243 
L 221.180119 91.746243 
L 221.180119 91.890373 
L 221.376298 91.890373 
L 221.376298 92.035205 
L 221.504961 92.035205 
L 221.504961 92.180744 
L 221.619269 92.180744 
L 221.673996 92.473976 
L 221.747854 92.473976 
L 221.747854 92.621682 
L 222.189707 92.621682 
L 222.280727 92.919312 
L 222.371111 92.919312 
L 222.371111 93.069251 
L 222.482792 93.069251 
L 222.482792 93.219949 
L 222.772133 93.219949 
L 222.772133 93.371414 
L 222.94254 93.371414 
L 222.94254 93.523653 
L 223.369459 93.523653 
L 223.369459 93.676676 
L 223.558459 93.676676 
L 223.663645 93.985101 
L 223.706885 93.985101 
L 223.766692 94.453816 
L 223.942973 94.453816 
L 224.03296 94.93003 
L 224.212149 94.93003 
L 224.267073 95.251793 
L 224.480817 95.251793 
L 224.480817 95.413989 
L 224.730011 95.413989 
L 224.730011 95.577073 
L 225.089713 95.577073 
L 225.089713 95.741055 
L 225.879133 95.741055 
L 225.879133 95.905946 
L 226.091054 95.905946 
L 226.155621 96.238495 
L 226.693797 96.238495 
L 226.724932 96.574801 
L 226.956342 96.574801 
L 226.964256 96.914951 
L 227.348039 96.914951 
L 227.348039 97.086495 
L 227.566412 97.086495 
L 227.566412 97.259033 
L 227.688311 97.259033 
L 227.688311 97.432577 
L 227.982456 97.432577 
L 227.982456 97.607139 
L 228.645819 97.607139 
L 228.713547 98.137054 
L 229.163884 98.137054 
L 229.268773 98.495646 
L 229.313401 98.495646 
L 229.313401 98.676576 
L 229.829159 98.676576 
L 229.829159 98.858612 
L 230.123609 98.858612 
L 230.134257 99.226058 
L 230.320945 99.226058 
L 230.350193 99.598097 
L 230.50938 99.598097 
L 230.50938 99.785876 
L 231.037772 99.785876 
L 231.077074 100.165025 
L 231.980279 100.165025 
L 231.980279 100.356426 
L 232.169702 100.356426 
L 232.169702 100.549066 
L 232.348574 100.549066 
L 232.348574 100.742961 
L 232.490948 100.742961 
L 232.490948 100.938127 
L 233.205213 100.938127 
L 233.205213 101.134582 
L 233.573456 101.134582 
L 233.68238 101.531425 
L 233.796812 101.531425 
L 233.796812 101.731848 
L 234.33675 101.731848 
L 234.410199 102.13679 
L 234.461823 102.13679 
L 234.461823 102.341346 
L 234.686155 102.341346 
L 234.686155 102.547318 
L 234.876308 102.547318 
L 234.876308 102.754725 
L 235.074808 102.754725 
L 235.110402 103.385761 
L 235.211339 103.385761 
L 235.211339 103.599115 
L 235.536352 103.599115 
L 235.599615 104.030467 
L 235.774207 104.030467 
L 235.774207 104.248511 
L 236.428988 104.248511 
L 236.428988 104.468163 
L 236.549539 104.468163 
L 236.549539 104.689449 
L 236.705452 104.689449 
L 236.726897 105.137018 
L 237.032974 105.137018 
L 237.032974 105.363351 
L 237.59345 105.363351 
L 237.59345 105.59142 
L 237.958731 105.59142 
L 237.979191 106.052867 
L 238.241647 106.052867 
L 238.241647 106.286302 
L 238.407019 106.286302 
L 238.407019 106.521582 
L 238.746923 106.521582 
L 238.746923 106.758737 
L 239.201144 106.758737 
L 239.201144 106.997797 
L 239.374086 106.997797 
L 239.374086 107.238792 
L 239.51617 107.238792 
L 239.523013 107.726717 
L 239.894208 107.726717 
L 239.894208 107.973713 
L 240.663155 107.973713 
L 240.663155 108.222775 
L 241.670244 108.222775 
L 241.779557 108.727241 
L 241.902157 108.727241 
L 241.902157 108.982717 
L 242.117306 108.982717 
L 242.117306 109.240405 
L 242.992817 109.240405 
L 243.059663 109.762572 
L 243.227778 109.762572 
L 243.227778 110.027132 
L 243.468055 110.027132 
L 243.468055 110.294065 
L 244.982778 110.294065 
L 244.982778 110.563413 
L 245.972574 110.563413 
L 245.972574 110.835221 
L 246.142902 110.835221 
L 246.142902 111.109534 
L 246.484181 111.109534 
L 246.484181 111.386399 
L 246.772312 111.386399 
L 246.772312 111.665864 
L 247.049436 111.665864 
L 247.049436 111.947978 
L 247.285687 111.947978 
L 247.285687 112.232791 
L 247.419093 112.232791 
L 247.419093 112.520356 
L 247.564186 112.520356 
L 247.564186 112.810727 
L 247.95952 112.810727 
L 247.990539 113.400108 
L 248.339492 113.400108 
L 248.339492 113.699234 
L 248.630311 113.699234 
L 248.630311 114.001397 
L 249.037706 114.001397 
L 249.037706 114.306659 
L 249.759552 114.306659 
L 249.802628 114.926739 
L 250.000039 114.926739 
L 250.000039 115.241692 
L 250.135673 115.241692 
L 250.135673 115.560013 
L 252.21633 115.560013 
L 252.21633 115.881776 
L 252.514029 115.881776 
L 252.514029 116.207056 
L 252.663493 116.207056 
L 252.663493 116.535929 
L 252.87876 116.535929 
L 252.87876 116.868478 
L 253.362111 116.868478 
L 253.362111 117.204784 
L 253.475785 117.204784 
L 253.475785 117.544934 
L 253.610863 117.544934 
L 253.610863 117.889016 
L 254.336717 117.889016 
L 254.372624 118.589349 
L 254.981171 118.589349 
L 254.981171 118.945793 
L 255.384627 118.945793 
L 255.447831 120.041479 
L 255.779133 120.041479 
L 255.889784 120.795007 
L 255.907553 120.795007 
L 255.907553 121.179049 
L 257.529809 121.179049 
L 257.529809 121.56811 
L 257.746057 121.56811 
L 257.746057 121.962325 
L 258.324196 121.962325 
L 258.324196 122.361831 
L 258.692995 122.361831 
L 258.692995 122.766773 
L 259.958279 122.766773 
L 259.958279 123.1773 
L 262.052789 123.1773 
L 262.052789 123.59357 
L 262.263608 123.59357 
L 262.263608 124.015744 
L 262.736344 124.015744 
L 262.736344 124.443993 
L 263.460309 124.443993 
L 263.535839 125.319431 
L 263.758918 125.319431 
L 263.758918 125.767 
L 263.946345 125.767 
L 264.017328 126.68285 
L 264.875424 126.68285 
L 264.875424 127.151565 
L 265.424641 127.151565 
L 265.424641 127.62778 
L 266.397369 127.62778 
L 266.397369 128.111738 
L 266.530181 128.111738 
L 266.530181 128.603696 
L 266.695951 128.603696 
L 266.695951 129.103922 
L 266.903736 129.103922 
L 266.903736 129.6127 
L 268.528608 129.6127 
L 268.528608 130.130327 
L 268.762275 130.130327 
L 268.762275 130.657115 
L 268.976743 130.657115 
L 268.976743 131.193396 
L 269.469783 131.193396 
L 269.469783 131.739517 
L 269.903314 131.739517 
L 269.903314 132.295847 
L 270.025817 132.295847 
L 270.025817 132.862774 
L 270.145334 132.862774 
L 270.145334 133.44071 
L 270.351943 133.44071 
L 270.351943 134.030091 
L 270.920977 134.030091 
L 270.956273 135.245067 
L 271.054568 135.245067 
L 271.054568 135.871675 
L 271.179751 135.871675 
L 271.179751 136.511759 
L 274.829122 136.511759 
L 274.829122 137.165912 
L 276.029706 137.165912 
L 276.029706 137.834767 
L 277.665573 137.834767 
L 277.665573 138.518999 
L 278.642402 138.518999 
L 278.642402 139.219332 
L 279.031937 139.219332 
L 279.031937 139.936542 
L 281.723265 139.936542 
L 281.723265 140.671462 
L 282.593382 140.671462 
L 282.593382 141.42499 
L 283.188595 141.42499 
L 283.188595 142.198093 
L 284.636607 142.198093 
L 284.636607 142.991814 
L 285.119407 142.991814 
L 285.119407 143.807283 
L 287.045719 143.807283 
L 287.045719 144.645727 
L 288.009388 144.645727 
L 288.009388 145.508476 
L 288.418158 145.508476 
L 288.418158 146.396983 
L 289.298689 146.396983 
L 289.298689 147.312833 
L 291.972824 147.312833 
L 291.972824 148.257763 
L 293.0389 148.257763 
L 293.0389 149.233679 
L 293.174853 149.233679 
L 293.174853 150.242683 
L 294.166526 150.242683 
L 294.169677 152.3695 
L 294.755616 152.3695 
L 294.79981 154.660074 
L 296.207497 154.660074 
L 296.207497 155.87505 
L 296.362038 155.87505 
L 296.457532 158.46475 
L 300.854099 158.46475 
L 300.854099 159.849314 
L 306.30124 159.849314 
L 306.30124 161.301445 
L 307.486645 161.301445 
L 307.486645 162.828076 
L 313.652539 162.828076 
L 313.652539 164.437266 
L 314.288412 164.437266 
L 314.288412 166.138459 
L 317.662843 166.138459 
L 317.662843 167.942816 
L 317.882423 167.942816 
L 317.882423 169.863662 
L 318.348773 169.863662 
L 318.348773 171.917081 
L 318.792048 171.917081 
L 318.792048 174.12274 
L 319.577234 174.12274 
L 319.577234 176.505033 
L 320.404924 176.505033 
L 320.404924 179.094733 
L 324.985994 179.094733 
L 324.985994 181.931428 
L 329.053347 181.931428 
L 329.053347 185.067249 
L 330.679748 185.067249 
L 330.679748 188.572799 
L 331.797072 188.572799 
L 331.797072 192.547064 
L 332.409149 192.547064 
L 332.409149 197.135016 
L 333.556205 197.135016 
L 333.556205 202.561411 
L 342.537444 202.561411 
L 342.537444 209.202782 
L 350.277888 209.202782 
L 350.277888 217.764999 
L 359.360288 217.764999 
L 359.360288 229.832765 
L 365.480735 229.832765 
L 365.480735 250.462748 
L 409.505445 250.462748 
L 409.505445 250.462748 
" clip-path="url(#p25dcc5c28f)" style="fill: none; stroke: #1f77b4; stroke-width: 2; stroke-linecap: square"/>
   </g>
   <g id="line2d_75">
    <path d="M 62.814555 44.914498 
L 69.889879 45.280258 
L 76.965203 45.705029 
L 84.040527 46.197804 
L 91.115852 46.768771 
L 98.191176 47.429402 
L 105.2665 48.192546 
L 112.341825 49.072487 
L 119.417149 50.084977 
L 126.492473 51.247223 
L 133.567798 52.577813 
L 140.643122 54.096573 
L 147.718446 55.824337 
L 154.79377 57.782621 
L 161.869095 59.993193 
L 168.944419 62.477545 
L 176.019743 65.256284 
L 183.095068 68.348455 
L 190.170392 71.770846 
L 197.245716 75.537316 
L 204.321041 79.658191 
L 211.396365 84.139801 
L 218.471689 88.984179 
L 225.547014 94.188961 
L 232.622338 99.747504 
L 239.697662 105.649194 
L 246.772986 111.879931 
L 253.848311 118.422732 
L 260.923635 125.258408 
L 267.998959 132.366265 
L 275.074284 139.724767 
L 282.149608 147.312149 
L 289.224932 155.106933 
L 296.300257 163.088351 
L 303.375581 171.236664 
L 310.450905 179.533383 
L 317.52623 187.96141 
L 324.601554 196.505104 
L 331.676878 205.150291 
L 338.752202 213.884229 
L 345.827527 222.695544 
L 352.902851 231.574145 
L 359.978175 240.511122 
L 367.0535 249.498647 
L 374.128824 258.529866 
L 381.204148 267.5988 
L 388.279473 276.700244 
L 395.354797 285.829684 
L 402.430121 294.983208 
L 409.505445 304.157434 
" clip-path="url(#p25dcc5c28f)" style="fill: none; stroke: #ff7f0e; stroke-width: 2; stroke-linecap: square"/>
   </g>
   <g id="patch_3">
    <path d="M 57.6 307.584 
L 57.6 41.472 
" style="fill: none; stroke: #000000; stroke-width: 0.8; stroke-linejoin: miter; stroke-linecap: square"/>
   </g>
   <g id="patch_4">
    <path d="M 414.72 307.584 
L 414.72 41.472 
" style="fill: none; stroke: #000000; stroke-width: 0.8; stroke-linejoin: miter; stroke-linecap: square"/>
   </g>
   <g id="patch_5">
    <path d="M 57.6 307.584 
L 414.72 307.584 
" style="fill: none; stroke: #000000; stroke-width: 0.8; stroke-linejoin: miter; stroke-linecap: square"/>
   </g>
   <g id="patch_6">
    <path d="M 57.6 41.472 
L 414.72 41.472 
" style="fill: none; stroke: #000000; stroke-width: 0.8; stroke-linejoin: miter; stroke-linecap: square"/>
   </g>
   <g id="legend_1">
    <g id="patch_7">
     <path d="M 340.223125 80.82825 
L 409.72 80.82825 
Q 411.72 80.82825 411.72 78.82825 
L 411.72 50.472 
Q 411.72 48.472 409.72 48.472 
L 340.223125 48.472 
Q 338.223125 48.472 338.223125 50.472 
L 338.223125 78.82825 
Q 338.223125 80.82825 340.223125 80.82825 
z
" style="fill: #4d4d4d; opacity: 0.5; stroke: #4d4d4d; stroke-linejoin: miter"/>
    </g>
    <g id="patch_8">
     <path d="M 338.223125 78.82825 
L 407.72 78.82825 
Q 409.72 78.82825 409.72 76.82825 
L 409.72 48.472 
Q 409.72 46.472 407.72 46.472 
L 338.223125 46.472 
Q 336.223125 46.472 336.223125 48.472 
L 336.223125 76.82825 
Q 336.223125 78.82825 338.223125 78.82825 
z
" style="fill: #ffffff; stroke: #cccccc; stroke-linejoin: miter"/>
    </g>
    <g id="line2d_76">
     <path d="M 340.223125 54.570437 
L 350.223125 54.570437 
L 350.223125 54.570437 
L 360.223125 54.570437 
L 360.223125 54.570437 
" style="fill: none; stroke: #1f77b4; stroke-width: 2; stroke-linecap: square"/>
    </g>
    <g id="text_11">
     <!-- Sample -->
     <g transform="translate(368.223125 58.070437) scale(0.1 -0.1)">
      <defs>
       <path id="DejaVuSans-6d" d="M 3328 2828 
Q 3544 3216 3844 3400 
Q 4144 3584 4550 3584 
Q 5097 3584 5394 3201 
Q 5691 2819 5691 2113 
L 5691 0 
L 5113 0 
L 5113 2094 
Q 5113 2597 4934 2840 
Q 4756 3084 4391 3084 
Q 3944 3084 3684 2787 
Q 3425 2491 3425 1978 
L 3425 0 
L 2847 0 
L 2847 2094 
Q 2847 2600 2669 2842 
Q 2491 3084 2119 3084 
Q 1678 3084 1418 2786 
Q 1159 2488 1159 1978 
L 1159 0 
L 581 0 
L 581 3500 
L 1159 3500 
L 1159 2956 
Q 1356 3278 1631 3431 
Q 1906 3584 2284 3584 
Q 2666 3584 2933 3390 
Q 3200 3197 3328 2828 
z
" transform="scale(0.015625)"/>
       <path id="DejaVuSans-70" d="M 1159 525 
L 1159 -1331 
L 581 -1331 
L 581 3500 
L 1159 3500 
L 1159 2969 
Q 1341 3281 1617 3432 
Q 1894 3584 2278 3584 
Q 2916 3584 3314 3078 
Q 3713 2572 3713 1747 
Q 3713 922 3314 415 
Q 2916 -91 2278 -91 
Q 1894 -91 1617 61 
Q 1341 213 1159 525 
z
M 3116 1747 
Q 3116 2381 2855 2742 
Q 2594 3103 2138 3103 
Q 1681 3103 1420 2742 
Q 1159 2381 1159 1747 
Q 1159 1113 1420 752 
Q 1681 391 2138 391 
Q 2594 391 2855 752 
Q 3116 1113 3116 1747 
z
" transform="scale(0.015625)"/>
       <path id="DejaVuSans-65" d="M 3597 1894 
L 3597 1613 
L 953 1613 
Q 991 1019 1311 708 
Q 1631 397 2203 397 
Q 2534 397 2845 478 
Q 3156 559 3463 722 
L 3463 178 
Q 3153 47 2828 -22 
Q 2503 -91 2169 -91 
Q 1331 -91 842 396 
Q 353 884 353 1716 
Q 353 2575 817 3079 
Q 1281 3584 2069 3584 
Q 2775 3584 3186 3129 
Q 3597 2675 3597 1894 
z
M 3022 2063 
Q 3016 2534 2758 2815 
Q 2500 3097 2075 3097 
Q 1594 3097 1305 2825 
Q 1016 2553 972 2059 
L 3022 2063 
z
" transform="scale(0.015625)"/>
      </defs>
      <use xlink:href="#DejaVuSans-53"/>
      <use xlink:href="#DejaVuSans-61" transform="translate(63.476562 0)"/>
      <use xlink:href="#DejaVuSans-6d" transform="translate(124.755859 0)"/>
      <use xlink:href="#DejaVuSans-70" transform="translate(222.167969 0)"/>
      <use xlink:href="#DejaVuSans-6c" transform="translate(285.644531 0)"/>
      <use xlink:href="#DejaVuSans-65" transform="translate(313.427734 0)"/>
     </g>
    </g>
    <g id="line2d_77">
     <path d="M 340.223125 69.248562 
L 350.223125 69.248562 
L 360.223125 69.248562 
" style="fill: none; stroke: #ff7f0e; stroke-width: 2; stroke-linecap: square"/>
    </g>
    <g id="text_12">
     <!-- GPD -->
     <g transform="translate(368.223125 72.748562) scale(0.1 -0.1)">
      <defs>
       <path id="DejaVuSans-47" d="M 3809 666 
L 3809 1919 
L 2778 1919 
L 2778 2438 
L 4434 2438 
L 4434 434 
Q 4069 175 3628 42 
Q 3188 -91 2688 -91 
Q 1594 -91 976 548 
Q 359 1188 359 2328 
Q 359 3472 976 4111 
Q 1594 4750 2688 4750 
Q 3144 4750 3555 4637 
Q 3966 4525 4313 4306 
L 4313 3634 
Q 3963 3931 3569 4081 
Q 3175 4231 2741 4231 
Q 1884 4231 1454 3753 
Q 1025 3275 1025 2328 
Q 1025 1384 1454 906 
Q 1884 428 2741 428 
Q 3075 428 3337 486 
Q 3600 544 3809 666 
z
" transform="scale(0.015625)"/>
       <path id="DejaVuSans-50" d="M 1259 4147 
L 1259 2394 
L 2053 2394 
Q 2494 2394 2734 2622 
Q 2975 2850 2975 3272 
Q 2975 3691 2734 3919 
Q 2494 4147 2053 4147 
L 1259 4147 
z
M 628 4666 
L 2053 4666 
Q 2838 4666 3239 4311 
Q 3641 3956 3641 3272 
Q 3641 2581 3239 2228 
Q 2838 1875 2053 1875 
L 1259 1875 
L 1259 0 
L 628 0 
L 628 4666 
z
" transform="scale(0.015625)"/>
       <path id="DejaVuSans-44" d="M 1259 4147 
L 1259 519 
L 2022 519 
Q 2988 519 3436 956 
Q 3884 1394 3884 2338 
Q 3884 3275 3436 3711 
Q 2988 4147 2022 4147 
L 1259 4147 
z
M 628 4666 
L 1925 4666 
Q 3281 4666 3915 4102 
Q 4550 3538 4550 2338 
Q 4550 1131 3912 565 
Q 3275 0 1925 0 
L 628 0 
L 628 4666 
z
" transform="scale(0.015625)"/>
      </defs>
      <use xlink:href="#DejaVuSans-47"/>
      <use xlink:href="#DejaVuSans-50" transform="translate(77.490234 0)"/>
      <use xlink:href="#DejaVuSans-44" transform="translate(137.792969 0)"/>
     </g>
    </g>
   </g>
  </g>
  <g id="text_13">
   <!-- GPD against the sample - n=1000 -->
   <g transform="translate(127.9425 16.030125) scale(0.12 -0.12)">
    <defs>
     <path id="DejaVuSans-20" transform="scale(0.015625)"/>
     <path id="DejaVuSans-67" d="M 2906 1791 
Q 2906 2416 2648 2759 
Q 2391 3103 1925 3103 
Q 1463 3103 1205 2759 
Q 947 2416 947 1791 
Q 947 1169 1205 825 
Q 1463 481 1925 481 
Q 2391 481 2648 825 
Q 2906 1169 2906 1791 
z
M 3481 434 
Q 3481 -459 3084 -895 
Q 2688 -1331 1869 -1331 
Q 1566 -1331 1297 -1286 
Q 1028 -1241 775 -1147 
L 775 -588 
Q 1028 -725 1275 -790 
Q 1522 -856 1778 -856 
Q 2344 -856 2625 -561 
Q 2906 -266 2906 331 
L 2906 616 
Q 2728 306 2450 153 
Q 2172 0 1784 0 
Q 1141 0 747 490 
Q 353 981 353 1791 
Q 353 2603 747 3093 
Q 1141 3584 1784 3584 
Q 2172 3584 2450 3431 
Q 2728 3278 2906 2969 
L 2906 3500 
L 3481 3500 
L 3481 434 
z
" transform="scale(0.015625)"/>
     <path id="DejaVuSans-73" d="M 2834 3397 
L 2834 2853 
Q 2591 2978 2328 3040 
Q 2066 3103 1784 3103 
Q 1356 3103 1142 2972 
Q 928 2841 928 2578 
Q 928 2378 1081 2264 
Q 1234 2150 1697 2047 
L 1894 2003 
Q 2506 1872 2764 1633 
Q 3022 1394 3022 966 
Q 3022 478 2636 193 
Q 2250 -91 1575 -91 
Q 1294 -91 989 -36 
Q 684 19 347 128 
L 347 722 
Q 666 556 975 473 
Q 1284 391 1588 391 
Q 1994 391 2212 530 
Q 2431 669 2431 922 
Q 2431 1156 2273 1281 
Q 2116 1406 1581 1522 
L 1381 1569 
Q 847 1681 609 1914 
Q 372 2147 372 2553 
Q 372 3047 722 3315 
Q 1072 3584 1716 3584 
Q 2034 3584 2315 3537 
Q 2597 3491 2834 3397 
z
" transform="scale(0.015625)"/>
     <path id="DejaVuSans-68" d="M 3513 2113 
L 3513 0 
L 2938 0 
L 2938 2094 
Q 2938 2591 2744 2837 
Q 2550 3084 2163 3084 
Q 1697 3084 1428 2787 
Q 1159 2491 1159 1978 
L 1159 0 
L 581 0 
L 581 4863 
L 1159 4863 
L 1159 2956 
Q 1366 3272 1645 3428 
Q 1925 3584 2291 3584 
Q 2894 3584 3203 3211 
Q 3513 2838 3513 2113 
z
" transform="scale(0.015625)"/>
     <path id="DejaVuSans-2d" d="M 313 2009 
L 1997 2009 
L 1997 1497 
L 313 1497 
L 313 2009 
z
" transform="scale(0.015625)"/>
     <path id="DejaVuSans-3d" d="M 678 2906 
L 4684 2906 
L 4684 2381 
L 678 2381 
L 678 2906 
z
M 678 1631 
L 4684 1631 
L 4684 1100 
L 678 1100 
L 678 1631 
z
" transform="scale(0.015625)"/>
    </defs>
    <use xlink:href="#DejaVuSans-47"/>
    <use xlink:href="#DejaVuSans-50" transform="translate(77.490234 0)"/>
    <use xlink:href="#DejaVuSans-44" transform="translate(137.792969 0)"/>
    <use xlink:href="#DejaVuSans-20" transform="translate(214.794922 0)"/>
    <use xlink:href="#DejaVuSans-61" transform="translate(246.582031 0)"/>
    <use xlink:href="#DejaVuSans-67" transform="translate(307.861328 0)"/>
    <use xlink:href="#DejaVuSans-61" transform="translate(371.337891 0)"/>
    <use xlink:href="#DejaVuSans-69" transform="translate(432.617188 0)"/>
    <use xlink:href="#DejaVuSans-6e" transform="translate(460.400391 0)"/>
    <use xlink:href="#DejaVuSans-73" transform="translate(523.779297 0)"/>
    <use xlink:href="#DejaVuSans-74" transform="translate(575.878906 0)"/>
    <use xlink:href="#DejaVuSans-20" transform="translate(615.087891 0)"/>
    <use xlink:href="#DejaVuSans-74" transform="translate(646.875 0)"/>
    <use xlink:href="#DejaVuSans-68" transform="translate(686.083984 0)"/>
    <use xlink:href="#DejaVuSans-65" transform="translate(749.462891 0)"/>
    <use xlink:href="#DejaVuSans-20" transform="translate(810.986328 0)"/>
    <use xlink:href="#DejaVuSans-73" transform="translate(842.773438 0)"/>
    <use xlink:href="#DejaVuSans-61" transform="translate(894.873047 0)"/>
    <use xlink:href="#DejaVuSans-6d" transform="translate(956.152344 0)"/>
    <use xlink:href="#DejaVuSans-70" transform="translate(1053.564453 0)"/>
    <use xlink:href="#DejaVuSans-6c" transform="translate(1117.041016 0)"/>
    <use xlink:href="#DejaVuSans-65" transform="translate(1144.824219 0)"/>
    <use xlink:href="#DejaVuSans-20" transform="translate(1206.347656 0)"/>
    <use xlink:href="#DejaVuSans-2d" transform="translate(1238.134766 0)"/>
    <use xlink:href="#DejaVuSans-20" transform="translate(1274.21875 0)"/>
    <use xlink:href="#DejaVuSans-6e" transform="translate(1306.005859 0)"/>
    <use xlink:href="#DejaVuSans-3d" transform="translate(1369.384766 0)"/>
    <use xlink:href="#DejaVuSans-31" transform="translate(1453.173828 0)"/>
    <use xlink:href="#DejaVuSans-30" transform="translate(1516.796875 0)"/>
    <use xlink:href="#DejaVuSans-30" transform="translate(1580.419922 0)"/>
    <use xlink:href="#DejaVuSans-30" transform="translate(1644.042969 0)"/>
   </g>
  </g>
 </g>
 <defs>
  <clipPath id="p25dcc5c28f">
   <rect x="57.6" y="41.472" width="357.12" height="266.112"/>
  </clipPath>
 </defs>
</svg>
