<?xml version="1.0" encoding="utf-8" standalone="no"?>
<!DOCTYPE svg PUBLIC "-//W3C//DTD SVG 1.1//EN"
  "http://www.w3.org/Graphics/SVG/1.1/DTD/svg11.dtd">
<svg xmlns:xlink="http://www.w3.org/1999/xlink" width="864pt" height="432pt" viewBox="0 0 864 432" xmlns="http://www.w3.org/2000/svg" version="1.1">
 <metadata>
  <rdf:RDF xmlns:dc="http://purl.org/dc/elements/1.1/" xmlns:cc="http://creativecommons.org/ns#" xmlns:rdf="http://www.w3.org/1999/02/22-rdf-syntax-ns#">
   <cc:Work>
    <dc:type rdf:resource="http://purl.org/dc/dcmitype/StillImage"/>
    <dc:date>2022-01-01T00:00:00+00:00</dc:date>
    <dc:format>image/svg+xml</dc:format>
    <dc:creator>
     <cc:Agent>
      <dc:title>Matplotlib v3.10.8, https://matplotlib.org/</dc:title>
     </cc:Agent>
    </dc:creator>
   </cc:Work>
  </rdf:RDF>
 </metadata>
 <defs>
  <style type="text/css">*{stroke-linejoin: round; stroke-linecap: butt}</style>
 </defs>
 <g id="figure_1">
  <g id="patch_1">
   <path d="M 0 432 
L 864 432 
L 864 0 
L 0 0 
z
" style="fill: #ffffff"/>
  </g>
  <g id="axes_1">
   <g id="patch_2">
    <path d="M 108 384.48 
L 351.490909 384.48 
L 351.490909 51.84 
L 108 51.84 
z
" style="fill: #ffffff"/>
   </g>
   <g id="matplotlib.axis_1">
    <g id="xtick_1">
     <g id="line2d_1">
      <path d="M 119.067769 384.48 
L 119.067769 51.84 
" clip-path="url(#pb259de77a8)" style="fill: none; stroke: #b0b0b0; stroke-width: 0.8; stroke-linecap: square"/>
     </g>
     <g id="line2d_2">
      <defs>
       <path id="m4a92d99fee" d="M 0 0 
L 0 3.5 
" style="stroke: #000000; stroke-width: 0.8"/>
      </defs>
      <g>
       <use xlink:href="#m4a92d99fee" x="119.067769" y="384.48" style="stroke: #000000; stroke-width: 0.8"/>
      </g>
     </g>
     <g id="text_1">
      <!-- 0 -->
      <g transform="translate(115.886519 399.078438) scale(0.1 -0.1)">
       <defs>
        <path id="DejaVuSans-30" d="M 2034 4250 
Q 1547 4250 1301 3770 
Q 1056 3291 1056 2328 
Q 1056 1369 1301 889 
Q 1547 409 2034 409 
Q 2525 409 2770 889 
Q 3016 1369 3016 2328 
Q 3016 3291 2770 3770 
Q 2525 4250 2034 4250 
z
M 2034 4750 
Q 2819 4750 3233 4129 
Q 3647 3509 3647 2328 
Q 3647 1150 3233 529 
Q 2819 -91 2034 -91 
Q 1250 -91 836 529 
Q 422 1150 422 2328 
Q 422 3509 836 4129 
Q 1250 4750 2034 4750 
z
" transform="scale(0.015625)"/>
       </defs>
       <use xlink:href="#DejaVuSans-30"/>
      </g>
     </g>
    </g>
    <g id="xtick_2">
     <g id="line2d_3">
      <path d="M 161.332171 384.48 
L 161.332171 51.84 
" clip-path="url(#pb259de77a8)" style="fill: none; stroke: #b0b0b0; stroke-width: 0.8; stroke-linecap: square"/>
     </g>
     <g id="line2d_4">
      <g>
       <use xlink:href="#m4a92d99fee" x="161.332171" y="384.48" style="stroke: #000000; stroke-width: 0.8"/>
      </g>
     </g>
     <g id="text_2">
      <!-- 5 -->
      <g transform="translate(158.150921 399.078438) scale(0.1 -0.1)">
       <defs>
        <path id="DejaVuSans-35" d="M 691 4666 
L 3169 4666 
L 3169 4134 
L 1269 4134 
L 1269 2991 
Q 1406 3038 1543 3061 
Q 1681 3084 1819 3084 
Q 2600 3084 3056 2656 
Q 3513 2228 3513 1497 
Q 3513 744 3044 326 
Q 2575 -91 1722 -91 
Q 1428 -91 1123 -41 
Q 819 9 494 109 
L 494 744 
Q 775 591 1075 516 
Q 1375 441 1709 441 
Q 2250 441 2565 725 
Q 2881 1009 2881 1497 
Q 2881 1984 2565 2268 
Q 2250 2553 1709 2553 
Q 1456 2553 1204 2497 
Q 953 2441 691 2322 
L 691 4666 
z
" transform="scale(0.015625)"/>
       </defs>
       <use xlink:href="#DejaVuSans-35"/>
      </g>
     </g>
    </g>
    <g id="xtick_3">
     <g id="line2d_5">
      <path d="M 203.596573 384.48 
L 203.596573 51.84 
" clip-path="url(#pb259de77a8)" style="fill: none; stroke: #b0b0b0; stroke-width: 0.8; stroke-linecap: square"/>
     </g>
     <g id="line2d_6">
      <g>
       <use xlink:href="#m4a92d99fee" x="203.596573" y="384.48" style="stroke: #000000; stroke-width: 0.8"/>
      </g>
     </g>
     <g id="text_3">
      <!-- 10 -->
      <g transform="translate(197.234073 399.078438) scale(0.1 -0.1)">
       <defs>
        <path id="DejaVuSans-31" d="M 794 531 
L 1825 531 
L 1825 4091 
L 703 3866 
L 703 4441 
L 1819 4666 
L 2450 4666 
L 2450 531 
L 3481 531 
L 3481 0 
L 794 0 
L 794 531 
z
" transform="scale(0.015625)"/>
       </defs>
       <use xlink:href="#DejaVuSans-31"/>
       <use xlink:href="#DejaVuSans-30" transform="translate(63.623047 0)"/>
      </g>
     </g>
    </g>
    <g id="xtick_4">
     <g id="line2d_7">
      <path d="M 245.860975 384.48 
L 245.860975 51.84 
" clip-path="url(#pb259de77a8)" style="fill: none; stroke: #b0b0b0; stroke-width: 0.8; stroke-linecap: square"/>
     </g>
     <g id="line2d_8">
      <g>
       <use xlink:href="#m4a92d99fee" x="245.860975" y="384.48" style="stroke: #000000; stroke-width: 0.8"/>
      </g>
     </g>
     <g id="text_4">
      <!-- 15 -->
      <g transform="translate(239.498475 399.078438) scale(0.1 -0.1)">
       <use xlink:href="#DejaVuSans-31"/>
       <use xlink:href="#DejaVuSans-35" transform="translate(63.623047 0)"/>
      </g>
     </g>
    </g>
    <g id="xtick_5">
     <g id="line2d_9">
      <path d="M 288.125376 384.48 
L 288.125376 51.84 
" clip-path="url(#pb259de77a8)" style="fill: none; stroke: #b0b0b0; stroke-width: 0.8; stroke-linecap: square"/>
     </g>
     <g id="line2d_10">
      <g>
       <use xlink:href="#m4a92d99fee" x="288.125376" y="384.48" style="stroke: #000000; stroke-width: 0.8"/>
      </g>
     </g>
     <g id="text_5">
      <!-- 20 -->
      <g transform="translate(281.762876 399.078438) scale(0.1 -0.1)">
       <defs>
        <path id="DejaVuSans-32" d="M 1228 531 
L 3431 531 
L 3431 0 
L 469 0 
L 469 531 
Q 828 903 1448 1529 
Q 2069 2156 2228 2338 
Q 2531 2678 2651 2914 
Q 2772 3150 2772 3378 
Q 2772 3750 2511 3984 
Q 2250 4219 1831 4219 
Q 1534 4219 1204 4116 
Q 875 4013 500 3803 
L 500 4441 
Q 881 4594 1212 4672 
Q 1544 4750 1819 4750 
Q 2544 4750 2975 4387 
Q 3406 4025 3406 3419 
Q 3406 3131 3298 2873 
Q 3191 2616 2906 2266 
Q 2828 2175 2409 1742 
Q 1991 1309 1228 531 
z
" transform="scale(0.015625)"/>
       </defs>
       <use xlink:href="#DejaVuSans-32"/>
       <use xlink:href="#DejaVuSans-30" transform="translate(63.623047 0)"/>
      </g>
     </g>
    </g>
    <g id="xtick_6">
     <g id="line2d_11">
      <path d="M 330.389778 384.48 
L 330.389778 51.84 
" clip-path="url(#pb259de77a8)" style="fill: none; stroke: #b0b0b0; stroke-width: 0.8; stroke-linecap: square"/>
     </g>
     <g id="line2d_12">
      <g>
       <use xlink:href="#m4a92d99fee" x="330.389778" y="384.48" style="stroke: #000000; stroke-width: 0.8"/>
      </g>
     </g>
     <g id="text_6">
      <!-- 25 -->
      <g transform="translate(324.027278 399.078438) scale(0.1 -0.1)">
       <use xlink:href="#DejaVuSans-32"/>
       <use xlink:href="#DejaVuSans-35" transform="translate(63.623047 0)"/>
      </g>
     </g>
    </g>
    <g id="text_7">
     <!-- $x_0$ -->
     <g transform="translate(224.395455 412.756563) scale(0.1 -0.1)">
      <defs>
       <path id="DejaVuSans-Oblique-78" d="M 3841 3500 
L 2234 1784 
L 3219 0 
L 2559 0 
L 1819 1388 
L 531 0 
L -166 0 
L 1556 1844 
L 641 3500 
L 1300 3500 
L 1972 2234 
L 3144 3500 
L 3841 3500 
z
" transform="scale(0.015625)"/>
      </defs>
      <use xlink:href="#DejaVuSans-Oblique-78" transform="translate(0 0.3125)"/>
      <use xlink:href="#DejaVuSans-30" transform="translate(59.179688 -16.09375) scale(0.7)"/>
     </g>
    </g>
   </g>
   <g id="matplotlib.axis_2">
    <g id="ytick_1">
     <g id="line2d_13">
      <path d="M 108 363.517975 
L 351.490909 363.517975 
" clip-path="url(#pb259de77a8)" style="fill: none; stroke: #b0b0b0; stroke-width: 0.8; stroke-linecap: square"/>
     </g>
     <g id="line2d_14">
      <defs>
       <path id="mb3cb5c074b" d="M 0 0 
L -3.5 0 
" style="stroke: #000000; stroke-width: 0.8"/>
      </defs>
      <g>
       <use xlink:href="#mb3cb5c074b" x="108" y="363.517975" style="stroke: #000000; stroke-width: 0.8"/>
      </g>
     </g>
     <g id="text_8">
      <!-- −4 -->
      <g transform="translate(86.257812 367.317193) scale(0.1 -0.1)">
       <defs>
        <path id="DejaVuSans-2212" d="M 678 2272 
L 4684 2272 
L 4684 1741 
L 678 1741 
L 678 2272 
z
" transform="scale(0.015625)"/>
        <path id="DejaVuSans-34" d="M 2419 4116 
L 825 1625 
L 2419 1625 
L 2419 4116 
z
M 2253 4666 
L 3047 4666 
L 3047 1625 
L 3713 1625 
L 3713 1100 
L 3047 1100 
L 3047 0 
L 2419 0 
L 2419 1100 
L 313 1100 
L 313 1709 
L 2253 4666 
z
" transform="scale(0.015625)"/>
       </defs>
       <use xlink:href="#DejaVuSans-2212"/>
       <use xlink:href="#DejaVuSans-34" transform="translate(83.789062 0)"/>
      </g>
     </g>
    </g>
    <g id="ytick_2">
     <g id="line2d_15">
      <path d="M 108 290.838987 
L 351.490909 290.838987 
" clip-path="url(#pb259de77a8)" style="fill: none; stroke: #b0b0b0; stroke-width: 0.8; stroke-linecap: square"/>
     </g>
     <g id="line2d_16">
      <g>
       <use xlink:href="#mb3cb5c074b" x="108" y="290.838987" style="stroke: #000000; stroke-width: 0.8"/>
      </g>
     </g>
     <g id="text_9">
      <!-- −2 -->
      <g transform="translate(86.257812 294.638206) scale(0.1 -0.1)">
       <use xlink:href="#DejaVuSans-2212"/>
       <use xlink:href="#DejaVuSans-32" transform="translate(83.789062 0)"/>
      </g>
     </g>
    </g>
    <g id="ytick_3">
     <g id="line2d_17">
      <path d="M 108 218.16 
L 351.490909 218.16 
" clip-path="url(#pb259de77a8)" style="fill: none; stroke: #b0b0b0; stroke-width: 0.8; stroke-linecap: square"/>
     </g>
     <g id="line2d_18">
      <g>
       <use xlink:href="#mb3cb5c074b" x="108" y="218.16" style="stroke: #000000; stroke-width: 0.8"/>
      </g>
     </g>
     <g id="text_10">
      <!-- 0 -->
      <g transform="translate(94.6375 221.959219) scale(0.1 -0.1)">
       <use xlink:href="#DejaVuSans-30"/>
      </g>
     </g>
    </g>
    <g id="ytick_4">
     <g id="line2d_19">
      <path d="M 108 145.481013 
L 351.490909 145.481013 
" clip-path="url(#pb259de77a8)" style="fill: none; stroke: #b0b0b0; stroke-width: 0.8; stroke-linecap: square"/>
     </g>
     <g id="line2d_20">
      <g>
       <use xlink:href="#mb3cb5c074b" x="108" y="145.481013" style="stroke: #000000; stroke-width: 0.8"/>
      </g>
     </g>
     <g id="text_11">
      <!-- 2 -->
      <g transform="translate(94.6375 149.280231) scale(0.1 -0.1)">
       <use xlink:href="#DejaVuSans-32"/>
      </g>
     </g>
    </g>
    <g id="ytick_5">
     <g id="line2d_21">
      <path d="M 108 72.802025 
L 351.490909 72.802025 
" clip-path="url(#pb259de77a8)" style="fill: none; stroke: #b0b0b0; stroke-width: 0.8; stroke-linecap: square"/>
     </g>
     <g id="line2d_22">
      <g>
       <use xlink:href="#mb3cb5c074b" x="108" y="72.802025" style="stroke: #000000; stroke-width: 0.8"/>
      </g>
     </g>
     <g id="text_12">
      <!-- 4 -->
      <g transform="translate(94.6375 76.601244) scale(0.1 -0.1)">
       <use xlink:href="#DejaVuSans-34"/>
      </g>
     </g>
    </g>
    <g id="text_13">
     <!-- $x_1$ -->
     <g transform="translate(80.178125 223.51) rotate(-90) scale(0.1 -0.1)">
      <use xlink:href="#DejaVuSans-Oblique-78" transform="translate(0 0.3125)"/>
      <use xlink:href="#DejaVuSans-31" transform="translate(59.179688 -16.09375) scale(0.7)"/>
     </g>
    </g>
   </g>
   <g id="QuadContourSet_1">
    <path d="M 322.11042 369.36 
L 326.58843 367.540284 
L 328.317769 366.79745 
L 331.776446 365.398706 
L 333.505785 364.621998 
L 336.964463 363.255313 
L 340.42314 361.801777 
M 135.01624 66.96 
L 134.315552 88.2225 
L 133.696977 100.035 
L 133.203675 114.21 
L 132.694915 130.7475 
L 132.102603 140.1975 
L 131.60634 152.01 
L 131.250027 166.185 
L 131.159277 170.91 
L 130.578759 177.9975 
L 130.043784 187.4475 
L 129.640072 199.26 
L 129.259104 211.0725 
L 128.599433 218.16 
L 128.181756 225.2475 
L 127.867454 234.6975 
L 127.714176 244.1475 
L 127.110003 248.8725 
L 126.705111 253.5975 
L 126.33844 260.685 
L 126.101034 270.135 
L 125.985124 282.000543 
L 125.396992 286.6725 
L 125.006293 291.3975 
L 124.656551 298.485 
L 124.427613 307.935 
L 124.287304 324.4725 
L 124.255785 336.880632 
L 123.617866 343.3725 
L 123.194368 350.46 
L 122.881146 359.91 
L 122.719121 369.36 
L 122.719121 369.36 
" clip-path="url(#pb259de77a8)" style="fill: none; stroke: #440154; stroke-opacity: 0.996094"/>
    <path d="M 197.781492 369.36 
L 203.805372 364.396849 
L 210.722727 359.458094 
L 217.640083 355.079918 
L 228.016116 349.48967 
L 231.474793 347.75167 
L 243.580165 342.343335 
L 248.768182 340.196979 
L 259.144215 336.106661 
L 262.602893 334.866201 
L 266.06157 333.564949 
L 269.520248 332.33833 
L 272.978926 331.088361 
L 276.437603 329.875027 
L 278.186709 329.1975 
L 283.354959 327.458801 
L 285.084298 326.804434 
L 290.272314 325.075053 
L 292.001653 324.429404 
L 295.460331 323.324368 
L 305.836364 319.716693 
L 309.295041 318.621991 
L 319.671074 315.015464 
L 323.129752 313.922996 
L 335.235124 309.76962 
L 338.693802 308.587309 
L 340.42314 307.929032 
M 144.833804 66.96 
L 144.083883 76.41 
L 143.389862 88.2225 
L 143.276916 90.585 
L 142.464744 100.035 
L 141.861993 109.485 
L 141.475956 116.5725 
L 140.661321 126.0225 
L 140.07896 135.4725 
L 139.658988 142.56 
L 139.023825 149.6475 
L 138.411325 159.0975 
L 138.072987 166.185 
L 137.368562 173.2725 
L 136.713307 182.7225 
L 136.122673 192.1725 
L 135.41923 199.26 
L 134.934873 206.3475 
L 134.547889 213.435 
L 133.954705 218.16 
L 133.34597 225.2475 
L 132.831762 234.6975 
L 132.190614 239.4225 
L 131.750402 244.1475 
L 131.341983 251.235 
L 131.17314 256.148421 
L 130.528905 260.685 
L 130.081701 265.41 
L 129.683535 272.4975 
L 129.311464 281.9475 
L 128.726836 286.6725 
L 128.344369 291.3975 
L 128.001995 298.485 
L 127.777879 307.935 
L 127.714463 312.990758 
L 127.190955 317.385 
L 126.656257 324.4725 
L 126.285439 333.9225 
L 126.079487 345.735 
L 125.94146 359.91 
L 125.317841 366.9975 
L 125.168413 369.36 
L 125.168413 369.36 
" clip-path="url(#pb259de77a8)" style="fill: none; stroke: #482878; stroke-opacity: 0.996094"/>
    <path d="M 167.793991 369.36 
L 170.512659 364.635 
L 171.977988 362.2725 
L 174.406612 358.551678 
L 177.865289 353.785399 
L 181.323967 349.506773 
L 184.782645 345.583329 
L 189.370704 341.01 
L 194.718465 336.285 
L 200.858652 331.56 
L 208.993388 326.237766 
L 215.910744 322.239297 
L 216.13487 322.11 
L 219.369421 320.48701 
L 221.09876 319.575841 
L 236.66281 312.620639 
L 240.121488 311.319674 
L 243.580165 309.9502 
L 247.038843 308.681756 
L 248.886087 307.935 
L 253.956198 306.182773 
L 255.685537 305.522197 
L 260.873554 303.792508 
L 262.602893 303.155398 
L 267.790909 301.482335 
L 269.520248 300.8475 
L 269.520248 300.8475 
L 274.708264 299.22718 
L 278.166942 298.089478 
L 283.354959 296.40769 
L 285.084298 295.858303 
L 290.272314 294.219297 
L 292.001653 293.636639 
L 297.189669 292.033659 
L 298.985556 291.3975 
L 304.107025 289.841318 
L 307.565702 288.705693 
L 311.02438 287.63534 
L 316.212397 285.959673 
L 326.58843 282.575794 
L 328.317769 281.94468 
L 331.776446 280.890642 
L 340.42314 277.998435 
M 155.085 66.96 
L 154.025705 76.41 
L 153.254215 83.4975 
L 152.22948 92.9475 
L 151.750207 97.6725 
L 150.916005 104.76 
L 148.222865 130.7475 
L 147.410081 137.835 
L 146.206892 149.6475 
L 145.46471 156.735 
L 144.807023 163.8225 
L 143.974739 170.91 
L 142.782491 182.7225 
L 142.008696 189.81 
L 141.339604 196.8975 
L 140.705651 201.6225 
L 140.013352 208.71 
L 139.819835 211.319409 
L 139.132011 215.7975 
L 138.585579 220.5225 
L 137.915538 227.61 
L 137.211372 232.335 
L 136.717056 237.06 
L 136.361157 242.001664 
L 135.630389 246.51 
L 135.106356 251.235 
L 134.621878 258.3225 
L 133.882845 263.0475 
L 133.398399 267.7725 
L 132.967774 274.86 
L 132.772136 277.2225 
L 132.120001 281.9475 
L 131.694381 286.6725 
L 131.314972 293.76 
L 131.131799 298.485 
L 130.513256 303.21 
L 130.102278 307.935 
L 129.726191 315.0225 
L 129.343385 326.835 
L 128.822281 331.56 
L 128.325818 338.6475 
L 127.969104 348.0975 
L 127.73713 362.2725 
L 127.714463 364.845396 
L 127.271659 369.36 
L 127.271659 369.36 
" clip-path="url(#pb259de77a8)" style="fill: none; stroke: #3e4989; stroke-opacity: 0.996094"/>
    <path d="M 153.862617 369.36 
L 154.756023 366.9975 
L 155.532844 364.635 
L 160.571901 352.471986 
L 165.759917 342.432414 
L 169.49675 336.285 
L 172.714829 331.56 
L 176.370724 326.835 
L 180.487865 322.11 
L 185.085812 317.385 
L 190.360029 312.66 
L 196.888017 307.608452 
L 203.805372 302.96346 
L 212.452066 298.004832 
L 221.09876 293.653135 
L 224.557438 292.131978 
L 226.286777 291.311812 
L 229.745455 289.901459 
L 231.658878 289.035 
L 234.933471 287.800627 
L 238.392149 286.406385 
L 241.850826 285.140951 
L 245.309504 283.85237 
L 248.768182 282.624025 
L 250.497521 281.947191 
L 255.685537 280.217473 
L 257.414876 279.56772 
L 262.602893 277.889801 
L 264.417142 277.2225 
L 269.520248 275.612887 
L 272.978926 274.462508 
L 278.166942 272.755987 
L 279.896281 272.203144 
L 285.084298 270.522282 
L 286.813636 269.943614 
L 292.001653 268.276109 
L 293.730992 267.671722 
L 298.919008 266.004448 
L 300.648347 265.377287 
L 304.107025 264.296201 
L 330.047107 255.202489 
L 338.693802 251.944695 
L 340.42314 251.222915 
M 170.083911 66.96 
L 165.002434 92.9475 
L 161.173909 114.21 
L 158.819998 128.385 
L 157.588585 135.4725 
L 156.846391 140.1975 
L 155.696989 147.285 
L 155.376201 149.6475 
L 154.544689 154.3725 
L 146.157461 208.71 
L 145.416555 213.435 
L 144.713952 218.16 
L 143.891776 222.885 
L 142.815592 229.9725 
L 142.043536 234.6975 
L 141.446491 239.4225 
L 140.578148 244.1475 
L 139.989397 248.8725 
L 139.696124 251.235 
L 138.862065 255.96 
L 138.31022 260.685 
L 138.090496 263.278392 
L 137.29324 267.7725 
L 136.735862 272.4975 
L 136.361157 277.384066 
L 135.607414 281.9475 
L 135.091559 286.6725 
L 134.237721 296.1225 
L 133.662083 300.8475 
L 133.140234 307.935 
L 132.902479 313.443172 
L 132.363964 317.385 
L 131.904997 322.11 
L 131.474366 329.1975 
L 131.155347 338.6475 
L 130.611456 343.3725 
L 130.081936 350.46 
L 129.689121 359.91 
L 129.483451 369.36 
M 340.42314 69.049643 
L 338.846609 66.96 
L 338.846609 66.96 
" clip-path="url(#pb259de77a8)" style="fill: none; stroke: #31688e; stroke-opacity: 0.996094"/>
    <path d="M 147.892587 369.36 
L 148.466529 366.77368 
L 149.196652 364.635 
L 150.562942 359.91 
L 151.358414 357.5475 
L 152.04749 355.185 
L 152.955967 352.8225 
L 153.693584 350.46 
L 154.684983 348.0975 
L 155.525164 345.735 
L 160.571901 334.423659 
L 165.759917 325.000997 
L 169.218595 319.607093 
L 172.677273 314.840805 
L 176.13595 310.566127 
L 178.475797 307.935 
L 183.053306 303.164173 
L 188.241322 298.450928 
L 195.158678 293.077604 
L 198.617355 290.653002 
L 202.076033 288.383516 
L 205.534711 286.245692 
L 213.184123 281.9475 
L 215.910744 280.618037 
L 217.840323 279.585 
L 221.09876 278.099524 
L 222.828099 277.2225 
L 222.828099 277.2225 
L 226.286777 275.749166 
L 228.162064 274.86 
L 231.474793 273.536479 
L 234.933471 272.089558 
L 253.956198 264.906044 
L 264.332231 261.217513 
L 266.06157 260.573271 
L 271.249587 258.782261 
L 272.978926 258.151523 
L 276.437603 256.983946 
L 285.770616 253.5975 
L 290.272314 252.019873 
L 293.730992 250.735224 
L 300.648347 248.143089 
L 309.295041 244.74155 
L 312.753719 243.341753 
L 319.671074 240.413576 
L 333.505785 233.965885 
L 338.693802 231.284165 
L 340.42314 230.328563 
M 340.42314 127.488347 
L 328.317769 113.392592 
L 307.565702 89.924224 
L 290.272314 70.952746 
L 286.508506 66.96 
M 187.996238 66.96 
L 185.125632 74.0475 
L 182.488478 81.135 
L 179.274457 90.585 
L 177.025117 97.6725 
L 172.922617 111.8475 
L 167.993711 130.7475 
L 165.759917 140.247057 
L 164.630751 144.9225 
L 162.30124 155.568779 
L 160.988565 161.46 
L 159.977486 166.185 
L 157.53321 177.9975 
L 157.111456 180.36 
L 156.070482 185.085 
L 155.161555 189.81 
L 154.165573 194.535 
L 153.227611 199.26 
L 152.2744 203.985 
L 151.855795 206.3475 
L 150.816154 211.0725 
L 149.916406 215.7975 
L 148.927719 220.5225 
L 148.466529 223.316281 
L 147.496589 227.61 
L 146.130332 234.6975 
L 145.26774 239.4225 
L 144.877355 241.785 
L 143.896028 246.51 
L 143.181114 251.235 
L 142.22747 255.96 
L 141.118384 263.0475 
L 140.329145 267.7725 
L 139.798872 272.4975 
L 138.928037 277.2225 
L 138.358683 281.9475 
L 138.090496 285.071946 
L 137.397055 289.035 
L 136.824803 293.76 
L 136.183351 300.8475 
L 135.50848 305.5725 
L 135.05704 310.2975 
L 134.291487 319.7475 
L 133.746572 324.4725 
L 133.230419 331.56 
L 132.689006 341.01 
L 132.185053 345.735 
L 131.689838 352.8225 
L 131.31265 362.2725 
L 131.17314 367.837073 
L 131.006538 369.36 
L 131.006538 369.36 
" clip-path="url(#pb259de77a8)" style="fill: none; stroke: #26828e; stroke-opacity: 0.996094"/>
    <path d="M 144.753869 369.36 
L 145.007851 367.949646 
L 145.957796 364.635 
L 147.128941 359.91 
L 147.830311 357.5475 
L 148.466529 354.88677 
L 149.199889 352.8225 
L 150.659458 348.0975 
L 153.654545 339.487159 
L 154.98023 336.285 
L 155.383884 335.168922 
L 156.945129 331.56 
L 157.113223 331.138306 
L 162.901379 319.7475 
L 164.224299 317.385 
L 167.489256 312.20308 
L 170.947934 307.310971 
L 174.406612 302.88608 
L 176.13595 300.812606 
L 180.520911 296.1225 
L 185.441319 291.3975 
L 191.7 286.173854 
L 196.888017 282.321155 
L 198.617355 281.16407 
L 202.076033 278.889497 
L 205.534711 276.741067 
L 212.975516 272.4975 
L 215.910744 271.025772 
L 217.640083 270.083443 
L 221.09876 268.444762 
L 222.828099 267.585701 
L 226.286777 266.022729 
L 228.016116 265.213132 
L 231.474793 263.732055 
L 233.204132 262.942874 
L 236.66281 261.543572 
L 240.121488 260.112106 
L 264.332231 250.672451 
L 272.978926 247.33773 
L 276.437603 245.96875 
L 283.354959 243.207606 
L 295.460331 238.072797 
L 307.581828 232.335 
L 311.02438 230.599813 
L 319.671074 225.750583 
L 324.859091 222.456953 
L 328.317769 220.03796 
L 331.776446 217.376642 
L 335.235124 214.3813 
L 336.964463 212.713739 
L 338.693802 210.903401 
L 340.42314 208.895096 
M 340.42314 165.531136 
L 337.952048 161.46 
L 334.766454 156.735 
L 331.311487 152.01 
L 326.58843 145.993435 
L 321.400413 139.791825 
L 314.483058 131.939299 
L 305.836364 122.618827 
L 295.316584 111.8475 
L 290.272314 106.862632 
L 283.110316 100.035 
L 277.953302 95.31 
L 272.978926 90.922835 
L 264.332231 83.830701 
L 257.414876 78.760841 
L 253.872774 76.41 
L 250.497521 74.340917 
L 245.309504 71.579897 
L 241.850826 70.019168 
L 238.392149 68.748803 
L 234.933471 67.770595 
L 231.474793 67.141435 
L 229.745455 66.96 
M 224.869537 66.96 
L 222.828099 67.187078 
L 221.09876 67.506645 
L 219.369421 67.945913 
L 217.640083 68.51519 
L 214.181405 70.035119 
L 211.399847 71.685 
L 210.722727 72.106051 
L 208.14924 74.0475 
L 207.26405 74.750167 
L 203.805372 78.026245 
L 200.346694 81.967313 
L 196.888017 86.617836 
L 193.429339 92.011972 
L 190.255078 97.6725 
L 188.241322 101.592346 
L 185.627304 107.1225 
L 182.576476 114.21 
L 179.594628 121.836471 
L 177.204326 128.385 
L 173.276864 140.1975 
L 167.720756 159.0975 
L 159.183925 192.1725 
L 158.624266 194.535 
L 157.455234 199.26 
L 156.905108 201.6225 
L 155.741353 206.3475 
L 155.205104 208.71 
L 154.041461 213.435 
L 153.526804 215.7975 
L 152.359493 220.5225 
L 151.879829 222.885 
L 150.703963 227.61 
L 150.195868 230.237185 
L 149.087763 234.6975 
L 148.086955 239.4225 
L 147.066948 244.1475 
L 146.640332 246.51 
L 145.572153 251.235 
L 144.704164 255.96 
L 143.755791 260.685 
L 142.956485 265.41 
L 142.074317 270.135 
L 141.419836 274.86 
L 140.538069 279.585 
L 139.957633 284.31 
L 139.631474 286.6725 
L 138.84264 291.3975 
L 138.319274 296.1225 
L 138.090496 298.936383 
L 137.382717 303.21 
L 136.842024 307.935 
L 136.274933 315.0225 
L 135.613256 319.7475 
L 135.158977 324.4725 
L 134.717559 331.56 
L 134.560481 333.9225 
L 133.982366 338.6475 
L 133.416158 345.735 
L 132.975522 355.185 
L 132.877982 357.5475 
L 132.381366 362.2725 
L 131.875854 369.36 
L 131.875854 369.36 
" clip-path="url(#pb259de77a8)" style="fill: none; stroke: #1f9e89; stroke-opacity: 0.996094"/>
    <path d="M 142.759835 369.36 
L 143.278512 366.412721 
L 144.36959 362.2725 
L 145.007851 359.130399 
L 146.144675 355.185 
L 146.73719 352.54132 
L 147.440087 350.46 
L 148.795107 345.735 
L 149.592719 343.3725 
L 150.265975 341.01 
L 151.179822 338.6475 
L 151.925207 336.234647 
L 152.898827 333.9225 
L 153.717755 331.56 
L 158.99455 319.7475 
L 162.839431 312.66 
L 164.193405 310.2975 
L 167.489256 305.174435 
L 170.947934 300.362771 
L 174.406612 295.988222 
L 178.513968 291.3975 
L 183.175837 286.6725 
L 188.486372 281.9475 
L 195.158678 276.764313 
L 201.293088 272.4975 
L 210.722727 266.834588 
L 214.181405 264.907056 
L 222.828099 260.456334 
L 243.218496 251.235 
L 247.038843 249.665948 
L 250.497521 248.206887 
L 264.332231 242.372595 
L 267.790909 240.898168 
L 278.166942 236.276256 
L 285.084298 232.989566 
L 295.460331 227.555001 
L 299.466608 225.2475 
L 303.282116 222.885 
L 306.806779 220.5225 
L 310.04059 218.16 
L 312.976191 215.7975 
L 316.212397 212.869609 
L 317.995644 211.0725 
L 320.094017 208.71 
L 321.911508 206.3475 
L 323.458378 203.985 
L 324.859091 201.361576 
L 325.798942 199.26 
L 326.58843 196.8975 
L 326.58843 196.8975 
L 327.175347 194.535 
L 327.532035 192.1725 
L 327.678055 189.81 
L 327.627538 187.4475 
L 327.390094 185.085 
L 326.58843 181.194022 
L 326.387715 180.36 
L 325.659996 177.9975 
L 323.759711 173.2725 
L 321.340898 168.5475 
L 318.501232 163.8225 
L 315.271102 159.0975 
L 311.707736 154.3725 
L 307.565702 149.310193 
L 301.608396 142.56 
L 297.152112 137.835 
L 292.001653 132.606714 
L 285.084298 125.995632 
L 279.896281 121.293981 
L 274.708264 116.812855 
L 267.790909 111.226501 
L 262.23121 107.1225 
L 258.798897 104.76 
L 255.116364 102.3975 
L 252.22686 100.658658 
L 247.038843 97.920834 
L 241.850826 95.658419 
L 238.392149 94.450442 
L 234.933471 93.532314 
L 231.474793 92.930668 
L 228.016116 92.629275 
L 224.557438 92.701537 
L 221.09876 93.163954 
L 219.369421 93.541132 
L 217.640083 94.033847 
L 215.910744 94.652955 
L 212.452066 96.238732 
L 208.993388 98.346726 
L 205.534711 100.998842 
L 202.076033 104.253083 
L 198.617355 108.11835 
L 195.158678 112.661565 
L 191.7 117.907247 
L 188.384614 123.66 
L 186.511983 127.186666 
L 183.630898 133.11 
L 180.493825 140.1975 
L 176.72643 149.6475 
L 172.520478 161.46 
L 170.153099 168.5475 
L 164.393606 187.4475 
L 162.30124 194.826374 
L 161.003892 199.26 
L 160.365863 201.6225 
L 159.049126 206.3475 
L 158.375121 208.71 
L 155.807036 218.16 
L 155.215408 220.5225 
L 153.946923 225.2475 
L 153.337917 227.61 
L 152.139301 232.335 
L 151.527954 234.6975 
L 150.390347 239.4225 
L 149.799573 241.785 
L 148.706826 246.51 
L 148.170896 248.8725 
L 147.097756 253.5975 
L 146.669226 255.96 
L 145.578526 260.685 
L 144.700362 265.41 
L 143.754763 270.135 
L 142.959373 274.86 
L 142.088533 279.585 
L 141.456251 284.31 
L 140.585169 289.035 
L 140.002607 293.76 
L 139.734235 296.1225 
L 138.942532 300.8475 
L 138.40642 305.5725 
L 137.936744 310.2975 
L 137.25359 315.0225 
L 136.781291 319.7475 
L 136.210534 326.835 
L 135.618015 331.56 
L 135.03332 338.6475 
L 134.391098 348.0975 
L 133.739362 355.185 
L 133.212627 364.635 
L 133.020487 369.36 
L 133.020487 369.36 
" clip-path="url(#pb259de77a8)" style="fill: none; stroke: #35b779; stroke-opacity: 0.996094"/>
    <path d="M 140.437227 369.36 
L 142.481812 359.91 
L 143.536755 355.185 
L 144.739956 350.46 
L 145.376159 348.0975 
L 146.654713 343.3725 
L 146.73719 343.041104 
L 147.441756 341.01 
L 148.900278 336.285 
L 152.238037 326.835 
L 155.383884 319.163427 
L 160.988331 307.935 
L 162.30124 305.527306 
L 165.759917 299.99215 
L 169.218595 294.99411 
L 172.677273 290.486344 
L 176.13595 286.360518 
L 179.594628 282.65238 
L 182.643638 279.585 
L 187.837466 274.86 
L 193.645686 270.135 
L 203.805372 262.985758 
L 215.910744 255.758275 
L 231.474793 247.693819 
L 238.647862 244.1475 
L 241.850826 242.65253 
L 245.309504 240.992543 
L 259.144215 234.23342 
L 266.06157 230.672241 
L 275.67677 225.2475 
L 279.896281 222.614887 
L 283.354959 220.283959 
L 286.813636 217.748172 
L 290.272314 214.928667 
L 293.730992 211.702844 
L 295.460331 209.864273 
L 297.189669 207.817572 
L 298.919008 205.46816 
L 299.908736 203.985 
L 301.212911 201.6225 
L 302.377686 198.882385 
L 303.059558 196.8975 
L 303.616354 194.535 
L 303.939189 192.1725 
L 304.045971 189.81 
L 303.949246 187.4475 
L 303.657086 185.085 
L 303.173773 182.7225 
L 302.377686 180.015565 
L 301.676602 177.9975 
L 300.648347 175.58261 
L 298.919008 172.128519 
L 297.189669 169.132692 
L 295.289531 166.185 
L 291.842738 161.46 
L 287.958691 156.735 
L 285.084298 153.53017 
L 281.339899 149.6475 
L 278.166942 146.548124 
L 272.978926 141.846736 
L 267.790909 137.5464 
L 264.332231 134.873751 
L 259.144215 131.191159 
L 253.956198 127.895634 
L 250.497521 125.944308 
L 247.038843 124.165584 
L 241.850826 121.923402 
L 238.392149 120.729465 
L 234.933471 119.789054 
L 231.474793 119.152834 
L 228.016116 118.812154 
L 224.557438 118.799852 
L 221.09876 119.145242 
L 217.640083 119.866539 
L 215.910744 120.392261 
L 212.452066 121.781765 
L 210.722727 122.638014 
L 207.26405 124.736993 
L 203.805372 127.358644 
L 200.168534 130.7475 
L 197.957131 133.11 
L 195.947661 135.4725 
L 194.099615 137.835 
L 192.382829 140.1975 
L 189.970661 143.777089 
L 187.827254 147.285 
L 184.782645 152.700024 
L 182.706658 156.735 
L 179.347066 163.8225 
L 176.13595 171.257605 
L 173.406226 177.9975 
L 168.158071 192.1725 
L 159.512453 218.16 
L 158.842562 220.5225 
L 158.842562 220.5225 
L 157.360226 225.2475 
L 156.6309 227.61 
L 154.54126 234.6975 
L 148.965981 255.96 
L 148.466529 258.493919 
L 147.328693 263.0475 
L 146.347584 267.7725 
L 145.372006 272.4975 
L 145.007851 274.862643 
L 143.983368 279.585 
L 142.775195 286.6725 
L 141.996431 291.3975 
L 141.346886 296.1225 
L 140.560563 300.8475 
L 138.504374 317.385 
L 137.778228 324.4725 
L 137.221341 329.1975 
L 136.63983 336.285 
L 136.304395 341.01 
L 135.796671 345.735 
L 135.267079 352.8225 
L 134.254497 369.36 
L 134.254497 369.36 
" clip-path="url(#pb259de77a8)" style="fill: none; stroke: #6ece58; stroke-opacity: 0.996094"/>
    <path d="M 138.090496 357.433685 
L 139.157128 355.185 
L 139.819835 354.77934 
L 140.297229 352.8225 
L 140.950676 350.46 
L 141.549174 348.807451 
L 141.740425 348.0975 
L 142.378457 345.735 
L 143.049445 343.3725 
L 143.278512 342.661259 
L 143.773201 341.01 
L 144.456955 338.6475 
L 145.007851 336.785603 
L 145.171898 336.285 
L 145.934667 333.9225 
L 146.648409 331.56 
L 146.73719 331.282143 
L 147.484713 329.1975 
L 148.255021 326.835 
L 148.466529 326.196729 
L 149.134355 324.4725 
L 149.967908 322.11 
L 150.195868 321.463329 
L 150.910682 319.7475 
L 151.797866 317.385 
L 151.925207 317.049552 
L 152.830439 315.0225 
L 153.654545 312.953196 
L 153.793389 312.66 
L 154.89661 310.2975 
L 155.383884 309.173012 
L 156.008941 307.935 
L 157.099753 305.5725 
L 157.113223 305.54389 
L 158.366549 303.21 
L 158.842562 302.257954 
L 159.640694 300.8475 
L 160.571901 299.097663 
L 160.936702 298.485 
L 162.280544 296.1225 
L 162.30124 296.086456 
L 163.764992 293.76 
L 164.030579 293.32422 
L 165.301811 291.3975 
L 165.759917 290.688675 
L 166.902525 289.035 
L 167.489256 288.17762 
L 168.576824 286.6725 
L 169.218595 285.785166 
L 170.331734 284.31 
L 170.947934 283.502162 
L 172.171242 281.9475 
L 172.677273 281.317008 
L 174.096294 279.585 
L 174.406612 279.216636 
L 176.105075 277.2225 
L 176.13595 277.187492 
L 177.865289 275.310505 
L 178.278751 274.86 
L 179.594628 273.496386 
L 180.543925 272.4975 
L 181.323967 271.720462 
L 182.881442 270.135 
L 183.053306 269.969948 
L 184.782645 268.352012 
L 185.391119 267.7725 
L 186.511983 266.776182 
L 187.988123 265.41 
L 188.241322 265.191496 
L 189.970661 263.726027 
L 190.749335 263.0475 
L 191.7 262.2808 
L 193.429339 260.827629 
L 193.602503 260.685 
L 195.158678 259.505235 
L 196.624684 258.3225 
L 196.888017 258.126404 
L 198.617355 256.860866 
L 199.790087 255.96 
L 200.346694 255.566302 
L 202.076033 254.338393 
L 203.084374 253.5975 
L 203.805372 253.11007 
L 205.534711 251.924724 
L 206.511399 251.235 
L 207.26405 250.745538 
L 208.993388 249.604596 
L 210.066581 248.8725 
L 210.722727 248.459325 
L 212.452066 247.361959 
L 213.738053 246.51 
L 214.181405 246.237834 
L 215.910744 245.181013 
L 217.508073 244.1475 
L 217.640083 244.067943 
L 219.369421 243.04687 
L 221.09876 241.961946 
L 221.383292 241.785 
L 222.828099 240.945848 
L 224.557438 239.895605 
L 225.325789 239.4225 
L 226.286777 238.865471 
L 228.016116 237.841483 
L 229.289519 237.06 
L 229.745455 236.794206 
L 231.474793 235.787082 
L 233.204132 234.723795 
L 233.247544 234.6975 
L 234.933471 233.720352 
L 236.66281 232.665841 
L 237.202289 232.335 
L 238.392149 231.628833 
L 240.121488 230.570672 
L 241.077578 229.9725 
L 241.850826 229.498525 
L 243.580165 228.42291 
L 244.843605 227.61 
L 245.309504 227.312392 
L 247.038843 226.203628 
L 248.471717 225.2475 
L 248.768182 225.048286 
L 250.497521 223.888048 
L 251.934098 222.885 
L 252.22686 222.675999 
L 253.956198 221.44226 
L 255.203283 220.5225 
L 255.685537 220.152874 
L 257.414876 218.818354 
L 258.251463 218.16 
L 259.144215 217.41704 
L 260.873554 215.946939 
L 261.049593 215.7975 
L 262.602893 214.376577 
L 263.61255 213.435 
L 264.332231 212.695628 
L 265.896382 211.0725 
L 266.06157 210.879022 
L 267.790909 208.859221 
L 267.91904 208.71 
L 269.520248 206.55069 
L 269.671918 206.3475 
L 271.151452 203.985 
L 271.249587 203.790584 
L 272.371254 201.6225 
L 272.978926 200.081122 
L 273.313367 199.26 
L 274.002965 196.8975 
L 274.429692 194.535 
L 274.610802 192.1725 
L 274.557376 189.81 
L 274.275368 187.4475 
L 273.766407 185.085 
L 273.028402 182.7225 
L 272.978926 182.597753 
L 272.096263 180.36 
L 271.249587 178.620951 
L 270.944996 177.9975 
L 269.591335 175.635 
L 269.520248 175.524649 
L 268.043561 173.2725 
L 267.790909 172.924305 
L 266.291524 170.91 
L 266.06157 170.62451 
L 264.332231 168.5475 
L 264.332231 168.5475 
L 262.602893 166.642792 
L 262.16856 166.185 
L 260.873554 164.876633 
L 259.775066 163.8225 
L 259.144215 163.234253 
L 257.414876 161.701074 
L 257.13072 161.46 
L 255.685537 160.25167 
L 254.203506 159.0975 
L 253.956198 158.90567 
L 252.22686 157.623822 
L 250.930648 156.735 
L 250.497521 156.435673 
L 248.768182 155.306223 
L 247.204927 154.3725 
L 247.038843 154.27141 
L 245.309504 153.278612 
L 243.580165 152.380075 
L 242.803977 152.01 
L 241.850826 151.54071 
L 240.121488 150.766006 
L 238.392149 150.078002 
L 237.170609 149.6475 
L 236.66281 149.460203 
L 234.933471 148.895538 
L 233.204132 148.414684 
L 231.474793 148.016069 
L 229.745455 147.698666 
L 228.016116 147.462029 
L 226.286777 147.306344 
L 225.790493 147.285 
L 224.557438 147.227844 
L 222.828099 147.238314 
L 222.056025 147.285 
L 221.09876 147.337917 
L 219.369421 147.523337 
L 217.640083 147.803213 
L 215.910744 148.183729 
L 214.181405 148.67273 
L 212.452066 149.280045 
L 211.581713 149.6475 
L 210.722727 149.984616 
L 208.993388 150.787208 
L 207.26405 151.736853 
L 206.829719 152.01 
L 205.534711 152.775389 
L 203.805372 153.9605 
L 203.273843 154.3725 
L 202.076033 155.252254 
L 200.346694 156.712894 
L 200.322962 156.735 
L 198.617355 158.254514 
L 197.779555 159.0975 
L 196.888017 159.959253 
L 195.501925 161.46 
L 195.158678 161.818664 
L 193.432766 163.8225 
L 193.429339 163.826359 
L 191.7 165.953882 
L 191.527845 166.185 
L 189.970661 168.238343 
L 189.754068 168.5475 
L 188.241322 170.681024 
L 188.090072 170.91 
L 186.519905 173.2725 
L 186.511983 173.284215 
L 185.021656 175.635 
L 184.782645 176.011395 
L 183.589851 177.9975 
L 183.053306 178.895801 
L 182.218592 180.36 
L 181.323967 181.950055 
L 180.905172 182.7225 
L 179.645568 185.085 
L 179.594628 185.179015 
L 178.402052 187.4475 
L 177.865289 188.496171 
L 177.205939 189.81 
L 176.13595 192.021097 
L 176.063309 192.1725 
L 174.91653 194.535 
L 174.406612 195.623572 
L 173.810242 196.8975 
L 172.752671 199.26 
L 172.677273 199.426037 
L 171.672216 201.6225 
L 170.947934 203.307292 
L 170.650375 203.985 
L 169.630106 206.3475 
L 169.218595 207.334895 
L 168.627544 208.71 
L 167.669669 211.0725 
L 167.489256 211.519579 
L 166.683599 213.435 
L 165.780589 215.7975 
L 165.759917 215.850536 
L 164.810574 218.16 
L 164.030579 220.285309 
L 163.937005 220.5225 
L 163.003542 222.885 
L 162.30124 224.87948 
L 162.159799 225.2475 
L 161.260183 227.61 
L 160.571901 229.658295 
L 160.45464 229.9725 
L 159.580643 232.335 
L 158.842562 234.651292 
L 158.825879 234.6975 
L 157.967763 237.06 
L 157.236349 239.4225 
L 157.113223 239.827427 
L 156.427847 241.785 
L 155.705289 244.1475 
L 155.383884 245.281477 
L 154.972242 246.51 
L 154.245508 248.8725 
L 153.654545 251.127591 
L 153.620236 251.235 
L 152.872081 253.5975 
L 152.244688 255.96 
L 151.925207 257.282722 
L 151.610831 258.3225 
L 150.951354 260.685 
L 150.397428 263.0475 
L 150.195868 263.965188 
L 149.786454 265.41 
L 149.188455 267.7725 
L 148.685146 270.135 
L 148.466529 271.243506 
L 148.136204 272.4975 
L 147.574007 274.86 
L 147.100758 277.2225 
L 146.73719 279.300478 
L 146.667917 279.585 
L 146.11491 281.9475 
L 145.65102 284.31 
L 145.254094 286.6725 
L 145.007851 288.279835 
L 144.842475 289.035 
L 144.362366 291.3975 
L 143.956146 293.76 
L 143.604508 296.1225 
L 143.290191 298.485 
L 143.278512 298.573097 
L 142.850835 300.8475 
L 142.472765 303.21 
L 142.145806 305.5725 
L 141.854508 307.935 
L 141.58427 310.2975 
L 141.549174 310.605701 
L 141.224353 312.66 
L 140.901683 315.0225 
L 140.621257 317.385 
L 140.370477 319.7475 
L 140.137299 322.11 
L 139.909096 324.4725 
L 139.819835 325.387606 
L 139.642753 326.835 
L 139.390806 329.1975 
L 139.174265 331.56 
L 138.984705 333.9225 
L 138.814596 336.285 
L 138.656832 338.6475 
L 138.504094 341.01 
L 138.347718 343.3725 
L 138.174991 345.735 
L 138.090496 346.865778 
L 138.028733 348.0975 
L 137.954016 350.46 
L 137.92741 352.8225 
L 137.963981 355.185 
L 138.090496 357.433685 
z
" clip-path="url(#pb259de77a8)" style="fill: none; stroke: #b5de2b; stroke-opacity: 0.996094"/>
    <path d="M 148.466529 303.284828 
L 148.555243 303.21 
L 150.195868 302.448628 
L 151.122623 300.8475 
L 151.925207 299.820509 
L 152.633145 298.485 
L 153.654545 296.844017 
L 154.037957 296.1225 
L 155.383884 293.79365 
L 155.402295 293.76 
L 156.742305 291.3975 
L 157.113223 290.793015 
L 158.138281 289.035 
L 158.842562 287.879287 
L 159.572037 286.6725 
L 160.571901 285.05788 
L 161.042114 284.31 
L 162.30124 282.333798 
L 162.554126 281.9475 
L 164.030579 279.710402 
L 164.116049 279.585 
L 165.738594 277.2225 
L 165.759917 277.192056 
L 167.428798 274.86 
L 167.489256 274.776549 
L 169.180115 272.4975 
L 169.218595 272.446194 
L 170.947934 270.201918 
L 171.000974 270.135 
L 172.677273 268.04443 
L 172.900228 267.7725 
L 174.406612 265.958602 
L 174.870998 265.41 
L 176.13595 263.935526 
L 176.910408 263.0475 
L 177.865289 261.966895 
L 179.014449 260.685 
L 179.594628 260.04551 
L 181.17839 258.3225 
L 181.323967 258.165666 
L 183.053306 256.361937 
L 183.443832 255.96 
L 184.782645 254.601842 
L 185.777466 253.5975 
L 186.511983 252.863528 
L 188.151249 251.235 
L 188.241322 251.145957 
L 189.970661 249.498181 
L 190.629845 248.8725 
L 191.7 247.863623 
L 193.138702 246.51 
L 193.429339 246.236343 
L 195.158678 244.65233 
L 195.715583 244.1475 
L 196.888017 243.083361 
L 198.320667 241.785 
L 198.617355 241.513154 
L 200.346694 239.972449 
L 200.970331 239.4225 
L 202.076033 238.433792 
L 203.618654 237.06 
L 203.805372 236.889396 
L 205.534711 235.359665 
L 206.290009 234.6975 
L 207.26405 233.816748 
L 208.917593 232.335 
L 208.993388 232.26398 
L 210.722727 230.700247 
L 211.536434 229.9725 
L 212.452066 229.109745 
L 214.068717 227.61 
L 214.181405 227.498117 
L 215.910744 225.839594 
L 216.539801 225.2475 
L 217.640083 224.128049 
L 218.890238 222.885 
L 219.369421 222.360503 
L 221.09876 220.5225 
L 221.09876 220.5225 
L 222.828099 218.537633 
L 223.167328 218.16 
L 224.557438 216.396241 
L 225.046922 215.7975 
L 226.286777 214.024957 
L 226.717223 213.435 
L 228.016116 211.291186 
L 228.155038 211.0725 
L 229.349622 208.71 
L 229.745455 207.658701 
L 230.26951 206.3475 
L 230.894261 203.985 
L 231.199366 201.6225 
L 231.160111 199.26 
L 230.736385 196.8975 
L 229.871979 194.535 
L 229.745455 194.299641 
L 228.469676 192.1725 
L 228.016116 191.605365 
L 226.352313 189.81 
L 226.286777 189.7517 
L 224.557438 188.406378 
L 223.015653 187.4475 
L 222.828099 187.343719 
L 221.09876 186.546428 
L 219.369421 185.944333 
L 217.640083 185.519616 
L 215.910744 185.257349 
L 214.181405 185.14541 
L 212.452066 185.174443 
L 210.722727 185.337875 
L 208.993388 185.631997 
L 207.26405 186.056137 
L 205.534711 186.612914 
L 203.805372 187.308631 
L 203.521584 187.4475 
L 202.076033 188.111858 
L 200.346694 189.050448 
L 199.148216 189.81 
L 198.617355 190.126802 
L 196.888017 191.313677 
L 195.795093 192.1725 
L 195.158678 192.645153 
L 193.429339 194.100461 
L 192.969556 194.535 
L 191.7 195.675031 
L 190.489935 196.8975 
L 189.970661 197.397278 
L 188.241322 199.259356 
L 188.240776 199.26 
L 186.511983 201.219878 
L 186.189938 201.6225 
L 184.782645 203.319375 
L 184.27906 203.985 
L 183.053306 205.554626 
L 182.484932 206.3475 
L 181.323967 207.924522 
L 180.789633 208.71 
L 179.594628 210.430508 
L 179.179648 211.0725 
L 177.865289 213.077211 
L 177.645287 213.435 
L 176.1791 215.7975 
L 176.13595 215.865474 
L 174.766035 218.16 
L 174.406612 218.760593 
L 173.405993 220.5225 
L 172.677273 221.814687 
L 172.098692 222.885 
L 170.947934 225.051943 
L 170.847256 225.2475 
L 169.624933 227.61 
L 169.218595 228.408549 
L 168.443163 229.9725 
L 167.489256 231.970649 
L 167.317374 232.335 
L 166.21246 234.6975 
L 165.759917 235.695706 
L 165.144539 237.06 
L 164.13393 239.4225 
L 164.030579 239.664185 
L 163.121709 241.785 
L 162.30124 243.84566 
L 162.178339 244.1475 
L 161.234509 246.51 
L 160.571901 248.291678 
L 160.34868 248.8725 
L 159.472686 251.235 
L 158.842562 253.060912 
L 158.648957 253.5975 
L 157.829873 255.96 
L 157.113223 258.211712 
L 157.075862 258.3225 
L 156.303333 260.685 
L 155.601212 263.0475 
L 155.383884 263.798211 
L 154.894044 265.41 
L 154.233764 267.7725 
L 153.654545 269.96921 
L 153.607907 270.135 
L 152.980225 272.4975 
L 152.406903 274.86 
L 151.925207 276.909318 
L 151.848035 277.2225 
L 151.312351 279.585 
L 150.82188 281.9475 
L 150.34256 284.31 
L 150.195868 285.052193 
L 149.889596 286.6725 
L 149.49821 289.035 
L 149.140962 291.3975 
L 148.796695 293.76 
L 148.466529 295.977731 
L 148.449001 296.1225 
L 148.273463 298.485 
L 148.227037 300.8475 
L 148.446959 303.21 
L 148.466529 303.284828 
z
" clip-path="url(#pb259de77a8)" style="fill: none; stroke: #fde725; stroke-opacity: 0.996094"/>
   </g>
   <g id="patch_3">
    <path d="M 108 384.48 
L 108 51.84 
" style="fill: none; stroke: #000000; stroke-width: 0.8; stroke-linejoin: miter; stroke-linecap: square"/>
   </g>
   <g id="patch_4">
    <path d="M 108 384.48 
L 351.490909 384.48 
" style="fill: none; stroke: #000000; stroke-width: 0.8; stroke-linejoin: miter; stroke-linecap: square"/>
   </g>
   <g id="text_14">
    <!-- $(X_0, X_1)$: iso-lines PDF -->
    <g transform="translate(165.965455 45.84) scale(0.12 -0.12)">
     <defs>
      <path id="DejaVuSans-28" d="M 1984 4856 
Q 1566 4138 1362 3434 
Q 1159 2731 1159 2009 
Q 1159 1288 1364 580 
Q 1569 -128 1984 -844 
L 1484 -844 
Q 1016 -109 783 600 
Q 550 1309 550 2009 
Q 550 2706 781 3412 
Q 1013 4119 1484 4856 
L 1984 4856 
z
" transform="scale(0.015625)"/>
      <path id="DejaVuSans-Oblique-58" d="M 878 4666 
L 1516 4666 
L 2316 2981 
L 3763 4666 
L 4500 4666 
L 2578 2438 
L 3738 0 
L 3103 0 
L 2163 1966 
L 459 0 
L -275 0 
L 1906 2509 
L 878 4666 
z
" transform="scale(0.015625)"/>
      <path id="DejaVuSans-2c" d="M 750 794 
L 1409 794 
L 1409 256 
L 897 -744 
L 494 -744 
L 750 256 
L 750 794 
z
" transform="scale(0.015625)"/>
      <path id="DejaVuSans-29" d="M 513 4856 
L 1013 4856 
Q 1481 4119 1714 3412 
Q 1947 2706 1947 2009 
Q 1947 1309 1714 600 
Q 1481 -109 1013 -844 
L 513 -844 
Q 928 -128 1133 580 
Q 1338 1288 1338 2009 
Q 1338 2731 1133 3434 
Q 928 4138 513 4856 
z
" transform="scale(0.015625)"/>
      <path id="DejaVuSans-3a" d="M 750 794 
L 1409 794 
L 1409 0 
L 750 0 
L 750 794 
z
M 750 3309 
L 1409 3309 
L 1409 2516 
L 750 2516 
L 750 3309 
z
" transform="scale(0.015625)"/>
      <path id="DejaVuSans-20" transform="scale(0.015625)"/>
      <path id="DejaVuSans-69" d="M 603 3500 
L 1178 3500 
L 1178 0 
L 603 0 
L 603 3500 
z
M 603 4863 
L 1178 4863 
L 1178 4134 
L 603 4134 
L 603 4863 
z
" transform="scale(0.015625)"/>
      <path id="DejaVuSans-73" d="M 2834 3397 
L 2834 2853 
Q 2591 2978 2328 3040 
Q 2066 3103 1784 3103 
Q 1356 3103 1142 2972 
Q 928 2841 928 2578 
Q 928 2378 1081 2264 
Q 1234 2150 1697 2047 
L 1894 2003 
Q 2506 1872 2764 1633 
Q 3022 1394 3022 966 
Q 3022 478 2636 193 
Q 2250 -91 1575 -91 
Q 1294 -91 989 -36 
Q 684 19 347 128 
L 347 722 
Q 666 556 975 473 
Q 1284 391 1588 391 
Q 1994 391 2212 530 
Q 2431 669 2431 922 
Q 2431 1156 2273 1281 
Q 2116 1406 1581 1522 
L 1381 1569 
Q 847 1681 609 1914 
Q 372 2147 372 2553 
Q 372 3047 722 3315 
Q 1072 3584 1716 3584 
Q 2034 3584 2315 3537 
Q 2597 3491 2834 3397 
z
" transform="scale(0.015625)"/>
      <path id="DejaVuSans-6f" d="M 1959 3097 
Q 1497 3097 1228 2736 
Q 959 2375 959 1747 
Q 959 1119 1226 758 
Q 1494 397 1959 397 
Q 2419 397 2687 759 
Q 2956 1122 2956 1747 
Q 2956 2369 2687 2733 
Q 2419 3097 1959 3097 
z
M 1959 3584 
Q 2709 3584 3137 3096 
Q 3566 2609 3566 1747 
Q 3566 888 3137 398 
Q 2709 -91 1959 -91 
Q 1206 -91 779 398 
Q 353 888 353 1747 
Q 353 2609 779 3096 
Q 1206 3584 1959 3584 
z
" transform="scale(0.015625)"/>
      <path id="DejaVuSans-2d" d="M 313 2009 
L 1997 2009 
L 1997 1497 
L 313 1497 
L 313 2009 
z
" transform="scale(0.015625)"/>
      <path id="DejaVuSans-6c" d="M 603 4863 
L 1178 4863 
L 1178 0 
L 603 0 
L 603 4863 
z
" transform="scale(0.015625)"/>
      <path id="DejaVuSans-6e" d="M 3513 2113 
L 3513 0 
L 2938 0 
L 2938 2094 
Q 2938 2591 2744 2837 
Q 2550 3084 2163 3084 
Q 1697 3084 1428 2787 
Q 1159 2491 1159 1978 
L 1159 0 
L 581 0 
L 581 3500 
L 1159 3500 
L 1159 2956 
Q 1366 3272 1645 3428 
Q 1925 3584 2291 3584 
Q 2894 3584 3203 3211 
Q 3513 2838 3513 2113 
z
" transform="scale(0.015625)"/>
      <path id="DejaVuSans-65" d="M 3597 1894 
L 3597 1613 
L 953 1613 
Q 991 1019 1311 708 
Q 1631 397 2203 397 
Q 2534 397 2845 478 
Q 3156 559 3463 722 
L 3463 178 
Q 3153 47 2828 -22 
Q 2503 -91 2169 -91 
Q 1331 -91 842 396 
Q 353 884 353 1716 
Q 353 2575 817 3079 
Q 1281 3584 2069 3584 
Q 2775 3584 3186 3129 
Q 3597 2675 3597 1894 
z
M 3022 2063 
Q 3016 2534 2758 2815 
Q 2500 3097 2075 3097 
Q 1594 3097 1305 2825 
Q 1016 2553 972 2059 
L 3022 2063 
z
" transform="scale(0.015625)"/>
      <path id="DejaVuSans-50" d="M 1259 4147 
L 1259 2394 
L 2053 2394 
Q 2494 2394 2734 2622 
Q 2975 2850 2975 3272 
Q 2975 3691 2734 3919 
Q 2494 4147 2053 4147 
L 1259 4147 
z
M 628 4666 
L 2053 4666 
Q 2838 4666 3239 4311 
Q 3641 3956 3641 3272 
Q 3641 2581 3239 2228 
Q 2838 1875 2053 1875 
L 1259 1875 
L 1259 0 
L 628 0 
L 628 4666 
z
" transform="scale(0.015625)"/>
      <path id="DejaVuSans-44" d="M 1259 4147 
L 1259 519 
L 2022 519 
Q 2988 519 3436 956 
Q 3884 1394 3884 2338 
Q 3884 3275 3436 3711 
Q 2988 4147 2022 4147 
L 1259 4147 
z
M 628 4666 
L 1925 4666 
Q 3281 4666 3915 4102 
Q 4550 3538 4550 2338 
Q 4550 1131 3912 565 
Q 3275 0 1925 0 
L 628 0 
L 628 4666 
z
" transform="scale(0.015625)"/>
      <path id="DejaVuSans-46" d="M 628 4666 
L 3309 4666 
L 3309 4134 
L 1259 4134 
L 1259 2759 
L 3109 2759 
L 3109 2228 
L 1259 2228 
L 1259 0 
L 628 0 
L 628 4666 
z
" transform="scale(0.015625)"/>
     </defs>
     <use xlink:href="#DejaVuSans-28" transform="translate(0 0.015625)"/>
     <use xlink:href="#DejaVuSans-Oblique-58" transform="translate(39.013672 0.015625)"/>
     <use xlink:href="#DejaVuSans-30" transform="translate(107.519531 -16.390625) scale(0.7)"/>
     <use xlink:href="#DejaVuSans-2c" transform="translate(154.790039 0.015625)"/>
     <use xlink:href="#DejaVuSans-Oblique-58" transform="translate(206.05957 0.015625)"/>
     <use xlink:href="#DejaVuSans-31" transform="translate(274.56543 -16.390625) scale(0.7)"/>
     <use xlink:href="#DejaVuSans-29" transform="translate(321.835938 0.015625)"/>
     <use xlink:href="#DejaVuSans-3a" transform="translate(360.849609 0.015625)"/>
     <use xlink:href="#DejaVuSans-20" transform="translate(394.541016 0.015625)"/>
     <use xlink:href="#DejaVuSans-69" transform="translate(426.328125 0.015625)"/>
     <use xlink:href="#DejaVuSans-73" transform="translate(454.111328 0.015625)"/>
     <use xlink:href="#DejaVuSans-6f" transform="translate(506.210938 0.015625)"/>
     <use xlink:href="#DejaVuSans-2d" transform="translate(567.392578 0.015625)"/>
     <use xlink:href="#DejaVuSans-6c" transform="translate(603.476562 0.015625)"/>
     <use xlink:href="#DejaVuSans-69" transform="translate(631.259766 0.015625)"/>
     <use xlink:href="#DejaVuSans-6e" transform="translate(659.042969 0.015625)"/>
     <use xlink:href="#DejaVuSans-65" transform="translate(722.421875 0.015625)"/>
     <use xlink:href="#DejaVuSans-73" transform="translate(783.945312 0.015625)"/>
     <use xlink:href="#DejaVuSans-20" transform="translate(836.044922 0.015625)"/>
     <use xlink:href="#DejaVuSans-50" transform="translate(867.832031 0.015625)"/>
     <use xlink:href="#DejaVuSans-44" transform="translate(928.134766 0.015625)"/>
     <use xlink:href="#DejaVuSans-46" transform="translate(1005.136719 0.015625)"/>
    </g>
   </g>
  </g>
  <g id="axes_2">
   <g id="patch_5">
    <path d="M 473.236364 384.48 
L 777.6 384.48 
L 777.6 51.84 
L 473.236364 51.84 
z
" style="fill: #ffffff"/>
   </g>
   <g id="matplotlib.axis_3">
    <g id="xtick_7">
     <g id="line2d_23">
      <path d="M 495.623742 384.48 
L 495.623742 51.84 
" clip-path="url(#p43fff2fb5c)" style="fill: none; stroke: #b0b0b0; stroke-width: 0.8; stroke-linecap: square"/>
     </g>
     <g id="line2d_24">
      <g>
       <use xlink:href="#m4a92d99fee" x="495.623742" y="384.48" style="stroke: #000000; stroke-width: 0.8"/>
      </g>
     </g>
     <g id="text_15">
      <!-- −5 -->
      <g transform="translate(488.252648 399.078438) scale(0.1 -0.1)">
       <use xlink:href="#DejaVuSans-2212"/>
       <use xlink:href="#DejaVuSans-35" transform="translate(83.789062 0)"/>
      </g>
     </g>
    </g>
    <g id="xtick_8">
     <g id="line2d_25">
      <path d="M 535.110469 384.48 
L 535.110469 51.84 
" clip-path="url(#p43fff2fb5c)" style="fill: none; stroke: #b0b0b0; stroke-width: 0.8; stroke-linecap: square"/>
     </g>
     <g id="line2d_26">
      <g>
       <use xlink:href="#m4a92d99fee" x="535.110469" y="384.48" style="stroke: #000000; stroke-width: 0.8"/>
      </g>
     </g>
     <g id="text_16">
      <!-- 0 -->
      <g transform="translate(531.929219 399.078438) scale(0.1 -0.1)">
       <use xlink:href="#DejaVuSans-30"/>
      </g>
     </g>
    </g>
    <g id="xtick_9">
     <g id="line2d_27">
      <path d="M 574.597196 384.48 
L 574.597196 51.84 
" clip-path="url(#p43fff2fb5c)" style="fill: none; stroke: #b0b0b0; stroke-width: 0.8; stroke-linecap: square"/>
     </g>
     <g id="line2d_28">
      <g>
       <use xlink:href="#m4a92d99fee" x="574.597196" y="384.48" style="stroke: #000000; stroke-width: 0.8"/>
      </g>
     </g>
     <g id="text_17">
      <!-- 5 -->
      <g transform="translate(571.415946 399.078438) scale(0.1 -0.1)">
       <use xlink:href="#DejaVuSans-35"/>
      </g>
     </g>
    </g>
    <g id="xtick_10">
     <g id="line2d_29">
      <path d="M 614.083923 384.48 
L 614.083923 51.84 
" clip-path="url(#p43fff2fb5c)" style="fill: none; stroke: #b0b0b0; stroke-width: 0.8; stroke-linecap: square"/>
     </g>
     <g id="line2d_30">
      <g>
       <use xlink:href="#m4a92d99fee" x="614.083923" y="384.48" style="stroke: #000000; stroke-width: 0.8"/>
      </g>
     </g>
     <g id="text_18">
      <!-- 10 -->
      <g transform="translate(607.721423 399.078438) scale(0.1 -0.1)">
       <use xlink:href="#DejaVuSans-31"/>
       <use xlink:href="#DejaVuSans-30" transform="translate(63.623047 0)"/>
      </g>
     </g>
    </g>
    <g id="xtick_11">
     <g id="line2d_31">
      <path d="M 653.57065 384.48 
L 653.57065 51.84 
" clip-path="url(#p43fff2fb5c)" style="fill: none; stroke: #b0b0b0; stroke-width: 0.8; stroke-linecap: square"/>
     </g>
     <g id="line2d_32">
      <g>
       <use xlink:href="#m4a92d99fee" x="653.57065" y="384.48" style="stroke: #000000; stroke-width: 0.8"/>
      </g>
     </g>
     <g id="text_19">
      <!-- 15 -->
      <g transform="translate(647.20815 399.078438) scale(0.1 -0.1)">
       <use xlink:href="#DejaVuSans-31"/>
       <use xlink:href="#DejaVuSans-35" transform="translate(63.623047 0)"/>
      </g>
     </g>
    </g>
    <g id="xtick_12">
     <g id="line2d_33">
      <path d="M 693.057377 384.48 
L 693.057377 51.84 
" clip-path="url(#p43fff2fb5c)" style="fill: none; stroke: #b0b0b0; stroke-width: 0.8; stroke-linecap: square"/>
     </g>
     <g id="line2d_34">
      <g>
       <use xlink:href="#m4a92d99fee" x="693.057377" y="384.48" style="stroke: #000000; stroke-width: 0.8"/>
      </g>
     </g>
     <g id="text_20">
      <!-- 20 -->
      <g transform="translate(686.694877 399.078438) scale(0.1 -0.1)">
       <use xlink:href="#DejaVuSans-32"/>
       <use xlink:href="#DejaVuSans-30" transform="translate(63.623047 0)"/>
      </g>
     </g>
    </g>
    <g id="xtick_13">
     <g id="line2d_35">
      <path d="M 732.544104 384.48 
L 732.544104 51.84 
" clip-path="url(#p43fff2fb5c)" style="fill: none; stroke: #b0b0b0; stroke-width: 0.8; stroke-linecap: square"/>
     </g>
     <g id="line2d_36">
      <g>
       <use xlink:href="#m4a92d99fee" x="732.544104" y="384.48" style="stroke: #000000; stroke-width: 0.8"/>
      </g>
     </g>
     <g id="text_21">
      <!-- 25 -->
      <g transform="translate(726.181604 399.078438) scale(0.1 -0.1)">
       <use xlink:href="#DejaVuSans-32"/>
       <use xlink:href="#DejaVuSans-35" transform="translate(63.623047 0)"/>
      </g>
     </g>
    </g>
    <g id="xtick_14">
     <g id="line2d_37">
      <path d="M 772.030831 384.48 
L 772.030831 51.84 
" clip-path="url(#p43fff2fb5c)" style="fill: none; stroke: #b0b0b0; stroke-width: 0.8; stroke-linecap: square"/>
     </g>
     <g id="line2d_38">
      <g>
       <use xlink:href="#m4a92d99fee" x="772.030831" y="384.48" style="stroke: #000000; stroke-width: 0.8"/>
      </g>
     </g>
     <g id="text_22">
      <!-- 30 -->
      <g transform="translate(765.668331 399.078438) scale(0.1 -0.1)">
       <defs>
        <path id="DejaVuSans-33" d="M 2597 2516 
Q 3050 2419 3304 2112 
Q 3559 1806 3559 1356 
Q 3559 666 3084 287 
Q 2609 -91 1734 -91 
Q 1441 -91 1130 -33 
Q 819 25 488 141 
L 488 750 
Q 750 597 1062 519 
Q 1375 441 1716 441 
Q 2309 441 2620 675 
Q 2931 909 2931 1356 
Q 2931 1769 2642 2001 
Q 2353 2234 1838 2234 
L 1294 2234 
L 1294 2753 
L 1863 2753 
Q 2328 2753 2575 2939 
Q 2822 3125 2822 3475 
Q 2822 3834 2567 4026 
Q 2313 4219 1838 4219 
Q 1578 4219 1281 4162 
Q 984 4106 628 3988 
L 628 4550 
Q 988 4650 1302 4700 
Q 1616 4750 1894 4750 
Q 2613 4750 3031 4423 
Q 3450 4097 3450 3541 
Q 3450 3153 3228 2886 
Q 3006 2619 2597 2516 
z
" transform="scale(0.015625)"/>
       </defs>
       <use xlink:href="#DejaVuSans-33"/>
       <use xlink:href="#DejaVuSans-30" transform="translate(63.623047 0)"/>
      </g>
     </g>
    </g>
    <g id="text_23">
     <!-- X0 -->
     <g transform="translate(618.811932 412.756563) scale(0.1 -0.1)">
      <defs>
       <path id="DejaVuSans-58" d="M 403 4666 
L 1081 4666 
L 2241 2931 
L 3406 4666 
L 4084 4666 
L 2584 2425 
L 4184 0 
L 3506 0 
L 2194 1984 
L 872 0 
L 191 0 
L 1856 2491 
L 403 4666 
z
" transform="scale(0.015625)"/>
      </defs>
      <use xlink:href="#DejaVuSans-58"/>
      <use xlink:href="#DejaVuSans-30" transform="translate(68.505859 0)"/>
     </g>
    </g>
   </g>
   <g id="matplotlib.axis_4">
    <g id="ytick_6">
     <g id="line2d_39">
      <path d="M 473.236364 369.36 
L 777.6 369.36 
" clip-path="url(#p43fff2fb5c)" style="fill: none; stroke: #b0b0b0; stroke-width: 0.8; stroke-linecap: square"/>
     </g>
     <g id="line2d_40">
      <g>
       <use xlink:href="#mb3cb5c074b" x="473.236364" y="369.36" style="stroke: #000000; stroke-width: 0.8"/>
      </g>
     </g>
     <g id="text_24">
      <!-- 0.0 -->
      <g transform="translate(450.333239 373.159219) scale(0.1 -0.1)">
       <defs>
        <path id="DejaVuSans-2e" d="M 684 794 
L 1344 794 
L 1344 0 
L 684 0 
L 684 794 
z
" transform="scale(0.015625)"/>
       </defs>
       <use xlink:href="#DejaVuSans-30"/>
       <use xlink:href="#DejaVuSans-2e" transform="translate(63.623047 0)"/>
       <use xlink:href="#DejaVuSans-30" transform="translate(95.410156 0)"/>
      </g>
     </g>
    </g>
    <g id="ytick_7">
     <g id="line2d_41">
      <path d="M 473.236364 317.335662 
L 777.6 317.335662 
" clip-path="url(#p43fff2fb5c)" style="fill: none; stroke: #b0b0b0; stroke-width: 0.8; stroke-linecap: square"/>
     </g>
     <g id="line2d_42">
      <g>
       <use xlink:href="#mb3cb5c074b" x="473.236364" y="317.335662" style="stroke: #000000; stroke-width: 0.8"/>
      </g>
     </g>
     <g id="text_25">
      <!-- 0.1 -->
      <g transform="translate(450.333239 321.134881) scale(0.1 -0.1)">
       <use xlink:href="#DejaVuSans-30"/>
       <use xlink:href="#DejaVuSans-2e" transform="translate(63.623047 0)"/>
       <use xlink:href="#DejaVuSans-31" transform="translate(95.410156 0)"/>
      </g>
     </g>
    </g>
    <g id="ytick_8">
     <g id="line2d_43">
      <path d="M 473.236364 265.311325 
L 777.6 265.311325 
" clip-path="url(#p43fff2fb5c)" style="fill: none; stroke: #b0b0b0; stroke-width: 0.8; stroke-linecap: square"/>
     </g>
     <g id="line2d_44">
      <g>
       <use xlink:href="#mb3cb5c074b" x="473.236364" y="265.311325" style="stroke: #000000; stroke-width: 0.8"/>
      </g>
     </g>
     <g id="text_26">
      <!-- 0.2 -->
      <g transform="translate(450.333239 269.110543) scale(0.1 -0.1)">
       <use xlink:href="#DejaVuSans-30"/>
       <use xlink:href="#DejaVuSans-2e" transform="translate(63.623047 0)"/>
       <use xlink:href="#DejaVuSans-32" transform="translate(95.410156 0)"/>
      </g>
     </g>
    </g>
    <g id="ytick_9">
     <g id="line2d_45">
      <path d="M 473.236364 213.286987 
L 777.6 213.286987 
" clip-path="url(#p43fff2fb5c)" style="fill: none; stroke: #b0b0b0; stroke-width: 0.8; stroke-linecap: square"/>
     </g>
     <g id="line2d_46">
      <g>
       <use xlink:href="#mb3cb5c074b" x="473.236364" y="213.286987" style="stroke: #000000; stroke-width: 0.8"/>
      </g>
     </g>
     <g id="text_27">
      <!-- 0.3 -->
      <g transform="translate(450.333239 217.086206) scale(0.1 -0.1)">
       <use xlink:href="#DejaVuSans-30"/>
       <use xlink:href="#DejaVuSans-2e" transform="translate(63.623047 0)"/>
       <use xlink:href="#DejaVuSans-33" transform="translate(95.410156 0)"/>
      </g>
     </g>
    </g>
    <g id="ytick_10">
     <g id="line2d_47">
      <path d="M 473.236364 161.262649 
L 777.6 161.262649 
" clip-path="url(#p43fff2fb5c)" style="fill: none; stroke: #b0b0b0; stroke-width: 0.8; stroke-linecap: square"/>
     </g>
     <g id="line2d_48">
      <g>
       <use xlink:href="#mb3cb5c074b" x="473.236364" y="161.262649" style="stroke: #000000; stroke-width: 0.8"/>
      </g>
     </g>
     <g id="text_28">
      <!-- 0.4 -->
      <g transform="translate(450.333239 165.061868) scale(0.1 -0.1)">
       <use xlink:href="#DejaVuSans-30"/>
       <use xlink:href="#DejaVuSans-2e" transform="translate(63.623047 0)"/>
       <use xlink:href="#DejaVuSans-34" transform="translate(95.410156 0)"/>
      </g>
     </g>
    </g>
    <g id="ytick_11">
     <g id="line2d_49">
      <path d="M 473.236364 109.238312 
L 777.6 109.238312 
" clip-path="url(#p43fff2fb5c)" style="fill: none; stroke: #b0b0b0; stroke-width: 0.8; stroke-linecap: square"/>
     </g>
     <g id="line2d_50">
      <g>
       <use xlink:href="#mb3cb5c074b" x="473.236364" y="109.238312" style="stroke: #000000; stroke-width: 0.8"/>
      </g>
     </g>
     <g id="text_29">
      <!-- 0.5 -->
      <g transform="translate(450.333239 113.037531) scale(0.1 -0.1)">
       <use xlink:href="#DejaVuSans-30"/>
       <use xlink:href="#DejaVuSans-2e" transform="translate(63.623047 0)"/>
       <use xlink:href="#DejaVuSans-35" transform="translate(95.410156 0)"/>
      </g>
     </g>
    </g>
    <g id="ytick_12">
     <g id="line2d_51">
      <path d="M 473.236364 57.213974 
L 777.6 57.213974 
" clip-path="url(#p43fff2fb5c)" style="fill: none; stroke: #b0b0b0; stroke-width: 0.8; stroke-linecap: square"/>
     </g>
     <g id="line2d_52">
      <g>
       <use xlink:href="#mb3cb5c074b" x="473.236364" y="57.213974" style="stroke: #000000; stroke-width: 0.8"/>
      </g>
     </g>
     <g id="text_30">
      <!-- 0.6 -->
      <g transform="translate(450.333239 61.013193) scale(0.1 -0.1)">
       <defs>
        <path id="DejaVuSans-36" d="M 2113 2584 
Q 1688 2584 1439 2293 
Q 1191 2003 1191 1497 
Q 1191 994 1439 701 
Q 1688 409 2113 409 
Q 2538 409 2786 701 
Q 3034 994 3034 1497 
Q 3034 2003 2786 2293 
Q 2538 2584 2113 2584 
z
M 3366 4563 
L 3366 3988 
Q 3128 4100 2886 4159 
Q 2644 4219 2406 4219 
Q 1781 4219 1451 3797 
Q 1122 3375 1075 2522 
Q 1259 2794 1537 2939 
Q 1816 3084 2150 3084 
Q 2853 3084 3261 2657 
Q 3669 2231 3669 1497 
Q 3669 778 3244 343 
Q 2819 -91 2113 -91 
Q 1303 -91 875 529 
Q 447 1150 447 2328 
Q 447 3434 972 4092 
Q 1497 4750 2381 4750 
Q 2619 4750 2861 4703 
Q 3103 4656 3366 4563 
z
" transform="scale(0.015625)"/>
       </defs>
       <use xlink:href="#DejaVuSans-30"/>
       <use xlink:href="#DejaVuSans-2e" transform="translate(63.623047 0)"/>
       <use xlink:href="#DejaVuSans-36" transform="translate(95.410156 0)"/>
      </g>
     </g>
    </g>
    <g id="text_31">
     <!-- PDF -->
     <g transform="translate(444.253551 227.900625) rotate(-90) scale(0.1 -0.1)">
      <use xlink:href="#DejaVuSans-50"/>
      <use xlink:href="#DejaVuSans-44" transform="translate(60.302734 0)"/>
      <use xlink:href="#DejaVuSans-46" transform="translate(137.304688 0)"/>
     </g>
    </g>
   </g>
   <g id="line2d_53">
    <path d="M 487.071074 369.36 
L 538.836868 369.333477 
L 540.82786 369.23043 
L 542.818852 368.982582 
L 544.809844 368.525936 
L 546.800837 367.808355 
L 548.791829 366.794027 
L 550.782821 365.464826 
L 552.773813 363.819651 
L 554.764805 361.872547 
L 556.755797 359.65015 
L 558.746789 357.188881 
L 562.728773 351.727677 
L 574.674726 334.505017 
L 576.665718 331.965167 
L 578.65671 329.607363 
L 580.647702 327.453148 
L 582.638694 325.519037 
L 584.629686 323.816751 
L 586.620678 322.353556 
L 588.61167 321.132639 
L 590.602662 320.153537 
L 592.593654 319.412574 
L 594.584646 318.903304 
L 596.575638 318.616948 
L 598.56663 318.542808 
L 600.557623 318.668663 
L 602.548615 318.981133 
L 604.539607 319.466012 
L 606.530599 320.108564 
L 608.521591 320.893795 
L 612.503575 322.83235 
L 616.485559 325.164466 
L 620.467543 327.780336 
L 626.440519 332.022662 
L 640.377464 342.092583 
L 646.35044 346.063846 
L 652.323416 349.685271 
L 656.305401 351.883491 
L 660.287385 353.903033 
L 664.269369 355.744453 
L 668.251353 357.412035 
L 672.233337 358.912842 
L 678.206313 360.871472 
L 684.17929 362.510842 
L 690.152266 363.869008 
L 696.125242 364.983931 
L 702.098218 365.89163 
L 710.062186 366.836051 
L 718.026155 367.538486 
L 727.981115 368.161138 
L 739.927068 368.644357 
L 741.91806 368.704221 
L 741.91806 368.704221 
" clip-path="url(#p43fff2fb5c)" style="fill: none; stroke: #1f77b4; stroke-width: 2; stroke-linecap: square"/>
   </g>
   <g id="line2d_54">
    <path d="M 546.283881 369.356745 
L 549.483868 369.247996 
L 550.550531 369.063084 
L 551.617193 368.633394 
L 552.328302 368.092114 
L 553.03941 367.211722 
L 553.750518 365.819472 
L 554.461627 363.67689 
L 555.172735 360.466773 
L 555.883843 355.784726 
L 556.594952 349.140765 
L 557.30606 339.978405 
L 558.017168 327.719586 
L 558.728277 311.842262 
L 559.439385 291.99187 
L 560.506048 254.77081 
L 561.928264 194.672749 
L 563.706035 119.891854 
L 564.417143 96.478714 
L 565.128252 79.356024 
L 565.483806 73.472567 
L 565.83936 69.452482 
L 566.194914 67.296046 
L 566.550468 66.96 
L 566.906023 68.36232 
L 567.261577 71.38831 
L 567.972685 81.730861 
L 568.683793 96.682741 
L 569.750456 124.728469 
L 573.305997 224.234755 
L 574.728214 255.839508 
L 575.794877 275.444435 
L 576.861539 291.810566 
L 577.928202 305.330912 
L 578.994864 316.428708 
L 580.061527 325.506192 
L 581.128189 332.92108 
L 582.194852 338.979152 
L 583.261514 343.935376 
L 584.328177 347.998998 
L 585.394839 351.340016 
L 586.461502 354.095692 
L 587.528164 356.376481 
L 588.950381 358.82964 
L 590.372597 360.758114 
L 591.794814 362.284489 
L 591.794814 362.284489 
" clip-path="url(#p43fff2fb5c)" style="fill: none; stroke: #ff7f0e; stroke-width: 2; stroke-linecap: square"/>
   </g>
   <g id="line2d_55">
    <path d="M 530.927583 369.36 
L 561.011103 369.294801 
L 563.745968 369.156603 
L 566.480834 368.814453 
L 567.848267 368.509142 
L 569.215699 368.071257 
L 570.583132 367.460471 
L 571.950565 366.630648 
L 573.317997 365.53119 
L 574.68543 364.109199 
L 576.052863 362.312516 
L 577.420296 360.093536 
L 578.787728 357.413603 
L 580.155161 354.247661 
L 581.522594 350.588703 
L 582.890026 346.451482 
L 585.624892 336.922911 
L 589.72719 320.782618 
L 592.462056 310.169668 
L 593.829488 305.290351 
L 595.196921 300.847007 
L 596.564354 296.930598 
L 597.931786 293.609508 
L 599.299219 290.927887 
L 600.666652 288.905816 
L 602.034085 287.541029 
L 603.401517 286.811779 
L 604.76895 286.680442 
L 606.136383 287.097421 
L 607.503816 288.00502 
L 608.871248 289.340995 
L 610.238681 291.041637 
L 611.606114 293.044276 
L 614.340979 297.720996 
L 617.075845 302.949955 
L 625.280441 319.043678 
L 628.015306 323.970495 
L 630.750172 328.540687 
L 633.485037 332.730465 
L 636.219903 336.538817 
L 638.954768 339.979234 
L 641.689634 343.073748 
L 644.424499 345.848779 
L 647.159364 348.33237 
L 649.89423 350.552413 
L 652.629095 352.535578 
L 655.363961 354.306723 
L 658.098826 355.888615 
L 662.201124 357.951092 
L 666.303423 359.694359 
L 670.405721 361.169491 
L 674.508019 362.419158 
L 679.97775 363.795225 
L 685.447481 364.901324 
L 690.917212 365.791194 
L 697.754375 366.663302 
L 705.958972 367.440089 
L 705.958972 367.440089 
" clip-path="url(#p43fff2fb5c)" style="fill: none; stroke: #2ca02c; stroke-width: 2; stroke-linecap: square"/>
   </g>
   <g id="patch_6">
    <path d="M 473.236364 384.48 
L 473.236364 51.84 
" style="fill: none; stroke: #000000; stroke-width: 0.8; stroke-linejoin: miter; stroke-linecap: square"/>
   </g>
   <g id="patch_7">
    <path d="M 473.236364 384.48 
L 777.6 384.48 
" style="fill: none; stroke: #000000; stroke-width: 0.8; stroke-linejoin: miter; stroke-linecap: square"/>
   </g>
   <g id="line2d_56">
    <path d="M 529.480283 369.36 
L 567.917667 369.267147 
L 571.57837 369.091807 
L 575.239073 368.702288 
L 578.899776 367.949989 
L 580.730128 367.383011 
L 582.56048 366.658553 
L 584.390831 365.755308 
L 586.221183 364.654636 
L 588.051535 363.341836 
L 589.881886 361.807287 
L 591.712238 360.047368 
L 593.542589 358.065096 
L 595.372941 355.870435 
L 599.033644 350.917882 
L 602.694347 345.398156 
L 611.846105 331.065705 
L 615.506809 325.947471 
L 617.33716 323.65818 
L 619.167512 321.583126 
L 620.997864 319.741964 
L 622.828215 318.149304 
L 624.658567 316.814769 
L 626.488918 315.743214 
L 628.31927 314.935049 
L 630.149622 314.386657 
L 631.979973 314.090867 
L 633.810325 314.037464 
L 635.640676 314.213714 
L 637.471028 314.604873 
L 639.30138 315.194688 
L 641.131731 315.965851 
L 642.962083 316.900426 
L 646.622786 319.187096 
L 650.283489 321.911554 
L 653.944193 324.939467 
L 661.265599 331.441513 
L 668.587005 337.938695 
L 674.07806 342.509521 
L 677.738764 345.342413 
L 681.399467 347.979498 
L 685.06017 350.410577 
L 688.720873 352.632828 
L 692.381576 354.649097 
L 696.04228 356.466432 
L 699.702983 358.094841 
L 703.363686 359.546281 
L 708.854741 361.420418 
L 714.345796 362.971749 
L 719.836851 364.245331 
L 725.327905 365.283361 
L 730.81896 366.124013 
L 738.140367 366.995377 
L 745.461773 367.642454 
L 754.613531 368.216998 
L 763.765289 368.605093 
L 763.765289 368.605093 
" clip-path="url(#p43fff2fb5c)" style="fill: none; stroke: #d62728; stroke-width: 2; stroke-linecap: square"/>
   </g>
   <g id="text_32">
    <!-- PDF of $X_0|X_1 = x_1$ -->
    <g transform="translate(574.418182 45.84) scale(0.12 -0.12)">
     <defs>
      <path id="DejaVuSans-66" d="M 2375 4863 
L 2375 4384 
L 1825 4384 
Q 1516 4384 1395 4259 
Q 1275 4134 1275 3809 
L 1275 3500 
L 2222 3500 
L 2222 3053 
L 1275 3053 
L 1275 0 
L 697 0 
L 697 3053 
L 147 3053 
L 147 3500 
L 697 3500 
L 697 3744 
Q 697 4328 969 4595 
Q 1241 4863 1831 4863 
L 2375 4863 
z
" transform="scale(0.015625)"/>
      <path id="DejaVuSans-7c" d="M 1344 4891 
L 1344 -1509 
L 813 -1509 
L 813 4891 
L 1344 4891 
z
" transform="scale(0.015625)"/>
      <path id="DejaVuSans-3d" d="M 678 2906 
L 4684 2906 
L 4684 2381 
L 678 2381 
L 678 2906 
z
M 678 1631 
L 4684 1631 
L 4684 1100 
L 678 1100 
L 678 1631 
z
" transform="scale(0.015625)"/>
     </defs>
     <use xlink:href="#DejaVuSans-50" transform="translate(0 0.578125)"/>
     <use xlink:href="#DejaVuSans-44" transform="translate(60.302734 0.578125)"/>
     <use xlink:href="#DejaVuSans-46" transform="translate(137.304688 0.578125)"/>
     <use xlink:href="#DejaVuSans-20" transform="translate(194.824219 0.578125)"/>
     <use xlink:href="#DejaVuSans-6f" transform="translate(226.611328 0.578125)"/>
     <use xlink:href="#DejaVuSans-66" transform="translate(287.792969 0.578125)"/>
     <use xlink:href="#DejaVuSans-20" transform="translate(322.998047 0.578125)"/>
     <use xlink:href="#DejaVuSans-Oblique-58" transform="translate(354.785156 0.578125)"/>
     <use xlink:href="#DejaVuSans-30" transform="translate(423.291016 -15.828125) scale(0.7)"/>
     <use xlink:href="#DejaVuSans-7c" transform="translate(470.561523 0.578125)"/>
     <use xlink:href="#DejaVuSans-Oblique-58" transform="translate(504.25293 0.578125)"/>
     <use xlink:href="#DejaVuSans-31" transform="translate(572.758789 -15.828125) scale(0.7)"/>
     <use xlink:href="#DejaVuSans-3d" transform="translate(639.511719 0.578125)"/>
     <use xlink:href="#DejaVuSans-Oblique-78" transform="translate(742.783203 0.578125)"/>
     <use xlink:href="#DejaVuSans-31" transform="translate(801.962891 -15.828125) scale(0.7)"/>
    </g>
   </g>
   <g id="legend_1">
    <g id="patch_8">
     <path d="M 681.2 120.618125 
L 772.6 120.618125 
Q 774.6 120.618125 774.6 118.618125 
L 774.6 60.84 
Q 774.6 58.84 772.6 58.84 
L 681.2 58.84 
Q 679.2 58.84 679.2 60.84 
L 679.2 118.618125 
Q 679.2 120.618125 681.2 120.618125 
z
" style="fill: #4d4d4d; opacity: 0.5; stroke: #4d4d4d; stroke-linejoin: miter"/>
    </g>
    <g id="patch_9">
     <path d="M 679.2 118.618125 
L 770.6 118.618125 
Q 772.6 118.618125 772.6 116.618125 
L 772.6 58.84 
Q 772.6 56.84 770.6 56.84 
L 679.2 56.84 
Q 677.2 56.84 677.2 58.84 
L 677.2 116.618125 
Q 677.2 118.618125 679.2 118.618125 
z
" style="fill: #ffffff; stroke: #cccccc; stroke-linejoin: miter"/>
    </g>
    <g id="line2d_57">
     <path d="M 681.2 64.938437 
L 691.2 64.938437 
L 701.2 64.938437 
" style="fill: none; stroke: #1f77b4; stroke-width: 2; stroke-linecap: square"/>
    </g>
    <g id="text_33">
     <!-- dist of $X_0$ -->
     <g transform="translate(709.2 68.438437) scale(0.1 -0.1)">
      <defs>
       <path id="DejaVuSans-64" d="M 2906 2969 
L 2906 4863 
L 3481 4863 
L 3481 0 
L 2906 0 
L 2906 525 
Q 2725 213 2448 61 
Q 2172 -91 1784 -91 
Q 1150 -91 751 415 
Q 353 922 353 1747 
Q 353 2572 751 3078 
Q 1150 3584 1784 3584 
Q 2172 3584 2448 3432 
Q 2725 3281 2906 2969 
z
M 947 1747 
Q 947 1113 1208 752 
Q 1469 391 1925 391 
Q 2381 391 2643 752 
Q 2906 1113 2906 1747 
Q 2906 2381 2643 2742 
Q 2381 3103 1925 3103 
Q 1469 3103 1208 2742 
Q 947 2381 947 1747 
z
" transform="scale(0.015625)"/>
       <path id="DejaVuSans-74" d="M 1172 4494 
L 1172 3500 
L 2356 3500 
L 2356 3053 
L 1172 3053 
L 1172 1153 
Q 1172 725 1289 603 
Q 1406 481 1766 481 
L 2356 481 
L 2356 0 
L 1766 0 
Q 1100 0 847 248 
Q 594 497 594 1153 
L 594 3053 
L 172 3053 
L 172 3500 
L 594 3500 
L 594 4494 
L 1172 4494 
z
" transform="scale(0.015625)"/>
      </defs>
      <use xlink:href="#DejaVuSans-64" transform="translate(0 0.015625)"/>
      <use xlink:href="#DejaVuSans-69" transform="translate(63.476562 0.015625)"/>
      <use xlink:href="#DejaVuSans-73" transform="translate(91.259766 0.015625)"/>
      <use xlink:href="#DejaVuSans-74" transform="translate(143.359375 0.015625)"/>
      <use xlink:href="#DejaVuSans-20" transform="translate(182.568359 0.015625)"/>
      <use xlink:href="#DejaVuSans-6f" transform="translate(214.355469 0.015625)"/>
      <use xlink:href="#DejaVuSans-66" transform="translate(275.537109 0.015625)"/>
      <use xlink:href="#DejaVuSans-20" transform="translate(310.742188 0.015625)"/>
      <use xlink:href="#DejaVuSans-Oblique-58" transform="translate(342.529297 0.015625)"/>
      <use xlink:href="#DejaVuSans-30" transform="translate(411.035156 -16.390625) scale(0.7)"/>
     </g>
    </g>
    <g id="line2d_58">
     <path d="M 681.2 79.618125 
L 691.2 79.618125 
L 701.2 79.618125 
" style="fill: none; stroke: #ff7f0e; stroke-width: 2; stroke-linecap: square"/>
    </g>
    <g id="text_34">
     <!-- $x_1 = q($0.05) -->
     <g transform="translate(709.2 83.118125) scale(0.1 -0.1)">
      <defs>
       <path id="DejaVuSans-Oblique-71" d="M 2669 525 
Q 2438 222 2123 65 
Q 1809 -91 1428 -91 
Q 897 -91 595 267 
Q 294 625 294 1253 
Q 294 1759 480 2231 
Q 666 2703 1013 3078 
Q 1238 3322 1530 3453 
Q 1822 3584 2144 3584 
Q 2531 3584 2781 3431 
Q 3031 3278 3144 2969 
L 3244 3494 
L 3822 3494 
L 2888 -1319 
L 2309 -1319 
L 2669 525 
z
M 891 1338 
Q 891 875 1084 633 
Q 1278 391 1644 391 
Q 2188 391 2572 911 
Q 2956 1431 2956 2175 
Q 2956 2625 2757 2864 
Q 2559 3103 2188 3103 
Q 1916 3103 1684 2976 
Q 1453 2850 1281 2606 
Q 1100 2350 995 2006 
Q 891 1663 891 1338 
z
" transform="scale(0.015625)"/>
      </defs>
      <use xlink:href="#DejaVuSans-Oblique-78" transform="translate(0 0.125)"/>
      <use xlink:href="#DejaVuSans-31" transform="translate(59.179688 -16.28125) scale(0.7)"/>
      <use xlink:href="#DejaVuSans-3d" transform="translate(125.932617 0.125)"/>
      <use xlink:href="#DejaVuSans-Oblique-71" transform="translate(229.204102 0.125)"/>
      <use xlink:href="#DejaVuSans-28" transform="translate(292.680664 0.125)"/>
      <use xlink:href="#DejaVuSans-30" transform="translate(331.694336 0.125)"/>
      <use xlink:href="#DejaVuSans-2e" transform="translate(395.317383 0.125)"/>
      <use xlink:href="#DejaVuSans-30" transform="translate(427.104492 0.125)"/>
      <use xlink:href="#DejaVuSans-35" transform="translate(490.727539 0.125)"/>
      <use xlink:href="#DejaVuSans-29" transform="translate(554.350586 0.125)"/>
     </g>
    </g>
    <g id="line2d_59">
     <path d="M 681.2 94.318125 
L 691.2 94.318125 
L 701.2 94.318125 
" style="fill: none; stroke: #2ca02c; stroke-width: 2; stroke-linecap: square"/>
    </g>
    <g id="text_35">
     <!-- $x_1 = q($0.5) -->
     <g transform="translate(709.2 97.818125) scale(0.1 -0.1)">
      <use xlink:href="#DejaVuSans-Oblique-78" transform="translate(0 0.125)"/>
      <use xlink:href="#DejaVuSans-31" transform="translate(59.179688 -16.28125) scale(0.7)"/>
      <use xlink:href="#DejaVuSans-3d" transform="translate(125.932617 0.125)"/>
      <use xlink:href="#DejaVuSans-Oblique-71" transform="translate(229.204102 0.125)"/>
      <use xlink:href="#DejaVuSans-28" transform="translate(292.680664 0.125)"/>
      <use xlink:href="#DejaVuSans-30" transform="translate(331.694336 0.125)"/>
      <use xlink:href="#DejaVuSans-2e" transform="translate(395.317383 0.125)"/>
      <use xlink:href="#DejaVuSans-35" transform="translate(427.104492 0.125)"/>
      <use xlink:href="#DejaVuSans-29" transform="translate(490.727539 0.125)"/>
     </g>
    </g>
    <g id="line2d_60">
     <path d="M 681.2 109.018125 
L 691.2 109.018125 
L 701.2 109.018125 
" style="fill: none; stroke: #d62728; stroke-width: 2; stroke-linecap: square"/>
    </g>
    <g id="text_36">
     <!-- $x_1 = q($0.95) -->
     <g transform="translate(709.2 112.518125) scale(0.1 -0.1)">
      <defs>
       <path id="DejaVuSans-39" d="M 703 97 
L 703 672 
Q 941 559 1184 500 
Q 1428 441 1663 441 
Q 2288 441 2617 861 
Q 2947 1281 2994 2138 
Q 2813 1869 2534 1725 
Q 2256 1581 1919 1581 
Q 1219 1581 811 2004 
Q 403 2428 403 3163 
Q 403 3881 828 4315 
Q 1253 4750 1959 4750 
Q 2769 4750 3195 4129 
Q 3622 3509 3622 2328 
Q 3622 1225 3098 567 
Q 2575 -91 1691 -91 
Q 1453 -91 1209 -44 
Q 966 3 703 97 
z
M 1959 2075 
Q 2384 2075 2632 2365 
Q 2881 2656 2881 3163 
Q 2881 3666 2632 3958 
Q 2384 4250 1959 4250 
Q 1534 4250 1286 3958 
Q 1038 3666 1038 3163 
Q 1038 2656 1286 2365 
Q 1534 2075 1959 2075 
z
" transform="scale(0.015625)"/>
      </defs>
      <use xlink:href="#DejaVuSans-Oblique-78" transform="translate(0 0.125)"/>
      <use xlink:href="#DejaVuSans-31" transform="translate(59.179688 -16.28125) scale(0.7)"/>
      <use xlink:href="#DejaVuSans-3d" transform="translate(125.932617 0.125)"/>
      <use xlink:href="#DejaVuSans-Oblique-71" transform="translate(229.204102 0.125)"/>
      <use xlink:href="#DejaVuSans-28" transform="translate(292.680664 0.125)"/>
      <use xlink:href="#DejaVuSans-30" transform="translate(331.694336 0.125)"/>
      <use xlink:href="#DejaVuSans-2e" transform="translate(395.317383 0.125)"/>
      <use xlink:href="#DejaVuSans-39" transform="translate(427.104492 0.125)"/>
      <use xlink:href="#DejaVuSans-35" transform="translate(490.727539 0.125)"/>
      <use xlink:href="#DejaVuSans-29" transform="translate(554.350586 0.125)"/>
     </g>
    </g>
   </g>
  </g>
  <g id="axes_3">
   <g id="patch_10">
    <path d="M 366.709091 369.36 
L 383.341091 369.36 
L 383.341091 66.96 
L 366.709091 66.96 
z
" style="fill: #ffffff"/>
   </g>
   <g id="matplotlib.axis_5"/>
   <g id="matplotlib.axis_6">
    <g id="ytick_13">
     <g id="line2d_61">
      <defs>
       <path id="mb508538578" d="M 0 0 
L 3.5 0 
" style="stroke: #000000; stroke-width: 0.8"/>
      </defs>
      <g>
       <use xlink:href="#mb508538578" x="383.341091" y="369.36" style="stroke: #000000; stroke-width: 0.8"/>
      </g>
     </g>
     <g id="text_37">
      <!-- 5.23e-11 -->
      <g transform="translate(390.341091 373.159219) scale(0.1 -0.1)">
       <use xlink:href="#DejaVuSans-35"/>
       <use xlink:href="#DejaVuSans-2e" transform="translate(63.623047 0)"/>
       <use xlink:href="#DejaVuSans-32" transform="translate(95.410156 0)"/>
       <use xlink:href="#DejaVuSans-33" transform="translate(159.033203 0)"/>
       <use xlink:href="#DejaVuSans-65" transform="translate(222.65625 0)"/>
       <use xlink:href="#DejaVuSans-2d" transform="translate(284.179688 0)"/>
       <use xlink:href="#DejaVuSans-31" transform="translate(320.263672 0)"/>
       <use xlink:href="#DejaVuSans-31" transform="translate(383.886719 0)"/>
      </g>
     </g>
    </g>
    <g id="ytick_14">
     <g id="line2d_62">
      <g>
       <use xlink:href="#mb508538578" x="383.341091" y="335.76" style="stroke: #000000; stroke-width: 0.8"/>
      </g>
     </g>
     <g id="text_38">
      <!-- 2.08e-08 -->
      <g transform="translate(390.341091 339.559219) scale(0.1 -0.1)">
       <defs>
        <path id="DejaVuSans-38" d="M 2034 2216 
Q 1584 2216 1326 1975 
Q 1069 1734 1069 1313 
Q 1069 891 1326 650 
Q 1584 409 2034 409 
Q 2484 409 2743 651 
Q 3003 894 3003 1313 
Q 3003 1734 2745 1975 
Q 2488 2216 2034 2216 
z
M 1403 2484 
Q 997 2584 770 2862 
Q 544 3141 544 3541 
Q 544 4100 942 4425 
Q 1341 4750 2034 4750 
Q 2731 4750 3128 4425 
Q 3525 4100 3525 3541 
Q 3525 3141 3298 2862 
Q 3072 2584 2669 2484 
Q 3125 2378 3379 2068 
Q 3634 1759 3634 1313 
Q 3634 634 3220 271 
Q 2806 -91 2034 -91 
Q 1263 -91 848 271 
Q 434 634 434 1313 
Q 434 1759 690 2068 
Q 947 2378 1403 2484 
z
M 1172 3481 
Q 1172 3119 1398 2916 
Q 1625 2713 2034 2713 
Q 2441 2713 2670 2916 
Q 2900 3119 2900 3481 
Q 2900 3844 2670 4047 
Q 2441 4250 2034 4250 
Q 1625 4250 1398 4047 
Q 1172 3844 1172 3481 
z
" transform="scale(0.015625)"/>
       </defs>
       <use xlink:href="#DejaVuSans-32"/>
       <use xlink:href="#DejaVuSans-2e" transform="translate(63.623047 0)"/>
       <use xlink:href="#DejaVuSans-30" transform="translate(95.410156 0)"/>
       <use xlink:href="#DejaVuSans-38" transform="translate(159.033203 0)"/>
       <use xlink:href="#DejaVuSans-65" transform="translate(222.65625 0)"/>
       <use xlink:href="#DejaVuSans-2d" transform="translate(284.179688 0)"/>
       <use xlink:href="#DejaVuSans-30" transform="translate(320.263672 0)"/>
       <use xlink:href="#DejaVuSans-38" transform="translate(383.886719 0)"/>
      </g>
     </g>
    </g>
    <g id="ytick_15">
     <g id="line2d_63">
      <g>
       <use xlink:href="#mb508538578" x="383.341091" y="302.16" style="stroke: #000000; stroke-width: 0.8"/>
      </g>
     </g>
     <g id="text_39">
      <!-- 8.51e-07 -->
      <g transform="translate(390.341091 305.959219) scale(0.1 -0.1)">
       <defs>
        <path id="DejaVuSans-37" d="M 525 4666 
L 3525 4666 
L 3525 4397 
L 1831 0 
L 1172 0 
L 2766 4134 
L 525 4134 
L 525 4666 
z
" transform="scale(0.015625)"/>
       </defs>
       <use xlink:href="#DejaVuSans-38"/>
       <use xlink:href="#DejaVuSans-2e" transform="translate(63.623047 0)"/>
       <use xlink:href="#DejaVuSans-35" transform="translate(95.410156 0)"/>
       <use xlink:href="#DejaVuSans-31" transform="translate(159.033203 0)"/>
       <use xlink:href="#DejaVuSans-65" transform="translate(222.65625 0)"/>
       <use xlink:href="#DejaVuSans-2d" transform="translate(284.179688 0)"/>
       <use xlink:href="#DejaVuSans-30" transform="translate(320.263672 0)"/>
       <use xlink:href="#DejaVuSans-37" transform="translate(383.886719 0)"/>
      </g>
     </g>
    </g>
    <g id="ytick_16">
     <g id="line2d_64">
      <g>
       <use xlink:href="#mb508538578" x="383.341091" y="268.56" style="stroke: #000000; stroke-width: 0.8"/>
      </g>
     </g>
     <g id="text_40">
      <!-- 1.97e-05 -->
      <g transform="translate(390.341091 272.359219) scale(0.1 -0.1)">
       <use xlink:href="#DejaVuSans-31"/>
       <use xlink:href="#DejaVuSans-2e" transform="translate(63.623047 0)"/>
       <use xlink:href="#DejaVuSans-39" transform="translate(95.410156 0)"/>
       <use xlink:href="#DejaVuSans-37" transform="translate(159.033203 0)"/>
       <use xlink:href="#DejaVuSans-65" transform="translate(222.65625 0)"/>
       <use xlink:href="#DejaVuSans-2d" transform="translate(284.179688 0)"/>
       <use xlink:href="#DejaVuSans-30" transform="translate(320.263672 0)"/>
       <use xlink:href="#DejaVuSans-35" transform="translate(383.886719 0)"/>
      </g>
     </g>
    </g>
    <g id="ytick_17">
     <g id="line2d_65">
      <g>
       <use xlink:href="#mb508538578" x="383.341091" y="234.96" style="stroke: #000000; stroke-width: 0.8"/>
      </g>
     </g>
     <g id="text_41">
      <!-- 0.000137 -->
      <g transform="translate(390.341091 238.759219) scale(0.1 -0.1)">
       <use xlink:href="#DejaVuSans-30"/>
       <use xlink:href="#DejaVuSans-2e" transform="translate(63.623047 0)"/>
       <use xlink:href="#DejaVuSans-30" transform="translate(95.410156 0)"/>
       <use xlink:href="#DejaVuSans-30" transform="translate(159.033203 0)"/>
       <use xlink:href="#DejaVuSans-30" transform="translate(222.65625 0)"/>
       <use xlink:href="#DejaVuSans-31" transform="translate(286.279297 0)"/>
       <use xlink:href="#DejaVuSans-33" transform="translate(349.902344 0)"/>
       <use xlink:href="#DejaVuSans-37" transform="translate(413.525391 0)"/>
      </g>
     </g>
    </g>
    <g id="ytick_18">
     <g id="line2d_66">
      <g>
       <use xlink:href="#mb508538578" x="383.341091" y="201.36" style="stroke: #000000; stroke-width: 0.8"/>
      </g>
     </g>
     <g id="text_42">
      <!-- 0.000444 -->
      <g transform="translate(390.341091 205.159219) scale(0.1 -0.1)">
       <use xlink:href="#DejaVuSans-30"/>
       <use xlink:href="#DejaVuSans-2e" transform="translate(63.623047 0)"/>
       <use xlink:href="#DejaVuSans-30" transform="translate(95.410156 0)"/>
       <use xlink:href="#DejaVuSans-30" transform="translate(159.033203 0)"/>
       <use xlink:href="#DejaVuSans-30" transform="translate(222.65625 0)"/>
       <use xlink:href="#DejaVuSans-34" transform="translate(286.279297 0)"/>
       <use xlink:href="#DejaVuSans-34" transform="translate(349.902344 0)"/>
       <use xlink:href="#DejaVuSans-34" transform="translate(413.525391 0)"/>
      </g>
     </g>
    </g>
    <g id="ytick_19">
     <g id="line2d_67">
      <g>
       <use xlink:href="#mb508538578" x="383.341091" y="167.76" style="stroke: #000000; stroke-width: 0.8"/>
      </g>
     </g>
     <g id="text_43">
      <!-- 0.00102 -->
      <g transform="translate(390.341091 171.559219) scale(0.1 -0.1)">
       <use xlink:href="#DejaVuSans-30"/>
       <use xlink:href="#DejaVuSans-2e" transform="translate(63.623047 0)"/>
       <use xlink:href="#DejaVuSans-30" transform="translate(95.410156 0)"/>
       <use xlink:href="#DejaVuSans-30" transform="translate(159.033203 0)"/>
       <use xlink:href="#DejaVuSans-31" transform="translate(222.65625 0)"/>
       <use xlink:href="#DejaVuSans-30" transform="translate(286.279297 0)"/>
       <use xlink:href="#DejaVuSans-32" transform="translate(349.902344 0)"/>
      </g>
     </g>
    </g>
    <g id="ytick_20">
     <g id="line2d_68">
      <g>
       <use xlink:href="#mb508538578" x="383.341091" y="134.16" style="stroke: #000000; stroke-width: 0.8"/>
      </g>
     </g>
     <g id="text_44">
      <!-- 0.00256 -->
      <g transform="translate(390.341091 137.959219) scale(0.1 -0.1)">
       <use xlink:href="#DejaVuSans-30"/>
       <use xlink:href="#DejaVuSans-2e" transform="translate(63.623047 0)"/>
       <use xlink:href="#DejaVuSans-30" transform="translate(95.410156 0)"/>
       <use xlink:href="#DejaVuSans-30" transform="translate(159.033203 0)"/>
       <use xlink:href="#DejaVuSans-32" transform="translate(222.65625 0)"/>
       <use xlink:href="#DejaVuSans-35" transform="translate(286.279297 0)"/>
       <use xlink:href="#DejaVuSans-36" transform="translate(349.902344 0)"/>
      </g>
     </g>
    </g>
    <g id="ytick_21">
     <g id="line2d_69">
      <g>
       <use xlink:href="#mb508538578" x="383.341091" y="100.56" style="stroke: #000000; stroke-width: 0.8"/>
      </g>
     </g>
     <g id="text_45">
      <!-- 0.00739 -->
      <g transform="translate(390.341091 104.359219) scale(0.1 -0.1)">
       <use xlink:href="#DejaVuSans-30"/>
       <use xlink:href="#DejaVuSans-2e" transform="translate(63.623047 0)"/>
       <use xlink:href="#DejaVuSans-30" transform="translate(95.410156 0)"/>
       <use xlink:href="#DejaVuSans-30" transform="translate(159.033203 0)"/>
       <use xlink:href="#DejaVuSans-37" transform="translate(222.65625 0)"/>
       <use xlink:href="#DejaVuSans-33" transform="translate(286.279297 0)"/>
       <use xlink:href="#DejaVuSans-39" transform="translate(349.902344 0)"/>
      </g>
     </g>
    </g>
    <g id="ytick_22">
     <g id="line2d_70">
      <g>
       <use xlink:href="#mb508538578" x="383.341091" y="66.96" style="stroke: #000000; stroke-width: 0.8"/>
      </g>
     </g>
     <g id="text_46">
      <!-- 0.0279 -->
      <g transform="translate(390.341091 70.759219) scale(0.1 -0.1)">
       <use xlink:href="#DejaVuSans-30"/>
       <use xlink:href="#DejaVuSans-2e" transform="translate(63.623047 0)"/>
       <use xlink:href="#DejaVuSans-30" transform="translate(95.410156 0)"/>
       <use xlink:href="#DejaVuSans-32" transform="translate(159.033203 0)"/>
       <use xlink:href="#DejaVuSans-37" transform="translate(222.65625 0)"/>
       <use xlink:href="#DejaVuSans-39" transform="translate(286.279297 0)"/>
      </g>
     </g>
    </g>
   </g>
   <g id="LineCollection_1"/>
   <g id="LineCollection_2">
    <path d="M 366.709091 369.36 
L 383.341091 369.36 
" clip-path="url(#pe2dc27a277)" style="fill: none; stroke: #440154; stroke-opacity: 0.996094"/>
    <path d="M 366.709091 335.76 
L 383.341091 335.76 
" clip-path="url(#pe2dc27a277)" style="fill: none; stroke: #482878; stroke-opacity: 0.996094"/>
    <path d="M 366.709091 302.16 
L 383.341091 302.16 
" clip-path="url(#pe2dc27a277)" style="fill: none; stroke: #3e4989; stroke-opacity: 0.996094"/>
    <path d="M 366.709091 268.56 
L 383.341091 268.56 
" clip-path="url(#pe2dc27a277)" style="fill: none; stroke: #31688e; stroke-opacity: 0.996094"/>
    <path d="M 366.709091 234.96 
L 383.341091 234.96 
" clip-path="url(#pe2dc27a277)" style="fill: none; stroke: #26828e; stroke-opacity: 0.996094"/>
    <path d="M 366.709091 201.36 
L 383.341091 201.36 
" clip-path="url(#pe2dc27a277)" style="fill: none; stroke: #1f9e89; stroke-opacity: 0.996094"/>
    <path d="M 366.709091 167.76 
L 383.341091 167.76 
" clip-path="url(#pe2dc27a277)" style="fill: none; stroke: #35b779; stroke-opacity: 0.996094"/>
    <path d="M 366.709091 134.16 
L 383.341091 134.16 
" clip-path="url(#pe2dc27a277)" style="fill: none; stroke: #6ece58; stroke-opacity: 0.996094"/>
    <path d="M 366.709091 100.56 
L 383.341091 100.56 
" clip-path="url(#pe2dc27a277)" style="fill: none; stroke: #b5de2b; stroke-opacity: 0.996094"/>
    <path d="M 366.709091 66.96 
L 383.341091 66.96 
" clip-path="url(#pe2dc27a277)" style="fill: none; stroke: #fde725; stroke-opacity: 0.996094"/>
   </g>
   <g id="patch_11">
    <path d="M 366.709091 369.36 
L 375.025091 384.48 
L 383.341091 369.36 
L 383.341091 66.96 
L 375.025091 51.84 
L 366.709091 66.96 
L 366.709091 369.36 
z
" style="fill: none; stroke: #000000; stroke-width: 0.8; stroke-linejoin: miter; stroke-linecap: square"/>
   </g>
  </g>
 </g>
 <defs>
  <clipPath id="pb259de77a8">
   <rect x="108" y="51.84" width="243.490909" height="332.64"/>
  </clipPath>
  <clipPath id="p43fff2fb5c">
   <rect x="473.236364" y="51.84" width="304.363636" height="332.64"/>
  </clipPath>
  <clipPath id="pe2dc27a277">
   <path d="M 366.709091 370.269091 
L 383.341091 370.269091 
L 383.341091 66.050909 
L 366.709091 66.050909 
z
"/>
  </clipPath>
 </defs>
</svg>
