<?xml version="1.0" encoding="utf-8" standalone="no"?>
<!DOCTYPE svg PUBLIC "-//W3C//DTD SVG 1.1//EN"
  "http://www.w3.org/Graphics/SVG/1.1/DTD/svg11.dtd">
<svg xmlns:xlink="http://www.w3.org/1999/xlink" width="576pt" height="216pt" viewBox="0 0 576 216" xmlns="http://www.w3.org/2000/svg" version="1.1">
 <metadata>
  <rdf:RDF xmlns:dc="http://purl.org/dc/elements/1.1/" xmlns:cc="http://creativecommons.org/ns#" xmlns:rdf="http://www.w3.org/1999/02/22-rdf-syntax-ns#">
   <cc:Work>
    <dc:type rdf:resource="http://purl.org/dc/dcmitype/StillImage"/>
    <dc:date>2022-01-01T00:00:00+00:00</dc:date>
    <dc:format>image/svg+xml</dc:format>
    <dc:creator>
     <cc:Agent>
      <dc:title>Matplotlib v3.10.8, https://matplotlib.org/</dc:title>
     </cc:Agent>
    </dc:creator>
   </cc:Work>
  </rdf:RDF>
 </metadata>
 <defs>
  <style type="text/css">*{stroke-linejoin: round; stroke-linecap: butt}</style>
 </defs>
 <g id="figure_1">
  <g id="patch_1">
   <path d="M 0 216 
L 576 216 
L 576 0 
L 0 0 
z
" style="fill: #ffffff"/>
  </g>
  <g id="axes_1">
   <g id="patch_2">
    <path d="M 54.2 172.8 
L 167.241834 172.8 
L 167.241834 21.989249 
L 54.2 21.989249 
z
" style="fill: #ffffff"/>
   </g>
   <g id="matplotlib.axis_1">
    <g id="xtick_1">
     <g id="line2d_1">
      <path d="M 55.73513 172.8 
L 55.73513 21.989249 
" clip-path="url(#pec683ebfc7)" style="fill: none; stroke: #b0b0b0; stroke-width: 0.8; stroke-linecap: square"/>
     </g>
     <g id="line2d_2">
      <defs>
       <path id="m4a92d99fee" d="M 0 0 
L 0 3.5 
" style="stroke: #000000; stroke-width: 0.8"/>
      </defs>
      <g>
       <use xlink:href="#m4a92d99fee" x="55.73513" y="172.8" style="stroke: #000000; stroke-width: 0.8"/>
      </g>
     </g>
     <g id="text_1">
      <!-- 0 -->
      <g transform="translate(52.55388 187.398438) scale(0.1 -0.1)">
       <defs>
        <path id="DejaVuSans-30" d="M 2034 4250 
Q 1547 4250 1301 3770 
Q 1056 3291 1056 2328 
Q 1056 1369 1301 889 
Q 1547 409 2034 409 
Q 2525 409 2770 889 
Q 3016 1369 3016 2328 
Q 3016 3291 2770 3770 
Q 2525 4250 2034 4250 
z
M 2034 4750 
Q 2819 4750 3233 4129 
Q 3647 3509 3647 2328 
Q 3647 1150 3233 529 
Q 2819 -91 2034 -91 
Q 1250 -91 836 529 
Q 422 1150 422 2328 
Q 422 3509 836 4129 
Q 1250 4750 2034 4750 
z
" transform="scale(0.015625)"/>
       </defs>
       <use xlink:href="#DejaVuSans-30"/>
      </g>
     </g>
    </g>
    <g id="xtick_2">
     <g id="line2d_3">
      <path d="M 109.345271 172.8 
L 109.345271 21.989249 
" clip-path="url(#pec683ebfc7)" style="fill: none; stroke: #b0b0b0; stroke-width: 0.8; stroke-linecap: square"/>
     </g>
     <g id="line2d_4">
      <g>
       <use xlink:href="#m4a92d99fee" x="109.345271" y="172.8" style="stroke: #000000; stroke-width: 0.8"/>
      </g>
     </g>
     <g id="text_2">
      <!-- 20 -->
      <g transform="translate(102.982771 187.398438) scale(0.1 -0.1)">
       <defs>
        <path id="DejaVuSans-32" d="M 1228 531 
L 3431 531 
L 3431 0 
L 469 0 
L 469 531 
Q 828 903 1448 1529 
Q 2069 2156 2228 2338 
Q 2531 2678 2651 2914 
Q 2772 3150 2772 3378 
Q 2772 3750 2511 3984 
Q 2250 4219 1831 4219 
Q 1534 4219 1204 4116 
Q 875 4013 500 3803 
L 500 4441 
Q 881 4594 1212 4672 
Q 1544 4750 1819 4750 
Q 2544 4750 2975 4387 
Q 3406 4025 3406 3419 
Q 3406 3131 3298 2873 
Q 3191 2616 2906 2266 
Q 2828 2175 2409 1742 
Q 1991 1309 1228 531 
z
" transform="scale(0.015625)"/>
       </defs>
       <use xlink:href="#DejaVuSans-32"/>
       <use xlink:href="#DejaVuSans-30" transform="translate(63.623047 0)"/>
      </g>
     </g>
    </g>
    <g id="xtick_3">
     <g id="line2d_5">
      <path d="M 162.955413 172.8 
L 162.955413 21.989249 
" clip-path="url(#pec683ebfc7)" style="fill: none; stroke: #b0b0b0; stroke-width: 0.8; stroke-linecap: square"/>
     </g>
     <g id="line2d_6">
      <g>
       <use xlink:href="#m4a92d99fee" x="162.955413" y="172.8" style="stroke: #000000; stroke-width: 0.8"/>
      </g>
     </g>
     <g id="text_3">
      <!-- 40 -->
      <g transform="translate(156.592913 187.398438) scale(0.1 -0.1)">
       <defs>
        <path id="DejaVuSans-34" d="M 2419 4116 
L 825 1625 
L 2419 1625 
L 2419 4116 
z
M 2253 4666 
L 3047 4666 
L 3047 1625 
L 3713 1625 
L 3713 1100 
L 3047 1100 
L 3047 0 
L 2419 0 
L 2419 1100 
L 313 1100 
L 313 1709 
L 2253 4666 
z
" transform="scale(0.015625)"/>
       </defs>
       <use xlink:href="#DejaVuSans-34"/>
       <use xlink:href="#DejaVuSans-30" transform="translate(63.623047 0)"/>
      </g>
     </g>
    </g>
    <g id="text_4">
     <!-- Ks ($m^{1/3}/s$) -->
     <g transform="translate(84.170917 201.898438) scale(0.1 -0.1)">
      <defs>
       <path id="DejaVuSans-4b" d="M 628 4666 
L 1259 4666 
L 1259 2694 
L 3353 4666 
L 4166 4666 
L 1850 2491 
L 4331 0 
L 3500 0 
L 1259 2247 
L 1259 0 
L 628 0 
L 628 4666 
z
" transform="scale(0.015625)"/>
       <path id="DejaVuSans-73" d="M 2834 3397 
L 2834 2853 
Q 2591 2978 2328 3040 
Q 2066 3103 1784 3103 
Q 1356 3103 1142 2972 
Q 928 2841 928 2578 
Q 928 2378 1081 2264 
Q 1234 2150 1697 2047 
L 1894 2003 
Q 2506 1872 2764 1633 
Q 3022 1394 3022 966 
Q 3022 478 2636 193 
Q 2250 -91 1575 -91 
Q 1294 -91 989 -36 
Q 684 19 347 128 
L 347 722 
Q 666 556 975 473 
Q 1284 391 1588 391 
Q 1994 391 2212 530 
Q 2431 669 2431 922 
Q 2431 1156 2273 1281 
Q 2116 1406 1581 1522 
L 1381 1569 
Q 847 1681 609 1914 
Q 372 2147 372 2553 
Q 372 3047 722 3315 
Q 1072 3584 1716 3584 
Q 2034 3584 2315 3537 
Q 2597 3491 2834 3397 
z
" transform="scale(0.015625)"/>
       <path id="DejaVuSans-20" transform="scale(0.015625)"/>
       <path id="DejaVuSans-28" d="M 1984 4856 
Q 1566 4138 1362 3434 
Q 1159 2731 1159 2009 
Q 1159 1288 1364 580 
Q 1569 -128 1984 -844 
L 1484 -844 
Q 1016 -109 783 600 
Q 550 1309 550 2009 
Q 550 2706 781 3412 
Q 1013 4119 1484 4856 
L 1984 4856 
z
" transform="scale(0.015625)"/>
       <path id="DejaVuSans-Oblique-6d" d="M 5747 2113 
L 5338 0 
L 4763 0 
L 5166 2094 
Q 5191 2228 5203 2325 
Q 5216 2422 5216 2491 
Q 5216 2772 5059 2928 
Q 4903 3084 4622 3084 
Q 4203 3084 3875 2770 
Q 3547 2456 3450 1953 
L 3066 0 
L 2491 0 
L 2900 2094 
Q 2925 2209 2937 2307 
Q 2950 2406 2950 2484 
Q 2950 2769 2794 2926 
Q 2638 3084 2363 3084 
Q 1938 3084 1609 2770 
Q 1281 2456 1184 1953 
L 800 0 
L 225 0 
L 909 3500 
L 1484 3500 
L 1375 2956 
Q 1609 3263 1923 3423 
Q 2238 3584 2597 3584 
Q 2978 3584 3223 3384 
Q 3469 3184 3519 2828 
Q 3781 3197 4126 3390 
Q 4472 3584 4856 3584 
Q 5306 3584 5551 3325 
Q 5797 3066 5797 2591 
Q 5797 2488 5784 2364 
Q 5772 2241 5747 2113 
z
" transform="scale(0.015625)"/>
       <path id="DejaVuSans-31" d="M 794 531 
L 1825 531 
L 1825 4091 
L 703 3866 
L 703 4441 
L 1819 4666 
L 2450 4666 
L 2450 531 
L 3481 531 
L 3481 0 
L 794 0 
L 794 531 
z
" transform="scale(0.015625)"/>
       <path id="DejaVuSans-2f" d="M 1625 4666 
L 2156 4666 
L 531 -594 
L 0 -594 
L 1625 4666 
z
" transform="scale(0.015625)"/>
       <path id="DejaVuSans-33" d="M 2597 2516 
Q 3050 2419 3304 2112 
Q 3559 1806 3559 1356 
Q 3559 666 3084 287 
Q 2609 -91 1734 -91 
Q 1441 -91 1130 -33 
Q 819 25 488 141 
L 488 750 
Q 750 597 1062 519 
Q 1375 441 1716 441 
Q 2309 441 2620 675 
Q 2931 909 2931 1356 
Q 2931 1769 2642 2001 
Q 2353 2234 1838 2234 
L 1294 2234 
L 1294 2753 
L 1863 2753 
Q 2328 2753 2575 2939 
Q 2822 3125 2822 3475 
Q 2822 3834 2567 4026 
Q 2313 4219 1838 4219 
Q 1578 4219 1281 4162 
Q 984 4106 628 3988 
L 628 4550 
Q 988 4650 1302 4700 
Q 1616 4750 1894 4750 
Q 2613 4750 3031 4423 
Q 3450 4097 3450 3541 
Q 3450 3153 3228 2886 
Q 3006 2619 2597 2516 
z
" transform="scale(0.015625)"/>
       <path id="DejaVuSans-Oblique-73" d="M 3200 3397 
L 3091 2853 
Q 2863 2978 2609 3040 
Q 2356 3103 2088 3103 
Q 1634 3103 1373 2948 
Q 1113 2794 1113 2528 
Q 1113 2219 1719 2053 
Q 1766 2041 1788 2034 
L 1972 1978 
Q 2547 1819 2739 1644 
Q 2931 1469 2931 1166 
Q 2931 609 2489 259 
Q 2047 -91 1331 -91 
Q 1053 -91 747 -37 
Q 441 16 72 128 
L 184 722 
Q 500 559 806 475 
Q 1113 391 1394 391 
Q 1816 391 2080 572 
Q 2344 753 2344 1031 
Q 2344 1331 1650 1516 
L 1591 1531 
L 1394 1581 
Q 956 1697 753 1886 
Q 550 2075 550 2369 
Q 550 2928 970 3256 
Q 1391 3584 2113 3584 
Q 2397 3584 2667 3537 
Q 2938 3491 3200 3397 
z
" transform="scale(0.015625)"/>
       <path id="DejaVuSans-29" d="M 513 4856 
L 1013 4856 
Q 1481 4119 1714 3412 
Q 1947 2706 1947 2009 
Q 1947 1309 1714 600 
Q 1481 -109 1013 -844 
L 513 -844 
Q 928 -128 1133 580 
Q 1338 1288 1338 2009 
Q 1338 2731 1133 3434 
Q 928 4138 513 4856 
z
" transform="scale(0.015625)"/>
      </defs>
      <use xlink:href="#DejaVuSans-4b" transform="translate(0 0.765625)"/>
      <use xlink:href="#DejaVuSans-73" transform="translate(65.576172 0.765625)"/>
      <use xlink:href="#DejaVuSans-20" transform="translate(117.675781 0.765625)"/>
      <use xlink:href="#DejaVuSans-28" transform="translate(149.462891 0.765625)"/>
      <use xlink:href="#DejaVuSans-Oblique-6d" transform="translate(188.476562 0.765625)"/>
      <use xlink:href="#DejaVuSans-31" transform="translate(290.538568 39.046875) scale(0.7)"/>
      <use xlink:href="#DejaVuSans-2f" transform="translate(335.074701 39.046875) scale(0.7)"/>
      <use xlink:href="#DejaVuSans-33" transform="translate(358.658685 39.046875) scale(0.7)"/>
      <use xlink:href="#DejaVuSans-2f" transform="translate(405.929193 0.765625)"/>
      <use xlink:href="#DejaVuSans-Oblique-73" transform="translate(439.620599 0.765625)"/>
      <use xlink:href="#DejaVuSans-29" transform="translate(491.720208 0.765625)"/>
     </g>
    </g>
   </g>
   <g id="matplotlib.axis_2">
    <g id="ytick_1">
     <g id="line2d_7">
      <path d="M 54.2 166.051525 
L 167.241834 166.051525 
" clip-path="url(#pec683ebfc7)" style="fill: none; stroke: #b0b0b0; stroke-width: 0.8; stroke-linecap: square"/>
     </g>
     <g id="line2d_8">
      <defs>
       <path id="mb3cb5c074b" d="M 0 0 
L -3.5 0 
" style="stroke: #000000; stroke-width: 0.8"/>
      </defs>
      <g>
       <use xlink:href="#mb3cb5c074b" x="54.2" y="166.051525" style="stroke: #000000; stroke-width: 0.8"/>
      </g>
     </g>
     <g id="text_5">
      <!-- 0.00 -->
      <g transform="translate(24.934375 169.850744) scale(0.1 -0.1)">
       <defs>
        <path id="DejaVuSans-2e" d="M 684 794 
L 1344 794 
L 1344 0 
L 684 0 
L 684 794 
z
" transform="scale(0.015625)"/>
       </defs>
       <use xlink:href="#DejaVuSans-30"/>
       <use xlink:href="#DejaVuSans-2e" transform="translate(63.623047 0)"/>
       <use xlink:href="#DejaVuSans-30" transform="translate(95.410156 0)"/>
       <use xlink:href="#DejaVuSans-30" transform="translate(159.033203 0)"/>
      </g>
     </g>
    </g>
    <g id="ytick_2">
     <g id="line2d_9">
      <path d="M 54.2 137.886626 
L 167.241834 137.886626 
" clip-path="url(#pec683ebfc7)" style="fill: none; stroke: #b0b0b0; stroke-width: 0.8; stroke-linecap: square"/>
     </g>
     <g id="line2d_10">
      <g>
       <use xlink:href="#mb3cb5c074b" x="54.2" y="137.886626" style="stroke: #000000; stroke-width: 0.8"/>
      </g>
     </g>
     <g id="text_6">
      <!-- 0.02 -->
      <g transform="translate(24.934375 141.685845) scale(0.1 -0.1)">
       <use xlink:href="#DejaVuSans-30"/>
       <use xlink:href="#DejaVuSans-2e" transform="translate(63.623047 0)"/>
       <use xlink:href="#DejaVuSans-30" transform="translate(95.410156 0)"/>
       <use xlink:href="#DejaVuSans-32" transform="translate(159.033203 0)"/>
      </g>
     </g>
    </g>
    <g id="ytick_3">
     <g id="line2d_11">
      <path d="M 54.2 109.721727 
L 167.241834 109.721727 
" clip-path="url(#pec683ebfc7)" style="fill: none; stroke: #b0b0b0; stroke-width: 0.8; stroke-linecap: square"/>
     </g>
     <g id="line2d_12">
      <g>
       <use xlink:href="#mb3cb5c074b" x="54.2" y="109.721727" style="stroke: #000000; stroke-width: 0.8"/>
      </g>
     </g>
     <g id="text_7">
      <!-- 0.04 -->
      <g transform="translate(24.934375 113.520946) scale(0.1 -0.1)">
       <use xlink:href="#DejaVuSans-30"/>
       <use xlink:href="#DejaVuSans-2e" transform="translate(63.623047 0)"/>
       <use xlink:href="#DejaVuSans-30" transform="translate(95.410156 0)"/>
       <use xlink:href="#DejaVuSans-34" transform="translate(159.033203 0)"/>
      </g>
     </g>
    </g>
    <g id="ytick_4">
     <g id="line2d_13">
      <path d="M 54.2 81.556828 
L 167.241834 81.556828 
" clip-path="url(#pec683ebfc7)" style="fill: none; stroke: #b0b0b0; stroke-width: 0.8; stroke-linecap: square"/>
     </g>
     <g id="line2d_14">
      <g>
       <use xlink:href="#mb3cb5c074b" x="54.2" y="81.556828" style="stroke: #000000; stroke-width: 0.8"/>
      </g>
     </g>
     <g id="text_8">
      <!-- 0.06 -->
      <g transform="translate(24.934375 85.356046) scale(0.1 -0.1)">
       <defs>
        <path id="DejaVuSans-36" d="M 2113 2584 
Q 1688 2584 1439 2293 
Q 1191 2003 1191 1497 
Q 1191 994 1439 701 
Q 1688 409 2113 409 
Q 2538 409 2786 701 
Q 3034 994 3034 1497 
Q 3034 2003 2786 2293 
Q 2538 2584 2113 2584 
z
M 3366 4563 
L 3366 3988 
Q 3128 4100 2886 4159 
Q 2644 4219 2406 4219 
Q 1781 4219 1451 3797 
Q 1122 3375 1075 2522 
Q 1259 2794 1537 2939 
Q 1816 3084 2150 3084 
Q 2853 3084 3261 2657 
Q 3669 2231 3669 1497 
Q 3669 778 3244 343 
Q 2819 -91 2113 -91 
Q 1303 -91 875 529 
Q 447 1150 447 2328 
Q 447 3434 972 4092 
Q 1497 4750 2381 4750 
Q 2619 4750 2861 4703 
Q 3103 4656 3366 4563 
z
" transform="scale(0.015625)"/>
       </defs>
       <use xlink:href="#DejaVuSans-30"/>
       <use xlink:href="#DejaVuSans-2e" transform="translate(63.623047 0)"/>
       <use xlink:href="#DejaVuSans-30" transform="translate(95.410156 0)"/>
       <use xlink:href="#DejaVuSans-36" transform="translate(159.033203 0)"/>
      </g>
     </g>
    </g>
    <g id="ytick_5">
     <g id="line2d_15">
      <path d="M 54.2 53.391929 
L 167.241834 53.391929 
" clip-path="url(#pec683ebfc7)" style="fill: none; stroke: #b0b0b0; stroke-width: 0.8; stroke-linecap: square"/>
     </g>
     <g id="line2d_16">
      <g>
       <use xlink:href="#mb3cb5c074b" x="54.2" y="53.391929" style="stroke: #000000; stroke-width: 0.8"/>
      </g>
     </g>
     <g id="text_9">
      <!-- 0.08 -->
      <g transform="translate(24.934375 57.191147) scale(0.1 -0.1)">
       <defs>
        <path id="DejaVuSans-38" d="M 2034 2216 
Q 1584 2216 1326 1975 
Q 1069 1734 1069 1313 
Q 1069 891 1326 650 
Q 1584 409 2034 409 
Q 2484 409 2743 651 
Q 3003 894 3003 1313 
Q 3003 1734 2745 1975 
Q 2488 2216 2034 2216 
z
M 1403 2484 
Q 997 2584 770 2862 
Q 544 3141 544 3541 
Q 544 4100 942 4425 
Q 1341 4750 2034 4750 
Q 2731 4750 3128 4425 
Q 3525 4100 3525 3541 
Q 3525 3141 3298 2862 
Q 3072 2584 2669 2484 
Q 3125 2378 3379 2068 
Q 3634 1759 3634 1313 
Q 3634 634 3220 271 
Q 2806 -91 2034 -91 
Q 1263 -91 848 271 
Q 434 634 434 1313 
Q 434 1759 690 2068 
Q 947 2378 1403 2484 
z
M 1172 3481 
Q 1172 3119 1398 2916 
Q 1625 2713 2034 2713 
Q 2441 2713 2670 2916 
Q 2900 3119 2900 3481 
Q 2900 3844 2670 4047 
Q 2441 4250 2034 4250 
Q 1625 4250 1398 4047 
Q 1172 3844 1172 3481 
z
" transform="scale(0.015625)"/>
       </defs>
       <use xlink:href="#DejaVuSans-30"/>
       <use xlink:href="#DejaVuSans-2e" transform="translate(63.623047 0)"/>
       <use xlink:href="#DejaVuSans-30" transform="translate(95.410156 0)"/>
       <use xlink:href="#DejaVuSans-38" transform="translate(159.033203 0)"/>
      </g>
     </g>
    </g>
    <g id="ytick_6">
     <g id="line2d_17">
      <path d="M 54.2 25.227029 
L 167.241834 25.227029 
" clip-path="url(#pec683ebfc7)" style="fill: none; stroke: #b0b0b0; stroke-width: 0.8; stroke-linecap: square"/>
     </g>
     <g id="line2d_18">
      <g>
       <use xlink:href="#mb3cb5c074b" x="54.2" y="25.227029" style="stroke: #000000; stroke-width: 0.8"/>
      </g>
     </g>
     <g id="text_10">
      <!-- 0.10 -->
      <g transform="translate(24.934375 29.026248) scale(0.1 -0.1)">
       <use xlink:href="#DejaVuSans-30"/>
       <use xlink:href="#DejaVuSans-2e" transform="translate(63.623047 0)"/>
       <use xlink:href="#DejaVuSans-31" transform="translate(95.410156 0)"/>
       <use xlink:href="#DejaVuSans-30" transform="translate(159.033203 0)"/>
      </g>
     </g>
    </g>
    <g id="text_11">
     <!-- PDF -->
     <g transform="translate(18.854688 107.13525) rotate(-90) scale(0.1 -0.1)">
      <defs>
       <path id="DejaVuSans-50" d="M 1259 4147 
L 1259 2394 
L 2053 2394 
Q 2494 2394 2734 2622 
Q 2975 2850 2975 3272 
Q 2975 3691 2734 3919 
Q 2494 4147 2053 4147 
L 1259 4147 
z
M 628 4666 
L 2053 4666 
Q 2838 4666 3239 4311 
Q 3641 3956 3641 3272 
Q 3641 2581 3239 2228 
Q 2838 1875 2053 1875 
L 1259 1875 
L 1259 0 
L 628 0 
L 628 4666 
z
" transform="scale(0.015625)"/>
       <path id="DejaVuSans-44" d="M 1259 4147 
L 1259 519 
L 2022 519 
Q 2988 519 3436 956 
Q 3884 1394 3884 2338 
Q 3884 3275 3436 3711 
Q 2988 4147 2022 4147 
L 1259 4147 
z
M 628 4666 
L 1925 4666 
Q 3281 4666 3915 4102 
Q 4550 3538 4550 2338 
Q 4550 1131 3912 565 
Q 3275 0 1925 0 
L 628 0 
L 628 4666 
z
" transform="scale(0.015625)"/>
       <path id="DejaVuSans-46" d="M 628 4666 
L 3309 4666 
L 3309 4134 
L 1259 4134 
L 1259 2759 
L 3109 2759 
L 3109 2228 
L 1259 2228 
L 1259 0 
L 628 0 
L 628 4666 
z
" transform="scale(0.015625)"/>
      </defs>
      <use xlink:href="#DejaVuSans-50"/>
      <use xlink:href="#DejaVuSans-44" transform="translate(60.302734 0)"/>
      <use xlink:href="#DejaVuSans-46" transform="translate(137.304688 0)"/>
     </g>
    </g>
   </g>
   <g id="line2d_19">
    <path d="M 59.338265 165.944966 
L 63.6867 165.712309 
L 66.697156 165.340562 
L 69.038621 164.830701 
L 71.045591 164.157589 
L 72.718066 163.367089 
L 74.390541 162.305436 
L 75.728521 161.215497 
L 77.066502 159.870346 
L 78.404482 158.229384 
L 79.742462 156.250947 
L 81.080442 153.893878 
L 82.418422 151.119485 
L 83.756402 147.893838 
L 85.428877 143.187604 
L 87.101352 137.706422 
L 88.773827 131.454201 
L 90.780798 122.999566 
L 93.122263 112.043287 
L 97.136203 91.84841 
L 100.146658 77.268453 
L 101.819133 70.079554 
L 103.491609 63.911535 
L 104.829589 59.88987 
L 105.833074 57.482439 
L 106.836559 55.641106 
L 107.505549 54.743432 
L 108.174539 54.117694 
L 108.843529 53.768543 
L 109.512519 53.698582 
L 110.181509 53.908334 
L 110.850499 54.396233 
L 111.519489 55.158646 
L 112.188479 56.189918 
L 113.191964 58.223779 
L 114.195449 60.811611 
L 115.533429 65.050319 
L 116.87141 70.079554 
L 118.543885 77.268453 
L 120.88535 88.493162 
L 127.57525 121.499117 
L 129.58222 130.114356 
L 131.589191 137.706422 
L 133.261666 143.187604 
L 134.934141 147.893838 
L 136.606616 151.854168 
L 137.944596 154.52082 
L 139.282576 156.779471 
L 140.620556 158.669631 
L 141.958536 160.232751 
L 143.296517 161.510364 
L 144.968992 162.766795 
L 146.641467 163.712313 
L 148.313942 164.411401 
L 150.320912 165.002181 
L 152.662377 165.445731 
L 155.672832 165.76571 
L 159.352278 165.944966 
L 159.352278 165.944966 
" clip-path="url(#pec683ebfc7)" style="fill: none; stroke-dasharray: 7.4,3.2; stroke-dashoffset: 0; stroke: #1f77b4; stroke-width: 2"/>
   </g>
   <g id="line2d_20">
    <path d="M 80.206516 165.921393 
L 83.493355 165.671153 
L 85.68458 165.31172 
L 87.601902 164.770049 
L 89.245322 164.048579 
L 90.614837 163.194842 
L 91.984353 162.04016 
L 93.079966 160.847168 
L 94.175579 159.366336 
L 95.271192 157.54931 
L 96.366804 155.345647 
L 97.462417 152.704508 
L 98.55803 149.576809 
L 99.927546 144.915489 
L 101.297062 139.35429 
L 102.666578 132.850906 
L 104.309997 123.80071 
L 105.953416 113.475772 
L 108.144641 98.094046 
L 114.444414 52.230409 
L 115.81393 44.158354 
L 116.909543 38.726035 
L 118.005156 34.370527 
L 118.826865 31.886743 
L 119.648575 30.120271 
L 120.196381 29.35611 
L 120.744188 28.929721 
L 121.291994 28.844284 
L 121.8398 29.100436 
L 122.387607 29.696266 
L 122.935413 30.627337 
L 123.757123 32.636757 
L 124.578832 35.351117 
L 125.674445 39.988672 
L 126.770058 45.667434 
L 128.139574 53.989107 
L 130.056896 67.299582 
L 137.178379 118.787837 
L 138.821798 128.49305 
L 140.465217 136.867191 
L 141.834733 142.802102 
L 143.204249 147.816275 
L 144.573765 151.970041 
L 145.943281 155.345647 
L 147.312797 158.037822 
L 148.682313 160.145689 
L 150.051828 161.766368 
L 151.421344 162.990343 
L 152.79086 163.898502 
L 154.160376 164.560635 
L 155.803795 165.111813 
L 157.721118 165.518403 
L 160.186246 165.805574 
L 162.103569 165.921393 
L 162.103569 165.921393 
" clip-path="url(#pec683ebfc7)" style="fill: none; stroke-dasharray: 12.8,3.2,2,3.2; stroke-dashoffset: 0; stroke: #ff7f0e; stroke-width: 2"/>
   </g>
   <g id="patch_3">
    <path d="M 54.2 172.8 
L 54.2 21.989249 
" style="fill: none; stroke: #000000; stroke-width: 0.8; stroke-linejoin: miter; stroke-linecap: square"/>
   </g>
   <g id="patch_4">
    <path d="M 54.2 172.8 
L 167.241834 172.8 
" style="fill: none; stroke: #000000; stroke-width: 0.8; stroke-linejoin: miter; stroke-linecap: square"/>
   </g>
  </g>
  <g id="axes_2">
   <g id="patch_5">
    <path d="M 200.979083 172.8 
L 314.020917 172.8 
L 314.020917 21.989249 
L 200.979083 21.989249 
z
" style="fill: #ffffff"/>
   </g>
   <g id="matplotlib.axis_3">
    <g id="xtick_4">
     <g id="line2d_21">
      <path d="M 205.265504 172.8 
L 205.265504 21.989249 
" clip-path="url(#p20a4f0032f)" style="fill: none; stroke: #b0b0b0; stroke-width: 0.8; stroke-linecap: square"/>
     </g>
     <g id="line2d_22">
      <g>
       <use xlink:href="#m4a92d99fee" x="205.265504" y="172.8" style="stroke: #000000; stroke-width: 0.8"/>
      </g>
     </g>
     <g id="text_12">
      <!-- 45 -->
      <g transform="translate(198.903004 187.398438) scale(0.1 -0.1)">
       <defs>
        <path id="DejaVuSans-35" d="M 691 4666 
L 3169 4666 
L 3169 4134 
L 1269 4134 
L 1269 2991 
Q 1406 3038 1543 3061 
Q 1681 3084 1819 3084 
Q 2600 3084 3056 2656 
Q 3513 2228 3513 1497 
Q 3513 744 3044 326 
Q 2575 -91 1722 -91 
Q 1428 -91 1123 -41 
Q 819 9 494 109 
L 494 744 
Q 775 591 1075 516 
Q 1375 441 1709 441 
Q 2250 441 2565 725 
Q 2881 1009 2881 1497 
Q 2881 1984 2565 2268 
Q 2250 2553 1709 2553 
Q 1456 2553 1204 2497 
Q 953 2441 691 2322 
L 691 4666 
z
" transform="scale(0.015625)"/>
       </defs>
       <use xlink:href="#DejaVuSans-34"/>
       <use xlink:href="#DejaVuSans-35" transform="translate(63.623047 0)"/>
      </g>
     </g>
    </g>
    <g id="xtick_5">
     <g id="line2d_23">
      <path d="M 272.278181 172.8 
L 272.278181 21.989249 
" clip-path="url(#p20a4f0032f)" style="fill: none; stroke: #b0b0b0; stroke-width: 0.8; stroke-linecap: square"/>
     </g>
     <g id="line2d_24">
      <g>
       <use xlink:href="#m4a92d99fee" x="272.278181" y="172.8" style="stroke: #000000; stroke-width: 0.8"/>
      </g>
     </g>
     <g id="text_13">
      <!-- 50 -->
      <g transform="translate(265.915681 187.398438) scale(0.1 -0.1)">
       <use xlink:href="#DejaVuSans-35"/>
       <use xlink:href="#DejaVuSans-30" transform="translate(63.623047 0)"/>
      </g>
     </g>
    </g>
    <g id="text_14">
     <!-- Zv (m) -->
     <g transform="translate(240.754688 201.076563) scale(0.1 -0.1)">
      <defs>
       <path id="DejaVuSans-5a" d="M 359 4666 
L 4025 4666 
L 4025 4184 
L 1075 531 
L 4097 531 
L 4097 0 
L 288 0 
L 288 481 
L 3238 4134 
L 359 4134 
L 359 4666 
z
" transform="scale(0.015625)"/>
       <path id="DejaVuSans-76" d="M 191 3500 
L 800 3500 
L 1894 563 
L 2988 3500 
L 3597 3500 
L 2284 0 
L 1503 0 
L 191 3500 
z
" transform="scale(0.015625)"/>
       <path id="DejaVuSans-6d" d="M 3328 2828 
Q 3544 3216 3844 3400 
Q 4144 3584 4550 3584 
Q 5097 3584 5394 3201 
Q 5691 2819 5691 2113 
L 5691 0 
L 5113 0 
L 5113 2094 
Q 5113 2597 4934 2840 
Q 4756 3084 4391 3084 
Q 3944 3084 3684 2787 
Q 3425 2491 3425 1978 
L 3425 0 
L 2847 0 
L 2847 2094 
Q 2847 2600 2669 2842 
Q 2491 3084 2119 3084 
Q 1678 3084 1418 2786 
Q 1159 2488 1159 1978 
L 1159 0 
L 581 0 
L 581 3500 
L 1159 3500 
L 1159 2956 
Q 1356 3278 1631 3431 
Q 1906 3584 2284 3584 
Q 2666 3584 2933 3390 
Q 3200 3197 3328 2828 
z
" transform="scale(0.015625)"/>
      </defs>
      <use xlink:href="#DejaVuSans-5a"/>
      <use xlink:href="#DejaVuSans-76" transform="translate(68.505859 0)"/>
      <use xlink:href="#DejaVuSans-20" transform="translate(127.685547 0)"/>
      <use xlink:href="#DejaVuSans-28" transform="translate(159.472656 0)"/>
      <use xlink:href="#DejaVuSans-6d" transform="translate(198.486328 0)"/>
      <use xlink:href="#DejaVuSans-29" transform="translate(295.898438 0)"/>
     </g>
    </g>
   </g>
   <g id="matplotlib.axis_4">
    <g id="ytick_7">
     <g id="line2d_25">
      <path d="M 200.979083 166.051525 
L 314.020917 166.051525 
" clip-path="url(#p20a4f0032f)" style="fill: none; stroke: #b0b0b0; stroke-width: 0.8; stroke-linecap: square"/>
     </g>
     <g id="line2d_26">
      <g>
       <use xlink:href="#mb3cb5c074b" x="200.979083" y="166.051525" style="stroke: #000000; stroke-width: 0.8"/>
      </g>
     </g>
     <g id="text_15">
      <!-- 0.0 -->
      <g transform="translate(178.075958 169.850744) scale(0.1 -0.1)">
       <use xlink:href="#DejaVuSans-30"/>
       <use xlink:href="#DejaVuSans-2e" transform="translate(63.623047 0)"/>
       <use xlink:href="#DejaVuSans-30" transform="translate(95.410156 0)"/>
      </g>
     </g>
    </g>
    <g id="ytick_8">
     <g id="line2d_27">
      <path d="M 200.979083 137.886626 
L 314.020917 137.886626 
" clip-path="url(#p20a4f0032f)" style="fill: none; stroke: #b0b0b0; stroke-width: 0.8; stroke-linecap: square"/>
     </g>
     <g id="line2d_28">
      <g>
       <use xlink:href="#mb3cb5c074b" x="200.979083" y="137.886626" style="stroke: #000000; stroke-width: 0.8"/>
      </g>
     </g>
     <g id="text_16">
      <!-- 0.1 -->
      <g transform="translate(178.075958 141.685845) scale(0.1 -0.1)">
       <use xlink:href="#DejaVuSans-30"/>
       <use xlink:href="#DejaVuSans-2e" transform="translate(63.623047 0)"/>
       <use xlink:href="#DejaVuSans-31" transform="translate(95.410156 0)"/>
      </g>
     </g>
    </g>
    <g id="ytick_9">
     <g id="line2d_29">
      <path d="M 200.979083 109.721727 
L 314.020917 109.721727 
" clip-path="url(#p20a4f0032f)" style="fill: none; stroke: #b0b0b0; stroke-width: 0.8; stroke-linecap: square"/>
     </g>
     <g id="line2d_30">
      <g>
       <use xlink:href="#mb3cb5c074b" x="200.979083" y="109.721727" style="stroke: #000000; stroke-width: 0.8"/>
      </g>
     </g>
     <g id="text_17">
      <!-- 0.2 -->
      <g transform="translate(178.075958 113.520946) scale(0.1 -0.1)">
       <use xlink:href="#DejaVuSans-30"/>
       <use xlink:href="#DejaVuSans-2e" transform="translate(63.623047 0)"/>
       <use xlink:href="#DejaVuSans-32" transform="translate(95.410156 0)"/>
      </g>
     </g>
    </g>
    <g id="ytick_10">
     <g id="line2d_31">
      <path d="M 200.979083 81.556828 
L 314.020917 81.556828 
" clip-path="url(#p20a4f0032f)" style="fill: none; stroke: #b0b0b0; stroke-width: 0.8; stroke-linecap: square"/>
     </g>
     <g id="line2d_32">
      <g>
       <use xlink:href="#mb3cb5c074b" x="200.979083" y="81.556828" style="stroke: #000000; stroke-width: 0.8"/>
      </g>
     </g>
     <g id="text_18">
      <!-- 0.3 -->
      <g transform="translate(178.075958 85.356046) scale(0.1 -0.1)">
       <use xlink:href="#DejaVuSans-30"/>
       <use xlink:href="#DejaVuSans-2e" transform="translate(63.623047 0)"/>
       <use xlink:href="#DejaVuSans-33" transform="translate(95.410156 0)"/>
      </g>
     </g>
    </g>
    <g id="ytick_11">
     <g id="line2d_33">
      <path d="M 200.979083 53.391929 
L 314.020917 53.391929 
" clip-path="url(#p20a4f0032f)" style="fill: none; stroke: #b0b0b0; stroke-width: 0.8; stroke-linecap: square"/>
     </g>
     <g id="line2d_34">
      <g>
       <use xlink:href="#mb3cb5c074b" x="200.979083" y="53.391929" style="stroke: #000000; stroke-width: 0.8"/>
      </g>
     </g>
     <g id="text_19">
      <!-- 0.4 -->
      <g transform="translate(178.075958 57.191147) scale(0.1 -0.1)">
       <use xlink:href="#DejaVuSans-30"/>
       <use xlink:href="#DejaVuSans-2e" transform="translate(63.623047 0)"/>
       <use xlink:href="#DejaVuSans-34" transform="translate(95.410156 0)"/>
      </g>
     </g>
    </g>
    <g id="ytick_12">
     <g id="line2d_35">
      <path d="M 200.979083 25.227029 
L 314.020917 25.227029 
" clip-path="url(#p20a4f0032f)" style="fill: none; stroke: #b0b0b0; stroke-width: 0.8; stroke-linecap: square"/>
     </g>
     <g id="line2d_36">
      <g>
       <use xlink:href="#mb3cb5c074b" x="200.979083" y="25.227029" style="stroke: #000000; stroke-width: 0.8"/>
      </g>
     </g>
     <g id="text_20">
      <!-- 0.5 -->
      <g transform="translate(178.075958 29.026248) scale(0.1 -0.1)">
       <use xlink:href="#DejaVuSans-30"/>
       <use xlink:href="#DejaVuSans-2e" transform="translate(63.623047 0)"/>
       <use xlink:href="#DejaVuSans-35" transform="translate(95.410156 0)"/>
      </g>
     </g>
    </g>
   </g>
   <g id="line2d_37">
    <path d="M 208.868639 165.944966 
L 213.217074 165.712309 
L 216.22753 165.340562 
L 218.568995 164.830701 
L 220.575965 164.157589 
L 222.24844 163.367089 
L 223.920915 162.305436 
L 225.258895 161.215497 
L 226.596875 159.870346 
L 227.934856 158.229384 
L 229.272836 156.250947 
L 230.610816 153.893878 
L 231.948796 151.119485 
L 233.286776 147.893838 
L 234.959251 143.187604 
L 236.631726 137.706422 
L 238.304201 131.454201 
L 240.311172 122.999566 
L 242.652637 112.043287 
L 246.666577 91.84841 
L 249.677032 77.268453 
L 251.349507 70.079554 
L 253.021982 63.911535 
L 254.359963 59.88987 
L 255.363448 57.482439 
L 256.366933 55.641106 
L 257.035923 54.743432 
L 257.704913 54.117694 
L 258.373903 53.768543 
L 259.042893 53.698582 
L 259.711883 53.908334 
L 260.380873 54.396233 
L 261.049863 55.158646 
L 261.718853 56.189918 
L 262.722338 58.223779 
L 263.725823 60.811611 
L 265.063803 65.050319 
L 266.401783 70.079554 
L 268.074259 77.268453 
L 270.415724 88.493162 
L 277.105624 121.499117 
L 279.112594 130.114356 
L 281.119565 137.706422 
L 282.79204 143.187604 
L 284.464515 147.893838 
L 286.13699 151.854168 
L 287.47497 154.52082 
L 288.81295 156.779471 
L 290.15093 158.669631 
L 291.48891 160.232751 
L 292.82689 161.510364 
L 294.499366 162.766795 
L 296.171841 163.712313 
L 297.844316 164.411401 
L 299.851286 165.002181 
L 302.192751 165.445731 
L 305.203206 165.76571 
L 308.882652 165.944966 
L 308.882652 165.944966 
" clip-path="url(#p20a4f0032f)" style="fill: none; stroke-dasharray: 7.4,3.2; stroke-dashoffset: 0; stroke: #1f77b4; stroke-width: 2"/>
   </g>
   <g id="line2d_38">
    <path d="M 206.117348 165.921393 
L 209.404187 165.671153 
L 211.595412 165.31172 
L 213.512734 164.770049 
L 215.156153 164.048579 
L 216.525669 163.194842 
L 217.895185 162.04016 
L 218.990798 160.847168 
L 220.086411 159.366336 
L 221.182023 157.54931 
L 222.277636 155.345647 
L 223.373249 152.704508 
L 224.468862 149.576809 
L 225.838378 144.915489 
L 227.207893 139.35429 
L 228.577409 132.850906 
L 230.220829 123.80071 
L 231.864248 113.475772 
L 234.055473 98.094046 
L 240.355246 52.230409 
L 241.724762 44.158354 
L 242.820375 38.726035 
L 243.915988 34.370527 
L 244.737697 31.886743 
L 245.559407 30.120271 
L 246.107213 29.35611 
L 246.65502 28.929721 
L 247.202826 28.844284 
L 247.750632 29.100436 
L 248.298439 29.696266 
L 248.846245 30.627337 
L 249.667955 32.636757 
L 250.489664 35.351117 
L 251.585277 39.988672 
L 252.68089 45.667434 
L 254.050406 53.989107 
L 255.967728 67.299582 
L 263.089211 118.787837 
L 264.73263 128.49305 
L 266.376049 136.867191 
L 267.745565 142.802102 
L 269.115081 147.816275 
L 270.484597 151.970041 
L 271.854113 155.345647 
L 273.223628 158.037822 
L 274.593144 160.145689 
L 275.96266 161.766368 
L 277.332176 162.990343 
L 278.701692 163.898502 
L 280.071208 164.560635 
L 281.714627 165.111813 
L 283.63195 165.518403 
L 286.097078 165.805574 
L 288.0144 165.921393 
L 288.0144 165.921393 
" clip-path="url(#p20a4f0032f)" style="fill: none; stroke-dasharray: 12.8,3.2,2,3.2; stroke-dashoffset: 0; stroke: #ff7f0e; stroke-width: 2"/>
   </g>
   <g id="patch_6">
    <path d="M 200.979083 172.8 
L 200.979083 21.989249 
" style="fill: none; stroke: #000000; stroke-width: 0.8; stroke-linejoin: miter; stroke-linecap: square"/>
   </g>
   <g id="patch_7">
    <path d="M 200.979083 172.8 
L 314.020917 172.8 
" style="fill: none; stroke: #000000; stroke-width: 0.8; stroke-linejoin: miter; stroke-linecap: square"/>
   </g>
  </g>
  <g id="axes_3">
   <g id="patch_8">
    <path d="M 347.758166 172.8 
L 460.8 172.8 
L 460.8 21.989249 
L 347.758166 21.989249 
z
" style="fill: #ffffff"/>
   </g>
   <g id="matplotlib.axis_5">
    <g id="xtick_6">
     <g id="line2d_39">
      <path d="M 389.500902 172.8 
L 389.500902 21.989249 
" clip-path="url(#p4617639fb7)" style="fill: none; stroke: #b0b0b0; stroke-width: 0.8; stroke-linecap: square"/>
     </g>
     <g id="line2d_40">
      <g>
       <use xlink:href="#m4a92d99fee" x="389.500902" y="172.8" style="stroke: #000000; stroke-width: 0.8"/>
      </g>
     </g>
     <g id="text_21">
      <!-- 50 -->
      <g transform="translate(383.138402 187.398438) scale(0.1 -0.1)">
       <use xlink:href="#DejaVuSans-35"/>
       <use xlink:href="#DejaVuSans-30" transform="translate(63.623047 0)"/>
      </g>
     </g>
    </g>
    <g id="xtick_7">
     <g id="line2d_41">
      <path d="M 456.513579 172.8 
L 456.513579 21.989249 
" clip-path="url(#p4617639fb7)" style="fill: none; stroke: #b0b0b0; stroke-width: 0.8; stroke-linecap: square"/>
     </g>
     <g id="line2d_42">
      <g>
       <use xlink:href="#m4a92d99fee" x="456.513579" y="172.8" style="stroke: #000000; stroke-width: 0.8"/>
      </g>
     </g>
     <g id="text_22">
      <!-- 55 -->
      <g transform="translate(450.151079 187.398438) scale(0.1 -0.1)">
       <use xlink:href="#DejaVuSans-35"/>
       <use xlink:href="#DejaVuSans-35" transform="translate(63.623047 0)"/>
      </g>
     </g>
    </g>
    <g id="text_23">
     <!-- Zm (m) -->
     <g transform="translate(385.622833 201.076563) scale(0.1 -0.1)">
      <use xlink:href="#DejaVuSans-5a"/>
      <use xlink:href="#DejaVuSans-6d" transform="translate(68.505859 0)"/>
      <use xlink:href="#DejaVuSans-20" transform="translate(165.917969 0)"/>
      <use xlink:href="#DejaVuSans-28" transform="translate(197.705078 0)"/>
      <use xlink:href="#DejaVuSans-6d" transform="translate(236.71875 0)"/>
      <use xlink:href="#DejaVuSans-29" transform="translate(334.130859 0)"/>
     </g>
    </g>
   </g>
   <g id="matplotlib.axis_6">
    <g id="ytick_13">
     <g id="line2d_43">
      <path d="M 347.758166 166.051525 
L 460.8 166.051525 
" clip-path="url(#p4617639fb7)" style="fill: none; stroke: #b0b0b0; stroke-width: 0.8; stroke-linecap: square"/>
     </g>
     <g id="line2d_44">
      <g>
       <use xlink:href="#mb3cb5c074b" x="347.758166" y="166.051525" style="stroke: #000000; stroke-width: 0.8"/>
      </g>
     </g>
     <g id="text_24">
      <!-- 0.0 -->
      <g transform="translate(324.855041 169.850744) scale(0.1 -0.1)">
       <use xlink:href="#DejaVuSans-30"/>
       <use xlink:href="#DejaVuSans-2e" transform="translate(63.623047 0)"/>
       <use xlink:href="#DejaVuSans-30" transform="translate(95.410156 0)"/>
      </g>
     </g>
    </g>
    <g id="ytick_14">
     <g id="line2d_45">
      <path d="M 347.758166 137.886626 
L 460.8 137.886626 
" clip-path="url(#p4617639fb7)" style="fill: none; stroke: #b0b0b0; stroke-width: 0.8; stroke-linecap: square"/>
     </g>
     <g id="line2d_46">
      <g>
       <use xlink:href="#mb3cb5c074b" x="347.758166" y="137.886626" style="stroke: #000000; stroke-width: 0.8"/>
      </g>
     </g>
     <g id="text_25">
      <!-- 0.1 -->
      <g transform="translate(324.855041 141.685845) scale(0.1 -0.1)">
       <use xlink:href="#DejaVuSans-30"/>
       <use xlink:href="#DejaVuSans-2e" transform="translate(63.623047 0)"/>
       <use xlink:href="#DejaVuSans-31" transform="translate(95.410156 0)"/>
      </g>
     </g>
    </g>
    <g id="ytick_15">
     <g id="line2d_47">
      <path d="M 347.758166 109.721727 
L 460.8 109.721727 
" clip-path="url(#p4617639fb7)" style="fill: none; stroke: #b0b0b0; stroke-width: 0.8; stroke-linecap: square"/>
     </g>
     <g id="line2d_48">
      <g>
       <use xlink:href="#mb3cb5c074b" x="347.758166" y="109.721727" style="stroke: #000000; stroke-width: 0.8"/>
      </g>
     </g>
     <g id="text_26">
      <!-- 0.2 -->
      <g transform="translate(324.855041 113.520946) scale(0.1 -0.1)">
       <use xlink:href="#DejaVuSans-30"/>
       <use xlink:href="#DejaVuSans-2e" transform="translate(63.623047 0)"/>
       <use xlink:href="#DejaVuSans-32" transform="translate(95.410156 0)"/>
      </g>
     </g>
    </g>
    <g id="ytick_16">
     <g id="line2d_49">
      <path d="M 347.758166 81.556828 
L 460.8 81.556828 
" clip-path="url(#p4617639fb7)" style="fill: none; stroke: #b0b0b0; stroke-width: 0.8; stroke-linecap: square"/>
     </g>
     <g id="line2d_50">
      <g>
       <use xlink:href="#mb3cb5c074b" x="347.758166" y="81.556828" style="stroke: #000000; stroke-width: 0.8"/>
      </g>
     </g>
     <g id="text_27">
      <!-- 0.3 -->
      <g transform="translate(324.855041 85.356046) scale(0.1 -0.1)">
       <use xlink:href="#DejaVuSans-30"/>
       <use xlink:href="#DejaVuSans-2e" transform="translate(63.623047 0)"/>
       <use xlink:href="#DejaVuSans-33" transform="translate(95.410156 0)"/>
      </g>
     </g>
    </g>
    <g id="ytick_17">
     <g id="line2d_51">
      <path d="M 347.758166 53.391929 
L 460.8 53.391929 
" clip-path="url(#p4617639fb7)" style="fill: none; stroke: #b0b0b0; stroke-width: 0.8; stroke-linecap: square"/>
     </g>
     <g id="line2d_52">
      <g>
       <use xlink:href="#mb3cb5c074b" x="347.758166" y="53.391929" style="stroke: #000000; stroke-width: 0.8"/>
      </g>
     </g>
     <g id="text_28">
      <!-- 0.4 -->
      <g transform="translate(324.855041 57.191147) scale(0.1 -0.1)">
       <use xlink:href="#DejaVuSans-30"/>
       <use xlink:href="#DejaVuSans-2e" transform="translate(63.623047 0)"/>
       <use xlink:href="#DejaVuSans-34" transform="translate(95.410156 0)"/>
      </g>
     </g>
    </g>
    <g id="ytick_18">
     <g id="line2d_53">
      <path d="M 347.758166 25.227029 
L 460.8 25.227029 
" clip-path="url(#p4617639fb7)" style="fill: none; stroke: #b0b0b0; stroke-width: 0.8; stroke-linecap: square"/>
     </g>
     <g id="line2d_54">
      <g>
       <use xlink:href="#mb3cb5c074b" x="347.758166" y="25.227029" style="stroke: #000000; stroke-width: 0.8"/>
      </g>
     </g>
     <g id="text_29">
      <!-- 0.5 -->
      <g transform="translate(324.855041 29.026248) scale(0.1 -0.1)">
       <use xlink:href="#DejaVuSans-30"/>
       <use xlink:href="#DejaVuSans-2e" transform="translate(63.623047 0)"/>
       <use xlink:href="#DejaVuSans-35" transform="translate(95.410156 0)"/>
      </g>
     </g>
    </g>
   </g>
   <g id="line2d_55">
    <path d="M 352.896431 165.944966 
L 357.244867 165.712309 
L 360.255322 165.340562 
L 362.596787 164.830701 
L 364.603757 164.157589 
L 366.276232 163.367089 
L 367.948708 162.305436 
L 369.286688 161.215497 
L 370.624668 159.870346 
L 371.962648 158.229384 
L 373.300628 156.250947 
L 374.638608 153.893878 
L 375.976588 151.119485 
L 377.314568 147.893838 
L 378.987043 143.187604 
L 380.659519 137.706422 
L 382.331994 131.454201 
L 384.338964 122.999566 
L 386.680429 112.043287 
L 390.694369 91.84841 
L 393.704824 77.268453 
L 395.3773 70.079554 
L 397.049775 63.911535 
L 398.387755 59.88987 
L 399.39124 57.482439 
L 400.394725 55.641106 
L 401.063715 54.743432 
L 401.732705 54.117694 
L 402.401695 53.768543 
L 403.070685 53.698582 
L 403.739675 53.908334 
L 404.408665 54.396233 
L 405.077655 55.158646 
L 405.746645 56.189918 
L 406.75013 58.223779 
L 407.753616 60.811611 
L 409.091596 65.050319 
L 410.429576 70.079554 
L 412.102051 77.268453 
L 414.443516 88.493162 
L 421.133417 121.499117 
L 423.140387 130.114356 
L 425.147357 137.706422 
L 426.819832 143.187604 
L 428.492307 147.893838 
L 430.164782 151.854168 
L 431.502762 154.52082 
L 432.840742 156.779471 
L 434.178723 158.669631 
L 435.516703 160.232751 
L 436.854683 161.510364 
L 438.527158 162.766795 
L 440.199633 163.712313 
L 441.872108 164.411401 
L 443.879078 165.002181 
L 446.220543 165.445731 
L 449.230999 165.76571 
L 452.910444 165.944966 
L 452.910444 165.944966 
" clip-path="url(#p4617639fb7)" style="fill: none; stroke-dasharray: 7.4,3.2; stroke-dashoffset: 0; stroke: #1f77b4; stroke-width: 2"/>
   </g>
   <g id="line2d_56">
    <path d="M 373.764683 165.921393 
L 377.051521 165.671153 
L 379.242746 165.31172 
L 381.160069 164.770049 
L 382.803488 164.048579 
L 384.173004 163.194842 
L 385.54252 162.04016 
L 386.638132 160.847168 
L 387.733745 159.366336 
L 388.829358 157.54931 
L 389.924971 155.345647 
L 391.020583 152.704508 
L 392.116196 149.576809 
L 393.485712 144.915489 
L 394.855228 139.35429 
L 396.224744 132.850906 
L 397.868163 123.80071 
L 399.511582 113.475772 
L 401.702807 98.094046 
L 408.002581 52.230409 
L 409.372097 44.158354 
L 410.467709 38.726035 
L 411.563322 34.370527 
L 412.385032 31.886743 
L 413.206741 30.120271 
L 413.754548 29.35611 
L 414.302354 28.929721 
L 414.85016 28.844284 
L 415.397967 29.100436 
L 415.945773 29.696266 
L 416.493579 30.627337 
L 417.315289 32.636757 
L 418.136999 35.351117 
L 419.232611 39.988672 
L 420.328224 45.667434 
L 421.69774 53.989107 
L 423.615062 67.299582 
L 430.736545 118.787837 
L 432.379964 128.49305 
L 434.023383 136.867191 
L 435.392899 142.802102 
L 436.762415 147.816275 
L 438.131931 151.970041 
L 439.501447 155.345647 
L 440.870963 158.037822 
L 442.240479 160.145689 
L 443.609995 161.766368 
L 444.979511 162.990343 
L 446.349027 163.898502 
L 447.718542 164.560635 
L 449.361962 165.111813 
L 451.279284 165.518403 
L 453.744413 165.805574 
L 455.661735 165.921393 
L 455.661735 165.921393 
" clip-path="url(#p4617639fb7)" style="fill: none; stroke-dasharray: 12.8,3.2,2,3.2; stroke-dashoffset: 0; stroke: #ff7f0e; stroke-width: 2"/>
   </g>
   <g id="patch_9">
    <path d="M 347.758166 172.8 
L 347.758166 21.989249 
" style="fill: none; stroke: #000000; stroke-width: 0.8; stroke-linejoin: miter; stroke-linecap: square"/>
   </g>
   <g id="patch_10">
    <path d="M 347.758166 172.8 
L 460.8 172.8 
" style="fill: none; stroke: #000000; stroke-width: 0.8; stroke-linejoin: miter; stroke-linecap: square"/>
   </g>
   <g id="legend_1">
    <g id="patch_11">
     <path d="M 469.8 61.345499 
L 545.9875 61.345499 
Q 547.9875 61.345499 547.9875 59.345499 
L 547.9875 30.989249 
Q 547.9875 28.989249 545.9875 28.989249 
L 469.8 28.989249 
Q 467.8 28.989249 467.8 30.989249 
L 467.8 59.345499 
Q 467.8 61.345499 469.8 61.345499 
z
" style="fill: #4d4d4d; opacity: 0.5; stroke: #4d4d4d; stroke-linejoin: miter"/>
    </g>
    <g id="patch_12">
     <path d="M 467.8 59.345499 
L 543.9875 59.345499 
Q 545.9875 59.345499 545.9875 57.345499 
L 545.9875 28.989249 
Q 545.9875 26.989249 543.9875 26.989249 
L 467.8 26.989249 
Q 465.8 26.989249 465.8 28.989249 
L 465.8 57.345499 
Q 465.8 59.345499 467.8 59.345499 
z
" style="fill: #ffffff; stroke: #cccccc; stroke-linejoin: miter"/>
    </g>
    <g id="line2d_57">
     <path d="M 469.8 35.087687 
L 479.8 35.087687 
L 489.8 35.087687 
" style="fill: none; stroke-dasharray: 7.4,3.2; stroke-dashoffset: 0; stroke: #1f77b4; stroke-width: 2"/>
    </g>
    <g id="text_30">
     <!-- Prior -->
     <g transform="translate(497.8 38.587687) scale(0.1 -0.1)">
      <defs>
       <path id="DejaVuSans-72" d="M 2631 2963 
Q 2534 3019 2420 3045 
Q 2306 3072 2169 3072 
Q 1681 3072 1420 2755 
Q 1159 2438 1159 1844 
L 1159 0 
L 581 0 
L 581 3500 
L 1159 3500 
L 1159 2956 
Q 1341 3275 1631 3429 
Q 1922 3584 2338 3584 
Q 2397 3584 2469 3576 
Q 2541 3569 2628 3553 
L 2631 2963 
z
" transform="scale(0.015625)"/>
       <path id="DejaVuSans-69" d="M 603 3500 
L 1178 3500 
L 1178 0 
L 603 0 
L 603 3500 
z
M 603 4863 
L 1178 4863 
L 1178 4134 
L 603 4134 
L 603 4863 
z
" transform="scale(0.015625)"/>
       <path id="DejaVuSans-6f" d="M 1959 3097 
Q 1497 3097 1228 2736 
Q 959 2375 959 1747 
Q 959 1119 1226 758 
Q 1494 397 1959 397 
Q 2419 397 2687 759 
Q 2956 1122 2956 1747 
Q 2956 2369 2687 2733 
Q 2419 3097 1959 3097 
z
M 1959 3584 
Q 2709 3584 3137 3096 
Q 3566 2609 3566 1747 
Q 3566 888 3137 398 
Q 2709 -91 1959 -91 
Q 1206 -91 779 398 
Q 353 888 353 1747 
Q 353 2609 779 3096 
Q 1206 3584 1959 3584 
z
" transform="scale(0.015625)"/>
      </defs>
      <use xlink:href="#DejaVuSans-50"/>
      <use xlink:href="#DejaVuSans-72" transform="translate(58.552734 0)"/>
      <use xlink:href="#DejaVuSans-69" transform="translate(99.666016 0)"/>
      <use xlink:href="#DejaVuSans-6f" transform="translate(127.449219 0)"/>
      <use xlink:href="#DejaVuSans-72" transform="translate(188.630859 0)"/>
     </g>
    </g>
    <g id="line2d_58">
     <path d="M 469.8 49.765812 
L 479.8 49.765812 
L 489.8 49.765812 
" style="fill: none; stroke-dasharray: 12.8,3.2,2,3.2; stroke-dashoffset: 0; stroke: #ff7f0e; stroke-width: 2"/>
    </g>
    <g id="text_31">
     <!-- Posterior -->
     <g transform="translate(497.8 53.265812) scale(0.1 -0.1)">
      <defs>
       <path id="DejaVuSans-74" d="M 1172 4494 
L 1172 3500 
L 2356 3500 
L 2356 3053 
L 1172 3053 
L 1172 1153 
Q 1172 725 1289 603 
Q 1406 481 1766 481 
L 2356 481 
L 2356 0 
L 1766 0 
Q 1100 0 847 248 
Q 594 497 594 1153 
L 594 3053 
L 172 3053 
L 172 3500 
L 594 3500 
L 594 4494 
L 1172 4494 
z
" transform="scale(0.015625)"/>
       <path id="DejaVuSans-65" d="M 3597 1894 
L 3597 1613 
L 953 1613 
Q 991 1019 1311 708 
Q 1631 397 2203 397 
Q 2534 397 2845 478 
Q 3156 559 3463 722 
L 3463 178 
Q 3153 47 2828 -22 
Q 2503 -91 2169 -91 
Q 1331 -91 842 396 
Q 353 884 353 1716 
Q 353 2575 817 3079 
Q 1281 3584 2069 3584 
Q 2775 3584 3186 3129 
Q 3597 2675 3597 1894 
z
M 3022 2063 
Q 3016 2534 2758 2815 
Q 2500 3097 2075 3097 
Q 1594 3097 1305 2825 
Q 1016 2553 972 2059 
L 3022 2063 
z
" transform="scale(0.015625)"/>
      </defs>
      <use xlink:href="#DejaVuSans-50"/>
      <use xlink:href="#DejaVuSans-6f" transform="translate(56.677734 0)"/>
      <use xlink:href="#DejaVuSans-73" transform="translate(117.859375 0)"/>
      <use xlink:href="#DejaVuSans-74" transform="translate(169.958984 0)"/>
      <use xlink:href="#DejaVuSans-65" transform="translate(209.167969 0)"/>
      <use xlink:href="#DejaVuSans-72" transform="translate(270.691406 0)"/>
      <use xlink:href="#DejaVuSans-69" transform="translate(311.804688 0)"/>
      <use xlink:href="#DejaVuSans-6f" transform="translate(339.587891 0)"/>
      <use xlink:href="#DejaVuSans-72" transform="translate(400.769531 0)"/>
     </g>
    </g>
   </g>
  </g>
 </g>
 <defs>
  <clipPath id="pec683ebfc7">
   <rect x="54.2" y="21.989249" width="113.041834" height="150.810751"/>
  </clipPath>
  <clipPath id="p20a4f0032f">
   <rect x="200.979083" y="21.989249" width="113.041834" height="150.810751"/>
  </clipPath>
  <clipPath id="p4617639fb7">
   <rect x="347.758166" y="21.989249" width="113.041834" height="150.810751"/>
  </clipPath>
 </defs>
</svg>
