<?xml version="1.0" encoding="utf-8" standalone="no"?>
<!DOCTYPE svg PUBLIC "-//W3C//DTD SVG 1.1//EN"
  "http://www.w3.org/Graphics/SVG/1.1/DTD/svg11.dtd">
<svg xmlns:xlink="http://www.w3.org/1999/xlink" width="460.8pt" height="345.6pt" viewBox="0 0 460.8 345.6" xmlns="http://www.w3.org/2000/svg" version="1.1">
 <metadata>
  <rdf:RDF xmlns:dc="http://purl.org/dc/elements/1.1/" xmlns:cc="http://creativecommons.org/ns#" xmlns:rdf="http://www.w3.org/1999/02/22-rdf-syntax-ns#">
   <cc:Work>
    <dc:type rdf:resource="http://purl.org/dc/dcmitype/StillImage"/>
    <dc:date>2022-01-01T00:00:00+00:00</dc:date>
    <dc:format>image/svg+xml</dc:format>
    <dc:creator>
     <cc:Agent>
      <dc:title>Matplotlib v3.10.8, https://matplotlib.org/</dc:title>
     </cc:Agent>
    </dc:creator>
   </cc:Work>
  </rdf:RDF>
 </metadata>
 <defs>
  <style type="text/css">*{stroke-linejoin: round; stroke-linecap: butt}</style>
 </defs>
 <g id="figure_1">
  <g id="patch_1">
   <path d="M 0 345.6 
L 460.8 345.6 
L 460.8 0 
L 0 0 
z
" style="fill: #ffffff"/>
  </g>
  <g id="axes_1">
   <g id="patch_2">
    <path d="M 57.6 307.584 
L 343.296 307.584 
L 343.296 41.472 
L 57.6 41.472 
z
" style="fill: #ffffff"/>
   </g>
   <g id="matplotlib.axis_1">
    <g id="xtick_1">
     <g id="line2d_1">
      <path d="M 70.586182 307.584 
L 70.586182 41.472 
" clip-path="url(#p473a15caf3)" style="fill: none; stroke: #b0b0b0; stroke-width: 0.8; stroke-linecap: square"/>
     </g>
     <g id="line2d_2">
      <defs>
       <path id="m53d33d9d77" d="M 0 0 
L 0 3.5 
" style="stroke: #000000; stroke-width: 0.8"/>
      </defs>
      <g>
       <use xlink:href="#m53d33d9d77" x="70.586182" y="307.584" style="stroke: #000000; stroke-width: 0.8"/>
      </g>
     </g>
     <g id="text_1">
      <!-- −3 -->
      <g transform="translate(63.215088 322.182437) scale(0.1 -0.1)">
       <defs>
        <path id="DejaVuSans-2212" d="M 678 2272 
L 4684 2272 
L 4684 1741 
L 678 1741 
L 678 2272 
z
" transform="scale(0.015625)"/>
        <path id="DejaVuSans-33" d="M 2597 2516 
Q 3050 2419 3304 2112 
Q 3559 1806 3559 1356 
Q 3559 666 3084 287 
Q 2609 -91 1734 -91 
Q 1441 -91 1130 -33 
Q 819 25 488 141 
L 488 750 
Q 750 597 1062 519 
Q 1375 441 1716 441 
Q 2309 441 2620 675 
Q 2931 909 2931 1356 
Q 2931 1769 2642 2001 
Q 2353 2234 1838 2234 
L 1294 2234 
L 1294 2753 
L 1863 2753 
Q 2328 2753 2575 2939 
Q 2822 3125 2822 3475 
Q 2822 3834 2567 4026 
Q 2313 4219 1838 4219 
Q 1578 4219 1281 4162 
Q 984 4106 628 3988 
L 628 4550 
Q 988 4650 1302 4700 
Q 1616 4750 1894 4750 
Q 2613 4750 3031 4423 
Q 3450 4097 3450 3541 
Q 3450 3153 3228 2886 
Q 3006 2619 2597 2516 
z
" transform="scale(0.015625)"/>
       </defs>
       <use xlink:href="#DejaVuSans-2212"/>
       <use xlink:href="#DejaVuSans-33" transform="translate(83.789062 0)"/>
      </g>
     </g>
    </g>
    <g id="xtick_2">
     <g id="line2d_3">
      <path d="M 103.051636 307.584 
L 103.051636 41.472 
" clip-path="url(#p473a15caf3)" style="fill: none; stroke: #b0b0b0; stroke-width: 0.8; stroke-linecap: square"/>
     </g>
     <g id="line2d_4">
      <g>
       <use xlink:href="#m53d33d9d77" x="103.051636" y="307.584" style="stroke: #000000; stroke-width: 0.8"/>
      </g>
     </g>
     <g id="text_2">
      <!-- −2 -->
      <g transform="translate(95.680543 322.182437) scale(0.1 -0.1)">
       <defs>
        <path id="DejaVuSans-32" d="M 1228 531 
L 3431 531 
L 3431 0 
L 469 0 
L 469 531 
Q 828 903 1448 1529 
Q 2069 2156 2228 2338 
Q 2531 2678 2651 2914 
Q 2772 3150 2772 3378 
Q 2772 3750 2511 3984 
Q 2250 4219 1831 4219 
Q 1534 4219 1204 4116 
Q 875 4013 500 3803 
L 500 4441 
Q 881 4594 1212 4672 
Q 1544 4750 1819 4750 
Q 2544 4750 2975 4387 
Q 3406 4025 3406 3419 
Q 3406 3131 3298 2873 
Q 3191 2616 2906 2266 
Q 2828 2175 2409 1742 
Q 1991 1309 1228 531 
z
" transform="scale(0.015625)"/>
       </defs>
       <use xlink:href="#DejaVuSans-2212"/>
       <use xlink:href="#DejaVuSans-32" transform="translate(83.789062 0)"/>
      </g>
     </g>
    </g>
    <g id="xtick_3">
     <g id="line2d_5">
      <path d="M 135.517091 307.584 
L 135.517091 41.472 
" clip-path="url(#p473a15caf3)" style="fill: none; stroke: #b0b0b0; stroke-width: 0.8; stroke-linecap: square"/>
     </g>
     <g id="line2d_6">
      <g>
       <use xlink:href="#m53d33d9d77" x="135.517091" y="307.584" style="stroke: #000000; stroke-width: 0.8"/>
      </g>
     </g>
     <g id="text_3">
      <!-- −1 -->
      <g transform="translate(128.145997 322.182437) scale(0.1 -0.1)">
       <defs>
        <path id="DejaVuSans-31" d="M 794 531 
L 1825 531 
L 1825 4091 
L 703 3866 
L 703 4441 
L 1819 4666 
L 2450 4666 
L 2450 531 
L 3481 531 
L 3481 0 
L 794 0 
L 794 531 
z
" transform="scale(0.015625)"/>
       </defs>
       <use xlink:href="#DejaVuSans-2212"/>
       <use xlink:href="#DejaVuSans-31" transform="translate(83.789062 0)"/>
      </g>
     </g>
    </g>
    <g id="xtick_4">
     <g id="line2d_7">
      <path d="M 167.982545 307.584 
L 167.982545 41.472 
" clip-path="url(#p473a15caf3)" style="fill: none; stroke: #b0b0b0; stroke-width: 0.8; stroke-linecap: square"/>
     </g>
     <g id="line2d_8">
      <g>
       <use xlink:href="#m53d33d9d77" x="167.982545" y="307.584" style="stroke: #000000; stroke-width: 0.8"/>
      </g>
     </g>
     <g id="text_4">
      <!-- 0 -->
      <g transform="translate(164.801295 322.182437) scale(0.1 -0.1)">
       <defs>
        <path id="DejaVuSans-30" d="M 2034 4250 
Q 1547 4250 1301 3770 
Q 1056 3291 1056 2328 
Q 1056 1369 1301 889 
Q 1547 409 2034 409 
Q 2525 409 2770 889 
Q 3016 1369 3016 2328 
Q 3016 3291 2770 3770 
Q 2525 4250 2034 4250 
z
M 2034 4750 
Q 2819 4750 3233 4129 
Q 3647 3509 3647 2328 
Q 3647 1150 3233 529 
Q 2819 -91 2034 -91 
Q 1250 -91 836 529 
Q 422 1150 422 2328 
Q 422 3509 836 4129 
Q 1250 4750 2034 4750 
z
" transform="scale(0.015625)"/>
       </defs>
       <use xlink:href="#DejaVuSans-30"/>
      </g>
     </g>
    </g>
    <g id="xtick_5">
     <g id="line2d_9">
      <path d="M 200.448 307.584 
L 200.448 41.472 
" clip-path="url(#p473a15caf3)" style="fill: none; stroke: #b0b0b0; stroke-width: 0.8; stroke-linecap: square"/>
     </g>
     <g id="line2d_10">
      <g>
       <use xlink:href="#m53d33d9d77" x="200.448" y="307.584" style="stroke: #000000; stroke-width: 0.8"/>
      </g>
     </g>
     <g id="text_5">
      <!-- 1 -->
      <g transform="translate(197.26675 322.182437) scale(0.1 -0.1)">
       <use xlink:href="#DejaVuSans-31"/>
      </g>
     </g>
    </g>
    <g id="xtick_6">
     <g id="line2d_11">
      <path d="M 232.913455 307.584 
L 232.913455 41.472 
" clip-path="url(#p473a15caf3)" style="fill: none; stroke: #b0b0b0; stroke-width: 0.8; stroke-linecap: square"/>
     </g>
     <g id="line2d_12">
      <g>
       <use xlink:href="#m53d33d9d77" x="232.913455" y="307.584" style="stroke: #000000; stroke-width: 0.8"/>
      </g>
     </g>
     <g id="text_6">
      <!-- 2 -->
      <g transform="translate(229.732205 322.182437) scale(0.1 -0.1)">
       <use xlink:href="#DejaVuSans-32"/>
      </g>
     </g>
    </g>
    <g id="xtick_7">
     <g id="line2d_13">
      <path d="M 265.378909 307.584 
L 265.378909 41.472 
" clip-path="url(#p473a15caf3)" style="fill: none; stroke: #b0b0b0; stroke-width: 0.8; stroke-linecap: square"/>
     </g>
     <g id="line2d_14">
      <g>
       <use xlink:href="#m53d33d9d77" x="265.378909" y="307.584" style="stroke: #000000; stroke-width: 0.8"/>
      </g>
     </g>
     <g id="text_7">
      <!-- 3 -->
      <g transform="translate(262.197659 322.182437) scale(0.1 -0.1)">
       <use xlink:href="#DejaVuSans-33"/>
      </g>
     </g>
    </g>
    <g id="xtick_8">
     <g id="line2d_15">
      <path d="M 297.844364 307.584 
L 297.844364 41.472 
" clip-path="url(#p473a15caf3)" style="fill: none; stroke: #b0b0b0; stroke-width: 0.8; stroke-linecap: square"/>
     </g>
     <g id="line2d_16">
      <g>
       <use xlink:href="#m53d33d9d77" x="297.844364" y="307.584" style="stroke: #000000; stroke-width: 0.8"/>
      </g>
     </g>
     <g id="text_8">
      <!-- 4 -->
      <g transform="translate(294.663114 322.182437) scale(0.1 -0.1)">
       <defs>
        <path id="DejaVuSans-34" d="M 2419 4116 
L 825 1625 
L 2419 1625 
L 2419 4116 
z
M 2253 4666 
L 3047 4666 
L 3047 1625 
L 3713 1625 
L 3713 1100 
L 3047 1100 
L 3047 0 
L 2419 0 
L 2419 1100 
L 313 1100 
L 313 1709 
L 2253 4666 
z
" transform="scale(0.015625)"/>
       </defs>
       <use xlink:href="#DejaVuSans-34"/>
      </g>
     </g>
    </g>
    <g id="xtick_9">
     <g id="line2d_17">
      <path d="M 330.309818 307.584 
L 330.309818 41.472 
" clip-path="url(#p473a15caf3)" style="fill: none; stroke: #b0b0b0; stroke-width: 0.8; stroke-linecap: square"/>
     </g>
     <g id="line2d_18">
      <g>
       <use xlink:href="#m53d33d9d77" x="330.309818" y="307.584" style="stroke: #000000; stroke-width: 0.8"/>
      </g>
     </g>
     <g id="text_9">
      <!-- 5 -->
      <g transform="translate(327.128568 322.182437) scale(0.1 -0.1)">
       <defs>
        <path id="DejaVuSans-35" d="M 691 4666 
L 3169 4666 
L 3169 4134 
L 1269 4134 
L 1269 2991 
Q 1406 3038 1543 3061 
Q 1681 3084 1819 3084 
Q 2600 3084 3056 2656 
Q 3513 2228 3513 1497 
Q 3513 744 3044 326 
Q 2575 -91 1722 -91 
Q 1428 -91 1123 -41 
Q 819 9 494 109 
L 494 744 
Q 775 591 1075 516 
Q 1375 441 1709 441 
Q 2250 441 2565 725 
Q 2881 1009 2881 1497 
Q 2881 1984 2565 2268 
Q 2250 2553 1709 2553 
Q 1456 2553 1204 2497 
Q 953 2441 691 2322 
L 691 4666 
z
" transform="scale(0.015625)"/>
       </defs>
       <use xlink:href="#DejaVuSans-35"/>
      </g>
     </g>
    </g>
    <g id="text_10">
     <!-- $\mu$ -->
     <g transform="translate(197.248 335.84025) scale(0.1 -0.1)">
      <defs>
       <path id="DejaVuSans-Oblique-3bc" d="M -84 -1331 
L 856 3500 
L 1434 3500 
L 1009 1322 
Q 997 1256 987 1175 
Q 978 1094 978 1013 
Q 978 722 1161 565 
Q 1344 409 1684 409 
Q 2147 409 2431 671 
Q 2716 934 2816 1459 
L 3213 3500 
L 3788 3500 
L 3266 809 
Q 3253 750 3248 706 
Q 3244 663 3244 628 
Q 3244 531 3283 486 
Q 3322 441 3406 441 
Q 3438 441 3492 456 
Q 3547 472 3647 513 
L 3559 50 
Q 3422 -19 3297 -55 
Q 3172 -91 3053 -91 
Q 2847 -91 2730 40 
Q 2613 172 2613 403 
Q 2438 153 2195 31 
Q 1953 -91 1625 -91 
Q 1334 -91 1117 43 
Q 900 178 831 397 
L 494 -1331 
L -84 -1331 
z
" transform="scale(0.015625)"/>
      </defs>
      <use xlink:href="#DejaVuSans-Oblique-3bc" transform="translate(0 0.3125)"/>
     </g>
    </g>
   </g>
   <g id="matplotlib.axis_2">
    <g id="ytick_1">
     <g id="line2d_19">
      <path d="M 57.6 298.994087 
L 343.296 298.994087 
" clip-path="url(#p473a15caf3)" style="fill: none; stroke: #b0b0b0; stroke-width: 0.8; stroke-linecap: square"/>
     </g>
     <g id="line2d_20">
      <defs>
       <path id="mbe615862a9" d="M 0 0 
L -3.5 0 
" style="stroke: #000000; stroke-width: 0.8"/>
      </defs>
      <g>
       <use xlink:href="#mbe615862a9" x="57.6" y="298.994087" style="stroke: #000000; stroke-width: 0.8"/>
      </g>
     </g>
     <g id="text_11">
      <!-- 0 -->
      <g transform="translate(44.2375 302.793306) scale(0.1 -0.1)">
       <use xlink:href="#DejaVuSans-30"/>
      </g>
     </g>
    </g>
    <g id="ytick_2">
     <g id="line2d_21">
      <path d="M 57.6 263.933217 
L 343.296 263.933217 
" clip-path="url(#p473a15caf3)" style="fill: none; stroke: #b0b0b0; stroke-width: 0.8; stroke-linecap: square"/>
     </g>
     <g id="line2d_22">
      <g>
       <use xlink:href="#mbe615862a9" x="57.6" y="263.933217" style="stroke: #000000; stroke-width: 0.8"/>
      </g>
     </g>
     <g id="text_12">
      <!-- 1 -->
      <g transform="translate(44.2375 267.732436) scale(0.1 -0.1)">
       <use xlink:href="#DejaVuSans-31"/>
      </g>
     </g>
    </g>
    <g id="ytick_3">
     <g id="line2d_23">
      <path d="M 57.6 228.872348 
L 343.296 228.872348 
" clip-path="url(#p473a15caf3)" style="fill: none; stroke: #b0b0b0; stroke-width: 0.8; stroke-linecap: square"/>
     </g>
     <g id="line2d_24">
      <g>
       <use xlink:href="#mbe615862a9" x="57.6" y="228.872348" style="stroke: #000000; stroke-width: 0.8"/>
      </g>
     </g>
     <g id="text_13">
      <!-- 2 -->
      <g transform="translate(44.2375 232.671567) scale(0.1 -0.1)">
       <use xlink:href="#DejaVuSans-32"/>
      </g>
     </g>
    </g>
    <g id="ytick_4">
     <g id="line2d_25">
      <path d="M 57.6 193.811478 
L 343.296 193.811478 
" clip-path="url(#p473a15caf3)" style="fill: none; stroke: #b0b0b0; stroke-width: 0.8; stroke-linecap: square"/>
     </g>
     <g id="line2d_26">
      <g>
       <use xlink:href="#mbe615862a9" x="57.6" y="193.811478" style="stroke: #000000; stroke-width: 0.8"/>
      </g>
     </g>
     <g id="text_14">
      <!-- 3 -->
      <g transform="translate(44.2375 197.610697) scale(0.1 -0.1)">
       <use xlink:href="#DejaVuSans-33"/>
      </g>
     </g>
    </g>
    <g id="ytick_5">
     <g id="line2d_27">
      <path d="M 57.6 158.750609 
L 343.296 158.750609 
" clip-path="url(#p473a15caf3)" style="fill: none; stroke: #b0b0b0; stroke-width: 0.8; stroke-linecap: square"/>
     </g>
     <g id="line2d_28">
      <g>
       <use xlink:href="#mbe615862a9" x="57.6" y="158.750609" style="stroke: #000000; stroke-width: 0.8"/>
      </g>
     </g>
     <g id="text_15">
      <!-- 4 -->
      <g transform="translate(44.2375 162.549827) scale(0.1 -0.1)">
       <use xlink:href="#DejaVuSans-34"/>
      </g>
     </g>
    </g>
    <g id="ytick_6">
     <g id="line2d_29">
      <path d="M 57.6 123.689739 
L 343.296 123.689739 
" clip-path="url(#p473a15caf3)" style="fill: none; stroke: #b0b0b0; stroke-width: 0.8; stroke-linecap: square"/>
     </g>
     <g id="line2d_30">
      <g>
       <use xlink:href="#mbe615862a9" x="57.6" y="123.689739" style="stroke: #000000; stroke-width: 0.8"/>
      </g>
     </g>
     <g id="text_16">
      <!-- 5 -->
      <g transform="translate(44.2375 127.488958) scale(0.1 -0.1)">
       <use xlink:href="#DejaVuSans-35"/>
      </g>
     </g>
    </g>
    <g id="ytick_7">
     <g id="line2d_31">
      <path d="M 57.6 88.62887 
L 343.296 88.62887 
" clip-path="url(#p473a15caf3)" style="fill: none; stroke: #b0b0b0; stroke-width: 0.8; stroke-linecap: square"/>
     </g>
     <g id="line2d_32">
      <g>
       <use xlink:href="#mbe615862a9" x="57.6" y="88.62887" style="stroke: #000000; stroke-width: 0.8"/>
      </g>
     </g>
     <g id="text_17">
      <!-- 6 -->
      <g transform="translate(44.2375 92.428088) scale(0.1 -0.1)">
       <defs>
        <path id="DejaVuSans-36" d="M 2113 2584 
Q 1688 2584 1439 2293 
Q 1191 2003 1191 1497 
Q 1191 994 1439 701 
Q 1688 409 2113 409 
Q 2538 409 2786 701 
Q 3034 994 3034 1497 
Q 3034 2003 2786 2293 
Q 2538 2584 2113 2584 
z
M 3366 4563 
L 3366 3988 
Q 3128 4100 2886 4159 
Q 2644 4219 2406 4219 
Q 1781 4219 1451 3797 
Q 1122 3375 1075 2522 
Q 1259 2794 1537 2939 
Q 1816 3084 2150 3084 
Q 2853 3084 3261 2657 
Q 3669 2231 3669 1497 
Q 3669 778 3244 343 
Q 2819 -91 2113 -91 
Q 1303 -91 875 529 
Q 447 1150 447 2328 
Q 447 3434 972 4092 
Q 1497 4750 2381 4750 
Q 2619 4750 2861 4703 
Q 3103 4656 3366 4563 
z
" transform="scale(0.015625)"/>
       </defs>
       <use xlink:href="#DejaVuSans-36"/>
      </g>
     </g>
    </g>
    <g id="ytick_8">
     <g id="line2d_33">
      <path d="M 57.6 53.568 
L 343.296 53.568 
" clip-path="url(#p473a15caf3)" style="fill: none; stroke: #b0b0b0; stroke-width: 0.8; stroke-linecap: square"/>
     </g>
     <g id="line2d_34">
      <g>
       <use xlink:href="#mbe615862a9" x="57.6" y="53.568" style="stroke: #000000; stroke-width: 0.8"/>
      </g>
     </g>
     <g id="text_18">
      <!-- 7 -->
      <g transform="translate(44.2375 57.367219) scale(0.1 -0.1)">
       <defs>
        <path id="DejaVuSans-37" d="M 525 4666 
L 3525 4666 
L 3525 4397 
L 1831 0 
L 1172 0 
L 2766 4134 
L 525 4134 
L 525 4666 
z
" transform="scale(0.015625)"/>
       </defs>
       <use xlink:href="#DejaVuSans-37"/>
      </g>
     </g>
    </g>
    <g id="text_19">
     <!-- $\sigma$ -->
     <g transform="translate(38.157812 177.728) rotate(-90) scale(0.1 -0.1)">
      <defs>
       <path id="DejaVuSans-Oblique-3c3" d="M 2219 3044 
Q 1744 3044 1422 2700 
Q 1081 2341 969 1747 
Q 844 1119 1044 756 
Q 1241 397 1706 397 
Q 2166 397 2503 759 
Q 2844 1122 2966 1747 
Q 3075 2319 2881 2700 
Q 2700 3044 2219 3044 
z
M 2309 3503 
L 4219 3500 
L 4106 2925 
L 3463 2925 
Q 3706 2438 3575 1747 
Q 3406 888 2884 400 
Q 2359 -91 1609 -91 
Q 856 -91 525 400 
Q 194 888 363 1747 
Q 528 2609 1050 3097 
Q 1484 3503 2309 3503 
z
" transform="scale(0.015625)"/>
      </defs>
      <use xlink:href="#DejaVuSans-Oblique-3c3" transform="translate(0 0.265625)"/>
     </g>
    </g>
   </g>
   <g id="QuadContourSet_1">
    <path d="M 118.290523 295.488 
L 112.990041 290.550857 
L 107.689558 290.550857 
L 102.389076 290.550857 
L 97.088594 290.550857 
L 91.788111 290.550857 
L 86.487629 290.550857 
L 81.187147 290.550857 
L 81.187147 290.550857 
L 75.886664 285.613714 
L 70.586182 285.613714 
M 70.586182 259.67623 
L 75.886664 260.769009 
L 76.616603 260.928 
L 81.187147 261.602376 
L 86.487629 262.471262 
L 91.788111 263.451821 
L 97.088594 264.567134 
L 102.389076 265.846874 
L 102.460364 265.865143 
L 107.689558 266.73491 
L 112.990041 267.759233 
L 118.290523 268.964932 
L 123.591006 270.403345 
L 124.919198 270.802286 
L 128.891488 271.53666 
L 134.19197 272.702247 
L 139.492453 274.154656 
L 144.131702 275.739429 
L 144.792935 275.86836 
L 150.093417 277.040134 
L 155.3939 278.588986 
L 160.694382 280.676571 
L 160.694382 280.676571 
L 165.994865 281.825095 
L 171.295347 283.322854 
L 176.595829 285.163388 
L 177.96585 285.613714 
L 181.896312 286.034282 
L 187.196794 286.483556 
L 192.497276 286.694206 
L 197.797759 286.582795 
L 203.098241 286.194703 
L 208.398724 285.664515 
L 208.818913 285.613714 
L 213.699206 283.861498 
L 218.999688 282.229295 
L 224.300171 280.953847 
L 225.613759 280.676571 
L 229.600653 279.01573 
L 234.901135 277.294024 
L 240.201618 276.006613 
L 241.479932 275.739429 
L 245.5021 274.28382 
L 250.802583 272.730889 
L 256.103065 271.498219 
L 259.659833 270.802286 
L 261.403547 270.252523 
L 266.70403 268.762769 
L 272.004512 267.52305 
L 277.304994 266.47651 
L 280.823631 265.865143 
L 282.605477 265.390743 
L 287.905959 264.101084 
L 293.206442 262.981795 
L 298.506924 262.001376 
L 303.807406 261.135474 
L 305.167177 260.928 
L 309.107889 260.04388 
L 314.408371 258.964982 
L 319.708853 257.997515 
L 325.009336 257.12495 
L 330.309818 256.333828 
" clip-path="url(#p473a15caf3)" style="fill: none; stroke: #440154; stroke-opacity: 0.996094"/>
    <path d="M 118.290523 295.488 
L 112.990041 290.550857 
L 107.689558 290.550857 
L 102.389076 290.550857 
L 97.088594 290.550857 
L 91.788111 290.550857 
L 86.487629 290.550857 
L 81.187147 290.550857 
L 81.187147 290.550857 
L 75.886664 285.613714 
L 70.586182 285.613714 
M 70.586182 195.581955 
L 73.007514 196.745143 
L 75.886664 197.932937 
L 81.187147 200.353159 
L 83.826229 201.682286 
L 86.487629 202.829794 
L 91.788111 205.375187 
L 94.128252 206.619429 
L 97.088594 207.963541 
L 102.389076 210.694725 
L 103.911166 211.556571 
L 107.689558 213.380707 
L 112.990041 216.390097 
L 113.15999 216.493714 
L 118.290523 219.161186 
L 121.969883 221.430857 
L 123.591006 222.277321 
L 128.891488 225.449407 
L 130.246251 226.368 
L 134.19197 228.641364 
L 138.042855 231.305143 
L 139.492453 232.151206 
L 144.792935 235.817856 
L 145.334257 236.242286 
L 150.093417 239.430557 
L 152.253517 241.179429 
L 155.3939 243.341772 
L 158.706737 246.116571 
L 160.694382 247.525096 
L 164.769809 251.053714 
L 165.994865 251.944358 
L 170.552412 255.990857 
L 171.295347 256.536289 
L 176.250995 260.928 
L 176.595829 261.171046 
L 181.896312 265.33235 
L 182.603031 265.865143 
L 187.196794 268.131778 
L 192.497276 269.618864 
L 197.797759 268.473673 
L 202.879047 265.865143 
L 203.098241 265.685354 
L 208.398724 260.928 
L 208.398724 260.928 
L 213.151235 255.990857 
L 213.699206 255.353567 
L 217.887025 251.053714 
L 218.999688 249.803516 
L 222.802304 246.116571 
L 224.300171 244.525256 
L 227.979566 241.179429 
L 229.600653 239.554731 
L 233.466521 236.242286 
L 234.901135 234.880647 
L 239.297469 231.305143 
L 240.201618 230.488004 
L 245.500643 226.368 
L 245.5021 226.366739 
L 250.802583 222.232354 
L 252.001295 221.430857 
L 256.103065 218.326463 
L 258.909722 216.493714 
L 261.403547 214.656458 
L 266.249961 211.556571 
L 266.70403 211.230021 
L 272.004512 207.736137 
L 273.929638 206.619429 
L 277.304994 204.405686 
L 282.051262 201.682286 
L 282.605477 201.324347 
L 287.905959 198.144821 
L 290.53421 196.745143 
L 293.206442 195.140179 
L 298.506924 192.281626 
L 299.453856 191.808 
L 303.807406 189.351326 
L 308.775628 186.870857 
L 309.107889 186.684598 
L 314.408371 183.866992 
L 318.483511 181.933714 
L 319.708853 181.281447 
L 325.009336 178.630049 
L 328.608968 176.996571 
L 330.309818 176.131618 
" clip-path="url(#p473a15caf3)" style="fill: none; stroke: #ece51b; stroke-opacity: 0.996094"/>
    <path d="M 118.290523 295.488 
L 112.990041 290.550857 
L 107.689558 290.550857 
L 102.389076 290.550857 
L 97.088594 290.550857 
L 91.788111 290.550857 
L 86.487629 290.550857 
L 81.187147 290.550857 
L 81.187147 290.550857 
L 75.886664 285.613714 
L 70.586182 285.613714 
M 70.586182 143.570951 
L 75.784706 147.373714 
L 75.886664 147.442695 
L 81.187147 151.257613 
L 82.528249 152.310857 
L 86.487629 155.199255 
L 89.05066 157.248 
L 91.788111 159.279724 
L 95.353709 162.185143 
L 97.088594 163.497427 
L 101.444792 167.122286 
L 102.389076 167.851679 
L 107.330911 172.059429 
L 107.689558 172.342979 
L 112.990041 176.967153 
L 113.021054 176.996571 
L 118.290523 181.694485 
L 118.534288 181.933714 
L 123.591006 186.612008 
L 123.844918 186.870857 
L 128.891488 191.741205 
L 128.95426 191.808 
L 133.895376 196.745143 
L 134.19197 197.022644 
L 138.66574 201.682286 
L 139.492453 202.495225 
L 143.259282 206.619429 
L 144.792935 208.217914 
L 147.672633 211.556571 
L 150.093417 214.259716 
L 151.896998 216.493714 
L 155.3939 220.7351 
L 155.914007 221.430857 
L 159.862487 226.368 
L 160.694382 227.345104 
L 163.726103 231.305143 
L 165.994865 234.246904 
L 167.401059 236.242286 
L 170.940659 241.179429 
L 171.295347 241.610254 
L 174.694087 246.116571 
L 176.595829 248.588575 
L 178.436256 251.053714 
L 181.896312 255.4587 
L 182.364188 255.990857 
L 187.196794 260.419011 
L 188.271368 260.928 
L 192.497276 262.050151 
L 196.232154 260.928 
L 197.797759 260.001555 
L 201.190837 255.990857 
L 203.098241 253.189173 
L 204.375497 251.053714 
L 206.967518 246.116571 
L 208.398724 243.194835 
L 209.383567 241.179429 
L 211.597202 236.242286 
L 213.699206 231.787988 
L 213.936463 231.305143 
L 216.042399 226.368 
L 218.336148 221.430857 
L 218.999688 219.905509 
L 220.553526 216.493714 
L 222.861004 211.556571 
L 224.300171 208.501141 
L 225.235399 206.619429 
L 227.622802 201.682286 
L 229.600653 197.768383 
L 230.147847 196.745143 
L 232.659251 191.808 
L 234.901135 187.630481 
L 235.332723 186.870857 
L 238.000529 181.933714 
L 240.201618 178.036763 
L 240.823142 176.996571 
L 243.672824 172.059429 
L 245.5021 168.959373 
L 246.647231 167.122286 
L 249.699759 162.185143 
L 250.802583 160.385352 
L 252.829861 157.248 
L 256.103065 152.310857 
L 256.103065 152.310857 
L 259.39355 147.373714 
L 261.403547 144.416867 
L 262.822234 142.436571 
L 266.358966 137.499429 
L 266.70403 137.002983 
L 269.949801 132.562286 
L 272.004512 129.76978 
L 273.664813 127.625143 
L 277.304994 122.92259 
L 277.496111 122.688 
L 281.387924 117.750857 
L 282.605477 116.196578 
L 285.387943 112.813714 
L 287.905959 109.733424 
L 289.499772 107.876571 
L 293.206442 103.514592 
L 293.71958 102.939429 
L 298.028009 98.002286 
L 298.506924 97.442126 
L 302.427116 93.065143 
L 303.807406 91.504002 
L 306.933635 88.128 
L 309.107889 85.74386 
L 311.545666 83.190857 
L 314.408371 80.140547 
L 316.261822 78.253714 
L 319.708853 74.677355 
L 321.081128 73.316571 
L 325.009336 69.340946 
L 326.002937 68.379429 
L 330.309818 64.120567 
" clip-path="url(#p473a15caf3)" style="fill: none; stroke: #fbe723; stroke-opacity: 0.996094"/>
    <path d="M 118.290523 295.488 
L 112.990041 290.550857 
L 107.689558 290.550857 
L 102.389076 290.550857 
L 97.088594 290.550857 
L 91.788111 290.550857 
L 86.487629 290.550857 
L 81.187147 290.550857 
L 81.187147 290.550857 
L 75.886664 285.613714 
L 70.586182 285.613714 
M 70.586182 88.994851 
L 74.061515 93.065143 
L 75.886664 95.155649 
L 78.240936 98.002286 
L 81.187147 101.498262 
L 82.338042 102.939429 
L 86.357573 107.876571 
L 86.487629 108.027568 
L 90.383016 112.813714 
L 91.788111 114.511312 
L 94.32308 117.750857 
L 97.088594 121.244265 
L 98.169909 122.688 
L 101.95481 127.625143 
L 102.389076 128.163066 
L 105.738547 132.562286 
L 107.689558 135.106899 
L 109.421511 137.499429 
L 112.990041 142.436571 
L 112.990041 142.436571 
L 116.614843 147.373714 
L 118.290523 149.656349 
L 120.127064 152.310857 
L 123.516102 157.248 
L 123.591006 157.348535 
L 126.974486 162.185143 
L 128.891488 164.957072 
L 130.301306 167.122286 
L 133.553733 172.059429 
L 134.19197 172.972576 
L 136.830031 176.996571 
L 139.492453 181.182913 
L 139.942421 181.933714 
L 143.115225 186.870857 
L 144.792935 189.498741 
L 146.177941 191.808 
L 149.179607 196.745143 
L 150.093417 198.172053 
L 152.198915 201.682286 
L 155.04909 206.619429 
L 155.3939 207.155864 
L 158.036463 211.556571 
L 160.694382 216.347619 
L 160.771293 216.493714 
L 163.734789 221.430857 
L 165.994865 225.508694 
L 166.449487 226.368 
L 169.368634 231.305143 
L 171.295347 234.712055 
L 172.134074 236.242286 
L 175.092118 241.179429 
L 176.595829 243.62993 
L 178.131935 246.116571 
L 181.310015 251.053714 
L 181.896312 251.800127 
L 185.580828 255.990857 
L 187.196794 257.471579 
L 192.497276 259.695451 
L 197.797759 256.74719 
L 198.437622 255.990857 
L 201.292215 251.053714 
L 203.098241 247.392863 
L 203.644931 246.116571 
L 205.280479 241.179429 
L 206.859222 236.242286 
L 208.373899 231.305143 
L 208.398724 231.199451 
L 209.49126 226.368 
L 210.564372 221.430857 
L 211.592556 216.493714 
L 212.569919 211.556571 
L 213.491416 206.619429 
L 213.699206 205.274549 
L 214.248523 201.682286 
L 214.926848 196.745143 
L 215.557402 191.808 
L 216.137483 186.870857 
L 216.664925 181.933714 
L 217.138053 176.996571 
L 217.555637 172.059429 
L 217.916841 167.122286 
L 218.221175 162.185143 
L 218.468449 157.248 
L 218.658726 152.310857 
L 218.792283 147.373714 
L 218.869575 142.436571 
L 218.891203 137.499429 
L 218.85788 132.562286 
L 218.770411 127.625143 
L 218.62967 122.688 
L 218.43658 117.750857 
L 218.192097 112.813714 
L 217.897198 107.876571 
L 217.552867 102.939429 
L 217.160089 98.002286 
L 216.719842 93.065143 
L 216.233087 88.128 
L 215.700769 83.190857 
L 215.123806 78.253714 
L 214.503093 73.316571 
L 213.839498 68.379429 
L 213.699206 67.355372 
L 213.096684 63.442286 
L 212.303488 58.505143 
L 211.470321 53.568 
" clip-path="url(#p473a15caf3)" style="fill: none; stroke: #fde725; stroke-opacity: 0.996094"/>
    <path d="M 118.290523 295.488 
L 112.990041 290.550857 
L 107.689558 290.550857 
L 102.389076 290.550857 
L 97.088594 290.550857 
L 91.788111 290.550857 
L 86.487629 290.550857 
L 81.187147 290.550857 
L 81.187147 290.550857 
L 75.886664 285.613714 
L 70.586182 285.613714 
M 187.196794 256.531684 
L 192.497276 258.470553 
L 197.171577 255.990857 
L 197.797759 255.363672 
L 200.071926 251.053714 
L 202.303779 246.116571 
L 203.098241 243.788668 
L 203.865757 241.179429 
L 205.016812 236.242286 
L 206.026662 231.305143 
L 206.88368 226.368 
L 207.577743 221.430857 
L 208.100722 216.493714 
L 208.398724 212.141996 
L 208.436737 211.556571 
L 208.569187 206.619429 
L 208.555538 201.682286 
L 208.398724 196.94644 
L 208.389211 196.745143 
L 208.00211 191.808 
L 207.432472 186.870857 
L 206.682438 181.933714 
L 205.754713 176.996571 
L 204.652401 172.059429 
L 203.378867 167.122286 
L 203.098241 166.082671 
L 201.716592 162.185143 
L 199.833754 157.248 
L 197.797759 152.322395 
L 197.79152 152.310857 
L 195.173211 147.373714 
L 192.497276 142.549714 
L 192.415405 142.436571 
L 188.960712 137.499429 
L 187.196794 134.961699 
L 185.026319 132.562286 
L 181.896312 128.966056 
L 180.350112 127.625143 
L 176.595829 124.161004 
L 174.425285 122.688 
L 171.295347 120.387676 
L 166.220716 117.750857 
L 165.994865 117.621959 
L 160.694382 115.791767 
L 155.3939 115.121778 
L 150.093417 115.93766 
L 146.856741 117.750857 
L 144.792935 119.232242 
L 142.419589 122.688 
L 140.379443 127.625143 
L 139.492453 132.094763 
L 139.433221 132.562286 
L 139.252871 137.499429 
L 139.492453 142.436571 
L 139.492453 142.436571 
L 140.160375 147.373714 
L 141.09477 152.310857 
L 142.220406 157.248 
L 143.481671 162.185143 
L 144.792935 166.93053 
L 144.845239 167.122286 
L 146.526755 172.059429 
L 148.225411 176.996571 
L 149.921838 181.933714 
L 150.093417 182.350722 
L 151.896407 186.870857 
L 153.842103 191.808 
L 155.3939 195.719491 
L 155.789917 196.745143 
L 157.967678 201.682286 
L 160.023426 206.619429 
L 160.694382 208.059835 
L 162.265716 211.556571 
L 164.496683 216.493714 
L 165.994865 219.785813 
L 166.724315 221.430857 
L 169.149474 226.368 
L 171.295347 231.125267 
L 171.376095 231.305143 
L 174.059272 236.242286 
L 176.452083 241.179429 
L 176.595829 241.413682 
L 179.501007 246.116571 
L 181.896312 250.210767 
L 182.478766 251.053714 
L 186.60657 255.990857 
L 187.196794 256.531684 
z
" clip-path="url(#p473a15caf3)" style="fill: none; stroke: #fde725; stroke-opacity: 0.996094"/>
   </g>
   <g id="patch_3">
    <path d="M 57.6 307.584 
L 57.6 41.472 
" style="fill: none; stroke: #000000; stroke-width: 0.8; stroke-linejoin: miter; stroke-linecap: square"/>
   </g>
   <g id="patch_4">
    <path d="M 343.296 307.584 
L 343.296 41.472 
" style="fill: none; stroke: #000000; stroke-width: 0.8; stroke-linejoin: miter; stroke-linecap: square"/>
   </g>
   <g id="patch_5">
    <path d="M 57.6 307.584 
L 343.296 307.584 
" style="fill: none; stroke: #000000; stroke-width: 0.8; stroke-linejoin: miter; stroke-linecap: square"/>
   </g>
   <g id="patch_6">
    <path d="M 57.6 41.472 
L 343.296 41.472 
" style="fill: none; stroke: #000000; stroke-width: 0.8; stroke-linejoin: miter; stroke-linecap: square"/>
   </g>
  </g>
  <g id="axes_2">
   <g id="patch_7">
    <path d="M 361.152 295.488 
L 374.4576 295.488 
L 374.4576 53.568 
L 361.152 53.568 
z
" style="fill: #ffffff"/>
   </g>
   <g id="matplotlib.axis_3"/>
   <g id="matplotlib.axis_4">
    <g id="ytick_9">
     <g id="line2d_35">
      <defs>
       <path id="mf8d0994128" d="M 0 0 
L 3.5 0 
" style="stroke: #000000; stroke-width: 0.8"/>
      </defs>
      <g>
       <use xlink:href="#mf8d0994128" x="374.4576" y="295.488" style="stroke: #000000; stroke-width: 0.8"/>
      </g>
     </g>
     <g id="text_20">
      <!-- -37.5 -->
      <g transform="translate(381.4576 299.287219) scale(0.1 -0.1)">
       <defs>
        <path id="DejaVuSans-2d" d="M 313 2009 
L 1997 2009 
L 1997 1497 
L 313 1497 
L 313 2009 
z
" transform="scale(0.015625)"/>
        <path id="DejaVuSans-2e" d="M 684 794 
L 1344 794 
L 1344 0 
L 684 0 
L 684 794 
z
" transform="scale(0.015625)"/>
       </defs>
       <use xlink:href="#DejaVuSans-2d"/>
       <use xlink:href="#DejaVuSans-33" transform="translate(36.083984 0)"/>
       <use xlink:href="#DejaVuSans-37" transform="translate(99.707031 0)"/>
       <use xlink:href="#DejaVuSans-2e" transform="translate(163.330078 0)"/>
       <use xlink:href="#DejaVuSans-35" transform="translate(195.117188 0)"/>
      </g>
     </g>
    </g>
    <g id="ytick_10">
     <g id="line2d_36">
      <g>
       <use xlink:href="#mf8d0994128" x="374.4576" y="235.008" style="stroke: #000000; stroke-width: 0.8"/>
      </g>
     </g>
     <g id="text_21">
      <!-- -13.7 -->
      <g transform="translate(381.4576 238.807219) scale(0.1 -0.1)">
       <use xlink:href="#DejaVuSans-2d"/>
       <use xlink:href="#DejaVuSans-31" transform="translate(36.083984 0)"/>
       <use xlink:href="#DejaVuSans-33" transform="translate(99.707031 0)"/>
       <use xlink:href="#DejaVuSans-2e" transform="translate(163.330078 0)"/>
       <use xlink:href="#DejaVuSans-37" transform="translate(195.117188 0)"/>
      </g>
     </g>
    </g>
    <g id="ytick_11">
     <g id="line2d_37">
      <g>
       <use xlink:href="#mf8d0994128" x="374.4576" y="174.528" style="stroke: #000000; stroke-width: 0.8"/>
      </g>
     </g>
     <g id="text_22">
      <!-- -13.2 -->
      <g transform="translate(381.4576 178.327219) scale(0.1 -0.1)">
       <use xlink:href="#DejaVuSans-2d"/>
       <use xlink:href="#DejaVuSans-31" transform="translate(36.083984 0)"/>
       <use xlink:href="#DejaVuSans-33" transform="translate(99.707031 0)"/>
       <use xlink:href="#DejaVuSans-2e" transform="translate(163.330078 0)"/>
       <use xlink:href="#DejaVuSans-32" transform="translate(195.117188 0)"/>
      </g>
     </g>
    </g>
    <g id="ytick_12">
     <g id="line2d_38">
      <g>
       <use xlink:href="#mf8d0994128" x="374.4576" y="114.048" style="stroke: #000000; stroke-width: 0.8"/>
      </g>
     </g>
     <g id="text_23">
      <!-- -13.1 -->
      <g transform="translate(381.4576 117.847219) scale(0.1 -0.1)">
       <use xlink:href="#DejaVuSans-2d"/>
       <use xlink:href="#DejaVuSans-31" transform="translate(36.083984 0)"/>
       <use xlink:href="#DejaVuSans-33" transform="translate(99.707031 0)"/>
       <use xlink:href="#DejaVuSans-2e" transform="translate(163.330078 0)"/>
       <use xlink:href="#DejaVuSans-31" transform="translate(195.117188 0)"/>
      </g>
     </g>
    </g>
    <g id="ytick_13">
     <g id="line2d_39">
      <g>
       <use xlink:href="#mf8d0994128" x="374.4576" y="53.568" style="stroke: #000000; stroke-width: 0.8"/>
      </g>
     </g>
     <g id="text_24">
      <!-- -13.1 -->
      <g transform="translate(381.4576 57.367219) scale(0.1 -0.1)">
       <use xlink:href="#DejaVuSans-2d"/>
       <use xlink:href="#DejaVuSans-31" transform="translate(36.083984 0)"/>
       <use xlink:href="#DejaVuSans-33" transform="translate(99.707031 0)"/>
       <use xlink:href="#DejaVuSans-2e" transform="translate(163.330078 0)"/>
       <use xlink:href="#DejaVuSans-31" transform="translate(195.117188 0)"/>
      </g>
     </g>
    </g>
   </g>
   <g id="LineCollection_1"/>
   <g id="LineCollection_2">
    <path d="M 361.152 295.488 
L 374.4576 295.488 
" clip-path="url(#p18fbc9237e)" style="fill: none; stroke: #440154; stroke-opacity: 0.996094"/>
    <path d="M 361.152 235.008 
L 374.4576 235.008 
" clip-path="url(#p18fbc9237e)" style="fill: none; stroke: #ece51b; stroke-opacity: 0.996094"/>
    <path d="M 361.152 174.528 
L 374.4576 174.528 
" clip-path="url(#p18fbc9237e)" style="fill: none; stroke: #fbe723; stroke-opacity: 0.996094"/>
    <path d="M 361.152 114.048 
L 374.4576 114.048 
" clip-path="url(#p18fbc9237e)" style="fill: none; stroke: #fde725; stroke-opacity: 0.996094"/>
    <path d="M 361.152 53.568 
L 374.4576 53.568 
" clip-path="url(#p18fbc9237e)" style="fill: none; stroke: #fde725; stroke-opacity: 0.996094"/>
   </g>
   <g id="patch_8">
    <path d="M 361.152 295.488 
L 367.8048 307.584 
L 374.4576 295.488 
L 374.4576 53.568 
L 367.8048 41.472 
L 361.152 53.568 
L 361.152 295.488 
z
" style="fill: none; stroke: #000000; stroke-width: 0.8; stroke-linejoin: miter; stroke-linecap: square"/>
   </g>
  </g>
  <g id="text_25">
   <!-- y0 as a function of (x0,x1) -->
   <g transform="translate(151.39875 16.030125) scale(0.12 -0.12)">
    <defs>
     <path id="DejaVuSans-79" d="M 2059 -325 
Q 1816 -950 1584 -1140 
Q 1353 -1331 966 -1331 
L 506 -1331 
L 506 -850 
L 844 -850 
Q 1081 -850 1212 -737 
Q 1344 -625 1503 -206 
L 1606 56 
L 191 3500 
L 800 3500 
L 1894 763 
L 2988 3500 
L 3597 3500 
L 2059 -325 
z
" transform="scale(0.015625)"/>
     <path id="DejaVuSans-20" transform="scale(0.015625)"/>
     <path id="DejaVuSans-61" d="M 2194 1759 
Q 1497 1759 1228 1600 
Q 959 1441 959 1056 
Q 959 750 1161 570 
Q 1363 391 1709 391 
Q 2188 391 2477 730 
Q 2766 1069 2766 1631 
L 2766 1759 
L 2194 1759 
z
M 3341 1997 
L 3341 0 
L 2766 0 
L 2766 531 
Q 2569 213 2275 61 
Q 1981 -91 1556 -91 
Q 1019 -91 701 211 
Q 384 513 384 1019 
Q 384 1609 779 1909 
Q 1175 2209 1959 2209 
L 2766 2209 
L 2766 2266 
Q 2766 2663 2505 2880 
Q 2244 3097 1772 3097 
Q 1472 3097 1187 3025 
Q 903 2953 641 2809 
L 641 3341 
Q 956 3463 1253 3523 
Q 1550 3584 1831 3584 
Q 2591 3584 2966 3190 
Q 3341 2797 3341 1997 
z
" transform="scale(0.015625)"/>
     <path id="DejaVuSans-73" d="M 2834 3397 
L 2834 2853 
Q 2591 2978 2328 3040 
Q 2066 3103 1784 3103 
Q 1356 3103 1142 2972 
Q 928 2841 928 2578 
Q 928 2378 1081 2264 
Q 1234 2150 1697 2047 
L 1894 2003 
Q 2506 1872 2764 1633 
Q 3022 1394 3022 966 
Q 3022 478 2636 193 
Q 2250 -91 1575 -91 
Q 1294 -91 989 -36 
Q 684 19 347 128 
L 347 722 
Q 666 556 975 473 
Q 1284 391 1588 391 
Q 1994 391 2212 530 
Q 2431 669 2431 922 
Q 2431 1156 2273 1281 
Q 2116 1406 1581 1522 
L 1381 1569 
Q 847 1681 609 1914 
Q 372 2147 372 2553 
Q 372 3047 722 3315 
Q 1072 3584 1716 3584 
Q 2034 3584 2315 3537 
Q 2597 3491 2834 3397 
z
" transform="scale(0.015625)"/>
     <path id="DejaVuSans-66" d="M 2375 4863 
L 2375 4384 
L 1825 4384 
Q 1516 4384 1395 4259 
Q 1275 4134 1275 3809 
L 1275 3500 
L 2222 3500 
L 2222 3053 
L 1275 3053 
L 1275 0 
L 697 0 
L 697 3053 
L 147 3053 
L 147 3500 
L 697 3500 
L 697 3744 
Q 697 4328 969 4595 
Q 1241 4863 1831 4863 
L 2375 4863 
z
" transform="scale(0.015625)"/>
     <path id="DejaVuSans-75" d="M 544 1381 
L 544 3500 
L 1119 3500 
L 1119 1403 
Q 1119 906 1312 657 
Q 1506 409 1894 409 
Q 2359 409 2629 706 
Q 2900 1003 2900 1516 
L 2900 3500 
L 3475 3500 
L 3475 0 
L 2900 0 
L 2900 538 
Q 2691 219 2414 64 
Q 2138 -91 1772 -91 
Q 1169 -91 856 284 
Q 544 659 544 1381 
z
M 1991 3584 
L 1991 3584 
z
" transform="scale(0.015625)"/>
     <path id="DejaVuSans-6e" d="M 3513 2113 
L 3513 0 
L 2938 0 
L 2938 2094 
Q 2938 2591 2744 2837 
Q 2550 3084 2163 3084 
Q 1697 3084 1428 2787 
Q 1159 2491 1159 1978 
L 1159 0 
L 581 0 
L 581 3500 
L 1159 3500 
L 1159 2956 
Q 1366 3272 1645 3428 
Q 1925 3584 2291 3584 
Q 2894 3584 3203 3211 
Q 3513 2838 3513 2113 
z
" transform="scale(0.015625)"/>
     <path id="DejaVuSans-63" d="M 3122 3366 
L 3122 2828 
Q 2878 2963 2633 3030 
Q 2388 3097 2138 3097 
Q 1578 3097 1268 2742 
Q 959 2388 959 1747 
Q 959 1106 1268 751 
Q 1578 397 2138 397 
Q 2388 397 2633 464 
Q 2878 531 3122 666 
L 3122 134 
Q 2881 22 2623 -34 
Q 2366 -91 2075 -91 
Q 1284 -91 818 406 
Q 353 903 353 1747 
Q 353 2603 823 3093 
Q 1294 3584 2113 3584 
Q 2378 3584 2631 3529 
Q 2884 3475 3122 3366 
z
" transform="scale(0.015625)"/>
     <path id="DejaVuSans-74" d="M 1172 4494 
L 1172 3500 
L 2356 3500 
L 2356 3053 
L 1172 3053 
L 1172 1153 
Q 1172 725 1289 603 
Q 1406 481 1766 481 
L 2356 481 
L 2356 0 
L 1766 0 
Q 1100 0 847 248 
Q 594 497 594 1153 
L 594 3053 
L 172 3053 
L 172 3500 
L 594 3500 
L 594 4494 
L 1172 4494 
z
" transform="scale(0.015625)"/>
     <path id="DejaVuSans-69" d="M 603 3500 
L 1178 3500 
L 1178 0 
L 603 0 
L 603 3500 
z
M 603 4863 
L 1178 4863 
L 1178 4134 
L 603 4134 
L 603 4863 
z
" transform="scale(0.015625)"/>
     <path id="DejaVuSans-6f" d="M 1959 3097 
Q 1497 3097 1228 2736 
Q 959 2375 959 1747 
Q 959 1119 1226 758 
Q 1494 397 1959 397 
Q 2419 397 2687 759 
Q 2956 1122 2956 1747 
Q 2956 2369 2687 2733 
Q 2419 3097 1959 3097 
z
M 1959 3584 
Q 2709 3584 3137 3096 
Q 3566 2609 3566 1747 
Q 3566 888 3137 398 
Q 2709 -91 1959 -91 
Q 1206 -91 779 398 
Q 353 888 353 1747 
Q 353 2609 779 3096 
Q 1206 3584 1959 3584 
z
" transform="scale(0.015625)"/>
     <path id="DejaVuSans-28" d="M 1984 4856 
Q 1566 4138 1362 3434 
Q 1159 2731 1159 2009 
Q 1159 1288 1364 580 
Q 1569 -128 1984 -844 
L 1484 -844 
Q 1016 -109 783 600 
Q 550 1309 550 2009 
Q 550 2706 781 3412 
Q 1013 4119 1484 4856 
L 1984 4856 
z
" transform="scale(0.015625)"/>
     <path id="DejaVuSans-78" d="M 3513 3500 
L 2247 1797 
L 3578 0 
L 2900 0 
L 1881 1375 
L 863 0 
L 184 0 
L 1544 1831 
L 300 3500 
L 978 3500 
L 1906 2253 
L 2834 3500 
L 3513 3500 
z
" transform="scale(0.015625)"/>
     <path id="DejaVuSans-2c" d="M 750 794 
L 1409 794 
L 1409 256 
L 897 -744 
L 494 -744 
L 750 256 
L 750 794 
z
" transform="scale(0.015625)"/>
     <path id="DejaVuSans-29" d="M 513 4856 
L 1013 4856 
Q 1481 4119 1714 3412 
Q 1947 2706 1947 2009 
Q 1947 1309 1714 600 
Q 1481 -109 1013 -844 
L 513 -844 
Q 928 -128 1133 580 
Q 1338 1288 1338 2009 
Q 1338 2731 1133 3434 
Q 928 4138 513 4856 
z
" transform="scale(0.015625)"/>
    </defs>
    <use xlink:href="#DejaVuSans-79"/>
    <use xlink:href="#DejaVuSans-30" transform="translate(59.179688 0)"/>
    <use xlink:href="#DejaVuSans-20" transform="translate(122.802734 0)"/>
    <use xlink:href="#DejaVuSans-61" transform="translate(154.589844 0)"/>
    <use xlink:href="#DejaVuSans-73" transform="translate(215.869141 0)"/>
    <use xlink:href="#DejaVuSans-20" transform="translate(267.96875 0)"/>
    <use xlink:href="#DejaVuSans-61" transform="translate(299.755859 0)"/>
    <use xlink:href="#DejaVuSans-20" transform="translate(361.035156 0)"/>
    <use xlink:href="#DejaVuSans-66" transform="translate(392.822266 0)"/>
    <use xlink:href="#DejaVuSans-75" transform="translate(428.027344 0)"/>
    <use xlink:href="#DejaVuSans-6e" transform="translate(491.40625 0)"/>
    <use xlink:href="#DejaVuSans-63" transform="translate(554.785156 0)"/>
    <use xlink:href="#DejaVuSans-74" transform="translate(609.765625 0)"/>
    <use xlink:href="#DejaVuSans-69" transform="translate(648.974609 0)"/>
    <use xlink:href="#DejaVuSans-6f" transform="translate(676.757812 0)"/>
    <use xlink:href="#DejaVuSans-6e" transform="translate(737.939453 0)"/>
    <use xlink:href="#DejaVuSans-20" transform="translate(801.318359 0)"/>
    <use xlink:href="#DejaVuSans-6f" transform="translate(833.105469 0)"/>
    <use xlink:href="#DejaVuSans-66" transform="translate(894.287109 0)"/>
    <use xlink:href="#DejaVuSans-20" transform="translate(929.492188 0)"/>
    <use xlink:href="#DejaVuSans-28" transform="translate(961.279297 0)"/>
    <use xlink:href="#DejaVuSans-78" transform="translate(1000.292969 0)"/>
    <use xlink:href="#DejaVuSans-30" transform="translate(1059.472656 0)"/>
    <use xlink:href="#DejaVuSans-2c" transform="translate(1123.095703 0)"/>
    <use xlink:href="#DejaVuSans-78" transform="translate(1154.882812 0)"/>
    <use xlink:href="#DejaVuSans-31" transform="translate(1214.0625 0)"/>
    <use xlink:href="#DejaVuSans-29" transform="translate(1277.685547 0)"/>
   </g>
  </g>
 </g>
 <defs>
  <clipPath id="p473a15caf3">
   <rect x="57.6" y="41.472" width="285.696" height="266.112"/>
  </clipPath>
  <clipPath id="p18fbc9237e">
   <path d="M 361.152 296.397091 
L 374.4576 296.397091 
L 374.4576 52.658909 
L 361.152 52.658909 
z
"/>
  </clipPath>
 </defs>
</svg>
