<?xml version="1.0" encoding="utf-8" standalone="no"?>
<!DOCTYPE svg PUBLIC "-//W3C//DTD SVG 1.1//EN"
  "http://www.w3.org/Graphics/SVG/1.1/DTD/svg11.dtd">
<svg xmlns:xlink="http://www.w3.org/1999/xlink" width="720pt" height="288pt" viewBox="0 0 720 288" xmlns="http://www.w3.org/2000/svg" version="1.1">
 <metadata>
  <rdf:RDF xmlns:dc="http://purl.org/dc/elements/1.1/" xmlns:cc="http://creativecommons.org/ns#" xmlns:rdf="http://www.w3.org/1999/02/22-rdf-syntax-ns#">
   <cc:Work>
    <dc:type rdf:resource="http://purl.org/dc/dcmitype/StillImage"/>
    <dc:date>2022-01-01T00:00:00+00:00</dc:date>
    <dc:format>image/svg+xml</dc:format>
    <dc:creator>
     <cc:Agent>
      <dc:title>Matplotlib v3.10.8, https://matplotlib.org/</dc:title>
     </cc:Agent>
    </dc:creator>
   </cc:Work>
  </rdf:RDF>
 </metadata>
 <defs>
  <style type="text/css">*{stroke-linejoin: round; stroke-linecap: butt}</style>
 </defs>
 <g id="figure_1">
  <g id="patch_1">
   <path d="M 0 288 
L 720 288 
L 720 0 
L 0 0 
z
" style="fill: #ffffff"/>
  </g>
  <g id="axes_1">
   <g id="patch_2">
    <path d="M 90 256.32 
L 648 256.32 
L 648 34.56 
L 90 34.56 
z
" style="fill: #ffffff"/>
   </g>
   <g id="matplotlib.axis_1">
    <g id="xtick_1">
     <g id="line2d_1">
      <path d="M 115.363636 256.32 
L 115.363636 34.56 
" clip-path="url(#p5d93d90303)" style="fill: none; stroke: #b0b0b0; stroke-width: 0.8; stroke-linecap: square"/>
     </g>
     <g id="line2d_2">
      <defs>
       <path id="mc86172bdf7" d="M 0 0 
L 0 3.5 
" style="stroke: #000000; stroke-width: 0.8"/>
      </defs>
      <g>
       <use xlink:href="#mc86172bdf7" x="115.363636" y="256.32" style="stroke: #000000; stroke-width: 0.8"/>
      </g>
     </g>
     <g id="text_1">
      <!-- −0.5 -->
      <g transform="translate(103.22223 270.918437) scale(0.1 -0.1)">
       <defs>
        <path id="DejaVuSans-2212" d="M 678 2272 
L 4684 2272 
L 4684 1741 
L 678 1741 
L 678 2272 
z
" transform="scale(0.015625)"/>
        <path id="DejaVuSans-30" d="M 2034 4250 
Q 1547 4250 1301 3770 
Q 1056 3291 1056 2328 
Q 1056 1369 1301 889 
Q 1547 409 2034 409 
Q 2525 409 2770 889 
Q 3016 1369 3016 2328 
Q 3016 3291 2770 3770 
Q 2525 4250 2034 4250 
z
M 2034 4750 
Q 2819 4750 3233 4129 
Q 3647 3509 3647 2328 
Q 3647 1150 3233 529 
Q 2819 -91 2034 -91 
Q 1250 -91 836 529 
Q 422 1150 422 2328 
Q 422 3509 836 4129 
Q 1250 4750 2034 4750 
z
" transform="scale(0.015625)"/>
        <path id="DejaVuSans-2e" d="M 684 794 
L 1344 794 
L 1344 0 
L 684 0 
L 684 794 
z
" transform="scale(0.015625)"/>
        <path id="DejaVuSans-35" d="M 691 4666 
L 3169 4666 
L 3169 4134 
L 1269 4134 
L 1269 2991 
Q 1406 3038 1543 3061 
Q 1681 3084 1819 3084 
Q 2600 3084 3056 2656 
Q 3513 2228 3513 1497 
Q 3513 744 3044 326 
Q 2575 -91 1722 -91 
Q 1428 -91 1123 -41 
Q 819 9 494 109 
L 494 744 
Q 775 591 1075 516 
Q 1375 441 1709 441 
Q 2250 441 2565 725 
Q 2881 1009 2881 1497 
Q 2881 1984 2565 2268 
Q 2250 2553 1709 2553 
Q 1456 2553 1204 2497 
Q 953 2441 691 2322 
L 691 4666 
z
" transform="scale(0.015625)"/>
       </defs>
       <use xlink:href="#DejaVuSans-2212"/>
       <use xlink:href="#DejaVuSans-30" transform="translate(83.789062 0)"/>
       <use xlink:href="#DejaVuSans-2e" transform="translate(147.412109 0)"/>
       <use xlink:href="#DejaVuSans-35" transform="translate(179.199219 0)"/>
      </g>
     </g>
    </g>
    <g id="xtick_2">
     <g id="line2d_3">
      <path d="M 187.831169 256.32 
L 187.831169 34.56 
" clip-path="url(#p5d93d90303)" style="fill: none; stroke: #b0b0b0; stroke-width: 0.8; stroke-linecap: square"/>
     </g>
     <g id="line2d_4">
      <g>
       <use xlink:href="#mc86172bdf7" x="187.831169" y="256.32" style="stroke: #000000; stroke-width: 0.8"/>
      </g>
     </g>
     <g id="text_2">
      <!-- 0.0 -->
      <g transform="translate(179.879606 270.918437) scale(0.1 -0.1)">
       <use xlink:href="#DejaVuSans-30"/>
       <use xlink:href="#DejaVuSans-2e" transform="translate(63.623047 0)"/>
       <use xlink:href="#DejaVuSans-30" transform="translate(95.410156 0)"/>
      </g>
     </g>
    </g>
    <g id="xtick_3">
     <g id="line2d_5">
      <path d="M 260.298701 256.32 
L 260.298701 34.56 
" clip-path="url(#p5d93d90303)" style="fill: none; stroke: #b0b0b0; stroke-width: 0.8; stroke-linecap: square"/>
     </g>
     <g id="line2d_6">
      <g>
       <use xlink:href="#mc86172bdf7" x="260.298701" y="256.32" style="stroke: #000000; stroke-width: 0.8"/>
      </g>
     </g>
     <g id="text_3">
      <!-- 0.5 -->
      <g transform="translate(252.347139 270.918437) scale(0.1 -0.1)">
       <use xlink:href="#DejaVuSans-30"/>
       <use xlink:href="#DejaVuSans-2e" transform="translate(63.623047 0)"/>
       <use xlink:href="#DejaVuSans-35" transform="translate(95.410156 0)"/>
      </g>
     </g>
    </g>
    <g id="xtick_4">
     <g id="line2d_7">
      <path d="M 332.766234 256.32 
L 332.766234 34.56 
" clip-path="url(#p5d93d90303)" style="fill: none; stroke: #b0b0b0; stroke-width: 0.8; stroke-linecap: square"/>
     </g>
     <g id="line2d_8">
      <g>
       <use xlink:href="#mc86172bdf7" x="332.766234" y="256.32" style="stroke: #000000; stroke-width: 0.8"/>
      </g>
     </g>
     <g id="text_4">
      <!-- 1.0 -->
      <g transform="translate(324.814671 270.918437) scale(0.1 -0.1)">
       <defs>
        <path id="DejaVuSans-31" d="M 794 531 
L 1825 531 
L 1825 4091 
L 703 3866 
L 703 4441 
L 1819 4666 
L 2450 4666 
L 2450 531 
L 3481 531 
L 3481 0 
L 794 0 
L 794 531 
z
" transform="scale(0.015625)"/>
       </defs>
       <use xlink:href="#DejaVuSans-31"/>
       <use xlink:href="#DejaVuSans-2e" transform="translate(63.623047 0)"/>
       <use xlink:href="#DejaVuSans-30" transform="translate(95.410156 0)"/>
      </g>
     </g>
    </g>
    <g id="xtick_5">
     <g id="line2d_9">
      <path d="M 405.233766 256.32 
L 405.233766 34.56 
" clip-path="url(#p5d93d90303)" style="fill: none; stroke: #b0b0b0; stroke-width: 0.8; stroke-linecap: square"/>
     </g>
     <g id="line2d_10">
      <g>
       <use xlink:href="#mc86172bdf7" x="405.233766" y="256.32" style="stroke: #000000; stroke-width: 0.8"/>
      </g>
     </g>
     <g id="text_5">
      <!-- 1.5 -->
      <g transform="translate(397.282204 270.918437) scale(0.1 -0.1)">
       <use xlink:href="#DejaVuSans-31"/>
       <use xlink:href="#DejaVuSans-2e" transform="translate(63.623047 0)"/>
       <use xlink:href="#DejaVuSans-35" transform="translate(95.410156 0)"/>
      </g>
     </g>
    </g>
    <g id="xtick_6">
     <g id="line2d_11">
      <path d="M 477.701299 256.32 
L 477.701299 34.56 
" clip-path="url(#p5d93d90303)" style="fill: none; stroke: #b0b0b0; stroke-width: 0.8; stroke-linecap: square"/>
     </g>
     <g id="line2d_12">
      <g>
       <use xlink:href="#mc86172bdf7" x="477.701299" y="256.32" style="stroke: #000000; stroke-width: 0.8"/>
      </g>
     </g>
     <g id="text_6">
      <!-- 2.0 -->
      <g transform="translate(469.749736 270.918437) scale(0.1 -0.1)">
       <defs>
        <path id="DejaVuSans-32" d="M 1228 531 
L 3431 531 
L 3431 0 
L 469 0 
L 469 531 
Q 828 903 1448 1529 
Q 2069 2156 2228 2338 
Q 2531 2678 2651 2914 
Q 2772 3150 2772 3378 
Q 2772 3750 2511 3984 
Q 2250 4219 1831 4219 
Q 1534 4219 1204 4116 
Q 875 4013 500 3803 
L 500 4441 
Q 881 4594 1212 4672 
Q 1544 4750 1819 4750 
Q 2544 4750 2975 4387 
Q 3406 4025 3406 3419 
Q 3406 3131 3298 2873 
Q 3191 2616 2906 2266 
Q 2828 2175 2409 1742 
Q 1991 1309 1228 531 
z
" transform="scale(0.015625)"/>
       </defs>
       <use xlink:href="#DejaVuSans-32"/>
       <use xlink:href="#DejaVuSans-2e" transform="translate(63.623047 0)"/>
       <use xlink:href="#DejaVuSans-30" transform="translate(95.410156 0)"/>
      </g>
     </g>
    </g>
    <g id="xtick_7">
     <g id="line2d_13">
      <path d="M 550.168831 256.32 
L 550.168831 34.56 
" clip-path="url(#p5d93d90303)" style="fill: none; stroke: #b0b0b0; stroke-width: 0.8; stroke-linecap: square"/>
     </g>
     <g id="line2d_14">
      <g>
       <use xlink:href="#mc86172bdf7" x="550.168831" y="256.32" style="stroke: #000000; stroke-width: 0.8"/>
      </g>
     </g>
     <g id="text_7">
      <!-- 2.5 -->
      <g transform="translate(542.217269 270.918437) scale(0.1 -0.1)">
       <use xlink:href="#DejaVuSans-32"/>
       <use xlink:href="#DejaVuSans-2e" transform="translate(63.623047 0)"/>
       <use xlink:href="#DejaVuSans-35" transform="translate(95.410156 0)"/>
      </g>
     </g>
    </g>
    <g id="xtick_8">
     <g id="line2d_15">
      <path d="M 622.636364 256.32 
L 622.636364 34.56 
" clip-path="url(#p5d93d90303)" style="fill: none; stroke: #b0b0b0; stroke-width: 0.8; stroke-linecap: square"/>
     </g>
     <g id="line2d_16">
      <g>
       <use xlink:href="#mc86172bdf7" x="622.636364" y="256.32" style="stroke: #000000; stroke-width: 0.8"/>
      </g>
     </g>
     <g id="text_8">
      <!-- 3.0 -->
      <g transform="translate(614.684801 270.918437) scale(0.1 -0.1)">
       <defs>
        <path id="DejaVuSans-33" d="M 2597 2516 
Q 3050 2419 3304 2112 
Q 3559 1806 3559 1356 
Q 3559 666 3084 287 
Q 2609 -91 1734 -91 
Q 1441 -91 1130 -33 
Q 819 25 488 141 
L 488 750 
Q 750 597 1062 519 
Q 1375 441 1716 441 
Q 2309 441 2620 675 
Q 2931 909 2931 1356 
Q 2931 1769 2642 2001 
Q 2353 2234 1838 2234 
L 1294 2234 
L 1294 2753 
L 1863 2753 
Q 2328 2753 2575 2939 
Q 2822 3125 2822 3475 
Q 2822 3834 2567 4026 
Q 2313 4219 1838 4219 
Q 1578 4219 1281 4162 
Q 984 4106 628 3988 
L 628 4550 
Q 988 4650 1302 4700 
Q 1616 4750 1894 4750 
Q 2613 4750 3031 4423 
Q 3450 4097 3450 3541 
Q 3450 3153 3228 2886 
Q 3006 2619 2597 2516 
z
" transform="scale(0.015625)"/>
       </defs>
       <use xlink:href="#DejaVuSans-33"/>
       <use xlink:href="#DejaVuSans-2e" transform="translate(63.623047 0)"/>
       <use xlink:href="#DejaVuSans-30" transform="translate(95.410156 0)"/>
      </g>
     </g>
    </g>
    <g id="text_9">
     <!-- $x$ -->
     <g transform="translate(366 284.596563) scale(0.1 -0.1)">
      <defs>
       <path id="DejaVuSans-Oblique-78" d="M 3841 3500 
L 2234 1784 
L 3219 0 
L 2559 0 
L 1819 1388 
L 531 0 
L -166 0 
L 1556 1844 
L 641 3500 
L 1300 3500 
L 1972 2234 
L 3144 3500 
L 3841 3500 
z
" transform="scale(0.015625)"/>
      </defs>
      <use xlink:href="#DejaVuSans-Oblique-78" transform="translate(0 0.3125)"/>
     </g>
    </g>
   </g>
   <g id="matplotlib.axis_2">
    <g id="ytick_1">
     <g id="line2d_17">
      <path d="M 90 246.24 
L 648 246.24 
" clip-path="url(#p5d93d90303)" style="fill: none; stroke: #b0b0b0; stroke-width: 0.8; stroke-linecap: square"/>
     </g>
     <g id="line2d_18">
      <defs>
       <path id="md13a5fa597" d="M 0 0 
L -3.5 0 
" style="stroke: #000000; stroke-width: 0.8"/>
      </defs>
      <g>
       <use xlink:href="#md13a5fa597" x="90" y="246.24" style="stroke: #000000; stroke-width: 0.8"/>
      </g>
     </g>
     <g id="text_10">
      <!-- −1.00 -->
      <g transform="translate(52.354687 250.039219) scale(0.1 -0.1)">
       <use xlink:href="#DejaVuSans-2212"/>
       <use xlink:href="#DejaVuSans-31" transform="translate(83.789062 0)"/>
       <use xlink:href="#DejaVuSans-2e" transform="translate(147.412109 0)"/>
       <use xlink:href="#DejaVuSans-30" transform="translate(179.199219 0)"/>
       <use xlink:href="#DejaVuSans-30" transform="translate(242.822266 0)"/>
      </g>
     </g>
    </g>
    <g id="ytick_2">
     <g id="line2d_19">
      <path d="M 90 221.03989 
L 648 221.03989 
" clip-path="url(#p5d93d90303)" style="fill: none; stroke: #b0b0b0; stroke-width: 0.8; stroke-linecap: square"/>
     </g>
     <g id="line2d_20">
      <g>
       <use xlink:href="#md13a5fa597" x="90" y="221.03989" style="stroke: #000000; stroke-width: 0.8"/>
      </g>
     </g>
     <g id="text_11">
      <!-- −0.75 -->
      <g transform="translate(52.354687 224.839109) scale(0.1 -0.1)">
       <defs>
        <path id="DejaVuSans-37" d="M 525 4666 
L 3525 4666 
L 3525 4397 
L 1831 0 
L 1172 0 
L 2766 4134 
L 525 4134 
L 525 4666 
z
" transform="scale(0.015625)"/>
       </defs>
       <use xlink:href="#DejaVuSans-2212"/>
       <use xlink:href="#DejaVuSans-30" transform="translate(83.789062 0)"/>
       <use xlink:href="#DejaVuSans-2e" transform="translate(147.412109 0)"/>
       <use xlink:href="#DejaVuSans-37" transform="translate(179.199219 0)"/>
       <use xlink:href="#DejaVuSans-35" transform="translate(242.822266 0)"/>
      </g>
     </g>
    </g>
    <g id="ytick_3">
     <g id="line2d_21">
      <path d="M 90 195.83978 
L 648 195.83978 
" clip-path="url(#p5d93d90303)" style="fill: none; stroke: #b0b0b0; stroke-width: 0.8; stroke-linecap: square"/>
     </g>
     <g id="line2d_22">
      <g>
       <use xlink:href="#md13a5fa597" x="90" y="195.83978" style="stroke: #000000; stroke-width: 0.8"/>
      </g>
     </g>
     <g id="text_12">
      <!-- −0.50 -->
      <g transform="translate(52.354687 199.638999) scale(0.1 -0.1)">
       <use xlink:href="#DejaVuSans-2212"/>
       <use xlink:href="#DejaVuSans-30" transform="translate(83.789062 0)"/>
       <use xlink:href="#DejaVuSans-2e" transform="translate(147.412109 0)"/>
       <use xlink:href="#DejaVuSans-35" transform="translate(179.199219 0)"/>
       <use xlink:href="#DejaVuSans-30" transform="translate(242.822266 0)"/>
      </g>
     </g>
    </g>
    <g id="ytick_4">
     <g id="line2d_23">
      <path d="M 90 170.63967 
L 648 170.63967 
" clip-path="url(#p5d93d90303)" style="fill: none; stroke: #b0b0b0; stroke-width: 0.8; stroke-linecap: square"/>
     </g>
     <g id="line2d_24">
      <g>
       <use xlink:href="#md13a5fa597" x="90" y="170.63967" style="stroke: #000000; stroke-width: 0.8"/>
      </g>
     </g>
     <g id="text_13">
      <!-- −0.25 -->
      <g transform="translate(52.354687 174.438889) scale(0.1 -0.1)">
       <use xlink:href="#DejaVuSans-2212"/>
       <use xlink:href="#DejaVuSans-30" transform="translate(83.789062 0)"/>
       <use xlink:href="#DejaVuSans-2e" transform="translate(147.412109 0)"/>
       <use xlink:href="#DejaVuSans-32" transform="translate(179.199219 0)"/>
       <use xlink:href="#DejaVuSans-35" transform="translate(242.822266 0)"/>
      </g>
     </g>
    </g>
    <g id="ytick_5">
     <g id="line2d_25">
      <path d="M 90 145.439561 
L 648 145.439561 
" clip-path="url(#p5d93d90303)" style="fill: none; stroke: #b0b0b0; stroke-width: 0.8; stroke-linecap: square"/>
     </g>
     <g id="line2d_26">
      <g>
       <use xlink:href="#md13a5fa597" x="90" y="145.439561" style="stroke: #000000; stroke-width: 0.8"/>
      </g>
     </g>
     <g id="text_14">
      <!-- 0.00 -->
      <g transform="translate(60.734375 149.238779) scale(0.1 -0.1)">
       <use xlink:href="#DejaVuSans-30"/>
       <use xlink:href="#DejaVuSans-2e" transform="translate(63.623047 0)"/>
       <use xlink:href="#DejaVuSans-30" transform="translate(95.410156 0)"/>
       <use xlink:href="#DejaVuSans-30" transform="translate(159.033203 0)"/>
      </g>
     </g>
    </g>
    <g id="ytick_6">
     <g id="line2d_27">
      <path d="M 90 120.239451 
L 648 120.239451 
" clip-path="url(#p5d93d90303)" style="fill: none; stroke: #b0b0b0; stroke-width: 0.8; stroke-linecap: square"/>
     </g>
     <g id="line2d_28">
      <g>
       <use xlink:href="#md13a5fa597" x="90" y="120.239451" style="stroke: #000000; stroke-width: 0.8"/>
      </g>
     </g>
     <g id="text_15">
      <!-- 0.25 -->
      <g transform="translate(60.734375 124.038669) scale(0.1 -0.1)">
       <use xlink:href="#DejaVuSans-30"/>
       <use xlink:href="#DejaVuSans-2e" transform="translate(63.623047 0)"/>
       <use xlink:href="#DejaVuSans-32" transform="translate(95.410156 0)"/>
       <use xlink:href="#DejaVuSans-35" transform="translate(159.033203 0)"/>
      </g>
     </g>
    </g>
    <g id="ytick_7">
     <g id="line2d_29">
      <path d="M 90 95.039341 
L 648 95.039341 
" clip-path="url(#p5d93d90303)" style="fill: none; stroke: #b0b0b0; stroke-width: 0.8; stroke-linecap: square"/>
     </g>
     <g id="line2d_30">
      <g>
       <use xlink:href="#md13a5fa597" x="90" y="95.039341" style="stroke: #000000; stroke-width: 0.8"/>
      </g>
     </g>
     <g id="text_16">
      <!-- 0.50 -->
      <g transform="translate(60.734375 98.83856) scale(0.1 -0.1)">
       <use xlink:href="#DejaVuSans-30"/>
       <use xlink:href="#DejaVuSans-2e" transform="translate(63.623047 0)"/>
       <use xlink:href="#DejaVuSans-35" transform="translate(95.410156 0)"/>
       <use xlink:href="#DejaVuSans-30" transform="translate(159.033203 0)"/>
      </g>
     </g>
    </g>
    <g id="ytick_8">
     <g id="line2d_31">
      <path d="M 90 69.839231 
L 648 69.839231 
" clip-path="url(#p5d93d90303)" style="fill: none; stroke: #b0b0b0; stroke-width: 0.8; stroke-linecap: square"/>
     </g>
     <g id="line2d_32">
      <g>
       <use xlink:href="#md13a5fa597" x="90" y="69.839231" style="stroke: #000000; stroke-width: 0.8"/>
      </g>
     </g>
     <g id="text_17">
      <!-- 0.75 -->
      <g transform="translate(60.734375 73.63845) scale(0.1 -0.1)">
       <use xlink:href="#DejaVuSans-30"/>
       <use xlink:href="#DejaVuSans-2e" transform="translate(63.623047 0)"/>
       <use xlink:href="#DejaVuSans-37" transform="translate(95.410156 0)"/>
       <use xlink:href="#DejaVuSans-35" transform="translate(159.033203 0)"/>
      </g>
     </g>
    </g>
    <g id="ytick_9">
     <g id="line2d_33">
      <path d="M 90 44.639121 
L 648 44.639121 
" clip-path="url(#p5d93d90303)" style="fill: none; stroke: #b0b0b0; stroke-width: 0.8; stroke-linecap: square"/>
     </g>
     <g id="line2d_34">
      <g>
       <use xlink:href="#md13a5fa597" x="90" y="44.639121" style="stroke: #000000; stroke-width: 0.8"/>
      </g>
     </g>
     <g id="text_18">
      <!-- 1.00 -->
      <g transform="translate(60.734375 48.43834) scale(0.1 -0.1)">
       <use xlink:href="#DejaVuSans-31"/>
       <use xlink:href="#DejaVuSans-2e" transform="translate(63.623047 0)"/>
       <use xlink:href="#DejaVuSans-30" transform="translate(95.410156 0)"/>
       <use xlink:href="#DejaVuSans-30" transform="translate(159.033203 0)"/>
      </g>
     </g>
    </g>
    <g id="text_19">
     <!-- $y$ -->
     <g transform="translate(46.254687 148.44) rotate(-90) scale(0.1 -0.1)">
      <defs>
       <path id="DejaVuSans-Oblique-79" d="M 1588 -325 
Q 1188 -997 936 -1164 
Q 684 -1331 294 -1331 
L -159 -1331 
L -63 -850 
L 269 -850 
Q 509 -850 678 -719 
Q 847 -588 1056 -206 
L 1234 128 
L 459 3500 
L 1069 3500 
L 1650 819 
L 3256 3500 
L 3859 3500 
L 1588 -325 
z
" transform="scale(0.015625)"/>
      </defs>
      <use xlink:href="#DejaVuSans-Oblique-79" transform="translate(0 0.3125)"/>
     </g>
    </g>
   </g>
   <g id="line2d_35">
    <path d="M 115.363636 145.439561 
L 116.85124 145.604176 
L 118.338843 146.097848 
L 119.826446 146.920024 
L 121.31405 148.069695 
L 122.801653 149.545271 
L 124.289256 151.3444 
L 125.77686 153.463748 
L 127.264463 155.898733 
L 129.247934 159.625509 
L 131.231405 163.882401 
L 133.214876 168.642049 
L 135.694215 175.242174 
L 138.173554 182.47545 
L 141.14876 191.812925 
L 147.099174 211.484066 
L 150.570248 222.565223 
L 153.049587 229.775732 
L 155.033058 234.885857 
L 156.520661 238.228082 
L 158.008264 241.074272 
L 159.495868 243.35807 
L 160.487603 244.536738 
L 161.479339 245.419522 
L 162.471074 245.989775 
L 163.46281 246.232105 
L 164.454545 246.132558 
L 165.446281 245.678799 
L 166.438017 244.860283 
L 167.429752 243.668422 
L 168.421488 242.096733 
L 169.413223 240.14098 
L 170.404959 237.799287 
L 171.892562 233.565101 
L 173.380165 228.477269 
L 174.867769 222.561822 
L 176.355372 215.858119 
L 178.338843 205.786206 
L 180.322314 194.566545 
L 182.801653 179.227685 
L 186.272727 156.114893 
L 193.214876 109.385354 
L 195.694215 94.233125 
L 197.677686 83.205107 
L 199.661157 73.355969 
L 201.14876 66.83567 
L 202.636364 61.114202 
L 204.123967 56.227757 
L 205.61157 52.199195 
L 206.603306 49.9954 
L 207.595041 48.177152 
L 208.586777 46.741722 
L 209.578512 45.684055 
L 210.570248 44.9969 
L 211.561983 44.670953 
L 212.553719 44.695009 
L 213.545455 45.056134 
L 214.53719 45.739841 
L 215.528926 46.730268 
L 216.520661 48.010368 
L 218.008264 50.433947 
L 219.495868 53.404345 
L 220.983471 56.854675 
L 222.966942 62.083542 
L 225.446281 69.402118 
L 228.917355 80.563359 
L 236.85124 106.455802 
L 239.826446 115.239635 
L 242.305785 121.87876 
L 244.289256 126.673042 
L 246.272727 130.966851 
L 248.256198 134.732232 
L 250.239669 137.948804 
L 251.727273 139.992273 
L 253.214876 141.714628 
L 254.702479 143.112789 
L 256.190083 144.184605 
L 257.677686 144.928637 
L 259.165289 145.343998 
L 260.652893 145.430228 
L 262.140496 145.187236 
L 263.628099 144.615284 
L 265.115702 143.715022 
L 266.603306 142.487585 
L 268.090909 140.934727 
L 269.578512 139.05901 
L 271.066116 136.864042 
L 273.049587 133.44954 
L 275.033058 129.492735 
L 277.016529 125.016535 
L 279 120.05198 
L 281.479339 113.222663 
L 284.454545 104.254897 
L 288.421488 91.39732 
L 294.867769 70.281285 
L 297.347107 62.880781 
L 299.330579 57.560649 
L 301.31405 52.949038 
L 302.801653 50.05271 
L 304.289256 47.712566 
L 305.280992 46.493051 
L 306.272727 45.566952 
L 307.264463 44.951078 
L 308.256198 44.661012 
L 309.247934 44.710925 
L 310.239669 45.113393 
L 311.231405 45.879228 
L 312.22314 47.017306 
L 313.214876 48.534421 
L 314.206612 50.435137 
L 315.198347 52.721673 
L 316.68595 56.873687 
L 318.173554 61.88113 
L 319.661157 67.719244 
L 321.14876 74.349933 
L 323.132231 84.333332 
L 325.115702 95.477072 
L 327.595041 110.742366 
L 331.066116 133.798318 
L 338.008264 180.589983 
L 340.487603 195.817949 
L 342.471074 206.923358 
L 344.454545 216.862201 
L 346.438017 225.479736 
L 347.92562 231.005173 
L 349.413223 235.688935 
L 350.900826 239.511327 
L 351.892562 241.577264 
L 352.884298 243.258354 
L 353.876033 244.558172 
L 354.867769 245.482571 
L 355.859504 246.039553 
L 356.85124 246.23912 
L 357.842975 246.093112 
L 358.834711 245.61504 
L 359.826446 244.819904 
L 360.818182 243.72401 
L 361.809917 242.344784 
L 363.297521 239.785066 
L 364.785124 236.694257 
L 366.272727 233.1397 
L 368.256198 227.79727 
L 370.735537 220.376909 
L 374.206612 209.143634 
L 381.14876 186.402496 
L 384.123967 177.452525 
L 386.603306 170.641854 
L 389.082645 164.532314 
L 391.066116 160.201731 
L 393.049587 156.397848 
L 395.033058 153.141537 
L 396.520661 151.067686 
L 398.008264 149.3146 
L 399.495868 147.885458 
L 400.983471 146.78249 
L 402.471074 146.007194 
L 403.958678 145.560506 
L 405.446281 145.44292 
L 406.933884 145.654563 
L 408.421488 146.195208 
L 409.909091 147.064242 
L 411.396694 148.260584 
L 412.884298 149.782546 
L 414.371901 151.627651 
L 415.859504 153.792403 
L 417.842975 157.167477 
L 419.826446 161.086219 
L 421.809917 165.526243 
L 423.793388 170.457142 
L 426.272727 177.249081 
L 429.247934 186.181122 
L 432.719008 197.371657 
L 440.157025 221.695625 
L 442.636364 228.993092 
L 444.619835 234.198625 
L 446.107438 237.627643 
L 447.595041 240.573503 
L 449.082645 242.969416 
L 450.07438 244.229412 
L 451.066116 245.198483 
L 452.057851 245.859659 
L 453.049587 246.197172 
L 454.041322 246.196637 
L 455.033058 245.845239 
L 456.024793 245.131904 
L 457.016529 244.047469 
L 458.008264 242.584835 
L 459 240.739111 
L 459.991736 238.507736 
L 461.479339 234.437999 
L 462.966942 229.511168 
L 464.454545 223.750734 
L 465.942149 217.193525 
L 467.92562 207.299436 
L 469.909091 196.232601 
L 472.38843 181.042324 
L 475.859504 158.045521 
L 483.297521 108.036522 
L 485.77686 93.000574 
L 487.760331 82.09045 
L 489.743802 72.377321 
L 491.231405 65.968421 
L 492.719008 60.364337 
L 494.206612 55.599358 
L 495.694215 51.694443 
L 496.68595 49.573375 
L 497.677686 47.837471 
L 498.669421 46.483492 
L 499.661157 45.505904 
L 500.652893 44.897001 
L 501.644628 44.647058 
L 502.636364 44.744488 
L 503.628099 45.176008 
L 504.619835 45.926819 
L 505.61157 46.980791 
L 506.603306 48.320645 
L 508.090909 50.826347 
L 509.578512 53.86945 
L 511.066116 57.382782 
L 513.049587 62.680407 
L 515.528926 70.060806 
L 519 81.266225 
L 526.438017 105.579881 
L 529.413223 114.438864 
L 531.892562 121.155044 
L 534.371901 127.157596 
L 536.355372 131.395978 
L 538.338843 135.103413 
L 540.322314 138.260241 
L 541.809917 140.258067 
L 543.297521 141.934273 
L 544.785124 143.285926 
L 546.272727 144.310989 
L 547.760331 145.008112 
L 549.247934 145.376473 
L 550.735537 145.415669 
L 552.22314 145.125658 
L 553.710744 144.506755 
L 555.198347 143.559672 
L 556.68595 142.285622 
L 558.173554 140.686462 
L 559.661157 138.76489 
L 561.14876 136.524682 
L 563.132231 133.051191 
L 565.115702 129.037511 
L 567.099174 124.507345 
L 569.578512 118.168004 
L 572.057851 111.157011 
L 575.033058 102.018954 
L 579.495868 87.391474 
L 584.454545 71.167607 
L 586.933884 63.689171 
L 588.917355 58.281083 
L 590.900826 53.558301 
L 592.38843 50.563516 
L 593.876033 48.112416 
L 594.867769 46.812306 
L 595.859504 45.80061 
L 596.85124 45.094453 
L 597.842975 44.709788 
L 598.834711 44.661207 
L 599.826446 44.961762 
L 600.818182 45.622784 
L 601.809917 46.65372 
L 602.801653 48.061973 
L 603.793388 49.852757 
L 604.785124 52.028974 
L 606.272727 56.016341 
L 607.760331 60.862347 
L 609.247934 66.544767 
L 610.735537 73.028043 
L 612.719008 82.832037 
L 614.702479 93.820996 
L 617.181818 108.93482 
L 620.157025 128.509744 
L 622.636364 145.439561 
L 622.636364 145.439561 
" clip-path="url(#p5d93d90303)" style="fill: none; stroke: #1f77b4; stroke-linecap: square"/>
   </g>
   <g id="patch_3">
    <path d="M 90 256.32 
L 90 34.56 
" style="fill: none; stroke: #000000; stroke-width: 0.8; stroke-linejoin: miter; stroke-linecap: square"/>
   </g>
   <g id="patch_4">
    <path d="M 648 256.32 
L 648 34.56 
" style="fill: none; stroke: #000000; stroke-width: 0.8; stroke-linejoin: miter; stroke-linecap: square"/>
   </g>
   <g id="patch_5">
    <path d="M 90 256.32 
L 648 256.32 
" style="fill: none; stroke: #000000; stroke-width: 0.8; stroke-linejoin: miter; stroke-linecap: square"/>
   </g>
   <g id="patch_6">
    <path d="M 90 34.56 
L 648 34.56 
" style="fill: none; stroke: #000000; stroke-width: 0.8; stroke-linejoin: miter; stroke-linecap: square"/>
   </g>
  </g>
  <g id="text_20">
   <!-- Function $x  \mapsto \sin(\pi \sin(\pi x))$ -->
   <g transform="translate(283.98 14.878125) scale(0.12 -0.12)">
    <defs>
     <path id="DejaVuSans-46" d="M 628 4666 
L 3309 4666 
L 3309 4134 
L 1259 4134 
L 1259 2759 
L 3109 2759 
L 3109 2228 
L 1259 2228 
L 1259 0 
L 628 0 
L 628 4666 
z
" transform="scale(0.015625)"/>
     <path id="DejaVuSans-75" d="M 544 1381 
L 544 3500 
L 1119 3500 
L 1119 1403 
Q 1119 906 1312 657 
Q 1506 409 1894 409 
Q 2359 409 2629 706 
Q 2900 1003 2900 1516 
L 2900 3500 
L 3475 3500 
L 3475 0 
L 2900 0 
L 2900 538 
Q 2691 219 2414 64 
Q 2138 -91 1772 -91 
Q 1169 -91 856 284 
Q 544 659 544 1381 
z
M 1991 3584 
L 1991 3584 
z
" transform="scale(0.015625)"/>
     <path id="DejaVuSans-6e" d="M 3513 2113 
L 3513 0 
L 2938 0 
L 2938 2094 
Q 2938 2591 2744 2837 
Q 2550 3084 2163 3084 
Q 1697 3084 1428 2787 
Q 1159 2491 1159 1978 
L 1159 0 
L 581 0 
L 581 3500 
L 1159 3500 
L 1159 2956 
Q 1366 3272 1645 3428 
Q 1925 3584 2291 3584 
Q 2894 3584 3203 3211 
Q 3513 2838 3513 2113 
z
" transform="scale(0.015625)"/>
     <path id="DejaVuSans-63" d="M 3122 3366 
L 3122 2828 
Q 2878 2963 2633 3030 
Q 2388 3097 2138 3097 
Q 1578 3097 1268 2742 
Q 959 2388 959 1747 
Q 959 1106 1268 751 
Q 1578 397 2138 397 
Q 2388 397 2633 464 
Q 2878 531 3122 666 
L 3122 134 
Q 2881 22 2623 -34 
Q 2366 -91 2075 -91 
Q 1284 -91 818 406 
Q 353 903 353 1747 
Q 353 2603 823 3093 
Q 1294 3584 2113 3584 
Q 2378 3584 2631 3529 
Q 2884 3475 3122 3366 
z
" transform="scale(0.015625)"/>
     <path id="DejaVuSans-74" d="M 1172 4494 
L 1172 3500 
L 2356 3500 
L 2356 3053 
L 1172 3053 
L 1172 1153 
Q 1172 725 1289 603 
Q 1406 481 1766 481 
L 2356 481 
L 2356 0 
L 1766 0 
Q 1100 0 847 248 
Q 594 497 594 1153 
L 594 3053 
L 172 3053 
L 172 3500 
L 594 3500 
L 594 4494 
L 1172 4494 
z
" transform="scale(0.015625)"/>
     <path id="DejaVuSans-69" d="M 603 3500 
L 1178 3500 
L 1178 0 
L 603 0 
L 603 3500 
z
M 603 4863 
L 1178 4863 
L 1178 4134 
L 603 4134 
L 603 4863 
z
" transform="scale(0.015625)"/>
     <path id="DejaVuSans-6f" d="M 1959 3097 
Q 1497 3097 1228 2736 
Q 959 2375 959 1747 
Q 959 1119 1226 758 
Q 1494 397 1959 397 
Q 2419 397 2687 759 
Q 2956 1122 2956 1747 
Q 2956 2369 2687 2733 
Q 2419 3097 1959 3097 
z
M 1959 3584 
Q 2709 3584 3137 3096 
Q 3566 2609 3566 1747 
Q 3566 888 3137 398 
Q 2709 -91 1959 -91 
Q 1206 -91 779 398 
Q 353 888 353 1747 
Q 353 2609 779 3096 
Q 1206 3584 1959 3584 
z
" transform="scale(0.015625)"/>
     <path id="DejaVuSans-20" transform="scale(0.015625)"/>
     <path id="DejaVuSans-21a6" d="M 4175 1741 
L 897 1741 
L 897 663 
L 366 663 
L 366 3350 
L 897 3350 
L 897 2272 
L 4175 2272 
L 3447 3000 
L 3822 3375 
L 5050 2147 
L 5050 1866 
L 3822 638 
L 3447 1013 
L 4175 1741 
z
" transform="scale(0.015625)"/>
     <path id="DejaVuSans-73" d="M 2834 3397 
L 2834 2853 
Q 2591 2978 2328 3040 
Q 2066 3103 1784 3103 
Q 1356 3103 1142 2972 
Q 928 2841 928 2578 
Q 928 2378 1081 2264 
Q 1234 2150 1697 2047 
L 1894 2003 
Q 2506 1872 2764 1633 
Q 3022 1394 3022 966 
Q 3022 478 2636 193 
Q 2250 -91 1575 -91 
Q 1294 -91 989 -36 
Q 684 19 347 128 
L 347 722 
Q 666 556 975 473 
Q 1284 391 1588 391 
Q 1994 391 2212 530 
Q 2431 669 2431 922 
Q 2431 1156 2273 1281 
Q 2116 1406 1581 1522 
L 1381 1569 
Q 847 1681 609 1914 
Q 372 2147 372 2553 
Q 372 3047 722 3315 
Q 1072 3584 1716 3584 
Q 2034 3584 2315 3537 
Q 2597 3491 2834 3397 
z
" transform="scale(0.015625)"/>
     <path id="DejaVuSans-28" d="M 1984 4856 
Q 1566 4138 1362 3434 
Q 1159 2731 1159 2009 
Q 1159 1288 1364 580 
Q 1569 -128 1984 -844 
L 1484 -844 
Q 1016 -109 783 600 
Q 550 1309 550 2009 
Q 550 2706 781 3412 
Q 1013 4119 1484 4856 
L 1984 4856 
z
" transform="scale(0.015625)"/>
     <path id="DejaVuSans-Oblique-3c0" d="M 584 3500 
L 3938 3500 
L 3825 2925 
L 3384 2925 
L 2966 775 
Q 2922 550 2981 450 
Q 3038 353 3209 353 
Q 3256 353 3325 363 
Q 3397 369 3419 372 
L 3338 -44 
Q 3222 -84 3103 -103 
Q 2981 -122 2866 -122 
Q 2491 -122 2388 81 
Q 2284 288 2391 838 
L 2797 2925 
L 1506 2925 
L 938 0 
L 350 0 
L 919 2925 
L 472 2925 
L 584 3500 
z
" transform="scale(0.015625)"/>
     <path id="DejaVuSans-29" d="M 513 4856 
L 1013 4856 
Q 1481 4119 1714 3412 
Q 1947 2706 1947 2009 
Q 1947 1309 1714 600 
Q 1481 -109 1013 -844 
L 513 -844 
Q 928 -128 1133 580 
Q 1338 1288 1338 2009 
Q 1338 2731 1133 3434 
Q 928 4138 513 4856 
z
" transform="scale(0.015625)"/>
    </defs>
    <use xlink:href="#DejaVuSans-46" transform="translate(0 0.015625)"/>
    <use xlink:href="#DejaVuSans-75" transform="translate(57.519531 0.015625)"/>
    <use xlink:href="#DejaVuSans-6e" transform="translate(120.898438 0.015625)"/>
    <use xlink:href="#DejaVuSans-63" transform="translate(184.277344 0.015625)"/>
    <use xlink:href="#DejaVuSans-74" transform="translate(239.257812 0.015625)"/>
    <use xlink:href="#DejaVuSans-69" transform="translate(278.466797 0.015625)"/>
    <use xlink:href="#DejaVuSans-6f" transform="translate(306.25 0.015625)"/>
    <use xlink:href="#DejaVuSans-6e" transform="translate(367.431641 0.015625)"/>
    <use xlink:href="#DejaVuSans-20" transform="translate(430.810547 0.015625)"/>
    <use xlink:href="#DejaVuSans-Oblique-78" transform="translate(462.597656 0.015625)"/>
    <use xlink:href="#DejaVuSans-21a6" transform="translate(541.259766 0.015625)"/>
    <use xlink:href="#DejaVuSans-73" transform="translate(644.53125 0.015625)"/>
    <use xlink:href="#DejaVuSans-69" transform="translate(696.630859 0.015625)"/>
    <use xlink:href="#DejaVuSans-6e" transform="translate(724.414062 0.015625)"/>
    <use xlink:href="#DejaVuSans-28" transform="translate(787.792969 0.015625)"/>
    <use xlink:href="#DejaVuSans-Oblique-3c0" transform="translate(826.806641 0.015625)"/>
    <use xlink:href="#DejaVuSans-73" transform="translate(887.011719 0.015625)"/>
    <use xlink:href="#DejaVuSans-69" transform="translate(939.111328 0.015625)"/>
    <use xlink:href="#DejaVuSans-6e" transform="translate(966.894531 0.015625)"/>
    <use xlink:href="#DejaVuSans-28" transform="translate(1030.273438 0.015625)"/>
    <use xlink:href="#DejaVuSans-Oblique-3c0" transform="translate(1069.287109 0.015625)"/>
    <use xlink:href="#DejaVuSans-Oblique-78" transform="translate(1129.492188 0.015625)"/>
    <use xlink:href="#DejaVuSans-29" transform="translate(1188.671875 0.015625)"/>
    <use xlink:href="#DejaVuSans-29" transform="translate(1227.685547 0.015625)"/>
   </g>
  </g>
 </g>
 <defs>
  <clipPath id="p5d93d90303">
   <rect x="90" y="34.56" width="558" height="221.76"/>
  </clipPath>
 </defs>
</svg>
