<?xml version="1.0" encoding="utf-8" standalone="no"?>
<!DOCTYPE svg PUBLIC "-//W3C//DTD SVG 1.1//EN"
  "http://www.w3.org/Graphics/SVG/1.1/DTD/svg11.dtd">
<svg xmlns:xlink="http://www.w3.org/1999/xlink" width="324pt" height="324pt" viewBox="0 0 324 324" xmlns="http://www.w3.org/2000/svg" version="1.1">
 <metadata>
  <rdf:RDF xmlns:dc="http://purl.org/dc/elements/1.1/" xmlns:cc="http://creativecommons.org/ns#" xmlns:rdf="http://www.w3.org/1999/02/22-rdf-syntax-ns#">
   <cc:Work>
    <dc:type rdf:resource="http://purl.org/dc/dcmitype/StillImage"/>
    <dc:date>2022-01-01T00:00:00+00:00</dc:date>
    <dc:format>image/svg+xml</dc:format>
    <dc:creator>
     <cc:Agent>
      <dc:title>Matplotlib v3.10.8, https://matplotlib.org/</dc:title>
     </cc:Agent>
    </dc:creator>
   </cc:Work>
  </rdf:RDF>
 </metadata>
 <defs>
  <style type="text/css">*{stroke-linejoin: round; stroke-linecap: butt}</style>
 </defs>
 <g id="figure_1">
  <g id="patch_1">
   <path d="M 0 324 
L 324 324 
L 324 0 
L 0 0 
z
" style="fill: #ffffff"/>
  </g>
  <g id="axes_1">
   <g id="patch_2">
    <path d="M 40.5 288.36 
L 291.6 288.36 
L 291.6 38.88 
L 40.5 38.88 
z
" style="fill: #ffffff"/>
   </g>
   <g id="matplotlib.axis_1">
    <g id="xtick_1">
     <g id="line2d_1">
      <path d="M 50.130256 288.36 
L 50.130256 38.88 
" clip-path="url(#pc12057886b)" style="fill: none; stroke: #b0b0b0; stroke-width: 0.8; stroke-linecap: square"/>
     </g>
     <g id="line2d_2">
      <defs>
       <path id="m3917dc7fa5" d="M 0 0 
L 0 3.5 
" style="stroke: #000000; stroke-width: 0.8"/>
      </defs>
      <g>
       <use xlink:href="#m3917dc7fa5" x="50.130256" y="288.36" style="stroke: #000000; stroke-width: 0.8"/>
      </g>
     </g>
     <g id="text_1">
      <!-- 0.0 -->
      <g transform="translate(42.178693 302.958438) scale(0.1 -0.1)">
       <defs>
        <path id="DejaVuSans-30" d="M 2034 4250 
Q 1547 4250 1301 3770 
Q 1056 3291 1056 2328 
Q 1056 1369 1301 889 
Q 1547 409 2034 409 
Q 2525 409 2770 889 
Q 3016 1369 3016 2328 
Q 3016 3291 2770 3770 
Q 2525 4250 2034 4250 
z
M 2034 4750 
Q 2819 4750 3233 4129 
Q 3647 3509 3647 2328 
Q 3647 1150 3233 529 
Q 2819 -91 2034 -91 
Q 1250 -91 836 529 
Q 422 1150 422 2328 
Q 422 3509 836 4129 
Q 1250 4750 2034 4750 
z
" transform="scale(0.015625)"/>
        <path id="DejaVuSans-2e" d="M 684 794 
L 1344 794 
L 1344 0 
L 684 0 
L 684 794 
z
" transform="scale(0.015625)"/>
       </defs>
       <use xlink:href="#DejaVuSans-30"/>
       <use xlink:href="#DejaVuSans-2e" transform="translate(63.623047 0)"/>
       <use xlink:href="#DejaVuSans-30" transform="translate(95.410156 0)"/>
      </g>
     </g>
    </g>
    <g id="xtick_2">
     <g id="line2d_3">
      <path d="M 96.498153 288.36 
L 96.498153 38.88 
" clip-path="url(#pc12057886b)" style="fill: none; stroke: #b0b0b0; stroke-width: 0.8; stroke-linecap: square"/>
     </g>
     <g id="line2d_4">
      <g>
       <use xlink:href="#m3917dc7fa5" x="96.498153" y="288.36" style="stroke: #000000; stroke-width: 0.8"/>
      </g>
     </g>
     <g id="text_2">
      <!-- 0.2 -->
      <g transform="translate(88.546591 302.958438) scale(0.1 -0.1)">
       <defs>
        <path id="DejaVuSans-32" d="M 1228 531 
L 3431 531 
L 3431 0 
L 469 0 
L 469 531 
Q 828 903 1448 1529 
Q 2069 2156 2228 2338 
Q 2531 2678 2651 2914 
Q 2772 3150 2772 3378 
Q 2772 3750 2511 3984 
Q 2250 4219 1831 4219 
Q 1534 4219 1204 4116 
Q 875 4013 500 3803 
L 500 4441 
Q 881 4594 1212 4672 
Q 1544 4750 1819 4750 
Q 2544 4750 2975 4387 
Q 3406 4025 3406 3419 
Q 3406 3131 3298 2873 
Q 3191 2616 2906 2266 
Q 2828 2175 2409 1742 
Q 1991 1309 1228 531 
z
" transform="scale(0.015625)"/>
       </defs>
       <use xlink:href="#DejaVuSans-30"/>
       <use xlink:href="#DejaVuSans-2e" transform="translate(63.623047 0)"/>
       <use xlink:href="#DejaVuSans-32" transform="translate(95.410156 0)"/>
      </g>
     </g>
    </g>
    <g id="xtick_3">
     <g id="line2d_5">
      <path d="M 142.866051 288.36 
L 142.866051 38.88 
" clip-path="url(#pc12057886b)" style="fill: none; stroke: #b0b0b0; stroke-width: 0.8; stroke-linecap: square"/>
     </g>
     <g id="line2d_6">
      <g>
       <use xlink:href="#m3917dc7fa5" x="142.866051" y="288.36" style="stroke: #000000; stroke-width: 0.8"/>
      </g>
     </g>
     <g id="text_3">
      <!-- 0.4 -->
      <g transform="translate(134.914489 302.958438) scale(0.1 -0.1)">
       <defs>
        <path id="DejaVuSans-34" d="M 2419 4116 
L 825 1625 
L 2419 1625 
L 2419 4116 
z
M 2253 4666 
L 3047 4666 
L 3047 1625 
L 3713 1625 
L 3713 1100 
L 3047 1100 
L 3047 0 
L 2419 0 
L 2419 1100 
L 313 1100 
L 313 1709 
L 2253 4666 
z
" transform="scale(0.015625)"/>
       </defs>
       <use xlink:href="#DejaVuSans-30"/>
       <use xlink:href="#DejaVuSans-2e" transform="translate(63.623047 0)"/>
       <use xlink:href="#DejaVuSans-34" transform="translate(95.410156 0)"/>
      </g>
     </g>
    </g>
    <g id="xtick_4">
     <g id="line2d_7">
      <path d="M 189.233949 288.36 
L 189.233949 38.88 
" clip-path="url(#pc12057886b)" style="fill: none; stroke: #b0b0b0; stroke-width: 0.8; stroke-linecap: square"/>
     </g>
     <g id="line2d_8">
      <g>
       <use xlink:href="#m3917dc7fa5" x="189.233949" y="288.36" style="stroke: #000000; stroke-width: 0.8"/>
      </g>
     </g>
     <g id="text_4">
      <!-- 0.6 -->
      <g transform="translate(181.282386 302.958438) scale(0.1 -0.1)">
       <defs>
        <path id="DejaVuSans-36" d="M 2113 2584 
Q 1688 2584 1439 2293 
Q 1191 2003 1191 1497 
Q 1191 994 1439 701 
Q 1688 409 2113 409 
Q 2538 409 2786 701 
Q 3034 994 3034 1497 
Q 3034 2003 2786 2293 
Q 2538 2584 2113 2584 
z
M 3366 4563 
L 3366 3988 
Q 3128 4100 2886 4159 
Q 2644 4219 2406 4219 
Q 1781 4219 1451 3797 
Q 1122 3375 1075 2522 
Q 1259 2794 1537 2939 
Q 1816 3084 2150 3084 
Q 2853 3084 3261 2657 
Q 3669 2231 3669 1497 
Q 3669 778 3244 343 
Q 2819 -91 2113 -91 
Q 1303 -91 875 529 
Q 447 1150 447 2328 
Q 447 3434 972 4092 
Q 1497 4750 2381 4750 
Q 2619 4750 2861 4703 
Q 3103 4656 3366 4563 
z
" transform="scale(0.015625)"/>
       </defs>
       <use xlink:href="#DejaVuSans-30"/>
       <use xlink:href="#DejaVuSans-2e" transform="translate(63.623047 0)"/>
       <use xlink:href="#DejaVuSans-36" transform="translate(95.410156 0)"/>
      </g>
     </g>
    </g>
    <g id="xtick_5">
     <g id="line2d_9">
      <path d="M 235.601847 288.36 
L 235.601847 38.88 
" clip-path="url(#pc12057886b)" style="fill: none; stroke: #b0b0b0; stroke-width: 0.8; stroke-linecap: square"/>
     </g>
     <g id="line2d_10">
      <g>
       <use xlink:href="#m3917dc7fa5" x="235.601847" y="288.36" style="stroke: #000000; stroke-width: 0.8"/>
      </g>
     </g>
     <g id="text_5">
      <!-- 0.8 -->
      <g transform="translate(227.650284 302.958438) scale(0.1 -0.1)">
       <defs>
        <path id="DejaVuSans-38" d="M 2034 2216 
Q 1584 2216 1326 1975 
Q 1069 1734 1069 1313 
Q 1069 891 1326 650 
Q 1584 409 2034 409 
Q 2484 409 2743 651 
Q 3003 894 3003 1313 
Q 3003 1734 2745 1975 
Q 2488 2216 2034 2216 
z
M 1403 2484 
Q 997 2584 770 2862 
Q 544 3141 544 3541 
Q 544 4100 942 4425 
Q 1341 4750 2034 4750 
Q 2731 4750 3128 4425 
Q 3525 4100 3525 3541 
Q 3525 3141 3298 2862 
Q 3072 2584 2669 2484 
Q 3125 2378 3379 2068 
Q 3634 1759 3634 1313 
Q 3634 634 3220 271 
Q 2806 -91 2034 -91 
Q 1263 -91 848 271 
Q 434 634 434 1313 
Q 434 1759 690 2068 
Q 947 2378 1403 2484 
z
M 1172 3481 
Q 1172 3119 1398 2916 
Q 1625 2713 2034 2713 
Q 2441 2713 2670 2916 
Q 2900 3119 2900 3481 
Q 2900 3844 2670 4047 
Q 2441 4250 2034 4250 
Q 1625 4250 1398 4047 
Q 1172 3844 1172 3481 
z
" transform="scale(0.015625)"/>
       </defs>
       <use xlink:href="#DejaVuSans-30"/>
       <use xlink:href="#DejaVuSans-2e" transform="translate(63.623047 0)"/>
       <use xlink:href="#DejaVuSans-38" transform="translate(95.410156 0)"/>
      </g>
     </g>
    </g>
    <g id="xtick_6">
     <g id="line2d_11">
      <path d="M 281.969744 288.36 
L 281.969744 38.88 
" clip-path="url(#pc12057886b)" style="fill: none; stroke: #b0b0b0; stroke-width: 0.8; stroke-linecap: square"/>
     </g>
     <g id="line2d_12">
      <g>
       <use xlink:href="#m3917dc7fa5" x="281.969744" y="288.36" style="stroke: #000000; stroke-width: 0.8"/>
      </g>
     </g>
     <g id="text_6">
      <!-- 1.0 -->
      <g transform="translate(274.018182 302.958438) scale(0.1 -0.1)">
       <defs>
        <path id="DejaVuSans-31" d="M 794 531 
L 1825 531 
L 1825 4091 
L 703 3866 
L 703 4441 
L 1819 4666 
L 2450 4666 
L 2450 531 
L 3481 531 
L 3481 0 
L 794 0 
L 794 531 
z
" transform="scale(0.015625)"/>
       </defs>
       <use xlink:href="#DejaVuSans-31"/>
       <use xlink:href="#DejaVuSans-2e" transform="translate(63.623047 0)"/>
       <use xlink:href="#DejaVuSans-30" transform="translate(95.410156 0)"/>
      </g>
     </g>
    </g>
    <g id="text_7">
     <!-- u -->
     <g transform="translate(162.88125 316.636563) scale(0.1 -0.1)">
      <defs>
       <path id="DejaVuSans-75" d="M 544 1381 
L 544 3500 
L 1119 3500 
L 1119 1403 
Q 1119 906 1312 657 
Q 1506 409 1894 409 
Q 2359 409 2629 706 
Q 2900 1003 2900 1516 
L 2900 3500 
L 3475 3500 
L 3475 0 
L 2900 0 
L 2900 538 
Q 2691 219 2414 64 
Q 2138 -91 1772 -91 
Q 1169 -91 856 284 
Q 544 659 544 1381 
z
M 1991 3584 
L 1991 3584 
z
" transform="scale(0.015625)"/>
      </defs>
      <use xlink:href="#DejaVuSans-75"/>
     </g>
    </g>
   </g>
   <g id="matplotlib.axis_2">
    <g id="ytick_1">
     <g id="line2d_13">
      <path d="M 40.5 266.11977 
L 291.6 266.11977 
" clip-path="url(#pc12057886b)" style="fill: none; stroke: #b0b0b0; stroke-width: 0.8; stroke-linecap: square"/>
     </g>
     <g id="line2d_14">
      <defs>
       <path id="mbaa2dfcf20" d="M 0 0 
L -3.5 0 
" style="stroke: #000000; stroke-width: 0.8"/>
      </defs>
      <g>
       <use xlink:href="#mbaa2dfcf20" x="40.5" y="266.11977" style="stroke: #000000; stroke-width: 0.8"/>
      </g>
     </g>
     <g id="text_8">
      <!-- −0.75 -->
      <g transform="translate(2.854687 269.918988) scale(0.1 -0.1)">
       <defs>
        <path id="DejaVuSans-2212" d="M 678 2272 
L 4684 2272 
L 4684 1741 
L 678 1741 
L 678 2272 
z
" transform="scale(0.015625)"/>
        <path id="DejaVuSans-37" d="M 525 4666 
L 3525 4666 
L 3525 4397 
L 1831 0 
L 1172 0 
L 2766 4134 
L 525 4134 
L 525 4666 
z
" transform="scale(0.015625)"/>
        <path id="DejaVuSans-35" d="M 691 4666 
L 3169 4666 
L 3169 4134 
L 1269 4134 
L 1269 2991 
Q 1406 3038 1543 3061 
Q 1681 3084 1819 3084 
Q 2600 3084 3056 2656 
Q 3513 2228 3513 1497 
Q 3513 744 3044 326 
Q 2575 -91 1722 -91 
Q 1428 -91 1123 -41 
Q 819 9 494 109 
L 494 744 
Q 775 591 1075 516 
Q 1375 441 1709 441 
Q 2250 441 2565 725 
Q 2881 1009 2881 1497 
Q 2881 1984 2565 2268 
Q 2250 2553 1709 2553 
Q 1456 2553 1204 2497 
Q 953 2441 691 2322 
L 691 4666 
z
" transform="scale(0.015625)"/>
       </defs>
       <use xlink:href="#DejaVuSans-2212"/>
       <use xlink:href="#DejaVuSans-30" transform="translate(83.789062 0)"/>
       <use xlink:href="#DejaVuSans-2e" transform="translate(147.412109 0)"/>
       <use xlink:href="#DejaVuSans-37" transform="translate(179.199219 0)"/>
       <use xlink:href="#DejaVuSans-35" transform="translate(242.822266 0)"/>
      </g>
     </g>
    </g>
    <g id="ytick_2">
     <g id="line2d_15">
      <path d="M 40.5 235.276945 
L 291.6 235.276945 
" clip-path="url(#pc12057886b)" style="fill: none; stroke: #b0b0b0; stroke-width: 0.8; stroke-linecap: square"/>
     </g>
     <g id="line2d_16">
      <g>
       <use xlink:href="#mbaa2dfcf20" x="40.5" y="235.276945" style="stroke: #000000; stroke-width: 0.8"/>
      </g>
     </g>
     <g id="text_9">
      <!-- −0.50 -->
      <g transform="translate(2.854687 239.076164) scale(0.1 -0.1)">
       <use xlink:href="#DejaVuSans-2212"/>
       <use xlink:href="#DejaVuSans-30" transform="translate(83.789062 0)"/>
       <use xlink:href="#DejaVuSans-2e" transform="translate(147.412109 0)"/>
       <use xlink:href="#DejaVuSans-35" transform="translate(179.199219 0)"/>
       <use xlink:href="#DejaVuSans-30" transform="translate(242.822266 0)"/>
      </g>
     </g>
    </g>
    <g id="ytick_3">
     <g id="line2d_17">
      <path d="M 40.5 204.434121 
L 291.6 204.434121 
" clip-path="url(#pc12057886b)" style="fill: none; stroke: #b0b0b0; stroke-width: 0.8; stroke-linecap: square"/>
     </g>
     <g id="line2d_18">
      <g>
       <use xlink:href="#mbaa2dfcf20" x="40.5" y="204.434121" style="stroke: #000000; stroke-width: 0.8"/>
      </g>
     </g>
     <g id="text_10">
      <!-- −0.25 -->
      <g transform="translate(2.854687 208.23334) scale(0.1 -0.1)">
       <use xlink:href="#DejaVuSans-2212"/>
       <use xlink:href="#DejaVuSans-30" transform="translate(83.789062 0)"/>
       <use xlink:href="#DejaVuSans-2e" transform="translate(147.412109 0)"/>
       <use xlink:href="#DejaVuSans-32" transform="translate(179.199219 0)"/>
       <use xlink:href="#DejaVuSans-35" transform="translate(242.822266 0)"/>
      </g>
     </g>
    </g>
    <g id="ytick_4">
     <g id="line2d_19">
      <path d="M 40.5 173.591297 
L 291.6 173.591297 
" clip-path="url(#pc12057886b)" style="fill: none; stroke: #b0b0b0; stroke-width: 0.8; stroke-linecap: square"/>
     </g>
     <g id="line2d_20">
      <g>
       <use xlink:href="#mbaa2dfcf20" x="40.5" y="173.591297" style="stroke: #000000; stroke-width: 0.8"/>
      </g>
     </g>
     <g id="text_11">
      <!-- 0.00 -->
      <g transform="translate(11.234375 177.390516) scale(0.1 -0.1)">
       <use xlink:href="#DejaVuSans-30"/>
       <use xlink:href="#DejaVuSans-2e" transform="translate(63.623047 0)"/>
       <use xlink:href="#DejaVuSans-30" transform="translate(95.410156 0)"/>
       <use xlink:href="#DejaVuSans-30" transform="translate(159.033203 0)"/>
      </g>
     </g>
    </g>
    <g id="ytick_5">
     <g id="line2d_21">
      <path d="M 40.5 142.748473 
L 291.6 142.748473 
" clip-path="url(#pc12057886b)" style="fill: none; stroke: #b0b0b0; stroke-width: 0.8; stroke-linecap: square"/>
     </g>
     <g id="line2d_22">
      <g>
       <use xlink:href="#mbaa2dfcf20" x="40.5" y="142.748473" style="stroke: #000000; stroke-width: 0.8"/>
      </g>
     </g>
     <g id="text_12">
      <!-- 0.25 -->
      <g transform="translate(11.234375 146.547691) scale(0.1 -0.1)">
       <use xlink:href="#DejaVuSans-30"/>
       <use xlink:href="#DejaVuSans-2e" transform="translate(63.623047 0)"/>
       <use xlink:href="#DejaVuSans-32" transform="translate(95.410156 0)"/>
       <use xlink:href="#DejaVuSans-35" transform="translate(159.033203 0)"/>
      </g>
     </g>
    </g>
    <g id="ytick_6">
     <g id="line2d_23">
      <path d="M 40.5 111.905648 
L 291.6 111.905648 
" clip-path="url(#pc12057886b)" style="fill: none; stroke: #b0b0b0; stroke-width: 0.8; stroke-linecap: square"/>
     </g>
     <g id="line2d_24">
      <g>
       <use xlink:href="#mbaa2dfcf20" x="40.5" y="111.905648" style="stroke: #000000; stroke-width: 0.8"/>
      </g>
     </g>
     <g id="text_13">
      <!-- 0.50 -->
      <g transform="translate(11.234375 115.704867) scale(0.1 -0.1)">
       <use xlink:href="#DejaVuSans-30"/>
       <use xlink:href="#DejaVuSans-2e" transform="translate(63.623047 0)"/>
       <use xlink:href="#DejaVuSans-35" transform="translate(95.410156 0)"/>
       <use xlink:href="#DejaVuSans-30" transform="translate(159.033203 0)"/>
      </g>
     </g>
    </g>
    <g id="ytick_7">
     <g id="line2d_25">
      <path d="M 40.5 81.062824 
L 291.6 81.062824 
" clip-path="url(#pc12057886b)" style="fill: none; stroke: #b0b0b0; stroke-width: 0.8; stroke-linecap: square"/>
     </g>
     <g id="line2d_26">
      <g>
       <use xlink:href="#mbaa2dfcf20" x="40.5" y="81.062824" style="stroke: #000000; stroke-width: 0.8"/>
      </g>
     </g>
     <g id="text_14">
      <!-- 0.75 -->
      <g transform="translate(11.234375 84.862043) scale(0.1 -0.1)">
       <use xlink:href="#DejaVuSans-30"/>
       <use xlink:href="#DejaVuSans-2e" transform="translate(63.623047 0)"/>
       <use xlink:href="#DejaVuSans-37" transform="translate(95.410156 0)"/>
       <use xlink:href="#DejaVuSans-35" transform="translate(159.033203 0)"/>
      </g>
     </g>
    </g>
    <g id="ytick_8">
     <g id="line2d_27">
      <path d="M 40.5 50.22 
L 291.6 50.22 
" clip-path="url(#pc12057886b)" style="fill: none; stroke: #b0b0b0; stroke-width: 0.8; stroke-linecap: square"/>
     </g>
     <g id="line2d_28">
      <g>
       <use xlink:href="#mbaa2dfcf20" x="40.5" y="50.22" style="stroke: #000000; stroke-width: 0.8"/>
      </g>
     </g>
     <g id="text_15">
      <!-- 1.00 -->
      <g transform="translate(11.234375 54.019219) scale(0.1 -0.1)">
       <use xlink:href="#DejaVuSans-31"/>
       <use xlink:href="#DejaVuSans-2e" transform="translate(63.623047 0)"/>
       <use xlink:href="#DejaVuSans-30" transform="translate(95.410156 0)"/>
       <use xlink:href="#DejaVuSans-30" transform="translate(159.033203 0)"/>
      </g>
     </g>
    </g>
    <g id="text_16">
     <!-- $\bar{\chi}(u)$ -->
     <g transform="translate(-3.245313 173.67) rotate(-90) scale(0.1 -0.1)">
      <defs>
       <path id="DejaVuSans-304" d="M -2522 4769 
L -653 4769 
L -653 4306 
L -2522 4306 
L -2522 4769 
z
" transform="scale(0.015625)"/>
       <path id="DejaVuSans-Oblique-3c7" d="M 1922 -781 
L 1691 416 
L 394 -1334 
L -284 -1334 
L 1553 1141 
L 1269 2613 
Q 1194 3006 713 3006 
L 559 3006 
L 653 3500 
L 872 3494 
Q 1675 3472 1775 2950 
L 2006 1753 
L 3303 3503 
L 3981 3503 
L 2144 1028 
L 2428 -444 
Q 2503 -838 2984 -838 
L 3138 -838 
L 3044 -1331 
L 2825 -1325 
Q 2022 -1303 1922 -781 
z
" transform="scale(0.015625)"/>
       <path id="DejaVuSans-28" d="M 1984 4856 
Q 1566 4138 1362 3434 
Q 1159 2731 1159 2009 
Q 1159 1288 1364 580 
Q 1569 -128 1984 -844 
L 1484 -844 
Q 1016 -109 783 600 
Q 550 1309 550 2009 
Q 550 2706 781 3412 
Q 1013 4119 1484 4856 
L 1984 4856 
z
" transform="scale(0.015625)"/>
       <path id="DejaVuSans-Oblique-75" d="M 428 1388 
L 838 3500 
L 1416 3500 
L 1006 1409 
Q 975 1256 961 1147 
Q 947 1038 947 966 
Q 947 700 1109 554 
Q 1272 409 1569 409 
Q 2031 409 2368 721 
Q 2706 1034 2809 1563 
L 3194 3500 
L 3769 3500 
L 3091 0 
L 2516 0 
L 2631 550 
Q 2388 244 2052 76 
Q 1716 -91 1338 -91 
Q 878 -91 622 161 
Q 366 413 366 863 
Q 366 956 381 1097 
Q 397 1238 428 1388 
z
" transform="scale(0.015625)"/>
       <path id="DejaVuSans-29" d="M 513 4856 
L 1013 4856 
Q 1481 4119 1714 3412 
Q 1947 2706 1947 2009 
Q 1947 1309 1714 600 
Q 1481 -109 1013 -844 
L 513 -844 
Q 928 -128 1133 580 
Q 1338 1288 1338 2009 
Q 1338 2731 1133 3434 
Q 928 4138 513 4856 
z
" transform="scale(0.015625)"/>
      </defs>
      <use xlink:href="#DejaVuSans-304" transform="translate(62.201172 0.078125)"/>
      <use xlink:href="#DejaVuSans-Oblique-3c7" transform="translate(0 0.125)"/>
      <use xlink:href="#DejaVuSans-28" transform="translate(59.179688 0.125)"/>
      <use xlink:href="#DejaVuSans-Oblique-75" transform="translate(98.193359 0.125)"/>
      <use xlink:href="#DejaVuSans-29" transform="translate(161.572266 0.125)"/>
     </g>
    </g>
   </g>
   <g id="line2d_29">
    <path d="M 51.913636 161.820534 
L 53.697017 171.366969 
L 55.480398 171.847555 
L 57.263778 170.156767 
L 59.047159 169.295025 
L 60.83054 168.865731 
L 62.61392 165.958054 
L 64.397301 166.269376 
L 66.180682 165.51808 
L 67.964063 164.997853 
L 69.747443 162.733621 
L 71.530824 162.658008 
L 73.314205 160.967311 
L 75.097585 159.526549 
L 76.880966 160.630968 
L 78.664347 160.221262 
L 80.447727 159.208879 
L 84.014489 161.443623 
L 85.797869 158.83081 
L 87.58125 158.827079 
L 89.364631 158.291132 
L 91.148011 154.94107 
L 92.931392 155.204994 
L 94.714773 153.264217 
L 96.498153 155.279922 
L 98.281534 155.115791 
L 100.064915 156.021632 
L 101.848295 156.425794 
L 103.631676 156.368564 
L 105.415057 155.877642 
L 108.981818 156.895364 
L 110.765199 156.086939 
L 112.54858 156.226372 
L 116.115341 155.738864 
L 117.898722 155.128726 
L 119.682102 153.707273 
L 121.465483 153.622416 
L 123.248864 154.832566 
L 125.032244 154.39286 
L 126.815625 153.580635 
L 128.599006 154.85888 
L 130.382386 154.127193 
L 132.165767 153.83967 
L 133.949148 153.989974 
L 135.732528 153.773335 
L 137.515909 153.988804 
L 139.29929 153.445263 
L 142.866051 151.668811 
L 144.649432 151.229419 
L 146.432813 151.222089 
L 148.216193 152.433347 
L 149.999574 150.908098 
L 153.566335 152.6996 
L 158.916477 153.267064 
L 160.699858 153.916879 
L 164.266619 152.96406 
L 166.05 153.724977 
L 167.833381 152.533755 
L 169.616761 153.772556 
L 173.183523 153.157024 
L 174.966903 153.306553 
L 176.750284 152.259362 
L 178.533665 152.895822 
L 180.317045 153.996273 
L 182.100426 154.731374 
L 183.883807 153.8229 
L 185.667188 154.223308 
L 187.450568 154.239299 
L 189.233949 155.174597 
L 191.01733 154.843853 
L 192.80071 155.447466 
L 196.367472 154.06428 
L 199.934233 153.737269 
L 201.717614 153.149714 
L 203.500994 153.582781 
L 205.284375 154.58708 
L 207.067756 153.105976 
L 210.634517 154.417048 
L 212.417898 155.201048 
L 214.201278 155.518117 
L 215.984659 156.490366 
L 217.76804 158.175249 
L 219.55142 159.414165 
L 221.334801 160.167031 
L 223.118182 159.730766 
L 224.901563 157.993021 
L 226.684943 159.004683 
L 230.251705 157.014686 
L 232.035085 159.93428 
L 233.818466 160.76231 
L 235.601847 159.189769 
L 237.385227 160.267727 
L 239.168608 157.809027 
L 240.951989 159.150497 
L 242.735369 158.689913 
L 244.51875 156.139516 
L 246.302131 155.730349 
L 248.085511 154.220166 
L 249.868892 153.950332 
L 251.652273 153.815473 
L 253.435653 158.369103 
L 255.219034 160.757683 
L 257.002415 162.0124 
L 258.785795 159.568897 
L 260.569176 161.590262 
L 262.352557 164.640627 
L 264.135938 159.533958 
L 265.919318 164.173446 
L 267.702699 167.121131 
L 269.48608 172.866981 
L 271.26946 166.319451 
L 273.052841 158.575367 
L 274.836222 172.61392 
L 276.619602 162.338017 
L 278.402983 147.854946 
L 280.186364 123.095972 
L 280.186364 123.095972 
" clip-path="url(#pc12057886b)" style="fill: none; stroke: #1f77b4; stroke-linecap: square"/>
   </g>
   <g id="line2d_30">
    <path d="M 51.913636 208.38961 
L 53.697017 204.600457 
L 57.263778 196.099385 
L 59.047159 193.291739 
L 60.83054 191.293004 
L 62.61392 187.712536 
L 64.397301 186.817924 
L 66.180682 185.268724 
L 67.964063 184.027827 
L 69.747443 181.479834 
L 71.530824 180.768101 
L 73.314205 178.805329 
L 75.097585 177.09077 
L 76.880966 177.522144 
L 78.664347 176.746242 
L 80.447727 175.499783 
L 84.014489 176.679518 
L 85.797869 174.153614 
L 87.58125 173.856836 
L 89.364631 173.125411 
L 91.148011 169.99813 
L 92.931392 169.975492 
L 94.714773 168.070678 
L 96.498153 169.587864 
L 98.281534 169.239442 
L 100.064915 169.831753 
L 101.848295 170.001854 
L 103.631676 169.780512 
L 105.415057 169.188432 
L 108.981818 169.781491 
L 110.765199 168.9316 
L 112.54858 168.922442 
L 116.115341 168.245756 
L 117.898722 167.590145 
L 119.682102 166.217823 
L 121.465483 166.035624 
L 123.248864 167.011879 
L 125.032244 166.523991 
L 126.815625 165.70665 
L 128.599006 166.762117 
L 130.382386 166.023714 
L 132.165767 165.686077 
L 133.949148 165.744887 
L 135.732528 165.477585 
L 137.515909 165.602498 
L 139.29929 165.046799 
L 142.866051 163.319018 
L 144.649432 162.863186 
L 146.432813 162.800665 
L 148.216193 163.845778 
L 149.999574 162.412835 
L 153.566335 163.95 
L 158.916477 164.355207 
L 160.699858 164.917233 
L 164.266619 163.990215 
L 166.05 164.663249 
L 167.833381 163.549404 
L 169.616761 164.667316 
L 173.183523 164.071646 
L 174.966903 164.198039 
L 176.750284 163.224236 
L 178.533665 163.804567 
L 180.317045 164.817503 
L 182.100426 165.497557 
L 183.883807 164.660088 
L 185.667188 165.03676 
L 187.450568 165.060524 
L 189.233949 165.941131 
L 191.01733 165.649551 
L 192.80071 166.230241 
L 196.367472 164.989137 
L 199.934233 164.744071 
L 201.717614 164.230162 
L 203.500994 164.67478 
L 205.284375 165.660447 
L 207.067756 164.319384 
L 210.634517 165.663507 
L 212.417898 166.467367 
L 214.201278 166.838217 
L 215.984659 167.83628 
L 217.76804 169.520552 
L 219.55142 170.794773 
L 221.334801 171.618667 
L 223.118182 171.318243 
L 224.901563 169.780981 
L 226.684943 170.882492 
L 230.251705 169.269699 
L 232.035085 172.255904 
L 233.818466 173.249183 
L 235.601847 171.928399 
L 237.385227 173.205196 
L 239.168608 171.04627 
L 240.951989 172.630076 
L 242.735369 172.473328 
L 244.51875 170.272327 
L 246.302131 170.216154 
L 248.085511 169.095816 
L 249.868892 169.252498 
L 251.652273 169.59832 
L 253.435653 174.837165 
L 255.219034 178.050525 
L 257.002415 180.266078 
L 258.785795 178.618756 
L 260.569176 182.126781 
L 262.352557 187.444845 
L 264.135938 183.218253 
L 265.919318 192.412074 
L 267.702699 203.649539 
L 269.48608 277.02 
L 271.26946 275.967789 
L 273.052841 274.723288 
L 274.836222 273.200142 
L 276.619602 271.236465 
L 278.402983 268.468817 
L 280.186364 263.737493 
L 280.186364 263.737493 
" clip-path="url(#pc12057886b)" style="fill: none; stroke-dasharray: 3.7,1.6; stroke-dashoffset: 0; stroke: #0000ff"/>
   </g>
   <g id="line2d_31">
    <path d="M 51.913636 50.22 
L 53.697017 101.963633 
L 55.480398 120.681709 
L 57.263778 127.153491 
L 59.047159 131.701668 
L 60.83054 135.17977 
L 62.61392 134.208692 
L 64.397301 137.097643 
L 67.964063 139.042213 
L 69.747443 137.516134 
L 71.530824 138.649108 
L 73.314205 137.580633 
L 75.097585 136.732065 
L 76.880966 138.967254 
L 78.664347 139.222367 
L 80.447727 138.669833 
L 84.014489 142.5755 
L 85.797869 139.942864 
L 87.58125 140.422629 
L 89.364631 140.230196 
L 91.148011 136.664151 
L 92.931392 137.379776 
L 94.714773 135.461897 
L 96.498153 138.191285 
L 98.281534 138.325691 
L 100.064915 139.690777 
L 101.848295 140.446726 
L 103.631676 140.647931 
L 105.415057 140.332477 
L 108.981818 141.971676 
L 110.765199 141.256034 
L 112.54858 141.619702 
L 116.115341 141.44064 
L 117.898722 140.921867 
L 119.682102 139.47463 
L 121.465483 139.542629 
L 123.248864 141.070632 
L 125.032244 140.720912 
L 126.815625 139.945594 
L 128.599006 141.523225 
L 130.382386 140.828686 
L 132.165767 140.63001 
L 133.949148 140.918126 
L 135.732528 140.789577 
L 137.515909 141.140194 
L 139.29929 140.637627 
L 142.866051 138.85544 
L 144.649432 138.461352 
L 146.432813 138.544962 
L 148.216193 139.977914 
L 149.999574 138.368611 
L 153.566335 140.509141 
L 158.916477 141.339894 
L 160.699858 142.116639 
L 164.266619 141.18224 
L 166.05 142.070159 
L 167.833381 140.813319 
L 169.616761 142.217788 
L 173.183523 141.629424 
L 174.966903 141.831481 
L 176.750284 140.724893 
L 178.533665 141.453024 
L 180.317045 142.682113 
L 182.100426 143.508647 
L 183.883807 142.54551 
L 185.667188 143.002183 
L 187.450568 143.038487 
L 189.233949 144.067814 
L 191.01733 143.722485 
L 192.80071 144.385113 
L 196.367472 142.902986 
L 199.934233 142.552231 
L 201.717614 141.916244 
L 203.500994 142.376008 
L 205.284375 143.445186 
L 207.067756 141.841349 
L 210.634517 143.210063 
L 212.417898 144.023927 
L 214.201278 144.333038 
L 215.984659 145.336411 
L 217.76804 147.092067 
L 219.55142 148.363781 
L 221.334801 149.110783 
L 223.118182 148.588994 
L 224.901563 146.682729 
L 226.684943 147.686229 
L 230.251705 145.425813 
L 232.035085 148.418422 
L 233.818466 149.190519 
L 235.601847 147.428173 
L 237.385227 148.442979 
L 239.168608 145.736911 
L 240.951989 147.004976 
L 242.735369 146.372746 
L 244.51875 143.54735 
L 246.302131 142.946379 
L 248.085511 141.18415 
L 249.868892 140.697254 
L 251.652273 140.329907 
L 253.435653 144.778745 
L 255.219034 146.937691 
L 257.002415 147.884075 
L 258.785795 145.013002 
L 260.569176 146.64369 
L 262.352557 149.230196 
L 264.135938 143.528796 
L 265.919318 147.52284 
L 267.702699 149.653939 
L 269.48608 154.299107 
L 271.26946 146.771899 
L 273.052841 137.869102 
L 274.836222 149.446953 
L 276.619602 137.256583 
L 278.402983 120.075221 
L 280.186364 90.70349 
L 280.186364 90.70349 
" clip-path="url(#pc12057886b)" style="fill: none; stroke-dasharray: 3.7,1.6; stroke-dashoffset: 0; stroke: #0000ff"/>
   </g>
   <g id="patch_3">
    <path d="M 40.5 288.36 
L 40.5 38.88 
" style="fill: none; stroke: #000000; stroke-width: 0.8; stroke-linejoin: miter; stroke-linecap: square"/>
   </g>
   <g id="patch_4">
    <path d="M 291.6 288.36 
L 291.6 38.88 
" style="fill: none; stroke: #000000; stroke-width: 0.8; stroke-linejoin: miter; stroke-linecap: square"/>
   </g>
   <g id="patch_5">
    <path d="M 40.5 288.36 
L 291.6 288.36 
" style="fill: none; stroke: #000000; stroke-width: 0.8; stroke-linejoin: miter; stroke-linecap: square"/>
   </g>
   <g id="patch_6">
    <path d="M 40.5 38.88 
L 291.6 38.88 
" style="fill: none; stroke: #000000; stroke-width: 0.8; stroke-linejoin: miter; stroke-linecap: square"/>
   </g>
   <g id="legend_1">
    <g id="patch_7">
     <path d="M 136.957031 285.36 
L 199.142969 285.36 
Q 201.142969 285.36 201.142969 283.36 
L 201.142969 240.30375 
Q 201.142969 238.30375 199.142969 238.30375 
L 136.957031 238.30375 
Q 134.957031 238.30375 134.957031 240.30375 
L 134.957031 283.36 
Q 134.957031 285.36 136.957031 285.36 
z
" style="fill: #4d4d4d; opacity: 0.5; stroke: #4d4d4d; stroke-linejoin: miter"/>
    </g>
    <g id="patch_8">
     <path d="M 134.957031 283.36 
L 197.142969 283.36 
Q 199.142969 283.36 199.142969 281.36 
L 199.142969 238.30375 
Q 199.142969 236.30375 197.142969 236.30375 
L 134.957031 236.30375 
Q 132.957031 236.30375 132.957031 238.30375 
L 132.957031 281.36 
Q 132.957031 283.36 134.957031 283.36 
z
" style="fill: #ffffff; stroke: #cccccc; stroke-linejoin: miter"/>
    </g>
    <g id="line2d_32">
     <path d="M 136.957031 244.40375 
L 146.957031 244.40375 
L 156.957031 244.40375 
" style="fill: none; stroke: #1f77b4; stroke-linecap: square"/>
    </g>
    <g id="text_17">
     <!-- $\bar{\chi}(u)$ -->
     <g transform="translate(164.957031 247.90375) scale(0.1 -0.1)">
      <use xlink:href="#DejaVuSans-304" transform="translate(62.201172 0.078125)"/>
      <use xlink:href="#DejaVuSans-Oblique-3c7" transform="translate(0 0.125)"/>
      <use xlink:href="#DejaVuSans-28" transform="translate(59.179688 0.125)"/>
      <use xlink:href="#DejaVuSans-Oblique-75" transform="translate(98.193359 0.125)"/>
      <use xlink:href="#DejaVuSans-29" transform="translate(161.572266 0.125)"/>
     </g>
    </g>
    <g id="line2d_33">
     <path d="M 136.957031 259.102188 
L 146.957031 259.102188 
L 156.957031 259.102188 
" style="fill: none; stroke-dasharray: 3.7,1.6; stroke-dashoffset: 0; stroke: #0000ff"/>
    </g>
    <g id="text_18">
     <!-- CI low -->
     <g transform="translate(164.957031 262.602188) scale(0.1 -0.1)">
      <defs>
       <path id="DejaVuSans-43" d="M 4122 4306 
L 4122 3641 
Q 3803 3938 3442 4084 
Q 3081 4231 2675 4231 
Q 1875 4231 1450 3742 
Q 1025 3253 1025 2328 
Q 1025 1406 1450 917 
Q 1875 428 2675 428 
Q 3081 428 3442 575 
Q 3803 722 4122 1019 
L 4122 359 
Q 3791 134 3420 21 
Q 3050 -91 2638 -91 
Q 1578 -91 968 557 
Q 359 1206 359 2328 
Q 359 3453 968 4101 
Q 1578 4750 2638 4750 
Q 3056 4750 3426 4639 
Q 3797 4528 4122 4306 
z
" transform="scale(0.015625)"/>
       <path id="DejaVuSans-49" d="M 628 4666 
L 1259 4666 
L 1259 0 
L 628 0 
L 628 4666 
z
" transform="scale(0.015625)"/>
       <path id="DejaVuSans-20" transform="scale(0.015625)"/>
       <path id="DejaVuSans-6c" d="M 603 4863 
L 1178 4863 
L 1178 0 
L 603 0 
L 603 4863 
z
" transform="scale(0.015625)"/>
       <path id="DejaVuSans-6f" d="M 1959 3097 
Q 1497 3097 1228 2736 
Q 959 2375 959 1747 
Q 959 1119 1226 758 
Q 1494 397 1959 397 
Q 2419 397 2687 759 
Q 2956 1122 2956 1747 
Q 2956 2369 2687 2733 
Q 2419 3097 1959 3097 
z
M 1959 3584 
Q 2709 3584 3137 3096 
Q 3566 2609 3566 1747 
Q 3566 888 3137 398 
Q 2709 -91 1959 -91 
Q 1206 -91 779 398 
Q 353 888 353 1747 
Q 353 2609 779 3096 
Q 1206 3584 1959 3584 
z
" transform="scale(0.015625)"/>
       <path id="DejaVuSans-77" d="M 269 3500 
L 844 3500 
L 1563 769 
L 2278 3500 
L 2956 3500 
L 3675 769 
L 4391 3500 
L 4966 3500 
L 4050 0 
L 3372 0 
L 2619 2869 
L 1863 0 
L 1184 0 
L 269 3500 
z
" transform="scale(0.015625)"/>
      </defs>
      <use xlink:href="#DejaVuSans-43"/>
      <use xlink:href="#DejaVuSans-49" transform="translate(69.824219 0)"/>
      <use xlink:href="#DejaVuSans-20" transform="translate(99.316406 0)"/>
      <use xlink:href="#DejaVuSans-6c" transform="translate(131.103516 0)"/>
      <use xlink:href="#DejaVuSans-6f" transform="translate(158.886719 0)"/>
      <use xlink:href="#DejaVuSans-77" transform="translate(220.068359 0)"/>
     </g>
    </g>
    <g id="line2d_34">
     <path d="M 136.957031 273.780313 
L 146.957031 273.780313 
L 156.957031 273.780313 
" style="fill: none; stroke-dasharray: 3.7,1.6; stroke-dashoffset: 0; stroke: #0000ff"/>
    </g>
    <g id="text_19">
     <!-- CI up -->
     <g transform="translate(164.957031 277.280313) scale(0.1 -0.1)">
      <defs>
       <path id="DejaVuSans-70" d="M 1159 525 
L 1159 -1331 
L 581 -1331 
L 581 3500 
L 1159 3500 
L 1159 2969 
Q 1341 3281 1617 3432 
Q 1894 3584 2278 3584 
Q 2916 3584 3314 3078 
Q 3713 2572 3713 1747 
Q 3713 922 3314 415 
Q 2916 -91 2278 -91 
Q 1894 -91 1617 61 
Q 1341 213 1159 525 
z
M 3116 1747 
Q 3116 2381 2855 2742 
Q 2594 3103 2138 3103 
Q 1681 3103 1420 2742 
Q 1159 2381 1159 1747 
Q 1159 1113 1420 752 
Q 1681 391 2138 391 
Q 2594 391 2855 752 
Q 3116 1113 3116 1747 
z
" transform="scale(0.015625)"/>
      </defs>
      <use xlink:href="#DejaVuSans-43"/>
      <use xlink:href="#DejaVuSans-49" transform="translate(69.824219 0)"/>
      <use xlink:href="#DejaVuSans-20" transform="translate(99.316406 0)"/>
      <use xlink:href="#DejaVuSans-75" transform="translate(131.103516 0)"/>
      <use xlink:href="#DejaVuSans-70" transform="translate(194.482422 0)"/>
     </g>
    </g>
   </g>
  </g>
  <g id="text_20">
   <!-- Upper extremal dependence function -->
   <g transform="translate(49.801875 15.598125) scale(0.12 -0.12)">
    <defs>
     <path id="DejaVuSans-55" d="M 556 4666 
L 1191 4666 
L 1191 1831 
Q 1191 1081 1462 751 
Q 1734 422 2344 422 
Q 2950 422 3222 751 
Q 3494 1081 3494 1831 
L 3494 4666 
L 4128 4666 
L 4128 1753 
Q 4128 841 3676 375 
Q 3225 -91 2344 -91 
Q 1459 -91 1007 375 
Q 556 841 556 1753 
L 556 4666 
z
" transform="scale(0.015625)"/>
     <path id="DejaVuSans-65" d="M 3597 1894 
L 3597 1613 
L 953 1613 
Q 991 1019 1311 708 
Q 1631 397 2203 397 
Q 2534 397 2845 478 
Q 3156 559 3463 722 
L 3463 178 
Q 3153 47 2828 -22 
Q 2503 -91 2169 -91 
Q 1331 -91 842 396 
Q 353 884 353 1716 
Q 353 2575 817 3079 
Q 1281 3584 2069 3584 
Q 2775 3584 3186 3129 
Q 3597 2675 3597 1894 
z
M 3022 2063 
Q 3016 2534 2758 2815 
Q 2500 3097 2075 3097 
Q 1594 3097 1305 2825 
Q 1016 2553 972 2059 
L 3022 2063 
z
" transform="scale(0.015625)"/>
     <path id="DejaVuSans-72" d="M 2631 2963 
Q 2534 3019 2420 3045 
Q 2306 3072 2169 3072 
Q 1681 3072 1420 2755 
Q 1159 2438 1159 1844 
L 1159 0 
L 581 0 
L 581 3500 
L 1159 3500 
L 1159 2956 
Q 1341 3275 1631 3429 
Q 1922 3584 2338 3584 
Q 2397 3584 2469 3576 
Q 2541 3569 2628 3553 
L 2631 2963 
z
" transform="scale(0.015625)"/>
     <path id="DejaVuSans-78" d="M 3513 3500 
L 2247 1797 
L 3578 0 
L 2900 0 
L 1881 1375 
L 863 0 
L 184 0 
L 1544 1831 
L 300 3500 
L 978 3500 
L 1906 2253 
L 2834 3500 
L 3513 3500 
z
" transform="scale(0.015625)"/>
     <path id="DejaVuSans-74" d="M 1172 4494 
L 1172 3500 
L 2356 3500 
L 2356 3053 
L 1172 3053 
L 1172 1153 
Q 1172 725 1289 603 
Q 1406 481 1766 481 
L 2356 481 
L 2356 0 
L 1766 0 
Q 1100 0 847 248 
Q 594 497 594 1153 
L 594 3053 
L 172 3053 
L 172 3500 
L 594 3500 
L 594 4494 
L 1172 4494 
z
" transform="scale(0.015625)"/>
     <path id="DejaVuSans-6d" d="M 3328 2828 
Q 3544 3216 3844 3400 
Q 4144 3584 4550 3584 
Q 5097 3584 5394 3201 
Q 5691 2819 5691 2113 
L 5691 0 
L 5113 0 
L 5113 2094 
Q 5113 2597 4934 2840 
Q 4756 3084 4391 3084 
Q 3944 3084 3684 2787 
Q 3425 2491 3425 1978 
L 3425 0 
L 2847 0 
L 2847 2094 
Q 2847 2600 2669 2842 
Q 2491 3084 2119 3084 
Q 1678 3084 1418 2786 
Q 1159 2488 1159 1978 
L 1159 0 
L 581 0 
L 581 3500 
L 1159 3500 
L 1159 2956 
Q 1356 3278 1631 3431 
Q 1906 3584 2284 3584 
Q 2666 3584 2933 3390 
Q 3200 3197 3328 2828 
z
" transform="scale(0.015625)"/>
     <path id="DejaVuSans-61" d="M 2194 1759 
Q 1497 1759 1228 1600 
Q 959 1441 959 1056 
Q 959 750 1161 570 
Q 1363 391 1709 391 
Q 2188 391 2477 730 
Q 2766 1069 2766 1631 
L 2766 1759 
L 2194 1759 
z
M 3341 1997 
L 3341 0 
L 2766 0 
L 2766 531 
Q 2569 213 2275 61 
Q 1981 -91 1556 -91 
Q 1019 -91 701 211 
Q 384 513 384 1019 
Q 384 1609 779 1909 
Q 1175 2209 1959 2209 
L 2766 2209 
L 2766 2266 
Q 2766 2663 2505 2880 
Q 2244 3097 1772 3097 
Q 1472 3097 1187 3025 
Q 903 2953 641 2809 
L 641 3341 
Q 956 3463 1253 3523 
Q 1550 3584 1831 3584 
Q 2591 3584 2966 3190 
Q 3341 2797 3341 1997 
z
" transform="scale(0.015625)"/>
     <path id="DejaVuSans-64" d="M 2906 2969 
L 2906 4863 
L 3481 4863 
L 3481 0 
L 2906 0 
L 2906 525 
Q 2725 213 2448 61 
Q 2172 -91 1784 -91 
Q 1150 -91 751 415 
Q 353 922 353 1747 
Q 353 2572 751 3078 
Q 1150 3584 1784 3584 
Q 2172 3584 2448 3432 
Q 2725 3281 2906 2969 
z
M 947 1747 
Q 947 1113 1208 752 
Q 1469 391 1925 391 
Q 2381 391 2643 752 
Q 2906 1113 2906 1747 
Q 2906 2381 2643 2742 
Q 2381 3103 1925 3103 
Q 1469 3103 1208 2742 
Q 947 2381 947 1747 
z
" transform="scale(0.015625)"/>
     <path id="DejaVuSans-6e" d="M 3513 2113 
L 3513 0 
L 2938 0 
L 2938 2094 
Q 2938 2591 2744 2837 
Q 2550 3084 2163 3084 
Q 1697 3084 1428 2787 
Q 1159 2491 1159 1978 
L 1159 0 
L 581 0 
L 581 3500 
L 1159 3500 
L 1159 2956 
Q 1366 3272 1645 3428 
Q 1925 3584 2291 3584 
Q 2894 3584 3203 3211 
Q 3513 2838 3513 2113 
z
" transform="scale(0.015625)"/>
     <path id="DejaVuSans-63" d="M 3122 3366 
L 3122 2828 
Q 2878 2963 2633 3030 
Q 2388 3097 2138 3097 
Q 1578 3097 1268 2742 
Q 959 2388 959 1747 
Q 959 1106 1268 751 
Q 1578 397 2138 397 
Q 2388 397 2633 464 
Q 2878 531 3122 666 
L 3122 134 
Q 2881 22 2623 -34 
Q 2366 -91 2075 -91 
Q 1284 -91 818 406 
Q 353 903 353 1747 
Q 353 2603 823 3093 
Q 1294 3584 2113 3584 
Q 2378 3584 2631 3529 
Q 2884 3475 3122 3366 
z
" transform="scale(0.015625)"/>
     <path id="DejaVuSans-66" d="M 2375 4863 
L 2375 4384 
L 1825 4384 
Q 1516 4384 1395 4259 
Q 1275 4134 1275 3809 
L 1275 3500 
L 2222 3500 
L 2222 3053 
L 1275 3053 
L 1275 0 
L 697 0 
L 697 3053 
L 147 3053 
L 147 3500 
L 697 3500 
L 697 3744 
Q 697 4328 969 4595 
Q 1241 4863 1831 4863 
L 2375 4863 
z
" transform="scale(0.015625)"/>
     <path id="DejaVuSans-69" d="M 603 3500 
L 1178 3500 
L 1178 0 
L 603 0 
L 603 3500 
z
M 603 4863 
L 1178 4863 
L 1178 4134 
L 603 4134 
L 603 4863 
z
" transform="scale(0.015625)"/>
    </defs>
    <use xlink:href="#DejaVuSans-55"/>
    <use xlink:href="#DejaVuSans-70" transform="translate(73.193359 0)"/>
    <use xlink:href="#DejaVuSans-70" transform="translate(136.669922 0)"/>
    <use xlink:href="#DejaVuSans-65" transform="translate(200.146484 0)"/>
    <use xlink:href="#DejaVuSans-72" transform="translate(261.669922 0)"/>
    <use xlink:href="#DejaVuSans-20" transform="translate(302.783203 0)"/>
    <use xlink:href="#DejaVuSans-65" transform="translate(334.570312 0)"/>
    <use xlink:href="#DejaVuSans-78" transform="translate(394.34375 0)"/>
    <use xlink:href="#DejaVuSans-74" transform="translate(453.523438 0)"/>
    <use xlink:href="#DejaVuSans-72" transform="translate(492.732422 0)"/>
    <use xlink:href="#DejaVuSans-65" transform="translate(531.595703 0)"/>
    <use xlink:href="#DejaVuSans-6d" transform="translate(593.119141 0)"/>
    <use xlink:href="#DejaVuSans-61" transform="translate(690.53125 0)"/>
    <use xlink:href="#DejaVuSans-6c" transform="translate(751.810547 0)"/>
    <use xlink:href="#DejaVuSans-20" transform="translate(779.59375 0)"/>
    <use xlink:href="#DejaVuSans-64" transform="translate(811.380859 0)"/>
    <use xlink:href="#DejaVuSans-65" transform="translate(874.857422 0)"/>
    <use xlink:href="#DejaVuSans-70" transform="translate(936.380859 0)"/>
    <use xlink:href="#DejaVuSans-65" transform="translate(999.857422 0)"/>
    <use xlink:href="#DejaVuSans-6e" transform="translate(1061.380859 0)"/>
    <use xlink:href="#DejaVuSans-64" transform="translate(1124.759766 0)"/>
    <use xlink:href="#DejaVuSans-65" transform="translate(1188.236328 0)"/>
    <use xlink:href="#DejaVuSans-6e" transform="translate(1249.759766 0)"/>
    <use xlink:href="#DejaVuSans-63" transform="translate(1313.138672 0)"/>
    <use xlink:href="#DejaVuSans-65" transform="translate(1368.119141 0)"/>
    <use xlink:href="#DejaVuSans-20" transform="translate(1429.642578 0)"/>
    <use xlink:href="#DejaVuSans-66" transform="translate(1461.429688 0)"/>
    <use xlink:href="#DejaVuSans-75" transform="translate(1496.634766 0)"/>
    <use xlink:href="#DejaVuSans-6e" transform="translate(1560.013672 0)"/>
    <use xlink:href="#DejaVuSans-63" transform="translate(1623.392578 0)"/>
    <use xlink:href="#DejaVuSans-74" transform="translate(1678.373047 0)"/>
    <use xlink:href="#DejaVuSans-69" transform="translate(1717.582031 0)"/>
    <use xlink:href="#DejaVuSans-6f" transform="translate(1745.365234 0)"/>
    <use xlink:href="#DejaVuSans-6e" transform="translate(1806.546875 0)"/>
   </g>
  </g>
 </g>
 <defs>
  <clipPath id="pc12057886b">
   <rect x="40.5" y="38.88" width="251.1" height="249.48"/>
  </clipPath>
 </defs>
</svg>
