<?xml version="1.0" encoding="utf-8" standalone="no"?>
<!DOCTYPE svg PUBLIC "-//W3C//DTD SVG 1.1//EN"
  "http://www.w3.org/Graphics/SVG/1.1/DTD/svg11.dtd">
<svg xmlns:xlink="http://www.w3.org/1999/xlink" width="460.8pt" height="345.6pt" viewBox="0 0 460.8 345.6" xmlns="http://www.w3.org/2000/svg" version="1.1">
 <metadata>
  <rdf:RDF xmlns:dc="http://purl.org/dc/elements/1.1/" xmlns:cc="http://creativecommons.org/ns#" xmlns:rdf="http://www.w3.org/1999/02/22-rdf-syntax-ns#">
   <cc:Work>
    <dc:type rdf:resource="http://purl.org/dc/dcmitype/StillImage"/>
    <dc:date>2025-11-24T14:21:48.227423</dc:date>
    <dc:format>image/svg+xml</dc:format>
    <dc:creator>
     <cc:Agent>
      <dc:title>Matplotlib v3.10.8, https://matplotlib.org/</dc:title>
     </cc:Agent>
    </dc:creator>
   </cc:Work>
  </rdf:RDF>
 </metadata>
 <defs>
  <style type="text/css">*{stroke-linejoin: round; stroke-linecap: butt}</style>
 </defs>
 <g id="figure_1">
  <g id="patch_1">
   <path d="M 0 345.6 
L 460.8 345.6 
L 460.8 0 
L 0 0 
z
" style="fill: #ffffff"/>
  </g>
  <g id="axes_1">
   <g id="patch_2">
    <path d="M 57.6 307.584 
L 414.72 307.584 
L 414.72 68.0832 
L 57.6 68.0832 
z
" style="fill: #ffffff"/>
   </g>
   <g id="matplotlib.axis_1">
    <g id="xtick_1">
     <g id="line2d_1">
      <path d="M 102.239339 307.584 
L 102.239339 68.0832 
" clip-path="url(#pc7dca7bce0)" style="fill: none; stroke: #b0b0b0; stroke-width: 0.8; stroke-linecap: square"/>
     </g>
     <g id="line2d_2">
      <defs>
       <path id="m8699c74ca4" d="M 0 0 
L 0 3.5 
" style="stroke: #000000; stroke-width: 0.8"/>
      </defs>
      <g>
       <use xlink:href="#m8699c74ca4" x="102.239339" y="307.584" style="stroke: #000000; stroke-width: 0.8"/>
      </g>
     </g>
     <g id="text_1">
      <!-- −0.75 -->
      <g transform="translate(86.916683 322.182437) scale(0.1 -0.1)">
       <defs>
        <path id="DejaVuSans-2212" d="M 678 2272 
L 4684 2272 
L 4684 1741 
L 678 1741 
L 678 2272 
z
" transform="scale(0.015625)"/>
        <path id="DejaVuSans-30" d="M 2034 4250 
Q 1547 4250 1301 3770 
Q 1056 3291 1056 2328 
Q 1056 1369 1301 889 
Q 1547 409 2034 409 
Q 2525 409 2770 889 
Q 3016 1369 3016 2328 
Q 3016 3291 2770 3770 
Q 2525 4250 2034 4250 
z
M 2034 4750 
Q 2819 4750 3233 4129 
Q 3647 3509 3647 2328 
Q 3647 1150 3233 529 
Q 2819 -91 2034 -91 
Q 1250 -91 836 529 
Q 422 1150 422 2328 
Q 422 3509 836 4129 
Q 1250 4750 2034 4750 
z
" transform="scale(0.015625)"/>
        <path id="DejaVuSans-2e" d="M 684 794 
L 1344 794 
L 1344 0 
L 684 0 
L 684 794 
z
" transform="scale(0.015625)"/>
        <path id="DejaVuSans-37" d="M 525 4666 
L 3525 4666 
L 3525 4397 
L 1831 0 
L 1172 0 
L 2766 4134 
L 525 4134 
L 525 4666 
z
" transform="scale(0.015625)"/>
        <path id="DejaVuSans-35" d="M 691 4666 
L 3169 4666 
L 3169 4134 
L 1269 4134 
L 1269 2991 
Q 1406 3038 1543 3061 
Q 1681 3084 1819 3084 
Q 2600 3084 3056 2656 
Q 3513 2228 3513 1497 
Q 3513 744 3044 326 
Q 2575 -91 1722 -91 
Q 1428 -91 1123 -41 
Q 819 9 494 109 
L 494 744 
Q 775 591 1075 516 
Q 1375 441 1709 441 
Q 2250 441 2565 725 
Q 2881 1009 2881 1497 
Q 2881 1984 2565 2268 
Q 2250 2553 1709 2553 
Q 1456 2553 1204 2497 
Q 953 2441 691 2322 
L 691 4666 
z
" transform="scale(0.015625)"/>
       </defs>
       <use xlink:href="#DejaVuSans-2212"/>
       <use xlink:href="#DejaVuSans-30" transform="translate(83.789062 0)"/>
       <use xlink:href="#DejaVuSans-2e" transform="translate(147.412109 0)"/>
       <use xlink:href="#DejaVuSans-37" transform="translate(179.199219 0)"/>
       <use xlink:href="#DejaVuSans-35" transform="translate(242.822266 0)"/>
      </g>
     </g>
    </g>
    <g id="xtick_2">
     <g id="line2d_3">
      <path d="M 146.879559 307.584 
L 146.879559 68.0832 
" clip-path="url(#pc7dca7bce0)" style="fill: none; stroke: #b0b0b0; stroke-width: 0.8; stroke-linecap: square"/>
     </g>
     <g id="line2d_4">
      <g>
       <use xlink:href="#m8699c74ca4" x="146.879559" y="307.584" style="stroke: #000000; stroke-width: 0.8"/>
      </g>
     </g>
     <g id="text_2">
      <!-- −0.50 -->
      <g transform="translate(131.556903 322.182437) scale(0.1 -0.1)">
       <use xlink:href="#DejaVuSans-2212"/>
       <use xlink:href="#DejaVuSans-30" transform="translate(83.789062 0)"/>
       <use xlink:href="#DejaVuSans-2e" transform="translate(147.412109 0)"/>
       <use xlink:href="#DejaVuSans-35" transform="translate(179.199219 0)"/>
       <use xlink:href="#DejaVuSans-30" transform="translate(242.822266 0)"/>
      </g>
     </g>
    </g>
    <g id="xtick_3">
     <g id="line2d_5">
      <path d="M 191.51978 307.584 
L 191.51978 68.0832 
" clip-path="url(#pc7dca7bce0)" style="fill: none; stroke: #b0b0b0; stroke-width: 0.8; stroke-linecap: square"/>
     </g>
     <g id="line2d_6">
      <g>
       <use xlink:href="#m8699c74ca4" x="191.51978" y="307.584" style="stroke: #000000; stroke-width: 0.8"/>
      </g>
     </g>
     <g id="text_3">
      <!-- −0.25 -->
      <g transform="translate(176.197123 322.182437) scale(0.1 -0.1)">
       <defs>
        <path id="DejaVuSans-32" d="M 1228 531 
L 3431 531 
L 3431 0 
L 469 0 
L 469 531 
Q 828 903 1448 1529 
Q 2069 2156 2228 2338 
Q 2531 2678 2651 2914 
Q 2772 3150 2772 3378 
Q 2772 3750 2511 3984 
Q 2250 4219 1831 4219 
Q 1534 4219 1204 4116 
Q 875 4013 500 3803 
L 500 4441 
Q 881 4594 1212 4672 
Q 1544 4750 1819 4750 
Q 2544 4750 2975 4387 
Q 3406 4025 3406 3419 
Q 3406 3131 3298 2873 
Q 3191 2616 2906 2266 
Q 2828 2175 2409 1742 
Q 1991 1309 1228 531 
z
" transform="scale(0.015625)"/>
       </defs>
       <use xlink:href="#DejaVuSans-2212"/>
       <use xlink:href="#DejaVuSans-30" transform="translate(83.789062 0)"/>
       <use xlink:href="#DejaVuSans-2e" transform="translate(147.412109 0)"/>
       <use xlink:href="#DejaVuSans-32" transform="translate(179.199219 0)"/>
       <use xlink:href="#DejaVuSans-35" transform="translate(242.822266 0)"/>
      </g>
     </g>
    </g>
    <g id="xtick_4">
     <g id="line2d_7">
      <path d="M 236.16 307.584 
L 236.16 68.0832 
" clip-path="url(#pc7dca7bce0)" style="fill: none; stroke: #b0b0b0; stroke-width: 0.8; stroke-linecap: square"/>
     </g>
     <g id="line2d_8">
      <g>
       <use xlink:href="#m8699c74ca4" x="236.16" y="307.584" style="stroke: #000000; stroke-width: 0.8"/>
      </g>
     </g>
     <g id="text_4">
      <!-- 0.00 -->
      <g transform="translate(225.027187 322.182437) scale(0.1 -0.1)">
       <use xlink:href="#DejaVuSans-30"/>
       <use xlink:href="#DejaVuSans-2e" transform="translate(63.623047 0)"/>
       <use xlink:href="#DejaVuSans-30" transform="translate(95.410156 0)"/>
       <use xlink:href="#DejaVuSans-30" transform="translate(159.033203 0)"/>
      </g>
     </g>
    </g>
    <g id="xtick_5">
     <g id="line2d_9">
      <path d="M 280.80022 307.584 
L 280.80022 68.0832 
" clip-path="url(#pc7dca7bce0)" style="fill: none; stroke: #b0b0b0; stroke-width: 0.8; stroke-linecap: square"/>
     </g>
     <g id="line2d_10">
      <g>
       <use xlink:href="#m8699c74ca4" x="280.80022" y="307.584" style="stroke: #000000; stroke-width: 0.8"/>
      </g>
     </g>
     <g id="text_5">
      <!-- 0.25 -->
      <g transform="translate(269.667408 322.182437) scale(0.1 -0.1)">
       <use xlink:href="#DejaVuSans-30"/>
       <use xlink:href="#DejaVuSans-2e" transform="translate(63.623047 0)"/>
       <use xlink:href="#DejaVuSans-32" transform="translate(95.410156 0)"/>
       <use xlink:href="#DejaVuSans-35" transform="translate(159.033203 0)"/>
      </g>
     </g>
    </g>
    <g id="xtick_6">
     <g id="line2d_11">
      <path d="M 325.440441 307.584 
L 325.440441 68.0832 
" clip-path="url(#pc7dca7bce0)" style="fill: none; stroke: #b0b0b0; stroke-width: 0.8; stroke-linecap: square"/>
     </g>
     <g id="line2d_12">
      <g>
       <use xlink:href="#m8699c74ca4" x="325.440441" y="307.584" style="stroke: #000000; stroke-width: 0.8"/>
      </g>
     </g>
     <g id="text_6">
      <!-- 0.50 -->
      <g transform="translate(314.307628 322.182437) scale(0.1 -0.1)">
       <use xlink:href="#DejaVuSans-30"/>
       <use xlink:href="#DejaVuSans-2e" transform="translate(63.623047 0)"/>
       <use xlink:href="#DejaVuSans-35" transform="translate(95.410156 0)"/>
       <use xlink:href="#DejaVuSans-30" transform="translate(159.033203 0)"/>
      </g>
     </g>
    </g>
    <g id="xtick_7">
     <g id="line2d_13">
      <path d="M 370.080661 307.584 
L 370.080661 68.0832 
" clip-path="url(#pc7dca7bce0)" style="fill: none; stroke: #b0b0b0; stroke-width: 0.8; stroke-linecap: square"/>
     </g>
     <g id="line2d_14">
      <g>
       <use xlink:href="#m8699c74ca4" x="370.080661" y="307.584" style="stroke: #000000; stroke-width: 0.8"/>
      </g>
     </g>
     <g id="text_7">
      <!-- 0.75 -->
      <g transform="translate(358.947848 322.182437) scale(0.1 -0.1)">
       <use xlink:href="#DejaVuSans-30"/>
       <use xlink:href="#DejaVuSans-2e" transform="translate(63.623047 0)"/>
       <use xlink:href="#DejaVuSans-37" transform="translate(95.410156 0)"/>
       <use xlink:href="#DejaVuSans-35" transform="translate(159.033203 0)"/>
      </g>
     </g>
    </g>
    <g id="text_8">
     <!-- $x$ -->
     <g transform="translate(233.16 335.860562) scale(0.1 -0.1)">
      <defs>
       <path id="DejaVuSans-Oblique-78" d="M 3841 3500 
L 2234 1784 
L 3219 0 
L 2559 0 
L 1819 1388 
L 531 0 
L -166 0 
L 1556 1844 
L 641 3500 
L 1300 3500 
L 1972 2234 
L 3144 3500 
L 3841 3500 
z
" transform="scale(0.015625)"/>
      </defs>
      <use xlink:href="#DejaVuSans-Oblique-78" transform="translate(0 0.3125)"/>
     </g>
    </g>
   </g>
   <g id="matplotlib.axis_2">
    <g id="ytick_1">
     <g id="line2d_15">
      <path d="M 57.6 303.301311 
L 414.72 303.301311 
" clip-path="url(#pc7dca7bce0)" style="fill: none; stroke: #b0b0b0; stroke-width: 0.8; stroke-linecap: square"/>
     </g>
     <g id="line2d_16">
      <defs>
       <path id="m9d83592f0f" d="M 0 0 
L -3.5 0 
" style="stroke: #000000; stroke-width: 0.8"/>
      </defs>
      <g>
       <use xlink:href="#m9d83592f0f" x="57.6" y="303.301311" style="stroke: #000000; stroke-width: 0.8"/>
      </g>
     </g>
     <g id="text_9">
      <!-- −1.5 -->
      <g transform="translate(26.317187 307.10053) scale(0.1 -0.1)">
       <defs>
        <path id="DejaVuSans-31" d="M 794 531 
L 1825 531 
L 1825 4091 
L 703 3866 
L 703 4441 
L 1819 4666 
L 2450 4666 
L 2450 531 
L 3481 531 
L 3481 0 
L 794 0 
L 794 531 
z
" transform="scale(0.015625)"/>
       </defs>
       <use xlink:href="#DejaVuSans-2212"/>
       <use xlink:href="#DejaVuSans-31" transform="translate(83.789062 0)"/>
       <use xlink:href="#DejaVuSans-2e" transform="translate(147.412109 0)"/>
       <use xlink:href="#DejaVuSans-35" transform="translate(179.199219 0)"/>
      </g>
     </g>
    </g>
    <g id="ytick_2">
     <g id="line2d_17">
      <path d="M 57.6 264.812074 
L 414.72 264.812074 
" clip-path="url(#pc7dca7bce0)" style="fill: none; stroke: #b0b0b0; stroke-width: 0.8; stroke-linecap: square"/>
     </g>
     <g id="line2d_18">
      <g>
       <use xlink:href="#m9d83592f0f" x="57.6" y="264.812074" style="stroke: #000000; stroke-width: 0.8"/>
      </g>
     </g>
     <g id="text_10">
      <!-- −1.0 -->
      <g transform="translate(26.317187 268.611293) scale(0.1 -0.1)">
       <use xlink:href="#DejaVuSans-2212"/>
       <use xlink:href="#DejaVuSans-31" transform="translate(83.789062 0)"/>
       <use xlink:href="#DejaVuSans-2e" transform="translate(147.412109 0)"/>
       <use xlink:href="#DejaVuSans-30" transform="translate(179.199219 0)"/>
      </g>
     </g>
    </g>
    <g id="ytick_3">
     <g id="line2d_19">
      <path d="M 57.6 226.322837 
L 414.72 226.322837 
" clip-path="url(#pc7dca7bce0)" style="fill: none; stroke: #b0b0b0; stroke-width: 0.8; stroke-linecap: square"/>
     </g>
     <g id="line2d_20">
      <g>
       <use xlink:href="#m9d83592f0f" x="57.6" y="226.322837" style="stroke: #000000; stroke-width: 0.8"/>
      </g>
     </g>
     <g id="text_11">
      <!-- −0.5 -->
      <g transform="translate(26.317187 230.122056) scale(0.1 -0.1)">
       <use xlink:href="#DejaVuSans-2212"/>
       <use xlink:href="#DejaVuSans-30" transform="translate(83.789062 0)"/>
       <use xlink:href="#DejaVuSans-2e" transform="translate(147.412109 0)"/>
       <use xlink:href="#DejaVuSans-35" transform="translate(179.199219 0)"/>
      </g>
     </g>
    </g>
    <g id="ytick_4">
     <g id="line2d_21">
      <path d="M 57.6 187.8336 
L 414.72 187.8336 
" clip-path="url(#pc7dca7bce0)" style="fill: none; stroke: #b0b0b0; stroke-width: 0.8; stroke-linecap: square"/>
     </g>
     <g id="line2d_22">
      <g>
       <use xlink:href="#m9d83592f0f" x="57.6" y="187.8336" style="stroke: #000000; stroke-width: 0.8"/>
      </g>
     </g>
     <g id="text_12">
      <!-- 0.0 -->
      <g transform="translate(34.696875 191.632819) scale(0.1 -0.1)">
       <use xlink:href="#DejaVuSans-30"/>
       <use xlink:href="#DejaVuSans-2e" transform="translate(63.623047 0)"/>
       <use xlink:href="#DejaVuSans-30" transform="translate(95.410156 0)"/>
      </g>
     </g>
    </g>
    <g id="ytick_5">
     <g id="line2d_23">
      <path d="M 57.6 149.344363 
L 414.72 149.344363 
" clip-path="url(#pc7dca7bce0)" style="fill: none; stroke: #b0b0b0; stroke-width: 0.8; stroke-linecap: square"/>
     </g>
     <g id="line2d_24">
      <g>
       <use xlink:href="#m9d83592f0f" x="57.6" y="149.344363" style="stroke: #000000; stroke-width: 0.8"/>
      </g>
     </g>
     <g id="text_13">
      <!-- 0.5 -->
      <g transform="translate(34.696875 153.143582) scale(0.1 -0.1)">
       <use xlink:href="#DejaVuSans-30"/>
       <use xlink:href="#DejaVuSans-2e" transform="translate(63.623047 0)"/>
       <use xlink:href="#DejaVuSans-35" transform="translate(95.410156 0)"/>
      </g>
     </g>
    </g>
    <g id="ytick_6">
     <g id="line2d_25">
      <path d="M 57.6 110.855126 
L 414.72 110.855126 
" clip-path="url(#pc7dca7bce0)" style="fill: none; stroke: #b0b0b0; stroke-width: 0.8; stroke-linecap: square"/>
     </g>
     <g id="line2d_26">
      <g>
       <use xlink:href="#m9d83592f0f" x="57.6" y="110.855126" style="stroke: #000000; stroke-width: 0.8"/>
      </g>
     </g>
     <g id="text_14">
      <!-- 1.0 -->
      <g transform="translate(34.696875 114.654344) scale(0.1 -0.1)">
       <use xlink:href="#DejaVuSans-31"/>
       <use xlink:href="#DejaVuSans-2e" transform="translate(63.623047 0)"/>
       <use xlink:href="#DejaVuSans-30" transform="translate(95.410156 0)"/>
      </g>
     </g>
    </g>
    <g id="ytick_7">
     <g id="line2d_27">
      <path d="M 57.6 72.365889 
L 414.72 72.365889 
" clip-path="url(#pc7dca7bce0)" style="fill: none; stroke: #b0b0b0; stroke-width: 0.8; stroke-linecap: square"/>
     </g>
     <g id="line2d_28">
      <g>
       <use xlink:href="#m9d83592f0f" x="57.6" y="72.365889" style="stroke: #000000; stroke-width: 0.8"/>
      </g>
     </g>
     <g id="text_15">
      <!-- 1.5 -->
      <g transform="translate(34.696875 76.165107) scale(0.1 -0.1)">
       <use xlink:href="#DejaVuSans-31"/>
       <use xlink:href="#DejaVuSans-2e" transform="translate(63.623047 0)"/>
       <use xlink:href="#DejaVuSans-35" transform="translate(95.410156 0)"/>
      </g>
     </g>
    </g>
    <g id="text_16">
     <!-- $\phi_i(x)$ -->
     <g transform="translate(20.217188 199.1336) rotate(-90) scale(0.1 -0.1)">
      <defs>
       <path id="DejaVuSans-Oblique-3d5" d="M 2991 4863 
L 2738 3572 
Q 3363 3572 3684 3094 
Q 4016 2606 3850 1747 
Q 3681 888 3159 400 
Q 2653 -78 2028 -78 
L 1784 -1331 
L 1213 -1331 
L 1456 -78 
Q 834 -78 509 400 
Q 178 888 347 1747 
Q 513 2606 1034 3094 
Q 1544 3572 2166 3572 
L 2419 4863 
L 2991 4863 
z
M 2128 434 
Q 2481 434 2784 756 
Q 3116 1116 3244 1747 
Q 3369 2372 3169 2738 
Q 2991 3059 2638 3059 
L 2128 434 
z
M 1556 434 
L 2066 3059 
Q 1716 3059 1413 2738 
Q 1072 2372 953 1747 
Q 834 1116 1028 756 
Q 1203 434 1556 434 
z
" transform="scale(0.015625)"/>
       <path id="DejaVuSans-Oblique-69" d="M 1172 4863 
L 1747 4863 
L 1606 4134 
L 1031 4134 
L 1172 4863 
z
M 909 3500 
L 1484 3500 
L 800 0 
L 225 0 
L 909 3500 
z
" transform="scale(0.015625)"/>
       <path id="DejaVuSans-28" d="M 1984 4856 
Q 1566 4138 1362 3434 
Q 1159 2731 1159 2009 
Q 1159 1288 1364 580 
Q 1569 -128 1984 -844 
L 1484 -844 
Q 1016 -109 783 600 
Q 550 1309 550 2009 
Q 550 2706 781 3412 
Q 1013 4119 1484 4856 
L 1984 4856 
z
" transform="scale(0.015625)"/>
       <path id="DejaVuSans-29" d="M 513 4856 
L 1013 4856 
Q 1481 4119 1714 3412 
Q 1947 2706 1947 2009 
Q 1947 1309 1714 600 
Q 1481 -109 1013 -844 
L 513 -844 
Q 928 -128 1133 580 
Q 1338 1288 1338 2009 
Q 1338 2731 1133 3434 
Q 928 4138 513 4856 
z
" transform="scale(0.015625)"/>
      </defs>
      <use xlink:href="#DejaVuSans-Oblique-3d5" transform="translate(0 0.015625)"/>
      <use xlink:href="#DejaVuSans-Oblique-69" transform="translate(65.966797 -16.390625) scale(0.7)"/>
      <use xlink:href="#DejaVuSans-28" transform="translate(88.149414 0.015625)"/>
      <use xlink:href="#DejaVuSans-Oblique-78" transform="translate(127.163086 0.015625)"/>
      <use xlink:href="#DejaVuSans-29" transform="translate(186.342773 0.015625)"/>
     </g>
    </g>
   </g>
   <g id="line2d_29">
    <path d="M 57.6 110.855126 
L 414.72 110.855126 
L 414.72 110.855126 
" clip-path="url(#pc7dca7bce0)" style="fill: none; stroke: #1f77b4; stroke-width: 1.5; stroke-linecap: square"/>
   </g>
   <g id="line2d_30">
    <path d="M 57.6 296.697065 
L 414.72 78.970135 
L 414.72 78.970135 
" clip-path="url(#pc7dca7bce0)" style="fill: none; stroke: #ff7f0e; stroke-width: 1.5; stroke-linecap: square"/>
   </g>
   <g id="line2d_31">
    <path d="M 57.6 78.971747 
L 64.778291 96.125472 
L 71.956583 112.575454 
L 79.134874 128.321694 
L 84.518593 139.669543 
L 89.902312 150.621537 
L 95.28603 161.177676 
L 100.669749 171.337959 
L 106.053467 181.102387 
L 111.437186 190.47096 
L 116.820905 199.443678 
L 122.204623 208.02054 
L 127.588342 216.201548 
L 132.97206 223.9867 
L 138.355779 231.375997 
L 143.739497 238.369439 
L 149.123216 244.967025 
L 154.506935 251.168757 
L 159.890653 256.974633 
L 165.274372 262.384654 
L 170.65809 267.39882 
L 176.041809 272.01713 
L 181.425528 276.239586 
L 186.809246 280.066186 
L 192.192965 283.496931 
L 195.782111 285.564175 
L 199.371256 287.455483 
L 202.960402 289.170856 
L 206.549548 290.710292 
L 210.138693 292.073794 
L 213.727839 293.261359 
L 217.316985 294.272989 
L 220.906131 295.108684 
L 224.495276 295.768442 
L 228.084422 296.252265 
L 231.673568 296.560153 
L 235.262714 296.692104 
L 238.851859 296.64812 
L 242.441005 296.428201 
L 246.030151 296.032346 
L 249.619296 295.460555 
L 253.208442 294.712828 
L 256.797588 293.789166 
L 260.386734 292.689568 
L 263.975879 291.414035 
L 267.565025 289.962566 
L 271.154171 288.335161 
L 274.743317 286.531821 
L 278.332462 284.552545 
L 281.921608 282.397333 
L 285.510754 280.066186 
L 290.894472 276.239586 
L 296.278191 272.01713 
L 301.66191 267.39882 
L 307.045628 262.384654 
L 312.429347 256.974633 
L 317.813065 251.168757 
L 323.196784 244.967025 
L 328.580503 238.369439 
L 333.964221 231.375997 
L 339.34794 223.9867 
L 344.731658 216.201548 
L 350.115377 208.02054 
L 355.499095 199.443678 
L 360.882814 190.47096 
L 366.266533 181.102387 
L 371.650251 171.337959 
L 377.03397 161.177676 
L 382.417688 150.621537 
L 387.801407 139.669543 
L 393.185126 128.321694 
L 400.363417 112.575454 
L 407.541709 96.125472 
L 414.72 78.971747 
L 414.72 78.971747 
" clip-path="url(#pc7dca7bce0)" style="fill: none; stroke: #2ca02c; stroke-width: 1.5; stroke-linecap: square"/>
   </g>
   <g id="line2d_32">
    <path d="M 57.6 296.692767 
L 61.189146 277.523401 
L 64.778291 259.388426 
L 68.367437 242.266622 
L 71.956583 226.136772 
L 75.545729 210.977658 
L 79.134874 196.768061 
L 82.72402 183.486764 
L 86.313166 171.112547 
L 89.902312 159.624192 
L 93.491457 149.000482 
L 97.080603 139.220198 
L 100.669749 130.262122 
L 104.258894 122.105035 
L 107.84804 114.727719 
L 111.437186 108.108956 
L 115.026332 102.227528 
L 118.615477 97.062216 
L 122.204623 92.591803 
L 123.999196 90.610552 
L 125.793769 88.795069 
L 127.588342 87.142702 
L 129.382915 85.650797 
L 131.177487 84.316704 
L 132.97206 83.137769 
L 134.766633 82.11134 
L 136.561206 81.234765 
L 138.355779 80.505392 
L 140.150352 79.920568 
L 141.944925 79.477642 
L 143.739497 79.17396 
L 145.53407 79.006871 
L 147.328643 78.973722 
L 149.123216 79.071862 
L 150.917789 79.298637 
L 152.712362 79.651395 
L 154.506935 80.127485 
L 156.301508 80.724253 
L 159.890653 82.269217 
L 163.479799 84.26507 
L 167.068945 86.690592 
L 170.65809 89.524566 
L 174.247236 92.745774 
L 177.836382 96.332996 
L 181.425528 100.265015 
L 185.014673 104.520613 
L 188.603819 109.078571 
L 192.192965 113.91767 
L 197.576683 121.657047 
L 202.960402 129.90964 
L 208.344121 138.603838 
L 213.727839 147.668029 
L 220.906131 160.20539 
L 229.878995 176.364448 
L 251.413869 215.46181 
L 258.592161 227.999171 
L 263.975879 237.063362 
L 269.359598 245.75756 
L 274.743317 254.010153 
L 280.127035 261.74953 
L 283.716181 266.588629 
L 287.305327 271.146587 
L 290.894472 275.402185 
L 294.483618 279.334204 
L 298.072764 282.921426 
L 301.66191 286.142634 
L 305.251055 288.976608 
L 308.840201 291.40213 
L 312.429347 293.397983 
L 316.018492 294.942947 
L 317.813065 295.539715 
L 319.607638 296.015805 
L 321.402211 296.368563 
L 323.196784 296.595338 
L 324.991357 296.693478 
L 326.78593 296.660329 
L 328.580503 296.49324 
L 330.375075 296.189558 
L 332.169648 295.746632 
L 333.964221 295.161808 
L 335.758794 294.432435 
L 337.553367 293.55586 
L 339.34794 292.529431 
L 341.142513 291.350496 
L 342.937085 290.016403 
L 344.731658 288.524498 
L 346.526231 286.872131 
L 348.320804 285.056648 
L 350.115377 283.075397 
L 353.704523 278.604984 
L 357.293668 273.439672 
L 360.882814 267.558244 
L 364.47196 260.939481 
L 368.061106 253.562165 
L 371.650251 245.405078 
L 375.239397 236.447002 
L 378.828543 226.666718 
L 382.417688 216.043008 
L 386.006834 204.554653 
L 389.59598 192.180436 
L 393.185126 178.899139 
L 396.774271 164.689542 
L 400.363417 149.530428 
L 403.952563 133.400578 
L 407.541709 116.278774 
L 411.130854 98.143799 
L 414.72 78.974433 
L 414.72 78.974433 
" clip-path="url(#pc7dca7bce0)" style="fill: none; stroke: #d62728; stroke-width: 1.5; stroke-linecap: square"/>
   </g>
   <g id="line2d_33">
    <path d="M 57.6 78.978193 
L 61.189146 112.257508 
L 64.778291 142.185907 
L 68.367437 168.928017 
L 71.956583 192.645053 
L 73.751156 203.418615 
L 75.545729 213.494819 
L 77.340302 222.892856 
L 79.134874 231.631706 
L 80.929447 239.730135 
L 82.72402 247.206695 
L 84.518593 254.079725 
L 86.313166 260.367351 
L 88.107739 266.087487 
L 89.902312 271.257832 
L 91.696884 275.895871 
L 93.491457 280.018879 
L 95.28603 283.643915 
L 97.080603 286.787826 
L 98.875176 289.467245 
L 100.669749 291.698591 
L 102.464322 293.498073 
L 104.258894 294.881683 
L 106.053467 295.865202 
L 107.84804 296.464197 
L 109.642613 296.694021 
L 111.437186 296.569816 
L 113.231759 296.106509 
L 115.026332 295.318813 
L 116.820905 294.22123 
L 118.615477 292.828047 
L 120.41005 291.153339 
L 122.204623 289.210967 
L 123.999196 287.014578 
L 125.793769 284.577607 
L 127.588342 281.913276 
L 131.177487 275.954352 
L 134.766633 269.239311 
L 138.355779 261.866248 
L 141.944925 253.929844 
L 145.53407 245.521369 
L 150.917789 232.214783 
L 158.09608 213.611818 
L 176.041809 166.500905 
L 181.425528 153.112612 
L 186.809246 140.413619 
L 190.398392 132.413735 
L 193.987538 124.83998 
L 197.576683 117.73415 
L 201.165829 111.134632 
L 204.754975 105.076397 
L 208.344121 99.591005 
L 211.933266 94.706606 
L 215.522412 90.447937 
L 217.316985 88.560048 
L 219.111558 86.836322 
L 220.906131 85.278891 
L 222.700704 83.889674 
L 224.495276 82.670377 
L 226.289849 81.622494 
L 228.084422 80.747303 
L 229.878995 80.04587 
L 231.673568 79.519049 
L 233.468141 79.16748 
L 235.262714 78.991589 
L 237.057286 78.991589 
L 238.851859 79.16748 
L 240.646432 79.519049 
L 242.441005 80.04587 
L 244.235578 80.747303 
L 246.030151 81.622494 
L 247.824724 82.670377 
L 249.619296 83.889674 
L 251.413869 85.278891 
L 253.208442 86.836322 
L 255.003015 88.560048 
L 256.797588 90.447937 
L 260.386734 94.706606 
L 263.975879 99.591005 
L 267.565025 105.076397 
L 271.154171 111.134632 
L 274.743317 117.73415 
L 278.332462 124.83998 
L 281.921608 132.413735 
L 285.510754 140.413619 
L 290.894472 153.112612 
L 296.278191 166.500905 
L 303.456482 185.103266 
L 321.402211 232.214783 
L 326.78593 245.521369 
L 330.375075 253.929844 
L 333.964221 261.866248 
L 337.553367 269.239311 
L 341.142513 275.954352 
L 344.731658 281.913276 
L 346.526231 284.577607 
L 348.320804 287.014578 
L 350.115377 289.210967 
L 351.90995 291.153339 
L 353.704523 292.828047 
L 355.499095 294.22123 
L 357.293668 295.318813 
L 359.088241 296.106509 
L 360.882814 296.569816 
L 362.677387 296.694021 
L 364.47196 296.464197 
L 366.266533 295.865202 
L 368.061106 294.881683 
L 369.855678 293.498073 
L 371.650251 291.698591 
L 373.444824 289.467245 
L 375.239397 286.787826 
L 377.03397 283.643915 
L 378.828543 280.018879 
L 380.623116 275.895871 
L 382.417688 271.257832 
L 384.212261 266.087487 
L 386.006834 260.367351 
L 387.801407 254.079725 
L 389.59598 247.206695 
L 391.390553 239.730135 
L 393.185126 231.631706 
L 394.979698 222.892856 
L 396.774271 213.494819 
L 398.568844 203.418615 
L 400.363417 192.645053 
L 402.15799 181.154726 
L 405.747136 155.945092 
L 409.336281 127.630203 
L 412.925427 96.047138 
L 414.72 78.978193 
L 414.72 78.978193 
" clip-path="url(#pc7dca7bce0)" style="fill: none; stroke: #9467bd; stroke-width: 1.5; stroke-linecap: square"/>
   </g>
   <g id="line2d_34">
    <path d="M 57.6 296.684172 
L 59.394573 270.416815 
L 61.189146 246.257017 
L 62.983719 224.115122 
L 64.778291 203.903562 
L 66.572864 185.536839 
L 68.367437 168.931499 
L 70.16201 154.006116 
L 71.956583 140.681267 
L 73.751156 128.87951 
L 75.545729 118.525366 
L 77.340302 109.545294 
L 79.134874 101.867673 
L 80.929447 95.422778 
L 82.72402 90.142757 
L 84.518593 85.961616 
L 86.313166 82.815189 
L 88.107739 80.641125 
L 89.902312 79.378861 
L 91.696884 78.9696 
L 93.491457 79.356295 
L 95.28603 80.483623 
L 97.080603 82.297964 
L 98.875176 84.747381 
L 100.669749 87.781598 
L 102.464322 91.35198 
L 104.258894 95.411507 
L 106.053467 99.914758 
L 107.84804 104.817887 
L 111.437186 115.656139 
L 115.026332 127.606183 
L 118.615477 140.371771 
L 123.999196 160.458044 
L 134.766633 201.105609 
L 140.150352 220.331813 
L 143.739497 232.369126 
L 147.328643 243.627655 
L 150.917789 253.994779 
L 154.506935 263.374852 
L 158.09608 271.688515 
L 159.890653 275.424928 
L 161.685226 278.872012 
L 163.479799 282.024122 
L 165.274372 284.876503 
L 167.068945 287.42527 
L 168.863518 289.667381 
L 170.65809 291.600622 
L 172.452663 293.223582 
L 174.247236 294.53563 
L 176.041809 295.5369 
L 177.836382 296.228261 
L 179.630955 296.611304 
L 181.425528 296.688314 
L 183.220101 296.462251 
L 185.014673 295.93673 
L 186.809246 295.115998 
L 188.603819 294.004911 
L 190.398392 292.608918 
L 192.192965 290.934032 
L 193.987538 288.986816 
L 195.782111 286.774354 
L 197.576683 284.304238 
L 199.371256 281.58454 
L 201.165829 278.623792 
L 204.754975 272.015456 
L 208.344121 264.555894 
L 211.933266 256.327775 
L 215.522412 247.419078 
L 219.111558 237.922415 
L 224.495276 222.787104 
L 229.878995 206.885771 
L 247.824724 152.880096 
L 253.208442 137.744785 
L 256.797588 128.248122 
L 260.386734 119.339425 
L 263.975879 111.111306 
L 267.565025 103.651744 
L 271.154171 97.043408 
L 272.948744 94.08266 
L 274.743317 91.362962 
L 276.537889 88.892846 
L 278.332462 86.680384 
L 280.127035 84.733168 
L 281.921608 83.058282 
L 283.716181 81.662289 
L 285.510754 80.551202 
L 287.305327 79.73047 
L 289.099899 79.204949 
L 290.894472 78.978886 
L 292.689045 79.055896 
L 294.483618 79.438939 
L 296.278191 80.1303 
L 298.072764 81.13157 
L 299.867337 82.443618 
L 301.66191 84.066578 
L 303.456482 85.999819 
L 305.251055 88.24193 
L 307.045628 90.790697 
L 308.840201 93.643078 
L 310.634774 96.795188 
L 312.429347 100.242272 
L 314.22392 103.978685 
L 316.018492 107.997873 
L 319.607638 116.853669 
L 323.196784 126.738189 
L 326.78593 137.564016 
L 330.375075 149.227103 
L 333.964221 161.606083 
L 339.34794 181.206898 
L 355.499095 241.762563 
L 359.088241 254.155947 
L 362.677387 265.5886 
L 364.47196 270.849313 
L 366.266533 275.752442 
L 368.061106 280.255693 
L 369.855678 284.31522 
L 371.650251 287.885602 
L 373.444824 290.919819 
L 375.239397 293.369236 
L 377.03397 295.183577 
L 378.828543 296.310905 
L 380.623116 296.6976 
L 382.417688 296.288339 
L 384.212261 295.026075 
L 386.006834 292.852011 
L 387.801407 289.705584 
L 389.59598 285.524443 
L 391.390553 280.244422 
L 393.185126 273.799527 
L 394.979698 266.121906 
L 396.774271 257.141834 
L 398.568844 246.78769 
L 400.363417 234.985933 
L 402.15799 221.661084 
L 403.952563 206.735701 
L 405.747136 190.130361 
L 407.541709 171.763638 
L 409.336281 151.552078 
L 411.130854 129.410183 
L 412.925427 105.250385 
L 414.72 78.983028 
L 414.72 78.983028 
" clip-path="url(#pc7dca7bce0)" style="fill: none; stroke: #8c564b; stroke-width: 1.5; stroke-linecap: square"/>
   </g>
   <g id="line2d_35">
    <path d="M 57.6 78.988937 
L 59.394573 116.114404 
L 61.189146 148.912103 
L 62.983719 177.662131 
L 64.778291 202.633578 
L 66.572864 224.084779 
L 68.367437 242.263559 
L 70.16201 257.407485 
L 71.956583 269.744101 
L 73.751156 279.491175 
L 75.545729 286.856931 
L 77.340302 292.040291 
L 79.134874 295.231101 
L 80.929447 296.610365 
L 82.72402 296.350472 
L 84.518593 294.615419 
L 86.313166 291.561035 
L 88.107739 287.335201 
L 89.902312 282.078065 
L 91.696884 275.922258 
L 93.491457 268.993108 
L 95.28603 261.408845 
L 98.875176 244.713661 
L 102.464322 226.648429 
L 113.231759 170.878447 
L 116.820905 153.531564 
L 120.41005 137.487141 
L 123.999196 123.043854 
L 125.793769 116.497897 
L 127.588342 110.434801 
L 129.382915 104.874319 
L 131.177487 99.832751 
L 132.97206 95.3231 
L 134.766633 91.355229 
L 136.561206 87.936003 
L 138.355779 85.069443 
L 140.150352 82.756866 
L 141.944925 80.997032 
L 143.739497 79.78628 
L 145.53407 79.118666 
L 147.328643 78.986096 
L 149.123216 79.378461 
L 150.917789 80.283764 
L 152.712362 81.688247 
L 154.506935 83.576514 
L 156.301508 85.931656 
L 158.09608 88.735366 
L 159.890653 91.968056 
L 161.685226 95.608974 
L 163.479799 99.636311 
L 165.274372 104.027311 
L 167.068945 108.758379 
L 170.65809 119.142746 
L 174.247236 130.587694 
L 177.836382 142.884397 
L 183.220101 162.460124 
L 199.371256 222.667514 
L 202.960402 235.057664 
L 206.549548 246.690858 
L 210.138693 257.406618 
L 213.727839 267.059282 
L 215.522412 271.445803 
L 217.316985 275.519284 
L 219.111558 279.266227 
L 220.906131 282.674271 
L 222.700704 285.732218 
L 224.495276 288.430056 
L 226.289849 290.758977 
L 228.084422 292.7114 
L 229.878995 294.280983 
L 231.673568 295.462636 
L 233.468141 296.252535 
L 235.262714 296.648124 
L 237.057286 296.648124 
L 238.851859 296.252535 
L 240.646432 295.462636 
L 242.441005 294.280983 
L 244.235578 292.7114 
L 246.030151 290.758977 
L 247.824724 288.430056 
L 249.619296 285.732218 
L 251.413869 282.674271 
L 253.208442 279.266227 
L 255.003015 275.519284 
L 256.797588 271.445803 
L 258.592161 267.059282 
L 262.181307 257.406618 
L 265.770452 246.690858 
L 269.359598 235.057664 
L 272.948744 222.667514 
L 278.332462 203.04654 
L 294.483618 142.884397 
L 298.072764 130.587694 
L 301.66191 119.142746 
L 305.251055 108.758379 
L 307.045628 104.027311 
L 308.840201 99.636311 
L 310.634774 95.608974 
L 312.429347 91.968056 
L 314.22392 88.735366 
L 316.018492 85.931656 
L 317.813065 83.576514 
L 319.607638 81.688247 
L 321.402211 80.283764 
L 323.196784 79.378461 
L 324.991357 78.986096 
L 326.78593 79.118666 
L 328.580503 79.78628 
L 330.375075 80.997032 
L 332.169648 82.756866 
L 333.964221 85.069443 
L 335.758794 87.936003 
L 337.553367 91.355229 
L 339.34794 95.3231 
L 341.142513 99.832751 
L 342.937085 104.874319 
L 344.731658 110.434801 
L 346.526231 116.497897 
L 348.320804 123.043854 
L 351.90995 137.487141 
L 355.499095 153.531564 
L 359.088241 170.878447 
L 364.47196 198.51143 
L 371.650251 235.805571 
L 375.239397 253.280811 
L 377.03397 261.408845 
L 378.828543 268.993108 
L 380.623116 275.922258 
L 382.417688 282.078065 
L 384.212261 287.335201 
L 386.006834 291.561035 
L 387.801407 294.615419 
L 389.59598 296.350472 
L 391.390553 296.610365 
L 393.185126 295.231101 
L 394.979698 292.040291 
L 396.774271 286.856931 
L 398.568844 279.491175 
L 400.363417 269.744101 
L 402.15799 257.407485 
L 403.952563 242.263559 
L 405.747136 224.084779 
L 407.541709 202.633578 
L 409.336281 177.662131 
L 411.130854 148.912103 
L 412.925427 116.114404 
L 414.72 78.988937 
L 414.72 78.988937 
" clip-path="url(#pc7dca7bce0)" style="fill: none; stroke: #e377c2; stroke-width: 1.5; stroke-linecap: square"/>
   </g>
   <g id="line2d_36">
    <path d="M 57.6 296.671279 
L 59.394573 247.246484 
L 61.189146 205.688117 
L 62.983719 171.281563 
L 64.778291 143.353769 
L 66.572864 121.271678 
L 68.367437 104.440704 
L 70.16201 92.303242 
L 71.956583 84.337212 
L 73.751156 80.054634 
L 75.545729 79.000238 
L 77.340302 80.750114 
L 79.134874 84.910382 
L 80.929447 91.115904 
L 82.72402 99.02903 
L 84.518593 108.338365 
L 86.313166 118.757577 
L 89.902312 141.898672 
L 100.669749 215.084277 
L 104.258894 236.681213 
L 106.053467 246.47468 
L 107.84804 255.503362 
L 109.642613 263.711662 
L 111.437186 271.055414 
L 113.231759 277.501118 
L 115.026332 283.0252 
L 116.820905 287.613298 
L 118.615477 291.259567 
L 120.41005 293.966014 
L 122.204623 295.741857 
L 123.999196 296.602907 
L 125.793769 296.570972 
L 127.588342 295.673285 
L 129.382915 293.941956 
L 131.177487 291.413444 
L 132.97206 288.128053 
L 134.766633 284.129451 
L 136.561206 279.464204 
L 138.355779 274.181338 
L 140.150352 268.33192 
L 141.944925 261.968653 
L 145.53407 247.917325 
L 149.123216 232.467803 
L 154.506935 207.642579 
L 163.479799 165.441522 
L 167.068945 149.435517 
L 170.65809 134.462634 
L 174.247236 120.82954 
L 176.041809 114.600301 
L 177.836382 108.802595 
L 179.630955 103.462999 
L 181.425528 98.6053 
L 183.220101 94.250454 
L 185.014673 90.416563 
L 186.809246 87.118864 
L 188.603819 84.369718 
L 190.398392 82.178627 
L 192.192965 80.552245 
L 193.987538 79.494408 
L 195.782111 79.006168 
L 197.576683 79.085841 
L 199.371256 79.729058 
L 201.165829 80.928829 
L 202.960402 82.675612 
L 204.754975 84.95739 
L 206.549548 87.759755 
L 208.344121 91.065999 
L 210.138693 94.857215 
L 211.933266 99.112393 
L 213.727839 103.808537 
L 215.522412 108.920774 
L 217.316985 114.422473 
L 220.906131 126.479713 
L 224.495276 139.736905 
L 228.084422 153.930924 
L 233.468141 176.366373 
L 244.235578 221.736276 
L 247.824724 235.930295 
L 251.413869 249.187487 
L 255.003015 261.244727 
L 256.797588 266.746426 
L 258.592161 271.858663 
L 260.386734 276.554807 
L 262.181307 280.809985 
L 263.975879 284.601201 
L 265.770452 287.907445 
L 267.565025 290.70981 
L 269.359598 292.991588 
L 271.154171 294.738371 
L 272.948744 295.938142 
L 274.743317 296.581359 
L 276.537889 296.661032 
L 278.332462 296.172792 
L 280.127035 295.114955 
L 281.921608 293.488573 
L 283.716181 291.297482 
L 285.510754 288.548336 
L 287.305327 285.250637 
L 289.099899 281.416746 
L 290.894472 277.0619 
L 292.689045 272.204201 
L 294.483618 266.864605 
L 296.278191 261.066899 
L 298.072764 254.83766 
L 301.66191 241.204566 
L 305.251055 226.231683 
L 308.840201 210.225678 
L 314.22392 185.040235 
L 321.402211 151.309513 
L 324.991357 135.327658 
L 328.580503 120.521699 
L 330.375075 113.698547 
L 332.169648 107.33528 
L 333.964221 101.485862 
L 335.758794 96.202996 
L 337.553367 91.537749 
L 339.34794 87.539147 
L 341.142513 84.253756 
L 342.937085 81.725244 
L 344.731658 79.993915 
L 346.526231 79.096228 
L 348.320804 79.064293 
L 350.115377 79.925343 
L 351.90995 81.701186 
L 353.704523 84.407633 
L 355.499095 88.053902 
L 357.293668 92.642 
L 359.088241 98.166082 
L 360.882814 104.611786 
L 362.677387 111.955538 
L 364.47196 120.163838 
L 366.266533 129.19252 
L 368.061106 138.985987 
L 371.650251 160.582923 
L 375.239397 184.250401 
L 384.212261 245.642966 
L 386.006834 256.909623 
L 387.801407 267.328835 
L 389.59598 276.63817 
L 391.390553 284.551296 
L 393.185126 290.756818 
L 394.979698 294.917086 
L 396.774271 296.666962 
L 398.568844 295.612566 
L 400.363417 291.329988 
L 402.15799 283.363958 
L 403.952563 271.226496 
L 405.747136 254.395522 
L 407.541709 232.313431 
L 409.336281 204.385637 
L 411.130854 169.979083 
L 412.925427 128.420716 
L 414.72 78.995921 
L 414.72 78.995921 
" clip-path="url(#pc7dca7bce0)" style="fill: none; stroke: #7f7f7f; stroke-width: 1.5; stroke-linecap: square"/>
   </g>
   <g id="patch_3">
    <path d="M 57.6 307.584 
L 57.6 68.0832 
" style="fill: none; stroke: #000000; stroke-width: 0.8; stroke-linejoin: miter; stroke-linecap: square"/>
   </g>
   <g id="patch_4">
    <path d="M 414.72 307.584 
L 414.72 68.0832 
" style="fill: none; stroke: #000000; stroke-width: 0.8; stroke-linejoin: miter; stroke-linecap: square"/>
   </g>
   <g id="patch_5">
    <path d="M 57.6 307.584 
L 414.72 307.584 
" style="fill: none; stroke: #000000; stroke-width: 0.8; stroke-linejoin: miter; stroke-linecap: square"/>
   </g>
   <g id="patch_6">
    <path d="M 57.6 68.0832 
L 414.72 68.0832 
" style="fill: none; stroke: #000000; stroke-width: 0.8; stroke-linejoin: miter; stroke-linecap: square"/>
   </g>
   <g id="legend_1">
    <g id="patch_7">
     <path d="M 109.16 46.608 
L 363.16 46.608 
Q 365.16 46.608 365.16 44.608 
L 365.16 15.208 
Q 365.16 13.208 363.16 13.208 
L 109.16 13.208 
Q 107.16 13.208 107.16 15.208 
L 107.16 44.608 
Q 107.16 46.608 109.16 46.608 
z
" style="fill: #ffffff; opacity: 0.8; stroke: #cccccc; stroke-linejoin: miter"/>
    </g>
    <g id="line2d_37">
     <path d="M 111.16 21.308 
L 121.16 21.308 
L 131.16 21.308 
" style="fill: none; stroke: #1f77b4; stroke-width: 1.5; stroke-linecap: square"/>
    </g>
    <g id="text_17">
     <!-- $\phi_(x)$ -->
     <g transform="translate(139.16 24.808) scale(0.1 -0.1)">
      <use xlink:href="#DejaVuSans-Oblique-3d5" transform="translate(0 0.015625)"/>
      <use xlink:href="#DejaVuSans-28" transform="translate(65.966797 -16.390625) scale(0.7)"/>
      <use xlink:href="#DejaVuSans-Oblique-78" transform="translate(96.010742 0.015625)"/>
      <use xlink:href="#DejaVuSans-29" transform="translate(155.19043 0.015625)"/>
     </g>
    </g>
    <g id="line2d_38">
     <path d="M 111.16 36.508 
L 121.16 36.508 
L 131.16 36.508 
" style="fill: none; stroke: #ff7f0e; stroke-width: 1.5; stroke-linecap: square"/>
    </g>
    <g id="text_18">
     <!-- $\phi_(x)$ -->
     <g transform="translate(139.16 40.008) scale(0.1 -0.1)">
      <use xlink:href="#DejaVuSans-Oblique-3d5" transform="translate(0 0.015625)"/>
      <use xlink:href="#DejaVuSans-28" transform="translate(65.966797 -16.390625) scale(0.7)"/>
      <use xlink:href="#DejaVuSans-Oblique-78" transform="translate(96.010742 0.015625)"/>
      <use xlink:href="#DejaVuSans-29" transform="translate(155.19043 0.015625)"/>
     </g>
    </g>
    <g id="line2d_39">
     <path d="M 178.66 21.308 
L 188.66 21.308 
L 198.66 21.308 
" style="fill: none; stroke: #2ca02c; stroke-width: 1.5; stroke-linecap: square"/>
    </g>
    <g id="text_19">
     <!-- $\phi_(x)$ -->
     <g transform="translate(206.66 24.808) scale(0.1 -0.1)">
      <use xlink:href="#DejaVuSans-Oblique-3d5" transform="translate(0 0.015625)"/>
      <use xlink:href="#DejaVuSans-28" transform="translate(65.966797 -16.390625) scale(0.7)"/>
      <use xlink:href="#DejaVuSans-Oblique-78" transform="translate(96.010742 0.015625)"/>
      <use xlink:href="#DejaVuSans-29" transform="translate(155.19043 0.015625)"/>
     </g>
    </g>
    <g id="line2d_40">
     <path d="M 178.66 36.508 
L 188.66 36.508 
L 198.66 36.508 
" style="fill: none; stroke: #d62728; stroke-width: 1.5; stroke-linecap: square"/>
    </g>
    <g id="text_20">
     <!-- $\phi_(x)$ -->
     <g transform="translate(206.66 40.008) scale(0.1 -0.1)">
      <use xlink:href="#DejaVuSans-Oblique-3d5" transform="translate(0 0.015625)"/>
      <use xlink:href="#DejaVuSans-28" transform="translate(65.966797 -16.390625) scale(0.7)"/>
      <use xlink:href="#DejaVuSans-Oblique-78" transform="translate(96.010742 0.015625)"/>
      <use xlink:href="#DejaVuSans-29" transform="translate(155.19043 0.015625)"/>
     </g>
    </g>
    <g id="line2d_41">
     <path d="M 246.16 21.308 
L 256.16 21.308 
L 266.16 21.308 
" style="fill: none; stroke: #9467bd; stroke-width: 1.5; stroke-linecap: square"/>
    </g>
    <g id="text_21">
     <!-- $\phi_(x)$ -->
     <g transform="translate(274.16 24.808) scale(0.1 -0.1)">
      <use xlink:href="#DejaVuSans-Oblique-3d5" transform="translate(0 0.015625)"/>
      <use xlink:href="#DejaVuSans-28" transform="translate(65.966797 -16.390625) scale(0.7)"/>
      <use xlink:href="#DejaVuSans-Oblique-78" transform="translate(96.010742 0.015625)"/>
      <use xlink:href="#DejaVuSans-29" transform="translate(155.19043 0.015625)"/>
     </g>
    </g>
    <g id="line2d_42">
     <path d="M 246.16 36.508 
L 256.16 36.508 
L 266.16 36.508 
" style="fill: none; stroke: #8c564b; stroke-width: 1.5; stroke-linecap: square"/>
    </g>
    <g id="text_22">
     <!-- $\phi_(x)$ -->
     <g transform="translate(274.16 40.008) scale(0.1 -0.1)">
      <use xlink:href="#DejaVuSans-Oblique-3d5" transform="translate(0 0.015625)"/>
      <use xlink:href="#DejaVuSans-28" transform="translate(65.966797 -16.390625) scale(0.7)"/>
      <use xlink:href="#DejaVuSans-Oblique-78" transform="translate(96.010742 0.015625)"/>
      <use xlink:href="#DejaVuSans-29" transform="translate(155.19043 0.015625)"/>
     </g>
    </g>
    <g id="line2d_43">
     <path d="M 313.66 21.308 
L 323.66 21.308 
L 333.66 21.308 
" style="fill: none; stroke: #e377c2; stroke-width: 1.5; stroke-linecap: square"/>
    </g>
    <g id="text_23">
     <!-- $\phi_(x)$ -->
     <g transform="translate(341.66 24.808) scale(0.1 -0.1)">
      <use xlink:href="#DejaVuSans-Oblique-3d5" transform="translate(0 0.015625)"/>
      <use xlink:href="#DejaVuSans-28" transform="translate(65.966797 -16.390625) scale(0.7)"/>
      <use xlink:href="#DejaVuSans-Oblique-78" transform="translate(96.010742 0.015625)"/>
      <use xlink:href="#DejaVuSans-29" transform="translate(155.19043 0.015625)"/>
     </g>
    </g>
    <g id="line2d_44">
     <path d="M 313.66 36.508 
L 323.66 36.508 
L 333.66 36.508 
" style="fill: none; stroke: #7f7f7f; stroke-width: 1.5; stroke-linecap: square"/>
    </g>
    <g id="text_24">
     <!-- $\phi_(x)$ -->
     <g transform="translate(341.66 40.008) scale(0.1 -0.1)">
      <use xlink:href="#DejaVuSans-Oblique-3d5" transform="translate(0 0.015625)"/>
      <use xlink:href="#DejaVuSans-28" transform="translate(65.966797 -16.390625) scale(0.7)"/>
      <use xlink:href="#DejaVuSans-Oblique-78" transform="translate(96.010742 0.015625)"/>
      <use xlink:href="#DejaVuSans-29" transform="translate(155.19043 0.015625)"/>
     </g>
    </g>
   </g>
  </g>
 </g>
 <defs>
  <clipPath id="pc7dca7bce0">
   <rect x="57.6" y="68.0832" width="357.12" height="239.5008"/>
  </clipPath>
 </defs>
</svg>
