<?xml version="1.0" encoding="utf-8" standalone="no"?>
<!DOCTYPE svg PUBLIC "-//W3C//DTD SVG 1.1//EN"
  "http://www.w3.org/Graphics/SVG/1.1/DTD/svg11.dtd">
<svg xmlns:xlink="http://www.w3.org/1999/xlink" width="460.8pt" height="345.6pt" viewBox="0 0 460.8 345.6" xmlns="http://www.w3.org/2000/svg" version="1.1">
 <metadata>
  <rdf:RDF xmlns:dc="http://purl.org/dc/elements/1.1/" xmlns:cc="http://creativecommons.org/ns#" xmlns:rdf="http://www.w3.org/1999/02/22-rdf-syntax-ns#">
   <cc:Work>
    <dc:type rdf:resource="http://purl.org/dc/dcmitype/StillImage"/>
    <dc:date>2025-09-26T12:04:27.079739</dc:date>
    <dc:format>image/svg+xml</dc:format>
    <dc:creator>
     <cc:Agent>
      <dc:title>Matplotlib v3.10.6, https://matplotlib.org/</dc:title>
     </cc:Agent>
    </dc:creator>
   </cc:Work>
  </rdf:RDF>
 </metadata>
 <defs>
  <style type="text/css">*{stroke-linejoin: round; stroke-linecap: butt}</style>
 </defs>
 <g id="figure_1">
  <g id="patch_1">
   <path d="M 0 345.6 
L 460.8 345.6 
L 460.8 0 
L 0 0 
z
" style="fill: #ffffff"/>
  </g>
  <g id="axes_1">
   <g id="patch_2">
    <path d="M 57.6 307.584 
L 414.72 307.584 
L 414.72 68.0832 
L 57.6 68.0832 
z
" style="fill: #ffffff"/>
   </g>
   <g id="matplotlib.axis_1">
    <g id="xtick_1">
     <g id="line2d_1">
      <path d="M 128.809299 307.584 
L 128.809299 68.0832 
" clip-path="url(#pd8bb29cc28)" style="fill: none; stroke: #b0b0b0; stroke-width: 0.8; stroke-linecap: square"/>
     </g>
     <g id="line2d_2">
      <defs>
       <path id="m2630016a0a" d="M 0 0 
L 0 3.5 
" style="stroke: #000000; stroke-width: 0.8"/>
      </defs>
      <g>
       <use xlink:href="#m2630016a0a" x="128.809299" y="307.584" style="stroke: #000000; stroke-width: 0.8"/>
      </g>
     </g>
     <g id="text_1">
      <!-- 0.2 -->
      <g transform="translate(120.857736 322.182437) scale(0.1 -0.1)">
       <defs>
        <path id="DejaVuSans-30" d="M 2034 4250 
Q 1547 4250 1301 3770 
Q 1056 3291 1056 2328 
Q 1056 1369 1301 889 
Q 1547 409 2034 409 
Q 2525 409 2770 889 
Q 3016 1369 3016 2328 
Q 3016 3291 2770 3770 
Q 2525 4250 2034 4250 
z
M 2034 4750 
Q 2819 4750 3233 4129 
Q 3647 3509 3647 2328 
Q 3647 1150 3233 529 
Q 2819 -91 2034 -91 
Q 1250 -91 836 529 
Q 422 1150 422 2328 
Q 422 3509 836 4129 
Q 1250 4750 2034 4750 
z
" transform="scale(0.015625)"/>
        <path id="DejaVuSans-2e" d="M 684 794 
L 1344 794 
L 1344 0 
L 684 0 
L 684 794 
z
" transform="scale(0.015625)"/>
        <path id="DejaVuSans-32" d="M 1228 531 
L 3431 531 
L 3431 0 
L 469 0 
L 469 531 
Q 828 903 1448 1529 
Q 2069 2156 2228 2338 
Q 2531 2678 2651 2914 
Q 2772 3150 2772 3378 
Q 2772 3750 2511 3984 
Q 2250 4219 1831 4219 
Q 1534 4219 1204 4116 
Q 875 4013 500 3803 
L 500 4441 
Q 881 4594 1212 4672 
Q 1544 4750 1819 4750 
Q 2544 4750 2975 4387 
Q 3406 4025 3406 3419 
Q 3406 3131 3298 2873 
Q 3191 2616 2906 2266 
Q 2828 2175 2409 1742 
Q 1991 1309 1228 531 
z
" transform="scale(0.015625)"/>
       </defs>
       <use xlink:href="#DejaVuSans-30"/>
       <use xlink:href="#DejaVuSans-2e" transform="translate(63.623047 0)"/>
       <use xlink:href="#DejaVuSans-32" transform="translate(95.410156 0)"/>
      </g>
     </g>
    </g>
    <g id="xtick_2">
     <g id="line2d_3">
      <path d="M 200.376433 307.584 
L 200.376433 68.0832 
" clip-path="url(#pd8bb29cc28)" style="fill: none; stroke: #b0b0b0; stroke-width: 0.8; stroke-linecap: square"/>
     </g>
     <g id="line2d_4">
      <g>
       <use xlink:href="#m2630016a0a" x="200.376433" y="307.584" style="stroke: #000000; stroke-width: 0.8"/>
      </g>
     </g>
     <g id="text_2">
      <!-- 0.4 -->
      <g transform="translate(192.42487 322.182437) scale(0.1 -0.1)">
       <defs>
        <path id="DejaVuSans-34" d="M 2419 4116 
L 825 1625 
L 2419 1625 
L 2419 4116 
z
M 2253 4666 
L 3047 4666 
L 3047 1625 
L 3713 1625 
L 3713 1100 
L 3047 1100 
L 3047 0 
L 2419 0 
L 2419 1100 
L 313 1100 
L 313 1709 
L 2253 4666 
z
" transform="scale(0.015625)"/>
       </defs>
       <use xlink:href="#DejaVuSans-30"/>
       <use xlink:href="#DejaVuSans-2e" transform="translate(63.623047 0)"/>
       <use xlink:href="#DejaVuSans-34" transform="translate(95.410156 0)"/>
      </g>
     </g>
    </g>
    <g id="xtick_3">
     <g id="line2d_5">
      <path d="M 271.943567 307.584 
L 271.943567 68.0832 
" clip-path="url(#pd8bb29cc28)" style="fill: none; stroke: #b0b0b0; stroke-width: 0.8; stroke-linecap: square"/>
     </g>
     <g id="line2d_6">
      <g>
       <use xlink:href="#m2630016a0a" x="271.943567" y="307.584" style="stroke: #000000; stroke-width: 0.8"/>
      </g>
     </g>
     <g id="text_3">
      <!-- 0.6 -->
      <g transform="translate(263.992005 322.182437) scale(0.1 -0.1)">
       <defs>
        <path id="DejaVuSans-36" d="M 2113 2584 
Q 1688 2584 1439 2293 
Q 1191 2003 1191 1497 
Q 1191 994 1439 701 
Q 1688 409 2113 409 
Q 2538 409 2786 701 
Q 3034 994 3034 1497 
Q 3034 2003 2786 2293 
Q 2538 2584 2113 2584 
z
M 3366 4563 
L 3366 3988 
Q 3128 4100 2886 4159 
Q 2644 4219 2406 4219 
Q 1781 4219 1451 3797 
Q 1122 3375 1075 2522 
Q 1259 2794 1537 2939 
Q 1816 3084 2150 3084 
Q 2853 3084 3261 2657 
Q 3669 2231 3669 1497 
Q 3669 778 3244 343 
Q 2819 -91 2113 -91 
Q 1303 -91 875 529 
Q 447 1150 447 2328 
Q 447 3434 972 4092 
Q 1497 4750 2381 4750 
Q 2619 4750 2861 4703 
Q 3103 4656 3366 4563 
z
" transform="scale(0.015625)"/>
       </defs>
       <use xlink:href="#DejaVuSans-30"/>
       <use xlink:href="#DejaVuSans-2e" transform="translate(63.623047 0)"/>
       <use xlink:href="#DejaVuSans-36" transform="translate(95.410156 0)"/>
      </g>
     </g>
    </g>
    <g id="xtick_4">
     <g id="line2d_7">
      <path d="M 343.510701 307.584 
L 343.510701 68.0832 
" clip-path="url(#pd8bb29cc28)" style="fill: none; stroke: #b0b0b0; stroke-width: 0.8; stroke-linecap: square"/>
     </g>
     <g id="line2d_8">
      <g>
       <use xlink:href="#m2630016a0a" x="343.510701" y="307.584" style="stroke: #000000; stroke-width: 0.8"/>
      </g>
     </g>
     <g id="text_4">
      <!-- 0.8 -->
      <g transform="translate(335.559139 322.182437) scale(0.1 -0.1)">
       <defs>
        <path id="DejaVuSans-38" d="M 2034 2216 
Q 1584 2216 1326 1975 
Q 1069 1734 1069 1313 
Q 1069 891 1326 650 
Q 1584 409 2034 409 
Q 2484 409 2743 651 
Q 3003 894 3003 1313 
Q 3003 1734 2745 1975 
Q 2488 2216 2034 2216 
z
M 1403 2484 
Q 997 2584 770 2862 
Q 544 3141 544 3541 
Q 544 4100 942 4425 
Q 1341 4750 2034 4750 
Q 2731 4750 3128 4425 
Q 3525 4100 3525 3541 
Q 3525 3141 3298 2862 
Q 3072 2584 2669 2484 
Q 3125 2378 3379 2068 
Q 3634 1759 3634 1313 
Q 3634 634 3220 271 
Q 2806 -91 2034 -91 
Q 1263 -91 848 271 
Q 434 634 434 1313 
Q 434 1759 690 2068 
Q 947 2378 1403 2484 
z
M 1172 3481 
Q 1172 3119 1398 2916 
Q 1625 2713 2034 2713 
Q 2441 2713 2670 2916 
Q 2900 3119 2900 3481 
Q 2900 3844 2670 4047 
Q 2441 4250 2034 4250 
Q 1625 4250 1398 4047 
Q 1172 3844 1172 3481 
z
" transform="scale(0.015625)"/>
       </defs>
       <use xlink:href="#DejaVuSans-30"/>
       <use xlink:href="#DejaVuSans-2e" transform="translate(63.623047 0)"/>
       <use xlink:href="#DejaVuSans-38" transform="translate(95.410156 0)"/>
      </g>
     </g>
    </g>
    <g id="text_5">
     <!-- $x$ -->
     <g transform="translate(233.16 335.860562) scale(0.1 -0.1)">
      <defs>
       <path id="DejaVuSans-Oblique-78" d="M 3841 3500 
L 2234 1784 
L 3219 0 
L 2559 0 
L 1819 1388 
L 531 0 
L -166 0 
L 1556 1844 
L 641 3500 
L 1300 3500 
L 1972 2234 
L 3144 3500 
L 3841 3500 
z
" transform="scale(0.015625)"/>
      </defs>
      <use xlink:href="#DejaVuSans-Oblique-78" transform="translate(0 0.3125)"/>
     </g>
    </g>
   </g>
   <g id="matplotlib.axis_2">
    <g id="ytick_1">
     <g id="line2d_9">
      <path d="M 57.6 306.842904 
L 414.72 306.842904 
" clip-path="url(#pd8bb29cc28)" style="fill: none; stroke: #b0b0b0; stroke-width: 0.8; stroke-linecap: square"/>
     </g>
     <g id="line2d_10">
      <defs>
       <path id="ma3abbd3cc2" d="M 0 0 
L -3.5 0 
" style="stroke: #000000; stroke-width: 0.8"/>
      </defs>
      <g>
       <use xlink:href="#ma3abbd3cc2" x="57.6" y="306.842904" style="stroke: #000000; stroke-width: 0.8"/>
      </g>
     </g>
     <g id="text_6">
      <!-- −4 -->
      <g transform="translate(35.857813 310.642123) scale(0.1 -0.1)">
       <defs>
        <path id="DejaVuSans-2212" d="M 678 2272 
L 4684 2272 
L 4684 1741 
L 678 1741 
L 678 2272 
z
" transform="scale(0.015625)"/>
       </defs>
       <use xlink:href="#DejaVuSans-2212"/>
       <use xlink:href="#DejaVuSans-34" transform="translate(83.789062 0)"/>
      </g>
     </g>
    </g>
    <g id="ytick_2">
     <g id="line2d_11">
      <path d="M 57.6 277.090578 
L 414.72 277.090578 
" clip-path="url(#pd8bb29cc28)" style="fill: none; stroke: #b0b0b0; stroke-width: 0.8; stroke-linecap: square"/>
     </g>
     <g id="line2d_12">
      <g>
       <use xlink:href="#ma3abbd3cc2" x="57.6" y="277.090578" style="stroke: #000000; stroke-width: 0.8"/>
      </g>
     </g>
     <g id="text_7">
      <!-- −3 -->
      <g transform="translate(35.857813 280.889797) scale(0.1 -0.1)">
       <defs>
        <path id="DejaVuSans-33" d="M 2597 2516 
Q 3050 2419 3304 2112 
Q 3559 1806 3559 1356 
Q 3559 666 3084 287 
Q 2609 -91 1734 -91 
Q 1441 -91 1130 -33 
Q 819 25 488 141 
L 488 750 
Q 750 597 1062 519 
Q 1375 441 1716 441 
Q 2309 441 2620 675 
Q 2931 909 2931 1356 
Q 2931 1769 2642 2001 
Q 2353 2234 1838 2234 
L 1294 2234 
L 1294 2753 
L 1863 2753 
Q 2328 2753 2575 2939 
Q 2822 3125 2822 3475 
Q 2822 3834 2567 4026 
Q 2313 4219 1838 4219 
Q 1578 4219 1281 4162 
Q 984 4106 628 3988 
L 628 4550 
Q 988 4650 1302 4700 
Q 1616 4750 1894 4750 
Q 2613 4750 3031 4423 
Q 3450 4097 3450 3541 
Q 3450 3153 3228 2886 
Q 3006 2619 2597 2516 
z
" transform="scale(0.015625)"/>
       </defs>
       <use xlink:href="#DejaVuSans-2212"/>
       <use xlink:href="#DejaVuSans-33" transform="translate(83.789062 0)"/>
      </g>
     </g>
    </g>
    <g id="ytick_3">
     <g id="line2d_13">
      <path d="M 57.6 247.338252 
L 414.72 247.338252 
" clip-path="url(#pd8bb29cc28)" style="fill: none; stroke: #b0b0b0; stroke-width: 0.8; stroke-linecap: square"/>
     </g>
     <g id="line2d_14">
      <g>
       <use xlink:href="#ma3abbd3cc2" x="57.6" y="247.338252" style="stroke: #000000; stroke-width: 0.8"/>
      </g>
     </g>
     <g id="text_8">
      <!-- −2 -->
      <g transform="translate(35.857813 251.137471) scale(0.1 -0.1)">
       <use xlink:href="#DejaVuSans-2212"/>
       <use xlink:href="#DejaVuSans-32" transform="translate(83.789062 0)"/>
      </g>
     </g>
    </g>
    <g id="ytick_4">
     <g id="line2d_15">
      <path d="M 57.6 217.585926 
L 414.72 217.585926 
" clip-path="url(#pd8bb29cc28)" style="fill: none; stroke: #b0b0b0; stroke-width: 0.8; stroke-linecap: square"/>
     </g>
     <g id="line2d_16">
      <g>
       <use xlink:href="#ma3abbd3cc2" x="57.6" y="217.585926" style="stroke: #000000; stroke-width: 0.8"/>
      </g>
     </g>
     <g id="text_9">
      <!-- −1 -->
      <g transform="translate(35.857813 221.385145) scale(0.1 -0.1)">
       <defs>
        <path id="DejaVuSans-31" d="M 794 531 
L 1825 531 
L 1825 4091 
L 703 3866 
L 703 4441 
L 1819 4666 
L 2450 4666 
L 2450 531 
L 3481 531 
L 3481 0 
L 794 0 
L 794 531 
z
" transform="scale(0.015625)"/>
       </defs>
       <use xlink:href="#DejaVuSans-2212"/>
       <use xlink:href="#DejaVuSans-31" transform="translate(83.789062 0)"/>
      </g>
     </g>
    </g>
    <g id="ytick_5">
     <g id="line2d_17">
      <path d="M 57.6 187.8336 
L 414.72 187.8336 
" clip-path="url(#pd8bb29cc28)" style="fill: none; stroke: #b0b0b0; stroke-width: 0.8; stroke-linecap: square"/>
     </g>
     <g id="line2d_18">
      <g>
       <use xlink:href="#ma3abbd3cc2" x="57.6" y="187.8336" style="stroke: #000000; stroke-width: 0.8"/>
      </g>
     </g>
     <g id="text_10">
      <!-- 0 -->
      <g transform="translate(44.2375 191.632819) scale(0.1 -0.1)">
       <use xlink:href="#DejaVuSans-30"/>
      </g>
     </g>
    </g>
    <g id="ytick_6">
     <g id="line2d_19">
      <path d="M 57.6 158.081274 
L 414.72 158.081274 
" clip-path="url(#pd8bb29cc28)" style="fill: none; stroke: #b0b0b0; stroke-width: 0.8; stroke-linecap: square"/>
     </g>
     <g id="line2d_20">
      <g>
       <use xlink:href="#ma3abbd3cc2" x="57.6" y="158.081274" style="stroke: #000000; stroke-width: 0.8"/>
      </g>
     </g>
     <g id="text_11">
      <!-- 1 -->
      <g transform="translate(44.2375 161.880493) scale(0.1 -0.1)">
       <use xlink:href="#DejaVuSans-31"/>
      </g>
     </g>
    </g>
    <g id="ytick_7">
     <g id="line2d_21">
      <path d="M 57.6 128.328948 
L 414.72 128.328948 
" clip-path="url(#pd8bb29cc28)" style="fill: none; stroke: #b0b0b0; stroke-width: 0.8; stroke-linecap: square"/>
     </g>
     <g id="line2d_22">
      <g>
       <use xlink:href="#ma3abbd3cc2" x="57.6" y="128.328948" style="stroke: #000000; stroke-width: 0.8"/>
      </g>
     </g>
     <g id="text_12">
      <!-- 2 -->
      <g transform="translate(44.2375 132.128167) scale(0.1 -0.1)">
       <use xlink:href="#DejaVuSans-32"/>
      </g>
     </g>
    </g>
    <g id="ytick_8">
     <g id="line2d_23">
      <path d="M 57.6 98.576622 
L 414.72 98.576622 
" clip-path="url(#pd8bb29cc28)" style="fill: none; stroke: #b0b0b0; stroke-width: 0.8; stroke-linecap: square"/>
     </g>
     <g id="line2d_24">
      <g>
       <use xlink:href="#ma3abbd3cc2" x="57.6" y="98.576622" style="stroke: #000000; stroke-width: 0.8"/>
      </g>
     </g>
     <g id="text_13">
      <!-- 3 -->
      <g transform="translate(44.2375 102.375841) scale(0.1 -0.1)">
       <use xlink:href="#DejaVuSans-33"/>
      </g>
     </g>
    </g>
    <g id="ytick_9">
     <g id="line2d_25">
      <path d="M 57.6 68.824296 
L 414.72 68.824296 
" clip-path="url(#pd8bb29cc28)" style="fill: none; stroke: #b0b0b0; stroke-width: 0.8; stroke-linecap: square"/>
     </g>
     <g id="line2d_26">
      <g>
       <use xlink:href="#ma3abbd3cc2" x="57.6" y="68.824296" style="stroke: #000000; stroke-width: 0.8"/>
      </g>
     </g>
     <g id="text_14">
      <!-- 4 -->
      <g transform="translate(44.2375 72.623515) scale(0.1 -0.1)">
       <use xlink:href="#DejaVuSans-34"/>
      </g>
     </g>
    </g>
    <g id="text_15">
     <!-- $\phi_i(x)$ -->
     <g transform="translate(29.757812 199.1336) rotate(-90) scale(0.1 -0.1)">
      <defs>
       <path id="DejaVuSans-Oblique-3d5" d="M 2991 4863 
L 2738 3572 
Q 3363 3572 3684 3094 
Q 4016 2606 3850 1747 
Q 3681 888 3159 400 
Q 2653 -78 2028 -78 
L 1784 -1331 
L 1213 -1331 
L 1456 -78 
Q 834 -78 509 400 
Q 178 888 347 1747 
Q 513 2606 1034 3094 
Q 1544 3572 2166 3572 
L 2419 4863 
L 2991 4863 
z
M 2128 434 
Q 2481 434 2784 756 
Q 3116 1116 3244 1747 
Q 3369 2372 3169 2738 
Q 2991 3059 2638 3059 
L 2128 434 
z
M 1556 434 
L 2066 3059 
Q 1716 3059 1413 2738 
Q 1072 2372 953 1747 
Q 834 1116 1028 756 
Q 1203 434 1556 434 
z
" transform="scale(0.015625)"/>
       <path id="DejaVuSans-Oblique-69" d="M 1172 4863 
L 1747 4863 
L 1606 4134 
L 1031 4134 
L 1172 4863 
z
M 909 3500 
L 1484 3500 
L 800 0 
L 225 0 
L 909 3500 
z
" transform="scale(0.015625)"/>
       <path id="DejaVuSans-28" d="M 1984 4856 
Q 1566 4138 1362 3434 
Q 1159 2731 1159 2009 
Q 1159 1288 1364 580 
Q 1569 -128 1984 -844 
L 1484 -844 
Q 1016 -109 783 600 
Q 550 1309 550 2009 
Q 550 2706 781 3412 
Q 1013 4119 1484 4856 
L 1984 4856 
z
" transform="scale(0.015625)"/>
       <path id="DejaVuSans-29" d="M 513 4856 
L 1013 4856 
Q 1481 4119 1714 3412 
Q 1947 2706 1947 2009 
Q 1947 1309 1714 600 
Q 1481 -109 1013 -844 
L 513 -844 
Q 928 -128 1133 580 
Q 1338 1288 1338 2009 
Q 1338 2731 1133 3434 
Q 928 4138 513 4856 
z
" transform="scale(0.015625)"/>
      </defs>
      <use xlink:href="#DejaVuSans-Oblique-3d5" transform="translate(0 0.015625)"/>
      <use xlink:href="#DejaVuSans-Oblique-69" transform="translate(65.966797 -16.390625) scale(0.7)"/>
      <use xlink:href="#DejaVuSans-28" transform="translate(88.149414 0.015625)"/>
      <use xlink:href="#DejaVuSans-Oblique-78" transform="translate(127.163086 0.015625)"/>
      <use xlink:href="#DejaVuSans-29" transform="translate(186.342773 0.015625)"/>
     </g>
    </g>
   </g>
   <g id="line2d_27">
    <path d="M 57.6 158.081274 
L 414.72 158.081274 
L 414.72 158.081274 
" clip-path="url(#pd8bb29cc28)" style="fill: none; stroke: #1f77b4; stroke-width: 1.5; stroke-linecap: square"/>
   </g>
   <g id="line2d_28">
    <path d="M 57.6 239.263075 
L 414.72 136.404125 
L 414.72 136.404125 
" clip-path="url(#pd8bb29cc28)" style="fill: none; stroke: #ff7f0e; stroke-width: 1.5; stroke-linecap: square"/>
   </g>
   <g id="line2d_29">
    <path d="M 57.6 121.704147 
L 64.778291 129.534957 
L 71.956583 137.044503 
L 79.134874 144.232786 
L 86.313166 151.099804 
L 93.491457 157.645559 
L 100.669749 163.870049 
L 107.84804 169.773275 
L 115.026332 175.355237 
L 122.204623 180.615936 
L 129.382915 185.55537 
L 136.561206 190.17354 
L 143.739497 194.470446 
L 150.917789 198.446089 
L 158.09608 202.100467 
L 165.274372 205.433581 
L 172.452663 208.445431 
L 177.836382 210.493489 
L 183.220101 212.360836 
L 188.603819 214.047473 
L 193.987538 215.553398 
L 199.371256 216.878612 
L 204.754975 218.023115 
L 210.138693 218.986907 
L 215.522412 219.769988 
L 220.906131 220.372358 
L 226.289849 220.794017 
L 231.673568 221.034965 
L 237.057286 221.095202 
L 242.441005 220.974728 
L 247.824724 220.673543 
L 253.208442 220.191647 
L 258.592161 219.52904 
L 263.975879 218.685722 
L 269.359598 217.661693 
L 274.743317 216.456953 
L 280.127035 215.071502 
L 285.510754 213.505339 
L 290.894472 211.758466 
L 296.278191 209.830882 
L 301.66191 207.722587 
L 307.045628 205.433581 
L 314.22392 202.100467 
L 321.402211 198.446089 
L 328.580503 194.470446 
L 335.758794 190.17354 
L 342.937085 185.55537 
L 350.115377 180.615936 
L 357.293668 175.355237 
L 364.47196 169.773275 
L 371.650251 163.870049 
L 378.828543 157.645559 
L 386.006834 151.099804 
L 393.185126 144.232786 
L 400.363417 137.044503 
L 407.541709 129.534957 
L 414.72 121.704147 
L 414.72 121.704147 
" clip-path="url(#pd8bb29cc28)" style="fill: none; stroke: #2ca02c; stroke-width: 1.5; stroke-linecap: square"/>
   </g>
   <g id="line2d_30">
    <path d="M 57.6 265.608609 
L 61.189146 256.416897 
L 64.778291 247.689859 
L 68.367437 239.417963 
L 71.956583 231.591677 
L 75.545729 224.20147 
L 79.134874 217.23781 
L 82.72402 210.691164 
L 86.313166 204.552002 
L 89.902312 198.810791 
L 93.491457 193.458 
L 97.080603 188.484097 
L 100.669749 183.879549 
L 104.258894 179.634826 
L 107.84804 175.740396 
L 111.437186 172.186726 
L 115.026332 168.964286 
L 118.615477 166.063543 
L 122.204623 163.474965 
L 125.793769 161.189021 
L 129.382915 159.196179 
L 132.97206 157.486907 
L 136.561206 156.051673 
L 140.150352 154.880946 
L 143.739497 153.965194 
L 147.328643 153.294885 
L 150.917789 152.860487 
L 154.506935 152.652469 
L 158.09608 152.661299 
L 161.685226 152.877444 
L 165.274372 153.291374 
L 168.863518 153.893557 
L 172.452663 154.67446 
L 176.041809 155.624552 
L 181.425528 157.346068 
L 186.809246 159.394643 
L 192.192965 161.738108 
L 197.576683 164.344291 
L 202.960402 167.181025 
L 210.138693 171.266367 
L 217.316985 175.628131 
L 226.289849 181.352884 
L 256.797588 201.151254 
L 263.975879 205.451061 
L 271.154171 209.455384 
L 276.537889 212.218842 
L 281.921608 214.741027 
L 287.305327 216.989769 
L 292.689045 218.932899 
L 296.278191 220.042648 
L 299.867337 220.99274 
L 303.456482 221.773643 
L 307.045628 222.375826 
L 310.634774 222.789756 
L 314.22392 223.005901 
L 317.813065 223.014731 
L 321.402211 222.806713 
L 324.991357 222.372315 
L 328.580503 221.702006 
L 332.169648 220.786254 
L 335.758794 219.615527 
L 339.34794 218.180293 
L 342.937085 216.471021 
L 346.526231 214.478179 
L 350.115377 212.192235 
L 353.704523 209.603657 
L 357.293668 206.702914 
L 360.882814 203.480474 
L 364.47196 199.926804 
L 368.061106 196.032374 
L 371.650251 191.787651 
L 375.239397 187.183103 
L 378.828543 182.2092 
L 382.417688 176.856409 
L 386.006834 171.115198 
L 389.59598 164.976036 
L 393.185126 158.42939 
L 396.774271 151.46573 
L 400.363417 144.075523 
L 403.952563 136.249237 
L 407.541709 127.977341 
L 411.130854 119.250303 
L 414.72 110.058591 
L 414.72 110.058591 
" clip-path="url(#pd8bb29cc28)" style="fill: none; stroke: #d62728; stroke-width: 1.5; stroke-linecap: square"/>
   </g>
   <g id="line2d_31">
    <path d="M 57.6 100.353741 
L 61.189146 117.306313 
L 64.778291 132.724711 
L 68.367437 146.682164 
L 71.956583 159.250383 
L 75.545729 170.499559 
L 79.134874 180.498368 
L 82.72402 189.313969 
L 84.518593 193.298637 
L 86.313166 197.012 
L 88.107739 200.462024 
L 89.902312 203.656583 
L 91.696884 206.603455 
L 93.491457 209.310324 
L 95.28603 211.784777 
L 97.080603 214.034309 
L 98.875176 216.066317 
L 100.669749 217.888106 
L 102.464322 219.506885 
L 104.258894 220.929769 
L 106.053467 222.163775 
L 107.84804 223.215829 
L 109.642613 224.09276 
L 111.437186 224.801303 
L 113.231759 225.348099 
L 115.026332 225.739691 
L 116.820905 225.98253 
L 118.615477 226.082971 
L 120.41005 226.047275 
L 122.204623 225.881608 
L 123.999196 225.592039 
L 127.588342 224.665008 
L 131.177487 223.312851 
L 134.766633 221.580719 
L 138.355779 219.512245 
L 141.944925 217.149545 
L 145.53407 214.533218 
L 149.123216 211.702342 
L 154.506935 207.135506 
L 161.685226 200.633333 
L 183.220101 180.673387 
L 188.603819 176.060357 
L 193.987538 171.753055 
L 199.371256 167.815509 
L 202.960402 165.424038 
L 206.549548 163.236901 
L 210.138693 161.267377 
L 213.727839 159.527227 
L 217.316985 158.026697 
L 220.906131 156.774513 
L 224.495276 155.777884 
L 228.084422 155.042501 
L 231.673568 154.572538 
L 235.262714 154.370651 
L 238.851859 154.437979 
L 242.441005 154.774141 
L 246.030151 155.37724 
L 249.619296 156.243863 
L 253.208442 157.369076 
L 256.797588 158.746429 
L 260.386734 160.367954 
L 263.975879 162.224167 
L 267.565025 164.304063 
L 271.154171 166.595121 
L 274.743317 169.083304 
L 280.127035 173.150742 
L 285.510754 177.567447 
L 290.894472 182.266831 
L 298.072764 188.84292 
L 316.018492 205.545682 
L 321.402211 210.218247 
L 326.78593 214.533218 
L 330.375075 217.149545 
L 333.964221 219.512245 
L 337.553367 221.580719 
L 341.142513 223.312851 
L 344.731658 224.665008 
L 348.320804 225.592039 
L 350.115377 225.881608 
L 351.90995 226.047275 
L 353.704523 226.082971 
L 355.499095 225.98253 
L 357.293668 225.739691 
L 359.088241 225.348099 
L 360.882814 224.801303 
L 362.677387 224.09276 
L 364.47196 223.215829 
L 366.266533 222.163775 
L 368.061106 220.929769 
L 369.855678 219.506885 
L 371.650251 217.888106 
L 373.444824 216.066317 
L 375.239397 214.034309 
L 377.03397 211.784777 
L 378.828543 209.310324 
L 380.623116 206.603455 
L 382.417688 203.656583 
L 384.212261 200.462024 
L 386.006834 197.012 
L 387.801407 193.298637 
L 389.59598 189.313969 
L 391.390553 185.049932 
L 394.979698 175.651027 
L 398.568844 165.035523 
L 402.15799 153.135505 
L 405.747136 139.881539 
L 409.336281 125.202671 
L 412.925427 109.026435 
L 414.72 100.353741 
L 414.72 100.353741 
" clip-path="url(#pd8bb29cc28)" style="fill: none; stroke: #9467bd; stroke-width: 1.5; stroke-linecap: square"/>
   </g>
   <g id="line2d_32">
    <path d="M 57.6 283.57125 
L 59.394573 269.442169 
L 61.189146 256.306051 
L 62.983719 244.122665 
L 64.778291 232.852702 
L 66.572864 222.457768 
L 68.367437 212.900372 
L 70.16201 204.143917 
L 71.956583 196.152692 
L 73.751156 188.891862 
L 75.545729 182.327456 
L 77.340302 176.426364 
L 79.134874 171.156318 
L 80.929447 166.485892 
L 82.72402 162.384486 
L 84.518593 158.822319 
L 86.313166 155.770421 
L 88.107739 153.20062 
L 89.902312 151.085536 
L 91.696884 149.398568 
L 93.491457 148.113889 
L 95.28603 147.206432 
L 97.080603 146.651883 
L 98.875176 146.426673 
L 100.669749 146.507964 
L 102.464322 146.873643 
L 104.258894 147.502313 
L 106.053467 148.373281 
L 107.84804 149.46655 
L 109.642613 150.762809 
L 111.437186 152.243425 
L 115.026332 155.686519 
L 118.615477 159.659938 
L 122.204623 164.038013 
L 127.588342 171.113297 
L 143.739497 192.978638 
L 147.328643 197.465754 
L 150.917789 201.683878 
L 154.506935 205.585722 
L 158.09608 209.131193 
L 161.685226 212.287091 
L 165.274372 215.026803 
L 168.863518 217.330003 
L 172.452663 219.182347 
L 176.041809 220.57517 
L 179.630955 221.505186 
L 181.425528 221.79701 
L 183.220101 221.974182 
L 185.014673 222.037669 
L 188.603819 221.828838 
L 192.192965 221.183665 
L 195.782111 220.119311 
L 199.371256 218.656645 
L 202.960402 216.819949 
L 206.549548 214.636605 
L 210.138693 212.1368 
L 213.727839 209.353219 
L 217.316985 206.320744 
L 222.700704 201.386244 
L 228.084422 196.105353 
L 237.057286 186.90582 
L 246.030151 177.77138 
L 251.413869 172.59105 
L 256.797588 167.801364 
L 260.386734 164.888851 
L 263.975879 162.242928 
L 267.565025 159.897417 
L 271.154171 157.883791 
L 274.743317 156.230874 
L 278.332462 154.964535 
L 281.921608 154.107388 
L 285.510754 153.678485 
L 287.305327 153.629531 
L 289.099899 153.693018 
L 290.894472 153.87019 
L 292.689045 154.162014 
L 294.483618 154.569167 
L 296.278191 155.09203 
L 299.867337 156.484853 
L 303.456482 158.337197 
L 307.045628 160.640397 
L 310.634774 163.380109 
L 314.22392 166.536007 
L 317.813065 170.081478 
L 321.402211 173.983322 
L 324.991357 178.201446 
L 330.375075 185.016173 
L 335.758794 192.242834 
L 348.320804 209.324953 
L 351.90995 213.861343 
L 355.499095 218.052172 
L 359.088241 221.776769 
L 360.882814 223.423775 
L 362.677387 224.904391 
L 364.47196 226.20065 
L 366.266533 227.293919 
L 368.061106 228.164887 
L 369.855678 228.793557 
L 371.650251 229.159236 
L 373.444824 229.240527 
L 375.239397 229.015317 
L 377.03397 228.460768 
L 378.828543 227.553311 
L 380.623116 226.268632 
L 382.417688 224.581664 
L 384.212261 222.46658 
L 386.006834 219.896779 
L 387.801407 216.844881 
L 389.59598 213.282714 
L 391.390553 209.181308 
L 393.185126 204.510882 
L 394.979698 199.240836 
L 396.774271 193.339744 
L 398.568844 186.775338 
L 400.363417 179.514508 
L 402.15799 171.523283 
L 403.952563 162.766828 
L 405.747136 153.209432 
L 407.541709 142.814498 
L 409.336281 131.544535 
L 411.130854 119.361149 
L 412.925427 106.225031 
L 414.72 92.09595 
L 414.72 92.09595 
" clip-path="url(#pd8bb29cc28)" style="fill: none; stroke: #8c564b; stroke-width: 1.5; stroke-linecap: square"/>
   </g>
   <g id="line2d_33">
    <path d="M 57.6 85.020676 
L 59.394573 106.069561 
L 61.189146 125.01161 
L 62.983719 141.974672 
L 64.778291 157.081713 
L 66.572864 170.450925 
L 68.367437 182.195833 
L 70.16201 192.425407 
L 71.956583 201.244166 
L 73.751156 208.752286 
L 75.545729 215.045699 
L 77.340302 220.216203 
L 79.134874 224.351561 
L 80.929447 227.535602 
L 82.72402 229.84832 
L 84.518593 231.365976 
L 86.313166 232.161193 
L 88.107739 232.303051 
L 89.902312 231.857189 
L 91.696884 230.885891 
L 93.491457 229.448185 
L 95.28603 227.59993 
L 97.080603 225.393914 
L 98.875176 222.879937 
L 100.669749 220.104901 
L 104.258894 213.945305 
L 107.84804 207.235704 
L 120.41005 183.120883 
L 123.999196 176.868403 
L 127.588342 171.167381 
L 131.177487 166.117844 
L 132.97206 163.861732 
L 134.766633 161.79477 
L 136.561206 159.92277 
L 138.355779 158.250244 
L 140.150352 156.78047 
L 141.944925 155.515552 
L 143.739497 154.45648 
L 145.53407 153.603195 
L 147.328643 152.954643 
L 149.123216 152.508835 
L 150.917789 152.262904 
L 152.712362 152.213162 
L 154.506935 152.355151 
L 156.301508 152.6837 
L 158.09608 153.192972 
L 159.890653 153.876524 
L 161.685226 154.727346 
L 163.479799 155.737919 
L 165.274372 156.900258 
L 168.863518 159.646249 
L 172.452663 162.893879 
L 176.041809 166.567134 
L 179.630955 170.586746 
L 185.014673 177.087565 
L 193.987538 188.497799 
L 199.371256 195.251097 
L 204.754975 201.626388 
L 208.344121 205.553173 
L 211.933266 209.149451 
L 215.522412 212.360393 
L 219.111558 215.137712 
L 222.700704 217.440116 
L 224.495276 218.402329 
L 226.289849 219.233688 
L 228.084422 219.931158 
L 229.878995 220.492198 
L 231.673568 220.914769 
L 233.468141 221.197336 
L 235.262714 221.338876 
L 237.057286 221.338876 
L 238.851859 221.197336 
L 240.646432 220.914769 
L 242.441005 220.492198 
L 244.235578 219.931158 
L 246.030151 219.233688 
L 247.824724 218.402329 
L 249.619296 217.440116 
L 253.208442 215.137712 
L 256.797588 212.360393 
L 260.386734 209.149451 
L 263.975879 205.553173 
L 267.565025 201.626388 
L 271.154171 197.429936 
L 276.537889 190.775885 
L 290.894472 172.701087 
L 294.483618 168.538692 
L 298.072764 164.682196 
L 301.66191 161.212018 
L 305.251055 158.20596 
L 307.045628 156.900258 
L 308.840201 155.737919 
L 310.634774 154.727346 
L 312.429347 153.876524 
L 314.22392 153.192972 
L 316.018492 152.6837 
L 317.813065 152.355151 
L 319.607638 152.213162 
L 321.402211 152.262904 
L 323.196784 152.508835 
L 324.991357 152.954643 
L 326.78593 153.603195 
L 328.580503 154.45648 
L 330.375075 155.515552 
L 332.169648 156.78047 
L 333.964221 158.250244 
L 335.758794 159.92277 
L 337.553367 161.79477 
L 339.34794 163.861732 
L 341.142513 166.117844 
L 344.731658 171.167381 
L 348.320804 176.868403 
L 351.90995 183.120883 
L 355.499095 189.797507 
L 368.061106 213.945305 
L 371.650251 220.104901 
L 373.444824 222.879937 
L 375.239397 225.393914 
L 377.03397 227.59993 
L 378.828543 229.448185 
L 380.623116 230.885891 
L 382.417688 231.857189 
L 384.212261 232.303051 
L 386.006834 232.161193 
L 387.801407 231.365976 
L 389.59598 229.84832 
L 391.390553 227.535602 
L 393.185126 224.351561 
L 394.979698 220.216203 
L 396.774271 215.045699 
L 398.568844 208.752286 
L 400.363417 201.244166 
L 402.15799 192.425407 
L 403.952563 182.195833 
L 405.747136 170.450925 
L 407.541709 157.081713 
L 409.336281 141.974672 
L 411.130854 125.01161 
L 412.925427 106.069561 
L 414.72 85.020676 
L 414.72 85.020676 
" clip-path="url(#pd8bb29cc28)" style="fill: none; stroke: #e377c2; stroke-width: 1.5; stroke-linecap: square"/>
   </g>
   <g id="line2d_34">
    <path d="M 57.6 296.6976 
L 59.394573 267.297501 
L 61.189146 241.856047 
L 62.983719 220.040176 
L 64.778291 201.535472 
L 66.572864 186.04547 
L 68.367437 173.290988 
L 70.16201 163.009468 
L 71.956583 154.954338 
L 73.751156 148.894381 
L 75.545729 144.613122 
L 77.340302 141.908235 
L 79.134874 140.590957 
L 80.929447 140.485518 
L 82.72402 141.428587 
L 84.518593 143.268731 
L 86.313166 145.865888 
L 88.107739 149.090852 
L 89.902312 152.824774 
L 91.696884 156.958675 
L 95.28603 166.037012 
L 104.258894 189.800685 
L 107.84804 198.478645 
L 109.642613 202.46731 
L 111.437186 206.182091 
L 113.231759 209.599071 
L 115.026332 212.699006 
L 116.820905 215.467011 
L 118.615477 217.892249 
L 120.41005 219.967636 
L 122.204623 221.689556 
L 123.999196 223.057587 
L 125.793769 224.074232 
L 127.588342 224.744669 
L 129.382915 225.076503 
L 131.177487 225.079531 
L 132.97206 224.765518 
L 134.766633 224.147981 
L 136.561206 223.241981 
L 138.355779 222.063925 
L 140.150352 220.631378 
L 141.944925 218.962886 
L 143.739497 217.077801 
L 145.53407 214.996119 
L 149.123216 210.325259 
L 152.712362 205.117521 
L 158.09608 196.667261 
L 167.068945 182.230485 
L 170.65809 176.768296 
L 174.247236 171.682614 
L 177.836382 167.085697 
L 181.425528 163.073714 
L 183.220101 161.312495 
L 185.014673 159.725832 
L 186.809246 158.32087 
L 188.603819 157.103632 
L 190.398392 156.079026 
L 192.192965 155.250837 
L 193.987538 154.621744 
L 195.782111 154.193325 
L 197.576683 153.966076 
L 199.371256 153.939424 
L 201.165829 154.111755 
L 202.960402 154.480437 
L 204.754975 155.041851 
L 206.549548 155.791419 
L 208.344121 156.723644 
L 210.138693 157.832142 
L 211.933266 159.109689 
L 213.727839 160.548259 
L 217.316985 163.872638 
L 220.906131 167.726835 
L 224.495276 172.022699 
L 228.084422 176.664089 
L 233.468141 184.048929 
L 244.235578 199.003111 
L 247.824724 203.644501 
L 251.413869 207.940365 
L 255.003015 211.794562 
L 258.592161 215.118941 
L 260.386734 216.557511 
L 262.181307 217.835058 
L 263.975879 218.943556 
L 265.770452 219.875781 
L 267.565025 220.625349 
L 269.359598 221.186763 
L 271.154171 221.555445 
L 272.948744 221.727776 
L 274.743317 221.701124 
L 276.537889 221.473875 
L 278.332462 221.045456 
L 280.127035 220.416363 
L 281.921608 219.588174 
L 283.716181 218.563568 
L 285.510754 217.34633 
L 287.305327 215.941368 
L 289.099899 214.354705 
L 290.894472 212.593486 
L 294.483618 208.581503 
L 298.072764 203.984586 
L 301.66191 198.898904 
L 305.251055 193.436715 
L 312.429347 181.904317 
L 317.813065 173.302165 
L 321.402211 167.889248 
L 324.991357 162.928872 
L 328.580503 158.589399 
L 330.375075 156.704314 
L 332.169648 155.035822 
L 333.964221 153.603275 
L 335.758794 152.425219 
L 337.553367 151.519219 
L 339.34794 150.901682 
L 341.142513 150.587669 
L 342.937085 150.590697 
L 344.731658 150.922531 
L 346.526231 151.592968 
L 348.320804 152.609613 
L 350.115377 153.977644 
L 351.90995 155.699564 
L 353.704523 157.774951 
L 355.499095 160.200189 
L 357.293668 162.968194 
L 359.088241 166.068129 
L 360.882814 169.485109 
L 362.677387 173.19989 
L 366.266533 181.422184 
L 369.855678 190.481588 
L 380.623116 218.708525 
L 382.417688 222.842426 
L 384.212261 226.576348 
L 386.006834 229.801312 
L 387.801407 232.398469 
L 389.59598 234.238613 
L 391.390553 235.181682 
L 393.185126 235.076243 
L 394.979698 233.758965 
L 396.774271 231.054078 
L 398.568844 226.772819 
L 400.363417 220.712862 
L 402.15799 212.657732 
L 403.952563 202.376212 
L 405.747136 189.62173 
L 407.541709 174.131728 
L 409.336281 155.627024 
L 411.130854 133.811153 
L 412.925427 108.369699 
L 414.72 78.9696 
L 414.72 78.9696 
" clip-path="url(#pd8bb29cc28)" style="fill: none; stroke: #7f7f7f; stroke-width: 1.5; stroke-linecap: square"/>
   </g>
   <g id="patch_3">
    <path d="M 57.6 307.584 
L 57.6 68.0832 
" style="fill: none; stroke: #000000; stroke-width: 0.8; stroke-linejoin: miter; stroke-linecap: square"/>
   </g>
   <g id="patch_4">
    <path d="M 414.72 307.584 
L 414.72 68.0832 
" style="fill: none; stroke: #000000; stroke-width: 0.8; stroke-linejoin: miter; stroke-linecap: square"/>
   </g>
   <g id="patch_5">
    <path d="M 57.6 307.584 
L 414.72 307.584 
" style="fill: none; stroke: #000000; stroke-width: 0.8; stroke-linejoin: miter; stroke-linecap: square"/>
   </g>
   <g id="patch_6">
    <path d="M 57.6 68.0832 
L 414.72 68.0832 
" style="fill: none; stroke: #000000; stroke-width: 0.8; stroke-linejoin: miter; stroke-linecap: square"/>
   </g>
   <g id="legend_1">
    <g id="patch_7">
     <path d="M 109.16 46.608 
L 363.16 46.608 
Q 365.16 46.608 365.16 44.608 
L 365.16 15.208 
Q 365.16 13.208 363.16 13.208 
L 109.16 13.208 
Q 107.16 13.208 107.16 15.208 
L 107.16 44.608 
Q 107.16 46.608 109.16 46.608 
z
" style="fill: #ffffff; opacity: 0.8; stroke: #cccccc; stroke-linejoin: miter"/>
    </g>
    <g id="line2d_35">
     <path d="M 111.16 21.308 
L 121.16 21.308 
L 131.16 21.308 
" style="fill: none; stroke: #1f77b4; stroke-width: 1.5; stroke-linecap: square"/>
    </g>
    <g id="text_16">
     <!-- $\phi_(x)$ -->
     <g transform="translate(139.16 24.808) scale(0.1 -0.1)">
      <use xlink:href="#DejaVuSans-Oblique-3d5" transform="translate(0 0.015625)"/>
      <use xlink:href="#DejaVuSans-28" transform="translate(65.966797 -16.390625) scale(0.7)"/>
      <use xlink:href="#DejaVuSans-Oblique-78" transform="translate(96.010742 0.015625)"/>
      <use xlink:href="#DejaVuSans-29" transform="translate(155.19043 0.015625)"/>
     </g>
    </g>
    <g id="line2d_36">
     <path d="M 111.16 36.508 
L 121.16 36.508 
L 131.16 36.508 
" style="fill: none; stroke: #ff7f0e; stroke-width: 1.5; stroke-linecap: square"/>
    </g>
    <g id="text_17">
     <!-- $\phi_(x)$ -->
     <g transform="translate(139.16 40.008) scale(0.1 -0.1)">
      <use xlink:href="#DejaVuSans-Oblique-3d5" transform="translate(0 0.015625)"/>
      <use xlink:href="#DejaVuSans-28" transform="translate(65.966797 -16.390625) scale(0.7)"/>
      <use xlink:href="#DejaVuSans-Oblique-78" transform="translate(96.010742 0.015625)"/>
      <use xlink:href="#DejaVuSans-29" transform="translate(155.19043 0.015625)"/>
     </g>
    </g>
    <g id="line2d_37">
     <path d="M 178.66 21.308 
L 188.66 21.308 
L 198.66 21.308 
" style="fill: none; stroke: #2ca02c; stroke-width: 1.5; stroke-linecap: square"/>
    </g>
    <g id="text_18">
     <!-- $\phi_(x)$ -->
     <g transform="translate(206.66 24.808) scale(0.1 -0.1)">
      <use xlink:href="#DejaVuSans-Oblique-3d5" transform="translate(0 0.015625)"/>
      <use xlink:href="#DejaVuSans-28" transform="translate(65.966797 -16.390625) scale(0.7)"/>
      <use xlink:href="#DejaVuSans-Oblique-78" transform="translate(96.010742 0.015625)"/>
      <use xlink:href="#DejaVuSans-29" transform="translate(155.19043 0.015625)"/>
     </g>
    </g>
    <g id="line2d_38">
     <path d="M 178.66 36.508 
L 188.66 36.508 
L 198.66 36.508 
" style="fill: none; stroke: #d62728; stroke-width: 1.5; stroke-linecap: square"/>
    </g>
    <g id="text_19">
     <!-- $\phi_(x)$ -->
     <g transform="translate(206.66 40.008) scale(0.1 -0.1)">
      <use xlink:href="#DejaVuSans-Oblique-3d5" transform="translate(0 0.015625)"/>
      <use xlink:href="#DejaVuSans-28" transform="translate(65.966797 -16.390625) scale(0.7)"/>
      <use xlink:href="#DejaVuSans-Oblique-78" transform="translate(96.010742 0.015625)"/>
      <use xlink:href="#DejaVuSans-29" transform="translate(155.19043 0.015625)"/>
     </g>
    </g>
    <g id="line2d_39">
     <path d="M 246.16 21.308 
L 256.16 21.308 
L 266.16 21.308 
" style="fill: none; stroke: #9467bd; stroke-width: 1.5; stroke-linecap: square"/>
    </g>
    <g id="text_20">
     <!-- $\phi_(x)$ -->
     <g transform="translate(274.16 24.808) scale(0.1 -0.1)">
      <use xlink:href="#DejaVuSans-Oblique-3d5" transform="translate(0 0.015625)"/>
      <use xlink:href="#DejaVuSans-28" transform="translate(65.966797 -16.390625) scale(0.7)"/>
      <use xlink:href="#DejaVuSans-Oblique-78" transform="translate(96.010742 0.015625)"/>
      <use xlink:href="#DejaVuSans-29" transform="translate(155.19043 0.015625)"/>
     </g>
    </g>
    <g id="line2d_40">
     <path d="M 246.16 36.508 
L 256.16 36.508 
L 266.16 36.508 
" style="fill: none; stroke: #8c564b; stroke-width: 1.5; stroke-linecap: square"/>
    </g>
    <g id="text_21">
     <!-- $\phi_(x)$ -->
     <g transform="translate(274.16 40.008) scale(0.1 -0.1)">
      <use xlink:href="#DejaVuSans-Oblique-3d5" transform="translate(0 0.015625)"/>
      <use xlink:href="#DejaVuSans-28" transform="translate(65.966797 -16.390625) scale(0.7)"/>
      <use xlink:href="#DejaVuSans-Oblique-78" transform="translate(96.010742 0.015625)"/>
      <use xlink:href="#DejaVuSans-29" transform="translate(155.19043 0.015625)"/>
     </g>
    </g>
    <g id="line2d_41">
     <path d="M 313.66 21.308 
L 323.66 21.308 
L 333.66 21.308 
" style="fill: none; stroke: #e377c2; stroke-width: 1.5; stroke-linecap: square"/>
    </g>
    <g id="text_22">
     <!-- $\phi_(x)$ -->
     <g transform="translate(341.66 24.808) scale(0.1 -0.1)">
      <use xlink:href="#DejaVuSans-Oblique-3d5" transform="translate(0 0.015625)"/>
      <use xlink:href="#DejaVuSans-28" transform="translate(65.966797 -16.390625) scale(0.7)"/>
      <use xlink:href="#DejaVuSans-Oblique-78" transform="translate(96.010742 0.015625)"/>
      <use xlink:href="#DejaVuSans-29" transform="translate(155.19043 0.015625)"/>
     </g>
    </g>
    <g id="line2d_42">
     <path d="M 313.66 36.508 
L 323.66 36.508 
L 333.66 36.508 
" style="fill: none; stroke: #7f7f7f; stroke-width: 1.5; stroke-linecap: square"/>
    </g>
    <g id="text_23">
     <!-- $\phi_(x)$ -->
     <g transform="translate(341.66 40.008) scale(0.1 -0.1)">
      <use xlink:href="#DejaVuSans-Oblique-3d5" transform="translate(0 0.015625)"/>
      <use xlink:href="#DejaVuSans-28" transform="translate(65.966797 -16.390625) scale(0.7)"/>
      <use xlink:href="#DejaVuSans-Oblique-78" transform="translate(96.010742 0.015625)"/>
      <use xlink:href="#DejaVuSans-29" transform="translate(155.19043 0.015625)"/>
     </g>
    </g>
   </g>
  </g>
 </g>
 <defs>
  <clipPath id="pd8bb29cc28">
   <rect x="57.6" y="68.0832" width="357.12" height="239.5008"/>
  </clipPath>
 </defs>
</svg>
