<?xml version="1.0" encoding="utf-8" standalone="no"?>
<!DOCTYPE svg PUBLIC "-//W3C//DTD SVG 1.1//EN"
  "http://www.w3.org/Graphics/SVG/1.1/DTD/svg11.dtd">
<svg xmlns:xlink="http://www.w3.org/1999/xlink" width="720pt" height="288pt" viewBox="0 0 720 288" xmlns="http://www.w3.org/2000/svg" version="1.1">
 <metadata>
  <rdf:RDF xmlns:dc="http://purl.org/dc/elements/1.1/" xmlns:cc="http://creativecommons.org/ns#" xmlns:rdf="http://www.w3.org/1999/02/22-rdf-syntax-ns#">
   <cc:Work>
    <dc:type rdf:resource="http://purl.org/dc/dcmitype/StillImage"/>
    <dc:date>2022-01-01T00:00:00+00:00</dc:date>
    <dc:format>image/svg+xml</dc:format>
    <dc:creator>
     <cc:Agent>
      <dc:title>Matplotlib v3.10.8, https://matplotlib.org/</dc:title>
     </cc:Agent>
    </dc:creator>
   </cc:Work>
  </rdf:RDF>
 </metadata>
 <defs>
  <style type="text/css">*{stroke-linejoin: round; stroke-linecap: butt}</style>
 </defs>
 <g id="figure_1">
  <g id="patch_1">
   <path d="M 0 288 
L 720 288 
L 720 0 
L 0 0 
z
" style="fill: #ffffff"/>
  </g>
  <g id="axes_1">
   <g id="patch_2">
    <path d="M 90 256.32 
L 536.4 256.32 
L 536.4 34.56 
L 90 34.56 
z
" style="fill: #ffffff"/>
   </g>
   <g id="matplotlib.axis_1">
    <g id="xtick_1">
     <g id="line2d_1">
      <path d="M 110.290909 256.32 
L 110.290909 34.56 
" clip-path="url(#p7e4f6cf0c3)" style="fill: none; stroke: #b0b0b0; stroke-width: 0.8; stroke-linecap: square"/>
     </g>
     <g id="line2d_2">
      <defs>
       <path id="m4a92d99fee" d="M 0 0 
L 0 3.5 
" style="stroke: #000000; stroke-width: 0.8"/>
      </defs>
      <g>
       <use xlink:href="#m4a92d99fee" x="110.290909" y="256.32" style="stroke: #000000; stroke-width: 0.8"/>
      </g>
     </g>
     <g id="text_1">
      <!-- 0.0 -->
      <g transform="translate(102.339347 270.918437) scale(0.1 -0.1)">
       <defs>
        <path id="DejaVuSans-30" d="M 2034 4250 
Q 1547 4250 1301 3770 
Q 1056 3291 1056 2328 
Q 1056 1369 1301 889 
Q 1547 409 2034 409 
Q 2525 409 2770 889 
Q 3016 1369 3016 2328 
Q 3016 3291 2770 3770 
Q 2525 4250 2034 4250 
z
M 2034 4750 
Q 2819 4750 3233 4129 
Q 3647 3509 3647 2328 
Q 3647 1150 3233 529 
Q 2819 -91 2034 -91 
Q 1250 -91 836 529 
Q 422 1150 422 2328 
Q 422 3509 836 4129 
Q 1250 4750 2034 4750 
z
" transform="scale(0.015625)"/>
        <path id="DejaVuSans-2e" d="M 684 794 
L 1344 794 
L 1344 0 
L 684 0 
L 684 794 
z
" transform="scale(0.015625)"/>
       </defs>
       <use xlink:href="#DejaVuSans-30"/>
       <use xlink:href="#DejaVuSans-2e" transform="translate(63.623047 0)"/>
       <use xlink:href="#DejaVuSans-30" transform="translate(95.410156 0)"/>
      </g>
     </g>
    </g>
    <g id="xtick_2">
     <g id="line2d_3">
      <path d="M 161.018182 256.32 
L 161.018182 34.56 
" clip-path="url(#p7e4f6cf0c3)" style="fill: none; stroke: #b0b0b0; stroke-width: 0.8; stroke-linecap: square"/>
     </g>
     <g id="line2d_4">
      <g>
       <use xlink:href="#m4a92d99fee" x="161.018182" y="256.32" style="stroke: #000000; stroke-width: 0.8"/>
      </g>
     </g>
     <g id="text_2">
      <!-- 0.5 -->
      <g transform="translate(153.066619 270.918437) scale(0.1 -0.1)">
       <defs>
        <path id="DejaVuSans-35" d="M 691 4666 
L 3169 4666 
L 3169 4134 
L 1269 4134 
L 1269 2991 
Q 1406 3038 1543 3061 
Q 1681 3084 1819 3084 
Q 2600 3084 3056 2656 
Q 3513 2228 3513 1497 
Q 3513 744 3044 326 
Q 2575 -91 1722 -91 
Q 1428 -91 1123 -41 
Q 819 9 494 109 
L 494 744 
Q 775 591 1075 516 
Q 1375 441 1709 441 
Q 2250 441 2565 725 
Q 2881 1009 2881 1497 
Q 2881 1984 2565 2268 
Q 2250 2553 1709 2553 
Q 1456 2553 1204 2497 
Q 953 2441 691 2322 
L 691 4666 
z
" transform="scale(0.015625)"/>
       </defs>
       <use xlink:href="#DejaVuSans-30"/>
       <use xlink:href="#DejaVuSans-2e" transform="translate(63.623047 0)"/>
       <use xlink:href="#DejaVuSans-35" transform="translate(95.410156 0)"/>
      </g>
     </g>
    </g>
    <g id="xtick_3">
     <g id="line2d_5">
      <path d="M 211.745455 256.32 
L 211.745455 34.56 
" clip-path="url(#p7e4f6cf0c3)" style="fill: none; stroke: #b0b0b0; stroke-width: 0.8; stroke-linecap: square"/>
     </g>
     <g id="line2d_6">
      <g>
       <use xlink:href="#m4a92d99fee" x="211.745455" y="256.32" style="stroke: #000000; stroke-width: 0.8"/>
      </g>
     </g>
     <g id="text_3">
      <!-- 1.0 -->
      <g transform="translate(203.793892 270.918437) scale(0.1 -0.1)">
       <defs>
        <path id="DejaVuSans-31" d="M 794 531 
L 1825 531 
L 1825 4091 
L 703 3866 
L 703 4441 
L 1819 4666 
L 2450 4666 
L 2450 531 
L 3481 531 
L 3481 0 
L 794 0 
L 794 531 
z
" transform="scale(0.015625)"/>
       </defs>
       <use xlink:href="#DejaVuSans-31"/>
       <use xlink:href="#DejaVuSans-2e" transform="translate(63.623047 0)"/>
       <use xlink:href="#DejaVuSans-30" transform="translate(95.410156 0)"/>
      </g>
     </g>
    </g>
    <g id="xtick_4">
     <g id="line2d_7">
      <path d="M 262.472727 256.32 
L 262.472727 34.56 
" clip-path="url(#p7e4f6cf0c3)" style="fill: none; stroke: #b0b0b0; stroke-width: 0.8; stroke-linecap: square"/>
     </g>
     <g id="line2d_8">
      <g>
       <use xlink:href="#m4a92d99fee" x="262.472727" y="256.32" style="stroke: #000000; stroke-width: 0.8"/>
      </g>
     </g>
     <g id="text_4">
      <!-- 1.5 -->
      <g transform="translate(254.521165 270.918437) scale(0.1 -0.1)">
       <use xlink:href="#DejaVuSans-31"/>
       <use xlink:href="#DejaVuSans-2e" transform="translate(63.623047 0)"/>
       <use xlink:href="#DejaVuSans-35" transform="translate(95.410156 0)"/>
      </g>
     </g>
    </g>
    <g id="xtick_5">
     <g id="line2d_9">
      <path d="M 313.2 256.32 
L 313.2 34.56 
" clip-path="url(#p7e4f6cf0c3)" style="fill: none; stroke: #b0b0b0; stroke-width: 0.8; stroke-linecap: square"/>
     </g>
     <g id="line2d_10">
      <g>
       <use xlink:href="#m4a92d99fee" x="313.2" y="256.32" style="stroke: #000000; stroke-width: 0.8"/>
      </g>
     </g>
     <g id="text_5">
      <!-- 2.0 -->
      <g transform="translate(305.248438 270.918437) scale(0.1 -0.1)">
       <defs>
        <path id="DejaVuSans-32" d="M 1228 531 
L 3431 531 
L 3431 0 
L 469 0 
L 469 531 
Q 828 903 1448 1529 
Q 2069 2156 2228 2338 
Q 2531 2678 2651 2914 
Q 2772 3150 2772 3378 
Q 2772 3750 2511 3984 
Q 2250 4219 1831 4219 
Q 1534 4219 1204 4116 
Q 875 4013 500 3803 
L 500 4441 
Q 881 4594 1212 4672 
Q 1544 4750 1819 4750 
Q 2544 4750 2975 4387 
Q 3406 4025 3406 3419 
Q 3406 3131 3298 2873 
Q 3191 2616 2906 2266 
Q 2828 2175 2409 1742 
Q 1991 1309 1228 531 
z
" transform="scale(0.015625)"/>
       </defs>
       <use xlink:href="#DejaVuSans-32"/>
       <use xlink:href="#DejaVuSans-2e" transform="translate(63.623047 0)"/>
       <use xlink:href="#DejaVuSans-30" transform="translate(95.410156 0)"/>
      </g>
     </g>
    </g>
    <g id="xtick_6">
     <g id="line2d_11">
      <path d="M 363.927273 256.32 
L 363.927273 34.56 
" clip-path="url(#p7e4f6cf0c3)" style="fill: none; stroke: #b0b0b0; stroke-width: 0.8; stroke-linecap: square"/>
     </g>
     <g id="line2d_12">
      <g>
       <use xlink:href="#m4a92d99fee" x="363.927273" y="256.32" style="stroke: #000000; stroke-width: 0.8"/>
      </g>
     </g>
     <g id="text_6">
      <!-- 2.5 -->
      <g transform="translate(355.97571 270.918437) scale(0.1 -0.1)">
       <use xlink:href="#DejaVuSans-32"/>
       <use xlink:href="#DejaVuSans-2e" transform="translate(63.623047 0)"/>
       <use xlink:href="#DejaVuSans-35" transform="translate(95.410156 0)"/>
      </g>
     </g>
    </g>
    <g id="xtick_7">
     <g id="line2d_13">
      <path d="M 414.654545 256.32 
L 414.654545 34.56 
" clip-path="url(#p7e4f6cf0c3)" style="fill: none; stroke: #b0b0b0; stroke-width: 0.8; stroke-linecap: square"/>
     </g>
     <g id="line2d_14">
      <g>
       <use xlink:href="#m4a92d99fee" x="414.654545" y="256.32" style="stroke: #000000; stroke-width: 0.8"/>
      </g>
     </g>
     <g id="text_7">
      <!-- 3.0 -->
      <g transform="translate(406.702983 270.918437) scale(0.1 -0.1)">
       <defs>
        <path id="DejaVuSans-33" d="M 2597 2516 
Q 3050 2419 3304 2112 
Q 3559 1806 3559 1356 
Q 3559 666 3084 287 
Q 2609 -91 1734 -91 
Q 1441 -91 1130 -33 
Q 819 25 488 141 
L 488 750 
Q 750 597 1062 519 
Q 1375 441 1716 441 
Q 2309 441 2620 675 
Q 2931 909 2931 1356 
Q 2931 1769 2642 2001 
Q 2353 2234 1838 2234 
L 1294 2234 
L 1294 2753 
L 1863 2753 
Q 2328 2753 2575 2939 
Q 2822 3125 2822 3475 
Q 2822 3834 2567 4026 
Q 2313 4219 1838 4219 
Q 1578 4219 1281 4162 
Q 984 4106 628 3988 
L 628 4550 
Q 988 4650 1302 4700 
Q 1616 4750 1894 4750 
Q 2613 4750 3031 4423 
Q 3450 4097 3450 3541 
Q 3450 3153 3228 2886 
Q 3006 2619 2597 2516 
z
" transform="scale(0.015625)"/>
       </defs>
       <use xlink:href="#DejaVuSans-33"/>
       <use xlink:href="#DejaVuSans-2e" transform="translate(63.623047 0)"/>
       <use xlink:href="#DejaVuSans-30" transform="translate(95.410156 0)"/>
      </g>
     </g>
    </g>
    <g id="xtick_8">
     <g id="line2d_15">
      <path d="M 465.381818 256.32 
L 465.381818 34.56 
" clip-path="url(#p7e4f6cf0c3)" style="fill: none; stroke: #b0b0b0; stroke-width: 0.8; stroke-linecap: square"/>
     </g>
     <g id="line2d_16">
      <g>
       <use xlink:href="#m4a92d99fee" x="465.381818" y="256.32" style="stroke: #000000; stroke-width: 0.8"/>
      </g>
     </g>
     <g id="text_8">
      <!-- 3.5 -->
      <g transform="translate(457.430256 270.918437) scale(0.1 -0.1)">
       <use xlink:href="#DejaVuSans-33"/>
       <use xlink:href="#DejaVuSans-2e" transform="translate(63.623047 0)"/>
       <use xlink:href="#DejaVuSans-35" transform="translate(95.410156 0)"/>
      </g>
     </g>
    </g>
    <g id="xtick_9">
     <g id="line2d_17">
      <path d="M 516.109091 256.32 
L 516.109091 34.56 
" clip-path="url(#p7e4f6cf0c3)" style="fill: none; stroke: #b0b0b0; stroke-width: 0.8; stroke-linecap: square"/>
     </g>
     <g id="line2d_18">
      <g>
       <use xlink:href="#m4a92d99fee" x="516.109091" y="256.32" style="stroke: #000000; stroke-width: 0.8"/>
      </g>
     </g>
     <g id="text_9">
      <!-- 4.0 -->
      <g transform="translate(508.157528 270.918437) scale(0.1 -0.1)">
       <defs>
        <path id="DejaVuSans-34" d="M 2419 4116 
L 825 1625 
L 2419 1625 
L 2419 4116 
z
M 2253 4666 
L 3047 4666 
L 3047 1625 
L 3713 1625 
L 3713 1100 
L 3047 1100 
L 3047 0 
L 2419 0 
L 2419 1100 
L 313 1100 
L 313 1709 
L 2253 4666 
z
" transform="scale(0.015625)"/>
       </defs>
       <use xlink:href="#DejaVuSans-34"/>
       <use xlink:href="#DejaVuSans-2e" transform="translate(63.623047 0)"/>
       <use xlink:href="#DejaVuSans-30" transform="translate(95.410156 0)"/>
      </g>
     </g>
    </g>
    <g id="text_10">
     <!-- $x$ -->
     <g transform="translate(310.2 284.596563) scale(0.1 -0.1)">
      <defs>
       <path id="DejaVuSans-Oblique-78" d="M 3841 3500 
L 2234 1784 
L 3219 0 
L 2559 0 
L 1819 1388 
L 531 0 
L -166 0 
L 1556 1844 
L 641 3500 
L 1300 3500 
L 1972 2234 
L 3144 3500 
L 3841 3500 
z
" transform="scale(0.015625)"/>
      </defs>
      <use xlink:href="#DejaVuSans-Oblique-78" transform="translate(0 0.3125)"/>
     </g>
    </g>
   </g>
   <g id="matplotlib.axis_2">
    <g id="ytick_1">
     <g id="line2d_19">
      <path d="M 90 246.24 
L 536.4 246.24 
" clip-path="url(#p7e4f6cf0c3)" style="fill: none; stroke: #b0b0b0; stroke-width: 0.8; stroke-linecap: square"/>
     </g>
     <g id="line2d_20">
      <defs>
       <path id="mb3cb5c074b" d="M 0 0 
L -3.5 0 
" style="stroke: #000000; stroke-width: 0.8"/>
      </defs>
      <g>
       <use xlink:href="#mb3cb5c074b" x="90" y="246.24" style="stroke: #000000; stroke-width: 0.8"/>
      </g>
     </g>
     <g id="text_11">
      <!-- 0.0 -->
      <g transform="translate(67.096875 250.039219) scale(0.1 -0.1)">
       <use xlink:href="#DejaVuSans-30"/>
       <use xlink:href="#DejaVuSans-2e" transform="translate(63.623047 0)"/>
       <use xlink:href="#DejaVuSans-30" transform="translate(95.410156 0)"/>
      </g>
     </g>
    </g>
    <g id="ytick_2">
     <g id="line2d_21">
      <path d="M 90 221.04 
L 536.4 221.04 
" clip-path="url(#p7e4f6cf0c3)" style="fill: none; stroke: #b0b0b0; stroke-width: 0.8; stroke-linecap: square"/>
     </g>
     <g id="line2d_22">
      <g>
       <use xlink:href="#mb3cb5c074b" x="90" y="221.04" style="stroke: #000000; stroke-width: 0.8"/>
      </g>
     </g>
     <g id="text_12">
      <!-- 0.5 -->
      <g transform="translate(67.096875 224.839219) scale(0.1 -0.1)">
       <use xlink:href="#DejaVuSans-30"/>
       <use xlink:href="#DejaVuSans-2e" transform="translate(63.623047 0)"/>
       <use xlink:href="#DejaVuSans-35" transform="translate(95.410156 0)"/>
      </g>
     </g>
    </g>
    <g id="ytick_3">
     <g id="line2d_23">
      <path d="M 90 195.84 
L 536.4 195.84 
" clip-path="url(#p7e4f6cf0c3)" style="fill: none; stroke: #b0b0b0; stroke-width: 0.8; stroke-linecap: square"/>
     </g>
     <g id="line2d_24">
      <g>
       <use xlink:href="#mb3cb5c074b" x="90" y="195.84" style="stroke: #000000; stroke-width: 0.8"/>
      </g>
     </g>
     <g id="text_13">
      <!-- 1.0 -->
      <g transform="translate(67.096875 199.639219) scale(0.1 -0.1)">
       <use xlink:href="#DejaVuSans-31"/>
       <use xlink:href="#DejaVuSans-2e" transform="translate(63.623047 0)"/>
       <use xlink:href="#DejaVuSans-30" transform="translate(95.410156 0)"/>
      </g>
     </g>
    </g>
    <g id="ytick_4">
     <g id="line2d_25">
      <path d="M 90 170.64 
L 536.4 170.64 
" clip-path="url(#p7e4f6cf0c3)" style="fill: none; stroke: #b0b0b0; stroke-width: 0.8; stroke-linecap: square"/>
     </g>
     <g id="line2d_26">
      <g>
       <use xlink:href="#mb3cb5c074b" x="90" y="170.64" style="stroke: #000000; stroke-width: 0.8"/>
      </g>
     </g>
     <g id="text_14">
      <!-- 1.5 -->
      <g transform="translate(67.096875 174.439219) scale(0.1 -0.1)">
       <use xlink:href="#DejaVuSans-31"/>
       <use xlink:href="#DejaVuSans-2e" transform="translate(63.623047 0)"/>
       <use xlink:href="#DejaVuSans-35" transform="translate(95.410156 0)"/>
      </g>
     </g>
    </g>
    <g id="ytick_5">
     <g id="line2d_27">
      <path d="M 90 145.44 
L 536.4 145.44 
" clip-path="url(#p7e4f6cf0c3)" style="fill: none; stroke: #b0b0b0; stroke-width: 0.8; stroke-linecap: square"/>
     </g>
     <g id="line2d_28">
      <g>
       <use xlink:href="#mb3cb5c074b" x="90" y="145.44" style="stroke: #000000; stroke-width: 0.8"/>
      </g>
     </g>
     <g id="text_15">
      <!-- 2.0 -->
      <g transform="translate(67.096875 149.239219) scale(0.1 -0.1)">
       <use xlink:href="#DejaVuSans-32"/>
       <use xlink:href="#DejaVuSans-2e" transform="translate(63.623047 0)"/>
       <use xlink:href="#DejaVuSans-30" transform="translate(95.410156 0)"/>
      </g>
     </g>
    </g>
    <g id="ytick_6">
     <g id="line2d_29">
      <path d="M 90 120.24 
L 536.4 120.24 
" clip-path="url(#p7e4f6cf0c3)" style="fill: none; stroke: #b0b0b0; stroke-width: 0.8; stroke-linecap: square"/>
     </g>
     <g id="line2d_30">
      <g>
       <use xlink:href="#mb3cb5c074b" x="90" y="120.24" style="stroke: #000000; stroke-width: 0.8"/>
      </g>
     </g>
     <g id="text_16">
      <!-- 2.5 -->
      <g transform="translate(67.096875 124.039219) scale(0.1 -0.1)">
       <use xlink:href="#DejaVuSans-32"/>
       <use xlink:href="#DejaVuSans-2e" transform="translate(63.623047 0)"/>
       <use xlink:href="#DejaVuSans-35" transform="translate(95.410156 0)"/>
      </g>
     </g>
    </g>
    <g id="ytick_7">
     <g id="line2d_31">
      <path d="M 90 95.04 
L 536.4 95.04 
" clip-path="url(#p7e4f6cf0c3)" style="fill: none; stroke: #b0b0b0; stroke-width: 0.8; stroke-linecap: square"/>
     </g>
     <g id="line2d_32">
      <g>
       <use xlink:href="#mb3cb5c074b" x="90" y="95.04" style="stroke: #000000; stroke-width: 0.8"/>
      </g>
     </g>
     <g id="text_17">
      <!-- 3.0 -->
      <g transform="translate(67.096875 98.839219) scale(0.1 -0.1)">
       <use xlink:href="#DejaVuSans-33"/>
       <use xlink:href="#DejaVuSans-2e" transform="translate(63.623047 0)"/>
       <use xlink:href="#DejaVuSans-30" transform="translate(95.410156 0)"/>
      </g>
     </g>
    </g>
    <g id="ytick_8">
     <g id="line2d_33">
      <path d="M 90 69.84 
L 536.4 69.84 
" clip-path="url(#p7e4f6cf0c3)" style="fill: none; stroke: #b0b0b0; stroke-width: 0.8; stroke-linecap: square"/>
     </g>
     <g id="line2d_34">
      <g>
       <use xlink:href="#mb3cb5c074b" x="90" y="69.84" style="stroke: #000000; stroke-width: 0.8"/>
      </g>
     </g>
     <g id="text_18">
      <!-- 3.5 -->
      <g transform="translate(67.096875 73.639219) scale(0.1 -0.1)">
       <use xlink:href="#DejaVuSans-33"/>
       <use xlink:href="#DejaVuSans-2e" transform="translate(63.623047 0)"/>
       <use xlink:href="#DejaVuSans-35" transform="translate(95.410156 0)"/>
      </g>
     </g>
    </g>
    <g id="ytick_9">
     <g id="line2d_35">
      <path d="M 90 44.64 
L 536.4 44.64 
" clip-path="url(#p7e4f6cf0c3)" style="fill: none; stroke: #b0b0b0; stroke-width: 0.8; stroke-linecap: square"/>
     </g>
     <g id="line2d_36">
      <g>
       <use xlink:href="#mb3cb5c074b" x="90" y="44.64" style="stroke: #000000; stroke-width: 0.8"/>
      </g>
     </g>
     <g id="text_19">
      <!-- 4.0 -->
      <g transform="translate(67.096875 48.439219) scale(0.1 -0.1)">
       <use xlink:href="#DejaVuSans-34"/>
       <use xlink:href="#DejaVuSans-2e" transform="translate(63.623047 0)"/>
       <use xlink:href="#DejaVuSans-30" transform="translate(95.410156 0)"/>
      </g>
     </g>
    </g>
    <g id="text_20">
     <!-- $y$ -->
     <g transform="translate(60.996875 148.44) rotate(-90) scale(0.1 -0.1)">
      <defs>
       <path id="DejaVuSans-Oblique-79" d="M 1588 -325 
Q 1188 -997 936 -1164 
Q 684 -1331 294 -1331 
L -159 -1331 
L -63 -850 
L 269 -850 
Q 509 -850 678 -719 
Q 847 -588 1056 -206 
L 1234 128 
L 459 3500 
L 1069 3500 
L 1650 819 
L 3256 3500 
L 3859 3500 
L 1588 -325 
z
" transform="scale(0.015625)"/>
      </defs>
      <use xlink:href="#DejaVuSans-Oblique-79" transform="translate(0 0.3125)"/>
     </g>
    </g>
   </g>
   <g id="QuadContourSet_1">
    <path d="M 110.290909 203.04 
L 116.732468 204.64 
L 116.732468 204.64 
L 123.174026 206.24 
L 129.615584 207.84 
L 129.615584 207.84 
L 136.057143 209.44 
L 142.498701 211.04 
L 142.498701 211.04 
L 148.94026 212.64 
L 155.381818 214.24 
L 155.381818 214.24 
L 161.823377 215.84 
L 168.264935 217.44 
L 168.264935 217.44 
L 174.706494 219.04 
L 181.148052 220.64 
L 181.148052 220.64 
L 187.58961 222.24 
L 194.031169 223.84 
L 194.031169 223.84 
L 200.472727 225.44 
L 206.914286 227.04 
L 206.914286 227.04 
L 213.355844 228.64 
L 219.797403 230.24 
L 219.797403 230.24 
L 226.238961 231.84 
L 232.680519 233.44 
L 232.680519 233.44 
L 239.122078 235.04 
L 245.563636 236.64 
L 245.563636 236.64 
L 252.005195 238.24 
L 258.446753 239.84 
L 258.446753 239.84 
L 264.888312 241.44 
L 271.32987 243.04 
L 271.32987 243.04 
L 277.771429 244.64 
L 284.212987 246.24 
L 284.212987 246.24 
" clip-path="url(#p7e4f6cf0c3)" style="fill: none; stroke: #440154; stroke-opacity: 0.996094"/>
    <path d="M 110.290909 169.44 
L 110.290909 169.44 
L 116.732468 171.04 
L 123.174026 172.64 
L 123.174026 172.64 
L 129.615584 174.24 
L 136.057143 175.84 
L 136.057143 175.84 
L 142.498701 177.44 
L 148.94026 179.04 
L 148.94026 179.04 
L 155.381818 180.64 
L 161.823377 182.24 
L 161.823377 182.24 
L 168.264935 183.84 
L 174.706494 185.44 
L 174.706494 185.44 
L 181.148052 187.04 
L 187.58961 188.64 
L 187.58961 188.64 
L 194.031169 190.24 
L 200.472727 191.84 
L 200.472727 191.84 
L 206.914286 193.44 
L 213.355844 195.04 
L 213.355844 195.04 
L 219.797403 196.64 
L 226.238961 198.24 
L 226.238961 198.24 
L 232.680519 199.84 
L 239.122078 201.44 
L 239.122078 201.44 
L 245.563636 203.04 
L 252.005195 204.64 
L 252.005195 204.64 
L 258.446753 206.24 
L 264.888312 207.84 
L 264.888312 207.84 
L 271.32987 209.44 
L 277.771429 211.04 
L 277.771429 211.04 
L 284.212987 212.64 
L 290.654545 214.24 
L 290.654545 214.24 
L 297.096104 215.84 
L 303.537662 217.44 
L 303.537662 217.44 
L 309.979221 219.04 
L 316.420779 220.64 
L 316.420779 220.64 
L 322.862338 222.24 
L 329.303896 223.84 
L 329.303896 223.84 
L 335.745455 225.44 
L 342.187013 227.04 
L 342.187013 227.04 
L 348.628571 228.64 
L 355.07013 230.24 
L 355.07013 230.24 
L 361.511688 231.84 
L 367.953247 233.44 
L 367.953247 233.44 
L 374.394805 235.04 
L 380.836364 236.64 
L 380.836364 236.64 
L 387.277922 238.24 
L 393.719481 239.84 
L 393.719481 239.84 
L 400.161039 241.44 
L 406.602597 243.04 
L 406.602597 243.04 
L 413.044156 244.64 
L 419.485714 246.24 
L 419.485714 246.24 
" clip-path="url(#p7e4f6cf0c3)" style="fill: none; stroke: #453581; stroke-opacity: 0.996094"/>
    <path d="M 110.290909 145.44 
L 116.732468 147.04 
L 116.732468 147.04 
L 123.174026 148.64 
L 129.615584 150.24 
L 129.615584 150.24 
L 136.057143 151.84 
L 142.498701 153.44 
L 142.498701 153.44 
L 148.94026 155.04 
L 155.381818 156.64 
L 155.381818 156.64 
L 161.823377 158.24 
L 168.264935 159.84 
L 168.264935 159.84 
L 174.706494 161.44 
L 181.148052 163.04 
L 181.148052 163.04 
L 187.58961 164.64 
L 194.031169 166.24 
L 194.031169 166.24 
L 200.472727 167.84 
L 206.914286 169.44 
L 206.914286 169.44 
L 213.355844 171.04 
L 219.797403 172.64 
L 219.797403 172.64 
L 226.238961 174.24 
L 232.680519 175.84 
L 232.680519 175.84 
L 239.122078 177.44 
L 245.563636 179.04 
L 245.563636 179.04 
L 252.005195 180.64 
L 258.446753 182.24 
L 258.446753 182.24 
L 264.888312 183.84 
L 271.32987 185.44 
L 271.32987 185.44 
L 277.771429 187.04 
L 284.212987 188.64 
L 284.212987 188.64 
L 290.654545 190.24 
L 297.096104 191.84 
L 297.096104 191.84 
L 303.537662 193.44 
L 309.979221 195.04 
L 309.979221 195.04 
L 316.420779 196.64 
L 322.862338 198.24 
L 322.862338 198.24 
L 329.303896 199.84 
L 335.745455 201.44 
L 335.745455 201.44 
L 342.187013 203.04 
L 348.628571 204.64 
L 348.628571 204.64 
L 355.07013 206.24 
L 361.511688 207.84 
L 361.511688 207.84 
L 367.953247 209.44 
L 374.394805 211.04 
L 374.394805 211.04 
L 380.836364 212.64 
L 387.277922 214.24 
L 387.277922 214.24 
L 393.719481 215.84 
L 400.161039 217.44 
L 400.161039 217.44 
L 406.602597 219.04 
L 413.044156 220.64 
L 413.044156 220.64 
L 419.485714 222.24 
L 425.927273 223.84 
L 425.927273 223.84 
L 432.368831 225.44 
L 438.81039 227.04 
L 438.81039 227.04 
L 445.251948 228.64 
L 451.693506 230.24 
L 451.693506 230.24 
L 458.135065 231.84 
L 464.576623 233.44 
L 464.576623 233.44 
L 471.018182 235.04 
L 477.45974 236.64 
L 477.45974 236.64 
L 483.901299 238.24 
L 490.342857 239.84 
L 490.342857 239.84 
L 496.784416 241.44 
L 503.225974 243.04 
L 503.225974 243.04 
L 509.667532 244.64 
L 516.109091 246.24 
" clip-path="url(#p7e4f6cf0c3)" style="fill: none; stroke: #39568c; stroke-opacity: 0.996094"/>
    <path d="M 110.290909 126.24 
L 116.732468 127.84 
L 116.732468 127.84 
L 123.174026 129.44 
L 129.615584 131.04 
L 129.615584 131.04 
L 136.057143 132.64 
L 142.498701 134.24 
L 142.498701 134.24 
L 148.94026 135.84 
L 155.381818 137.44 
L 155.381818 137.44 
L 161.823377 139.04 
L 168.264935 140.64 
L 168.264935 140.64 
L 174.706494 142.24 
L 181.148052 143.84 
L 181.148052 143.84 
L 187.58961 145.44 
L 194.031169 147.04 
L 194.031169 147.04 
L 200.472727 148.64 
L 206.914286 150.24 
L 206.914286 150.24 
L 213.355844 151.84 
L 219.797403 153.44 
L 219.797403 153.44 
L 226.238961 155.04 
L 232.680519 156.64 
L 232.680519 156.64 
L 239.122078 158.24 
L 245.563636 159.84 
L 245.563636 159.84 
L 252.005195 161.44 
L 258.446753 163.04 
L 258.446753 163.04 
L 264.888312 164.64 
L 271.32987 166.24 
L 271.32987 166.24 
L 277.771429 167.84 
L 284.212987 169.44 
L 284.212987 169.44 
L 290.654545 171.04 
L 297.096104 172.64 
L 297.096104 172.64 
L 303.537662 174.24 
L 309.979221 175.84 
L 309.979221 175.84 
L 316.420779 177.44 
L 322.862338 179.04 
L 322.862338 179.04 
L 329.303896 180.64 
L 335.745455 182.24 
L 335.745455 182.24 
L 342.187013 183.84 
L 348.628571 185.44 
L 348.628571 185.44 
L 355.07013 187.04 
L 361.511688 188.64 
L 361.511688 188.64 
L 367.953247 190.24 
L 374.394805 191.84 
L 374.394805 191.84 
L 380.836364 193.44 
L 387.277922 195.04 
L 387.277922 195.04 
L 393.719481 196.64 
L 400.161039 198.24 
L 400.161039 198.24 
L 406.602597 199.84 
L 413.044156 201.44 
L 413.044156 201.44 
L 419.485714 203.04 
L 425.927273 204.64 
L 425.927273 204.64 
L 432.368831 206.24 
L 438.81039 207.84 
L 438.81039 207.84 
L 445.251948 209.44 
L 451.693506 211.04 
L 451.693506 211.04 
L 458.135065 212.64 
L 464.576623 214.24 
L 464.576623 214.24 
L 471.018182 215.84 
L 477.45974 217.44 
L 477.45974 217.44 
L 483.901299 219.04 
L 490.342857 220.64 
L 490.342857 220.64 
L 496.784416 222.24 
L 503.225974 223.84 
L 503.225974 223.84 
L 509.667532 225.44 
L 516.109091 227.04 
" clip-path="url(#p7e4f6cf0c3)" style="fill: none; stroke: #2e6e8e; stroke-opacity: 0.996094"/>
    <path d="M 110.290909 105.44 
L 110.290909 105.44 
L 116.732468 107.04 
L 123.174026 108.64 
L 123.174026 108.64 
L 129.615584 110.24 
L 136.057143 111.84 
L 136.057143 111.84 
L 142.498701 113.44 
L 148.94026 115.04 
L 148.94026 115.04 
L 155.381818 116.64 
L 161.823377 118.24 
L 161.823377 118.24 
L 168.264935 119.84 
L 174.706494 121.44 
L 174.706494 121.44 
L 181.148052 123.04 
L 187.58961 124.64 
L 187.58961 124.64 
L 194.031169 126.24 
L 200.472727 127.84 
L 200.472727 127.84 
L 206.914286 129.44 
L 213.355844 131.04 
L 213.355844 131.04 
L 219.797403 132.64 
L 226.238961 134.24 
L 226.238961 134.24 
L 232.680519 135.84 
L 239.122078 137.44 
L 239.122078 137.44 
L 245.563636 139.04 
L 252.005195 140.64 
L 252.005195 140.64 
L 258.446753 142.24 
L 264.888312 143.84 
L 264.888312 143.84 
L 271.32987 145.44 
L 277.771429 147.04 
L 277.771429 147.04 
L 284.212987 148.64 
L 290.654545 150.24 
L 290.654545 150.24 
L 297.096104 151.84 
L 303.537662 153.44 
L 303.537662 153.44 
L 309.979221 155.04 
L 316.420779 156.64 
L 316.420779 156.64 
L 322.862338 158.24 
L 329.303896 159.84 
L 329.303896 159.84 
L 335.745455 161.44 
L 342.187013 163.04 
L 342.187013 163.04 
L 348.628571 164.64 
L 355.07013 166.24 
L 355.07013 166.24 
L 361.511688 167.84 
L 367.953247 169.44 
L 367.953247 169.44 
L 374.394805 171.04 
L 380.836364 172.64 
L 380.836364 172.64 
L 387.277922 174.24 
L 393.719481 175.84 
L 393.719481 175.84 
L 400.161039 177.44 
L 406.602597 179.04 
L 406.602597 179.04 
L 413.044156 180.64 
L 419.485714 182.24 
L 419.485714 182.24 
L 425.927273 183.84 
L 432.368831 185.44 
L 432.368831 185.44 
L 438.81039 187.04 
L 445.251948 188.64 
L 445.251948 188.64 
L 451.693506 190.24 
L 458.135065 191.84 
L 458.135065 191.84 
L 464.576623 193.44 
L 471.018182 195.04 
L 471.018182 195.04 
L 477.45974 196.64 
L 483.901299 198.24 
L 483.901299 198.24 
L 490.342857 199.84 
L 496.784416 201.44 
L 496.784416 201.44 
L 503.225974 203.04 
L 509.667532 204.64 
L 509.667532 204.64 
L 516.109091 206.24 
" clip-path="url(#p7e4f6cf0c3)" style="fill: none; stroke: #25848e; stroke-opacity: 0.996094"/>
    <path d="M 110.290909 84.64 
L 116.732468 86.24 
L 116.732468 86.24 
L 123.174026 87.84 
L 129.615584 89.44 
L 129.615584 89.44 
L 136.057143 91.04 
L 142.498701 92.64 
L 142.498701 92.64 
L 148.94026 94.24 
L 155.381818 95.84 
L 155.381818 95.84 
L 161.823377 97.44 
L 168.264935 99.04 
L 168.264935 99.04 
L 174.706494 100.64 
L 181.148052 102.24 
L 181.148052 102.24 
L 187.58961 103.84 
L 194.031169 105.44 
L 194.031169 105.44 
L 200.472727 107.04 
L 206.914286 108.64 
L 206.914286 108.64 
L 213.355844 110.24 
L 219.797403 111.84 
L 219.797403 111.84 
L 226.238961 113.44 
L 232.680519 115.04 
L 232.680519 115.04 
L 239.122078 116.64 
L 245.563636 118.24 
L 245.563636 118.24 
L 252.005195 119.84 
L 258.446753 121.44 
L 258.446753 121.44 
L 264.888312 123.04 
L 271.32987 124.64 
L 271.32987 124.64 
L 277.771429 126.24 
L 284.212987 127.84 
L 284.212987 127.84 
L 290.654545 129.44 
L 297.096104 131.04 
L 297.096104 131.04 
L 303.537662 132.64 
L 309.979221 134.24 
L 309.979221 134.24 
L 316.420779 135.84 
L 322.862338 137.44 
L 322.862338 137.44 
L 329.303896 139.04 
L 335.745455 140.64 
L 335.745455 140.64 
L 342.187013 142.24 
L 348.628571 143.84 
L 348.628571 143.84 
L 355.07013 145.44 
L 361.511688 147.04 
L 361.511688 147.04 
L 367.953247 148.64 
L 374.394805 150.24 
L 374.394805 150.24 
L 380.836364 151.84 
L 387.277922 153.44 
L 387.277922 153.44 
L 393.719481 155.04 
L 400.161039 156.64 
L 400.161039 156.64 
L 406.602597 158.24 
L 413.044156 159.84 
L 413.044156 159.84 
L 419.485714 161.44 
L 425.927273 163.04 
L 425.927273 163.04 
L 432.368831 164.64 
L 438.81039 166.24 
L 438.81039 166.24 
L 445.251948 167.84 
L 451.693506 169.44 
L 451.693506 169.44 
L 458.135065 171.04 
L 464.576623 172.64 
L 464.576623 172.64 
L 471.018182 174.24 
L 477.45974 175.84 
L 477.45974 175.84 
L 483.901299 177.44 
L 490.342857 179.04 
L 490.342857 179.04 
L 496.784416 180.64 
L 503.225974 182.24 
L 503.225974 182.24 
L 509.667532 183.84 
L 516.109091 185.44 
L 516.109091 185.44 
" clip-path="url(#p7e4f6cf0c3)" style="fill: none; stroke: #1e9c89; stroke-opacity: 0.996094"/>
    <path d="M 110.290909 63.84 
L 110.290909 63.84 
L 116.732468 65.44 
L 123.174026 67.04 
L 123.174026 67.04 
L 129.615584 68.64 
L 136.057143 70.24 
L 136.057143 70.24 
L 142.498701 71.84 
L 148.94026 73.44 
L 148.94026 73.44 
L 155.381818 75.04 
L 161.823377 76.64 
L 161.823377 76.64 
L 168.264935 78.24 
L 174.706494 79.84 
L 174.706494 79.84 
L 181.148052 81.44 
L 187.58961 83.04 
L 187.58961 83.04 
L 194.031169 84.64 
L 200.472727 86.24 
L 200.472727 86.24 
L 206.914286 87.84 
L 213.355844 89.44 
L 213.355844 89.44 
L 219.797403 91.04 
L 226.238961 92.64 
L 226.238961 92.64 
L 232.680519 94.24 
L 239.122078 95.84 
L 239.122078 95.84 
L 245.563636 97.44 
L 252.005195 99.04 
L 252.005195 99.04 
L 258.446753 100.64 
L 264.888312 102.24 
L 264.888312 102.24 
L 271.32987 103.84 
L 277.771429 105.44 
L 277.771429 105.44 
L 284.212987 107.04 
L 290.654545 108.64 
L 290.654545 108.64 
L 297.096104 110.24 
L 303.537662 111.84 
L 303.537662 111.84 
L 309.979221 113.44 
L 316.420779 115.04 
L 316.420779 115.04 
L 322.862338 116.64 
L 329.303896 118.24 
L 329.303896 118.24 
L 335.745455 119.84 
L 342.187013 121.44 
L 342.187013 121.44 
L 348.628571 123.04 
L 355.07013 124.64 
L 355.07013 124.64 
L 361.511688 126.24 
L 367.953247 127.84 
L 367.953247 127.84 
L 374.394805 129.44 
L 380.836364 131.04 
L 380.836364 131.04 
L 387.277922 132.64 
L 393.719481 134.24 
L 393.719481 134.24 
L 400.161039 135.84 
L 406.602597 137.44 
L 406.602597 137.44 
L 413.044156 139.04 
L 419.485714 140.64 
L 419.485714 140.64 
L 425.927273 142.24 
L 432.368831 143.84 
L 432.368831 143.84 
L 438.81039 145.44 
L 445.251948 147.04 
L 445.251948 147.04 
L 451.693506 148.64 
L 458.135065 150.24 
L 458.135065 150.24 
L 464.576623 151.84 
L 471.018182 153.44 
L 471.018182 153.44 
L 477.45974 155.04 
L 483.901299 156.64 
L 483.901299 156.64 
L 490.342857 158.24 
L 496.784416 159.84 
L 496.784416 159.84 
L 503.225974 161.44 
L 509.667532 163.04 
L 509.667532 163.04 
L 516.109091 164.64 
" clip-path="url(#p7e4f6cf0c3)" style="fill: none; stroke: #2db27d; stroke-opacity: 0.996094"/>
    <path d="M 116.732468 44.64 
L 116.732468 44.64 
L 123.174026 46.24 
L 129.615584 47.84 
L 129.615584 47.84 
L 136.057143 49.44 
L 142.498701 51.04 
L 142.498701 51.04 
L 148.94026 52.64 
L 155.381818 54.24 
L 155.381818 54.24 
L 161.823377 55.84 
L 168.264935 57.44 
L 168.264935 57.44 
L 174.706494 59.04 
L 181.148052 60.64 
L 181.148052 60.64 
L 187.58961 62.24 
L 194.031169 63.84 
L 194.031169 63.84 
L 200.472727 65.44 
L 206.914286 67.04 
L 206.914286 67.04 
L 213.355844 68.64 
L 219.797403 70.24 
L 219.797403 70.24 
L 226.238961 71.84 
L 232.680519 73.44 
L 232.680519 73.44 
L 239.122078 75.04 
L 245.563636 76.64 
L 245.563636 76.64 
L 252.005195 78.24 
L 258.446753 79.84 
L 258.446753 79.84 
L 264.888312 81.44 
L 271.32987 83.04 
L 271.32987 83.04 
L 277.771429 84.64 
L 284.212987 86.24 
L 284.212987 86.24 
L 290.654545 87.84 
L 297.096104 89.44 
L 297.096104 89.44 
L 303.537662 91.04 
L 309.979221 92.64 
L 309.979221 92.64 
L 316.420779 94.24 
L 322.862338 95.84 
L 322.862338 95.84 
L 329.303896 97.44 
L 335.745455 99.04 
L 335.745455 99.04 
L 342.187013 100.64 
L 348.628571 102.24 
L 348.628571 102.24 
L 355.07013 103.84 
L 361.511688 105.44 
L 361.511688 105.44 
L 367.953247 107.04 
L 374.394805 108.64 
L 374.394805 108.64 
L 380.836364 110.24 
L 387.277922 111.84 
L 387.277922 111.84 
L 393.719481 113.44 
L 400.161039 115.04 
L 400.161039 115.04 
L 406.602597 116.64 
L 413.044156 118.24 
L 413.044156 118.24 
L 419.485714 119.84 
L 425.927273 121.44 
L 425.927273 121.44 
L 432.368831 123.04 
L 438.81039 124.64 
L 438.81039 124.64 
L 445.251948 126.24 
L 451.693506 127.84 
L 451.693506 127.84 
L 458.135065 129.44 
L 464.576623 131.04 
L 464.576623 131.04 
L 471.018182 132.64 
L 477.45974 134.24 
L 477.45974 134.24 
L 483.901299 135.84 
L 490.342857 137.44 
L 490.342857 137.44 
L 496.784416 139.04 
L 503.225974 140.64 
L 503.225974 140.64 
L 509.667532 142.24 
L 516.109091 143.84 
L 516.109091 143.84 
" clip-path="url(#p7e4f6cf0c3)" style="fill: none; stroke: #58c765; stroke-opacity: 0.996094"/>
    <path d="M 206.914286 44.64 
L 206.914286 44.64 
L 213.355844 46.24 
L 219.797403 47.84 
L 219.797403 47.84 
L 226.238961 49.44 
L 232.680519 51.04 
L 232.680519 51.04 
L 239.122078 52.64 
L 245.563636 54.24 
L 245.563636 54.24 
L 252.005195 55.84 
L 258.446753 57.44 
L 258.446753 57.44 
L 264.888312 59.04 
L 271.32987 60.64 
L 271.32987 60.64 
L 277.771429 62.24 
L 284.212987 63.84 
L 284.212987 63.84 
L 290.654545 65.44 
L 297.096104 67.04 
L 297.096104 67.04 
L 303.537662 68.64 
L 309.979221 70.24 
L 309.979221 70.24 
L 316.420779 71.84 
L 322.862338 73.44 
L 322.862338 73.44 
L 329.303896 75.04 
L 335.745455 76.64 
L 335.745455 76.64 
L 342.187013 78.24 
L 348.628571 79.84 
L 348.628571 79.84 
L 355.07013 81.44 
L 361.511688 83.04 
L 361.511688 83.04 
L 367.953247 84.64 
L 374.394805 86.24 
L 374.394805 86.24 
L 380.836364 87.84 
L 387.277922 89.44 
L 387.277922 89.44 
L 393.719481 91.04 
L 400.161039 92.64 
L 400.161039 92.64 
L 406.602597 94.24 
L 413.044156 95.84 
L 413.044156 95.84 
L 419.485714 97.44 
L 425.927273 99.04 
L 425.927273 99.04 
L 432.368831 100.64 
L 438.81039 102.24 
L 438.81039 102.24 
L 445.251948 103.84 
L 451.693506 105.44 
L 451.693506 105.44 
L 458.135065 107.04 
L 464.576623 108.64 
L 464.576623 108.64 
L 471.018182 110.24 
L 477.45974 111.84 
L 477.45974 111.84 
L 483.901299 113.44 
L 490.342857 115.04 
L 490.342857 115.04 
L 496.784416 116.64 
L 503.225974 118.24 
L 503.225974 118.24 
L 509.667532 119.84 
L 516.109091 121.44 
L 516.109091 121.44 
" clip-path="url(#p7e4f6cf0c3)" style="fill: none; stroke: #98d83e; stroke-opacity: 0.996094"/>
    <path d="M 342.187013 44.64 
L 342.187013 44.64 
L 348.628571 46.24 
L 355.07013 47.84 
L 355.07013 47.84 
L 361.511688 49.44 
L 367.953247 51.04 
L 367.953247 51.04 
L 374.394805 52.64 
L 380.836364 54.24 
L 380.836364 54.24 
L 387.277922 55.84 
L 393.719481 57.44 
L 393.719481 57.44 
L 400.161039 59.04 
L 406.602597 60.64 
L 406.602597 60.64 
L 413.044156 62.24 
L 419.485714 63.84 
L 419.485714 63.84 
L 425.927273 65.44 
L 432.368831 67.04 
L 432.368831 67.04 
L 438.81039 68.64 
L 445.251948 70.24 
L 445.251948 70.24 
L 451.693506 71.84 
L 458.135065 73.44 
L 458.135065 73.44 
L 464.576623 75.04 
L 471.018182 76.64 
L 471.018182 76.64 
L 477.45974 78.24 
L 483.901299 79.84 
L 483.901299 79.84 
L 490.342857 81.44 
L 496.784416 83.04 
L 496.784416 83.04 
L 503.225974 84.64 
L 509.667532 86.24 
L 509.667532 86.24 
L 516.109091 87.84 
" clip-path="url(#p7e4f6cf0c3)" style="fill: none; stroke: #fde725; stroke-opacity: 0.996094"/>
   </g>
   <g id="patch_3">
    <path d="M 90 256.32 
L 90 34.56 
" style="fill: none; stroke: #000000; stroke-width: 0.8; stroke-linejoin: miter; stroke-linecap: square"/>
   </g>
   <g id="patch_4">
    <path d="M 536.4 256.32 
L 536.4 34.56 
" style="fill: none; stroke: #000000; stroke-width: 0.8; stroke-linejoin: miter; stroke-linecap: square"/>
   </g>
   <g id="patch_5">
    <path d="M 90 256.32 
L 536.4 256.32 
" style="fill: none; stroke: #000000; stroke-width: 0.8; stroke-linejoin: miter; stroke-linecap: square"/>
   </g>
   <g id="patch_6">
    <path d="M 90 34.56 
L 536.4 34.56 
" style="fill: none; stroke: #000000; stroke-width: 0.8; stroke-linejoin: miter; stroke-linecap: square"/>
   </g>
  </g>
  <g id="axes_2">
   <g id="patch_7">
    <path d="M 564.3 246.24 
L 575.388 246.24 
L 575.388 44.64 
L 564.3 44.64 
z
" style="fill: #ffffff"/>
   </g>
   <g id="matplotlib.axis_3"/>
   <g id="matplotlib.axis_4">
    <g id="ytick_10">
     <g id="line2d_37">
      <defs>
       <path id="mb508538578" d="M 0 0 
L 3.5 0 
" style="stroke: #000000; stroke-width: 0.8"/>
      </defs>
      <g>
       <use xlink:href="#mb508538578" x="575.388" y="246.24" style="stroke: #000000; stroke-width: 0.8"/>
      </g>
     </g>
     <g id="text_21">
      <!-- -4.79 -->
      <g transform="translate(582.388 250.039219) scale(0.1 -0.1)">
       <defs>
        <path id="DejaVuSans-2d" d="M 313 2009 
L 1997 2009 
L 1997 1497 
L 313 1497 
L 313 2009 
z
" transform="scale(0.015625)"/>
        <path id="DejaVuSans-37" d="M 525 4666 
L 3525 4666 
L 3525 4397 
L 1831 0 
L 1172 0 
L 2766 4134 
L 525 4134 
L 525 4666 
z
" transform="scale(0.015625)"/>
        <path id="DejaVuSans-39" d="M 703 97 
L 703 672 
Q 941 559 1184 500 
Q 1428 441 1663 441 
Q 2288 441 2617 861 
Q 2947 1281 2994 2138 
Q 2813 1869 2534 1725 
Q 2256 1581 1919 1581 
Q 1219 1581 811 2004 
Q 403 2428 403 3163 
Q 403 3881 828 4315 
Q 1253 4750 1959 4750 
Q 2769 4750 3195 4129 
Q 3622 3509 3622 2328 
Q 3622 1225 3098 567 
Q 2575 -91 1691 -91 
Q 1453 -91 1209 -44 
Q 966 3 703 97 
z
M 1959 2075 
Q 2384 2075 2632 2365 
Q 2881 2656 2881 3163 
Q 2881 3666 2632 3958 
Q 2384 4250 1959 4250 
Q 1534 4250 1286 3958 
Q 1038 3666 1038 3163 
Q 1038 2656 1286 2365 
Q 1534 2075 1959 2075 
z
" transform="scale(0.015625)"/>
       </defs>
       <use xlink:href="#DejaVuSans-2d"/>
       <use xlink:href="#DejaVuSans-34" transform="translate(36.083984 0)"/>
       <use xlink:href="#DejaVuSans-2e" transform="translate(99.707031 0)"/>
       <use xlink:href="#DejaVuSans-37" transform="translate(131.494141 0)"/>
       <use xlink:href="#DejaVuSans-39" transform="translate(195.117188 0)"/>
      </g>
     </g>
    </g>
    <g id="ytick_11">
     <g id="line2d_38">
      <g>
       <use xlink:href="#mb508538578" x="575.388" y="223.84" style="stroke: #000000; stroke-width: 0.8"/>
      </g>
     </g>
     <g id="text_22">
      <!-- -3.45 -->
      <g transform="translate(582.388 227.639219) scale(0.1 -0.1)">
       <use xlink:href="#DejaVuSans-2d"/>
       <use xlink:href="#DejaVuSans-33" transform="translate(36.083984 0)"/>
       <use xlink:href="#DejaVuSans-2e" transform="translate(99.707031 0)"/>
       <use xlink:href="#DejaVuSans-34" transform="translate(131.494141 0)"/>
       <use xlink:href="#DejaVuSans-35" transform="translate(195.117188 0)"/>
      </g>
     </g>
    </g>
    <g id="ytick_12">
     <g id="line2d_39">
      <g>
       <use xlink:href="#mb508538578" x="575.388" y="201.44" style="stroke: #000000; stroke-width: 0.8"/>
      </g>
     </g>
     <g id="text_23">
      <!-- -2.5 -->
      <g transform="translate(582.388 205.239219) scale(0.1 -0.1)">
       <use xlink:href="#DejaVuSans-2d"/>
       <use xlink:href="#DejaVuSans-32" transform="translate(36.083984 0)"/>
       <use xlink:href="#DejaVuSans-2e" transform="translate(99.707031 0)"/>
       <use xlink:href="#DejaVuSans-35" transform="translate(131.494141 0)"/>
      </g>
     </g>
    </g>
    <g id="ytick_13">
     <g id="line2d_40">
      <g>
       <use xlink:href="#mb508538578" x="575.388" y="179.04" style="stroke: #000000; stroke-width: 0.8"/>
      </g>
     </g>
     <g id="text_24">
      <!-- -1.74 -->
      <g transform="translate(582.388 182.839219) scale(0.1 -0.1)">
       <use xlink:href="#DejaVuSans-2d"/>
       <use xlink:href="#DejaVuSans-31" transform="translate(36.083984 0)"/>
       <use xlink:href="#DejaVuSans-2e" transform="translate(99.707031 0)"/>
       <use xlink:href="#DejaVuSans-37" transform="translate(131.494141 0)"/>
       <use xlink:href="#DejaVuSans-34" transform="translate(195.117188 0)"/>
      </g>
     </g>
    </g>
    <g id="ytick_14">
     <g id="line2d_41">
      <g>
       <use xlink:href="#mb508538578" x="575.388" y="156.64" style="stroke: #000000; stroke-width: 0.8"/>
      </g>
     </g>
     <g id="text_25">
      <!-- -0.913 -->
      <g transform="translate(582.388 160.439219) scale(0.1 -0.1)">
       <use xlink:href="#DejaVuSans-2d"/>
       <use xlink:href="#DejaVuSans-30" transform="translate(36.083984 0)"/>
       <use xlink:href="#DejaVuSans-2e" transform="translate(99.707031 0)"/>
       <use xlink:href="#DejaVuSans-39" transform="translate(131.494141 0)"/>
       <use xlink:href="#DejaVuSans-31" transform="translate(195.117188 0)"/>
       <use xlink:href="#DejaVuSans-33" transform="translate(258.740234 0)"/>
      </g>
     </g>
    </g>
    <g id="ytick_15">
     <g id="line2d_42">
      <g>
       <use xlink:href="#mb508538578" x="575.388" y="134.24" style="stroke: #000000; stroke-width: 0.8"/>
      </g>
     </g>
     <g id="text_26">
      <!-- -0.0873 -->
      <g transform="translate(582.388 138.039219) scale(0.1 -0.1)">
       <defs>
        <path id="DejaVuSans-38" d="M 2034 2216 
Q 1584 2216 1326 1975 
Q 1069 1734 1069 1313 
Q 1069 891 1326 650 
Q 1584 409 2034 409 
Q 2484 409 2743 651 
Q 3003 894 3003 1313 
Q 3003 1734 2745 1975 
Q 2488 2216 2034 2216 
z
M 1403 2484 
Q 997 2584 770 2862 
Q 544 3141 544 3541 
Q 544 4100 942 4425 
Q 1341 4750 2034 4750 
Q 2731 4750 3128 4425 
Q 3525 4100 3525 3541 
Q 3525 3141 3298 2862 
Q 3072 2584 2669 2484 
Q 3125 2378 3379 2068 
Q 3634 1759 3634 1313 
Q 3634 634 3220 271 
Q 2806 -91 2034 -91 
Q 1263 -91 848 271 
Q 434 634 434 1313 
Q 434 1759 690 2068 
Q 947 2378 1403 2484 
z
M 1172 3481 
Q 1172 3119 1398 2916 
Q 1625 2713 2034 2713 
Q 2441 2713 2670 2916 
Q 2900 3119 2900 3481 
Q 2900 3844 2670 4047 
Q 2441 4250 2034 4250 
Q 1625 4250 1398 4047 
Q 1172 3844 1172 3481 
z
" transform="scale(0.015625)"/>
       </defs>
       <use xlink:href="#DejaVuSans-2d"/>
       <use xlink:href="#DejaVuSans-30" transform="translate(36.083984 0)"/>
       <use xlink:href="#DejaVuSans-2e" transform="translate(99.707031 0)"/>
       <use xlink:href="#DejaVuSans-30" transform="translate(131.494141 0)"/>
       <use xlink:href="#DejaVuSans-38" transform="translate(195.117188 0)"/>
       <use xlink:href="#DejaVuSans-37" transform="translate(258.740234 0)"/>
       <use xlink:href="#DejaVuSans-33" transform="translate(322.363281 0)"/>
      </g>
     </g>
    </g>
    <g id="ytick_16">
     <g id="line2d_43">
      <g>
       <use xlink:href="#mb508538578" x="575.388" y="111.84" style="stroke: #000000; stroke-width: 0.8"/>
      </g>
     </g>
     <g id="text_27">
      <!-- 0.738 -->
      <g transform="translate(582.388 115.639219) scale(0.1 -0.1)">
       <use xlink:href="#DejaVuSans-30"/>
       <use xlink:href="#DejaVuSans-2e" transform="translate(63.623047 0)"/>
       <use xlink:href="#DejaVuSans-37" transform="translate(95.410156 0)"/>
       <use xlink:href="#DejaVuSans-33" transform="translate(159.033203 0)"/>
       <use xlink:href="#DejaVuSans-38" transform="translate(222.65625 0)"/>
      </g>
     </g>
    </g>
    <g id="ytick_17">
     <g id="line2d_44">
      <g>
       <use xlink:href="#mb508538578" x="575.388" y="89.44" style="stroke: #000000; stroke-width: 0.8"/>
      </g>
     </g>
     <g id="text_28">
      <!-- 1.56 -->
      <g transform="translate(582.388 93.239219) scale(0.1 -0.1)">
       <defs>
        <path id="DejaVuSans-36" d="M 2113 2584 
Q 1688 2584 1439 2293 
Q 1191 2003 1191 1497 
Q 1191 994 1439 701 
Q 1688 409 2113 409 
Q 2538 409 2786 701 
Q 3034 994 3034 1497 
Q 3034 2003 2786 2293 
Q 2538 2584 2113 2584 
z
M 3366 4563 
L 3366 3988 
Q 3128 4100 2886 4159 
Q 2644 4219 2406 4219 
Q 1781 4219 1451 3797 
Q 1122 3375 1075 2522 
Q 1259 2794 1537 2939 
Q 1816 3084 2150 3084 
Q 2853 3084 3261 2657 
Q 3669 2231 3669 1497 
Q 3669 778 3244 343 
Q 2819 -91 2113 -91 
Q 1303 -91 875 529 
Q 447 1150 447 2328 
Q 447 3434 972 4092 
Q 1497 4750 2381 4750 
Q 2619 4750 2861 4703 
Q 3103 4656 3366 4563 
z
" transform="scale(0.015625)"/>
       </defs>
       <use xlink:href="#DejaVuSans-31"/>
       <use xlink:href="#DejaVuSans-2e" transform="translate(63.623047 0)"/>
       <use xlink:href="#DejaVuSans-35" transform="translate(95.410156 0)"/>
       <use xlink:href="#DejaVuSans-36" transform="translate(159.033203 0)"/>
      </g>
     </g>
    </g>
    <g id="ytick_18">
     <g id="line2d_45">
      <g>
       <use xlink:href="#mb508538578" x="575.388" y="67.04" style="stroke: #000000; stroke-width: 0.8"/>
      </g>
     </g>
     <g id="text_29">
      <!-- 2.45 -->
      <g transform="translate(582.388 70.839219) scale(0.1 -0.1)">
       <use xlink:href="#DejaVuSans-32"/>
       <use xlink:href="#DejaVuSans-2e" transform="translate(63.623047 0)"/>
       <use xlink:href="#DejaVuSans-34" transform="translate(95.410156 0)"/>
       <use xlink:href="#DejaVuSans-35" transform="translate(159.033203 0)"/>
      </g>
     </g>
    </g>
    <g id="ytick_19">
     <g id="line2d_46">
      <g>
       <use xlink:href="#mb508538578" x="575.388" y="44.64" style="stroke: #000000; stroke-width: 0.8"/>
      </g>
     </g>
     <g id="text_30">
      <!-- 3.79 -->
      <g transform="translate(582.388 48.439219) scale(0.1 -0.1)">
       <use xlink:href="#DejaVuSans-33"/>
       <use xlink:href="#DejaVuSans-2e" transform="translate(63.623047 0)"/>
       <use xlink:href="#DejaVuSans-37" transform="translate(95.410156 0)"/>
       <use xlink:href="#DejaVuSans-39" transform="translate(159.033203 0)"/>
      </g>
     </g>
    </g>
   </g>
   <g id="LineCollection_1"/>
   <g id="LineCollection_2">
    <path d="M 564.3 246.24 
L 575.388 246.24 
" clip-path="url(#p44b0830726)" style="fill: none; stroke: #440154; stroke-opacity: 0.996094"/>
    <path d="M 564.3 223.84 
L 575.388 223.84 
" clip-path="url(#p44b0830726)" style="fill: none; stroke: #453581; stroke-opacity: 0.996094"/>
    <path d="M 564.3 201.44 
L 575.388 201.44 
" clip-path="url(#p44b0830726)" style="fill: none; stroke: #39568c; stroke-opacity: 0.996094"/>
    <path d="M 564.3 179.04 
L 575.388 179.04 
" clip-path="url(#p44b0830726)" style="fill: none; stroke: #2e6e8e; stroke-opacity: 0.996094"/>
    <path d="M 564.3 156.64 
L 575.388 156.64 
" clip-path="url(#p44b0830726)" style="fill: none; stroke: #25848e; stroke-opacity: 0.996094"/>
    <path d="M 564.3 134.24 
L 575.388 134.24 
" clip-path="url(#p44b0830726)" style="fill: none; stroke: #1e9c89; stroke-opacity: 0.996094"/>
    <path d="M 564.3 111.84 
L 575.388 111.84 
" clip-path="url(#p44b0830726)" style="fill: none; stroke: #2db27d; stroke-opacity: 0.996094"/>
    <path d="M 564.3 89.44 
L 575.388 89.44 
" clip-path="url(#p44b0830726)" style="fill: none; stroke: #58c765; stroke-opacity: 0.996094"/>
    <path d="M 564.3 67.04 
L 575.388 67.04 
" clip-path="url(#p44b0830726)" style="fill: none; stroke: #98d83e; stroke-opacity: 0.996094"/>
    <path d="M 564.3 44.64 
L 575.388 44.64 
" clip-path="url(#p44b0830726)" style="fill: none; stroke: #fde725; stroke-opacity: 0.996094"/>
   </g>
   <g id="patch_8">
    <path d="M 564.3 246.24 
L 569.844 256.32 
L 575.388 246.24 
L 575.388 44.64 
L 569.844 34.56 
L 564.3 44.64 
L 564.3 246.24 
z
" style="fill: none; stroke: #000000; stroke-width: 0.8; stroke-linejoin: miter; stroke-linecap: square"/>
   </g>
  </g>
  <g id="text_31">
   <!-- Linear function $(x,y) \mapsto (x-2) + 2(y-3) + 1.5$ -->
   <g transform="translate(223.86 14.88) scale(0.12 -0.12)">
    <defs>
     <path id="DejaVuSans-4c" d="M 628 4666 
L 1259 4666 
L 1259 531 
L 3531 531 
L 3531 0 
L 628 0 
L 628 4666 
z
" transform="scale(0.015625)"/>
     <path id="DejaVuSans-69" d="M 603 3500 
L 1178 3500 
L 1178 0 
L 603 0 
L 603 3500 
z
M 603 4863 
L 1178 4863 
L 1178 4134 
L 603 4134 
L 603 4863 
z
" transform="scale(0.015625)"/>
     <path id="DejaVuSans-6e" d="M 3513 2113 
L 3513 0 
L 2938 0 
L 2938 2094 
Q 2938 2591 2744 2837 
Q 2550 3084 2163 3084 
Q 1697 3084 1428 2787 
Q 1159 2491 1159 1978 
L 1159 0 
L 581 0 
L 581 3500 
L 1159 3500 
L 1159 2956 
Q 1366 3272 1645 3428 
Q 1925 3584 2291 3584 
Q 2894 3584 3203 3211 
Q 3513 2838 3513 2113 
z
" transform="scale(0.015625)"/>
     <path id="DejaVuSans-65" d="M 3597 1894 
L 3597 1613 
L 953 1613 
Q 991 1019 1311 708 
Q 1631 397 2203 397 
Q 2534 397 2845 478 
Q 3156 559 3463 722 
L 3463 178 
Q 3153 47 2828 -22 
Q 2503 -91 2169 -91 
Q 1331 -91 842 396 
Q 353 884 353 1716 
Q 353 2575 817 3079 
Q 1281 3584 2069 3584 
Q 2775 3584 3186 3129 
Q 3597 2675 3597 1894 
z
M 3022 2063 
Q 3016 2534 2758 2815 
Q 2500 3097 2075 3097 
Q 1594 3097 1305 2825 
Q 1016 2553 972 2059 
L 3022 2063 
z
" transform="scale(0.015625)"/>
     <path id="DejaVuSans-61" d="M 2194 1759 
Q 1497 1759 1228 1600 
Q 959 1441 959 1056 
Q 959 750 1161 570 
Q 1363 391 1709 391 
Q 2188 391 2477 730 
Q 2766 1069 2766 1631 
L 2766 1759 
L 2194 1759 
z
M 3341 1997 
L 3341 0 
L 2766 0 
L 2766 531 
Q 2569 213 2275 61 
Q 1981 -91 1556 -91 
Q 1019 -91 701 211 
Q 384 513 384 1019 
Q 384 1609 779 1909 
Q 1175 2209 1959 2209 
L 2766 2209 
L 2766 2266 
Q 2766 2663 2505 2880 
Q 2244 3097 1772 3097 
Q 1472 3097 1187 3025 
Q 903 2953 641 2809 
L 641 3341 
Q 956 3463 1253 3523 
Q 1550 3584 1831 3584 
Q 2591 3584 2966 3190 
Q 3341 2797 3341 1997 
z
" transform="scale(0.015625)"/>
     <path id="DejaVuSans-72" d="M 2631 2963 
Q 2534 3019 2420 3045 
Q 2306 3072 2169 3072 
Q 1681 3072 1420 2755 
Q 1159 2438 1159 1844 
L 1159 0 
L 581 0 
L 581 3500 
L 1159 3500 
L 1159 2956 
Q 1341 3275 1631 3429 
Q 1922 3584 2338 3584 
Q 2397 3584 2469 3576 
Q 2541 3569 2628 3553 
L 2631 2963 
z
" transform="scale(0.015625)"/>
     <path id="DejaVuSans-20" transform="scale(0.015625)"/>
     <path id="DejaVuSans-66" d="M 2375 4863 
L 2375 4384 
L 1825 4384 
Q 1516 4384 1395 4259 
Q 1275 4134 1275 3809 
L 1275 3500 
L 2222 3500 
L 2222 3053 
L 1275 3053 
L 1275 0 
L 697 0 
L 697 3053 
L 147 3053 
L 147 3500 
L 697 3500 
L 697 3744 
Q 697 4328 969 4595 
Q 1241 4863 1831 4863 
L 2375 4863 
z
" transform="scale(0.015625)"/>
     <path id="DejaVuSans-75" d="M 544 1381 
L 544 3500 
L 1119 3500 
L 1119 1403 
Q 1119 906 1312 657 
Q 1506 409 1894 409 
Q 2359 409 2629 706 
Q 2900 1003 2900 1516 
L 2900 3500 
L 3475 3500 
L 3475 0 
L 2900 0 
L 2900 538 
Q 2691 219 2414 64 
Q 2138 -91 1772 -91 
Q 1169 -91 856 284 
Q 544 659 544 1381 
z
M 1991 3584 
L 1991 3584 
z
" transform="scale(0.015625)"/>
     <path id="DejaVuSans-63" d="M 3122 3366 
L 3122 2828 
Q 2878 2963 2633 3030 
Q 2388 3097 2138 3097 
Q 1578 3097 1268 2742 
Q 959 2388 959 1747 
Q 959 1106 1268 751 
Q 1578 397 2138 397 
Q 2388 397 2633 464 
Q 2878 531 3122 666 
L 3122 134 
Q 2881 22 2623 -34 
Q 2366 -91 2075 -91 
Q 1284 -91 818 406 
Q 353 903 353 1747 
Q 353 2603 823 3093 
Q 1294 3584 2113 3584 
Q 2378 3584 2631 3529 
Q 2884 3475 3122 3366 
z
" transform="scale(0.015625)"/>
     <path id="DejaVuSans-74" d="M 1172 4494 
L 1172 3500 
L 2356 3500 
L 2356 3053 
L 1172 3053 
L 1172 1153 
Q 1172 725 1289 603 
Q 1406 481 1766 481 
L 2356 481 
L 2356 0 
L 1766 0 
Q 1100 0 847 248 
Q 594 497 594 1153 
L 594 3053 
L 172 3053 
L 172 3500 
L 594 3500 
L 594 4494 
L 1172 4494 
z
" transform="scale(0.015625)"/>
     <path id="DejaVuSans-6f" d="M 1959 3097 
Q 1497 3097 1228 2736 
Q 959 2375 959 1747 
Q 959 1119 1226 758 
Q 1494 397 1959 397 
Q 2419 397 2687 759 
Q 2956 1122 2956 1747 
Q 2956 2369 2687 2733 
Q 2419 3097 1959 3097 
z
M 1959 3584 
Q 2709 3584 3137 3096 
Q 3566 2609 3566 1747 
Q 3566 888 3137 398 
Q 2709 -91 1959 -91 
Q 1206 -91 779 398 
Q 353 888 353 1747 
Q 353 2609 779 3096 
Q 1206 3584 1959 3584 
z
" transform="scale(0.015625)"/>
     <path id="DejaVuSans-28" d="M 1984 4856 
Q 1566 4138 1362 3434 
Q 1159 2731 1159 2009 
Q 1159 1288 1364 580 
Q 1569 -128 1984 -844 
L 1484 -844 
Q 1016 -109 783 600 
Q 550 1309 550 2009 
Q 550 2706 781 3412 
Q 1013 4119 1484 4856 
L 1984 4856 
z
" transform="scale(0.015625)"/>
     <path id="DejaVuSans-2c" d="M 750 794 
L 1409 794 
L 1409 256 
L 897 -744 
L 494 -744 
L 750 256 
L 750 794 
z
" transform="scale(0.015625)"/>
     <path id="DejaVuSans-29" d="M 513 4856 
L 1013 4856 
Q 1481 4119 1714 3412 
Q 1947 2706 1947 2009 
Q 1947 1309 1714 600 
Q 1481 -109 1013 -844 
L 513 -844 
Q 928 -128 1133 580 
Q 1338 1288 1338 2009 
Q 1338 2731 1133 3434 
Q 928 4138 513 4856 
z
" transform="scale(0.015625)"/>
     <path id="DejaVuSans-21a6" d="M 4175 1741 
L 897 1741 
L 897 663 
L 366 663 
L 366 3350 
L 897 3350 
L 897 2272 
L 4175 2272 
L 3447 3000 
L 3822 3375 
L 5050 2147 
L 5050 1866 
L 3822 638 
L 3447 1013 
L 4175 1741 
z
" transform="scale(0.015625)"/>
     <path id="DejaVuSans-2212" d="M 678 2272 
L 4684 2272 
L 4684 1741 
L 678 1741 
L 678 2272 
z
" transform="scale(0.015625)"/>
     <path id="DejaVuSans-2b" d="M 2944 4013 
L 2944 2272 
L 4684 2272 
L 4684 1741 
L 2944 1741 
L 2944 0 
L 2419 0 
L 2419 1741 
L 678 1741 
L 678 2272 
L 2419 2272 
L 2419 4013 
L 2944 4013 
z
" transform="scale(0.015625)"/>
    </defs>
    <use xlink:href="#DejaVuSans-4c" transform="translate(0 0.015625)"/>
    <use xlink:href="#DejaVuSans-69" transform="translate(55.712891 0.015625)"/>
    <use xlink:href="#DejaVuSans-6e" transform="translate(83.496094 0.015625)"/>
    <use xlink:href="#DejaVuSans-65" transform="translate(146.875 0.015625)"/>
    <use xlink:href="#DejaVuSans-61" transform="translate(208.398438 0.015625)"/>
    <use xlink:href="#DejaVuSans-72" transform="translate(269.677734 0.015625)"/>
    <use xlink:href="#DejaVuSans-20" transform="translate(310.791016 0.015625)"/>
    <use xlink:href="#DejaVuSans-66" transform="translate(342.578125 0.015625)"/>
    <use xlink:href="#DejaVuSans-75" transform="translate(377.783203 0.015625)"/>
    <use xlink:href="#DejaVuSans-6e" transform="translate(441.162109 0.015625)"/>
    <use xlink:href="#DejaVuSans-63" transform="translate(504.541016 0.015625)"/>
    <use xlink:href="#DejaVuSans-74" transform="translate(559.521484 0.015625)"/>
    <use xlink:href="#DejaVuSans-69" transform="translate(598.730469 0.015625)"/>
    <use xlink:href="#DejaVuSans-6f" transform="translate(626.513672 0.015625)"/>
    <use xlink:href="#DejaVuSans-6e" transform="translate(687.695312 0.015625)"/>
    <use xlink:href="#DejaVuSans-20" transform="translate(751.074219 0.015625)"/>
    <use xlink:href="#DejaVuSans-28" transform="translate(782.861328 0.015625)"/>
    <use xlink:href="#DejaVuSans-Oblique-78" transform="translate(821.875 0.015625)"/>
    <use xlink:href="#DejaVuSans-2c" transform="translate(881.054688 0.015625)"/>
    <use xlink:href="#DejaVuSans-Oblique-79" transform="translate(932.324219 0.015625)"/>
    <use xlink:href="#DejaVuSans-29" transform="translate(991.503906 0.015625)"/>
    <use xlink:href="#DejaVuSans-21a6" transform="translate(1050 0.015625)"/>
    <use xlink:href="#DejaVuSans-28" transform="translate(1153.271484 0.015625)"/>
    <use xlink:href="#DejaVuSans-Oblique-78" transform="translate(1192.285156 0.015625)"/>
    <use xlink:href="#DejaVuSans-2212" transform="translate(1270.947266 0.015625)"/>
    <use xlink:href="#DejaVuSans-32" transform="translate(1374.21875 0.015625)"/>
    <use xlink:href="#DejaVuSans-29" transform="translate(1437.841797 0.015625)"/>
    <use xlink:href="#DejaVuSans-2b" transform="translate(1496.337891 0.015625)"/>
    <use xlink:href="#DejaVuSans-32" transform="translate(1599.609375 0.015625)"/>
    <use xlink:href="#DejaVuSans-28" transform="translate(1663.232422 0.015625)"/>
    <use xlink:href="#DejaVuSans-Oblique-79" transform="translate(1702.246094 0.015625)"/>
    <use xlink:href="#DejaVuSans-2212" transform="translate(1780.908203 0.015625)"/>
    <use xlink:href="#DejaVuSans-33" transform="translate(1884.179688 0.015625)"/>
    <use xlink:href="#DejaVuSans-29" transform="translate(1947.802734 0.015625)"/>
    <use xlink:href="#DejaVuSans-2b" transform="translate(2006.298828 0.015625)"/>
    <use xlink:href="#DejaVuSans-31" transform="translate(2109.570312 0.015625)"/>
    <use xlink:href="#DejaVuSans-2e" transform="translate(2173.193359 0.015625)"/>
    <use xlink:href="#DejaVuSans-35" transform="translate(2204.980469 0.015625)"/>
   </g>
  </g>
 </g>
 <defs>
  <clipPath id="p7e4f6cf0c3">
   <rect x="90" y="34.56" width="446.4" height="221.76"/>
  </clipPath>
  <clipPath id="p44b0830726">
   <path d="M 564.3 247.149091 
L 575.388 247.149091 
L 575.388 43.730909 
L 564.3 43.730909 
z
"/>
  </clipPath>
 </defs>
</svg>
