<?xml version="1.0" encoding="utf-8" standalone="no"?>
<!DOCTYPE svg PUBLIC "-//W3C//DTD SVG 1.1//EN"
  "http://www.w3.org/Graphics/SVG/1.1/DTD/svg11.dtd">
<!-- Created with matplotlib (http://matplotlib.org/) -->
<svg height="288pt" version="1.1" viewBox="0 0 432 288" width="432pt" xmlns="http://www.w3.org/2000/svg" xmlns:xlink="http://www.w3.org/1999/xlink">
 <defs>
  <style type="text/css">
*{stroke-linecap:butt;stroke-linejoin:round;}
  </style>
 </defs>
 <g id="figure_1">
  <g id="patch_1">
   <path d="M 0 288 
L 432 288 
L 432 0 
L 0 0 
z
" style="fill:#ffffff;"/>
  </g>
  <g id="axes_1">
   <g id="patch_2">
    <path d="M 54 252 
L 388.8 252 
L 388.8 34.56 
L 54 34.56 
z
" style="fill:#ffffff;"/>
   </g>
   <g id="matplotlib.axis_1">
    <g id="xtick_1">
     <g id="line2d_1">
      <path clip-path="url(#pae9d9e0dc3)" d="M 54 252 
L 54 34.56 
" style="fill:none;stroke:#b0b0b0;stroke-linecap:square;stroke-width:0.8;"/>
     </g>
     <g id="line2d_2">
      <defs>
       <path d="M 0 0 
L 0 3.5 
" id="mf9d548aa02" style="stroke:#000000;stroke-width:0.8;"/>
      </defs>
      <g>
       <use style="stroke:#000000;stroke-width:0.8;" x="54" xlink:href="#mf9d548aa02" y="252"/>
      </g>
     </g>
     <g id="text_1">
      <!-- 0.0 -->
      <defs>
       <path d="M 31.78125 66.40625 
Q 24.171875 66.40625 20.328125 58.90625 
Q 16.5 51.421875 16.5 36.375 
Q 16.5 21.390625 20.328125 13.890625 
Q 24.171875 6.390625 31.78125 6.390625 
Q 39.453125 6.390625 43.28125 13.890625 
Q 47.125 21.390625 47.125 36.375 
Q 47.125 51.421875 43.28125 58.90625 
Q 39.453125 66.40625 31.78125 66.40625 
z
M 31.78125 74.21875 
Q 44.046875 74.21875 50.515625 64.515625 
Q 56.984375 54.828125 56.984375 36.375 
Q 56.984375 17.96875 50.515625 8.265625 
Q 44.046875 -1.421875 31.78125 -1.421875 
Q 19.53125 -1.421875 13.0625 8.265625 
Q 6.59375 17.96875 6.59375 36.375 
Q 6.59375 54.828125 13.0625 64.515625 
Q 19.53125 74.21875 31.78125 74.21875 
z
" id="DejaVuSans-30"/>
       <path d="M 10.6875 12.40625 
L 21 12.40625 
L 21 0 
L 10.6875 0 
z
" id="DejaVuSans-2e"/>
      </defs>
      <g transform="translate(46.048437 266.598437)scale(0.1 -0.1)">
       <use xlink:href="#DejaVuSans-30"/>
       <use x="63.623047" xlink:href="#DejaVuSans-2e"/>
       <use x="95.410156" xlink:href="#DejaVuSans-30"/>
      </g>
     </g>
    </g>
    <g id="xtick_2">
     <g id="line2d_3">
      <path clip-path="url(#pae9d9e0dc3)" d="M 120.96 252 
L 120.96 34.56 
" style="fill:none;stroke:#b0b0b0;stroke-linecap:square;stroke-width:0.8;"/>
     </g>
     <g id="line2d_4">
      <g>
       <use style="stroke:#000000;stroke-width:0.8;" x="120.96" xlink:href="#mf9d548aa02" y="252"/>
      </g>
     </g>
     <g id="text_2">
      <!-- 0.2 -->
      <defs>
       <path d="M 19.1875 8.296875 
L 53.609375 8.296875 
L 53.609375 0 
L 7.328125 0 
L 7.328125 8.296875 
Q 12.9375 14.109375 22.625 23.890625 
Q 32.328125 33.6875 34.8125 36.53125 
Q 39.546875 41.84375 41.421875 45.53125 
Q 43.3125 49.21875 43.3125 52.78125 
Q 43.3125 58.59375 39.234375 62.25 
Q 35.15625 65.921875 28.609375 65.921875 
Q 23.96875 65.921875 18.8125 64.3125 
Q 13.671875 62.703125 7.8125 59.421875 
L 7.8125 69.390625 
Q 13.765625 71.78125 18.9375 73 
Q 24.125 74.21875 28.421875 74.21875 
Q 39.75 74.21875 46.484375 68.546875 
Q 53.21875 62.890625 53.21875 53.421875 
Q 53.21875 48.921875 51.53125 44.890625 
Q 49.859375 40.875 45.40625 35.40625 
Q 44.1875 33.984375 37.640625 27.21875 
Q 31.109375 20.453125 19.1875 8.296875 
z
" id="DejaVuSans-32"/>
      </defs>
      <g transform="translate(113.008438 266.598437)scale(0.1 -0.1)">
       <use xlink:href="#DejaVuSans-30"/>
       <use x="63.623047" xlink:href="#DejaVuSans-2e"/>
       <use x="95.410156" xlink:href="#DejaVuSans-32"/>
      </g>
     </g>
    </g>
    <g id="xtick_3">
     <g id="line2d_5">
      <path clip-path="url(#pae9d9e0dc3)" d="M 187.92 252 
L 187.92 34.56 
" style="fill:none;stroke:#b0b0b0;stroke-linecap:square;stroke-width:0.8;"/>
     </g>
     <g id="line2d_6">
      <g>
       <use style="stroke:#000000;stroke-width:0.8;" x="187.92" xlink:href="#mf9d548aa02" y="252"/>
      </g>
     </g>
     <g id="text_3">
      <!-- 0.4 -->
      <defs>
       <path d="M 37.796875 64.3125 
L 12.890625 25.390625 
L 37.796875 25.390625 
z
M 35.203125 72.90625 
L 47.609375 72.90625 
L 47.609375 25.390625 
L 58.015625 25.390625 
L 58.015625 17.1875 
L 47.609375 17.1875 
L 47.609375 0 
L 37.796875 0 
L 37.796875 17.1875 
L 4.890625 17.1875 
L 4.890625 26.703125 
z
" id="DejaVuSans-34"/>
      </defs>
      <g transform="translate(179.968438 266.598437)scale(0.1 -0.1)">
       <use xlink:href="#DejaVuSans-30"/>
       <use x="63.623047" xlink:href="#DejaVuSans-2e"/>
       <use x="95.410156" xlink:href="#DejaVuSans-34"/>
      </g>
     </g>
    </g>
    <g id="xtick_4">
     <g id="line2d_7">
      <path clip-path="url(#pae9d9e0dc3)" d="M 254.88 252 
L 254.88 34.56 
" style="fill:none;stroke:#b0b0b0;stroke-linecap:square;stroke-width:0.8;"/>
     </g>
     <g id="line2d_8">
      <g>
       <use style="stroke:#000000;stroke-width:0.8;" x="254.88" xlink:href="#mf9d548aa02" y="252"/>
      </g>
     </g>
     <g id="text_4">
      <!-- 0.6 -->
      <defs>
       <path d="M 33.015625 40.375 
Q 26.375 40.375 22.484375 35.828125 
Q 18.609375 31.296875 18.609375 23.390625 
Q 18.609375 15.53125 22.484375 10.953125 
Q 26.375 6.390625 33.015625 6.390625 
Q 39.65625 6.390625 43.53125 10.953125 
Q 47.40625 15.53125 47.40625 23.390625 
Q 47.40625 31.296875 43.53125 35.828125 
Q 39.65625 40.375 33.015625 40.375 
z
M 52.59375 71.296875 
L 52.59375 62.3125 
Q 48.875 64.0625 45.09375 64.984375 
Q 41.3125 65.921875 37.59375 65.921875 
Q 27.828125 65.921875 22.671875 59.328125 
Q 17.53125 52.734375 16.796875 39.40625 
Q 19.671875 43.65625 24.015625 45.921875 
Q 28.375 48.1875 33.59375 48.1875 
Q 44.578125 48.1875 50.953125 41.515625 
Q 57.328125 34.859375 57.328125 23.390625 
Q 57.328125 12.15625 50.6875 5.359375 
Q 44.046875 -1.421875 33.015625 -1.421875 
Q 20.359375 -1.421875 13.671875 8.265625 
Q 6.984375 17.96875 6.984375 36.375 
Q 6.984375 53.65625 15.1875 63.9375 
Q 23.390625 74.21875 37.203125 74.21875 
Q 40.921875 74.21875 44.703125 73.484375 
Q 48.484375 72.75 52.59375 71.296875 
z
" id="DejaVuSans-36"/>
      </defs>
      <g transform="translate(246.928438 266.598437)scale(0.1 -0.1)">
       <use xlink:href="#DejaVuSans-30"/>
       <use x="63.623047" xlink:href="#DejaVuSans-2e"/>
       <use x="95.410156" xlink:href="#DejaVuSans-36"/>
      </g>
     </g>
    </g>
    <g id="xtick_5">
     <g id="line2d_9">
      <path clip-path="url(#pae9d9e0dc3)" d="M 321.84 252 
L 321.84 34.56 
" style="fill:none;stroke:#b0b0b0;stroke-linecap:square;stroke-width:0.8;"/>
     </g>
     <g id="line2d_10">
      <g>
       <use style="stroke:#000000;stroke-width:0.8;" x="321.84" xlink:href="#mf9d548aa02" y="252"/>
      </g>
     </g>
     <g id="text_5">
      <!-- 0.8 -->
      <defs>
       <path d="M 31.78125 34.625 
Q 24.75 34.625 20.71875 30.859375 
Q 16.703125 27.09375 16.703125 20.515625 
Q 16.703125 13.921875 20.71875 10.15625 
Q 24.75 6.390625 31.78125 6.390625 
Q 38.8125 6.390625 42.859375 10.171875 
Q 46.921875 13.96875 46.921875 20.515625 
Q 46.921875 27.09375 42.890625 30.859375 
Q 38.875 34.625 31.78125 34.625 
z
M 21.921875 38.8125 
Q 15.578125 40.375 12.03125 44.71875 
Q 8.5 49.078125 8.5 55.328125 
Q 8.5 64.0625 14.71875 69.140625 
Q 20.953125 74.21875 31.78125 74.21875 
Q 42.671875 74.21875 48.875 69.140625 
Q 55.078125 64.0625 55.078125 55.328125 
Q 55.078125 49.078125 51.53125 44.71875 
Q 48 40.375 41.703125 38.8125 
Q 48.828125 37.15625 52.796875 32.3125 
Q 56.78125 27.484375 56.78125 20.515625 
Q 56.78125 9.90625 50.3125 4.234375 
Q 43.84375 -1.421875 31.78125 -1.421875 
Q 19.734375 -1.421875 13.25 4.234375 
Q 6.78125 9.90625 6.78125 20.515625 
Q 6.78125 27.484375 10.78125 32.3125 
Q 14.796875 37.15625 21.921875 38.8125 
z
M 18.3125 54.390625 
Q 18.3125 48.734375 21.84375 45.5625 
Q 25.390625 42.390625 31.78125 42.390625 
Q 38.140625 42.390625 41.71875 45.5625 
Q 45.3125 48.734375 45.3125 54.390625 
Q 45.3125 60.0625 41.71875 63.234375 
Q 38.140625 66.40625 31.78125 66.40625 
Q 25.390625 66.40625 21.84375 63.234375 
Q 18.3125 60.0625 18.3125 54.390625 
z
" id="DejaVuSans-38"/>
      </defs>
      <g transform="translate(313.888438 266.598437)scale(0.1 -0.1)">
       <use xlink:href="#DejaVuSans-30"/>
       <use x="63.623047" xlink:href="#DejaVuSans-2e"/>
       <use x="95.410156" xlink:href="#DejaVuSans-38"/>
      </g>
     </g>
    </g>
    <g id="xtick_6">
     <g id="line2d_11">
      <path clip-path="url(#pae9d9e0dc3)" d="M 388.8 252 
L 388.8 34.56 
" style="fill:none;stroke:#b0b0b0;stroke-linecap:square;stroke-width:0.8;"/>
     </g>
     <g id="line2d_12">
      <g>
       <use style="stroke:#000000;stroke-width:0.8;" x="388.8" xlink:href="#mf9d548aa02" y="252"/>
      </g>
     </g>
     <g id="text_6">
      <!-- 1.0 -->
      <defs>
       <path d="M 12.40625 8.296875 
L 28.515625 8.296875 
L 28.515625 63.921875 
L 10.984375 60.40625 
L 10.984375 69.390625 
L 28.421875 72.90625 
L 38.28125 72.90625 
L 38.28125 8.296875 
L 54.390625 8.296875 
L 54.390625 0 
L 12.40625 0 
z
" id="DejaVuSans-31"/>
      </defs>
      <g transform="translate(380.848437 266.598437)scale(0.1 -0.1)">
       <use xlink:href="#DejaVuSans-31"/>
       <use x="63.623047" xlink:href="#DejaVuSans-2e"/>
       <use x="95.410156" xlink:href="#DejaVuSans-30"/>
      </g>
     </g>
    </g>
    <g id="text_7">
     <!-- X0 -->
     <defs>
      <path d="M 6.296875 72.90625 
L 16.890625 72.90625 
L 35.015625 45.796875 
L 53.21875 72.90625 
L 63.8125 72.90625 
L 40.375 37.890625 
L 65.375 0 
L 54.78125 0 
L 34.28125 31 
L 13.625 0 
L 2.984375 0 
L 29 38.921875 
z
" id="DejaVuSans-58"/>
     </defs>
     <g transform="translate(214.79375 280.276563)scale(0.1 -0.1)">
      <use xlink:href="#DejaVuSans-58"/>
      <use x="68.505859" xlink:href="#DejaVuSans-30"/>
     </g>
    </g>
   </g>
   <g id="matplotlib.axis_2">
    <g id="ytick_1">
     <g id="line2d_13">
      <path clip-path="url(#pae9d9e0dc3)" d="M 54 252 
L 388.8 252 
" style="fill:none;stroke:#b0b0b0;stroke-linecap:square;stroke-width:0.8;"/>
     </g>
     <g id="line2d_14">
      <defs>
       <path d="M 0 0 
L -3.5 0 
" id="m6e29f5ece4" style="stroke:#000000;stroke-width:0.8;"/>
      </defs>
      <g>
       <use style="stroke:#000000;stroke-width:0.8;" x="54" xlink:href="#m6e29f5ece4" y="252"/>
      </g>
     </g>
     <g id="text_8">
      <!-- 0.0 -->
      <g transform="translate(31.096875 255.799219)scale(0.1 -0.1)">
       <use xlink:href="#DejaVuSans-30"/>
       <use x="63.623047" xlink:href="#DejaVuSans-2e"/>
       <use x="95.410156" xlink:href="#DejaVuSans-30"/>
      </g>
     </g>
    </g>
    <g id="ytick_2">
     <g id="line2d_15">
      <path clip-path="url(#pae9d9e0dc3)" d="M 54 208.512 
L 388.8 208.512 
" style="fill:none;stroke:#b0b0b0;stroke-linecap:square;stroke-width:0.8;"/>
     </g>
     <g id="line2d_16">
      <g>
       <use style="stroke:#000000;stroke-width:0.8;" x="54" xlink:href="#m6e29f5ece4" y="208.512"/>
      </g>
     </g>
     <g id="text_9">
      <!-- 0.2 -->
      <g transform="translate(31.096875 212.311219)scale(0.1 -0.1)">
       <use xlink:href="#DejaVuSans-30"/>
       <use x="63.623047" xlink:href="#DejaVuSans-2e"/>
       <use x="95.410156" xlink:href="#DejaVuSans-32"/>
      </g>
     </g>
    </g>
    <g id="ytick_3">
     <g id="line2d_17">
      <path clip-path="url(#pae9d9e0dc3)" d="M 54 165.024 
L 388.8 165.024 
" style="fill:none;stroke:#b0b0b0;stroke-linecap:square;stroke-width:0.8;"/>
     </g>
     <g id="line2d_18">
      <g>
       <use style="stroke:#000000;stroke-width:0.8;" x="54" xlink:href="#m6e29f5ece4" y="165.024"/>
      </g>
     </g>
     <g id="text_10">
      <!-- 0.4 -->
      <g transform="translate(31.096875 168.823219)scale(0.1 -0.1)">
       <use xlink:href="#DejaVuSans-30"/>
       <use x="63.623047" xlink:href="#DejaVuSans-2e"/>
       <use x="95.410156" xlink:href="#DejaVuSans-34"/>
      </g>
     </g>
    </g>
    <g id="ytick_4">
     <g id="line2d_19">
      <path clip-path="url(#pae9d9e0dc3)" d="M 54 121.536 
L 388.8 121.536 
" style="fill:none;stroke:#b0b0b0;stroke-linecap:square;stroke-width:0.8;"/>
     </g>
     <g id="line2d_20">
      <g>
       <use style="stroke:#000000;stroke-width:0.8;" x="54" xlink:href="#m6e29f5ece4" y="121.536"/>
      </g>
     </g>
     <g id="text_11">
      <!-- 0.6 -->
      <g transform="translate(31.096875 125.335219)scale(0.1 -0.1)">
       <use xlink:href="#DejaVuSans-30"/>
       <use x="63.623047" xlink:href="#DejaVuSans-2e"/>
       <use x="95.410156" xlink:href="#DejaVuSans-36"/>
      </g>
     </g>
    </g>
    <g id="ytick_5">
     <g id="line2d_21">
      <path clip-path="url(#pae9d9e0dc3)" d="M 54 78.048 
L 388.8 78.048 
" style="fill:none;stroke:#b0b0b0;stroke-linecap:square;stroke-width:0.8;"/>
     </g>
     <g id="line2d_22">
      <g>
       <use style="stroke:#000000;stroke-width:0.8;" x="54" xlink:href="#m6e29f5ece4" y="78.048"/>
      </g>
     </g>
     <g id="text_12">
      <!-- 0.8 -->
      <g transform="translate(31.096875 81.847219)scale(0.1 -0.1)">
       <use xlink:href="#DejaVuSans-30"/>
       <use x="63.623047" xlink:href="#DejaVuSans-2e"/>
       <use x="95.410156" xlink:href="#DejaVuSans-38"/>
      </g>
     </g>
    </g>
    <g id="ytick_6">
     <g id="line2d_23">
      <path clip-path="url(#pae9d9e0dc3)" d="M 54 34.56 
L 388.8 34.56 
" style="fill:none;stroke:#b0b0b0;stroke-linecap:square;stroke-width:0.8;"/>
     </g>
     <g id="line2d_24">
      <g>
       <use style="stroke:#000000;stroke-width:0.8;" x="54" xlink:href="#m6e29f5ece4" y="34.56"/>
      </g>
     </g>
     <g id="text_13">
      <!-- 1.0 -->
      <g transform="translate(31.096875 38.359219)scale(0.1 -0.1)">
       <use xlink:href="#DejaVuSans-31"/>
       <use x="63.623047" xlink:href="#DejaVuSans-2e"/>
       <use x="95.410156" xlink:href="#DejaVuSans-30"/>
      </g>
     </g>
    </g>
    <g id="text_14">
     <!-- X1 -->
     <g transform="translate(25.017187 149.88625)rotate(-90)scale(0.1 -0.1)">
      <use xlink:href="#DejaVuSans-58"/>
      <use x="68.505859" xlink:href="#DejaVuSans-31"/>
     </g>
    </g>
   </g>
   <g id="LineCollection_1">
    <path clip-path="url(#pae9d9e0dc3)" d="M 130.51247 251.530152 
L 221.4 251.260607 
L 271.096875 250.911603 
L 302.484375 250.475075 
L 310.775962 250.30125 
L 316.653545 246.90375 
L 323.030692 243.50625 
L 328.640625 240.725843 
L 336.4875 237.11811 
L 345.461128 233.31375 
L 354.056719 229.91625 
L 363.158337 226.51875 
L 375.721875 222.059969 
L 386.184375 218.472636 
L 386.72672 211.23 
L 387.229488 201.0375 
L 387.649072 187.4475 
L 387.991123 168.76125 
L 388.254572 141.58125 
L 388.394602 102.51 
L 388.329078 60.04125 
L 388.161646 36.25875 
L 386.184375 34.984386 
L 323.409375 35.14241 
L 244.940625 35.07891 
L 145.546875 35.044275 
L 98.465625 35.231891 
L 72.309375 35.524588 
L 56.615625 35.879924 
L 56.17828 36.25875 
L 56.093785 65.1375 
L 55.729078 104.20875 
L 54.935569 185.74875 
L 54.586304 248.6025 
L 54.579397 250.30125 
L 56.615625 251.623704 
L 82.112519 251.598526 
L 82.112519 251.598526 
" style="fill:none;stroke:#0000ff;stroke-width:1.5;"/>
   </g>
   <g id="LineCollection_2">
    <path clip-path="url(#pae9d9e0dc3)" d="M 181.50626 35.73109 
L 129.853125 35.836158 
L 98.465625 36.092364 
L 87.135723 36.25875 
L 90.843283 43.05375 
L 102.264204 63.43875 
L 104.877401 68.535 
L 107.206228 73.63125 
L 108.53336 77.02875 
L 109.636211 80.42625 
L 110.457087 83.82375 
L 110.937375 87.22125 
L 111.018108 90.61875 
L 110.88605 92.3175 
L 110.624569 94.01625 
L 110.220909 95.715 
L 109.660463 97.41375 
L 108.926431 99.1125 
L 108.008095 100.81125 
L 106.3125 103.215981 
L 105.496559 104.20875 
L 103.696875 106.03834 
L 101.08125 108.193537 
L 98.465625 109.958141 
L 95.85 111.443785 
L 93.234375 112.722759 
L 89.101074 114.40125 
L 85.3875 115.63929 
L 82.771875 116.397677 
L 76.956278 117.79875 
L 72.309375 118.682378 
L 67.078125 119.4975 
L 59.23125 120.403707 
L 56.615625 120.641742 
L 55.73723 173.8575 
L 55.221288 219.72375 
L 54.980105 250.30125 
L 56.615625 251.363459 
L 161.240625 251.097907 
L 221.4 250.749247 
L 262.149625 250.30125 
L 264.829136 246.90375 
L 267.748626 243.50625 
L 271.096875 239.950965 
L 274.453425 236.71125 
L 278.94375 232.79989 
L 282.621504 229.91625 
L 287.400036 226.51875 
L 292.736459 223.12125 
L 297.253125 220.513885 
L 302.484375 217.760449 
L 309.052386 214.6275 
L 315.5625 211.806274 
L 323.409375 208.709316 
L 331.25625 205.868802 
L 341.71875 202.368343 
L 352.18125 199.100356 
L 367.875 194.453161 
L 386.186343 189.14625 
L 386.659174 175.55625 
L 387.066131 156.87 
L 387.370252 131.38875 
L 387.511728 99.1125 
L 387.438962 66.83625 
L 387.163328 39.65625 
L 387.107941 36.25875 
L 386.184375 35.663506 
L 336.4875 35.908421 
L 286.790625 35.919373 
L 229.906209 35.795134 
L 229.906209 35.795134 
" style="fill:none;stroke:#0000ff;stroke-width:1.5;"/>
   </g>
   <g id="LineCollection_3">
    <path clip-path="url(#pae9d9e0dc3)" d="M 55.610923 198.055182 
L 55.137311 245.205 
L 55.097439 250.30125 
L 56.615625 251.287254 
L 156.009375 251.013095 
L 216.16875 250.645644 
L 248.435669 250.30125 
L 251.136153 245.205 
L 253.126663 241.8075 
L 255.403125 238.250094 
L 258.01875 234.5468 
L 260.634375 231.205608 
L 263.25 228.180265 
L 266.472719 224.82 
L 270.136923 221.4225 
L 273.7125 218.468747 
L 276.582244 216.32625 
L 281.664613 212.92875 
L 286.790625 209.927297 
L 292.021875 207.220712 
L 298.103528 204.435 
L 302.484375 202.616421 
L 307.715625 200.611956 
L 315.5625 197.885255 
L 323.409375 195.406263 
L 333.871875 192.381153 
L 345.927634 189.14625 
L 362.64375 184.895406 
L 386.187144 178.95375 
L 386.652731 161.96625 
L 387.007269 139.8825 
L 387.215982 112.7025 
L 387.235314 80.42625 
L 387.032254 51.5475 
L 386.799396 36.25875 
L 386.184375 35.862365 
L 339.103125 36.129092 
L 292.021875 36.15759 
L 135.084375 36.030654 
L 105.282259 36.25875 
L 108.928125 39.956736 
L 114.159375 44.863383 
L 119.921901 49.84875 
L 126.23716 54.945 
L 130.645287 58.3425 
L 140.315625 65.605849 
L 146.397264 70.23375 
L 152.575799 75.33 
L 156.236643 78.7275 
L 159.453797 82.125 
L 162.167654 85.5225 
L 164.36252 88.92 
L 165.268233 90.61875 
L 166.471875 93.444595 
L 166.691492 94.01625 
L 167.218192 95.715 
L 167.620829 97.41375 
L 167.901656 99.1125 
L 168.062105 100.81125 
L 168.102794 102.51 
L 168.023517 104.20875 
L 167.823214 105.9075 
L 167.49994 107.60625 
L 167.0508 109.305 
L 166.471875 111.00375 
L 165.754684 112.7025 
L 164.893761 114.40125 
L 163.85625 116.136066 
L 162.6958 117.79875 
L 161.240625 119.598823 
L 158.625 122.275902 
L 157.951444 122.895 
L 155.87844 124.59375 
L 153.39375 126.350232 
L 150.699449 127.99125 
L 147.420142 129.69 
L 142.93125 131.607901 
L 137.7 133.382405 
L 132.428988 134.78625 
L 127.2375 135.850392 
L 122.00625 136.68428 
L 116.775 137.297967 
L 111.54375 137.738536 
L 103.696875 138.117761 
L 95.85 138.210228 
L 88.003125 138.069311 
L 80.15625 137.736428 
L 69.69375 137.059301 
L 59.23125 136.176964 
L 56.615625 135.92982 
L 56.352879 149.660944 
L 56.352879 149.660944 
" style="fill:none;stroke:#0000ff;stroke-width:1.5;"/>
   </g>
   <g id="LineCollection_4">
    <path clip-path="url(#pae9d9e0dc3)" d="M 387.090683 86.8038 
L 386.934288 58.3425 
L 386.610258 36.25875 
L 386.184375 35.984265 
L 341.71875 36.315628 
L 333.871875 38.081034 
L 328.640625 39.08654 
L 320.79375 40.321473 
L 315.5625 40.954714 
L 310.33125 41.423742 
L 305.1 41.718218 
L 299.86875 41.809335 
L 294.6375 41.663549 
L 289.40625 41.229699 
L 284.175 40.428746 
L 280.837872 39.65625 
L 278.94375 39.118532 
L 275.733657 37.9575 
L 273.7125 37.05097 
L 272.230322 36.25875 
L 158.625 36.085857 
L 120.348678 36.25875 
L 124.621875 39.106852 
L 131.223565 43.05375 
L 135.084375 45.190324 
L 140.928649 48.15 
L 145.546875 50.34063 
L 153.39375 53.763073 
L 163.85625 57.955113 
L 173.666499 61.74 
L 184.78125 66.382268 
L 187.396875 67.620909 
L 190.0125 68.955018 
L 192.628125 70.424358 
L 195.24375 72.085878 
L 197.859375 74.023736 
L 200.475 76.367083 
L 201.136445 77.02875 
L 203.090625 79.380064 
L 203.847256 80.42625 
L 204.889207 82.125 
L 205.754399 83.82375 
L 206.471008 85.5225 
L 207.051234 87.22125 
L 207.864974 90.61875 
L 208.293327 94.01625 
L 208.40146 97.41375 
L 208.232552 100.81125 
L 207.814119 104.20875 
L 207.161644 107.60625 
L 206.280698 111.00375 
L 205.165219 114.40125 
L 203.799842 117.79875 
L 202.157733 121.19625 
L 200.19886 124.59375 
L 197.859375 127.99125 
L 195.044999 131.38875 
L 192.628125 133.847505 
L 190.0125 136.154555 
L 187.396875 138.15334 
L 187.354545 138.18375 
L 184.78125 139.892023 
L 181.858186 141.58125 
L 178.429196 143.28 
L 174.31875 144.991639 
L 169.0875 146.743951 
L 163.85625 148.117356 
L 158.625 149.186301 
L 152.933774 150.075 
L 148.1625 150.621471 
L 142.93125 151.05343 
L 135.084375 151.418739 
L 127.2375 151.492224 
L 119.390625 151.317682 
L 111.54375 150.931274 
L 101.08125 150.138551 
L 90.61875 149.060229 
L 80.15625 147.756069 
L 67.078125 145.86767 
L 56.615625 144.203847 
L 55.88821 185.74875 
L 55.352001 229.91625 
L 55.169366 250.30125 
L 56.615625 251.240541 
L 153.39375 250.960275 
L 213.553125 250.580254 
L 240.088876 250.30125 
L 242.325 244.171613 
L 244.71563 238.41 
L 246.284846 235.0125 
L 248.918662 229.91625 
L 250.90291 226.51875 
L 253.113007 223.12125 
L 255.597388 219.72375 
L 258.418485 216.32625 
L 261.658043 212.92875 
L 263.468109 211.23 
L 267.548649 207.8325 
L 269.861387 206.13375 
L 273.7125 203.598357 
L 278.205706 201.0375 
L 281.567508 199.33875 
L 286.790625 196.989351 
L 292.021875 194.930001 
L 298.944514 192.54375 
L 305.1 190.658178 
L 312.946875 188.489611 
L 324.010636 185.74875 
L 336.4875 182.911379 
L 367.875 176.196583 
L 386.184375 172.238816 
L 386.596336 155.17125 
L 386.886588 135.20307 
L 386.886588 135.20307 
" style="fill:none;stroke:#0000ff;stroke-width:1.5;"/>
   </g>
   <g id="LineCollection_5">
    <path clip-path="url(#pae9d9e0dc3)" d="M 77.163255 152.560082 
L 63.455453 150.075 
L 56.615625 148.76097 
L 55.90515 189.14625 
L 55.366641 233.31375 
L 55.211495 250.30125 
L 56.615625 251.21318 
L 150.778125 250.934782 
L 210.9375 250.552539 
L 235.214438 250.30125 
L 237.09375 243.261215 
L 239.068394 236.71125 
L 240.800244 231.615 
L 242.757799 226.51875 
L 245.012695 221.4225 
L 246.730911 218.025 
L 248.670464 214.6275 
L 250.890218 211.23 
L 253.47098 207.8325 
L 256.526664 204.435 
L 258.282456 202.73625 
L 260.634375 200.695126 
L 263.25 198.700137 
L 265.865625 196.945024 
L 268.48125 195.387829 
L 271.096875 193.996971 
L 276.328125 191.597322 
L 281.559375 189.598605 
L 286.790625 187.886025 
L 292.021875 186.384007 
L 299.86875 184.417265 
L 309.305985 182.35125 
L 320.79375 180.089716 
L 341.71875 176.280411 
L 367.875 171.51962 
L 386.184375 167.999596 
L 386.57887 150.075 
L 386.87278 126.2925 
L 387.002014 97.41375 
L 386.921312 68.535 
L 386.657831 44.7525 
L 386.499474 36.25875 
L 386.184375 36.055666 
L 358.804626 36.25875 
L 354.187536 37.9575 
L 346.95 40.442296 
L 338.478403 43.05375 
L 331.25625 45.078848 
L 323.409375 47.056675 
L 315.5625 48.824071 
L 307.715625 50.395605 
L 299.86875 51.784 
L 290.28799 53.24625 
L 284.175 54.074813 
L 273.7125 55.290533 
L 252.7875 57.578383 
L 249.063498 58.3425 
L 247.55625 58.815585 
L 244.940625 60.176158 
L 243.305851 61.74 
L 242.184345 63.43875 
L 241.357642 65.1375 
L 240.114534 68.535 
L 239.107763 71.9325 
L 237.09375 79.704561 
L 233.939454 92.3175 
L 231.647415 100.81125 
L 229.246875 108.798766 
L 227.359516 114.40125 
L 225.436436 119.4975 
L 223.25152 124.59375 
L 221.4 128.383767 
L 219.755306 131.38875 
L 217.653019 134.78625 
L 215.217463 138.18375 
L 212.331246 141.58125 
L 210.668469 143.28 
L 208.321875 145.397074 
L 205.70625 147.435151 
L 203.090625 149.188875 
L 200.475 150.703849 
L 197.859375 152.019254 
L 194.462593 153.4725 
L 190.0125 155.02651 
L 187.396875 155.782669 
L 182.165625 157.029133 
L 176.934375 157.968592 
L 171.703125 158.674809 
L 166.471875 159.176343 
L 158.625 159.632863 
L 150.778125 159.793857 
L 142.93125 159.708664 
L 135.084375 159.413896 
L 125.143668 158.781559 
L 125.143668 158.781559 
" style="fill:none;stroke:#0000ff;stroke-width:1.5;"/>
    <path clip-path="url(#pae9d9e0dc3)" d="M 134.924207 37.578853 
L 135.084375 37.656227 
L 135.756758 37.9575 
L 137.7 38.853354 
L 139.577036 39.65625 
L 140.315625 39.981983 
L 142.93125 41.052818 
L 143.727334 41.355 
L 145.546875 42.069691 
L 148.1625 43.024211 
L 148.250024 43.05375 
L 150.778125 43.939979 
L 153.268798 44.7525 
L 153.39375 44.794938 
L 156.009375 45.616131 
L 158.625 46.38138 
L 158.884271 46.45125 
L 161.240625 47.116205 
L 163.85625 47.803322 
L 165.283032 48.15 
L 166.471875 48.45387 
L 169.0875 49.07121 
L 171.703125 49.646188 
L 172.707085 49.84875 
L 174.31875 50.193267 
L 176.934375 50.708828 
L 179.55 51.187748 
L 181.680127 51.5475 
L 182.165625 51.635111 
L 184.78125 52.061893 
L 187.396875 52.456203 
L 190.0125 52.819421 
L 192.628125 53.152741 
L 193.456149 53.24625 
L 195.24375 53.465857 
L 197.859375 53.753921 
L 200.475 54.013795 
L 203.090625 54.245899 
L 205.70625 54.450378 
L 208.321875 54.627035 
L 210.9375 54.77523 
L 213.553125 54.893717 
L 215.158167 54.945 
L 216.16875 54.982273 
L 218.784375 55.036656 
L 221.4 55.048086 
L 224.015625 55.006212 
L 225.530984 54.945 
L 226.63125 54.89622 
L 229.246875 54.693023 
L 231.8625 54.329029 
L 234.478125 53.645428 
L 235.412126 53.24625 
L 237.09375 52.270341 
L 237.874313 51.5475 
L 239.193672 49.84875 
L 239.709375 48.974561 
L 240.088414 48.15 
L 240.774994 46.45125 
L 241.345217 44.7525 
L 241.843045 43.05375 
L 242.292531 41.355 
L 242.325 41.236162 
L 242.707119 39.65625 
L 243.096286 37.9575 
L 243.466173 36.25875 
L 242.325 36.255445 
L 239.709375 36.247928 
L 237.09375 36.240507 
L 234.478125 36.233202 
L 231.8625 36.226037 
L 229.246875 36.219032 
L 226.63125 36.212208 
L 224.015625 36.205586 
L 221.4 36.199185 
L 218.784375 36.193025 
L 216.16875 36.187125 
L 213.553125 36.181504 
L 210.9375 36.176181 
L 208.321875 36.171173 
L 205.70625 36.166499 
L 203.090625 36.162178 
L 200.475 36.158228 
L 197.859375 36.154667 
L 195.24375 36.151513 
L 192.628125 36.148785 
L 190.0125 36.146502 
L 187.396875 36.144683 
L 184.78125 36.143348 
L 182.165625 36.142517 
L 179.55 36.142211 
L 177.593724 36.14239 
" style="fill:none;stroke:#0000ff;stroke-width:1.5;"/>
   </g>
   <g id="LineCollection_6">
    <path clip-path="url(#pae9d9e0dc3)" d="M 206.580617 250.545004 
L 230.763057 250.30125 
L 232.883984 238.41 
L 234.936607 228.2175 
L 236.490773 221.4225 
L 238.27375 214.6275 
L 239.836146 209.53125 
L 241.033515 206.13375 
L 242.406711 202.73625 
L 244.023005 199.33875 
L 245.994547 195.94125 
L 247.55625 193.717772 
L 248.511488 192.54375 
L 250.171875 190.746996 
L 252.7875 188.444804 
L 255.403125 186.64052 
L 258.01875 185.191261 
L 260.634375 184.00791 
L 265.234805 182.35125 
L 268.48125 181.410954 
L 273.7125 180.179167 
L 280.192608 178.95375 
L 286.790625 177.900418 
L 299.86875 176.126698 
L 344.334375 170.457294 
L 362.64375 167.778251 
L 378.3375 165.264558 
L 386.184375 163.927256 
L 386.564188 144.97875 
L 386.835241 119.4975 
L 386.917146 90.61875 
L 386.778371 61.74 
L 386.468887 39.65625 
L 386.39816 36.25875 
L 386.184375 36.120964 
L 369.471372 36.25875 
L 365.259375 38.211664 
L 357.4125 41.636869 
L 349.565625 44.829456 
L 340.803201 48.15 
L 333.871875 50.645078 
L 320.79375 55.063442 
L 297.253125 62.937116 
L 291.36301 65.1375 
L 286.790625 67.029826 
L 281.559375 69.465598 
L 278.94375 70.833513 
L 276.328125 72.333039 
L 273.7125 73.995467 
L 271.096875 75.858615 
L 268.48125 77.968048 
L 265.816512 80.42625 
L 262.684796 83.82375 
L 260.044008 87.22125 
L 257.770934 90.61875 
L 255.403125 94.700836 
L 253.991856 97.41375 
L 251.619059 102.51 
L 249.505077 107.60625 
L 246.948236 114.40125 
L 243.394412 124.59375 
L 239.709375 135.081122 
L 237.16048 141.58125 
L 235.651833 144.97875 
L 233.946202 148.37625 
L 231.8625 151.894457 
L 230.772825 153.4725 
L 229.246875 155.425224 
L 227.943024 156.87 
L 226.165225 158.56875 
L 224.015625 160.269165 
L 221.325739 161.96625 
L 217.777624 163.665 
L 216.16875 164.284716 
L 212.74205 165.36375 
L 208.321875 166.394757 
L 203.090625 167.248827 
L 197.859375 167.819814 
L 192.628125 168.191411 
L 184.78125 168.472063 
L 176.934375 168.501059 
L 169.0875 168.333731 
L 158.625 167.862572 
L 147.06139 167.0625 
L 137.7 166.215898 
L 127.2375 165.080689 
L 114.159375 163.384625 
L 101.08125 161.395228 
L 88.003125 159.132767 
L 74.925 156.623079 
L 59.23125 153.338906 
L 56.615625 152.766552 
L 55.914591 192.54375 
L 55.392939 235.0125 
L 55.250023 250.30125 
L 56.615625 251.188157 
L 150.778125 250.900905 
L 162.981637 250.84032 
L 162.981637 250.84032 
" style="fill:none;stroke:#0000ff;stroke-width:1.5;"/>
    <path clip-path="url(#pae9d9e0dc3)" d="M 201.628316 36.228982 
L 200.475 36.227187 
L 197.859375 36.223518 
L 195.24375 36.220269 
L 192.628125 36.217459 
L 190.0125 36.215109 
L 187.396875 36.213237 
L 184.78125 36.211864 
L 182.165625 36.211011 
L 179.55 36.2107 
L 176.934375 36.210952 
L 174.31875 36.211791 
L 171.703125 36.21324 
L 169.0875 36.215326 
L 166.471875 36.218073 
L 163.85625 36.221511 
L 161.240625 36.225669 
L 158.625 36.230576 
L 156.009375 36.236267 
L 153.39375 36.242777 
L 150.778125 36.250142 
L 148.1625 36.258404 
L 148.063658 36.25875 
L 148.1625 36.290638 
L 150.778125 37.059743 
L 153.39375 37.762649 
L 154.195164 37.9575 
L 156.009375 38.416054 
L 158.625 39.014015 
L 161.240625 39.553605 
L 161.802369 39.65625 
L 163.85625 40.048577 
L 166.471875 40.490853 
L 169.0875 40.878852 
L 171.703125 41.213635 
L 173.027772 41.355 
L 174.31875 41.500209 
L 176.934375 41.737168 
L 179.55 41.919761 
L 182.165625 42.047077 
L 184.78125 42.117579 
L 187.396875 42.12902 
L 189.475547 42.088725 
" style="fill:none;stroke:#0000ff;stroke-width:1.5;"/>
   </g>
   <g id="LineCollection_7">
    <path clip-path="url(#pae9d9e0dc3)" d="M 226.169114 201.470784 
L 225.511646 199.33875 
L 224.848677 197.64 
L 224.015625 195.899501 
L 223.044479 194.2425 
L 221.4 192.04809 
L 220.282425 190.845 
L 218.346607 189.14625 
L 215.86943 187.4475 
L 212.650539 185.74875 
L 210.9375 185.00659 
L 208.321875 184.026945 
L 203.090625 182.453909 
L 200.475 181.800645 
L 195.116131 180.6525 
L 187.396875 179.276339 
L 176.934375 177.695418 
L 124.621875 170.286625 
L 108.928125 167.636757 
L 95.85 165.198097 
L 82.771875 162.533387 
L 69.69375 159.659559 
L 56.615625 156.605754 
L 55.921979 195.94125 
L 55.400961 238.41 
L 55.28823 250.30125 
L 56.615625 251.163343 
L 148.1625 250.879702 
L 208.321875 250.484981 
L 226.352835 250.30125 
L 226.804104 244.884425 
L 226.804104 244.884425 
" style="fill:none;stroke:#0000ff;stroke-width:1.5;"/>
    <path clip-path="url(#pae9d9e0dc3)" d="M 313.987338 66.45838 
L 309.701257 68.535 
L 302.484375 72.340526 
L 297.253125 75.419338 
L 292.277352 78.7275 
L 287.824733 82.125 
L 283.976207 85.5225 
L 280.634323 88.92 
L 277.733194 92.3175 
L 275.201762 95.715 
L 272.982854 99.1125 
L 271.030437 102.51 
L 269.302537 105.9075 
L 267.77524 109.305 
L 265.865625 114.246074 
L 264.690473 117.79875 
L 263.25 123.027455 
L 262.181436 127.99125 
L 261.627396 131.38875 
L 261.229501 134.78625 
L 261.008985 138.18375 
L 261.000259 141.58125 
L 261.257893 144.97875 
L 261.869488 148.37625 
L 262.350161 150.075 
L 263.25 152.358241 
L 263.801975 153.4725 
L 264.864548 155.17125 
L 266.243196 156.87 
L 268.48125 158.892572 
L 271.096875 160.596783 
L 273.947718 161.96625 
L 276.328125 162.831119 
L 279.152147 163.665 
L 284.175 164.714144 
L 289.40625 165.450457 
L 294.6375 165.912819 
L 299.86875 166.192336 
L 307.715625 166.35186 
L 315.5625 166.272872 
L 326.025 165.886071 
L 336.4875 165.243806 
L 346.95 164.377716 
L 357.4125 163.332821 
L 370.490625 161.796667 
L 386.184375 159.66036 
L 386.543913 139.8825 
L 386.779452 114.40125 
L 386.824958 85.5225 
L 386.654876 58.3425 
L 386.297691 36.25875 
L 386.184375 36.185717 
L 378.017881 36.25875 
L 370.490625 40.309756 
L 360.028125 45.581727 
L 353.74762 48.57319 
L 353.74762 48.57319 
" style="fill:none;stroke:#0000ff;stroke-width:1.5;"/>
   </g>
   <g id="LineCollection_8">
    <path clip-path="url(#pae9d9e0dc3)" d="M 55.387212 246.618727 
L 55.351934 250.30125 
L 56.615625 251.12197 
L 148.1625 250.824302 
L 205.70625 250.434578 
L 219.003461 250.30125 
L 218.525872 243.50625 
L 217.961314 238.41 
L 217.16526 233.31375 
L 216.068217 228.2175 
L 215.122968 224.82 
L 213.961905 221.4225 
L 212.53456 218.025 
L 210.773078 214.6275 
L 208.588432 211.23 
L 207.30128 209.53125 
L 205.70625 207.664638 
L 203.090625 205.04055 
L 200.355979 202.73625 
L 197.859375 200.923465 
L 195.24375 199.25497 
L 192.377996 197.64 
L 187.396875 195.232872 
L 182.165625 193.106886 
L 176.934375 191.271308 
L 171.703125 189.644986 
L 163.710701 187.4475 
L 156.009375 185.546318 
L 145.546875 183.170969 
L 122.00625 178.169578 
L 101.08125 173.647465 
L 85.3875 170.02687 
L 69.69375 166.155118 
L 56.615625 162.738022 
L 55.939563 201.0375 
L 55.910387 203.021909 
L 55.910387 203.021909 
" style="fill:none;stroke:#0000ff;stroke-width:1.5;"/>
    <path clip-path="url(#pae9d9e0dc3)" d="M 298.279078 108.296647 
L 297.239483 111.00375 
L 296.216068 114.40125 
L 295.503418 117.79875 
L 295.11493 121.19625 
L 295.077817 124.59375 
L 295.43671 127.99125 
L 295.784795 129.69 
L 296.259748 131.38875 
L 297.253125 133.930456 
L 297.651868 134.78625 
L 298.612732 136.485 
L 299.86875 138.29203 
L 301.210369 139.8825 
L 302.938844 141.58125 
L 305.1 143.318279 
L 307.715625 145.020212 
L 310.901325 146.6775 
L 315.096865 148.37625 
L 318.178125 149.356709 
L 320.79375 150.075 
L 326.025 151.189742 
L 331.25625 152.01502 
L 336.4875 152.596666 
L 341.71875 152.996737 
L 349.565625 153.315608 
L 357.4125 153.359647 
L 365.259375 153.183075 
L 375.721875 152.675159 
L 386.184375 151.923407 
L 386.496296 131.38875 
L 386.679015 104.20875 
L 386.64501 75.33 
L 386.392046 49.84875 
L 386.184375 38.633395 
L 373.10625 47.110398 
L 354.78734 58.3425 
L 340.888542 66.83625 
L 331.25625 73.100716 
L 328.013872 75.33 
L 326.885037 76.143978 
L 326.885037 76.143978 
" style="fill:none;stroke:#0000ff;stroke-width:1.5;"/>
   </g>
   <g id="LineCollection_9">
    <path clip-path="url(#pae9d9e0dc3)" d="M 121.984535 189.799166 
L 69.517225 175.55625 
L 56.615625 171.771725 
L 55.952345 209.53125 
L 55.451666 250.30125 
L 56.615625 251.057198 
L 145.546875 250.75117 
L 203.090625 250.344599 
L 207.488406 250.30125 
L 205.97081 245.205 
L 204.758866 241.8075 
L 203.090625 237.818596 
L 201.731135 235.0125 
L 199.8432 231.615 
L 197.644081 228.2175 
L 195.074044 224.82 
L 192.059488 221.4225 
L 188.509193 218.025 
L 186.499005 216.32625 
L 184.311014 214.6275 
L 181.928005 212.92875 
L 176.934375 209.78101 
L 173.418141 207.8325 
L 169.0875 205.667302 
L 163.454867 203.159868 
L 163.454867 203.159868 
" style="fill:none;stroke:#0000ff;stroke-width:1.5;"/>
    <path clip-path="url(#pae9d9e0dc3)" d="M 366.875349 134.185017 
L 367.875 134.451238 
L 369.264714 134.78625 
L 370.490625 135.056287 
L 373.10625 135.578856 
L 375.721875 136.040778 
L 378.3375 136.447073 
L 378.607428 136.485 
L 380.953125 136.789754 
L 383.56875 137.086665 
L 386.184375 137.342798 
L 386.196526 136.485 
L 386.219468 134.78625 
L 386.241243 133.0875 
L 386.261885 131.38875 
L 386.281426 129.69 
L 386.299895 127.99125 
L 386.317319 126.2925 
L 386.333723 124.59375 
L 386.349132 122.895 
L 386.363565 121.19625 
L 386.377044 119.4975 
L 386.389585 117.79875 
L 386.401204 116.1 
L 386.411918 114.40125 
L 386.421737 112.7025 
L 386.430676 111.00375 
L 386.438742 109.305 
L 386.445947 107.60625 
L 386.452296 105.9075 
L 386.457796 104.20875 
L 386.462452 102.51 
L 386.466268 100.81125 
L 386.469246 99.1125 
L 386.471386 97.41375 
L 386.472689 95.715 
L 386.473152 94.01625 
L 386.472773 92.3175 
L 386.471548 90.61875 
L 386.46947 88.92 
L 386.466533 87.22125 
L 386.462729 85.5225 
L 386.458047 83.82375 
L 386.452477 82.125 
L 386.446005 80.42625 
L 386.438617 78.7275 
L 386.430297 77.02875 
L 386.421026 75.33 
L 386.410786 73.63125 
L 386.399555 71.9325 
L 386.387308 70.23375 
L 386.37402 68.535 
L 386.359664 66.83625 
L 386.344208 65.1375 
L 386.32762 63.43875 
L 386.309864 61.74 
L 386.290902 60.04125 
L 386.270691 58.3425 
L 386.249187 56.64375 
L 386.226341 54.945 
L 386.2021 53.24625 
L 386.184375 52.071575 
L 384.817599 53.24625 
L 383.56875 54.357236 
L 382.878611 54.945 
L 380.953125 56.64375 
L 379.018376 58.3425 
L 378.3375 58.962642 
L 377.102001 60.04125 
L 375.721875 61.292269 
L 375.206878 61.74 
L 373.328311 63.43875 
L 373.10625 63.647983 
L 371.459516 65.1375 
L 370.490625 66.050006 
L 369.621675 66.83625 
L 367.875 68.483728 
L 367.818467 68.535 
L 366.02906 70.23375 
L 365.259375 70.997332 
L 364.280149 71.9325 
L 362.64375 73.567549 
L 362.577588 73.63125 
L 360.89999 75.33 
L 360.028125 76.256612 
L 359.275099 77.02875 
L 357.701152 78.7275 
L 357.4125 79.056779 
L 356.169786 80.42625 
L 354.796875 82.022354 
L 354.705583 82.125 
L 353.286013 83.82375 
L 352.18125 85.225613 
L 351.939654 85.5225 
L 350.648879 87.22125 
L 349.565625 88.743552 
L 349.436141 88.92 
L 348.284229 90.61875 
L 347.215857 92.3175 
L 346.95 92.780329 
L 346.218803 94.01625 
L 345.304474 95.715 
L 344.478449 97.41375 
L 344.334375 97.75022 
L 343.734232 99.1125 
L 343.082579 100.81125 
L 342.528156 102.51 
L 342.074368 104.20875 
L 342.001345 104.564355 
" style="fill:none;stroke:#0000ff;stroke-width:1.5;"/>
   </g>
   <g id="LineCollection_10">
    <path clip-path="url(#pae9d9e0dc3)" d="M 120.265411 250.614736 
L 169.89507 250.30125 
L 166.420877 246.90375 
L 162.545526 243.50625 
L 158.221645 240.10875 
L 153.39375 236.71125 
L 148.005215 233.31375 
L 142.001702 229.91625 
L 137.7 227.682547 
L 131.743614 224.82 
L 124.621875 221.670273 
L 116.775 218.467428 
L 108.928125 215.472795 
L 97.105391 211.23 
L 82.21639 206.13375 
L 56.615625 197.418643 
L 56.000319 233.31375 
L 55.773235 250.30125 
L 56.615625 250.848351 
L 76.665766 250.789371 
L 76.665766 250.789371 
" style="fill:none;stroke:#0000ff;stroke-width:1.5;"/>
   </g>
   <g id="line2d_25">
    <path clip-path="url(#pae9d9e0dc3)" d="M 54 252 
L 388.8 252 
L 388.8 34.56 
L 54 34.56 
L 54 252 
" style="fill:none;stroke:#0000ff;stroke-linecap:square;"/>
   </g>
   <g id="patch_3">
    <path d="M 54 252 
L 54 34.56 
" style="fill:none;stroke:#000000;stroke-linecap:square;stroke-linejoin:miter;stroke-width:0.8;"/>
   </g>
   <g id="patch_4">
    <path d="M 388.8 252 
L 388.8 34.56 
" style="fill:none;stroke:#000000;stroke-linecap:square;stroke-linejoin:miter;stroke-width:0.8;"/>
   </g>
   <g id="patch_5">
    <path d="M 54 252 
L 388.8 252 
" style="fill:none;stroke:#000000;stroke-linecap:square;stroke-linejoin:miter;stroke-width:0.8;"/>
   </g>
   <g id="patch_6">
    <path d="M 54 34.56 
L 388.8 34.56 
" style="fill:none;stroke:#000000;stroke-linecap:square;stroke-linejoin:miter;stroke-width:0.8;"/>
   </g>
   <g id="text_15">
    <g clip-path="url(#pae9d9e0dc3)">
     <!-- 0.464258 -->
     <defs>
      <path d="M 10.796875 72.90625 
L 49.515625 72.90625 
L 49.515625 64.59375 
L 19.828125 64.59375 
L 19.828125 46.734375 
Q 21.96875 47.46875 24.109375 47.828125 
Q 26.265625 48.1875 28.421875 48.1875 
Q 40.625 48.1875 47.75 41.5 
Q 54.890625 34.8125 54.890625 23.390625 
Q 54.890625 11.625 47.5625 5.09375 
Q 40.234375 -1.421875 26.90625 -1.421875 
Q 22.3125 -1.421875 17.546875 -0.640625 
Q 12.796875 0.140625 7.71875 1.703125 
L 7.71875 11.625 
Q 12.109375 9.234375 16.796875 8.0625 
Q 21.484375 6.890625 26.703125 6.890625 
Q 35.15625 6.890625 40.078125 11.328125 
Q 45.015625 15.765625 45.015625 23.390625 
Q 45.015625 31 40.078125 35.4375 
Q 35.15625 39.890625 26.703125 39.890625 
Q 22.75 39.890625 18.8125 39.015625 
Q 14.890625 38.140625 10.796875 36.28125 
z
" id="DejaVuSans-35"/>
     </defs>
     <g style="fill:#0000ff;" transform="translate(87.229377 253.802634)rotate(-0.080663)scale(0.08 -0.08)">
      <use xlink:href="#DejaVuSans-30"/>
      <use x="63.623047" xlink:href="#DejaVuSans-2e"/>
      <use x="95.410156" xlink:href="#DejaVuSans-34"/>
      <use x="159.033203" xlink:href="#DejaVuSans-36"/>
      <use x="222.65625" xlink:href="#DejaVuSans-34"/>
      <use x="286.279297" xlink:href="#DejaVuSans-32"/>
      <use x="349.902344" xlink:href="#DejaVuSans-35"/>
      <use x="413.525391" xlink:href="#DejaVuSans-38"/>
     </g>
    </g>
   </g>
   <g id="text_16">
    <g clip-path="url(#pae9d9e0dc3)">
     <!-- 0.785337 -->
     <defs>
      <path d="M 8.203125 72.90625 
L 55.078125 72.90625 
L 55.078125 68.703125 
L 28.609375 0 
L 18.3125 0 
L 43.21875 64.59375 
L 8.203125 64.59375 
z
" id="DejaVuSans-37"/>
      <path d="M 40.578125 39.3125 
Q 47.65625 37.796875 51.625 33 
Q 55.609375 28.21875 55.609375 21.1875 
Q 55.609375 10.40625 48.1875 4.484375 
Q 40.765625 -1.421875 27.09375 -1.421875 
Q 22.515625 -1.421875 17.65625 -0.515625 
Q 12.796875 0.390625 7.625 2.203125 
L 7.625 11.71875 
Q 11.71875 9.328125 16.59375 8.109375 
Q 21.484375 6.890625 26.8125 6.890625 
Q 36.078125 6.890625 40.9375 10.546875 
Q 45.796875 14.203125 45.796875 21.1875 
Q 45.796875 27.640625 41.28125 31.265625 
Q 36.765625 34.90625 28.71875 34.90625 
L 20.21875 34.90625 
L 20.21875 43.015625 
L 29.109375 43.015625 
Q 36.375 43.015625 40.234375 45.921875 
Q 44.09375 48.828125 44.09375 54.296875 
Q 44.09375 59.90625 40.109375 62.90625 
Q 36.140625 65.921875 28.71875 65.921875 
Q 24.65625 65.921875 20.015625 65.03125 
Q 15.375 64.15625 9.8125 62.3125 
L 9.8125 71.09375 
Q 15.4375 72.65625 20.34375 73.4375 
Q 25.25 74.21875 29.59375 74.21875 
Q 40.828125 74.21875 47.359375 69.109375 
Q 53.90625 64.015625 53.90625 55.328125 
Q 53.90625 49.265625 50.4375 45.09375 
Q 46.96875 40.921875 40.578125 39.3125 
z
" id="DejaVuSans-33"/>
     </defs>
     <g style="fill:#0000ff;" transform="translate(186.617029 37.932502)rotate(-359.922439)scale(0.08 -0.08)">
      <use xlink:href="#DejaVuSans-30"/>
      <use x="63.623047" xlink:href="#DejaVuSans-2e"/>
      <use x="95.410156" xlink:href="#DejaVuSans-37"/>
      <use x="159.033203" xlink:href="#DejaVuSans-38"/>
      <use x="222.65625" xlink:href="#DejaVuSans-35"/>
      <use x="286.279297" xlink:href="#DejaVuSans-33"/>
      <use x="349.902344" xlink:href="#DejaVuSans-33"/>
      <use x="413.525391" xlink:href="#DejaVuSans-37"/>
     </g>
    </g>
   </g>
   <g id="text_17">
    <g clip-path="url(#pae9d9e0dc3)">
     <!-- 0.879355 -->
     <defs>
      <path d="M 10.984375 1.515625 
L 10.984375 10.5 
Q 14.703125 8.734375 18.5 7.8125 
Q 22.3125 6.890625 25.984375 6.890625 
Q 35.75 6.890625 40.890625 13.453125 
Q 46.046875 20.015625 46.78125 33.40625 
Q 43.953125 29.203125 39.59375 26.953125 
Q 35.25 24.703125 29.984375 24.703125 
Q 19.046875 24.703125 12.671875 31.3125 
Q 6.296875 37.9375 6.296875 49.421875 
Q 6.296875 60.640625 12.9375 67.421875 
Q 19.578125 74.21875 30.609375 74.21875 
Q 43.265625 74.21875 49.921875 64.515625 
Q 56.59375 54.828125 56.59375 36.375 
Q 56.59375 19.140625 48.40625 8.859375 
Q 40.234375 -1.421875 26.421875 -1.421875 
Q 22.703125 -1.421875 18.890625 -0.6875 
Q 15.09375 0.046875 10.984375 1.515625 
z
M 30.609375 32.421875 
Q 37.25 32.421875 41.125 36.953125 
Q 45.015625 41.5 45.015625 49.421875 
Q 45.015625 57.28125 41.125 61.84375 
Q 37.25 66.40625 30.609375 66.40625 
Q 23.96875 66.40625 20.09375 61.84375 
Q 16.21875 57.28125 16.21875 49.421875 
Q 16.21875 41.5 20.09375 36.953125 
Q 23.96875 32.421875 30.609375 32.421875 
z
" id="DejaVuSans-39"/>
     </defs>
     <g style="fill:#0000ff;" transform="translate(57.860022 192.975331)rotate(-89.122124)scale(0.08 -0.08)">
      <use xlink:href="#DejaVuSans-30"/>
      <use x="63.623047" xlink:href="#DejaVuSans-2e"/>
      <use x="95.410156" xlink:href="#DejaVuSans-38"/>
      <use x="159.033203" xlink:href="#DejaVuSans-37"/>
      <use x="222.65625" xlink:href="#DejaVuSans-39"/>
      <use x="286.279297" xlink:href="#DejaVuSans-33"/>
      <use x="349.902344" xlink:href="#DejaVuSans-35"/>
      <use x="413.525391" xlink:href="#DejaVuSans-35"/>
     </g>
    </g>
   </g>
   <g id="text_18">
    <g clip-path="url(#pae9d9e0dc3)">
     <!-- 0.936988 -->
     <g style="fill:#0000ff;" transform="translate(389.190099 130.099011)rotate(-89.761837)scale(0.08 -0.08)">
      <use xlink:href="#DejaVuSans-30"/>
      <use x="63.623047" xlink:href="#DejaVuSans-2e"/>
      <use x="95.410156" xlink:href="#DejaVuSans-39"/>
      <use x="159.033203" xlink:href="#DejaVuSans-33"/>
      <use x="222.65625" xlink:href="#DejaVuSans-36"/>
      <use x="286.279297" xlink:href="#DejaVuSans-39"/>
      <use x="349.902344" xlink:href="#DejaVuSans-38"/>
      <use x="413.525391" xlink:href="#DejaVuSans-38"/>
     </g>
    </g>
   </g>
   <g id="text_19">
    <g clip-path="url(#pae9d9e0dc3)">
     <!-- 0.970745 -->
     <g style="fill:#0000ff;" transform="translate(81.869819 155.951995)rotate(-352.564791)scale(0.08 -0.08)">
      <use xlink:href="#DejaVuSans-30"/>
      <use x="63.623047" xlink:href="#DejaVuSans-2e"/>
      <use x="95.410156" xlink:href="#DejaVuSans-39"/>
      <use x="159.033203" xlink:href="#DejaVuSans-37"/>
      <use x="222.65625" xlink:href="#DejaVuSans-30"/>
      <use x="286.279297" xlink:href="#DejaVuSans-37"/>
      <use x="349.902344" xlink:href="#DejaVuSans-34"/>
      <use x="413.525391" xlink:href="#DejaVuSans-35"/>
     </g>
    </g>
   </g>
   <g id="text_20">
    <g clip-path="url(#pae9d9e0dc3)">
     <!-- 0.970745 -->
     <g style="fill:#0000ff;" transform="translate(134.31353 38.432293)rotate(-0.154702)scale(0.08 -0.08)">
      <use xlink:href="#DejaVuSans-30"/>
      <use x="63.623047" xlink:href="#DejaVuSans-2e"/>
      <use x="95.410156" xlink:href="#DejaVuSans-39"/>
      <use x="159.033203" xlink:href="#DejaVuSans-37"/>
      <use x="222.65625" xlink:href="#DejaVuSans-30"/>
      <use x="286.279297" xlink:href="#DejaVuSans-37"/>
      <use x="349.902344" xlink:href="#DejaVuSans-34"/>
      <use x="413.525391" xlink:href="#DejaVuSans-35"/>
     </g>
    </g>
   </g>
   <g id="text_21">
    <g clip-path="url(#pae9d9e0dc3)">
     <!-- 1.00162 -->
     <g style="fill:#0000ff;" transform="translate(168.255248 253.029606)rotate(-0.386026)scale(0.08 -0.08)">
      <use xlink:href="#DejaVuSans-31"/>
      <use x="63.623047" xlink:href="#DejaVuSans-2e"/>
      <use x="95.410156" xlink:href="#DejaVuSans-30"/>
      <use x="159.033203" xlink:href="#DejaVuSans-30"/>
      <use x="222.65625" xlink:href="#DejaVuSans-31"/>
      <use x="286.279297" xlink:href="#DejaVuSans-36"/>
      <use x="349.902344" xlink:href="#DejaVuSans-32"/>
     </g>
    </g>
   </g>
   <g id="text_22">
    <g clip-path="url(#pae9d9e0dc3)">
     <!-- 1.00162 -->
     <g style="fill:#0000ff;" transform="translate(196.831076 47.639543)rotate(-24.693544)scale(0.08 -0.08)">
      <use xlink:href="#DejaVuSans-31"/>
      <use x="63.623047" xlink:href="#DejaVuSans-2e"/>
      <use x="95.410156" xlink:href="#DejaVuSans-30"/>
      <use x="159.033203" xlink:href="#DejaVuSans-30"/>
      <use x="222.65625" xlink:href="#DejaVuSans-31"/>
      <use x="286.279297" xlink:href="#DejaVuSans-36"/>
      <use x="349.902344" xlink:href="#DejaVuSans-32"/>
     </g>
    </g>
   </g>
   <g id="text_23">
    <g clip-path="url(#pae9d9e0dc3)">
     <!-- 1.03223 -->
     <g style="fill:#0000ff;" transform="translate(230.213981 239.663446)rotate(-89.975417)scale(0.08 -0.08)">
      <use xlink:href="#DejaVuSans-31"/>
      <use x="63.623047" xlink:href="#DejaVuSans-2e"/>
      <use x="95.410156" xlink:href="#DejaVuSans-30"/>
      <use x="159.033203" xlink:href="#DejaVuSans-33"/>
      <use x="222.65625" xlink:href="#DejaVuSans-32"/>
      <use x="286.279297" xlink:href="#DejaVuSans-32"/>
      <use x="349.902344" xlink:href="#DejaVuSans-33"/>
     </g>
    </g>
   </g>
   <g id="text_24">
    <g clip-path="url(#pae9d9e0dc3)">
     <!-- 1.03223 -->
     <g style="fill:#0000ff;" transform="translate(319.659234 66.271605)rotate(-24.004402)scale(0.08 -0.08)">
      <use xlink:href="#DejaVuSans-31"/>
      <use x="63.623047" xlink:href="#DejaVuSans-2e"/>
      <use x="95.410156" xlink:href="#DejaVuSans-30"/>
      <use x="159.033203" xlink:href="#DejaVuSans-33"/>
      <use x="222.65625" xlink:href="#DejaVuSans-32"/>
      <use x="286.279297" xlink:href="#DejaVuSans-32"/>
      <use x="349.902344" xlink:href="#DejaVuSans-33"/>
     </g>
    </g>
   </g>
   <g id="text_25">
    <g clip-path="url(#pae9d9e0dc3)">
     <!-- 1.08328 -->
     <g style="fill:#0000ff;" transform="translate(57.631808 241.386482)rotate(-89.314341)scale(0.08 -0.08)">
      <use xlink:href="#DejaVuSans-31"/>
      <use x="63.623047" xlink:href="#DejaVuSans-2e"/>
      <use x="95.410156" xlink:href="#DejaVuSans-30"/>
      <use x="159.033203" xlink:href="#DejaVuSans-38"/>
      <use x="222.65625" xlink:href="#DejaVuSans-33"/>
      <use x="286.279297" xlink:href="#DejaVuSans-32"/>
      <use x="349.902344" xlink:href="#DejaVuSans-38"/>
     </g>
    </g>
   </g>
   <g id="text_26">
    <g clip-path="url(#pae9d9e0dc3)">
     <!-- 1.08328 -->
     <g style="fill:#0000ff;" transform="translate(300.833457 103.996074)rotate(-47.708099)scale(0.08 -0.08)">
      <use xlink:href="#DejaVuSans-31"/>
      <use x="63.623047" xlink:href="#DejaVuSans-2e"/>
      <use x="95.410156" xlink:href="#DejaVuSans-30"/>
      <use x="159.033203" xlink:href="#DejaVuSans-38"/>
      <use x="222.65625" xlink:href="#DejaVuSans-33"/>
      <use x="286.279297" xlink:href="#DejaVuSans-32"/>
      <use x="349.902344" xlink:href="#DejaVuSans-38"/>
     </g>
    </g>
   </g>
   <g id="text_27">
    <g clip-path="url(#pae9d9e0dc3)">
     <!-- 1.16319 -->
     <g style="fill:#0000ff;" transform="translate(126.498301 192.928439)rotate(-342.37043)scale(0.08 -0.08)">
      <use xlink:href="#DejaVuSans-31"/>
      <use x="63.623047" xlink:href="#DejaVuSans-2e"/>
      <use x="95.410156" xlink:href="#DejaVuSans-31"/>
      <use x="159.033203" xlink:href="#DejaVuSans-36"/>
      <use x="222.65625" xlink:href="#DejaVuSans-33"/>
      <use x="286.279297" xlink:href="#DejaVuSans-31"/>
      <use x="349.902344" xlink:href="#DejaVuSans-39"/>
     </g>
    </g>
   </g>
   <g id="text_28">
    <g clip-path="url(#pae9d9e0dc3)">
     <!-- 1.16319 -->
     <g style="fill:#0000ff;" transform="translate(334.906748 113.712845)rotate(-311.704201)scale(0.08 -0.08)">
      <use xlink:href="#DejaVuSans-31"/>
      <use x="63.623047" xlink:href="#DejaVuSans-2e"/>
      <use x="95.410156" xlink:href="#DejaVuSans-31"/>
      <use x="159.033203" xlink:href="#DejaVuSans-36"/>
      <use x="222.65625" xlink:href="#DejaVuSans-33"/>
      <use x="286.279297" xlink:href="#DejaVuSans-31"/>
      <use x="349.902344" xlink:href="#DejaVuSans-39"/>
     </g>
    </g>
   </g>
   <g id="text_29">
    <g clip-path="url(#pae9d9e0dc3)">
     <!-- 1.42086 -->
     <g style="fill:#0000ff;" transform="translate(81.933323 252.984617)rotate(-0.228819)scale(0.08 -0.08)">
      <use xlink:href="#DejaVuSans-31"/>
      <use x="63.623047" xlink:href="#DejaVuSans-2e"/>
      <use x="95.410156" xlink:href="#DejaVuSans-34"/>
      <use x="159.033203" xlink:href="#DejaVuSans-32"/>
      <use x="222.65625" xlink:href="#DejaVuSans-30"/>
      <use x="286.279297" xlink:href="#DejaVuSans-38"/>
      <use x="349.902344" xlink:href="#DejaVuSans-36"/>
     </g>
    </g>
   </g>
   <g id="text_30">
    <!-- [X0,X1] iso-PDF -->
    <defs>
     <path d="M 8.59375 75.984375 
L 29.296875 75.984375 
L 29.296875 69 
L 17.578125 69 
L 17.578125 -6.203125 
L 29.296875 -6.203125 
L 29.296875 -13.1875 
L 8.59375 -13.1875 
z
" id="DejaVuSans-5b"/>
     <path d="M 11.71875 12.40625 
L 22.015625 12.40625 
L 22.015625 4 
L 14.015625 -11.625 
L 7.71875 -11.625 
L 11.71875 4 
z
" id="DejaVuSans-2c"/>
     <path d="M 30.421875 75.984375 
L 30.421875 -13.1875 
L 9.71875 -13.1875 
L 9.71875 -6.203125 
L 21.390625 -6.203125 
L 21.390625 69 
L 9.71875 69 
L 9.71875 75.984375 
z
" id="DejaVuSans-5d"/>
     <path id="DejaVuSans-20"/>
     <path d="M 9.421875 54.6875 
L 18.40625 54.6875 
L 18.40625 0 
L 9.421875 0 
z
M 9.421875 75.984375 
L 18.40625 75.984375 
L 18.40625 64.59375 
L 9.421875 64.59375 
z
" id="DejaVuSans-69"/>
     <path d="M 44.28125 53.078125 
L 44.28125 44.578125 
Q 40.484375 46.53125 36.375 47.5 
Q 32.28125 48.484375 27.875 48.484375 
Q 21.1875 48.484375 17.84375 46.4375 
Q 14.5 44.390625 14.5 40.28125 
Q 14.5 37.15625 16.890625 35.375 
Q 19.28125 33.59375 26.515625 31.984375 
L 29.59375 31.296875 
Q 39.15625 29.25 43.1875 25.515625 
Q 47.21875 21.78125 47.21875 15.09375 
Q 47.21875 7.46875 41.1875 3.015625 
Q 35.15625 -1.421875 24.609375 -1.421875 
Q 20.21875 -1.421875 15.453125 -0.5625 
Q 10.6875 0.296875 5.421875 2 
L 5.421875 11.28125 
Q 10.40625 8.6875 15.234375 7.390625 
Q 20.0625 6.109375 24.8125 6.109375 
Q 31.15625 6.109375 34.5625 8.28125 
Q 37.984375 10.453125 37.984375 14.40625 
Q 37.984375 18.0625 35.515625 20.015625 
Q 33.0625 21.96875 24.703125 23.78125 
L 21.578125 24.515625 
Q 13.234375 26.265625 9.515625 29.90625 
Q 5.8125 33.546875 5.8125 39.890625 
Q 5.8125 47.609375 11.28125 51.796875 
Q 16.75 56 26.8125 56 
Q 31.78125 56 36.171875 55.265625 
Q 40.578125 54.546875 44.28125 53.078125 
z
" id="DejaVuSans-73"/>
     <path d="M 30.609375 48.390625 
Q 23.390625 48.390625 19.1875 42.75 
Q 14.984375 37.109375 14.984375 27.296875 
Q 14.984375 17.484375 19.15625 11.84375 
Q 23.34375 6.203125 30.609375 6.203125 
Q 37.796875 6.203125 41.984375 11.859375 
Q 46.1875 17.53125 46.1875 27.296875 
Q 46.1875 37.015625 41.984375 42.703125 
Q 37.796875 48.390625 30.609375 48.390625 
z
M 30.609375 56 
Q 42.328125 56 49.015625 48.375 
Q 55.71875 40.765625 55.71875 27.296875 
Q 55.71875 13.875 49.015625 6.21875 
Q 42.328125 -1.421875 30.609375 -1.421875 
Q 18.84375 -1.421875 12.171875 6.21875 
Q 5.515625 13.875 5.515625 27.296875 
Q 5.515625 40.765625 12.171875 48.375 
Q 18.84375 56 30.609375 56 
z
" id="DejaVuSans-6f"/>
     <path d="M 4.890625 31.390625 
L 31.203125 31.390625 
L 31.203125 23.390625 
L 4.890625 23.390625 
z
" id="DejaVuSans-2d"/>
     <path d="M 19.671875 64.796875 
L 19.671875 37.40625 
L 32.078125 37.40625 
Q 38.96875 37.40625 42.71875 40.96875 
Q 46.484375 44.53125 46.484375 51.125 
Q 46.484375 57.671875 42.71875 61.234375 
Q 38.96875 64.796875 32.078125 64.796875 
z
M 9.8125 72.90625 
L 32.078125 72.90625 
Q 44.34375 72.90625 50.609375 67.359375 
Q 56.890625 61.8125 56.890625 51.125 
Q 56.890625 40.328125 50.609375 34.8125 
Q 44.34375 29.296875 32.078125 29.296875 
L 19.671875 29.296875 
L 19.671875 0 
L 9.8125 0 
z
" id="DejaVuSans-50"/>
     <path d="M 19.671875 64.796875 
L 19.671875 8.109375 
L 31.59375 8.109375 
Q 46.6875 8.109375 53.6875 14.9375 
Q 60.6875 21.78125 60.6875 36.53125 
Q 60.6875 51.171875 53.6875 57.984375 
Q 46.6875 64.796875 31.59375 64.796875 
z
M 9.8125 72.90625 
L 30.078125 72.90625 
Q 51.265625 72.90625 61.171875 64.09375 
Q 71.09375 55.28125 71.09375 36.53125 
Q 71.09375 17.671875 61.125 8.828125 
Q 51.171875 0 30.078125 0 
L 9.8125 0 
z
" id="DejaVuSans-44"/>
     <path d="M 9.8125 72.90625 
L 51.703125 72.90625 
L 51.703125 64.59375 
L 19.671875 64.59375 
L 19.671875 43.109375 
L 48.578125 43.109375 
L 48.578125 34.8125 
L 19.671875 34.8125 
L 19.671875 0 
L 9.8125 0 
z
" id="DejaVuSans-46"/>
    </defs>
    <g transform="translate(174.73125 28.56)scale(0.12 -0.12)">
     <use xlink:href="#DejaVuSans-5b"/>
     <use x="39.013672" xlink:href="#DejaVuSans-58"/>
     <use x="107.519531" xlink:href="#DejaVuSans-30"/>
     <use x="171.142578" xlink:href="#DejaVuSans-2c"/>
     <use x="202.929688" xlink:href="#DejaVuSans-58"/>
     <use x="271.435547" xlink:href="#DejaVuSans-31"/>
     <use x="335.058594" xlink:href="#DejaVuSans-5d"/>
     <use x="374.072266" xlink:href="#DejaVuSans-20"/>
     <use x="405.859375" xlink:href="#DejaVuSans-69"/>
     <use x="433.642578" xlink:href="#DejaVuSans-73"/>
     <use x="485.742188" xlink:href="#DejaVuSans-6f"/>
     <use x="546.939453" xlink:href="#DejaVuSans-2d"/>
     <use x="583.023438" xlink:href="#DejaVuSans-50"/>
     <use x="643.326172" xlink:href="#DejaVuSans-44"/>
     <use x="720.328125" xlink:href="#DejaVuSans-46"/>
    </g>
   </g>
   <g id="legend_1">
    <g id="patch_7">
     <path d="M 274.01875 59.238125 
L 383.8 59.238125 
Q 385.8 59.238125 385.8 57.238125 
L 385.8 43.56 
Q 385.8 41.56 383.8 41.56 
L 274.01875 41.56 
Q 272.01875 41.56 272.01875 43.56 
L 272.01875 57.238125 
Q 272.01875 59.238125 274.01875 59.238125 
z
" style="fill:#4c4c4c;opacity:0.5;stroke:#4c4c4c;stroke-linejoin:miter;"/>
    </g>
    <g id="patch_8">
     <path d="M 272.01875 57.238125 
L 381.8 57.238125 
Q 383.8 57.238125 383.8 55.238125 
L 383.8 41.56 
Q 383.8 39.56 381.8 39.56 
L 272.01875 39.56 
Q 270.01875 39.56 270.01875 41.56 
L 270.01875 55.238125 
Q 270.01875 57.238125 272.01875 57.238125 
z
" style="fill:#ffffff;opacity:0.8;stroke:#cccccc;stroke-linejoin:miter;"/>
    </g>
    <g id="line2d_26">
     <path d="M 274.01875 47.658437 
L 294.01875 47.658437 
" style="fill:none;stroke:#0000ff;stroke-width:1.5;"/>
    </g>
    <g id="text_31">
     <!-- [X0,X1] iso-PDF -->
     <g transform="translate(302.01875 51.158437)scale(0.1 -0.1)">
      <use xlink:href="#DejaVuSans-5b"/>
      <use x="39.013672" xlink:href="#DejaVuSans-58"/>
      <use x="107.519531" xlink:href="#DejaVuSans-30"/>
      <use x="171.142578" xlink:href="#DejaVuSans-2c"/>
      <use x="202.929688" xlink:href="#DejaVuSans-58"/>
      <use x="271.435547" xlink:href="#DejaVuSans-31"/>
      <use x="335.058594" xlink:href="#DejaVuSans-5d"/>
      <use x="374.072266" xlink:href="#DejaVuSans-20"/>
      <use x="405.859375" xlink:href="#DejaVuSans-69"/>
      <use x="433.642578" xlink:href="#DejaVuSans-73"/>
      <use x="485.742188" xlink:href="#DejaVuSans-6f"/>
      <use x="546.939453" xlink:href="#DejaVuSans-2d"/>
      <use x="583.023438" xlink:href="#DejaVuSans-50"/>
      <use x="643.326172" xlink:href="#DejaVuSans-44"/>
      <use x="720.328125" xlink:href="#DejaVuSans-46"/>
     </g>
    </g>
   </g>
  </g>
 </g>
 <defs>
  <clipPath id="pae9d9e0dc3">
   <rect height="217.44" width="334.8" x="54" y="34.56"/>
  </clipPath>
 </defs>
</svg>
