<?xml version="1.0" encoding="utf-8" standalone="no"?>
<!DOCTYPE svg PUBLIC "-//W3C//DTD SVG 1.1//EN"
  "http://www.w3.org/Graphics/SVG/1.1/DTD/svg11.dtd">
<!-- Created with matplotlib (http://matplotlib.org/) -->
<svg height="288pt" version="1.1" viewBox="0 0 432 288" width="432pt" xmlns="http://www.w3.org/2000/svg" xmlns:xlink="http://www.w3.org/1999/xlink">
 <defs>
  <style type="text/css">
*{stroke-linecap:butt;stroke-linejoin:round;stroke-miterlimit:100000;}
  </style>
 </defs>
 <g id="figure_1">
  <g id="patch_1">
   <path d="M 0 288 
L 432 288 
L 432 0 
L 0 0 
z
" style="fill:#ffffff;"/>
  </g>
  <g id="axes_1">
   <g id="patch_2">
    <path d="M 54 252 
L 388.8 252 
L 388.8 28.8 
L 54 28.8 
z
" style="fill:#ffffff;"/>
   </g>
   <g id="LineCollection_1">
    <path clip-path="url(#pb1062c566d)" d="M 54 170.013737 
L 54.015864 170.04375 
L 54.96911 171.7875 
L 56.045294 173.53125 
L 56.615625 174.389575 
L 57.138114 175.275 
L 57.21972 175.402692 
" style="fill:none;stroke:#0000ff;"/>
    <path clip-path="url(#pb1062c566d)" d="M 101.35314 219.453675 
L 103.091377 220.6125 
L 103.696875 221.0096 
L 105.797845 222.35625 
L 106.3125 222.682881 
L 108.612099 224.1 
L 108.928125 224.294092 
L 111.54375 225.84375 
L 114.159375 227.371145 
L 114.547286 227.5875 
L 116.775 228.845848 
L 117.680617 229.33125 
L 119.390625 230.265516 
L 120.962315 231.075 
L 122.00625 231.626614 
L 124.415288 232.81875 
L 124.621875 232.924312 
L 127.2375 234.221086 
L 127.972105 234.5625 
L 129.853125 235.473784 
L 131.718506 236.30625 
L 132.46875 236.657504 
L 135.084375 237.81272 
L 135.651528 238.05 
L 137.7 238.957597 
L 139.782933 239.79375 
L 140.315625 240.021658 
L 142.93125 241.089576 
L 144.12391 241.5375 
L 145.546875 242.112414 
L 148.1625 243.080054 
L 148.736002 243.28125 
L 150.778125 244.059126 
L 153.39375 244.947621 
L 153.630276 245.025 
L 156.009375 245.877905 
L 158.625 246.704426 
L 158.836229 246.76875 
L 161.240625 247.578469 
L 163.85625 248.357214 
L 164.405149 248.5125 
L 166.471875 249.164982 
L 169.0875 249.907924 
L 170.415638 250.25625 
L 171.703125 250.63647 
L 174.31875 251.353927 
L 176.934375 251.989424 
L 176.979395 252 
" style="fill:none;stroke:#0000ff;"/>
   </g>
   <g id="LineCollection_2">
    <path clip-path="url(#pb1062c566d)" d="M 64.149683 28.8 
L 64.150002 30.54375 
L 64.150396 32.2875 
L 64.150882 34.03125 
L 64.151481 35.775 
L 64.152216 37.51875 
L 64.153113 39.2625 
L 64.154206 41.00625 
L 64.155524 42.738203 
" style="fill:none;stroke:#0000ff;"/>
    <path clip-path="url(#pb1062c566d)" d="M 65.66589 105.501346 
L 66.225778 110.75625 
L 67.220925 117.73125 
L 68.080679 122.9625 
L 69.202111 128.19375 
L 71.494209 136.9125 
L 73.822672 143.8875 
L 76.658298 150.8625 
L 80.977807 159.58125 
L 84.027222 164.8125 
L 88.718974 171.7875 
L 91.342411 175.275 
L 94.165053 178.7625 
L 98.845056 183.99375 
L 102.226399 187.48125 
L 107.836181 192.7125 
L 111.961728 196.2 
L 118.735646 201.43125 
L 123.720319 204.91875 
L 129.146154 208.40625 
L 132.46875 210.401745 
L 140.315625 214.765104 
L 148.1625 218.632114 
L 156.63975 222.35625 
L 161.240625 224.200644 
L 166.471875 226.171582 
L 171.703125 227.991514 
L 179.55 230.478652 
L 192.628125 234.014796 
L 205.70625 236.894468 
L 213.553125 238.326678 
L 218.784375 239.201536 
L 231.8625 241.005121 
L 244.940625 242.385382 
L 255.403125 243.18605 
L 273.7125 244.221351 
L 286.790625 244.646701 
L 302.484375 244.938249 
L 328.640625 245.161242 
L 370.490625 245.230529 
L 388.8 245.233544 
L 388.8 245.233544 
" style="fill:none;stroke:#0000ff;"/>
   </g>
   <g id="LineCollection_3">
    <path clip-path="url(#pb1062c566d)" d="M 84.494442 28.8 
L 84.611037 68.90625 
L 84.881274 82.85625 
L 85.24421 91.575 
L 85.928762 102.0375 
L 86.644021 109.0125 
L 87.384918 114.24375 
L 88.624505 121.21875 
L 89.789616 126.45 
L 91.711655 133.425 
L 93.501145 138.65625 
L 94.804258 142.14375 
L 97.917575 149.11875 
L 101.646328 156.09375 
L 103.802285 159.58125 
L 106.117106 163.06875 
L 109.951874 168.3 
L 114.361871 173.53125 
L 117.569746 177.01875 
L 122.942369 182.25 
L 127.2375 185.986149 
L 131.235305 189.225 
L 135.951707 192.7125 
L 141.106351 196.2 
L 146.759556 199.6875 
L 150.778125 201.977583 
L 156.396595 204.91875 
L 161.240625 207.281897 
L 169.0875 210.720354 
L 176.934375 213.742039 
L 182.165625 215.576125 
L 187.396875 217.255262 
L 192.891476 218.86875 
L 198.222137 220.32377 
L 198.222137 220.32377 
" style="fill:none;stroke:#0000ff;"/>
    <path clip-path="url(#pb1062c566d)" d="M 255.440004 229.334286 
L 258.01875 229.546549 
L 260.634375 229.743388 
L 263.25 229.923247 
L 265.865625 230.087479 
L 268.48125 230.23732 
L 271.096875 230.373905 
L 273.7125 230.498278 
L 276.328125 230.6114 
L 278.94375 230.714159 
L 281.559375 230.807374 
L 284.175 230.891805 
L 286.790625 230.968157 
L 289.40625 231.037084 
L 290.998305 231.075 
L 292.021875 231.103871 
L 294.6375 231.170527 
L 297.253125 231.230354 
L 299.86875 231.283936 
L 302.484375 231.33182 
L 305.1 231.374512 
L 307.715625 231.412484 
L 310.33125 231.446174 
L 312.946875 231.475987 
L 315.5625 231.502302 
L 318.178125 231.525464 
L 320.79375 231.545796 
L 323.409375 231.563593 
L 326.025 231.579125 
L 328.640625 231.592642 
L 331.25625 231.604369 
L 333.871875 231.614513 
L 336.4875 231.62326 
L 339.103125 231.630779 
L 341.71875 231.637222 
L 344.334375 231.642726 
L 346.95 231.647413 
L 349.565625 231.65139 
L 352.18125 231.654755 
L 354.796875 231.657592 
L 357.4125 231.659977 
L 360.028125 231.661974 
L 362.64375 231.663641 
L 365.259375 231.665029 
L 367.875 231.666179 
L 370.490625 231.667131 
L 373.10625 231.667914 
L 375.721875 231.668557 
L 378.3375 231.669084 
L 380.953125 231.669513 
L 383.56875 231.669862 
L 386.184375 231.670144 
L 388.8 231.670372 
" style="fill:none;stroke:#0000ff;"/>
   </g>
   <g id="LineCollection_4">
    <path clip-path="url(#pb1062c566d)" d="M 106.241116 28.8 
L 106.241527 30.54375 
L 106.242037 32.2875 
L 106.242666 34.03125 
L 106.24344 35.775 
L 106.244388 37.51875 
L 106.245548 39.2625 
L 106.246961 41.00625 
L 106.248675 42.75 
L 106.25075 44.49375 
L 106.253251 46.2375 
L 106.256258 47.98125 
L 106.259859 49.725 
L 106.264158 51.46875 
L 106.269273 53.2125 
L 106.275339 54.95625 
L 106.28251 56.7 
L 106.29096 58.44375 
L 106.300883 60.1875 
L 106.3125 61.93125 
L 106.324174 63.675 
L 106.337754 65.41875 
L 106.353503 67.1625 
L 106.37171 68.90625 
L 106.392696 70.65 
L 106.416811 72.39375 
L 106.444442 74.1375 
L 106.476008 75.88125 
L 106.51197 77.625 
L 106.552824 79.36875 
L 106.599112 81.1125 
L 106.651417 82.85625 
L 106.710371 84.6 
L 106.776653 86.34375 
L 106.850996 88.0875 
L 106.934187 89.83125 
L 107.027073 91.575 
L 107.130561 93.31875 
L 107.245628 95.0625 
L 107.373324 96.80625 
L 107.514774 98.55 
L 107.671193 100.29375 
L 107.843884 102.0375 
L 108.034256 103.78125 
L 108.243828 105.525 
L 108.474244 107.26875 
L 108.727284 109.0125 
L 108.928125 110.279778 
L 108.994447 110.75625 
L 109.257346 112.5 
L 109.545261 114.24375 
L 109.860357 115.9875 
L 110.205003 117.73125 
L 110.581799 119.475 
L 110.993603 121.21875 
L 111.443566 122.9625 
L 111.54375 123.325876 
L 111.883111 124.70625 
L 112.34877 126.45 
L 112.857569 128.19375 
L 113.413621 129.9375 
L 114.021504 131.68125 
L 114.159375 132.05366 
L 114.617798 133.425 
L 115.250662 135.16875 
L 115.943582 136.9125 
L 116.702792 138.65625 
L 116.775 138.813891 
L 117.438677 140.4 
L 118.23625 142.14375 
L 119.112447 143.8875 
L 119.390625 144.409745 
L 119.99097 145.63125 
L 120.920204 147.375 
L 121.944527 149.11875 
L 122.00625 149.219402 
L 122.945655 150.8625 
L 124.0439 152.60625 
L 124.621875 153.463157 
L 125.184164 154.35 
L 126.372473 156.09375 
L 127.2375 157.263856 
L 127.639492 157.8375 
L 128.937747 159.58125 
L 129.853125 160.714609 
L 130.324427 161.325 
L 131.757302 163.06875 
L 132.46875 163.877421 
L 133.262009 164.8125 
L 134.860369 166.55625 
L 135.084375 166.790638 
L 136.487499 168.3 
L 137.7 169.505741 
L 138.22947 170.04375 
L 140.051305 171.7875 
L 140.315625 172.030306 
L 141.928894 173.53125 
L 142.93125 174.407375 
L 143.917381 175.275 
L 145.546875 176.630488 
L 146.013442 177.01875 
L 148.1625 178.72035 
L 148.216044 178.7625 
L 149.175253 179.494105 
" style="fill:none;stroke:#0000ff;"/>
    <path clip-path="url(#pb1062c566d)" d="M 201.049255 204.705712 
L 201.805264 204.91875 
L 203.090625 205.304067 
L 205.70625 206.03623 
L 208.170897 206.6625 
L 208.321875 206.703649 
L 210.9375 207.386531 
L 213.553125 208.00602 
L 215.385382 208.40625 
L 216.16875 208.591702 
L 218.784375 209.175833 
L 221.4 209.707548 
L 223.779163 210.15 
L 224.015625 210.198139 
L 226.63125 210.704279 
L 229.246875 211.166226 
L 231.8625 211.588134 
L 233.91951 211.89375 
L 234.478125 211.985664 
L 237.09375 212.390919 
L 239.709375 212.76162 
L 242.325 213.10082 
L 244.940625 213.411259 
L 247.011186 213.6375 
L 247.55625 213.704289 
L 250.171875 214.004265 
L 252.7875 214.278801 
L 255.403125 214.529998 
L 258.01875 214.759762 
L 260.634375 214.969826 
L 263.25 215.16177 
L 265.865625 215.337035 
L 266.580333 215.38125 
L 268.48125 215.515144 
L 271.096875 215.683837 
L 273.7125 215.837448 
L 276.328125 215.977163 
L 278.94375 216.104077 
L 281.559375 216.219205 
L 284.175 216.323484 
L 286.790625 216.417784 
L 289.40625 216.502914 
L 292.021875 216.579626 
L 294.6375 216.648618 
L 297.253125 216.710542 
L 299.86875 216.766002 
L 302.484375 216.815564 
L 305.1 216.859753 
L 307.715625 216.899055 
L 310.33125 216.933925 
L 312.946875 216.964784 
L 315.5625 216.99202 
L 318.178125 217.015994 
L 320.79375 217.037039 
L 323.409375 217.055459 
L 326.025 217.071536 
L 328.640625 217.085526 
L 331.25625 217.097665 
L 333.871875 217.108164 
L 336.4875 217.117217 
L 339.103125 217.125 
L 341.71875 217.132745 
L 344.334375 217.13936 
L 346.95 217.144993 
L 349.565625 217.149774 
L 352.18125 217.153818 
L 354.796875 217.157228 
L 357.4125 217.160094 
L 360.028125 217.162495 
L 362.64375 217.164499 
L 365.259375 217.166167 
L 367.875 217.16755 
L 370.490625 217.168693 
L 373.10625 217.169635 
L 375.721875 217.170408 
L 378.3375 217.17104 
L 380.953125 217.171556 
L 383.56875 217.171975 
L 386.184375 217.172315 
L 388.8 217.172589 
" style="fill:none;stroke:#0000ff;"/>
   </g>
   <g id="LineCollection_5">
    <path clip-path="url(#pb1062c566d)" d="M 129.734632 28.8 
L 129.735116 30.54375 
L 129.735715 32.2875 
L 129.736455 34.03125 
L 129.737366 35.775 
L 129.738482 37.51875 
L 129.739499 38.81911 
" style="fill:none;stroke:#0000ff;"/>
    <path clip-path="url(#pb1062c566d)" d="M 130.719989 92.000718 
L 131.280972 98.55 
L 131.911157 103.78125 
L 133.020995 110.75625 
L 134.104052 115.9875 
L 135.475122 121.21875 
L 136.527888 124.70625 
L 138.419063 129.9375 
L 139.891259 133.425 
L 142.428854 138.65625 
L 145.546875 144.036707 
L 147.72998 147.375 
L 151.650458 152.60625 
L 154.634597 156.09375 
L 158.625 160.227477 
L 161.652104 163.06875 
L 166.471875 167.12494 
L 170.336525 170.04375 
L 174.31875 172.775887 
L 178.30698 175.275 
L 182.165625 177.498336 
L 187.96274 180.50625 
L 192.628125 182.69406 
L 197.859375 184.910269 
L 205.70625 187.814044 
L 210.9375 189.513347 
L 216.16875 191.033634 
L 221.4 192.415151 
L 230.517803 194.45625 
L 234.478125 195.251847 
L 242.325 196.581061 
L 250.171875 197.683252 
L 260.634375 198.860041 
L 268.48125 199.519345 
L 281.559375 200.352851 
L 292.021875 200.790079 
L 305.1 201.129902 
L 323.409375 201.367314 
L 354.796875 201.492172 
L 388.8 201.510245 
L 388.8 201.510245 
" style="fill:none;stroke:#0000ff;"/>
   </g>
   <g id="LineCollection_6">
    <path clip-path="url(#pb1062c566d)" d="M 155.24748 28.8 
L 155.368803 63.675 
L 155.620646 75.88125 
L 156.009375 84.6 
L 156.491897 91.575 
L 157.019441 96.80625 
L 157.736381 102.0375 
L 158.691166 107.26875 
L 159.863586 112.5 
L 161.240625 117.231324 
L 161.957783 119.475 
L 163.253037 122.9625 
L 165.549772 128.19375 
L 168.352607 133.425 
L 170.533691 136.9125 
L 173.007326 140.4 
L 175.80533 143.8875 
L 179.55 147.956419 
L 182.558453 150.8625 
L 186.618776 154.35 
L 190.0125 156.946597 
L 193.821713 159.58125 
L 197.859375 162.095147 
L 203.090625 164.981236 
L 208.321875 167.530865 
L 214.255902 170.04375 
L 218.905075 171.7875 
L 224.122285 173.53125 
L 230.076132 175.275 
L 234.478125 176.428828 
L 242.325 178.179159 
L 250.171875 179.615511 
L 258.01875 180.770936 
L 265.865625 181.709116 
L 276.328125 182.649048 
L 286.790625 183.320373 
L 288.975115 183.428697 
L 288.975115 183.428697 
" style="fill:none;stroke:#0000ff;"/>
    <path clip-path="url(#pb1062c566d)" d="M 342.161311 184.446368 
L 344.334375 184.454218 
L 346.95 184.462264 
L 349.565625 184.469092 
L 352.18125 184.474869 
L 354.796875 184.47974 
L 357.4125 184.483833 
L 360.028125 184.487262 
L 362.64375 184.490125 
L 365.259375 184.492507 
L 367.875 184.494482 
L 370.490625 184.496115 
L 373.10625 184.49746 
L 375.721875 184.498564 
L 378.3375 184.499468 
L 380.953125 184.500205 
L 383.56875 184.500803 
L 386.184375 184.501289 
L 388.8 184.50168 
" style="fill:none;stroke:#0000ff;"/>
   </g>
   <g id="LineCollection_7">
    <path clip-path="url(#pb1062c566d)" d="M 183.546329 28.8 
L 183.547119 30.54375 
L 183.548097 32.2875 
L 183.549305 34.03125 
L 183.550792 35.775 
L 183.552615 37.51875 
L 183.552887 37.731754 
" style="fill:none;stroke:#0000ff;"/>
    <path clip-path="url(#pb1062c566d)" d="M 184.698589 86.104468 
L 184.718879 86.34375 
L 184.78125 87.001592 
L 184.879914 88.0875 
L 185.056873 89.83125 
L 185.254453 91.575 
L 185.474587 93.31875 
L 185.719352 95.0625 
L 185.990978 96.80625 
L 186.291864 98.55 
L 186.624588 100.29375 
L 186.991927 102.0375 
L 187.396875 103.78125 
L 187.396875 103.78125 
L 187.823402 105.525 
L 188.29235 107.26875 
L 188.807343 109.0125 
L 189.372317 110.75625 
L 189.99155 112.5 
L 190.0125 112.554866 
L 190.64345 114.24375 
L 191.355977 115.9875 
L 192.135326 117.73125 
L 192.628125 118.749653 
L 192.974195 119.475 
L 193.871246 121.21875 
L 194.85142 122.9625 
L 195.24375 123.612762 
L 195.899627 124.70625 
L 197.030505 126.45 
L 197.859375 127.631807 
L 198.253899 128.19375 
L 199.563629 129.9375 
L 200.475 131.061598 
L 200.981486 131.68125 
L 202.505418 133.425 
L 203.090625 134.052623 
L 204.147509 135.16875 
L 205.70625 136.701082 
L 205.925845 136.9125 
L 207.839845 138.65625 
L 208.321875 139.07093 
L 209.911391 140.4 
L 210.9375 141.210707 
L 212.159308 142.14375 
L 213.553125 143.155277 
L 214.602853 143.8875 
L 216.16875 144.931431 
L 217.267084 145.63125 
L 218.784375 146.560461 
L 220.18394 147.375 
L 221.4 148.059072 
L 223.393605 149.11875 
L 224.015625 149.440103 
L 226.63125 150.716103 
L 226.948377 150.8625 
L 229.246875 151.901661 
L 230.921066 152.60625 
L 231.8625 152.996388 
L 234.478125 154.012343 
L 235.407603 154.35 
L 237.09375 154.957581 
L 239.709375 155.830734 
L 240.55229 156.09375 
L 242.325 156.64633 
L 244.940625 157.400249 
L 246.580857 157.8375 
L 247.55625 158.099053 
L 250.171875 158.752503 
L 252.7875 159.350537 
L 253.875521 159.58125 
L 255.403125 159.909783 
L 258.01875 160.429349 
L 260.634375 160.904367 
L 263.167701 161.325 
L 263.25 161.338967 
L 265.865625 161.751789 
L 268.48125 162.128438 
L 271.096875 162.471767 
L 273.7125 162.784399 
L 276.328125 163.06875 
L 278.94375 163.338715 
L 281.559375 163.583608 
L 284.175 163.805424 
L 286.790625 164.006014 
L 289.40625 164.187099 
L 292.021875 164.350275 
L 294.6375 164.497031 
L 297.253125 164.628751 
L 299.86875 164.746724 
L 301.497612 164.8125 
L 302.484375 164.854081 
L 305.1 164.952655 
L 307.715625 165.04033 
L 310.33125 165.118118 
L 312.946875 165.186956 
L 315.5625 165.247714 
L 318.178125 165.301195 
L 320.79375 165.348141 
L 323.409375 165.389232 
L 326.025 165.425096 
L 328.640625 165.456306 
L 331.25625 165.483383 
L 333.871875 165.506804 
L 336.4875 165.527001 
L 339.103125 165.544362 
L 341.71875 165.55924 
L 344.334375 165.571948 
L 346.95 165.582769 
L 349.565625 165.591953 
L 352.18125 165.599722 
L 354.796875 165.606273 
L 357.4125 165.611778 
L 360.028125 165.61639 
L 362.64375 165.62024 
L 365.259375 165.623443 
L 367.875 165.6261 
L 370.490625 165.628296 
L 373.10625 165.630105 
L 375.721875 165.63159 
L 378.3375 165.632805 
L 380.953125 165.633796 
L 383.56875 165.634602 
L 386.184375 165.635254 
L 388.8 165.635781 
" style="fill:none;stroke:#0000ff;"/>
   </g>
   <g id="LineCollection_8">
    <path clip-path="url(#pb1062c566d)" d="M 216.041235 28.8 
L 216.042502 30.54375 
L 216.044071 32.2875 
L 216.046009 34.03125 
L 216.048392 35.775 
L 216.051315 37.51875 
L 216.054888 39.2625 
L 216.059239 41.00625 
L 216.064521 42.75 
L 216.070912 44.49375 
L 216.078618 46.2375 
L 216.087879 47.98125 
L 216.098972 49.725 
L 216.112214 51.46875 
L 216.127972 53.2125 
L 216.146659 54.95625 
L 216.16875 56.7 
L 216.16875 56.7 
L 216.194602 58.44375 
L 216.224964 60.1875 
L 216.260508 61.93125 
L 216.301986 63.675 
L 216.350238 65.41875 
L 216.406194 67.1625 
L 216.470884 68.90625 
L 216.545447 70.65 
L 216.63113 72.39375 
L 216.729302 74.1375 
L 216.84146 75.88125 
L 216.969233 77.625 
L 217.11439 79.36875 
L 217.278852 81.1125 
L 217.464695 82.85625 
L 217.67416 84.6 
L 217.909664 86.34375 
L 218.173808 88.0875 
L 218.469389 89.83125 
L 218.784375 91.496004 
L 218.799363 91.575 
L 219.165813 93.31875 
L 219.573266 95.0625 
L 220.025435 96.80625 
L 220.52631 98.55 
L 221.080185 100.29375 
L 221.4 101.210463 
L 221.691684 102.0375 
L 222.365788 103.78125 
L 223.107881 105.525 
L 223.92378 107.26875 
L 224.015625 107.449932 
L 224.822529 109.0125 
L 225.808844 110.75625 
L 226.63125 112.088377 
L 226.891648 112.5 
L 228.08363 114.24375 
L 229.246875 115.80206 
L 229.38959 115.9875 
L 230.831061 117.73125 
L 231.8625 118.881659 
L 232.414448 119.475 
L 234.160375 121.21875 
L 234.478125 121.515645 
L 236.095327 122.9625 
L 237.09375 123.795961 
L 238.23838 124.70625 
L 239.709375 125.803556 
L 240.623687 126.45 
L 242.325 127.584209 
L 243.294666 128.19375 
L 244.940625 129.174414 
L 246.306059 129.9375 
L 247.55625 130.603116 
L 249.726533 131.68125 
L 250.171875 131.893084 
L 252.7875 133.057035 
L 253.677511 133.425 
L 255.403125 134.112626 
L 258.01875 135.073606 
L 258.296911 135.16875 
L 260.634375 135.944246 
L 263.25 136.738902 
L 263.867435 136.9125 
L 265.865625 137.46077 
L 268.48125 138.118314 
L 270.709486 138.629715 
" style="fill:none;stroke:#0000ff;"/>
    <path clip-path="url(#pb1062c566d)" d="M 318.797841 143.456742 
L 320.79375 143.513799 
L 323.409375 143.579247 
L 326.025 143.636369 
L 328.640625 143.686077 
L 331.25625 143.729204 
L 333.871875 143.766508 
L 336.4875 143.798676 
L 339.103125 143.826328 
L 341.71875 143.850024 
L 344.334375 143.870265 
L 346.95 143.8875 
L 349.565625 143.902227 
L 352.18125 143.914686 
L 354.796875 143.92519 
L 357.4125 143.934019 
L 360.028125 143.941414 
L 362.64375 143.947588 
L 365.259375 143.952725 
L 367.875 143.956986 
L 370.490625 143.960507 
L 373.10625 143.963408 
L 375.721875 143.96579 
L 378.3375 143.967738 
L 380.953125 143.969328 
L 383.56875 143.970619 
L 386.184375 143.971665 
L 388.8 143.97251 
" style="fill:none;stroke:#0000ff;"/>
   </g>
   <g id="LineCollection_9">
    <path clip-path="url(#pb1062c566d)" d="M 255.351637 28.8 
L 255.354438 30.54375 
L 255.357908 32.2875 
L 255.362192 34.03125 
L 255.367462 35.775 
L 255.373926 37.51875 
L 255.374919 37.738163 
" style="fill:none;stroke:#0000ff;"/>
    <path clip-path="url(#pb1062c566d)" d="M 259.585556 85.765067 
L 259.776259 86.34375 
L 260.420789 88.0875 
L 260.634375 88.605904 
L 261.168574 89.83125 
L 262.015968 91.575 
L 262.960093 93.31875 
L 263.25 93.802935 
L 264.052309 95.0625 
L 265.282365 96.80625 
L 265.865625 97.556566 
L 266.691261 98.55 
L 268.287593 100.29375 
L 268.48125 100.487219 
L 270.148943 102.0375 
L 271.096875 102.842948 
L 272.288847 103.78125 
L 273.7125 104.810265 
L 274.784603 105.525 
L 276.328125 106.474102 
L 277.735578 107.26875 
L 278.94375 107.900705 
L 281.269172 109.0125 
L 281.559375 109.141605 
L 284.175 110.205826 
L 285.665151 110.75625 
L 286.790625 111.14509 
L 289.40625 111.965127 
L 291.295597 112.5 
L 292.021875 112.693272 
L 294.6375 113.322688 
L 297.253125 113.887617 
L 299.091144 114.24375 
L 299.86875 114.38614 
L 302.484375 114.815828 
L 305.1 115.198926 
L 307.715625 115.539666 
L 310.33125 115.84198 
L 311.751932 115.9875 
L 312.946875 116.103845 
L 315.5625 116.329006 
L 318.178125 116.527199 
L 320.79375 116.701173 
L 323.409375 116.853453 
L 326.025 116.986359 
L 328.640625 117.102016 
L 331.25625 117.202361 
L 333.871875 117.289157 
L 336.4875 117.364002 
L 339.103125 117.428341 
L 341.71875 117.483475 
L 344.334375 117.530571 
L 346.95 117.570671 
L 349.565625 117.604705 
L 352.18125 117.633496 
L 354.796875 117.657772 
L 357.4125 117.678174 
L 360.028125 117.695264 
L 362.64375 117.709532 
L 365.259375 117.721404 
L 367.875 117.73125 
L 367.875 117.73125 
L 370.490625 117.739036 
L 373.10625 117.74545 
L 375.721875 117.750716 
L 378.3375 117.755025 
L 380.953125 117.758539 
L 383.56875 117.761395 
L 386.184375 117.763708 
L 388.8 117.765575 
" style="fill:none;stroke:#0000ff;"/>
   </g>
   <g id="LineCollection_10">
    <path clip-path="url(#pb1062c566d)" d="M 311.8001 28.8 
L 311.820567 30.54375 
L 311.84592 32.2875 
L 311.87722 34.03125 
L 311.915733 35.775 
L 311.96296 37.51875 
L 311.974647 37.871843 
" style="fill:none;stroke:#0000ff;"/>
    <path clip-path="url(#pb1062c566d)" d="M 333.739337 76.276321 
L 333.871875 76.315439 
L 336.4875 76.981466 
L 339.103125 77.554003 
L 339.481402 77.625 
L 341.71875 77.99631 
L 344.334375 78.367147 
L 346.95 78.682902 
L 349.565625 78.950889 
L 352.18125 79.177594 
L 354.796875 79.36875 
L 357.4125 79.511388 
L 360.028125 79.630868 
L 362.64375 79.730618 
L 365.259375 79.813619 
L 367.875 79.882453 
L 370.490625 79.939347 
L 373.10625 79.986215 
L 375.721875 80.024693 
L 378.3375 80.056178 
L 380.953125 80.081853 
L 383.56875 80.10272 
L 386.184375 80.119622 
L 388.8 80.133266 
" style="fill:none;stroke:#0000ff;"/>
   </g>
   <g id="patch_3">
    <path d="M 54 252 
L 388.8 252 
" style="fill:none;stroke:#000000;stroke-linecap:square;stroke-linejoin:miter;"/>
   </g>
   <g id="patch_4">
    <path d="M 54 28.8 
L 388.8 28.8 
" style="fill:none;stroke:#000000;stroke-linecap:square;stroke-linejoin:miter;"/>
   </g>
   <g id="patch_5">
    <path d="M 54 252 
L 54 28.8 
" style="fill:none;stroke:#000000;stroke-linecap:square;stroke-linejoin:miter;"/>
   </g>
   <g id="patch_6">
    <path d="M 388.8 252 
L 388.8 28.8 
" style="fill:none;stroke:#000000;stroke-linecap:square;stroke-linejoin:miter;"/>
   </g>
   <g id="matplotlib.axis_1">
    <g id="xtick_1">
     <g id="line2d_1">
      <path clip-path="url(#pb1062c566d)" d="M 86.803796 252 
L 86.803796 28.8 
" style="fill:none;stroke:#000000;stroke-dasharray:1.000000,3.000000;stroke-dashoffset:0.0;stroke-width:0.5;"/>
     </g>
     <g id="line2d_2">
      <defs>
       <path d="M 0 0 
L 0 -4 
" id="m7561687e3f" style="stroke:#000000;stroke-width:0.5;"/>
      </defs>
      <g>
       <use style="stroke:#000000;stroke-width:0.5;" x="86.8037959274" xlink:href="#m7561687e3f" y="252.0"/>
      </g>
     </g>
     <g id="line2d_3">
      <defs>
       <path d="M 0 0 
L 0 4 
" id="m6fa020f5eb" style="stroke:#000000;stroke-width:0.5;"/>
      </defs>
      <g>
       <use style="stroke:#000000;stroke-width:0.5;" x="86.8037959274" xlink:href="#m6fa020f5eb" y="28.8"/>
      </g>
     </g>
     <g id="text_1">
      <!-- −3 -->
      <defs>
       <path d="M 10.59375 35.5 
L 73.1875 35.5 
L 73.1875 27.203125 
L 10.59375 27.203125 
z
" id="BitstreamVeraSans-Roman-2212"/>
       <path d="M 40.578125 39.3125 
Q 47.65625 37.796875 51.625 33 
Q 55.609375 28.21875 55.609375 21.1875 
Q 55.609375 10.40625 48.1875 4.484375 
Q 40.765625 -1.421875 27.09375 -1.421875 
Q 22.515625 -1.421875 17.65625 -0.515625 
Q 12.796875 0.390625 7.625 2.203125 
L 7.625 11.71875 
Q 11.71875 9.328125 16.59375 8.109375 
Q 21.484375 6.890625 26.8125 6.890625 
Q 36.078125 6.890625 40.9375 10.546875 
Q 45.796875 14.203125 45.796875 21.1875 
Q 45.796875 27.640625 41.28125 31.265625 
Q 36.765625 34.90625 28.71875 34.90625 
L 20.21875 34.90625 
L 20.21875 43.015625 
L 29.109375 43.015625 
Q 36.375 43.015625 40.234375 45.921875 
Q 44.09375 48.828125 44.09375 54.296875 
Q 44.09375 59.90625 40.109375 62.90625 
Q 36.140625 65.921875 28.71875 65.921875 
Q 24.65625 65.921875 20.015625 65.03125 
Q 15.375 64.15625 9.8125 62.3125 
L 9.8125 71.09375 
Q 15.4375 72.65625 20.34375 73.4375 
Q 25.25 74.21875 29.59375 74.21875 
Q 40.828125 74.21875 47.359375 69.109375 
Q 53.90625 64.015625 53.90625 55.328125 
Q 53.90625 49.265625 50.4375 45.09375 
Q 46.96875 40.921875 40.578125 39.3125 
" id="BitstreamVeraSans-Roman-33"/>
      </defs>
      <g transform="translate(79.4327021774 263.5984375)scale(0.1 -0.1)">
       <use xlink:href="#BitstreamVeraSans-Roman-2212"/>
       <use x="83.7890625" xlink:href="#BitstreamVeraSans-Roman-33"/>
      </g>
     </g>
    </g>
    <g id="xtick_2">
     <g id="line2d_4">
      <path clip-path="url(#pb1062c566d)" d="M 131.669197 252 
L 131.669197 28.8 
" style="fill:none;stroke:#000000;stroke-dasharray:1.000000,3.000000;stroke-dashoffset:0.0;stroke-width:0.5;"/>
     </g>
     <g id="line2d_5">
      <g>
       <use style="stroke:#000000;stroke-width:0.5;" x="131.669197285" xlink:href="#m7561687e3f" y="252.0"/>
      </g>
     </g>
     <g id="line2d_6">
      <g>
       <use style="stroke:#000000;stroke-width:0.5;" x="131.669197285" xlink:href="#m6fa020f5eb" y="28.8"/>
      </g>
     </g>
     <g id="text_2">
      <!-- −2 -->
      <defs>
       <path d="M 19.1875 8.296875 
L 53.609375 8.296875 
L 53.609375 0 
L 7.328125 0 
L 7.328125 8.296875 
Q 12.9375 14.109375 22.625 23.890625 
Q 32.328125 33.6875 34.8125 36.53125 
Q 39.546875 41.84375 41.421875 45.53125 
Q 43.3125 49.21875 43.3125 52.78125 
Q 43.3125 58.59375 39.234375 62.25 
Q 35.15625 65.921875 28.609375 65.921875 
Q 23.96875 65.921875 18.8125 64.3125 
Q 13.671875 62.703125 7.8125 59.421875 
L 7.8125 69.390625 
Q 13.765625 71.78125 18.9375 73 
Q 24.125 74.21875 28.421875 74.21875 
Q 39.75 74.21875 46.484375 68.546875 
Q 53.21875 62.890625 53.21875 53.421875 
Q 53.21875 48.921875 51.53125 44.890625 
Q 49.859375 40.875 45.40625 35.40625 
Q 44.1875 33.984375 37.640625 27.21875 
Q 31.109375 20.453125 19.1875 8.296875 
" id="BitstreamVeraSans-Roman-32"/>
      </defs>
      <g transform="translate(124.298103535 263.5984375)scale(0.1 -0.1)">
       <use xlink:href="#BitstreamVeraSans-Roman-2212"/>
       <use x="83.7890625" xlink:href="#BitstreamVeraSans-Roman-32"/>
      </g>
     </g>
    </g>
    <g id="xtick_3">
     <g id="line2d_7">
      <path clip-path="url(#pb1062c566d)" d="M 176.534599 252 
L 176.534599 28.8 
" style="fill:none;stroke:#000000;stroke-dasharray:1.000000,3.000000;stroke-dashoffset:0.0;stroke-width:0.5;"/>
     </g>
     <g id="line2d_8">
      <g>
       <use style="stroke:#000000;stroke-width:0.5;" x="176.534598642" xlink:href="#m7561687e3f" y="252.0"/>
      </g>
     </g>
     <g id="line2d_9">
      <g>
       <use style="stroke:#000000;stroke-width:0.5;" x="176.534598642" xlink:href="#m6fa020f5eb" y="28.8"/>
      </g>
     </g>
     <g id="text_3">
      <!-- −1 -->
      <defs>
       <path d="M 12.40625 8.296875 
L 28.515625 8.296875 
L 28.515625 63.921875 
L 10.984375 60.40625 
L 10.984375 69.390625 
L 28.421875 72.90625 
L 38.28125 72.90625 
L 38.28125 8.296875 
L 54.390625 8.296875 
L 54.390625 0 
L 12.40625 0 
z
" id="BitstreamVeraSans-Roman-31"/>
      </defs>
      <g transform="translate(169.163504892 263.5984375)scale(0.1 -0.1)">
       <use xlink:href="#BitstreamVeraSans-Roman-2212"/>
       <use x="83.7890625" xlink:href="#BitstreamVeraSans-Roman-31"/>
      </g>
     </g>
    </g>
    <g id="xtick_4">
     <g id="line2d_10">
      <path clip-path="url(#pb1062c566d)" d="M 221.4 252 
L 221.4 28.8 
" style="fill:none;stroke:#000000;stroke-dasharray:1.000000,3.000000;stroke-dashoffset:0.0;stroke-width:0.5;"/>
     </g>
     <g id="line2d_11">
      <g>
       <use style="stroke:#000000;stroke-width:0.5;" x="221.4" xlink:href="#m7561687e3f" y="252.0"/>
      </g>
     </g>
     <g id="line2d_12">
      <g>
       <use style="stroke:#000000;stroke-width:0.5;" x="221.4" xlink:href="#m6fa020f5eb" y="28.8"/>
      </g>
     </g>
     <g id="text_4">
      <!-- 0 -->
      <defs>
       <path d="M 31.78125 66.40625 
Q 24.171875 66.40625 20.328125 58.90625 
Q 16.5 51.421875 16.5 36.375 
Q 16.5 21.390625 20.328125 13.890625 
Q 24.171875 6.390625 31.78125 6.390625 
Q 39.453125 6.390625 43.28125 13.890625 
Q 47.125 21.390625 47.125 36.375 
Q 47.125 51.421875 43.28125 58.90625 
Q 39.453125 66.40625 31.78125 66.40625 
M 31.78125 74.21875 
Q 44.046875 74.21875 50.515625 64.515625 
Q 56.984375 54.828125 56.984375 36.375 
Q 56.984375 17.96875 50.515625 8.265625 
Q 44.046875 -1.421875 31.78125 -1.421875 
Q 19.53125 -1.421875 13.0625 8.265625 
Q 6.59375 17.96875 6.59375 36.375 
Q 6.59375 54.828125 13.0625 64.515625 
Q 19.53125 74.21875 31.78125 74.21875 
" id="BitstreamVeraSans-Roman-30"/>
      </defs>
      <g transform="translate(218.21875 263.5984375)scale(0.1 -0.1)">
       <use xlink:href="#BitstreamVeraSans-Roman-30"/>
      </g>
     </g>
    </g>
    <g id="xtick_5">
     <g id="line2d_13">
      <path clip-path="url(#pb1062c566d)" d="M 266.265401 252 
L 266.265401 28.8 
" style="fill:none;stroke:#000000;stroke-dasharray:1.000000,3.000000;stroke-dashoffset:0.0;stroke-width:0.5;"/>
     </g>
     <g id="line2d_14">
      <g>
       <use style="stroke:#000000;stroke-width:0.5;" x="266.265401358" xlink:href="#m7561687e3f" y="252.0"/>
      </g>
     </g>
     <g id="line2d_15">
      <g>
       <use style="stroke:#000000;stroke-width:0.5;" x="266.265401358" xlink:href="#m6fa020f5eb" y="28.8"/>
      </g>
     </g>
     <g id="text_5">
      <!-- 1 -->
      <g transform="translate(263.084151358 263.5984375)scale(0.1 -0.1)">
       <use xlink:href="#BitstreamVeraSans-Roman-31"/>
      </g>
     </g>
    </g>
    <g id="xtick_6">
     <g id="line2d_16">
      <path clip-path="url(#pb1062c566d)" d="M 311.130803 252 
L 311.130803 28.8 
" style="fill:none;stroke:#000000;stroke-dasharray:1.000000,3.000000;stroke-dashoffset:0.0;stroke-width:0.5;"/>
     </g>
     <g id="line2d_17">
      <g>
       <use style="stroke:#000000;stroke-width:0.5;" x="311.130802715" xlink:href="#m7561687e3f" y="252.0"/>
      </g>
     </g>
     <g id="line2d_18">
      <g>
       <use style="stroke:#000000;stroke-width:0.5;" x="311.130802715" xlink:href="#m6fa020f5eb" y="28.8"/>
      </g>
     </g>
     <g id="text_6">
      <!-- 2 -->
      <g transform="translate(307.949552715 263.5984375)scale(0.1 -0.1)">
       <use xlink:href="#BitstreamVeraSans-Roman-32"/>
      </g>
     </g>
    </g>
    <g id="xtick_7">
     <g id="line2d_19">
      <path clip-path="url(#pb1062c566d)" d="M 355.996204 252 
L 355.996204 28.8 
" style="fill:none;stroke:#000000;stroke-dasharray:1.000000,3.000000;stroke-dashoffset:0.0;stroke-width:0.5;"/>
     </g>
     <g id="line2d_20">
      <g>
       <use style="stroke:#000000;stroke-width:0.5;" x="355.996204073" xlink:href="#m7561687e3f" y="252.0"/>
      </g>
     </g>
     <g id="line2d_21">
      <g>
       <use style="stroke:#000000;stroke-width:0.5;" x="355.996204073" xlink:href="#m6fa020f5eb" y="28.8"/>
      </g>
     </g>
     <g id="text_7">
      <!-- 3 -->
      <g transform="translate(352.814954073 263.5984375)scale(0.1 -0.1)">
       <use xlink:href="#BitstreamVeraSans-Roman-33"/>
      </g>
     </g>
    </g>
    <g id="text_8">
     <!-- X0 -->
     <defs>
      <path d="M 6.296875 72.90625 
L 16.890625 72.90625 
L 35.015625 45.796875 
L 53.21875 72.90625 
L 63.8125 72.90625 
L 40.375 37.890625 
L 65.375 0 
L 54.78125 0 
L 34.28125 31 
L 13.625 0 
L 2.984375 0 
L 29 38.921875 
z
" id="BitstreamVeraSans-Roman-58"/>
     </defs>
     <g transform="translate(214.79375 278.2765625)scale(0.1 -0.1)">
      <use xlink:href="#BitstreamVeraSans-Roman-58"/>
      <use x="68.505859375" xlink:href="#BitstreamVeraSans-Roman-30"/>
     </g>
    </g>
   </g>
   <g id="matplotlib.axis_2">
    <g id="ytick_1">
     <g id="line2d_22">
      <path clip-path="url(#pb1062c566d)" d="M 54 240.100892 
L 388.8 240.100892 
" style="fill:none;stroke:#000000;stroke-dasharray:1.000000,3.000000;stroke-dashoffset:0.0;stroke-width:0.5;"/>
     </g>
     <g id="line2d_23">
      <defs>
       <path d="M 0 0 
L 4 0 
" id="m49cf0b0314" style="stroke:#000000;stroke-width:0.5;"/>
      </defs>
      <g>
       <use style="stroke:#000000;stroke-width:0.5;" x="54.0" xlink:href="#m49cf0b0314" y="240.100891906"/>
      </g>
     </g>
     <g id="line2d_24">
      <defs>
       <path d="M 0 0 
L -4 0 
" id="meabe7ed5d2" style="stroke:#000000;stroke-width:0.5;"/>
      </defs>
      <g>
       <use style="stroke:#000000;stroke-width:0.5;" x="388.8" xlink:href="#meabe7ed5d2" y="240.100891906"/>
      </g>
     </g>
     <g id="text_9">
      <!-- 0 -->
      <g transform="translate(43.6375 242.860266906)scale(0.1 -0.1)">
       <use xlink:href="#BitstreamVeraSans-Roman-30"/>
      </g>
     </g>
    </g>
    <g id="ytick_2">
     <g id="line2d_25">
      <path clip-path="url(#pb1062c566d)" d="M 54 190.250446 
L 388.8 190.250446 
" style="fill:none;stroke:#000000;stroke-dasharray:1.000000,3.000000;stroke-dashoffset:0.0;stroke-width:0.5;"/>
     </g>
     <g id="line2d_26">
      <g>
       <use style="stroke:#000000;stroke-width:0.5;" x="54.0" xlink:href="#m49cf0b0314" y="190.250445953"/>
      </g>
     </g>
     <g id="line2d_27">
      <g>
       <use style="stroke:#000000;stroke-width:0.5;" x="388.8" xlink:href="#meabe7ed5d2" y="190.250445953"/>
      </g>
     </g>
     <g id="text_10">
      <!-- 1 -->
      <g transform="translate(43.6375 193.009820953)scale(0.1 -0.1)">
       <use xlink:href="#BitstreamVeraSans-Roman-31"/>
      </g>
     </g>
    </g>
    <g id="ytick_3">
     <g id="line2d_28">
      <path clip-path="url(#pb1062c566d)" d="M 54 140.4 
L 388.8 140.4 
" style="fill:none;stroke:#000000;stroke-dasharray:1.000000,3.000000;stroke-dashoffset:0.0;stroke-width:0.5;"/>
     </g>
     <g id="line2d_29">
      <g>
       <use style="stroke:#000000;stroke-width:0.5;" x="54.0" xlink:href="#m49cf0b0314" y="140.4"/>
      </g>
     </g>
     <g id="line2d_30">
      <g>
       <use style="stroke:#000000;stroke-width:0.5;" x="388.8" xlink:href="#meabe7ed5d2" y="140.4"/>
      </g>
     </g>
     <g id="text_11">
      <!-- 2 -->
      <g transform="translate(43.6375 143.159375)scale(0.1 -0.1)">
       <use xlink:href="#BitstreamVeraSans-Roman-32"/>
      </g>
     </g>
    </g>
    <g id="ytick_4">
     <g id="line2d_31">
      <path clip-path="url(#pb1062c566d)" d="M 54 90.549554 
L 388.8 90.549554 
" style="fill:none;stroke:#000000;stroke-dasharray:1.000000,3.000000;stroke-dashoffset:0.0;stroke-width:0.5;"/>
     </g>
     <g id="line2d_32">
      <g>
       <use style="stroke:#000000;stroke-width:0.5;" x="54.0" xlink:href="#m49cf0b0314" y="90.5495540472"/>
      </g>
     </g>
     <g id="line2d_33">
      <g>
       <use style="stroke:#000000;stroke-width:0.5;" x="388.8" xlink:href="#meabe7ed5d2" y="90.5495540472"/>
      </g>
     </g>
     <g id="text_12">
      <!-- 3 -->
      <g transform="translate(43.6375 93.3089290472)scale(0.1 -0.1)">
       <use xlink:href="#BitstreamVeraSans-Roman-33"/>
      </g>
     </g>
    </g>
    <g id="ytick_5">
     <g id="line2d_34">
      <path clip-path="url(#pb1062c566d)" d="M 54 40.699108 
L 388.8 40.699108 
" style="fill:none;stroke:#000000;stroke-dasharray:1.000000,3.000000;stroke-dashoffset:0.0;stroke-width:0.5;"/>
     </g>
     <g id="line2d_35">
      <g>
       <use style="stroke:#000000;stroke-width:0.5;" x="54.0" xlink:href="#m49cf0b0314" y="40.6991080943"/>
      </g>
     </g>
     <g id="line2d_36">
      <g>
       <use style="stroke:#000000;stroke-width:0.5;" x="388.8" xlink:href="#meabe7ed5d2" y="40.6991080943"/>
      </g>
     </g>
     <g id="text_13">
      <!-- 4 -->
      <defs>
       <path d="M 37.796875 64.3125 
L 12.890625 25.390625 
L 37.796875 25.390625 
z
M 35.203125 72.90625 
L 47.609375 72.90625 
L 47.609375 25.390625 
L 58.015625 25.390625 
L 58.015625 17.1875 
L 47.609375 17.1875 
L 47.609375 0 
L 37.796875 0 
L 37.796875 17.1875 
L 4.890625 17.1875 
L 4.890625 26.703125 
z
" id="BitstreamVeraSans-Roman-34"/>
      </defs>
      <g transform="translate(43.6375 43.4584830943)scale(0.1 -0.1)">
       <use xlink:href="#BitstreamVeraSans-Roman-34"/>
      </g>
     </g>
    </g>
    <g id="text_14">
     <!-- X1 -->
     <g transform="translate(36.5578125 147.00625)rotate(-90.0)scale(0.1 -0.1)">
      <use xlink:href="#BitstreamVeraSans-Roman-58"/>
      <use x="68.505859375" xlink:href="#BitstreamVeraSans-Roman-31"/>
     </g>
    </g>
   </g>
   <g id="text_15">
    <g clip-path="url(#pb1062c566d)">
     <!-- 1.53503e-05 -->
     <defs>
      <path d="M 4.890625 31.390625 
L 31.203125 31.390625 
L 31.203125 23.390625 
L 4.890625 23.390625 
z
" id="BitstreamVeraSans-Roman-2d"/>
      <path d="M 10.796875 72.90625 
L 49.515625 72.90625 
L 49.515625 64.59375 
L 19.828125 64.59375 
L 19.828125 46.734375 
Q 21.96875 47.46875 24.109375 47.828125 
Q 26.265625 48.1875 28.421875 48.1875 
Q 40.625 48.1875 47.75 41.5 
Q 54.890625 34.8125 54.890625 23.390625 
Q 54.890625 11.625 47.5625 5.09375 
Q 40.234375 -1.421875 26.90625 -1.421875 
Q 22.3125 -1.421875 17.546875 -0.640625 
Q 12.796875 0.140625 7.71875 1.703125 
L 7.71875 11.625 
Q 12.109375 9.234375 16.796875 8.0625 
Q 21.484375 6.890625 26.703125 6.890625 
Q 35.15625 6.890625 40.078125 11.328125 
Q 45.015625 15.765625 45.015625 23.390625 
Q 45.015625 31 40.078125 35.4375 
Q 35.15625 39.890625 26.703125 39.890625 
Q 22.75 39.890625 18.8125 39.015625 
Q 14.890625 38.140625 10.796875 36.28125 
z
" id="BitstreamVeraSans-Roman-35"/>
      <path d="M 10.6875 12.40625 
L 21 12.40625 
L 21 0 
L 10.6875 0 
z
" id="BitstreamVeraSans-Roman-2e"/>
      <path d="M 56.203125 29.59375 
L 56.203125 25.203125 
L 14.890625 25.203125 
Q 15.484375 15.921875 20.484375 11.0625 
Q 25.484375 6.203125 34.421875 6.203125 
Q 39.59375 6.203125 44.453125 7.46875 
Q 49.3125 8.734375 54.109375 11.28125 
L 54.109375 2.78125 
Q 49.265625 0.734375 44.1875 -0.34375 
Q 39.109375 -1.421875 33.890625 -1.421875 
Q 20.796875 -1.421875 13.15625 6.1875 
Q 5.515625 13.8125 5.515625 26.8125 
Q 5.515625 40.234375 12.765625 48.109375 
Q 20.015625 56 32.328125 56 
Q 43.359375 56 49.78125 48.890625 
Q 56.203125 41.796875 56.203125 29.59375 
M 47.21875 32.234375 
Q 47.125 39.59375 43.09375 43.984375 
Q 39.0625 48.390625 32.421875 48.390625 
Q 24.90625 48.390625 20.390625 44.140625 
Q 15.875 39.890625 15.1875 32.171875 
z
" id="BitstreamVeraSans-Roman-65"/>
     </defs>
     <g style="fill:#0000ff;" transform="translate(57.3500900172 183.247246974)rotate(-315.1610959632988)scale(0.08 -0.08)">
      <use xlink:href="#BitstreamVeraSans-Roman-31"/>
      <use x="63.623046875" xlink:href="#BitstreamVeraSans-Roman-2e"/>
      <use x="95.41015625" xlink:href="#BitstreamVeraSans-Roman-35"/>
      <use x="159.033203125" xlink:href="#BitstreamVeraSans-Roman-33"/>
      <use x="222.65625" xlink:href="#BitstreamVeraSans-Roman-35"/>
      <use x="286.279296875" xlink:href="#BitstreamVeraSans-Roman-30"/>
      <use x="349.90234375" xlink:href="#BitstreamVeraSans-Roman-33"/>
      <use x="413.525390625" xlink:href="#BitstreamVeraSans-Roman-65"/>
      <use x="475.048828125" xlink:href="#BitstreamVeraSans-Roman-2d"/>
      <use x="511.1328125" xlink:href="#BitstreamVeraSans-Roman-30"/>
      <use x="574.755859375" xlink:href="#BitstreamVeraSans-Roman-35"/>
     </g>
    </g>
   </g>
   <g id="text_16">
    <g clip-path="url(#pb1062c566d)">
     <!-- 0.000228851 -->
     <defs>
      <path d="M 31.78125 34.625 
Q 24.75 34.625 20.71875 30.859375 
Q 16.703125 27.09375 16.703125 20.515625 
Q 16.703125 13.921875 20.71875 10.15625 
Q 24.75 6.390625 31.78125 6.390625 
Q 38.8125 6.390625 42.859375 10.171875 
Q 46.921875 13.96875 46.921875 20.515625 
Q 46.921875 27.09375 42.890625 30.859375 
Q 38.875 34.625 31.78125 34.625 
M 21.921875 38.8125 
Q 15.578125 40.375 12.03125 44.71875 
Q 8.5 49.078125 8.5 55.328125 
Q 8.5 64.0625 14.71875 69.140625 
Q 20.953125 74.21875 31.78125 74.21875 
Q 42.671875 74.21875 48.875 69.140625 
Q 55.078125 64.0625 55.078125 55.328125 
Q 55.078125 49.078125 51.53125 44.71875 
Q 48 40.375 41.703125 38.8125 
Q 48.828125 37.15625 52.796875 32.3125 
Q 56.78125 27.484375 56.78125 20.515625 
Q 56.78125 9.90625 50.3125 4.234375 
Q 43.84375 -1.421875 31.78125 -1.421875 
Q 19.734375 -1.421875 13.25 4.234375 
Q 6.78125 9.90625 6.78125 20.515625 
Q 6.78125 27.484375 10.78125 32.3125 
Q 14.796875 37.15625 21.921875 38.8125 
M 18.3125 54.390625 
Q 18.3125 48.734375 21.84375 45.5625 
Q 25.390625 42.390625 31.78125 42.390625 
Q 38.140625 42.390625 41.71875 45.5625 
Q 45.3125 48.734375 45.3125 54.390625 
Q 45.3125 60.0625 41.71875 63.234375 
Q 38.140625 66.40625 31.78125 66.40625 
Q 25.390625 66.40625 21.84375 63.234375 
Q 18.3125 60.0625 18.3125 54.390625 
" id="BitstreamVeraSans-Roman-38"/>
     </defs>
     <g style="fill:#0000ff;" transform="translate(61.557953797 47.4682290897)rotate(-271.19768599539356)scale(0.08 -0.08)">
      <use xlink:href="#BitstreamVeraSans-Roman-30"/>
      <use x="63.623046875" xlink:href="#BitstreamVeraSans-Roman-2e"/>
      <use x="95.41015625" xlink:href="#BitstreamVeraSans-Roman-30"/>
      <use x="159.033203125" xlink:href="#BitstreamVeraSans-Roman-30"/>
      <use x="222.65625" xlink:href="#BitstreamVeraSans-Roman-30"/>
      <use x="286.279296875" xlink:href="#BitstreamVeraSans-Roman-32"/>
      <use x="349.90234375" xlink:href="#BitstreamVeraSans-Roman-32"/>
      <use x="413.525390625" xlink:href="#BitstreamVeraSans-Roman-38"/>
      <use x="477.1484375" xlink:href="#BitstreamVeraSans-Roman-38"/>
      <use x="540.771484375" xlink:href="#BitstreamVeraSans-Roman-35"/>
      <use x="604.39453125" xlink:href="#BitstreamVeraSans-Roman-31"/>
     </g>
    </g>
   </g>
   <g id="text_17">
    <g clip-path="url(#pb1062c566d)">
     <!-- 0.00114285 -->
     <g style="fill:#0000ff;" transform="translate(202.403886682 224.530955971)rotate(-351.12490112635345)scale(0.08 -0.08)">
      <use xlink:href="#BitstreamVeraSans-Roman-30"/>
      <use x="63.623046875" xlink:href="#BitstreamVeraSans-Roman-2e"/>
      <use x="95.41015625" xlink:href="#BitstreamVeraSans-Roman-30"/>
      <use x="159.033203125" xlink:href="#BitstreamVeraSans-Roman-30"/>
      <use x="222.65625" xlink:href="#BitstreamVeraSans-Roman-31"/>
      <use x="286.279296875" xlink:href="#BitstreamVeraSans-Roman-31"/>
      <use x="349.90234375" xlink:href="#BitstreamVeraSans-Roman-34"/>
      <use x="413.525390625" xlink:href="#BitstreamVeraSans-Roman-32"/>
      <use x="477.1484375" xlink:href="#BitstreamVeraSans-Roman-38"/>
      <use x="540.771484375" xlink:href="#BitstreamVeraSans-Roman-35"/>
     </g>
    </g>
   </g>
   <g id="text_18">
    <g clip-path="url(#pb1062c566d)">
     <!-- 0.00513378 -->
     <defs>
      <path d="M 8.203125 72.90625 
L 55.078125 72.90625 
L 55.078125 68.703125 
L 28.609375 0 
L 18.3125 0 
L 43.21875 64.59375 
L 8.203125 64.59375 
z
" id="BitstreamVeraSans-Roman-37"/>
     </defs>
     <g style="fill:#0000ff;" transform="translate(151.219860306 185.941651484)rotate(-334.25092560712574)scale(0.08 -0.08)">
      <use xlink:href="#BitstreamVeraSans-Roman-30"/>
      <use x="63.623046875" xlink:href="#BitstreamVeraSans-Roman-2e"/>
      <use x="95.41015625" xlink:href="#BitstreamVeraSans-Roman-30"/>
      <use x="159.033203125" xlink:href="#BitstreamVeraSans-Roman-30"/>
      <use x="222.65625" xlink:href="#BitstreamVeraSans-Roman-35"/>
      <use x="286.279296875" xlink:href="#BitstreamVeraSans-Roman-31"/>
      <use x="349.90234375" xlink:href="#BitstreamVeraSans-Roman-33"/>
      <use x="413.525390625" xlink:href="#BitstreamVeraSans-Roman-33"/>
      <use x="477.1484375" xlink:href="#BitstreamVeraSans-Roman-37"/>
      <use x="540.771484375" xlink:href="#BitstreamVeraSans-Roman-38"/>
     </g>
    </g>
   </g>
   <g id="text_19">
    <g clip-path="url(#pb1062c566d)">
     <!-- 0.0205256 -->
     <defs>
      <path d="M 33.015625 40.375 
Q 26.375 40.375 22.484375 35.828125 
Q 18.609375 31.296875 18.609375 23.390625 
Q 18.609375 15.53125 22.484375 10.953125 
Q 26.375 6.390625 33.015625 6.390625 
Q 39.65625 6.390625 43.53125 10.953125 
Q 47.40625 15.53125 47.40625 23.390625 
Q 47.40625 31.296875 43.53125 35.828125 
Q 39.65625 40.375 33.015625 40.375 
M 52.59375 71.296875 
L 52.59375 62.3125 
Q 48.875 64.0625 45.09375 64.984375 
Q 41.3125 65.921875 37.59375 65.921875 
Q 27.828125 65.921875 22.671875 59.328125 
Q 17.53125 52.734375 16.796875 39.40625 
Q 19.671875 43.65625 24.015625 45.921875 
Q 28.375 48.1875 33.59375 48.1875 
Q 44.578125 48.1875 50.953125 41.515625 
Q 57.328125 34.859375 57.328125 23.390625 
Q 57.328125 12.15625 50.6875 5.359375 
Q 44.046875 -1.421875 33.015625 -1.421875 
Q 20.359375 -1.421875 13.671875 8.265625 
Q 6.984375 17.96875 6.984375 36.375 
Q 6.984375 53.65625 15.1875 63.9375 
Q 23.390625 74.21875 37.203125 74.21875 
Q 40.921875 74.21875 44.703125 73.484375 
Q 48.484375 72.75 52.59375 71.296875 
" id="BitstreamVeraSans-Roman-36"/>
     </defs>
     <g style="fill:#0000ff;" transform="translate(127.307884279 43.8246354666)rotate(-270.89534116535697)scale(0.08 -0.08)">
      <use xlink:href="#BitstreamVeraSans-Roman-30"/>
      <use x="63.623046875" xlink:href="#BitstreamVeraSans-Roman-2e"/>
      <use x="95.41015625" xlink:href="#BitstreamVeraSans-Roman-30"/>
      <use x="159.033203125" xlink:href="#BitstreamVeraSans-Roman-32"/>
      <use x="222.65625" xlink:href="#BitstreamVeraSans-Roman-30"/>
      <use x="286.279296875" xlink:href="#BitstreamVeraSans-Roman-35"/>
      <use x="349.90234375" xlink:href="#BitstreamVeraSans-Roman-32"/>
      <use x="413.525390625" xlink:href="#BitstreamVeraSans-Roman-35"/>
      <use x="477.1484375" xlink:href="#BitstreamVeraSans-Roman-36"/>
     </g>
    </g>
   </g>
   <g id="text_20">
    <g clip-path="url(#pb1062c566d)">
     <!-- 0.0702405 -->
     <g style="fill:#0000ff;" transform="translate(293.894964821 186.030265026)rotate(-358.9668950277203)scale(0.08 -0.08)">
      <use xlink:href="#BitstreamVeraSans-Roman-30"/>
      <use x="63.623046875" xlink:href="#BitstreamVeraSans-Roman-2e"/>
      <use x="95.41015625" xlink:href="#BitstreamVeraSans-Roman-30"/>
      <use x="159.033203125" xlink:href="#BitstreamVeraSans-Roman-37"/>
      <use x="222.65625" xlink:href="#BitstreamVeraSans-Roman-30"/>
      <use x="286.279296875" xlink:href="#BitstreamVeraSans-Roman-32"/>
      <use x="349.90234375" xlink:href="#BitstreamVeraSans-Roman-34"/>
      <use x="413.525390625" xlink:href="#BitstreamVeraSans-Roman-30"/>
      <use x="477.1484375" xlink:href="#BitstreamVeraSans-Roman-35"/>
     </g>
    </g>
   </g>
   <g id="text_21">
    <g clip-path="url(#pb1062c566d)">
     <!-- 0.199495 -->
     <defs>
      <path d="M 10.984375 1.515625 
L 10.984375 10.5 
Q 14.703125 8.734375 18.5 7.8125 
Q 22.3125 6.890625 25.984375 6.890625 
Q 35.75 6.890625 40.890625 13.453125 
Q 46.046875 20.015625 46.78125 33.40625 
Q 43.953125 29.203125 39.59375 26.953125 
Q 35.25 24.703125 29.984375 24.703125 
Q 19.046875 24.703125 12.671875 31.3125 
Q 6.296875 37.9375 6.296875 49.421875 
Q 6.296875 60.640625 12.9375 67.421875 
Q 19.578125 74.21875 30.609375 74.21875 
Q 43.265625 74.21875 49.921875 64.515625 
Q 56.59375 54.828125 56.59375 36.375 
Q 56.59375 19.140625 48.40625 8.859375 
Q 40.234375 -1.421875 26.421875 -1.421875 
Q 22.703125 -1.421875 18.890625 -0.6875 
Q 15.09375 0.046875 10.984375 1.515625 
M 30.609375 32.421875 
Q 37.25 32.421875 41.125 36.953125 
Q 45.015625 41.5 45.015625 49.421875 
Q 45.015625 57.28125 41.125 61.84375 
Q 37.25 66.40625 30.609375 66.40625 
Q 23.96875 66.40625 20.09375 61.84375 
Q 16.21875 57.28125 16.21875 49.421875 
Q 16.21875 41.5 20.09375 36.953125 
Q 23.96875 32.421875 30.609375 32.421875 
" id="BitstreamVeraSans-Roman-39"/>
     </defs>
     <g style="fill:#0000ff;" transform="translate(181.097384474 42.8925991429)rotate(-271.13783221216516)scale(0.08 -0.08)">
      <use xlink:href="#BitstreamVeraSans-Roman-30"/>
      <use x="63.623046875" xlink:href="#BitstreamVeraSans-Roman-2e"/>
      <use x="95.41015625" xlink:href="#BitstreamVeraSans-Roman-31"/>
      <use x="159.033203125" xlink:href="#BitstreamVeraSans-Roman-39"/>
      <use x="222.65625" xlink:href="#BitstreamVeraSans-Roman-39"/>
      <use x="286.279296875" xlink:href="#BitstreamVeraSans-Roman-34"/>
      <use x="349.90234375" xlink:href="#BitstreamVeraSans-Roman-39"/>
      <use x="413.525390625" xlink:href="#BitstreamVeraSans-Roman-35"/>
     </g>
    </g>
   </g>
   <g id="text_22">
    <g clip-path="url(#pb1062c566d)">
     <!-- 0.452424 -->
     <g style="fill:#0000ff;" transform="translate(275.427626273 142.506245299)rotate(-354.5133802006492)scale(0.08 -0.08)">
      <use xlink:href="#BitstreamVeraSans-Roman-30"/>
      <use x="63.623046875" xlink:href="#BitstreamVeraSans-Roman-2e"/>
      <use x="95.41015625" xlink:href="#BitstreamVeraSans-Roman-34"/>
      <use x="159.033203125" xlink:href="#BitstreamVeraSans-Roman-35"/>
      <use x="222.65625" xlink:href="#BitstreamVeraSans-Roman-32"/>
      <use x="286.279296875" xlink:href="#BitstreamVeraSans-Roman-34"/>
      <use x="349.90234375" xlink:href="#BitstreamVeraSans-Roman-32"/>
      <use x="413.525390625" xlink:href="#BitstreamVeraSans-Roman-34"/>
     </g>
    </g>
   </g>
   <g id="text_23">
    <g clip-path="url(#pb1062c566d)">
     <!-- 0.775317 -->
     <g style="fill:#0000ff;" transform="translate(252.261849757 43.0572101758)rotate(-274.1885376876899)scale(0.08 -0.08)">
      <use xlink:href="#BitstreamVeraSans-Roman-30"/>
      <use x="63.623046875" xlink:href="#BitstreamVeraSans-Roman-2e"/>
      <use x="95.41015625" xlink:href="#BitstreamVeraSans-Roman-37"/>
      <use x="159.033203125" xlink:href="#BitstreamVeraSans-Roman-37"/>
      <use x="222.65625" xlink:href="#BitstreamVeraSans-Roman-35"/>
      <use x="286.279296875" xlink:href="#BitstreamVeraSans-Roman-33"/>
      <use x="349.90234375" xlink:href="#BitstreamVeraSans-Roman-31"/>
      <use x="413.525390625" xlink:href="#BitstreamVeraSans-Roman-37"/>
     </g>
    </g>
   </g>
   <g id="text_24">
    <g clip-path="url(#pb1062c566d)">
     <!-- 0.977906 -->
     <g style="fill:#0000ff;" transform="translate(304.673286609 45.8492510356)rotate(-297.92632884344215)scale(0.08 -0.08)">
      <use xlink:href="#BitstreamVeraSans-Roman-30"/>
      <use x="63.623046875" xlink:href="#BitstreamVeraSans-Roman-2e"/>
      <use x="95.41015625" xlink:href="#BitstreamVeraSans-Roman-39"/>
      <use x="159.033203125" xlink:href="#BitstreamVeraSans-Roman-37"/>
      <use x="222.65625" xlink:href="#BitstreamVeraSans-Roman-37"/>
      <use x="286.279296875" xlink:href="#BitstreamVeraSans-Roman-39"/>
      <use x="349.90234375" xlink:href="#BitstreamVeraSans-Roman-30"/>
      <use x="413.525390625" xlink:href="#BitstreamVeraSans-Roman-36"/>
     </g>
    </g>
   </g>
   <g id="text_25">
    <!-- [X0,X1] iso-CDF -->
    <defs>
     <path d="M 30.421875 75.984375 
L 30.421875 -13.1875 
L 9.71875 -13.1875 
L 9.71875 -6.203125 
L 21.390625 -6.203125 
L 21.390625 69 
L 9.71875 69 
L 9.71875 75.984375 
z
" id="BitstreamVeraSans-Roman-5d"/>
     <path d="M 11.71875 12.40625 
L 22.015625 12.40625 
L 22.015625 4 
L 14.015625 -11.625 
L 7.71875 -11.625 
L 11.71875 4 
z
" id="BitstreamVeraSans-Roman-2c"/>
     <path d="M 64.40625 67.28125 
L 64.40625 56.890625 
Q 59.421875 61.53125 53.78125 63.8125 
Q 48.140625 66.109375 41.796875 66.109375 
Q 29.296875 66.109375 22.65625 58.46875 
Q 16.015625 50.828125 16.015625 36.375 
Q 16.015625 21.96875 22.65625 14.328125 
Q 29.296875 6.6875 41.796875 6.6875 
Q 48.140625 6.6875 53.78125 8.984375 
Q 59.421875 11.28125 64.40625 15.921875 
L 64.40625 5.609375 
Q 59.234375 2.09375 53.4375 0.328125 
Q 47.65625 -1.421875 41.21875 -1.421875 
Q 24.65625 -1.421875 15.125 8.703125 
Q 5.609375 18.84375 5.609375 36.375 
Q 5.609375 53.953125 15.125 64.078125 
Q 24.65625 74.21875 41.21875 74.21875 
Q 47.75 74.21875 53.53125 72.484375 
Q 59.328125 70.75 64.40625 67.28125 
" id="BitstreamVeraSans-Roman-43"/>
     <path id="BitstreamVeraSans-Roman-20"/>
     <path d="M 19.671875 64.796875 
L 19.671875 8.109375 
L 31.59375 8.109375 
Q 46.6875 8.109375 53.6875 14.9375 
Q 60.6875 21.78125 60.6875 36.53125 
Q 60.6875 51.171875 53.6875 57.984375 
Q 46.6875 64.796875 31.59375 64.796875 
z
M 9.8125 72.90625 
L 30.078125 72.90625 
Q 51.265625 72.90625 61.171875 64.09375 
Q 71.09375 55.28125 71.09375 36.53125 
Q 71.09375 17.671875 61.125 8.828125 
Q 51.171875 0 30.078125 0 
L 9.8125 0 
z
" id="BitstreamVeraSans-Roman-44"/>
     <path d="M 9.421875 54.6875 
L 18.40625 54.6875 
L 18.40625 0 
L 9.421875 0 
z
M 9.421875 75.984375 
L 18.40625 75.984375 
L 18.40625 64.59375 
L 9.421875 64.59375 
z
" id="BitstreamVeraSans-Roman-69"/>
     <path d="M 9.8125 72.90625 
L 51.703125 72.90625 
L 51.703125 64.59375 
L 19.671875 64.59375 
L 19.671875 43.109375 
L 48.578125 43.109375 
L 48.578125 34.8125 
L 19.671875 34.8125 
L 19.671875 0 
L 9.8125 0 
z
" id="BitstreamVeraSans-Roman-46"/>
     <path d="M 44.28125 53.078125 
L 44.28125 44.578125 
Q 40.484375 46.53125 36.375 47.5 
Q 32.28125 48.484375 27.875 48.484375 
Q 21.1875 48.484375 17.84375 46.4375 
Q 14.5 44.390625 14.5 40.28125 
Q 14.5 37.15625 16.890625 35.375 
Q 19.28125 33.59375 26.515625 31.984375 
L 29.59375 31.296875 
Q 39.15625 29.25 43.1875 25.515625 
Q 47.21875 21.78125 47.21875 15.09375 
Q 47.21875 7.46875 41.1875 3.015625 
Q 35.15625 -1.421875 24.609375 -1.421875 
Q 20.21875 -1.421875 15.453125 -0.5625 
Q 10.6875 0.296875 5.421875 2 
L 5.421875 11.28125 
Q 10.40625 8.6875 15.234375 7.390625 
Q 20.0625 6.109375 24.8125 6.109375 
Q 31.15625 6.109375 34.5625 8.28125 
Q 37.984375 10.453125 37.984375 14.40625 
Q 37.984375 18.0625 35.515625 20.015625 
Q 33.0625 21.96875 24.703125 23.78125 
L 21.578125 24.515625 
Q 13.234375 26.265625 9.515625 29.90625 
Q 5.8125 33.546875 5.8125 39.890625 
Q 5.8125 47.609375 11.28125 51.796875 
Q 16.75 56 26.8125 56 
Q 31.78125 56 36.171875 55.265625 
Q 40.578125 54.546875 44.28125 53.078125 
" id="BitstreamVeraSans-Roman-73"/>
     <path d="M 8.59375 75.984375 
L 29.296875 75.984375 
L 29.296875 69 
L 17.578125 69 
L 17.578125 -6.203125 
L 29.296875 -6.203125 
L 29.296875 -13.1875 
L 8.59375 -13.1875 
z
" id="BitstreamVeraSans-Roman-5b"/>
     <path d="M 30.609375 48.390625 
Q 23.390625 48.390625 19.1875 42.75 
Q 14.984375 37.109375 14.984375 27.296875 
Q 14.984375 17.484375 19.15625 11.84375 
Q 23.34375 6.203125 30.609375 6.203125 
Q 37.796875 6.203125 41.984375 11.859375 
Q 46.1875 17.53125 46.1875 27.296875 
Q 46.1875 37.015625 41.984375 42.703125 
Q 37.796875 48.390625 30.609375 48.390625 
M 30.609375 56 
Q 42.328125 56 49.015625 48.375 
Q 55.71875 40.765625 55.71875 27.296875 
Q 55.71875 13.875 49.015625 6.21875 
Q 42.328125 -1.421875 30.609375 -1.421875 
Q 18.84375 -1.421875 12.171875 6.21875 
Q 5.515625 13.875 5.515625 27.296875 
Q 5.515625 40.765625 12.171875 48.375 
Q 18.84375 56 30.609375 56 
" id="BitstreamVeraSans-Roman-6f"/>
    </defs>
    <g transform="translate(174.159375 23.8)scale(0.12 -0.12)">
     <use xlink:href="#BitstreamVeraSans-Roman-5b"/>
     <use x="39.013671875" xlink:href="#BitstreamVeraSans-Roman-58"/>
     <use x="107.51953125" xlink:href="#BitstreamVeraSans-Roman-30"/>
     <use x="171.142578125" xlink:href="#BitstreamVeraSans-Roman-2c"/>
     <use x="202.9296875" xlink:href="#BitstreamVeraSans-Roman-58"/>
     <use x="271.435546875" xlink:href="#BitstreamVeraSans-Roman-31"/>
     <use x="335.05859375" xlink:href="#BitstreamVeraSans-Roman-5d"/>
     <use x="374.072265625" xlink:href="#BitstreamVeraSans-Roman-20"/>
     <use x="405.859375" xlink:href="#BitstreamVeraSans-Roman-69"/>
     <use x="433.642578125" xlink:href="#BitstreamVeraSans-Roman-73"/>
     <use x="485.7421875" xlink:href="#BitstreamVeraSans-Roman-6f"/>
     <use x="546.939453125" xlink:href="#BitstreamVeraSans-Roman-2d"/>
     <use x="583.0234375" xlink:href="#BitstreamVeraSans-Roman-43"/>
     <use x="652.84765625" xlink:href="#BitstreamVeraSans-Roman-44"/>
     <use x="729.849609375" xlink:href="#BitstreamVeraSans-Roman-46"/>
    </g>
   </g>
   <g id="legend_1">
    <g id="patch_7">
     <path d="M 273.065625 53.478125 
L 383.8 53.478125 
Q 385.8 53.478125 385.8 51.478125 
L 385.8 37.8 
Q 385.8 35.8 383.8 35.8 
L 273.065625 35.8 
Q 271.065625 35.8 271.065625 37.8 
L 271.065625 51.478125 
Q 271.065625 53.478125 273.065625 53.478125 
z
" style="fill:#4c4c4c;opacity:0.5;stroke:#4c4c4c;stroke-linejoin:miter;"/>
    </g>
    <g id="patch_8">
     <path d="M 271.065625 51.478125 
L 381.8 51.478125 
Q 383.8 51.478125 383.8 49.478125 
L 383.8 35.8 
Q 383.8 33.8 381.8 33.8 
L 271.065625 33.8 
Q 269.065625 33.8 269.065625 35.8 
L 269.065625 49.478125 
Q 269.065625 51.478125 271.065625 51.478125 
z
" style="fill:#ffffff;stroke:#000000;stroke-linejoin:miter;"/>
    </g>
    <g id="line2d_37">
     <path d="M 276.065625 41.898438 
L 283.065625 41.898438 
L 290.065625 41.898438 
" style="fill:none;stroke:#0000ff;stroke-linecap:square;"/>
    </g>
    <g id="text_26">
     <!-- [X0,X1] iso-CDF -->
     <g transform="translate(301.065625 45.3984375)scale(0.1 -0.1)">
      <use xlink:href="#BitstreamVeraSans-Roman-5b"/>
      <use x="39.013671875" xlink:href="#BitstreamVeraSans-Roman-58"/>
      <use x="107.51953125" xlink:href="#BitstreamVeraSans-Roman-30"/>
      <use x="171.142578125" xlink:href="#BitstreamVeraSans-Roman-2c"/>
      <use x="202.9296875" xlink:href="#BitstreamVeraSans-Roman-58"/>
      <use x="271.435546875" xlink:href="#BitstreamVeraSans-Roman-31"/>
      <use x="335.05859375" xlink:href="#BitstreamVeraSans-Roman-5d"/>
      <use x="374.072265625" xlink:href="#BitstreamVeraSans-Roman-20"/>
      <use x="405.859375" xlink:href="#BitstreamVeraSans-Roman-69"/>
      <use x="433.642578125" xlink:href="#BitstreamVeraSans-Roman-73"/>
      <use x="485.7421875" xlink:href="#BitstreamVeraSans-Roman-6f"/>
      <use x="546.939453125" xlink:href="#BitstreamVeraSans-Roman-2d"/>
      <use x="583.0234375" xlink:href="#BitstreamVeraSans-Roman-43"/>
      <use x="652.84765625" xlink:href="#BitstreamVeraSans-Roman-44"/>
      <use x="729.849609375" xlink:href="#BitstreamVeraSans-Roman-46"/>
     </g>
    </g>
   </g>
  </g>
 </g>
 <defs>
  <clipPath id="pb1062c566d">
   <rect height="223.2" width="334.8" x="54.0" y="28.8"/>
  </clipPath>
 </defs>
</svg>
