<?xml version="1.0" encoding="utf-8" standalone="no"?>
<!DOCTYPE svg PUBLIC "-//W3C//DTD SVG 1.1//EN"
  "http://www.w3.org/Graphics/SVG/1.1/DTD/svg11.dtd">
<svg xmlns:xlink="http://www.w3.org/1999/xlink" width="460.8pt" height="345.6pt" viewBox="0 0 460.8 345.6" xmlns="http://www.w3.org/2000/svg" version="1.1">
 <metadata>
  <rdf:RDF xmlns:dc="http://purl.org/dc/elements/1.1/" xmlns:cc="http://creativecommons.org/ns#" xmlns:rdf="http://www.w3.org/1999/02/22-rdf-syntax-ns#">
   <cc:Work>
    <dc:type rdf:resource="http://purl.org/dc/dcmitype/StillImage"/>
    <dc:date>2025-11-24T14:15:41.512759</dc:date>
    <dc:format>image/svg+xml</dc:format>
    <dc:creator>
     <cc:Agent>
      <dc:title>Matplotlib v3.10.8, https://matplotlib.org/</dc:title>
     </cc:Agent>
    </dc:creator>
   </cc:Work>
  </rdf:RDF>
 </metadata>
 <defs>
  <style type="text/css">*{stroke-linejoin: round; stroke-linecap: butt}</style>
 </defs>
 <g id="figure_1">
  <g id="patch_1">
   <path d="M 0 345.6 
L 460.8 345.6 
L 460.8 0 
L 0 0 
z
" style="fill: #ffffff"/>
  </g>
  <g id="axes_1">
   <g id="patch_2">
    <path d="M 57.6 307.584 
L 414.72 307.584 
L 414.72 41.472 
L 57.6 41.472 
z
" style="fill: #ffffff"/>
   </g>
   <g id="matplotlib.axis_1">
    <g id="xtick_1">
     <g id="line2d_1">
      <path d="M 73.618249 307.584 
L 73.618249 41.472 
" clip-path="url(#pd53633728e)" style="fill: none; stroke: #b0b0b0; stroke-width: 0.8; stroke-linecap: square"/>
     </g>
     <g id="line2d_2">
      <defs>
       <path id="mae03900472" d="M 0 0 
L 0 3.5 
" style="stroke: #000000; stroke-width: 0.8"/>
      </defs>
      <g>
       <use xlink:href="#mae03900472" x="73.618249" y="307.584" style="stroke: #000000; stroke-width: 0.8"/>
      </g>
     </g>
     <g id="text_1">
      <!-- 0 -->
      <g transform="translate(70.436999 322.182437) scale(0.1 -0.1)">
       <defs>
        <path id="DejaVuSans-30" d="M 2034 4250 
Q 1547 4250 1301 3770 
Q 1056 3291 1056 2328 
Q 1056 1369 1301 889 
Q 1547 409 2034 409 
Q 2525 409 2770 889 
Q 3016 1369 3016 2328 
Q 3016 3291 2770 3770 
Q 2525 4250 2034 4250 
z
M 2034 4750 
Q 2819 4750 3233 4129 
Q 3647 3509 3647 2328 
Q 3647 1150 3233 529 
Q 2819 -91 2034 -91 
Q 1250 -91 836 529 
Q 422 1150 422 2328 
Q 422 3509 836 4129 
Q 1250 4750 2034 4750 
z
" transform="scale(0.015625)"/>
       </defs>
       <use xlink:href="#DejaVuSans-30"/>
      </g>
     </g>
    </g>
    <g id="xtick_2">
     <g id="line2d_3">
      <path d="M 138.611552 307.584 
L 138.611552 41.472 
" clip-path="url(#pd53633728e)" style="fill: none; stroke: #b0b0b0; stroke-width: 0.8; stroke-linecap: square"/>
     </g>
     <g id="line2d_4">
      <g>
       <use xlink:href="#mae03900472" x="138.611552" y="307.584" style="stroke: #000000; stroke-width: 0.8"/>
      </g>
     </g>
     <g id="text_2">
      <!-- 10000 -->
      <g transform="translate(122.705302 322.182437) scale(0.1 -0.1)">
       <defs>
        <path id="DejaVuSans-31" d="M 794 531 
L 1825 531 
L 1825 4091 
L 703 3866 
L 703 4441 
L 1819 4666 
L 2450 4666 
L 2450 531 
L 3481 531 
L 3481 0 
L 794 0 
L 794 531 
z
" transform="scale(0.015625)"/>
       </defs>
       <use xlink:href="#DejaVuSans-31"/>
       <use xlink:href="#DejaVuSans-30" transform="translate(63.623047 0)"/>
       <use xlink:href="#DejaVuSans-30" transform="translate(127.246094 0)"/>
       <use xlink:href="#DejaVuSans-30" transform="translate(190.869141 0)"/>
       <use xlink:href="#DejaVuSans-30" transform="translate(254.492188 0)"/>
      </g>
     </g>
    </g>
    <g id="xtick_3">
     <g id="line2d_5">
      <path d="M 203.604855 307.584 
L 203.604855 41.472 
" clip-path="url(#pd53633728e)" style="fill: none; stroke: #b0b0b0; stroke-width: 0.8; stroke-linecap: square"/>
     </g>
     <g id="line2d_6">
      <g>
       <use xlink:href="#mae03900472" x="203.604855" y="307.584" style="stroke: #000000; stroke-width: 0.8"/>
      </g>
     </g>
     <g id="text_3">
      <!-- 20000 -->
      <g transform="translate(187.698605 322.182437) scale(0.1 -0.1)">
       <defs>
        <path id="DejaVuSans-32" d="M 1228 531 
L 3431 531 
L 3431 0 
L 469 0 
L 469 531 
Q 828 903 1448 1529 
Q 2069 2156 2228 2338 
Q 2531 2678 2651 2914 
Q 2772 3150 2772 3378 
Q 2772 3750 2511 3984 
Q 2250 4219 1831 4219 
Q 1534 4219 1204 4116 
Q 875 4013 500 3803 
L 500 4441 
Q 881 4594 1212 4672 
Q 1544 4750 1819 4750 
Q 2544 4750 2975 4387 
Q 3406 4025 3406 3419 
Q 3406 3131 3298 2873 
Q 3191 2616 2906 2266 
Q 2828 2175 2409 1742 
Q 1991 1309 1228 531 
z
" transform="scale(0.015625)"/>
       </defs>
       <use xlink:href="#DejaVuSans-32"/>
       <use xlink:href="#DejaVuSans-30" transform="translate(63.623047 0)"/>
       <use xlink:href="#DejaVuSans-30" transform="translate(127.246094 0)"/>
       <use xlink:href="#DejaVuSans-30" transform="translate(190.869141 0)"/>
       <use xlink:href="#DejaVuSans-30" transform="translate(254.492188 0)"/>
      </g>
     </g>
    </g>
    <g id="xtick_4">
     <g id="line2d_7">
      <path d="M 268.598157 307.584 
L 268.598157 41.472 
" clip-path="url(#pd53633728e)" style="fill: none; stroke: #b0b0b0; stroke-width: 0.8; stroke-linecap: square"/>
     </g>
     <g id="line2d_8">
      <g>
       <use xlink:href="#mae03900472" x="268.598157" y="307.584" style="stroke: #000000; stroke-width: 0.8"/>
      </g>
     </g>
     <g id="text_4">
      <!-- 30000 -->
      <g transform="translate(252.691907 322.182437) scale(0.1 -0.1)">
       <defs>
        <path id="DejaVuSans-33" d="M 2597 2516 
Q 3050 2419 3304 2112 
Q 3559 1806 3559 1356 
Q 3559 666 3084 287 
Q 2609 -91 1734 -91 
Q 1441 -91 1130 -33 
Q 819 25 488 141 
L 488 750 
Q 750 597 1062 519 
Q 1375 441 1716 441 
Q 2309 441 2620 675 
Q 2931 909 2931 1356 
Q 2931 1769 2642 2001 
Q 2353 2234 1838 2234 
L 1294 2234 
L 1294 2753 
L 1863 2753 
Q 2328 2753 2575 2939 
Q 2822 3125 2822 3475 
Q 2822 3834 2567 4026 
Q 2313 4219 1838 4219 
Q 1578 4219 1281 4162 
Q 984 4106 628 3988 
L 628 4550 
Q 988 4650 1302 4700 
Q 1616 4750 1894 4750 
Q 2613 4750 3031 4423 
Q 3450 4097 3450 3541 
Q 3450 3153 3228 2886 
Q 3006 2619 2597 2516 
z
" transform="scale(0.015625)"/>
       </defs>
       <use xlink:href="#DejaVuSans-33"/>
       <use xlink:href="#DejaVuSans-30" transform="translate(63.623047 0)"/>
       <use xlink:href="#DejaVuSans-30" transform="translate(127.246094 0)"/>
       <use xlink:href="#DejaVuSans-30" transform="translate(190.869141 0)"/>
       <use xlink:href="#DejaVuSans-30" transform="translate(254.492188 0)"/>
      </g>
     </g>
    </g>
    <g id="xtick_5">
     <g id="line2d_9">
      <path d="M 333.59146 307.584 
L 333.59146 41.472 
" clip-path="url(#pd53633728e)" style="fill: none; stroke: #b0b0b0; stroke-width: 0.8; stroke-linecap: square"/>
     </g>
     <g id="line2d_10">
      <g>
       <use xlink:href="#mae03900472" x="333.59146" y="307.584" style="stroke: #000000; stroke-width: 0.8"/>
      </g>
     </g>
     <g id="text_5">
      <!-- 40000 -->
      <g transform="translate(317.68521 322.182437) scale(0.1 -0.1)">
       <defs>
        <path id="DejaVuSans-34" d="M 2419 4116 
L 825 1625 
L 2419 1625 
L 2419 4116 
z
M 2253 4666 
L 3047 4666 
L 3047 1625 
L 3713 1625 
L 3713 1100 
L 3047 1100 
L 3047 0 
L 2419 0 
L 2419 1100 
L 313 1100 
L 313 1709 
L 2253 4666 
z
" transform="scale(0.015625)"/>
       </defs>
       <use xlink:href="#DejaVuSans-34"/>
       <use xlink:href="#DejaVuSans-30" transform="translate(63.623047 0)"/>
       <use xlink:href="#DejaVuSans-30" transform="translate(127.246094 0)"/>
       <use xlink:href="#DejaVuSans-30" transform="translate(190.869141 0)"/>
       <use xlink:href="#DejaVuSans-30" transform="translate(254.492188 0)"/>
      </g>
     </g>
    </g>
    <g id="xtick_6">
     <g id="line2d_11">
      <path d="M 398.584763 307.584 
L 398.584763 41.472 
" clip-path="url(#pd53633728e)" style="fill: none; stroke: #b0b0b0; stroke-width: 0.8; stroke-linecap: square"/>
     </g>
     <g id="line2d_12">
      <g>
       <use xlink:href="#mae03900472" x="398.584763" y="307.584" style="stroke: #000000; stroke-width: 0.8"/>
      </g>
     </g>
     <g id="text_6">
      <!-- 50000 -->
      <g transform="translate(382.678513 322.182437) scale(0.1 -0.1)">
       <defs>
        <path id="DejaVuSans-35" d="M 691 4666 
L 3169 4666 
L 3169 4134 
L 1269 4134 
L 1269 2991 
Q 1406 3038 1543 3061 
Q 1681 3084 1819 3084 
Q 2600 3084 3056 2656 
Q 3513 2228 3513 1497 
Q 3513 744 3044 326 
Q 2575 -91 1722 -91 
Q 1428 -91 1123 -41 
Q 819 9 494 109 
L 494 744 
Q 775 591 1075 516 
Q 1375 441 1709 441 
Q 2250 441 2565 725 
Q 2881 1009 2881 1497 
Q 2881 1984 2565 2268 
Q 2250 2553 1709 2553 
Q 1456 2553 1204 2497 
Q 953 2441 691 2322 
L 691 4666 
z
" transform="scale(0.015625)"/>
       </defs>
       <use xlink:href="#DejaVuSans-35"/>
       <use xlink:href="#DejaVuSans-30" transform="translate(63.623047 0)"/>
       <use xlink:href="#DejaVuSans-30" transform="translate(127.246094 0)"/>
       <use xlink:href="#DejaVuSans-30" transform="translate(190.869141 0)"/>
       <use xlink:href="#DejaVuSans-30" transform="translate(254.492188 0)"/>
      </g>
     </g>
    </g>
    <g id="text_7">
     <!-- outer iteration -->
     <g transform="translate(200.127969 335.860562) scale(0.1 -0.1)">
      <defs>
       <path id="DejaVuSans-6f" d="M 1959 3097 
Q 1497 3097 1228 2736 
Q 959 2375 959 1747 
Q 959 1119 1226 758 
Q 1494 397 1959 397 
Q 2419 397 2687 759 
Q 2956 1122 2956 1747 
Q 2956 2369 2687 2733 
Q 2419 3097 1959 3097 
z
M 1959 3584 
Q 2709 3584 3137 3096 
Q 3566 2609 3566 1747 
Q 3566 888 3137 398 
Q 2709 -91 1959 -91 
Q 1206 -91 779 398 
Q 353 888 353 1747 
Q 353 2609 779 3096 
Q 1206 3584 1959 3584 
z
" transform="scale(0.015625)"/>
       <path id="DejaVuSans-75" d="M 544 1381 
L 544 3500 
L 1119 3500 
L 1119 1403 
Q 1119 906 1312 657 
Q 1506 409 1894 409 
Q 2359 409 2629 706 
Q 2900 1003 2900 1516 
L 2900 3500 
L 3475 3500 
L 3475 0 
L 2900 0 
L 2900 538 
Q 2691 219 2414 64 
Q 2138 -91 1772 -91 
Q 1169 -91 856 284 
Q 544 659 544 1381 
z
M 1991 3584 
L 1991 3584 
z
" transform="scale(0.015625)"/>
       <path id="DejaVuSans-74" d="M 1172 4494 
L 1172 3500 
L 2356 3500 
L 2356 3053 
L 1172 3053 
L 1172 1153 
Q 1172 725 1289 603 
Q 1406 481 1766 481 
L 2356 481 
L 2356 0 
L 1766 0 
Q 1100 0 847 248 
Q 594 497 594 1153 
L 594 3053 
L 172 3053 
L 172 3500 
L 594 3500 
L 594 4494 
L 1172 4494 
z
" transform="scale(0.015625)"/>
       <path id="DejaVuSans-65" d="M 3597 1894 
L 3597 1613 
L 953 1613 
Q 991 1019 1311 708 
Q 1631 397 2203 397 
Q 2534 397 2845 478 
Q 3156 559 3463 722 
L 3463 178 
Q 3153 47 2828 -22 
Q 2503 -91 2169 -91 
Q 1331 -91 842 396 
Q 353 884 353 1716 
Q 353 2575 817 3079 
Q 1281 3584 2069 3584 
Q 2775 3584 3186 3129 
Q 3597 2675 3597 1894 
z
M 3022 2063 
Q 3016 2534 2758 2815 
Q 2500 3097 2075 3097 
Q 1594 3097 1305 2825 
Q 1016 2553 972 2059 
L 3022 2063 
z
" transform="scale(0.015625)"/>
       <path id="DejaVuSans-72" d="M 2631 2963 
Q 2534 3019 2420 3045 
Q 2306 3072 2169 3072 
Q 1681 3072 1420 2755 
Q 1159 2438 1159 1844 
L 1159 0 
L 581 0 
L 581 3500 
L 1159 3500 
L 1159 2956 
Q 1341 3275 1631 3429 
Q 1922 3584 2338 3584 
Q 2397 3584 2469 3576 
Q 2541 3569 2628 3553 
L 2631 2963 
z
" transform="scale(0.015625)"/>
       <path id="DejaVuSans-20" transform="scale(0.015625)"/>
       <path id="DejaVuSans-69" d="M 603 3500 
L 1178 3500 
L 1178 0 
L 603 0 
L 603 3500 
z
M 603 4863 
L 1178 4863 
L 1178 4134 
L 603 4134 
L 603 4863 
z
" transform="scale(0.015625)"/>
       <path id="DejaVuSans-61" d="M 2194 1759 
Q 1497 1759 1228 1600 
Q 959 1441 959 1056 
Q 959 750 1161 570 
Q 1363 391 1709 391 
Q 2188 391 2477 730 
Q 2766 1069 2766 1631 
L 2766 1759 
L 2194 1759 
z
M 3341 1997 
L 3341 0 
L 2766 0 
L 2766 531 
Q 2569 213 2275 61 
Q 1981 -91 1556 -91 
Q 1019 -91 701 211 
Q 384 513 384 1019 
Q 384 1609 779 1909 
Q 1175 2209 1959 2209 
L 2766 2209 
L 2766 2266 
Q 2766 2663 2505 2880 
Q 2244 3097 1772 3097 
Q 1472 3097 1187 3025 
Q 903 2953 641 2809 
L 641 3341 
Q 956 3463 1253 3523 
Q 1550 3584 1831 3584 
Q 2591 3584 2966 3190 
Q 3341 2797 3341 1997 
z
" transform="scale(0.015625)"/>
       <path id="DejaVuSans-6e" d="M 3513 2113 
L 3513 0 
L 2938 0 
L 2938 2094 
Q 2938 2591 2744 2837 
Q 2550 3084 2163 3084 
Q 1697 3084 1428 2787 
Q 1159 2491 1159 1978 
L 1159 0 
L 581 0 
L 581 3500 
L 1159 3500 
L 1159 2956 
Q 1366 3272 1645 3428 
Q 1925 3584 2291 3584 
Q 2894 3584 3203 3211 
Q 3513 2838 3513 2113 
z
" transform="scale(0.015625)"/>
      </defs>
      <use xlink:href="#DejaVuSans-6f"/>
      <use xlink:href="#DejaVuSans-75" transform="translate(61.181641 0)"/>
      <use xlink:href="#DejaVuSans-74" transform="translate(124.560547 0)"/>
      <use xlink:href="#DejaVuSans-65" transform="translate(163.769531 0)"/>
      <use xlink:href="#DejaVuSans-72" transform="translate(225.292969 0)"/>
      <use xlink:href="#DejaVuSans-20" transform="translate(266.40625 0)"/>
      <use xlink:href="#DejaVuSans-69" transform="translate(298.193359 0)"/>
      <use xlink:href="#DejaVuSans-74" transform="translate(325.976562 0)"/>
      <use xlink:href="#DejaVuSans-65" transform="translate(365.185547 0)"/>
      <use xlink:href="#DejaVuSans-72" transform="translate(426.708984 0)"/>
      <use xlink:href="#DejaVuSans-61" transform="translate(467.822266 0)"/>
      <use xlink:href="#DejaVuSans-74" transform="translate(529.101562 0)"/>
      <use xlink:href="#DejaVuSans-69" transform="translate(568.310547 0)"/>
      <use xlink:href="#DejaVuSans-6f" transform="translate(596.09375 0)"/>
      <use xlink:href="#DejaVuSans-6e" transform="translate(657.275391 0)"/>
     </g>
    </g>
   </g>
   <g id="matplotlib.axis_2">
    <g id="ytick_1">
     <g id="line2d_13">
      <path d="M 57.6 277.050213 
L 414.72 277.050213 
" clip-path="url(#pd53633728e)" style="fill: none; stroke: #b0b0b0; stroke-width: 0.8; stroke-linecap: square"/>
     </g>
     <g id="line2d_14">
      <defs>
       <path id="m3ad44d7d0a" d="M 0 0 
L -3.5 0 
" style="stroke: #000000; stroke-width: 0.8"/>
      </defs>
      <g>
       <use xlink:href="#m3ad44d7d0a" x="57.6" y="277.050213" style="stroke: #000000; stroke-width: 0.8"/>
      </g>
     </g>
     <g id="text_8">
      <!-- 3.2 -->
      <g transform="translate(34.696875 280.849432) scale(0.1 -0.1)">
       <defs>
        <path id="DejaVuSans-2e" d="M 684 794 
L 1344 794 
L 1344 0 
L 684 0 
L 684 794 
z
" transform="scale(0.015625)"/>
       </defs>
       <use xlink:href="#DejaVuSans-33"/>
       <use xlink:href="#DejaVuSans-2e" transform="translate(63.623047 0)"/>
       <use xlink:href="#DejaVuSans-32" transform="translate(95.410156 0)"/>
      </g>
     </g>
    </g>
    <g id="ytick_2">
     <g id="line2d_15">
      <path d="M 57.6 246.35344 
L 414.72 246.35344 
" clip-path="url(#pd53633728e)" style="fill: none; stroke: #b0b0b0; stroke-width: 0.8; stroke-linecap: square"/>
     </g>
     <g id="line2d_16">
      <g>
       <use xlink:href="#m3ad44d7d0a" x="57.6" y="246.35344" style="stroke: #000000; stroke-width: 0.8"/>
      </g>
     </g>
     <g id="text_9">
      <!-- 3.4 -->
      <g transform="translate(34.696875 250.152658) scale(0.1 -0.1)">
       <use xlink:href="#DejaVuSans-33"/>
       <use xlink:href="#DejaVuSans-2e" transform="translate(63.623047 0)"/>
       <use xlink:href="#DejaVuSans-34" transform="translate(95.410156 0)"/>
      </g>
     </g>
    </g>
    <g id="ytick_3">
     <g id="line2d_17">
      <path d="M 57.6 215.656666 
L 414.72 215.656666 
" clip-path="url(#pd53633728e)" style="fill: none; stroke: #b0b0b0; stroke-width: 0.8; stroke-linecap: square"/>
     </g>
     <g id="line2d_18">
      <g>
       <use xlink:href="#m3ad44d7d0a" x="57.6" y="215.656666" style="stroke: #000000; stroke-width: 0.8"/>
      </g>
     </g>
     <g id="text_10">
      <!-- 3.6 -->
      <g transform="translate(34.696875 219.455885) scale(0.1 -0.1)">
       <defs>
        <path id="DejaVuSans-36" d="M 2113 2584 
Q 1688 2584 1439 2293 
Q 1191 2003 1191 1497 
Q 1191 994 1439 701 
Q 1688 409 2113 409 
Q 2538 409 2786 701 
Q 3034 994 3034 1497 
Q 3034 2003 2786 2293 
Q 2538 2584 2113 2584 
z
M 3366 4563 
L 3366 3988 
Q 3128 4100 2886 4159 
Q 2644 4219 2406 4219 
Q 1781 4219 1451 3797 
Q 1122 3375 1075 2522 
Q 1259 2794 1537 2939 
Q 1816 3084 2150 3084 
Q 2853 3084 3261 2657 
Q 3669 2231 3669 1497 
Q 3669 778 3244 343 
Q 2819 -91 2113 -91 
Q 1303 -91 875 529 
Q 447 1150 447 2328 
Q 447 3434 972 4092 
Q 1497 4750 2381 4750 
Q 2619 4750 2861 4703 
Q 3103 4656 3366 4563 
z
" transform="scale(0.015625)"/>
       </defs>
       <use xlink:href="#DejaVuSans-33"/>
       <use xlink:href="#DejaVuSans-2e" transform="translate(63.623047 0)"/>
       <use xlink:href="#DejaVuSans-36" transform="translate(95.410156 0)"/>
      </g>
     </g>
    </g>
    <g id="ytick_4">
     <g id="line2d_19">
      <path d="M 57.6 184.959893 
L 414.72 184.959893 
" clip-path="url(#pd53633728e)" style="fill: none; stroke: #b0b0b0; stroke-width: 0.8; stroke-linecap: square"/>
     </g>
     <g id="line2d_20">
      <g>
       <use xlink:href="#m3ad44d7d0a" x="57.6" y="184.959893" style="stroke: #000000; stroke-width: 0.8"/>
      </g>
     </g>
     <g id="text_11">
      <!-- 3.8 -->
      <g transform="translate(34.696875 188.759111) scale(0.1 -0.1)">
       <defs>
        <path id="DejaVuSans-38" d="M 2034 2216 
Q 1584 2216 1326 1975 
Q 1069 1734 1069 1313 
Q 1069 891 1326 650 
Q 1584 409 2034 409 
Q 2484 409 2743 651 
Q 3003 894 3003 1313 
Q 3003 1734 2745 1975 
Q 2488 2216 2034 2216 
z
M 1403 2484 
Q 997 2584 770 2862 
Q 544 3141 544 3541 
Q 544 4100 942 4425 
Q 1341 4750 2034 4750 
Q 2731 4750 3128 4425 
Q 3525 4100 3525 3541 
Q 3525 3141 3298 2862 
Q 3072 2584 2669 2484 
Q 3125 2378 3379 2068 
Q 3634 1759 3634 1313 
Q 3634 634 3220 271 
Q 2806 -91 2034 -91 
Q 1263 -91 848 271 
Q 434 634 434 1313 
Q 434 1759 690 2068 
Q 947 2378 1403 2484 
z
M 1172 3481 
Q 1172 3119 1398 2916 
Q 1625 2713 2034 2713 
Q 2441 2713 2670 2916 
Q 2900 3119 2900 3481 
Q 2900 3844 2670 4047 
Q 2441 4250 2034 4250 
Q 1625 4250 1398 4047 
Q 1172 3844 1172 3481 
z
" transform="scale(0.015625)"/>
       </defs>
       <use xlink:href="#DejaVuSans-33"/>
       <use xlink:href="#DejaVuSans-2e" transform="translate(63.623047 0)"/>
       <use xlink:href="#DejaVuSans-38" transform="translate(95.410156 0)"/>
      </g>
     </g>
    </g>
    <g id="ytick_5">
     <g id="line2d_21">
      <path d="M 57.6 154.263119 
L 414.72 154.263119 
" clip-path="url(#pd53633728e)" style="fill: none; stroke: #b0b0b0; stroke-width: 0.8; stroke-linecap: square"/>
     </g>
     <g id="line2d_22">
      <g>
       <use xlink:href="#m3ad44d7d0a" x="57.6" y="154.263119" style="stroke: #000000; stroke-width: 0.8"/>
      </g>
     </g>
     <g id="text_12">
      <!-- 4.0 -->
      <g transform="translate(34.696875 158.062338) scale(0.1 -0.1)">
       <use xlink:href="#DejaVuSans-34"/>
       <use xlink:href="#DejaVuSans-2e" transform="translate(63.623047 0)"/>
       <use xlink:href="#DejaVuSans-30" transform="translate(95.410156 0)"/>
      </g>
     </g>
    </g>
    <g id="ytick_6">
     <g id="line2d_23">
      <path d="M 57.6 123.566346 
L 414.72 123.566346 
" clip-path="url(#pd53633728e)" style="fill: none; stroke: #b0b0b0; stroke-width: 0.8; stroke-linecap: square"/>
     </g>
     <g id="line2d_24">
      <g>
       <use xlink:href="#m3ad44d7d0a" x="57.6" y="123.566346" style="stroke: #000000; stroke-width: 0.8"/>
      </g>
     </g>
     <g id="text_13">
      <!-- 4.2 -->
      <g transform="translate(34.696875 127.365564) scale(0.1 -0.1)">
       <use xlink:href="#DejaVuSans-34"/>
       <use xlink:href="#DejaVuSans-2e" transform="translate(63.623047 0)"/>
       <use xlink:href="#DejaVuSans-32" transform="translate(95.410156 0)"/>
      </g>
     </g>
    </g>
    <g id="ytick_7">
     <g id="line2d_25">
      <path d="M 57.6 92.869572 
L 414.72 92.869572 
" clip-path="url(#pd53633728e)" style="fill: none; stroke: #b0b0b0; stroke-width: 0.8; stroke-linecap: square"/>
     </g>
     <g id="line2d_26">
      <g>
       <use xlink:href="#m3ad44d7d0a" x="57.6" y="92.869572" style="stroke: #000000; stroke-width: 0.8"/>
      </g>
     </g>
     <g id="text_14">
      <!-- 4.4 -->
      <g transform="translate(34.696875 96.668791) scale(0.1 -0.1)">
       <use xlink:href="#DejaVuSans-34"/>
       <use xlink:href="#DejaVuSans-2e" transform="translate(63.623047 0)"/>
       <use xlink:href="#DejaVuSans-34" transform="translate(95.410156 0)"/>
      </g>
     </g>
    </g>
    <g id="ytick_8">
     <g id="line2d_27">
      <path d="M 57.6 62.172799 
L 414.72 62.172799 
" clip-path="url(#pd53633728e)" style="fill: none; stroke: #b0b0b0; stroke-width: 0.8; stroke-linecap: square"/>
     </g>
     <g id="line2d_28">
      <g>
       <use xlink:href="#m3ad44d7d0a" x="57.6" y="62.172799" style="stroke: #000000; stroke-width: 0.8"/>
      </g>
     </g>
     <g id="text_15">
      <!-- 4.6 -->
      <g transform="translate(34.696875 65.972017) scale(0.1 -0.1)">
       <use xlink:href="#DejaVuSans-34"/>
       <use xlink:href="#DejaVuSans-2e" transform="translate(63.623047 0)"/>
       <use xlink:href="#DejaVuSans-36" transform="translate(95.410156 0)"/>
      </g>
     </g>
    </g>
    <g id="text_16">
     <!-- estimate -->
     <g transform="translate(28.617187 196.529562) rotate(-90) scale(0.1 -0.1)">
      <defs>
       <path id="DejaVuSans-73" d="M 2834 3397 
L 2834 2853 
Q 2591 2978 2328 3040 
Q 2066 3103 1784 3103 
Q 1356 3103 1142 2972 
Q 928 2841 928 2578 
Q 928 2378 1081 2264 
Q 1234 2150 1697 2047 
L 1894 2003 
Q 2506 1872 2764 1633 
Q 3022 1394 3022 966 
Q 3022 478 2636 193 
Q 2250 -91 1575 -91 
Q 1294 -91 989 -36 
Q 684 19 347 128 
L 347 722 
Q 666 556 975 473 
Q 1284 391 1588 391 
Q 1994 391 2212 530 
Q 2431 669 2431 922 
Q 2431 1156 2273 1281 
Q 2116 1406 1581 1522 
L 1381 1569 
Q 847 1681 609 1914 
Q 372 2147 372 2553 
Q 372 3047 722 3315 
Q 1072 3584 1716 3584 
Q 2034 3584 2315 3537 
Q 2597 3491 2834 3397 
z
" transform="scale(0.015625)"/>
       <path id="DejaVuSans-6d" d="M 3328 2828 
Q 3544 3216 3844 3400 
Q 4144 3584 4550 3584 
Q 5097 3584 5394 3201 
Q 5691 2819 5691 2113 
L 5691 0 
L 5113 0 
L 5113 2094 
Q 5113 2597 4934 2840 
Q 4756 3084 4391 3084 
Q 3944 3084 3684 2787 
Q 3425 2491 3425 1978 
L 3425 0 
L 2847 0 
L 2847 2094 
Q 2847 2600 2669 2842 
Q 2491 3084 2119 3084 
Q 1678 3084 1418 2786 
Q 1159 2488 1159 1978 
L 1159 0 
L 581 0 
L 581 3500 
L 1159 3500 
L 1159 2956 
Q 1356 3278 1631 3431 
Q 1906 3584 2284 3584 
Q 2666 3584 2933 3390 
Q 3200 3197 3328 2828 
z
" transform="scale(0.015625)"/>
      </defs>
      <use xlink:href="#DejaVuSans-65"/>
      <use xlink:href="#DejaVuSans-73" transform="translate(61.523438 0)"/>
      <use xlink:href="#DejaVuSans-74" transform="translate(113.623047 0)"/>
      <use xlink:href="#DejaVuSans-69" transform="translate(152.832031 0)"/>
      <use xlink:href="#DejaVuSans-6d" transform="translate(180.615234 0)"/>
      <use xlink:href="#DejaVuSans-61" transform="translate(278.027344 0)"/>
      <use xlink:href="#DejaVuSans-74" transform="translate(339.306641 0)"/>
      <use xlink:href="#DejaVuSans-65" transform="translate(378.515625 0)"/>
     </g>
    </g>
   </g>
   <g id="line2d_29">
    <path d="M 73.832727 156.625625 
L 74.040706 212.221332 
L 74.248684 224.794584 
L 74.664642 188.659272 
L 75.080599 173.645389 
L 75.288577 182.9225 
L 75.496556 182.156278 
L 75.704534 187.312926 
L 75.912513 177.105329 
L 76.120492 174.493491 
L 76.32847 178.440169 
L 76.744427 191.759317 
L 76.952406 192.277954 
L 77.160384 198.962683 
L 77.368363 201.109296 
L 77.576342 197.339326 
L 77.992299 200.188652 
L 78.200277 203.716744 
L 78.408256 203.688293 
L 78.616234 205.259913 
L 78.824213 204.262806 
L 79.448149 213.485736 
L 79.656127 212.147841 
L 80.280063 204.238417 
L 80.488041 208.227745 
L 80.69602 207.264395 
L 80.903999 208.664957 
L 81.111977 207.851301 
L 81.735913 207.628296 
L 81.943891 208.519531 
L 82.15187 208.876609 
L 82.359849 207.469092 
L 82.567827 207.709287 
L 82.983784 205.383085 
L 83.191763 205.877538 
L 83.399741 205.576149 
L 83.60772 204.848956 
L 83.815699 202.66244 
L 84.231656 205.386059 
L 84.855591 203.578899 
L 85.06357 205.099968 
L 85.271549 204.061659 
L 85.479527 204.372953 
L 85.687506 203.799203 
L 85.895484 202.770718 
L 86.103463 203.412871 
L 86.311441 203.437166 
L 86.51942 202.819831 
L 86.727399 202.670958 
L 87.143356 207.437629 
L 87.351334 207.002393 
L 87.559313 208.049403 
L 87.767291 208.120811 
L 87.97527 209.450497 
L 88.183249 209.81252 
L 88.599206 209.396151 
L 88.807184 210.116922 
L 89.015163 210.159683 
L 89.43112 210.85283 
L 89.639098 210.580827 
L 89.847077 211.032982 
L 90.263034 212.574483 
L 90.471013 212.256521 
L 90.678991 212.702536 
L 91.094948 215.232176 
L 91.302927 215.097939 
L 91.510906 214.689404 
L 91.718884 215.422126 
L 92.134841 214.091822 
L 92.34282 215.469809 
L 92.550798 214.964683 
L 92.758777 215.427034 
L 92.966756 215.038522 
L 93.382713 215.70009 
L 93.590691 215.759432 
L 93.79867 216.987441 
L 94.006648 217.265212 
L 94.214627 217.175113 
L 94.422606 218.085976 
L 94.838563 218.586922 
L 95.046541 218.504248 
L 95.25452 219.96194 
L 95.878456 221.39457 
L 96.086434 220.625837 
L 96.294413 220.980973 
L 96.502391 220.256504 
L 96.71037 220.450576 
L 96.918348 220.365233 
L 97.126327 221.408609 
L 97.334306 221.675754 
L 97.542284 221.511659 
L 97.958241 223.246325 
L 98.16622 223.225167 
L 98.374198 223.042665 
L 98.582177 222.599819 
L 98.998134 222.50339 
L 99.206113 221.597914 
L 99.414091 222.23669 
L 99.830048 221.662872 
L 100.038027 220.506587 
L 100.453984 220.876194 
L 100.661963 220.887083 
L 100.869941 221.17252 
L 101.07792 221.215093 
L 101.285898 222.300517 
L 101.493877 222.448151 
L 101.701855 223.314532 
L 101.909834 222.553382 
L 102.117813 223.179955 
L 102.325791 222.867042 
L 102.53377 223.65189 
L 102.741748 223.6805 
L 103.157705 224.474116 
L 103.365684 223.784732 
L 103.573663 223.656955 
L 103.781641 223.393227 
L 103.98962 223.406668 
L 104.197598 222.817643 
L 104.613555 222.14166 
L 104.821534 222.627732 
L 105.029513 221.692566 
L 105.237491 221.712765 
L 105.653448 221.344368 
L 105.861427 221.830519 
L 106.069405 221.994666 
L 106.277384 221.838277 
L 106.693341 221.20322 
L 106.90132 221.573976 
L 107.317277 221.234107 
L 107.525255 221.595823 
L 107.733234 221.59054 
L 107.941213 221.745262 
L 108.149191 222.563572 
L 108.35717 222.02051 
L 108.981105 221.684541 
L 109.605041 222.549331 
L 110.020998 222.987518 
L 110.228977 222.765752 
L 110.436955 223.34442 
L 111.060891 222.961228 
L 111.26887 223.705629 
L 111.476848 223.919547 
L 111.892805 223.435414 
L 112.100784 223.695057 
L 112.308762 223.197618 
L 112.516741 223.1785 
L 112.72472 223.699094 
L 112.932698 223.796682 
L 113.140677 223.535937 
L 113.348655 223.774634 
L 113.556634 223.385443 
L 113.972591 224.486496 
L 114.18057 225.037915 
L 114.388548 225.239572 
L 114.596527 225.223528 
L 114.804505 224.746445 
L 115.428441 225.348798 
L 115.63642 225.640009 
L 116.884291 225.241237 
L 117.09227 225.503691 
L 117.300248 225.259432 
L 117.716205 224.256713 
L 117.924184 224.298498 
L 118.132162 224.218575 
L 118.54812 224.753366 
L 118.756098 224.447499 
L 118.964077 224.360998 
L 119.588012 225.186953 
L 119.795991 225.081749 
L 120.211948 225.163611 
L 120.419927 225.574798 
L 120.627905 225.653525 
L 120.835884 225.362246 
L 121.043862 225.476502 
L 121.251841 225.412384 
L 121.459819 225.181855 
L 121.667798 225.498473 
L 121.875777 226.18728 
L 122.083755 225.53765 
L 122.707691 225.046573 
L 123.123648 225.128059 
L 123.331627 224.806968 
L 123.539605 225.195337 
L 124.163541 225.239542 
L 124.579498 226.03444 
L 124.787477 225.899858 
L 124.995455 225.917469 
L 125.203434 225.77766 
L 125.619391 225.714499 
L 125.827369 225.577393 
L 126.451305 225.642375 
L 126.867262 226.142801 
L 127.075241 226.30894 
L 127.491198 226.042161 
L 127.699177 226.366888 
L 127.907155 226.426463 
L 128.115134 226.899634 
L 128.531091 226.91635 
L 128.739069 226.547166 
L 128.947048 226.661699 
L 129.363005 226.621513 
L 129.570984 227.072487 
L 129.778962 227.151629 
L 129.986941 227.026474 
L 130.194919 227.204815 
L 130.402898 226.985371 
L 130.610876 227.042231 
L 130.818855 226.639638 
L 131.026834 226.587544 
L 131.442791 226.14763 
L 131.650769 226.945464 
L 131.858748 227.094175 
L 132.066726 226.844119 
L 132.274705 227.26608 
L 133.106619 226.891282 
L 133.314598 226.859769 
L 133.522576 226.679208 
L 133.730555 226.785081 
L 133.938534 226.31855 
L 134.146512 226.244538 
L 134.354491 226.423889 
L 134.770448 226.308677 
L 135.186405 226.191024 
L 135.394384 226.395391 
L 135.602362 226.14355 
L 135.810341 226.095812 
L 136.018319 225.832343 
L 136.226298 226.045354 
L 136.434276 225.964534 
L 136.850234 226.504298 
L 137.058212 226.117065 
L 137.266191 226.330219 
L 137.682148 226.070825 
L 137.890126 226.293019 
L 138.306084 226.295146 
L 138.514062 226.280846 
L 138.722041 226.486217 
L 138.930019 226.158877 
L 139.137998 226.126265 
L 139.345976 226.275033 
L 139.553955 226.175801 
L 139.761933 226.251886 
L 139.969912 226.175367 
L 140.177891 226.467523 
L 141.009805 226.384981 
L 141.217783 226.588756 
L 141.425762 226.164862 
L 141.633741 226.195858 
L 141.841719 225.987052 
L 142.049698 225.962488 
L 142.465655 226.393353 
L 142.673633 226.014715 
L 143.089591 225.899668 
L 143.505548 226.301086 
L 143.921505 226.128416 
L 144.545441 226.215713 
L 145.585333 226.274409 
L 145.793312 226.051136 
L 146.209269 226.368259 
L 146.417248 226.6717 
L 147.041183 226.245586 
L 147.457141 226.364143 
L 147.665119 226.305033 
L 147.873098 226.574928 
L 148.705012 226.128473 
L 148.912991 225.893462 
L 149.120969 226.121544 
L 149.536926 225.711736 
L 149.744905 225.910669 
L 150.160862 225.966339 
L 150.36884 225.857816 
L 150.576819 226.067634 
L 150.784798 226.097893 
L 150.992776 226.305435 
L 151.408733 226.348962 
L 151.616712 226.017802 
L 151.82469 226.176414 
L 152.240648 225.91415 
L 152.864583 225.854104 
L 153.072562 225.576352 
L 153.696498 225.67622 
L 154.320433 226.14841 
L 154.528412 226.060066 
L 154.73639 226.258079 
L 154.944369 226.265231 
L 155.152348 226.073522 
L 155.360326 226.212796 
L 155.776283 226.066776 
L 155.984262 226.068007 
L 156.19224 225.879845 
L 156.400219 225.90474 
L 156.816176 225.583057 
L 157.024155 225.722297 
L 158.064048 225.504823 
L 158.480005 225.895852 
L 158.687983 226.237794 
L 159.10394 225.969624 
L 159.727876 226.475632 
L 160.143833 226.219572 
L 160.351812 226.719904 
L 160.55979 226.801021 
L 160.767769 226.733356 
L 160.975747 226.969205 
L 162.223619 227.004495 
L 162.431597 227.168092 
L 162.639576 226.854911 
L 162.847555 226.943744 
L 163.055533 226.761389 
L 163.263512 226.93334 
L 163.679469 226.98368 
L 163.887447 227.041581 
L 164.095426 226.942424 
L 164.719362 227.058279 
L 165.135319 226.846557 
L 165.343297 226.79257 
L 165.551276 226.536561 
L 165.967233 226.55491 
L 166.38319 225.987876 
L 166.591169 225.951809 
L 166.799147 225.751858 
L 167.215105 225.951598 
L 167.423083 225.953497 
L 167.631062 226.078023 
L 168.254997 225.696569 
L 169.086912 225.752096 
L 169.29489 225.83745 
L 169.502869 226.066941 
L 170.334783 225.767074 
L 170.75074 226.048313 
L 171.166697 225.910013 
L 172.20659 226.269172 
L 172.830526 226.264916 
L 173.66244 227.060833 
L 173.870419 226.977385 
L 174.078397 227.162082 
L 174.286376 226.935003 
L 174.494354 227.008621 
L 174.910312 226.806327 
L 175.326269 226.546025 
L 176.158183 226.924289 
L 176.366162 226.708878 
L 176.782119 226.773383 
L 176.990097 226.561716 
L 177.406054 226.660732 
L 177.822012 226.550401 
L 178.02999 226.686498 
L 178.237969 226.497244 
L 178.653926 226.64655 
L 178.861904 226.411584 
L 179.069883 226.414951 
L 179.277862 226.201418 
L 180.109776 226.291124 
L 180.525733 225.809906 
L 180.94169 225.960963 
L 181.149669 225.818253 
L 181.565626 225.838683 
L 181.773604 226.130315 
L 182.189561 226.051857 
L 182.39754 226.242703 
L 182.813497 226.341027 
L 183.229454 226.444584 
L 183.437433 226.402046 
L 184.269347 226.914996 
L 184.685304 227.013743 
L 185.933176 227.250697 
L 186.349133 227.652587 
L 186.76509 227.372158 
L 187.181047 227.442537 
L 187.597004 227.475937 
L 188.012961 227.313108 
L 188.22094 227.181681 
L 188.428919 227.286811 
L 188.844876 227.133417 
L 189.052854 227.180186 
L 189.260833 227.060105 
L 189.468811 227.195613 
L 190.092747 227.168042 
L 190.508704 227.316945 
L 190.924661 226.958701 
L 191.13264 227.151148 
L 191.340618 227.045354 
L 192.380511 227.591858 
L 192.58849 227.516339 
L 192.796468 227.623524 
L 193.004447 227.582927 
L 193.628383 228.149979 
L 194.252318 228.512119 
L 194.460297 228.465271 
L 194.876254 228.585547 
L 195.292211 228.215786 
L 195.50019 228.305023 
L 195.708168 228.093838 
L 197.164018 227.80086 
L 197.371997 227.600062 
L 197.579976 227.819782 
L 197.995933 227.790533 
L 198.203911 227.997171 
L 198.827847 227.935008 
L 199.451783 227.922539 
L 199.659761 228.135317 
L 200.075718 227.994185 
L 200.283697 228.006447 
L 200.699654 227.731853 
L 202.363483 228.522464 
L 203.611354 228.191678 
L 203.819333 228.245074 
L 204.443268 228.100535 
L 204.651247 228.212645 
L 204.859225 228.133578 
L 205.275183 228.409693 
L 205.483161 228.208352 
L 206.523054 228.392473 
L 207.14699 228.817006 
L 207.354968 228.737692 
L 207.770925 228.74643 
L 208.186883 228.605982 
L 208.394861 228.613465 
L 209.018797 229.054956 
L 209.642733 228.815263 
L 210.682625 228.968188 
L 211.098582 228.852957 
L 211.51454 228.798611 
L 211.722518 228.671013 
L 212.138475 228.763682 
L 212.762411 228.555131 
L 213.594325 228.728025 
L 214.010282 228.966139 
L 214.42624 229.046164 
L 214.842197 229.128919 
L 215.050175 228.968555 
L 215.466132 229.096755 
L 216.298047 229.114889 
L 216.921982 229.074196 
L 217.129961 229.145974 
L 217.545918 229.015577 
L 217.961875 228.905829 
L 218.377832 228.761605 
L 219.417725 229.047163 
L 219.625704 229.300987 
L 219.833682 229.319427 
L 220.24964 229.217797 
L 220.457618 229.297818 
L 220.873575 229.226774 
L 221.913468 229.112946 
L 222.329425 228.82504 
L 224.409211 228.707848 
L 225.033147 228.869877 
L 225.657082 229.100039 
L 226.073039 229.170114 
L 226.488997 229.242815 
L 227.528889 229.176468 
L 227.944847 229.537348 
L 228.360804 229.592936 
L 228.568782 229.508922 
L 228.984739 229.536031 
L 230.232611 229.301126 
L 230.440589 229.374138 
L 230.648568 229.323611 
L 230.856547 229.491046 
L 232.728354 229.053819 
L 233.352289 228.702868 
L 234.600161 228.339387 
L 234.808139 228.178063 
L 236.056011 228.296018 
L 236.679946 228.472772 
L 239.383668 228.656478 
L 239.591646 228.652676 
L 239.799625 228.774951 
L 240.631539 228.723941 
L 241.047496 228.918086 
L 242.711325 228.849583 
L 243.335261 228.580926 
L 244.167175 228.845835 
L 244.791111 228.78567 
L 245.415046 228.770685 
L 246.454939 228.926488 
L 246.870896 228.774249 
L 247.702811 228.637818 
L 247.910789 228.770461 
L 248.742703 228.781994 
L 248.950682 228.926031 
L 249.158661 228.786025 
L 249.574618 228.943863 
L 249.990575 228.754922 
L 250.822489 228.719125 
L 251.030468 228.540504 
L 251.654403 228.560794 
L 252.278339 228.427809 
L 252.486318 228.444208 
L 252.694296 228.337128 
L 253.52621 228.567309 
L 253.734189 228.60777 
L 254.150146 228.563006 
L 256.645889 228.679294 
L 256.853868 228.559597 
L 260.389503 228.915412 
L 260.80546 229.050085 
L 261.221418 229.006254 
L 262.885246 228.703422 
L 263.093225 228.516482 
L 263.925139 228.627195 
L 264.341096 228.462545 
L 264.757053 228.452856 
L 265.17301 228.385086 
L 265.588967 228.332372 
L 265.796946 228.184658 
L 266.212903 228.136183 
L 266.420882 227.993854 
L 268.08471 228.303206 
L 268.292689 228.194788 
L 268.708646 228.151128 
L 269.54056 228.191123 
L 269.956517 228.165675 
L 270.788432 227.819969 
L 272.45226 227.401203 
L 272.660239 227.481704 
L 272.868217 227.320979 
L 273.284174 227.387476 
L 275.987896 227.626214 
L 276.195874 227.5638 
L 276.611832 227.684497 
L 277.027789 227.585112 
L 278.691617 227.184895 
L 278.899596 227.019713 
L 279.315553 226.986085 
L 279.523532 226.904955 
L 279.73151 227.049749 
L 282.019274 227.144116 
L 282.227253 227.027517 
L 282.64321 227.020414 
L 282.851189 227.038235 
L 283.267146 226.904339 
L 284.09906 226.86407 
L 284.515017 226.897549 
L 284.930974 226.828861 
L 285.138953 226.824888 
L 285.346931 226.691647 
L 285.762889 226.717197 
L 285.970867 226.769406 
L 286.178846 226.679399 
L 286.802781 226.69761 
L 288.050653 226.678394 
L 288.46661 226.784989 
L 288.674589 226.716186 
L 289.506503 226.967736 
L 290.962353 226.485322 
L 292.626181 226.926658 
L 293.042138 226.837587 
L 293.458096 226.851509 
L 293.666074 226.685672 
L 294.082031 226.699197 
L 294.705967 226.793499 
L 296.369796 226.771833 
L 296.993731 226.784026 
L 297.409688 226.804001 
L 297.825646 226.851484 
L 298.449581 226.726129 
L 299.905431 226.763269 
L 300.11341 226.633972 
L 300.945324 226.631582 
L 301.777238 226.575033 
L 302.193196 226.618326 
L 302.609153 226.545452 
L 303.02511 226.414695 
L 303.233088 226.39804 
L 303.649045 226.580887 
L 303.857024 226.513306 
L 305.104895 226.734416 
L 305.93681 226.527162 
L 306.352767 226.528826 
L 307.184681 226.347553 
L 308.224574 226.653784 
L 308.84851 226.668343 
L 309.472445 226.722613 
L 310.096381 226.830843 
L 311.552231 227.011293 
L 311.76021 226.903754 
L 311.968188 226.952203 
L 312.384145 226.808467 
L 312.800102 226.825846 
L 313.839995 226.837311 
L 315.711802 226.731112 
L 315.919781 226.773033 
L 316.12776 226.69176 
L 316.959674 226.865079 
L 317.58361 226.82383 
L 318.207545 226.90328 
L 318.415524 226.817587 
L 318.831481 227.010591 
L 320.49531 226.985333 
L 323.199031 227.459031 
L 325.070838 227.492481 
L 325.278817 227.531877 
L 325.694774 227.295864 
L 326.110731 227.304419 
L 326.526688 227.169509 
L 326.942645 227.235146 
L 327.774559 227.259575 
L 328.398495 227.272145 
L 328.814452 227.285025 
L 329.438388 227.30184 
L 330.478281 227.127876 
L 331.726152 226.948726 
L 333.182002 226.788982 
L 335.053809 226.529053 
L 335.885724 226.679633 
L 337.133595 226.576348 
L 337.341574 226.683347 
L 337.549552 226.573167 
L 338.381466 226.669596 
L 338.797424 226.657492 
L 339.005402 226.749941 
L 340.253274 226.604307 
L 341.293166 226.927937 
L 341.501145 226.77258 
L 343.164974 226.725734 
L 343.996888 226.670704 
L 344.412845 226.737245 
L 345.244759 226.796535 
L 346.700609 226.956095 
L 347.532523 226.751897 
L 350.028266 226.721385 
L 350.652202 226.77122 
L 351.068159 226.857662 
L 351.900073 226.660767 
L 352.316031 226.700979 
L 352.731988 226.638385 
L 353.147945 226.645486 
L 353.77188 226.621426 
L 354.603795 226.604667 
L 355.435709 226.697105 
L 355.851666 226.58635 
L 356.267623 226.656863 
L 357.099538 226.491088 
L 359.803259 226.334005 
L 361.05113 226.422547 
L 361.467088 226.339382 
L 366.042616 226.102925 
L 367.498466 226.302038 
L 368.122402 226.333948 
L 368.538359 226.436136 
L 369.370273 226.377908 
L 369.578252 226.290828 
L 370.202187 226.374577 
L 371.658037 226.473984 
L 372.489952 226.261955 
L 373.321866 226.313796 
L 373.737823 226.298265 
L 375.817609 226.41418 
L 376.233566 226.463872 
L 378.729309 226.634707 
L 379.145266 226.715566 
L 379.97718 226.586876 
L 380.185159 226.525357 
L 380.601116 226.634641 
L 383.512816 226.56197 
L 383.720794 226.452212 
L 384.552709 226.660582 
L 386.008559 226.574158 
L 386.424516 226.601389 
L 388.920259 226.224369 
L 389.336216 226.271272 
L 389.960151 226.28028 
L 390.376109 226.245705 
L 390.792066 226.277297 
L 391.000044 226.171432 
L 392.039937 226.374704 
L 392.871851 226.365757 
L 393.287809 226.295557 
L 394.119723 226.382883 
L 395.783551 226.292103 
L 396.823444 226.076466 
L 397.655358 226.193888 
L 398.487273 226.174418 
L 398.487273 226.174418 
" clip-path="url(#pd53633728e)" style="fill: none; stroke: #1f77b4; stroke-width: 2; stroke-linecap: square"/>
   </g>
   <g id="line2d_30">
    <path d="M 73.832727 259.683249 
L 74.040706 295.488 
L 74.248684 293.373113 
L 74.664642 243.141146 
L 75.080599 221.17209 
L 75.288577 228.273372 
L 75.496556 224.602485 
L 75.704534 226.820182 
L 75.912513 214.916435 
L 76.120492 211.136162 
L 76.32847 213.767575 
L 76.744427 224.47191 
L 76.952406 223.78349 
L 77.160384 229.843558 
L 77.368363 231.042243 
L 77.576342 226.246176 
L 77.78432 226.787747 
L 77.992299 227.64958 
L 78.200277 230.436056 
L 78.408256 229.720232 
L 78.616234 230.802986 
L 78.824213 229.351422 
L 79.448149 237.118448 
L 79.864106 232.541146 
L 80.280063 226.400173 
L 80.488041 230.008857 
L 80.69602 228.666744 
L 80.903999 229.781331 
L 81.111977 228.558334 
L 81.735913 227.466878 
L 81.943891 228.079285 
L 82.15187 228.180008 
L 82.359849 226.53452 
L 82.567827 226.604917 
L 82.983784 223.895616 
L 83.191763 224.093412 
L 83.399741 223.600075 
L 83.60772 222.664535 
L 83.815699 220.288162 
L 84.231656 222.684574 
L 84.855591 220.485629 
L 85.06357 221.843484 
L 85.271549 220.676057 
L 85.479527 220.843521 
L 85.687506 220.118409 
L 85.895484 218.958557 
L 86.103463 219.491618 
L 86.311441 219.402026 
L 86.51942 218.673084 
L 86.727399 218.415671 
L 87.143356 222.937065 
L 87.351334 222.449517 
L 87.559313 223.330108 
L 87.767291 223.249836 
L 87.97527 224.472248 
L 88.183249 224.766244 
L 88.599206 224.112421 
L 88.807184 224.708598 
L 89.015163 224.635738 
L 89.223141 224.772274 
L 89.43112 225.10776 
L 89.639098 224.747336 
L 89.847077 225.116575 
L 90.055056 226.116559 
L 90.263034 226.528019 
L 90.471013 226.113092 
L 90.678991 226.473487 
L 91.094948 228.773412 
L 91.302927 228.554279 
L 91.510906 228.043018 
L 91.718884 228.704478 
L 92.134841 227.218402 
L 92.34282 228.542356 
L 92.550798 227.960273 
L 92.758777 228.370304 
L 92.966756 227.911112 
L 93.382713 228.431055 
L 93.590691 228.439821 
L 93.79867 229.60597 
L 94.006648 229.80448 
L 94.214627 229.654128 
L 94.422606 230.487913 
L 94.838563 230.831216 
L 95.046541 230.687668 
L 95.25452 232.099193 
L 95.878456 233.324893 
L 96.086434 232.507794 
L 96.294413 232.812817 
L 96.502391 232.034688 
L 96.71037 232.163711 
L 96.918348 232.055738 
L 97.126327 233.047202 
L 97.334306 233.267366 
L 97.542284 233.038182 
L 97.958241 234.674886 
L 98.16622 234.624255 
L 98.374198 234.382254 
L 98.582177 233.894402 
L 98.998134 233.701994 
L 99.206113 232.745257 
L 99.414091 233.338078 
L 99.830048 232.673377 
L 100.038027 231.46988 
L 100.453984 231.770508 
L 100.661963 231.747662 
L 100.869941 231.99664 
L 101.07792 231.99744 
L 101.285898 233.047481 
L 101.493877 233.160242 
L 101.701855 233.979692 
L 101.909834 233.190803 
L 102.117813 233.784776 
L 102.325791 233.431226 
L 102.53377 234.174793 
L 102.741748 234.168787 
L 103.157705 234.883606 
L 103.365684 234.152487 
L 103.573663 233.99913 
L 103.781641 233.692436 
L 103.98962 233.668873 
L 104.405577 232.760739 
L 104.613555 232.310753 
L 104.821534 232.751013 
L 105.029513 231.784861 
L 105.237491 231.77765 
L 105.653448 231.356494 
L 105.861427 231.812532 
L 106.069405 231.943022 
L 106.277384 231.760252 
L 106.693341 231.064706 
L 106.90132 231.406547 
L 107.317277 230.99949 
L 107.525255 231.322995 
L 107.733234 231.28131 
L 107.941213 231.401829 
L 108.149191 232.194319 
L 108.35717 231.624174 
L 108.981105 231.176731 
L 109.605041 231.944265 
L 110.020998 232.331226 
L 110.228977 232.081594 
L 110.436955 232.628022 
L 111.060891 232.1865 
L 111.26887 232.901084 
L 111.476848 233.099269 
L 111.892805 232.5404 
L 112.100784 232.771846 
L 112.308762 232.256846 
L 112.516741 232.211258 
L 112.72472 232.703981 
L 112.932698 232.779888 
L 113.140677 232.492933 
L 113.348655 232.707497 
L 113.556634 232.29996 
L 113.972591 233.354991 
L 114.18057 233.883188 
L 114.388548 234.063176 
L 114.596527 234.022724 
L 114.804505 233.52701 
L 115.428441 234.063785 
L 115.63642 234.337256 
L 116.884291 233.819152 
L 117.09227 234.063113 
L 117.300248 233.79925 
L 117.716205 232.772595 
L 117.924184 232.794233 
L 118.132162 232.695502 
L 118.54812 233.186714 
L 118.756098 232.865157 
L 118.964077 232.754305 
L 119.588012 233.518602 
L 119.795991 233.393622 
L 120.211948 233.437896 
L 120.419927 233.825451 
L 120.627905 233.885311 
L 120.835884 233.578622 
L 121.043862 233.671363 
L 121.251841 233.590719 
L 121.459819 233.337748 
L 121.667798 233.636844 
L 121.875777 234.311523 
L 122.083755 233.648303 
L 122.707691 233.113364 
L 123.123648 233.161289 
L 123.331627 232.823905 
L 123.539605 233.199079 
L 124.163541 233.186759 
L 124.579498 233.954588 
L 124.787477 233.806583 
L 124.995455 233.804483 
L 125.203434 233.647596 
L 125.619391 233.545874 
L 125.827369 233.389772 
L 126.451305 233.412977 
L 126.867262 233.877285 
L 127.075241 234.025342 
L 127.491198 233.723286 
L 127.699177 234.030704 
L 127.907155 234.079193 
L 128.115134 234.536225 
L 128.531091 234.529117 
L 128.739069 234.141725 
L 128.947048 234.241329 
L 129.363005 234.17201 
L 129.570984 234.606317 
L 129.778962 234.678753 
L 129.986941 234.536406 
L 130.194919 234.698408 
L 130.402898 234.464146 
L 130.610876 234.507341 
L 130.818855 234.090273 
L 131.026834 234.02046 
L 131.442791 233.552534 
L 131.650769 234.341843 
L 131.858748 234.482622 
L 132.066726 234.216956 
L 132.274705 234.62396 
L 133.106619 234.202678 
L 133.314598 234.158027 
L 133.522576 233.961058 
L 133.730555 234.055048 
L 133.938534 233.576786 
L 134.146512 233.493479 
L 134.354491 233.659197 
L 134.770448 233.526274 
L 135.186405 233.385604 
L 135.394384 233.573435 
L 135.602362 233.309032 
L 135.810341 233.250022 
L 136.018319 232.977025 
L 136.226298 233.177191 
L 136.434276 233.081725 
L 136.850234 233.602373 
L 137.058212 233.205742 
L 137.266191 233.406858 
L 137.682148 233.123255 
L 137.890126 233.331722 
L 138.306084 233.306898 
L 138.514062 233.282752 
L 138.722041 233.480561 
L 138.930019 233.148627 
L 139.137998 233.104449 
L 139.345976 233.247512 
L 139.553955 233.139711 
L 139.761933 233.200865 
L 139.969912 233.115724 
L 140.177891 233.39604 
L 141.009805 233.277023 
L 141.217783 233.472381 
L 141.425762 233.038669 
L 141.633741 233.056799 
L 141.841719 232.838305 
L 142.049698 232.803754 
L 142.465655 233.21615 
L 142.673633 232.829708 
L 143.089591 232.694947 
L 143.505548 233.070775 
L 143.921505 232.875798 
L 144.545441 232.929796 
L 145.585333 232.932329 
L 145.793312 232.698755 
L 146.209269 232.995717 
L 146.417248 233.287398 
L 147.041183 232.838472 
L 147.457141 232.938727 
L 147.665119 232.870241 
L 147.873098 233.128565 
L 148.705012 232.644686 
L 148.912991 232.401193 
L 149.120969 232.619571 
L 149.536926 232.193633 
L 149.744905 232.38207 
L 150.160862 232.422665 
L 150.36884 232.302997 
L 150.576819 232.503723 
L 150.784798 232.52652 
L 150.992776 232.723332 
L 151.408733 232.747233 
L 151.616712 232.406648 
L 151.82469 232.554156 
L 152.240648 232.276589 
L 152.864583 232.189842 
L 153.072562 231.903846 
L 153.696498 231.981443 
L 154.320433 232.42667 
L 154.528412 232.329541 
L 154.73639 232.518168 
L 154.944369 232.516102 
L 155.152348 232.319427 
L 155.360326 232.454132 
L 155.776283 232.290969 
L 155.984262 232.282576 
L 156.19224 232.08647 
L 156.400219 232.102359 
L 156.816176 231.765082 
L 157.024155 231.900015 
L 158.064048 231.652273 
L 158.480005 232.025963 
L 158.687983 232.360288 
L 159.10394 232.07696 
L 159.727876 232.560419 
L 160.143833 232.291411 
L 160.351812 232.784781 
L 160.55979 232.858596 
L 160.767769 232.783287 
L 160.975747 233.010897 
L 162.431597 233.156024 
L 162.639576 232.834567 
L 162.847555 232.915567 
L 163.055533 232.725104 
L 163.263512 232.887148 
L 163.679469 232.9231 
L 163.887447 232.973105 
L 164.095426 232.865981 
L 164.719362 232.96348 
L 165.135319 232.742995 
L 165.343297 232.68332 
L 165.551276 232.422088 
L 165.967233 232.426186 
L 166.38319 231.850375 
L 166.591169 231.809523 
L 166.799147 231.602917 
L 167.215105 231.79066 
L 167.423083 231.784266 
L 167.631062 231.900734 
L 168.254997 231.499872 
L 169.086912 231.53505 
L 169.29489 231.61349 
L 169.502869 231.837857 
L 170.334783 231.515131 
L 170.75074 231.780766 
L 171.166697 231.629355 
L 172.414569 231.945939 
L 172.830526 231.938885 
L 173.66244 232.70946 
L 173.870419 232.622066 
L 174.078397 232.799683 
L 174.286376 232.566686 
L 174.494354 232.63348 
L 174.910312 232.420481 
L 175.326269 232.147632 
L 176.158183 232.502585 
L 176.366162 232.282685 
L 176.782119 232.33823 
L 176.990097 232.123449 
L 177.406054 232.211781 
L 177.822012 232.089539 
L 178.02999 232.220426 
L 178.237969 232.026771 
L 178.653926 232.164062 
L 178.861904 231.926063 
L 179.069883 231.924574 
L 179.277862 231.71074 
L 180.109776 231.776941 
L 180.733711 231.357891 
L 180.94169 231.42593 
L 181.149669 231.279358 
L 181.565626 231.28709 
L 181.773604 231.574307 
L 182.189561 231.486703 
L 182.39754 231.670811 
L 182.813497 231.758929 
L 183.229454 231.852575 
L 183.437433 231.80567 
L 184.269347 232.299539 
L 184.685304 232.388541 
L 185.517219 232.487731 
L 185.725197 232.445463 
L 186.349133 232.982941 
L 186.76509 232.693149 
L 187.181047 232.753394 
L 187.597004 232.77455 
L 188.012961 232.601817 
L 188.22094 232.465133 
L 188.428919 232.565348 
L 188.844876 232.401885 
L 189.052854 232.442773 
L 189.260833 232.317165 
L 189.468811 232.447481 
L 190.092747 232.404676 
L 190.508704 232.543148 
L 190.924661 232.17629 
L 191.13264 232.364313 
L 191.340618 232.255716 
L 192.380511 232.77997 
L 192.58849 232.699708 
L 192.796468 232.802549 
L 193.004447 232.758161 
L 193.628383 233.311355 
L 194.252318 233.657653 
L 194.460297 233.606367 
L 194.876254 233.716676 
L 195.292211 233.340365 
L 195.50019 233.423994 
L 195.708168 233.210078 
L 197.164018 232.884748 
L 197.371997 232.679001 
L 197.579976 232.893155 
L 197.995933 232.853722 
L 198.203911 233.056984 
L 198.827847 232.981868 
L 199.451783 232.957598 
L 199.659761 233.165925 
L 200.075718 233.017915 
L 200.283697 233.025412 
L 200.699654 232.745445 
L 202.363483 233.501736 
L 203.611354 233.149667 
L 203.819333 233.199474 
L 204.443268 233.042522 
L 204.651247 233.151266 
L 204.859225 233.067449 
L 205.275183 233.336889 
L 205.483161 233.132462 
L 206.523054 233.300006 
L 207.14699 233.71166 
L 207.354968 233.628772 
L 207.770925 233.629881 
L 208.186883 233.482317 
L 208.394861 233.485428 
L 209.018797 233.91593 
L 209.642733 233.663502 
L 210.682625 233.795313 
L 211.098582 233.672731 
L 211.51454 233.610796 
L 211.722518 233.479227 
L 212.138475 233.563477 
L 212.762411 233.34389 
L 213.594325 233.505273 
L 213.802304 233.696718 
L 214.842197 233.885865 
L 215.050175 233.722612 
L 215.466132 233.842247 
L 216.298047 233.845301 
L 216.921982 233.793231 
L 217.129961 233.861481 
L 217.545918 233.72495 
L 217.961875 233.608574 
L 218.377832 233.458243 
L 219.417725 233.725685 
L 219.625704 233.977931 
L 219.833682 233.992619 
L 220.24964 233.884452 
L 220.457618 233.961689 
L 220.873575 233.884968 
L 221.913468 233.7577 
L 222.329425 233.46433 
L 224.409211 233.309972 
L 225.033147 233.460965 
L 225.657082 233.681163 
L 226.073039 233.744422 
L 226.488997 233.810485 
L 227.528889 233.727825 
L 227.944847 234.083727 
L 228.360804 234.131942 
L 228.568782 234.044468 
L 228.984739 234.064222 
L 230.232611 233.812532 
L 230.440589 233.882182 
L 230.648568 233.829601 
L 230.856547 233.994249 
L 232.728354 233.531723 
L 233.352289 233.172994 
L 234.600161 232.792601 
L 234.808139 232.628666 
L 236.056011 232.731077 
L 236.679946 232.899425 
L 239.383668 233.042756 
L 239.591646 233.035036 
L 239.799625 233.154667 
L 240.631539 233.092041 
L 241.047496 233.280167 
L 242.711325 233.189373 
L 243.335261 232.913477 
L 244.167175 233.16605 
L 244.791111 233.097509 
L 245.415046 233.074968 
L 246.454939 233.216294 
L 247.078875 233.021337 
L 248.118768 233.016772 
L 248.326746 233.079516 
L 248.534725 232.932102 
L 248.950682 233.184216 
L 249.158661 233.041724 
L 249.574618 233.195412 
L 249.990575 233.001614 
L 250.822489 232.955583 
L 251.030468 232.775579 
L 251.654403 232.789702 
L 252.278339 232.64913 
L 252.486318 232.663877 
L 252.694296 232.553666 
L 253.52621 232.772393 
L 253.734189 232.810183 
L 254.150146 232.759672 
L 256.645889 232.841653 
L 256.853868 232.718965 
L 258.101739 232.844093 
L 258.309718 232.922445 
L 258.933653 232.754312 
L 259.34961 232.881495 
L 260.181525 232.972597 
L 261.013439 233.175482 
L 261.845353 233.04367 
L 263.509182 232.636001 
L 263.925139 232.706706 
L 264.341096 232.538447 
L 264.757053 232.524819 
L 265.17301 232.452814 
L 265.588967 232.395791 
L 265.796946 232.245879 
L 266.212903 232.192974 
L 266.420882 232.049406 
L 268.08471 232.339383 
L 268.292689 232.22869 
L 268.708646 232.181406 
L 269.54056 232.212116 
L 269.956517 232.184526 
L 270.788432 231.830339 
L 272.45226 231.394404 
L 272.660239 231.472232 
L 272.868217 231.309365 
L 273.284174 231.371972 
L 275.987896 231.581817 
L 276.195874 231.517336 
L 276.611832 231.633084 
L 277.027789 231.529549 
L 278.691617 231.114165 
L 278.899596 230.947125 
L 279.315553 230.910186 
L 279.523532 230.826825 
L 279.73151 230.969456 
L 282.019274 231.042304 
L 282.227253 230.923773 
L 282.64321 230.913945 
L 282.851189 230.92986 
L 283.267146 230.792715 
L 284.09906 230.745126 
L 284.515017 230.774421 
L 284.930974 230.701821 
L 285.138953 230.695697 
L 285.346931 230.559972 
L 285.762889 230.581844 
L 285.970867 230.632239 
L 286.178846 230.539801 
L 286.802781 230.552213 
L 288.050653 230.519009 
L 288.46661 230.621734 
L 288.674589 230.550679 
L 289.506503 230.794456 
L 290.962353 230.29987 
L 292.626181 230.726093 
L 293.042138 230.634524 
L 293.458096 230.644398 
L 293.666074 230.477564 
L 294.082031 230.488362 
L 294.705967 230.577461 
L 296.369796 230.540375 
L 296.993731 230.546774 
L 297.409688 230.562562 
L 297.825646 230.60663 
L 298.449581 230.476497 
L 299.905431 230.501404 
L 300.11341 230.371434 
L 300.945324 230.36261 
L 301.777238 230.299573 
L 302.193196 230.34017 
L 302.609153 230.263298 
L 303.02511 230.128786 
L 303.233088 230.109904 
L 303.649045 230.289207 
L 303.857024 230.220488 
L 305.104895 230.432662 
L 305.93681 230.220347 
L 306.560745 230.155716 
L 306.976703 230.091162 
L 307.184681 230.031137 
L 308.224574 230.330154 
L 308.84851 230.339356 
L 309.472445 230.389484 
L 310.096381 230.491794 
L 311.552231 230.659154 
L 311.76021 230.550698 
L 311.968188 230.598086 
L 312.384145 230.451672 
L 312.800102 230.466001 
L 313.839995 230.468782 
L 315.711802 230.349865 
L 315.919781 230.389743 
L 316.12776 230.306734 
L 316.959674 230.473172 
L 317.58361 230.426501 
L 318.207545 230.500669 
L 318.415524 230.413935 
L 318.831481 230.603943 
L 320.49531 230.564444 
L 323.199031 231.018535 
L 325.070838 231.037745 
L 325.278817 231.075822 
L 325.694774 230.837388 
L 326.110731 230.842455 
L 326.526688 230.704765 
L 326.942645 230.76754 
L 327.774559 230.785935 
L 328.398495 230.794992 
L 328.814452 230.8049 
L 329.438388 230.817434 
L 330.478281 230.636457 
L 331.726152 230.449726 
L 333.182002 230.281257 
L 335.053809 230.008269 
L 335.885724 230.152643 
L 337.133595 230.041373 
L 337.341574 230.14679 
L 337.549552 230.0358 
L 338.381466 230.126102 
L 338.797424 230.110609 
L 339.005402 230.201567 
L 340.253274 230.047652 
L 341.293166 230.364957 
L 341.501145 230.208585 
L 343.164974 230.151114 
L 343.996888 230.090025 
L 344.412845 230.153227 
L 345.244759 230.20726 
L 346.700609 230.357047 
L 347.532523 230.148856 
L 350.028266 230.103361 
L 350.652202 230.149451 
L 351.068159 230.23366 
L 351.900073 230.032591 
L 352.316031 230.069809 
L 352.731988 230.005024 
L 353.147945 230.009143 
L 353.77188 229.980683 
L 354.603795 229.958837 
L 355.435709 230.046146 
L 355.851666 229.933403 
L 356.267623 230.001846 
L 357.099538 229.832036 
L 359.803259 229.659671 
L 361.05113 229.740845 
L 361.467088 229.655196 
L 365.41868 229.437539 
L 369.370273 229.645901 
L 369.578252 229.558178 
L 370.202187 229.638462 
L 371.658037 229.728729 
L 372.489952 229.512994 
L 373.321866 229.560403 
L 373.737823 229.542447 
L 375.817609 229.64723 
L 376.233566 229.694563 
L 378.729309 229.852868 
L 379.145266 229.931951 
L 379.97718 229.800276 
L 380.185159 229.738128 
L 380.601116 229.84503 
L 383.512816 229.758149 
L 383.720794 229.647673 
L 384.552709 229.852187 
L 386.008559 229.758242 
L 386.424516 229.78353 
L 388.920259 229.394555 
L 389.336216 229.439355 
L 389.960151 229.445052 
L 390.376109 229.40859 
L 390.792066 229.437741 
L 391.000044 229.331034 
L 392.039937 229.528209 
L 392.871851 229.515274 
L 393.287809 229.442885 
L 394.119723 229.52656 
L 395.783551 229.429214 
L 396.823444 229.20817 
L 397.655358 229.320804 
L 398.487273 229.297815 
L 398.487273 229.297815 
" clip-path="url(#pd53633728e)" style="fill: none; stroke: #ff7f0e; stroke-linecap: square"/>
   </g>
   <g id="line2d_31">
    <path d="M 73.832727 53.568 
L 74.040706 128.954664 
L 74.248684 156.216054 
L 74.664642 134.177398 
L 75.080599 126.118688 
L 75.288577 137.571628 
L 75.496556 139.710072 
L 75.704534 147.805671 
L 75.912513 139.294223 
L 76.120492 137.85082 
L 76.32847 143.112762 
L 76.744427 159.046723 
L 76.952406 160.772418 
L 77.160384 168.081808 
L 77.368363 171.17635 
L 77.576342 168.432476 
L 77.992299 172.727724 
L 78.200277 176.997431 
L 78.408256 177.656353 
L 78.616234 179.71684 
L 78.824213 179.17419 
L 79.448149 189.853023 
L 79.656127 188.989504 
L 80.280063 182.076661 
L 80.488041 186.446632 
L 80.69602 185.862046 
L 80.903999 187.548583 
L 81.111977 187.144269 
L 81.735913 187.789714 
L 82.15187 189.57321 
L 82.359849 188.403664 
L 82.567827 188.813657 
L 82.983784 186.870553 
L 83.191763 187.661664 
L 83.399741 187.552224 
L 83.60772 187.033377 
L 83.815699 185.036718 
L 84.231656 188.087543 
L 84.647613 187.543416 
L 84.855591 186.672169 
L 85.06357 188.356451 
L 85.271549 187.447261 
L 85.479527 187.902384 
L 85.687506 187.479997 
L 85.895484 186.582879 
L 86.103463 187.334123 
L 86.311441 187.472307 
L 86.51942 186.966577 
L 86.727399 186.926245 
L 87.143356 191.938193 
L 87.351334 191.555269 
L 87.559313 192.768698 
L 87.767291 192.991786 
L 87.97527 194.428746 
L 88.183249 194.858796 
L 88.599206 194.679881 
L 88.807184 195.525246 
L 89.015163 195.683628 
L 89.43112 196.597899 
L 89.639098 196.414318 
L 89.847077 196.949389 
L 90.263034 198.620946 
L 90.471013 198.399949 
L 90.678991 198.931585 
L 91.094948 201.69094 
L 91.302927 201.641599 
L 91.510906 201.33579 
L 91.718884 202.139774 
L 91.926863 201.321512 
L 92.134841 200.965242 
L 92.34282 202.397261 
L 92.550798 201.969093 
L 92.758777 202.483763 
L 92.966756 202.165932 
L 93.382713 202.969125 
L 93.590691 203.079043 
L 93.79867 204.368913 
L 94.006648 204.725944 
L 94.214627 204.696097 
L 94.422606 205.684039 
L 94.838563 206.342628 
L 95.046541 206.320828 
L 95.25452 207.824688 
L 95.878456 209.464246 
L 96.086434 208.743881 
L 96.294413 209.149129 
L 96.502391 208.478321 
L 96.71037 208.73744 
L 96.918348 208.674728 
L 97.126327 209.770016 
L 97.334306 210.084142 
L 97.542284 209.985137 
L 97.958241 211.817763 
L 98.16622 211.826078 
L 98.374198 211.703076 
L 98.582177 211.305235 
L 98.998134 211.304785 
L 99.206113 210.450571 
L 99.414091 211.135302 
L 99.830048 210.652368 
L 100.038027 209.543293 
L 100.453984 209.98188 
L 100.661963 210.026504 
L 100.869941 210.348399 
L 101.07792 210.432746 
L 101.285898 211.553554 
L 101.493877 211.736061 
L 101.701855 212.649371 
L 101.909834 211.915962 
L 102.117813 212.575133 
L 102.325791 212.302857 
L 102.53377 213.128987 
L 102.741748 213.192214 
L 103.157705 214.064626 
L 103.365684 213.416977 
L 103.98962 213.144463 
L 104.197598 212.589403 
L 104.405577 212.369704 
L 104.613555 211.972566 
L 104.821534 212.504451 
L 105.029513 211.60027 
L 105.237491 211.647881 
L 105.653448 211.332242 
L 105.861427 211.848506 
L 106.069405 212.04631 
L 106.277384 211.916301 
L 106.693341 211.341734 
L 106.90132 211.741405 
L 107.317277 211.468724 
L 107.525255 211.868651 
L 107.733234 211.89977 
L 107.941213 212.088694 
L 108.149191 212.932824 
L 108.35717 212.416845 
L 108.981105 212.19235 
L 109.605041 213.154398 
L 110.020998 213.64381 
L 110.228977 213.44991 
L 110.436955 214.060819 
L 111.060891 213.735956 
L 111.26887 214.510174 
L 111.476848 214.739825 
L 111.892805 214.330428 
L 112.100784 214.618269 
L 112.308762 214.138389 
L 112.516741 214.145742 
L 112.72472 214.694207 
L 112.932698 214.813476 
L 113.140677 214.578942 
L 113.348655 214.841771 
L 113.556634 214.470926 
L 113.972591 215.618002 
L 114.18057 216.192643 
L 114.388548 216.415968 
L 114.596527 216.424332 
L 114.804505 215.96588 
L 115.428441 216.63381 
L 115.63642 216.942763 
L 116.884291 216.663322 
L 117.09227 216.944269 
L 117.300248 216.719615 
L 117.716205 215.740831 
L 117.924184 215.802762 
L 118.132162 215.741647 
L 118.54812 216.320017 
L 118.756098 216.029841 
L 118.964077 215.967691 
L 119.588012 216.855303 
L 119.795991 216.769877 
L 120.211948 216.889326 
L 120.419927 217.324146 
L 120.627905 217.421739 
L 120.835884 217.14587 
L 121.043862 217.281642 
L 121.251841 217.234048 
L 121.459819 217.025961 
L 121.667798 217.360102 
L 121.875777 218.063037 
L 122.083755 217.426997 
L 122.707691 216.979783 
L 123.123648 217.09483 
L 123.331627 216.790031 
L 123.539605 217.191595 
L 124.163541 217.292325 
L 124.579498 218.114293 
L 124.787477 217.993134 
L 124.995455 218.030455 
L 125.203434 217.907724 
L 125.619391 217.883123 
L 125.827369 217.765013 
L 126.451305 217.871772 
L 126.867262 218.408316 
L 127.075241 218.592537 
L 127.491198 218.361035 
L 127.699177 218.703072 
L 127.907155 218.773733 
L 128.115134 219.263043 
L 128.531091 219.303583 
L 128.739069 218.952608 
L 128.947048 219.082069 
L 129.363005 219.071017 
L 129.570984 219.538657 
L 129.778962 219.624504 
L 129.986941 219.516542 
L 130.194919 219.711222 
L 130.402898 219.506596 
L 130.610876 219.577121 
L 130.818855 219.189002 
L 131.026834 219.154628 
L 131.442791 218.742725 
L 131.650769 219.549085 
L 131.858748 219.705729 
L 132.066726 219.471282 
L 132.274705 219.908201 
L 133.106619 219.579885 
L 133.314598 219.561511 
L 133.522576 219.397358 
L 133.730555 219.515113 
L 133.938534 219.060314 
L 134.146512 218.995597 
L 134.354491 219.18858 
L 134.770448 219.09108 
L 135.186405 218.996444 
L 135.394384 219.217348 
L 135.602362 218.978067 
L 135.810341 218.941602 
L 136.018319 218.687661 
L 136.226298 218.913517 
L 136.434276 218.847343 
L 136.850234 219.406222 
L 137.058212 219.028388 
L 137.266191 219.25358 
L 137.682148 219.018394 
L 137.890126 219.254315 
L 138.306084 219.283394 
L 138.514062 219.278941 
L 138.722041 219.491873 
L 138.930019 219.169127 
L 139.137998 219.148081 
L 139.345976 219.302553 
L 139.553955 219.211891 
L 139.761933 219.302908 
L 139.969912 219.23501 
L 140.177891 219.539005 
L 141.009805 219.49294 
L 141.217783 219.70513 
L 141.425762 219.291054 
L 141.633741 219.334917 
L 141.841719 219.1358 
L 142.049698 219.121223 
L 142.465655 219.570555 
L 142.673633 219.199723 
L 143.089591 219.104389 
L 143.505548 219.531396 
L 143.921505 219.381033 
L 144.545441 219.501629 
L 145.585333 219.616489 
L 145.793312 219.403517 
L 146.209269 219.7408 
L 146.417248 220.056001 
L 147.041183 219.652699 
L 147.457141 219.789558 
L 147.665119 219.739825 
L 147.873098 220.02129 
L 148.705012 219.61226 
L 148.912991 219.385732 
L 149.120969 219.623517 
L 149.536926 219.229838 
L 149.744905 219.439268 
L 150.160862 219.510014 
L 150.36884 219.412636 
L 150.576819 219.631546 
L 150.784798 219.669265 
L 150.992776 219.887537 
L 151.408733 219.950691 
L 151.616712 219.628956 
L 151.82469 219.798673 
L 152.240648 219.551712 
L 152.864583 219.518366 
L 153.072562 219.248858 
L 153.696498 219.370996 
L 154.320433 219.870151 
L 154.528412 219.790591 
L 154.73639 219.997991 
L 154.944369 220.014361 
L 155.152348 219.827616 
L 155.360326 219.97146 
L 155.776283 219.842582 
L 155.984262 219.853439 
L 156.19224 219.673221 
L 156.400219 219.707121 
L 156.816176 219.401032 
L 157.024155 219.54458 
L 158.064048 219.357374 
L 158.480005 219.765741 
L 158.687983 220.115299 
L 159.10394 219.862289 
L 159.727876 220.390845 
L 160.143833 220.147733 
L 160.351812 220.655027 
L 160.55979 220.743446 
L 160.767769 220.683424 
L 160.975747 220.927513 
L 162.223619 221.006915 
L 162.431597 221.18016 
L 162.639576 220.875255 
L 162.847555 220.971922 
L 163.055533 220.797673 
L 163.263512 220.979531 
L 163.679469 221.04426 
L 163.887447 221.110056 
L 164.095426 221.018867 
L 164.719362 221.153079 
L 165.135319 220.950119 
L 165.343297 220.90182 
L 165.551276 220.651033 
L 165.967233 220.683635 
L 166.38319 220.125378 
L 166.591169 220.094094 
L 166.799147 219.900799 
L 167.215105 220.112535 
L 167.423083 220.122727 
L 167.631062 220.255311 
L 168.254997 219.893265 
L 169.086912 219.969141 
L 169.29489 220.061409 
L 169.502869 220.296025 
L 170.334783 220.019016 
L 170.75074 220.31586 
L 171.166697 220.190671 
L 172.20659 220.579562 
L 172.830526 220.590946 
L 173.66244 221.412207 
L 173.870419 221.332705 
L 174.078397 221.52448 
L 174.286376 221.30332 
L 174.494354 221.383761 
L 174.910312 221.192173 
L 175.326269 220.944417 
L 176.158183 221.345992 
L 176.366162 221.135072 
L 176.782119 221.208535 
L 176.990097 220.999983 
L 177.406054 221.109682 
L 177.822012 221.011264 
L 178.02999 221.152569 
L 178.237969 220.967716 
L 178.653926 221.129038 
L 178.861904 220.897105 
L 179.069883 220.905328 
L 179.277862 220.692096 
L 180.109776 220.805307 
L 180.525733 220.33437 
L 180.94169 220.495996 
L 181.149669 220.357149 
L 181.565626 220.390276 
L 181.773604 220.686323 
L 182.189561 220.617011 
L 182.39754 220.814595 
L 182.605519 220.813296 
L 183.229454 221.036592 
L 183.437433 220.998422 
L 184.269347 221.530452 
L 184.685304 221.638946 
L 185.933176 221.908031 
L 186.349133 222.322234 
L 186.76509 222.051166 
L 187.181047 222.131681 
L 187.597004 222.177324 
L 188.012961 222.024399 
L 188.22094 221.89823 
L 188.428919 222.008274 
L 188.844876 221.864949 
L 189.052854 221.917599 
L 189.260833 221.803045 
L 189.468811 221.943745 
L 190.092747 221.931408 
L 190.508704 222.090742 
L 190.924661 221.741113 
L 191.13264 221.937982 
L 191.340618 221.834993 
L 192.380511 222.403745 
L 192.58849 222.332971 
L 192.796468 222.444499 
L 193.004447 222.407694 
L 193.628383 222.988602 
L 194.252318 223.366585 
L 194.460297 223.324176 
L 194.876254 223.454418 
L 195.292211 223.091207 
L 195.50019 223.186052 
L 195.708168 222.977599 
L 197.164018 222.716971 
L 197.371997 222.521122 
L 197.579976 222.746409 
L 197.995933 222.727344 
L 198.203911 222.937358 
L 198.827847 222.888147 
L 199.451783 222.887479 
L 199.659761 223.10471 
L 200.075718 222.970454 
L 200.283697 222.987483 
L 200.699654 222.71826 
L 202.363483 223.543193 
L 203.611354 223.23369 
L 203.819333 223.290674 
L 204.443268 223.158548 
L 204.651247 223.274025 
L 204.859225 223.199706 
L 205.275183 223.482496 
L 205.483161 223.284243 
L 206.523054 223.48494 
L 207.14699 223.922352 
L 207.354968 223.846612 
L 207.770925 223.862979 
L 208.186883 223.729647 
L 208.394861 223.741503 
L 209.018797 224.193982 
L 209.434754 224.049434 
L 209.642733 223.967025 
L 210.682625 224.141063 
L 211.098582 224.033182 
L 211.51454 223.986426 
L 211.722518 223.862799 
L 212.138475 223.963887 
L 212.762411 223.766372 
L 213.594325 223.950778 
L 214.010282 224.19555 
L 214.42624 224.281954 
L 214.842197 224.371974 
L 215.050175 224.214498 
L 215.466132 224.351264 
L 216.298047 224.384477 
L 216.921982 224.355161 
L 217.129961 224.430467 
L 217.545918 224.306204 
L 217.961875 224.203084 
L 218.377832 224.064968 
L 219.417725 224.368642 
L 219.625704 224.624043 
L 219.833682 224.646235 
L 220.24964 224.551143 
L 220.457618 224.633947 
L 220.873575 224.56858 
L 221.913468 224.468192 
L 222.329425 224.18575 
L 224.825168 224.11465 
L 225.241125 224.377036 
L 226.696975 224.665843 
L 227.528889 224.62511 
L 227.944847 224.99097 
L 228.360804 225.05393 
L 228.568782 224.973376 
L 228.984739 225.00784 
L 230.232611 224.78972 
L 230.440589 224.866094 
L 230.648568 224.817621 
L 230.856547 224.987842 
L 232.728354 224.575916 
L 233.144311 224.260918 
L 234.392182 223.985098 
L 235.224096 223.654533 
L 235.848032 223.861605 
L 236.263989 223.954445 
L 236.887925 224.071641 
L 237.303882 224.139221 
L 237.511861 224.224814 
L 237.927818 224.142493 
L 240.839518 224.477658 
L 241.463453 224.636507 
L 241.879411 224.629665 
L 243.335261 224.248375 
L 244.167175 224.52562 
L 244.791111 224.473832 
L 245.415046 224.466403 
L 246.454939 224.636683 
L 246.870896 224.490813 
L 247.702811 224.366125 
L 247.910789 224.501416 
L 248.742703 224.522251 
L 248.950682 224.667846 
L 249.158661 224.530326 
L 249.574618 224.692315 
L 249.990575 224.50823 
L 250.822489 224.482666 
L 251.030468 224.305429 
L 251.654403 224.331886 
L 252.278339 224.206488 
L 252.486318 224.224539 
L 252.694296 224.120591 
L 253.52621 224.362225 
L 253.734189 224.405356 
L 254.150146 224.366339 
L 256.645889 224.516935 
L 256.853868 224.400228 
L 260.389503 224.797617 
L 260.80546 224.936719 
L 261.221418 224.897877 
L 262.885246 224.613084 
L 263.093225 224.427873 
L 263.925139 224.547685 
L 264.341096 224.386643 
L 264.757053 224.380893 
L 265.17301 224.317357 
L 265.588967 224.268952 
L 265.796946 224.123437 
L 266.212903 224.079393 
L 266.420882 223.938302 
L 268.08471 224.26703 
L 268.292689 224.160885 
L 268.708646 224.120851 
L 269.54056 224.17013 
L 269.956517 224.146824 
L 270.788432 223.809598 
L 272.45226 223.408001 
L 272.660239 223.491177 
L 272.868217 223.332592 
L 273.284174 223.40298 
L 275.987896 223.670611 
L 276.195874 223.610263 
L 276.611832 223.735909 
L 277.027789 223.640675 
L 278.691617 223.255625 
L 278.899596 223.092301 
L 279.315553 223.061984 
L 279.523532 222.983085 
L 279.73151 223.130043 
L 282.019274 223.245928 
L 282.227253 223.13126 
L 282.64321 223.126883 
L 282.851189 223.146609 
L 283.267146 223.015964 
L 284.09906 222.983015 
L 284.515017 223.020678 
L 284.930974 222.9559 
L 285.138953 222.954079 
L 285.346931 222.823321 
L 285.762889 222.85255 
L 285.970867 222.906572 
L 286.178846 222.818997 
L 286.802781 222.843008 
L 288.050653 222.837779 
L 288.46661 222.948244 
L 288.674589 222.881694 
L 289.506503 223.141017 
L 290.962353 222.670775 
L 292.626181 223.127223 
L 293.042138 223.040649 
L 293.458096 223.058619 
L 293.666074 222.893779 
L 294.082031 222.910032 
L 294.705967 223.009537 
L 296.369796 223.003292 
L 296.993731 223.021279 
L 297.409688 223.04544 
L 297.825646 223.096338 
L 298.449581 222.975761 
L 299.905431 223.025133 
L 300.11341 222.89651 
L 300.945324 222.900554 
L 301.777238 222.850493 
L 302.401174 222.89161 
L 303.233088 222.686176 
L 303.649045 222.872567 
L 303.857024 222.806124 
L 305.104895 223.036171 
L 305.93681 222.833978 
L 306.352767 222.83959 
L 307.184681 222.663969 
L 308.224574 222.977415 
L 308.84851 222.99733 
L 309.472445 223.055741 
L 310.096381 223.169892 
L 311.552231 223.363431 
L 311.76021 223.25681 
L 311.968188 223.306321 
L 312.384145 223.165261 
L 312.800102 223.185691 
L 313.839995 223.205841 
L 315.711802 223.112359 
L 315.919781 223.156324 
L 316.12776 223.076787 
L 316.959674 223.256986 
L 317.58361 223.221159 
L 318.207545 223.30589 
L 318.415524 223.22124 
L 318.831481 223.41724 
L 320.49531 223.406222 
L 323.199031 223.899528 
L 325.070838 223.947217 
L 325.278817 223.987932 
L 325.694774 223.75434 
L 326.110731 223.766383 
L 326.526688 223.634253 
L 326.942645 223.702753 
L 327.774559 223.733216 
L 328.398495 223.749297 
L 328.814452 223.765149 
L 329.438388 223.786247 
L 330.478281 223.619295 
L 331.726152 223.447725 
L 333.182002 223.296708 
L 335.053809 223.049838 
L 335.885724 223.206623 
L 337.133595 223.111323 
L 337.341574 223.219905 
L 337.549552 223.110534 
L 338.381466 223.21309 
L 338.797424 223.204376 
L 339.005402 223.298315 
L 340.253274 223.160963 
L 341.293166 223.490918 
L 341.501145 223.336576 
L 343.164974 223.300355 
L 343.996888 223.251384 
L 344.412845 223.321263 
L 345.244759 223.38581 
L 346.700609 223.555144 
L 347.532523 223.354939 
L 350.028266 223.339409 
L 350.652202 223.392988 
L 351.068159 223.481664 
L 351.900073 223.288942 
L 352.316031 223.33215 
L 352.731988 223.271746 
L 353.147945 223.281829 
L 353.77188 223.262168 
L 354.603795 223.250497 
L 355.435709 223.348065 
L 355.851666 223.239298 
L 356.267623 223.311881 
L 357.099538 223.15014 
L 359.59528 222.993039 
L 361.467088 223.023569 
L 366.042616 222.814549 
L 367.498466 223.023018 
L 368.122402 223.058861 
L 368.538359 223.163997 
L 369.370273 223.109916 
L 369.578252 223.023478 
L 370.202187 223.110691 
L 371.658037 223.219239 
L 372.489952 223.010917 
L 373.321866 223.067189 
L 373.737823 223.054082 
L 375.817609 223.18113 
L 376.233566 223.233182 
L 378.729309 223.416545 
L 379.145266 223.499182 
L 379.97718 223.373476 
L 380.185159 223.312587 
L 380.601116 223.424252 
L 383.512816 223.36579 
L 383.720794 223.256752 
L 384.552709 223.468977 
L 385.80058 223.378523 
L 386.840473 223.360648 
L 388.088344 223.06255 
L 388.504301 223.075724 
L 388.920259 223.054183 
L 389.336216 223.10319 
L 389.960151 223.115507 
L 390.376109 223.082819 
L 390.792066 223.116853 
L 391.000044 223.01183 
L 392.039937 223.2212 
L 392.871851 223.21624 
L 393.287809 223.148228 
L 394.119723 223.239206 
L 395.783551 223.154992 
L 396.823444 222.944762 
L 397.655358 223.066972 
L 398.487273 223.051022 
L 398.487273 223.051022 
" clip-path="url(#pd53633728e)" style="fill: none; stroke: #ff7f0e; stroke-linecap: square"/>
   </g>
   <g id="patch_3">
    <path d="M 57.6 307.584 
L 57.6 41.472 
" style="fill: none; stroke: #000000; stroke-width: 0.8; stroke-linejoin: miter; stroke-linecap: square"/>
   </g>
   <g id="patch_4">
    <path d="M 414.72 307.584 
L 414.72 41.472 
" style="fill: none; stroke: #000000; stroke-width: 0.8; stroke-linejoin: miter; stroke-linecap: square"/>
   </g>
   <g id="patch_5">
    <path d="M 57.6 307.584 
L 414.72 307.584 
" style="fill: none; stroke: #000000; stroke-width: 0.8; stroke-linejoin: miter; stroke-linecap: square"/>
   </g>
   <g id="patch_6">
    <path d="M 57.6 41.472 
L 414.72 41.472 
" style="fill: none; stroke: #000000; stroke-width: 0.8; stroke-linejoin: miter; stroke-linecap: square"/>
   </g>
   <g id="legend_1">
    <g id="patch_7">
     <path d="M 271.43875 80.82825 
L 409.72 80.82825 
Q 411.72 80.82825 411.72 78.82825 
L 411.72 50.472 
Q 411.72 48.472 409.72 48.472 
L 271.43875 48.472 
Q 269.43875 48.472 269.43875 50.472 
L 269.43875 78.82825 
Q 269.43875 80.82825 271.43875 80.82825 
z
" style="fill: #4d4d4d; opacity: 0.5; stroke: #4d4d4d; stroke-linejoin: miter"/>
    </g>
    <g id="patch_8">
     <path d="M 269.43875 78.82825 
L 407.72 78.82825 
Q 409.72 78.82825 409.72 76.82825 
L 409.72 48.472 
Q 409.72 46.472 407.72 46.472 
L 269.43875 46.472 
Q 267.43875 46.472 267.43875 48.472 
L 267.43875 76.82825 
Q 267.43875 78.82825 269.43875 78.82825 
z
" style="fill: #ffffff; stroke: #cccccc; stroke-linejoin: miter"/>
    </g>
    <g id="line2d_32">
     <path d="M 271.43875 54.570437 
L 281.43875 54.570437 
L 291.43875 54.570437 
" style="fill: none; stroke: #1f77b4; stroke-width: 2; stroke-linecap: square"/>
    </g>
    <g id="text_17">
     <!-- expectation estimate -->
     <g transform="translate(299.43875 58.070437) scale(0.1 -0.1)">
      <defs>
       <path id="DejaVuSans-78" d="M 3513 3500 
L 2247 1797 
L 3578 0 
L 2900 0 
L 1881 1375 
L 863 0 
L 184 0 
L 1544 1831 
L 300 3500 
L 978 3500 
L 1906 2253 
L 2834 3500 
L 3513 3500 
z
" transform="scale(0.015625)"/>
       <path id="DejaVuSans-70" d="M 1159 525 
L 1159 -1331 
L 581 -1331 
L 581 3500 
L 1159 3500 
L 1159 2969 
Q 1341 3281 1617 3432 
Q 1894 3584 2278 3584 
Q 2916 3584 3314 3078 
Q 3713 2572 3713 1747 
Q 3713 922 3314 415 
Q 2916 -91 2278 -91 
Q 1894 -91 1617 61 
Q 1341 213 1159 525 
z
M 3116 1747 
Q 3116 2381 2855 2742 
Q 2594 3103 2138 3103 
Q 1681 3103 1420 2742 
Q 1159 2381 1159 1747 
Q 1159 1113 1420 752 
Q 1681 391 2138 391 
Q 2594 391 2855 752 
Q 3116 1113 3116 1747 
z
" transform="scale(0.015625)"/>
       <path id="DejaVuSans-63" d="M 3122 3366 
L 3122 2828 
Q 2878 2963 2633 3030 
Q 2388 3097 2138 3097 
Q 1578 3097 1268 2742 
Q 959 2388 959 1747 
Q 959 1106 1268 751 
Q 1578 397 2138 397 
Q 2388 397 2633 464 
Q 2878 531 3122 666 
L 3122 134 
Q 2881 22 2623 -34 
Q 2366 -91 2075 -91 
Q 1284 -91 818 406 
Q 353 903 353 1747 
Q 353 2603 823 3093 
Q 1294 3584 2113 3584 
Q 2378 3584 2631 3529 
Q 2884 3475 3122 3366 
z
" transform="scale(0.015625)"/>
      </defs>
      <use xlink:href="#DejaVuSans-65"/>
      <use xlink:href="#DejaVuSans-78" transform="translate(59.773438 0)"/>
      <use xlink:href="#DejaVuSans-70" transform="translate(118.953125 0)"/>
      <use xlink:href="#DejaVuSans-65" transform="translate(182.429688 0)"/>
      <use xlink:href="#DejaVuSans-63" transform="translate(243.953125 0)"/>
      <use xlink:href="#DejaVuSans-74" transform="translate(298.933594 0)"/>
      <use xlink:href="#DejaVuSans-61" transform="translate(338.142578 0)"/>
      <use xlink:href="#DejaVuSans-74" transform="translate(399.421875 0)"/>
      <use xlink:href="#DejaVuSans-69" transform="translate(438.630859 0)"/>
      <use xlink:href="#DejaVuSans-6f" transform="translate(466.414062 0)"/>
      <use xlink:href="#DejaVuSans-6e" transform="translate(527.595703 0)"/>
      <use xlink:href="#DejaVuSans-20" transform="translate(590.974609 0)"/>
      <use xlink:href="#DejaVuSans-65" transform="translate(622.761719 0)"/>
      <use xlink:href="#DejaVuSans-73" transform="translate(684.285156 0)"/>
      <use xlink:href="#DejaVuSans-74" transform="translate(736.384766 0)"/>
      <use xlink:href="#DejaVuSans-69" transform="translate(775.59375 0)"/>
      <use xlink:href="#DejaVuSans-6d" transform="translate(803.376953 0)"/>
      <use xlink:href="#DejaVuSans-61" transform="translate(900.789062 0)"/>
      <use xlink:href="#DejaVuSans-74" transform="translate(962.068359 0)"/>
      <use xlink:href="#DejaVuSans-65" transform="translate(1001.277344 0)"/>
     </g>
    </g>
    <g id="line2d_33">
     <path d="M 271.43875 69.248562 
L 281.43875 69.248562 
L 291.43875 69.248562 
" style="fill: none; stroke: #ff7f0e; stroke-linecap: square"/>
    </g>
    <g id="text_18">
     <!-- bounds -->
     <g transform="translate(299.43875 72.748562) scale(0.1 -0.1)">
      <defs>
       <path id="DejaVuSans-62" d="M 3116 1747 
Q 3116 2381 2855 2742 
Q 2594 3103 2138 3103 
Q 1681 3103 1420 2742 
Q 1159 2381 1159 1747 
Q 1159 1113 1420 752 
Q 1681 391 2138 391 
Q 2594 391 2855 752 
Q 3116 1113 3116 1747 
z
M 1159 2969 
Q 1341 3281 1617 3432 
Q 1894 3584 2278 3584 
Q 2916 3584 3314 3078 
Q 3713 2572 3713 1747 
Q 3713 922 3314 415 
Q 2916 -91 2278 -91 
Q 1894 -91 1617 61 
Q 1341 213 1159 525 
L 1159 0 
L 581 0 
L 581 4863 
L 1159 4863 
L 1159 2969 
z
" transform="scale(0.015625)"/>
       <path id="DejaVuSans-64" d="M 2906 2969 
L 2906 4863 
L 3481 4863 
L 3481 0 
L 2906 0 
L 2906 525 
Q 2725 213 2448 61 
Q 2172 -91 1784 -91 
Q 1150 -91 751 415 
Q 353 922 353 1747 
Q 353 2572 751 3078 
Q 1150 3584 1784 3584 
Q 2172 3584 2448 3432 
Q 2725 3281 2906 2969 
z
M 947 1747 
Q 947 1113 1208 752 
Q 1469 391 1925 391 
Q 2381 391 2643 752 
Q 2906 1113 2906 1747 
Q 2906 2381 2643 2742 
Q 2381 3103 1925 3103 
Q 1469 3103 1208 2742 
Q 947 2381 947 1747 
z
" transform="scale(0.015625)"/>
      </defs>
      <use xlink:href="#DejaVuSans-62"/>
      <use xlink:href="#DejaVuSans-6f" transform="translate(63.476562 0)"/>
      <use xlink:href="#DejaVuSans-75" transform="translate(124.658203 0)"/>
      <use xlink:href="#DejaVuSans-6e" transform="translate(188.037109 0)"/>
      <use xlink:href="#DejaVuSans-64" transform="translate(251.416016 0)"/>
      <use xlink:href="#DejaVuSans-73" transform="translate(314.892578 0)"/>
     </g>
    </g>
   </g>
  </g>
  <g id="text_19">
   <!-- Expectation convergence graph at level 0.95 -->
   <g transform="translate(95.308125 16.030125) scale(0.12 -0.12)">
    <defs>
     <path id="DejaVuSans-45" d="M 628 4666 
L 3578 4666 
L 3578 4134 
L 1259 4134 
L 1259 2753 
L 3481 2753 
L 3481 2222 
L 1259 2222 
L 1259 531 
L 3634 531 
L 3634 0 
L 628 0 
L 628 4666 
z
" transform="scale(0.015625)"/>
     <path id="DejaVuSans-76" d="M 191 3500 
L 800 3500 
L 1894 563 
L 2988 3500 
L 3597 3500 
L 2284 0 
L 1503 0 
L 191 3500 
z
" transform="scale(0.015625)"/>
     <path id="DejaVuSans-67" d="M 2906 1791 
Q 2906 2416 2648 2759 
Q 2391 3103 1925 3103 
Q 1463 3103 1205 2759 
Q 947 2416 947 1791 
Q 947 1169 1205 825 
Q 1463 481 1925 481 
Q 2391 481 2648 825 
Q 2906 1169 2906 1791 
z
M 3481 434 
Q 3481 -459 3084 -895 
Q 2688 -1331 1869 -1331 
Q 1566 -1331 1297 -1286 
Q 1028 -1241 775 -1147 
L 775 -588 
Q 1028 -725 1275 -790 
Q 1522 -856 1778 -856 
Q 2344 -856 2625 -561 
Q 2906 -266 2906 331 
L 2906 616 
Q 2728 306 2450 153 
Q 2172 0 1784 0 
Q 1141 0 747 490 
Q 353 981 353 1791 
Q 353 2603 747 3093 
Q 1141 3584 1784 3584 
Q 2172 3584 2450 3431 
Q 2728 3278 2906 2969 
L 2906 3500 
L 3481 3500 
L 3481 434 
z
" transform="scale(0.015625)"/>
     <path id="DejaVuSans-68" d="M 3513 2113 
L 3513 0 
L 2938 0 
L 2938 2094 
Q 2938 2591 2744 2837 
Q 2550 3084 2163 3084 
Q 1697 3084 1428 2787 
Q 1159 2491 1159 1978 
L 1159 0 
L 581 0 
L 581 4863 
L 1159 4863 
L 1159 2956 
Q 1366 3272 1645 3428 
Q 1925 3584 2291 3584 
Q 2894 3584 3203 3211 
Q 3513 2838 3513 2113 
z
" transform="scale(0.015625)"/>
     <path id="DejaVuSans-6c" d="M 603 4863 
L 1178 4863 
L 1178 0 
L 603 0 
L 603 4863 
z
" transform="scale(0.015625)"/>
     <path id="DejaVuSans-39" d="M 703 97 
L 703 672 
Q 941 559 1184 500 
Q 1428 441 1663 441 
Q 2288 441 2617 861 
Q 2947 1281 2994 2138 
Q 2813 1869 2534 1725 
Q 2256 1581 1919 1581 
Q 1219 1581 811 2004 
Q 403 2428 403 3163 
Q 403 3881 828 4315 
Q 1253 4750 1959 4750 
Q 2769 4750 3195 4129 
Q 3622 3509 3622 2328 
Q 3622 1225 3098 567 
Q 2575 -91 1691 -91 
Q 1453 -91 1209 -44 
Q 966 3 703 97 
z
M 1959 2075 
Q 2384 2075 2632 2365 
Q 2881 2656 2881 3163 
Q 2881 3666 2632 3958 
Q 2384 4250 1959 4250 
Q 1534 4250 1286 3958 
Q 1038 3666 1038 3163 
Q 1038 2656 1286 2365 
Q 1534 2075 1959 2075 
z
" transform="scale(0.015625)"/>
    </defs>
    <use xlink:href="#DejaVuSans-45"/>
    <use xlink:href="#DejaVuSans-78" transform="translate(63.183594 0)"/>
    <use xlink:href="#DejaVuSans-70" transform="translate(122.363281 0)"/>
    <use xlink:href="#DejaVuSans-65" transform="translate(185.839844 0)"/>
    <use xlink:href="#DejaVuSans-63" transform="translate(247.363281 0)"/>
    <use xlink:href="#DejaVuSans-74" transform="translate(302.34375 0)"/>
    <use xlink:href="#DejaVuSans-61" transform="translate(341.552734 0)"/>
    <use xlink:href="#DejaVuSans-74" transform="translate(402.832031 0)"/>
    <use xlink:href="#DejaVuSans-69" transform="translate(442.041016 0)"/>
    <use xlink:href="#DejaVuSans-6f" transform="translate(469.824219 0)"/>
    <use xlink:href="#DejaVuSans-6e" transform="translate(531.005859 0)"/>
    <use xlink:href="#DejaVuSans-20" transform="translate(594.384766 0)"/>
    <use xlink:href="#DejaVuSans-63" transform="translate(626.171875 0)"/>
    <use xlink:href="#DejaVuSans-6f" transform="translate(681.152344 0)"/>
    <use xlink:href="#DejaVuSans-6e" transform="translate(742.333984 0)"/>
    <use xlink:href="#DejaVuSans-76" transform="translate(805.712891 0)"/>
    <use xlink:href="#DejaVuSans-65" transform="translate(864.892578 0)"/>
    <use xlink:href="#DejaVuSans-72" transform="translate(926.416016 0)"/>
    <use xlink:href="#DejaVuSans-67" transform="translate(965.779297 0)"/>
    <use xlink:href="#DejaVuSans-65" transform="translate(1029.255859 0)"/>
    <use xlink:href="#DejaVuSans-6e" transform="translate(1090.779297 0)"/>
    <use xlink:href="#DejaVuSans-63" transform="translate(1154.158203 0)"/>
    <use xlink:href="#DejaVuSans-65" transform="translate(1209.138672 0)"/>
    <use xlink:href="#DejaVuSans-20" transform="translate(1270.662109 0)"/>
    <use xlink:href="#DejaVuSans-67" transform="translate(1302.449219 0)"/>
    <use xlink:href="#DejaVuSans-72" transform="translate(1365.925781 0)"/>
    <use xlink:href="#DejaVuSans-61" transform="translate(1407.039062 0)"/>
    <use xlink:href="#DejaVuSans-70" transform="translate(1468.318359 0)"/>
    <use xlink:href="#DejaVuSans-68" transform="translate(1531.794922 0)"/>
    <use xlink:href="#DejaVuSans-20" transform="translate(1595.173828 0)"/>
    <use xlink:href="#DejaVuSans-61" transform="translate(1626.960938 0)"/>
    <use xlink:href="#DejaVuSans-74" transform="translate(1688.240234 0)"/>
    <use xlink:href="#DejaVuSans-20" transform="translate(1727.449219 0)"/>
    <use xlink:href="#DejaVuSans-6c" transform="translate(1759.236328 0)"/>
    <use xlink:href="#DejaVuSans-65" transform="translate(1787.019531 0)"/>
    <use xlink:href="#DejaVuSans-76" transform="translate(1848.542969 0)"/>
    <use xlink:href="#DejaVuSans-65" transform="translate(1907.722656 0)"/>
    <use xlink:href="#DejaVuSans-6c" transform="translate(1969.246094 0)"/>
    <use xlink:href="#DejaVuSans-20" transform="translate(1997.029297 0)"/>
    <use xlink:href="#DejaVuSans-30" transform="translate(2028.816406 0)"/>
    <use xlink:href="#DejaVuSans-2e" transform="translate(2092.439453 0)"/>
    <use xlink:href="#DejaVuSans-39" transform="translate(2124.226562 0)"/>
    <use xlink:href="#DejaVuSans-35" transform="translate(2187.849609 0)"/>
   </g>
  </g>
 </g>
 <defs>
  <clipPath id="pd53633728e">
   <rect x="57.6" y="41.472" width="357.12" height="266.112"/>
  </clipPath>
 </defs>
</svg>
