<?xml version="1.0" encoding="utf-8" standalone="no"?>
<!DOCTYPE svg PUBLIC "-//W3C//DTD SVG 1.1//EN"
  "http://www.w3.org/Graphics/SVG/1.1/DTD/svg11.dtd">
<!-- Created with matplotlib (http://matplotlib.org/) -->
<svg height="288pt" version="1.1" viewBox="0 0 432 288" width="432pt" xmlns="http://www.w3.org/2000/svg" xmlns:xlink="http://www.w3.org/1999/xlink">
 <defs>
  <style type="text/css">
*{stroke-linecap:butt;stroke-linejoin:round;}
  </style>
 </defs>
 <g id="figure_1">
  <g id="patch_1">
   <path d="M 0 288 
L 432 288 
L 432 0 
L 0 0 
z
" style="fill:#ffffff;"/>
  </g>
  <g id="axes_1">
   <g id="patch_2">
    <path d="M 54 252 
L 388.8 252 
L 388.8 34.56 
L 54 34.56 
z
" style="fill:#ffffff;"/>
   </g>
   <g id="matplotlib.axis_1">
    <g id="xtick_1">
     <g id="line2d_1">
      <path clip-path="url(#pf4c3915c3e)" d="M 69.218182 252 
L 69.218182 34.56 
" style="fill:none;stroke:#b0b0b0;stroke-linecap:square;stroke-width:0.8;"/>
     </g>
     <g id="line2d_2">
      <defs>
       <path d="M 0 0 
L 0 3.5 
" id="m2369b94165" style="stroke:#000000;stroke-width:0.8;"/>
      </defs>
      <g>
       <use style="stroke:#000000;stroke-width:0.8;" x="69.218182" xlink:href="#m2369b94165" y="252"/>
      </g>
     </g>
     <g id="text_1">
      <!-- −1.00 -->
      <defs>
       <path d="M 10.59375 35.5 
L 73.1875 35.5 
L 73.1875 27.203125 
L 10.59375 27.203125 
z
" id="DejaVuSans-2212"/>
       <path d="M 12.40625 8.296875 
L 28.515625 8.296875 
L 28.515625 63.921875 
L 10.984375 60.40625 
L 10.984375 69.390625 
L 28.421875 72.90625 
L 38.28125 72.90625 
L 38.28125 8.296875 
L 54.390625 8.296875 
L 54.390625 0 
L 12.40625 0 
z
" id="DejaVuSans-31"/>
       <path d="M 10.6875 12.40625 
L 21 12.40625 
L 21 0 
L 10.6875 0 
z
" id="DejaVuSans-2e"/>
       <path d="M 31.78125 66.40625 
Q 24.171875 66.40625 20.328125 58.90625 
Q 16.5 51.421875 16.5 36.375 
Q 16.5 21.390625 20.328125 13.890625 
Q 24.171875 6.390625 31.78125 6.390625 
Q 39.453125 6.390625 43.28125 13.890625 
Q 47.125 21.390625 47.125 36.375 
Q 47.125 51.421875 43.28125 58.90625 
Q 39.453125 66.40625 31.78125 66.40625 
z
M 31.78125 74.21875 
Q 44.046875 74.21875 50.515625 64.515625 
Q 56.984375 54.828125 56.984375 36.375 
Q 56.984375 17.96875 50.515625 8.265625 
Q 44.046875 -1.421875 31.78125 -1.421875 
Q 19.53125 -1.421875 13.0625 8.265625 
Q 6.59375 17.96875 6.59375 36.375 
Q 6.59375 54.828125 13.0625 64.515625 
Q 19.53125 74.21875 31.78125 74.21875 
z
" id="DejaVuSans-30"/>
      </defs>
      <g transform="translate(53.895526 266.598437)scale(0.1 -0.1)">
       <use xlink:href="#DejaVuSans-2212"/>
       <use x="83.789062" xlink:href="#DejaVuSans-31"/>
       <use x="147.412109" xlink:href="#DejaVuSans-2e"/>
       <use x="179.199219" xlink:href="#DejaVuSans-30"/>
       <use x="242.822266" xlink:href="#DejaVuSans-30"/>
      </g>
     </g>
    </g>
    <g id="xtick_2">
     <g id="line2d_3">
      <path clip-path="url(#pf4c3915c3e)" d="M 107.644091 252 
L 107.644091 34.56 
" style="fill:none;stroke:#b0b0b0;stroke-linecap:square;stroke-width:0.8;"/>
     </g>
     <g id="line2d_4">
      <g>
       <use style="stroke:#000000;stroke-width:0.8;" x="107.644091" xlink:href="#m2369b94165" y="252"/>
      </g>
     </g>
     <g id="text_2">
      <!-- −0.75 -->
      <defs>
       <path d="M 8.203125 72.90625 
L 55.078125 72.90625 
L 55.078125 68.703125 
L 28.609375 0 
L 18.3125 0 
L 43.21875 64.59375 
L 8.203125 64.59375 
z
" id="DejaVuSans-37"/>
       <path d="M 10.796875 72.90625 
L 49.515625 72.90625 
L 49.515625 64.59375 
L 19.828125 64.59375 
L 19.828125 46.734375 
Q 21.96875 47.46875 24.109375 47.828125 
Q 26.265625 48.1875 28.421875 48.1875 
Q 40.625 48.1875 47.75 41.5 
Q 54.890625 34.8125 54.890625 23.390625 
Q 54.890625 11.625 47.5625 5.09375 
Q 40.234375 -1.421875 26.90625 -1.421875 
Q 22.3125 -1.421875 17.546875 -0.640625 
Q 12.796875 0.140625 7.71875 1.703125 
L 7.71875 11.625 
Q 12.109375 9.234375 16.796875 8.0625 
Q 21.484375 6.890625 26.703125 6.890625 
Q 35.15625 6.890625 40.078125 11.328125 
Q 45.015625 15.765625 45.015625 23.390625 
Q 45.015625 31 40.078125 35.4375 
Q 35.15625 39.890625 26.703125 39.890625 
Q 22.75 39.890625 18.8125 39.015625 
Q 14.890625 38.140625 10.796875 36.28125 
z
" id="DejaVuSans-35"/>
      </defs>
      <g transform="translate(92.321435 266.598437)scale(0.1 -0.1)">
       <use xlink:href="#DejaVuSans-2212"/>
       <use x="83.789062" xlink:href="#DejaVuSans-30"/>
       <use x="147.412109" xlink:href="#DejaVuSans-2e"/>
       <use x="179.199219" xlink:href="#DejaVuSans-37"/>
       <use x="242.822266" xlink:href="#DejaVuSans-35"/>
      </g>
     </g>
    </g>
    <g id="xtick_3">
     <g id="line2d_5">
      <path clip-path="url(#pf4c3915c3e)" d="M 146.07 252 
L 146.07 34.56 
" style="fill:none;stroke:#b0b0b0;stroke-linecap:square;stroke-width:0.8;"/>
     </g>
     <g id="line2d_6">
      <g>
       <use style="stroke:#000000;stroke-width:0.8;" x="146.07" xlink:href="#m2369b94165" y="252"/>
      </g>
     </g>
     <g id="text_3">
      <!-- −0.50 -->
      <g transform="translate(130.747344 266.598437)scale(0.1 -0.1)">
       <use xlink:href="#DejaVuSans-2212"/>
       <use x="83.789062" xlink:href="#DejaVuSans-30"/>
       <use x="147.412109" xlink:href="#DejaVuSans-2e"/>
       <use x="179.199219" xlink:href="#DejaVuSans-35"/>
       <use x="242.822266" xlink:href="#DejaVuSans-30"/>
      </g>
     </g>
    </g>
    <g id="xtick_4">
     <g id="line2d_7">
      <path clip-path="url(#pf4c3915c3e)" d="M 184.495909 252 
L 184.495909 34.56 
" style="fill:none;stroke:#b0b0b0;stroke-linecap:square;stroke-width:0.8;"/>
     </g>
     <g id="line2d_8">
      <g>
       <use style="stroke:#000000;stroke-width:0.8;" x="184.495909" xlink:href="#m2369b94165" y="252"/>
      </g>
     </g>
     <g id="text_4">
      <!-- −0.25 -->
      <defs>
       <path d="M 19.1875 8.296875 
L 53.609375 8.296875 
L 53.609375 0 
L 7.328125 0 
L 7.328125 8.296875 
Q 12.9375 14.109375 22.625 23.890625 
Q 32.328125 33.6875 34.8125 36.53125 
Q 39.546875 41.84375 41.421875 45.53125 
Q 43.3125 49.21875 43.3125 52.78125 
Q 43.3125 58.59375 39.234375 62.25 
Q 35.15625 65.921875 28.609375 65.921875 
Q 23.96875 65.921875 18.8125 64.3125 
Q 13.671875 62.703125 7.8125 59.421875 
L 7.8125 69.390625 
Q 13.765625 71.78125 18.9375 73 
Q 24.125 74.21875 28.421875 74.21875 
Q 39.75 74.21875 46.484375 68.546875 
Q 53.21875 62.890625 53.21875 53.421875 
Q 53.21875 48.921875 51.53125 44.890625 
Q 49.859375 40.875 45.40625 35.40625 
Q 44.1875 33.984375 37.640625 27.21875 
Q 31.109375 20.453125 19.1875 8.296875 
z
" id="DejaVuSans-32"/>
      </defs>
      <g transform="translate(169.173253 266.598437)scale(0.1 -0.1)">
       <use xlink:href="#DejaVuSans-2212"/>
       <use x="83.789062" xlink:href="#DejaVuSans-30"/>
       <use x="147.412109" xlink:href="#DejaVuSans-2e"/>
       <use x="179.199219" xlink:href="#DejaVuSans-32"/>
       <use x="242.822266" xlink:href="#DejaVuSans-35"/>
      </g>
     </g>
    </g>
    <g id="xtick_5">
     <g id="line2d_9">
      <path clip-path="url(#pf4c3915c3e)" d="M 222.921818 252 
L 222.921818 34.56 
" style="fill:none;stroke:#b0b0b0;stroke-linecap:square;stroke-width:0.8;"/>
     </g>
     <g id="line2d_10">
      <g>
       <use style="stroke:#000000;stroke-width:0.8;" x="222.921818" xlink:href="#m2369b94165" y="252"/>
      </g>
     </g>
     <g id="text_5">
      <!-- 0.00 -->
      <g transform="translate(211.789006 266.598437)scale(0.1 -0.1)">
       <use xlink:href="#DejaVuSans-30"/>
       <use x="63.623047" xlink:href="#DejaVuSans-2e"/>
       <use x="95.410156" xlink:href="#DejaVuSans-30"/>
       <use x="159.033203" xlink:href="#DejaVuSans-30"/>
      </g>
     </g>
    </g>
    <g id="xtick_6">
     <g id="line2d_11">
      <path clip-path="url(#pf4c3915c3e)" d="M 261.347727 252 
L 261.347727 34.56 
" style="fill:none;stroke:#b0b0b0;stroke-linecap:square;stroke-width:0.8;"/>
     </g>
     <g id="line2d_12">
      <g>
       <use style="stroke:#000000;stroke-width:0.8;" x="261.347727" xlink:href="#m2369b94165" y="252"/>
      </g>
     </g>
     <g id="text_6">
      <!-- 0.25 -->
      <g transform="translate(250.214915 266.598437)scale(0.1 -0.1)">
       <use xlink:href="#DejaVuSans-30"/>
       <use x="63.623047" xlink:href="#DejaVuSans-2e"/>
       <use x="95.410156" xlink:href="#DejaVuSans-32"/>
       <use x="159.033203" xlink:href="#DejaVuSans-35"/>
      </g>
     </g>
    </g>
    <g id="xtick_7">
     <g id="line2d_13">
      <path clip-path="url(#pf4c3915c3e)" d="M 299.773636 252 
L 299.773636 34.56 
" style="fill:none;stroke:#b0b0b0;stroke-linecap:square;stroke-width:0.8;"/>
     </g>
     <g id="line2d_14">
      <g>
       <use style="stroke:#000000;stroke-width:0.8;" x="299.773636" xlink:href="#m2369b94165" y="252"/>
      </g>
     </g>
     <g id="text_7">
      <!-- 0.50 -->
      <g transform="translate(288.640824 266.598437)scale(0.1 -0.1)">
       <use xlink:href="#DejaVuSans-30"/>
       <use x="63.623047" xlink:href="#DejaVuSans-2e"/>
       <use x="95.410156" xlink:href="#DejaVuSans-35"/>
       <use x="159.033203" xlink:href="#DejaVuSans-30"/>
      </g>
     </g>
    </g>
    <g id="xtick_8">
     <g id="line2d_15">
      <path clip-path="url(#pf4c3915c3e)" d="M 338.199545 252 
L 338.199545 34.56 
" style="fill:none;stroke:#b0b0b0;stroke-linecap:square;stroke-width:0.8;"/>
     </g>
     <g id="line2d_16">
      <g>
       <use style="stroke:#000000;stroke-width:0.8;" x="338.199545" xlink:href="#m2369b94165" y="252"/>
      </g>
     </g>
     <g id="text_8">
      <!-- 0.75 -->
      <g transform="translate(327.066733 266.598437)scale(0.1 -0.1)">
       <use xlink:href="#DejaVuSans-30"/>
       <use x="63.623047" xlink:href="#DejaVuSans-2e"/>
       <use x="95.410156" xlink:href="#DejaVuSans-37"/>
       <use x="159.033203" xlink:href="#DejaVuSans-35"/>
      </g>
     </g>
    </g>
    <g id="xtick_9">
     <g id="line2d_17">
      <path clip-path="url(#pf4c3915c3e)" d="M 376.625455 252 
L 376.625455 34.56 
" style="fill:none;stroke:#b0b0b0;stroke-linecap:square;stroke-width:0.8;"/>
     </g>
     <g id="line2d_18">
      <g>
       <use style="stroke:#000000;stroke-width:0.8;" x="376.625455" xlink:href="#m2369b94165" y="252"/>
      </g>
     </g>
     <g id="text_9">
      <!-- 1.00 -->
      <g transform="translate(365.492642 266.598437)scale(0.1 -0.1)">
       <use xlink:href="#DejaVuSans-31"/>
       <use x="63.623047" xlink:href="#DejaVuSans-2e"/>
       <use x="95.410156" xlink:href="#DejaVuSans-30"/>
       <use x="159.033203" xlink:href="#DejaVuSans-30"/>
      </g>
     </g>
    </g>
    <g id="text_10">
     <!-- z -->
     <defs>
      <path d="M 5.515625 54.6875 
L 48.1875 54.6875 
L 48.1875 46.484375 
L 14.40625 7.171875 
L 48.1875 7.171875 
L 48.1875 0 
L 4.296875 0 
L 4.296875 8.203125 
L 38.09375 47.515625 
L 5.515625 47.515625 
z
" id="DejaVuSans-7a"/>
     </defs>
     <g transform="translate(218.775781 280.276563)scale(0.1 -0.1)">
      <use xlink:href="#DejaVuSans-7a"/>
     </g>
    </g>
   </g>
   <g id="matplotlib.axis_2">
    <g id="ytick_1">
     <g id="line2d_19">
      <path clip-path="url(#pf4c3915c3e)" d="M 54 242.116364 
L 388.8 242.116364 
" style="fill:none;stroke:#b0b0b0;stroke-linecap:square;stroke-width:0.8;"/>
     </g>
     <g id="line2d_20">
      <defs>
       <path d="M 0 0 
L -3.5 0 
" id="m68da0967e3" style="stroke:#000000;stroke-width:0.8;"/>
      </defs>
      <g>
       <use style="stroke:#000000;stroke-width:0.8;" x="54" xlink:href="#m68da0967e3" y="242.116364"/>
      </g>
     </g>
     <g id="text_11">
      <!-- −1.00 -->
      <g transform="translate(16.354687 245.915582)scale(0.1 -0.1)">
       <use xlink:href="#DejaVuSans-2212"/>
       <use x="83.789062" xlink:href="#DejaVuSans-31"/>
       <use x="147.412109" xlink:href="#DejaVuSans-2e"/>
       <use x="179.199219" xlink:href="#DejaVuSans-30"/>
       <use x="242.822266" xlink:href="#DejaVuSans-30"/>
      </g>
     </g>
    </g>
    <g id="ytick_2">
     <g id="line2d_21">
      <path clip-path="url(#pf4c3915c3e)" d="M 54 217.407273 
L 388.8 217.407273 
" style="fill:none;stroke:#b0b0b0;stroke-linecap:square;stroke-width:0.8;"/>
     </g>
     <g id="line2d_22">
      <g>
       <use style="stroke:#000000;stroke-width:0.8;" x="54" xlink:href="#m68da0967e3" y="217.407273"/>
      </g>
     </g>
     <g id="text_12">
      <!-- −0.75 -->
      <g transform="translate(16.354687 221.206491)scale(0.1 -0.1)">
       <use xlink:href="#DejaVuSans-2212"/>
       <use x="83.789062" xlink:href="#DejaVuSans-30"/>
       <use x="147.412109" xlink:href="#DejaVuSans-2e"/>
       <use x="179.199219" xlink:href="#DejaVuSans-37"/>
       <use x="242.822266" xlink:href="#DejaVuSans-35"/>
      </g>
     </g>
    </g>
    <g id="ytick_3">
     <g id="line2d_23">
      <path clip-path="url(#pf4c3915c3e)" d="M 54 192.698182 
L 388.8 192.698182 
" style="fill:none;stroke:#b0b0b0;stroke-linecap:square;stroke-width:0.8;"/>
     </g>
     <g id="line2d_24">
      <g>
       <use style="stroke:#000000;stroke-width:0.8;" x="54" xlink:href="#m68da0967e3" y="192.698182"/>
      </g>
     </g>
     <g id="text_13">
      <!-- −0.50 -->
      <g transform="translate(16.354687 196.497401)scale(0.1 -0.1)">
       <use xlink:href="#DejaVuSans-2212"/>
       <use x="83.789062" xlink:href="#DejaVuSans-30"/>
       <use x="147.412109" xlink:href="#DejaVuSans-2e"/>
       <use x="179.199219" xlink:href="#DejaVuSans-35"/>
       <use x="242.822266" xlink:href="#DejaVuSans-30"/>
      </g>
     </g>
    </g>
    <g id="ytick_4">
     <g id="line2d_25">
      <path clip-path="url(#pf4c3915c3e)" d="M 54 167.989091 
L 388.8 167.989091 
" style="fill:none;stroke:#b0b0b0;stroke-linecap:square;stroke-width:0.8;"/>
     </g>
     <g id="line2d_26">
      <g>
       <use style="stroke:#000000;stroke-width:0.8;" x="54" xlink:href="#m68da0967e3" y="167.989091"/>
      </g>
     </g>
     <g id="text_14">
      <!-- −0.25 -->
      <g transform="translate(16.354687 171.78831)scale(0.1 -0.1)">
       <use xlink:href="#DejaVuSans-2212"/>
       <use x="83.789062" xlink:href="#DejaVuSans-30"/>
       <use x="147.412109" xlink:href="#DejaVuSans-2e"/>
       <use x="179.199219" xlink:href="#DejaVuSans-32"/>
       <use x="242.822266" xlink:href="#DejaVuSans-35"/>
      </g>
     </g>
    </g>
    <g id="ytick_5">
     <g id="line2d_27">
      <path clip-path="url(#pf4c3915c3e)" d="M 54 143.28 
L 388.8 143.28 
" style="fill:none;stroke:#b0b0b0;stroke-linecap:square;stroke-width:0.8;"/>
     </g>
     <g id="line2d_28">
      <g>
       <use style="stroke:#000000;stroke-width:0.8;" x="54" xlink:href="#m68da0967e3" y="143.28"/>
      </g>
     </g>
     <g id="text_15">
      <!-- 0.00 -->
      <g transform="translate(24.734375 147.079219)scale(0.1 -0.1)">
       <use xlink:href="#DejaVuSans-30"/>
       <use x="63.623047" xlink:href="#DejaVuSans-2e"/>
       <use x="95.410156" xlink:href="#DejaVuSans-30"/>
       <use x="159.033203" xlink:href="#DejaVuSans-30"/>
      </g>
     </g>
    </g>
    <g id="ytick_6">
     <g id="line2d_29">
      <path clip-path="url(#pf4c3915c3e)" d="M 54 118.570909 
L 388.8 118.570909 
" style="fill:none;stroke:#b0b0b0;stroke-linecap:square;stroke-width:0.8;"/>
     </g>
     <g id="line2d_30">
      <g>
       <use style="stroke:#000000;stroke-width:0.8;" x="54" xlink:href="#m68da0967e3" y="118.570909"/>
      </g>
     </g>
     <g id="text_16">
      <!-- 0.25 -->
      <g transform="translate(24.734375 122.370128)scale(0.1 -0.1)">
       <use xlink:href="#DejaVuSans-30"/>
       <use x="63.623047" xlink:href="#DejaVuSans-2e"/>
       <use x="95.410156" xlink:href="#DejaVuSans-32"/>
       <use x="159.033203" xlink:href="#DejaVuSans-35"/>
      </g>
     </g>
    </g>
    <g id="ytick_7">
     <g id="line2d_31">
      <path clip-path="url(#pf4c3915c3e)" d="M 54 93.861818 
L 388.8 93.861818 
" style="fill:none;stroke:#b0b0b0;stroke-linecap:square;stroke-width:0.8;"/>
     </g>
     <g id="line2d_32">
      <g>
       <use style="stroke:#000000;stroke-width:0.8;" x="54" xlink:href="#m68da0967e3" y="93.861818"/>
      </g>
     </g>
     <g id="text_17">
      <!-- 0.50 -->
      <g transform="translate(24.734375 97.661037)scale(0.1 -0.1)">
       <use xlink:href="#DejaVuSans-30"/>
       <use x="63.623047" xlink:href="#DejaVuSans-2e"/>
       <use x="95.410156" xlink:href="#DejaVuSans-35"/>
       <use x="159.033203" xlink:href="#DejaVuSans-30"/>
      </g>
     </g>
    </g>
    <g id="ytick_8">
     <g id="line2d_33">
      <path clip-path="url(#pf4c3915c3e)" d="M 54 69.152727 
L 388.8 69.152727 
" style="fill:none;stroke:#b0b0b0;stroke-linecap:square;stroke-width:0.8;"/>
     </g>
     <g id="line2d_34">
      <g>
       <use style="stroke:#000000;stroke-width:0.8;" x="54" xlink:href="#m68da0967e3" y="69.152727"/>
      </g>
     </g>
     <g id="text_18">
      <!-- 0.75 -->
      <g transform="translate(24.734375 72.951946)scale(0.1 -0.1)">
       <use xlink:href="#DejaVuSans-30"/>
       <use x="63.623047" xlink:href="#DejaVuSans-2e"/>
       <use x="95.410156" xlink:href="#DejaVuSans-37"/>
       <use x="159.033203" xlink:href="#DejaVuSans-35"/>
      </g>
     </g>
    </g>
    <g id="ytick_9">
     <g id="line2d_35">
      <path clip-path="url(#pf4c3915c3e)" d="M 54 44.443636 
L 388.8 44.443636 
" style="fill:none;stroke:#b0b0b0;stroke-linecap:square;stroke-width:0.8;"/>
     </g>
     <g id="line2d_36">
      <g>
       <use style="stroke:#000000;stroke-width:0.8;" x="54" xlink:href="#m68da0967e3" y="44.443636"/>
      </g>
     </g>
     <g id="text_19">
      <!-- 1.00 -->
      <g transform="translate(24.734375 48.242855)scale(0.1 -0.1)">
       <use xlink:href="#DejaVuSans-31"/>
       <use x="63.623047" xlink:href="#DejaVuSans-2e"/>
       <use x="95.410156" xlink:href="#DejaVuSans-30"/>
       <use x="159.033203" xlink:href="#DejaVuSans-30"/>
      </g>
     </g>
    </g>
    <g id="text_20">
     <!-- polynomial values -->
     <defs>
      <path d="M 18.109375 8.203125 
L 18.109375 -20.796875 
L 9.078125 -20.796875 
L 9.078125 54.6875 
L 18.109375 54.6875 
L 18.109375 46.390625 
Q 20.953125 51.265625 25.265625 53.625 
Q 29.59375 56 35.59375 56 
Q 45.5625 56 51.78125 48.09375 
Q 58.015625 40.1875 58.015625 27.296875 
Q 58.015625 14.40625 51.78125 6.484375 
Q 45.5625 -1.421875 35.59375 -1.421875 
Q 29.59375 -1.421875 25.265625 0.953125 
Q 20.953125 3.328125 18.109375 8.203125 
z
M 48.6875 27.296875 
Q 48.6875 37.203125 44.609375 42.84375 
Q 40.53125 48.484375 33.40625 48.484375 
Q 26.265625 48.484375 22.1875 42.84375 
Q 18.109375 37.203125 18.109375 27.296875 
Q 18.109375 17.390625 22.1875 11.75 
Q 26.265625 6.109375 33.40625 6.109375 
Q 40.53125 6.109375 44.609375 11.75 
Q 48.6875 17.390625 48.6875 27.296875 
z
" id="DejaVuSans-70"/>
      <path d="M 30.609375 48.390625 
Q 23.390625 48.390625 19.1875 42.75 
Q 14.984375 37.109375 14.984375 27.296875 
Q 14.984375 17.484375 19.15625 11.84375 
Q 23.34375 6.203125 30.609375 6.203125 
Q 37.796875 6.203125 41.984375 11.859375 
Q 46.1875 17.53125 46.1875 27.296875 
Q 46.1875 37.015625 41.984375 42.703125 
Q 37.796875 48.390625 30.609375 48.390625 
z
M 30.609375 56 
Q 42.328125 56 49.015625 48.375 
Q 55.71875 40.765625 55.71875 27.296875 
Q 55.71875 13.875 49.015625 6.21875 
Q 42.328125 -1.421875 30.609375 -1.421875 
Q 18.84375 -1.421875 12.171875 6.21875 
Q 5.515625 13.875 5.515625 27.296875 
Q 5.515625 40.765625 12.171875 48.375 
Q 18.84375 56 30.609375 56 
z
" id="DejaVuSans-6f"/>
      <path d="M 9.421875 75.984375 
L 18.40625 75.984375 
L 18.40625 0 
L 9.421875 0 
z
" id="DejaVuSans-6c"/>
      <path d="M 32.171875 -5.078125 
Q 28.375 -14.84375 24.75 -17.8125 
Q 21.140625 -20.796875 15.09375 -20.796875 
L 7.90625 -20.796875 
L 7.90625 -13.28125 
L 13.1875 -13.28125 
Q 16.890625 -13.28125 18.9375 -11.515625 
Q 21 -9.765625 23.484375 -3.21875 
L 25.09375 0.875 
L 2.984375 54.6875 
L 12.5 54.6875 
L 29.59375 11.921875 
L 46.6875 54.6875 
L 56.203125 54.6875 
z
" id="DejaVuSans-79"/>
      <path d="M 54.890625 33.015625 
L 54.890625 0 
L 45.90625 0 
L 45.90625 32.71875 
Q 45.90625 40.484375 42.875 44.328125 
Q 39.84375 48.1875 33.796875 48.1875 
Q 26.515625 48.1875 22.3125 43.546875 
Q 18.109375 38.921875 18.109375 30.90625 
L 18.109375 0 
L 9.078125 0 
L 9.078125 54.6875 
L 18.109375 54.6875 
L 18.109375 46.1875 
Q 21.34375 51.125 25.703125 53.5625 
Q 30.078125 56 35.796875 56 
Q 45.21875 56 50.046875 50.171875 
Q 54.890625 44.34375 54.890625 33.015625 
z
" id="DejaVuSans-6e"/>
      <path d="M 52 44.1875 
Q 55.375 50.25 60.0625 53.125 
Q 64.75 56 71.09375 56 
Q 79.640625 56 84.28125 50.015625 
Q 88.921875 44.046875 88.921875 33.015625 
L 88.921875 0 
L 79.890625 0 
L 79.890625 32.71875 
Q 79.890625 40.578125 77.09375 44.375 
Q 74.3125 48.1875 68.609375 48.1875 
Q 61.625 48.1875 57.5625 43.546875 
Q 53.515625 38.921875 53.515625 30.90625 
L 53.515625 0 
L 44.484375 0 
L 44.484375 32.71875 
Q 44.484375 40.625 41.703125 44.40625 
Q 38.921875 48.1875 33.109375 48.1875 
Q 26.21875 48.1875 22.15625 43.53125 
Q 18.109375 38.875 18.109375 30.90625 
L 18.109375 0 
L 9.078125 0 
L 9.078125 54.6875 
L 18.109375 54.6875 
L 18.109375 46.1875 
Q 21.1875 51.21875 25.484375 53.609375 
Q 29.78125 56 35.6875 56 
Q 41.65625 56 45.828125 52.96875 
Q 50 49.953125 52 44.1875 
z
" id="DejaVuSans-6d"/>
      <path d="M 9.421875 54.6875 
L 18.40625 54.6875 
L 18.40625 0 
L 9.421875 0 
z
M 9.421875 75.984375 
L 18.40625 75.984375 
L 18.40625 64.59375 
L 9.421875 64.59375 
z
" id="DejaVuSans-69"/>
      <path d="M 34.28125 27.484375 
Q 23.390625 27.484375 19.1875 25 
Q 14.984375 22.515625 14.984375 16.5 
Q 14.984375 11.71875 18.140625 8.90625 
Q 21.296875 6.109375 26.703125 6.109375 
Q 34.1875 6.109375 38.703125 11.40625 
Q 43.21875 16.703125 43.21875 25.484375 
L 43.21875 27.484375 
z
M 52.203125 31.203125 
L 52.203125 0 
L 43.21875 0 
L 43.21875 8.296875 
Q 40.140625 3.328125 35.546875 0.953125 
Q 30.953125 -1.421875 24.3125 -1.421875 
Q 15.921875 -1.421875 10.953125 3.296875 
Q 6 8.015625 6 15.921875 
Q 6 25.140625 12.171875 29.828125 
Q 18.359375 34.515625 30.609375 34.515625 
L 43.21875 34.515625 
L 43.21875 35.40625 
Q 43.21875 41.609375 39.140625 45 
Q 35.0625 48.390625 27.6875 48.390625 
Q 23 48.390625 18.546875 47.265625 
Q 14.109375 46.140625 10.015625 43.890625 
L 10.015625 52.203125 
Q 14.9375 54.109375 19.578125 55.046875 
Q 24.21875 56 28.609375 56 
Q 40.484375 56 46.34375 49.84375 
Q 52.203125 43.703125 52.203125 31.203125 
z
" id="DejaVuSans-61"/>
      <path id="DejaVuSans-20"/>
      <path d="M 2.984375 54.6875 
L 12.5 54.6875 
L 29.59375 8.796875 
L 46.6875 54.6875 
L 56.203125 54.6875 
L 35.6875 0 
L 23.484375 0 
z
" id="DejaVuSans-76"/>
      <path d="M 8.5 21.578125 
L 8.5 54.6875 
L 17.484375 54.6875 
L 17.484375 21.921875 
Q 17.484375 14.15625 20.5 10.265625 
Q 23.53125 6.390625 29.59375 6.390625 
Q 36.859375 6.390625 41.078125 11.03125 
Q 45.3125 15.671875 45.3125 23.6875 
L 45.3125 54.6875 
L 54.296875 54.6875 
L 54.296875 0 
L 45.3125 0 
L 45.3125 8.40625 
Q 42.046875 3.421875 37.71875 1 
Q 33.40625 -1.421875 27.6875 -1.421875 
Q 18.265625 -1.421875 13.375 4.4375 
Q 8.5 10.296875 8.5 21.578125 
z
M 31.109375 56 
z
" id="DejaVuSans-75"/>
      <path d="M 56.203125 29.59375 
L 56.203125 25.203125 
L 14.890625 25.203125 
Q 15.484375 15.921875 20.484375 11.0625 
Q 25.484375 6.203125 34.421875 6.203125 
Q 39.59375 6.203125 44.453125 7.46875 
Q 49.3125 8.734375 54.109375 11.28125 
L 54.109375 2.78125 
Q 49.265625 0.734375 44.1875 -0.34375 
Q 39.109375 -1.421875 33.890625 -1.421875 
Q 20.796875 -1.421875 13.15625 6.1875 
Q 5.515625 13.8125 5.515625 26.8125 
Q 5.515625 40.234375 12.765625 48.109375 
Q 20.015625 56 32.328125 56 
Q 43.359375 56 49.78125 48.890625 
Q 56.203125 41.796875 56.203125 29.59375 
z
M 47.21875 32.234375 
Q 47.125 39.59375 43.09375 43.984375 
Q 39.0625 48.390625 32.421875 48.390625 
Q 24.90625 48.390625 20.390625 44.140625 
Q 15.875 39.890625 15.1875 32.171875 
z
" id="DejaVuSans-65"/>
      <path d="M 44.28125 53.078125 
L 44.28125 44.578125 
Q 40.484375 46.53125 36.375 47.5 
Q 32.28125 48.484375 27.875 48.484375 
Q 21.1875 48.484375 17.84375 46.4375 
Q 14.5 44.390625 14.5 40.28125 
Q 14.5 37.15625 16.890625 35.375 
Q 19.28125 33.59375 26.515625 31.984375 
L 29.59375 31.296875 
Q 39.15625 29.25 43.1875 25.515625 
Q 47.21875 21.78125 47.21875 15.09375 
Q 47.21875 7.46875 41.1875 3.015625 
Q 35.15625 -1.421875 24.609375 -1.421875 
Q 20.21875 -1.421875 15.453125 -0.5625 
Q 10.6875 0.296875 5.421875 2 
L 5.421875 11.28125 
Q 10.40625 8.6875 15.234375 7.390625 
Q 20.0625 6.109375 24.8125 6.109375 
Q 31.15625 6.109375 34.5625 8.28125 
Q 37.984375 10.453125 37.984375 14.40625 
Q 37.984375 18.0625 35.515625 20.015625 
Q 33.0625 21.96875 24.703125 23.78125 
L 21.578125 24.515625 
Q 13.234375 26.265625 9.515625 29.90625 
Q 5.8125 33.546875 5.8125 39.890625 
Q 5.8125 47.609375 11.28125 51.796875 
Q 16.75 56 26.8125 56 
Q 31.78125 56 36.171875 55.265625 
Q 40.578125 54.546875 44.28125 53.078125 
z
" id="DejaVuSans-73"/>
     </defs>
     <g transform="translate(10.275 188.654219)rotate(-90)scale(0.1 -0.1)">
      <use xlink:href="#DejaVuSans-70"/>
      <use x="63.476562" xlink:href="#DejaVuSans-6f"/>
      <use x="124.658203" xlink:href="#DejaVuSans-6c"/>
      <use x="152.441406" xlink:href="#DejaVuSans-79"/>
      <use x="211.621094" xlink:href="#DejaVuSans-6e"/>
      <use x="275" xlink:href="#DejaVuSans-6f"/>
      <use x="336.181641" xlink:href="#DejaVuSans-6d"/>
      <use x="433.59375" xlink:href="#DejaVuSans-69"/>
      <use x="461.376953" xlink:href="#DejaVuSans-61"/>
      <use x="522.65625" xlink:href="#DejaVuSans-6c"/>
      <use x="550.439453" xlink:href="#DejaVuSans-20"/>
      <use x="582.226562" xlink:href="#DejaVuSans-76"/>
      <use x="641.40625" xlink:href="#DejaVuSans-61"/>
      <use x="702.685547" xlink:href="#DejaVuSans-6c"/>
      <use x="730.46875" xlink:href="#DejaVuSans-75"/>
      <use x="793.847656" xlink:href="#DejaVuSans-65"/>
      <use x="855.371094" xlink:href="#DejaVuSans-73"/>
     </g>
    </g>
   </g>
   <g id="line2d_37">
    <path clip-path="url(#pf4c3915c3e)" d="M 69.218182 44.443636 
L 72.261818 44.443636 
L 75.305455 44.443636 
L 78.349091 44.443636 
L 81.392727 44.443636 
L 84.436364 44.443636 
L 87.48 44.443636 
L 90.523636 44.443636 
L 93.567273 44.443636 
L 96.610909 44.443636 
L 99.654545 44.443636 
L 102.698182 44.443636 
L 105.741818 44.443636 
L 108.785455 44.443636 
L 111.829091 44.443636 
L 114.872727 44.443636 
L 117.916364 44.443636 
L 120.96 44.443636 
L 124.003636 44.443636 
L 127.047273 44.443636 
L 130.090909 44.443636 
L 133.134545 44.443636 
L 136.178182 44.443636 
L 139.221818 44.443636 
L 142.265455 44.443636 
L 145.309091 44.443636 
L 148.352727 44.443636 
L 151.396364 44.443636 
L 154.44 44.443636 
L 157.483636 44.443636 
L 160.527273 44.443636 
L 163.570909 44.443636 
L 166.614545 44.443636 
L 169.658182 44.443636 
L 172.701818 44.443636 
L 175.745455 44.443636 
L 178.789091 44.443636 
L 181.832727 44.443636 
L 184.876364 44.443636 
L 187.92 44.443636 
L 190.963636 44.443636 
L 194.007273 44.443636 
L 197.050909 44.443636 
L 200.094545 44.443636 
L 203.138182 44.443636 
L 206.181818 44.443636 
L 209.225455 44.443636 
L 212.269091 44.443636 
L 215.312727 44.443636 
L 218.356364 44.443636 
L 221.4 44.443636 
L 224.443636 44.443636 
L 227.487273 44.443636 
L 230.530909 44.443636 
L 233.574545 44.443636 
L 236.618182 44.443636 
L 239.661818 44.443636 
L 242.705455 44.443636 
L 245.749091 44.443636 
L 248.792727 44.443636 
L 251.836364 44.443636 
L 254.88 44.443636 
L 257.923636 44.443636 
L 260.967273 44.443636 
L 264.010909 44.443636 
L 267.054545 44.443636 
L 270.098182 44.443636 
L 273.141818 44.443636 
L 276.185455 44.443636 
L 279.229091 44.443636 
L 282.272727 44.443636 
L 285.316364 44.443636 
L 288.36 44.443636 
L 291.403636 44.443636 
L 294.447273 44.443636 
L 297.490909 44.443636 
L 300.534545 44.443636 
L 303.578182 44.443636 
L 306.621818 44.443636 
L 309.665455 44.443636 
L 312.709091 44.443636 
L 315.752727 44.443636 
L 318.796364 44.443636 
L 321.84 44.443636 
L 324.883636 44.443636 
L 327.927273 44.443636 
L 330.970909 44.443636 
L 334.014545 44.443636 
L 337.058182 44.443636 
L 340.101818 44.443636 
L 343.145455 44.443636 
L 346.189091 44.443636 
L 349.232727 44.443636 
L 352.276364 44.443636 
L 355.32 44.443636 
L 358.363636 44.443636 
L 361.407273 44.443636 
L 364.450909 44.443636 
L 367.494545 44.443636 
L 370.538182 44.443636 
L 373.581818 44.443636 
" style="fill:none;stroke:#ff0000;stroke-linecap:square;stroke-width:2;"/>
   </g>
   <g id="line2d_38">
    <path clip-path="url(#pf4c3915c3e)" d="M 69.218182 242.116364 
L 72.261818 240.159208 
L 75.305455 238.202052 
L 78.349091 236.244896 
L 81.392727 234.287741 
L 84.436364 232.330585 
L 87.48 230.373429 
L 90.523636 228.416274 
L 93.567273 226.459118 
L 96.610909 224.501962 
L 99.654545 222.544806 
L 102.698182 220.587651 
L 105.741818 218.630495 
L 108.785455 216.673339 
L 111.829091 214.716184 
L 114.872727 212.759028 
L 117.916364 210.801872 
L 120.96 208.844716 
L 124.003636 206.887561 
L 127.047273 204.930405 
L 130.090909 202.973249 
L 133.134545 201.016094 
L 136.178182 199.058938 
L 139.221818 197.101782 
L 142.265455 195.144626 
L 145.309091 193.187471 
L 148.352727 191.230315 
L 151.396364 189.273159 
L 154.44 187.316004 
L 157.483636 185.358848 
L 160.527273 183.401692 
L 163.570909 181.444536 
L 166.614545 179.487381 
L 169.658182 177.530225 
L 172.701818 175.573069 
L 175.745455 173.615914 
L 178.789091 171.658758 
L 181.832727 169.701602 
L 184.876364 167.744446 
L 187.92 165.787291 
L 190.963636 163.830135 
L 194.007273 161.872979 
L 197.050909 159.915824 
L 200.094545 157.958668 
L 203.138182 156.001512 
L 206.181818 154.044356 
L 209.225455 152.087201 
L 212.269091 150.130045 
L 215.312727 148.172889 
L 218.356364 146.215734 
L 221.4 144.258578 
L 224.443636 142.301422 
L 227.487273 140.344266 
L 230.530909 138.387111 
L 233.574545 136.429955 
L 236.618182 134.472799 
L 239.661818 132.515644 
L 242.705455 130.558488 
L 245.749091 128.601332 
L 248.792727 126.644176 
L 251.836364 124.687021 
L 254.88 122.729865 
L 257.923636 120.772709 
L 260.967273 118.815554 
L 264.010909 116.858398 
L 267.054545 114.901242 
L 270.098182 112.944086 
L 273.141818 110.986931 
L 276.185455 109.029775 
L 279.229091 107.072619 
L 282.272727 105.115464 
L 285.316364 103.158308 
L 288.36 101.201152 
L 291.403636 99.243996 
L 294.447273 97.286841 
L 297.490909 95.329685 
L 300.534545 93.372529 
L 303.578182 91.415374 
L 306.621818 89.458218 
L 309.665455 87.501062 
L 312.709091 85.543906 
L 315.752727 83.586751 
L 318.796364 81.629595 
L 321.84 79.672439 
L 324.883636 77.715284 
L 327.927273 75.758128 
L 330.970909 73.800972 
L 334.014545 71.843816 
L 337.058182 69.886661 
L 340.101818 67.929505 
L 343.145455 65.972349 
L 346.189091 64.015194 
L 349.232727 62.058038 
L 352.276364 60.100882 
L 355.32 58.143726 
L 358.363636 56.186571 
L 361.407273 54.229415 
L 364.450909 52.272259 
L 367.494545 50.315104 
L 370.538182 48.357948 
L 373.581818 46.400792 
" style="fill:none;stroke:#ffff00;stroke-linecap:square;stroke-width:2;"/>
   </g>
   <g id="line2d_39">
    <path clip-path="url(#pf4c3915c3e)" d="M 69.218182 143.28 
L 72.261818 146.020432 
L 75.305455 148.706055 
L 78.349091 151.33687 
L 81.392727 153.912876 
L 84.436364 156.434073 
L 87.48 158.900461 
L 90.523636 161.312041 
L 93.567273 163.668813 
L 96.610909 165.970776 
L 99.654545 168.21793 
L 102.698182 170.410275 
L 105.741818 172.547812 
L 108.785455 174.63054 
L 111.829091 176.65846 
L 114.872727 178.631571 
L 117.916364 180.549873 
L 120.96 182.413367 
L 124.003636 184.222052 
L 127.047273 185.975928 
L 130.090909 187.674996 
L 133.134545 189.319255 
L 136.178182 190.908705 
L 139.221818 192.443347 
L 142.265455 193.92318 
L 145.309091 195.348205 
L 148.352727 196.718421 
L 151.396364 198.033828 
L 154.44 199.294427 
L 157.483636 200.500217 
L 160.527273 201.651198 
L 163.570909 202.747371 
L 166.614545 203.788735 
L 169.658182 204.77529 
L 172.701818 205.707037 
L 175.745455 206.583975 
L 178.789091 207.406105 
L 181.832727 208.173426 
L 184.876364 208.885938 
L 187.92 209.543642 
L 190.963636 210.146537 
L 194.007273 210.694623 
L 197.050909 211.187901 
L 200.094545 211.62637 
L 203.138182 212.010031 
L 206.181818 212.338882 
L 209.225455 212.612926 
L 212.269091 212.83216 
L 215.312727 212.996586 
L 218.356364 213.106203 
L 221.4 213.161012 
L 224.443636 213.161012 
L 227.487273 213.106203 
L 230.530909 212.996586 
L 233.574545 212.83216 
L 236.618182 212.612926 
L 239.661818 212.338882 
L 242.705455 212.010031 
L 245.749091 211.62637 
L 248.792727 211.187901 
L 251.836364 210.694623 
L 254.88 210.146537 
L 257.923636 209.543642 
L 260.967273 208.885938 
L 264.010909 208.173426 
L 267.054545 207.406105 
L 270.098182 206.583975 
L 273.141818 205.707037 
L 276.185455 204.77529 
L 279.229091 203.788735 
L 282.272727 202.747371 
L 285.316364 201.651198 
L 288.36 200.500217 
L 291.403636 199.294427 
L 294.447273 198.033828 
L 297.490909 196.718421 
L 300.534545 195.348205 
L 303.578182 193.92318 
L 306.621818 192.443347 
L 309.665455 190.908705 
L 312.709091 189.319255 
L 315.752727 187.674996 
L 318.796364 185.975928 
L 321.84 184.222052 
L 324.883636 182.413367 
L 327.927273 180.549873 
L 330.970909 178.631571 
L 334.014545 176.65846 
L 337.058182 174.63054 
L 340.101818 172.547812 
L 343.145455 170.410275 
L 346.189091 168.21793 
L 349.232727 165.970776 
L 352.276364 163.668813 
L 355.32 161.312041 
L 358.363636 158.900461 
L 361.407273 156.434073 
L 364.450909 153.912876 
L 367.494545 151.33687 
L 370.538182 148.706055 
L 373.581818 146.020432 
" style="fill:none;stroke:#00ff00;stroke-linecap:square;stroke-width:2;"/>
   </g>
   <g id="line2d_40">
    <path clip-path="url(#pf4c3915c3e)" d="M 69.218182 62.580447 
L 72.261818 62.627599 
L 75.305455 62.767803 
L 78.349091 62.999179 
L 81.392727 63.319846 
L 84.436364 63.727926 
L 87.48 64.221537 
L 90.523636 64.798801 
L 93.567273 65.457838 
L 96.610909 66.196767 
L 99.654545 67.013709 
L 102.698182 67.906785 
L 105.741818 68.874113 
L 108.785455 69.913815 
L 111.829091 71.02401 
L 114.872727 72.20282 
L 117.916364 73.448363 
L 120.96 74.75876 
L 124.003636 76.132131 
L 127.047273 77.566597 
L 130.090909 79.060278 
L 133.134545 80.611293 
L 136.178182 82.217763 
L 139.221818 83.877808 
L 142.265455 85.589549 
L 145.309091 87.351105 
L 148.352727 89.160597 
L 151.396364 91.016144 
L 154.44 92.915868 
L 157.483636 94.857887 
L 160.527273 96.840323 
L 163.570909 98.861295 
L 166.614545 100.918924 
L 169.658182 103.01133 
L 172.701818 105.136633 
L 175.745455 107.292953 
L 178.789091 109.478411 
L 181.832727 111.691125 
L 184.876364 113.929218 
L 187.92 116.190808 
L 190.963636 118.474017 
L 194.007273 120.776964 
L 197.050909 123.097769 
L 200.094545 125.434552 
L 203.138182 127.785435 
L 206.181818 130.148536 
L 209.225455 132.521976 
L 212.269091 134.903875 
L 215.312727 137.292354 
L 218.356364 139.685533 
L 221.4 142.081531 
L 224.443636 144.478469 
L 227.487273 146.874467 
L 230.530909 149.267646 
L 233.574545 151.656125 
L 236.618182 154.038024 
L 239.661818 156.411464 
L 242.705455 158.774565 
L 245.749091 161.125448 
L 248.792727 163.462231 
L 251.836364 165.783036 
L 254.88 168.085983 
L 257.923636 170.369192 
L 260.967273 172.630782 
L 264.010909 174.868875 
L 267.054545 177.081589 
L 270.098182 179.267047 
L 273.141818 181.423367 
L 276.185455 183.54867 
L 279.229091 185.641076 
L 282.272727 187.698705 
L 285.316364 189.719677 
L 288.36 191.702113 
L 291.403636 193.644132 
L 294.447273 195.543856 
L 297.490909 197.399403 
L 300.534545 199.208895 
L 303.578182 200.970451 
L 306.621818 202.682192 
L 309.665455 204.342237 
L 312.709091 205.948707 
L 315.752727 207.499722 
L 318.796364 208.993403 
L 321.84 210.427869 
L 324.883636 211.80124 
L 327.927273 213.111637 
L 330.970909 214.35718 
L 334.014545 215.53599 
L 337.058182 216.646185 
L 340.101818 217.685887 
L 343.145455 218.653215 
L 346.189091 219.546291 
L 349.232727 220.363233 
L 352.276364 221.102162 
L 355.32 221.761199 
L 358.363636 222.338463 
L 361.407273 222.832074 
L 364.450909 223.240154 
L 367.494545 223.560821 
L 370.538182 223.792197 
L 373.581818 223.932401 
" style="fill:none;stroke:#00ffff;stroke-linecap:square;stroke-width:2;"/>
   </g>
   <g id="line2d_41">
    <path clip-path="url(#pf4c3915c3e)" d="M 69.218182 183.629776 
L 72.261818 180.434378 
L 75.305455 177.242696 
L 78.349091 174.058378 
L 81.392727 170.884998 
L 84.436364 167.726054 
L 87.48 164.584973 
L 90.523636 161.465102 
L 93.567273 158.369719 
L 96.610909 155.302025 
L 99.654545 152.265147 
L 102.698182 149.262136 
L 105.741818 146.295971 
L 108.785455 143.369556 
L 111.829091 140.485719 
L 114.872727 137.647215 
L 117.916364 134.856724 
L 120.96 132.116852 
L 124.003636 129.430131 
L 127.047273 126.799016 
L 130.090909 124.22589 
L 133.134545 121.713062 
L 136.178182 119.262764 
L 139.221818 116.877156 
L 142.265455 114.558323 
L 145.309091 112.308273 
L 148.352727 110.128944 
L 151.396364 108.022196 
L 154.44 105.989816 
L 157.483636 104.033516 
L 160.527273 102.154935 
L 163.570909 100.355635 
L 166.614545 98.637105 
L 169.658182 97.000761 
L 172.701818 95.447942 
L 175.745455 93.979914 
L 178.789091 92.597867 
L 181.832727 91.30292 
L 184.876364 90.096113 
L 187.92 88.978416 
L 190.963636 87.95072 
L 194.007273 87.013846 
L 197.050909 86.168537 
L 200.094545 85.415464 
L 203.138182 84.755223 
L 206.181818 84.188333 
L 209.225455 83.715243 
L 212.269091 83.336324 
L 215.312727 83.051875 
L 218.356364 82.862117 
L 221.4 82.767201 
L 224.443636 82.767201 
L 227.487273 82.862117 
L 230.530909 83.051875 
L 233.574545 83.336324 
L 236.618182 83.715243 
L 239.661818 84.188333 
L 242.705455 84.755223 
L 245.749091 85.415464 
L 248.792727 86.168537 
L 251.836364 87.013846 
L 254.88 87.95072 
L 257.923636 88.978416 
L 260.967273 90.096113 
L 264.010909 91.30292 
L 267.054545 92.597867 
L 270.098182 93.979914 
L 273.141818 95.447942 
L 276.185455 97.000761 
L 279.229091 98.637105 
L 282.272727 100.355635 
L 285.316364 102.154935 
L 288.36 104.033516 
L 291.403636 105.989816 
L 294.447273 108.022196 
L 297.490909 110.128944 
L 300.534545 112.308273 
L 303.578182 114.558323 
L 306.621818 116.877156 
L 309.665455 119.262764 
L 312.709091 121.713062 
L 315.752727 124.22589 
L 318.796364 126.799016 
L 321.84 129.430131 
L 324.883636 132.116852 
L 327.927273 134.856724 
L 330.970909 137.647215 
L 334.014545 140.485719 
L 337.058182 143.369556 
L 340.101818 146.295971 
L 343.145455 149.262136 
L 346.189091 152.265147 
L 349.232727 155.302025 
L 352.276364 158.369719 
L 355.32 161.465102 
L 358.363636 164.584973 
L 361.407273 167.726054 
L 364.450909 170.884998 
L 367.494545 174.058378 
L 370.538182 177.242696 
L 373.581818 180.434378 
" style="fill:none;stroke:#0000ff;stroke-linecap:square;stroke-width:2;"/>
   </g>
   <g id="patch_3">
    <path d="M 54 252 
L 54 34.56 
" style="fill:none;stroke:#000000;stroke-linecap:square;stroke-linejoin:miter;stroke-width:0.8;"/>
   </g>
   <g id="patch_4">
    <path d="M 388.8 252 
L 388.8 34.56 
" style="fill:none;stroke:#000000;stroke-linecap:square;stroke-linejoin:miter;stroke-width:0.8;"/>
   </g>
   <g id="patch_5">
    <path d="M 54 252 
L 388.8 252 
" style="fill:none;stroke:#000000;stroke-linecap:square;stroke-linejoin:miter;stroke-width:0.8;"/>
   </g>
   <g id="patch_6">
    <path d="M 54 34.56 
L 388.8 34.56 
" style="fill:none;stroke:#000000;stroke-linecap:square;stroke-linejoin:miter;stroke-width:0.8;"/>
   </g>
   <g id="text_21">
    <!-- Hermite polynomials -->
    <defs>
     <path d="M 9.8125 72.90625 
L 19.671875 72.90625 
L 19.671875 43.015625 
L 55.515625 43.015625 
L 55.515625 72.90625 
L 65.375 72.90625 
L 65.375 0 
L 55.515625 0 
L 55.515625 34.71875 
L 19.671875 34.71875 
L 19.671875 0 
L 9.8125 0 
z
" id="DejaVuSans-48"/>
     <path d="M 41.109375 46.296875 
Q 39.59375 47.171875 37.8125 47.578125 
Q 36.03125 48 33.890625 48 
Q 26.265625 48 22.1875 43.046875 
Q 18.109375 38.09375 18.109375 28.8125 
L 18.109375 0 
L 9.078125 0 
L 9.078125 54.6875 
L 18.109375 54.6875 
L 18.109375 46.1875 
Q 20.953125 51.171875 25.484375 53.578125 
Q 30.03125 56 36.53125 56 
Q 37.453125 56 38.578125 55.875 
Q 39.703125 55.765625 41.0625 55.515625 
z
" id="DejaVuSans-72"/>
     <path d="M 18.3125 70.21875 
L 18.3125 54.6875 
L 36.8125 54.6875 
L 36.8125 47.703125 
L 18.3125 47.703125 
L 18.3125 18.015625 
Q 18.3125 11.328125 20.140625 9.421875 
Q 21.96875 7.515625 27.59375 7.515625 
L 36.8125 7.515625 
L 36.8125 0 
L 27.59375 0 
Q 17.1875 0 13.234375 3.875 
Q 9.28125 7.765625 9.28125 18.015625 
L 9.28125 47.703125 
L 2.6875 47.703125 
L 2.6875 54.6875 
L 9.28125 54.6875 
L 9.28125 70.21875 
z
" id="DejaVuSans-74"/>
    </defs>
    <g transform="translate(159.115313 28.56)scale(0.12 -0.12)">
     <use xlink:href="#DejaVuSans-48"/>
     <use x="75.195312" xlink:href="#DejaVuSans-65"/>
     <use x="136.71875" xlink:href="#DejaVuSans-72"/>
     <use x="177.816406" xlink:href="#DejaVuSans-6d"/>
     <use x="275.228516" xlink:href="#DejaVuSans-69"/>
     <use x="303.011719" xlink:href="#DejaVuSans-74"/>
     <use x="342.220703" xlink:href="#DejaVuSans-65"/>
     <use x="403.744141" xlink:href="#DejaVuSans-20"/>
     <use x="435.53125" xlink:href="#DejaVuSans-70"/>
     <use x="499.007812" xlink:href="#DejaVuSans-6f"/>
     <use x="560.189453" xlink:href="#DejaVuSans-6c"/>
     <use x="587.972656" xlink:href="#DejaVuSans-79"/>
     <use x="647.152344" xlink:href="#DejaVuSans-6e"/>
     <use x="710.53125" xlink:href="#DejaVuSans-6f"/>
     <use x="771.712891" xlink:href="#DejaVuSans-6d"/>
     <use x="869.125" xlink:href="#DejaVuSans-69"/>
     <use x="896.908203" xlink:href="#DejaVuSans-61"/>
     <use x="958.1875" xlink:href="#DejaVuSans-6c"/>
     <use x="985.970703" xlink:href="#DejaVuSans-73"/>
    </g>
   </g>
   <g id="legend_1">
    <g id="patch_7">
     <path d="M 306.995313 117.950625 
L 383.8 117.950625 
Q 385.8 117.950625 385.8 115.950625 
L 385.8 43.56 
Q 385.8 41.56 383.8 41.56 
L 306.995313 41.56 
Q 304.995313 41.56 304.995313 43.56 
L 304.995313 115.950625 
Q 304.995313 117.950625 306.995313 117.950625 
z
" style="fill:#4c4c4c;opacity:0.5;stroke:#4c4c4c;stroke-linejoin:miter;"/>
    </g>
    <g id="patch_8">
     <path d="M 304.995313 115.950625 
L 381.8 115.950625 
Q 383.8 115.950625 383.8 113.950625 
L 383.8 41.56 
Q 383.8 39.56 381.8 39.56 
L 304.995313 39.56 
Q 302.995313 39.56 302.995313 41.56 
L 302.995313 113.950625 
Q 302.995313 115.950625 304.995313 115.950625 
z
" style="fill:#ffffff;stroke:#cccccc;stroke-linejoin:miter;"/>
    </g>
    <g id="line2d_42">
     <path d="M 306.995313 47.658437 
L 326.995313 47.658437 
" style="fill:none;stroke:#ff0000;stroke-linecap:square;stroke-width:2;"/>
    </g>
    <g id="line2d_43"/>
    <g id="text_22">
     <!-- degree 0 -->
     <defs>
      <path d="M 45.40625 46.390625 
L 45.40625 75.984375 
L 54.390625 75.984375 
L 54.390625 0 
L 45.40625 0 
L 45.40625 8.203125 
Q 42.578125 3.328125 38.25 0.953125 
Q 33.9375 -1.421875 27.875 -1.421875 
Q 17.96875 -1.421875 11.734375 6.484375 
Q 5.515625 14.40625 5.515625 27.296875 
Q 5.515625 40.1875 11.734375 48.09375 
Q 17.96875 56 27.875 56 
Q 33.9375 56 38.25 53.625 
Q 42.578125 51.265625 45.40625 46.390625 
z
M 14.796875 27.296875 
Q 14.796875 17.390625 18.875 11.75 
Q 22.953125 6.109375 30.078125 6.109375 
Q 37.203125 6.109375 41.296875 11.75 
Q 45.40625 17.390625 45.40625 27.296875 
Q 45.40625 37.203125 41.296875 42.84375 
Q 37.203125 48.484375 30.078125 48.484375 
Q 22.953125 48.484375 18.875 42.84375 
Q 14.796875 37.203125 14.796875 27.296875 
z
" id="DejaVuSans-64"/>
      <path d="M 45.40625 27.984375 
Q 45.40625 37.75 41.375 43.109375 
Q 37.359375 48.484375 30.078125 48.484375 
Q 22.859375 48.484375 18.828125 43.109375 
Q 14.796875 37.75 14.796875 27.984375 
Q 14.796875 18.265625 18.828125 12.890625 
Q 22.859375 7.515625 30.078125 7.515625 
Q 37.359375 7.515625 41.375 12.890625 
Q 45.40625 18.265625 45.40625 27.984375 
z
M 54.390625 6.78125 
Q 54.390625 -7.171875 48.1875 -13.984375 
Q 42 -20.796875 29.203125 -20.796875 
Q 24.46875 -20.796875 20.265625 -20.09375 
Q 16.0625 -19.390625 12.109375 -17.921875 
L 12.109375 -9.1875 
Q 16.0625 -11.328125 19.921875 -12.34375 
Q 23.78125 -13.375 27.78125 -13.375 
Q 36.625 -13.375 41.015625 -8.765625 
Q 45.40625 -4.15625 45.40625 5.171875 
L 45.40625 9.625 
Q 42.625 4.78125 38.28125 2.390625 
Q 33.9375 0 27.875 0 
Q 17.828125 0 11.671875 7.65625 
Q 5.515625 15.328125 5.515625 27.984375 
Q 5.515625 40.671875 11.671875 48.328125 
Q 17.828125 56 27.875 56 
Q 33.9375 56 38.28125 53.609375 
Q 42.625 51.21875 45.40625 46.390625 
L 45.40625 54.6875 
L 54.390625 54.6875 
z
" id="DejaVuSans-67"/>
     </defs>
     <g transform="translate(334.995313 51.158437)scale(0.1 -0.1)">
      <use xlink:href="#DejaVuSans-64"/>
      <use x="63.476562" xlink:href="#DejaVuSans-65"/>
      <use x="125" xlink:href="#DejaVuSans-67"/>
      <use x="188.476562" xlink:href="#DejaVuSans-72"/>
      <use x="229.558594" xlink:href="#DejaVuSans-65"/>
      <use x="291.082031" xlink:href="#DejaVuSans-65"/>
      <use x="352.605469" xlink:href="#DejaVuSans-20"/>
      <use x="384.392578" xlink:href="#DejaVuSans-30"/>
     </g>
    </g>
    <g id="line2d_44">
     <path d="M 306.995313 62.336562 
L 326.995313 62.336562 
" style="fill:none;stroke:#ffff00;stroke-linecap:square;stroke-width:2;"/>
    </g>
    <g id="line2d_45"/>
    <g id="text_23">
     <!-- degree 1 -->
     <g transform="translate(334.995313 65.836562)scale(0.1 -0.1)">
      <use xlink:href="#DejaVuSans-64"/>
      <use x="63.476562" xlink:href="#DejaVuSans-65"/>
      <use x="125" xlink:href="#DejaVuSans-67"/>
      <use x="188.476562" xlink:href="#DejaVuSans-72"/>
      <use x="229.558594" xlink:href="#DejaVuSans-65"/>
      <use x="291.082031" xlink:href="#DejaVuSans-65"/>
      <use x="352.605469" xlink:href="#DejaVuSans-20"/>
      <use x="384.392578" xlink:href="#DejaVuSans-31"/>
     </g>
    </g>
    <g id="line2d_46">
     <path d="M 306.995313 77.014687 
L 326.995313 77.014687 
" style="fill:none;stroke:#00ff00;stroke-linecap:square;stroke-width:2;"/>
    </g>
    <g id="line2d_47"/>
    <g id="text_24">
     <!-- degree 2 -->
     <g transform="translate(334.995313 80.514687)scale(0.1 -0.1)">
      <use xlink:href="#DejaVuSans-64"/>
      <use x="63.476562" xlink:href="#DejaVuSans-65"/>
      <use x="125" xlink:href="#DejaVuSans-67"/>
      <use x="188.476562" xlink:href="#DejaVuSans-72"/>
      <use x="229.558594" xlink:href="#DejaVuSans-65"/>
      <use x="291.082031" xlink:href="#DejaVuSans-65"/>
      <use x="352.605469" xlink:href="#DejaVuSans-20"/>
      <use x="384.392578" xlink:href="#DejaVuSans-32"/>
     </g>
    </g>
    <g id="line2d_48">
     <path d="M 306.995313 91.692813 
L 326.995313 91.692813 
" style="fill:none;stroke:#00ffff;stroke-linecap:square;stroke-width:2;"/>
    </g>
    <g id="line2d_49"/>
    <g id="text_25">
     <!-- degree 3 -->
     <defs>
      <path d="M 40.578125 39.3125 
Q 47.65625 37.796875 51.625 33 
Q 55.609375 28.21875 55.609375 21.1875 
Q 55.609375 10.40625 48.1875 4.484375 
Q 40.765625 -1.421875 27.09375 -1.421875 
Q 22.515625 -1.421875 17.65625 -0.515625 
Q 12.796875 0.390625 7.625 2.203125 
L 7.625 11.71875 
Q 11.71875 9.328125 16.59375 8.109375 
Q 21.484375 6.890625 26.8125 6.890625 
Q 36.078125 6.890625 40.9375 10.546875 
Q 45.796875 14.203125 45.796875 21.1875 
Q 45.796875 27.640625 41.28125 31.265625 
Q 36.765625 34.90625 28.71875 34.90625 
L 20.21875 34.90625 
L 20.21875 43.015625 
L 29.109375 43.015625 
Q 36.375 43.015625 40.234375 45.921875 
Q 44.09375 48.828125 44.09375 54.296875 
Q 44.09375 59.90625 40.109375 62.90625 
Q 36.140625 65.921875 28.71875 65.921875 
Q 24.65625 65.921875 20.015625 65.03125 
Q 15.375 64.15625 9.8125 62.3125 
L 9.8125 71.09375 
Q 15.4375 72.65625 20.34375 73.4375 
Q 25.25 74.21875 29.59375 74.21875 
Q 40.828125 74.21875 47.359375 69.109375 
Q 53.90625 64.015625 53.90625 55.328125 
Q 53.90625 49.265625 50.4375 45.09375 
Q 46.96875 40.921875 40.578125 39.3125 
z
" id="DejaVuSans-33"/>
     </defs>
     <g transform="translate(334.995313 95.192813)scale(0.1 -0.1)">
      <use xlink:href="#DejaVuSans-64"/>
      <use x="63.476562" xlink:href="#DejaVuSans-65"/>
      <use x="125" xlink:href="#DejaVuSans-67"/>
      <use x="188.476562" xlink:href="#DejaVuSans-72"/>
      <use x="229.558594" xlink:href="#DejaVuSans-65"/>
      <use x="291.082031" xlink:href="#DejaVuSans-65"/>
      <use x="352.605469" xlink:href="#DejaVuSans-20"/>
      <use x="384.392578" xlink:href="#DejaVuSans-33"/>
     </g>
    </g>
    <g id="line2d_50">
     <path d="M 306.995313 106.370937 
L 326.995313 106.370937 
" style="fill:none;stroke:#0000ff;stroke-linecap:square;stroke-width:2;"/>
    </g>
    <g id="line2d_51"/>
    <g id="text_26">
     <!-- degree 4 -->
     <defs>
      <path d="M 37.796875 64.3125 
L 12.890625 25.390625 
L 37.796875 25.390625 
z
M 35.203125 72.90625 
L 47.609375 72.90625 
L 47.609375 25.390625 
L 58.015625 25.390625 
L 58.015625 17.1875 
L 47.609375 17.1875 
L 47.609375 0 
L 37.796875 0 
L 37.796875 17.1875 
L 4.890625 17.1875 
L 4.890625 26.703125 
z
" id="DejaVuSans-34"/>
     </defs>
     <g transform="translate(334.995313 109.870937)scale(0.1 -0.1)">
      <use xlink:href="#DejaVuSans-64"/>
      <use x="63.476562" xlink:href="#DejaVuSans-65"/>
      <use x="125" xlink:href="#DejaVuSans-67"/>
      <use x="188.476562" xlink:href="#DejaVuSans-72"/>
      <use x="229.558594" xlink:href="#DejaVuSans-65"/>
      <use x="291.082031" xlink:href="#DejaVuSans-65"/>
      <use x="352.605469" xlink:href="#DejaVuSans-20"/>
      <use x="384.392578" xlink:href="#DejaVuSans-34"/>
     </g>
    </g>
   </g>
  </g>
 </g>
 <defs>
  <clipPath id="pf4c3915c3e">
   <rect height="217.44" width="334.8" x="54" y="34.56"/>
  </clipPath>
 </defs>
</svg>
