<?xml version="1.0" encoding="utf-8" standalone="no"?>
<!DOCTYPE svg PUBLIC "-//W3C//DTD SVG 1.1//EN"
  "http://www.w3.org/Graphics/SVG/1.1/DTD/svg11.dtd">
<!-- Created with matplotlib (http://matplotlib.org/) -->
<svg height="288pt" version="1.1" viewBox="0 0 432 288" width="432pt" xmlns="http://www.w3.org/2000/svg" xmlns:xlink="http://www.w3.org/1999/xlink">
 <defs>
  <style type="text/css">
*{stroke-linecap:butt;stroke-linejoin:round;stroke-miterlimit:100000;}
  </style>
 </defs>
 <g id="figure_1">
  <g id="patch_1">
   <path d="M 0 288 
L 432 288 
L 432 0 
L 0 0 
z
" style="fill:#ffffff;"/>
  </g>
  <g id="axes_1">
   <g id="patch_2">
    <path d="M 54 252 
L 388.8 252 
L 388.8 28.8 
L 54 28.8 
z
" style="fill:#ffffff;"/>
   </g>
   <g id="LineCollection_1">
    <path clip-path="url(#p4c93399af5)" d="M 153.39375 39.6875 
L 153.39375 183.99375 
L 156.009375 185.7375 
L 388.8 185.7375 
L 388.8 185.7375 
" style="fill:none;stroke:#0000ff;"/>
   </g>
   <g id="LineCollection_2">
    <path clip-path="url(#p4c93399af5)" d="M 160.455185 28.8 
L 160.498364 96.80625 
L 161.389871 109.0125 
L 162.225674 117.73125 
L 163.069269 124.70625 
L 164.134886 131.68125 
L 165.1383 136.9125 
L 166.471875 142.452211 
L 167.408013 145.63125 
L 168.627476 149.11875 
L 170.112085 152.60625 
L 171.958864 156.09375 
L 173.062171 157.8375 
L 174.31875 159.58125 
L 176.934375 162.571007 
L 177.440085 163.06875 
L 179.55 164.92443 
L 182.165625 166.825134 
L 184.78125 168.392288 
L 188.14349 170.04375 
L 190.0125 170.824719 
L 192.628125 171.7875 
L 197.859375 173.360758 
L 200.475 174.011736 
L 206.583254 175.275 
L 213.553125 176.394658 
L 221.4 177.374039 
L 229.246875 178.146485 
L 239.709375 178.953877 
L 252.7875 179.72023 
L 268.48125 180.406753 
L 286.790625 181.001091 
L 299.425 181.029877 
L 299.425 181.029877 
" style="fill:none;stroke:#0000ff;"/>
    <path clip-path="url(#p4c93399af5)" d="M 352.625 181.029877 
L 354.796875 181.029877 
L 357.4125 181.029877 
L 360.028125 181.029877 
L 362.64375 181.029877 
L 365.259375 181.029877 
L 367.875 181.029877 
L 370.490625 181.029877 
L 373.10625 181.029877 
L 375.721875 181.029877 
L 378.3375 181.029877 
L 380.953125 181.029877 
L 383.56875 181.029877 
L 386.184375 181.029877 
L 388.8 181.029877 
" style="fill:none;stroke:#0000ff;"/>
   </g>
   <g id="LineCollection_3">
    <path clip-path="url(#p4c93399af5)" d="M 183.374599 28.8 
L 183.374599 30.54375 
L 183.374599 32.2875 
L 183.374599 34.03125 
L 183.374599 35.775 
L 183.374599 37.51875 
L 183.374599 39.2625 
L 183.374599 41.00625 
L 183.374599 42.75 
L 183.374599 44.49375 
L 183.374599 46.2375 
L 183.374599 47.98125 
L 183.374599 49.725 
L 183.374599 51.46875 
L 183.374599 53.2125 
L 183.374599 54.95625 
L 183.374599 56.7 
L 183.374599 58.44375 
L 183.374599 60.1875 
L 183.374599 61.93125 
L 183.374599 63.675 
L 183.374599 65.41875 
L 183.374599 67.1625 
L 183.374599 68.90625 
L 183.374599 70.65 
L 183.374599 72.39375 
L 183.374599 74.1375 
L 183.374599 75.88125 
L 183.374599 77.625 
L 183.374599 79.36875 
L 183.374599 81.1125 
L 183.374599 82.85625 
L 183.374599 84.6 
L 183.374599 86.34375 
L 183.374599 88.0875 
L 183.374599 89.83125 
L 183.374599 91.575 
L 183.374599 93.31875 
L 183.374599 95.0625 
L 183.598246 96.80625 
L 184.177774 98.55 
L 184.78125 100.29375 
L 185.410191 102.0375 
L 186.066244 103.78125 
L 186.7512 105.525 
L 187.396875 107.101296 
L 187.467012 107.26875 
L 188.215812 109.0125 
L 188.999937 110.75625 
L 189.821944 112.5 
L 190.0125 112.89255 
L 190.684649 114.24375 
L 191.591149 115.9875 
L 192.544866 117.73125 
L 192.628125 117.879286 
L 193.549589 119.475 
L 194.609521 121.21875 
L 195.24375 122.21826 
L 195.729341 122.9625 
L 196.914274 124.70625 
L 197.859375 126.027989 
L 198.170167 126.45 
L 199.503592 128.19375 
L 200.475 129.399738 
L 200.921957 129.9375 
L 202.433646 131.68125 
L 203.090625 132.404929 
L 204.048181 133.425 
L 205.70625 135.100256 
L 205.776429 135.16875 
L 207.630841 136.9125 
L 208.321875 137.531294 
L 209.625755 138.65625 
L 210.9375 139.735098 
L 211.77777 140.4 
L 213.553125 141.742107 
L 214.106201 142.14375 
L 216.16875 143.577553 
L 216.633671 143.8875 
L 218.784375 145.262533 
L 219.38684 145.63125 
L 220.805574 146.465347 
" style="fill:none;stroke:#0000ff;"/>
    <path clip-path="url(#p4c93399af5)" d="M 266.386322 162.104107 
L 268.48125 162.522792 
L 271.096875 163.021992 
L 271.348055 163.06875 
L 273.7125 163.4992 
L 276.328125 163.955837 
L 278.94375 164.393206 
L 281.559375 164.8125 
L 284.175 165.214818 
L 286.790625 165.601169 
L 289.40625 165.750267 
L 292.021875 165.750267 
L 294.6375 165.750267 
L 297.253125 165.750267 
L 299.86875 165.750267 
L 302.484375 165.750267 
L 305.1 165.750267 
L 307.715625 165.750267 
L 310.33125 165.750267 
L 312.946875 165.750267 
L 315.5625 165.750267 
L 318.178125 165.750267 
L 320.79375 165.750267 
L 323.409375 165.750267 
L 326.025 165.750267 
L 328.640625 165.750267 
L 331.25625 165.750267 
L 333.871875 165.750267 
L 336.4875 165.750267 
L 339.103125 165.750267 
L 341.71875 165.750267 
L 344.334375 165.750267 
L 346.95 165.750267 
L 349.565625 165.750267 
L 352.18125 165.750267 
L 354.796875 165.750267 
L 357.4125 165.750267 
L 360.028125 165.750267 
L 362.64375 165.750267 
L 365.259375 165.750267 
L 367.875 165.750267 
L 370.490625 165.750267 
L 373.10625 165.750267 
L 375.721875 165.750267 
L 378.3375 165.750267 
L 380.953125 165.750267 
L 383.56875 165.750267 
L 386.184375 165.750267 
L 388.8 165.750267 
" style="fill:none;stroke:#0000ff;"/>
   </g>
   <g id="LineCollection_4">
    <path clip-path="url(#p4c93399af5)" d="M 216.16875 28.8 
L 216.16875 30.54375 
L 216.16875 32.2875 
L 216.16875 34.03125 
L 216.16875 35.775 
L 216.16875 37.51875 
L 216.16875 37.73125 
" style="fill:none;stroke:#0000ff;"/>
    <path clip-path="url(#p4c93399af5)" d="M 216.16875 86.13125 
L 216.16875 86.34375 
L 216.16875 88.0875 
L 216.16875 89.83125 
L 216.16875 91.575 
L 216.16875 93.31875 
L 216.16875 95.0625 
L 216.650619 96.80625 
L 217.899266 98.55 
L 218.784375 99.744735 
L 219.199513 100.29375 
L 220.554626 102.0375 
L 221.4 103.089286 
L 221.968154 103.78125 
L 223.443956 105.525 
L 224.015625 106.180431 
L 224.98624 107.26875 
L 226.599603 109.0125 
L 226.63125 109.04592 
L 228.289073 110.75625 
L 229.246875 111.70959 
L 230.060167 112.5 
L 231.8625 114.192039 
L 231.918945 114.24375 
L 233.872085 115.9875 
L 234.478125 116.511153 
L 235.926959 117.73125 
L 237.09375 118.682536 
L 238.091729 119.475 
L 239.709375 120.719871 
L 240.375453 121.21875 
L 242.325 122.635198 
L 242.788213 122.9625 
L 244.940625 124.439159 
L 245.341262 124.70625 
L 247.55625 126.141192 
L 248.047203 126.45 
L 250.171875 127.749698 
L 250.920193 128.19375 
L 252.7875 129.27218 
L 253.976195 129.9375 
L 255.403125 130.715361 
L 257.233271 131.68125 
L 258.01875 132.085277 
L 260.634375 133.38737 
L 260.711941 133.425 
L 263.25 134.626556 
L 264.435614 135.16875 
L 265.865625 135.807285 
L 268.431121 136.9125 
L 268.48125 136.933598 
L 271.096875 138.009173 
L 272.729353 138.65625 
L 273.7125 139.037363 
L 276.328125 140.021231 
L 277.366071 140.4 
L 278.94375 140.963582 
L 281.559375 141.866992 
L 282.382898 142.14375 
L 284.175 142.733823 
L 286.790625 143.566254 
L 289.40625 143.8875 
L 292.021875 143.8875 
L 294.6375 143.8875 
L 297.253125 143.8875 
L 299.86875 143.8875 
L 302.484375 143.8875 
L 305.1 143.8875 
L 307.715625 143.8875 
L 310.33125 143.8875 
L 312.946875 143.8875 
L 315.5625 143.8875 
L 318.178125 143.8875 
L 320.79375 143.8875 
L 323.409375 143.8875 
L 326.025 143.8875 
L 328.640625 143.8875 
L 331.25625 143.8875 
L 333.871875 143.8875 
L 336.4875 143.8875 
L 339.103125 143.8875 
L 341.71875 143.8875 
L 344.334375 143.8875 
L 346.95 143.8875 
L 349.565625 143.8875 
L 352.18125 143.8875 
L 354.796875 143.8875 
L 357.4125 143.8875 
L 360.028125 143.8875 
L 362.64375 143.8875 
L 365.259375 143.8875 
L 367.875 143.8875 
L 370.490625 143.8875 
L 373.10625 143.8875 
L 375.721875 143.8875 
L 378.3375 143.8875 
L 380.953125 143.8875 
L 383.56875 143.8875 
L 386.184375 143.8875 
L 388.8 143.8875 
" style="fill:none;stroke:#0000ff;"/>
   </g>
   <g id="LineCollection_5">
    <path clip-path="url(#p4c93399af5)" d="M 258.01875 28.8 
L 258.01875 30.54375 
L 258.01875 32.2875 
L 258.01875 34.03125 
L 258.01875 35.775 
L 258.01875 37.51875 
L 258.01875 39.2625 
L 258.01875 41.00625 
L 258.01875 42.75 
L 258.01875 44.49375 
L 258.01875 46.2375 
L 258.01875 47.98125 
L 258.01875 49.725 
L 258.01875 51.46875 
L 258.01875 53.2125 
L 258.01875 54.95625 
L 258.01875 56.7 
L 258.01875 58.44375 
L 258.01875 60.1875 
L 258.01875 61.93125 
L 258.01875 63.675 
L 258.01875 65.41875 
L 258.01875 67.1625 
L 258.01875 68.90625 
L 258.01875 70.65 
L 258.01875 72.39375 
L 258.01875 74.1375 
L 258.01875 75.88125 
L 258.01875 77.625 
L 258.01875 79.36875 
L 258.01875 81.1125 
L 258.01875 82.85625 
L 258.01875 84.6 
L 258.01875 86.34375 
L 258.01875 88.0875 
L 258.01875 89.83125 
L 258.01875 91.575 
L 258.01875 93.31875 
L 258.01875 95.0625 
L 258.830146 96.80625 
L 260.634375 98.30682 
L 260.932685 98.55 
L 261.540533 99.034115 
" style="fill:none;stroke:#0000ff;"/>
    <path clip-path="url(#p4c93399af5)" d="M 304.972408 115.9875 
L 305.1 115.9875 
L 307.715625 115.9875 
L 310.33125 115.9875 
L 312.946875 115.9875 
L 315.5625 115.9875 
L 318.178125 115.9875 
L 320.79375 115.9875 
L 323.409375 115.9875 
L 326.025 115.9875 
L 328.640625 115.9875 
L 331.25625 115.9875 
L 333.871875 115.9875 
L 336.4875 115.9875 
L 339.103125 115.9875 
L 341.71875 115.9875 
L 344.334375 115.9875 
L 346.95 115.9875 
L 349.565625 115.9875 
L 352.18125 115.9875 
L 354.796875 115.9875 
L 357.4125 115.9875 
L 360.028125 115.9875 
L 362.64375 115.9875 
L 365.259375 115.9875 
L 367.875 115.9875 
L 370.490625 115.9875 
L 373.10625 115.9875 
L 375.721875 115.9875 
L 378.3375 115.9875 
L 380.953125 115.9875 
L 383.56875 115.9875 
L 386.184375 115.9875 
L 388.8 115.9875 
" style="fill:none;stroke:#0000ff;"/>
   </g>
   <g id="LineCollection_6"/>
   <g id="patch_3">
    <path d="M 54 252 
L 388.8 252 
" style="fill:none;stroke:#000000;stroke-linecap:square;stroke-linejoin:miter;"/>
   </g>
   <g id="patch_4">
    <path d="M 54 252 
L 54 28.8 
" style="fill:none;stroke:#000000;stroke-linecap:square;stroke-linejoin:miter;"/>
   </g>
   <g id="patch_5">
    <path d="M 388.8 252 
L 388.8 28.8 
" style="fill:none;stroke:#000000;stroke-linecap:square;stroke-linejoin:miter;"/>
   </g>
   <g id="patch_6">
    <path d="M 54 28.8 
L 388.8 28.8 
" style="fill:none;stroke:#000000;stroke-linecap:square;stroke-linejoin:miter;"/>
   </g>
   <g id="matplotlib.axis_1">
    <g id="xtick_1">
     <g id="line2d_1">
      <path clip-path="url(#p4c93399af5)" d="M 88.542857 252 
L 88.542857 28.8 
" style="fill:none;stroke:#000000;stroke-dasharray:1.000000,3.000000;stroke-dashoffset:0.0;stroke-width:0.5;"/>
     </g>
     <g id="line2d_2">
      <defs>
       <path d="M 0 0 
L 0 -4 
" id="mf79205835c" style="stroke:#000000;stroke-width:0.5;"/>
      </defs>
      <g>
       <use style="stroke:#000000;stroke-width:0.5;" x="88.5428571429" xlink:href="#mf79205835c" y="252.0"/>
      </g>
     </g>
     <g id="line2d_3">
      <defs>
       <path d="M 0 0 
L 0 4 
" id="m3aec1b6de9" style="stroke:#000000;stroke-width:0.5;"/>
      </defs>
      <g>
       <use style="stroke:#000000;stroke-width:0.5;" x="88.5428571429" xlink:href="#m3aec1b6de9" y="28.8"/>
      </g>
     </g>
     <g id="text_1">
      <!-- 4 -->
      <defs>
       <path d="M 37.796875 64.3125 
L 12.890625 25.390625 
L 37.796875 25.390625 
z
M 35.203125 72.90625 
L 47.609375 72.90625 
L 47.609375 25.390625 
L 58.015625 25.390625 
L 58.015625 17.1875 
L 47.609375 17.1875 
L 47.609375 0 
L 37.796875 0 
L 37.796875 17.1875 
L 4.890625 17.1875 
L 4.890625 26.703125 
z
" id="BitstreamVeraSans-Roman-34"/>
      </defs>
      <g transform="translate(85.3616071429 263.5984375)scale(0.1 -0.1)">
       <use xlink:href="#BitstreamVeraSans-Roman-34"/>
      </g>
     </g>
    </g>
    <g id="xtick_2">
     <g id="line2d_4">
      <path clip-path="url(#p4c93399af5)" d="M 154.971429 252 
L 154.971429 28.8 
" style="fill:none;stroke:#000000;stroke-dasharray:1.000000,3.000000;stroke-dashoffset:0.0;stroke-width:0.5;"/>
     </g>
     <g id="line2d_5">
      <g>
       <use style="stroke:#000000;stroke-width:0.5;" x="154.971428571" xlink:href="#mf79205835c" y="252.0"/>
      </g>
     </g>
     <g id="line2d_6">
      <g>
       <use style="stroke:#000000;stroke-width:0.5;" x="154.971428571" xlink:href="#m3aec1b6de9" y="28.8"/>
      </g>
     </g>
     <g id="text_2">
      <!-- 5 -->
      <defs>
       <path d="M 10.796875 72.90625 
L 49.515625 72.90625 
L 49.515625 64.59375 
L 19.828125 64.59375 
L 19.828125 46.734375 
Q 21.96875 47.46875 24.109375 47.828125 
Q 26.265625 48.1875 28.421875 48.1875 
Q 40.625 48.1875 47.75 41.5 
Q 54.890625 34.8125 54.890625 23.390625 
Q 54.890625 11.625 47.5625 5.09375 
Q 40.234375 -1.421875 26.90625 -1.421875 
Q 22.3125 -1.421875 17.546875 -0.640625 
Q 12.796875 0.140625 7.71875 1.703125 
L 7.71875 11.625 
Q 12.109375 9.234375 16.796875 8.0625 
Q 21.484375 6.890625 26.703125 6.890625 
Q 35.15625 6.890625 40.078125 11.328125 
Q 45.015625 15.765625 45.015625 23.390625 
Q 45.015625 31 40.078125 35.4375 
Q 35.15625 39.890625 26.703125 39.890625 
Q 22.75 39.890625 18.8125 39.015625 
Q 14.890625 38.140625 10.796875 36.28125 
z
" id="BitstreamVeraSans-Roman-35"/>
      </defs>
      <g transform="translate(151.790178571 263.5984375)scale(0.1 -0.1)">
       <use xlink:href="#BitstreamVeraSans-Roman-35"/>
      </g>
     </g>
    </g>
    <g id="xtick_3">
     <g id="line2d_7">
      <path clip-path="url(#p4c93399af5)" d="M 221.4 252 
L 221.4 28.8 
" style="fill:none;stroke:#000000;stroke-dasharray:1.000000,3.000000;stroke-dashoffset:0.0;stroke-width:0.5;"/>
     </g>
     <g id="line2d_8">
      <g>
       <use style="stroke:#000000;stroke-width:0.5;" x="221.4" xlink:href="#mf79205835c" y="252.0"/>
      </g>
     </g>
     <g id="line2d_9">
      <g>
       <use style="stroke:#000000;stroke-width:0.5;" x="221.4" xlink:href="#m3aec1b6de9" y="28.8"/>
      </g>
     </g>
     <g id="text_3">
      <!-- 6 -->
      <defs>
       <path d="M 33.015625 40.375 
Q 26.375 40.375 22.484375 35.828125 
Q 18.609375 31.296875 18.609375 23.390625 
Q 18.609375 15.53125 22.484375 10.953125 
Q 26.375 6.390625 33.015625 6.390625 
Q 39.65625 6.390625 43.53125 10.953125 
Q 47.40625 15.53125 47.40625 23.390625 
Q 47.40625 31.296875 43.53125 35.828125 
Q 39.65625 40.375 33.015625 40.375 
M 52.59375 71.296875 
L 52.59375 62.3125 
Q 48.875 64.0625 45.09375 64.984375 
Q 41.3125 65.921875 37.59375 65.921875 
Q 27.828125 65.921875 22.671875 59.328125 
Q 17.53125 52.734375 16.796875 39.40625 
Q 19.671875 43.65625 24.015625 45.921875 
Q 28.375 48.1875 33.59375 48.1875 
Q 44.578125 48.1875 50.953125 41.515625 
Q 57.328125 34.859375 57.328125 23.390625 
Q 57.328125 12.15625 50.6875 5.359375 
Q 44.046875 -1.421875 33.015625 -1.421875 
Q 20.359375 -1.421875 13.671875 8.265625 
Q 6.984375 17.96875 6.984375 36.375 
Q 6.984375 53.65625 15.1875 63.9375 
Q 23.390625 74.21875 37.203125 74.21875 
Q 40.921875 74.21875 44.703125 73.484375 
Q 48.484375 72.75 52.59375 71.296875 
" id="BitstreamVeraSans-Roman-36"/>
      </defs>
      <g transform="translate(218.21875 263.5984375)scale(0.1 -0.1)">
       <use xlink:href="#BitstreamVeraSans-Roman-36"/>
      </g>
     </g>
    </g>
    <g id="xtick_4">
     <g id="line2d_10">
      <path clip-path="url(#p4c93399af5)" d="M 287.828571 252 
L 287.828571 28.8 
" style="fill:none;stroke:#000000;stroke-dasharray:1.000000,3.000000;stroke-dashoffset:0.0;stroke-width:0.5;"/>
     </g>
     <g id="line2d_11">
      <g>
       <use style="stroke:#000000;stroke-width:0.5;" x="287.828571429" xlink:href="#mf79205835c" y="252.0"/>
      </g>
     </g>
     <g id="line2d_12">
      <g>
       <use style="stroke:#000000;stroke-width:0.5;" x="287.828571429" xlink:href="#m3aec1b6de9" y="28.8"/>
      </g>
     </g>
     <g id="text_4">
      <!-- 7 -->
      <defs>
       <path d="M 8.203125 72.90625 
L 55.078125 72.90625 
L 55.078125 68.703125 
L 28.609375 0 
L 18.3125 0 
L 43.21875 64.59375 
L 8.203125 64.59375 
z
" id="BitstreamVeraSans-Roman-37"/>
      </defs>
      <g transform="translate(284.647321429 263.5984375)scale(0.1 -0.1)">
       <use xlink:href="#BitstreamVeraSans-Roman-37"/>
      </g>
     </g>
    </g>
    <g id="xtick_5">
     <g id="line2d_13">
      <path clip-path="url(#p4c93399af5)" d="M 354.257143 252 
L 354.257143 28.8 
" style="fill:none;stroke:#000000;stroke-dasharray:1.000000,3.000000;stroke-dashoffset:0.0;stroke-width:0.5;"/>
     </g>
     <g id="line2d_14">
      <g>
       <use style="stroke:#000000;stroke-width:0.5;" x="354.257142857" xlink:href="#mf79205835c" y="252.0"/>
      </g>
     </g>
     <g id="line2d_15">
      <g>
       <use style="stroke:#000000;stroke-width:0.5;" x="354.257142857" xlink:href="#m3aec1b6de9" y="28.8"/>
      </g>
     </g>
     <g id="text_5">
      <!-- 8 -->
      <defs>
       <path d="M 31.78125 34.625 
Q 24.75 34.625 20.71875 30.859375 
Q 16.703125 27.09375 16.703125 20.515625 
Q 16.703125 13.921875 20.71875 10.15625 
Q 24.75 6.390625 31.78125 6.390625 
Q 38.8125 6.390625 42.859375 10.171875 
Q 46.921875 13.96875 46.921875 20.515625 
Q 46.921875 27.09375 42.890625 30.859375 
Q 38.875 34.625 31.78125 34.625 
M 21.921875 38.8125 
Q 15.578125 40.375 12.03125 44.71875 
Q 8.5 49.078125 8.5 55.328125 
Q 8.5 64.0625 14.71875 69.140625 
Q 20.953125 74.21875 31.78125 74.21875 
Q 42.671875 74.21875 48.875 69.140625 
Q 55.078125 64.0625 55.078125 55.328125 
Q 55.078125 49.078125 51.53125 44.71875 
Q 48 40.375 41.703125 38.8125 
Q 48.828125 37.15625 52.796875 32.3125 
Q 56.78125 27.484375 56.78125 20.515625 
Q 56.78125 9.90625 50.3125 4.234375 
Q 43.84375 -1.421875 31.78125 -1.421875 
Q 19.734375 -1.421875 13.25 4.234375 
Q 6.78125 9.90625 6.78125 20.515625 
Q 6.78125 27.484375 10.78125 32.3125 
Q 14.796875 37.15625 21.921875 38.8125 
M 18.3125 54.390625 
Q 18.3125 48.734375 21.84375 45.5625 
Q 25.390625 42.390625 31.78125 42.390625 
Q 38.140625 42.390625 41.71875 45.5625 
Q 45.3125 48.734375 45.3125 54.390625 
Q 45.3125 60.0625 41.71875 63.234375 
Q 38.140625 66.40625 31.78125 66.40625 
Q 25.390625 66.40625 21.84375 63.234375 
Q 18.3125 60.0625 18.3125 54.390625 
" id="BitstreamVeraSans-Roman-38"/>
      </defs>
      <g transform="translate(351.075892857 263.5984375)scale(0.1 -0.1)">
       <use xlink:href="#BitstreamVeraSans-Roman-38"/>
      </g>
     </g>
    </g>
    <g id="text_6">
     <!-- X0 -->
     <defs>
      <path d="M 6.296875 72.90625 
L 16.890625 72.90625 
L 35.015625 45.796875 
L 53.21875 72.90625 
L 63.8125 72.90625 
L 40.375 37.890625 
L 65.375 0 
L 54.78125 0 
L 34.28125 31 
L 13.625 0 
L 2.984375 0 
L 29 38.921875 
z
" id="BitstreamVeraSans-Roman-58"/>
      <path d="M 31.78125 66.40625 
Q 24.171875 66.40625 20.328125 58.90625 
Q 16.5 51.421875 16.5 36.375 
Q 16.5 21.390625 20.328125 13.890625 
Q 24.171875 6.390625 31.78125 6.390625 
Q 39.453125 6.390625 43.28125 13.890625 
Q 47.125 21.390625 47.125 36.375 
Q 47.125 51.421875 43.28125 58.90625 
Q 39.453125 66.40625 31.78125 66.40625 
M 31.78125 74.21875 
Q 44.046875 74.21875 50.515625 64.515625 
Q 56.984375 54.828125 56.984375 36.375 
Q 56.984375 17.96875 50.515625 8.265625 
Q 44.046875 -1.421875 31.78125 -1.421875 
Q 19.53125 -1.421875 13.0625 8.265625 
Q 6.59375 17.96875 6.59375 36.375 
Q 6.59375 54.828125 13.0625 64.515625 
Q 19.53125 74.21875 31.78125 74.21875 
" id="BitstreamVeraSans-Roman-30"/>
     </defs>
     <g transform="translate(214.79375 278.2765625)scale(0.1 -0.1)">
      <use xlink:href="#BitstreamVeraSans-Roman-58"/>
      <use x="68.505859375" xlink:href="#BitstreamVeraSans-Roman-30"/>
     </g>
    </g>
   </g>
   <g id="matplotlib.axis_2">
    <g id="ytick_1">
     <g id="line2d_16">
      <path clip-path="url(#p4c93399af5)" d="M 54 243.733333 
L 388.8 243.733333 
" style="fill:none;stroke:#000000;stroke-dasharray:1.000000,3.000000;stroke-dashoffset:0.0;stroke-width:0.5;"/>
     </g>
     <g id="line2d_17">
      <defs>
       <path d="M 0 0 
L 4 0 
" id="m832f1a5e4e" style="stroke:#000000;stroke-width:0.5;"/>
      </defs>
      <g>
       <use style="stroke:#000000;stroke-width:0.5;" x="54.0" xlink:href="#m832f1a5e4e" y="243.733333333"/>
      </g>
     </g>
     <g id="line2d_18">
      <defs>
       <path d="M 0 0 
L -4 0 
" id="m0eba0ce9d9" style="stroke:#000000;stroke-width:0.5;"/>
      </defs>
      <g>
       <use style="stroke:#000000;stroke-width:0.5;" x="388.8" xlink:href="#m0eba0ce9d9" y="243.733333333"/>
      </g>
     </g>
     <g id="text_7">
      <!-- 4 -->
      <g transform="translate(43.6375 246.492708333)scale(0.1 -0.1)">
       <use xlink:href="#BitstreamVeraSans-Roman-34"/>
      </g>
     </g>
    </g>
    <g id="ytick_2">
     <g id="line2d_19">
      <path clip-path="url(#p4c93399af5)" d="M 54 214.209524 
L 388.8 214.209524 
" style="fill:none;stroke:#000000;stroke-dasharray:1.000000,3.000000;stroke-dashoffset:0.0;stroke-width:0.5;"/>
     </g>
     <g id="line2d_20">
      <g>
       <use style="stroke:#000000;stroke-width:0.5;" x="54.0" xlink:href="#m832f1a5e4e" y="214.20952381"/>
      </g>
     </g>
     <g id="line2d_21">
      <g>
       <use style="stroke:#000000;stroke-width:0.5;" x="388.8" xlink:href="#m0eba0ce9d9" y="214.20952381"/>
      </g>
     </g>
     <g id="text_8">
      <!-- 5 -->
      <g transform="translate(43.6375 216.96889881)scale(0.1 -0.1)">
       <use xlink:href="#BitstreamVeraSans-Roman-35"/>
      </g>
     </g>
    </g>
    <g id="ytick_3">
     <g id="line2d_22">
      <path clip-path="url(#p4c93399af5)" d="M 54 184.685714 
L 388.8 184.685714 
" style="fill:none;stroke:#000000;stroke-dasharray:1.000000,3.000000;stroke-dashoffset:0.0;stroke-width:0.5;"/>
     </g>
     <g id="line2d_23">
      <g>
       <use style="stroke:#000000;stroke-width:0.5;" x="54.0" xlink:href="#m832f1a5e4e" y="184.685714286"/>
      </g>
     </g>
     <g id="line2d_24">
      <g>
       <use style="stroke:#000000;stroke-width:0.5;" x="388.8" xlink:href="#m0eba0ce9d9" y="184.685714286"/>
      </g>
     </g>
     <g id="text_9">
      <!-- 6 -->
      <g transform="translate(43.6375 187.445089286)scale(0.1 -0.1)">
       <use xlink:href="#BitstreamVeraSans-Roman-36"/>
      </g>
     </g>
    </g>
    <g id="ytick_4">
     <g id="line2d_25">
      <path clip-path="url(#p4c93399af5)" d="M 54 155.161905 
L 388.8 155.161905 
" style="fill:none;stroke:#000000;stroke-dasharray:1.000000,3.000000;stroke-dashoffset:0.0;stroke-width:0.5;"/>
     </g>
     <g id="line2d_26">
      <g>
       <use style="stroke:#000000;stroke-width:0.5;" x="54.0" xlink:href="#m832f1a5e4e" y="155.161904762"/>
      </g>
     </g>
     <g id="line2d_27">
      <g>
       <use style="stroke:#000000;stroke-width:0.5;" x="388.8" xlink:href="#m0eba0ce9d9" y="155.161904762"/>
      </g>
     </g>
     <g id="text_10">
      <!-- 7 -->
      <g transform="translate(43.6375 157.921279762)scale(0.1 -0.1)">
       <use xlink:href="#BitstreamVeraSans-Roman-37"/>
      </g>
     </g>
    </g>
    <g id="ytick_5">
     <g id="line2d_28">
      <path clip-path="url(#p4c93399af5)" d="M 54 125.638095 
L 388.8 125.638095 
" style="fill:none;stroke:#000000;stroke-dasharray:1.000000,3.000000;stroke-dashoffset:0.0;stroke-width:0.5;"/>
     </g>
     <g id="line2d_29">
      <g>
       <use style="stroke:#000000;stroke-width:0.5;" x="54.0" xlink:href="#m832f1a5e4e" y="125.638095238"/>
      </g>
     </g>
     <g id="line2d_30">
      <g>
       <use style="stroke:#000000;stroke-width:0.5;" x="388.8" xlink:href="#m0eba0ce9d9" y="125.638095238"/>
      </g>
     </g>
     <g id="text_11">
      <!-- 8 -->
      <g transform="translate(43.6375 128.397470238)scale(0.1 -0.1)">
       <use xlink:href="#BitstreamVeraSans-Roman-38"/>
      </g>
     </g>
    </g>
    <g id="ytick_6">
     <g id="line2d_31">
      <path clip-path="url(#p4c93399af5)" d="M 54 96.114286 
L 388.8 96.114286 
" style="fill:none;stroke:#000000;stroke-dasharray:1.000000,3.000000;stroke-dashoffset:0.0;stroke-width:0.5;"/>
     </g>
     <g id="line2d_32">
      <g>
       <use style="stroke:#000000;stroke-width:0.5;" x="54.0" xlink:href="#m832f1a5e4e" y="96.1142857143"/>
      </g>
     </g>
     <g id="line2d_33">
      <g>
       <use style="stroke:#000000;stroke-width:0.5;" x="388.8" xlink:href="#m0eba0ce9d9" y="96.1142857143"/>
      </g>
     </g>
     <g id="text_12">
      <!-- 9 -->
      <defs>
       <path d="M 10.984375 1.515625 
L 10.984375 10.5 
Q 14.703125 8.734375 18.5 7.8125 
Q 22.3125 6.890625 25.984375 6.890625 
Q 35.75 6.890625 40.890625 13.453125 
Q 46.046875 20.015625 46.78125 33.40625 
Q 43.953125 29.203125 39.59375 26.953125 
Q 35.25 24.703125 29.984375 24.703125 
Q 19.046875 24.703125 12.671875 31.3125 
Q 6.296875 37.9375 6.296875 49.421875 
Q 6.296875 60.640625 12.9375 67.421875 
Q 19.578125 74.21875 30.609375 74.21875 
Q 43.265625 74.21875 49.921875 64.515625 
Q 56.59375 54.828125 56.59375 36.375 
Q 56.59375 19.140625 48.40625 8.859375 
Q 40.234375 -1.421875 26.421875 -1.421875 
Q 22.703125 -1.421875 18.890625 -0.6875 
Q 15.09375 0.046875 10.984375 1.515625 
M 30.609375 32.421875 
Q 37.25 32.421875 41.125 36.953125 
Q 45.015625 41.5 45.015625 49.421875 
Q 45.015625 57.28125 41.125 61.84375 
Q 37.25 66.40625 30.609375 66.40625 
Q 23.96875 66.40625 20.09375 61.84375 
Q 16.21875 57.28125 16.21875 49.421875 
Q 16.21875 41.5 20.09375 36.953125 
Q 23.96875 32.421875 30.609375 32.421875 
" id="BitstreamVeraSans-Roman-39"/>
      </defs>
      <g transform="translate(43.6375 98.8736607143)scale(0.1 -0.1)">
       <use xlink:href="#BitstreamVeraSans-Roman-39"/>
      </g>
     </g>
    </g>
    <g id="ytick_7">
     <g id="line2d_34">
      <path clip-path="url(#p4c93399af5)" d="M 54 66.590476 
L 388.8 66.590476 
" style="fill:none;stroke:#000000;stroke-dasharray:1.000000,3.000000;stroke-dashoffset:0.0;stroke-width:0.5;"/>
     </g>
     <g id="line2d_35">
      <g>
       <use style="stroke:#000000;stroke-width:0.5;" x="54.0" xlink:href="#m832f1a5e4e" y="66.5904761905"/>
      </g>
     </g>
     <g id="line2d_36">
      <g>
       <use style="stroke:#000000;stroke-width:0.5;" x="388.8" xlink:href="#m0eba0ce9d9" y="66.5904761905"/>
      </g>
     </g>
     <g id="text_13">
      <!-- 10 -->
      <defs>
       <path d="M 12.40625 8.296875 
L 28.515625 8.296875 
L 28.515625 63.921875 
L 10.984375 60.40625 
L 10.984375 69.390625 
L 28.421875 72.90625 
L 38.28125 72.90625 
L 38.28125 8.296875 
L 54.390625 8.296875 
L 54.390625 0 
L 12.40625 0 
z
" id="BitstreamVeraSans-Roman-31"/>
      </defs>
      <g transform="translate(37.275 69.3498511905)scale(0.1 -0.1)">
       <use xlink:href="#BitstreamVeraSans-Roman-31"/>
       <use x="63.623046875" xlink:href="#BitstreamVeraSans-Roman-30"/>
      </g>
     </g>
    </g>
    <g id="ytick_8">
     <g id="line2d_37">
      <path clip-path="url(#p4c93399af5)" d="M 54 37.066667 
L 388.8 37.066667 
" style="fill:none;stroke:#000000;stroke-dasharray:1.000000,3.000000;stroke-dashoffset:0.0;stroke-width:0.5;"/>
     </g>
     <g id="line2d_38">
      <g>
       <use style="stroke:#000000;stroke-width:0.5;" x="54.0" xlink:href="#m832f1a5e4e" y="37.0666666667"/>
      </g>
     </g>
     <g id="line2d_39">
      <g>
       <use style="stroke:#000000;stroke-width:0.5;" x="388.8" xlink:href="#m0eba0ce9d9" y="37.0666666667"/>
      </g>
     </g>
     <g id="text_14">
      <!-- 11 -->
      <g transform="translate(37.275 39.8260416667)scale(0.1 -0.1)">
       <use xlink:href="#BitstreamVeraSans-Roman-31"/>
       <use x="63.623046875" xlink:href="#BitstreamVeraSans-Roman-31"/>
      </g>
     </g>
    </g>
    <g id="text_15">
     <!-- X1 -->
     <g transform="translate(30.1953125 147.00625)rotate(-90.0)scale(0.1 -0.1)">
      <use xlink:href="#BitstreamVeraSans-Roman-58"/>
      <use x="68.505859375" xlink:href="#BitstreamVeraSans-Roman-31"/>
     </g>
    </g>
   </g>
   <g id="text_16">
    <g clip-path="url(#p4c93399af5)">
     <!-- 0 -->
     <g style="fill:#0000ff;" transform="translate(151.18625 29.7425)rotate(-270.0)scale(0.08 -0.08)">
      <use xlink:href="#BitstreamVeraSans-Roman-30"/>
     </g>
    </g>
   </g>
   <g id="text_17">
    <g clip-path="url(#p4c93399af5)">
     <!-- 0.0412756 -->
     <defs>
      <path d="M 19.1875 8.296875 
L 53.609375 8.296875 
L 53.609375 0 
L 7.328125 0 
L 7.328125 8.296875 
Q 12.9375 14.109375 22.625 23.890625 
Q 32.328125 33.6875 34.8125 36.53125 
Q 39.546875 41.84375 41.421875 45.53125 
Q 43.3125 49.21875 43.3125 52.78125 
Q 43.3125 58.59375 39.234375 62.25 
Q 35.15625 65.921875 28.609375 65.921875 
Q 23.96875 65.921875 18.8125 64.3125 
Q 13.671875 62.703125 7.8125 59.421875 
L 7.8125 69.390625 
Q 13.765625 71.78125 18.9375 73 
Q 24.125 74.21875 28.421875 74.21875 
Q 39.75 74.21875 46.484375 68.546875 
Q 53.21875 62.890625 53.21875 53.421875 
Q 53.21875 48.921875 51.53125 44.890625 
Q 49.859375 40.875 45.40625 35.40625 
Q 44.1875 33.984375 37.640625 27.21875 
Q 31.109375 20.453125 19.1875 8.296875 
" id="BitstreamVeraSans-Roman-32"/>
      <path d="M 10.6875 12.40625 
L 21 12.40625 
L 21 0 
L 10.6875 0 
z
" id="BitstreamVeraSans-Roman-2e"/>
     </defs>
     <g style="fill:#0000ff;" transform="translate(304.39375 183.237376674)scale(0.08 -0.08)">
      <use xlink:href="#BitstreamVeraSans-Roman-30"/>
      <use x="63.623046875" xlink:href="#BitstreamVeraSans-Roman-2e"/>
      <use x="95.41015625" xlink:href="#BitstreamVeraSans-Roman-30"/>
      <use x="159.033203125" xlink:href="#BitstreamVeraSans-Roman-34"/>
      <use x="222.65625" xlink:href="#BitstreamVeraSans-Roman-31"/>
      <use x="286.279296875" xlink:href="#BitstreamVeraSans-Roman-32"/>
      <use x="349.90234375" xlink:href="#BitstreamVeraSans-Roman-37"/>
      <use x="413.525390625" xlink:href="#BitstreamVeraSans-Roman-35"/>
      <use x="477.1484375" xlink:href="#BitstreamVeraSans-Roman-36"/>
     </g>
    </g>
   </g>
   <g id="text_18">
    <g clip-path="url(#p4c93399af5)">
     <!-- 0.213787 -->
     <defs>
      <path d="M 40.578125 39.3125 
Q 47.65625 37.796875 51.625 33 
Q 55.609375 28.21875 55.609375 21.1875 
Q 55.609375 10.40625 48.1875 4.484375 
Q 40.765625 -1.421875 27.09375 -1.421875 
Q 22.515625 -1.421875 17.65625 -0.515625 
Q 12.796875 0.390625 7.625 2.203125 
L 7.625 11.71875 
Q 11.71875 9.328125 16.59375 8.109375 
Q 21.484375 6.890625 26.8125 6.890625 
Q 36.078125 6.890625 40.9375 10.546875 
Q 45.796875 14.203125 45.796875 21.1875 
Q 45.796875 27.640625 41.28125 31.265625 
Q 36.765625 34.90625 28.71875 34.90625 
L 20.21875 34.90625 
L 20.21875 43.015625 
L 29.109375 43.015625 
Q 36.375 43.015625 40.234375 45.921875 
Q 44.09375 48.828125 44.09375 54.296875 
Q 44.09375 59.90625 40.109375 62.90625 
Q 36.140625 65.921875 28.71875 65.921875 
Q 24.65625 65.921875 20.015625 65.03125 
Q 15.375 64.15625 9.8125 62.3125 
L 9.8125 71.09375 
Q 15.4375 72.65625 20.34375 73.4375 
Q 25.25 74.21875 29.59375 74.21875 
Q 40.828125 74.21875 47.359375 69.109375 
Q 53.90625 64.015625 53.90625 55.328125 
Q 53.90625 49.265625 50.4375 45.09375 
Q 46.96875 40.921875 40.578125 39.3125 
" id="BitstreamVeraSans-Roman-33"/>
     </defs>
     <g style="fill:#0000ff;" transform="translate(224.163952216 152.101114839)rotate(-341.4088508438855)scale(0.08 -0.08)">
      <use xlink:href="#BitstreamVeraSans-Roman-30"/>
      <use x="63.623046875" xlink:href="#BitstreamVeraSans-Roman-2e"/>
      <use x="95.41015625" xlink:href="#BitstreamVeraSans-Roman-32"/>
      <use x="159.033203125" xlink:href="#BitstreamVeraSans-Roman-31"/>
      <use x="222.65625" xlink:href="#BitstreamVeraSans-Roman-33"/>
      <use x="286.279296875" xlink:href="#BitstreamVeraSans-Roman-37"/>
      <use x="349.90234375" xlink:href="#BitstreamVeraSans-Roman-38"/>
      <use x="413.525390625" xlink:href="#BitstreamVeraSans-Roman-37"/>
     </g>
    </g>
   </g>
   <g id="text_19">
    <g clip-path="url(#p4c93399af5)">
     <!-- 0.460625 -->
     <g style="fill:#0000ff;" transform="translate(213.96125 42.845)rotate(-270.0)scale(0.08 -0.08)">
      <use xlink:href="#BitstreamVeraSans-Roman-30"/>
      <use x="63.623046875" xlink:href="#BitstreamVeraSans-Roman-2e"/>
      <use x="95.41015625" xlink:href="#BitstreamVeraSans-Roman-34"/>
      <use x="159.033203125" xlink:href="#BitstreamVeraSans-Roman-36"/>
      <use x="222.65625" xlink:href="#BitstreamVeraSans-Roman-30"/>
      <use x="286.279296875" xlink:href="#BitstreamVeraSans-Roman-36"/>
      <use x="349.90234375" xlink:href="#BitstreamVeraSans-Roman-32"/>
      <use x="413.525390625" xlink:href="#BitstreamVeraSans-Roman-35"/>
     </g>
    </g>
   </g>
   <g id="text_20">
    <g clip-path="url(#p4c93399af5)">
     <!-- 0.775625 -->
     <g style="fill:#0000ff;" transform="translate(263.030169203 107.503279104)rotate(-338.0652430971022)scale(0.08 -0.08)">
      <use xlink:href="#BitstreamVeraSans-Roman-30"/>
      <use x="63.623046875" xlink:href="#BitstreamVeraSans-Roman-2e"/>
      <use x="95.41015625" xlink:href="#BitstreamVeraSans-Roman-37"/>
      <use x="159.033203125" xlink:href="#BitstreamVeraSans-Roman-37"/>
      <use x="222.65625" xlink:href="#BitstreamVeraSans-Roman-35"/>
      <use x="286.279296875" xlink:href="#BitstreamVeraSans-Roman-36"/>
      <use x="349.90234375" xlink:href="#BitstreamVeraSans-Roman-32"/>
      <use x="413.525390625" xlink:href="#BitstreamVeraSans-Roman-35"/>
     </g>
    </g>
   </g>
   <g id="text_21">
    <!-- [X0,X1] iso-CDF -->
    <defs>
     <path d="M 30.609375 48.390625 
Q 23.390625 48.390625 19.1875 42.75 
Q 14.984375 37.109375 14.984375 27.296875 
Q 14.984375 17.484375 19.15625 11.84375 
Q 23.34375 6.203125 30.609375 6.203125 
Q 37.796875 6.203125 41.984375 11.859375 
Q 46.1875 17.53125 46.1875 27.296875 
Q 46.1875 37.015625 41.984375 42.703125 
Q 37.796875 48.390625 30.609375 48.390625 
M 30.609375 56 
Q 42.328125 56 49.015625 48.375 
Q 55.71875 40.765625 55.71875 27.296875 
Q 55.71875 13.875 49.015625 6.21875 
Q 42.328125 -1.421875 30.609375 -1.421875 
Q 18.84375 -1.421875 12.171875 6.21875 
Q 5.515625 13.875 5.515625 27.296875 
Q 5.515625 40.765625 12.171875 48.375 
Q 18.84375 56 30.609375 56 
" id="BitstreamVeraSans-Roman-6f"/>
     <path d="M 44.28125 53.078125 
L 44.28125 44.578125 
Q 40.484375 46.53125 36.375 47.5 
Q 32.28125 48.484375 27.875 48.484375 
Q 21.1875 48.484375 17.84375 46.4375 
Q 14.5 44.390625 14.5 40.28125 
Q 14.5 37.15625 16.890625 35.375 
Q 19.28125 33.59375 26.515625 31.984375 
L 29.59375 31.296875 
Q 39.15625 29.25 43.1875 25.515625 
Q 47.21875 21.78125 47.21875 15.09375 
Q 47.21875 7.46875 41.1875 3.015625 
Q 35.15625 -1.421875 24.609375 -1.421875 
Q 20.21875 -1.421875 15.453125 -0.5625 
Q 10.6875 0.296875 5.421875 2 
L 5.421875 11.28125 
Q 10.40625 8.6875 15.234375 7.390625 
Q 20.0625 6.109375 24.8125 6.109375 
Q 31.15625 6.109375 34.5625 8.28125 
Q 37.984375 10.453125 37.984375 14.40625 
Q 37.984375 18.0625 35.515625 20.015625 
Q 33.0625 21.96875 24.703125 23.78125 
L 21.578125 24.515625 
Q 13.234375 26.265625 9.515625 29.90625 
Q 5.8125 33.546875 5.8125 39.890625 
Q 5.8125 47.609375 11.28125 51.796875 
Q 16.75 56 26.8125 56 
Q 31.78125 56 36.171875 55.265625 
Q 40.578125 54.546875 44.28125 53.078125 
" id="BitstreamVeraSans-Roman-73"/>
     <path d="M 9.8125 72.90625 
L 51.703125 72.90625 
L 51.703125 64.59375 
L 19.671875 64.59375 
L 19.671875 43.109375 
L 48.578125 43.109375 
L 48.578125 34.8125 
L 19.671875 34.8125 
L 19.671875 0 
L 9.8125 0 
z
" id="BitstreamVeraSans-Roman-46"/>
     <path d="M 4.890625 31.390625 
L 31.203125 31.390625 
L 31.203125 23.390625 
L 4.890625 23.390625 
z
" id="BitstreamVeraSans-Roman-2d"/>
     <path d="M 9.421875 54.6875 
L 18.40625 54.6875 
L 18.40625 0 
L 9.421875 0 
z
M 9.421875 75.984375 
L 18.40625 75.984375 
L 18.40625 64.59375 
L 9.421875 64.59375 
z
" id="BitstreamVeraSans-Roman-69"/>
     <path d="M 19.671875 64.796875 
L 19.671875 8.109375 
L 31.59375 8.109375 
Q 46.6875 8.109375 53.6875 14.9375 
Q 60.6875 21.78125 60.6875 36.53125 
Q 60.6875 51.171875 53.6875 57.984375 
Q 46.6875 64.796875 31.59375 64.796875 
z
M 9.8125 72.90625 
L 30.078125 72.90625 
Q 51.265625 72.90625 61.171875 64.09375 
Q 71.09375 55.28125 71.09375 36.53125 
Q 71.09375 17.671875 61.125 8.828125 
Q 51.171875 0 30.078125 0 
L 9.8125 0 
z
" id="BitstreamVeraSans-Roman-44"/>
     <path d="M 11.71875 12.40625 
L 22.015625 12.40625 
L 22.015625 4 
L 14.015625 -11.625 
L 7.71875 -11.625 
L 11.71875 4 
z
" id="BitstreamVeraSans-Roman-2c"/>
     <path d="M 30.421875 75.984375 
L 30.421875 -13.1875 
L 9.71875 -13.1875 
L 9.71875 -6.203125 
L 21.390625 -6.203125 
L 21.390625 69 
L 9.71875 69 
L 9.71875 75.984375 
z
" id="BitstreamVeraSans-Roman-5d"/>
     <path d="M 8.59375 75.984375 
L 29.296875 75.984375 
L 29.296875 69 
L 17.578125 69 
L 17.578125 -6.203125 
L 29.296875 -6.203125 
L 29.296875 -13.1875 
L 8.59375 -13.1875 
z
" id="BitstreamVeraSans-Roman-5b"/>
     <path d="M 64.40625 67.28125 
L 64.40625 56.890625 
Q 59.421875 61.53125 53.78125 63.8125 
Q 48.140625 66.109375 41.796875 66.109375 
Q 29.296875 66.109375 22.65625 58.46875 
Q 16.015625 50.828125 16.015625 36.375 
Q 16.015625 21.96875 22.65625 14.328125 
Q 29.296875 6.6875 41.796875 6.6875 
Q 48.140625 6.6875 53.78125 8.984375 
Q 59.421875 11.28125 64.40625 15.921875 
L 64.40625 5.609375 
Q 59.234375 2.09375 53.4375 0.328125 
Q 47.65625 -1.421875 41.21875 -1.421875 
Q 24.65625 -1.421875 15.125 8.703125 
Q 5.609375 18.84375 5.609375 36.375 
Q 5.609375 53.953125 15.125 64.078125 
Q 24.65625 74.21875 41.21875 74.21875 
Q 47.75 74.21875 53.53125 72.484375 
Q 59.328125 70.75 64.40625 67.28125 
" id="BitstreamVeraSans-Roman-43"/>
     <path id="BitstreamVeraSans-Roman-20"/>
    </defs>
    <g transform="translate(174.159375 23.8)scale(0.12 -0.12)">
     <use xlink:href="#BitstreamVeraSans-Roman-5b"/>
     <use x="39.013671875" xlink:href="#BitstreamVeraSans-Roman-58"/>
     <use x="107.51953125" xlink:href="#BitstreamVeraSans-Roman-30"/>
     <use x="171.142578125" xlink:href="#BitstreamVeraSans-Roman-2c"/>
     <use x="202.9296875" xlink:href="#BitstreamVeraSans-Roman-58"/>
     <use x="271.435546875" xlink:href="#BitstreamVeraSans-Roman-31"/>
     <use x="335.05859375" xlink:href="#BitstreamVeraSans-Roman-5d"/>
     <use x="374.072265625" xlink:href="#BitstreamVeraSans-Roman-20"/>
     <use x="405.859375" xlink:href="#BitstreamVeraSans-Roman-69"/>
     <use x="433.642578125" xlink:href="#BitstreamVeraSans-Roman-73"/>
     <use x="485.7421875" xlink:href="#BitstreamVeraSans-Roman-6f"/>
     <use x="546.939453125" xlink:href="#BitstreamVeraSans-Roman-2d"/>
     <use x="583.0234375" xlink:href="#BitstreamVeraSans-Roman-43"/>
     <use x="652.84765625" xlink:href="#BitstreamVeraSans-Roman-44"/>
     <use x="729.849609375" xlink:href="#BitstreamVeraSans-Roman-46"/>
    </g>
   </g>
   <g id="legend_1">
    <g id="patch_7">
     <path d="M 297.721875 126.86875 
L 383.8 126.86875 
Q 385.8 126.86875 385.8 124.86875 
L 385.8 37.8 
Q 385.8 35.8 383.8 35.8 
L 297.721875 35.8 
Q 295.721875 35.8 295.721875 37.8 
L 295.721875 124.86875 
Q 295.721875 126.86875 297.721875 126.86875 
z
" style="fill:#4c4c4c;opacity:0.5;stroke:#4c4c4c;stroke-linejoin:miter;"/>
    </g>
    <g id="patch_8">
     <path d="M 295.721875 124.86875 
L 381.8 124.86875 
Q 383.8 124.86875 383.8 122.86875 
L 383.8 35.8 
Q 383.8 33.8 381.8 33.8 
L 295.721875 33.8 
Q 293.721875 33.8 293.721875 35.8 
L 293.721875 122.86875 
Q 293.721875 124.86875 295.721875 124.86875 
z
" style="fill:#ffffff;stroke:#000000;stroke-linejoin:miter;"/>
    </g>
    <g id="line2d_40">
     <path d="M 300.721875 41.898438 
L 307.721875 41.898438 
L 314.721875 41.898438 
" style="fill:none;stroke:#0000ff;stroke-linecap:square;"/>
    </g>
    <g id="text_22">
     <!-- 0 -->
     <g transform="translate(325.721875 45.3984375)scale(0.1 -0.1)">
      <use xlink:href="#BitstreamVeraSans-Roman-30"/>
     </g>
    </g>
    <g id="line2d_41">
     <path d="M 300.721875 56.576562 
L 307.721875 56.576562 
L 314.721875 56.576562 
" style="fill:none;stroke:#0000ff;stroke-linecap:square;"/>
    </g>
    <g id="text_23">
     <!-- 0.0412756 -->
     <g transform="translate(325.721875 60.0765625)scale(0.1 -0.1)">
      <use xlink:href="#BitstreamVeraSans-Roman-30"/>
      <use x="63.623046875" xlink:href="#BitstreamVeraSans-Roman-2e"/>
      <use x="95.41015625" xlink:href="#BitstreamVeraSans-Roman-30"/>
      <use x="159.033203125" xlink:href="#BitstreamVeraSans-Roman-34"/>
      <use x="222.65625" xlink:href="#BitstreamVeraSans-Roman-31"/>
      <use x="286.279296875" xlink:href="#BitstreamVeraSans-Roman-32"/>
      <use x="349.90234375" xlink:href="#BitstreamVeraSans-Roman-37"/>
      <use x="413.525390625" xlink:href="#BitstreamVeraSans-Roman-35"/>
      <use x="477.1484375" xlink:href="#BitstreamVeraSans-Roman-36"/>
     </g>
    </g>
    <g id="line2d_42">
     <path d="M 300.721875 71.254687 
L 307.721875 71.254687 
L 314.721875 71.254687 
" style="fill:none;stroke:#0000ff;stroke-linecap:square;"/>
    </g>
    <g id="text_24">
     <!-- 0.213787 -->
     <g transform="translate(325.721875 74.7546875)scale(0.1 -0.1)">
      <use xlink:href="#BitstreamVeraSans-Roman-30"/>
      <use x="63.623046875" xlink:href="#BitstreamVeraSans-Roman-2e"/>
      <use x="95.41015625" xlink:href="#BitstreamVeraSans-Roman-32"/>
      <use x="159.033203125" xlink:href="#BitstreamVeraSans-Roman-31"/>
      <use x="222.65625" xlink:href="#BitstreamVeraSans-Roman-33"/>
      <use x="286.279296875" xlink:href="#BitstreamVeraSans-Roman-37"/>
      <use x="349.90234375" xlink:href="#BitstreamVeraSans-Roman-38"/>
      <use x="413.525390625" xlink:href="#BitstreamVeraSans-Roman-37"/>
     </g>
    </g>
    <g id="line2d_43">
     <path d="M 300.721875 85.932813 
L 307.721875 85.932813 
L 314.721875 85.932813 
" style="fill:none;stroke:#0000ff;stroke-linecap:square;"/>
    </g>
    <g id="text_25">
     <!-- 0.460625 -->
     <g transform="translate(325.721875 89.4328125)scale(0.1 -0.1)">
      <use xlink:href="#BitstreamVeraSans-Roman-30"/>
      <use x="63.623046875" xlink:href="#BitstreamVeraSans-Roman-2e"/>
      <use x="95.41015625" xlink:href="#BitstreamVeraSans-Roman-34"/>
      <use x="159.033203125" xlink:href="#BitstreamVeraSans-Roman-36"/>
      <use x="222.65625" xlink:href="#BitstreamVeraSans-Roman-30"/>
      <use x="286.279296875" xlink:href="#BitstreamVeraSans-Roman-36"/>
      <use x="349.90234375" xlink:href="#BitstreamVeraSans-Roman-32"/>
      <use x="413.525390625" xlink:href="#BitstreamVeraSans-Roman-35"/>
     </g>
    </g>
    <g id="line2d_44">
     <path d="M 300.721875 100.610938 
L 307.721875 100.610938 
L 314.721875 100.610938 
" style="fill:none;stroke:#0000ff;stroke-linecap:square;"/>
    </g>
    <g id="text_26">
     <!-- 0.775625 -->
     <g transform="translate(325.721875 104.1109375)scale(0.1 -0.1)">
      <use xlink:href="#BitstreamVeraSans-Roman-30"/>
      <use x="63.623046875" xlink:href="#BitstreamVeraSans-Roman-2e"/>
      <use x="95.41015625" xlink:href="#BitstreamVeraSans-Roman-37"/>
      <use x="159.033203125" xlink:href="#BitstreamVeraSans-Roman-37"/>
      <use x="222.65625" xlink:href="#BitstreamVeraSans-Roman-35"/>
      <use x="286.279296875" xlink:href="#BitstreamVeraSans-Roman-36"/>
      <use x="349.90234375" xlink:href="#BitstreamVeraSans-Roman-32"/>
      <use x="413.525390625" xlink:href="#BitstreamVeraSans-Roman-35"/>
     </g>
    </g>
    <g id="line2d_45">
     <path d="M 300.721875 115.289062 
L 307.721875 115.289062 
L 314.721875 115.289062 
" style="fill:none;stroke:#0000ff;stroke-linecap:square;"/>
    </g>
    <g id="text_27">
     <!-- 1 -->
     <g transform="translate(325.721875 118.7890625)scale(0.1 -0.1)">
      <use xlink:href="#BitstreamVeraSans-Roman-31"/>
     </g>
    </g>
   </g>
  </g>
 </g>
 <defs>
  <clipPath id="p4c93399af5">
   <rect height="223.2" width="334.8" x="54.0" y="28.8"/>
  </clipPath>
 </defs>
</svg>
